<?xml version="1.0" encoding="UTF-8" standalone="no"?>
<svg width="586px" height="118px" viewBox="0 0 586 118" version="1.1" xmlns="http://www.w3.org/2000/svg" xmlns:xlink="http://www.w3.org/1999/xlink">
    <!-- Generator: Sketch 48.2 (47327) - http://www.bohemiancoding.com/sketch -->
    <title>Status</title>
    <desc>Created with Sketch.</desc>
    <defs>
        <linearGradient x1="0%" y1="120.762122%" x2="100%" y2="120.762122%" id="linearGradient-1">
            <stop stop-color="#FF5C5C" offset="0%"></stop>
            <stop stop-color="#5300FF" offset="100%"></stop>
        </linearGradient>
        <linearGradient x1="50%" y1="-2.22044605e-14%" x2="50%" y2="100%" id="linearGradient-2">
            <stop stop-color="#FFFFFF" stop-opacity="0.212013134" offset="0%"></stop>
            <stop stop-color="#000000" stop-opacity="0" offset="100%"></stop>
        </linearGradient>
    </defs>
    <g id="Monoreto" stroke="none" stroke-width="1" fill="none" fill-rule="evenodd">
        <g id="Status" transform="translate(-2.000000, -13.000000)">
            <g id="Group-2" transform="translate(0.000000, 71.307197)">
                <path d="M3.14784291,50.3882387 C3.14784291,45.4132387 5.49784291,41.5632387 10.7728429,41.5632387 C16.0478429,41.5632387 18.3978429,45.4132387 18.3978429,50.3882387 C18.3978429,55.3632387 16.0478429,59.2132387 10.7728429,59.2132387 C5.49784291,59.2132387 3.14784291,55.3632387 3.14784291,50.3882387 Z M15.5228429,50.3882387 C15.5228429,46.4382387 14.0228429,44.1632387 10.7728429,44.1632387 C7.49784291,44.1632387 6.02284291,46.4382387 6.02284291,50.3882387 C6.02284291,54.3382387 7.49784291,56.6132387 10.7728429,56.6132387 C14.0228429,56.6132387 15.5228429,54.3382387 15.5228429,50.3882387 Z M24.8258429,46.2882387 L33.5018429,46.2882387 L33.5018429,48.1602387 L26.8778429,48.1602387 L26.8778429,51.5982387 L32.9618429,51.5982387 L32.9618429,53.4702387 L26.8778429,53.4702387 L26.8778429,57.0162387 L33.6098429,57.0162387 L33.6098429,58.8882387 L24.8258429,58.8882387 L24.8258429,46.2882387 Z M34.4328429,46.2882387 L44.8188429,46.2882387 L44.8188429,48.1782387 L40.6608429,48.1782387 L40.6608429,58.8882387 L38.6088429,58.8882387 L38.6088429,48.1782387 L34.4328429,48.1782387 L34.4328429,46.2882387 Z M55.0198429,46.2882387 L57.0718429,46.2882387 L57.0718429,58.8882387 L55.0198429,58.8882387 L55.0198429,53.5242387 L48.3778429,53.5242387 L48.3778429,58.8882387 L46.3258429,58.8882387 L46.3258429,46.2882387 L48.3778429,46.2882387 L48.3778429,51.6342387 L55.0198429,51.6342387 L55.0198429,46.2882387 Z" id="0-ETH" fill="#07090B"></path>
                <path d="M487.871,49.4882387 C489.496,48.5132387 490.996,48.0882387 492.821,48.0882387 C495.746,48.0882387 498.696,49.9132387 498.696,53.5132387 C498.696,57.2632387 495.821,59.2132387 492.421,59.2132387 C487.221,59.2132387 484.996,55.9132387 484.996,50.5382387 C484.996,44.2882387 488.521,41.5632387 492.871,41.5632387 C494.396,41.5632387 495.946,41.9132387 497.271,42.5632387 L497.271,45.1632387 C496.021,44.4632387 494.546,44.0882387 493.146,44.0882387 C490.571,44.0882387 488.221,45.4132387 487.871,49.4882387 Z M487.896,52.0132387 C488.221,55.4382387 489.796,56.7632387 492.196,56.7632387 C494.171,56.7632387 495.821,55.8882387 495.821,53.6382387 C495.821,51.3132387 493.996,50.5882387 492.021,50.5882387 C490.596,50.5882387 489.121,51.0382387 487.896,52.0132387 Z M508.946,41.8882387 L511.871,41.8882387 L511.871,52.9382387 L514.796,52.9382387 L514.796,55.4132387 L511.871,55.4132387 L511.871,58.8882387 L509.121,58.8882387 L509.121,55.4132387 L499.896,55.4132387 L499.896,52.9882387 L508.946,41.8882387 Z M509.121,52.9382387 L509.121,45.5132387 L503.071,52.9382387 L509.121,52.9382387 Z M516.446,50.3882387 C516.446,45.4132387 518.796,41.5632387 524.071,41.5632387 C529.346,41.5632387 531.696,45.4132387 531.696,50.3882387 C531.696,55.3632387 529.346,59.2132387 524.071,59.2132387 C518.796,59.2132387 516.446,55.3632387 516.446,50.3882387 Z M528.821,50.3882387 C528.821,46.4382387 527.321,44.1632387 524.071,44.1632387 C520.796,44.1632387 519.321,46.4382387 519.321,50.3882387 C519.321,54.3382387 520.796,56.6132387 524.071,56.6132387 C527.321,56.6132387 528.821,54.3382387 528.821,50.3882387 Z M533.821,50.3882387 C533.821,45.4132387 536.171,41.5632387 541.446,41.5632387 C546.721,41.5632387 549.071,45.4132387 549.071,50.3882387 C549.071,55.3632387 546.721,59.2132387 541.446,59.2132387 C536.171,59.2132387 533.821,55.3632387 533.821,50.3882387 Z M546.196,50.3882387 C546.196,46.4382387 544.696,44.1632387 541.446,44.1632387 C538.171,44.1632387 536.696,46.4382387 536.696,50.3882387 C536.696,54.3382387 538.171,56.6132387 541.446,56.6132387 C544.696,56.6132387 546.196,54.3382387 546.196,50.3882387 Z M555.499,46.2882387 L564.175,46.2882387 L564.175,48.1602387 L557.551,48.1602387 L557.551,51.5982387 L563.635,51.5982387 L563.635,53.4702387 L557.551,53.4702387 L557.551,57.0162387 L564.283,57.0162387 L564.283,58.8882387 L555.499,58.8882387 L555.499,46.2882387 Z M565.106,46.2882387 L575.492,46.2882387 L575.492,48.1782387 L571.334,48.1782387 L571.334,58.8882387 L569.282,58.8882387 L569.282,48.1782387 L565.106,48.1782387 L565.106,46.2882387 Z M585.693,46.2882387 L587.745,46.2882387 L587.745,58.8882387 L585.693,58.8882387 L585.693,53.5242387 L579.051,53.5242387 L579.051,58.8882387 L576.999,58.8882387 L576.999,46.2882387 L579.051,46.2882387 L579.051,51.6342387 L585.693,51.6342387 L585.693,46.2882387 Z" id="6400-ETH" fill="#07090B"></path>
                <g id="Group" transform="translate(2.000000, 0.000000)">
                    <rect id="Rectangle-2" stroke="url(#linearGradient-1)" stroke-width="2" x="1" y="1" width="582.88549" height="27.8136998" rx="13.9068499"></rect>
                    <rect id="Rectangle-2" fill="url(#linearGradient-2)" style="mix-blend-mode: lighten;" x="0" y="0" width="584.88549" height="29.8136998" rx="14.9068499"></rect>
                </g>
            </g>
            <path d="M4.16,29.1499707 C4.16,20.1949707 8.39,13.2649707 17.885,13.2649707 C27.38,13.2649707 31.61,20.1949707 31.61,29.1499707 C31.61,38.1049707 27.38,45.0349707 17.885,45.0349707 C8.39,45.0349707 4.16,38.1049707 4.16,29.1499707 Z M26.435,29.1499707 C26.435,22.0399707 23.735,17.9449707 17.885,17.9449707 C11.99,17.9449707 9.335,22.0399707 9.335,29.1499707 C9.335,36.2599707 11.99,40.3549707 17.885,40.3549707 C23.735,40.3549707 26.435,36.2599707 26.435,29.1499707 Z M46.7303846,19.9499707 L63.6003846,19.9499707 L63.6003846,23.5899707 L50.7203846,23.5899707 L50.7203846,30.2749707 L62.5503846,30.2749707 L62.5503846,33.9149707 L50.7203846,33.9149707 L50.7203846,40.8099707 L63.8103846,40.8099707 L63.8103846,44.4499707 L46.7303846,44.4499707 L46.7303846,19.9499707 Z M65.628077,19.9499707 L85.823077,19.9499707 L85.823077,23.6249707 L77.738077,23.6249707 L77.738077,44.4499707 L73.748077,44.4499707 L73.748077,23.6249707 L65.628077,23.6249707 L65.628077,19.9499707 Z M105.875769,19.9499707 L109.865769,19.9499707 L109.865769,44.4499707 L105.875769,44.4499707 L105.875769,34.0199707 L92.9607693,34.0199707 L92.9607693,44.4499707 L88.9707693,44.4499707 L88.9707693,19.9499707 L92.9607693,19.9499707 L92.9607693,30.3449707 L105.875769,30.3449707 L105.875769,19.9499707 Z" id="0-ETH" fill="#5300FF"></path>
        </g>
    </g>
</svg>