<?xml version="1.0" encoding="UTF-8"?>
<svg width="285px" height="73px" viewBox="0 0 285 73" version="1.1" xmlns="http://www.w3.org/2000/svg" xmlns:xlink="http://www.w3.org/1999/xlink">
    <!-- Generator: Sketch 48.2 (47327) - http://www.bohemiancoding.com/sketch -->
    <title>Logo</title>
    <desc>Created with Sketch.</desc>
    <defs>
        <linearGradient x1="26.1295422%" y1="100%" x2="74.1967082%" y2="0%" id="linearGradient-1">
            <stop stop-color="#FF5C5C" offset="0%"></stop>
            <stop stop-color="#5300FF" offset="100%"></stop>
        </linearGradient>
        <rect id="path-2" x="0" y="0" width="71.7370242" height="71.7370242" rx="25"></rect>
    </defs>
    <g id="Monoreto-4" stroke="none" stroke-width="1" fill="none" fill-rule="evenodd" transform="translate(-587.000000, -241.000000)">
        <g id="First" transform="translate(230.000000, 120.000000)">
            <g id="Logo" transform="translate(357.000000, 121.166177)">
                <path d="M112.662103,21.884719 C109.69142,21.884719 107.289591,23.4648696 105.835852,25.7402864 C104.382114,23.4648696 101.917079,21.884719 99.009602,21.884719 C93.257854,21.884719 89.4654927,26.1827285 89.4654927,32.1873006 L89.4654927,53.2981119 C89.4654927,53.8669661 89.7815228,54.1829962 90.350377,54.1829962 L93.9531203,54.1829962 C94.5219745,54.1829962 94.8380046,53.8669661 94.8380046,53.2981119 L94.8380046,31.9976825 C94.8380046,29.0269995 96.3549491,27.0676128 99.009602,27.0676128 C101.664255,27.0676128 103.117993,29.0269995 103.117993,31.9976825 L103.117993,53.2981119 C103.117993,53.8669661 103.434024,54.1829962 104.002878,54.1829962 L107.668827,54.1829962 C108.174475,54.1829962 108.490505,53.8669661 108.490505,53.2981119 L108.490505,31.9976825 C108.490505,29.0269995 110.00745,27.0676128 112.662103,27.0676128 C115.316756,27.0676128 116.770494,29.0269995 116.770494,31.9976825 L116.770494,53.2981119 C116.770494,53.8669661 117.086524,54.1829962 117.655378,54.1829962 L121.321328,54.1829962 C121.826976,54.1829962 122.143006,53.8669661 122.143006,53.2981119 L122.143006,32.1873006 C122.143006,26.1827285 118.413851,21.884719 112.662103,21.884719 Z M137.691687,54.8782624 C131.623909,54.8782624 127.578724,50.5802529 127.578724,44.5756809 L127.578724,32.1873006 C127.578724,26.1827285 131.623909,21.884719 137.691687,21.884719 C143.822671,21.884719 147.804651,26.1827285 147.804651,32.1873006 L147.804651,44.5756809 C147.804651,50.5802529 143.822671,54.8782624 137.691687,54.8782624 Z M137.691687,49.7585747 C140.599164,49.7585747 142.368933,47.735982 142.368933,44.7652989 L142.368933,31.9976825 C142.368933,29.0269995 140.599164,27.0044068 137.691687,27.0044068 C134.78421,27.0044068 133.077648,29.0269995 133.077648,31.9976825 L133.077648,44.7652989 C133.077648,47.735982 134.78421,49.7585747 137.691687,49.7585747 Z M154.188459,54.1829962 L157.854408,54.1829962 C158.423263,54.1829962 158.739293,53.8669661 158.739293,53.2981119 L158.739293,31.9976825 C158.739293,29.0269995 160.382649,27.0044068 163.163714,27.0044068 C165.944779,27.0044068 167.588136,29.0269995 167.588136,31.9976825 L167.588136,53.2981119 C167.588136,53.8669661 167.904166,54.1829962 168.47302,54.1829962 L172.138969,54.1829962 C172.707823,54.1829962 173.023854,53.8669661 173.023854,53.2981119 L173.023854,32.1873006 C173.023854,26.1827285 169.041874,21.884719 163.163714,21.884719 C157.285554,21.884719 153.303575,26.1827285 153.303575,32.1873006 L153.303575,53.2981119 C153.303575,53.8669661 153.619605,54.1829962 154.188459,54.1829962 Z M188.572535,54.8782624 C182.504757,54.8782624 178.459571,50.5802529 178.459571,44.5756809 L178.459571,32.1873006 C178.459571,26.1827285 182.504757,21.884719 188.572535,21.884719 C194.703519,21.884719 198.685498,26.1827285 198.685498,32.1873006 L198.685498,44.5756809 C198.685498,50.5802529 194.703519,54.8782624 188.572535,54.8782624 Z M188.572535,49.7585747 C191.480012,49.7585747 193.249781,47.735982 193.249781,44.7652989 L193.249781,31.9976825 C193.249781,29.0269995 191.480012,27.0044068 188.572535,27.0044068 C185.665058,27.0044068 183.958495,29.0269995 183.958495,31.9976825 L183.958495,44.7652989 C183.958495,47.735982 185.665058,49.7585747 188.572535,49.7585747 Z M205.069307,54.1829962 L208.735256,54.1829962 C209.30411,54.1829962 209.62014,53.8669661 209.62014,53.2981119 L209.62014,33.0721849 C209.62014,29.6590597 211.769145,27.573261 215.055858,27.573261 L217.331275,27.573261 C217.836923,27.573261 218.152953,27.2572309 218.152953,26.7515827 L218.152953,23.3384575 C218.152953,22.7696033 217.836923,22.4535732 217.331275,22.4535732 L214.992652,22.4535732 C208.608844,22.4535732 204.184422,26.6883767 204.184422,33.5146271 L204.184422,53.2981119 C204.184422,53.8669661 204.500452,54.1829962 205.069307,54.1829962 Z M231.426218,54.8150564 C225.484852,54.8150564 221.439666,50.706665 221.439666,44.5124748 L221.439666,32.1240946 C221.502872,26.1195225 225.421646,21.9479251 231.489424,21.9479251 C237.43079,21.884719 241.602387,26.1195225 241.602387,31.9344765 C241.602387,37.4966064 237.557202,41.4785858 231.55263,41.4785858 L226.875384,41.4785858 L226.875384,44.7652989 C226.875384,47.6727759 228.581947,49.6953686 231.489424,49.6953686 C234.080871,49.6953686 235.787433,47.799188 235.977051,45.018123 C236.040257,44.4492688 236.356287,44.1964447 236.861936,44.1964447 L240.591091,44.1964447 C241.096739,44.1964447 241.412769,44.5124748 241.412769,45.018123 C241.096739,50.8962831 237.11476,54.8150564 231.426218,54.8150564 Z M226.875384,36.5485161 L231.55263,36.5485161 C234.460107,36.5485161 236.166669,34.7155415 236.166669,32.0608885 C236.166669,29.0269995 234.396901,27.0676128 231.489424,27.0676128 C228.518741,27.0676128 226.875384,29.0269995 226.875384,32.0608885 L226.875384,36.5485161 Z M259.742516,49.2529265 L259.047249,49.2529265 C255.823742,49.2529265 254.180386,47.2303338 254.180386,43.2483544 L254.180386,27.510055 L259.047249,27.510055 C259.552897,27.510055 259.868928,27.1940249 259.868928,26.6883767 L259.868928,23.4016636 C259.868928,22.8960154 259.552897,22.5799853 259.047249,22.5799853 L254.180386,22.5799853 L254.180386,14.4264085 C254.180386,13.8575543 253.864355,13.5415242 253.358707,13.5415242 L249.692758,13.5415242 C249.123904,13.5415242 248.807874,13.8575543 248.807874,14.4264085 L248.807874,22.5799853 L245.268337,22.5799853 C244.762688,22.5799853 244.446658,22.8960154 244.446658,23.4016636 L244.446658,26.6883767 C244.446658,27.1940249 244.762688,27.510055 245.268337,27.510055 L248.807874,27.510055 L248.807874,43.1851484 C248.807874,50.1378108 252.537029,54.3726143 258.794425,54.3726143 L259.742516,54.3726143 C260.31137,54.3726143 260.6274,54.0565841 260.6274,53.550936 L260.6274,50.0746048 C260.6274,49.5689566 260.31137,49.2529265 259.742516,49.2529265 Z M274.469519,54.8782624 C268.401741,54.8782624 264.356555,50.5802529 264.356555,44.5756809 L264.356555,32.1873006 C264.356555,26.1827285 268.401741,21.884719 274.469519,21.884719 C280.600503,21.884719 284.582482,26.1827285 284.582482,32.1873006 L284.582482,44.5756809 C284.582482,50.5802529 280.600503,54.8782624 274.469519,54.8782624 Z M274.469519,49.7585747 C277.376996,49.7585747 279.146764,47.735982 279.146764,44.7652989 L279.146764,31.9976825 C279.146764,29.0269995 277.376996,27.0044068 274.469519,27.0044068 C271.562042,27.0044068 269.855479,29.0269995 269.855479,31.9976825 L269.855479,44.7652989 C269.855479,47.735982 271.562042,49.7585747 274.469519,49.7585747 Z" id="title" fill="#5300FF"></path>
                <g id="icon" transform="translate(0.000000, 0.346158)">
                    <mask id="mask-3" fill="white">
                        <use xlink:href="#path-2"></use>
                    </mask>
                    <g id="Mask">
                        <use fill="url(#linearGradient-1)" style="mix-blend-mode: overlay;" xlink:href="#path-2"></use>
                        <use fill="#FFFFFF" style="mix-blend-mode: darken;" xlink:href="#path-2"></use>
                    </g>
                    <g id="Group-24" mask="url(#mask-3)" fill-rule="nonzero">
                        <g transform="translate(7.146698, 6.775240)" id="Shape">
                            <path d="M28.6040033,58.8081933 C44.3755357,58.8081933 57.2080067,45.6167805 57.2080067,29.4040967 C57.2080067,13.1914129 44.3755357,-9.09494702e-13 28.6040033,-9.09494702e-13 C12.832471,-9.09494702e-13 0,13.1914129 0,29.4040967 C0,45.6167805 12.832471,58.8081933 28.6040033,58.8081933 Z" stroke="none"></path>
                            <path d="M28.6040033,57.3081933 C43.5377063,57.3081933 55.7080067,44.797473 55.7080067,29.4040967 C55.7080067,14.0107204 43.5377063,1.5 28.6040033,1.5 C13.6703003,1.5 1.5,14.0107204 1.5,29.4040967 C1.5,44.797473 13.6703003,57.3081933 28.6040033,57.3081933 Z" stroke="#FFFFFF" stroke-width="3"></path>
                        </g>
                    </g>
                    <g id="Page-1" mask="url(#mask-3)" fill="#FFFFFF">
                        <g transform="translate(19.210119, 21.201161)">
                            <path d="M31.75909,11.1942661 L28.1044104,11.1942661 C27.537305,11.1942661 27.3892511,10.8363858 27.3703002,10.294977 C27.2222464,7.25878949 25.7729769,5.26726493 23.1264847,5.26726493 C20.4797557,5.26726493 18.9674745,6.34247152 18.9674745,9.36151361 C18.9674745,9.93986954 18.6524159,10.2608027 18.1480853,10.2608027 L14.4931688,10.2608027 C13.9260633,10.2608027 13.6112416,9.93986954 13.6112416,9.36151361 L13.6314328,9.41041149 C13.6314328,6.3913694 12.1619721,5.26726493 9.51524311,5.26726493 C6.86875098,5.26726493 5.35646976,7.25878949 5.35646976,10.2778316 C5.35646976,10.8733329 5.04117428,11.1942661 4.47406883,11.1942661 L0.882164045,11.1942661 C0.315058587,11.1942661 0,10.8733329 0,10.294977 L0,10.4705364 C0,4.36797579 3.78093993,0 9.51524311,0 C12.4137821,0 14.8717129,1.60587345 16.3207455,3.91833122 C17.770015,1.60587345 20.1646971,0 23.1264847,0 C28.8607879,0 32.5784793,4.16271377 32.5784793,10.2652744 C32.5784793,10.8733329 32.2634207,11.1942661 31.75909,11.1942661 Z" id="Fill-1"></path>
                            <path d="M16.5826671,32.4528088 C16.3239874,32.6882564 15.9326515,32.686566 15.67563,32.448945 L4.66468774,22.2616702 C1.79315376,19.6094434 0.2609741,17.0714389 0.00371573495,14.5293292 C-0.0377393423,14.1178392 0.272818408,13.7577855 0.678367507,13.7577855 L4.5848571,13.7577855 C4.89351977,13.7577855 5.16949214,13.9681187 5.24055798,14.2743213 C5.42722428,15.0799144 6.09571701,16.4146005 8.16539135,18.3261936 L15.7052408,25.301963 C15.9622623,25.5395839 16.3535982,25.5412743 16.6122779,25.3058267 L24.300655,18.3131534 C26.3580112,16.4121856 27.024372,15.0801558 27.2108014,14.2750458 C27.2818672,13.9688431 27.5578396,13.7585099 27.8665023,13.7585099 L31.772755,13.7585099 C32.178541,13.7585099 32.4890987,14.1185637 32.4474068,14.5298121 C32.1901484,17.0711974 30.6582056,19.6094434 27.7852503,22.2633606 L16.5826671,32.4528088 Z" id="Fill-3"></path>
                        </g>
                    </g>
                </g>
            </g>
        </g>
    </g>
</svg>