<?xml version="1.0" encoding="UTF-8" standalone="no"?>
<svg width="285px" height="73px" viewBox="0 0 285 73" version="1.1" xmlns="http://www.w3.org/2000/svg" xmlns:xlink="http://www.w3.org/1999/xlink">
    <!-- Generator: Sketch 48.2 (47327) - http://www.bohemiancoding.com/sketch -->
    <title>Logo_smooth</title>
    <desc>Created with Sketch.</desc>
    <defs>
        <linearGradient x1="26.1295422%" y1="100%" x2="74.1967082%" y2="0%" id="linearGradient-1">
            <stop stop-color="#FF5C5C" offset="0%"></stop>
            <stop stop-color="#5300FF" offset="100%"></stop>
        </linearGradient>
        <rect id="path-2" x="0" y="0" width="71.7370242" height="71.7370242" rx="25"></rect>
    </defs>
    <g id="Monoreto-4" stroke="none" stroke-width="1" fill="none" fill-rule="evenodd" transform="translate(-587.000000, -241.000000)">
        <g id="First" transform="translate(230.000000, 120.000000)">
            <g id="Logo_smooth" transform="translate(357.000000, 121.166177)">
                <path d="M112.662103,21.884719 C109.69142,21.884719 107.289591,23.4648696 105.835852,25.7402864 C104.382114,23.4648696 101.917079,21.884719 99.009602,21.884719 C93.257854,21.884719 89.4654927,26.1827285 89.4654927,32.1873006 L89.4654927,53.2981119 C89.4654927,53.8669661 89.7815228,54.1829962 90.350377,54.1829962 L93.9531203,54.1829962 C94.5219745,54.1829962 94.8380046,53.8669661 94.8380046,53.2981119 L94.8380046,31.9976825 C94.8380046,29.0269995 96.3549491,27.0676128 99.009602,27.0676128 C101.664255,27.0676128 103.117993,29.0269995 103.117993,31.9976825 L103.117993,53.2981119 C103.117993,53.8669661 103.434024,54.1829962 104.002878,54.1829962 L107.668827,54.1829962 C108.174475,54.1829962 108.490505,53.8669661 108.490505,53.2981119 L108.490505,31.9976825 C108.490505,29.0269995 110.00745,27.0676128 112.662103,27.0676128 C115.316756,27.0676128 116.770494,29.0269995 116.770494,31.9976825 L116.770494,53.2981119 C116.770494,53.8669661 117.086524,54.1829962 117.655378,54.1829962 L121.321328,54.1829962 C121.826976,54.1829962 122.143006,53.8669661 122.143006,53.2981119 L122.143006,32.1873006 C122.143006,26.1827285 118.413851,21.884719 112.662103,21.884719 Z M137.691687,54.8782624 C131.623909,54.8782624 127.578724,50.5802529 127.578724,44.5756809 L127.578724,32.1873006 C127.578724,26.1827285 131.623909,21.884719 137.691687,21.884719 C143.822671,21.884719 147.804651,26.1827285 147.804651,32.1873006 L147.804651,44.5756809 C147.804651,50.5802529 143.822671,54.8782624 137.691687,54.8782624 Z M137.691687,49.7585747 C140.599164,49.7585747 142.368933,47.735982 142.368933,44.7652989 L142.368933,31.9976825 C142.368933,29.0269995 140.599164,27.0044068 137.691687,27.0044068 C134.78421,27.0044068 133.077648,29.0269995 133.077648,31.9976825 L133.077648,44.7652989 C133.077648,47.735982 134.78421,49.7585747 137.691687,49.7585747 Z M154.188459,54.1829962 L157.854408,54.1829962 C158.423263,54.1829962 158.739293,53.8669661 158.739293,53.2981119 L158.739293,31.9976825 C158.739293,29.0269995 160.382649,27.0044068 163.163714,27.0044068 C165.944779,27.0044068 167.588136,29.0269995 167.588136,31.9976825 L167.588136,53.2981119 C167.588136,53.8669661 167.904166,54.1829962 168.47302,54.1829962 L172.138969,54.1829962 C172.707823,54.1829962 173.023854,53.8669661 173.023854,53.2981119 L173.023854,32.1873006 C173.023854,26.1827285 169.041874,21.884719 163.163714,21.884719 C157.285554,21.884719 153.303575,26.1827285 153.303575,32.1873006 L153.303575,53.2981119 C153.303575,53.8669661 153.619605,54.1829962 154.188459,54.1829962 Z M188.572535,54.8782624 C182.504757,54.8782624 178.459571,50.5802529 178.459571,44.5756809 L178.459571,32.1873006 C178.459571,26.1827285 182.504757,21.884719 188.572535,21.884719 C194.703519,21.884719 198.685498,26.1827285 198.685498,32.1873006 L198.685498,44.5756809 C198.685498,50.5802529 194.703519,54.8782624 188.572535,54.8782624 Z M188.572535,49.7585747 C191.480012,49.7585747 193.249781,47.735982 193.249781,44.7652989 L193.249781,31.9976825 C193.249781,29.0269995 191.480012,27.0044068 188.572535,27.0044068 C185.665058,27.0044068 183.958495,29.0269995 183.958495,31.9976825 L183.958495,44.7652989 C183.958495,47.735982 185.665058,49.7585747 188.572535,49.7585747 Z M205.069307,54.1829962 L208.735256,54.1829962 C209.30411,54.1829962 209.62014,53.8669661 209.62014,53.2981119 L209.62014,33.0721849 C209.62014,29.6590597 211.769145,27.573261 215.055858,27.573261 L217.331275,27.573261 C217.836923,27.573261 218.152953,27.2572309 218.152953,26.7515827 L218.152953,23.3384575 C218.152953,22.7696033 217.836923,22.4535732 217.331275,22.4535732 L214.992652,22.4535732 C208.608844,22.4535732 204.184422,26.6883767 204.184422,33.5146271 L204.184422,53.2981119 C204.184422,53.8669661 204.500452,54.1829962 205.069307,54.1829962 Z M231.426218,54.8150564 C225.484852,54.8150564 221.439666,50.706665 221.439666,44.5124748 L221.439666,32.1240946 C221.502872,26.1195225 225.421646,21.9479251 231.489424,21.9479251 C237.43079,21.884719 241.602387,26.1195225 241.602387,31.9344765 C241.602387,37.4966064 237.557202,41.4785858 231.55263,41.4785858 L226.875384,41.4785858 L226.875384,44.7652989 C226.875384,47.6727759 228.581947,49.6953686 231.489424,49.6953686 C234.080871,49.6953686 235.787433,47.799188 235.977051,45.018123 C236.040257,44.4492688 236.356287,44.1964447 236.861936,44.1964447 L240.591091,44.1964447 C241.096739,44.1964447 241.412769,44.5124748 241.412769,45.018123 C241.096739,50.8962831 237.11476,54.8150564 231.426218,54.8150564 Z M226.875384,36.5485161 L231.55263,36.5485161 C234.460107,36.5485161 236.166669,34.7155415 236.166669,32.0608885 C236.166669,29.0269995 234.396901,27.0676128 231.489424,27.0676128 C228.518741,27.0676128 226.875384,29.0269995 226.875384,32.0608885 L226.875384,36.5485161 Z M259.742516,49.2529265 L259.047249,49.2529265 C255.823742,49.2529265 254.180386,47.2303338 254.180386,43.2483544 L254.180386,27.510055 L259.047249,27.510055 C259.552897,27.510055 259.868928,27.1940249 259.868928,26.6883767 L259.868928,23.4016636 C259.868928,22.8960154 259.552897,22.5799853 259.047249,22.5799853 L254.180386,22.5799853 L254.180386,14.4264085 C254.180386,13.8575543 253.864355,13.5415242 253.358707,13.5415242 L249.692758,13.5415242 C249.123904,13.5415242 248.807874,13.8575543 248.807874,14.4264085 L248.807874,22.5799853 L245.268337,22.5799853 C244.762688,22.5799853 244.446658,22.8960154 244.446658,23.4016636 L244.446658,26.6883767 C244.446658,27.1940249 244.762688,27.510055 245.268337,27.510055 L248.807874,27.510055 L248.807874,43.1851484 C248.807874,50.1378108 252.537029,54.3726143 258.794425,54.3726143 L259.742516,54.3726143 C260.31137,54.3726143 260.6274,54.0565841 260.6274,53.550936 L260.6274,50.0746048 C260.6274,49.5689566 260.31137,49.2529265 259.742516,49.2529265 Z M274.469519,54.8782624 C268.401741,54.8782624 264.356555,50.5802529 264.356555,44.5756809 L264.356555,32.1873006 C264.356555,26.1827285 268.401741,21.884719 274.469519,21.884719 C280.600503,21.884719 284.582482,26.1827285 284.582482,32.1873006 L284.582482,44.5756809 C284.582482,50.5802529 280.600503,54.8782624 274.469519,54.8782624 Z M274.469519,49.7585747 C277.376996,49.7585747 279.146764,47.735982 279.146764,44.7652989 L279.146764,31.9976825 C279.146764,29.0269995 277.376996,27.0044068 274.469519,27.0044068 C271.562042,27.0044068 269.855479,29.0269995 269.855479,31.9976825 L269.855479,44.7652989 C269.855479,47.735982 271.562042,49.7585747 274.469519,49.7585747 Z" id="title" fill="#5300FF"></path>
                <g id="logo_smooth" transform="translate(0.000000, 0.346158)">
                    <mask id="mask-3" fill="white">
                        <use xlink:href="#path-2"></use>
                    </mask>
                    <use id="Mask" fill="url(#linearGradient-1)" xlink:href="#path-2"></use>
                    <g id="Group-3" mask="url(#mask-3)">
                        <g transform="translate(8.000000, 7.000000)">
                            <g id="Group-24" transform="translate(0.141726, 0.749399)">
                                <path d="M27.6343761,56.8479202 C42.8712802,56.8479202 55.2687522,44.0962211 55.2687522,28.4239601 C55.2687522,12.7516991 42.8712802,-9.09494702e-13 27.6343761,-9.09494702e-13 C12.397472,-9.09494702e-13 0,12.7516991 0,28.4239601 C0,44.0962211 12.397472,56.8479202 27.6343761,56.8479202 Z" id="Shape" fill-rule="nonzero"></path>
                                <path d="M27.6343761,55.3987677 C42.0616565,55.3987677 53.8195997,43.3048704 53.8195997,28.4239601 C53.8195997,13.5430498 42.0616565,1.44915254 27.6343761,1.44915254 C13.2070957,1.44915254 1.44915254,13.5430498 1.44915254,28.4239601 C1.44915254,43.3048704 13.2070957,55.3987677 27.6343761,55.3987677 Z" id="Shape" stroke="#FFFFFF" stroke-width="2.89830508" fill-rule="nonzero"></path>
                            </g>
                            <g id="Page-1" transform="translate(11.796216, 14.694455)">
                                <path d="M30.6825107,10.8211239 L27.1517185,10.8211239 C26.603837,10.8211239 26.4608019,10.4751729 26.4424934,9.9518111 C26.2994584,7.01682984 24.8993166,5.09168943 22.3425361,5.09168943 C19.7855267,5.09168943 18.3245093,6.1310558 18.3245093,9.04946316 C18.3245093,9.60854056 18.0201306,9.91877599 17.532896,9.91877599 L14.0018749,9.91877599 C13.4539934,9.91877599 13.1498436,9.60854056 13.1498436,9.04946316 L13.1693503,9.09673111 C13.1693503,6.17832375 11.7497019,5.09168943 9.1926925,5.09168943 C6.63591196,5.09168943 5.17489451,7.01682984 5.17489451,9.9352372 C5.17489451,10.5108885 4.87028702,10.8211239 4.32240548,10.8211239 L0.852260179,10.8211239 C0.304378635,10.8211239 0,10.5108885 0,9.9518111 L0,10.1215185 C0,4.2223766 3.65277248,0 9.1926925,0 C11.9929759,0 14.367587,1.55234434 15.7674999,3.78772018 C17.1676416,1.55234434 19.4811481,0 22.3425361,0 C27.8824561,0 31.474124,4.02395665 31.474124,9.92309856 C31.474124,10.5108885 31.1697454,10.8211239 30.6825107,10.8211239 Z" id="Fill-1" fill="#FFFFFF"></path>
                                <path d="M16.0205428,31.3710485 C15.7706319,31.5986479 15.3925616,31.5970138 15.1442527,31.3673135 L4.50656273,21.5196146 C1.73236888,18.9557953 0.252127521,16.502391 0.00358977783,14.0450182 C-0.0364600426,13.6472446 0.263570326,13.2991926 0.655371998,13.2991926 L4.42943822,13.2991926 C4.72763774,13.2991926 4.99425512,13.5025147 5.06291195,13.7985106 C5.24325057,14.5772506 5.88908253,15.8674471 7.88859842,17.7153205 L15.1728598,24.4585642 C15.4211687,24.6882645 15.799239,24.6898985 16.0491498,24.4622992 L23.476904,17.702715 C25.4645193,15.8651128 26.1082916,14.577484 26.2884014,13.7992109 C26.3570582,13.503215 26.6236756,13.2998929 26.9218751,13.2998929 L30.6957125,13.2998929 C31.087743,13.2998929 31.3877733,13.6479449 31.3474947,14.0454851 C31.0989569,16.5021575 29.6189444,18.9557953 26.8433774,21.5212486 L16.0205428,31.3710485 Z" id="Fill-3" fill="#FFFFFF"></path>
                            </g>
                        </g>
                    </g>
                </g>
            </g>
        </g>
    </g>
</svg>