<?xml version="1.0" encoding="UTF-8" standalone="no"?>
<svg width="587px" height="229px" viewBox="0 0 587 229" version="1.1" xmlns="http://www.w3.org/2000/svg" xmlns:xlink="http://www.w3.org/1999/xlink">
    <!-- Generator: Sketch 49.2 (51160) - http://www.bohemiancoding.com/sketch -->
    <title>pre-status  copy</title>
    <desc>Created with Sketch.</desc>
    <defs>
        <linearGradient x1="0%" y1="120.762122%" x2="100%" y2="120.762122%" id="linearGradient-1">
            <stop stop-color="#FF5C5C" offset="0%"></stop>
            <stop stop-color="#5300FF" offset="100%"></stop>
        </linearGradient>
        <linearGradient x1="50%" y1="-2.22044605e-14%" x2="50%" y2="100%" id="linearGradient-2">
            <stop stop-color="#FFFFFF" stop-opacity="0.212013134" offset="0%"></stop>
            <stop stop-color="#FFFFFF" stop-opacity="0" offset="100%"></stop>
        </linearGradient>
        <linearGradient x1="100%" y1="120.762122%" x2="0%" y2="120.762122%" id="linearGradient-3">
            <stop stop-color="#FF5C5C" offset="0%"></stop>
            <stop stop-color="#5300FF" offset="100%"></stop>
        </linearGradient>
    </defs>
    <g id="Monoreto" stroke="none" stroke-width="1" fill="none" fill-rule="evenodd">
        <g id="pre-status--copy" transform="translate(-2.000000, 0.000000)">
            <g id="Group-2-Copy" transform="translate(1.000000, 161.000000)">
                <path d="M378.539767,44.5 L380.539767,44.5 L380.539767,51.525 C381.389767,50.575 382.889767,49.7 384.664767,49.7 C387.539767,49.7 389.664767,51.675 389.664767,54.6 L389.664767,62 L387.664767,62 L387.664767,54.85 C387.664767,52.6 386.289767,51.55 384.439767,51.55 C382.664767,51.55 381.339767,52.75 380.539767,53.95 L380.539767,62 L378.539767,62 L378.539767,44.5 Z M402.689767,59.5 C402.689767,60.225 403.089767,60.425 403.614767,60.425 C403.914767,60.425 404.239767,60.35 404.539767,60.25 L404.539767,61.875 C404.064767,62.05 403.539767,62.15 403.039767,62.15 C402.064767,62.15 401.189767,61.75 400.839767,60.7 C399.639767,61.7 398.114767,62.3 396.164767,62.3 C394.039767,62.3 391.939767,61.175 391.939767,58.65 C391.939767,55.55 394.789767,54.6 397.364767,54.6 C398.414767,54.6 399.689767,54.75 400.689767,54.975 L400.689767,54.55 C400.689767,52.75 399.464767,51.55 397.264767,51.55 C395.414767,51.55 393.939767,52 392.889767,52.45 L392.889767,50.5 C393.839767,50.175 395.489767,49.7 397.464767,49.7 C400.664767,49.7 402.689767,51.45 402.689767,54.8 L402.689767,59.5 Z M393.989767,58.55 C393.989767,59.95 395.264767,60.575 396.589767,60.575 C398.114767,60.575 399.639767,59.95 400.689767,58.825 L400.689767,56.625 C399.839767,56.45 398.614767,56.275 397.639767,56.275 C395.889767,56.275 393.989767,56.8 393.989767,58.55 Z M408.064767,52.125 C409.014767,50.55 411.139767,49.575 413.239767,49.75 L413.239767,51.75 C410.889767,51.475 408.989767,52.6 408.264767,54.525 L408.264767,62 L406.264767,62 L406.264767,50 L408.064767,50 L408.064767,52.125 Z M424.539767,44.5 L426.539767,44.5 L426.539767,62 L424.739767,62 L424.739767,60 C423.664767,61.225 422.189767,62.3 419.889767,62.3 C416.464767,62.3 413.889767,59.6 413.889767,56 C413.889767,52.4 416.464767,49.7 419.889767,49.7 C422.189767,49.7 423.664767,50.775 424.539767,51.8 L424.539767,44.5 Z M424.539767,54.5 C423.864767,52.95 422.264767,51.55 420.114767,51.55 C417.789767,51.55 415.889767,53.25 415.889767,56 C415.889767,58.75 417.789767,60.45 420.114767,60.45 C422.264767,60.45 423.864767,59.05 424.539767,57.5 L424.539767,54.5 Z M435.089767,56.05 C435.089767,51.675 438.464767,49.7 441.589767,49.7 C442.939767,49.7 444.264767,50 445.289767,50.675 L445.289767,52.625 C444.389767,51.925 443.114767,51.55 441.839767,51.55 C439.514767,51.55 437.089767,52.85 437.089767,56 C437.089767,59.075 439.439767,60.45 441.789767,60.45 C443.089767,60.45 444.414767,60.075 445.414767,59.475 L445.414767,61.475 C444.289767,62.025 443.014767,62.3 441.514767,62.3 C438.364767,62.3 435.089767,60.325 435.089767,56.05 Z M457.714767,59.5 C457.714767,60.225 458.114767,60.425 458.639767,60.425 C458.939767,60.425 459.264767,60.35 459.564767,60.25 L459.564767,61.875 C459.089767,62.05 458.564767,62.15 458.064767,62.15 C457.089767,62.15 456.214767,61.75 455.864767,60.7 C454.664767,61.7 453.139767,62.3 451.189767,62.3 C449.064767,62.3 446.964767,61.175 446.964767,58.65 C446.964767,55.55 449.814767,54.6 452.389767,54.6 C453.439767,54.6 454.714767,54.75 455.714767,54.975 L455.714767,54.55 C455.714767,52.75 454.489767,51.55 452.289767,51.55 C450.439767,51.55 448.964767,52 447.914767,52.45 L447.914767,50.5 C448.864767,50.175 450.514767,49.7 452.489767,49.7 C455.689767,49.7 457.714767,51.45 457.714767,54.8 L457.714767,59.5 Z M449.014767,58.55 C449.014767,59.95 450.289767,60.575 451.614767,60.575 C453.139767,60.575 454.664767,59.95 455.714767,58.825 L455.714767,56.625 C454.864767,56.45 453.639767,56.275 452.664767,56.275 C450.914767,56.275 449.014767,56.8 449.014767,58.55 Z M463.089767,52 C464.164767,50.775 465.639767,49.7 467.939767,49.7 C471.364767,49.7 473.939767,52.4 473.939767,56 C473.939767,59.6 471.364767,62.3 467.939767,62.3 C465.639767,62.3 464.164767,61.225 463.289767,60.2 L463.289767,67.5 L461.289767,67.5 L461.289767,50 L463.089767,50 L463.089767,52 Z M471.939767,56 C471.939767,53.25 470.039767,51.55 467.714767,51.55 C465.564767,51.55 463.964767,52.95 463.289767,54.5 L463.289767,57.5 C463.964767,59.05 465.564767,60.45 467.714767,60.45 C470.039767,60.45 471.939767,58.75 471.939767,56 Z M498.089767,56.75 L482.239767,56.75 L482.239767,54.85 L498.089767,54.85 L498.089767,56.75 Z M513.389767,65.25 L511.189767,65.25 L511.189767,62.275 C509.339767,62.075 507.589767,61.575 506.189767,60.8 L506.189767,58 C508.114767,59.225 510.364767,59.725 512.364767,59.725 C514.614767,59.725 516.139767,59.2 516.139767,57.55 C516.139767,53.5 506.264767,55.65 506.264767,49.45 C506.264767,46.6 508.439767,45.075 511.189767,44.75 L511.189767,41.75 L513.389767,41.75 L513.389767,44.725 C515.064767,44.85 516.739767,45.3 517.914767,46 L517.914767,48.725 C516.489767,47.775 514.539767,47.25 512.664767,47.275 C510.539767,47.275 509.164767,47.9 509.164767,49.4 C509.164767,53.175 519.039767,51.15 519.039767,57.4 C519.039767,60.775 516.514767,62.125 513.389767,62.3 L513.389767,65.25 Z M521.364767,49.225 C521.364767,47 523.264767,44.675 527.739767,44.675 C531.839767,44.675 534.139767,47 534.189767,49.4 C534.214767,51 533.464767,52.45 531.939767,53.525 C533.539767,54.325 534.789767,55.525 534.789767,57.55 C534.789767,59.975 532.764767,62.325 527.839767,62.325 C522.989767,62.325 520.764767,59.9 520.764767,57.3 C520.764767,55.675 521.739767,53.95 523.539767,52.85 C522.289767,52.05 521.364767,50.925 521.364767,49.225 Z M528.039767,54.65 C527.289767,54.425 526.439767,54.175 525.589767,53.85 C524.214767,54.675 523.589767,55.9 523.589767,56.975 C523.614767,58.725 525.039767,59.9 527.964767,59.9 C530.239767,59.9 531.914767,59 531.914767,57.65 C531.914767,55.8 530.089767,55.3 528.039767,54.65 Z M531.389767,49.75 C531.389767,48.3 530.089767,47.1 527.614767,47.1 C525.414767,47.1 524.139767,48.05 524.139767,49.2 C524.139767,51.1 526.089767,51.6 527.914767,52.175 C528.464767,52.325 529.089767,52.5 529.739767,52.7 C530.839767,51.85 531.389767,50.75 531.389767,49.75 Z M536.864767,53.5 C536.864767,48.525 539.214767,44.675 544.489767,44.675 C549.764767,44.675 552.114767,48.525 552.114767,53.5 C552.114767,58.475 549.764767,62.325 544.489767,62.325 C539.214767,62.325 536.864767,58.475 536.864767,53.5 Z M549.239767,53.5 C549.239767,49.55 547.739767,47.275 544.489767,47.275 C541.214767,47.275 539.739767,49.55 539.739767,53.5 C539.739767,57.45 541.214767,59.725 544.489767,59.725 C547.739767,59.725 549.239767,57.45 549.239767,53.5 Z M554.239767,53.5 C554.239767,48.525 556.589767,44.675 561.864767,44.675 C567.139767,44.675 569.489767,48.525 569.489767,53.5 C569.489767,58.475 567.139767,62.325 561.864767,62.325 C556.589767,62.325 554.239767,58.475 554.239767,53.5 Z M566.614767,53.5 C566.614767,49.55 565.114767,47.275 561.864767,47.275 C558.589767,47.275 557.114767,49.55 557.114767,53.5 C557.114767,57.45 558.589767,59.725 561.864767,59.725 C565.114767,59.725 566.614767,57.45 566.614767,53.5 Z M575.389767,62 L572.539767,62 L572.539767,44.5 L575.389767,44.5 L575.389767,51.8 L578.839767,51.8 L583.714767,44.5 L586.939767,44.5 L581.139767,53.025 L587.389767,62 L584.164767,62 L578.889767,54.425 L575.389767,54.425 L575.389767,62 Z" id="hard-cap-—-$800К" fill="#07090B"></path>
                <path d="M8.35,65.25 L6.15,65.25 L6.15,62.275 C4.3,62.075 2.55,61.575 1.15,60.8 L1.15,58 C3.075,59.225 5.325,59.725 7.325,59.725 C9.575,59.725 11.1,59.2 11.1,57.55 C11.1,53.5 1.225,55.65 1.225,49.45 C1.225,46.6 3.4,45.075 6.15,44.75 L6.15,41.75 L8.35,41.75 L8.35,44.725 C10.025,44.85 11.7,45.3 12.875,46 L12.875,48.725 C11.45,47.775 9.5,47.25 7.625,47.275 C5.5,47.275 4.125,47.9 4.125,49.4 C4.125,53.175 14,51.15 14,57.4 C14,60.775 11.475,62.125 8.35,62.3 L8.35,65.25 Z M16.225,46.4 C17.975,45.2 19.9,44.675 21.875,44.675 C25.325,44.675 27.85,46.275 27.85,49.45 C27.85,52.325 25.45,54.025 23.15,55.4 C20.95,56.7 18.875,57.75 18.85,59.45 L27.975,59.425 L27.975,62 L15.65,62 L15.65,60.7 C15.65,56.55 18.725,54.975 21.3,53.45 C23.275,52.3 25,51.425 25,49.5 C25,48.025 23.725,47.25 21.625,47.25 C19.9,47.25 18.025,47.85 16.225,49.15 L16.225,46.4 Z M30.125,53.5 C30.125,48.525 32.475,44.675 37.75,44.675 C43.025,44.675 45.375,48.525 45.375,53.5 C45.375,58.475 43.025,62.325 37.75,62.325 C32.475,62.325 30.125,58.475 30.125,53.5 Z M42.5,53.5 C42.5,49.55 41,47.275 37.75,47.275 C34.475,47.275 33,49.55 33,53.5 C33,57.45 34.475,59.725 37.75,59.725 C41,59.725 42.5,57.45 42.5,53.5 Z M47.5,53.5 C47.5,48.525 49.85,44.675 55.125,44.675 C60.4,44.675 62.75,48.525 62.75,53.5 C62.75,58.475 60.4,62.325 55.125,62.325 C49.85,62.325 47.5,58.475 47.5,53.5 Z M59.875,53.5 C59.875,49.55 58.375,47.275 55.125,47.275 C51.85,47.275 50.375,49.55 50.375,53.5 C50.375,57.45 51.85,59.725 55.125,59.725 C58.375,59.725 59.875,57.45 59.875,53.5 Z M68.65,62 L65.8,62 L65.8,44.5 L68.65,44.5 L68.65,51.8 L72.1,51.8 L76.975,44.5 L80.2,44.5 L74.4,53.025 L80.65,62 L77.425,62 L72.15,54.425 L68.65,54.425 L68.65,62 Z M103.425,56.75 L87.575,56.75 L87.575,54.85 L103.425,54.85 L103.425,56.75 Z M111.85,53.15 C111.85,50.675 114.175,49.7 116.425,49.7 C118.025,49.7 119.55,50.125 120.675,50.725 L120.675,52.625 C119.675,51.975 118,51.5 116.55,51.5 C115.25,51.5 113.875,51.925 113.875,53.1 C113.875,55.7 121.5,54.6 121.5,58.925 C121.5,61.425 119.15,62.3 116.55,62.3 C114.85,62.3 113.025,61.85 111.9,61.125 L111.9,59.175 C113.125,60 114.95,60.45 116.45,60.45 C118.15,60.45 119.5,60.175 119.5,58.975 C119.5,56.45 111.85,57.45 111.85,53.15 Z M123.1,56 C123.1,51.9 126.25,49.7 129.5,49.7 C132.775,49.7 135.9,51.9 135.9,56 C135.9,60.1 132.775,62.3 129.5,62.3 C126.25,62.3 123.1,60.1 123.1,56 Z M133.9,56 C133.9,53.225 131.95,51.6 129.5,51.6 C127.05,51.6 125.1,53.225 125.1,56 C125.1,58.775 127.05,60.4 129.5,60.4 C131.95,60.4 133.9,58.775 133.9,56 Z M141.2,62 L139.2,62 L139.2,51.85 L136.95,51.85 L136.95,50 L139.2,50 L139.2,48.55 C139.2,45.2 141.35,44.2 143.45,44.2 C144.55,44.2 145.625,44.425 146.45,44.75 L146.45,46.6 C145.775,46.275 144.825,46.05 143.925,46.05 C142.475,46.05 141.2,46.425 141.2,48.625 L141.2,50 L145.7,50 L145.7,51.85 L141.2,51.85 L141.2,62 Z M148.325,46.275 L150.3,45.775 L150.3,50 L155.1,50 L155.1,51.85 L150.3,51.85 L150.3,58.05 C150.3,59.875 151.125,60.425 152.875,60.425 C153.825,60.425 154.725,60.2 155.525,59.875 L155.525,61.725 C154.625,62.05 153.45,62.275 152.3,62.275 C149.975,62.275 148.325,61.025 148.325,58.4 L148.325,51.85 L146.075,51.85 L146.075,50 L148.325,50 L148.325,46.275 Z M162.625,56.05 C162.625,51.675 166,49.7 169.125,49.7 C170.475,49.7 171.8,50 172.825,50.675 L172.825,52.625 C171.925,51.925 170.65,51.55 169.375,51.55 C167.05,51.55 164.625,52.85 164.625,56 C164.625,59.075 166.975,60.45 169.325,60.45 C170.625,60.45 171.95,60.075 172.95,59.475 L172.95,61.475 C171.825,62.025 170.55,62.3 169.05,62.3 C165.9,62.3 162.625,60.325 162.625,56.05 Z M185.25,59.5 C185.25,60.225 185.65,60.425 186.175,60.425 C186.475,60.425 186.8,60.35 187.1,60.25 L187.1,61.875 C186.625,62.05 186.1,62.15 185.6,62.15 C184.625,62.15 183.75,61.75 183.4,60.7 C182.2,61.7 180.675,62.3 178.725,62.3 C176.6,62.3 174.5,61.175 174.5,58.65 C174.5,55.55 177.35,54.6 179.925,54.6 C180.975,54.6 182.25,54.75 183.25,54.975 L183.25,54.55 C183.25,52.75 182.025,51.55 179.825,51.55 C177.975,51.55 176.5,52 175.45,52.45 L175.45,50.5 C176.4,50.175 178.05,49.7 180.025,49.7 C183.225,49.7 185.25,51.45 185.25,54.8 L185.25,59.5 Z M176.55,58.55 C176.55,59.95 177.825,60.575 179.15,60.575 C180.675,60.575 182.2,59.95 183.25,58.825 L183.25,56.625 C182.4,56.45 181.175,56.275 180.2,56.275 C178.45,56.275 176.55,56.8 176.55,58.55 Z M190.625,52 C191.7,50.775 193.175,49.7 195.475,49.7 C198.9,49.7 201.475,52.4 201.475,56 C201.475,59.6 198.9,62.3 195.475,62.3 C193.175,62.3 191.7,61.225 190.825,60.2 L190.825,67.5 L188.825,67.5 L188.825,50 L190.625,50 L190.625,52 Z M199.475,56 C199.475,53.25 197.575,51.55 195.25,51.55 C193.1,51.55 191.5,52.95 190.825,54.5 L190.825,57.5 C191.5,59.05 193.1,60.45 195.25,60.45 C197.575,60.45 199.475,58.75 199.475,56 Z" id="$200К-—-soft-cap" fill="#07090B"></path>
                <g id="Group" transform="translate(1.114901, 0.000000)">
                    <rect id="Rectangle-2" stroke="url(#linearGradient-1)" stroke-width="4" x="2" y="2" width="582.885099" height="26.8074898" rx="13.4037449"></rect>
                    <path d="M146.885099,29 L146.885099,11" id="Line-4" stroke="#D54987" stroke-width="3" stroke-linecap="round"></path>
                    <rect id="Rectangle-2" fill="url(#linearGradient-2)" style="mix-blend-mode: lighten;" x="0" y="0" width="586.885099" height="30.8074898" rx="15.4037449"></rect>
                </g>
            </g>
            <g id="Group-2-Copy-2" transform="translate(1.000000, 72.000000)">
                <path d="M515.189767,44.5 L522.964767,44.5 L522.964767,56.9 C522.964767,60.775 520.239767,62.3 516.964767,62.3 C515.239767,62.3 513.589767,61.9 512.464767,61.275 L512.464767,58.55 C513.514767,59.225 514.939767,59.6 516.364767,59.6 C518.464767,59.6 520.114767,58.925 520.114767,56.65 L520.114767,47.125 L515.189767,47.125 L515.189767,44.5 Z M534.764767,50 L537.439767,50 L537.439767,62 L535.064767,62 L535.064767,60.35 C534.189767,61.4 532.714767,62.325 530.889767,62.325 C527.714767,62.325 525.939767,60.275 525.939767,57.425 L525.939767,50 L528.614767,50 L528.614767,57.075 C528.614767,59.025 529.639767,59.95 531.414767,59.95 C532.939767,59.95 534.089767,58.925 534.764767,57.95 L534.764767,50 Z M542.889767,51.65 C543.764767,50.6 545.239767,49.675 547.064767,49.675 C550.089767,49.675 552.014767,51.725 552.014767,54.575 L552.014767,62 L549.339767,62 L549.339767,54.925 C549.339767,52.975 548.139767,52.05 546.539767,52.05 C545.014767,52.05 543.864767,53.075 543.189767,54.05 L543.189767,62 L540.514767,62 L540.514767,50 L542.889767,50 L542.889767,51.65 Z M564.314767,45 L566.414767,45 L566.414767,59.425 L569.439767,59.425 L569.439767,62 L560.189767,62 L560.189767,59.425 L563.589767,59.425 L563.589767,47.925 L560.189767,49.2 L560.189767,46.575 L564.314767,45 Z M570.914767,53.5 C570.914767,48.525 573.264767,44.675 578.539767,44.675 C583.814767,44.675 586.164767,48.525 586.164767,53.5 C586.164767,58.475 583.814767,62.325 578.539767,62.325 C573.264767,62.325 570.914767,58.475 570.914767,53.5 Z M583.289767,53.5 C583.289767,49.55 581.789767,47.275 578.539767,47.275 C575.264767,47.275 573.789767,49.55 573.789767,53.5 C573.789767,57.45 575.264767,59.725 578.539767,59.725 C581.789767,59.725 583.289767,57.45 583.289767,53.5 Z" id="Jun-10" fill="#07090B"></path>
                <path d="M18,44.5 L20.575,44.5 L20.575,62 L17.725,62 L17.725,49.75 L12.2,58.05 L10.5,58.05 L4.975,49.725 L4.975,62 L2.125,62 L2.125,44.5 L4.7,44.5 L11.35,54.525 L18,44.5 Z M34.125,59.225 C34.125,59.9 34.525,60.1 35,60.1 C35.275,60.1 35.55,60.025 35.8,59.95 L35.8,61.875 C35.3,62.075 34.7,62.175 34.1,62.175 C33,62.175 32.125,61.75 31.7,60.775 C30.525,61.725 29.05,62.325 27.175,62.325 C25,62.325 22.975,61.125 22.975,58.65 C22.975,55.575 25.825,54.625 28.325,54.625 C29.35,54.625 30.5,54.775 31.45,54.975 L31.45,54.55 C31.45,53.05 30.35,52 28.3,52 C26.525,52 25.05,52.45 23.975,52.925 L23.975,50.475 C24.925,50.15 26.65,49.675 28.575,49.675 C31.975,49.675 34.125,51.3 34.125,54.925 L34.125,59.225 Z M28.85,56.5 C27.325,56.5 25.725,56.975 25.725,58.475 C25.725,59.65 26.775,60.25 27.975,60.25 C29.25,60.25 30.5,59.775 31.45,58.825 L31.45,56.8 C30.725,56.65 29.7,56.5 28.85,56.5 Z M42.125,59.05 L45.7,50 L48.5,50 L42.875,63.625 C41.575,66.75 39.875,67.8 38.05,67.8 C37.525,67.8 37,67.725 36.475,67.6 L36.475,65.325 C36.875,65.45 37.3,65.5 37.7,65.5 C39,65.5 39.975,64.575 40.675,62.7 L40.925,62.1 L35.225,50 L38.075,50 L42.125,59.05 Z M58.925,45 L61.025,45 L61.025,59.425 L64.05,59.425 L64.05,62 L54.8,62 L54.8,59.425 L58.2,59.425 L58.2,47.925 L54.8,49.2 L54.8,46.575 L58.925,45 Z M65.525,53.5 C65.525,48.525 67.875,44.675 73.15,44.675 C78.425,44.675 80.775,48.525 80.775,53.5 C80.775,58.475 78.425,62.325 73.15,62.325 C67.875,62.325 65.525,58.475 65.525,53.5 Z M77.9,53.5 C77.9,49.55 76.4,47.275 73.15,47.275 C69.875,47.275 68.4,49.55 68.4,53.5 C68.4,57.45 69.875,59.725 73.15,59.725 C76.4,59.725 77.9,57.45 77.9,53.5 Z" id="May-10" fill="#07090B"></path>
                <g id="Group" transform="translate(1.114901, 0.000000)">
                    <rect id="Rectangle-2" stroke="url(#linearGradient-3)" stroke-width="4" x="2" y="2" width="582.885099" height="26.8074898" rx="13.4037449"></rect>
                    <rect id="Rectangle-2" fill="url(#linearGradient-2)" style="mix-blend-mode: lighten;" x="0" y="0" width="586.885099" height="30.8074898" rx="15.4037449"></rect>
                </g>
            </g>
            <path d="M7.29,14.775 C9,12.705 11.565,10.815 15.615,10.815 C22.095,10.815 26.325,15.99 26.325,22.2 C26.325,28.41 22.095,33.585 15.615,33.585 C11.835,33.585 9.315,31.92 7.83,30.21 L7.83,42.9 L3.015,42.9 L3.015,11.4 L7.29,11.4 L7.29,14.775 Z M21.42,22.2 C21.42,17.97 18.63,15.045 14.715,15.045 C11.385,15.045 8.865,17.205 7.83,19.545 L7.83,24.81 C8.865,27.195 11.385,29.355 14.715,29.355 C18.63,29.355 21.42,26.43 21.42,22.2 Z M35.28,14.955 C36.945,12.3 40.455,10.59 44.37,10.95 L44.37,15.675 C40.5,15.135 37.125,16.845 35.82,19.905 L35.82,33 L31.005,33 L31.005,11.4 L35.28,11.4 L35.28,14.955 Z M46.665,22.2 C46.665,14.37 52.605,10.815 57.6,10.815 C66.195,10.815 69.165,17.745 67.77,24 L51.525,24 C52.065,27.87 55.845,29.49 59.805,29.49 C62.415,29.49 64.8,28.86 66.645,27.96 L66.645,32.1 C64.665,33.045 61.92,33.585 58.905,33.585 C52.29,33.585 46.665,29.805 46.665,22.2 Z M63.45,20.4 C63.72,18.51 62.55,14.82 57.825,14.82 C54.585,14.82 51.66,16.755 51.48,20.4 L63.45,20.4 Z M72.315,19.77 L88.695,19.77 L88.695,24.09 L72.315,24.09 L72.315,19.77 Z M95.175,1.5 L100.305,1.5 L100.305,33 L95.175,33 L95.175,1.5 Z M106.02,17.52 C106.02,6.315 114.435,0.915 122.715,0.915 C125.865,0.915 128.97,1.635 131.67,2.985 L131.67,7.98 C129.465,6.45 126.54,5.64 123.57,5.64 C117.54,5.64 111.285,9.195 111.24,17.52 C111.24,25.26 117.63,28.86 123.66,28.86 C126.9,28.86 129.825,28.005 131.895,26.43 L131.895,31.515 C129.24,32.82 126.09,33.585 122.76,33.585 C114.615,33.585 105.975,28.275 106.02,17.52 Z M135.405,17.25 C135.405,8.925 140.85,0.915 151.965,0.915 C163.035,0.915 168.525,8.925 168.525,17.25 C168.525,25.575 163.035,33.585 151.965,33.585 C140.85,33.585 135.405,25.575 135.405,17.25 Z M163.305,17.25 C163.305,11.22 159.615,5.73 151.965,5.73 C144.36,5.73 140.625,11.22 140.625,17.25 C140.625,23.28 144.36,28.77 151.965,28.77 C159.615,28.77 163.305,23.28 163.305,17.25 Z" id="pre-ICO" fill="#5300FF"></path>
        </g>
    </g>
</svg>