<?xml version="1.0" encoding="UTF-8" standalone="no"?>
<svg width="588px" height="126px" viewBox="0 0 588 126" version="1.1" xmlns="http://www.w3.org/2000/svg" xmlns:xlink="http://www.w3.org/1999/xlink">
    <!-- Generator: Sketch 48.2 (47327) - http://www.bohemiancoding.com/sketch -->
    <title>0-status 500К</title>
    <desc>Created with Sketch.</desc>
    <defs>
        <linearGradient x1="0%" y1="120.762122%" x2="100%" y2="120.762122%" id="linearGradient-1">
            <stop stop-color="#FF5C5C" offset="0%"></stop>
            <stop stop-color="#5300FF" offset="100%"></stop>
        </linearGradient>
        <linearGradient x1="50%" y1="-2.22044605e-14%" x2="50%" y2="100%" id="linearGradient-2">
            <stop stop-color="#FFFFFF" stop-opacity="0.212013134" offset="0%"></stop>
            <stop stop-color="#000000" stop-opacity="0" offset="100%"></stop>
        </linearGradient>
    </defs>
    <g id="Monoreto" stroke="none" stroke-width="1" fill="none" fill-rule="evenodd">
        <g id="0-status-500К">
            <g id="Group-2-Copy" transform="translate(0.000000, 63.000000)">
                <path d="M7.2,62.5 L5,62.5 L5,59.525 C3.15,59.325 1.4,58.825 0,58.05 L0,55.25 C1.925,56.475 4.175,56.975 6.175,56.975 C8.425,56.975 9.95,56.45 9.95,54.8 C9.95,50.75 0.075,52.9 0.075,46.7 C0.075,43.85 2.25,42.325 5,42 L5,39 L7.2,39 L7.2,41.975 C8.875,42.1 10.55,42.55 11.725,43.25 L11.725,45.975 C10.3,45.025 8.35,44.5 6.475,44.525 C4.35,44.525 2.975,45.15 2.975,46.65 C2.975,50.425 12.85,48.4 12.85,54.65 C12.85,58.025 10.325,59.375 7.2,59.55 L7.2,62.5 Z M14.625,50.75 C14.625,45.775 16.975,41.925 22.25,41.925 C27.525,41.925 29.875,45.775 29.875,50.75 C29.875,55.725 27.525,59.575 22.25,59.575 C16.975,59.575 14.625,55.725 14.625,50.75 Z M27,50.75 C27,46.8 25.5,44.525 22.25,44.525 C18.975,44.525 17.5,46.8 17.5,50.75 C17.5,54.7 18.975,56.975 22.25,56.975 C25.5,56.975 27,54.7 27,50.75 Z" id="$0" fill="#07090B"></path>
                <path d="M515.2,62.5 L513,62.5 L513,59.525 C511.15,59.325 509.4,58.825 508,58.05 L508,55.25 C509.925,56.475 512.175,56.975 514.175,56.975 C516.425,56.975 517.95,56.45 517.95,54.8 C517.95,50.75 508.075,52.9 508.075,46.7 C508.075,43.85 510.25,42.325 513,42 L513,39 L515.2,39 L515.2,41.975 C516.875,42.1 518.55,42.55 519.725,43.25 L519.725,45.975 C518.3,45.025 516.35,44.5 514.475,44.525 C512.35,44.525 510.975,45.15 510.975,46.65 C510.975,50.425 520.85,48.4 520.85,54.65 C520.85,58.025 518.325,59.375 515.2,59.55 L515.2,62.5 Z M523.725,42.25 L534.2,42.25 L534.2,44.8 L526.35,44.8 L526.1,48.9 C526.925,48.7 527.8,48.6 528.675,48.6 C531.95,48.6 535,50.025 535,54.025 C535,57.7 531.875,59.575 528.125,59.575 C526.15,59.575 524.175,59.15 522.675,58.425 L522.675,55.75 C524.1,56.575 526.025,57 527.8,57 C530.325,57 532.125,56 532.125,54 C532.125,51.75 530.2,50.95 527.5,50.95 C526.125,50.95 524.55,51.225 523.175,51.7 L523.725,42.25 Z M536.95,50.75 C536.95,45.775 539.3,41.925 544.575,41.925 C549.85,41.925 552.2,45.775 552.2,50.75 C552.2,55.725 549.85,59.575 544.575,59.575 C539.3,59.575 536.95,55.725 536.95,50.75 Z M549.325,50.75 C549.325,46.8 547.825,44.525 544.575,44.525 C541.3,44.525 539.825,46.8 539.825,50.75 C539.825,54.7 541.3,56.975 544.575,56.975 C547.825,56.975 549.325,54.7 549.325,50.75 Z M554.325,50.75 C554.325,45.775 556.675,41.925 561.95,41.925 C567.225,41.925 569.575,45.775 569.575,50.75 C569.575,55.725 567.225,59.575 561.95,59.575 C556.675,59.575 554.325,55.725 554.325,50.75 Z M566.7,50.75 C566.7,46.8 565.2,44.525 561.95,44.525 C558.675,44.525 557.2,46.8 557.2,50.75 C557.2,54.7 558.675,56.975 561.95,56.975 C565.2,56.975 566.7,54.7 566.7,50.75 Z M575.475,59.25 L572.625,59.25 L572.625,41.75 L575.475,41.75 L575.475,49.05 L578.925,49.05 L583.8,41.75 L587.025,41.75 L581.225,50.275 L587.475,59.25 L584.25,59.25 L578.975,51.675 L575.475,51.675 L575.475,59.25 Z" id="$500К" fill="#07090B"></path>
                <g id="Group">
                    <rect id="Rectangle-2" stroke="url(#linearGradient-1)" stroke-width="2" x="1" y="1" width="584.885099" height="28.8074898" rx="14.4037449"></rect>
                    <rect id="Rectangle-2" fill="url(#linearGradient-2)" style="mix-blend-mode: lighten;" x="0" y="0" width="586.885099" height="30.8074898" rx="15.4037449"></rect>
                </g>
            </g>
            <path d="M12.96,42.3 L9,42.3 L9,36.945 C5.67,36.585 2.52,35.685 0,34.29 L0,29.25 C3.465,31.455 7.515,32.355 11.115,32.355 C15.165,32.355 17.91,31.41 17.91,28.44 C17.91,21.15 0.135,25.02 0.135,13.86 C0.135,8.73 4.05,5.985 9,5.4 L9,0 L12.96,0 L12.96,5.355 C15.975,5.58 18.99,6.39 21.105,7.65 L21.105,12.555 C18.54,10.845 15.03,9.9 11.655,9.945 C7.83,9.945 5.355,11.07 5.355,13.77 C5.355,20.565 23.13,16.92 23.13,28.17 C23.13,34.245 18.585,36.675 12.96,36.99 L12.96,42.3 Z M26.5026923,21.15 C26.5026923,12.195 30.7326923,5.265 40.2276923,5.265 C49.7226923,5.265 53.9526923,12.195 53.9526923,21.15 C53.9526923,30.105 49.7226923,37.035 40.2276923,37.035 C30.7326923,37.035 26.5026923,30.105 26.5026923,21.15 Z M48.7776923,21.15 C48.7776923,14.04 46.0776923,9.945 40.2276923,9.945 C34.3326923,9.945 31.6776923,14.04 31.6776923,21.15 C31.6776923,28.26 34.3326923,32.355 40.2276923,32.355 C46.0776923,32.355 48.7776923,28.26 48.7776923,21.15 Z" id="$0-copy" fill="#5300FF"></path>
        </g>
    </g>
</svg>