<?xml version="1.0" encoding="UTF-8" standalone="no"?>
<svg width="586px" height="118px" viewBox="0 0 586 118" version="1.1" xmlns="http://www.w3.org/2000/svg" xmlns:xlink="http://www.w3.org/1999/xlink">
    <!-- Generator: Sketch 48.2 (47327) - http://www.bohemiancoding.com/sketch -->
    <title>Status</title>
    <desc>Created with Sketch.</desc>
    <defs>
        <linearGradient x1="0%" y1="120.762122%" x2="128.090207%" y2="120.762122%" id="linearGradient-1">
            <stop stop-color="#FF5C5C" offset="0%"></stop>
            <stop stop-color="#5300FF" offset="100%"></stop>
        </linearGradient>
        <linearGradient x1="0%" y1="120.762122%" x2="100%" y2="120.762122%" id="linearGradient-2">
            <stop stop-color="#FF5C5C" offset="0%"></stop>
            <stop stop-color="#5300FF" offset="100%"></stop>
        </linearGradient>
        <linearGradient x1="50%" y1="-2.22044605e-14%" x2="50%" y2="100%" id="linearGradient-3">
            <stop stop-color="#FFFFFF" stop-opacity="0.212013134" offset="0%"></stop>
            <stop stop-color="#000000" stop-opacity="0" offset="100%"></stop>
        </linearGradient>
    </defs>
    <g id="Monoreto-5" stroke="none" stroke-width="1" fill="none" fill-rule="evenodd" transform="translate(-587.000000, -465.000000)">
        <g id="First" transform="translate(230.000000, 120.000000)">
            <g id="Status" transform="translate(355.000000, 345.000000)">
                <path d="M3.14784291,108.695436 C3.14784291,103.720436 5.49784291,99.8704359 10.7728429,99.8704359 C16.0478429,99.8704359 18.3978429,103.720436 18.3978429,108.695436 C18.3978429,113.670436 16.0478429,117.520436 10.7728429,117.520436 C5.49784291,117.520436 3.14784291,113.670436 3.14784291,108.695436 Z M15.5228429,108.695436 C15.5228429,104.745436 14.0228429,102.470436 10.7728429,102.470436 C7.49784291,102.470436 6.02284291,104.745436 6.02284291,108.695436 C6.02284291,112.645436 7.49784291,114.920436 10.7728429,114.920436 C14.0228429,114.920436 15.5228429,112.645436 15.5228429,108.695436 Z M24.8258429,104.595436 L33.5018429,104.595436 L33.5018429,106.467436 L26.8778429,106.467436 L26.8778429,109.905436 L32.9618429,109.905436 L32.9618429,111.777436 L26.8778429,111.777436 L26.8778429,115.323436 L33.6098429,115.323436 L33.6098429,117.195436 L24.8258429,117.195436 L24.8258429,104.595436 Z M34.4328429,104.595436 L44.8188429,104.595436 L44.8188429,106.485436 L40.6608429,106.485436 L40.6608429,117.195436 L38.6088429,117.195436 L38.6088429,106.485436 L34.4328429,106.485436 L34.4328429,104.595436 Z M55.0198429,104.595436 L57.0718429,104.595436 L57.0718429,117.195436 L55.0198429,117.195436 L55.0198429,111.831436 L48.3778429,111.831436 L48.3778429,117.195436 L46.3258429,117.195436 L46.3258429,104.595436 L48.3778429,104.595436 L48.3778429,109.941436 L55.0198429,109.941436 L55.0198429,104.595436 Z" id="0-ETH" fill="#07090B"></path>
                <path d="M487.871,107.795436 C489.496,106.820436 490.996,106.395436 492.821,106.395436 C495.746,106.395436 498.696,108.220436 498.696,111.820436 C498.696,115.570436 495.821,117.520436 492.421,117.520436 C487.221,117.520436 484.996,114.220436 484.996,108.845436 C484.996,102.595436 488.521,99.8704359 492.871,99.8704359 C494.396,99.8704359 495.946,100.220436 497.271,100.870436 L497.271,103.470436 C496.021,102.770436 494.546,102.395436 493.146,102.395436 C490.571,102.395436 488.221,103.720436 487.871,107.795436 Z M487.896,110.320436 C488.221,113.745436 489.796,115.070436 492.196,115.070436 C494.171,115.070436 495.821,114.195436 495.821,111.945436 C495.821,109.620436 493.996,108.895436 492.021,108.895436 C490.596,108.895436 489.121,109.345436 487.896,110.320436 Z M508.946,100.195436 L511.871,100.195436 L511.871,111.245436 L514.796,111.245436 L514.796,113.720436 L511.871,113.720436 L511.871,117.195436 L509.121,117.195436 L509.121,113.720436 L499.896,113.720436 L499.896,111.295436 L508.946,100.195436 Z M509.121,111.245436 L509.121,103.820436 L503.071,111.245436 L509.121,111.245436 Z M516.446,108.695436 C516.446,103.720436 518.796,99.8704359 524.071,99.8704359 C529.346,99.8704359 531.696,103.720436 531.696,108.695436 C531.696,113.670436 529.346,117.520436 524.071,117.520436 C518.796,117.520436 516.446,113.670436 516.446,108.695436 Z M528.821,108.695436 C528.821,104.745436 527.321,102.470436 524.071,102.470436 C520.796,102.470436 519.321,104.745436 519.321,108.695436 C519.321,112.645436 520.796,114.920436 524.071,114.920436 C527.321,114.920436 528.821,112.645436 528.821,108.695436 Z M533.821,108.695436 C533.821,103.720436 536.171,99.8704359 541.446,99.8704359 C546.721,99.8704359 549.071,103.720436 549.071,108.695436 C549.071,113.670436 546.721,117.520436 541.446,117.520436 C536.171,117.520436 533.821,113.670436 533.821,108.695436 Z M546.196,108.695436 C546.196,104.745436 544.696,102.470436 541.446,102.470436 C538.171,102.470436 536.696,104.745436 536.696,108.695436 C536.696,112.645436 538.171,114.920436 541.446,114.920436 C544.696,114.920436 546.196,112.645436 546.196,108.695436 Z M555.499,104.595436 L564.175,104.595436 L564.175,106.467436 L557.551,106.467436 L557.551,109.905436 L563.635,109.905436 L563.635,111.777436 L557.551,111.777436 L557.551,115.323436 L564.283,115.323436 L564.283,117.195436 L555.499,117.195436 L555.499,104.595436 Z M565.106,104.595436 L575.492,104.595436 L575.492,106.485436 L571.334,106.485436 L571.334,117.195436 L569.282,117.195436 L569.282,106.485436 L565.106,106.485436 L565.106,104.595436 Z M585.693,104.595436 L587.745,104.595436 L587.745,117.195436 L585.693,117.195436 L585.693,111.831436 L579.051,111.831436 L579.051,117.195436 L576.999,117.195436 L576.999,104.595436 L579.051,104.595436 L579.051,109.941436 L585.693,109.941436 L585.693,104.595436 Z" id="6400-ETH" fill="#07090B"></path>
                <g id="bar" transform="translate(2.000000, 58.307197)">
                    <rect id="Rectangle-2" fill="url(#linearGradient-1)" x="0" y="0" width="456.316067" height="29.8136998" rx="14.9068499"></rect>
                    <rect id="Rectangle-2" stroke="url(#linearGradient-2)" stroke-width="2" x="1" y="1" width="582.88549" height="27.8136998" rx="13.9068499"></rect>
                    <rect id="Rectangle-2" fill="url(#linearGradient-3)" style="mix-blend-mode: lighten;" x="0" y="0" width="584.88549" height="29.8136998" rx="14.9068499"></rect>
                </g>
                <path d="M6.14,0.849970743 L24.995,0.849970743 L24.995,5.43997074 L10.865,5.43997074 L10.415,12.8199707 C11.9,12.4599707 13.475,12.2799707 15.05,12.2799707 C20.945,12.2799707 26.435,14.8449707 26.435,22.0449707 C26.435,28.6599707 20.81,32.0349707 14.06,32.0349707 C10.505,32.0349707 6.95,31.2699707 4.25,29.9649707 L4.25,25.1499707 C6.815,26.6349707 10.28,27.3999707 13.475,27.3999707 C18.02,27.3999707 21.26,25.5999707 21.26,21.9999707 C21.26,17.9499707 17.795,16.5099707 12.935,16.5099707 C10.46,16.5099707 7.625,17.0049707 5.15,17.8599707 L6.14,0.849970743 Z M29.1326923,0.849970743 L51.8576923,0.849970743 L51.8576923,4.89997074 L39.1676923,31.4499707 L33.6326923,31.4499707 L46.0526923,5.43997074 L29.1326923,5.43997074 L29.1326923,0.849970743 Z M54.0153846,10.5249707 C54.0153846,3.77497074 59.2353846,0.264970743 65.3553846,0.264970743 C74.6703846,0.264970743 78.6753846,6.20497074 78.6753846,15.8799707 C78.6753846,27.0849707 72.3303846,32.0349707 64.5003846,32.0349707 C61.7553846,32.0349707 59.0103846,31.4049707 56.5803846,30.2349707 L56.5803846,25.5549707 C58.8303846,26.8149707 61.4853846,27.4899707 64.0053846,27.4899707 C68.6853846,27.4899707 72.8703846,25.1049707 73.5003846,17.7699707 C70.5753846,19.5249707 67.8753846,20.2449707 64.5903846,20.2449707 C59.3253846,20.2449707 54.0153846,17.0049707 54.0153846,10.5249707 Z M65.7153846,4.67497074 C62.1603846,4.67497074 59.1903846,6.24997074 59.1903846,10.2999707 C59.1903846,14.4849707 62.4753846,15.7899707 66.0753846,15.7899707 C68.5953846,15.7899707 71.2503846,14.9799707 73.4553846,13.2249707 C72.8703846,7.05997074 70.0353846,4.67497074 65.7153846,4.67497074 Z M103.828077,8.63497074 C103.828077,11.8299707 102.028077,14.3949707 99.283077,15.2949707 C102.163077,16.1949707 105.088077,18.4899707 105.088077,23.1249707 C105.088077,29.2899707 99.643077,32.0349707 93.388077,32.0349707 C89.248077,32.0349707 86.008077,31.4049707 82.768077,30.0099707 L82.768077,25.0599707 C86.053077,26.8599707 89.203077,27.4449707 92.983077,27.3999707 C97.033077,27.3549707 100.183077,26.0499707 100.183077,22.5849707 C100.183077,19.1199707 97.348077,17.9949707 93.703077,17.9949707 L88.843077,17.9949707 L88.843077,13.3599707 L93.118077,13.4049707 C96.898077,13.4049707 98.923077,11.7849707 98.923077,9.26497074 C98.923077,6.51997074 96.628077,4.89997074 92.443077,4.89997074 C89.428077,4.89997074 86.278077,5.70997074 83.308077,7.41997074 L83.308077,2.51497074 C86.053077,1.07497074 89.338077,0.264970743 93.118077,0.264970743 C99.418077,0.264970743 103.828077,3.41497074 103.828077,8.63497074 Z M120.118462,6.94997074 L136.988462,6.94997074 L136.988462,10.5899707 L124.108462,10.5899707 L124.108462,17.2749707 L135.938462,17.2749707 L135.938462,20.9149707 L124.108462,20.9149707 L124.108462,27.8099707 L137.198462,27.8099707 L137.198462,31.4499707 L120.118462,31.4499707 L120.118462,6.94997074 Z M139.016154,6.94997074 L159.211154,6.94997074 L159.211154,10.6249707 L151.126154,10.6249707 L151.126154,31.4499707 L147.136154,31.4499707 L147.136154,10.6249707 L139.016154,10.6249707 L139.016154,6.94997074 Z M179.263846,6.94997074 L183.253846,6.94997074 L183.253846,31.4499707 L179.263846,31.4499707 L179.263846,21.0199707 L166.348846,21.0199707 L166.348846,31.4499707 L162.358846,31.4499707 L162.358846,6.94997074 L166.348846,6.94997074 L166.348846,17.3449707 L179.263846,17.3449707 L179.263846,6.94997074 Z" id="5793-ETH" fill="#5300FF"></path>
            </g>
        </g>
    </g>
</svg>