<?xml version="1.0" encoding="UTF-8" standalone="no"?>
<svg width="587px" height="131px" viewBox="0 0 587 131" version="1.1" xmlns="http://www.w3.org/2000/svg" xmlns:xlink="http://www.w3.org/1999/xlink">
    <!-- Generator: Sketch 48.2 (47327) - http://www.bohemiancoding.com/sketch -->
    <title>0-status 0-500-15</title>
    <desc>Created with Sketch.</desc>
    <defs>
        <linearGradient x1="0%" y1="120.762122%" x2="100%" y2="120.762122%" id="linearGradient-1">
            <stop stop-color="#FF5C5C" offset="0%"></stop>
            <stop stop-color="#5300FF" offset="100%"></stop>
        </linearGradient>
        <linearGradient x1="50%" y1="-2.22044605e-14%" x2="50%" y2="100%" id="linearGradient-2">
            <stop stop-color="#FFFFFF" stop-opacity="0.212013134" offset="0%"></stop>
            <stop stop-color="#FFFFFF" stop-opacity="0" offset="100%"></stop>
        </linearGradient>
    </defs>
    <g id="Monoreto" stroke="none" stroke-width="1" fill="none" fill-rule="evenodd">
        <g id="0-status-0-500-15">
            <g id="Group-2-Copy" transform="translate(0.000000, 63.000000)">
                <path d="M400,44.75 L402,44.75 L402,51.775 C402.85,50.825 404.35,49.95 406.125,49.95 C409,49.95 411.125,51.925 411.125,54.85 L411.125,62.25 L409.125,62.25 L409.125,55.1 C409.125,52.85 407.75,51.8 405.9,51.8 C404.125,51.8 402.8,53 402,54.2 L402,62.25 L400,62.25 L400,44.75 Z M424.15,59.75 C424.15,60.475 424.55,60.675 425.075,60.675 C425.375,60.675 425.7,60.6 426,60.5 L426,62.125 C425.525,62.3 425,62.4 424.5,62.4 C423.525,62.4 422.65,62 422.3,60.95 C421.1,61.95 419.575,62.55 417.625,62.55 C415.5,62.55 413.4,61.425 413.4,58.9 C413.4,55.8 416.25,54.85 418.825,54.85 C419.875,54.85 421.15,55 422.15,55.225 L422.15,54.8 C422.15,53 420.925,51.8 418.725,51.8 C416.875,51.8 415.4,52.25 414.35,52.7 L414.35,50.75 C415.3,50.425 416.95,49.95 418.925,49.95 C422.125,49.95 424.15,51.7 424.15,55.05 L424.15,59.75 Z M415.45,58.8 C415.45,60.2 416.725,60.825 418.05,60.825 C419.575,60.825 421.1,60.2 422.15,59.075 L422.15,56.875 C421.3,56.7 420.075,56.525 419.1,56.525 C417.35,56.525 415.45,57.05 415.45,58.8 Z M429.525,52.375 C430.475,50.8 432.6,49.825 434.7,50 L434.7,52 C432.35,51.725 430.45,52.85 429.725,54.775 L429.725,62.25 L427.725,62.25 L427.725,50.25 L429.525,50.25 L429.525,52.375 Z M446,44.75 L448,44.75 L448,62.25 L446.2,62.25 L446.2,60.25 C445.125,61.475 443.65,62.55 441.35,62.55 C437.925,62.55 435.35,59.85 435.35,56.25 C435.35,52.65 437.925,49.95 441.35,49.95 C443.65,49.95 445.125,51.025 446,52.05 L446,44.75 Z M446,54.75 C445.325,53.2 443.725,51.8 441.575,51.8 C439.25,51.8 437.35,53.5 437.35,56.25 C437.35,59 439.25,60.7 441.575,60.7 C443.725,60.7 445.325,59.3 446,57.75 L446,54.75 Z M456.55,56.3 C456.55,51.925 459.925,49.95 463.05,49.95 C464.4,49.95 465.725,50.25 466.75,50.925 L466.75,52.875 C465.85,52.175 464.575,51.8 463.3,51.8 C460.975,51.8 458.55,53.1 458.55,56.25 C458.55,59.325 460.9,60.7 463.25,60.7 C464.55,60.7 465.875,60.325 466.875,59.725 L466.875,61.725 C465.75,62.275 464.475,62.55 462.975,62.55 C459.825,62.55 456.55,60.575 456.55,56.3 Z M479.175,59.75 C479.175,60.475 479.575,60.675 480.1,60.675 C480.4,60.675 480.725,60.6 481.025,60.5 L481.025,62.125 C480.55,62.3 480.025,62.4 479.525,62.4 C478.55,62.4 477.675,62 477.325,60.95 C476.125,61.95 474.6,62.55 472.65,62.55 C470.525,62.55 468.425,61.425 468.425,58.9 C468.425,55.8 471.275,54.85 473.85,54.85 C474.9,54.85 476.175,55 477.175,55.225 L477.175,54.8 C477.175,53 475.95,51.8 473.75,51.8 C471.9,51.8 470.425,52.25 469.375,52.7 L469.375,50.75 C470.325,50.425 471.975,49.95 473.95,49.95 C477.15,49.95 479.175,51.7 479.175,55.05 L479.175,59.75 Z M470.475,58.8 C470.475,60.2 471.75,60.825 473.075,60.825 C474.6,60.825 476.125,60.2 477.175,59.075 L477.175,56.875 C476.325,56.7 475.1,56.525 474.125,56.525 C472.375,56.525 470.475,57.05 470.475,58.8 Z M484.55,52.25 C485.625,51.025 487.1,49.95 489.4,49.95 C492.825,49.95 495.4,52.65 495.4,56.25 C495.4,59.85 492.825,62.55 489.4,62.55 C487.1,62.55 485.625,61.475 484.75,60.45 L484.75,67.75 L482.75,67.75 L482.75,50.25 L484.55,50.25 L484.55,52.25 Z M493.4,56.25 C493.4,53.5 491.5,51.8 489.175,51.8 C487.025,51.8 485.425,53.2 484.75,54.75 L484.75,57.75 C485.425,59.3 487.025,60.7 489.175,60.7 C491.5,60.7 493.4,59 493.4,56.25 Z M519.55,57 L503.7,57 L503.7,55.1 L519.55,55.1 L519.55,57 Z M534.85,65.5 L532.65,65.5 L532.65,62.525 C530.8,62.325 529.05,61.825 527.65,61.05 L527.65,58.25 C529.575,59.475 531.825,59.975 533.825,59.975 C536.075,59.975 537.6,59.45 537.6,57.8 C537.6,53.75 527.725,55.9 527.725,49.7 C527.725,46.85 529.9,45.325 532.65,45 L532.65,42 L534.85,42 L534.85,44.975 C536.525,45.1 538.2,45.55 539.375,46.25 L539.375,48.975 C537.95,48.025 536,47.5 534.125,47.525 C532,47.525 530.625,48.15 530.625,49.65 C530.625,53.425 540.5,51.4 540.5,57.65 C540.5,61.025 537.975,62.375 534.85,62.55 L534.85,65.5 Z M546.5,45.25 L548.6,45.25 L548.6,59.675 L551.625,59.675 L551.625,62.25 L542.375,62.25 L542.375,59.675 L545.775,59.675 L545.775,48.175 L542.375,49.45 L542.375,46.825 L546.5,45.25 Z M554.2,45.25 L564.675,45.25 L564.675,47.8 L556.825,47.8 L556.575,51.9 C557.4,51.7 558.275,51.6 559.15,51.6 C562.425,51.6 565.475,53.025 565.475,57.025 C565.475,60.7 562.35,62.575 558.6,62.575 C556.625,62.575 554.65,62.15 553.15,61.425 L553.15,58.75 C554.575,59.575 556.5,60 558.275,60 C560.8,60 562.6,59 562.6,57 C562.6,54.75 560.675,53.95 557.975,53.95 C556.6,53.95 555.025,54.225 553.65,54.7 L554.2,45.25 Z M584.225,44.75 L586.8,44.75 L586.8,62.25 L583.95,62.25 L583.95,50 L578.425,58.3 L576.725,58.3 L571.2,49.975 L571.2,62.25 L568.35,62.25 L568.35,44.75 L570.925,44.75 L577.575,54.775 L584.225,44.75 Z" id="hard-cap-—-$15M" fill="#07090B"></path>
                <path d="M7.2,65.5 L5,65.5 L5,62.525 C3.15,62.325 1.4,61.825 0,61.05 L0,58.25 C1.925,59.475 4.175,59.975 6.175,59.975 C8.425,59.975 9.95,59.45 9.95,57.8 C9.95,53.75 0.075,55.9 0.075,49.7 C0.075,46.85 2.25,45.325 5,45 L5,42 L7.2,42 L7.2,44.975 C8.875,45.1 10.55,45.55 11.725,46.25 L11.725,48.975 C10.3,48.025 8.35,47.5 6.475,47.525 C4.35,47.525 2.975,48.15 2.975,49.65 C2.975,53.425 12.85,51.4 12.85,57.65 C12.85,61.025 10.325,62.375 7.2,62.55 L7.2,65.5 Z M15.725,45.25 L26.2,45.25 L26.2,47.8 L18.35,47.8 L18.1,51.9 C18.925,51.7 19.8,51.6 20.675,51.6 C23.95,51.6 27,53.025 27,57.025 C27,60.7 23.875,62.575 20.125,62.575 C18.15,62.575 16.175,62.15 14.675,61.425 L14.675,58.75 C16.1,59.575 18.025,60 19.8,60 C22.325,60 24.125,59 24.125,57 C24.125,54.75 22.2,53.95 19.5,53.95 C18.125,53.95 16.55,54.225 15.175,54.7 L15.725,45.25 Z M28.95,53.75 C28.95,48.775 31.3,44.925 36.575,44.925 C41.85,44.925 44.2,48.775 44.2,53.75 C44.2,58.725 41.85,62.575 36.575,62.575 C31.3,62.575 28.95,58.725 28.95,53.75 Z M41.325,53.75 C41.325,49.8 39.825,47.525 36.575,47.525 C33.3,47.525 31.825,49.8 31.825,53.75 C31.825,57.7 33.3,59.975 36.575,59.975 C39.825,59.975 41.325,57.7 41.325,53.75 Z M46.325,53.75 C46.325,48.775 48.675,44.925 53.95,44.925 C59.225,44.925 61.575,48.775 61.575,53.75 C61.575,58.725 59.225,62.575 53.95,62.575 C48.675,62.575 46.325,58.725 46.325,53.75 Z M58.7,53.75 C58.7,49.8 57.2,47.525 53.95,47.525 C50.675,47.525 49.2,49.8 49.2,53.75 C49.2,57.7 50.675,59.975 53.95,59.975 C57.2,59.975 58.7,57.7 58.7,53.75 Z M67.475,62.25 L64.625,62.25 L64.625,44.75 L67.475,44.75 L67.475,52.05 L70.925,52.05 L75.8,44.75 L79.025,44.75 L73.225,53.275 L79.475,62.25 L76.25,62.25 L70.975,54.675 L67.475,54.675 L67.475,62.25 Z M102.25,57 L86.4,57 L86.4,55.1 L102.25,55.1 L102.25,57 Z M110.675,53.4 C110.675,50.925 113,49.95 115.25,49.95 C116.85,49.95 118.375,50.375 119.5,50.975 L119.5,52.875 C118.5,52.225 116.825,51.75 115.375,51.75 C114.075,51.75 112.7,52.175 112.7,53.35 C112.7,55.95 120.325,54.85 120.325,59.175 C120.325,61.675 117.975,62.55 115.375,62.55 C113.675,62.55 111.85,62.1 110.725,61.375 L110.725,59.425 C111.95,60.25 113.775,60.7 115.275,60.7 C116.975,60.7 118.325,60.425 118.325,59.225 C118.325,56.7 110.675,57.7 110.675,53.4 Z M121.925,56.25 C121.925,52.15 125.075,49.95 128.325,49.95 C131.6,49.95 134.725,52.15 134.725,56.25 C134.725,60.35 131.6,62.55 128.325,62.55 C125.075,62.55 121.925,60.35 121.925,56.25 Z M132.725,56.25 C132.725,53.475 130.775,51.85 128.325,51.85 C125.875,51.85 123.925,53.475 123.925,56.25 C123.925,59.025 125.875,60.65 128.325,60.65 C130.775,60.65 132.725,59.025 132.725,56.25 Z M140.025,62.25 L138.025,62.25 L138.025,52.1 L135.775,52.1 L135.775,50.25 L138.025,50.25 L138.025,48.8 C138.025,45.45 140.175,44.45 142.275,44.45 C143.375,44.45 144.45,44.675 145.275,45 L145.275,46.85 C144.6,46.525 143.65,46.3 142.75,46.3 C141.3,46.3 140.025,46.675 140.025,48.875 L140.025,50.25 L144.525,50.25 L144.525,52.1 L140.025,52.1 L140.025,62.25 Z M147.15,46.525 L149.125,46.025 L149.125,50.25 L153.925,50.25 L153.925,52.1 L149.125,52.1 L149.125,58.3 C149.125,60.125 149.95,60.675 151.7,60.675 C152.65,60.675 153.55,60.45 154.35,60.125 L154.35,61.975 C153.45,62.3 152.275,62.525 151.125,62.525 C148.8,62.525 147.15,61.275 147.15,58.65 L147.15,52.1 L144.9,52.1 L144.9,50.25 L147.15,50.25 L147.15,46.525 Z M161.45,56.3 C161.45,51.925 164.825,49.95 167.95,49.95 C169.3,49.95 170.625,50.25 171.65,50.925 L171.65,52.875 C170.75,52.175 169.475,51.8 168.2,51.8 C165.875,51.8 163.45,53.1 163.45,56.25 C163.45,59.325 165.8,60.7 168.15,60.7 C169.45,60.7 170.775,60.325 171.775,59.725 L171.775,61.725 C170.65,62.275 169.375,62.55 167.875,62.55 C164.725,62.55 161.45,60.575 161.45,56.3 Z M184.075,59.75 C184.075,60.475 184.475,60.675 185,60.675 C185.3,60.675 185.625,60.6 185.925,60.5 L185.925,62.125 C185.45,62.3 184.925,62.4 184.425,62.4 C183.45,62.4 182.575,62 182.225,60.95 C181.025,61.95 179.5,62.55 177.55,62.55 C175.425,62.55 173.325,61.425 173.325,58.9 C173.325,55.8 176.175,54.85 178.75,54.85 C179.8,54.85 181.075,55 182.075,55.225 L182.075,54.8 C182.075,53 180.85,51.8 178.65,51.8 C176.8,51.8 175.325,52.25 174.275,52.7 L174.275,50.75 C175.225,50.425 176.875,49.95 178.85,49.95 C182.05,49.95 184.075,51.7 184.075,55.05 L184.075,59.75 Z M175.375,58.8 C175.375,60.2 176.65,60.825 177.975,60.825 C179.5,60.825 181.025,60.2 182.075,59.075 L182.075,56.875 C181.225,56.7 180,56.525 179.025,56.525 C177.275,56.525 175.375,57.05 175.375,58.8 Z M189.45,52.25 C190.525,51.025 192,49.95 194.3,49.95 C197.725,49.95 200.3,52.65 200.3,56.25 C200.3,59.85 197.725,62.55 194.3,62.55 C192,62.55 190.525,61.475 189.65,60.45 L189.65,67.75 L187.65,67.75 L187.65,50.25 L189.45,50.25 L189.45,52.25 Z M198.3,56.25 C198.3,53.5 196.4,51.8 194.075,51.8 C191.925,51.8 190.325,53.2 189.65,54.75 L189.65,57.75 C190.325,59.3 191.925,60.7 194.075,60.7 C196.4,60.7 198.3,59 198.3,56.25 Z" id="$500К-—-soft-cap" fill="#07090B"></path>
                <g id="Group">
                    <rect id="Rectangle-2" stroke="url(#linearGradient-1)" stroke-width="3" x="1.5" y="1.5" width="583.885099" height="27.8074898" rx="13.9037449"></rect>
                    <path d="M78.8850987,29 L78.8850987,11" id="Line-4" stroke="#E84F71" stroke-width="2" stroke-linecap="round"></path>
                    <rect id="Rectangle-2" fill="url(#linearGradient-2)" style="mix-blend-mode: lighten;" x="0" y="0" width="586.885099" height="30.8074898" rx="15.4037449"></rect>
                </g>
            </g>
            <path d="M12.96,42.3 L9,42.3 L9,36.945 C5.67,36.585 2.52,35.685 0,34.29 L0,29.25 C3.465,31.455 7.515,32.355 11.115,32.355 C15.165,32.355 17.91,31.41 17.91,28.44 C17.91,21.15 0.135,25.02 0.135,13.86 C0.135,8.73 4.05,5.985 9,5.4 L9,0 L12.96,0 L12.96,5.355 C15.975,5.58 18.99,6.39 21.105,7.65 L21.105,12.555 C18.54,10.845 15.03,9.9 11.655,9.945 C7.83,9.945 5.355,11.07 5.355,13.77 C5.355,20.565 23.13,16.92 23.13,28.17 C23.13,34.245 18.585,36.675 12.96,36.99 L12.96,42.3 Z M26.5026923,21.15 C26.5026923,12.195 30.7326923,5.265 40.2276923,5.265 C49.7226923,5.265 53.9526923,12.195 53.9526923,21.15 C53.9526923,30.105 49.7226923,37.035 40.2276923,37.035 C30.7326923,37.035 26.5026923,30.105 26.5026923,21.15 Z M48.7776923,21.15 C48.7776923,14.04 46.0776923,9.945 40.2276923,9.945 C34.3326923,9.945 31.6776923,14.04 31.6776923,21.15 C31.6776923,28.26 34.3326923,32.355 40.2276923,32.355 C46.0776923,32.355 48.7776923,28.26 48.7776923,21.15 Z" id="$0" fill="#5300FF"></path>
        </g>
    </g>
</svg>