<?xml version="1.0" encoding="UTF-8" standalone="no"?>
<svg width="588px" height="127px" viewBox="0 0 588 127" version="1.1" xmlns="http://www.w3.org/2000/svg" xmlns:xlink="http://www.w3.org/1999/xlink">
    <!-- Generator: Sketch 48.2 (47327) - http://www.bohemiancoding.com/sketch -->
    <title>0-status copy</title>
    <desc>Created with Sketch.</desc>
    <defs>
        <linearGradient x1="0%" y1="120.762122%" x2="100%" y2="120.762122%" id="linearGradient-1">
            <stop stop-color="#FF5C5C" offset="0%"></stop>
            <stop stop-color="#5300FF" offset="100%"></stop>
        </linearGradient>
        <linearGradient x1="50%" y1="-2.22044605e-14%" x2="50%" y2="100%" id="linearGradient-2">
            <stop stop-color="#FFFFFF" stop-opacity="0.212013134" offset="0%"></stop>
            <stop stop-color="#000000" stop-opacity="0" offset="100%"></stop>
        </linearGradient>
    </defs>
    <g id="Monoreto" stroke="none" stroke-width="1" fill="none" fill-rule="evenodd">
        <g id="0-status-copy">
            <g id="Group-2" transform="translate(0.000000, 64.000000)">
                <path d="M7.2,62.5 L5,62.5 L5,59.525 C3.15,59.325 1.4,58.825 0,58.05 L0,55.25 C1.925,56.475 4.175,56.975 6.175,56.975 C8.425,56.975 9.95,56.45 9.95,54.8 C9.95,50.75 0.075,52.9 0.075,46.7 C0.075,43.85 2.25,42.325 5,42 L5,39 L7.2,39 L7.2,41.975 C8.875,42.1 10.55,42.55 11.725,43.25 L11.725,45.975 C10.3,45.025 8.35,44.5 6.475,44.525 C4.35,44.525 2.975,45.15 2.975,46.65 C2.975,50.425 12.85,48.4 12.85,54.65 C12.85,58.025 10.325,59.375 7.2,59.55 L7.2,62.5 Z M14.625,50.75 C14.625,45.775 16.975,41.925 22.25,41.925 C27.525,41.925 29.875,45.775 29.875,50.75 C29.875,55.725 27.525,59.575 22.25,59.575 C16.975,59.575 14.625,55.725 14.625,50.75 Z M27,50.75 C27,46.8 25.5,44.525 22.25,44.525 C18.975,44.525 17.5,46.8 17.5,50.75 C17.5,54.7 18.975,56.975 22.25,56.975 C25.5,56.975 27,54.7 27,50.75 Z" id="$0" fill="#07090B"></path>
                <path d="M535.2,62.5 L533,62.5 L533,59.525 C531.15,59.325 529.4,58.825 528,58.05 L528,55.25 C529.925,56.475 532.175,56.975 534.175,56.975 C536.425,56.975 537.95,56.45 537.95,54.8 C537.95,50.75 528.075,52.9 528.075,46.7 C528.075,43.85 530.25,42.325 533,42 L533,39 L535.2,39 L535.2,41.975 C536.875,42.1 538.55,42.55 539.725,43.25 L539.725,45.975 C538.3,45.025 536.35,44.5 534.475,44.525 C532.35,44.525 530.975,45.15 530.975,46.65 C530.975,50.425 540.85,48.4 540.85,54.65 C540.85,58.025 538.325,59.375 535.2,59.55 L535.2,62.5 Z M546.85,42.25 L548.95,42.25 L548.95,56.675 L551.975,56.675 L551.975,59.25 L542.725,59.25 L542.725,56.675 L546.125,56.675 L546.125,45.175 L542.725,46.45 L542.725,43.825 L546.85,42.25 Z M554.55,42.25 L565.025,42.25 L565.025,44.8 L557.175,44.8 L556.925,48.9 C557.75,48.7 558.625,48.6 559.5,48.6 C562.775,48.6 565.825,50.025 565.825,54.025 C565.825,57.7 562.7,59.575 558.95,59.575 C556.975,59.575 555,59.15 553.5,58.425 L553.5,55.75 C554.925,56.575 556.85,57 558.625,57 C561.15,57 562.95,56 562.95,54 C562.95,51.75 561.025,50.95 558.325,50.95 C556.95,50.95 555.375,51.225 554,51.7 L554.55,42.25 Z M584.575,41.75 L587.15,41.75 L587.15,59.25 L584.3,59.25 L584.3,47 L578.775,55.3 L577.075,55.3 L571.55,46.975 L571.55,59.25 L568.7,59.25 L568.7,41.75 L571.275,41.75 L577.925,51.775 L584.575,41.75 Z" id="$15M" fill="#07090B"></path>
                <g id="Group">
                    <rect id="Rectangle-2" stroke="url(#linearGradient-1)" stroke-width="2" x="1" y="1" width="584.885099" height="28.8074898" rx="14.4037449"></rect>
                    <rect id="Rectangle-2" fill="url(#linearGradient-2)" style="mix-blend-mode: lighten;" x="0" y="0" width="586.885099" height="30.8074898" rx="15.4037449"></rect>
                </g>
            </g>
            <path d="M12.96,42.3 L9,42.3 L9,36.945 C5.67,36.585 2.52,35.685 0,34.29 L0,29.25 C3.465,31.455 7.515,32.355 11.115,32.355 C15.165,32.355 17.91,31.41 17.91,28.44 C17.91,21.15 0.135,25.02 0.135,13.86 C0.135,8.73 4.05,5.985 9,5.4 L9,0 L12.96,0 L12.96,5.355 C15.975,5.58 18.99,6.39 21.105,7.65 L21.105,12.555 C18.54,10.845 15.03,9.9 11.655,9.945 C7.83,9.945 5.355,11.07 5.355,13.77 C5.355,20.565 23.13,16.92 23.13,28.17 C23.13,34.245 18.585,36.675 12.96,36.99 L12.96,42.3 Z M26.5026923,21.15 C26.5026923,12.195 30.7326923,5.265 40.2276923,5.265 C49.7226923,5.265 53.9526923,12.195 53.9526923,21.15 C53.9526923,30.105 49.7226923,37.035 40.2276923,37.035 C30.7326923,37.035 26.5026923,30.105 26.5026923,21.15 Z M48.7776923,21.15 C48.7776923,14.04 46.0776923,9.945 40.2276923,9.945 C34.3326923,9.945 31.6776923,14.04 31.6776923,21.15 C31.6776923,28.26 34.3326923,32.355 40.2276923,32.355 C46.0776923,32.355 48.7776923,28.26 48.7776923,21.15 Z" id="$0" fill="#5300FF"></path>
        </g>
    </g>
</svg>