<?xml version="1.0" encoding="UTF-8"?>
<svg width="65px" height="418px" viewBox="0 0 65 418" version="1.1" xmlns="http://www.w3.org/2000/svg" xmlns:xlink="http://www.w3.org/1999/xlink">
    <!-- Generator: Sketch 48.2 (47327) - http://www.bohemiancoding.com/sketch -->
    <title>Cards</title>
    <desc>Created with Sketch.</desc>
    <defs></defs>
    <g id="Monoreto-4" stroke="none" stroke-width="1" fill="none" fill-rule="evenodd" transform="translate(-1156.000000, -2982.000000)">
        <g id="Roadmap" transform="translate(177.000000, 2892.000000)" fill="#FFFFFF">
            <g id="Timeline" transform="translate(0.000000, 90.000000)">
                <g id="Cards" transform="translate(979.000000, 0.000000)">
                    <polygon id="Rectangle-7-Copy-4" fill-opacity="0.6" points="0 0 6.43713542 0 28.1017188 208.861857 6.43713542 417.723714 0 417.723714 21.6645833 208.861857"></polygon>
                    <polygon id="Rectangle-7-Copy-6" fill-opacity="0.5" points="6 0 12.4371354 0 34.1017188 208.861857 12.4371354 417.723714 6 417.723714 27.6645833 208.861857"></polygon>
                    <polygon id="Rectangle-7-Copy-7" fill-opacity="0.4" points="12 0 18.4371354 0 40.1017188 208.861857 18.4371354 417.723714 12 417.723714 33.6645833 208.861857"></polygon>
                    <polygon id="Rectangle-7-Copy-8" fill-opacity="0.3" points="18 0 24.4371354 0 46.1017188 208.861857 24.4371354 417.723714 18 417.723714 39.6645833 208.861857"></polygon>
                    <polygon id="Rectangle-7-Copy-9" fill-opacity="0.3" points="24 0 30.4371354 0 52.1017188 208.861857 30.4371354 417.723714 24 417.723714 45.6645833 208.861857"></polygon>
                    <polygon id="Rectangle-7-Copy-10" fill-opacity="0.2" points="30 0 36.4371354 0 58.1017188 208.861857 36.4371354 417.723714 30 417.723714 51.6645833 208.861857"></polygon>
                    <polygon id="Rectangle-7-Copy-11" fill-opacity="0.1" points="36 0 42.4371354 0 64.1017188 208.861857 42.4371354 417.723714 36 417.723714 57.6645833 208.861857"></polygon>
                </g>
            </g>
        </g>
    </g>
</svg>