<?xml version="1.0" encoding="UTF-8"?>
<svg width="37px" height="37px" viewBox="0 0 37 37" version="1.1" xmlns="http://www.w3.org/2000/svg" xmlns:xlink="http://www.w3.org/1999/xlink">
    <!-- Generator: Sketch 48.2 (47327) - http://www.bohemiancoding.com/sketch -->
    <title>icon</title>
    <desc>Created with Sketch.</desc>
    <defs>
        <linearGradient x1="26.1295422%" y1="100%" x2="74.1967082%" y2="0%" id="linearGradient-1">
            <stop stop-color="#FF5C5C" offset="0%"></stop>
            <stop stop-color="#5300FF" offset="100%"></stop>
        </linearGradient>
        <rect id="path-2" x="0" y="0" width="37" height="37" rx="12.6712329"></rect>
    </defs>
    <g id="Monoreto-4" stroke="none" stroke-width="1" fill="none" fill-rule="evenodd" transform="translate(-230.000000, -9.000000)">
        <g id="icon" transform="translate(230.000000, 9.000000)">
            <mask id="mask-3" fill="white">
                <use xlink:href="#path-2"></use>
            </mask>
            <g id="Mask">
                <use fill="url(#linearGradient-1)" style="mix-blend-mode: overlay;" xlink:href="#path-2"></use>
                <use fill="#FFFFFF" style="mix-blend-mode: darken;" xlink:href="#path-2"></use>
            </g>
            <g id="Group-24" mask="url(#mask-3)" fill-rule="nonzero">
                <g transform="translate(3.686072, 3.494484)" id="Shape">
                    <path d="M14.7531646,30.3316618 C22.8876907,30.3316618 29.5063291,23.5278909 29.5063291,15.1658309 C29.5063291,6.80377088 22.8876907,-2.30488383e-13 14.7531646,-2.30488383e-13 C6.61863845,-2.30488383e-13 0,6.80377088 0,15.1658309 C0,23.5278909 6.61863845,30.3316618 14.7531646,30.3316618 Z" stroke="none"></path>
                    <path d="M14.7531646,29.5713878 C22.4630374,29.5713878 28.7460551,23.1126254 28.7460551,15.1658309 C28.7460551,7.21903633 22.4630374,0.760273973 14.7531646,0.760273973 C7.04329167,0.760273973 0.760273973,7.21903633 0.760273973,15.1658309 C0.760273973,23.1126254 7.04329167,29.5713878 14.7531646,29.5713878 Z" stroke="#FFFFFF" stroke-width="1.52054795"></path>
                </g>
            </g>
            <g id="Page-1" mask="url(#mask-3)" fill="#FFFFFF">
                <g transform="translate(9.908055, 10.934980)">
                    <path d="M16.3804722,5.77369707 L14.4954882,5.77369707 C14.2029906,5.77369707 14.1266285,5.58911214 14.1168542,5.30986827 C14.040492,3.74388559 13.2929983,2.71671155 11.9280099,2.71671155 C10.5628993,2.71671155 9.78290589,3.27127378 9.78290589,4.82841333 C9.78290589,5.12671353 9.62040726,5.29224213 9.36028729,5.29224213 L7.47518107,5.29224213 C7.18268354,5.29224213 7.0203071,5.12671353 7.0203071,4.82841333 L7.03072114,4.85363352 C7.03072114,3.29649397 6.27281343,2.71671155 4.90770281,2.71671155 C3.54271436,2.71671155 2.76272097,3.74388559 2.76272097,5.30102514 C2.76272097,5.60816848 2.60010017,5.77369707 2.30760264,5.77369707 L0.454996147,5.77369707 C0.162498624,5.77369707 0,5.60816848 0,5.30986827 L0,5.40041702 C0,2.25288275 1.95010567,0 4.90770281,0 C6.40269015,0 7.67042378,0.828265716 8.41779527,2.02096835 C9.16528894,0.828265716 10.4004007,0 11.9280099,0 C14.885607,0 16.8030908,2.1470142 16.8030908,5.29454847 C16.8030908,5.60816848 16.6405922,5.77369707 16.3804722,5.77369707 Z" id="Fill-1"></path>
                    <path d="M8.55288731,16.7382734 C8.41946738,16.8597109 8.21762699,16.858839 8.08506232,16.7362806 L2.40591868,11.4819622 C0.924859788,10.114016 0.134603321,8.80498247 0.00191647472,7.49383161 C-0.0194649232,7.2815963 0.140712292,7.09589041 0.349883453,7.09589041 L2.36474421,7.09589041 C2.52394399,7.09589041 2.66628301,7.20437454 2.70293684,7.3623055 C2.79921422,7.77780843 3.14400453,8.4662031 4.21148609,9.45215068 L8.10033475,13.0500622 C8.23289941,13.1726206 8.43473981,13.1734925 8.56815973,13.052055 L12.5336149,9.44542492 C13.5947431,8.46495759 13.9384338,7.77793298 14.034589,7.36267916 C14.0712428,7.20474819 14.2135819,7.09626406 14.3727816,7.09626406 L16.3875202,7.09626406 C16.5968136,7.09626406 16.7569908,7.28196996 16.7354872,7.49408071 C16.6028003,8.80485791 15.8126661,10.114016 14.3308741,11.482834 L8.55288731,16.7382734 Z" id="Fill-3"></path>
                </g>
            </g>
        </g>
    </g>
</svg>