<?xml version="1.0" encoding="UTF-8"?>
<svg width="830px" height="344px" viewBox="0 0 830 344" version="1.1" xmlns="http://www.w3.org/2000/svg" xmlns:xlink="http://www.w3.org/1999/xlink">
    <!-- Generator: Sketch 48.2 (47327) - http://www.bohemiancoding.com/sketch -->
    <title>hover</title>
    <desc>Created with Sketch.</desc>
    <defs>
        <path d="M33,0 L621.003892,-4.26325641e-14 C636.017202,7.94752539e-15 649.138318,10.1340093 652.932617,24.6599433 L669.73594,88.989084 C669.909075,89.6519084 669.909075,90.3480916 669.73594,91.010916 L652.932617,155.340057 C649.138318,169.865991 636.017202,180 621.003892,180 L33,180 C14.7746033,180 1.13139441e-14,165.225397 -7.10542736e-15,147 L-7.10542736e-15,33 C-9.33739474e-15,14.7746033 14.7746033,-3.75747629e-15 33,-7.10542736e-15 Z" id="path-1"></path>
        <filter x="-18.6%" y="-69.2%" width="137.2%" height="238.3%" filterUnits="objectBoundingBox" id="filter-2">
            <feOffset dx="0" dy="0" in="SourceAlpha" result="shadowOffsetOuter1"></feOffset>
            <feGaussianBlur stdDeviation="41.5" in="shadowOffsetOuter1" result="shadowBlurOuter1"></feGaussianBlur>
            <feColorMatrix values="0 0 0 0 0.325490196   0 0 0 0 0   0 0 0 0 1  0 0 0 0.5 0" type="matrix" in="shadowBlurOuter1"></feColorMatrix>
        </filter>
    </defs>
    <g id="Monoreto-5" stroke="none" stroke-width="1" fill="none" fill-rule="evenodd" transform="translate(-95.000000, -2513.000000)">
        <g id="Group-27" transform="translate(177.000000, 2595.000000)">
            <g id="hover">
                <use fill="black" fill-opacity="1" filter="url(#filter-2)" xlink:href="#path-1"></use>
                <use fill="#FFFFFF" fill-rule="evenodd" xlink:href="#path-1"></use>
            </g>
        </g>
    </g>
</svg>