<?xml version="1.0" encoding="UTF-8"?>
<svg width="100px" height="100px" viewBox="0 0 100 100" version="1.1" xmlns="http://www.w3.org/2000/svg" xmlns:xlink="http://www.w3.org/1999/xlink">
    <!-- Generator: Sketch 48.2 (47327) - http://www.bohemiancoding.com/sketch -->
    <title>Group 9 Copy</title>
    <desc>Created with Sketch.</desc>
    <defs></defs>
    <g id="Monoreto-5" stroke="none" stroke-width="1" fill="none" fill-rule="evenodd" transform="translate(-230.000000, -2635.000000)">
        <g id="Group-27" transform="translate(177.000000, 2595.000000)">
            <g id="Group-9-Copy" transform="translate(53.000000, 40.000000)">
                <rect id="Rectangle-4" fill="#FFFFFF" x="0" y="0" width="100" height="100" rx="33.3333333"></rect>
                <g id="001-smartphone" transform="translate(19.166667, 19.166667)" fill-rule="nonzero">
                    <path d="M33.266129,17.1370968 C33.266129,14.9102823 35.0715726,13.1048387 37.2983871,13.1048387 L39.3145161,13.1048387 L39.3145161,3.02419355 C39.3145161,1.91028226 38.4122984,1.00806452 37.2983871,1.00806452 L3.02419355,1.00806452 C1.91028226,1.00806452 1.00806452,1.91028226 1.00806452,3.02419355 L1.00806452,30.2419355 C1.00806452,31.3558468 1.91028226,32.2580645 3.02419355,32.2580645 L30.2419355,32.2580645 L33.266129,32.2580645 L33.266129,17.1370968 Z" id="Shape" fill="#5300FF"></path>
                    <g id="Group" transform="translate(38.306452, 26.209677)" fill="#5300FF">
                        <polygon id="Shape" points="2.01612903 5.04032258 0 5.04032258 0 0 5.04032258 0 5.04032258 2.01612903 2.01612903 2.01612903"></polygon>
                        <polygon id="Shape" points="5.04032258 20.1612903 0 20.1612903 0 15.1209677 2.01612903 15.1209677 2.01612903 18.1451613 5.04032258 18.1451613"></polygon>
                        <polygon id="Shape" points="18.1451613 5.04032258 16.1290323 5.04032258 16.1290323 2.01612903 13.1048387 2.01612903 13.1048387 0 18.1451613 0"></polygon>
                        <polygon id="Shape" points="18.1451613 20.1612903 13.1048387 20.1612903 13.1048387 18.1451613 16.1290323 18.1451613 16.1290323 15.1209677 18.1451613 15.1209677"></polygon>
                    </g>
                    <g id="Group" fill="#29292C">
                        <path d="M32.2580645,57.4596774 C32.2580645,60.2389113 34.5191532,62.5 37.2983871,62.5 L57.4596774,62.5 C60.2389113,62.5 62.5,60.2389113 62.5,57.4596774 L62.5,52.4193548 L32.2580645,52.4193548 L32.2580645,57.4596774 Z M34.2741935,54.4354839 L60.483871,54.4354839 L60.483871,57.4596774 C60.483871,59.1270161 59.1270161,60.483871 57.4596774,60.483871 L37.2983871,60.483871 C35.6310484,60.483871 34.2741935,59.1270161 34.2741935,57.4596774 L34.2741935,54.4354839 Z" id="Shape"></path>
                        <path d="M57.4596774,12.0967742 L37.2983871,12.0967742 C34.5191532,12.0967742 32.2580645,14.3578629 32.2580645,17.1370968 L32.2580645,50.4032258 L34.2741935,50.4032258 L34.2741935,20.1612903 L60.483871,20.1612903 L60.483871,50.4032258 L62.5,50.4032258 L62.5,17.1370968 C62.5,14.3578629 60.2389113,12.0967742 57.4596774,12.0967742 Z M34.2741935,18.1451613 L34.2741935,17.1370968 C34.2741935,15.4697581 35.6310484,14.1129032 37.2983871,14.1129032 L57.4596774,14.1129032 C59.1270161,14.1129032 60.483871,15.4697581 60.483871,17.1370968 L60.483871,18.1451613 L34.2741935,18.1451613 Z" id="Shape"></path>
                        <rect id="Rectangle-path" x="42.3387097" y="56.4516129" width="10.0806452" height="2.01612903"></rect>
                        <path d="M51.4112903,36.2903226 C51.4112903,34.0665323 49.6028226,32.2580645 47.3790323,32.2580645 C45.1552419,32.2580645 43.3467742,34.0665323 43.3467742,36.2903226 C43.3467742,38.5141129 45.1552419,40.3225806 47.3790323,40.3225806 C49.6028226,40.3225806 51.4112903,38.5141129 51.4112903,36.2903226 Z M45.3629032,36.2903226 C45.3629032,35.1784274 46.2671371,34.2741935 47.3790323,34.2741935 C48.4909274,34.2741935 49.3951613,35.1784274 49.3951613,36.2903226 C49.3951613,37.4022177 48.4909274,38.3064516 47.3790323,38.3064516 C46.2671371,38.3064516 45.3629032,37.4022177 45.3629032,36.2903226 Z" id="Shape"></path>
                        <path d="M2.01612903,19.9879032 L2.01612903,3.02419355 C2.01612903,2.46875 2.46875,2.01612903 3.02419355,2.01612903 L37.2983871,2.01612903 C37.8538306,2.01612903 38.3064516,2.46875 38.3064516,3.02419355 L38.3064516,10.0806452 L40.3225806,10.0806452 L40.3225806,3.02419355 C40.3225806,1.35685484 38.9657258,0 37.2983871,0 L3.02419355,0 C1.35685484,0 0,1.35685484 0,3.02419355 L0,30.2419355 C0,31.9092742 1.35685484,33.266129 3.02419355,33.266129 L30.2419355,33.266129 L30.2419355,31.25 L3.02419355,31.25 C2.46875,31.25 2.01612903,30.797379 2.01612903,30.2419355 L2.01612903,27.2177419 L2.01612903,19.9879032 Z" id="Shape"></path>
                    </g>
                </g>
            </g>
        </g>
    </g>
</svg>