<?xml version="1.0" encoding="UTF-8"?>
<svg width="100px" height="100px" viewBox="0 0 100 100" version="1.1" xmlns="http://www.w3.org/2000/svg" xmlns:xlink="http://www.w3.org/1999/xlink">
    <!-- Generator: Sketch 48.2 (47327) - http://www.bohemiancoding.com/sketch -->
    <title>Group 11</title>
    <desc>Created with Sketch.</desc>
    <defs></defs>
    <g id="Monoreto-5" stroke="none" stroke-width="1" fill="none" fill-rule="evenodd" transform="translate(-232.000000, -2848.000000)">
        <g id="Group-11" transform="translate(232.000000, 2848.000000)">
            <rect id="Rectangle-4-Copy-2" fill="#FFFFFF" x="0" y="0" width="100" height="100" rx="33.3333333"></rect>
            <g id="social-media" transform="translate(19.166667, 19.166667)" fill-rule="nonzero">
                <circle id="Oval" fill="#5300FF" cx="31.25" cy="27.2177419" r="13.1048387"></circle>
                <g id="Group" fill="#333333">
                    <rect id="Rectangle-path" x="25.2016129" y="56.4516129" width="12.0967742" height="2.01612903"></rect>
                    <path d="M62.5,19.1532258 C62.5,12.1965726 57.7721774,6.33870968 51.3649194,4.58266129 C51.1300403,2.02116935 48.9929435,0 46.3709677,0 L16.1290323,0 C13.3497984,0 11.0887097,2.26108871 11.0887097,5.04032258 L11.0887097,20.7237903 C4.7046371,22.4949597 0,28.3427419 0,35.2822581 C0,40.2137097 2.38407258,44.5887097 6.0483871,47.3508065 L6.0483871,47.3790323 L6.08669355,47.3790323 C7.56955645,48.4889113 9.25705645,49.3326613 11.0887097,49.8407258 L11.0887097,57.4596774 C11.0887097,60.2389113 13.3497984,62.5 16.1290323,62.5 L46.3709677,62.5 C49.1502016,62.5 51.4112903,60.2389113 51.4112903,57.4596774 L51.4112903,38.3064516 L49.3951613,38.3064516 L49.3951613,52.4193548 L13.1048387,52.4193548 L13.1048387,50.2530242 C13.766129,50.3417339 14.4354839,50.4032258 15.1209677,50.4032258 C18.5100806,50.4032258 21.6310484,49.2691532 24.1552419,47.3790323 L24.1935484,47.3790323 L24.1935484,47.3508065 C27.8578629,44.5887097 30.2419355,40.2147177 30.2419355,35.2822581 C30.2419355,26.9445565 23.4586694,20.1612903 15.1209677,20.1612903 C14.4354839,20.1612903 13.766129,20.2227823 13.1048387,20.3114919 L13.1048387,8.06451613 L37.1330645,8.06451613 C34.1441532,10.828629 32.2580645,14.7701613 32.2580645,19.1532258 C32.2580645,24.0846774 34.6421371,28.4596774 38.3064516,31.2217742 L38.3064516,31.25 L38.3447581,31.25 C40.8689516,33.140121 43.9899194,34.2741935 47.3790323,34.2741935 C48.0645161,34.2741935 48.733871,34.2127016 49.3951613,34.1239919 L49.3951613,36.2903226 L51.4112903,36.2903226 L51.4112903,33.7106855 C53.2429435,33.202621 54.9304435,32.358871 56.4133065,31.2489919 L56.4516129,31.2489919 L56.4516129,31.2207661 C60.1159274,28.4596774 62.5,24.0846774 62.5,19.1532258 Z M49.3951613,54.4354839 L49.3951613,57.4596774 C49.3951613,59.1270161 48.0383065,60.483871 46.3709677,60.483871 L16.1290323,60.483871 C14.4616935,60.483871 13.1048387,59.1270161 13.1048387,57.4596774 L13.1048387,54.4354839 L49.3951613,54.4354839 Z M8.06451613,46.3074597 L8.06451613,43.3467742 C8.06451613,41.6794355 9.42137097,40.3225806 11.0887097,40.3225806 L19.1532258,40.3225806 C20.8205645,40.3225806 22.1774194,41.6794355 22.1774194,43.3467742 L22.1774194,46.3074597 C20.1381048,47.6169355 17.7197581,48.3870968 15.1209677,48.3870968 C12.5221774,48.3870968 10.1038306,47.6169355 8.06451613,46.3074597 Z M15.1209677,38.3064516 C11.7852823,38.3064516 9.07258065,35.59375 9.07258065,32.2580645 C9.07258065,28.922379 11.7852823,26.2096774 15.1209677,26.2096774 C18.4566532,26.2096774 21.1693548,28.922379 21.1693548,32.2580645 C21.1693548,35.59375 18.4566532,38.3064516 15.1209677,38.3064516 Z M28.2258065,35.2822581 C28.2258065,38.9868952 26.6733871,42.3306452 24.1935484,44.7167339 L24.1935484,43.3467742 C24.1935484,40.9576613 22.5191532,38.9616935 20.2842742,38.4455645 C22.0554435,36.9647177 23.1854839,34.7419355 23.1854839,32.2580645 C23.1854839,27.8114919 19.5675403,24.1935484 15.1209677,24.1935484 C10.6743952,24.1935484 7.05645161,27.8114919 7.05645161,32.2580645 C7.05645161,34.7419355 8.18649194,36.9647177 9.95766129,38.4455645 C7.72278226,38.9616935 6.0483871,40.9576613 6.0483871,43.3467742 L6.0483871,44.7167339 C3.56854839,42.3306452 2.01612903,38.9868952 2.01612903,35.2822581 C2.01612903,28.0564516 7.89516129,22.1774194 15.1209677,22.1774194 C22.3467742,22.1774194 28.2258065,28.0564516 28.2258065,35.2822581 Z M13.1048387,6.0483871 L13.1048387,5.04032258 C13.1048387,3.37298387 14.4616935,2.01612903 16.1290323,2.01612903 L46.3709677,2.01612903 C47.7308468,2.01612903 48.8699597,2.9233871 49.2489919,4.16028226 C48.6350806,4.08366935 48.0131048,4.03225806 47.3790323,4.03225806 C44.6441532,4.03225806 42.0836694,4.77318548 39.8669355,6.0483871 L13.1048387,6.0483871 Z M40.3225806,30.1784274 L40.3225806,27.2177419 C40.3225806,25.5504032 41.6794355,24.1935484 43.3467742,24.1935484 L51.4112903,24.1935484 C53.078629,24.1935484 54.4354839,25.5504032 54.4354839,27.2177419 L54.4354839,30.1784274 C52.3961694,31.4879032 49.9778226,32.2580645 47.3790323,32.2580645 C44.7802419,32.2580645 42.3618952,31.4879032 40.3225806,30.1784274 Z M47.3790323,22.1774194 C44.0433468,22.1774194 41.3306452,19.4647177 41.3306452,16.1290323 C41.3306452,12.7933468 44.0433468,10.0806452 47.3790323,10.0806452 C50.7147177,10.0806452 53.4274194,12.7933468 53.4274194,16.1290323 C53.4274194,19.4647177 50.7147177,22.1774194 47.3790323,22.1774194 Z M56.4516129,28.5877016 L56.4516129,27.2177419 C56.4516129,24.828629 54.7772177,22.8326613 52.5423387,22.3165323 C54.3135081,20.8356855 55.4435484,18.6129032 55.4435484,16.1290323 C55.4435484,11.6824597 51.8256048,8.06451613 47.3790323,8.06451613 C42.9324597,8.06451613 39.3145161,11.6824597 39.3145161,16.1290323 C39.3145161,18.6129032 40.4445565,20.8356855 42.2157258,22.3165323 C39.9808468,22.8326613 38.3064516,24.828629 38.3064516,27.2177419 L38.3064516,28.5877016 C35.8266129,26.2016129 34.2741935,22.8578629 34.2741935,19.1532258 C34.2741935,11.9274194 40.1532258,6.0483871 47.3790323,6.0483871 C54.6048387,6.0483871 60.483871,11.9274194 60.483871,19.1532258 C60.483871,22.8578629 58.9314516,26.2016129 56.4516129,28.5877016 Z" id="Shape"></path>
                    <path d="M31.9294355,12.1280242 L32.1804435,12.1451613 L32.3044355,10.1330645 L32.0685484,10.1169355 C31.796371,10.0987903 31.5252016,10.0806452 31.25,10.0806452 C25.4697581,10.0806452 20.1149194,12.9727823 16.9284274,17.8175403 L18.6139113,18.9254032 C21.4264113,14.6491935 26.1491935,12.0967742 31.25,12.0967742 C31.4798387,12.0967742 31.703629,12.1129032 31.9294355,12.1280242 Z" id="Shape"></path>
                    <path d="M30.4314516,44.3185484 C30.703629,44.3366935 30.9747984,44.3548387 31.25,44.3548387 C37.0302419,44.3548387 42.3850806,41.4627016 45.5715726,36.6179435 L43.8860887,35.5100806 C41.0735887,39.7862903 36.3508065,42.3387097 31.25,42.3387097 C31.0201613,42.3387097 30.796371,42.3225806 30.5705645,42.3074597 L30.3195565,42.2903226 L30.1955645,44.3024194 L30.4314516,44.3185484 Z" id="Shape"></path>
                </g>
            </g>
        </g>
    </g>
</svg>