<?xml version="1.0" encoding="UTF-8"?>
<svg width="99px" height="99px" viewBox="0 0 99 99" version="1.1" xmlns="http://www.w3.org/2000/svg" xmlns:xlink="http://www.w3.org/1999/xlink">
    <!-- Generator: Sketch 48.2 (47327) - http://www.bohemiancoding.com/sketch -->
    <title>Group 13 Copy</title>
    <desc>Created with Sketch.</desc>
    <defs></defs>
    <g id="Monoreto-5" stroke="none" stroke-width="1" fill="none" fill-rule="evenodd" transform="translate(-231.000000, -3026.000000)">
        <g id="Group-22" transform="translate(231.000000, 3026.000000)">
            <g id="Group-13-Copy">
                <rect id="Rectangle-4-Copy-4" fill="#FFFFFF" x="0" y="0" width="99" height="99" rx="33.0578512"></rect>
                <g id="smartphone" transform="translate(19.000000, 17.000000)" fill-rule="nonzero">
                    <g id="Group" fill="#333333">
                        <rect id="Rectangle-path" x="53.5877863" y="14.5561184" width="2.0610687" height="8.31778192"></rect>
                        <path d="M23.1870229,30.1519595 L22.6717557,30.1519595 L22.6717557,28.072514 L20.610687,28.072514 L20.610687,30.1519595 L20.0954198,30.1519595 C18.1064885,30.1519595 16.4885496,31.7843242 16.4885496,33.7909891 C16.4885496,35.797654 18.1064885,37.4300187 20.0954198,37.4300187 L23.1870229,37.4300187 C24.0392748,37.4300187 24.7328244,38.1297521 24.7328244,38.9896028 C24.7328244,39.8494535 24.0392748,40.5491869 23.1870229,40.5491869 L20.0954198,40.5491869 C19.2431679,40.5491869 18.5496183,39.8494535 18.5496183,38.9896028 L18.5496183,38.4697414 L16.4885496,38.4697414 L16.4885496,38.9896028 C16.4885496,40.9962677 18.1064885,42.6286324 20.0954198,42.6286324 L20.610687,42.6286324 L20.610687,44.7080778 L22.6717557,44.7080778 L22.6717557,42.6286324 L23.1870229,42.6286324 C25.1759542,42.6286324 26.7938931,40.9962677 26.7938931,38.9896028 C26.7938931,36.9829379 25.1759542,35.3505732 23.1870229,35.3505732 L20.0954198,35.3505732 C19.2431679,35.3505732 18.5496183,34.6508398 18.5496183,33.7909891 C18.5496183,32.9311384 19.2431679,32.231405 20.0954198,32.231405 L23.1870229,32.231405 C24.0392748,32.231405 24.7328244,32.9311384 24.7328244,33.7909891 L24.7328244,34.3108504 L26.7938931,34.3108504 L26.7938931,33.7909891 C26.7938931,31.7843242 25.1759542,30.1519595 23.1870229,30.1519595 Z" id="Shape"></path>
                        <rect id="Rectangle-path" x="10.3053435" y="4.15889096" width="2.0610687" height="2.07944548"></rect>
                        <rect id="Rectangle-path" x="10.3053435" y="8.31778192" width="2.0610687" height="2.07944548"></rect>
                        <rect id="Rectangle-path" x="10.3053435" y="12.4766729" width="2.0610687" height="14.5561184"></rect>
                        <rect id="Rectangle-path" x="20.610687" y="6.23833644" width="2.0610687" height="2.07944548"></rect>
                        <rect id="Rectangle-path" x="20.610687" y="10.3972274" width="2.0610687" height="12.4766729"></rect>
                        <rect id="Rectangle-path" x="35.0381679" y="6.23833644" width="2.0610687" height="6.23833644"></rect>
                        <rect id="Rectangle-path" x="45.3435115" y="4.15889096" width="2.0610687" height="2.07944548"></rect>
                        <rect id="Rectangle-path" x="45.3435115" y="8.31778192" width="2.0610687" height="8.31778192"></rect>
                        <rect id="Rectangle-path" x="24.7328244" y="4.15889096" width="2.0610687" height="2.07944548"></rect>
                        <rect id="Rectangle-path" x="24.7328244" y="8.31778192" width="2.0610687" height="8.31778192"></rect>
                        <path d="M21.6412214,47.8272461 C27.5441221,47.8272461 32.4020611,43.2503866 32.924542,37.4300187 L54.6183206,37.4300187 C57.4595038,37.4300187 59.7709924,35.0979206 59.7709924,32.231405 L59.7709924,5.1986137 C59.7709924,2.33209811 57.4595038,0 54.6183206,0 L5.15267176,0 C2.31148855,0 0,2.33209811 0,5.1986137 L0,32.231405 C0,35.0979206 2.31148855,37.4300187 5.15267176,37.4300187 L10.3579008,37.4300187 C10.8803817,43.2503866 15.7383206,47.8272461 21.6412214,47.8272461 Z M21.6412214,45.7478006 C16.5277099,45.7478006 12.3664122,41.5504399 12.3664122,36.3902959 C12.3664122,31.2311917 16.5277099,27.0327913 21.6412214,27.0327913 C22.9314504,27.0327913 24.180458,27.2948014 25.3532061,27.8125833 L26.1786641,25.9067715 C24.7441603,25.2746201 23.2169084,24.9533458 21.6412214,24.9533458 C15.7383206,24.9533458 10.8803817,29.5302053 10.3579008,35.3505732 L8.24427481,35.3505732 L8.24427481,2.07944548 L49.4656489,2.07944548 L49.4656489,35.3505732 L32.9266031,35.3505732 C32.9235115,35.3162623 32.924542,35.2819515 32.9214504,35.2476406 L30.870687,35.452466 C30.9005725,35.7623034 30.9160305,36.0731805 30.9160305,36.3902959 C30.9160305,41.5504399 26.7547328,45.7478006 21.6412214,45.7478006 Z M57.7099237,5.1986137 L57.7099237,32.231405 C57.7099237,33.9511064 56.3228244,35.3505732 54.6183206,35.3505732 L51.5267176,35.3505732 L51.5267176,2.07944548 L54.6183206,2.07944548 C56.3228244,2.07944548 57.7099237,3.47891229 57.7099237,5.1986137 Z M2.0610687,32.231405 L2.0610687,5.1986137 C2.0610687,3.47891229 3.44816794,2.07944548 5.15267176,2.07944548 L6.18320611,2.07944548 L6.18320611,35.3505732 L5.15267176,35.3505732 C3.44816794,35.3505732 2.0610687,33.9511064 2.0610687,32.231405 Z" id="Shape"></path>
                        <path d="M61.8320611,49.9066915 L61.8320611,47.8272461 L49.4656489,47.8272461 L49.4656489,49.9066915 L44.6664504,49.9066915 L36.4592748,43.4666489 C35.7698473,42.9259931 34.9103817,42.6286324 34.0385496,42.6286324 L33.8314122,42.6286324 C31.6549237,42.6286324 29.8854962,44.414876 29.8854962,46.608691 C29.8854962,47.6723274 30.2956489,48.6715009 31.0417557,49.4232205 L33.0234733,51.4226073 L30.7892748,51.986137 L20.9229389,51.986137 L15.5569466,48.3772594 C15.0231298,48.0175153 14.4017176,47.8272461 13.7586641,47.8272461 L13.544313,47.8272461 C11.7583969,47.8272461 10.3053435,49.2932551 10.3053435,51.0950946 C10.3053435,51.9393495 10.6227481,52.7388963 11.1988168,53.3492135 L15.3425954,57.7410024 C16.2,58.6486804 17.2758779,59.3390563 18.4558397,59.7351906 L24.585458,61.7969608 C25.7417176,62.1868568 26.9474427,62.3833644 28.168626,62.3833644 L44.8076336,62.3833644 C45.7320229,62.3833644 46.6574427,62.2689949 47.5570992,62.0412957 L49.4656489,61.559904 L49.4656489,64.4628099 L61.8320611,64.4628099 L61.8320611,62.3833644 L59.7709924,62.3833644 L59.7709924,49.9066915 L61.8320611,49.9066915 Z M47.0583206,60.0242335 C46.3214885,60.2093042 45.5650763,60.303919 44.8086641,60.303919 L28.168626,60.303919 C27.1690076,60.303919 26.1827863,60.1427619 25.2357252,59.8246068 L19.1061069,57.7628366 C18.2456107,57.4727539 17.459313,56.9695281 16.8337786,56.3072247 L12.69,51.9154359 C12.4818321,51.6929352 12.3664122,51.4018128 12.3664122,51.0950946 C12.3664122,50.4400693 12.8950763,49.9066915 13.544313,49.9066915 L13.7586641,49.9066915 C13.9925954,49.9066915 14.2182824,49.9753132 14.4120229,50.1063183 L20.2984351,54.0655825 L30.9160305,54.0655825 L34.7187023,53.1339909 L35.1680153,53.5873101 L36.1212595,56.4735804 L38.0761832,55.8154359 L36.9683588,52.4633698 L32.4968702,47.9520128 C32.1475191,47.5985071 31.9465649,47.1098374 31.9465649,46.608691 C31.9465649,45.5606505 32.7916031,44.7080778 33.8314122,44.7080778 L34.0385496,44.7080778 C34.4548855,44.7080778 34.8660687,44.8505199 35.1958397,45.1083711 L43.9595038,51.986137 L49.4656489,51.986137 L49.4656489,59.4180752 L47.0583206,60.0242335 Z M57.7099237,62.3833644 L55.648855,62.3833644 L55.648855,60.303919 L53.5877863,60.303919 L53.5877863,62.3833644 L51.5267176,62.3833644 L51.5267176,49.9066915 L53.5877863,49.9066915 L53.5877863,58.2244735 L55.648855,58.2244735 L55.648855,49.9066915 L57.7099237,49.9066915 L57.7099237,62.3833644 Z" id="Shape"></path>
                    </g>
                    <ellipse id="Oval" fill="#5300FF" cx="36.0687023" cy="25.9930685" rx="11.3358779" ry="11.4369501"></ellipse>
                    <path d="M34.5229008,32.231405 L35.0381679,32.231405 L35.0381679,34.3108504 L37.0992366,34.3108504 L37.0992366,32.231405 L37.6145038,32.231405 C39.6034351,32.231405 41.221374,30.5990403 41.221374,28.5923754 C41.221374,26.5857105 39.6034351,24.9533458 37.6145038,24.9533458 L34.5229008,24.9533458 C33.6706489,24.9533458 32.9770992,24.2536124 32.9770992,23.3937617 C32.9770992,22.533911 33.6706489,21.8341776 34.5229008,21.8341776 L37.6145038,21.8341776 C38.4667557,21.8341776 39.1603053,22.533911 39.1603053,23.3937617 L39.1603053,23.913623 L41.221374,23.913623 L41.221374,23.3937617 C41.221374,21.3870968 39.6034351,19.7547321 37.6145038,19.7547321 L37.0992366,19.7547321 L37.0992366,17.6752866 L35.0381679,17.6752866 L35.0381679,19.7547321 L34.5229008,19.7547321 C32.5339695,19.7547321 30.9160305,21.3870968 30.9160305,23.3937617 C30.9160305,25.4004266 32.5339695,27.0327913 34.5229008,27.0327913 L37.6145038,27.0327913 C38.4667557,27.0327913 39.1603053,27.7325247 39.1603053,28.5923754 C39.1603053,29.4522261 38.4667557,30.1519595 37.6145038,30.1519595 L34.5229008,30.1519595 C33.6706489,30.1519595 32.9770992,29.4522261 32.9770992,28.5923754 L32.9770992,28.072514 L30.9160305,28.072514 L30.9160305,28.5923754 C30.9160305,30.5990403 32.5339695,32.231405 34.5229008,32.231405 Z" id="Shape" fill="#FFFFFF"></path>
                </g>
            </g>
        </g>
    </g>
</svg>