<?xml version="1.0" encoding="UTF-8"?>
<svg width="226px" height="234px" viewBox="0 0 226 234" version="1.1" xmlns="http://www.w3.org/2000/svg" xmlns:xlink="http://www.w3.org/1999/xlink">
    <!-- Generator: Sketch 48.2 (47327) - http://www.bohemiancoding.com/sketch -->
    <title>credit-card</title>
    <desc>Created with Sketch.</desc>
    <defs>
        <linearGradient x1="0%" y1="100%" x2="100%" y2="0%" id="linearGradient-1">
            <stop stop-color="#FF5C5C" offset="0%"></stop>
            <stop stop-color="#5300FF" offset="100%"></stop>
        </linearGradient>
    </defs>
    <g id="Monoreto-4" stroke="none" stroke-width="1" fill="none" fill-rule="evenodd" transform="translate(-231.000000, -2522.000000)">
        <g id="Token" transform="translate(0.000000, 2449.000000)">
            <g id="Image" transform="translate(231.000000, 73.000000)">
                <g id="credit-card">
                    <circle id="Oval" fill="#5300FF" fill-rule="nonzero" cx="150.967742" cy="113.225806" r="56.6129032"></circle>
                    <g id="Group">
                        <path d="M0,215.129032 C0,225.534484 8.46551613,234 18.8709677,234 L117,234 C127.405452,234 135.870968,225.534484 135.870968,215.129032 L135.870968,196.258065 L0,196.258065 L0,215.129032 Z M7.5483871,203.806452 L128.322581,203.806452 L128.322581,215.129032 C128.322581,221.371548 123.242516,226.451613 117,226.451613 L18.8709677,226.451613 C12.6284516,226.451613 7.5483871,221.371548 7.5483871,215.129032 L7.5483871,203.806452 Z" id="Shape" fill="#29292C" fill-rule="nonzero"></path>
                        <rect id="Rectangle-path" fill="#29292C" fill-rule="nonzero" x="45.2903226" y="211.354839" width="45.2903226" height="7.5483871"></rect>
                        <path d="M225.806452,169.290323 C225.806452,175.532839 220.726387,180.612903 214.483871,180.612903 L33.3225806,180.612903 C27.0800645,180.612903 22,175.532839 22,169.290323 L22,44.7419355 L225.806452,44.7419355 L225.806452,169.290323 Z" id="Path" fill="url(#linearGradient-1)"></path>
                        <g id="Group-20" transform="translate(104.000000, 64.000000)">
                            <g id="Group-24" fill-rule="nonzero">
                                <path d="M48.89762,99.7392481 C75.8585452,99.7392481 97.79524,77.366488 97.79524,49.869624 C97.79524,22.3727601 75.8585452,-1.01054967e-12 48.89762,-1.01054967e-12 C21.9366948,-1.01054967e-12 0,22.3727601 0,49.869624 C0,77.366488 21.9366948,99.7392481 48.89762,99.7392481 Z" id="Shape"></path>
                                <path d="M48.89762,97.2392481 C74.4666993,97.2392481 95.29524,75.9966704 95.29524,49.869624 C95.29524,23.7425777 74.4666993,2.5 48.89762,2.5 C23.3285407,2.5 2.5,23.7425777 2.5,49.869624 C2.5,75.9966704 23.3285407,97.2392481 48.89762,97.2392481 Z" id="Shape" stroke="#FFFFFF" stroke-width="5"></path>
                            </g>
                            <g id="Page-1" transform="translate(21.159091, 24.444444)" fill="#FFFFFF">
                                <path d="M53.9861324,18.9855805 L47.7736743,18.9855805 C46.8096722,18.9855805 46.5580008,18.378612 46.5257868,17.4603777 C46.2741154,12.3109751 43.8105544,8.93333077 39.3118779,8.93333077 C34.8127986,8.93333077 32.2421263,10.7568913 32.2421263,15.877215 C32.2421263,16.8581121 31.7065695,17.4024178 30.8492761,17.4024178 L24.6364152,17.4024178 C23.6724131,17.4024178 23.1372591,16.8581121 23.1372591,15.877215 L23.1715813,15.9601463 C23.1715813,10.8398225 20.6736981,8.93333077 16.1746188,8.93333077 C11.6759422,8.93333077 9.10526988,12.3109751 9.10526988,17.4312989 C9.10526988,18.4412747 8.56931046,18.9855805 7.60530834,18.9855805 L1.49955886,18.9855805 C0.535556737,18.9855805 0,18.4412747 0,17.4603777 L0,17.758128 C0,7.40812796 6.42708352,0 16.1746188,0 C21.1017408,0 25.2798887,2.72357645 27.743047,6.64552655 C30.206608,2.72357645 34.2772419,0 39.3118779,0 C49.0594131,0 55.3789826,7.06000164 55.3789826,17.4100017 C55.3789826,18.4412747 54.8434259,18.9855805 53.9861324,18.9855805 Z" id="Fill-1"></path>
                                <path d="M28.1882782,55.0402684 C27.7485579,55.4395898 27.08334,55.4367229 26.6464385,55.0337155 L7.92933456,37.7560017 C3.04811744,33.2578002 0.443620467,28.9533207 0.00631624392,24.6418787 C-0.0641517478,23.9439878 0.463754179,23.3333333 1.15313247,23.3333333 L7.79363334,23.3333333 C8.31831787,23.3333333 8.78743336,23.6900604 8.90823563,24.209383 C9.22554293,25.5756764 10.3618896,27.8393165 13.8800544,31.0813964 L26.6967728,42.9123668 C27.1336743,43.3153742 27.7988922,43.3182411 28.2386124,42.9189197 L41.3078075,31.0592801 C44.8050333,27.8352209 45.9377559,25.5760859 46.2546605,24.2106116 C46.3754628,23.6912891 46.8445783,23.334562 47.3692628,23.334562 L54.009361,23.334562 C54.699142,23.334562 55.2270479,23.9452165 55.1561772,24.6426978 C54.718873,28.9529112 52.1147787,33.2578002 47.2311456,37.7588687 L28.1882782,55.0402684 Z" id="Fill-3"></path>
                            </g>
                        </g>
                        <path d="M7.5483871,30.1935484 L135.870968,30.1935484 L135.870968,18.8709677 C135.870968,8.46551613 127.405452,0 117,0 L18.8709677,0 C8.46551613,0 0,8.46551613 0,18.8709677 L0,188.709677 L7.5483871,188.709677 L7.5483871,30.1935484 Z M7.5483871,18.8709677 C7.5483871,12.6284516 12.6284516,7.5483871 18.8709677,7.5483871 L117,7.5483871 C123.242516,7.5483871 128.322581,12.6284516 128.322581,18.8709677 L128.322581,22.6451613 L7.5483871,22.6451613 L7.5483871,18.8709677 Z" id="Shape" fill="#29292C" fill-rule="nonzero"></path>
                    </g>
                </g>
            </g>
        </g>
    </g>
</svg>