<?xml version="1.0" encoding="UTF-8"?>
<svg width="71px" height="69px" viewBox="0 0 71 69" version="1.1" xmlns="http://www.w3.org/2000/svg" xmlns:xlink="http://www.w3.org/1999/xlink">
    <!-- Generator: Sketch 48.2 (47327) - http://www.bohemiancoding.com/sketch -->
    <title>MNR like</title>
    <desc>Created with Sketch.</desc>
    <defs></defs>
    <g id="Monoreto-4" stroke="none" stroke-width="1" fill="none" fill-rule="evenodd" transform="translate(-1101.000000, -1581.000000)">
        <g id="Killer-feature" transform="translate(230.000000, 1054.000000)">
            <g id="Monoreto-video" transform="translate(520.000000, 90.000000)">
                <g id="Monoreto" transform="translate(0.000000, 437.000000)">
                    <g id="MNR-like" transform="translate(351.000000, 0.000000)">
                        <path d="M54.4888527,51 L38.2818133,67.2070394 C37.1115979,68.3772548 35.2163412,68.3792921 34.0440885,67.2070394 L17.8370491,51 L13.0018377,51 C5.82112101,51 0,45.1744993 0,37.998588 L0,13.001412 C0,5.82093042 5.82530454,0 13.0018377,0 L57.9981623,0 C65.178879,0 71,5.82550067 71,13.001412 L71,37.998588 C71,45.1790696 65.1746955,51 57.9981623,51 L54.4888527,51 Z" id="Combined-Shape" fill="#5300FF"></path>
                        <text id="1-M" font-family="MullerMedium, Muller" font-size="26" font-weight="400" letter-spacing="-0.282608747" fill="#FFFFFF">
                            <tspan x="16.7799131" y="34">1 M</tspan>
                        </text>
                    </g>
                </g>
            </g>
        </g>
    </g>
</svg>