<?xml version="1.0" encoding="UTF-8" standalone="no"?>
<svg width="71px" height="69px" viewBox="0 0 71 69" version="1.1" xmlns="http://www.w3.org/2000/svg" xmlns:xlink="http://www.w3.org/1999/xlink">
    <!-- Generator: Sketch 48.2 (47327) - http://www.bohemiancoding.com/sketch -->
    <title>MON LIKE NEW</title>
    <desc>Created with Sketch.</desc>
    <defs></defs>
    <g id="Monoreto-5" stroke="none" stroke-width="1" fill="none" fill-rule="evenodd" transform="translate(-1099.000000, -1581.000000)">
        <g id="Killer-feature" transform="translate(230.000000, 1054.000000)">
            <g id="Monoreto-video" transform="translate(520.000000, 90.000000)">
                <g id="Monoreto" transform="translate(0.000000, 437.000000)">
                    <g id="MON-LIKE-NEW" transform="translate(349.000000, 0.000000)">
                        <g id="MON-like" fill="#5300FF">
                            <g id="Group-28">
                                <path d="M54.4888527,51 L38.2818133,67.2070394 C37.1115979,68.3772548 35.2163412,68.3792921 34.0440885,67.2070394 L17.8370491,51 L13.0018377,51 C5.82112101,51 0,45.1744993 0,37.998588 L0,13.001412 C0,5.82093042 5.82530454,0 13.0018377,0 L57.9981623,0 C65.178879,0 71,5.82550067 71,13.001412 L71,37.998588 C71,45.1790696 65.1746955,51 57.9981623,51 L54.4888527,51 Z" id="Combined-Shape"></path>
                            </g>
                        </g>
                        <g id="Group-30" transform="translate(20.000000, 14.000000)" fill="#FFFFFF">
                            <path d="M30.6825107,10.8211239 L27.1517185,10.8211239 C26.603837,10.8211239 26.4608019,10.4751729 26.4424934,9.9518111 C26.2994584,7.01682984 24.8993166,5.09168943 22.3425361,5.09168943 C19.7855267,5.09168943 18.3245093,6.1310558 18.3245093,9.04946316 C18.3245093,9.60854056 18.0201306,9.91877599 17.532896,9.91877599 L14.0018749,9.91877599 C13.4539934,9.91877599 13.1498436,9.60854056 13.1498436,9.04946316 L13.1693503,9.09673111 C13.1693503,6.17832375 11.7497019,5.09168943 9.1926925,5.09168943 C6.63591196,5.09168943 5.17489451,7.01682984 5.17489451,9.9352372 C5.17489451,10.5108885 4.87028702,10.8211239 4.32240548,10.8211239 L0.852260179,10.8211239 C0.304378635,10.8211239 0,10.5108885 0,9.9518111 L0,10.1215185 C0,4.2223766 3.65277248,0 9.1926925,0 C11.9929759,0 14.367587,1.55234434 15.7674999,3.78772018 C17.1676416,1.55234434 19.4811481,0 22.3425361,0 C27.8824561,0 31.474124,4.02395665 31.474124,9.92309856 C31.474124,10.5108885 31.1697454,10.8211239 30.6825107,10.8211239 Z" id="Fill-1"></path>
                            <path d="M16.0205428,31.3710485 C15.7706319,31.5986479 15.3925616,31.5970138 15.1442527,31.3673135 L4.50656273,21.5196146 C1.73236888,18.9557953 0.252127521,16.502391 0.00358977783,14.0450182 C-0.0364600426,13.6472446 0.263570326,13.2991926 0.655371998,13.2991926 L4.42943822,13.2991926 C4.72763774,13.2991926 4.99425512,13.5025147 5.06291195,13.7985106 C5.24325057,14.5772506 5.88908253,15.8674471 7.88859842,17.7153205 L15.1728598,24.4585642 C15.4211687,24.6882645 15.799239,24.6898985 16.0491498,24.4622992 L23.476904,17.702715 C25.4645193,15.8651128 26.1082916,14.577484 26.2884014,13.7992109 C26.3570582,13.503215 26.6236756,13.2998929 26.9218751,13.2998929 L30.6957125,13.2998929 C31.087743,13.2998929 31.3877733,13.6479449 31.3474947,14.0454851 C31.0989569,16.5021575 29.6189444,18.9557953 26.8433774,21.5212486 L16.0205428,31.3710485 Z" id="Fill-3"></path>
                        </g>
                    </g>
                </g>
            </g>
        </g>
    </g>
</svg>