<?xml version="1.0" encoding="UTF-8" standalone="no"?>
<svg width="420px" height="419px" viewBox="0 0 420 419" version="1.1" xmlns="http://www.w3.org/2000/svg" xmlns:xlink="http://www.w3.org/1999/xlink">
    <!-- Generator: Sketch 48.2 (47327) - http://www.bohemiancoding.com/sketch -->
    <title>Monoresp</title>
    <desc>Created with Sketch.</desc>
    <defs>
        <rect id="path-1" x="0.33471956" y="0" width="419.10828" height="419" rx="59"></rect>
        <circle id="path-3" cx="75" cy="75" r="75"></circle>
        <polygon id="path-5" points="1.40893439 1.3512008 32.1571022 1.3512008 32.1571022 50.3490549 1.40893439 50.3490549"></polygon>
        <polygon id="path-7" points="1.39420392 0.476895785 23.5163652 0.476895785 23.5163652 24.0099397 1.39420392 24.0099397"></polygon>
        <polygon id="path-9" points="1.1762529 1.49368863 77.2702084 1.49368863 77.2702084 63.2772869 1.1762529 63.2772869"></polygon>
        <linearGradient x1="7.71882405%" y1="17.5071116%" x2="93.9588649%" y2="74.4469473%" id="linearGradient-11">
            <stop stop-color="#D4E1F4" offset="0%"></stop>
            <stop stop-color="#D4E1F4" offset="17.17%"></stop>
            <stop stop-color="#D4E1F4" offset="20%"></stop>
            <stop stop-color="#DAE4F4" offset="20.01%"></stop>
            <stop stop-color="#EBEBF4" offset="20.07%"></stop>
            <stop stop-color="#F6F1F4" offset="20.14%"></stop>
            <stop stop-color="#FDF4F4" offset="20.23%"></stop>
            <stop stop-color="#FFF5F4" offset="20.5%"></stop>
            <stop stop-color="#FFF5F4" offset="25.22%"></stop>
            <stop stop-color="#FFF5F4" offset="26%"></stop>
            <stop stop-color="#D4E1F4" offset="26%"></stop>
            <stop stop-color="#D4E1F4" offset="39.74%"></stop>
            <stop stop-color="#D4E1F4" offset="42%"></stop>
            <stop stop-color="#DAE4F4" offset="42.01%"></stop>
            <stop stop-color="#EBEBF4" offset="42.07%"></stop>
            <stop stop-color="#F6F1F4" offset="42.14%"></stop>
            <stop stop-color="#FDF4F4" offset="42.23%"></stop>
            <stop stop-color="#FFF5F4" offset="42.5%"></stop>
            <stop stop-color="#FFF5F4" offset="48.94%"></stop>
            <stop stop-color="#FFF5F4" offset="50%"></stop>
            <stop stop-color="#F9F2F4" offset="50%"></stop>
            <stop stop-color="#E8EBF4" offset="50.01%"></stop>
            <stop stop-color="#DDE5F4" offset="50.03%"></stop>
            <stop stop-color="#D6E2F4" offset="50.05%"></stop>
            <stop stop-color="#D4E1F4" offset="50.1%"></stop>
            <stop stop-color="#D4E1F4" offset="70.62%"></stop>
            <stop stop-color="#D4E1F4" offset="74%"></stop>
            <stop stop-color="#FFF5F4" offset="74.1%"></stop>
            <stop stop-color="#FFF5F4" offset="83.46%"></stop>
            <stop stop-color="#FFF5F4" offset="85%"></stop>
            <stop stop-color="#D4E1F4" offset="85.1%"></stop>
        </linearGradient>
        <linearGradient x1="11.5982552%" y1="17.0957478%" x2="88.3982552%" y2="82.9157478%" id="linearGradient-12">
            <stop stop-color="#D3DFF2" offset="0%"></stop>
            <stop stop-color="#D3DFF2" offset="17.17%"></stop>
            <stop stop-color="#D3DFF2" offset="20%"></stop>
            <stop stop-color="#DAE2F2" offset="20.02%"></stop>
            <stop stop-color="#EBEAF2" offset="20.07%"></stop>
            <stop stop-color="#F6EFF2" offset="20.14%"></stop>
            <stop stop-color="#FDF2F2" offset="20.23%"></stop>
            <stop stop-color="#FFF3F2" offset="20.5%"></stop>
            <stop stop-color="#FFF3F2" offset="25.22%"></stop>
            <stop stop-color="#FFF3F2" offset="26%"></stop>
            <stop stop-color="#D3DFF2" offset="26%"></stop>
            <stop stop-color="#D3DFF2" offset="39.74%"></stop>
            <stop stop-color="#D3DFF2" offset="42%"></stop>
            <stop stop-color="#DAE2F2" offset="42.02%"></stop>
            <stop stop-color="#EBEAF2" offset="42.07%"></stop>
            <stop stop-color="#F6EFF2" offset="42.14%"></stop>
            <stop stop-color="#FDF2F2" offset="42.23%"></stop>
            <stop stop-color="#FFF3F2" offset="42.5%"></stop>
            <stop stop-color="#FFF3F2" offset="48.94%"></stop>
            <stop stop-color="#FFF3F2" offset="50%"></stop>
            <stop stop-color="#F8F0F2" offset="50%"></stop>
            <stop stop-color="#E7E8F2" offset="50.01%"></stop>
            <stop stop-color="#DCE3F2" offset="50.03%"></stop>
            <stop stop-color="#D5E0F2" offset="50.05%"></stop>
            <stop stop-color="#D3DFF2" offset="50.1%"></stop>
            <stop stop-color="#D3DFF2" offset="70.62%"></stop>
            <stop stop-color="#D3DFF2" offset="74%"></stop>
            <stop stop-color="#FFF3F2" offset="74.1%"></stop>
            <stop stop-color="#FFF3F2" offset="83.46%"></stop>
            <stop stop-color="#FFF3F2" offset="85%"></stop>
            <stop stop-color="#D3DFF2" offset="85.1%"></stop>
        </linearGradient>
        <linearGradient x1="13.7431214%" y1="15.1521908%" x2="80.1803958%" y2="70.6029858%" id="linearGradient-13">
            <stop stop-color="#D3DFF2" offset="0%"></stop>
            <stop stop-color="#D3DFF2" offset="17.17%"></stop>
            <stop stop-color="#D3DFF2" offset="20%"></stop>
            <stop stop-color="#DAE2F2" offset="20.02%"></stop>
            <stop stop-color="#EBEAF2" offset="20.07%"></stop>
            <stop stop-color="#F6EFF2" offset="20.14%"></stop>
            <stop stop-color="#FDF2F2" offset="20.23%"></stop>
            <stop stop-color="#FFF3F2" offset="20.5%"></stop>
            <stop stop-color="#FFF3F2" offset="25.22%"></stop>
            <stop stop-color="#FFF3F2" offset="26%"></stop>
            <stop stop-color="#D3DFF2" offset="26%"></stop>
            <stop stop-color="#D3DFF2" offset="39.74%"></stop>
            <stop stop-color="#D3DFF2" offset="42%"></stop>
            <stop stop-color="#DAE2F2" offset="42.02%"></stop>
            <stop stop-color="#EBEAF2" offset="42.07%"></stop>
            <stop stop-color="#F6EFF2" offset="42.14%"></stop>
            <stop stop-color="#FDF2F2" offset="42.23%"></stop>
            <stop stop-color="#FFF3F2" offset="42.5%"></stop>
            <stop stop-color="#FFF3F2" offset="48.94%"></stop>
            <stop stop-color="#FFF3F2" offset="50%"></stop>
            <stop stop-color="#F8F0F2" offset="50%"></stop>
            <stop stop-color="#E7E8F2" offset="50.01%"></stop>
            <stop stop-color="#DCE3F2" offset="50.03%"></stop>
            <stop stop-color="#D5E0F2" offset="50.05%"></stop>
            <stop stop-color="#D3DFF2" offset="50.1%"></stop>
            <stop stop-color="#D3DFF2" offset="70.62%"></stop>
            <stop stop-color="#D3DFF2" offset="74%"></stop>
            <stop stop-color="#FFF3F2" offset="74.1%"></stop>
            <stop stop-color="#FFF3F2" offset="83.46%"></stop>
            <stop stop-color="#FFF3F2" offset="85%"></stop>
            <stop stop-color="#D3DFF2" offset="100%"></stop>
        </linearGradient>
        <linearGradient x1="26.1295422%" y1="100%" x2="74.1967082%" y2="0%" id="linearGradient-14">
            <stop stop-color="#FF5C5C" offset="0%"></stop>
            <stop stop-color="#5300FF" offset="100%"></stop>
        </linearGradient>
        <rect id="path-15" x="304" y="0" width="70" height="310" rx="35"></rect>
    </defs>
    <g id="Artboard-Copy" stroke="none" stroke-width="1" fill="none" fill-rule="evenodd" transform="translate(-630.000000, -124.000000)">
        <g id="Monoresp" transform="translate(630.000000, 124.000000)">
            <g id="Group-15">
                <g id="Video">
                    <g id="Group-4">
                        <mask id="mask-2" fill="white">
                            <use xlink:href="#path-1"></use>
                        </mask>
                        <use id="Mask" fill="#FFFFFF" xlink:href="#path-1"></use>
                    </g>
                    <polygon id="Triangle" fill-opacity="0.8" fill="#FFFFFF" transform="translate(210.445860, 209.500000) rotate(90.000000) translate(-210.445860, -209.500000) " points="210.44586 169.382979 250.573248 249.617021 170.318471 249.617021"></polygon>
                </g>
                <g id="Group-11" transform="translate(23.000000, 55.000000)">
                    <g id="Page-1" transform="translate(0.000000, 83.000000)">
                        <mask id="mask-4" fill="white">
                            <use xlink:href="#path-3"></use>
                        </mask>
                        <g id="Mask">
                            <use fill="#FFFFFF" fill-rule="evenodd" xlink:href="#path-3"></use>
                            <circle stroke="#5300FF" stroke-width="2" cx="75" cy="75" r="74"></circle>
                        </g>
                        <g mask="url(#mask-4)">
                            <g transform="translate(39.000000, 16.000000)">
                                <path d="M28.2996933,121.53557 C27.5243178,120.954877 10.2159911,112.806722 10.2159911,112.806722 C2.51258567,115.347671 0.783934784,132.649284 0.000167830183,142.839933 L18.4077823,142.839933 L28.2996933,121.53557 Z" id="Fill-1" fill="#5300FF"></path>
                                <path d="M58.9735123,121.53557 C59.7488878,120.954877 77.0555362,112.806722 77.0555362,112.806722 C84.7606199,115.347671 86.4892708,132.649284 87.2730378,142.839933 L68.863745,142.839933 L58.9735123,121.53557 Z" id="Fill-3" fill="#5300FF"></path>
                                <g id="Group-7" stroke-width="1" fill="none" transform="translate(26.852829, 92.491046)">
                                    <mask id="mask-6" fill="white">
                                        <use xlink:href="#path-5"></use>
                                    </mask>
                                    <g id="Clip-6"></g>
                                    <path d="M16.7838574,1.3512008 L8.65919829,1.3512008 L8.65919829,6.48009119 C8.66423319,9.66718637 8.13388982,9.00425714 5.15658237,10.660741 C5.15658237,10.660741 2.28500794,13.0170768 1.40893439,13.2956749 C5.02063992,24.9179151 7.63039927,39.8648712 14.6876585,50.3492227 L16.7838574,50.3492227 L18.8800564,50.3492227 C25.9356373,39.8648712 28.547075,24.9179151 32.1571022,13.2956749 C31.2827069,13.0170768 28.4111325,10.660741 28.4111325,10.660741 C25.4338251,9.00425714 24.9034817,9.66718637 24.9085166,6.48009119 L24.9085166,1.3512008 L16.7838574,1.3512008 Z" id="Fill-5" fill="#FFCEA9" mask="url(#mask-6)"></path>
                                </g>
                                <path d="M43.6366867,121.775231 C30.2220202,120.716223 32.1587805,103.280345 32.006055,103.194752 C27.674358,105.168435 11.8848944,111.354655 10.1159643,112.886945 C11.5509123,116.027047 13.7259915,128.949971 15.6090462,142.839597 L43.6366867,142.839597 L71.6643273,142.839597 C73.5457036,128.949971 75.7207828,116.027047 77.1574091,112.886945 C75.388479,111.354655 59.5973371,105.168435 55.2673184,103.194752 C55.1145929,103.280345 57.0513532,120.716223 43.6366867,121.775231" id="Fill-8" fill="#5300FF"></path>
                                <g id="Group-12" stroke-width="1" fill="none" transform="translate(63.775470, 47.176897)">
                                    <mask id="mask-8" fill="white">
                                        <use xlink:href="#path-7"></use>
                                    </mask>
                                    <g id="Clip-11"></g>
                                    <path d="M1.59858249,10.4900578 C0.435519325,17.0975321 4.3543541,22.6006838 10.3542831,23.7855648 C16.3508556,24.9704459 22.152745,21.3889498 23.3124516,14.7814755 C24.4738364,8.17400123 20.55668,1.85519484 14.5601075,0.670313751 C8.56353508,-0.516245643 2.75996736,3.87922685 1.59858249,10.4900578" id="Fill-10" fill="#FFCEA9" mask="url(#mask-8)"></path>
                                </g>
                                <path d="M23.5252602,57.6669543 C24.6866451,64.2744286 20.7694886,69.7775803 14.7712379,70.9624614 C8.77298715,72.1473425 2.97109773,68.5658464 1.81139116,61.9583721 C0.648327997,55.3508978 4.56716277,49.0320914 10.5637352,47.8472103 C16.5603076,46.6606509 22.3638754,51.0561234 23.5252602,57.6669543" id="Fill-13" fill="#FFCEA9"></path>
                                <path d="M74.3798196,18.3158114 C68.5242245,10.3606607 59.3925843,5.13778539 49.6970346,4.75177597 C49.693678,4.75177597 49.5040299,4.74338446 49.1935441,4.73163635 L49.2036139,4.35234013 C49.2036139,4.35234013 46.8539913,4.44464673 44.4271669,4.54198824 C42.0003424,4.44464673 39.6490416,4.35234013 39.6490416,4.35234013 L39.6591114,4.73163635 C39.3486255,4.74338446 39.1572991,4.75177597 39.1572991,4.75177597 C29.4600712,5.13778539 20.3301092,10.3606607 14.4745141,18.3158114 C8.61388414,26.2793535 7.83515209,36.3088853 8.29668509,45.9121283 C8.64577187,53.1707837 9.92967277,64.8853305 10.2905077,72.1456642 C19.611796,107.00735 69.8769358,107.576294 78.5638261,72.1456642 C78.9229827,64.8853305 80.2052053,53.1707837 80.5576487,45.9121283 C81.0175034,36.3088853 80.2404496,26.2793535 74.3798196,18.3158114" id="Fill-15" fill="#FCD9BB"></path>
                                <g id="Group-19" stroke-width="1" fill="none" transform="translate(5.034905, 0.184445)">
                                    <mask id="mask-10" fill="white">
                                        <use xlink:href="#path-9"></use>
                                    </mask>
                                    <g id="Clip-18"></g>
                                    <path d="M9.71300401,31.4987044 C9.2497927,32.5023289 11.9115794,22.4341962 17.7520698,22.2596528 C23.864445,22.0767179 61.8561635,24.3894178 63.8029937,21.8467906 C70.2409595,29.994946 74.9402046,62.3022562 75.3060744,62.2300892 C76.1620083,62.0639373 76.2627064,58.8969818 76.3482998,58.2189478 C76.9625583,53.4542489 77.1270319,48.567034 77.1236753,43.7704474 C77.1136055,34.9140486 79.6881205,17.8608237 63.6620163,7.23381654 C53.807028,0.696830919 33.4324438,0.0473281116 22.09048,3.74798364 C14.1923916,6.32585525 6.61821543,13.0407409 3.80202496,20.8633057 C0.710592994,29.4545328 0.78947318,36.1660618 1.80820239,53.1790074 C1.91729201,55.0251394 2.13547125,56.8729497 2.39057313,58.7022987 C2.56175991,59.9190676 2.71784198,61.1660458 3.0132231,62.3593184 C4.61935795,68.8392418 4.77208342,39.1551173 9.71300401,31.4987044" id="Fill-17" fill="#A95C40" mask="url(#mask-10)"></path>
                                </g>
                                <path d="M74.7451859,15.3291054 C73.5049209,27.7468607 57.4049714,37.3618518 45.4504275,37.3618518 L48.9362604,34.0690236 C35.4964193,38.1607235 27.9960885,35.3730642 28.0179064,35.3764208 C28.5012573,35.4737623 33.5865119,33.1006435 33.5865119,33.1006435 C25.9452036,33.3322491 18.2266935,33.4430171 12.3090013,27.904621 L20.8498793,12.7143112 L74.7451859,15.3291054 Z" id="Fill-20" fill="#A95C40"></path>
                                <path d="M26.0749364,63.0893797 C27.6223307,63.0893797 28.8827353,61.8272967 28.8827353,60.2799025 C28.8827353,58.7341865 27.6223307,57.4721035 26.0749364,57.4721035 C24.5275421,57.4721035 23.2654591,58.7341865 23.2654591,60.2799025 C23.2654591,61.8272967 24.5275421,63.0893797 26.0749364,63.0893797" id="Fill-22" fill="#3E3B3A"></path>
                                <path d="M62.7790617,63.0892119 C64.326456,63.0892119 65.5868607,61.8271289 65.5868607,60.2797346 C65.5868607,58.7340186 64.326456,57.4719357 62.7790617,57.4719357 C61.2316674,57.4719357 59.9712628,58.7340186 59.9712628,60.2797346 C59.9712628,61.8271289 61.2316674,63.0892119 62.7790617,63.0892119" id="Fill-24" fill="#3E3B3A"></path>
                                <path d="M16.6709077,53.6553095 C15.4574955,52.3244161 20.0610774,50.5873737 24.8929084,49.5887841 C32.9991062,47.9121606 38.1749891,50.9398171 34.2494411,51.6044246 C31.3174478,52.0995237 17.0267077,54.0446755 16.6709077,53.6553095" id="Fill-26" fill="#A95C40"></path>
                                <path d="M70.5098234,53.83858 C71.7702281,52.5513225 67.2321,50.6514849 62.4388699,49.4783519 C54.3981259,47.5130604 49.11651,50.3510688 53.0152052,51.1566537 C55.9287371,51.7574858 70.140597,54.2145196 70.5098234,53.83858" id="Fill-28" fill="#A95C40"></path>
                                <path d="M53.7204276,80.1852335 C52.0052031,89.8337907 36.4540584,89.8337907 34.7388339,80.1852335 C39.3776602,81.2526334 48.0494457,81.2593466 53.7204276,80.1852335" id="Fill-30" fill="#D6825B"></path>
                                <path d="M38.1798561,74.5100558 C38.1462901,74.4983077 38.1412552,74.4714549 38.1697863,74.4244624 C38.1697863,74.2834851 38.2503448,74.1458643 38.3997137,74.0149568 C39.552707,71.7945635 41.8217711,65.3163184 42.8623182,58.1919272 C44.0018852,58.2624158 41.7328211,70.3193362 40.7543711,73.1959455 C41.7428909,73.0247587 42.9479116,72.9240606 44.2469173,72.9240606 C47.6035209,72.9240606 50.3240482,73.5953813 50.3240482,74.4244624 C50.3240482,75.2535436 47.6035209,75.9265426 44.2469173,75.9265426 C41.0061164,75.9265426 38.3594344,75.2988577 38.1798561,74.5100558" id="Fill-32" fill="#E5B17D"></path>
                            </g>
                        </g>
                    </g>
                    <g id="001-technology" transform="translate(80.000000, 17.000000)" fill-rule="nonzero">
                        <path d="M27.5,9.83329492 C18.8905357,9.8312207 11.5547374,16.0664375 10.1921008,24.5443457 C8.82946429,33.0222539 13.8435924,41.2317812 22.0223004,43.9135156 L22.0223004,54.6295059 L24.2134034,54.6295059 L24.2134034,57.9072324 L30.7867122,57.9072324 L30.7867122,54.6295059 L32.9778151,54.6295059 L32.9778151,43.9135156 C41.1565231,41.2317812 46.1706513,33.0222539 44.8080147,24.5443457 C43.4452626,16.0664375 36.1094643,9.83133594 27.5,9.83329492 Z" id="Shape" fill="#A4C2F7"></path>
                        <path d="M24.2134034,9.83329492 C24.1344853,9.83329492 24.0584559,9.84401172 23.9796534,9.84504883 C23.9321639,9.97860547 23.8623739,10.1032891 23.7732878,10.2136836 C23.0631408,10.9663945 22.1027206,11.4358594 21.0712395,11.5343848 C20.1367017,11.5722969 19.2221534,11.8155566 18.3927626,12.2468789 C18.4842752,12.6162051 18.3363761,13.0033926 18.0216282,13.2184199 C16.1995798,14.648709 14.1175525,16.0840684 13.0029937,18.1692344 C12.8468908,18.4961543 12.5292542,18.7165977 12.1677101,18.7490938 C12.4414391,19.1072422 12.482458,19.5911113 12.2728571,19.9900527 C11.7686134,21.3164004 10.9633718,22.5083848 9.92022059,23.472666 C10.1394118,24.7941738 10.2744853,26.128127 10.3246324,27.4666895 C10.3348004,27.720666 10.3278676,28.050582 10.3142332,28.419793 C11.3977101,30.895834 12.0833613,33.5266348 12.3458824,36.2153984 C13.5454832,37.6256367 14.7581408,39.0215859 16.0498319,40.339291 C16.9491282,40.9350527 17.7751681,41.633834 18.5111975,42.4215762 C19.7269748,42.880209 20.7366176,43.7602539 21.355021,44.900498 C21.8376576,46.2330684 21.8994748,47.6811035 21.5320378,49.0497422 C22.0702521,49.2594688 22.3756408,49.8284961 22.2521218,50.391416 C22.0303887,51.470125 21.7907458,52.5475664 21.664916,53.6427539 C21.6348739,53.9057188 21.5669328,54.352252 21.5278782,54.8361211 C21.5799895,54.8312813 21.6155777,54.8142266 21.672542,54.8126133 C23.4192542,54.7614492 24.467605,56.5035625 25.0724895,57.9074629 L27.5,57.9074629 L27.5,54.6297363 L29.6911029,54.6297363 L29.6911029,43.9137461 C37.8698109,41.2320117 42.8839391,33.0224844 41.5213025,24.5445762 C40.158666,16.066668 32.8227521,9.83133594 24.2134034,9.83329492 Z" id="Shape" fill="url(#linearGradient-11)"></path>
                        <path d="M27.5,9.83329492 C28.0547374,9.83329492 28.6017332,9.86579102 29.1432983,9.9160332 C20.8809349,10.6885645 14.2952626,17.1359277 13.3676576,25.3602051 C12.4400525,33.5844824 17.425063,41.3298457 25.3088971,43.9136309 L25.3088971,54.6296211 L27.5,54.6296211 L27.5,57.9073477 L24.2134034,57.9073477 L24.2134034,54.6296211 L22.0223004,54.6296211 L22.0223004,43.9136309 C13.8435924,41.2318965 8.82946429,33.0223691 10.1921008,24.5444609 C11.5547374,16.0665527 18.8905357,9.83133594 27.5,9.83329492 Z" id="Shape" fill="#FFFFFF"></path>
                        <rect id="Rectangle-path" fill="#E3E7F2" x="25.3088971" y="46.9815156" width="4.38220588" height="10.9259473"></rect>
                        <rect id="Rectangle-path" fill="#A4C2F7" x="29.6911029" y="46.9815156" width="3.28659664" height="7.64810547"></rect>
                        <rect id="Rectangle-path" fill="#FFFFFF" x="22.0223004" y="46.9815156" width="3.28659664" height="7.64810547"></rect>
                        <g id="Group" fill="#5300FF">
                            <path d="M27.5,6.55556836 C27.2094013,6.55568359 26.9305882,6.44067969 26.7251471,6.23579297 C26.5197059,6.03090625 26.4042752,5.7528457 26.4045063,5.46303125 L26.4045063,1.09253711 C26.4045063,0.489169922 26.895,0 27.5,0 C28.105,0 28.5954937,0.489169922 28.5954937,1.09253711 L28.5954937,5.46291602 C28.5956092,5.75273047 28.4802941,6.03079102 28.2748529,6.23567773 C28.0694118,6.44067969 27.7905987,6.55568359 27.5,6.55556836 Z" id="Shape"></path>
                            <path d="M53.7932353,28.4074629 L49.4110294,28.4074629 C48.8060294,28.4074629 48.3155357,27.918293 48.3155357,27.3149258 C48.3155357,26.7115586 48.8060294,26.2223887 49.4110294,26.2223887 L53.7932353,26.2223887 C54.3982353,26.2223887 54.888729,26.7115586 54.888729,27.3149258 C54.888729,27.918293 54.3982353,28.4074629 53.7932353,28.4074629 Z" id="Shape"></path>
                            <path d="M5.58897059,28.4074629 L1.20676471,28.4074629 C0.601764706,28.4074629 0.111271008,27.918293 0.111271008,27.3149258 C0.111271008,26.7115586 0.601764706,26.2223887 1.20676471,26.2223887 L5.58897059,26.2223887 C6.19397059,26.2223887 6.68446429,26.7115586 6.68446429,27.3149258 C6.68457983,27.918293 6.19408613,28.4074629 5.58897059,28.4074629 Z" id="Shape"></path>
                            <path d="M42.9939391,12.9553398 C42.5509349,12.9552246 42.1514916,12.6890332 41.9819853,12.280873 C41.812479,11.8727129 41.906187,11.4027871 42.2193172,11.0902715 L45.3176891,8.00026172 C45.7454412,7.57366406 46.4390651,7.57366406 46.8668172,8.00026172 C47.2945693,8.42685938 47.2945693,9.11861133 46.8668172,9.54520898 L43.7684454,12.6352187 C43.5633508,12.8404512 43.2845378,12.9556855 42.9939391,12.9553398 Z" id="Shape"></path>
                            <path d="M8.90780462,46.9494805 C8.46480042,46.9493652 8.06535714,46.6831738 7.89585084,46.2750137 C7.72634454,45.8668535 7.82005252,45.3969277 8.13318277,45.0844121 L11.2315546,41.9944023 C11.5082878,41.718416 11.9116597,41.6106719 12.2896113,41.7116172 C12.6676786,41.8126777 12.9628992,42.1071016 13.0642332,42.4841484 C13.1655672,42.8611953 13.057416,43.2633633 12.7806828,43.5393496 L9.68231092,46.6293594 C9.47721639,46.8345918 9.19840336,46.9498262 8.90780462,46.9494805 Z" id="Shape"></path>
                            <path d="M46.0921954,46.9494805 C45.8015966,46.9498262 45.5227836,46.8345918 45.3176891,46.6293594 L42.2193172,43.5393496 C41.7915651,43.112752 41.7915651,42.421 42.2193172,41.9944023 C42.6470693,41.5678047 43.3406933,41.5678047 43.7684454,41.9944023 L46.8668172,45.0844121 C47.180063,45.3969277 47.273771,45.8667383 47.1041492,46.2750137 C46.9347584,46.6830586 46.5353151,46.9493652 46.0921954,46.9494805 Z" id="Shape"></path>
                            <path d="M12.0060609,12.9553398 C11.7154622,12.9556855 11.4366492,12.8404512 11.2315546,12.6352187 L8.13318277,9.54520898 C7.85644958,9.26922266 7.74841387,8.86693945 7.84963235,8.49000781 C7.95096639,8.11296094 8.24618697,7.81853711 8.6242542,7.71747656 C9.00232143,7.61641602 9.40557773,7.72427539 9.68231092,8.00026172 L12.7806828,11.0902715 C13.0939286,11.4027871 13.1876366,11.8725977 13.0180147,12.280873 C12.8486239,12.688918 12.4491807,12.9552246 12.0060609,12.9553398 Z" id="Shape"></path>
                            <path d="M30.7865966,59 L24.2132878,59 C23.9226891,59.0001152 23.6438761,58.8851113 23.4384349,58.6802246 C23.2329937,58.4753379 23.117563,58.1972773 23.1177941,57.9074629 L23.1177941,55.7222734 L22.0223004,55.7222734 C21.7317017,55.7223887 21.4528887,55.6073848 21.2474475,55.402498 C21.0420063,55.1976113 20.9265756,54.9195508 20.9268067,54.6297363 L20.9268067,44.6875449 C12.5084559,41.5205586 7.56388655,32.8044609 9.17783613,23.9769316 C10.7916702,15.1494023 18.5026471,8.73465039 27.5,8.73465039 C36.4973529,8.73465039 44.2083298,15.1494023 45.8222794,23.9769316 C47.436229,32.8044609 42.4916597,41.5205586 34.0733088,44.6875449 L34.0733088,54.6297363 C34.0734244,54.9195508 33.9581092,55.1976113 33.7526681,55.402498 C33.5472269,55.6073848 33.2684139,55.7225039 32.9778151,55.7222734 L31.8823214,55.7222734 L31.8823214,57.9074629 C31.882437,58.1972773 31.7671218,58.4753379 31.5616807,58.6802246 C31.3560084,58.8851113 31.0773109,59.0001152 30.7865966,59 Z M25.3088971,56.8148105 L29.6911029,56.8148105 L29.6911029,54.6296211 C29.6909874,54.3398066 29.8063025,54.0617461 30.0117437,53.8568594 C30.2171849,53.6519727 30.4959979,53.5368535 30.7865966,53.537084 L31.8820903,53.537084 L31.8820903,43.9139766 C31.8820903,43.4420918 32.1858613,43.0234453 32.6353361,42.8758301 C40.3030987,40.3601484 45.0035189,32.6630684 43.7261555,24.7143164 C42.448792,16.7655645 35.5719433,10.9186875 27.5,10.9186875 C19.4280567,10.9186875 12.551208,16.7654492 11.2738445,24.7142012 C9.99648109,32.6629531 14.6969013,40.3600332 22.3646639,42.8757148 C22.8141387,43.0233301 23.1177941,43.4419766 23.1179097,43.9138613 L23.1179097,53.5369687 L24.2134034,53.5369687 C24.5040021,53.5368535 24.7828151,53.6518574 24.9882563,53.8567441 C25.1936975,54.0616309 25.3091282,54.3396914 25.3088971,54.6295059 L25.3088971,56.8148105 Z" id="Shape"></path>
                            <path d="M32.9776996,48.0740527 L22.0221849,48.0740527 C21.4171849,48.0740527 20.9266912,47.5848828 20.9266912,46.9815156 C20.9266912,46.3781484 21.4171849,45.8889785 22.0221849,45.8889785 L32.9776996,45.8889785 C33.5826996,45.8889785 34.0731933,46.3781484 34.0731933,46.9815156 C34.0731933,47.5848828 33.5828151,48.0740527 32.9776996,48.0740527 Z" id="Shape"></path>
                            <path d="M15.4489916,28.4074629 C15.1583929,28.4075781 14.8795798,28.2925742 14.6741387,28.0876875 C14.4686975,27.8828008 14.3532668,27.6047402 14.3534979,27.3149258 C14.3614706,20.0771699 20.2426576,14.2117402 27.5001155,14.2037891 C28.1051155,14.2037891 28.5956092,14.692959 28.5956092,15.2963262 C28.5956092,15.8996934 28.1051155,16.3888633 27.5001155,16.3888633 C21.452542,16.3958926 16.5517647,21.2835586 16.5446008,27.3148105 C16.5447164,27.604625 16.4294013,27.8826855 16.2239601,28.0875723 C16.0182878,28.292459 15.7395903,28.4075781 15.4489916,28.4074629 Z" id="Shape"></path>
                        </g>
                    </g>
                    <g id="002-time" transform="translate(137.000000, 60.000000)" fill-rule="nonzero">
                        <path d="M29.5048398,50.1675965 C18.1185313,50.1675965 47.2048398,40.921963 47.2048398,29.5578499 C47.2048398,18.1937368 18.1185313,8.94810331 29.5048398,8.94810331 C40.9094707,8.94810331 50.1548398,18.1754503 50.1548398,29.5578499 C50.1548398,40.9402495 40.9095859,50.1675965 29.5048398,50.1675965 Z" id="Shape" fill="#A4C2F7"></path>
                        <path d="M29.5048398,50.1675965 C18.100209,50.1675965 8.85483984,40.9402495 8.85483984,29.5578499 C8.85483984,18.1754503 18.100209,8.94810331 29.5048398,8.94810331 C40.8911484,8.94810331 11.8048398,18.1937368 11.8048398,29.5578499 C11.8048398,40.921963 40.8911484,50.1675965 29.5048398,50.1675965 Z" id="Shape" fill="#FFFFFF"></path>
                        <ellipse id="Oval" fill="url(#linearGradient-12)" cx="29.5048398" cy="29.5578499" rx="17.7" ry="20.6097466"></ellipse>
                        <ellipse id="Oval" fill="#A4C2F7" cx="29.5048398" cy="28.5764717" rx="2.95" ry="2.94424951"></ellipse>
                        <g id="Group" fill="#5300FF">
                            <path d="M0.98825,30.5393431 C0.727474609,30.5394581 0.477300781,30.4360643 0.292810547,30.2519337 C0.108320313,30.0678031 0.00483984375,29.818232 0.00483984375,29.5578499 C-0.0214335937,21.4906062 3.2999668,13.7725322 9.17991602,8.23699805 C9.57344141,7.86333138 10.1959375,7.87874269 10.5704492,8.27150097 C10.9449609,8.66425926 10.9294043,9.28554191 10.5358789,9.65932359 C5.04772656,14.8253314 1.9473457,22.0286218 1.97154492,29.5579649 C1.97166016,29.818232 1.86806445,30.0679181 1.68357422,30.2520487 C1.49919922,30.4359493 1.24902539,30.5393431 0.98825,30.5393431 Z" id="Shape"></path>
                            <path d="M49.1715449,9.94776803 C48.9188359,9.94811306 48.6756914,9.85092982 48.4931602,9.67657505 C39.2082656,0.821859649 25.0172676,-0.435311891 14.3151055,6.64882846 C14.0224102,6.84607018 13.6464004,6.87148733 13.3297363,6.71553411 C13.0130723,6.5595809 12.804498,6.24617934 12.7832949,5.89436452 C12.7620918,5.54254971 12.9314863,5.20649123 13.2271777,5.01373489 C24.6946113,-2.57771345 39.900709,-1.23152437 49.8501602,8.25608967 C50.1412422,8.53280312 50.2341211,8.9585692 50.0847773,9.33108577 C49.9352031,9.70371735 49.5735977,9.94788304 49.1715449,9.94776803 Z" id="Shape"></path>
                            <path d="M29.5048398,51.1490897 C17.5571094,51.1490897 7.87154492,41.4824055 7.87154492,29.5579649 C7.87154492,17.6335244 17.5571094,7.96672515 29.5048398,7.96672515 C41.4525703,7.96672515 51.1381348,17.6334094 51.1381348,29.5578499 C51.1247676,41.47677 41.4470391,51.1356335 29.5048398,51.1490897 Z M29.5048398,9.92959649 C18.6431934,9.92959649 9.83813477,18.7174912 9.83813477,29.5579649 C9.83813477,40.3984386 18.6431934,49.1863333 29.5048398,49.1863333 C40.3664863,49.1863333 49.1715449,40.3984386 49.1715449,29.5579649 C49.1593301,18.7225517 40.361416,9.94178752 29.5048398,9.92959649 Z" id="Shape"></path>
                            <path d="M29.5048398,14.8366023 C29.2440645,14.8367173 28.9938906,14.7333236 28.8094004,14.549193 C28.6249102,14.3650624 28.5214297,14.1154912 28.5214297,13.8551092 L28.5214297,11.8922378 C28.5214297,11.3501969 28.9617402,10.9108596 29.5047246,10.9108596 C30.047709,10.9108596 30.4880195,11.3503119 30.4880195,11.8922378 L30.4880195,13.8551092 C30.4881348,14.1153762 30.3845391,14.3650624 30.2000488,14.549193 C30.0157891,14.7333236 29.7657305,14.8367173 29.5048398,14.8366023 Z" id="Shape"></path>
                            <path d="M29.5048398,48.2048402 C29.2440645,48.2049552 28.9938906,48.1015614 28.8094004,47.9174308 C28.6250254,47.7334152 28.5214297,47.483729 28.5214297,47.223347 L28.5214297,45.2604756 C28.5214297,44.7184347 28.9617402,44.2790975 29.5047246,44.2790975 C30.047709,44.2790975 30.4880195,44.7185497 30.4880195,45.2604756 L30.4880195,47.223347 C30.4881348,47.483614 30.3845391,47.7333002 30.2000488,47.9174308 C30.0157891,48.1014464 29.7657305,48.2048402 29.5048398,48.2048402 Z" id="Shape"></path>
                            <path d="M47.2048398,30.5393431 L45.2381348,30.5393431 C44.6950352,30.5393431 44.2548398,30.1000058 44.2548398,29.5579649 C44.2548398,29.015924 44.6950352,28.5765867 45.2381348,28.5765867 L47.2048398,28.5765867 C47.7479395,28.5765867 48.1881348,29.016039 48.1881348,29.5579649 C48.1881348,30.0998908 47.7479395,30.5393431 47.2048398,30.5393431 Z" id="Shape"></path>
                            <path d="M13.7715449,30.5393431 L11.8048398,30.5393431 C11.2617402,30.5393431 10.8215449,30.1000058 10.8215449,29.5579649 C10.8215449,29.015924 11.2618555,28.5765867 11.8048398,28.5765867 L13.7715449,28.5765867 C14.3146445,28.5765867 14.7548398,29.016039 14.7548398,29.5579649 C14.7548398,30.0998908 14.3146445,30.5393431 13.7715449,30.5393431 Z" id="Shape"></path>
                            <path d="M29.5048398,32.5020994 C27.3325566,32.5020994 25.5715449,30.7445205 25.5715449,28.5764717 C25.5715449,26.408423 27.3325566,24.6508441 29.5048398,24.6508441 C31.677123,24.6508441 33.4381348,26.408423 33.4381348,28.5764717 C33.4358301,30.7436004 31.6762012,32.4997992 29.5048398,32.5020994 Z M29.5048398,26.6136004 C28.4186406,26.6136004 27.5381348,27.4923899 27.5381348,28.5764717 C27.5381348,29.6605536 28.4186406,30.5393431 29.5048398,30.5393431 C30.5910391,30.5393431 31.4715449,29.6605536 31.4715449,28.5764717 C31.4702773,27.4929649 30.5904629,26.6148655 29.5048398,26.6136004 Z" id="Shape"></path>
                            <path d="M29.5048398,26.6136004 C29.2440645,26.6137154 28.9938906,26.5103216 28.8094004,26.326191 C28.6249102,26.1420604 28.5214297,25.8924893 28.5214297,25.6321072 L28.5214297,19.7436082 C28.5214297,19.2015673 28.9617402,18.76223 29.5047246,18.76223 C30.047709,18.76223 30.4880195,19.2015673 30.4880195,19.7436082 L30.4880195,25.6321072 C30.4881348,25.8923743 30.3845391,26.1420604 30.2000488,26.326191 C30.0157891,26.5103216 29.7657305,26.6137154 29.5048398,26.6136004 Z" id="Shape"></path>
                            <path d="M18.68825,40.3534698 C18.2905762,40.3533548 17.932082,40.1142495 17.7799727,39.7475984 C17.6278633,39.3809474 17.7118691,38.9588616 17.993041,38.6782378 L26.7240039,29.9642943 C27.1079648,29.5810819 27.7305762,29.5810819 28.1145371,29.9642943 C28.498498,30.3475068 28.498498,30.9689045 28.1145371,31.352117 L19.3835742,40.0659454 C19.1991992,40.250306 18.9490254,40.3538148 18.68825,40.3534698 Z" id="Shape"></path>
                            <path d="M50.1548398,9.92959649 L41.3048398,9.92959649 C40.7617402,9.92959649 40.3215449,9.49014425 40.3215449,8.94821832 C40.3215449,8.40617739 40.7617402,7.96684016 41.3048398,7.96684016 L48.1881348,7.96684016 L48.1881348,1.09684795 C48.1881348,0.554807018 48.6283301,0.115469786 49.1714297,0.115469786 C49.7145293,0.115469786 50.1547246,0.554922027 50.1547246,1.09684795 L50.1547246,9.92959649 L50.1548398,9.92959649 Z" id="Shape"></path>
                            <path d="M28.9344297,58.9907992 C28.6733086,58.9864288 28.4246328,58.8782047 28.2437148,58.6901637 C28.0627969,58.5021228 27.964502,58.2499064 27.9707246,57.9892943 C27.9828242,57.4479435 28.4312012,57.018152 28.9737246,57.0280429 C29.5160176,57.0403489 29.9465332,57.4873918 29.9374297,58.0286277 C29.9306309,58.5646881 29.4912422,58.9945945 28.9541348,58.9909142 L28.9344297,58.9909142 L28.9344297,58.9907992 Z M30.9208398,57.9988402 C30.8984844,57.7398382 30.9801855,57.4826764 31.1479668,57.2838246 C31.315748,57.0849727 31.5557812,56.9608772 31.8154043,56.9389103 C32.3579277,56.8973918 32.8322324,57.300616 32.8775195,57.8417368 C32.901373,58.1000487 32.8200176,58.3570955 32.6516602,58.5547973 C32.4833027,58.752499 32.2422324,58.8740643 31.9829551,58.8922359 L31.9829551,58.9017817 L31.90425,58.9017817 C31.3907656,58.9023567 30.9627852,58.5094834 30.9208398,57.9988402 Z M25.895584,58.7847018 L25.895584,58.7741209 C25.6363066,58.7455984 25.3995,58.6140273 25.2386328,58.4091949 C25.0777656,58.2043626 25.0063203,57.9434055 25.0405449,57.6853236 C25.0703906,57.4270117 25.2025645,57.1914717 25.4075664,57.0310331 C25.6125684,56.8705945 25.8733437,56.7987135 26.1318145,56.8313762 C26.3905156,56.8612788 26.6264004,56.9931949 26.7871523,57.1976823 C26.9479043,57.4021696 27.0199258,57.6623216 26.9874297,57.9201735 C26.9303887,58.4135653 26.5112812,58.7856218 26.0136992,58.7847018 L25.895584,58.7847018 Z M33.8511348,57.7046452 C33.7535313,57.17146 34.1044199,56.6593216 34.6376094,56.5565029 C34.8944668,56.5078538 35.1601973,56.5632885 35.3761465,56.710616 C35.5919805,56.8579435 35.7402871,57.0848577 35.7881094,57.3414444 C35.882832,57.8740546 35.5332109,58.3843528 35.0016348,58.4895867 C34.9429805,58.4983275 34.88375,58.5018928 34.8245195,58.5001676 C34.3510215,58.5016628 33.9429766,58.1681345 33.8511348,57.7046452 Z M22.8870449,58.2547368 C22.3598477,58.1294912 22.0311992,57.6047018 22.1495449,57.076807 C22.2735371,56.5497173 22.8001582,56.2210195 23.3293145,56.3407446 C23.5846738,56.3974444 23.8066152,56.5540877 23.9453574,56.7754815 C24.0840996,56.9968752 24.1277734,57.2646179 24.0668145,57.5186745 C23.9644863,57.961577 23.5687715,58.2750936 23.11325,58.2739435 C23.0373105,58.2770487 22.9612559,58.2706082 22.8870449,58.2547368 Z M36.7420195,57.1055595 C36.6653887,56.8570234 36.6920078,56.5882456 36.8158848,56.3596062 C36.9397617,56.1309669 37.1505254,55.9614425 37.4006992,55.8893314 C37.9191387,55.7325731 38.4673086,56.0215926 38.6299043,56.5371813 C38.7869687,57.0574854 38.4921992,57.6064269 37.9711094,57.7639903 C37.8783457,57.7904425 37.7823555,57.8036686 37.6859043,57.8032086 C37.2519316,57.8029786 36.8690078,57.5199396 36.7420195,57.1055595 Z M19.95675,57.4199961 C19.4443027,57.2432261 19.1716582,56.6861189 19.3469297,56.1740955 C19.4301289,55.9270546 19.6090879,55.7234873 19.8438203,55.6091676 C20.0785527,55.494848 20.3493535,55.4790916 20.5957246,55.5655789 C20.8430176,55.648846 21.0466367,55.8274561 21.1611797,56.061501 C21.2757227,56.2955458 21.2917402,56.5655887 21.2054297,56.8114795 C21.0685312,57.2044678 20.6975918,57.4681852 20.2806738,57.4689903 C20.1710859,57.4671501 20.0620742,57.4507037 19.95675,57.4199961 Z M39.5541992,56.2133138 C39.3464316,55.7117563 39.5838145,55.1370526 40.0851992,54.9271598 C40.5875059,54.7219825 41.161834,54.9582125 41.3734043,55.4571248 C41.5789824,55.9586823 41.342291,56.5318908 40.8424043,56.7432788 C40.7199102,56.7895127 40.5898105,56.8125146 40.4587891,56.8113645 C40.0642266,56.8114795 39.7079219,56.5759396 39.5541992,56.2133138 Z M17.1242891,56.2813996 C16.6337363,56.050115 16.4227422,55.4666706 16.6522891,54.976039 C16.7613008,54.7387739 16.9613477,54.5553333 17.2072578,54.4667758 C17.4532832,54.3782183 17.7245449,54.3922495 17.9601992,54.5054191 C18.1953926,54.6143333 18.3774629,54.8122651 18.4659629,55.0553957 C18.5545781,55.2986413 18.5423633,55.5669591 18.4321992,55.8012339 C18.2719082,56.1499435 17.9215957,56.3723723 17.5371738,56.3696121 C17.3949746,56.368807 17.2545039,56.3387895 17.1242891,56.2813996 Z M42.2584043,55.0258382 C42.1311855,54.798694 42.1012246,54.5299162 42.1753203,54.28046 C42.2493008,54.0310039 42.4211152,53.8218012 42.6516992,53.7003509 C42.8792871,53.5734951 43.1484746,53.5437076 43.398418,53.6177739 C43.6483613,53.6917251 43.8577422,53.8632047 43.9793145,54.0933392 C44.1065332,54.3203684 44.1364941,54.5890312 44.0625137,54.8383723 C43.9885332,55.0877135 43.8167187,55.2966862 43.5861348,55.4179064 C43.4465859,55.5018635 43.2866406,55.5459123 43.1238145,55.5453372 C42.7605957,55.5471774 42.426877,55.3468304 42.2584043,55.0258382 Z M14.4303398,54.8590741 C14.2066699,54.7255478 14.0455723,54.5086394 13.9827695,54.256193 C13.9199668,54.0037466 13.9605293,53.736809 14.0956992,53.5143801 C14.227873,53.2896511 14.4445137,53.1269123 14.6975684,53.0622768 C14.9505078,52.9976413 15.2188887,53.0365146 15.4430195,53.170271 C15.6662285,53.3041423 15.8269805,53.5210507 15.889668,53.7733821 C15.9524707,54.0255984 15.9121387,54.2924211 15.7775449,54.5149649 C15.6014668,54.8142203 15.2792715,54.9975458 14.9314941,54.9960507 C14.7548398,54.9981209 14.5812969,54.9506218 14.4303398,54.8590741 Z M44.8247891,53.5729201 C44.6755605,53.359692 44.6177129,53.0959747 44.6638066,52.840078 C44.7099004,52.5841813 44.8563633,52.357037 45.070584,52.2091345 C45.2853809,52.061117 45.5506504,52.0047622 45.8072773,52.0526062 C46.0639043,52.1004503 46.2908008,52.2485828 46.4376094,52.4641111 C46.5870684,52.6772242 46.6451465,52.9410565 46.5989375,53.1970682 C46.5528437,53.4530799 46.4062656,53.6801092 46.1918145,53.8278967 C46.0263379,53.9389961 45.8309004,53.997191 45.6314297,53.9946608 C45.3090039,53.996961 45.0065137,53.8388226 44.8247891,53.5729201 Z M11.9027891,53.170386 C11.6919102,53.0163879 11.5513242,52.7846433 11.5126055,52.5266764 C11.4737715,52.2687096 11.539916,52.0060273 11.6962891,51.7969396 C11.8505879,51.5861267 12.0830156,51.4458148 12.3417168,51.4070565 C12.600418,51.3682982 12.8638438,51.4345439 13.0733398,51.5908421 C13.5039707,51.9170097 13.595582,52.5263314 13.2798398,52.9642885 C13.0932754,53.2156998 12.7967773,53.3619922 12.4832246,53.3572768 C12.2745352,53.360037 12.0705703,53.2943665 11.9027891,53.170386 Z M47.2245449,51.8650253 C47.0546895,51.6673236 46.9705684,51.4102768 46.9908496,51.1506998 C47.0111309,50.8910078 47.1340859,50.6501774 47.3325195,50.4811131 C47.5307227,50.3118187 47.7882715,50.2282066 48.0483555,50.2484483 C48.3084395,50.2688051 48.5497402,50.3914055 48.71925,50.5893372 C48.8889902,50.787154 48.9728809,51.0442008 48.9524844,51.3037778 C48.9320879,51.5633548 48.8091328,51.8043002 48.6106992,51.9732495 C48.4324316,52.1249474 48.2058809,52.2084444 47.9716094,52.2090195 C47.6843301,52.2080994 47.4116855,52.0825088 47.2245449,51.8650253 Z M9.55304492,51.2276413 C9.358875,51.0513314 9.24329492,50.8048655 9.23223242,50.5432183 C9.22116992,50.2814561 9.31543164,50.0261345 9.49392969,49.8341832 C9.86233398,49.4396998 10.4797598,49.4132476 10.8805449,49.7747232 L10.8805449,49.784269 C11.0725254,49.9598889 11.1864922,50.2045146 11.1974395,50.4640916 C11.2083867,50.7237836 11.1155078,50.9770351 10.939084,51.1681813 C10.7499844,51.3679532 10.4870195,51.4815828 10.2116094,51.4825029 C9.96823438,51.4813528 9.73373242,51.3904951 9.55304492,51.2276413 Z M49.4370449,49.9127349 C49.2466777,49.7345848 49.1362832,49.4874288 49.1306367,49.2270468 C49.1249902,48.9666647 49.2247832,48.7150234 49.4073145,48.5288226 C49.5870801,48.3410117 49.8342578,48.2323275 50.094457,48.226807 C50.3546562,48.2212865 50.6063281,48.3191598 50.7939297,48.4991501 C50.9819922,48.6785653 51.0908887,48.9253762 51.0963047,49.1850682 C51.1017207,49.4447602 51.003541,49.6959415 50.8231992,49.8831774 C50.640668,50.079384 50.3836953,50.1896784 50.1154297,50.1870331 C49.8617988,50.1892183 49.6176172,50.09054 49.4370449,49.9127349 Z M7.41925,49.0482066 C7.2455918,48.8545302 7.15628516,48.6000136 7.17091992,48.3405517 C7.18555469,48.0810897 7.30309375,47.8381891 7.49749414,47.6652144 C7.69281641,47.4929298 7.94898242,47.4052924 8.20918164,47.4218538 C8.46938086,47.4384152 8.71229492,47.5576803 8.88422461,47.7533119 C9.05788281,47.9471033 9.14730469,48.2019649 9.13243945,48.4615419 C9.11768945,48.7211189 9.00003516,48.9642495 8.8054043,49.1372242 C8.62667578,49.2957076 8.39574609,49.383 8.15675,49.38254 C7.87304297,49.3872554 7.60235742,49.26454 7.41925,49.0482066 Z M51.4330195,47.7533119 C51.0083809,47.4188635 50.9338242,46.8050565 51.2659297,46.3789454 C51.4241465,46.1721579 51.6587637,46.0371365 51.9173496,46.0040136 C52.1759355,45.9708908 52.4370566,46.0424269 52.6425195,46.2026355 C52.8495957,46.3605439 52.9848809,46.5944737 53.0181836,46.8524405 C53.0514863,47.1104074 52.980041,47.3709045 52.81975,47.5759669 C52.6345684,47.8172573 52.3475195,47.9589493 52.0429551,47.9592943 C51.8225117,47.9586043 51.6085215,47.8862632 51.4330195,47.7533119 Z M5.51119922,46.6732554 C5.1960332,46.2311579 5.29697852,45.6180409 5.7374043,45.299809 C6.18151758,44.9891676 6.79283594,45.0892261 7.11445508,45.5249981 C7.43054297,45.9672105 7.32948242,46.5812476 6.88825,46.8993645 C6.72277344,47.0202398 6.52295703,47.0853353 6.31783984,47.0853353 C5.99829492,47.0851053 5.69822461,46.9317973 5.51119922,46.6732554 Z M53.2027891,45.3975673 C52.7419668,45.1098129 52.6012656,44.5040565 52.8883145,44.0433275 C53.1795117,43.5873138 53.7825332,43.447577 54.2451992,43.7290058 C54.7063672,44.0165302 54.8472988,44.6224016 54.5601348,45.0832456 C54.3815215,45.3724951 54.064627,45.547655 53.7242246,45.5452398 C53.5403105,45.5438596 53.360084,45.4929103 53.2027891,45.3975673 Z M3.86910937,44.1123333 C3.73762695,43.8876043 3.70213477,43.6196316 3.77058398,43.3686803 C3.8390332,43.117614 4.00566211,42.904501 4.23301953,42.7773002 C4.45795703,42.6458441 4.72645312,42.610306 4.97800977,42.6786218 C5.22956641,42.7469376 5.44298047,42.9133567 5.57019922,43.140501 L5.58022461,43.140501 C5.84572461,43.612271 5.67863477,44.2094016 5.20663477,44.4755341 C5.06005664,44.5597212 4.8936582,44.603655 4.72460938,44.6029649 C4.37164648,44.6052651 4.0448418,44.4177992 3.86910937,44.1123333 Z M54.7171992,42.8750585 C54.2316016,42.633883 54.0300566,42.0481384 54.2649043,41.560152 C54.504707,41.0730858 55.0940156,40.8712437 55.5828398,41.1087388 C55.8178027,41.2229435 55.9975684,41.4258207 56.0824961,41.6725166 C56.1674238,41.9192125 56.1503691,42.1894854 56.03525,42.4236452 C55.8689668,42.7601637 55.5257988,42.9733918 55.1499043,42.9737368 C54.9998691,42.975117 54.8516777,42.9413041 54.7171992,42.8750585 Z M2.49251953,41.3933879 C2.27564844,40.8974659 2.49943359,40.3197719 2.99425,40.0986082 C3.49114062,39.8815848 4.07042383,40.1049337 4.29213477,40.5989006 C4.50900586,41.0948226 4.28510547,41.6725166 3.7904043,41.8936803 C3.66733398,41.9513002 3.53320117,41.9816628 3.39722461,41.9828129 C3.00588867,41.9799376 2.65246484,41.7495731 2.49251953,41.3933879 Z M55.9659941,40.2057973 C55.7214668,40.1168947 55.5225723,39.9341442 55.4136758,39.6981442 C55.3047793,39.4621442 55.2947539,39.1925614 55.3860195,38.9493158 C55.4735977,38.703885 55.6558984,38.503538 55.8922441,38.3930136 C56.1285898,38.2824893 56.3995059,38.2708733 56.6444941,38.3608109 C56.8890215,38.4497135 57.087916,38.6324639 57.1969277,38.8684639 C57.3059395,39.1043489 57.3159648,39.3740468 57.2249297,39.6174074 C57.0871094,40.0082105 56.715709,40.2684776 56.3006348,40.2652573 C56.1865527,40.2646823 56.0733926,40.2445556 55.9659941,40.2057973 Z M1.41069922,38.5478168 C1.33015039,38.2991657 1.35227539,38.0286628 1.47223438,37.7964581 C1.59219336,37.5641384 1.80007617,37.3893236 2.04978906,37.3105419 C2.29754297,37.2302651 2.56730664,37.252577 2.79835156,37.3726472 C3.02939648,37.4927173 3.20259375,37.7003099 3.27887891,37.948846 C3.44389453,38.4633996 3.16341406,39.0145263 2.64992969,39.1852008 C2.55071289,39.2128031 2.44803906,39.2260292 2.34501953,39.2244191 C1.92038086,39.2225789 1.54425586,38.9502359 1.41069922,38.5478168 Z M56.9296992,37.4283119 C56.4045762,37.2899552 56.0859531,36.7586101 56.2119043,36.2312904 C56.3506465,35.706961 56.8831445,35.3888441 57.4117246,35.5144347 C57.9377695,35.6512963 58.2540879,36.1867817 58.1194941,36.7124912 C58.0101367,37.1496433 57.6173027,37.4567193 57.1659297,37.4580994 C57.0861875,37.4580994 57.0069062,37.4480936 56.9296992,37.4283119 Z M0.633904297,35.6035673 C0.578246094,35.3495107 0.626990234,35.0837232 0.769304688,34.8658947 C0.911619141,34.6480663 1.13563477,34.4963684 1.39099414,34.4448441 C1.64554687,34.3891793 1.91185352,34.4379435 2.13010742,34.5800955 C2.34836133,34.7222476 2.500125,34.9460565 2.55151953,35.2010331 C2.60729297,35.4549747 2.55854883,35.7206472 2.41611914,35.9383606 C2.27368945,36.1560741 2.04967383,36.3075419 1.79431445,36.3588363 C1.72678711,36.3755127 1.65730078,36.3822982 1.58781445,36.378963 C1.12514844,36.3810331 0.725515625,36.0562456 0.633904297,35.6035673 Z M57.5985195,34.5530682 C57.3398184,34.5177602 57.1060078,34.3807836 56.9490586,34.172501 C56.7921094,33.9643333 56.7249277,33.7021111 56.7626094,33.4442593 C56.843043,32.910269 57.3372832,32.5390175 57.8736992,32.6095185 C58.4112676,32.686115 58.7853184,33.1826121 58.7096094,33.7193626 C58.6409297,34.2032086 58.2259707,34.562729 57.7363398,34.562729 C57.6902461,34.5639942 57.6440371,34.5607739 57.5985195,34.5530682 Z M0.161904297,32.5903119 C0.13459375,32.332345 0.211685547,32.0742632 0.376125,31.8733411 C0.540564453,31.6724191 0.778523438,31.5454483 1.03722461,31.5207212 C1.29673242,31.4930039 1.55658594,31.5696004 1.75951367,31.7333743 C1.96244141,31.8971481 2.09173437,32.1347583 2.11892969,32.3938752 C2.1464707,32.6529922 2.06972461,32.9123392 1.90551562,33.1149864 C1.74130664,33.3176335 1.50323242,33.4467895 1.24360938,33.4740468 L1.13563477,33.4740468 C0.631945312,33.4724366 0.211109375,33.0906043 0.161904297,32.5903119 Z M57.9625449,31.6386062 C57.420252,31.6151442 56.9986094,31.1592456 57.0185449,30.6178947 C57.041707,30.0765439 57.4987266,29.6554932 58.04125,29.6757349 C58.3023711,29.6851657 58.5488574,29.7983353 58.7260879,29.9899415 C58.9033184,30.1815478 58.996543,30.4358343 58.98525,30.6964464 C58.9628945,31.222501 58.529498,31.6378012 58.0019551,31.6386062 L57.9625449,31.6386062 Z M0.00483984375,29.5578499 C0.00633789063,29.016499 0.445726563,28.5779669 0.988134766,28.5764717 C1.53054297,28.5781969 1.96970117,29.016614 1.97142969,29.5578499 C1.96970117,30.0992008 1.53042773,30.5375029 0.988134766,30.5392281 C0.445726563,30.5377329 0.006453125,30.0993158 0.00483984375,29.5578499 Z" id="Shape"></path>
                        </g>
                    </g>
                    <g id="003-money-copy" transform="translate(276.500000, 243.000000) scale(-1, 1) rotate(90.000000) translate(-276.500000, -243.000000) translate(252.500000, 213.500000)" fill-rule="nonzero">
                        <rect id="Rectangle-path" fill="#D4E1F4" x="33.4016454" y="47.0380392" width="6.77821277" height="10.8591235"></rect>
                        <rect id="Rectangle-path" fill="#A4C2F7" x="40.1789504" y="47.0380392" width="2.90496454" height="10.8591235"></rect>
                        <rect id="Rectangle-path" fill="#FFFFFF" x="19.8451064" y="47.0400059" width="2.90496454" height="10.8591235"></rect>
                        <path d="M35.3379858,57.8990137 L22.749844,57.8990137 L22.749844,47.0398902 L30.1654468,47.0398902 C33.0221844,47.0398902 35.3379858,49.945698 35.3379858,53.5301216 L35.3379858,57.8990137 Z" id="Shape" fill="#D4E1F4"></path>
                        <ellipse id="Oval" fill="#A4C2F7" cx="29.0441986" cy="52.4695098" rx="2.42076596" ry="2.46793529"></ellipse>
                        <path d="M29.7525106,47.0400059 L16.1959716,33.2193137 L12.582695,33.2193137 C12.022922,33.4982333 10.496,32.4903745 11.0822128,33.0033275 L21.5515461,43.6355902 C21.6230355,43.7084725 21.7062128,43.7609941 21.7817872,43.827051 L21.7817872,47.0398902 L29.7525106,47.0400059 Z" id="Shape" fill="#FFFFFF"></path>
                        <path d="M30.5858723,47.0400059 L41.1482553,47.0400059 L41.1482553,42.5875882 C43.7979007,40.5737216 44.768227,36.983051 43.504227,33.8699333 L30.5858723,47.0400059 Z" id="Shape" fill="#A4C2F7"></path>
                        <g id="Group" transform="translate(13.957447, 33.201961)" fill="#D4E1F4">
                            <path d="M2.98314894,0.0173529412 L0.0911205674,0.0173529412 C0.0911205674,0.0173529412 10.653617,10.559149 10.729305,10.6250902 L10.729305,13.8379294 L15.5708369,13.8379294 L2.98314894,0.0173529412 Z" id="Shape"></path>
                            <path d="M18.4759149,12.8507784 L24.285844,13.8379294 L24.285844,9.38551176 C26.114156,7.99137647 27.190695,5.80004706 27.1908085,3.47243922 L18.4759149,12.8507784 Z" id="Shape"></path>
                        </g>
                        <path d="M10.8377872,26.3090255 L11.4226383,26.3090255 C12.3306667,26.3090255 13.0668936,27.0594824 13.0668936,27.9853196 L13.0668936,31.5431353 C13.0668936,32.4688569 12.3307801,33.2194294 11.4226383,33.2194294 L10.8377872,33.2194294 C9.92975887,33.2194294 9.19353191,32.4689725 9.19353191,31.5431353 L9.19353191,27.9853196 C9.19364539,27.0594824 9.92975887,26.3090255 10.8377872,26.3090255 Z" id="Shape" fill="#FFFFFF"></path>
                        <path d="M14.3140993,26.3090255 L22.4712624,26.3090255 C24.2296738,26.3090255 25.6551489,27.7622765 25.6551489,29.554951 L25.6551489,29.9735039 C25.6551489,31.7661784 24.2296738,33.2194294 22.4712624,33.2194294 L14.3140993,33.2194294 C12.5556879,33.2194294 11.1302128,31.7661784 11.1302128,29.9735039 L11.1302128,29.554951 C11.1302128,27.7621608 12.5556879,26.3090255 14.3140993,26.3090255 Z" id="Shape" fill="#D4E1F4"></path>
                        <polygon id="Shape" fill="#A4C2F7" points="44.1422979 33.2193137 46.6017589 30.7118137 18.2009645 1.39332549 15.9854752 3.60362745"></polygon>
                        <polygon id="Shape" fill="#D4E1F4" points="31.7071206 45.3123471 30.2546383 46.7931314 17.908539 34.2064647 19.8451064 33.2193137"></polygon>
                        <polygon id="Shape" fill="#FFFFFF" points="13.0668936 26.3090255 11.1302128 27.2961765 1.93123404 17.9178373 3.38371631 16.4370529"></polygon>
                        <path d="M31.4649645,45.0655882 L45.0215035,32.2321627 L15.9718582,2.61647647 L3.38371631,16.4370529 L13.0668936,26.3089098 L19.396539,26.3089098 C21.2605957,26.3089098 25.6550355,26.247249 25.6550355,29.7641118 C25.6550355,33.4660725 21.7091631,33.2193137 19.8451064,33.2193137 L31.4649645,45.0655882 Z" id="Shape" fill="#D4E1F4"></path>
                        <path d="M22.2659858,26.3090255 C24.0745532,26.304051 25.5665248,27.751402 25.6514043,29.5932431 C25.7362837,31.4350843 24.384,33.018598 22.582922,33.1865745 C27.0940142,33.9477902 31.414695,31.024051 32.4786383,26.4904216 C33.5424681,21.9567922 30.9873475,17.3560647 26.6268369,15.9536 L22.2659858,26.3090255 Z" id="Shape" fill="#A4C2F7"></path>
                        <path d="M27.4014184,18.0599 C26.1838298,16.4207412 24.2833475,15.4575373 22.2664397,15.4575373 C20.2495319,15.4575373 18.3491631,16.4206255 17.131461,18.0599 C15.3462695,20.3612471 14.6317163,23.3407471 15.1739007,26.2222608 L20.815773,26.2222608 C22.3690213,26.2222608 24.6867518,27.7770843 24.6867518,29.6774627 C24.6867518,31.4672451 22.5085957,32.9332216 21.0799433,33.0998098 C23.4750638,33.5425412 25.9126241,32.5882451 27.4014184,30.6248176 C30.2373901,26.9354667 30.2373901,21.749251 27.4014184,18.0599 Z" id="Shape" fill="url(#linearGradient-13)"></path>
                        <g id="Group" transform="translate(23.716312, 4.511765)" fill="#D4E1F4">
                            <path d="M0.00442553191,2.84356863 L3.78269504,6.69545882 C5.01480851,6.14594902 5.8111773,4.90532941 5.81197163,3.53421569 C5.89151773,2.65823922 5.60975887,1.78804706 5.03432624,1.13245294 C4.45889362,0.476858824 3.64164539,0.0952098039 2.77889362,0.0790137255 C1.75058156,0.0962509804 0.763574468,0.493980392 0.00170212766,1.19827843 L0.00442553191,2.84356863 Z" id="Shape"></path>
                            <path d="M8.62434043,11.6313294 C10.013617,11.011598 10.8295035,9.52607059 10.6217305,7.99473137 C10.4139574,6.46339216 9.23302128,5.2594451 7.73095035,5.04762353 C6.22887943,4.83580196 4.77163121,5.66758627 4.16385816,7.08393333 L8.62434043,11.6313294 Z" id="Shape"></path>
                            <path d="M13.4659858,16.5673157 C14.8552624,15.9475843 15.6711489,14.4620569 15.4633759,12.9307176 C15.2556028,11.3993784 14.0746667,10.1954314 12.5725957,9.9836098 C11.0705248,9.77178824 9.6132766,10.6035725 9.00550355,12.0199196 L13.4659858,16.5673157 Z" id="Shape"></path>
                            <path d="M18.3075177,21.503302 C19.6967943,20.8835706 20.5126809,19.3980431 20.3049078,17.8667039 C20.0971348,16.3353647 18.9161986,15.1314176 17.4141277,14.9195961 C15.9120567,14.7077745 14.4548085,15.5395588 13.8470355,16.9559059 L18.3075177,21.503302 Z" id="Shape"></path>
                        </g>
                        <g id="Group" fill="#5300FF">
                            <path d="M44.0532199,58.8862804 L18.8768227,58.8862804 L18.8768227,46.0527392 L44.0532199,46.0527392 L44.0532199,58.8862804 Z M20.8135035,56.9118627 L42.116539,56.9118627 L42.116539,48.0271569 L20.8135035,48.0271569 L20.8135035,56.9118627 Z" id="Shape"></path>
                            <path d="M36.3066099,58.8862804 L18.8768227,58.8862804 L18.8768227,46.0527392 L28.9718014,46.0527392 C33.0207092,46.0571353 36.3019574,49.4020882 36.3066099,53.5298902 L36.3066099,58.8862804 Z M20.8135035,56.9118627 L34.3700426,56.9118627 L34.3700426,53.5300059 C34.3662979,50.4923157 31.9516596,48.0307431 28.9719149,48.0271569 L20.8135035,48.0271569 L20.8135035,56.9118627 Z" id="Shape"></path>
                            <path d="M29.0441986,55.9247118 C27.1724255,55.9247118 25.6550355,54.3777549 25.6550355,52.4695098 C25.6550355,50.5612647 27.1724255,49.0143078 29.0441986,49.0143078 C30.9159716,49.0143078 32.4333617,50.5612647 32.4333617,52.4695098 C32.4310922,54.3768294 30.9150638,55.922398 29.0441986,55.9247118 Z M29.0441986,50.9887255 C28.2420426,50.9887255 27.5917163,51.6517235 27.5917163,52.4695098 C27.5917163,53.2872961 28.2420426,53.9502941 29.0441986,53.9502941 C29.8463546,53.9502941 30.4966809,53.2872961 30.4966809,52.4695098 C30.495773,51.6520706 29.8460142,50.989651 29.0441986,50.9887255 Z" id="Shape"></path>
                            <path d="M27.3401418,12.232898 L22.7524539,7.49751176 L22.7487092,5.28211961 L23.0574752,4.9880451 C24.000227,4.11588627 25.2223546,3.62364118 26.4953191,3.60362745 C27.6161135,3.61484902 28.6823262,4.09888039 29.4405674,4.94061373 C30.1988085,5.78234706 30.5811064,6.90647059 30.4967943,8.04598039 C30.5129078,9.75883137 29.5043404,11.3090275 27.9501844,11.9599941 L27.3401418,12.232898 Z M24.688227,6.68574118 L27.7260709,9.82083922 C28.2680284,9.40055098 28.578383,8.73998235 28.5601135,8.04598039 C28.6343262,7.43388431 28.4531064,6.81808627 28.0604823,6.34874706 C27.6678582,5.87940784 27.1000284,5.59979412 26.4954326,5.57792941 C25.8478298,5.59215882 25.2188369,5.80108824 24.6874326,6.17857255 L24.688227,6.68574118 Z" id="Shape"></path>
                            <path d="M32.2688227,17.320202 L26.7951206,11.6698529 L27.0594043,11.0557902 C27.7398014,9.47921765 29.2923688,8.48304314 30.9808794,8.53961373 C33.3863262,8.54227451 35.3357163,10.529649 35.3383262,12.9819667 C35.394383,14.7176078 34.4255319,16.3188216 32.8787518,17.0463725 L32.2688227,17.320202 Z M29.1633475,11.3054412 L32.6361418,14.889749 C33.3609078,14.1801294 33.5971631,13.0964961 33.2356312,12.1406961 C32.8740993,11.1848961 31.9852482,10.5436471 30.980766,10.5139157 C30.2891348,10.4862667 29.6219007,10.7768706 29.1633475,11.3054412 Z" id="Shape"></path>
                            <path d="M37.0592908,22.2108392 L31.6299574,16.6174078 L31.894695,16.0033451 C32.5746383,14.4220294 34.1295887,13.4213431 35.8222979,13.4756 C38.2277447,13.4782608 40.1771348,15.4656353 40.1797447,17.9179529 C40.2123121,19.6508176 39.222695,21.2345627 37.6686525,21.9371255 L37.0592908,22.2108392 Z M33.9988652,16.2510294 L37.4323972,19.7881373 C37.9642553,19.3204176 38.2620142,18.6338196 38.2432908,17.9178373 C38.2419291,16.5554 37.158922,15.4512902 35.8225248,15.449902 C35.1271489,15.4226 34.4568511,15.7170216 33.9988652,16.2510294 Z" id="Shape"></path>
                            <path d="M41.878695,27.1929843 L36.5008794,21.6024451 L36.7642553,20.9912745 C37.4246809,19.3994314 38.9689645,18.3778059 40.6639433,18.4114706 C43.0693901,18.4141314 45.0187801,20.4015059 45.0213901,22.8538235 C45.0571348,24.6043882 44.0599149,26.2061804 42.4908936,26.9182294 L41.878695,27.1929843 Z M38.8602553,21.2351412 L42.2555461,24.7655392 C43.0158298,24.0805608 43.2846525,22.9895235 42.9321986,22.0196098 C42.5797447,21.0496961 41.6785248,20.4005804 40.6640567,20.3858882 C39.965617,20.3661059 39.298383,20.6803098 38.8602553,21.2351412 Z" id="Shape"></path>
                            <path d="M22.2659858,34.2064647 L12.5828085,34.2064647 C10.176227,34.2064647 8.2253617,32.2175863 8.2253617,29.7641118 C8.2253617,27.3106373 10.176227,25.3217588 12.5828085,25.3217588 L22.2659858,25.3217588 C24.6725674,25.3217588 26.6234326,27.3106373 26.6234326,29.7641118 C26.6234326,32.2175863 24.6724539,34.2064647 22.2659858,34.2064647 Z M12.582695,27.2961765 C11.2457305,27.2961765 10.1619291,28.4010961 10.1619291,29.7641118 C10.1619291,31.1271275 11.2457305,32.2320471 12.582695,32.2320471 L22.2658723,32.2320471 C23.6028369,32.2320471 24.6866383,31.1271275 24.6866383,29.7641118 C24.6866383,28.4010961 23.6028369,27.2961765 22.2658723,27.2961765 L12.582695,27.2961765 Z" id="Shape"></path>
                            <path d="M12.3666383,24.7183392 C12.1097305,24.7186863 11.8633759,24.6145686 11.6820426,24.4291235 L8.25895035,20.9392157 L8.9435461,20.2412804 C10.0759149,19.0836078 10.0759149,17.2100686 8.9435461,16.0525118 L8.25895035,15.3545765 L15.1057021,8.37383529 L15.7902979,9.07177059 C16.9400284,10.1901098 18.7488227,10.1901098 19.8985532,9.07177059 L20.5831489,8.37383529 L24.0068085,11.8646686 C24.251461,12.1140882 24.3468936,12.4774588 24.2573617,12.8181549 C24.1678298,13.1587353 23.9068369,13.4248137 23.572766,13.5160902 C23.238695,13.6073667 22.882156,13.5099588 22.6375035,13.2606549 L20.5150638,11.0963961 C18.8876028,12.1607098 16.8011348,12.1607098 15.1736738,11.0963961 L10.9287943,15.4250294 C11.9950071,17.0769137 11.9950071,19.2171098 10.9287943,20.8689941 L13.051234,23.0332529 C13.3281135,23.3155275 13.4108369,23.7400961 13.2610496,24.1089039 C13.1112624,24.4777118 12.7582411,24.7182235 12.3666383,24.7183392 Z" id="Shape"></path>
                            <path d="M27.4304681,40.4844118 L24.0068085,36.9935784 C23.762156,36.7442745 23.6667234,36.3807882 23.7562553,36.0400922 C23.8457872,35.6995118 24.1067801,35.4334333 24.4408511,35.3421569 C24.774922,35.2508804 25.131461,35.3482882 25.3761135,35.5975922 L27.4985532,37.761851 C29.1256738,36.6966118 31.2128227,36.6966118 32.8399433,37.761851 L37.0848227,33.4333333 C36.0186099,31.781449 36.0186099,29.6412529 37.0848227,27.9893686 L34.962383,25.8251098 C34.5842837,25.4396431 34.5842837,24.8145902 34.962383,24.4291235 C35.3404823,24.0436569 35.9535887,24.0436569 36.3316879,24.4291235 L39.7547801,27.9190314 L39.0701844,28.6169667 C37.9378156,29.7746392 37.9378156,31.6481784 39.0701844,32.8057353 L39.7547801,33.5036706 L32.9079149,40.4844118 L32.2233191,39.7864765 C31.0735887,38.6681373 29.2647943,38.6681373 28.1150638,39.7864765 L27.4304681,40.4844118 Z" id="Shape"></path>
                            <ellipse id="Oval" cx="41.1239716" cy="30.7118137" rx="1" ry="1"></ellipse>
                            <ellipse id="Oval" cx="30.1694184" cy="41.8799353" rx="1" ry="1"></ellipse>
                            <ellipse id="Oval" cx="6.88896454" cy="18.1468961" rx="1" ry="1"></ellipse>
                            <ellipse id="Oval" cx="17.9375887" cy="6.88703529" rx="1" ry="1"></ellipse>
                            <path d="M32.0900993,48.0271569 L20.8135035,48.0271569 L20.8135035,44.2798471 L10.3993191,33.7023039 C9.96300709,33.3997843 9.84170213,32.7984471 10.1255035,32.3449569 C10.4613901,31.8627765 11.1067234,31.7295059 11.600227,32.0403549 C11.8178723,32.1368373 12.0426667,32.2155039 12.2725674,32.2755451 L12.3590355,32.2321627 L16.5968794,32.2321627 L32.0900993,48.0271569 Z M22.7500709,46.0527392 L27.4148085,46.0527392 L15.7949504,34.2064647 L13.638922,34.2064647 L22.2346667,42.9369608 C22.319773,43.0015137 22.3651631,43.0362196 22.4086241,43.0748588 L22.7499574,43.3698588 L22.7499574,46.0527392 L22.7500709,46.0527392 Z" id="Shape"></path>
                            <path d="M42.116539,48.0271569 L28.2485106,48.0271569 L43.8456738,32.1260784 L44.3993191,33.4931431 C45.7617021,36.8494333 44.838695,40.7186765 42.116539,43.0623647 L42.116539,48.0271569 Z M32.9236879,46.0527392 L40.1799716,46.0527392 L40.1799716,42.0953431 L40.5657872,41.7994176 C42.1550071,40.5948922 43.0897021,38.6933569 43.0849362,36.6745157 C43.0850496,36.3686412 43.0632624,36.0632294 43.0196879,35.7605941 L32.9236879,46.0527392 Z" id="Shape"></path>
                            <path d="M24.0026099,34.2923039 C23.474156,34.2923039 22.9466099,34.2482275 22.425305,34.1601902 L15.0754043,32.9252392 L22.4910071,32.2041667 C23.7774752,32.086051 24.7442837,30.9556804 24.6839149,29.6403275 C24.6235461,28.3249745 23.5575603,27.2914333 22.2658723,27.2961765 L14.7136454,27.2961765 L14.5486525,26.5172608 C13.6368794,22.2379098 15.6006809,17.8579118 19.3713475,15.7606353 C23.1420142,13.6633588 27.8175319,14.3505353 30.8535603,17.4483824 C33.6262128,20.2699706 34.4561702,24.5177392 32.9555745,28.2070902 C31.4550922,31.8964412 27.920227,34.2990137 24.0026099,34.2923039 Z M16.3155745,25.3217588 L22.2658723,25.3217588 C23.8363688,25.3217588 25.2853333,26.1833902 26.0585532,27.5769471 C26.831773,28.9705039 26.8096454,30.6804627 26.0005674,32.0527333 C28.676539,31.3278431 30.7687943,29.2010667 31.487773,26.475151 C32.2067518,23.7492353 31.4427234,20.8394941 29.4842553,18.8442529 C27.156539,16.4684039 23.6091915,15.8541098 20.6426099,17.3133765 C17.6761418,18.7726431 15.9400851,21.9857137 16.3155745,25.3217588 Z" id="Shape"></path>
                            <path d="M30.169078,48.8610235 L13.858383,32.2321627 L22.2659858,32.2321627 C23.6029504,32.2321627 24.6867518,31.1272431 24.6867518,29.7642275 C24.6867518,28.4012118 23.6029504,27.2962922 22.2659858,27.2962922 L12.5828085,27.2962922 C11.9820709,27.3005725 11.4045957,27.5341431 10.9643121,27.9508451 L10.281078,28.5861941 L0.0347234043,18.138798 L3.67489362,14.5070588 C4.05809929,14.1320039 4.66621277,14.1417216 5.0377305,14.5289235 C5.40924823,14.9161255 5.40539007,15.5360882 5.02910638,15.9184314 L2.78842553,18.1540686 L10.4115745,25.9262196 C11.0697305,25.5316137 11.819234,25.3230314 12.5828085,25.3217588 L22.2659858,25.3217588 C24.6725674,25.3217588 26.6234326,27.3106373 26.6234326,29.7641118 C26.6234326,32.2175863 24.6725674,34.2064647 22.2659858,34.2064647 L18.5335603,34.2064647 L30.1689645,46.0691667 L45.2369929,30.7069549 L18.1889362,2.78607255 L9.87120567,11.0865627 C9.48879433,11.4669392 8.87636879,11.4597667 8.50258156,11.0704824 C8.12879433,10.681198 8.13492199,10.0568392 8.51608511,9.6751902 L18.212539,0 L47.9670922,30.7166725 L30.169078,48.8610235 Z" id="Shape"></path>
                            <ellipse id="Oval" cx="6.74961702" cy="12.7154255" rx="1" ry="1"></ellipse>
                        </g>
                    </g>
                    <g id="Rectangle">
                        <use fill="url(#linearGradient-14)" fill-rule="evenodd" xlink:href="#path-15"></use>
                        <rect stroke="#5300FF" stroke-width="2" x="305" y="1" width="68" height="308" rx="34"></rect>
                    </g>
                    <g id="Group-2" transform="translate(314.000000, 132.000000)">
                        <g id="Group-24" fill-rule="nonzero">
                            <path d="M24.6586236,50.834201 C38.2547721,50.834201 49.3172471,39.4314543 49.3172471,25.4171005 C49.3172471,11.4027467 38.2547721,-9.09494702e-13 24.6586236,-9.09494702e-13 C11.062475,-9.09494702e-13 0,11.4027467 0,25.4171005 C0,39.4314543 11.062475,50.834201 24.6586236,50.834201 Z" id="Shape"></path>
                            <path d="M24.6586236,49.4495856 C37.4805257,49.4495856 47.9326317,38.6759823 47.9326317,25.4171005 C47.9326317,12.1582188 37.4805257,1.38461538 24.6586236,1.38461538 C11.8367214,1.38461538 1.38461538,12.1582188 1.38461538,25.4171005 C1.38461538,38.6759823 11.8367214,49.4495856 24.6586236,49.4495856 Z" id="Shape" stroke="#FFFFFF" stroke-width="2.76923077"></path>
                        </g>
                        <g id="Page-1" transform="translate(10.769231, 12.363636)" fill="#FFFFFF">
                            <path d="M27.3912898,9.69861349 L24.2392351,9.69861349 C23.7501232,9.69861349 23.622431,9.3885491 23.6060864,8.91947732 C23.4783943,6.28895123 22.2284416,4.5635119 19.9459192,4.5635119 C17.6631926,4.5635119 16.3588941,5.49506141 16.3588941,8.11073287 C16.3588941,8.61181535 16.0871652,8.88986905 15.6521948,8.88986905 L12.4999358,8.88986905 C12.0108239,8.88986905 11.7392993,8.61181535 11.7392993,8.11073287 L11.7567136,8.15309756 C11.7567136,5.53742611 10.4893466,4.5635119 8.20661993,4.5635119 C5.92409758,4.5635119 4.61979909,6.28895123 4.61979909,8.90462268 C4.61979909,9.42055979 4.34786593,9.69861349 3.858754,9.69861349 L0.760840784,9.69861349 C0.271728852,9.69861349 0,9.42055979 0,8.91947732 L0,9.07158043 C0,3.78437572 3.26095053,0 8.20661993,0 C10.7065254,0 12.826419,1.3913146 14.0761674,3.39480763 C15.3261202,1.3913146 17.3914637,0 19.9459192,0 C24.8915887,0 28.0979891,3.60653852 28.0979891,8.89374323 C28.0979891,9.42055979 27.8262602,9.69861349 27.3912898,9.69861349 Z" id="Fill-1"></path>
                            <path d="M14.3020672,28.1168275 C14.0789635,28.3208172 13.7414477,28.3193526 13.5197742,28.1134799 L4.02315726,19.2873148 C1.54654287,16.9894489 0.225082557,14.7905442 0.00320471313,12.5880827 C-0.0325490831,12.2315714 0.235297928,11.919624 0.585072209,11.919624 L3.95430566,11.919624 C4.22051821,11.919624 4.45853634,12.1018549 4.51982856,12.3671461 C4.6808228,13.0651049 5.2573783,14.2214651 7.04241212,15.8776526 L13.5453126,21.9213977 C13.7669861,22.1272704 14.104502,22.1287349 14.3276056,21.9247452 L20.9586069,15.8663547 C22.7330167,14.2193729 23.3077334,13.0653141 23.4685234,12.3677738 C23.5298156,12.1024825 23.7678337,11.9202517 24.0340463,11.9202517 L27.4030754,11.9202517 C27.753054,11.9202517 28.020901,12.2321991 27.9849429,12.5885012 C27.7630651,14.790335 26.4418091,16.9894489 23.9639688,19.2887794 L14.3020672,28.1168275 Z" id="Fill-3"></path>
                        </g>
                    </g>
                </g>
            </g>
            <g id="Group-8" transform="translate(173.000000, 91.000000)">
                <path d="M0.499056607,8 L133,8" id="Line-Copy" stroke="#5300FF" stroke-width="2" stroke-linecap="round"></path>
                <path d="M124.999965,13 C124.447658,13 124,12.5522248 124,12.0000352 C124,11.4477283 124.447658,11.0000703 124.999965,11.0000703 L131.999953,11.0000703 L131.999953,3.99996484 C131.999953,3.447658 132.447611,3 132.999918,3 C133.552225,3 133.999883,3.44777519 133.999883,3.99996484 L133.999883,13 L124.999965,13 Z" id="Shape" fill="#5300FF" fill-rule="nonzero" transform="translate(129.000000, 8.000000) rotate(-45.000000) translate(-129.000000, -8.000000) "></path>
            </g>
            <g id="Group-6" transform="translate(236.000000, 149.000000)">
                <path d="M0,8 L70,8" id="Line" stroke="#5300FF" stroke-width="2" stroke-linecap="round"></path>
                <path d="M71,13 L61.9999648,13 C61.447658,13 61,12.5522248 61,12.0000352 C61,11.4477283 61.447658,11.0000703 61.9999648,11.0000703 L68.9999531,11.0000703 L68.9999531,3.99996484 C68.9999531,3.447658 69.4476111,3 69.999918,3 C70.5522248,3 70.9998828,3.44777519 70.9998828,3.99996484 L70.9998828,13 L71,13 Z" id="Shape-Copy" fill="#5300FF" fill-rule="nonzero" transform="translate(66.000000, 8.000000) rotate(-45.000000) translate(-66.000000, -8.000000) "></path>
            </g>
            <g id="Group-9" transform="translate(201.000000, 296.000000) scale(-1, -1) translate(-201.000000, -296.000000) translate(131.000000, 259.000000)">
                <g id="Group-8-Copy" transform="translate(70.000000, 8.000000) scale(-1, -1) rotate(180.000000) translate(-70.000000, -8.000000) ">
                    <path d="M0.499056607,8 L136,8" id="Line-Copy" stroke="#5300FF" stroke-width="2" stroke-linecap="round"></path>
                    <path d="M127.999982,13.0000414 C127.447675,13.0000414 127.000017,12.5522662 127.000017,12.0000766 C127.000017,11.4477697 127.447675,11.0001117 127.999982,11.0001117 L134.99997,11.0001117 L134.99997,4.00000628 C134.99997,3.44769943 135.447628,3.00004143 135.999935,3.00004143 C136.552242,3.00004143 136.9999,3.44781662 136.9999,4.00000628 L136.9999,13.0000414 L127.999982,13.0000414 Z" id="Shape" fill="#5300FF" fill-rule="nonzero" transform="translate(131.999959, 8.000041) rotate(-45.000000) translate(-131.999959, -8.000041) "></path>
                </g>
                <g id="Group-6-Copy" transform="translate(39.000000, 66.000000) scale(-1, -1) rotate(180.000000) translate(-39.000000, -66.000000) translate(1.000000, 58.000000)">
                    <path d="M0,8 L73,8" id="Line" stroke="#5300FF" stroke-width="2" stroke-linecap="round"></path>
                    <path d="M73,13 L63.9999648,13 C63.447658,13 63,12.5522248 63,12.0000352 C63,11.4477283 63.447658,11.0000703 63.9999648,11.0000703 L70.9999531,11.0000703 L70.9999531,3.99996484 C70.9999531,3.447658 71.4476111,3 71.999918,3 C72.5522248,3 72.9998828,3.44777519 72.9998828,3.99996484 L72.9998828,13 L73,13 Z" id="Shape-Copy" fill="#5300FF" fill-rule="nonzero" transform="translate(68.000000, 8.000000) rotate(-45.000000) translate(-68.000000, -8.000000) "></path>
                </g>
            </g>
        </g>
    </g>
</svg>