<?xml version="1.0" encoding="UTF-8" standalone="no"?>
<svg width="250px" height="292px" viewBox="0 0 250 292" version="1.1" xmlns="http://www.w3.org/2000/svg" xmlns:xlink="http://www.w3.org/1999/xlink">
    <!-- Generator: Sketch 49 (51002) - http://www.bohemiancoding.com/sketch -->
    <title>pre-rus</title>
    <desc>Created with Sketch.</desc>
    <defs>
        <radialGradient cx="50%" cy="50%" fx="50%" fy="50%" r="50.0301469%" id="radialGradient-1">
            <stop stop-color="#8800FF" offset="0%"></stop>
            <stop stop-color="#8600FB" offset="71.050849%"></stop>
            <stop stop-color="#EB00FE" offset="100%"></stop>
        </radialGradient>
        <path d="M124.534208,42.7629689 C132.711116,42.7630043 140.809466,43.5606594 148.829249,45.1559305 C156.849031,46.7512051 164.636136,49.1134456 172.190582,52.2426509 C179.745051,55.3718515 186.921705,59.2078968 193.720557,63.7507781 C200.519385,68.2936634 206.80975,73.4560958 212.591686,79.2380753 C218.373622,85.0200542 223.535985,91.3104899 228.078816,98.1093725 C232.621648,104.908265 236.457622,112.08496 239.586764,119.639458 C242.715941,127.193974 245.078181,134.981143 246.673414,143.000966 C248.268642,151.020783 249.066241,159.119169 249.066241,167.296094 C249.066206,175.473078 248.268572,183.571493 246.673269,191.591345 C245.078041,199.611197 242.715802,207.398378 239.586549,214.952916 C236.457372,222.507449 232.621334,229.684162 228.078462,236.483043 C223.535595,243.28193 218.373157,249.572364 212.591151,255.354352 C206.80918,261.13634 200.518781,266.298762 193.719865,270.841645 C186.920978,275.384512 179.744289,279.220539 172.189785,282.349698 C164.635281,285.478892 156.848106,287.841098 148.828289,289.436348 C140.808455,291.031593 132.710069,291.82921 124.533126,291.82921 C116.356143,291.829175 108.257746,291.031523 100.237911,289.436238 C92.2180591,287.840975 84.4308608,285.478736 76.8763221,282.349518 C69.3217834,279.220324 62.1450765,275.384285 55.3461899,270.841413 C48.5472975,266.298529 42.256863,261.136108 36.4748864,255.35412 C30.6929041,249.572155 25.5304769,243.281714 20.9876108,236.482834 C16.4447331,229.683947 12.6087116,222.507257 9.4795232,214.952736 C6.3503348,207.398232 3.98812395,199.611075 2.39288484,191.591257 C0.797622465,183.571423 0,175.473037 0,167.296094 C2.90693572e-05,159.119128 0.797680604,151.020731 2.3929546,143.000867 C3.9882286,134.981015 6.35046852,127.193829 9.47967436,119.639301 C12.6088802,112.084774 16.4449307,104.908062 20.9878143,98.109169 C25.530692,91.3102771 30.693125,85.0198327 36.4751074,79.2378532 C42.2570955,73.4558697 48.54753,68.2934419 55.346405,63.7505694 C62.1452858,59.2076974 69.3219985,55.3716695 76.8765023,52.2424863 C84.4310004,49.1133037 92.2181812,46.7510899 100.237998,45.1558462 C108.257815,43.5605977 116.356195,42.7629735 124.533126,42.7629735 L124.533022,98.8028744 C120.03573,98.8029034 115.581648,99.2416124 111.170768,100.119019 C106.759883,100.996413 102.476984,102.295645 98.3220195,104.016702 C94.1670548,105.737771 90.2199129,107.847601 86.480547,110.346188 C82.741187,112.844775 79.2814858,115.684113 76.1014203,118.864202 C72.9213547,122.044291 70.0820343,125.504033 67.5834823,129.24341 C65.0849246,132.982799 62.9751229,136.929982 61.2540833,141.084958 C59.5330552,145.239934 58.233841,149.522874 57.356458,153.933789 C56.4791041,158.344668 56.0404243,162.798791 56.0404068,167.296112 C56.0404243,171.793432 56.479139,176.247573 57.3565452,180.658487 C58.2339282,185.069408 59.5331599,189.352347 61.2542228,193.507341 C62.9753032,197.66234 65.0851164,201.609523 67.5837091,205.348918 C70.0823017,209.088319 72.9216395,212.548072 76.1017226,215.728155 C79.2818172,218.908238 82.7415591,221.747576 86.4809366,224.246169 C90.2203198,226.744721 94.1674967,228.85454 98.3224788,230.575603 C102.477461,232.29666 106.7604,233.595892 111.171297,234.473281 C115.5822,235.350646 120.0363,235.789332 124.533621,235.789332 C129.030947,235.789314 133.485081,235.350611 137.896019,234.473228 C142.306916,233.595822 146.589873,232.29659 150.744873,230.57551 C154.899872,228.854453 158.847049,226.744634 162.58645,224.246041 C166.325827,221.747448 169.785569,218.908116 172.965664,215.728033 C176.145764,212.54795 178.985102,209.088208 181.483695,205.348813 C183.98227,201.609413 186.092083,197.662236 187.813129,193.507254 C189.534168,189.352272 190.8334,185.069332 191.710789,180.658435 C192.588172,176.24752 193.026857,171.793415 193.02684,167.296112 C193.026823,162.798791 192.588119,158.344651 191.710736,153.933736 C190.83333,149.522816 189.534099,145.239859 187.813018,141.084865 C186.091979,136.929871 183.982159,132.982683 181.483567,129.243294 C178.98498,125.503905 176.145625,122.044169 172.965542,118.86408 C169.785459,115.683985 166.325723,112.844659 162.586322,110.346078 C158.846927,107.847491 154.899744,105.737678 150.744762,104.016626 C146.589786,102.295575 142.306846,100.996349 137.895961,100.11896 C133.485047,99.2415775 129.030947,98.802886 124.533621,98.802886 L124.534208,42.7629689 Z" id="path-2"></path>
        <filter x="0.0%" y="0.0%" width="100.0%" height="100.0%" filterUnits="objectBoundingBox" id="filter-3">
            <feOffset dx="0" dy="0" in="SourceAlpha" result="shadowOffsetOuter1"></feOffset>
            <feColorMatrix values="0 0 0 0 0.65382076   0 0 0 0 0.258187342   0 0 0 0 1  0 0 0 1 0" type="matrix" in="shadowOffsetOuter1"></feColorMatrix>
        </filter>
    </defs>
    <g id="Monoreto" stroke="none" stroke-width="1" fill="none" fill-rule="evenodd">
        <g id="pre-rus">
            <g id="Fill-8">
                <use fill="black" fill-opacity="1" filter="url(#filter-3)" xlink:href="#path-2"></use>
                <use fill="url(#radialGradient-1)" fill-rule="evenodd" xlink:href="#path-2"></use>
            </g>
            <circle id="Oval" fill="#FFFFFF" cx="125.65842" cy="168.421389" r="87.3982442"></circle>
            <path d="M79.8104252,194.478404 L77.4866071,194.478404 L77.4866071,191.335968 C75.5324873,191.124712 73.6839957,190.596571 72.2052024,189.777954 L72.2052024,186.820367 C74.2385432,188.114311 76.6151753,188.642452 78.7277372,188.642452 C81.1043694,188.642452 82.7151978,188.087904 82.7151978,186.345041 C82.7151978,182.067103 72.2844234,184.338107 72.2844234,177.789165 C72.2844234,174.778764 74.5818345,173.167936 77.4866071,172.824644 L77.4866071,169.655802 L79.8104252,169.655802 L79.8104252,172.798237 C81.5796958,172.930273 83.3489664,173.405599 84.5900965,174.144996 L84.5900965,177.023361 C83.0848961,176.019894 81.0251483,175.465347 79.0446215,175.491754 C76.8000245,175.491754 75.3476382,176.151929 75.3476382,177.736351 C75.3476382,181.723811 85.7784126,179.584843 85.7784126,186.186598 C85.7784126,189.751547 83.1113032,191.177526 79.8104252,191.362375 L79.8104252,194.478404 Z M87.9437885,182.067103 C87.9437885,176.812105 90.4260487,172.745423 95.9979307,172.745423 C101.569813,172.745423 104.052073,176.812105 104.052073,182.067103 C104.052073,187.3221 101.569813,191.388782 95.9979307,191.388782 C90.4260487,191.388782 87.9437885,187.3221 87.9437885,182.067103 Z M101.015265,182.067103 C101.015265,177.894793 99.4308438,175.491754 95.9979307,175.491754 C92.5386106,175.491754 90.9805962,177.894793 90.9805962,182.067103 C90.9805962,186.239413 92.5386106,188.642452 95.9979307,188.642452 C99.4308438,188.642452 101.015265,186.239413 101.015265,182.067103 Z M110.152095,189.593105 C110.152095,190.781421 109.333478,191.335968 108.382825,191.335968 C107.432172,191.335968 106.587147,190.781421 106.587147,189.593105 C106.587147,188.457602 107.432172,187.903055 108.382825,187.903055 C109.333478,187.903055 110.152095,188.457602 110.152095,189.593105 Z M112.68717,182.067103 C112.68717,176.812105 115.16943,172.745423 120.741312,172.745423 C126.313194,172.745423 128.795454,176.812105 128.795454,182.067103 C128.795454,187.3221 126.313194,191.388782 120.741312,191.388782 C115.16943,191.388782 112.68717,187.3221 112.68717,182.067103 Z M125.758646,182.067103 C125.758646,177.894793 124.174225,175.491754 120.741312,175.491754 C117.281992,175.491754 115.723977,177.894793 115.723977,182.067103 C115.723977,186.239413 117.281992,188.642452 120.741312,188.642452 C124.174225,188.642452 125.758646,186.239413 125.758646,182.067103 Z M131.805855,174.567508 C133.654347,173.299971 135.687687,172.745423 137.773842,172.745423 C141.418012,172.745423 144.085121,174.435473 144.085121,177.789165 C144.085121,180.825973 141.550047,182.62165 139.1206,184.074037 C136.796782,185.447202 134.604999,186.556297 134.578592,188.351974 L144.217156,188.325567 L144.217156,191.045491 L131.198493,191.045491 L131.198493,189.672326 C131.198493,185.28876 134.446557,183.625117 137.166481,182.014289 C139.252636,180.799566 141.07472,179.87532 141.07472,177.841979 C141.07472,176.283965 139.727962,175.465347 137.509772,175.465347 C135.687687,175.465347 133.707161,176.099115 131.805855,177.472281 L131.805855,174.567508 Z M147.940546,173.088715 L159.005089,173.088715 L159.005089,175.782231 L150.713284,175.782231 L150.449214,180.112983 C151.320645,179.901727 152.244891,179.796099 153.169137,179.796099 C156.628457,179.796099 159.850114,181.301299 159.850114,185.526423 C159.850114,189.408255 156.549236,191.388782 152.588183,191.388782 C150.502028,191.388782 148.415873,190.939863 146.831451,190.174059 L146.831451,187.348508 C148.336652,188.219939 150.369993,188.668859 152.244891,188.668859 C154.912001,188.668859 156.813306,187.612578 156.813306,185.500016 C156.813306,183.123384 154.779966,182.278359 151.928007,182.278359 C150.475621,182.278359 148.811978,182.568836 147.359592,183.07057 L147.940546,173.088715 Z M162.200339,182.067103 C162.200339,176.812105 164.682599,172.745423 170.254481,172.745423 C175.826363,172.745423 178.308624,176.812105 178.308624,182.067103 C178.308624,187.3221 175.826363,191.388782 170.254481,191.388782 C164.682599,191.388782 162.200339,187.3221 162.200339,182.067103 Z M175.271816,182.067103 C175.271816,177.894793 173.687395,175.491754 170.254481,175.491754 C166.795161,175.491754 165.237147,177.894793 165.237147,182.067103 C165.237147,186.239413 166.795161,188.642452 170.254481,188.642452 C173.687395,188.642452 175.271816,186.239413 175.271816,182.067103 Z M90.6637119,205.088715 L92.8819019,205.088715 L92.8819019,220.325567 L96.0771518,220.325567 L96.0771518,223.045491 L86.306553,223.045491 L86.306553,220.325567 L89.8979083,220.325567 L89.8979083,208.178336 L86.306553,209.525095 L86.306553,206.752357 L90.6637119,205.088715 Z M121.903221,204.560574 L124.623144,204.560574 L124.623144,223.045491 L121.612744,223.045491 L121.612744,210.106049 L115.776791,218.873181 L113.981114,218.873181 L108.145162,210.079642 L108.145162,223.045491 L105.134761,223.045491 L105.134761,204.560574 L107.854684,204.560574 L114.878953,215.149791 L121.903221,204.560574 Z M132.122739,223.045491 L129.112338,223.045491 L129.112338,204.560574 L131.93789,204.560574 L141.893338,218.08097 C141.866931,217.447202 141.866931,216.734212 141.866931,216.04763 L141.866931,204.560574 L144.877332,204.560574 L144.877332,223.045491 L142.05178,223.045491 L132.096332,209.525095 C132.122739,210.158863 132.122739,210.871853 132.122739,211.532028 L132.122739,223.045491 Z M152.376926,223.045491 L149.366526,223.045491 L149.366526,204.560574 L156.760492,204.560574 C160.219812,204.560574 163.863982,205.933739 163.863982,210.343712 C163.863982,213.64459 161.804234,215.229012 159.374788,215.809966 L165.289961,223.045491 L161.672199,223.045491 L156.126724,216.126851 L152.376926,216.126851 L152.376926,223.045491 Z M152.376926,207.306905 L152.376926,213.459741 L156.892527,213.459741 C158.873054,213.459741 160.800767,212.746752 160.800767,210.396526 C160.800767,208.019894 158.873054,207.306905 156.892527,207.306905 L152.376926,207.306905 Z" id="$0.0250-1-MNR" fill="#6202E1"></path>
            <path d="M19.9440543,1.1452514 L22.8060654,1.1452514 L22.8060654,15.6128492 L25.7993615,15.6128492 L25.7993615,19 L15.611652,19 L15.611652,15.6128492 L18.9725459,15.6128492 L18.9725459,5.08379888 L15.611652,6.34413408 L15.611652,2.79944134 L19.9440543,1.1452514 Z M27.5060654,10.0726257 C27.5060654,4.92625698 29.9479649,0.777653631 35.6457302,0.777653631 C41.3434956,0.777653631 43.7853951,4.92625698 43.7853951,10.0726257 C43.7853951,15.2189944 41.3434956,19.3675978 35.6457302,19.3675978 C29.9479649,19.3675978 27.5060654,15.2189944 27.5060654,10.0726257 Z M39.8468476,10.0726257 C39.8468476,6.26536313 38.5339984,4.24357542 35.6457302,4.24357542 C32.7574621,4.24357542 31.4446129,6.26536313 31.4446129,10.0726257 C31.4446129,13.8798883 32.7574621,15.901676 35.6457302,15.901676 C38.5339984,15.901676 39.8468476,13.8798883 39.8468476,10.0726257 Z M55.8373504,19 L52.2926576,19 L52.2926576,6.39664804 L55.7848364,6.39664804 L59.6971269,12.6458101 L63.6356744,6.39664804 L67.1015962,6.39664804 L67.1015962,19 L63.5831604,19 L63.5831604,11.5692737 L60.6161213,16.2692737 L58.8043895,16.2692737 L55.8373504,11.5692737 L55.8373504,19 Z M81.464166,15.7441341 C81.464166,16.4005587 81.8842777,16.5843575 82.3569034,16.5843575 C82.5669593,16.5843575 82.8032721,16.5581006 83.039585,16.4793296 L83.039585,18.8687151 C82.4619314,19.0787709 81.7267358,19.2363128 81.0177973,19.2363128 C79.7312051,19.2363128 78.7596967,18.7636872 78.2345571,17.8184358 C77.0004789,18.7899441 75.5563448,19.3675978 73.692099,19.3675978 C71.3289705,19.3675978 69.2809258,18.0022346 69.2809258,15.5078212 C69.2809258,12.3044693 72.3004789,11.3067039 74.8211492,11.3067039 C75.8189146,11.3067039 76.9217079,11.4379888 77.8144453,11.6480447 L77.8144453,11.201676 C77.8144453,9.94134078 76.81668,9.07486034 74.8474062,9.07486034 C73.1144453,9.07486034 71.5652833,9.54748603 70.3837191,10.0201117 L70.3837191,6.86927374 C71.4077414,6.52793296 73.3245012,6.02905028 75.267518,6.02905028 C79.0485235,6.02905028 81.464166,7.57821229 81.464166,11.7268156 L81.464166,15.7441341 Z M75.6613727,13.4860335 C74.3222666,13.4860335 73.0094174,13.9324022 73.0094174,15.2189944 C73.0094174,16.1642458 73.8758978,16.7681564 74.9786911,16.7681564 C76.0027135,16.7681564 76.9742219,16.4793296 77.8144453,15.7441341 L77.8144453,13.7748603 C77.2630487,13.6435754 76.4228252,13.4860335 75.6613727,13.4860335 Z M87.9758978,19 L83.8798085,19 L87.1881883,14.7726257 C85.4814844,14.0374302 84.615004,12.5145251 84.615004,10.8078212 C84.615004,8.44469274 86.3479649,6.39664804 89.6563448,6.39664804 L96.4831604,6.39664804 L96.4831604,19 L92.8334397,19 L92.8334397,15.2452514 L90.7853951,15.2452514 L87.9758978,19 Z M88.3172386,10.9128492 C88.3172386,11.9368715 89.0786911,12.5145251 90.3915403,12.5145251 L92.8334397,12.5145251 L92.8334397,9.2849162 L90.3915403,9.2849162 C89.0786911,9.2849162 88.3172386,9.86256983 88.3172386,10.9128492 Z M122.740144,14.1424581 L105.305507,14.1424581 L105.305507,11.0703911 L122.740144,11.0703911 L122.740144,14.1424581 Z M135.684836,1.1452514 L138.546848,1.1452514 L138.546848,15.6128492 L141.540144,15.6128492 L141.540144,19 L131.352434,19 L131.352434,15.6128492 L134.713328,15.6128492 L134.713328,5.08379888 L131.352434,6.34413408 L131.352434,2.79944134 L135.684836,1.1452514 Z M143.246848,10.0726257 C143.246848,4.92625698 145.688747,0.777653631 151.386512,0.777653631 C157.084278,0.777653631 159.526177,4.92625698 159.526177,10.0726257 C159.526177,15.2189944 157.084278,19.3675978 151.386512,19.3675978 C145.688747,19.3675978 143.246848,15.2189944 143.246848,10.0726257 Z M155.58763,10.0726257 C155.58763,6.26536313 154.274781,4.24357542 151.386512,4.24357542 C148.498244,4.24357542 147.185395,6.26536313 147.185395,10.0726257 C147.185395,13.8798883 148.498244,15.901676 151.386512,15.901676 C154.274781,15.901676 155.58763,13.8798883 155.58763,10.0726257 Z M171.210535,19 L168.03344,19 L168.03344,6.39664804 L171.68316,6.39664804 L171.68316,13.4860335 L177.302155,6.39664804 L180.452993,6.39664804 L180.452993,19 L176.829529,19 L176.829529,11.9106145 L171.210535,19 Z M203.112769,12.698324 C203.112769,17.1094972 199.804389,19.3675978 196.154669,19.3675978 C193.082602,19.3675978 190.14182,17.5821229 189.485395,14.1424581 L187.201038,14.1424581 L187.201038,19 L183.551317,19 L183.551317,6.39664804 L187.201038,6.39664804 L187.201038,11.2541899 L189.485395,11.2541899 C190.14182,7.81452514 193.082602,6.02905028 196.154669,6.02905028 C199.804389,6.02905028 203.112769,8.28715084 203.112769,12.698324 Z M192.92506,12.698324 C192.92506,14.6413408 193.975339,16.2692737 196.154669,16.2692737 C198.333998,16.2692737 199.410535,14.6413408 199.410535,12.698324 C199.410535,10.7553073 198.333998,9.1273743 196.154669,9.1273743 C193.975339,9.1273743 192.92506,10.7553073 192.92506,12.698324 Z M209.151875,19 L205.502155,19 L205.502155,6.39664804 L209.151875,6.39664804 L209.151875,11.175419 L214.24573,11.175419 L214.24573,6.39664804 L217.895451,6.39664804 L217.895451,19 L214.24573,19 L214.24573,14.2212291 L209.151875,14.2212291 L209.151875,19 Z M223.987071,19 L219.890982,19 L223.199362,14.7726257 C221.492658,14.0374302 220.626177,12.5145251 220.626177,10.8078212 C220.626177,8.44469274 222.359138,6.39664804 225.667518,6.39664804 L232.494334,6.39664804 L232.494334,19 L228.844613,19 L228.844613,15.2452514 L226.796568,15.2452514 L223.987071,19 Z M224.328412,10.9128492 C224.328412,11.9368715 225.089864,12.5145251 226.402713,12.5145251 L228.844613,12.5145251 L228.844613,9.2849162 L226.402713,9.2849162 C225.089864,9.2849162 224.328412,9.86256983 224.328412,10.9128492 Z" id="10-мая-—-10-июня" fill="#131F3C"></path>
            <path d="M96.9424983,104.251 L109.847498,104.251 L109.847498,108.746 L101.756498,108.717 L101.553498,111.617 C102.278498,111.501 103.003498,111.443 103.670498,111.443 C107.701498,111.443 110.717498,113.27 110.717498,117.707 C110.717498,122.579 106.396498,124.435 101.988498,124.435 C99.6974983,124.435 97.4064983,123.942 95.6374983,123.101 L95.6374983,118.171 C97.1744983,119.244 99.4944983,119.795 101.408498,119.795 C103.641498,119.795 105.352498,119.128 105.352498,117.591 C105.352498,116.344 104.337498,115.387 101.118498,115.358 C99.8714983,115.358 98.0734983,115.532 96.2464983,116.17 L96.9424983,104.251 Z M112.863498,114.14 C112.863498,108.514 115.560498,103.845 121.998498,103.845 C128.436498,103.845 131.133498,108.514 131.133498,114.14 C131.133498,119.766 128.436498,124.435 121.998498,124.435 C115.560498,124.435 112.863498,119.766 112.863498,114.14 Z M125.768498,114.14 C125.768498,110.341 124.579498,108.485 121.998498,108.485 C119.417498,108.485 118.228498,110.341 118.228498,114.14 C118.228498,117.939 119.417498,119.795 121.998498,119.795 C124.579498,119.795 125.768498,117.939 125.768498,114.14 Z M141.544498,125.74 L138.354498,125.74 L150.215498,101.96 L153.405498,101.96 L141.544498,125.74 Z M144.096498,108.485 C144.096498,111.965 141.544498,113.705 138.586498,113.705 C135.599498,113.705 133.047498,111.965 133.047498,108.485 C133.047498,105.005 135.599498,103.265 138.586498,103.265 C141.544498,103.265 144.096498,105.005 144.096498,108.485 Z M136.875498,108.485 C136.875498,109.355 137.339498,110.225 138.586498,110.225 C139.804498,110.225 140.268498,109.355 140.268498,108.485 C140.268498,107.615 139.804498,106.745 138.586498,106.745 C137.339498,106.745 136.875498,107.615 136.875498,108.485 Z M158.596498,119.215 C158.596498,122.695 156.044498,124.435 153.086498,124.435 C150.099498,124.435 147.547498,122.695 147.547498,119.215 C147.547498,115.735 150.099498,113.995 153.086498,113.995 C156.044498,113.995 158.596498,115.735 158.596498,119.215 Z M151.375498,119.215 C151.375498,120.085 151.839498,120.955 153.086498,120.955 C154.304498,120.955 154.768498,120.085 154.768498,119.215 C154.768498,118.345 154.304498,117.475 153.086498,117.475 C151.839498,117.475 151.375498,118.345 151.375498,119.215 Z" id="50%" fill="#6202E1"></path>
            <path d="M86.514929,136.547374 L89.7584466,136.547374 L89.7584466,153 L86.890989,153 L86.890989,151.354737 C86.1623727,152.365399 84.8696664,153.329053 82.8013363,153.329053 C79.2052624,153.329053 77.2779549,150.438091 77.2779549,147.3591 C77.2779549,144.280108 79.2052624,141.389147 82.8013363,141.389147 C84.5876214,141.389147 85.7863127,142.117763 86.514929,142.916891 L86.514929,136.547374 Z M86.514929,146.019386 C86.0683577,145.032228 85.0106889,144.139086 83.5769601,144.139086 C81.7201638,144.139086 80.6154875,145.596318 80.6154875,147.3591 C80.6154875,149.121881 81.7201638,150.579114 83.5769601,150.579114 C85.0106889,150.579114 86.0683577,149.685971 86.514929,148.698814 L86.514929,146.019386 Z M95.8224144,153 L92.555393,153 L92.555393,141.7182 L95.8224144,141.7182 L95.8224144,153 Z M96.1044594,137.981103 C96.1044594,139.273809 95.2113168,139.837899 94.1771518,139.837899 C93.1664905,139.837899 92.273348,139.273809 92.273348,137.981103 C92.273348,136.711901 93.1664905,136.147811 94.1771518,136.147811 C95.2113168,136.147811 96.1044594,136.711901 96.1044594,137.981103 Z M98.1492857,144.867702 C98.1492857,142.258786 100.476157,141.389147 102.850036,141.389147 C104.448291,141.389147 105.858516,141.788711 107.0102,142.352801 L107.0102,145.032228 C106.046546,144.374123 104.401283,143.880545 103.06157,143.880545 C102.332953,143.880545 101.486818,144.092078 101.486818,144.773687 C101.486818,146.653987 107.856335,145.713837 107.856335,149.850497 C107.856335,152.506421 105.435448,153.329053 102.732517,153.329053 C101.016743,153.329053 99.3949845,152.952992 98.2433007,152.271384 L98.2433007,149.568452 C99.4654958,150.36758 101.18127,150.767144 102.544487,150.767144 C103.743178,150.767144 104.518802,150.55561 104.518802,149.921009 C104.518802,148.11122 98.1492857,148.910347 98.1492857,144.867702 Z M109.219552,147.523626 C109.219552,143.198936 112.46307,141.365643 115.589069,141.365643 C116.834768,141.365643 118.056963,141.647688 119.067624,142.188275 L119.067624,145.055732 C118.268497,144.53865 117.140316,144.209597 116.059144,144.209597 C114.272859,144.209597 112.557085,145.079236 112.557085,147.3591 C112.557085,149.521445 114.249355,150.508602 116.012136,150.508602 C117.210828,150.508602 118.362512,150.17955 119.185143,149.685971 L119.185143,152.576932 C118.080466,153.047008 116.811264,153.329053 115.377535,153.329053 C112.298544,153.329053 109.219552,151.542767 109.219552,147.523626 Z M120.73639,147.3591 C120.73639,143.41047 123.697863,141.389147 126.964884,141.389147 C130.255409,141.389147 133.193378,143.41047 133.193378,147.3591 C133.193378,151.30773 130.255409,153.329053 126.964884,153.329053 C123.697863,153.329053 120.73639,151.30773 120.73639,147.3591 Z M129.879349,147.3591 C129.879349,145.619822 128.845184,144.303612 126.964884,144.303612 C125.108088,144.303612 124.073923,145.619822 124.073923,147.3591 C124.073923,149.098377 125.108088,150.414587 126.964884,150.414587 C128.845184,150.414587 129.879349,149.098377 129.879349,147.3591 Z M143.158969,141.7182 L146.42599,141.7182 L146.42599,153 L143.535029,153 L143.535029,151.566271 C142.66539,152.576932 141.372684,153.329053 139.774429,153.329053 C136.718941,153.329053 135.191197,151.30773 135.191197,148.698814 L135.191197,141.7182 L138.458219,141.7182 L138.458219,148.275746 C138.458219,149.779986 139.28085,150.508602 140.620564,150.508602 C141.795751,150.508602 142.66539,149.756482 143.158969,149.074874 L143.158969,141.7182 Z M152.090394,143.151928 C152.960033,142.141267 154.229235,141.389147 155.850994,141.389147 C158.812467,141.389147 160.434226,143.41047 160.434226,146.019386 L160.434226,153 L157.167204,153 L157.167204,146.442453 C157.167204,144.91471 156.250558,144.209597 154.981355,144.209597 C153.829672,144.209597 152.936529,144.961717 152.466454,145.643326 L152.466454,153 L149.199433,153 L149.199433,141.7182 L152.090394,141.7182 L152.090394,143.151928 Z M163.912781,138.427674 L167.156298,137.652051 L167.156298,141.7182 L170.728869,141.7182 L170.728869,144.468138 L167.156298,144.468138 L167.156298,148.886844 C167.156298,150.062031 167.743892,150.579114 168.966087,150.579114 C169.718207,150.579114 170.352809,150.461595 171.010914,150.203054 L171.010914,152.835474 C170.141275,153.141023 169.10711,153.329053 167.97893,153.329053 C165.793081,153.329053 163.912781,152.318391 163.912781,149.521445 L163.912781,144.468138 L162.008977,144.468138 L162.008977,141.7182 L163.912781,141.7182 L163.912781,138.427674 Z" id="discount" fill="#131F3C"></path>
        </g>
    </g>
</svg>