<?xml version="1.0" encoding="UTF-8" standalone="no"?>
<svg width="250px" height="291px" viewBox="0 0 250 291" version="1.1" xmlns="http://www.w3.org/2000/svg" xmlns:xlink="http://www.w3.org/1999/xlink">
    <!-- Generator: Sketch 49.2 (51160) - http://www.bohemiancoding.com/sketch -->
    <title>ru Group 32 Copy</title>
    <desc>Created with Sketch.</desc>
    <defs>
        <radialGradient cx="50%" cy="50%" fx="50%" fy="50%" r="50.0301469%" id="radialGradient-1">
            <stop stop-color="#8D00FF" offset="0%"></stop>
            <stop stop-color="#5C00FE" offset="69.8959662%"></stop>
            <stop stop-color="#8900FF" offset="100%"></stop>
        </radialGradient>
    </defs>
    <g id="Monoreto" stroke="none" stroke-width="1" fill="none" fill-rule="evenodd">
        <g id="ru-Group-32-Copy" transform="translate(0.000000, -7.000000)">
            <path d="M124.534208,48.7629689 C132.711116,48.7630043 140.809466,49.5606594 148.829249,51.1559305 C156.849031,52.7512051 164.636136,55.1134456 172.190582,58.2426509 C179.745051,61.3718515 186.921705,65.2078968 193.720557,69.7507781 C200.519385,74.2936634 206.80975,79.4560958 212.591686,85.2380753 C218.373622,91.0200542 223.535985,97.3104899 228.078816,104.109373 C232.621648,110.908265 236.457622,118.08496 239.586764,125.639458 C242.715941,133.193974 245.078181,140.981143 246.673414,149.000966 C248.268642,157.020783 249.066241,165.119169 249.066241,173.296094 C249.066206,181.473078 248.268572,189.571493 246.673269,197.591345 C245.078041,205.611197 242.715802,213.398378 239.586549,220.952916 C236.457372,228.507449 232.621334,235.684162 228.078462,242.483043 C223.535595,249.28193 218.373157,255.572364 212.591151,261.354352 C206.80918,267.13634 200.518781,272.298762 193.719865,276.841645 C186.920978,281.384512 179.744289,285.220539 172.189785,288.349698 C164.635281,291.478892 156.848106,293.841098 148.828289,295.436348 C140.808455,297.031593 132.710069,297.82921 124.533126,297.82921 C116.356143,297.829175 108.257746,297.031523 100.237911,295.436238 C92.2180591,293.840975 84.4308608,291.478736 76.8763221,288.349518 C69.3217834,285.220324 62.1450765,281.384285 55.3461899,276.841413 C48.5472975,272.298529 42.256863,267.136108 36.4748864,261.35412 C30.6929041,255.572155 25.5304769,249.281714 20.9876108,242.482834 C16.4447331,235.683947 12.6087116,228.507257 9.4795232,220.952736 C6.3503348,213.398232 3.98812395,205.611075 2.39288484,197.591257 C0.797622465,189.571423 0,181.473037 0,173.296094 C2.90693572e-05,165.119128 0.797680604,157.020731 2.3929546,149.000867 C3.9882286,140.981015 6.35046852,133.193829 9.47967436,125.639301 C12.6088802,118.084774 16.4449307,110.908062 20.9878143,104.109169 C25.530692,97.3102771 30.693125,91.0198327 36.4751074,85.2378532 C42.2570955,79.4558697 48.54753,74.2934419 55.346405,69.7505694 C62.1452858,65.2076974 69.3219985,61.3716695 76.8765023,58.2424863 C84.4310004,55.1133037 92.2181812,52.7510899 100.237998,51.1558462 C108.257815,49.5605977 116.356195,48.7629735 124.533126,48.7629735 L124.533022,104.802874 C120.03573,104.802903 115.581648,105.241612 111.170768,106.119019 C106.759883,106.996413 102.476984,108.295645 98.3220195,110.016702 C94.1670548,111.737771 90.2199129,113.847601 86.480547,116.346188 C82.741187,118.844775 79.2814858,121.684113 76.1014203,124.864202 C72.9213547,128.044291 70.0820343,131.504033 67.5834823,135.24341 C65.0849246,138.982799 62.9751229,142.929982 61.2540833,147.084958 C59.5330552,151.239934 58.233841,155.522874 57.356458,159.933789 C56.4791041,164.344668 56.0404243,168.798791 56.0404068,173.296112 C56.0404243,177.793432 56.479139,182.247573 57.3565452,186.658487 C58.2339282,191.069408 59.5331599,195.352347 61.2542228,199.507341 C62.9753032,203.66234 65.0851164,207.609523 67.5837091,211.348918 C70.0823017,215.088319 72.9216395,218.548072 76.1017226,221.728155 C79.2818172,224.908238 82.7415591,227.747576 86.4809366,230.246169 C90.2203198,232.744721 94.1674967,234.85454 98.3224788,236.575603 C102.477461,238.29666 106.7604,239.595892 111.171297,240.473281 C115.5822,241.350646 120.0363,241.789332 124.533621,241.789332 C129.030947,241.789314 133.485081,241.350611 137.896019,240.473228 C142.306916,239.595822 146.589873,238.29659 150.744873,236.57551 C154.899872,234.854453 158.847049,232.744634 162.58645,230.246041 C166.325827,227.747448 169.785569,224.908116 172.965664,221.728033 C176.145764,218.54795 178.985102,215.088208 181.483695,211.348813 C183.98227,207.609413 186.092083,203.662236 187.813129,199.507254 C189.534168,195.352272 190.8334,191.069332 191.710789,186.658435 C192.588172,182.24752 193.026857,177.793415 193.02684,173.296112 C193.026823,168.798791 192.588119,164.344651 191.710736,159.933736 C190.83333,155.522816 189.534099,151.239859 187.813018,147.084865 C186.091979,142.929871 183.982159,138.982683 181.483567,135.243294 C178.98498,131.503905 176.145625,128.044169 172.965542,124.86408 C169.785459,121.683985 166.325723,118.844659 162.586322,116.346078 C158.846927,113.847491 154.899744,111.737678 150.744762,110.016626 C146.589786,108.295575 142.306846,106.996349 137.895961,106.11896 C133.485047,105.241577 129.030947,104.802886 124.533621,104.802886 L124.534208,48.7629689 Z" id="Fill-8" fill="url(#radialGradient-1)"></path>
            <g id="1" transform="translate(38.000000, 0.000000)">
                <circle id="Oval" fill="#FFFFFF" cx="87.6584198" cy="174.421389" r="87.3982442"></circle>
                <path d="M39.354572,200.478404 L37.0307539,200.478404 L37.0307539,197.335968 C35.0766341,197.124712 33.2281425,196.596571 31.7493492,195.777954 L31.7493492,192.820367 C33.78269,194.114311 36.1593221,194.642452 38.271884,194.642452 C40.6485161,194.642452 42.2593446,194.087904 42.2593446,192.345041 C42.2593446,188.067103 31.8285702,190.338107 31.8285702,183.789165 C31.8285702,180.778764 34.1259813,179.167936 37.0307539,178.824644 L37.0307539,175.655802 L39.354572,175.655802 L39.354572,178.798237 C41.1238426,178.930273 42.8931132,179.405599 44.1342433,180.144996 L44.1342433,183.023361 C42.6290429,182.019894 40.5692951,181.465347 38.5887683,181.491754 C36.3441713,181.491754 34.891785,182.151929 34.891785,183.736351 C34.891785,187.723811 45.3225593,185.584843 45.3225593,192.186598 C45.3225593,195.751547 42.65545,197.177526 39.354572,197.362375 L39.354572,200.478404 Z M47.4879353,188.067103 C47.4879353,182.812105 49.9701955,178.745423 55.5420775,178.745423 C61.1139595,178.745423 63.5962198,182.812105 63.5962198,188.067103 C63.5962198,193.3221 61.1139595,197.388782 55.5420775,197.388782 C49.9701955,197.388782 47.4879353,193.3221 47.4879353,188.067103 Z M60.559412,188.067103 C60.559412,183.894793 58.9749906,181.491754 55.5420775,181.491754 C52.0827574,181.491754 50.524743,183.894793 50.524743,188.067103 C50.524743,192.239413 52.0827574,194.642452 55.5420775,194.642452 C58.9749906,194.642452 60.559412,192.239413 60.559412,188.067103 Z M69.6962422,195.593105 C69.6962422,196.781421 68.8776245,197.335968 67.9269716,197.335968 C66.9763188,197.335968 66.131294,196.781421 66.131294,195.593105 C66.131294,194.457602 66.9763188,193.903055 67.9269716,193.903055 C68.8776245,193.903055 69.6962422,194.457602 69.6962422,195.593105 Z M72.2313165,188.067103 C72.2313165,182.812105 74.7135767,178.745423 80.2854587,178.745423 C85.8573408,178.745423 88.339601,182.812105 88.339601,188.067103 C88.339601,193.3221 85.8573408,197.388782 80.2854587,197.388782 C74.7135767,197.388782 72.2313165,193.3221 72.2313165,188.067103 Z M85.3027933,188.067103 C85.3027933,183.894793 83.7183718,181.491754 80.2854587,181.491754 C76.8261386,181.491754 75.2681242,183.894793 75.2681242,188.067103 C75.2681242,192.239413 76.8261386,194.642452 80.2854587,194.642452 C83.7183718,194.642452 85.3027933,192.239413 85.3027933,188.067103 Z M99.8002493,179.088715 L102.889871,179.088715 L102.889871,190.760619 L105.979493,190.760619 L105.979493,193.374915 L102.889871,193.374915 L102.889871,197.045491 L99.9850984,197.045491 L99.9850984,193.374915 L90.2409067,193.374915 L90.2409067,190.813433 L99.8002493,179.088715 Z M99.9850984,190.760619 L99.9850984,182.917733 L93.5945987,190.760619 L99.9850984,190.760619 Z M108.012834,188.067103 C108.012834,182.812105 110.495094,178.745423 116.066976,178.745423 C121.638858,178.745423 124.121118,182.812105 124.121118,188.067103 C124.121118,193.3221 121.638858,197.388782 116.066976,197.388782 C110.495094,197.388782 108.012834,193.3221 108.012834,188.067103 Z M121.08431,188.067103 C121.08431,183.894793 119.499889,181.491754 116.066976,181.491754 C112.607656,181.491754 111.049641,183.894793 111.049641,188.067103 C111.049641,192.239413 112.607656,194.642452 116.066976,194.642452 C119.499889,194.642452 121.08431,192.239413 121.08431,188.067103 Z M126.656192,188.067103 C126.656192,182.812105 129.138453,178.745423 134.710335,178.745423 C140.282217,178.745423 142.764477,182.812105 142.764477,188.067103 C142.764477,193.3221 140.282217,197.388782 134.710335,197.388782 C129.138453,197.388782 126.656192,193.3221 126.656192,188.067103 Z M139.727669,188.067103 C139.727669,183.894793 138.143248,181.491754 134.710335,181.491754 C131.251015,181.491754 129.693,183.894793 129.693,188.067103 C129.693,192.239413 131.251015,194.642452 134.710335,194.642452 C138.143248,194.642452 139.727669,192.239413 139.727669,188.067103 Z M52.6637119,211.088715 L54.8819019,211.088715 L54.8819019,226.325567 L58.0771518,226.325567 L58.0771518,229.045491 L48.306553,229.045491 L48.306553,226.325567 L51.8979083,226.325567 L51.8979083,214.178336 L48.306553,215.525095 L48.306553,212.752357 L52.6637119,211.088715 Z M83.903221,210.560574 L86.6231444,210.560574 L86.6231444,229.045491 L83.6127437,229.045491 L83.6127437,216.106049 L77.7767915,224.873181 L75.9811139,224.873181 L70.1451616,216.079642 L70.1451616,229.045491 L67.1347609,229.045491 L67.1347609,210.560574 L69.8546844,210.560574 L76.8789527,221.149791 L83.903221,210.560574 Z M94.1227392,229.045491 L91.1123385,229.045491 L91.1123385,210.560574 L93.93789,210.560574 L103.893338,224.08097 C103.866931,223.447202 103.866931,222.734212 103.866931,222.04763 L103.866931,210.560574 L106.877332,210.560574 L106.877332,229.045491 L104.05178,229.045491 L94.0963322,215.525095 C94.1227392,216.158863 94.1227392,216.871853 94.1227392,217.532028 L94.1227392,229.045491 Z M114.376926,229.045491 L111.366526,229.045491 L111.366526,210.560574 L118.760492,210.560574 C122.219812,210.560574 125.863982,211.933739 125.863982,216.343712 C125.863982,219.64459 123.804234,221.229012 121.374788,221.809966 L127.289961,229.045491 L123.672199,229.045491 L118.126724,222.126851 L114.376926,222.126851 L114.376926,229.045491 Z M114.376926,213.306905 L114.376926,219.459741 L118.892527,219.459741 C120.873054,219.459741 122.800767,218.746752 122.800767,216.396526 C122.800767,214.019894 120.873054,213.306905 118.892527,213.306905 L114.376926,213.306905 Z" id="$0.0400-1-MNR" fill="#131F3C"></path>
                <path d="M27.2504789,7.1452514 L30.11249,7.1452514 L30.11249,21.6128492 L33.1057861,21.6128492 L33.1057861,25 L22.9180766,25 L22.9180766,21.6128492 L26.2789705,21.6128492 L26.2789705,11.0837989 L22.9180766,12.3441341 L22.9180766,8.79944134 L27.2504789,7.1452514 Z M36.0203113,7.11899441 L47.363328,7.11899441 L47.363328,10.5061453 L39.565004,10.4798883 L39.3286911,13.972067 C40.0901437,13.8145251 40.9041101,13.7094972 41.6393057,13.7094972 C45.2102554,13.7094972 48.1772945,15.3111732 48.1772945,19.4072626 C48.1772945,23.5558659 44.5538308,25.3675978 40.6152833,25.3675978 C38.5409816,25.3675978 36.440423,24.9212291 34.865004,24.1597765 L34.865004,20.5100559 C36.3091381,21.4290503 38.3834397,21.927933 40.1689146,21.927933 C42.5057861,21.927933 44.238747,21.0877095 44.238747,19.3547486 C44.238747,17.5955307 42.742099,16.7290503 39.8800878,16.7290503 C38.5934956,16.7290503 36.9393057,16.9391061 35.3901437,17.4905028 L36.0203113,7.11899441 Z M67.791261,21.7441341 C67.791261,22.4005587 68.2113727,22.5843575 68.6839984,22.5843575 C68.8940543,22.5843575 69.1303671,22.5581006 69.36668,22.4793296 L69.36668,24.8687151 C68.7890263,25.0787709 68.0538308,25.2363128 67.3448923,25.2363128 C66.0583001,25.2363128 65.0867917,24.7636872 64.561652,23.8184358 C63.3275738,24.7899441 61.8834397,25.3675978 60.0191939,25.3675978 C57.6560654,25.3675978 55.6080208,24.0022346 55.6080208,21.5078212 C55.6080208,18.3044693 58.6275738,17.3067039 61.1482442,17.3067039 C62.1460096,17.3067039 63.2488029,17.4379888 64.1415403,17.6480447 L64.1415403,17.201676 C64.1415403,15.9413408 63.1437749,15.0748603 61.1745012,15.0748603 C59.4415403,15.0748603 57.8923783,15.547486 56.710814,16.0201117 L56.710814,12.8692737 C57.7348364,12.527933 59.6515962,12.0290503 61.5946129,12.0290503 C65.3756185,12.0290503 67.791261,13.5782123 67.791261,17.7268156 L67.791261,21.7441341 Z M61.9884677,19.4860335 C60.6493615,19.4860335 59.3365124,19.9324022 59.3365124,21.2189944 C59.3365124,22.1642458 60.2029928,22.7681564 61.3057861,22.7681564 C62.3298085,22.7681564 63.3013168,22.4793296 64.1415403,21.7441341 L64.1415403,19.7748603 C63.5901437,19.6435754 62.7499202,19.4860335 61.9884677,19.4860335 Z M79.0292498,25 L71.3096967,25 L71.3096967,12.396648 L78.8191939,12.396648 C81.81249,12.396648 82.9677973,14.024581 82.9677973,15.7312849 C82.9677973,17.175419 82.2588587,18.1469274 81.0247805,18.6195531 C82.3901437,19.0659218 83.2566241,20.0636872 83.2566241,21.5865922 C83.2566241,23.372067 82.2063448,25 79.0292498,25 Z M74.9594174,19.7748603 L74.9594174,22.5055866 L77.9527135,22.5055866 C78.8717079,22.5055866 79.6331604,22.1642458 79.6331604,21.1664804 C79.6331604,20.0899441 78.8454509,19.7748603 77.9527135,19.7748603 L74.9594174,19.7748603 Z M74.9331604,14.8910615 L74.9331604,17.5692737 L77.7164006,17.5692737 C78.5828811,17.5692737 79.2918196,17.227933 79.2918196,16.2564246 C79.2918196,15.2061453 78.5303671,14.8910615 77.6901437,14.8910615 L74.9331604,14.8910615 Z M89.3745012,25 L85.7247805,25 L85.7247805,12.396648 L95.3348364,12.396648 L95.3348364,15.4687151 L89.3745012,15.4687151 L89.3745012,25 Z M103.343216,20.9039106 L106.467797,12.396648 L110.248803,12.396648 L104.656065,26.522905 C103.238188,30.0413408 101.268915,31.1178771 99.2208699,31.1178771 C98.5644453,31.1178771 97.9080208,30.9865922 97.2515962,30.8290503 L97.2515962,27.8094972 C97.7504789,27.9145251 98.2493615,27.9932961 98.7482442,27.9932961 C100.061093,27.9932961 101.058859,27.1005587 101.74154,25.2363128 L101.767797,25.1837989 L95.8074621,12.396648 L99.6672386,12.396648 L103.343216,20.9039106 Z M111.351596,18.8821229 C111.351596,14.050838 114.97506,12.0027933 118.467239,12.0027933 C119.858859,12.0027933 121.224222,12.3178771 122.353272,12.9217877 L122.353272,16.1251397 C121.460535,15.547486 120.2002,15.1798883 118.992378,15.1798883 C116.996848,15.1798883 115.080088,16.1513966 115.080088,18.698324 C115.080088,21.1139665 116.970591,22.2167598 118.939864,22.2167598 C120.27897,22.2167598 121.565563,21.849162 122.484557,21.2977654 L122.484557,24.5273743 C121.250479,25.052514 119.832602,25.3675978 118.230926,25.3675978 C114.791261,25.3675978 111.351596,23.372067 111.351596,18.8821229 Z M131.516959,25 L127.893496,25 L127.893496,15.4687151 L123.876177,15.4687151 L123.876177,12.396648 L135.534278,12.396648 L135.534278,15.4687151 L131.516959,15.4687151 L131.516959,25 Z M148.767797,21.7441341 C148.767797,22.4005587 149.187909,22.5843575 149.660535,22.5843575 C149.870591,22.5843575 150.106903,22.5581006 150.343216,22.4793296 L150.343216,24.8687151 C149.765563,25.0787709 149.030367,25.2363128 148.321429,25.2363128 C147.034836,25.2363128 146.063328,24.7636872 145.538188,23.8184358 C144.30411,24.7899441 142.859976,25.3675978 140.99573,25.3675978 C138.632602,25.3675978 136.584557,24.0022346 136.584557,21.5078212 C136.584557,18.3044693 139.60411,17.3067039 142.124781,17.3067039 C143.122546,17.3067039 144.225339,17.4379888 145.118077,17.6480447 L145.118077,17.201676 C145.118077,15.9413408 144.120311,15.0748603 142.151038,15.0748603 C140.418077,15.0748603 138.868915,15.547486 137.68735,16.0201117 L137.68735,12.8692737 C138.711373,12.527933 140.628132,12.0290503 142.571149,12.0290503 C146.352155,12.0290503 148.767797,13.5782123 148.767797,17.7268156 L148.767797,21.7441341 Z M142.965004,19.4860335 C141.625898,19.4860335 140.313049,19.9324022 140.313049,21.2189944 C140.313049,22.1642458 141.179529,22.7681564 142.282322,22.7681564 C143.306345,22.7681564 144.277853,22.4793296 145.118077,21.7441341 L145.118077,19.7748603 C144.56668,19.6435754 143.726457,19.4860335 142.965004,19.4860335 Z" id="15-августа" fill="#131F3C"></path>
                <path d="M57.044206,112.636931 C59.0605623,111.208679 61.4129781,110.53656 63.8494087,110.53656 C67.6580818,110.53656 71.0466807,112.216857 71.0466807,116.445604 C71.0466807,119.666174 68.4142155,121.57051 66.0057898,123.026768 C63.9614285,124.258985 62.3651464,125.155144 62.3651464,125.659233 L71.1867055,125.659233 L71.1867055,130 L56.4280971,130 L56.4280971,127.731599 C56.4280971,123.138787 59.9287158,121.346471 62.6451959,119.750188 C64.4095077,118.714005 65.8657651,118.181911 65.8657651,116.725654 C65.8657651,115.577451 64.8295819,115.017352 63.3733245,115.017352 C61.468988,115.017352 59.1165722,115.773486 57.044206,117.397773 L57.044206,112.636931 Z M73.4831113,120.478317 C73.4831113,115.045357 76.0875716,110.53656 82.3046704,110.53656 C88.5217692,110.53656 91.1262295,115.045357 91.1262295,120.478317 C91.1262295,125.911277 88.5217692,130.420074 82.3046704,130.420074 C76.0875716,130.420074 73.4831113,125.911277 73.4831113,120.478317 Z M85.9453138,120.478317 C85.9453138,116.809669 84.7971109,115.017352 82.3046704,115.017352 C79.8122299,115.017352 78.664027,116.809669 78.664027,120.478317 C78.664027,124.146966 79.8122299,125.939282 82.3046704,125.939282 C84.7971109,125.939282 85.9453138,124.146966 85.9453138,120.478317 Z M101.180006,131.680297 L98.0994619,131.680297 L109.553486,108.716238 L112.634031,108.716238 L101.180006,131.680297 Z M103.644442,115.017352 C103.644442,118.377946 101.180006,120.058243 98.3235015,120.058243 C95.4389917,120.058243 92.9745562,118.377946 92.9745562,115.017352 C92.9745562,111.656758 95.4389917,109.976461 98.3235015,109.976461 C101.180006,109.976461 103.644442,111.656758 103.644442,115.017352 Z M96.6712095,115.017352 C96.6712095,115.857501 97.1192887,116.697649 98.3235015,116.697649 C99.4997094,116.697649 99.9477886,115.857501 99.9477886,115.017352 C99.9477886,114.177204 99.4997094,113.337055 98.3235015,113.337055 C97.1192887,113.337055 96.6712095,114.177204 96.6712095,115.017352 Z M117.646917,125.379183 C117.646917,128.739777 115.182481,130.420074 112.325976,130.420074 C109.441466,130.420074 106.977031,128.739777 106.977031,125.379183 C106.977031,122.018589 109.441466,120.338292 112.325976,120.338292 C115.182481,120.338292 117.646917,122.018589 117.646917,125.379183 Z M110.673684,125.379183 C110.673684,126.219332 111.121763,127.05948 112.325976,127.05948 C113.502184,127.05948 113.950263,126.219332 113.950263,125.379183 C113.950263,124.539035 113.502184,123.698886 112.325976,123.698886 C111.121763,123.698886 110.673684,124.539035 110.673684,125.379183 Z" id="20%" fill="#131F3C"></path>
                <path d="M48.514929,142.547374 L51.7584466,142.547374 L51.7584466,159 L48.890989,159 L48.890989,157.354737 C48.1623727,158.365399 46.8696664,159.329053 44.8013363,159.329053 C41.2052624,159.329053 39.2779549,156.438091 39.2779549,153.3591 C39.2779549,150.280108 41.2052624,147.389147 44.8013363,147.389147 C46.5876214,147.389147 47.7863127,148.117763 48.514929,148.916891 L48.514929,142.547374 Z M48.514929,152.019386 C48.0683577,151.032228 47.0106889,150.139086 45.5769601,150.139086 C43.7201638,150.139086 42.6154875,151.596318 42.6154875,153.3591 C42.6154875,155.121881 43.7201638,156.579114 45.5769601,156.579114 C47.0106889,156.579114 48.0683577,155.685971 48.514929,154.698814 L48.514929,152.019386 Z M57.8224144,159 L54.555393,159 L54.555393,147.7182 L57.8224144,147.7182 L57.8224144,159 Z M58.1044594,143.981103 C58.1044594,145.273809 57.2113168,145.837899 56.1771518,145.837899 C55.1664905,145.837899 54.273348,145.273809 54.273348,143.981103 C54.273348,142.711901 55.1664905,142.147811 56.1771518,142.147811 C57.2113168,142.147811 58.1044594,142.711901 58.1044594,143.981103 Z M60.1492857,150.867702 C60.1492857,148.258786 62.476157,147.389147 64.8500359,147.389147 C66.4482909,147.389147 67.858516,147.788711 69.0101998,148.352801 L69.0101998,151.032228 C68.046546,150.374123 66.4012834,149.880545 65.0615696,149.880545 C64.3329534,149.880545 63.4868183,150.092078 63.4868183,150.773687 C63.4868183,152.653987 69.8563348,151.713837 69.8563348,155.850497 C69.8563348,158.506421 67.4354485,159.329053 64.7325171,159.329053 C63.0167433,159.329053 61.3949845,158.952992 60.2433007,158.271384 L60.2433007,155.568452 C61.4654958,156.36758 63.1812696,156.767144 64.5444871,156.767144 C65.7431784,156.767144 66.5188022,156.55561 66.5188022,155.921009 C66.5188022,154.11122 60.1492857,154.910347 60.1492857,150.867702 Z M71.2195524,153.523626 C71.2195524,149.198936 74.46307,147.365643 77.5890689,147.365643 C78.8347677,147.365643 80.0569627,147.647688 81.067624,148.188275 L81.067624,151.055732 C80.2684965,150.53865 79.1403165,150.209597 78.0591439,150.209597 C76.2728588,150.209597 74.557085,151.079236 74.557085,153.3591 C74.557085,155.521445 76.2493551,156.508602 78.0121364,156.508602 C79.2108277,156.508602 80.3625115,156.17955 81.1851428,155.685971 L81.1851428,158.576932 C80.0804665,159.047008 78.8112639,159.329053 77.3775351,159.329053 C74.2985438,159.329053 71.2195524,157.542767 71.2195524,153.523626 Z M82.7363904,153.3591 C82.7363904,149.41047 85.697863,147.389147 88.9648844,147.389147 C92.2554095,147.389147 95.1933783,149.41047 95.1933783,153.3591 C95.1933783,157.30773 92.2554095,159.329053 88.9648844,159.329053 C85.697863,159.329053 82.7363904,157.30773 82.7363904,153.3591 Z M91.8793495,153.3591 C91.8793495,151.619822 90.8451844,150.303612 88.9648844,150.303612 C87.108088,150.303612 86.073923,151.619822 86.073923,153.3591 C86.073923,155.098377 87.108088,156.414587 88.9648844,156.414587 C90.8451844,156.414587 91.8793495,155.098377 91.8793495,153.3591 Z M105.158969,147.7182 L108.42599,147.7182 L108.42599,159 L105.535029,159 L105.535029,157.566271 C104.66539,158.576932 103.372684,159.329053 101.774429,159.329053 C98.718941,159.329053 97.1911972,157.30773 97.1911972,154.698814 L97.1911972,147.7182 L100.458219,147.7182 L100.458219,154.275746 C100.458219,155.779986 101.28085,156.508602 102.620564,156.508602 C103.795751,156.508602 104.66539,155.756482 105.158969,155.074874 L105.158969,147.7182 Z M114.090394,149.151928 C114.960033,148.141267 116.229235,147.389147 117.850994,147.389147 C120.812467,147.389147 122.434226,149.41047 122.434226,152.019386 L122.434226,159 L119.167204,159 L119.167204,152.442453 C119.167204,150.91471 118.250558,150.209597 116.981355,150.209597 C115.829672,150.209597 114.936529,150.961717 114.466454,151.643326 L114.466454,159 L111.199433,159 L111.199433,147.7182 L114.090394,147.7182 L114.090394,149.151928 Z M125.912781,144.427674 L129.156298,143.652051 L129.156298,147.7182 L132.728869,147.7182 L132.728869,150.468138 L129.156298,150.468138 L129.156298,154.886844 C129.156298,156.062031 129.743892,156.579114 130.966087,156.579114 C131.718207,156.579114 132.352809,156.461595 133.010914,156.203054 L133.010914,158.835474 C132.141275,159.141023 131.10711,159.329053 129.97893,159.329053 C127.793081,159.329053 125.912781,158.318391 125.912781,155.521445 L125.912781,150.468138 L124.008977,150.468138 L124.008977,147.7182 L125.912781,147.7182 L125.912781,144.427674 Z" id="discount" fill="#131F3C"></path>
            </g>
        </g>
    </g>
</svg>