<?xml version="1.0" encoding="UTF-8" standalone="no"?>
<svg width="250px" height="292px" viewBox="0 0 250 292" version="1.1" xmlns="http://www.w3.org/2000/svg" xmlns:xlink="http://www.w3.org/1999/xlink">
    <!-- Generator: Sketch 49.2 (51160) - http://www.bohemiancoding.com/sketch -->
    <title>ru Group 33 Copy</title>
    <desc>Created with Sketch.</desc>
    <defs>
        <radialGradient cx="100%" cy="100%" fx="100%" fy="100%" r="99.1278446%" gradientTransform="translate(1.000000,1.000000),scale(1.000000,0.999999),rotate(90.000000),translate(-1.000000,-1.000000)" id="radialGradient-1">
            <stop stop-color="#FF9495" offset="0%"></stop>
            <stop stop-color="#FE5F60" offset="70.3742825%"></stop>
            <stop stop-color="#FF9091" offset="100%"></stop>
        </radialGradient>
        <radialGradient cx="50%" cy="50%" fx="50%" fy="50%" r="50.0301469%" id="radialGradient-2">
            <stop stop-color="#8D00FF" offset="0%"></stop>
            <stop stop-color="#5C00FE" offset="69.8959662%"></stop>
            <stop stop-color="#8900FF" offset="100%"></stop>
        </radialGradient>
    </defs>
    <g id="Monoreto" stroke="none" stroke-width="1" fill="none" fill-rule="evenodd">
        <g id="ru-Group-33-Copy" transform="translate(-1.000000, -6.000000)">
            <g id="2">
                <g id="Group-37" transform="translate(126.000000, 173.000000) scale(-1, 1) translate(-126.000000, -173.000000) translate(1.000000, 48.000000)">
                    <path d="M0.125299282,125.399666 C0.125328375,117.215883 0.923643196,109.110752 2.52024374,101.084219 C4.11684429,93.0576984 6.48104853,85.2640364 9.61285646,77.7032273 C12.7446644,70.1424182 16.5839048,62.9597378 21.130566,56.1551917 C25.6772213,49.3506463 30.8439471,43.0549711 36.6307375,37.2681836 C42.4175337,31.4813921 48.713199,26.3146716 55.5177275,21.7680214 C62.3222619,17.2213719 69.5049424,13.3821542 77.0657282,10.2503689 C84.6265082,7.11858429 92.4201644,4.75440624 100.44665,3.15783595 C108.473136,1.561261 116.578146,0.762968875 124.761876,0.762968875 L124.761876,56.8494739 C120.260845,56.849503 115.803059,57.2885767 111.388512,58.1667126 C106.973958,59.0448368 102.687498,60.3451488 98.5290783,62.0676371 C94.3706587,63.7901369 90.4202345,65.9017221 86.6777591,68.4023866 C82.9352897,70.9030511 79.4727116,73.74475 76.2900016,76.9274833 C73.1072916,80.1102165 70.2656102,83.5728353 67.7649806,87.3153223 C65.2643452,91.0578208 63.1527891,95.0082858 61.4303183,99.1667171 C59.7078592,103.325148 58.4075646,107.611649 57.529452,112.026232 C56.6513686,116.440779 56.2123239,120.898606 56.2123065,125.399666 L0.125299282,125.399666 Z" id="Fill-8" fill="url(#radialGradient-1)"></path>
                    <path d="M124.827496,0.762968875 C133.004404,0.763004339 141.102755,1.56065937 149.122537,3.15593047 C157.142319,4.75120506 164.929424,7.11344558 172.48387,10.2426509 C180.038339,13.3718515 187.214993,17.2078968 194.013845,21.7507781 C200.812674,26.2936634 207.103038,31.4560958 212.884974,37.2380753 C218.66691,43.0200542 223.829273,49.3104899 228.372104,56.1093725 C232.914936,62.908265 236.750911,70.0849603 239.880053,77.6394584 C243.009229,85.1939739 245.371469,92.9811431 246.966703,101.000966 C248.56193,109.020783 249.359529,117.119169 249.359529,125.296094 C249.359494,133.473078 248.56186,141.571493 246.966557,149.591345 C245.37133,157.611197 243.00909,165.398378 239.879837,172.952916 C236.750661,180.507449 232.914622,187.684162 228.37175,194.483043 C223.828884,201.28193 218.666445,207.572364 212.884439,213.354352 C207.102469,219.13634 200.812069,224.298762 194.013153,228.841645 C187.214267,233.384512 180.037577,237.220539 172.483073,240.349698 C164.92857,243.478892 157.141395,245.841098 149.121577,247.436348 C141.101743,249.031593 133.003357,249.82921 124.826415,249.82921 C116.649431,249.829175 108.551034,249.031523 100.531199,247.436238 C92.5113473,245.840975 84.7241491,243.478736 77.1696103,240.349518 C69.6150716,237.220324 62.4383647,233.384285 55.6394781,228.841413 C48.8405857,224.298529 42.5501512,219.136108 36.7681746,213.35412 C30.9861923,207.572155 25.8237651,201.281714 21.280899,194.482834 C16.7380213,187.683947 12.9019998,180.507257 9.77281141,172.952736 C6.64362301,165.398232 4.28141216,157.611075 2.68617305,149.591257 C1.09091068,141.571423 0.29328821,133.473037 0.29328821,125.296094 C0.29328821,125.296091 18.9734238,125.296097 56.333695,125.296112 C56.3337125,129.793432 56.7724272,134.247573 57.6498335,138.658487 C58.5272164,143.069408 59.8264481,147.352347 61.547511,151.507341 C63.2685914,155.66234 65.3784046,159.609523 67.8769973,163.348918 C70.3755899,167.088319 73.2149278,170.548072 76.3950108,173.728155 C79.5751054,176.908238 83.0348473,179.747576 86.7742248,182.246169 C90.5136081,184.744721 94.4607849,186.85454 98.615767,188.575603 C102.770749,190.29666 107.053689,191.595892 111.464586,192.473281 C115.875489,193.350646 120.329588,193.789332 124.826909,193.789332 C129.324235,193.789314 133.77837,193.350611 138.189307,192.473228 C142.600204,191.595822 146.883161,190.29659 151.038161,188.57551 C155.19316,186.854453 159.140337,184.744634 162.879738,182.246041 C166.619115,179.747448 170.078857,176.908116 173.258952,173.728033 C176.439052,170.54795 179.27839,167.088208 181.776983,163.348813 C184.275558,159.609413 186.385371,155.662236 188.106417,151.507254 C189.827457,147.352272 191.126688,143.069332 192.004077,138.658435 C192.88146,134.24752 193.320146,129.793415 193.320128,125.296112 C193.320111,120.798791 192.881408,116.344651 192.004025,111.933736 C191.126618,107.522816 189.827387,103.239859 188.106306,99.0848652 C186.385267,94.9298715 184.275448,90.982683 181.776855,87.2432938 C179.278268,83.5039047 176.438913,80.0441686 173.25883,76.8640798 C170.078747,73.6839851 166.619011,70.8446589 162.87961,68.3460778 C159.140215,65.847491 155.193033,63.7376777 151.03805,62.0166264 C146.883074,60.2955751 142.600135,58.9963492 138.189249,58.1189605 C133.778335,57.2415775 129.324235,56.802886 124.826909,56.802886 L124.827496,0.762968875 Z" id="Fill-8" fill="url(#radialGradient-2)"></path>
                </g>
                <circle id="Oval" fill="#FFFFFF" cx="124.90822" cy="173.671189" r="87.3982442"></circle>
                <path d="M80.1879256,200.352202 L77.8641075,200.352202 L77.8641075,197.209766 C75.9099878,196.99851 74.0614961,196.47037 72.5827028,195.651752 L72.5827028,192.694165 C74.6160436,193.988109 76.9926757,194.51625 79.1052376,194.51625 C81.4818698,194.51625 83.0926982,193.961702 83.0926982,192.218839 C83.0926982,187.940901 72.6619238,190.211905 72.6619238,183.662963 C72.6619238,180.652562 74.9593349,179.041734 77.8641075,178.698443 L77.8641075,175.5296 L80.1879256,175.5296 L80.1879256,178.672036 C81.9571962,178.804071 83.7264668,179.279397 84.9675969,180.018794 L84.9675969,182.897159 C83.4623965,181.893693 81.4026487,181.339145 79.4221219,181.365552 C77.1775249,181.365552 75.7251386,182.025728 75.7251386,183.610149 C75.7251386,187.59761 86.155913,185.458641 86.155913,192.060397 C86.155913,195.625345 83.4888036,197.051324 80.1879256,197.236173 L80.1879256,200.352202 Z M88.3212889,187.940901 C88.3212889,182.685903 90.8035491,178.619222 96.3754311,178.619222 C101.947313,178.619222 104.429573,182.685903 104.429573,187.940901 C104.429573,193.195899 101.947313,197.26258 96.3754311,197.26258 C90.8035491,197.26258 88.3212889,193.195899 88.3212889,187.940901 Z M101.392766,187.940901 C101.392766,183.768591 99.8083442,181.365552 96.3754311,181.365552 C92.916111,181.365552 91.3580966,183.768591 91.3580966,187.940901 C91.3580966,192.113211 92.916111,194.51625 96.3754311,194.51625 C99.8083442,194.51625 101.392766,192.113211 101.392766,187.940901 Z M110.529596,195.466903 C110.529596,196.655219 109.710978,197.209766 108.760325,197.209766 C107.809672,197.209766 106.964648,196.655219 106.964648,195.466903 C106.964648,194.331401 107.809672,193.776853 108.760325,193.776853 C109.710978,193.776853 110.529596,194.331401 110.529596,195.466903 Z M113.06467,187.940901 C113.06467,182.685903 115.54693,178.619222 121.118812,178.619222 C126.690694,178.619222 129.172955,182.685903 129.172955,187.940901 C129.172955,193.195899 126.690694,197.26258 121.118812,197.26258 C115.54693,197.26258 113.06467,193.195899 113.06467,187.940901 Z M126.136147,187.940901 C126.136147,183.768591 124.551725,181.365552 121.118812,181.365552 C117.659492,181.365552 116.101478,183.768591 116.101478,187.940901 C116.101478,192.113211 117.659492,194.51625 121.118812,194.51625 C124.551725,194.51625 126.136147,192.113211 126.136147,187.940901 Z M140.633603,178.962513 L143.723225,178.962513 L143.723225,190.634417 L146.812846,190.634417 L146.812846,193.248713 L143.723225,193.248713 L143.723225,196.919289 L140.818452,196.919289 L140.818452,193.248713 L131.07426,193.248713 L131.07426,190.687231 L140.633603,178.962513 Z M140.818452,190.634417 L140.818452,182.791531 L134.427952,190.634417 L140.818452,190.634417 Z M149.321514,180.441306 C151.170005,179.173769 153.203346,178.619222 155.289501,178.619222 C158.93367,178.619222 161.60078,180.309271 161.60078,183.662963 C161.60078,186.699771 159.065705,188.495448 156.636259,189.947835 C154.312441,191.321 152.120658,192.430095 152.094251,194.225773 L161.732815,194.199366 L161.732815,196.919289 L148.714152,196.919289 L148.714152,195.546124 C148.714152,191.162558 151.962216,189.498915 154.68214,187.888087 C156.768294,186.673364 158.590379,185.749118 158.590379,183.715777 C158.590379,182.157763 157.243621,181.339145 155.025431,181.339145 C153.203346,181.339145 151.222819,181.972914 149.321514,183.346079 L149.321514,180.441306 Z M165.456205,178.962513 L176.520748,178.962513 L176.520748,181.656029 L168.228943,181.656029 L167.964872,185.986781 C168.836304,185.775525 169.76055,185.669897 170.684796,185.669897 C174.144116,185.669897 177.365773,187.175097 177.365773,191.400221 C177.365773,195.282054 174.064895,197.26258 170.103841,197.26258 C168.017686,197.26258 165.931532,196.813661 164.34711,196.047857 L164.34711,193.222306 C165.852311,194.093737 167.885651,194.542657 169.76055,194.542657 C172.427659,194.542657 174.328965,193.486376 174.328965,191.373814 C174.328965,188.997182 172.295624,188.152157 169.443666,188.152157 C167.991279,188.152157 166.327637,188.442634 164.875251,188.944368 L165.456205,178.962513 Z M90.2886122,210.962513 L92.5068022,210.962513 L92.5068022,226.199366 L95.702052,226.199366 L95.702052,228.919289 L85.9314533,228.919289 L85.9314533,226.199366 L89.5228085,226.199366 L89.5228085,214.052135 L85.9314533,215.398893 L85.9314533,212.626155 L90.2886122,210.962513 Z M121.528121,210.434372 L124.248045,210.434372 L124.248045,228.919289 L121.237644,228.919289 L121.237644,215.979847 L115.401692,224.746979 L113.606014,224.746979 L107.770062,215.95344 L107.770062,228.919289 L104.759661,228.919289 L104.759661,210.434372 L107.479585,210.434372 L114.503853,221.023589 L121.528121,210.434372 Z M131.747639,228.919289 L128.737239,228.919289 L128.737239,210.434372 L131.56279,210.434372 L141.518238,223.954769 C141.491831,223.321 141.491831,222.60801 141.491831,221.921428 L141.491831,210.434372 L144.502232,210.434372 L144.502232,228.919289 L141.67668,228.919289 L131.721232,215.398893 C131.747639,216.032661 131.747639,216.745651 131.747639,217.405827 L131.747639,228.919289 Z M152.001827,228.919289 L148.991426,228.919289 L148.991426,210.434372 L156.385393,210.434372 C159.844713,210.434372 163.488882,211.807538 163.488882,216.217511 C163.488882,219.518389 161.429134,221.10281 158.999688,221.683765 L164.914861,228.919289 L161.297099,228.919289 L155.751624,222.000649 L152.001827,222.000649 L152.001827,228.919289 Z M152.001827,213.180703 L152.001827,219.333539 L156.517428,219.333539 C158.497954,219.333539 160.425667,218.62055 160.425667,216.270325 C160.425667,213.893693 158.497954,213.180703 156.517428,213.180703 L152.001827,213.180703 Z" id="$0.0425-1-MNR" fill="#131F3C"></path>
                <g id="Group-4" transform="translate(0.000000, 48.762969)"></g>
                <path d="M36.5816042,7.1452514 L39.4436153,7.1452514 L39.4436153,21.6128492 L42.4369114,21.6128492 L42.4369114,25 L32.2492019,25 L32.2492019,21.6128492 L35.6100958,21.6128492 L35.6100958,11.0837989 L32.2492019,12.3441341 L32.2492019,8.79944134 L36.5816042,7.1452514 Z M48.0559058,14.6547486 C49.6313248,13.8145251 51.0754589,13.4469274 52.8346768,13.4469274 C56.0380287,13.4469274 59.0575818,15.3899441 59.0575818,19.2234637 C59.0575818,23.2932961 55.8804868,25.3675978 52.2307662,25.3675978 C46.4804868,25.3675978 44.1436153,21.849162 44.1436153,16.0726257 C44.1436153,9.53463687 48.0821628,6.77765363 52.6246209,6.77765363 C54.3050678,6.77765363 56.0117717,7.17150838 57.5346768,7.88044693 L57.5346768,11.3463687 C56.3005986,10.5324022 54.6726656,10.0860335 53.1497606,10.0860335 C50.7341181,10.0860335 48.5285315,11.1100559 48.0559058,14.6547486 Z M48.0559058,17.8318436 C48.4235036,21.1664804 49.8676377,22.1642458 51.9156824,22.1642458 C53.6486433,22.1642458 55.1190343,21.3765363 55.1190343,19.4072626 C55.1190343,17.3592179 53.4648444,16.7290503 51.6268555,16.7290503 C50.4452913,16.7290503 49.1849561,17.096648 48.0559058,17.8318436 Z M84.5793695,20.1424581 L67.1447326,20.1424581 L67.1447326,17.0703911 L84.5793695,17.0703911 L84.5793695,20.1424581 Z M97.5240623,7.1452514 L100.386073,7.1452514 L100.386073,21.6128492 L103.37937,21.6128492 L103.37937,25 L93.19166,25 L93.19166,21.6128492 L96.5525539,21.6128492 L96.5525539,11.0837989 L93.19166,12.3441341 L93.19166,8.79944134 L97.5240623,7.1452514 Z M104.613448,7.11899441 L118.34585,7.11899441 L118.34585,9.9547486 L111.020152,25 L106.76652,25 L113.829649,10.5061453 L104.613448,10.5061453 L104.613448,7.11899441 Z M137.460934,21.7441341 C137.460934,22.4005587 137.881045,22.5843575 138.353671,22.5843575 C138.563727,22.5843575 138.80004,22.5581006 139.036353,22.4793296 L139.036353,24.8687151 C138.458699,25.0787709 137.723504,25.2363128 137.014565,25.2363128 C135.727973,25.2363128 134.756464,24.7636872 134.231325,23.8184358 C132.997247,24.7899441 131.553113,25.3675978 129.688867,25.3675978 C127.325738,25.3675978 125.277694,24.0022346 125.277694,21.5078212 C125.277694,18.3044693 128.297247,17.3067039 130.817917,17.3067039 C131.815682,17.3067039 132.918476,17.4379888 133.811213,17.6480447 L133.811213,17.201676 C133.811213,15.9413408 132.813448,15.0748603 130.844174,15.0748603 C129.111213,15.0748603 127.562051,15.547486 126.380487,16.0201117 L126.380487,12.8692737 C127.404509,12.527933 129.321269,12.0290503 131.264286,12.0290503 C135.045291,12.0290503 137.460934,13.5782123 137.460934,17.7268156 L137.460934,21.7441341 Z M131.65814,19.4860335 C130.319034,19.4860335 129.006185,19.9324022 129.006185,21.2189944 C129.006185,22.1642458 129.872666,22.7681564 130.975459,22.7681564 C131.999481,22.7681564 132.97099,22.4793296 133.811213,21.7441341 L133.811213,19.7748603 C133.259816,19.6435754 132.419593,19.4860335 131.65814,19.4860335 Z M148.698923,25 L140.97937,25 L140.97937,12.396648 L148.488867,12.396648 C151.482163,12.396648 152.63747,14.024581 152.63747,15.7312849 C152.63747,17.175419 151.928532,18.1469274 150.694453,18.6195531 C152.059816,19.0659218 152.926297,20.0636872 152.926297,21.5865922 C152.926297,23.372067 151.876018,25 148.698923,25 Z M144.62909,19.7748603 L144.62909,22.5055866 L147.622386,22.5055866 C148.541381,22.5055866 149.302833,22.1642458 149.302833,21.1664804 C149.302833,20.0899441 148.515124,19.7748603 147.622386,19.7748603 L144.62909,19.7748603 Z M144.602833,14.8910615 L144.602833,17.5692737 L147.386073,17.5692737 C148.252554,17.5692737 148.961492,17.227933 148.961492,16.2564246 C148.961492,15.2061453 148.20004,14.8910615 147.359816,14.8910615 L144.602833,14.8910615 Z M159.044174,25 L155.394453,25 L155.394453,12.396648 L165.004509,12.396648 L165.004509,15.4687151 L159.044174,15.4687151 L159.044174,25 Z M173.012889,20.9039106 L176.13747,12.396648 L179.918476,12.396648 L174.325738,26.522905 C172.907861,30.0413408 170.938587,31.1178771 168.890543,31.1178771 C168.234118,31.1178771 167.577694,30.9865922 166.921269,30.8290503 L166.921269,27.8094972 C167.420152,27.9145251 167.919034,27.9932961 168.417917,27.9932961 C169.730766,27.9932961 170.728532,27.1005587 171.411213,25.2363128 L171.43747,25.1837989 L165.477135,12.396648 L169.336911,12.396648 L173.012889,20.9039106 Z M181.021269,18.8821229 C181.021269,14.050838 184.644733,12.0027933 188.136911,12.0027933 C189.528532,12.0027933 190.893895,12.3178771 192.022945,12.9217877 L192.022945,16.1251397 C191.130208,15.547486 189.869872,15.1798883 188.662051,15.1798883 C186.66652,15.1798883 184.749761,16.1513966 184.749761,18.698324 C184.749761,21.1139665 186.640263,22.2167598 188.609537,22.2167598 C189.948643,22.2167598 191.235235,21.849162 192.15423,21.2977654 L192.15423,24.5273743 C190.920152,25.052514 189.502275,25.3675978 187.900599,25.3675978 C184.460934,25.3675978 181.021269,23.372067 181.021269,18.8821229 Z M201.186632,25 L197.563168,25 L197.563168,15.4687151 L193.54585,15.4687151 L193.54585,12.396648 L205.203951,12.396648 L205.203951,15.4687151 L201.186632,15.4687151 L201.186632,25 Z M218.43747,21.7441341 C218.43747,22.4005587 218.857582,22.5843575 219.330208,22.5843575 C219.540263,22.5843575 219.776576,22.5581006 220.012889,22.4793296 L220.012889,24.8687151 C219.435235,25.0787709 218.70004,25.2363128 217.991101,25.2363128 C216.704509,25.2363128 215.733001,24.7636872 215.207861,23.8184358 C213.973783,24.7899441 212.529649,25.3675978 210.665403,25.3675978 C208.302275,25.3675978 206.25423,24.0022346 206.25423,21.5078212 C206.25423,18.3044693 209.273783,17.3067039 211.794453,17.3067039 C212.792219,17.3067039 213.895012,17.4379888 214.787749,17.6480447 L214.787749,17.201676 C214.787749,15.9413408 213.789984,15.0748603 211.82071,15.0748603 C210.087749,15.0748603 208.538587,15.547486 207.357023,16.0201117 L207.357023,12.8692737 C208.381045,12.527933 210.297805,12.0290503 212.240822,12.0290503 C216.021828,12.0290503 218.43747,13.5782123 218.43747,17.7268156 L218.43747,21.7441341 Z M212.634677,19.4860335 C211.295571,19.4860335 209.982721,19.9324022 209.982721,21.2189944 C209.982721,22.1642458 210.849202,22.7681564 211.951995,22.7681564 C212.976018,22.7681564 213.947526,22.4793296 214.787749,21.7441341 L214.787749,19.7748603 C214.236353,19.6435754 213.396129,19.4860335 212.634677,19.4860335 Z" id="16-—-17-августа" fill="#131F3C"></path>
            </g>
            <path d="M103.745567,110.956634 L107.526235,110.956634 L107.526235,125.659233 L110.49476,125.659233 L110.49476,130 L99.1247504,130 L99.1247504,125.659233 L102.485344,125.659233 L102.485344,116.08154 L99.1247504,117.341763 L99.1247504,112.720946 L103.745567,110.956634 Z M113.575304,110.928629 L126.037507,110.928629 L126.037507,115.269397 L118.224126,115.241392 L118.028091,118.041887 C118.728215,117.929867 119.428339,117.873857 120.072453,117.873857 C123.965141,117.873857 126.877655,119.638169 126.877655,123.922926 C126.877655,128.627757 122.704918,130.420074 118.448166,130.420074 C116.235775,130.420074 114.023384,129.94399 112.315082,129.131847 L112.315082,124.371005 C113.799344,125.407188 116.03974,125.939282 117.888067,125.939282 C120.044448,125.939282 121.69674,125.295168 121.69674,123.810906 C121.69674,122.606693 120.716566,121.68253 117.608017,121.654525 C116.403804,121.654525 114.667497,121.822555 112.903186,122.438664 L113.575304,110.928629 Z M136.819412,131.680297 L133.738868,131.680297 L145.192892,108.716238 L148.273437,108.716238 L136.819412,131.680297 Z M139.283848,115.017352 C139.283848,118.377946 136.819412,120.058243 133.962908,120.058243 C131.078398,120.058243 128.613962,118.377946 128.613962,115.017352 C128.613962,111.656758 131.078398,109.976461 133.962908,109.976461 C136.819412,109.976461 139.283848,111.656758 139.283848,115.017352 Z M132.310616,115.017352 C132.310616,115.857501 132.758695,116.697649 133.962908,116.697649 C135.139115,116.697649 135.587195,115.857501 135.587195,115.017352 C135.587195,114.177204 135.139115,113.337055 133.962908,113.337055 C132.758695,113.337055 132.310616,114.177204 132.310616,115.017352 Z M153.286323,125.379183 C153.286323,128.739777 150.821887,130.420074 147.965382,130.420074 C145.080873,130.420074 142.616437,128.739777 142.616437,125.379183 C142.616437,122.018589 145.080873,120.338292 147.965382,120.338292 C150.821887,120.338292 153.286323,122.018589 153.286323,125.379183 Z M146.31309,125.379183 C146.31309,126.219332 146.761169,127.05948 147.965382,127.05948 C149.14159,127.05948 149.589669,126.219332 149.589669,125.379183 C149.589669,124.539035 149.14159,123.698886 147.965382,123.698886 C146.761169,123.698886 146.31309,124.539035 146.31309,125.379183 Z" id="15%" fill="#131F3C"></path>
            <path d="M87.514929,142.547374 L90.7584466,142.547374 L90.7584466,159 L87.890989,159 L87.890989,157.354737 C87.1623727,158.365399 85.8696664,159.329053 83.8013363,159.329053 C80.2052624,159.329053 78.2779549,156.438091 78.2779549,153.3591 C78.2779549,150.280108 80.2052624,147.389147 83.8013363,147.389147 C85.5876214,147.389147 86.7863127,148.117763 87.514929,148.916891 L87.514929,142.547374 Z M87.514929,152.019386 C87.0683577,151.032228 86.0106889,150.139086 84.5769601,150.139086 C82.7201638,150.139086 81.6154875,151.596318 81.6154875,153.3591 C81.6154875,155.121881 82.7201638,156.579114 84.5769601,156.579114 C86.0106889,156.579114 87.0683577,155.685971 87.514929,154.698814 L87.514929,152.019386 Z M96.8224144,159 L93.555393,159 L93.555393,147.7182 L96.8224144,147.7182 L96.8224144,159 Z M97.1044594,143.981103 C97.1044594,145.273809 96.2113168,145.837899 95.1771518,145.837899 C94.1664905,145.837899 93.273348,145.273809 93.273348,143.981103 C93.273348,142.711901 94.1664905,142.147811 95.1771518,142.147811 C96.2113168,142.147811 97.1044594,142.711901 97.1044594,143.981103 Z M99.1492857,150.867702 C99.1492857,148.258786 101.476157,147.389147 103.850036,147.389147 C105.448291,147.389147 106.858516,147.788711 108.0102,148.352801 L108.0102,151.032228 C107.046546,150.374123 105.401283,149.880545 104.06157,149.880545 C103.332953,149.880545 102.486818,150.092078 102.486818,150.773687 C102.486818,152.653987 108.856335,151.713837 108.856335,155.850497 C108.856335,158.506421 106.435448,159.329053 103.732517,159.329053 C102.016743,159.329053 100.394984,158.952992 99.2433007,158.271384 L99.2433007,155.568452 C100.465496,156.36758 102.18127,156.767144 103.544487,156.767144 C104.743178,156.767144 105.518802,156.55561 105.518802,155.921009 C105.518802,154.11122 99.1492857,154.910347 99.1492857,150.867702 Z M110.219552,153.523626 C110.219552,149.198936 113.46307,147.365643 116.589069,147.365643 C117.834768,147.365643 119.056963,147.647688 120.067624,148.188275 L120.067624,151.055732 C119.268497,150.53865 118.140316,150.209597 117.059144,150.209597 C115.272859,150.209597 113.557085,151.079236 113.557085,153.3591 C113.557085,155.521445 115.249355,156.508602 117.012136,156.508602 C118.210828,156.508602 119.362512,156.17955 120.185143,155.685971 L120.185143,158.576932 C119.080466,159.047008 117.811264,159.329053 116.377535,159.329053 C113.298544,159.329053 110.219552,157.542767 110.219552,153.523626 Z M121.73639,153.3591 C121.73639,149.41047 124.697863,147.389147 127.964884,147.389147 C131.255409,147.389147 134.193378,149.41047 134.193378,153.3591 C134.193378,157.30773 131.255409,159.329053 127.964884,159.329053 C124.697863,159.329053 121.73639,157.30773 121.73639,153.3591 Z M130.879349,153.3591 C130.879349,151.619822 129.845184,150.303612 127.964884,150.303612 C126.108088,150.303612 125.073923,151.619822 125.073923,153.3591 C125.073923,155.098377 126.108088,156.414587 127.964884,156.414587 C129.845184,156.414587 130.879349,155.098377 130.879349,153.3591 Z M144.158969,147.7182 L147.42599,147.7182 L147.42599,159 L144.535029,159 L144.535029,157.566271 C143.66539,158.576932 142.372684,159.329053 140.774429,159.329053 C137.718941,159.329053 136.191197,157.30773 136.191197,154.698814 L136.191197,147.7182 L139.458219,147.7182 L139.458219,154.275746 C139.458219,155.779986 140.28085,156.508602 141.620564,156.508602 C142.795751,156.508602 143.66539,155.756482 144.158969,155.074874 L144.158969,147.7182 Z M153.090394,149.151928 C153.960033,148.141267 155.229235,147.389147 156.850994,147.389147 C159.812467,147.389147 161.434226,149.41047 161.434226,152.019386 L161.434226,159 L158.167204,159 L158.167204,152.442453 C158.167204,150.91471 157.250558,150.209597 155.981355,150.209597 C154.829672,150.209597 153.936529,150.961717 153.466454,151.643326 L153.466454,159 L150.199433,159 L150.199433,147.7182 L153.090394,147.7182 L153.090394,149.151928 Z M164.912781,144.427674 L168.156298,143.652051 L168.156298,147.7182 L171.728869,147.7182 L171.728869,150.468138 L168.156298,150.468138 L168.156298,154.886844 C168.156298,156.062031 168.743892,156.579114 169.966087,156.579114 C170.718207,156.579114 171.352809,156.461595 172.010914,156.203054 L172.010914,158.835474 C171.141275,159.141023 170.10711,159.329053 168.97893,159.329053 C166.793081,159.329053 164.912781,158.318391 164.912781,155.521445 L164.912781,150.468138 L163.008977,150.468138 L163.008977,147.7182 L164.912781,147.7182 L164.912781,144.427674 Z" id="discount" fill="#131F3C"></path>
        </g>
    </g>
</svg>