<?xml version="1.0" encoding="UTF-8" standalone="no"?>
<svg width="250px" height="292px" viewBox="0 0 250 292" version="1.1" xmlns="http://www.w3.org/2000/svg" xmlns:xlink="http://www.w3.org/1999/xlink">
    <!-- Generator: Sketch 48.2 (47327) - http://www.bohemiancoding.com/sketch -->
    <title>3 copy 2</title>
    <desc>Created with Sketch.</desc>
    <defs>
        <radialGradient cx="100%" cy="50%" fx="100%" fy="50%" r="50.0423548%" gradientTransform="translate(1.000000,0.500000),scale(1.000000,0.500004),rotate(91.179256),translate(-1.000000,-0.500000)" id="radialGradient-1">
            <stop stop-color="#8B00FF" offset="0%"></stop>
            <stop stop-color="#5300FF" offset="100%"></stop>
        </radialGradient>
        <radialGradient cx="100%" cy="50%" fx="100%" fy="50%" r="50.0253367%" gradientTransform="translate(1.000000,0.500000),scale(1.000000,0.500004),rotate(89.087948),translate(-1.000000,-0.500000)" id="radialGradient-2">
            <stop stop-color="#FF9495" offset="0%"></stop>
            <stop stop-color="#FE5B5C" offset="100%"></stop>
        </radialGradient>
    </defs>
    <g id="Monoreto" stroke="none" stroke-width="1" fill="none" fill-rule="evenodd">
        <g id="3-copy-2" transform="translate(0.000000, -6.000000)">
            <g id="Group-Copy-2" transform="translate(0.933759, 0.000000)">
                <g id="Group-6" transform="translate(0.000000, 48.762969)">
                    <g id="Group-31">
                        <path d="M124.524976,193.012025 L124.524976,249.047781 C113.595699,249.047871 102.852631,247.633628 92.2957729,244.804995 C81.7389145,241.976368 71.727937,237.829799 62.2629045,232.365289 C52.7978079,226.900714 44.2011758,220.304407 36.4730082,212.576368 C28.7447764,204.848264 22.1482772,196.25176 16.6835746,186.786792 C11.218872,177.321823 7.07211127,167.31091 4.24335644,156.754116 C1.41453755,146.197257 0.000128110995,135.454189 0,124.524976 C-6.40554976e-05,113.595699 1.41415322,102.852631 4.24277994,92.2957729 C7.07140665,81.7388504 11.2179752,71.727937 16.6825497,62.2628404 C22.1472523,52.7976798 28.7436875,44.2009837 36.4719192,36.4727519 C44.2000869,28.7444561 52.796719,22.148021 62.2618155,16.6833184 C71.726848,11.2185517 81.7378255,7.07185504 92.294684,4.24310021 C102.851606,1.41434539 113.59461,0 124.524976,0 L124.523759,56.0357493 C120.027832,56.0372866 115.575206,56.4772838 111.165882,57.3557409 C106.756558,58.234198 102.47528,59.5342684 98.321986,61.255888 C94.1686916,62.9775076 90.2231932,65.0876238 86.4854909,67.5863007 C82.7477885,70.0849135 79.2896244,72.9241093 76.1110625,76.1038242 C72.9325006,79.2835391 70.0945218,82.7426641 67.5971901,86.4812632 C65.0998584,90.2198623 62.9910874,94.1661294 61.270941,98.3200643 C59.5507307,102.473935 58.2521976,106.755725 57.3752778,111.165434 C56.4983581,115.575078 56.0598982,120.027896 56.0598982,124.523887 C56.0598982,129.019879 56.4984221,133.472761 57.375406,137.882469 C58.2523898,142.292114 59.5509869,146.573967 61.2711973,150.727902 C62.9914076,154.881837 65.1002427,158.828104 67.5976385,162.566704 C70.0950342,166.305367 72.933013,169.764492 76.1117031,172.944207 C79.290329,176.123857 82.7484932,178.963053 86.4862595,181.46173 C90.2240259,183.960343 94.1695884,186.070459 98.3229468,187.792079 C102.476241,189.513634 106.757583,190.813705 111.166971,191.692098 C115.576295,192.570491 120.028985,193.010488 124.524976,193.012025 Z" id="Fill-30" fill="url(#radialGradient-1)"></path>
                        <path d="M249.044074,249.047781 C238.114797,249.047871 227.371729,247.633628 216.814871,244.804995 C206.258013,241.976368 196.247035,237.829799 186.782003,232.365289 C177.316906,226.900714 168.720274,220.304407 160.992106,212.576368 C153.263875,204.848264 146.667375,196.25176 141.202673,186.786792 C135.73797,177.321823 131.591209,167.31091 128.762455,156.754116 C125.933636,146.197257 124.519226,135.454189 124.519098,124.524976 C124.519034,113.595699 125.933251,102.852631 128.761878,92.2957729 C131.590505,81.7388504 135.737073,71.727937 141.201648,62.2628404 C146.66635,52.7976798 153.262786,44.2009837 160.991017,36.4727519 C168.719185,28.7444561 177.315817,22.148021 186.780914,16.6833184 C196.245946,11.2185517 206.256924,7.07185504 216.813782,4.24310021 C227.370705,1.41434539 238.113708,0 249.044074,0 L249.042857,56.0357493 C244.54693,56.0372866 240.094304,56.4772838 235.68498,57.3557409 C231.275656,58.234198 226.994378,59.5342684 222.841084,61.255888 C218.68779,62.9775076 214.742291,65.0876238 211.004589,67.5863007 C207.266887,70.0849135 203.808722,72.9241093 200.630161,76.1038242 C197.451599,79.2835391 194.61362,82.7426641 192.116288,86.4812632 C189.618956,90.2198623 187.510185,94.1661294 185.790039,98.3200643 C184.069829,102.473935 182.771296,106.755725 181.894376,111.165434 C181.017456,115.575078 180.578996,120.027896 180.578996,124.523887 C180.578996,129.019879 181.01752,133.472761 181.894504,137.882469 C182.771488,142.292114 184.070085,146.573967 185.790295,150.727902 C187.510506,154.881837 189.619341,158.828104 192.116737,162.566704 C194.614132,166.305367 197.452111,169.764492 200.630801,172.944207 C203.809427,176.123857 207.267591,178.963053 211.005358,181.46173 C214.743124,183.960343 218.688686,186.070459 222.842045,187.792079 C226.995339,189.513634 231.276681,190.813705 235.686069,191.692098 C240.095393,192.570491 244.548083,193.010488 249.044074,193.012025 L249.044074,249.047781 Z" id="Fill-30-Copy" fill="url(#radialGradient-2)" transform="translate(186.781586, 124.523890) scale(-1, 1) translate(-186.781586, -124.523890) "></path>
                    </g>
                    <circle id="Oval" fill="#FFFFFF" cx="124.90822" cy="124.90822" r="87.3982442"></circle>
                    <path d="M101.331,94.4513349 L104.383539,94.4513349 L104.383539,109.882062 L107.576104,109.882062 L107.576104,113.494701 L96.7101832,113.494701 L96.7101832,109.882062 L100.294817,109.882062 L100.294817,98.6520773 L96.7101832,99.9963149 L96.7101832,96.2156467 L101.331,94.4513349 Z M109.396425,103.973018 C109.396425,98.4840476 112.000886,94.0592656 118.07796,94.0592656 C124.155034,94.0592656 126.759494,98.4840476 126.759494,103.973018 C126.759494,109.461988 124.155034,113.88677 118.07796,113.88677 C112.000886,113.88677 109.396425,109.461988 109.396425,103.973018 Z M122.558752,103.973018 C122.558752,99.9123001 121.158504,97.755919 118.07796,97.755919 C114.997415,97.755919 113.597168,99.9123001 113.597168,103.973018 C113.597168,108.033735 114.997415,110.190117 118.07796,110.190117 C121.158504,110.190117 122.558752,108.033735 122.558752,103.973018 Z M136.589231,115.174998 L133.788736,115.174998 L145.242761,92.210939 L148.043256,92.210939 L136.589231,115.174998 Z M138.913642,98.3160179 C138.913642,101.480577 136.561226,103.132869 133.872751,103.132869 C131.156271,103.132869 128.77585,101.480577 128.77585,98.3160179 C128.77585,95.1514586 131.156271,93.4991666 133.872751,93.4991666 C136.561226,93.4991666 138.913642,95.1514586 138.913642,98.3160179 Z M131.912405,98.3160179 C131.912405,99.3241961 132.500509,100.248359 133.872751,100.248359 C135.188984,100.248359 135.777088,99.3241961 135.777088,98.3160179 C135.777088,97.3078398 135.188984,96.3836764 133.872751,96.3836764 C132.500509,96.3836764 131.912405,97.3078398 131.912405,98.3160179 Z M152.944122,109.069919 C152.944122,112.234478 150.591706,113.88677 147.903231,113.88677 C145.186751,113.88677 142.80633,112.234478 142.80633,109.069919 C142.80633,105.905359 145.186751,104.253067 147.903231,104.253067 C150.591706,104.253067 152.944122,105.905359 152.944122,109.069919 Z M145.942884,109.069919 C145.942884,110.078097 146.530988,111.00226 147.903231,111.00226 C149.219464,111.00226 149.807567,110.078097 149.807567,109.069919 C149.807567,108.06174 149.219464,107.137577 147.903231,107.137577 C146.530988,107.137577 145.942884,108.06174 145.942884,109.069919 Z" id="10%" fill="#131F3C"></path>
                    <path d="M77.0899016,151.589233 L74.7660835,151.589233 L74.7660835,148.446797 C72.8119638,148.235541 70.9634721,147.707401 69.4846788,146.888783 L69.4846788,143.931196 C71.5180196,145.225141 73.8946518,145.753281 76.0072137,145.753281 C78.3838458,145.753281 79.9946742,145.198734 79.9946742,143.45587 C79.9946742,139.177932 69.5638999,141.448936 69.5638999,134.899994 C69.5638999,131.889594 71.8613109,130.278765 74.7660835,129.935474 L74.7660835,126.766631 L77.0899016,126.766631 L77.0899016,129.909067 C78.8591722,130.041102 80.6284428,130.516428 81.8695729,131.255825 L81.8695729,134.134191 C80.3643726,133.130724 78.3046247,132.576176 76.3240979,132.602583 C74.0795009,132.602583 72.6271146,133.262759 72.6271146,134.84718 C72.6271146,138.834641 83.057889,136.695672 83.057889,143.297428 C83.057889,146.862376 80.3907796,148.288355 77.0899016,148.473204 L77.0899016,151.589233 Z M85.2232649,139.177932 C85.2232649,133.922934 87.7055252,129.856253 93.2774072,129.856253 C98.8492892,129.856253 101.331549,133.922934 101.331549,139.177932 C101.331549,144.43293 98.8492892,148.499611 93.2774072,148.499611 C87.7055252,148.499611 85.2232649,144.43293 85.2232649,139.177932 Z M98.2947417,139.177932 C98.2947417,135.005622 96.7103203,132.602583 93.2774072,132.602583 C89.8180871,132.602583 88.2600727,135.005622 88.2600727,139.177932 C88.2600727,143.350242 89.8180871,145.753281 93.2774072,145.753281 C96.7103203,145.753281 98.2947417,143.350242 98.2947417,139.177932 Z M107.431572,146.703934 C107.431572,147.89225 106.612954,148.446797 105.662301,148.446797 C104.711648,148.446797 103.866624,147.89225 103.866624,146.703934 C103.866624,145.568432 104.711648,145.013884 105.662301,145.013884 C106.612954,145.013884 107.431572,145.568432 107.431572,146.703934 Z M109.966646,139.177932 C109.966646,133.922934 112.448906,129.856253 118.020788,129.856253 C123.59267,129.856253 126.074931,133.922934 126.074931,139.177932 C126.074931,144.43293 123.59267,148.499611 118.020788,148.499611 C112.448906,148.499611 109.966646,144.43293 109.966646,139.177932 Z M123.038123,139.177932 C123.038123,135.005622 121.453701,132.602583 118.020788,132.602583 C114.561468,132.602583 113.003454,135.005622 113.003454,139.177932 C113.003454,143.350242 114.561468,145.753281 118.020788,145.753281 C121.453701,145.753281 123.038123,143.350242 123.038123,139.177932 Z M137.535579,130.199544 L140.625201,130.199544 L140.625201,141.871449 L143.714822,141.871449 L143.714822,144.485744 L140.625201,144.485744 L140.625201,148.15632 L137.720428,148.15632 L137.720428,144.485744 L127.976236,144.485744 L127.976236,141.924263 L137.535579,130.199544 Z M137.720428,141.871449 L137.720428,134.028562 L131.329928,141.871449 L137.720428,141.871449 Z M146.910072,130.199544 L157.974615,130.199544 L157.974615,132.89306 L149.68281,132.89306 L149.41874,137.223812 C150.290171,137.012556 151.214417,136.906928 152.138663,136.906928 C155.597983,136.906928 158.81964,138.412128 158.81964,142.637252 C158.81964,146.519085 155.518762,148.499611 151.557709,148.499611 C149.471554,148.499611 147.385399,148.050692 145.800977,147.284888 L145.800977,144.459337 C147.306178,145.330769 149.339519,145.779688 151.214417,145.779688 C153.881527,145.779688 155.782832,144.723407 155.782832,142.610845 C155.782832,140.234213 153.749491,139.389188 150.897533,139.389188 C149.445147,139.389188 147.781504,139.679666 146.329118,140.181399 L146.910072,130.199544 Z M161.169865,139.177932 C161.169865,133.922934 163.652125,129.856253 169.224007,129.856253 C174.795889,129.856253 177.27815,133.922934 177.27815,139.177932 C177.27815,144.43293 174.795889,148.499611 169.224007,148.499611 C163.652125,148.499611 161.169865,144.43293 161.169865,139.177932 Z M174.241342,139.177932 C174.241342,135.005622 172.65692,132.602583 169.224007,132.602583 C165.764687,132.602583 164.206673,135.005622 164.206673,139.177932 C164.206673,143.350242 165.764687,145.753281 169.224007,145.753281 C172.65692,145.753281 174.241342,143.350242 174.241342,139.177932 Z M88.7882131,162.199544 L91.0064031,162.199544 L91.0064031,177.436397 L94.201653,177.436397 L94.201653,180.15632 L84.4310542,180.15632 L84.4310542,177.436397 L88.0224094,177.436397 L88.0224094,165.289166 L84.4310542,166.635924 L84.4310542,163.863187 L88.7882131,162.199544 Z M120.027722,161.671404 L122.747646,161.671404 L122.747646,180.15632 L119.737245,180.15632 L119.737245,167.216879 L113.901293,175.98401 L112.105615,175.98401 L106.269663,167.190472 L106.269663,180.15632 L103.259262,180.15632 L103.259262,161.671404 L105.979186,161.671404 L113.003454,172.26062 L120.027722,161.671404 Z M130.24724,180.15632 L127.23684,180.15632 L127.23684,161.671404 L130.062391,161.671404 L140.017839,175.1918 C139.991432,174.558031 139.991432,173.845041 139.991432,173.158459 L139.991432,161.671404 L143.001833,161.671404 L143.001833,180.15632 L140.176281,180.15632 L130.220833,166.635924 C130.24724,167.269693 130.24724,167.982682 130.24724,168.642858 L130.24724,180.15632 Z M150.501428,180.15632 L147.491027,180.15632 L147.491027,161.671404 L154.884993,161.671404 C158.344314,161.671404 161.988483,163.044569 161.988483,167.454542 C161.988483,170.75542 159.928735,172.339841 157.499289,172.920796 L163.414462,180.15632 L159.7967,180.15632 L154.251225,173.23768 L150.501428,173.23768 L150.501428,180.15632 Z M150.501428,164.417734 L150.501428,170.570571 L155.017029,170.570571 C156.997555,170.570571 158.925268,169.857581 158.925268,167.507356 C158.925268,165.130724 156.997555,164.417734 155.017029,164.417734 L150.501428,164.417734 Z" id="$0.0450-1-MNR" fill="#131F3C"></path>
                </g>
                <path d="M35.8839186,7.1452514 L38.7459298,7.1452514 L38.7459298,21.6128492 L41.7392259,21.6128492 L41.7392259,25 L31.5515164,25 L31.5515164,21.6128492 L34.9124102,21.6128492 L34.9124102,11.0837989 L31.5515164,12.3441341 L31.5515164,8.79944134 L35.8839186,7.1452514 Z M44.0498404,11.7139665 C44.0498404,9.32458101 46.0453711,6.77765363 50.92917,6.77765363 C55.4716281,6.77765363 57.8347566,9.32458101 57.8610136,11.8189944 C57.8872706,13.5519553 57.0470471,14.8648045 55.602913,15.9413408 C57.230846,16.7553073 58.5174381,18.0156425 58.5174381,20.1687151 C58.5174381,22.7944134 56.3643655,25.3675978 50.981684,25.3675978 C45.6515164,25.3675978 43.3934158,22.7681564 43.3934158,20.0374302 C43.3934158,18.2519553 44.4962091,16.5452514 46.176656,15.547486 C44.9425778,14.7072626 44.0498404,13.5256983 44.0498404,11.7139665 Z M51.3755387,17.6480447 C50.5878292,17.3592179 49.6425778,17.096648 48.7235834,16.7553073 C47.752075,17.5692737 47.3057063,18.6458101 47.3319633,19.5648045 C47.3582203,21.0877095 48.5660415,22.2692737 51.2705108,22.2692737 C53.1610136,22.2692737 54.6051476,21.4815642 54.6051476,20.273743 C54.6051476,18.750838 53.1347566,18.2519553 51.3755387,17.6480447 Z M54.080008,12.1078212 C54.080008,10.873743 52.9772147,9.87597765 50.7716281,9.87597765 C48.8811253,9.87597765 47.804589,10.7424581 47.804589,11.7402235 C47.804589,13.3156425 49.406265,13.8145251 51.1654828,14.3921788 C51.6906225,14.5234637 52.2420192,14.7072626 52.8196728,14.8648045 C53.6598962,14.024581 54.106265,12.9743017 54.080008,12.1078212 Z M84.3017957,20.1424581 L66.8671588,20.1424581 L66.8671588,17.0703911 L84.3017957,17.0703911 L84.3017957,20.1424581 Z M93.22917,8.66815642 C95.0671588,7.35530726 97.1939745,6.77765363 99.3733041,6.77765363 C102.970511,6.77765363 105.885036,8.40558659 105.885036,12.0553073 C105.885036,15.0748603 103.390623,16.8603352 101.053751,18.2519553 C98.9269354,19.5122905 97.1152035,20.4837989 97.0889465,21.6391061 L106.016321,21.6128492 L106.016321,25 L92.6252594,25 L92.6252594,23.2407821 C92.6252594,18.9346369 95.8811253,17.2541899 98.5068236,15.7050279 C100.371069,14.6284916 101.972745,13.9195531 101.972745,12.2128492 C101.972745,10.9 100.817438,10.2173184 99.0057063,10.2173184 C97.2202314,10.2173184 95.1196728,10.9 93.22917,12.3441341 L93.22917,8.66815642 Z M109.561014,7.11899441 L120.90403,7.11899441 L120.90403,10.5061453 L113.105706,10.4798883 L112.869393,13.972067 C113.630846,13.8145251 114.444812,13.7094972 115.180008,13.7094972 C118.750958,13.7094972 121.717997,15.3111732 121.717997,19.4072626 C121.717997,23.5558659 118.094533,25.3675978 114.155986,25.3675978 C112.081684,25.3675978 109.981125,24.9212291 108.405706,24.1597765 L108.405706,20.5100559 C109.84984,21.4290503 111.924142,21.927933 113.709617,21.927933 C116.046488,21.927933 117.779449,21.0877095 117.779449,19.3547486 C117.779449,17.5955307 116.282801,16.7290503 113.42079,16.7290503 C112.134198,16.7290503 110.480008,16.9391061 108.930846,17.4905028 L109.561014,7.11899441 Z M141.331963,21.7441341 C141.331963,22.4005587 141.752075,22.5843575 142.224701,22.5843575 C142.434757,22.5843575 142.671069,22.5581006 142.907382,22.4793296 L142.907382,24.8687151 C142.329729,25.0787709 141.594533,25.2363128 140.885595,25.2363128 C139.599002,25.2363128 138.627494,24.7636872 138.102354,23.8184358 C136.868276,24.7899441 135.424142,25.3675978 133.559896,25.3675978 C131.196768,25.3675978 129.148723,24.0022346 129.148723,21.5078212 C129.148723,18.3044693 132.168276,17.3067039 134.688947,17.3067039 C135.686712,17.3067039 136.789505,17.4379888 137.682243,17.6480447 L137.682243,17.201676 C137.682243,15.9413408 136.684477,15.0748603 134.715204,15.0748603 C132.982243,15.0748603 131.433081,15.547486 130.251516,16.0201117 L130.251516,12.8692737 C131.275539,12.527933 133.192298,12.0290503 135.135315,12.0290503 C138.916321,12.0290503 141.331963,13.5782123 141.331963,17.7268156 L141.331963,21.7441341 Z M135.52917,19.4860335 C134.190064,19.4860335 132.877215,19.9324022 132.877215,21.2189944 C132.877215,22.1642458 133.743695,22.7681564 134.846488,22.7681564 C135.870511,22.7681564 136.842019,22.4793296 137.682243,21.7441341 L137.682243,19.7748603 C137.130846,19.6435754 136.290623,19.4860335 135.52917,19.4860335 Z M148.50012,25 L144.850399,25 L144.850399,12.396648 L157.243695,12.396648 L157.243695,25 L153.593974,25 L153.593974,15.4687151 L148.50012,15.4687151 L148.50012,25 Z M163.571628,14.2346369 C164.359338,13.1055866 165.803472,12.0290503 168.140343,12.0290503 C172.131405,12.0290503 174.284477,15.2586592 174.284477,18.698324 C174.284477,22.1379888 172.131405,25.3675978 168.140343,25.3675978 C166.144812,25.3675978 164.805706,24.5536313 163.99174,23.6608939 L163.99174,30.7765363 L160.342019,30.7765363 L160.342019,12.396648 L163.571628,12.396648 L163.571628,14.2346369 Z M170.555986,18.698324 C170.555986,16.7290503 169.321907,15.1011173 167.247606,15.1011173 C165.64593,15.1011173 164.464366,16.0988827 163.965483,17.201676 L163.965483,20.1949721 C164.464366,21.2977654 165.64593,22.2955307 167.247606,22.2955307 C169.321907,22.2955307 170.555986,20.6675978 170.555986,18.698324 Z M175.964924,18.698324 C175.964924,13.9458101 179.614645,12.0290503 182.450399,12.0290503 C187.675539,12.0290503 189.355986,16.1513966 188.515762,19.8798883 L179.640902,19.8798883 C180.061014,21.7178771 182.00403,22.4793296 184.078332,22.4793296 C185.522466,22.4793296 186.809058,22.1905028 187.885595,21.7178771 L187.885595,24.5798883 C186.70403,25.0787709 185.154868,25.3675978 183.264366,25.3675978 C179.273304,25.3675978 175.964924,23.0832402 175.964924,18.698324 Z M185.233639,17.5167598 C185.364924,16.6502793 184.866042,14.8122905 182.581684,14.8122905 C181.032522,14.8122905 179.667159,15.7837989 179.614645,17.5167598 L185.233639,17.5167598 Z M196.576656,15.2849162 C196.209058,20.9564246 195.23755,25.2625698 191.771628,25.2625698 C191.193974,25.2625698 190.511293,25.1575419 189.776097,24.8949721 L189.776097,22.0067039 C190.038667,22.1117318 190.301237,22.1642458 190.53755,22.1642458 C192.533081,22.1642458 192.979449,18.0418994 193.215762,12.396648 L203.455986,12.396648 L203.455986,25 L199.806265,25 L199.806265,15.2849162 L196.576656,15.2849162 Z M209.547606,25 L205.451516,25 L208.759896,20.7726257 C207.053192,20.0374302 206.186712,18.5145251 206.186712,16.8078212 C206.186712,14.4446927 207.919673,12.396648 211.228053,12.396648 L218.054868,12.396648 L218.054868,25 L214.405148,25 L214.405148,21.2452514 L212.357103,21.2452514 L209.547606,25 Z M209.888947,16.9128492 C209.888947,17.9368715 210.650399,18.5145251 211.963248,18.5145251 L214.405148,18.5145251 L214.405148,15.2849162 L211.963248,15.2849162 C210.650399,15.2849162 209.888947,15.8625698 209.888947,16.9128492 Z" id="18-—-25-апреля" fill="#131F3C"></path>
            </g>
            <path d="M96.5563056,117.564923 C96.5563056,114.274398 99.3767557,112.72315 102.761296,112.72315 C104.806122,112.72315 106.850948,113.216729 108.284677,114.03936 L108.284677,118.034998 C106.874452,116.977329 105.017656,116.460246 103.113852,116.48375 C101.515597,116.507254 101.022018,116.930321 101.022018,117.541419 C101.022018,119.68026 109.577384,119.022155 109.577384,124.851086 C109.577384,128.752708 106.592407,129.880888 102.996333,129.880888 C100.622454,129.880888 98.4131019,129.340302 96.6738243,128.376648 L96.6738243,124.263492 C98.6246357,125.603206 100.786981,126.120288 102.667281,126.120288 C104.383055,126.120288 105.111671,125.838243 105.111671,125.015612 C105.111671,122.641733 96.5563056,123.440861 96.5563056,117.564923 Z M114.677698,129.528332 L110.211985,129.528332 L116.675516,113.075706 L121.376267,113.075706 L127.839798,129.528332 L123.374085,129.528332 L122.433935,126.942919 L115.617848,126.942919 L114.677698,129.528332 Z M118.602824,118.669599 L116.910554,123.417357 L121.141229,123.417357 L119.448959,118.669599 C119.307936,118.270035 119.166914,117.870472 119.025891,117.000833 C118.884869,117.870472 118.743846,118.270035 118.602824,118.669599 Z M129.414549,113.075706 L133.762743,113.075706 L133.762743,125.650213 L141.283944,125.650213 L141.283944,129.528332 L129.414549,129.528332 L129.414549,113.075706 Z M143.14074,113.075706 L154.98663,113.075706 L154.98663,116.836306 L147.488934,116.836306 L147.488934,119.351208 L154.281518,119.351208 L154.281518,123.088304 L147.488934,123.088304 L147.488934,125.767732 L155.127653,125.767732 L155.127653,129.528332 L143.14074,129.528332 L143.14074,113.075706 Z" id="SALE-Copy-2" fill="#131F3C"></path>
        </g>
    </g>
</svg>