<?xml version="1.0" encoding="UTF-8" standalone="no"?>
<svg width="250px" height="292px" viewBox="0 0 250 292" version="1.1" xmlns="http://www.w3.org/2000/svg" xmlns:xlink="http://www.w3.org/1999/xlink">
    <!-- Generator: Sketch 49.2 (51160) - http://www.bohemiancoding.com/sketch -->
    <title>ru Group 34 Copy</title>
    <desc>Created with Sketch.</desc>
    <defs>
        <radialGradient cx="100%" cy="50%" fx="100%" fy="50%" r="100.014205%" gradientTransform="translate(1.000000,0.500000),scale(1.000000,0.500004),rotate(89.005123),translate(-1.000000,-0.500000)" id="radialGradient-1">
            <stop stop-color="#8D00FF" offset="0%"></stop>
            <stop stop-color="#5C00FE" offset="69.8959662%"></stop>
            <stop stop-color="#8900FF" offset="100%"></stop>
        </radialGradient>
        <radialGradient cx="100%" cy="50%" fx="100%" fy="50%" r="100.011799%" gradientTransform="translate(1.000000,0.500000),scale(1.000000,0.500004),rotate(89.087948),translate(-1.000000,-0.500000)" id="radialGradient-2">
            <stop stop-color="#FF9495" offset="0%"></stop>
            <stop stop-color="#FE5F60" offset="70.3742825%"></stop>
            <stop stop-color="#FF9091" offset="100%"></stop>
        </radialGradient>
    </defs>
    <g id="Monoreto" stroke="none" stroke-width="1" fill="none" fill-rule="evenodd">
        <g id="ru-Group-34-Copy" transform="translate(0.000000, -6.000000)">
            <g id="3">
                <g id="Group-Copy-2" transform="translate(0.933759, 0.000000)">
                    <g id="Group-6" transform="translate(0.000000, 48.762969)">
                        <path d="M124.524976,193.012025 L124.524976,249.047781 C113.595699,249.047871 102.852631,247.633628 92.2957729,244.804995 C81.7389145,241.976368 71.727937,237.829799 62.2629045,232.365289 C52.7978079,226.900714 44.2011758,220.304407 36.4730082,212.576368 C28.7447764,204.848264 22.1482772,196.25176 16.6835746,186.786792 C11.218872,177.321823 7.07211127,167.31091 4.24335644,156.754116 C1.41453755,146.197257 0.000128110995,135.454189 0,124.524976 C-6.40554976e-05,113.595699 1.41415322,102.852631 4.24277994,92.2957729 C7.07140665,81.7388504 11.2179752,71.727937 16.6825497,62.2628404 C22.1472523,52.7976798 28.7436875,44.2009837 36.4719192,36.4727519 C44.2000869,28.7444561 52.796719,22.148021 62.2618155,16.6833184 C71.726848,11.2185517 81.7378255,7.07185504 92.294684,4.24310021 C102.851606,1.41434539 113.59461,0 124.524976,0 L124.523759,56.0357493 C120.027832,56.0372866 115.575206,56.4772838 111.165882,57.3557409 C106.756558,58.234198 102.47528,59.5342684 98.321986,61.255888 C94.1686916,62.9775076 90.2231932,65.0876238 86.4854909,67.5863007 C82.7477885,70.0849135 79.2896244,72.9241093 76.1110625,76.1038242 C72.9325006,79.2835391 70.0945218,82.7426641 67.5971901,86.4812632 C65.0998584,90.2198623 62.9910874,94.1661294 61.270941,98.3200643 C59.5507307,102.473935 58.2521976,106.755725 57.3752778,111.165434 C56.4983581,115.575078 56.0598982,120.027896 56.0598982,124.523887 C56.0598982,129.019879 56.4984221,133.472761 57.375406,137.882469 C58.2523898,142.292114 59.5509869,146.573967 61.2711973,150.727902 C62.9914076,154.881837 65.1002427,158.828104 67.5976385,162.566704 C70.0950342,166.305367 72.933013,169.764492 76.1117031,172.944207 C79.290329,176.123857 82.7484932,178.963053 86.4862595,181.46173 C90.2240259,183.960343 94.1695884,186.070459 98.3229468,187.792079 C102.476241,189.513634 106.757583,190.813705 111.166971,191.692098 C115.576295,192.570491 120.028985,193.010488 124.524976,193.012025 Z" id="Fill-30" fill="url(#radialGradient-1)"></path>
                        <path d="M249.044074,249.047781 C238.114797,249.047871 227.371729,247.633628 216.814871,244.804995 C206.258013,241.976368 196.247035,237.829799 186.782003,232.365289 C177.316906,226.900714 168.720274,220.304407 160.992106,212.576368 C153.263875,204.848264 146.667375,196.25176 141.202673,186.786792 C135.73797,177.321823 131.591209,167.31091 128.762455,156.754116 C125.933636,146.197257 124.519226,135.454189 124.519098,124.524976 C124.519034,113.595699 125.933251,102.852631 128.761878,92.2957729 C131.590505,81.7388504 135.737073,71.727937 141.201648,62.2628404 C146.66635,52.7976798 153.262786,44.2009837 160.991017,36.4727519 C168.719185,28.7444561 177.315817,22.148021 186.780914,16.6833184 C196.245946,11.2185517 206.256924,7.07185504 216.813782,4.24310021 C227.370705,1.41434539 238.113708,0 249.044074,0 L249.042857,56.0357493 C244.54693,56.0372866 240.094304,56.4772838 235.68498,57.3557409 C231.275656,58.234198 226.994378,59.5342684 222.841084,61.255888 C218.68779,62.9775076 214.742291,65.0876238 211.004589,67.5863007 C207.266887,70.0849135 203.808722,72.9241093 200.630161,76.1038242 C197.451599,79.2835391 194.61362,82.7426641 192.116288,86.4812632 C189.618956,90.2198623 187.510185,94.1661294 185.790039,98.3200643 C184.069829,102.473935 182.771296,106.755725 181.894376,111.165434 C181.017456,115.575078 180.578996,120.027896 180.578996,124.523887 C180.578996,129.019879 181.01752,133.472761 181.894504,137.882469 C182.771488,142.292114 184.070085,146.573967 185.790295,150.727902 C187.510506,154.881837 189.619341,158.828104 192.116737,162.566704 C194.614132,166.305367 197.452111,169.764492 200.630801,172.944207 C203.809427,176.123857 207.267591,178.963053 211.005358,181.46173 C214.743124,183.960343 218.688686,186.070459 222.842045,187.792079 C226.995339,189.513634 231.276681,190.813705 235.686069,191.692098 C240.095393,192.570491 244.548083,193.010488 249.044074,193.012025 L249.044074,249.047781 Z" id="Fill-30-Copy" fill="url(#radialGradient-2)" transform="translate(186.781586, 124.523890) scale(-1, 1) translate(-186.781586, -124.523890) "></path>
                        <circle id="Oval" fill="#FFFFFF" cx="124.90822" cy="124.90822" r="87.3982442"></circle>
                        <path d="M77.0899016,151.589233 L74.7660835,151.589233 L74.7660835,148.446797 C72.8119638,148.235541 70.9634721,147.707401 69.4846788,146.888783 L69.4846788,143.931196 C71.5180196,145.225141 73.8946518,145.753281 76.0072137,145.753281 C78.3838458,145.753281 79.9946742,145.198734 79.9946742,143.45587 C79.9946742,139.177932 69.5638999,141.448936 69.5638999,134.899994 C69.5638999,131.889594 71.8613109,130.278765 74.7660835,129.935474 L74.7660835,126.766631 L77.0899016,126.766631 L77.0899016,129.909067 C78.8591722,130.041102 80.6284428,130.516428 81.8695729,131.255825 L81.8695729,134.134191 C80.3643726,133.130724 78.3046247,132.576176 76.3240979,132.602583 C74.0795009,132.602583 72.6271146,133.262759 72.6271146,134.84718 C72.6271146,138.834641 83.057889,136.695672 83.057889,143.297428 C83.057889,146.862376 80.3907796,148.288355 77.0899016,148.473204 L77.0899016,151.589233 Z M85.2232649,139.177932 C85.2232649,133.922934 87.7055252,129.856253 93.2774072,129.856253 C98.8492892,129.856253 101.331549,133.922934 101.331549,139.177932 C101.331549,144.43293 98.8492892,148.499611 93.2774072,148.499611 C87.7055252,148.499611 85.2232649,144.43293 85.2232649,139.177932 Z M98.2947417,139.177932 C98.2947417,135.005622 96.7103203,132.602583 93.2774072,132.602583 C89.8180871,132.602583 88.2600727,135.005622 88.2600727,139.177932 C88.2600727,143.350242 89.8180871,145.753281 93.2774072,145.753281 C96.7103203,145.753281 98.2947417,143.350242 98.2947417,139.177932 Z M107.431572,146.703934 C107.431572,147.89225 106.612954,148.446797 105.662301,148.446797 C104.711648,148.446797 103.866624,147.89225 103.866624,146.703934 C103.866624,145.568432 104.711648,145.013884 105.662301,145.013884 C106.612954,145.013884 107.431572,145.568432 107.431572,146.703934 Z M109.966646,139.177932 C109.966646,133.922934 112.448906,129.856253 118.020788,129.856253 C123.59267,129.856253 126.074931,133.922934 126.074931,139.177932 C126.074931,144.43293 123.59267,148.499611 118.020788,148.499611 C112.448906,148.499611 109.966646,144.43293 109.966646,139.177932 Z M123.038123,139.177932 C123.038123,135.005622 121.453701,132.602583 118.020788,132.602583 C114.561468,132.602583 113.003454,135.005622 113.003454,139.177932 C113.003454,143.350242 114.561468,145.753281 118.020788,145.753281 C121.453701,145.753281 123.038123,143.350242 123.038123,139.177932 Z M137.535579,130.199544 L140.625201,130.199544 L140.625201,141.871449 L143.714822,141.871449 L143.714822,144.485744 L140.625201,144.485744 L140.625201,148.15632 L137.720428,148.15632 L137.720428,144.485744 L127.976236,144.485744 L127.976236,141.924263 L137.535579,130.199544 Z M137.720428,141.871449 L137.720428,134.028562 L131.329928,141.871449 L137.720428,141.871449 Z M146.910072,130.199544 L157.974615,130.199544 L157.974615,132.89306 L149.68281,132.89306 L149.41874,137.223812 C150.290171,137.012556 151.214417,136.906928 152.138663,136.906928 C155.597983,136.906928 158.81964,138.412128 158.81964,142.637252 C158.81964,146.519085 155.518762,148.499611 151.557709,148.499611 C149.471554,148.499611 147.385399,148.050692 145.800977,147.284888 L145.800977,144.459337 C147.306178,145.330769 149.339519,145.779688 151.214417,145.779688 C153.881527,145.779688 155.782832,144.723407 155.782832,142.610845 C155.782832,140.234213 153.749491,139.389188 150.897533,139.389188 C149.445147,139.389188 147.781504,139.679666 146.329118,140.181399 L146.910072,130.199544 Z M161.169865,139.177932 C161.169865,133.922934 163.652125,129.856253 169.224007,129.856253 C174.795889,129.856253 177.27815,133.922934 177.27815,139.177932 C177.27815,144.43293 174.795889,148.499611 169.224007,148.499611 C163.652125,148.499611 161.169865,144.43293 161.169865,139.177932 Z M174.241342,139.177932 C174.241342,135.005622 172.65692,132.602583 169.224007,132.602583 C165.764687,132.602583 164.206673,135.005622 164.206673,139.177932 C164.206673,143.350242 165.764687,145.753281 169.224007,145.753281 C172.65692,145.753281 174.241342,143.350242 174.241342,139.177932 Z M88.7882131,162.199544 L91.0064031,162.199544 L91.0064031,177.436397 L94.201653,177.436397 L94.201653,180.15632 L84.4310542,180.15632 L84.4310542,177.436397 L88.0224094,177.436397 L88.0224094,165.289166 L84.4310542,166.635924 L84.4310542,163.863187 L88.7882131,162.199544 Z M120.027722,161.671404 L122.747646,161.671404 L122.747646,180.15632 L119.737245,180.15632 L119.737245,167.216879 L113.901293,175.98401 L112.105615,175.98401 L106.269663,167.190472 L106.269663,180.15632 L103.259262,180.15632 L103.259262,161.671404 L105.979186,161.671404 L113.003454,172.26062 L120.027722,161.671404 Z M130.24724,180.15632 L127.23684,180.15632 L127.23684,161.671404 L130.062391,161.671404 L140.017839,175.1918 C139.991432,174.558031 139.991432,173.845041 139.991432,173.158459 L139.991432,161.671404 L143.001833,161.671404 L143.001833,180.15632 L140.176281,180.15632 L130.220833,166.635924 C130.24724,167.269693 130.24724,167.982682 130.24724,168.642858 L130.24724,180.15632 Z M150.501428,180.15632 L147.491027,180.15632 L147.491027,161.671404 L154.884993,161.671404 C158.344314,161.671404 161.988483,163.044569 161.988483,167.454542 C161.988483,170.75542 159.928735,172.339841 157.499289,172.920796 L163.414462,180.15632 L159.7967,180.15632 L154.251225,173.23768 L150.501428,173.23768 L150.501428,180.15632 Z M150.501428,164.417734 L150.501428,170.570571 L155.017029,170.570571 C156.997555,170.570571 158.925268,169.857581 158.925268,167.507356 C158.925268,165.130724 156.997555,164.417734 155.017029,164.417734 L150.501428,164.417734 Z" id="$0.0450-1-MNR" fill="#131F3C"></path>
                    </g>
                    <path d="M32.6411812,7.1452514 L35.5031923,7.1452514 L35.5031923,21.6128492 L38.4964884,21.6128492 L38.4964884,25 L28.3087789,25 L28.3087789,21.6128492 L31.6696728,21.6128492 L31.6696728,11.0837989 L28.3087789,12.3441341 L28.3087789,8.79944134 L32.6411812,7.1452514 Z M40.807103,11.7139665 C40.807103,9.32458101 42.8026337,6.77765363 47.6864326,6.77765363 C52.2288907,6.77765363 54.5920192,9.32458101 54.6182761,11.8189944 C54.6445331,13.5519553 53.8043097,14.8648045 52.3601756,15.9413408 C53.9881085,16.7553073 55.2747007,18.0156425 55.2747007,20.1687151 C55.2747007,22.7944134 53.1216281,25.3675978 47.7389465,25.3675978 C42.4087789,25.3675978 40.1506784,22.7681564 40.1506784,20.0374302 C40.1506784,18.2519553 41.2534717,16.5452514 42.9339186,15.547486 C41.6998404,14.7072626 40.807103,13.5256983 40.807103,11.7139665 Z M48.1328013,17.6480447 C47.3450918,17.3592179 46.3998404,17.096648 45.480846,16.7553073 C44.5093376,17.5692737 44.0629689,18.6458101 44.0892259,19.5648045 C44.1154828,21.0877095 45.3233041,22.2692737 48.0277733,22.2692737 C49.9182761,22.2692737 51.3624102,21.4815642 51.3624102,20.273743 C51.3624102,18.750838 49.8920192,18.2519553 48.1328013,17.6480447 Z M50.8372706,12.1078212 C50.8372706,10.873743 49.7344773,9.87597765 47.5288907,9.87597765 C45.6383879,9.87597765 44.5618516,10.7424581 44.5618516,11.7402235 C44.5618516,13.3156425 46.1635275,13.8145251 47.9227454,14.3921788 C48.4478851,14.5234637 48.9992817,14.7072626 49.5769354,14.8648045 C50.4171588,14.024581 50.8635275,12.9743017 50.8372706,12.1078212 Z M81.0590583,20.1424581 L63.6244214,20.1424581 L63.6244214,17.0703911 L81.0590583,17.0703911 L81.0590583,20.1424581 Z M89.9864326,8.66815642 C91.8244214,7.35530726 93.951237,6.77765363 96.1305666,6.77765363 C99.7277733,6.77765363 102.642298,8.40558659 102.642298,12.0553073 C102.642298,15.0748603 100.147885,16.8603352 97.8110136,18.2519553 C95.6841979,19.5122905 93.8724661,20.4837989 93.8462091,21.6391061 L102.773583,21.6128492 L102.773583,25 L89.3825219,25 L89.3825219,23.2407821 C89.3825219,18.9346369 92.6383879,17.2541899 95.2640862,15.7050279 C97.128332,14.6284916 98.730008,13.9195531 98.730008,12.2128492 C98.730008,10.9 97.5747007,10.2173184 95.7629689,10.2173184 C93.977494,10.2173184 91.8769354,10.9 89.9864326,12.3441341 L89.9864326,8.66815642 Z M105.714366,11.7139665 C105.714366,9.32458101 107.709896,6.77765363 112.593695,6.77765363 C117.136153,6.77765363 119.499282,9.32458101 119.525539,11.8189944 C119.551796,13.5519553 118.711572,14.8648045 117.267438,15.9413408 C118.895371,16.7553073 120.181963,18.0156425 120.181963,20.1687151 C120.181963,22.7944134 118.028891,25.3675978 112.646209,25.3675978 C107.316042,25.3675978 105.057941,22.7681564 105.057941,20.0374302 C105.057941,18.2519553 106.160734,16.5452514 107.841181,15.547486 C106.607103,14.7072626 105.714366,13.5256983 105.714366,11.7139665 Z M113.040064,17.6480447 C112.252354,17.3592179 111.307103,17.096648 110.388109,16.7553073 C109.4166,17.5692737 108.970231,18.6458101 108.996488,19.5648045 C109.022745,21.0877095 110.230567,22.2692737 112.935036,22.2692737 C114.825539,22.2692737 116.269673,21.4815642 116.269673,20.273743 C116.269673,18.750838 114.799282,18.2519553 113.040064,17.6480447 Z M115.744533,12.1078212 C115.744533,10.873743 114.64174,9.87597765 112.436153,9.87597765 C110.54565,9.87597765 109.469114,10.7424581 109.469114,11.7402235 C109.469114,13.3156425 111.07079,13.8145251 112.830008,14.3921788 C113.355148,14.5234637 113.906544,14.7072626 114.484198,14.8648045 C115.324421,14.024581 115.77079,12.9743017 115.744533,12.1078212 Z M139.900958,21.7441341 C139.900958,22.4005587 140.321069,22.5843575 140.793695,22.5843575 C141.003751,22.5843575 141.240064,22.5581006 141.476377,22.4793296 L141.476377,24.8687151 C140.898723,25.0787709 140.163528,25.2363128 139.454589,25.2363128 C138.167997,25.2363128 137.196488,24.7636872 136.671349,23.8184358 C135.437271,24.7899441 133.993136,25.3675978 132.128891,25.3675978 C129.765762,25.3675978 127.717717,24.0022346 127.717717,21.5078212 C127.717717,18.3044693 130.737271,17.3067039 133.257941,17.3067039 C134.255706,17.3067039 135.3585,17.4379888 136.251237,17.6480447 L136.251237,17.201676 C136.251237,15.9413408 135.253472,15.0748603 133.284198,15.0748603 C131.551237,15.0748603 130.002075,15.547486 128.820511,16.0201117 L128.820511,12.8692737 C129.844533,12.527933 131.761293,12.0290503 133.70431,12.0290503 C137.485315,12.0290503 139.900958,13.5782123 139.900958,17.7268156 L139.900958,21.7441341 Z M134.098164,19.4860335 C132.759058,19.4860335 131.446209,19.9324022 131.446209,21.2189944 C131.446209,22.1642458 132.31269,22.7681564 133.415483,22.7681564 C134.439505,22.7681564 135.411014,22.4793296 136.251237,21.7441341 L136.251237,19.7748603 C135.69984,19.6435754 134.859617,19.4860335 134.098164,19.4860335 Z M151.138947,25 L143.419393,25 L143.419393,12.396648 L150.928891,12.396648 C153.922187,12.396648 155.077494,14.024581 155.077494,15.7312849 C155.077494,17.175419 154.368555,18.1469274 153.134477,18.6195531 C154.49984,19.0659218 155.366321,20.0636872 155.366321,21.5865922 C155.366321,23.372067 154.316042,25 151.138947,25 Z M147.069114,19.7748603 L147.069114,22.5055866 L150.06241,22.5055866 C150.981405,22.5055866 151.742857,22.1642458 151.742857,21.1664804 C151.742857,20.0899441 150.955148,19.7748603 150.06241,19.7748603 L147.069114,19.7748603 Z M147.042857,14.8910615 L147.042857,17.5692737 L149.826097,17.5692737 C150.692578,17.5692737 151.401516,17.227933 151.401516,16.2564246 C151.401516,15.2061453 150.640064,14.8910615 149.79984,14.8910615 L147.042857,14.8910615 Z M161.484198,25 L157.834477,25 L157.834477,12.396648 L167.444533,12.396648 L167.444533,15.4687151 L161.484198,15.4687151 L161.484198,25 Z M175.452913,20.9039106 L178.577494,12.396648 L182.3585,12.396648 L176.765762,26.522905 C175.347885,30.0413408 173.378611,31.1178771 171.330567,31.1178771 C170.674142,31.1178771 170.017717,30.9865922 169.361293,30.8290503 L169.361293,27.8094972 C169.860176,27.9145251 170.359058,27.9932961 170.857941,27.9932961 C172.17079,27.9932961 173.168555,27.1005587 173.851237,25.2363128 L173.877494,25.1837989 L167.917159,12.396648 L171.776935,12.396648 L175.452913,20.9039106 Z M183.461293,18.8821229 C183.461293,14.050838 187.084757,12.0027933 190.576935,12.0027933 C191.968555,12.0027933 193.333919,12.3178771 194.462969,12.9217877 L194.462969,16.1251397 C193.570231,15.547486 192.309896,15.1798883 191.102075,15.1798883 C189.106544,15.1798883 187.189785,16.1513966 187.189785,18.698324 C187.189785,21.1139665 189.080287,22.2167598 191.049561,22.2167598 C192.388667,22.2167598 193.675259,21.849162 194.594254,21.2977654 L194.594254,24.5273743 C193.360176,25.052514 191.942298,25.3675978 190.340623,25.3675978 C186.900958,25.3675978 183.461293,23.372067 183.461293,18.8821229 Z M203.626656,25 L200.003192,25 L200.003192,15.4687151 L195.985874,15.4687151 L195.985874,12.396648 L207.643974,12.396648 L207.643974,15.4687151 L203.626656,15.4687151 L203.626656,25 Z M220.877494,21.7441341 C220.877494,22.4005587 221.297606,22.5843575 221.770231,22.5843575 C221.980287,22.5843575 222.2166,22.5581006 222.452913,22.4793296 L222.452913,24.8687151 C221.875259,25.0787709 221.140064,25.2363128 220.431125,25.2363128 C219.144533,25.2363128 218.173025,24.7636872 217.647885,23.8184358 C216.413807,24.7899441 214.969673,25.3675978 213.105427,25.3675978 C210.742298,25.3675978 208.694254,24.0022346 208.694254,21.5078212 C208.694254,18.3044693 211.713807,17.3067039 214.234477,17.3067039 C215.232243,17.3067039 216.335036,17.4379888 217.227773,17.6480447 L217.227773,17.201676 C217.227773,15.9413408 216.230008,15.0748603 214.260734,15.0748603 C212.527773,15.0748603 210.978611,15.547486 209.797047,16.0201117 L209.797047,12.8692737 C210.821069,12.527933 212.737829,12.0290503 214.680846,12.0290503 C218.461852,12.0290503 220.877494,13.5782123 220.877494,17.7268156 L220.877494,21.7441341 Z M215.074701,19.4860335 C213.735595,19.4860335 212.422745,19.9324022 212.422745,21.2189944 C212.422745,22.1642458 213.289226,22.7681564 214.392019,22.7681564 C215.416042,22.7681564 216.38755,22.4793296 217.227773,21.7441341 L217.227773,19.7748603 C216.676377,19.6435754 215.836153,19.4860335 215.074701,19.4860335 Z" id="18-—-28-августа" fill="#131F3C"></path>
                </g>
            </g>
            <path d="M102.205295,110.956634 L105.985963,110.956634 L105.985963,125.659233 L108.954488,125.659233 L108.954488,130 L97.5844782,130 L97.5844782,125.659233 L100.945072,125.659233 L100.945072,116.08154 L97.5844782,117.341763 L97.5844782,112.720946 L102.205295,110.956634 Z M110.66279,120.478317 C110.66279,115.045357 113.26725,110.53656 119.484349,110.53656 C125.701447,110.53656 128.305908,115.045357 128.305908,120.478317 C128.305908,125.911277 125.701447,130.420074 119.484349,130.420074 C113.26725,130.420074 110.66279,125.911277 110.66279,120.478317 Z M123.124992,120.478317 C123.124992,116.809669 121.976789,115.017352 119.484349,115.017352 C116.991908,115.017352 115.843705,116.809669 115.843705,120.478317 C115.843705,124.146966 116.991908,125.939282 119.484349,125.939282 C121.976789,125.939282 123.124992,124.146966 123.124992,120.478317 Z M138.359685,131.680297 L135.27914,131.680297 L146.733165,108.716238 L149.813709,108.716238 L138.359685,131.680297 Z M140.82412,115.017352 C140.82412,118.377946 138.359685,120.058243 135.50318,120.058243 C132.61867,120.058243 130.154234,118.377946 130.154234,115.017352 C130.154234,111.656758 132.61867,109.976461 135.50318,109.976461 C138.359685,109.976461 140.82412,111.656758 140.82412,115.017352 Z M133.850888,115.017352 C133.850888,115.857501 134.298967,116.697649 135.50318,116.697649 C136.679388,116.697649 137.127467,115.857501 137.127467,115.017352 C137.127467,114.177204 136.679388,113.337055 135.50318,113.337055 C134.298967,113.337055 133.850888,114.177204 133.850888,115.017352 Z M154.826595,125.379183 C154.826595,128.739777 152.362159,130.420074 149.505655,130.420074 C146.621145,130.420074 144.156709,128.739777 144.156709,125.379183 C144.156709,122.018589 146.621145,120.338292 149.505655,120.338292 C152.362159,120.338292 154.826595,122.018589 154.826595,125.379183 Z M147.853363,125.379183 C147.853363,126.219332 148.301442,127.05948 149.505655,127.05948 C150.681862,127.05948 151.129942,126.219332 151.129942,125.379183 C151.129942,124.539035 150.681862,123.698886 149.505655,123.698886 C148.301442,123.698886 147.853363,124.539035 147.853363,125.379183 Z" id="10%" fill="#131F3C"></path>
            <path d="M87.514929,142.547374 L90.7584466,142.547374 L90.7584466,159 L87.890989,159 L87.890989,157.354737 C87.1623727,158.365399 85.8696664,159.329053 83.8013363,159.329053 C80.2052624,159.329053 78.2779549,156.438091 78.2779549,153.3591 C78.2779549,150.280108 80.2052624,147.389147 83.8013363,147.389147 C85.5876214,147.389147 86.7863127,148.117763 87.514929,148.916891 L87.514929,142.547374 Z M87.514929,152.019386 C87.0683577,151.032228 86.0106889,150.139086 84.5769601,150.139086 C82.7201638,150.139086 81.6154875,151.596318 81.6154875,153.3591 C81.6154875,155.121881 82.7201638,156.579114 84.5769601,156.579114 C86.0106889,156.579114 87.0683577,155.685971 87.514929,154.698814 L87.514929,152.019386 Z M96.8224144,159 L93.555393,159 L93.555393,147.7182 L96.8224144,147.7182 L96.8224144,159 Z M97.1044594,143.981103 C97.1044594,145.273809 96.2113168,145.837899 95.1771518,145.837899 C94.1664905,145.837899 93.273348,145.273809 93.273348,143.981103 C93.273348,142.711901 94.1664905,142.147811 95.1771518,142.147811 C96.2113168,142.147811 97.1044594,142.711901 97.1044594,143.981103 Z M99.1492857,150.867702 C99.1492857,148.258786 101.476157,147.389147 103.850036,147.389147 C105.448291,147.389147 106.858516,147.788711 108.0102,148.352801 L108.0102,151.032228 C107.046546,150.374123 105.401283,149.880545 104.06157,149.880545 C103.332953,149.880545 102.486818,150.092078 102.486818,150.773687 C102.486818,152.653987 108.856335,151.713837 108.856335,155.850497 C108.856335,158.506421 106.435448,159.329053 103.732517,159.329053 C102.016743,159.329053 100.394984,158.952992 99.2433007,158.271384 L99.2433007,155.568452 C100.465496,156.36758 102.18127,156.767144 103.544487,156.767144 C104.743178,156.767144 105.518802,156.55561 105.518802,155.921009 C105.518802,154.11122 99.1492857,154.910347 99.1492857,150.867702 Z M110.219552,153.523626 C110.219552,149.198936 113.46307,147.365643 116.589069,147.365643 C117.834768,147.365643 119.056963,147.647688 120.067624,148.188275 L120.067624,151.055732 C119.268497,150.53865 118.140316,150.209597 117.059144,150.209597 C115.272859,150.209597 113.557085,151.079236 113.557085,153.3591 C113.557085,155.521445 115.249355,156.508602 117.012136,156.508602 C118.210828,156.508602 119.362512,156.17955 120.185143,155.685971 L120.185143,158.576932 C119.080466,159.047008 117.811264,159.329053 116.377535,159.329053 C113.298544,159.329053 110.219552,157.542767 110.219552,153.523626 Z M121.73639,153.3591 C121.73639,149.41047 124.697863,147.389147 127.964884,147.389147 C131.255409,147.389147 134.193378,149.41047 134.193378,153.3591 C134.193378,157.30773 131.255409,159.329053 127.964884,159.329053 C124.697863,159.329053 121.73639,157.30773 121.73639,153.3591 Z M130.879349,153.3591 C130.879349,151.619822 129.845184,150.303612 127.964884,150.303612 C126.108088,150.303612 125.073923,151.619822 125.073923,153.3591 C125.073923,155.098377 126.108088,156.414587 127.964884,156.414587 C129.845184,156.414587 130.879349,155.098377 130.879349,153.3591 Z M144.158969,147.7182 L147.42599,147.7182 L147.42599,159 L144.535029,159 L144.535029,157.566271 C143.66539,158.576932 142.372684,159.329053 140.774429,159.329053 C137.718941,159.329053 136.191197,157.30773 136.191197,154.698814 L136.191197,147.7182 L139.458219,147.7182 L139.458219,154.275746 C139.458219,155.779986 140.28085,156.508602 141.620564,156.508602 C142.795751,156.508602 143.66539,155.756482 144.158969,155.074874 L144.158969,147.7182 Z M153.090394,149.151928 C153.960033,148.141267 155.229235,147.389147 156.850994,147.389147 C159.812467,147.389147 161.434226,149.41047 161.434226,152.019386 L161.434226,159 L158.167204,159 L158.167204,152.442453 C158.167204,150.91471 157.250558,150.209597 155.981355,150.209597 C154.829672,150.209597 153.936529,150.961717 153.466454,151.643326 L153.466454,159 L150.199433,159 L150.199433,147.7182 L153.090394,147.7182 L153.090394,149.151928 Z M164.912781,144.427674 L168.156298,143.652051 L168.156298,147.7182 L171.728869,147.7182 L171.728869,150.468138 L168.156298,150.468138 L168.156298,154.886844 C168.156298,156.062031 168.743892,156.579114 169.966087,156.579114 C170.718207,156.579114 171.352809,156.461595 172.010914,156.203054 L172.010914,158.835474 C171.141275,159.141023 170.10711,159.329053 168.97893,159.329053 C166.793081,159.329053 164.912781,158.318391 164.912781,155.521445 L164.912781,150.468138 L163.008977,150.468138 L163.008977,147.7182 L164.912781,147.7182 L164.912781,144.427674 Z" id="discount" fill="#131F3C"></path>
        </g>
    </g>
</svg>