<?xml version="1.0" encoding="UTF-8" standalone="no"?>
<svg width="250px" height="292px" viewBox="0 0 250 292" version="1.1" xmlns="http://www.w3.org/2000/svg" xmlns:xlink="http://www.w3.org/1999/xlink">
    <!-- Generator: Sketch 49.2 (51160) - http://www.bohemiancoding.com/sketch -->
    <title>ru Group 35 Copy</title>
    <desc>Created with Sketch.</desc>
    <defs>
        <radialGradient cx="99.2000848%" cy="99.2000855%" fx="99.2000848%" fy="99.2000855%" r="98.8072194%" gradientTransform="translate(0.992001,0.992001),scale(1.000000,0.999999),rotate(89.358856),translate(-0.992001,-0.992001)" id="radialGradient-1">
            <stop stop-color="#8D00FF" offset="0%"></stop>
            <stop stop-color="#5C00FE" offset="69.8959662%"></stop>
            <stop stop-color="#8900FF" offset="100%"></stop>
        </radialGradient>
        <radialGradient cx="50%" cy="50%" fx="50%" fy="50%" r="50.0253367%" id="radialGradient-2">
            <stop stop-color="#FF9495" offset="0%"></stop>
            <stop stop-color="#FE5F60" offset="70.3742825%"></stop>
            <stop stop-color="#FF9091" offset="100%"></stop>
        </radialGradient>
    </defs>
    <g id="Monoreto" stroke="none" stroke-width="1" fill="none" fill-rule="evenodd">
        <g id="ru-Group-35-Copy" transform="translate(0.000000, -7.000000)">
            <g id="4">
                <g id="Group-Copy-3" transform="translate(0.545890, 0.588188)">
                    <g id="Group-3" transform="translate(0.000000, 48.762969)">
                        <g id="Group-8">
                            <path d="M0,125.013369 C2.91814549e-05,116.804853 0.800756631,108.675226 2.40218235,100.624437 C4.00360807,92.5736583 6.37495729,84.7564426 9.51623002,77.1727836 C12.6575028,69.5891246 16.5083459,62.384737 21.0687478,55.5596266 C25.6291439,48.7345168 30.8114843,42.4198151 36.6157632,36.6155391 C42.420048,30.811259 48.7347397,25.6289238 55.5598326,21.068533 C62.3849314,16.5081428 69.589319,12.6573224 77.1729546,9.51607244 C84.7565844,6.37482306 92.5737943,4.0035001 100.624537,2.40210473 C108.675281,0.800704688 116.804785,0 125.013248,0 L125.013248,56.256007 C120.498614,56.2560362 116.027356,56.6964369 111.599467,57.5772266 C107.171572,58.4580046 102.872157,59.7622464 98.7011703,61.4899402 C94.5301832,63.2176458 90.5678202,65.3356124 86.8140346,67.8438344 C83.0602548,70.3520563 79.5872123,73.2023432 76.3948837,76.3946952 C73.2025551,79.5870471 70.3522856,83.0601305 67.8440987,86.8139278 C65.335906,90.5677368 63.2179685,94.5301406 61.4902922,98.7011394 C59.7626275,102.872138 58.4584032,107.171594 57.5776369,111.599518 C56.6968997,116.027406 56.2565282,120.498706 56.2565107,125.013369 L0,125.013369 Z" id="Fill-8" fill="url(#radialGradient-1)"></path>
                            <path d="M124.740231,0 C132.917139,3.54646161e-05 140.809466,0.797690493 148.829249,2.3929616 C156.849031,3.98823619 164.636136,6.35047671 172.190582,9.47968199 C179.745051,12.6088826 186.921705,16.4449279 193.720557,20.9878092 C200.519385,25.5306945 206.80975,30.693127 212.591686,36.4751065 C218.373622,42.2570854 223.535985,48.5475211 228.078816,55.3464036 C232.621648,62.1452961 236.457622,69.3219914 239.586764,76.8764895 C242.715941,84.431005 245.078181,92.2181743 246.673414,100.237997 C248.268642,108.257814 249.066241,116.3562 249.066241,124.533125 C249.066206,132.710109 248.268572,140.808524 246.673269,148.828376 C245.078041,156.848228 242.715802,164.635409 239.586549,172.189947 C236.457372,179.74448 232.621334,186.921193 228.078462,193.720074 C223.535595,200.518961 218.373157,206.809395 212.591151,212.591383 C206.80918,218.373372 200.518781,223.535793 193.719865,228.078677 C186.920978,232.621543 179.744289,236.45757 172.189785,239.586729 C164.635281,242.715924 156.848106,245.078129 148.828289,246.673379 C140.808455,248.268624 132.710069,249.066241 124.533126,249.066241 C116.356143,249.066206 108.257746,248.268555 100.237911,246.673269 C92.2180591,245.078007 84.4308608,242.715767 76.8763221,239.586549 C69.3217834,236.457355 62.1450765,232.621316 55.3461899,228.078444 C48.5472975,223.53556 42.256863,218.373139 36.4748864,212.591151 C30.6929041,206.809186 25.5304769,200.518746 20.9876108,193.719865 C16.4447331,186.920978 12.6087116,179.744289 9.4795232,172.189767 C6.3503348,164.635263 3.98812395,156.848106 2.39288484,148.828289 C0.797622465,140.808454 5.00693342e-16,132.710068 0,124.533125 C0,124.533122 18.6801356,124.533128 56.0404068,124.533143 C56.0404243,129.030463 56.479139,133.484604 57.3565452,137.895518 C58.2339282,142.306439 59.5331599,146.589378 61.2542228,150.744372 C62.9753032,154.899372 65.0851164,158.846554 67.5837091,162.585949 C70.0823017,166.32535 72.9216395,169.785103 76.1017226,172.965187 C79.2818172,176.14527 82.7415591,178.984607 86.4809366,181.4832 C90.2203198,183.981752 94.1674967,186.091571 98.3224788,187.812634 C102.477461,189.533691 106.7604,190.832923 111.171297,191.710312 C115.5822,192.587677 120.0363,193.026363 124.533621,193.026363 C129.030947,193.026345 133.485081,192.587642 137.896019,191.710259 C142.306916,190.832853 146.589873,189.533621 150.744873,187.812541 C154.899872,186.091484 158.847049,183.981665 162.58645,181.483072 C166.325827,178.98448 169.785569,176.145147 172.965664,172.965064 C176.145764,169.784981 178.985102,166.325239 181.483695,162.585845 C183.98227,158.846444 186.092083,154.899267 187.813129,150.744285 C189.534168,146.589303 190.8334,142.306363 191.710789,137.895466 C192.588172,133.484552 193.026857,129.030446 193.02684,124.533143 C193.026823,120.035823 192.588119,115.581682 191.710736,111.170767 C190.83333,106.759847 189.534099,102.47689 187.813018,98.3218963 C186.091979,94.1669026 183.982159,90.2197141 181.483567,86.480325 C178.98498,82.7409359 176.145625,79.2811998 172.965542,76.1011109 C169.785459,72.9210162 166.325723,70.08169 162.586322,67.583109 C158.846927,65.0845221 154.899744,62.9747088 150.744762,61.2536575 C146.589786,59.5326062 142.306846,58.2333804 137.895961,57.3559916 C133.485047,56.4786086 129.030947,56.0399171 124.533621,56.0399171 L124.740231,0 Z" id="Fill-8" fill="url(#radialGradient-2)"></path>
                        </g>
                    </g>
                    <circle id="Oval" fill="#FFFFFF" cx="124.90822" cy="173.671189" r="87.3982442"></circle>
                    <path d="M80.636845,199.728204 L78.3130269,199.728204 L78.3130269,196.585769 C76.3589072,196.374512 74.5104155,195.846372 73.0316222,195.027754 L73.0316222,192.070168 C75.064963,193.364112 77.4415951,193.892252 79.554157,193.892252 C81.9307892,193.892252 83.5416176,193.337705 83.5416176,191.594841 C83.5416176,187.316903 73.1108433,189.587907 73.1108433,183.038965 C73.1108433,180.028565 75.4082543,178.417736 78.3130269,178.074445 L78.3130269,174.905602 L80.636845,174.905602 L80.636845,178.048038 C82.4061156,178.180073 84.1753862,178.655399 85.4165163,179.394796 L85.4165163,182.273162 C83.911316,181.269695 81.8515681,180.715147 79.8710413,180.741554 C77.6264443,180.741554 76.174058,181.40173 76.174058,182.986151 C76.174058,186.973612 86.6048324,184.834643 86.6048324,191.436399 C86.6048324,195.001347 83.937723,196.427326 80.636845,196.612176 L80.636845,199.728204 Z M88.7702083,187.316903 C88.7702083,182.061906 91.2524685,177.995224 96.8243505,177.995224 C102.396233,177.995224 104.878493,182.061906 104.878493,187.316903 C104.878493,192.571901 102.396233,196.638583 96.8243505,196.638583 C91.2524685,196.638583 88.7702083,192.571901 88.7702083,187.316903 Z M101.841685,187.316903 C101.841685,183.144593 100.257264,180.741554 96.8243505,180.741554 C93.3650304,180.741554 91.807016,183.144593 91.807016,187.316903 C91.807016,191.489213 93.3650304,193.892252 96.8243505,193.892252 C100.257264,193.892252 101.841685,191.489213 101.841685,187.316903 Z M110.978515,194.842905 C110.978515,196.031221 110.159898,196.585769 109.209245,196.585769 C108.258592,196.585769 107.413567,196.031221 107.413567,194.842905 C107.413567,193.707403 108.258592,193.152855 109.209245,193.152855 C110.159898,193.152855 110.978515,193.707403 110.978515,194.842905 Z M113.51359,187.316903 C113.51359,182.061906 115.99585,177.995224 121.567732,177.995224 C127.139614,177.995224 129.621874,182.061906 129.621874,187.316903 C129.621874,192.571901 127.139614,196.638583 121.567732,196.638583 C115.99585,196.638583 113.51359,192.571901 113.51359,187.316903 Z M126.585066,187.316903 C126.585066,183.144593 125.000645,180.741554 121.567732,180.741554 C118.108412,180.741554 116.550397,183.144593 116.550397,187.316903 C116.550397,191.489213 118.108412,193.892252 121.567732,193.892252 C125.000645,193.892252 126.585066,191.489213 126.585066,187.316903 Z M141.082522,178.338515 L144.172144,178.338515 L144.172144,190.01042 L147.261766,190.01042 L147.261766,192.624715 L144.172144,192.624715 L144.172144,196.295291 L141.267371,196.295291 L141.267371,192.624715 L131.52318,192.624715 L131.52318,190.063234 L141.082522,178.338515 Z M141.267371,190.01042 L141.267371,182.167534 L134.876872,190.01042 L141.267371,190.01042 Z M148.714152,178.338515 L162.049699,178.338515 L162.049699,180.715147 L154.602918,196.295291 L151.354855,196.295291 L158.643193,181.032032 L148.714152,181.032032 L148.714152,178.338515 Z M165.007286,178.338515 L176.071829,178.338515 L176.071829,181.032032 L167.780023,181.032032 L167.515953,185.362783 C168.387385,185.151527 169.311631,185.045899 170.235876,185.045899 C173.695197,185.045899 176.916853,186.5511 176.916853,190.776223 C176.916853,194.658056 173.615976,196.638583 169.654922,196.638583 C167.568767,196.638583 165.482612,196.189663 163.898191,195.42386 L163.898191,192.598308 C165.403391,193.46974 167.436732,193.918659 169.311631,193.918659 C171.97874,193.918659 173.880046,192.862378 173.880046,190.749816 C173.880046,188.373184 171.846705,187.528159 168.994746,187.528159 C167.54236,187.528159 165.878718,187.818637 164.426331,188.32037 L165.007286,178.338515 Z M90.2886122,210.338515 L92.5068022,210.338515 L92.5068022,225.575368 L95.702052,225.575368 L95.702052,228.295291 L85.9314533,228.295291 L85.9314533,225.575368 L89.5228085,225.575368 L89.5228085,213.428137 L85.9314533,214.774895 L85.9314533,212.002158 L90.2886122,210.338515 Z M121.528121,209.810375 L124.248045,209.810375 L124.248045,228.295291 L121.237644,228.295291 L121.237644,215.35585 L115.401692,224.122982 L113.606014,224.122982 L107.770062,215.329443 L107.770062,228.295291 L104.759661,228.295291 L104.759661,209.810375 L107.479585,209.810375 L114.503853,220.399591 L121.528121,209.810375 Z M131.747639,228.295291 L128.737239,228.295291 L128.737239,209.810375 L131.56279,209.810375 L141.518238,223.330771 C141.491831,222.697002 141.491831,221.984013 141.491831,221.29743 L141.491831,209.810375 L144.502232,209.810375 L144.502232,228.295291 L141.67668,228.295291 L131.721232,214.774895 C131.747639,215.408664 131.747639,216.121653 131.747639,216.781829 L131.747639,228.295291 Z M152.001827,228.295291 L148.991426,228.295291 L148.991426,209.810375 L156.385393,209.810375 C159.844713,209.810375 163.488882,211.18354 163.488882,215.593513 C163.488882,218.894391 161.429134,220.478812 158.999688,221.059767 L164.914861,228.295291 L161.297099,228.295291 L155.751624,221.376651 L152.001827,221.376651 L152.001827,228.295291 Z M152.001827,212.556705 L152.001827,218.709542 L156.517428,218.709542 C158.497954,218.709542 160.425667,217.996552 160.425667,215.646327 C160.425667,213.269695 158.497954,212.556705 156.517428,212.556705 L152.001827,212.556705 Z" id="$0.0475-1-MNR" fill="#131F3C"></path>
                    <path d="M17.1326816,8.66815642 C18.9706704,7.35530726 21.097486,6.77765363 23.2768156,6.77765363 C26.8740223,6.77765363 29.7885475,8.40558659 29.7885475,12.0553073 C29.7885475,15.0748603 27.2941341,16.8603352 24.9572626,18.2519553 C22.8304469,19.5122905 21.0187151,20.4837989 20.9924581,21.6391061 L29.9198324,21.6128492 L29.9198324,25 L16.5287709,25 L16.5287709,23.2407821 C16.5287709,18.9346369 19.7846369,17.2541899 22.4103352,15.7050279 C24.274581,14.6284916 25.876257,13.9195531 25.876257,12.2128492 C25.876257,10.9 24.7209497,10.2173184 22.9092179,10.2173184 C21.123743,10.2173184 19.0231844,10.9 17.1326816,12.3441341 L17.1326816,8.66815642 Z M31.9416201,12.9217877 C31.9416201,8.85195531 35.1187151,6.77765363 38.7684358,6.77765363 C44.5187151,6.77765363 46.8555866,10.2960894 46.8555866,16.0726257 C46.8555866,22.6106145 42.9170391,25.3675978 38.374581,25.3675978 C36.7203911,25.3675978 34.9874302,24.973743 33.4645251,24.2648045 L33.4645251,20.7988827 C34.6986034,21.6128492 36.3265363,22.0592179 37.8494413,22.0592179 C40.2650838,22.0592179 42.4706704,21.0351955 42.9432961,17.4905028 C41.3678771,18.3307263 39.923743,18.698324 38.1907821,18.698324 C34.9611732,18.698324 31.9416201,16.7553073 31.9416201,12.9217877 Z M39.0835196,9.98100559 C37.3505587,9.98100559 35.8801676,10.7687151 35.8801676,12.7379888 C35.8801676,14.7860335 37.5343575,15.4162011 39.3723464,15.4162011 C40.5539106,15.4162011 41.7879888,15.0486034 42.9432961,14.3396648 C42.5756983,10.9787709 41.1315642,9.98100559 39.0835196,9.98100559 Z M66.627095,21.7441341 C66.627095,22.4005587 67.0472067,22.5843575 67.5198324,22.5843575 C67.7298883,22.5843575 67.9662011,22.5581006 68.202514,22.4793296 L68.202514,24.8687151 C67.6248603,25.0787709 66.8896648,25.2363128 66.1807263,25.2363128 C64.8941341,25.2363128 63.9226257,24.7636872 63.397486,23.8184358 C62.1634078,24.7899441 60.7192737,25.3675978 58.8550279,25.3675978 C56.4918994,25.3675978 54.4438547,24.0022346 54.4438547,21.5078212 C54.4438547,18.3044693 57.4634078,17.3067039 59.9840782,17.3067039 C60.9818436,17.3067039 62.0846369,17.4379888 62.9773743,17.6480447 L62.9773743,17.201676 C62.9773743,15.9413408 61.9796089,15.0748603 60.0103352,15.0748603 C58.2773743,15.0748603 56.7282123,15.547486 55.546648,16.0201117 L55.546648,12.8692737 C56.5706704,12.527933 58.4874302,12.0290503 60.4304469,12.0290503 C64.2114525,12.0290503 66.627095,13.5782123 66.627095,17.7268156 L66.627095,21.7441341 Z M60.8243017,19.4860335 C59.4851955,19.4860335 58.1723464,19.9324022 58.1723464,21.2189944 C58.1723464,22.1642458 59.0388268,22.7681564 60.1416201,22.7681564 C61.1656425,22.7681564 62.1371508,22.4793296 62.9773743,21.7441341 L62.9773743,19.7748603 C62.4259777,19.6435754 61.5857542,19.4860335 60.8243017,19.4860335 Z M77.8650838,25 L70.1455307,25 L70.1455307,12.396648 L77.6550279,12.396648 C80.648324,12.396648 81.8036313,14.024581 81.8036313,15.7312849 C81.8036313,17.175419 81.0946927,18.1469274 79.8606145,18.6195531 C81.2259777,19.0659218 82.0924581,20.0636872 82.0924581,21.5865922 C82.0924581,23.372067 81.0421788,25 77.8650838,25 Z M73.7952514,19.7748603 L73.7952514,22.5055866 L76.7885475,22.5055866 C77.7075419,22.5055866 78.4689944,22.1642458 78.4689944,21.1664804 C78.4689944,20.0899441 77.6812849,19.7748603 76.7885475,19.7748603 L73.7952514,19.7748603 Z M73.7689944,14.8910615 L73.7689944,17.5692737 L76.5522346,17.5692737 C77.4187151,17.5692737 78.1276536,17.227933 78.1276536,16.2564246 C78.1276536,15.2061453 77.3662011,14.8910615 76.5259777,14.8910615 L73.7689944,14.8910615 Z M88.2103352,25 L84.5606145,25 L84.5606145,12.396648 L94.1706704,12.396648 L94.1706704,15.4687151 L88.2103352,15.4687151 L88.2103352,25 Z M100.052235,23.1882682 C100.052235,24.6586592 99.0282123,25.3413408 97.846648,25.3413408 C96.6650838,25.3413408 95.6148045,24.6586592 95.6148045,23.1882682 C95.6148045,21.7178771 96.6650838,21.0351955 97.846648,21.0351955 C99.0282123,21.0351955 100.052235,21.7178771 100.052235,23.1882682 Z M125.810335,20.1424581 L108.375698,20.1424581 L108.375698,17.0703911 L125.810335,17.0703911 L125.810335,20.1424581 Z M138.755028,7.1452514 L141.617039,7.1452514 L141.617039,21.6128492 L144.610335,21.6128492 L144.610335,25 L134.422626,25 L134.422626,21.6128492 L137.78352,21.6128492 L137.78352,11.0837989 L134.422626,12.3441341 L134.422626,8.79944134 L138.755028,7.1452514 Z M146.317039,16.0726257 C146.317039,10.926257 148.758939,6.77765363 154.456704,6.77765363 C160.154469,6.77765363 162.596369,10.926257 162.596369,16.0726257 C162.596369,21.2189944 160.154469,25.3675978 154.456704,25.3675978 C148.758939,25.3675978 146.317039,21.2189944 146.317039,16.0726257 Z M158.657821,16.0726257 C158.657821,12.2653631 157.344972,10.2435754 154.456704,10.2435754 C151.568436,10.2435754 150.255587,12.2653631 150.255587,16.0726257 C150.255587,19.8798883 151.568436,21.901676 154.456704,21.901676 C157.344972,21.901676 158.657821,19.8798883 158.657821,16.0726257 Z M170.394693,18.8821229 C170.394693,14.050838 174.018156,12.0027933 177.510335,12.0027933 C178.901955,12.0027933 180.267318,12.3178771 181.396369,12.9217877 L181.396369,16.1251397 C180.503631,15.547486 179.243296,15.1798883 178.035475,15.1798883 C176.039944,15.1798883 174.123184,16.1513966 174.123184,18.698324 C174.123184,21.1139665 176.013687,22.2167598 177.982961,22.2167598 C179.322067,22.2167598 180.608659,21.849162 181.527654,21.2977654 L181.527654,24.5273743 C180.293575,25.052514 178.875698,25.3675978 177.274022,25.3675978 C173.834358,25.3675978 170.394693,23.372067 170.394693,18.8821229 Z M183.339385,18.698324 C183.339385,13.9458101 186.989106,12.0290503 189.82486,12.0290503 C195.05,12.0290503 196.730447,16.1513966 195.890223,19.8798883 L187.015363,19.8798883 C187.435475,21.7178771 189.378492,22.4793296 191.452793,22.4793296 C192.896927,22.4793296 194.18352,22.1905028 195.260056,21.7178771 L195.260056,24.5798883 C194.078492,25.0787709 192.52933,25.3675978 190.638827,25.3675978 C186.647765,25.3675978 183.339385,23.0832402 183.339385,18.698324 Z M192.608101,17.5167598 C192.739385,16.6502793 192.240503,14.8122905 189.956145,14.8122905 C188.406983,14.8122905 187.04162,15.7837989 186.989106,17.5167598 L192.608101,17.5167598 Z M202.008101,25 L198.35838,25 L198.35838,12.396648 L202.008101,12.396648 L202.008101,17.175419 L207.101955,17.175419 L207.101955,12.396648 L210.751676,12.396648 L210.751676,25 L207.101955,25 L207.101955,20.2212291 L202.008101,20.2212291 L202.008101,25 Z M220.361732,25 L216.738268,25 L216.738268,15.4687151 L212.72095,15.4687151 L212.72095,12.396648 L224.37905,12.396648 L224.37905,15.4687151 L220.361732,15.4687151 L220.361732,25 Z M230.286872,23.1882682 C230.286872,24.6586592 229.262849,25.3413408 228.081285,25.3413408 C226.899721,25.3413408 225.849441,24.6586592 225.849441,23.1882682 C225.849441,21.7178771 226.899721,21.0351955 228.081285,21.0351955 C229.262849,21.0351955 230.286872,21.7178771 230.286872,23.1882682 Z" id="29-авг.-—-10-сент." fill="#131F3C"></path>
                </g>
            </g>
            <path d="M106.882121,112.928629 L119.344324,112.928629 L119.344324,117.269397 L111.530943,117.241392 L111.334908,120.041887 C112.035032,119.929867 112.735156,119.873857 113.37927,119.873857 C117.271958,119.873857 120.184472,121.638169 120.184472,125.922926 C120.184472,130.627757 116.011735,132.420074 111.754983,132.420074 C109.542592,132.420074 107.330201,131.94399 105.621899,131.131847 L105.621899,126.371005 C107.106161,127.407188 109.346557,127.939282 111.194884,127.939282 C113.351265,127.939282 115.003557,127.295168 115.003557,125.810906 C115.003557,124.606693 114.023384,123.68253 110.914834,123.654525 C109.710621,123.654525 107.974314,123.822555 106.210003,124.438664 L106.882121,112.928629 Z M130.126229,133.680297 L127.045685,133.680297 L138.499709,110.716238 L141.580254,110.716238 L130.126229,133.680297 Z M132.590665,117.017352 C132.590665,120.377946 130.126229,122.058243 127.269725,122.058243 C124.385215,122.058243 121.920779,120.377946 121.920779,117.017352 C121.920779,113.656758 124.385215,111.976461 127.269725,111.976461 C130.126229,111.976461 132.590665,113.656758 132.590665,117.017352 Z M125.617433,117.017352 C125.617433,117.857501 126.065512,118.697649 127.269725,118.697649 C128.445933,118.697649 128.894012,117.857501 128.894012,117.017352 C128.894012,116.177204 128.445933,115.337055 127.269725,115.337055 C126.065512,115.337055 125.617433,116.177204 125.617433,117.017352 Z M146.59314,127.379183 C146.59314,130.739777 144.128704,132.420074 141.272199,132.420074 C138.38769,132.420074 135.923254,130.739777 135.923254,127.379183 C135.923254,124.018589 138.38769,122.338292 141.272199,122.338292 C144.128704,122.338292 146.59314,124.018589 146.59314,127.379183 Z M139.619907,127.379183 C139.619907,128.219332 140.067987,129.05948 141.272199,129.05948 C142.448407,129.05948 142.896486,128.219332 142.896486,127.379183 C142.896486,126.539035 142.448407,125.698886 141.272199,125.698886 C140.067987,125.698886 139.619907,126.539035 139.619907,127.379183 Z" id="5%" fill="#131F3C"></path>
            <path d="M87.514929,144.547374 L90.7584466,144.547374 L90.7584466,161 L87.890989,161 L87.890989,159.354737 C87.1623727,160.365399 85.8696664,161.329053 83.8013363,161.329053 C80.2052624,161.329053 78.2779549,158.438091 78.2779549,155.3591 C78.2779549,152.280108 80.2052624,149.389147 83.8013363,149.389147 C85.5876214,149.389147 86.7863127,150.117763 87.514929,150.916891 L87.514929,144.547374 Z M87.514929,154.019386 C87.0683577,153.032228 86.0106889,152.139086 84.5769601,152.139086 C82.7201638,152.139086 81.6154875,153.596318 81.6154875,155.3591 C81.6154875,157.121881 82.7201638,158.579114 84.5769601,158.579114 C86.0106889,158.579114 87.0683577,157.685971 87.514929,156.698814 L87.514929,154.019386 Z M96.8224144,161 L93.555393,161 L93.555393,149.7182 L96.8224144,149.7182 L96.8224144,161 Z M97.1044594,145.981103 C97.1044594,147.273809 96.2113168,147.837899 95.1771518,147.837899 C94.1664905,147.837899 93.273348,147.273809 93.273348,145.981103 C93.273348,144.711901 94.1664905,144.147811 95.1771518,144.147811 C96.2113168,144.147811 97.1044594,144.711901 97.1044594,145.981103 Z M99.1492857,152.867702 C99.1492857,150.258786 101.476157,149.389147 103.850036,149.389147 C105.448291,149.389147 106.858516,149.788711 108.0102,150.352801 L108.0102,153.032228 C107.046546,152.374123 105.401283,151.880545 104.06157,151.880545 C103.332953,151.880545 102.486818,152.092078 102.486818,152.773687 C102.486818,154.653987 108.856335,153.713837 108.856335,157.850497 C108.856335,160.506421 106.435448,161.329053 103.732517,161.329053 C102.016743,161.329053 100.394984,160.952992 99.2433007,160.271384 L99.2433007,157.568452 C100.465496,158.36758 102.18127,158.767144 103.544487,158.767144 C104.743178,158.767144 105.518802,158.55561 105.518802,157.921009 C105.518802,156.11122 99.1492857,156.910347 99.1492857,152.867702 Z M110.219552,155.523626 C110.219552,151.198936 113.46307,149.365643 116.589069,149.365643 C117.834768,149.365643 119.056963,149.647688 120.067624,150.188275 L120.067624,153.055732 C119.268497,152.53865 118.140316,152.209597 117.059144,152.209597 C115.272859,152.209597 113.557085,153.079236 113.557085,155.3591 C113.557085,157.521445 115.249355,158.508602 117.012136,158.508602 C118.210828,158.508602 119.362512,158.17955 120.185143,157.685971 L120.185143,160.576932 C119.080466,161.047008 117.811264,161.329053 116.377535,161.329053 C113.298544,161.329053 110.219552,159.542767 110.219552,155.523626 Z M121.73639,155.3591 C121.73639,151.41047 124.697863,149.389147 127.964884,149.389147 C131.255409,149.389147 134.193378,151.41047 134.193378,155.3591 C134.193378,159.30773 131.255409,161.329053 127.964884,161.329053 C124.697863,161.329053 121.73639,159.30773 121.73639,155.3591 Z M130.879349,155.3591 C130.879349,153.619822 129.845184,152.303612 127.964884,152.303612 C126.108088,152.303612 125.073923,153.619822 125.073923,155.3591 C125.073923,157.098377 126.108088,158.414587 127.964884,158.414587 C129.845184,158.414587 130.879349,157.098377 130.879349,155.3591 Z M144.158969,149.7182 L147.42599,149.7182 L147.42599,161 L144.535029,161 L144.535029,159.566271 C143.66539,160.576932 142.372684,161.329053 140.774429,161.329053 C137.718941,161.329053 136.191197,159.30773 136.191197,156.698814 L136.191197,149.7182 L139.458219,149.7182 L139.458219,156.275746 C139.458219,157.779986 140.28085,158.508602 141.620564,158.508602 C142.795751,158.508602 143.66539,157.756482 144.158969,157.074874 L144.158969,149.7182 Z M153.090394,151.151928 C153.960033,150.141267 155.229235,149.389147 156.850994,149.389147 C159.812467,149.389147 161.434226,151.41047 161.434226,154.019386 L161.434226,161 L158.167204,161 L158.167204,154.442453 C158.167204,152.91471 157.250558,152.209597 155.981355,152.209597 C154.829672,152.209597 153.936529,152.961717 153.466454,153.643326 L153.466454,161 L150.199433,161 L150.199433,149.7182 L153.090394,149.7182 L153.090394,151.151928 Z M164.912781,146.427674 L168.156298,145.652051 L168.156298,149.7182 L171.728869,149.7182 L171.728869,152.468138 L168.156298,152.468138 L168.156298,156.886844 C168.156298,158.062031 168.743892,158.579114 169.966087,158.579114 C170.718207,158.579114 171.352809,158.461595 172.010914,158.203054 L172.010914,160.835474 C171.141275,161.141023 170.10711,161.329053 168.97893,161.329053 C166.793081,161.329053 164.912781,160.318391 164.912781,157.521445 L164.912781,152.468138 L163.008977,152.468138 L163.008977,149.7182 L164.912781,149.7182 L164.912781,146.427674 Z" id="discount" fill="#131F3C"></path>
        </g>
    </g>
</svg>