<?xml version="1.0" encoding="UTF-8" standalone="no"?>
<svg width="250px" height="293px" viewBox="0 0 250 293" version="1.1" xmlns="http://www.w3.org/2000/svg" xmlns:xlink="http://www.w3.org/1999/xlink">
    <!-- Generator: Sketch 49.2 (51160) - http://www.bohemiancoding.com/sketch -->
    <title>ru Group 36 Copy</title>
    <desc>Created with Sketch.</desc>
    <defs>
        <radialGradient cx="50%" cy="50%" fx="50%" fy="50%" r="50.0253367%" gradientTransform="translate(0.500000,0.500000),scale(1.000000,1.000000),rotate(88.176375),translate(-0.500000,-0.500000)" id="radialGradient-1">
            <stop stop-color="#FF9495" offset="0%"></stop>
            <stop stop-color="#FE5F60" offset="70.3742825%"></stop>
            <stop stop-color="#FF9091" offset="100%"></stop>
        </radialGradient>
    </defs>
    <g id="Monoreto" stroke="none" stroke-width="1" fill="none" fill-rule="evenodd">
        <g id="ru-Group-36-Copy" transform="translate(0.000000, -6.000000)">
            <g id="5">
                <g id="Group-7" transform="translate(0.637670, 49.351157)">
                    <path d="M124.637764,0 C132.821471,3.54941064e-05 140.926556,0.798353806 148.953007,2.39495144 C156.979458,3.99155257 164.773039,6.3557574 172.333767,9.48756474 C179.894518,12.6193674 187.07714,16.4586026 193.881645,21.0052615 C200.686127,25.5519244 206.981723,30.7186496 212.768466,36.505437 C218.55521,42.2922239 223.721866,48.5878904 228.268475,55.3924265 C232.815084,62.1969726 236.654249,69.3796356 239.785993,76.9404155 C242.917771,84.501213 245.281976,92.2948576 246.878535,100.321349 C248.475089,108.347835 249.273352,116.452955 249.273352,124.63668 C249.273317,132.820463 248.47502,140.925612 246.87839,148.952133 C245.281836,156.978654 242.917632,164.77231 239.785777,172.333131 C236.653998,179.893946 232.81477,187.076626 228.26812,193.88116 C223.721476,200.685701 218.554745,206.981366 212.767931,212.768162 C206.981152,218.554958 200.685522,223.721672 193.880953,228.268334 C187.076412,232.814977 179.893755,236.654194 172.332969,239.785956 C164.772184,242.917752 156.978533,245.281921 148.952047,246.878499 C140.925544,248.47507 132.820424,249.27335 124.636682,249.27335 C116.452899,249.273315 108.347767,248.475 100.321264,246.878388 C92.2947429,245.281799 84.5010693,242.917595 76.9402486,239.785775 C69.3794278,236.653979 62.1967532,232.81475 55.392213,228.268101 C48.5876669,223.72144 42.2920016,218.554726 36.5052171,212.767929 C30.7184267,206.981156 25.5517068,200.685485 21.005063,193.880951 C16.4584077,187.076411 12.6191964,179.893754 9.48740589,172.33295 C6.35561542,164.772164 3.99144027,156.978532 2.39487464,148.952046 C0.798285727,140.925542 0,132.820422 0,124.63668 C2.90935298e-05,116.452914 0.798343914,108.347783 2.39494446,100.32125 C3.99154501,92.2947296 6.35574925,84.5010675 9.48755718,76.9402584 C12.6193651,69.3794494 16.4586055,62.1967689 21.0052667,55.3922229 C25.5519221,48.5876774 30.7186478,42.2920022 36.5054382,36.5052148 C42.2922344,30.7184232 48.5878997,25.5517027 55.3924283,21.0050526 C62.1969627,16.458403 69.3796431,12.6191853 76.9404289,9.48740007 C84.5012089,6.35561542 92.2948651,3.99143736 100.321351,2.39486707 C108.347837,0.798292128 116.452951,4.65496476e-06 124.636682,4.65496476e-06 L124.636577,56.086505 C120.135546,56.0865341 115.67776,56.5256079 111.263212,57.4037437 C106.848659,58.2818679 102.562199,59.5821799 98.4037791,61.3046682 C94.2453594,63.0271681 90.2949352,65.1387532 86.5524599,67.6394177 C82.8099904,70.1400823 79.3474123,72.9817811 76.1647023,76.1645144 C72.9819924,79.3472476 70.1403109,82.8098664 67.6396813,86.5523534 C65.1390459,90.294852 63.0274898,94.2453169 61.305019,98.4037482 C59.5825599,102.56218 58.2822653,106.848681 57.4041528,111.263263 C56.5260693,115.67781 56.0870247,120.135637 56.0870072,124.636697 C56.0870247,129.137757 56.5261042,133.595602 57.40424,138.010184 C58.2823526,142.424773 59.5826646,146.711274 61.3051587,150.869722 C63.0276702,155.028177 65.1392379,158.978642 67.6399082,162.721146 C70.1405786,166.463656 72.9822775,169.926287 76.1650049,173.109014 C79.347744,176.291742 82.8103628,179.133441 86.5528497,181.634111 C90.2953425,184.134741 94.2458016,186.246314 98.4042387,187.968808 C102.562676,189.691296 106.849177,190.991608 111.263742,191.869727 C115.678313,192.747822 120.136116,193.186872 124.637176,193.186872 C129.138242,193.186855 133.596081,192.747787 138.010686,191.869674 C142.425251,190.991539 146.71177,189.691227 150.870224,187.968715 C155.028679,186.246227 158.979138,184.134653 162.721648,181.633983 C166.464135,179.133313 169.926754,176.29162 173.109493,173.108892 C176.292238,169.926165 179.133937,166.463546 181.634607,162.721042 C184.13526,158.978531 186.246828,155.028072 187.969305,150.869635 C189.691775,146.711198 190.992087,142.424697 191.870206,138.010132 C192.748318,133.59555 193.187369,129.13774 193.187351,124.636697 C193.187334,120.135637 192.748266,115.677793 191.870153,111.263211 C190.992018,106.848622 189.691706,102.562104 187.969194,98.4036551 C186.246723,94.2452064 184.13515,90.2947356 181.634479,86.552237 C179.133815,82.8097384 176.292098,79.3471254 173.109371,76.1643922 C169.926644,72.9816531 166.464031,70.1399659 162.72152,67.6393072 C158.979016,65.1386426 155.028551,63.027075 150.870114,61.3045925 C146.711683,59.5821101 142.425182,58.2818039 138.010628,57.4036855 C133.596046,56.525573 129.138242,56.0865167 124.637176,56.0865167 L124.637764,0 Z" id="Fill-8" fill="url(#radialGradient-1)"></path>
                    <circle id="Oval" fill="#FFFFFF" cx="124.90822" cy="124.90822" r="87.3982442"></circle>
                    <path d="M77.8377005,151.589233 L75.5138824,151.589233 L75.5138824,148.446797 C73.5597627,148.235541 71.711271,147.707401 70.2324777,146.888783 L70.2324777,143.931196 C72.2658185,145.225141 74.6424506,145.753281 76.7550125,145.753281 C79.1316447,145.753281 80.7424731,145.198734 80.7424731,143.45587 C80.7424731,139.177932 70.3116987,141.448936 70.3116987,134.899994 C70.3116987,131.889594 72.6091098,130.278765 75.5138824,129.935474 L75.5138824,126.766631 L77.8377005,126.766631 L77.8377005,129.909067 C79.6069711,130.041102 81.3762417,130.516428 82.6173718,131.255825 L82.6173718,134.134191 C81.1121714,133.130724 79.0524236,132.576176 77.0718968,132.602583 C74.8272998,132.602583 73.3749135,133.262759 73.3749135,134.84718 C73.3749135,138.834641 83.8056879,136.695672 83.8056879,143.297428 C83.8056879,146.862376 81.1385785,148.288355 77.8377005,148.473204 L77.8377005,151.589233 Z M85.9710638,139.177932 C85.9710638,133.922934 88.453324,129.856253 94.025206,129.856253 C99.597088,129.856253 102.079348,133.922934 102.079348,139.177932 C102.079348,144.43293 99.597088,148.499611 94.025206,148.499611 C88.453324,148.499611 85.9710638,144.43293 85.9710638,139.177932 Z M99.0425405,139.177932 C99.0425405,135.005622 97.4581191,132.602583 94.025206,132.602583 C90.5658859,132.602583 89.0078715,135.005622 89.0078715,139.177932 C89.0078715,143.350242 90.5658859,145.753281 94.025206,145.753281 C97.4581191,145.753281 99.0425405,143.350242 99.0425405,139.177932 Z M108.179371,146.703934 C108.179371,147.89225 107.360753,148.446797 106.4101,148.446797 C105.459447,148.446797 104.614423,147.89225 104.614423,146.703934 C104.614423,145.568432 105.459447,145.013884 106.4101,145.013884 C107.360753,145.013884 108.179371,145.568432 108.179371,146.703934 Z M110.714445,139.177932 C110.714445,133.922934 113.196705,129.856253 118.768587,129.856253 C124.340469,129.856253 126.822729,133.922934 126.822729,139.177932 C126.822729,144.43293 124.340469,148.499611 118.768587,148.499611 C113.196705,148.499611 110.714445,144.43293 110.714445,139.177932 Z M123.785922,139.177932 C123.785922,135.005622 122.2015,132.602583 118.768587,132.602583 C115.309267,132.602583 113.751253,135.005622 113.751253,139.177932 C113.751253,143.350242 115.309267,145.753281 118.768587,145.753281 C122.2015,145.753281 123.785922,143.350242 123.785922,139.177932 Z M130.519713,130.199544 L141.584256,130.199544 L141.584256,132.89306 L133.29245,132.89306 L133.02838,137.223812 C133.899812,137.012556 134.824058,136.906928 135.748304,136.906928 C139.207624,136.906928 142.429281,138.412128 142.429281,142.637252 C142.429281,146.519085 139.128403,148.499611 135.167349,148.499611 C133.081194,148.499611 130.995039,148.050692 129.410618,147.284888 L129.410618,144.459337 C130.915818,145.330769 132.949159,145.779688 134.824058,145.779688 C137.491167,145.779688 139.392473,144.723407 139.392473,142.610845 C139.392473,140.234213 137.359132,139.389188 134.507173,139.389188 C133.054787,139.389188 131.391145,139.679666 129.938758,140.181399 L130.519713,130.199544 Z M144.779506,139.177932 C144.779506,133.922934 147.261766,129.856253 152.833648,129.856253 C158.40553,129.856253 160.88779,133.922934 160.88779,139.177932 C160.88779,144.43293 158.40553,148.499611 152.833648,148.499611 C147.261766,148.499611 144.779506,144.43293 144.779506,139.177932 Z M157.850982,139.177932 C157.850982,135.005622 156.266561,132.602583 152.833648,132.602583 C149.374328,132.602583 147.816313,135.005622 147.816313,139.177932 C147.816313,143.350242 149.374328,145.753281 152.833648,145.753281 C156.266561,145.753281 157.850982,143.350242 157.850982,139.177932 Z M163.422864,139.177932 C163.422864,133.922934 165.905125,129.856253 171.477007,129.856253 C177.048889,129.856253 179.531149,133.922934 179.531149,139.177932 C179.531149,144.43293 177.048889,148.499611 171.477007,148.499611 C165.905125,148.499611 163.422864,144.43293 163.422864,139.177932 Z M176.494341,139.177932 C176.494341,135.005622 174.90992,132.602583 171.477007,132.602583 C168.017686,132.602583 166.459672,135.005622 166.459672,139.177932 C166.459672,143.350242 168.017686,145.753281 171.477007,145.753281 C174.90992,145.753281 176.494341,143.350242 176.494341,139.177932 Z M90.2886122,162.199544 L92.5068022,162.199544 L92.5068022,177.436397 L95.702052,177.436397 L95.702052,180.15632 L85.9314533,180.15632 L85.9314533,177.436397 L89.5228085,177.436397 L89.5228085,165.289166 L85.9314533,166.635924 L85.9314533,163.863187 L90.2886122,162.199544 Z M121.528121,161.671404 L124.248045,161.671404 L124.248045,180.15632 L121.237644,180.15632 L121.237644,167.216879 L115.401692,175.98401 L113.606014,175.98401 L107.770062,167.190472 L107.770062,180.15632 L104.759661,180.15632 L104.759661,161.671404 L107.479585,161.671404 L114.503853,172.26062 L121.528121,161.671404 Z M131.747639,180.15632 L128.737239,180.15632 L128.737239,161.671404 L131.56279,161.671404 L141.518238,175.1918 C141.491831,174.558031 141.491831,173.845041 141.491831,173.158459 L141.491831,161.671404 L144.502232,161.671404 L144.502232,180.15632 L141.67668,180.15632 L131.721232,166.635924 C131.747639,167.269693 131.747639,167.982682 131.747639,168.642858 L131.747639,180.15632 Z M152.001827,180.15632 L148.991426,180.15632 L148.991426,161.671404 L156.385393,161.671404 C159.844713,161.671404 163.488882,163.044569 163.488882,167.454542 C163.488882,170.75542 161.429134,172.339841 158.999688,172.920796 L164.914861,180.15632 L161.297099,180.15632 L155.751624,173.23768 L152.001827,173.23768 L152.001827,180.15632 Z M152.001827,164.417734 L152.001827,170.570571 L156.517428,170.570571 C158.497954,170.570571 160.425667,169.857581 160.425667,167.507356 C160.425667,165.130724 158.497954,164.417734 156.517428,164.417734 L152.001827,164.417734 Z" id="$0.0500-1-MNR" fill="#131F3C"></path>
                </g>
                <path d="M25.4486433,7.73343974 L28.3106544,7.73343974 L28.3106544,22.2010375 L31.3039505,22.2010375 L31.3039505,25.5881883 L21.116241,25.5881883 L21.116241,22.2010375 L24.4771349,22.2010375 L24.4771349,11.6719872 L21.116241,12.9323224 L21.116241,9.38762969 L25.4486433,7.73343974 Z M37.5531125,7.73343974 L40.4151237,7.73343974 L40.4151237,22.2010375 L43.4084198,22.2010375 L43.4084198,25.5881883 L33.2207103,25.5881883 L33.2207103,22.2010375 L36.5816042,22.2010375 L36.5816042,11.6719872 L33.2207103,12.9323224 L33.2207103,9.38762969 L37.5531125,7.73343974 Z M68.6938947,20.7306464 L51.2592578,20.7306464 L51.2592578,17.6585794 L68.6938947,17.6585794 L68.6938947,20.7306464 Z M89.8045092,12.3021548 C89.8045092,14.1401437 88.7804868,15.5580208 87.1000399,16.1356744 C88.9117717,16.687071 90.5397047,18.0786911 90.5397047,20.7043895 C90.5397047,24.4591381 87.0737829,25.9557861 83.3978053,25.9557861 C81.0871907,25.9557861 79.2229449,25.5881883 77.2011572,24.7479649 L77.2011572,21.0982442 C79.2229449,22.2272945 81.0346768,22.5161213 83.0827215,22.4898643 C85.1045092,22.4898643 86.7849561,21.8334397 86.7849561,20.1529928 C86.7849561,18.6300878 85.4721069,18.0786911 83.6866321,18.0786911 L80.74585,18.0786911 L80.7721069,14.7177973 L83.2402634,14.7440543 C84.9994812,14.7440543 86.0760176,14.0876297 86.0760176,12.8535515 C86.0760176,11.5669593 84.9469673,10.8055068 82.7938947,10.8055068 C81.1922187,10.8055068 79.2754589,11.3306464 77.516241,12.4071828 L77.516241,8.75746209 C79.117917,7.89098164 81.1397047,7.36584198 83.3452913,7.36584198 C87.0475259,7.36584198 89.8045092,9.04628891 89.8045092,12.3021548 Z M92.7452913,16.660814 C92.7452913,11.5144453 95.1871907,7.36584198 100.884956,7.36584198 C106.582721,7.36584198 109.024621,11.5144453 109.024621,16.660814 C109.024621,21.8071828 106.582721,25.9557861 100.884956,25.9557861 C95.1871907,25.9557861 92.7452913,21.8071828 92.7452913,16.660814 Z M105.086073,16.660814 C105.086073,12.8535515 103.773224,10.8317638 100.884956,10.8317638 C97.9966879,10.8317638 96.6838388,12.8535515 96.6838388,16.660814 C96.6838388,20.4680766 97.9966879,22.4898643 100.884956,22.4898643 C103.773224,22.4898643 105.086073,20.4680766 105.086073,16.660814 Z M116.822945,19.4703113 C116.822945,14.6390263 120.446409,12.5909816 123.938587,12.5909816 C125.330208,12.5909816 126.695571,12.9060654 127.824621,13.5099761 L127.824621,16.713328 C126.931883,16.1356744 125.671548,15.7680766 124.463727,15.7680766 C122.468196,15.7680766 120.551437,16.739585 120.551437,19.2865124 C120.551437,21.7021548 122.441939,22.8049481 124.411213,22.8049481 C125.750319,22.8049481 127.036911,22.4373504 127.955906,21.8859537 L127.955906,25.1155626 C126.721828,25.6407023 125.303951,25.9557861 123.702275,25.9557861 C120.26261,25.9557861 116.822945,23.9602554 116.822945,19.4703113 Z M129.767638,19.2865124 C129.767638,14.5339984 133.417358,12.6172386 136.253113,12.6172386 C141.478252,12.6172386 143.158699,16.739585 142.318476,20.4680766 L133.443615,20.4680766 C133.863727,22.3060654 135.806744,23.067518 137.881045,23.067518 C139.32518,23.067518 140.611772,22.7786911 141.688308,22.3060654 L141.688308,25.1680766 C140.506744,25.6669593 138.957582,25.9557861 137.067079,25.9557861 C133.076018,25.9557861 129.767638,23.6714286 129.767638,19.2865124 Z M139.036353,18.1049481 C139.167638,17.2384677 138.668755,15.4004789 136.384397,15.4004789 C134.835235,15.4004789 133.469872,16.3719872 133.417358,18.1049481 L139.036353,18.1049481 Z M148.436353,25.5881883 L144.786632,25.5881883 L144.786632,12.9848364 L148.436353,12.9848364 L148.436353,17.7636073 L153.530208,17.7636073 L153.530208,12.9848364 L157.179928,12.9848364 L157.179928,25.5881883 L153.530208,25.5881883 L153.530208,20.8094174 L148.436353,20.8094174 L148.436353,25.5881883 Z M166.789984,25.5881883 L163.16652,25.5881883 L163.16652,16.0569034 L159.149202,16.0569034 L159.149202,12.9848364 L170.807302,12.9848364 L170.807302,16.0569034 L166.789984,16.0569034 L166.789984,25.5881883 Z M175.769872,25.5881883 L171.673783,25.5881883 L174.982163,21.360814 C173.275459,20.6256185 172.408978,19.1027135 172.408978,17.3960096 C172.408978,15.0328811 174.141939,12.9848364 177.450319,12.9848364 L184.277135,12.9848364 L184.277135,25.5881883 L180.627414,25.5881883 L180.627414,21.8334397 L178.57937,21.8334397 L175.769872,25.5881883 Z M176.111213,17.5010375 C176.111213,18.5250599 176.872666,19.1027135 178.185515,19.1027135 L180.627414,19.1027135 L180.627414,15.8731045 L178.185515,15.8731045 C176.872666,15.8731045 176.111213,16.4507582 176.111213,17.5010375 Z M200.267638,19.837909 C200.267638,23.8552275 197.37937,25.9557861 193.572107,25.9557861 C189.869872,25.9557861 186.850319,23.7764565 186.850319,18.341261 C186.850319,13.8250599 188.451995,11.2256185 190.710096,9.80774142 C194.333559,7.54964086 197.405626,8.54740623 199.164844,6.84070231 L199.164844,10.1753392 C197.45814,11.5669593 195.331325,10.8842777 192.889425,12.1708699 C191.445291,12.9585794 190.76261,14.5077414 190.578811,15.7418196 C191.36652,14.6390263 192.75814,13.7725459 194.6749,13.7725459 C197.773224,13.7725459 200.267638,15.9781325 200.267638,19.837909 Z M190.578811,19.864166 C190.578811,21.2820431 191.36652,23.041261 193.572107,23.041261 C195.803951,23.041261 196.539146,21.2820431 196.539146,19.864166 C196.539146,18.4462889 195.803951,16.687071 193.572107,16.687071 C191.36652,16.687071 190.578811,18.5250599 190.578811,19.864166 Z M205.912889,14.8228252 C206.700599,13.6937749 208.144733,12.6172386 210.481604,12.6172386 C214.472666,12.6172386 216.625738,15.8468476 216.625738,19.2865124 C216.625738,22.7261772 214.472666,25.9557861 210.481604,25.9557861 C208.486073,25.9557861 207.146967,25.1418196 206.333001,24.2490822 L206.333001,31.3647247 L202.68328,31.3647247 L202.68328,12.9848364 L205.912889,12.9848364 L205.912889,14.8228252 Z M212.897247,19.2865124 C212.897247,17.3172386 211.663168,15.6893057 209.588867,15.6893057 C207.987191,15.6893057 206.805626,16.687071 206.306744,17.7898643 L206.306744,20.7831604 C206.805626,21.8859537 207.987191,22.8837191 209.588867,22.8837191 C211.663168,22.8837191 212.897247,21.2557861 212.897247,19.2865124 Z M222.00842,25.5881883 L217.91233,25.5881883 L221.22071,21.360814 C219.514006,20.6256185 218.647526,19.1027135 218.647526,17.3960096 C218.647526,15.0328811 220.380487,12.9848364 223.688867,12.9848364 L230.515682,12.9848364 L230.515682,25.5881883 L226.865962,25.5881883 L226.865962,21.8334397 L224.817917,21.8334397 L222.00842,25.5881883 Z M222.349761,17.5010375 C222.349761,18.5250599 223.111213,19.1027135 224.424062,19.1027135 L226.865962,19.1027135 L226.865962,15.8731045 L224.424062,15.8731045 C223.111213,15.8731045 222.349761,16.4507582 222.349761,17.5010375 Z" id="11-—-30-сентября" fill="#131F3C"></path>
            </g>
            <path d="M103.969607,122.478317 C103.969607,117.045357 106.574067,112.53656 112.791166,112.53656 C119.008265,112.53656 121.612725,117.045357 121.612725,122.478317 C121.612725,127.911277 119.008265,132.420074 112.791166,132.420074 C106.574067,132.420074 103.969607,127.911277 103.969607,122.478317 Z M116.431809,122.478317 C116.431809,118.809669 115.283606,117.017352 112.791166,117.017352 C110.298725,117.017352 109.150522,118.809669 109.150522,122.478317 C109.150522,126.146966 110.298725,127.939282 112.791166,127.939282 C115.283606,127.939282 116.431809,126.146966 116.431809,122.478317 Z M131.666502,133.680297 L128.585957,133.680297 L140.039982,110.716238 L143.120526,110.716238 L131.666502,133.680297 Z M134.130937,117.017352 C134.130937,120.377946 131.666502,122.058243 128.809997,122.058243 C125.925487,122.058243 123.461052,120.377946 123.461052,117.017352 C123.461052,113.656758 125.925487,111.976461 128.809997,111.976461 C131.666502,111.976461 134.130937,113.656758 134.130937,117.017352 Z M127.157705,117.017352 C127.157705,117.857501 127.605784,118.697649 128.809997,118.697649 C129.986205,118.697649 130.434284,117.857501 130.434284,117.017352 C130.434284,116.177204 129.986205,115.337055 128.809997,115.337055 C127.605784,115.337055 127.157705,116.177204 127.157705,117.017352 Z M148.133412,127.379183 C148.133412,130.739777 145.668976,132.420074 142.812472,132.420074 C139.927962,132.420074 137.463526,130.739777 137.463526,127.379183 C137.463526,124.018589 139.927962,122.338292 142.812472,122.338292 C145.668976,122.338292 148.133412,124.018589 148.133412,127.379183 Z M141.16018,127.379183 C141.16018,128.219332 141.608259,129.05948 142.812472,129.05948 C143.988679,129.05948 144.436759,128.219332 144.436759,127.379183 C144.436759,126.539035 143.988679,125.698886 142.812472,125.698886 C141.608259,125.698886 141.16018,126.539035 141.16018,127.379183 Z" id="0%" fill="#131F3C"></path>
            <path d="M87.514929,144.547374 L90.7584466,144.547374 L90.7584466,161 L87.890989,161 L87.890989,159.354737 C87.1623727,160.365399 85.8696664,161.329053 83.8013363,161.329053 C80.2052624,161.329053 78.2779549,158.438091 78.2779549,155.3591 C78.2779549,152.280108 80.2052624,149.389147 83.8013363,149.389147 C85.5876214,149.389147 86.7863127,150.117763 87.514929,150.916891 L87.514929,144.547374 Z M87.514929,154.019386 C87.0683577,153.032228 86.0106889,152.139086 84.5769601,152.139086 C82.7201638,152.139086 81.6154875,153.596318 81.6154875,155.3591 C81.6154875,157.121881 82.7201638,158.579114 84.5769601,158.579114 C86.0106889,158.579114 87.0683577,157.685971 87.514929,156.698814 L87.514929,154.019386 Z M96.8224144,161 L93.555393,161 L93.555393,149.7182 L96.8224144,149.7182 L96.8224144,161 Z M97.1044594,145.981103 C97.1044594,147.273809 96.2113168,147.837899 95.1771518,147.837899 C94.1664905,147.837899 93.273348,147.273809 93.273348,145.981103 C93.273348,144.711901 94.1664905,144.147811 95.1771518,144.147811 C96.2113168,144.147811 97.1044594,144.711901 97.1044594,145.981103 Z M99.1492857,152.867702 C99.1492857,150.258786 101.476157,149.389147 103.850036,149.389147 C105.448291,149.389147 106.858516,149.788711 108.0102,150.352801 L108.0102,153.032228 C107.046546,152.374123 105.401283,151.880545 104.06157,151.880545 C103.332953,151.880545 102.486818,152.092078 102.486818,152.773687 C102.486818,154.653987 108.856335,153.713837 108.856335,157.850497 C108.856335,160.506421 106.435448,161.329053 103.732517,161.329053 C102.016743,161.329053 100.394984,160.952992 99.2433007,160.271384 L99.2433007,157.568452 C100.465496,158.36758 102.18127,158.767144 103.544487,158.767144 C104.743178,158.767144 105.518802,158.55561 105.518802,157.921009 C105.518802,156.11122 99.1492857,156.910347 99.1492857,152.867702 Z M110.219552,155.523626 C110.219552,151.198936 113.46307,149.365643 116.589069,149.365643 C117.834768,149.365643 119.056963,149.647688 120.067624,150.188275 L120.067624,153.055732 C119.268497,152.53865 118.140316,152.209597 117.059144,152.209597 C115.272859,152.209597 113.557085,153.079236 113.557085,155.3591 C113.557085,157.521445 115.249355,158.508602 117.012136,158.508602 C118.210828,158.508602 119.362512,158.17955 120.185143,157.685971 L120.185143,160.576932 C119.080466,161.047008 117.811264,161.329053 116.377535,161.329053 C113.298544,161.329053 110.219552,159.542767 110.219552,155.523626 Z M121.73639,155.3591 C121.73639,151.41047 124.697863,149.389147 127.964884,149.389147 C131.255409,149.389147 134.193378,151.41047 134.193378,155.3591 C134.193378,159.30773 131.255409,161.329053 127.964884,161.329053 C124.697863,161.329053 121.73639,159.30773 121.73639,155.3591 Z M130.879349,155.3591 C130.879349,153.619822 129.845184,152.303612 127.964884,152.303612 C126.108088,152.303612 125.073923,153.619822 125.073923,155.3591 C125.073923,157.098377 126.108088,158.414587 127.964884,158.414587 C129.845184,158.414587 130.879349,157.098377 130.879349,155.3591 Z M144.158969,149.7182 L147.42599,149.7182 L147.42599,161 L144.535029,161 L144.535029,159.566271 C143.66539,160.576932 142.372684,161.329053 140.774429,161.329053 C137.718941,161.329053 136.191197,159.30773 136.191197,156.698814 L136.191197,149.7182 L139.458219,149.7182 L139.458219,156.275746 C139.458219,157.779986 140.28085,158.508602 141.620564,158.508602 C142.795751,158.508602 143.66539,157.756482 144.158969,157.074874 L144.158969,149.7182 Z M153.090394,151.151928 C153.960033,150.141267 155.229235,149.389147 156.850994,149.389147 C159.812467,149.389147 161.434226,151.41047 161.434226,154.019386 L161.434226,161 L158.167204,161 L158.167204,154.442453 C158.167204,152.91471 157.250558,152.209597 155.981355,152.209597 C154.829672,152.209597 153.936529,152.961717 153.466454,153.643326 L153.466454,161 L150.199433,161 L150.199433,149.7182 L153.090394,149.7182 L153.090394,151.151928 Z M164.912781,146.427674 L168.156298,145.652051 L168.156298,149.7182 L171.728869,149.7182 L171.728869,152.468138 L168.156298,152.468138 L168.156298,156.886844 C168.156298,158.062031 168.743892,158.579114 169.966087,158.579114 C170.718207,158.579114 171.352809,158.461595 172.010914,158.203054 L172.010914,160.835474 C171.141275,161.141023 170.10711,161.329053 168.97893,161.329053 C166.793081,161.329053 164.912781,160.318391 164.912781,157.521445 L164.912781,152.468138 L163.008977,152.468138 L163.008977,149.7182 L164.912781,149.7182 L164.912781,146.427674 Z" id="discount" fill="#131F3C"></path>
        </g>
    </g>
</svg>