<?xml version="1.0" encoding="UTF-8" standalone="no"?>
<svg width="250px" height="364px" viewBox="0 0 250 364" version="1.1" xmlns="http://www.w3.org/2000/svg" xmlns:xlink="http://www.w3.org/1999/xlink">
    <!-- Generator: Sketch 49 (51002) - http://www.bohemiancoding.com/sketch -->
    <title>ar0</title>
    <desc>Created with Sketch.</desc>
    <defs>
        <radialGradient cx="50%" cy="50%" fx="50%" fy="50%" r="50.0253367%" gradientTransform="translate(0.500000,0.500000),scale(1.000000,1.000000),rotate(88.176375),translate(-0.500000,-0.500000)" id="radialGradient-1">
            <stop stop-color="#FF9495" offset="0%"></stop>
            <stop stop-color="#FE5F60" offset="70.3742825%"></stop>
            <stop stop-color="#FF9091" offset="100%"></stop>
        </radialGradient>
    </defs>
    <g id="Monoreto" stroke="none" stroke-width="1" fill="none" fill-rule="evenodd">
        <g id="ar0" transform="translate(0.000000, -5.000000)">
            <g id="5-copy">
                <g id="Group-7" transform="translate(0.637670, 119.351157)">
                    <path d="M124.637764,0 C132.821471,3.54941064e-05 140.926556,0.798353806 148.953007,2.39495144 C156.979458,3.99155257 164.773039,6.3557574 172.333767,9.48756474 C179.894518,12.6193674 187.07714,16.4586026 193.881645,21.0052615 C200.686127,25.5519244 206.981723,30.7186496 212.768466,36.505437 C218.55521,42.2922239 223.721866,48.5878904 228.268475,55.3924265 C232.815084,62.1969726 236.654249,69.3796356 239.785993,76.9404155 C242.917771,84.501213 245.281976,92.2948576 246.878535,100.321349 C248.475089,108.347835 249.273352,116.452955 249.273352,124.63668 C249.273317,132.820463 248.47502,140.925612 246.87839,148.952133 C245.281836,156.978654 242.917632,164.77231 239.785777,172.333131 C236.653998,179.893946 232.81477,187.076626 228.26812,193.88116 C223.721476,200.685701 218.554745,206.981366 212.767931,212.768162 C206.981152,218.554958 200.685522,223.721672 193.880953,228.268334 C187.076412,232.814977 179.893755,236.654194 172.332969,239.785956 C164.772184,242.917752 156.978533,245.281921 148.952047,246.878499 C140.925544,248.47507 132.820424,249.27335 124.636682,249.27335 C116.452899,249.273315 108.347767,248.475 100.321264,246.878388 C92.2947429,245.281799 84.5010693,242.917595 76.9402486,239.785775 C69.3794278,236.653979 62.1967532,232.81475 55.392213,228.268101 C48.5876669,223.72144 42.2920016,218.554726 36.5052171,212.767929 C30.7184267,206.981156 25.5517068,200.685485 21.005063,193.880951 C16.4584077,187.076411 12.6191964,179.893754 9.48740589,172.33295 C6.35561542,164.772164 3.99144027,156.978532 2.39487464,148.952046 C0.798285727,140.925542 0,132.820422 0,124.63668 C2.90935298e-05,116.452914 0.798343914,108.347783 2.39494446,100.32125 C3.99154501,92.2947296 6.35574925,84.5010675 9.48755718,76.9402584 C12.6193651,69.3794494 16.4586055,62.1967689 21.0052667,55.3922229 C25.5519221,48.5876774 30.7186478,42.2920022 36.5054382,36.5052148 C42.2922344,30.7184232 48.5878997,25.5517027 55.3924283,21.0050526 C62.1969627,16.458403 69.3796431,12.6191853 76.9404289,9.48740007 C84.5012089,6.35561542 92.2948651,3.99143736 100.321351,2.39486707 C108.347837,0.798292128 116.452951,4.65496476e-06 124.636682,4.65496476e-06 L124.636577,56.086505 C120.135546,56.0865341 115.67776,56.5256079 111.263212,57.4037437 C106.848659,58.2818679 102.562199,59.5821799 98.4037791,61.3046682 C94.2453594,63.0271681 90.2949352,65.1387532 86.5524599,67.6394177 C82.8099904,70.1400823 79.3474123,72.9817811 76.1647023,76.1645144 C72.9819924,79.3472476 70.1403109,82.8098664 67.6396813,86.5523534 C65.1390459,90.294852 63.0274898,94.2453169 61.305019,98.4037482 C59.5825599,102.56218 58.2822653,106.848681 57.4041528,111.263263 C56.5260693,115.67781 56.0870247,120.135637 56.0870072,124.636697 C56.0870247,129.137757 56.5261042,133.595602 57.40424,138.010184 C58.2823526,142.424773 59.5826646,146.711274 61.3051587,150.869722 C63.0276702,155.028177 65.1392379,158.978642 67.6399082,162.721146 C70.1405786,166.463656 72.9822775,169.926287 76.1650049,173.109014 C79.347744,176.291742 82.8103628,179.133441 86.5528497,181.634111 C90.2953425,184.134741 94.2458016,186.246314 98.4042387,187.968808 C102.562676,189.691296 106.849177,190.991608 111.263742,191.869727 C115.678313,192.747822 120.136116,193.186872 124.637176,193.186872 C129.138242,193.186855 133.596081,192.747787 138.010686,191.869674 C142.425251,190.991539 146.71177,189.691227 150.870224,187.968715 C155.028679,186.246227 158.979138,184.134653 162.721648,181.633983 C166.464135,179.133313 169.926754,176.29162 173.109493,173.108892 C176.292238,169.926165 179.133937,166.463546 181.634607,162.721042 C184.13526,158.978531 186.246828,155.028072 187.969305,150.869635 C189.691775,146.711198 190.992087,142.424697 191.870206,138.010132 C192.748318,133.59555 193.187369,129.13774 193.187351,124.636697 C193.187334,120.135637 192.748266,115.677793 191.870153,111.263211 C190.992018,106.848622 189.691706,102.562104 187.969194,98.4036551 C186.246723,94.2452064 184.13515,90.2947356 181.634479,86.552237 C179.133815,82.8097384 176.292098,79.3471254 173.109371,76.1643922 C169.926644,72.9816531 166.464031,70.1399659 162.72152,67.6393072 C158.979016,65.1386426 155.028551,63.027075 150.870114,61.3045925 C146.711683,59.5821101 142.425182,58.2818039 138.010628,57.4036855 C133.596046,56.525573 129.138242,56.0865167 124.637176,56.0865167 L124.637764,0 Z" id="Fill-8" fill="url(#radialGradient-1)"></path>
                    <circle id="Oval" fill="#FFFFFF" cx="124.90822" cy="124.90822" r="87.3982442"></circle>
                    <path d="M77.8377005,151.589233 L75.5138824,151.589233 L75.5138824,148.446797 C73.5597627,148.235541 71.711271,147.707401 70.2324777,146.888783 L70.2324777,143.931196 C72.2658185,145.225141 74.6424506,145.753281 76.7550125,145.753281 C79.1316447,145.753281 80.7424731,145.198734 80.7424731,143.45587 C80.7424731,139.177932 70.3116987,141.448936 70.3116987,134.899994 C70.3116987,131.889594 72.6091098,130.278765 75.5138824,129.935474 L75.5138824,126.766631 L77.8377005,126.766631 L77.8377005,129.909067 C79.6069711,130.041102 81.3762417,130.516428 82.6173718,131.255825 L82.6173718,134.134191 C81.1121714,133.130724 79.0524236,132.576176 77.0718968,132.602583 C74.8272998,132.602583 73.3749135,133.262759 73.3749135,134.84718 C73.3749135,138.834641 83.8056879,136.695672 83.8056879,143.297428 C83.8056879,146.862376 81.1385785,148.288355 77.8377005,148.473204 L77.8377005,151.589233 Z M85.9710638,139.177932 C85.9710638,133.922934 88.453324,129.856253 94.025206,129.856253 C99.597088,129.856253 102.079348,133.922934 102.079348,139.177932 C102.079348,144.43293 99.597088,148.499611 94.025206,148.499611 C88.453324,148.499611 85.9710638,144.43293 85.9710638,139.177932 Z M99.0425405,139.177932 C99.0425405,135.005622 97.4581191,132.602583 94.025206,132.602583 C90.5658859,132.602583 89.0078715,135.005622 89.0078715,139.177932 C89.0078715,143.350242 90.5658859,145.753281 94.025206,145.753281 C97.4581191,145.753281 99.0425405,143.350242 99.0425405,139.177932 Z M108.179371,146.703934 C108.179371,147.89225 107.360753,148.446797 106.4101,148.446797 C105.459447,148.446797 104.614423,147.89225 104.614423,146.703934 C104.614423,145.568432 105.459447,145.013884 106.4101,145.013884 C107.360753,145.013884 108.179371,145.568432 108.179371,146.703934 Z M110.714445,139.177932 C110.714445,133.922934 113.196705,129.856253 118.768587,129.856253 C124.340469,129.856253 126.822729,133.922934 126.822729,139.177932 C126.822729,144.43293 124.340469,148.499611 118.768587,148.499611 C113.196705,148.499611 110.714445,144.43293 110.714445,139.177932 Z M123.785922,139.177932 C123.785922,135.005622 122.2015,132.602583 118.768587,132.602583 C115.309267,132.602583 113.751253,135.005622 113.751253,139.177932 C113.751253,143.350242 115.309267,145.753281 118.768587,145.753281 C122.2015,145.753281 123.785922,143.350242 123.785922,139.177932 Z M130.519713,130.199544 L141.584256,130.199544 L141.584256,132.89306 L133.29245,132.89306 L133.02838,137.223812 C133.899812,137.012556 134.824058,136.906928 135.748304,136.906928 C139.207624,136.906928 142.429281,138.412128 142.429281,142.637252 C142.429281,146.519085 139.128403,148.499611 135.167349,148.499611 C133.081194,148.499611 130.995039,148.050692 129.410618,147.284888 L129.410618,144.459337 C130.915818,145.330769 132.949159,145.779688 134.824058,145.779688 C137.491167,145.779688 139.392473,144.723407 139.392473,142.610845 C139.392473,140.234213 137.359132,139.389188 134.507173,139.389188 C133.054787,139.389188 131.391145,139.679666 129.938758,140.181399 L130.519713,130.199544 Z M144.779506,139.177932 C144.779506,133.922934 147.261766,129.856253 152.833648,129.856253 C158.40553,129.856253 160.88779,133.922934 160.88779,139.177932 C160.88779,144.43293 158.40553,148.499611 152.833648,148.499611 C147.261766,148.499611 144.779506,144.43293 144.779506,139.177932 Z M157.850982,139.177932 C157.850982,135.005622 156.266561,132.602583 152.833648,132.602583 C149.374328,132.602583 147.816313,135.005622 147.816313,139.177932 C147.816313,143.350242 149.374328,145.753281 152.833648,145.753281 C156.266561,145.753281 157.850982,143.350242 157.850982,139.177932 Z M163.422864,139.177932 C163.422864,133.922934 165.905125,129.856253 171.477007,129.856253 C177.048889,129.856253 179.531149,133.922934 179.531149,139.177932 C179.531149,144.43293 177.048889,148.499611 171.477007,148.499611 C165.905125,148.499611 163.422864,144.43293 163.422864,139.177932 Z M176.494341,139.177932 C176.494341,135.005622 174.90992,132.602583 171.477007,132.602583 C168.017686,132.602583 166.459672,135.005622 166.459672,139.177932 C166.459672,143.350242 168.017686,145.753281 171.477007,145.753281 C174.90992,145.753281 176.494341,143.350242 176.494341,139.177932 Z M90.2886122,162.199544 L92.5068022,162.199544 L92.5068022,177.436397 L95.702052,177.436397 L95.702052,180.15632 L85.9314533,180.15632 L85.9314533,177.436397 L89.5228085,177.436397 L89.5228085,165.289166 L85.9314533,166.635924 L85.9314533,163.863187 L90.2886122,162.199544 Z M121.528121,161.671404 L124.248045,161.671404 L124.248045,180.15632 L121.237644,180.15632 L121.237644,167.216879 L115.401692,175.98401 L113.606014,175.98401 L107.770062,167.190472 L107.770062,180.15632 L104.759661,180.15632 L104.759661,161.671404 L107.479585,161.671404 L114.503853,172.26062 L121.528121,161.671404 Z M131.747639,180.15632 L128.737239,180.15632 L128.737239,161.671404 L131.56279,161.671404 L141.518238,175.1918 C141.491831,174.558031 141.491831,173.845041 141.491831,173.158459 L141.491831,161.671404 L144.502232,161.671404 L144.502232,180.15632 L141.67668,180.15632 L131.721232,166.635924 C131.747639,167.269693 131.747639,167.982682 131.747639,168.642858 L131.747639,180.15632 Z M152.001827,180.15632 L148.991426,180.15632 L148.991426,161.671404 L156.385393,161.671404 C159.844713,161.671404 163.488882,163.044569 163.488882,167.454542 C163.488882,170.75542 161.429134,172.339841 158.999688,172.920796 L164.914861,180.15632 L161.297099,180.15632 L155.751624,173.23768 L152.001827,173.23768 L152.001827,180.15632 Z M152.001827,164.417734 L152.001827,170.570571 L156.517428,170.570571 C158.497954,170.570571 160.425667,169.857581 160.425667,167.507356 C160.425667,165.130724 158.497954,164.417734 156.517428,164.417734 L152.001827,164.417734 Z" id="$0.0500-1-MNR" fill="#131F3C"></path>
                </g>
                <path d="M58.1648444,7.73343974 L61.0268555,7.73343974 L61.0268555,22.2010375 L64.0201516,22.2010375 L64.0201516,25.5881883 L53.8324421,25.5881883 L53.8324421,22.2010375 L57.193336,22.2010375 L57.193336,11.6719872 L53.8324421,12.9323224 L53.8324421,9.38762969 L58.1648444,7.73343974 Z M70.2693136,7.73343974 L73.1313248,7.73343974 L73.1313248,22.2010375 L76.1246209,22.2010375 L76.1246209,25.5881883 L65.9369114,25.5881883 L65.9369114,22.2010375 L69.2978053,22.2010375 L69.2978053,11.6719872 L65.9369114,12.9323224 L65.9369114,9.38762969 L70.2693136,7.73343974 Z M79.9056265,27.1373504 L77.3061852,27.1373504 L85.340822,5.65913807 L87.9402634,5.65913807 L79.9056265,27.1373504 Z M89.6732243,16.660814 C89.6732243,11.5144453 92.1151237,7.36584198 97.8128891,7.36584198 C103.510654,7.36584198 105.952554,11.5144453 105.952554,16.660814 C105.952554,21.8071828 103.510654,25.9557861 97.8128891,25.9557861 C92.1151237,25.9557861 89.6732243,21.8071828 89.6732243,16.660814 Z M102.014006,16.660814 C102.014006,12.8535515 100.701157,10.8317638 97.8128891,10.8317638 C94.9246209,10.8317638 93.6117717,12.8535515 93.6117717,16.660814 C93.6117717,20.4680766 94.9246209,22.4898643 97.8128891,22.4898643 C100.701157,22.4898643 102.014006,20.4680766 102.014006,16.660814 Z M107.895571,13.5099761 C107.895571,9.44014366 111.072666,7.36584198 114.722386,7.36584198 C120.472666,7.36584198 122.809537,10.8842777 122.809537,16.660814 C122.809537,23.1988029 118.87099,25.9557861 114.328532,25.9557861 C112.674342,25.9557861 110.941381,25.5619314 109.418476,24.8529928 L109.418476,21.387071 C110.652554,22.2010375 112.280487,22.6474062 113.803392,22.6474062 C116.219034,22.6474062 118.424621,21.6233839 118.897247,18.0786911 C117.321828,18.9189146 115.877694,19.2865124 114.144733,19.2865124 C110.915124,19.2865124 107.895571,17.3434956 107.895571,13.5099761 Z M115.03747,10.5691939 C113.304509,10.5691939 111.834118,11.3569034 111.834118,13.3261772 C111.834118,15.3742219 113.488308,16.0043895 115.326297,16.0043895 C116.507861,16.0043895 117.741939,15.6367917 118.897247,14.9278532 C118.529649,11.5669593 117.085515,10.5691939 115.03747,10.5691939 Z M127.141939,27.1373504 L124.542498,27.1373504 L132.577135,5.65913807 L135.176576,5.65913807 L127.141939,27.1373504 Z M137.434677,9.25634477 C139.272666,7.94349561 141.399481,7.36584198 143.578811,7.36584198 C147.176018,7.36584198 150.090543,8.99377494 150.090543,12.6434956 C150.090543,15.6630487 147.596129,17.4485235 145.259258,18.8401437 C143.132442,20.1004789 141.32071,21.0719872 141.294453,22.2272945 L150.221828,22.2010375 L150.221828,25.5881883 L136.830766,25.5881883 L136.830766,23.8289705 C136.830766,19.5228252 140.086632,17.8423783 142.71233,16.2932163 C144.576576,15.21668 146.178252,14.5077414 146.178252,12.8010375 C146.178252,11.4881883 145.022945,10.8055068 143.211213,10.8055068 C141.425738,10.8055068 139.32518,11.4881883 137.434677,12.9323224 L137.434677,9.25634477 Z M152.558699,16.660814 C152.558699,11.5144453 155.000599,7.36584198 160.698364,7.36584198 C166.396129,7.36584198 168.838029,11.5144453 168.838029,16.660814 C168.838029,21.8071828 166.396129,25.9557861 160.698364,25.9557861 C155.000599,25.9557861 152.558699,21.8071828 152.558699,16.660814 Z M164.899481,16.660814 C164.899481,12.8535515 163.586632,10.8317638 160.698364,10.8317638 C157.810096,10.8317638 156.497247,12.8535515 156.497247,16.660814 C156.497247,20.4680766 157.810096,22.4898643 160.698364,22.4898643 C163.586632,22.4898643 164.899481,20.4680766 164.899481,16.660814 Z M175.638587,7.73343974 L178.500599,7.73343974 L178.500599,22.2010375 L181.493895,22.2010375 L181.493895,25.5881883 L171.306185,25.5881883 L171.306185,22.2010375 L174.667079,22.2010375 L174.667079,11.6719872 L171.306185,12.9323224 L171.306185,9.38762969 L175.638587,7.73343974 Z M183.804509,12.3021548 C183.804509,9.91276935 185.80004,7.36584198 190.683839,7.36584198 C195.226297,7.36584198 197.589425,9.91276935 197.615682,12.4071828 C197.641939,14.1401437 196.801716,15.4529928 195.357582,16.5295291 C196.985515,17.3434956 198.272107,18.6038308 198.272107,20.7569034 C198.272107,23.3826018 196.119034,25.9557861 190.736353,25.9557861 C185.406185,25.9557861 183.148085,23.3563448 183.148085,20.6256185 C183.148085,18.8401437 184.250878,17.1334397 185.931325,16.1356744 C184.697247,15.2954509 183.804509,14.1138867 183.804509,12.3021548 Z M191.130208,18.236233 C190.342498,17.9474062 189.397247,17.6848364 188.478252,17.3434956 C187.506744,18.1574621 187.060375,19.2339984 187.086632,20.1529928 C187.112889,21.6758978 188.32071,22.8574621 191.02518,22.8574621 C192.915682,22.8574621 194.359816,22.0697526 194.359816,20.8619314 C194.359816,19.3390263 192.889425,18.8401437 191.130208,18.236233 Z M193.834677,12.6960096 C193.834677,11.4619314 192.731883,10.464166 190.526297,10.464166 C188.635794,10.464166 187.559258,11.3306464 187.559258,12.3284118 C187.559258,13.9038308 189.160934,14.4027135 190.920152,14.9803671 C191.445291,15.111652 191.996688,15.2954509 192.574342,15.4529928 C193.414565,14.6127694 193.860934,13.56249 193.834677,12.6960096 Z M134.638308,51.7306464 L117.203671,51.7306464 L117.203671,48.6585794 L134.638308,48.6585794 L134.638308,51.7306464 Z M61.3419393,74.3021548 C61.3419393,76.1401437 60.317917,77.5580208 58.6374701,78.1356744 C60.4492019,78.687071 62.0771349,80.0786911 62.0771349,82.7043895 C62.0771349,86.4591381 58.6112131,87.9557861 54.9352354,87.9557861 C52.6246209,87.9557861 50.7603751,87.5881883 48.7385874,86.7479649 L48.7385874,83.0982442 C50.7603751,84.2272945 52.5721069,84.5161213 54.6201516,84.4898643 C56.6419393,84.4898643 58.3223863,83.8334397 58.3223863,82.1529928 C58.3223863,80.6300878 57.0095371,80.0786911 55.2240623,80.0786911 L52.2832801,80.0786911 L52.3095371,76.7177973 L54.7776935,76.7440543 C56.5369114,76.7440543 57.6134477,76.0876297 57.6134477,74.8535515 C57.6134477,73.5669593 56.4843974,72.8055068 54.3313248,72.8055068 C52.7296488,72.8055068 50.8128891,73.3306464 49.0536712,74.4071828 L49.0536712,70.7574621 C50.6553472,69.8909816 52.6771349,69.365842 54.8827215,69.365842 C58.5849561,69.365842 61.3419393,71.0462889 61.3419393,74.3021548 Z M64.2827215,78.660814 C64.2827215,73.5144453 66.7246209,69.365842 72.4223863,69.365842 C78.1201516,69.365842 80.5620511,73.5144453 80.5620511,78.660814 C80.5620511,83.8071828 78.1201516,87.9557861 72.4223863,87.9557861 C66.7246209,87.9557861 64.2827215,83.8071828 64.2827215,78.660814 Z M76.6235036,78.660814 C76.6235036,74.8535515 75.3106544,72.8317638 72.4223863,72.8317638 C69.5341181,72.8317638 68.221269,74.8535515 68.221269,78.660814 C68.221269,82.4680766 69.5341181,84.4898643 72.4223863,84.4898643 C75.3106544,84.4898643 76.6235036,82.4680766 76.6235036,78.660814 Z M84.8944533,89.1373504 L82.295012,89.1373504 L90.3296488,67.6591381 L92.9290902,67.6591381 L84.8944533,89.1373504 Z M94.6620511,78.660814 C94.6620511,73.5144453 97.1039505,69.365842 102.801716,69.365842 C108.499481,69.365842 110.941381,73.5144453 110.941381,78.660814 C110.941381,83.8071828 108.499481,87.9557861 102.801716,87.9557861 C97.1039505,87.9557861 94.6620511,83.8071828 94.6620511,78.660814 Z M107.002833,78.660814 C107.002833,74.8535515 105.689984,72.8317638 102.801716,72.8317638 C99.9134477,72.8317638 98.6005986,74.8535515 98.6005986,78.660814 C98.6005986,82.4680766 99.9134477,84.4898643 102.801716,84.4898643 C105.689984,84.4898643 107.002833,82.4680766 107.002833,78.660814 Z M112.884397,75.5099761 C112.884397,71.4401437 116.061492,69.365842 119.711213,69.365842 C125.461492,69.365842 127.798364,72.8842777 127.798364,78.660814 C127.798364,85.1988029 123.859816,87.9557861 119.317358,87.9557861 C117.663168,87.9557861 115.930208,87.5619314 114.407302,86.8529928 L114.407302,83.387071 C115.641381,84.2010375 117.269314,84.6474062 118.792219,84.6474062 C121.207861,84.6474062 123.413448,83.6233839 123.886073,80.0786911 C122.310654,80.9189146 120.86652,81.2865124 119.133559,81.2865124 C115.903951,81.2865124 112.884397,79.3434956 112.884397,75.5099761 Z M120.026297,72.5691939 C118.293336,72.5691939 116.822945,73.3569034 116.822945,75.3261772 C116.822945,77.3742219 118.477135,78.0043895 120.315124,78.0043895 C121.496688,78.0043895 122.730766,77.6367917 123.886073,76.9278532 C123.518476,73.5669593 122.074342,72.5691939 120.026297,72.5691939 Z M132.130766,89.1373504 L129.531325,89.1373504 L137.565962,67.6591381 L140.165403,67.6591381 L132.130766,89.1373504 Z M142.423504,71.2563448 C144.261492,69.9434956 146.388308,69.365842 148.567638,69.365842 C152.164844,69.365842 155.07937,70.9937749 155.07937,74.6434956 C155.07937,77.6630487 152.584956,79.4485235 150.248085,80.8401437 C148.121269,82.1004789 146.309537,83.0719872 146.28328,84.2272945 L155.210654,84.2010375 L155.210654,87.5881883 L141.819593,87.5881883 L141.819593,85.8289705 C141.819593,81.5228252 145.075459,79.8423783 147.701157,78.2932163 C149.565403,77.21668 151.167079,76.5077414 151.167079,74.8010375 C151.167079,73.4881883 150.011772,72.8055068 148.20004,72.8055068 C146.414565,72.8055068 144.314006,73.4881883 142.423504,74.9323224 L142.423504,71.2563448 Z M157.547526,78.660814 C157.547526,73.5144453 159.989425,69.365842 165.687191,69.365842 C171.384956,69.365842 173.826856,73.5144453 173.826856,78.660814 C173.826856,83.8071828 171.384956,87.9557861 165.687191,87.9557861 C159.989425,87.9557861 157.547526,83.8071828 157.547526,78.660814 Z M169.888308,78.660814 C169.888308,74.8535515 168.575459,72.8317638 165.687191,72.8317638 C162.798923,72.8317638 161.486073,74.8535515 161.486073,78.660814 C161.486073,82.4680766 162.798923,84.4898643 165.687191,84.4898643 C168.575459,84.4898643 169.888308,82.4680766 169.888308,78.660814 Z M180.627414,69.7334397 L183.489425,69.7334397 L183.489425,84.2010375 L186.482721,84.2010375 L186.482721,87.5881883 L176.295012,87.5881883 L176.295012,84.2010375 L179.655906,84.2010375 L179.655906,73.6719872 L176.295012,74.9323224 L176.295012,71.3876297 L180.627414,69.7334397 Z M188.793336,74.3021548 C188.793336,71.9127694 190.788867,69.365842 195.672666,69.365842 C200.215124,69.365842 202.578252,71.9127694 202.604509,74.4071828 C202.630766,76.1401437 201.790543,77.4529928 200.346409,78.5295291 C201.974342,79.3434956 203.260934,80.6038308 203.260934,82.7569034 C203.260934,85.3826018 201.107861,87.9557861 195.72518,87.9557861 C190.395012,87.9557861 188.136911,85.3563448 188.136911,82.6256185 C188.136911,80.8401437 189.239705,79.1334397 190.920152,78.1356744 C189.686073,77.2954509 188.793336,76.1138867 188.793336,74.3021548 Z M196.119034,80.236233 C195.331325,79.9474062 194.386073,79.6848364 193.467079,79.3434956 C192.495571,80.1574621 192.049202,81.2339984 192.075459,82.1529928 C192.101716,83.6758978 193.309537,84.8574621 196.014006,84.8574621 C197.904509,84.8574621 199.348643,84.0697526 199.348643,82.8619314 C199.348643,81.3390263 197.878252,80.8401437 196.119034,80.236233 Z M198.823504,74.6960096 C198.823504,73.4619314 197.72071,72.464166 195.515124,72.464166 C193.624621,72.464166 192.548085,73.3306464 192.548085,74.3284118 C192.548085,75.9038308 194.149761,76.4027135 195.908978,76.9803671 C196.434118,77.111652 196.985515,77.2954509 197.563168,77.4529928 C198.403392,76.6127694 198.849761,75.56249 198.823504,74.6960096 Z" id="11/09/2018-—-30/09/2" fill="#131F3C"></path>
            </g>
            <path d="M104.086127,195.478317 C104.086127,190.045357 106.690587,185.53656 112.907686,185.53656 C119.124785,185.53656 121.729245,190.045357 121.729245,195.478317 C121.729245,200.911277 119.124785,205.420074 112.907686,205.420074 C106.690587,205.420074 104.086127,200.911277 104.086127,195.478317 Z M116.54833,195.478317 C116.54833,191.809669 115.400127,190.017352 112.907686,190.017352 C110.415246,190.017352 109.267043,191.809669 109.267043,195.478317 C109.267043,199.146966 110.415246,200.939282 112.907686,200.939282 C115.400127,200.939282 116.54833,199.146966 116.54833,195.478317 Z M131.783022,206.680297 L128.702478,206.680297 L140.156502,183.716238 L143.237046,183.716238 L131.783022,206.680297 Z M134.247458,190.017352 C134.247458,193.377946 131.783022,195.058243 128.926517,195.058243 C126.042007,195.058243 123.577572,193.377946 123.577572,190.017352 C123.577572,186.656758 126.042007,184.976461 128.926517,184.976461 C131.783022,184.976461 134.247458,186.656758 134.247458,190.017352 Z M127.274225,190.017352 C127.274225,190.857501 127.722304,191.697649 128.926517,191.697649 C130.102725,191.697649 130.550804,190.857501 130.550804,190.017352 C130.550804,189.177204 130.102725,188.337055 128.926517,188.337055 C127.722304,188.337055 127.274225,189.177204 127.274225,190.017352 Z M148.249932,200.379183 C148.249932,203.739777 145.785497,205.420074 142.928992,205.420074 C140.044482,205.420074 137.580047,203.739777 137.580047,200.379183 C137.580047,197.018589 140.044482,195.338292 142.928992,195.338292 C145.785497,195.338292 148.249932,197.018589 148.249932,200.379183 Z M141.2767,200.379183 C141.2767,201.219332 141.724779,202.05948 142.928992,202.05948 C144.1052,202.05948 144.553279,201.219332 144.553279,200.379183 C144.553279,199.539035 144.1052,198.698886 142.928992,198.698886 C141.724779,198.698886 141.2767,199.539035 141.2767,200.379183 Z" id="0%" fill="#131F3C"></path>
            <path d="M151.085763,232.937443 L133.351695,232.937443 L133.351695,229.569139 L145.422337,229.59039 C145.422337,229.505385 145.112428,229.168912 144.4926,228.580962 C143.872772,227.993011 143.205139,227.454654 142.489681,226.965876 C141.73172,226.441678 140.920643,226.179584 140.056426,226.179584 C139.383471,226.179584 138.345717,226.431053 136.943136,226.933999 C137.524003,225.928107 137.934854,225.308289 138.175701,225.074525 C138.799071,224.351983 139.836824,223.990717 141.288992,223.990717 C142.811997,223.990717 144.504987,224.83367 146.368012,226.519602 C147.083471,227.192558 147.784751,227.785813 148.471874,228.299384 C149.158998,228.812956 150.030285,229.218494 151.085763,229.516011 L151.085763,232.937443 Z M141.203987,218.104154 L144.306653,219.347345 L143.169717,221.865604 L140.130805,220.590536 L141.203987,218.104154 Z M117.721488,229.622267 C118.564453,229.622267 119.506577,229.2185 120.547888,228.410953 C121.490026,227.709662 122.212557,227.153596 122.715503,226.742739 C125.081474,224.681369 126.661126,223.650699 127.454506,223.650699 C128.212466,223.650699 129.03771,223.856125 129.930262,224.266982 C132.197061,225.690815 133.330443,227.022539 133.330443,228.262195 C133.32336,228.665968 133.256065,229.09807 133.128558,229.558514 L133.989228,229.569139 L133.989228,232.937443 L132.267887,232.937443 L131.736609,232.384914 C131.694106,232.455751 131.651604,232.523046 131.609102,232.5868 C131.474511,232.820563 131.014074,232.937443 130.227778,232.937443 L116.701433,232.937443 C114.902162,232.937443 113.549187,232.668265 112.642467,232.1299 C111.842004,232.668265 110.953007,232.937443 109.97545,232.937443 L109.295414,232.937443 L109.295414,229.569139 C111.370952,229.625809 112.486625,229.526638 112.642467,229.271623 C112.755807,229.144116 112.812476,228.811185 112.812476,228.27282 C112.812476,227.713204 112.7806,227.298811 112.716846,227.029629 L114.714453,225.000146 C114.742788,225.127653 114.76758,225.294119 114.788832,225.499548 C114.810083,225.704976 114.817166,225.949362 114.810083,226.232712 C114.810083,226.480643 114.779977,226.78701 114.719765,227.151823 C114.659554,227.516636 114.59403,227.844254 114.523192,228.134688 C114.452355,228.425121 114.38506,228.660652 114.321307,228.841288 C114.257553,229.021923 114.225677,229.144116 114.225677,229.20787 C114.246928,229.299959 114.399226,229.392046 114.682576,229.484135 C114.965926,229.576223 115.978886,229.622267 117.721488,229.622267 Z M131.545348,229.175993 C131.545348,228.765136 130.985741,228.272823 129.866509,227.69904 C128.803947,227.146507 128.04954,226.870246 127.603264,226.870246 C125.867746,226.870246 124.348305,227.312973 123.044896,228.198441 C122.060255,228.949318 121.567942,229.480591 121.567942,229.792276 C121.660031,229.827695 122.111613,229.864884 122.922702,229.903844 C123.733791,229.942805 125.34709,229.962285 127.762647,229.962285 C130.284461,229.962285 131.545348,229.70019 131.545348,229.175993 Z M106.373384,232.884316 C105.842103,232.863064 105.250619,232.817021 104.598914,232.746183 C101.836253,232.604508 100.451402,232.760348 100.444318,233.213708 L100.539948,233.606854 C100.568283,233.691859 100.614327,233.874263 100.678081,234.154071 C100.741834,234.433879 100.865798,234.920879 101.049975,235.615086 C101.269571,236.60681 101.423641,237.499349 101.512187,238.292728 C101.600734,239.086108 101.637923,239.794472 101.623756,240.417842 C101.623756,241.182886 101.347494,242.04709 100.794962,243.01048 C100.674538,241.735405 100.52224,240.53827 100.338062,239.419038 C100.153885,238.299807 99.937834,237.247886 99.6899029,236.263245 C99.4490556,235.59029 99.2843609,235.020057 99.1958141,234.552529 C99.1072673,234.085002 99.0629946,233.716653 99.0629946,233.447471 C99.4171818,231.499441 99.8811602,230.362516 100.454944,230.036664 C100.780796,229.85957 101.529891,229.763941 102.702251,229.749774 C103.874611,229.735606 104.676833,229.728523 105.108941,229.728523 C105.264784,229.728523 105.381664,229.74269 105.459585,229.771025 L103.143212,226.806492 L100.178679,228.336574 L100.19993,227.900925 C100.207014,227.660078 100.773705,226.810041 101.900021,225.35079 C102.714651,224.529075 103.472601,224.118224 104.173892,224.118224 C104.804345,224.118224 105.367494,224.468864 105.863356,225.170155 C106.288381,225.864362 106.731109,226.615228 107.191552,227.422775 C107.4324,227.982391 107.648451,228.435744 107.839712,228.782847 C108.009722,229.094532 108.399322,229.356627 109.008524,229.569139 L109.932948,229.569139 L109.932948,232.937443 L108.530373,232.937443 L107.999095,232.629302 L107.850337,232.979946 C107.396978,232.937443 106.904665,232.905567 106.373384,232.884316 Z" id="خصم" fill="#131F3C"></path>
        </g>
    </g>
</svg>