<?xml version="1.0" encoding="UTF-8" standalone="no"?>
<svg width="250px" height="364px" viewBox="0 0 250 364" version="1.1" xmlns="http://www.w3.org/2000/svg" xmlns:xlink="http://www.w3.org/1999/xlink">
    <!-- Generator: Sketch 49 (51002) - http://www.bohemiancoding.com/sketch -->
    <title>ar5</title>
    <desc>Created with Sketch.</desc>
    <defs>
        <radialGradient cx="100%" cy="100%" fx="100%" fy="100%" r="100.47898%" gradientTransform="translate(1.000000,1.000000),scale(1.000000,0.999999),rotate(90.000000),translate(-1.000000,-1.000000)" id="radialGradient-1">
            <stop stop-color="#8D00FF" offset="0%"></stop>
            <stop stop-color="#5C00FE" offset="69.8959662%"></stop>
            <stop stop-color="#8900FF" offset="100%"></stop>
        </radialGradient>
        <radialGradient cx="50%" cy="50%" fx="50%" fy="50%" r="50.0253367%" id="radialGradient-2">
            <stop stop-color="#FF9495" offset="0%"></stop>
            <stop stop-color="#FE5F60" offset="70.3742825%"></stop>
            <stop stop-color="#FF9091" offset="100%"></stop>
        </radialGradient>
    </defs>
    <g id="Monoreto" stroke="none" stroke-width="1" fill="none" fill-rule="evenodd">
        <g id="ar5" transform="translate(0.000000, -5.000000)">
            <g id="4-copy">
                <g id="Group-Copy-3" transform="translate(0.545890, 0.588188)">
                    <g id="Group-3" transform="translate(0.000000, 118.762969)">
                        <g id="Group-8">
                            <path d="M0,125.013369 C2.91814549e-05,116.804853 0.800756631,108.675226 2.40218235,100.624437 C4.00360807,92.5736583 6.37495729,84.7564426 9.51623002,77.1727836 C12.6575028,69.5891246 16.5083459,62.384737 21.0687478,55.5596266 C25.6291439,48.7345168 30.8114843,42.4198151 36.6157632,36.6155391 C42.420048,30.811259 48.7347397,25.6289238 55.5598326,21.068533 C62.3849314,16.5081428 69.589319,12.6573224 77.1729546,9.51607244 C84.7565844,6.37482306 92.5737943,4.0035001 100.624537,2.40210473 C108.675281,0.800704688 116.804785,0 125.013248,0 L125.013248,56.256007 C120.498614,56.2560362 116.027356,56.6964369 111.599467,57.5772266 C107.171572,58.4580046 102.872157,59.7622464 98.7011703,61.4899402 C94.5301832,63.2176458 90.5678202,65.3356124 86.8140346,67.8438344 C83.0602548,70.3520563 79.5872123,73.2023432 76.3948837,76.3946952 C73.2025551,79.5870471 70.3522856,83.0601305 67.8440987,86.8139278 C65.335906,90.5677368 63.2179685,94.5301406 61.4902922,98.7011394 C59.7626275,102.872138 58.4584032,107.171594 57.5776369,111.599518 C56.6968997,116.027406 56.2565282,120.498706 56.2565107,125.013369 L0,125.013369 Z" id="Fill-8" fill="url(#radialGradient-1)"></path>
                            <path d="M124.740231,0 C132.917139,3.54646161e-05 140.809466,0.797690493 148.829249,2.3929616 C156.849031,3.98823619 164.636136,6.35047671 172.190582,9.47968199 C179.745051,12.6088826 186.921705,16.4449279 193.720557,20.9878092 C200.519385,25.5306945 206.80975,30.693127 212.591686,36.4751065 C218.373622,42.2570854 223.535985,48.5475211 228.078816,55.3464036 C232.621648,62.1452961 236.457622,69.3219914 239.586764,76.8764895 C242.715941,84.431005 245.078181,92.2181743 246.673414,100.237997 C248.268642,108.257814 249.066241,116.3562 249.066241,124.533125 C249.066206,132.710109 248.268572,140.808524 246.673269,148.828376 C245.078041,156.848228 242.715802,164.635409 239.586549,172.189947 C236.457372,179.74448 232.621334,186.921193 228.078462,193.720074 C223.535595,200.518961 218.373157,206.809395 212.591151,212.591383 C206.80918,218.373372 200.518781,223.535793 193.719865,228.078677 C186.920978,232.621543 179.744289,236.45757 172.189785,239.586729 C164.635281,242.715924 156.848106,245.078129 148.828289,246.673379 C140.808455,248.268624 132.710069,249.066241 124.533126,249.066241 C116.356143,249.066206 108.257746,248.268555 100.237911,246.673269 C92.2180591,245.078007 84.4308608,242.715767 76.8763221,239.586549 C69.3217834,236.457355 62.1450765,232.621316 55.3461899,228.078444 C48.5472975,223.53556 42.256863,218.373139 36.4748864,212.591151 C30.6929041,206.809186 25.5304769,200.518746 20.9876108,193.719865 C16.4447331,186.920978 12.6087116,179.744289 9.4795232,172.189767 C6.3503348,164.635263 3.98812395,156.848106 2.39288484,148.828289 C0.797622465,140.808454 5.00693342e-16,132.710068 0,124.533125 C0,124.533122 18.6801356,124.533128 56.0404068,124.533143 C56.0404243,129.030463 56.479139,133.484604 57.3565452,137.895518 C58.2339282,142.306439 59.5331599,146.589378 61.2542228,150.744372 C62.9753032,154.899372 65.0851164,158.846554 67.5837091,162.585949 C70.0823017,166.32535 72.9216395,169.785103 76.1017226,172.965187 C79.2818172,176.14527 82.7415591,178.984607 86.4809366,181.4832 C90.2203198,183.981752 94.1674967,186.091571 98.3224788,187.812634 C102.477461,189.533691 106.7604,190.832923 111.171297,191.710312 C115.5822,192.587677 120.0363,193.026363 124.533621,193.026363 C129.030947,193.026345 133.485081,192.587642 137.896019,191.710259 C142.306916,190.832853 146.589873,189.533621 150.744873,187.812541 C154.899872,186.091484 158.847049,183.981665 162.58645,181.483072 C166.325827,178.98448 169.785569,176.145147 172.965664,172.965064 C176.145764,169.784981 178.985102,166.325239 181.483695,162.585845 C183.98227,158.846444 186.092083,154.899267 187.813129,150.744285 C189.534168,146.589303 190.8334,142.306363 191.710789,137.895466 C192.588172,133.484552 193.026857,129.030446 193.02684,124.533143 C193.026823,120.035823 192.588119,115.581682 191.710736,111.170767 C190.83333,106.759847 189.534099,102.47689 187.813018,98.3218963 C186.091979,94.1669026 183.982159,90.2197141 181.483567,86.480325 C178.98498,82.7409359 176.145625,79.2811998 172.965542,76.1011109 C169.785459,72.9210162 166.325723,70.08169 162.586322,67.583109 C158.846927,65.0845221 154.899744,62.9747088 150.744762,61.2536575 C146.589786,59.5326062 142.306846,58.2333804 137.895961,57.3559916 C133.485047,56.4786086 129.030947,56.0399171 124.533621,56.0399171 L124.740231,0 Z" id="Fill-8" fill="url(#radialGradient-2)"></path>
                        </g>
                    </g>
                    <circle id="Oval" fill="#FFFFFF" cx="124.90822" cy="243.671189" r="87.3982442"></circle>
                    <path d="M80.636845,269.728204 L78.3130269,269.728204 L78.3130269,266.585769 C76.3589072,266.374512 74.5104155,265.846372 73.0316222,265.027754 L73.0316222,262.070168 C75.064963,263.364112 77.4415951,263.892252 79.554157,263.892252 C81.9307892,263.892252 83.5416176,263.337705 83.5416176,261.594841 C83.5416176,257.316903 73.1108433,259.587907 73.1108433,253.038965 C73.1108433,250.028565 75.4082543,248.417736 78.3130269,248.074445 L78.3130269,244.905602 L80.636845,244.905602 L80.636845,248.048038 C82.4061156,248.180073 84.1753862,248.655399 85.4165163,249.394796 L85.4165163,252.273162 C83.911316,251.269695 81.8515681,250.715147 79.8710413,250.741554 C77.6264443,250.741554 76.174058,251.40173 76.174058,252.986151 C76.174058,256.973612 86.6048324,254.834643 86.6048324,261.436399 C86.6048324,265.001347 83.937723,266.427326 80.636845,266.612176 L80.636845,269.728204 Z M88.7702083,257.316903 C88.7702083,252.061906 91.2524685,247.995224 96.8243505,247.995224 C102.396233,247.995224 104.878493,252.061906 104.878493,257.316903 C104.878493,262.571901 102.396233,266.638583 96.8243505,266.638583 C91.2524685,266.638583 88.7702083,262.571901 88.7702083,257.316903 Z M101.841685,257.316903 C101.841685,253.144593 100.257264,250.741554 96.8243505,250.741554 C93.3650304,250.741554 91.807016,253.144593 91.807016,257.316903 C91.807016,261.489213 93.3650304,263.892252 96.8243505,263.892252 C100.257264,263.892252 101.841685,261.489213 101.841685,257.316903 Z M110.978515,264.842905 C110.978515,266.031221 110.159898,266.585769 109.209245,266.585769 C108.258592,266.585769 107.413567,266.031221 107.413567,264.842905 C107.413567,263.707403 108.258592,263.152855 109.209245,263.152855 C110.159898,263.152855 110.978515,263.707403 110.978515,264.842905 Z M113.51359,257.316903 C113.51359,252.061906 115.99585,247.995224 121.567732,247.995224 C127.139614,247.995224 129.621874,252.061906 129.621874,257.316903 C129.621874,262.571901 127.139614,266.638583 121.567732,266.638583 C115.99585,266.638583 113.51359,262.571901 113.51359,257.316903 Z M126.585066,257.316903 C126.585066,253.144593 125.000645,250.741554 121.567732,250.741554 C118.108412,250.741554 116.550397,253.144593 116.550397,257.316903 C116.550397,261.489213 118.108412,263.892252 121.567732,263.892252 C125.000645,263.892252 126.585066,261.489213 126.585066,257.316903 Z M141.082522,248.338515 L144.172144,248.338515 L144.172144,260.01042 L147.261766,260.01042 L147.261766,262.624715 L144.172144,262.624715 L144.172144,266.295291 L141.267371,266.295291 L141.267371,262.624715 L131.52318,262.624715 L131.52318,260.063234 L141.082522,248.338515 Z M141.267371,260.01042 L141.267371,252.167534 L134.876872,260.01042 L141.267371,260.01042 Z M148.714152,248.338515 L162.049699,248.338515 L162.049699,250.715147 L154.602918,266.295291 L151.354855,266.295291 L158.643193,251.032032 L148.714152,251.032032 L148.714152,248.338515 Z M165.007286,248.338515 L176.071829,248.338515 L176.071829,251.032032 L167.780023,251.032032 L167.515953,255.362783 C168.387385,255.151527 169.311631,255.045899 170.235876,255.045899 C173.695197,255.045899 176.916853,256.5511 176.916853,260.776223 C176.916853,264.658056 173.615976,266.638583 169.654922,266.638583 C167.568767,266.638583 165.482612,266.189663 163.898191,265.42386 L163.898191,262.598308 C165.403391,263.46974 167.436732,263.918659 169.311631,263.918659 C171.97874,263.918659 173.880046,262.862378 173.880046,260.749816 C173.880046,258.373184 171.846705,257.528159 168.994746,257.528159 C167.54236,257.528159 165.878718,257.818637 164.426331,258.32037 L165.007286,248.338515 Z M90.2886122,280.338515 L92.5068022,280.338515 L92.5068022,295.575368 L95.702052,295.575368 L95.702052,298.295291 L85.9314533,298.295291 L85.9314533,295.575368 L89.5228085,295.575368 L89.5228085,283.428137 L85.9314533,284.774895 L85.9314533,282.002158 L90.2886122,280.338515 Z M121.528121,279.810375 L124.248045,279.810375 L124.248045,298.295291 L121.237644,298.295291 L121.237644,285.35585 L115.401692,294.122982 L113.606014,294.122982 L107.770062,285.329443 L107.770062,298.295291 L104.759661,298.295291 L104.759661,279.810375 L107.479585,279.810375 L114.503853,290.399591 L121.528121,279.810375 Z M131.747639,298.295291 L128.737239,298.295291 L128.737239,279.810375 L131.56279,279.810375 L141.518238,293.330771 C141.491831,292.697002 141.491831,291.984013 141.491831,291.29743 L141.491831,279.810375 L144.502232,279.810375 L144.502232,298.295291 L141.67668,298.295291 L131.721232,284.774895 C131.747639,285.408664 131.747639,286.121653 131.747639,286.781829 L131.747639,298.295291 Z M152.001827,298.295291 L148.991426,298.295291 L148.991426,279.810375 L156.385393,279.810375 C159.844713,279.810375 163.488882,281.18354 163.488882,285.593513 C163.488882,288.894391 161.429134,290.478812 158.999688,291.059767 L164.914861,298.295291 L161.297099,298.295291 L155.751624,291.376651 L152.001827,291.376651 L152.001827,298.295291 Z M152.001827,282.556705 L152.001827,288.709542 L156.517428,288.709542 C158.497954,288.709542 160.425667,287.996552 160.425667,285.646327 C160.425667,283.269695 158.497954,282.556705 156.517428,282.556705 L152.001827,282.556705 Z" id="$0.0475-1-MNR" fill="#131F3C"></path>
                    <path d="M47.2756983,8.66815642 C49.1136872,7.35530726 51.2405028,6.77765363 53.4198324,6.77765363 C57.0170391,6.77765363 59.9315642,8.40558659 59.9315642,12.0553073 C59.9315642,15.0748603 57.4371508,16.8603352 55.1002793,18.2519553 C52.9734637,19.5122905 51.1617318,20.4837989 51.1354749,21.6391061 L60.0628492,21.6128492 L60.0628492,25 L46.6717877,25 L46.6717877,23.2407821 C46.6717877,18.9346369 49.9276536,17.2541899 52.553352,15.7050279 C54.4175978,14.6284916 56.0192737,13.9195531 56.0192737,12.2128492 C56.0192737,10.9 54.8639665,10.2173184 53.0522346,10.2173184 C51.2667598,10.2173184 49.1662011,10.9 47.2756983,12.3441341 L47.2756983,8.66815642 Z M62.0846369,12.9217877 C62.0846369,8.85195531 65.2617318,6.77765363 68.9114525,6.77765363 C74.6617318,6.77765363 76.9986034,10.2960894 76.9986034,16.0726257 C76.9986034,22.6106145 73.0600559,25.3675978 68.5175978,25.3675978 C66.8634078,25.3675978 65.1304469,24.973743 63.6075419,24.2648045 L63.6075419,20.7988827 C64.8416201,21.6128492 66.4695531,22.0592179 67.9924581,22.0592179 C70.4081006,22.0592179 72.6136872,21.0351955 73.0863128,17.4905028 C71.5108939,18.3307263 70.0667598,18.698324 68.3337989,18.698324 C65.1041899,18.698324 62.0846369,16.7553073 62.0846369,12.9217877 Z M69.2265363,9.98100559 C67.4935754,9.98100559 66.0231844,10.7687151 66.0231844,12.7379888 C66.0231844,14.7860335 67.6773743,15.4162011 69.5153631,15.4162011 C70.6969274,15.4162011 71.9310056,15.0486034 73.0863128,14.3396648 C72.7187151,10.9787709 71.274581,9.98100559 69.2265363,9.98100559 Z M81.3310056,26.549162 L78.7315642,26.549162 L86.7662011,5.07094972 L89.3656425,5.07094972 L81.3310056,26.549162 Z M91.0986034,16.0726257 C91.0986034,10.926257 93.5405028,6.77765363 99.2382682,6.77765363 C104.936034,6.77765363 107.377933,10.926257 107.377933,16.0726257 C107.377933,21.2189944 104.936034,25.3675978 99.2382682,25.3675978 C93.5405028,25.3675978 91.0986034,21.2189944 91.0986034,16.0726257 Z M103.439385,16.0726257 C103.439385,12.2653631 102.126536,10.2435754 99.2382682,10.2435754 C96.35,10.2435754 95.0371508,12.2653631 95.0371508,16.0726257 C95.0371508,19.8798883 96.35,21.901676 99.2382682,21.901676 C102.126536,21.901676 103.439385,19.8798883 103.439385,16.0726257 Z M110.239944,11.7139665 C110.239944,9.32458101 112.235475,6.77765363 117.119274,6.77765363 C121.661732,6.77765363 124.02486,9.32458101 124.051117,11.8189944 C124.077374,13.5519553 123.237151,14.8648045 121.793017,15.9413408 C123.42095,16.7553073 124.707542,18.0156425 124.707542,20.1687151 C124.707542,22.7944134 122.554469,25.3675978 117.171788,25.3675978 C111.84162,25.3675978 109.58352,22.7681564 109.58352,20.0374302 C109.58352,18.2519553 110.686313,16.5452514 112.36676,15.547486 C111.132682,14.7072626 110.239944,13.5256983 110.239944,11.7139665 Z M117.565642,17.6480447 C116.777933,17.3592179 115.832682,17.096648 114.913687,16.7553073 C113.942179,17.5692737 113.49581,18.6458101 113.522067,19.5648045 C113.548324,21.0877095 114.756145,22.2692737 117.460615,22.2692737 C119.351117,22.2692737 120.795251,21.4815642 120.795251,20.273743 C120.795251,18.750838 119.32486,18.2519553 117.565642,17.6480447 Z M120.270112,12.1078212 C120.270112,10.873743 119.167318,9.87597765 116.961732,9.87597765 C115.071229,9.87597765 113.994693,10.7424581 113.994693,11.7402235 C113.994693,13.3156425 115.596369,13.8145251 117.355587,14.3921788 C117.880726,14.5234637 118.432123,14.7072626 119.009777,14.8648045 C119.85,14.024581 120.296369,12.9743017 120.270112,12.1078212 Z M128.98743,26.549162 L126.387989,26.549162 L134.422626,5.07094972 L137.022067,5.07094972 L128.98743,26.549162 Z M139.280168,8.66815642 C141.118156,7.35530726 143.244972,6.77765363 145.424302,6.77765363 C149.021508,6.77765363 151.936034,8.40558659 151.936034,12.0553073 C151.936034,15.0748603 149.44162,16.8603352 147.104749,18.2519553 C144.977933,19.5122905 143.166201,20.4837989 143.139944,21.6391061 L152.067318,21.6128492 L152.067318,25 L138.676257,25 L138.676257,23.2407821 C138.676257,18.9346369 141.932123,17.2541899 144.557821,15.7050279 C146.422067,14.6284916 148.023743,13.9195531 148.023743,12.2128492 C148.023743,10.9 146.868436,10.2173184 145.056704,10.2173184 C143.271229,10.2173184 141.17067,10.9 139.280168,12.3441341 L139.280168,8.66815642 Z M154.40419,16.0726257 C154.40419,10.926257 156.846089,6.77765363 162.543855,6.77765363 C168.24162,6.77765363 170.68352,10.926257 170.68352,16.0726257 C170.68352,21.2189944 168.24162,25.3675978 162.543855,25.3675978 C156.846089,25.3675978 154.40419,21.2189944 154.40419,16.0726257 Z M166.744972,16.0726257 C166.744972,12.2653631 165.432123,10.2435754 162.543855,10.2435754 C159.655587,10.2435754 158.342737,12.2653631 158.342737,16.0726257 C158.342737,19.8798883 159.655587,21.901676 162.543855,21.901676 C165.432123,21.901676 166.744972,19.8798883 166.744972,16.0726257 Z M177.484078,7.1452514 L180.346089,7.1452514 L180.346089,21.6128492 L183.339385,21.6128492 L183.339385,25 L173.151676,25 L173.151676,21.6128492 L176.51257,21.6128492 L176.51257,11.0837989 L173.151676,12.3441341 L173.151676,8.79944134 L177.484078,7.1452514 Z M185.65,11.7139665 C185.65,9.32458101 187.645531,6.77765363 192.52933,6.77765363 C197.071788,6.77765363 199.434916,9.32458101 199.461173,11.8189944 C199.48743,13.5519553 198.647207,14.8648045 197.203073,15.9413408 C198.831006,16.7553073 200.117598,18.0156425 200.117598,20.1687151 C200.117598,22.7944134 197.964525,25.3675978 192.581844,25.3675978 C187.251676,25.3675978 184.993575,22.7681564 184.993575,20.0374302 C184.993575,18.2519553 186.096369,16.5452514 187.776816,15.547486 C186.542737,14.7072626 185.65,13.5256983 185.65,11.7139665 Z M192.975698,17.6480447 C192.187989,17.3592179 191.242737,17.096648 190.323743,16.7553073 C189.352235,17.5692737 188.905866,18.6458101 188.932123,19.5648045 C188.95838,21.0877095 190.166201,22.2692737 192.87067,22.2692737 C194.761173,22.2692737 196.205307,21.4815642 196.205307,20.273743 C196.205307,18.750838 194.734916,18.2519553 192.975698,17.6480447 Z M195.680168,12.1078212 C195.680168,10.873743 194.577374,9.87597765 192.371788,9.87597765 C190.481285,9.87597765 189.404749,10.7424581 189.404749,11.7402235 C189.404749,13.3156425 191.006425,13.8145251 192.765642,14.3921788 C193.290782,14.5234637 193.842179,14.7072626 194.419832,14.8648045 C195.260056,14.024581 195.706425,12.9743017 195.680168,12.1078212 Z M132.12514,51.1424581 L114.690503,51.1424581 L114.690503,48.0703911 L132.12514,48.0703911 L132.12514,51.1424581 Z M52.4351955,69.1452514 L55.2972067,69.1452514 L55.2972067,83.6128492 L58.2905028,83.6128492 L58.2905028,87 L48.1027933,87 L48.1027933,83.6128492 L51.4636872,83.6128492 L51.4636872,73.0837989 L48.1027933,74.3441341 L48.1027933,70.7994413 L52.4351955,69.1452514 Z M59.9972067,78.0726257 C59.9972067,72.926257 62.4391061,68.7776536 68.1368715,68.7776536 C73.8346369,68.7776536 76.2765363,72.926257 76.2765363,78.0726257 C76.2765363,83.2189944 73.8346369,87.3675978 68.1368715,87.3675978 C62.4391061,87.3675978 59.9972067,83.2189944 59.9972067,78.0726257 Z M72.3379888,78.0726257 C72.3379888,74.2653631 71.0251397,72.2435754 68.1368715,72.2435754 C65.2486034,72.2435754 63.9357542,74.2653631 63.9357542,78.0726257 C63.9357542,81.8798883 65.2486034,83.901676 68.1368715,83.901676 C71.0251397,83.901676 72.3379888,81.8798883 72.3379888,78.0726257 Z M80.6089385,88.549162 L78.0094972,88.549162 L86.0441341,67.0709497 L88.6435754,67.0709497 L80.6089385,88.549162 Z M90.3765363,78.0726257 C90.3765363,72.926257 92.8184358,68.7776536 98.5162011,68.7776536 C104.213966,68.7776536 106.655866,72.926257 106.655866,78.0726257 C106.655866,83.2189944 104.213966,87.3675978 98.5162011,87.3675978 C92.8184358,87.3675978 90.3765363,83.2189944 90.3765363,78.0726257 Z M102.717318,78.0726257 C102.717318,74.2653631 101.404469,72.2435754 98.5162011,72.2435754 C95.627933,72.2435754 94.3150838,74.2653631 94.3150838,78.0726257 C94.3150838,81.8798883 95.627933,83.901676 98.5162011,83.901676 C101.404469,83.901676 102.717318,81.8798883 102.717318,78.0726257 Z M108.598883,74.9217877 C108.598883,70.8519553 111.775978,68.7776536 115.425698,68.7776536 C121.175978,68.7776536 123.512849,72.2960894 123.512849,78.0726257 C123.512849,84.6106145 119.574302,87.3675978 115.031844,87.3675978 C113.377654,87.3675978 111.644693,86.973743 110.121788,86.2648045 L110.121788,82.7988827 C111.355866,83.6128492 112.983799,84.0592179 114.506704,84.0592179 C116.922346,84.0592179 119.127933,83.0351955 119.600559,79.4905028 C118.02514,80.3307263 116.581006,80.698324 114.848045,80.698324 C111.618436,80.698324 108.598883,78.7553073 108.598883,74.9217877 Z M115.740782,71.9810056 C114.007821,71.9810056 112.53743,72.7687151 112.53743,74.7379888 C112.53743,76.7860335 114.19162,77.4162011 116.029609,77.4162011 C117.211173,77.4162011 118.445251,77.0486034 119.600559,76.3396648 C119.232961,72.9787709 117.788827,71.9810056 115.740782,71.9810056 Z M127.845251,88.549162 L125.24581,88.549162 L133.280447,67.0709497 L135.879888,67.0709497 L127.845251,88.549162 Z M138.137989,70.6681564 C139.975978,69.3553073 142.102793,68.7776536 144.282123,68.7776536 C147.87933,68.7776536 150.793855,70.4055866 150.793855,74.0553073 C150.793855,77.0748603 148.299441,78.8603352 145.96257,80.2519553 C143.835754,81.5122905 142.024022,82.4837989 141.997765,83.6391061 L150.92514,83.6128492 L150.92514,87 L137.534078,87 L137.534078,85.2407821 C137.534078,80.9346369 140.789944,79.2541899 143.415642,77.7050279 C145.279888,76.6284916 146.881564,75.9195531 146.881564,74.2128492 C146.881564,72.9 145.726257,72.2173184 143.914525,72.2173184 C142.12905,72.2173184 140.028492,72.9 138.137989,74.3441341 L138.137989,70.6681564 Z M153.262011,78.0726257 C153.262011,72.926257 155.703911,68.7776536 161.401676,68.7776536 C167.099441,68.7776536 169.541341,72.926257 169.541341,78.0726257 C169.541341,83.2189944 167.099441,87.3675978 161.401676,87.3675978 C155.703911,87.3675978 153.262011,83.2189944 153.262011,78.0726257 Z M165.602793,78.0726257 C165.602793,74.2653631 164.289944,72.2435754 161.401676,72.2435754 C158.513408,72.2435754 157.200559,74.2653631 157.200559,78.0726257 C157.200559,81.8798883 158.513408,83.901676 161.401676,83.901676 C164.289944,83.901676 165.602793,81.8798883 165.602793,78.0726257 Z M176.341899,69.1452514 L179.203911,69.1452514 L179.203911,83.6128492 L182.197207,83.6128492 L182.197207,87 L172.009497,87 L172.009497,83.6128492 L175.370391,83.6128492 L175.370391,73.0837989 L172.009497,74.3441341 L172.009497,70.7994413 L176.341899,69.1452514 Z M184.507821,73.7139665 C184.507821,71.324581 186.503352,68.7776536 191.387151,68.7776536 C195.929609,68.7776536 198.292737,71.324581 198.318994,73.8189944 C198.345251,75.5519553 197.505028,76.8648045 196.060894,77.9413408 C197.688827,78.7553073 198.975419,80.0156425 198.975419,82.1687151 C198.975419,84.7944134 196.822346,87.3675978 191.439665,87.3675978 C186.109497,87.3675978 183.851397,84.7681564 183.851397,82.0374302 C183.851397,80.2519553 184.95419,78.5452514 186.634637,77.547486 C185.400559,76.7072626 184.507821,75.5256983 184.507821,73.7139665 Z M191.83352,79.6480447 C191.04581,79.3592179 190.100559,79.096648 189.181564,78.7553073 C188.210056,79.5692737 187.763687,80.6458101 187.789944,81.5648045 C187.816201,83.0877095 189.024022,84.2692737 191.728492,84.2692737 C193.618994,84.2692737 195.063128,83.4815642 195.063128,82.273743 C195.063128,80.750838 193.592737,80.2519553 191.83352,79.6480447 Z M194.537989,74.1078212 C194.537989,72.873743 193.435196,71.8759777 191.229609,71.8759777 C189.339106,71.8759777 188.26257,72.7424581 188.26257,73.7402235 C188.26257,75.3156425 189.864246,75.8145251 191.623464,76.3921788 C192.148603,76.5234637 192.7,76.7072626 193.277654,76.8648045 C194.117877,76.024581 194.564246,74.9743017 194.537989,74.1078212 Z" id="29/08/2018-—-10/09/2" fill="#131F3C"></path>
                </g>
            </g>
            <path d="M106.882121,185.928629 L119.344324,185.928629 L119.344324,190.269397 L111.530943,190.241392 L111.334908,193.041887 C112.035032,192.929867 112.735156,192.873857 113.37927,192.873857 C117.271958,192.873857 120.184472,194.638169 120.184472,198.922926 C120.184472,203.627757 116.011735,205.420074 111.754983,205.420074 C109.542592,205.420074 107.330201,204.94399 105.621899,204.131847 L105.621899,199.371005 C107.106161,200.407188 109.346557,200.939282 111.194884,200.939282 C113.351265,200.939282 115.003557,200.295168 115.003557,198.810906 C115.003557,197.606693 114.023384,196.68253 110.914834,196.654525 C109.710621,196.654525 107.974314,196.822555 106.210003,197.438664 L106.882121,185.928629 Z M130.126229,206.680297 L127.045685,206.680297 L138.499709,183.716238 L141.580254,183.716238 L130.126229,206.680297 Z M132.590665,190.017352 C132.590665,193.377946 130.126229,195.058243 127.269725,195.058243 C124.385215,195.058243 121.920779,193.377946 121.920779,190.017352 C121.920779,186.656758 124.385215,184.976461 127.269725,184.976461 C130.126229,184.976461 132.590665,186.656758 132.590665,190.017352 Z M125.617433,190.017352 C125.617433,190.857501 126.065512,191.697649 127.269725,191.697649 C128.445933,191.697649 128.894012,190.857501 128.894012,190.017352 C128.894012,189.177204 128.445933,188.337055 127.269725,188.337055 C126.065512,188.337055 125.617433,189.177204 125.617433,190.017352 Z M146.59314,200.379183 C146.59314,203.739777 144.128704,205.420074 141.272199,205.420074 C138.38769,205.420074 135.923254,203.739777 135.923254,200.379183 C135.923254,197.018589 138.38769,195.338292 141.272199,195.338292 C144.128704,195.338292 146.59314,197.018589 146.59314,200.379183 Z M139.619907,200.379183 C139.619907,201.219332 140.067987,202.05948 141.272199,202.05948 C142.448407,202.05948 142.896486,201.219332 142.896486,200.379183 C142.896486,199.539035 142.448407,198.698886 141.272199,198.698886 C140.067987,198.698886 139.619907,199.539035 139.619907,200.379183 Z" id="5%" fill="#131F3C"></path>
            <path d="M151.100927,232.937443 L133.366858,232.937443 L133.366858,229.569139 L145.437501,229.59039 C145.437501,229.505385 145.127591,229.168912 144.507764,228.580962 C143.887936,227.993011 143.220303,227.454654 142.504844,226.965876 C141.746884,226.441678 140.935807,226.179584 140.07159,226.179584 C139.398634,226.179584 138.360881,226.431053 136.958299,226.933999 C137.539166,225.928107 137.950018,225.308289 138.190865,225.074525 C138.814234,224.351983 139.851988,223.990717 141.304156,223.990717 C142.827161,223.990717 144.520151,224.83367 146.383176,226.519602 C147.098634,227.192558 147.799915,227.785813 148.487038,228.299384 C149.174161,228.812956 150.045449,229.218494 151.100927,229.516011 L151.100927,232.937443 Z M141.219151,218.104154 L144.321816,219.347345 L143.184881,221.865604 L140.145969,220.590536 L141.219151,218.104154 Z M117.736651,229.622267 C118.579617,229.622267 119.521741,229.2185 120.563052,228.410953 C121.50519,227.709662 122.227721,227.153596 122.730667,226.742739 C125.096638,224.681369 126.67629,223.650699 127.469669,223.650699 C128.22763,223.650699 129.052874,223.856125 129.945426,224.266982 C132.212225,225.690815 133.345607,227.022539 133.345607,228.262195 C133.338523,228.665968 133.271229,229.09807 133.143721,229.558514 L134.004392,229.569139 L134.004392,232.937443 L132.28305,232.937443 L131.751772,232.384914 C131.70927,232.455751 131.666768,232.523046 131.624265,232.5868 C131.489674,232.820563 131.029238,232.937443 130.242942,232.937443 L116.716597,232.937443 C114.917326,232.937443 113.56435,232.668265 112.657631,232.1299 C111.857168,232.668265 110.968171,232.937443 109.990614,232.937443 L109.310578,232.937443 L109.310578,229.569139 C111.386115,229.625809 112.501788,229.526638 112.657631,229.271623 C112.770971,229.144116 112.82764,228.811185 112.82764,228.27282 C112.82764,227.713204 112.795764,227.298811 112.73201,227.029629 L114.729616,225.000146 C114.757951,225.127653 114.782744,225.294119 114.803995,225.499548 C114.825246,225.704976 114.83233,225.949362 114.825246,226.232712 C114.825246,226.480643 114.795141,226.78701 114.734929,227.151823 C114.674717,227.516636 114.609193,227.844254 114.538356,228.134688 C114.467519,228.425121 114.400224,228.660652 114.33647,228.841288 C114.272717,229.021923 114.24084,229.144116 114.24084,229.20787 C114.262091,229.299959 114.41439,229.392046 114.697739,229.484135 C114.981089,229.576223 115.99405,229.622267 117.736651,229.622267 Z M131.560512,229.175993 C131.560512,228.765136 131.000904,228.272823 129.881673,227.69904 C128.819111,227.146507 128.064703,226.870246 127.618427,226.870246 C125.882909,226.870246 124.363469,227.312973 123.06006,228.198441 C122.075419,228.949318 121.583106,229.480591 121.583106,229.792276 C121.675195,229.827695 122.126777,229.864884 122.937866,229.903844 C123.748954,229.942805 125.362253,229.962285 127.777811,229.962285 C130.299624,229.962285 131.560512,229.70019 131.560512,229.175993 Z M106.388547,232.884316 C105.857266,232.863064 105.265782,232.817021 104.614078,232.746183 C101.851417,232.604508 100.466565,232.760348 100.459482,233.213708 L100.555112,233.606854 C100.583447,233.691859 100.62949,233.874263 100.693244,234.154071 C100.756998,234.433879 100.880962,234.920879 101.065139,235.615086 C101.284735,236.60681 101.438804,237.499349 101.527351,238.292728 C101.615898,239.086108 101.653087,239.794472 101.638919,240.417842 C101.638919,241.182886 101.362658,242.04709 100.810125,243.01048 C100.689702,241.735405 100.537403,240.53827 100.353226,239.419038 C100.169049,238.299807 99.9529976,237.247886 99.7050665,236.263245 C99.4642192,235.59029 99.2995246,235.020057 99.2109777,234.552529 C99.1224309,234.085002 99.0781582,233.716653 99.0781582,233.447471 C99.4323455,231.499441 99.8963238,230.362516 100.470107,230.036664 C100.79596,229.85957 101.545054,229.763941 102.717414,229.749774 C103.889774,229.735606 104.691996,229.728523 105.124105,229.728523 C105.279947,229.728523 105.396827,229.74269 105.474749,229.771025 L103.158375,226.806492 L100.193843,228.336574 L100.215094,227.900925 C100.222177,227.660078 100.788869,226.810041 101.915184,225.35079 C102.729815,224.529075 103.487764,224.118224 104.189055,224.118224 C104.819509,224.118224 105.382658,224.468864 105.87852,225.170155 C106.303545,225.864362 106.746272,226.615228 107.206716,227.422775 C107.447563,227.982391 107.663614,228.435744 107.854875,228.782847 C108.024885,229.094532 108.414485,229.356627 109.023687,229.569139 L109.948112,229.569139 L109.948112,232.937443 L108.545537,232.937443 L108.014259,232.629302 L107.865501,232.979946 C107.412141,232.937443 106.919828,232.905567 106.388547,232.884316 Z" id="خصم" fill="#131F3C"></path>
        </g>
    </g>
</svg>