<?xml version="1.0" encoding="UTF-8" standalone="no"?>
<svg width="250px" height="364px" viewBox="0 0 250 364" version="1.1" xmlns="http://www.w3.org/2000/svg" xmlns:xlink="http://www.w3.org/1999/xlink">
    <!-- Generator: Sketch 49 (51002) - http://www.bohemiancoding.com/sketch -->
    <title>ar10</title>
    <desc>Created with Sketch.</desc>
    <defs>
        <radialGradient cx="100%" cy="50%" fx="100%" fy="50%" r="100.014205%" gradientTransform="translate(1.000000,0.500000),scale(1.000000,0.500004),rotate(89.005123),translate(-1.000000,-0.500000)" id="radialGradient-1">
            <stop stop-color="#8D00FF" offset="0%"></stop>
            <stop stop-color="#5C00FE" offset="69.8959662%"></stop>
            <stop stop-color="#8900FF" offset="100%"></stop>
        </radialGradient>
        <radialGradient cx="100%" cy="50%" fx="100%" fy="50%" r="100.011799%" gradientTransform="translate(1.000000,0.500000),scale(1.000000,0.500004),rotate(89.087948),translate(-1.000000,-0.500000)" id="radialGradient-2">
            <stop stop-color="#FF9495" offset="0%"></stop>
            <stop stop-color="#FE5F60" offset="70.3742825%"></stop>
            <stop stop-color="#FF9091" offset="100%"></stop>
        </radialGradient>
    </defs>
    <g id="Monoreto" stroke="none" stroke-width="1" fill="none" fill-rule="evenodd">
        <g id="ar10" transform="translate(0.000000, -5.000000)">
            <g id="3-copy">
                <g id="Group-Copy-2" transform="translate(0.933759, 0.000000)">
                    <g id="Group-6" transform="translate(0.000000, 119.762969)">
                        <g id="Group-31">
                            <path d="M124.524976,249.047781 C113.595699,249.047871 102.852631,247.633628 92.2957729,244.804995 C81.7389145,241.976368 71.727937,237.829799 62.2629045,232.365289 C52.7978079,226.900714 44.2011758,220.304407 36.4730082,212.576368 C28.7447764,204.848264 22.1482772,196.25176 16.6835746,186.786792 C11.218872,177.321823 7.07211127,167.31091 4.24335644,156.754116 C1.41453755,146.197257 0.000128110995,135.454189 0,124.524976 C-6.40554976e-05,113.595699 1.41415322,102.852631 4.24277994,92.2957729 C7.07140665,81.7388504 11.2179752,71.727937 16.6825497,62.2628404 C22.1472523,52.7976798 28.7436875,44.2009837 36.4719192,36.4727519 C44.2000869,28.7444561 52.796719,22.148021 62.2618155,16.6833184 C71.726848,11.2185517 81.7378255,7.07185504 92.294684,4.24310021 C102.851606,1.41434539 113.59461,0 124.524976,0 L124.523759,56.0357493 C120.027832,56.0372866 115.575206,56.4772838 111.165882,57.3557409 C106.756558,58.234198 102.47528,59.5342684 98.321986,61.255888 C94.1686916,62.9775076 90.2231932,65.0876238 86.4854909,67.5863007 C82.7477885,70.0849135 79.2896244,72.9241093 76.1110625,76.1038242 C72.9325006,79.2835391 70.0945218,82.7426641 67.5971901,86.4812632 C65.0998584,90.2198623 62.9910874,94.1661294 61.270941,98.3200643 C59.5507307,102.473935 58.2521976,106.755725 57.3752778,111.165434 C56.4983581,115.575078 56.0598982,120.027896 56.0598982,124.523887 C56.0598982,129.019879 56.4984221,133.472761 57.375406,137.882469 C58.2523898,142.292114 59.5509869,146.573967 61.2711973,150.727902 C62.9914076,154.881837 65.1002427,158.828104 67.5976385,162.566704 C70.0950342,166.305367 72.933013,169.764492 76.1117031,172.944207 C79.290329,176.123857 82.7484932,178.963053 86.4862595,181.46173 C90.2240259,183.960343 94.1695884,186.070459 98.3229468,187.792079 C102.476241,189.513634 106.757583,190.813705 111.166971,191.692098 C115.576295,192.570491 120.028985,193.010488 124.524976,193.012025 L124.524976,249.047781 Z" id="Fill-30" fill="url(#radialGradient-1)"></path>
                            <path d="M249.044074,249.047781 C238.114797,249.047871 227.371729,247.633628 216.814871,244.804995 C206.258013,241.976368 196.247035,237.829799 186.782003,232.365289 C177.316906,226.900714 168.720274,220.304407 160.992106,212.576368 C153.263875,204.848264 146.667375,196.25176 141.202673,186.786792 C135.73797,177.321823 131.591209,167.31091 128.762455,156.754116 C125.933636,146.197257 124.519226,135.454189 124.519098,124.524976 C124.519034,113.595699 125.933251,102.852631 128.761878,92.2957729 C131.590505,81.7388504 135.737073,71.727937 141.201648,62.2628404 C146.66635,52.7976798 153.262786,44.2009837 160.991017,36.4727519 C168.719185,28.7444561 177.315817,22.148021 186.780914,16.6833184 C196.245946,11.2185517 206.256924,7.07185504 216.813782,4.24310021 C227.370705,1.41434539 238.113708,0 249.044074,0 L249.042857,56.0357493 C244.54693,56.0372866 240.094304,56.4772838 235.68498,57.3557409 C231.275656,58.234198 226.994378,59.5342684 222.841084,61.255888 C218.68779,62.9775076 214.742291,65.0876238 211.004589,67.5863007 C207.266887,70.0849135 203.808722,72.9241093 200.630161,76.1038242 C197.451599,79.2835391 194.61362,82.7426641 192.116288,86.4812632 C189.618956,90.2198623 187.510185,94.1661294 185.790039,98.3200643 C184.069829,102.473935 182.771296,106.755725 181.894376,111.165434 C181.017456,115.575078 180.578996,120.027896 180.578996,124.523887 C180.578996,129.019879 181.01752,133.472761 181.894504,137.882469 C182.771488,142.292114 184.070085,146.573967 185.790295,150.727902 C187.510506,154.881837 189.619341,158.828104 192.116737,162.566704 C194.614132,166.305367 197.452111,169.764492 200.630801,172.944207 C203.809427,176.123857 207.267591,178.963053 211.005358,181.46173 C214.743124,183.960343 218.688686,186.070459 222.842045,187.792079 C226.995339,189.513634 231.276681,190.813705 235.686069,191.692098 C240.095393,192.570491 244.548083,193.010488 249.044074,193.012025 L249.044074,249.047781 Z" id="Fill-30-Copy" fill="url(#radialGradient-2)" transform="translate(186.781586, 124.523890) scale(-1, 1) translate(-186.781586, -124.523890) "></path>
                        </g>
                        <circle id="Oval" fill="#FFFFFF" cx="124.90822" cy="124.90822" r="87.3982442"></circle>
                        <path d="M77.0899016,151.589233 L74.7660835,151.589233 L74.7660835,148.446797 C72.8119638,148.235541 70.9634721,147.707401 69.4846788,146.888783 L69.4846788,143.931196 C71.5180196,145.225141 73.8946518,145.753281 76.0072137,145.753281 C78.3838458,145.753281 79.9946742,145.198734 79.9946742,143.45587 C79.9946742,139.177932 69.5638999,141.448936 69.5638999,134.899994 C69.5638999,131.889594 71.8613109,130.278765 74.7660835,129.935474 L74.7660835,126.766631 L77.0899016,126.766631 L77.0899016,129.909067 C78.8591722,130.041102 80.6284428,130.516428 81.8695729,131.255825 L81.8695729,134.134191 C80.3643726,133.130724 78.3046247,132.576176 76.3240979,132.602583 C74.0795009,132.602583 72.6271146,133.262759 72.6271146,134.84718 C72.6271146,138.834641 83.057889,136.695672 83.057889,143.297428 C83.057889,146.862376 80.3907796,148.288355 77.0899016,148.473204 L77.0899016,151.589233 Z M85.2232649,139.177932 C85.2232649,133.922934 87.7055252,129.856253 93.2774072,129.856253 C98.8492892,129.856253 101.331549,133.922934 101.331549,139.177932 C101.331549,144.43293 98.8492892,148.499611 93.2774072,148.499611 C87.7055252,148.499611 85.2232649,144.43293 85.2232649,139.177932 Z M98.2947417,139.177932 C98.2947417,135.005622 96.7103203,132.602583 93.2774072,132.602583 C89.8180871,132.602583 88.2600727,135.005622 88.2600727,139.177932 C88.2600727,143.350242 89.8180871,145.753281 93.2774072,145.753281 C96.7103203,145.753281 98.2947417,143.350242 98.2947417,139.177932 Z M107.431572,146.703934 C107.431572,147.89225 106.612954,148.446797 105.662301,148.446797 C104.711648,148.446797 103.866624,147.89225 103.866624,146.703934 C103.866624,145.568432 104.711648,145.013884 105.662301,145.013884 C106.612954,145.013884 107.431572,145.568432 107.431572,146.703934 Z M109.966646,139.177932 C109.966646,133.922934 112.448906,129.856253 118.020788,129.856253 C123.59267,129.856253 126.074931,133.922934 126.074931,139.177932 C126.074931,144.43293 123.59267,148.499611 118.020788,148.499611 C112.448906,148.499611 109.966646,144.43293 109.966646,139.177932 Z M123.038123,139.177932 C123.038123,135.005622 121.453701,132.602583 118.020788,132.602583 C114.561468,132.602583 113.003454,135.005622 113.003454,139.177932 C113.003454,143.350242 114.561468,145.753281 118.020788,145.753281 C121.453701,145.753281 123.038123,143.350242 123.038123,139.177932 Z M137.535579,130.199544 L140.625201,130.199544 L140.625201,141.871449 L143.714822,141.871449 L143.714822,144.485744 L140.625201,144.485744 L140.625201,148.15632 L137.720428,148.15632 L137.720428,144.485744 L127.976236,144.485744 L127.976236,141.924263 L137.535579,130.199544 Z M137.720428,141.871449 L137.720428,134.028562 L131.329928,141.871449 L137.720428,141.871449 Z M146.910072,130.199544 L157.974615,130.199544 L157.974615,132.89306 L149.68281,132.89306 L149.41874,137.223812 C150.290171,137.012556 151.214417,136.906928 152.138663,136.906928 C155.597983,136.906928 158.81964,138.412128 158.81964,142.637252 C158.81964,146.519085 155.518762,148.499611 151.557709,148.499611 C149.471554,148.499611 147.385399,148.050692 145.800977,147.284888 L145.800977,144.459337 C147.306178,145.330769 149.339519,145.779688 151.214417,145.779688 C153.881527,145.779688 155.782832,144.723407 155.782832,142.610845 C155.782832,140.234213 153.749491,139.389188 150.897533,139.389188 C149.445147,139.389188 147.781504,139.679666 146.329118,140.181399 L146.910072,130.199544 Z M161.169865,139.177932 C161.169865,133.922934 163.652125,129.856253 169.224007,129.856253 C174.795889,129.856253 177.27815,133.922934 177.27815,139.177932 C177.27815,144.43293 174.795889,148.499611 169.224007,148.499611 C163.652125,148.499611 161.169865,144.43293 161.169865,139.177932 Z M174.241342,139.177932 C174.241342,135.005622 172.65692,132.602583 169.224007,132.602583 C165.764687,132.602583 164.206673,135.005622 164.206673,139.177932 C164.206673,143.350242 165.764687,145.753281 169.224007,145.753281 C172.65692,145.753281 174.241342,143.350242 174.241342,139.177932 Z M88.7882131,162.199544 L91.0064031,162.199544 L91.0064031,177.436397 L94.201653,177.436397 L94.201653,180.15632 L84.4310542,180.15632 L84.4310542,177.436397 L88.0224094,177.436397 L88.0224094,165.289166 L84.4310542,166.635924 L84.4310542,163.863187 L88.7882131,162.199544 Z M120.027722,161.671404 L122.747646,161.671404 L122.747646,180.15632 L119.737245,180.15632 L119.737245,167.216879 L113.901293,175.98401 L112.105615,175.98401 L106.269663,167.190472 L106.269663,180.15632 L103.259262,180.15632 L103.259262,161.671404 L105.979186,161.671404 L113.003454,172.26062 L120.027722,161.671404 Z M130.24724,180.15632 L127.23684,180.15632 L127.23684,161.671404 L130.062391,161.671404 L140.017839,175.1918 C139.991432,174.558031 139.991432,173.845041 139.991432,173.158459 L139.991432,161.671404 L143.001833,161.671404 L143.001833,180.15632 L140.176281,180.15632 L130.220833,166.635924 C130.24724,167.269693 130.24724,167.982682 130.24724,168.642858 L130.24724,180.15632 Z M150.501428,180.15632 L147.491027,180.15632 L147.491027,161.671404 L154.884993,161.671404 C158.344314,161.671404 161.988483,163.044569 161.988483,167.454542 C161.988483,170.75542 159.928735,172.339841 157.499289,172.920796 L163.414462,180.15632 L159.7967,180.15632 L154.251225,173.23768 L150.501428,173.23768 L150.501428,180.15632 Z M150.501428,164.417734 L150.501428,170.570571 L155.017029,170.570571 C156.997555,170.570571 158.925268,169.857581 158.925268,167.507356 C158.925268,165.130724 156.997555,164.417734 155.017029,164.417734 L150.501428,164.417734 Z" id="$0.0450-1-MNR" fill="#131F3C"></path>
                    </g>
                    <path d="M54.3557063,7.1452514 L57.2177175,7.1452514 L57.2177175,21.6128492 L60.2110136,21.6128492 L60.2110136,25 L50.0233041,25 L50.0233041,21.6128492 L53.3841979,21.6128492 L53.3841979,11.0837989 L50.0233041,12.3441341 L50.0233041,8.79944134 L54.3557063,7.1452514 Z M62.5216281,11.7139665 C62.5216281,9.32458101 64.5171588,6.77765363 69.4009577,6.77765363 C73.9434158,6.77765363 76.3065443,9.32458101 76.3328013,11.8189944 C76.3590583,13.5519553 75.5188348,14.8648045 74.0747007,15.9413408 C75.7026337,16.7553073 76.9892259,18.0156425 76.9892259,20.1687151 C76.9892259,22.7944134 74.8361532,25.3675978 69.4534717,25.3675978 C64.1233041,25.3675978 61.8652035,22.7681564 61.8652035,20.0374302 C61.8652035,18.2519553 62.9679968,16.5452514 64.6484437,15.547486 C63.4143655,14.7072626 62.5216281,13.5256983 62.5216281,11.7139665 Z M69.8473264,17.6480447 C69.0596169,17.3592179 68.1143655,17.096648 67.1953711,16.7553073 C66.2238627,17.5692737 65.777494,18.6458101 65.803751,19.5648045 C65.830008,21.0877095 67.0378292,22.2692737 69.7422985,22.2692737 C71.6328013,22.2692737 73.0769354,21.4815642 73.0769354,20.273743 C73.0769354,18.750838 71.6065443,18.2519553 69.8473264,17.6480447 Z M72.5517957,12.1078212 C72.5517957,10.873743 71.4490024,9.87597765 69.2434158,9.87597765 C67.352913,9.87597765 66.2763767,10.7424581 66.2763767,11.7402235 C66.2763767,13.3156425 67.8780527,13.8145251 69.6372706,14.3921788 C70.1624102,14.5234637 70.7138069,14.7072626 71.2914605,14.8648045 C72.131684,14.024581 72.5780527,12.9743017 72.5517957,12.1078212 Z M81.2691141,26.549162 L78.6696728,26.549162 L86.7043097,5.07094972 L89.303751,5.07094972 L81.2691141,26.549162 Z M91.0367119,16.0726257 C91.0367119,10.926257 93.4786113,6.77765363 99.1763767,6.77765363 C104.874142,6.77765363 107.316042,10.926257 107.316042,16.0726257 C107.316042,21.2189944 104.874142,25.3675978 99.1763767,25.3675978 C93.4786113,25.3675978 91.0367119,21.2189944 91.0367119,16.0726257 Z M103.377494,16.0726257 C103.377494,12.2653631 102.064645,10.2435754 99.1763767,10.2435754 C96.2881085,10.2435754 94.9752594,12.2653631 94.9752594,16.0726257 C94.9752594,19.8798883 96.2881085,21.901676 99.1763767,21.901676 C102.064645,21.901676 103.377494,19.8798883 103.377494,16.0726257 Z M110.178053,11.7139665 C110.178053,9.32458101 112.173583,6.77765363 117.057382,6.77765363 C121.59984,6.77765363 123.962969,9.32458101 123.989226,11.8189944 C124.015483,13.5519553 123.175259,14.8648045 121.731125,15.9413408 C123.359058,16.7553073 124.64565,18.0156425 124.64565,20.1687151 C124.64565,22.7944134 122.492578,25.3675978 117.109896,25.3675978 C111.779729,25.3675978 109.521628,22.7681564 109.521628,20.0374302 C109.521628,18.2519553 110.624421,16.5452514 112.304868,15.547486 C111.07079,14.7072626 110.178053,13.5256983 110.178053,11.7139665 Z M117.503751,17.6480447 C116.716042,17.3592179 115.77079,17.096648 114.851796,16.7553073 C113.880287,17.5692737 113.433919,18.6458101 113.460176,19.5648045 C113.486433,21.0877095 114.694254,22.2692737 117.398723,22.2692737 C119.289226,22.2692737 120.73336,21.4815642 120.73336,20.273743 C120.73336,18.750838 119.262969,18.2519553 117.503751,17.6480447 Z M120.20822,12.1078212 C120.20822,10.873743 119.105427,9.87597765 116.89984,9.87597765 C115.009338,9.87597765 113.932801,10.7424581 113.932801,11.7402235 C113.932801,13.3156425 115.534477,13.8145251 117.293695,14.3921788 C117.818835,14.5234637 118.370231,14.7072626 118.947885,14.8648045 C119.788109,14.024581 120.234477,12.9743017 120.20822,12.1078212 Z M128.925539,26.549162 L126.326097,26.549162 L134.360734,5.07094972 L136.960176,5.07094972 L128.925539,26.549162 Z M139.218276,8.66815642 C141.056265,7.35530726 143.183081,6.77765363 145.36241,6.77765363 C148.959617,6.77765363 151.874142,8.40558659 151.874142,12.0553073 C151.874142,15.0748603 149.379729,16.8603352 147.042857,18.2519553 C144.916042,19.5122905 143.10431,20.4837989 143.078053,21.6391061 L152.005427,21.6128492 L152.005427,25 L138.614366,25 L138.614366,23.2407821 C138.614366,18.9346369 141.870231,17.2541899 144.49593,15.7050279 C146.360176,14.6284916 147.961852,13.9195531 147.961852,12.2128492 C147.961852,10.9 146.806544,10.2173184 144.994812,10.2173184 C143.209338,10.2173184 141.108779,10.9 139.218276,12.3441341 L139.218276,8.66815642 Z M154.342298,16.0726257 C154.342298,10.926257 156.784198,6.77765363 162.481963,6.77765363 C168.179729,6.77765363 170.621628,10.926257 170.621628,16.0726257 C170.621628,21.2189944 168.179729,25.3675978 162.481963,25.3675978 C156.784198,25.3675978 154.342298,21.2189944 154.342298,16.0726257 Z M166.683081,16.0726257 C166.683081,12.2653631 165.370231,10.2435754 162.481963,10.2435754 C159.593695,10.2435754 158.280846,12.2653631 158.280846,16.0726257 C158.280846,19.8798883 159.593695,21.901676 162.481963,21.901676 C165.370231,21.901676 166.683081,19.8798883 166.683081,16.0726257 Z M177.422187,7.1452514 L180.284198,7.1452514 L180.284198,21.6128492 L183.277494,21.6128492 L183.277494,25 L173.089785,25 L173.089785,21.6128492 L176.450678,21.6128492 L176.450678,11.0837989 L173.089785,12.3441341 L173.089785,8.79944134 L177.422187,7.1452514 Z M185.588109,11.7139665 C185.588109,9.32458101 187.583639,6.77765363 192.467438,6.77765363 C197.009896,6.77765363 199.373025,9.32458101 199.399282,11.8189944 C199.425539,13.5519553 198.585315,14.8648045 197.141181,15.9413408 C198.769114,16.7553073 200.055706,18.0156425 200.055706,20.1687151 C200.055706,22.7944134 197.902634,25.3675978 192.519952,25.3675978 C187.189785,25.3675978 184.931684,22.7681564 184.931684,20.0374302 C184.931684,18.2519553 186.034477,16.5452514 187.714924,15.547486 C186.480846,14.7072626 185.588109,13.5256983 185.588109,11.7139665 Z M192.913807,17.6480447 C192.126097,17.3592179 191.180846,17.096648 190.261852,16.7553073 C189.290343,17.5692737 188.843974,18.6458101 188.870231,19.5648045 C188.896488,21.0877095 190.10431,22.2692737 192.808779,22.2692737 C194.699282,22.2692737 196.143416,21.4815642 196.143416,20.273743 C196.143416,18.750838 194.673025,18.2519553 192.913807,17.6480447 Z M195.618276,12.1078212 C195.618276,10.873743 194.515483,9.87597765 192.309896,9.87597765 C190.419393,9.87597765 189.342857,10.7424581 189.342857,11.7402235 C189.342857,13.3156425 190.944533,13.8145251 192.703751,14.3921788 C193.228891,14.5234637 193.780287,14.7072626 194.357941,14.8648045 C195.198164,14.024581 195.644533,12.9743017 195.618276,12.1078212 Z M133.625539,51.1424581 L116.190902,51.1424581 L116.190902,48.0703911 L133.625539,48.0703911 L133.625539,51.1424581 Z M48.5660415,70.6681564 C50.4040303,69.3553073 52.530846,68.7776536 54.7101756,68.7776536 C58.3073823,68.7776536 61.2219074,70.4055866 61.2219074,74.0553073 C61.2219074,77.0748603 58.727494,78.8603352 56.3906225,80.2519553 C54.2638069,81.5122905 52.452075,82.4837989 52.425818,83.6391061 L61.3531923,83.6128492 L61.3531923,87 L47.9621309,87 L47.9621309,85.2407821 C47.9621309,80.9346369 51.2179968,79.2541899 53.8436951,77.7050279 C55.7079409,76.6284916 57.3096169,75.9195531 57.3096169,74.2128492 C57.3096169,72.9 56.1543097,72.2173184 54.3425778,72.2173184 C52.557103,72.2173184 50.4565443,72.9 48.5660415,74.3441341 L48.5660415,70.6681564 Z M64.2939745,73.7139665 C64.2939745,71.324581 66.2895052,68.7776536 71.1733041,68.7776536 C75.7157622,68.7776536 78.0788907,71.324581 78.1051476,73.8189944 C78.1314046,75.5519553 77.2911812,76.8648045 75.8470471,77.9413408 C77.47498,78.7553073 78.7615722,80.0156425 78.7615722,82.1687151 C78.7615722,84.7944134 76.6084996,87.3675978 71.225818,87.3675978 C65.8956504,87.3675978 63.6375499,84.7681564 63.6375499,82.0374302 C63.6375499,80.2519553 64.7403432,78.5452514 66.4207901,77.547486 C65.1867119,76.7072626 64.2939745,75.5256983 64.2939745,73.7139665 Z M71.6196728,79.6480447 C70.8319633,79.3592179 69.8867119,79.096648 68.9677175,78.7553073 C67.9962091,79.5692737 67.5498404,80.6458101 67.5760974,81.5648045 C67.6023543,83.0877095 68.8101756,84.2692737 71.5146449,84.2692737 C73.4051476,84.2692737 74.8492817,83.4815642 74.8492817,82.273743 C74.8492817,80.750838 73.3788907,80.2519553 71.6196728,79.6480447 Z M74.3241421,74.1078212 C74.3241421,72.873743 73.2213488,71.8759777 71.0157622,71.8759777 C69.1252594,71.8759777 68.0487231,72.7424581 68.0487231,73.7402235 C68.0487231,75.3156425 69.650399,75.8145251 71.4096169,76.3921788 C71.9347566,76.5234637 72.4861532,76.7072626 73.0638069,76.8648045 C73.9040303,76.024581 74.350399,74.9743017 74.3241421,74.1078212 Z M83.0414605,88.549162 L80.4420192,88.549162 L88.476656,67.0709497 L91.0760974,67.0709497 L83.0414605,88.549162 Z M92.8090583,78.0726257 C92.8090583,72.926257 95.2509577,68.7776536 100.948723,68.7776536 C106.646488,68.7776536 109.088388,72.926257 109.088388,78.0726257 C109.088388,83.2189944 106.646488,87.3675978 100.948723,87.3675978 C95.2509577,87.3675978 92.8090583,83.2189944 92.8090583,78.0726257 Z M105.14984,78.0726257 C105.14984,74.2653631 103.836991,72.2435754 100.948723,72.2435754 C98.0604549,72.2435754 96.7476057,74.2653631 96.7476057,78.0726257 C96.7476057,81.8798883 98.0604549,83.901676 100.948723,83.901676 C103.836991,83.901676 105.14984,81.8798883 105.14984,78.0726257 Z M111.950399,73.7139665 C111.950399,71.324581 113.94593,68.7776536 118.829729,68.7776536 C123.372187,68.7776536 125.735315,71.324581 125.761572,73.8189944 C125.787829,75.5519553 124.947606,76.8648045 123.503472,77.9413408 C125.131405,78.7553073 126.417997,80.0156425 126.417997,82.1687151 C126.417997,84.7944134 124.264924,87.3675978 118.882243,87.3675978 C113.552075,87.3675978 111.293974,84.7681564 111.293974,82.0374302 C111.293974,80.2519553 112.396768,78.5452514 114.077215,77.547486 C112.843136,76.7072626 111.950399,75.5256983 111.950399,73.7139665 Z M119.276097,79.6480447 C118.488388,79.3592179 117.543136,79.096648 116.624142,78.7553073 C115.652634,79.5692737 115.206265,80.6458101 115.232522,81.5648045 C115.258779,83.0877095 116.4666,84.2692737 119.171069,84.2692737 C121.061572,84.2692737 122.505706,83.4815642 122.505706,82.273743 C122.505706,80.750838 121.035315,80.2519553 119.276097,79.6480447 Z M121.980567,74.1078212 C121.980567,72.873743 120.877773,71.8759777 118.672187,71.8759777 C116.781684,71.8759777 115.705148,72.7424581 115.705148,73.7402235 C115.705148,75.3156425 117.306824,75.8145251 119.066042,76.3921788 C119.591181,76.5234637 120.142578,76.7072626 120.720231,76.8648045 C121.560455,76.024581 122.006824,74.9743017 121.980567,74.1078212 Z M130.697885,88.549162 L128.098444,88.549162 L136.133081,67.0709497 L138.732522,67.0709497 L130.697885,88.549162 Z M140.990623,70.6681564 C142.828611,69.3553073 144.955427,68.7776536 147.134757,68.7776536 C150.731963,68.7776536 153.646488,70.4055866 153.646488,74.0553073 C153.646488,77.0748603 151.152075,78.8603352 148.815204,80.2519553 C146.688388,81.5122905 144.876656,82.4837989 144.850399,83.6391061 L153.777773,83.6128492 L153.777773,87 L140.386712,87 L140.386712,85.2407821 C140.386712,80.9346369 143.642578,79.2541899 146.268276,77.7050279 C148.132522,76.6284916 149.734198,75.9195531 149.734198,74.2128492 C149.734198,72.9 148.578891,72.2173184 146.767159,72.2173184 C144.981684,72.2173184 142.881125,72.9 140.990623,74.3441341 L140.990623,70.6681564 Z M156.114645,78.0726257 C156.114645,72.926257 158.556544,68.7776536 164.25431,68.7776536 C169.952075,68.7776536 172.393974,72.926257 172.393974,78.0726257 C172.393974,83.2189944 169.952075,87.3675978 164.25431,87.3675978 C158.556544,87.3675978 156.114645,83.2189944 156.114645,78.0726257 Z M168.455427,78.0726257 C168.455427,74.2653631 167.142578,72.2435754 164.25431,72.2435754 C161.366042,72.2435754 160.053192,74.2653631 160.053192,78.0726257 C160.053192,81.8798883 161.366042,83.901676 164.25431,83.901676 C167.142578,83.901676 168.455427,81.8798883 168.455427,78.0726257 Z M179.194533,69.1452514 L182.056544,69.1452514 L182.056544,83.6128492 L185.04984,83.6128492 L185.04984,87 L174.862131,87 L174.862131,83.6128492 L178.223025,83.6128492 L178.223025,73.0837989 L174.862131,74.3441341 L174.862131,70.7994413 L179.194533,69.1452514 Z M187.360455,73.7139665 C187.360455,71.324581 189.355986,68.7776536 194.239785,68.7776536 C198.782243,68.7776536 201.145371,71.324581 201.171628,73.8189944 C201.197885,75.5519553 200.357662,76.8648045 198.913528,77.9413408 C200.54146,78.7553073 201.828053,80.0156425 201.828053,82.1687151 C201.828053,84.7944134 199.67498,87.3675978 194.292298,87.3675978 C188.962131,87.3675978 186.70403,84.7681564 186.70403,82.0374302 C186.70403,80.2519553 187.806824,78.5452514 189.487271,77.547486 C188.253192,76.7072626 187.360455,75.5256983 187.360455,73.7139665 Z M194.686153,79.6480447 C193.898444,79.3592179 192.953192,79.096648 192.034198,78.7553073 C191.06269,79.5692737 190.616321,80.6458101 190.642578,81.5648045 C190.668835,83.0877095 191.876656,84.2692737 194.581125,84.2692737 C196.471628,84.2692737 197.915762,83.4815642 197.915762,82.273743 C197.915762,80.750838 196.445371,80.2519553 194.686153,79.6480447 Z M197.390623,74.1078212 C197.390623,72.873743 196.287829,71.8759777 194.082243,71.8759777 C192.19174,71.8759777 191.115204,72.7424581 191.115204,73.7402235 C191.115204,75.3156425 192.716879,75.8145251 194.476097,76.3921788 C195.001237,76.5234637 195.552634,76.7072626 196.130287,76.8648045 C196.970511,76.024581 197.416879,74.9743017 197.390623,74.1078212 Z" id="18/08/2018-—-28/08/2" fill="#131F3C"></path>
                </g>
            </g>
            <path d="M102.321815,184.956634 L106.102483,184.956634 L106.102483,199.659233 L109.071008,199.659233 L109.071008,204 L97.7009985,204 L97.7009985,199.659233 L101.061592,199.659233 L101.061592,190.08154 L97.7009985,191.341763 L97.7009985,186.720946 L102.321815,184.956634 Z M110.77931,194.478317 C110.77931,189.045357 113.38377,184.53656 119.600869,184.53656 C125.817968,184.53656 128.422428,189.045357 128.422428,194.478317 C128.422428,199.911277 125.817968,204.420074 119.600869,204.420074 C113.38377,204.420074 110.77931,199.911277 110.77931,194.478317 Z M123.241512,194.478317 C123.241512,190.809669 122.09331,189.017352 119.600869,189.017352 C117.108429,189.017352 115.960226,190.809669 115.960226,194.478317 C115.960226,198.146966 117.108429,199.939282 119.600869,199.939282 C122.09331,199.939282 123.241512,198.146966 123.241512,194.478317 Z M138.476205,205.680297 L135.395661,205.680297 L146.849685,182.716238 L149.930229,182.716238 L138.476205,205.680297 Z M140.940641,189.017352 C140.940641,192.377946 138.476205,194.058243 135.6197,194.058243 C132.73519,194.058243 130.270755,192.377946 130.270755,189.017352 C130.270755,185.656758 132.73519,183.976461 135.6197,183.976461 C138.476205,183.976461 140.940641,185.656758 140.940641,189.017352 Z M133.967408,189.017352 C133.967408,189.857501 134.415487,190.697649 135.6197,190.697649 C136.795908,190.697649 137.243987,189.857501 137.243987,189.017352 C137.243987,188.177204 136.795908,187.337055 135.6197,187.337055 C134.415487,187.337055 133.967408,188.177204 133.967408,189.017352 Z M154.943115,199.379183 C154.943115,202.739777 152.47868,204.420074 149.622175,204.420074 C146.737665,204.420074 144.27323,202.739777 144.27323,199.379183 C144.27323,196.018589 146.737665,194.338292 149.622175,194.338292 C152.47868,194.338292 154.943115,196.018589 154.943115,199.379183 Z M147.969883,199.379183 C147.969883,200.219332 148.417962,201.05948 149.622175,201.05948 C150.798383,201.05948 151.246462,200.219332 151.246462,199.379183 C151.246462,198.539035 150.798383,197.698886 149.622175,197.698886 C148.417962,197.698886 147.969883,198.539035 147.969883,199.379183 Z" id="10%" fill="#131F3C"></path>
            <path d="M151.085763,231.937443 L133.351695,231.937443 L133.351695,228.569139 L145.422337,228.59039 C145.422337,228.505385 145.112428,228.168912 144.4926,227.580962 C143.872772,226.993011 143.205139,226.454654 142.489681,225.965876 C141.73172,225.441678 140.920643,225.179584 140.056426,225.179584 C139.383471,225.179584 138.345717,225.431053 136.943136,225.933999 C137.524003,224.928107 137.934854,224.308289 138.175701,224.074525 C138.799071,223.351983 139.836824,222.990717 141.288992,222.990717 C142.811997,222.990717 144.504987,223.83367 146.368012,225.519602 C147.083471,226.192558 147.784751,226.785813 148.471874,227.299384 C149.158998,227.812956 150.030285,228.218494 151.085763,228.516011 L151.085763,231.937443 Z M141.203987,217.104154 L144.306653,218.347345 L143.169717,220.865604 L140.130805,219.590536 L141.203987,217.104154 Z M117.721488,228.622267 C118.564453,228.622267 119.506577,228.2185 120.547888,227.410953 C121.490026,226.709662 122.212557,226.153596 122.715503,225.742739 C125.081474,223.681369 126.661126,222.650699 127.454506,222.650699 C128.212466,222.650699 129.03771,222.856125 129.930262,223.266982 C132.197061,224.690815 133.330443,226.022539 133.330443,227.262195 C133.32336,227.665968 133.256065,228.09807 133.128558,228.558514 L133.989228,228.569139 L133.989228,231.937443 L132.267887,231.937443 L131.736609,231.384914 C131.694106,231.455751 131.651604,231.523046 131.609102,231.5868 C131.474511,231.820563 131.014074,231.937443 130.227778,231.937443 L116.701433,231.937443 C114.902162,231.937443 113.549187,231.668265 112.642467,231.1299 C111.842004,231.668265 110.953007,231.937443 109.97545,231.937443 L109.295414,231.937443 L109.295414,228.569139 C111.370952,228.625809 112.486625,228.526638 112.642467,228.271623 C112.755807,228.144116 112.812476,227.811185 112.812476,227.27282 C112.812476,226.713204 112.7806,226.298811 112.716846,226.029629 L114.714453,224.000146 C114.742788,224.127653 114.76758,224.294119 114.788832,224.499548 C114.810083,224.704976 114.817166,224.949362 114.810083,225.232712 C114.810083,225.480643 114.779977,225.78701 114.719765,226.151823 C114.659554,226.516636 114.59403,226.844254 114.523192,227.134688 C114.452355,227.425121 114.38506,227.660652 114.321307,227.841288 C114.257553,228.021923 114.225677,228.144116 114.225677,228.20787 C114.246928,228.299959 114.399226,228.392046 114.682576,228.484135 C114.965926,228.576223 115.978886,228.622267 117.721488,228.622267 Z M131.545348,228.175993 C131.545348,227.765136 130.985741,227.272823 129.866509,226.69904 C128.803947,226.146507 128.04954,225.870246 127.603264,225.870246 C125.867746,225.870246 124.348305,226.312973 123.044896,227.198441 C122.060255,227.949318 121.567942,228.480591 121.567942,228.792276 C121.660031,228.827695 122.111613,228.864884 122.922702,228.903844 C123.733791,228.942805 125.34709,228.962285 127.762647,228.962285 C130.284461,228.962285 131.545348,228.70019 131.545348,228.175993 Z M106.373384,231.884316 C105.842103,231.863064 105.250619,231.817021 104.598914,231.746183 C101.836253,231.604508 100.451402,231.760348 100.444318,232.213708 L100.539948,232.606854 C100.568283,232.691859 100.614327,232.874263 100.678081,233.154071 C100.741834,233.433879 100.865798,233.920879 101.049975,234.615086 C101.269571,235.60681 101.423641,236.499349 101.512187,237.292728 C101.600734,238.086108 101.637923,238.794472 101.623756,239.417842 C101.623756,240.182886 101.347494,241.04709 100.794962,242.01048 C100.674538,240.735405 100.52224,239.53827 100.338062,238.419038 C100.153885,237.299807 99.937834,236.247886 99.6899029,235.263245 C99.4490556,234.59029 99.2843609,234.020057 99.1958141,233.552529 C99.1072673,233.085002 99.0629946,232.716653 99.0629946,232.447471 C99.4171818,230.499441 99.8811602,229.362516 100.454944,229.036664 C100.780796,228.85957 101.529891,228.763941 102.702251,228.749774 C103.874611,228.735606 104.676833,228.728523 105.108941,228.728523 C105.264784,228.728523 105.381664,228.74269 105.459585,228.771025 L103.143212,225.806492 L100.178679,227.336574 L100.19993,226.900925 C100.207014,226.660078 100.773705,225.810041 101.900021,224.35079 C102.714651,223.529075 103.472601,223.118224 104.173892,223.118224 C104.804345,223.118224 105.367494,223.468864 105.863356,224.170155 C106.288381,224.864362 106.731109,225.615228 107.191552,226.422775 C107.4324,226.982391 107.648451,227.435744 107.839712,227.782847 C108.009722,228.094532 108.399322,228.356627 109.008524,228.569139 L109.932948,228.569139 L109.932948,231.937443 L108.530373,231.937443 L107.999095,231.629302 L107.850337,231.979946 C107.396978,231.937443 106.904665,231.905567 106.373384,231.884316 Z" id="خصم" fill="#131F3C"></path>
        </g>
    </g>
</svg>