<?xml version="1.0" encoding="UTF-8" standalone="no"?>
<svg width="250px" height="365px" viewBox="0 0 250 365" version="1.1" xmlns="http://www.w3.org/2000/svg" xmlns:xlink="http://www.w3.org/1999/xlink">
    <!-- Generator: Sketch 49 (51002) - http://www.bohemiancoding.com/sketch -->
    <title>ar15</title>
    <desc>Created with Sketch.</desc>
    <defs>
        <radialGradient cx="101.120329%" cy="100%" fx="101.120329%" fy="100%" r="101.454359%" gradientTransform="translate(1.011203,1.000000),scale(1.000000,0.999999),rotate(90.000000),translate(-1.011203,-1.000000)" id="radialGradient-1">
            <stop stop-color="#FF9495" offset="0%"></stop>
            <stop stop-color="#FE5F60" offset="70.3742825%"></stop>
            <stop stop-color="#FF9091" offset="100%"></stop>
        </radialGradient>
        <radialGradient cx="50%" cy="50%" fx="50%" fy="50%" r="50.0301469%" id="radialGradient-2">
            <stop stop-color="#8D00FF" offset="0%"></stop>
            <stop stop-color="#5C00FE" offset="69.8959662%"></stop>
            <stop stop-color="#8900FF" offset="100%"></stop>
        </radialGradient>
    </defs>
    <g id="Monoreto" stroke="none" stroke-width="1" fill="none" fill-rule="evenodd">
        <g id="ar15" transform="translate(-1.000000, -5.000000)">
            <g id="2-copy">
                <g id="Group-2" transform="translate(126.066640, 244.762969) scale(-1, 1) translate(-126.066640, -244.762969) translate(0.566640, 119.762969)">
                    <path d="M0.773750896,124.873729 C0.773779989,116.689946 1.57209481,108.584814 3.16869536,100.558282 C4.76529591,92.5317607 7.12950015,84.7380986 10.2613081,77.1772896 C13.393116,69.6164805 17.2323564,62.4338 21.7790176,55.629254 C26.325673,48.8247085 31.4923987,42.5290333 37.2791891,36.7422459 C43.0659853,30.9554544 49.3616506,25.7887338 56.1661792,21.2420837 C62.9707136,16.6954341 70.153394,12.8562164 77.7141798,9.7244312 C85.2749598,6.59264654 93.068616,4.22846849 101.095102,2.6318982 C109.121588,1.03532325 117.226597,0.237031125 125.410328,0.237031125 L125.410328,56.3235362 C120.909297,56.3235653 116.451511,56.762639 112.036963,57.6407748 C107.62241,58.518899 103.33595,59.8192111 99.17753,61.5416993 C95.0191103,63.2641992 91.0686861,65.3757843 87.3262108,67.8764488 C83.5837413,70.3771134 80.1211632,73.2188123 76.9384532,76.4015455 C73.7557433,79.5842788 70.9140618,83.0468976 68.4134322,86.7893845 C65.9127968,90.5318831 63.8012407,94.482348 62.0787699,98.6407794 C60.3563108,102.799211 59.0560162,107.085712 58.1779036,111.500294 C57.2998202,115.914842 56.8607755,120.372669 56.8607581,124.873729 L0.773750896,124.873729 Z" id="Fill-8" fill="url(#radialGradient-1)"></path>
                    <path d="M125.475948,0.237031125 C133.652855,0.23706659 141.751206,1.03472162 149.770988,2.62999272 C157.790771,4.22526731 165.577876,6.58750783 173.132322,9.71671311 C180.68679,12.8459137 187.863445,16.6819591 194.662297,21.2248403 C201.461125,25.7677257 207.75149,30.9301581 213.533426,36.7121376 C219.315362,42.4941165 224.477725,48.7845522 229.020556,55.5834348 C233.563387,62.3823272 237.399362,69.5590225 240.528504,77.1135206 C243.657681,84.6680362 246.019921,92.4552054 247.615154,100.475028 C249.210382,108.494845 250.007981,116.593231 250.007981,124.770157 C250.007946,132.94714 249.210312,141.045555 247.615009,149.065407 C246.019781,157.085259 243.657541,164.87244 240.528289,172.426979 C237.399112,179.981512 233.563073,187.158224 229.020201,193.957105 C224.477335,200.755992 219.314897,207.046426 213.532891,212.828415 C207.75092,218.610403 201.460521,223.772824 194.661605,228.315708 C187.862718,232.858574 180.686029,236.694601 173.131525,239.823761 C165.577021,242.952955 157.789846,245.31516 149.770029,246.910411 C141.750195,248.505655 133.651809,249.303272 125.474866,249.303272 C117.297883,249.303237 109.199485,248.505586 101.179651,246.9103 C93.1597989,245.315038 85.3726007,242.952798 77.8180619,239.82358 C70.2635232,236.694386 63.0868163,232.858347 56.2879297,228.315475 C49.4890373,223.772592 43.1986028,218.61017 37.4166263,212.828182 C31.6346439,207.046217 26.4722168,200.755777 21.9293506,193.956896 C17.3864729,187.158009 13.5504514,179.98132 10.421263,172.426798 C7.29207463,164.872294 4.92986378,157.085137 3.33462466,149.06532 C1.73936229,141.045485 0.941739824,132.947099 0.941739824,124.770157 C0.941739824,124.770153 19.6218754,124.770159 56.9821467,124.770174 C56.9821641,129.267494 57.4208788,133.721635 58.2982851,138.132549 C59.175668,142.54347 60.4748997,146.826409 62.1959626,150.981403 C63.917043,155.136403 66.0268562,159.083585 68.5254489,162.82298 C71.0240415,166.562381 73.8633794,170.022135 77.0434624,173.202218 C80.2235571,176.382301 83.6832989,179.221639 87.4226764,181.720231 C91.1620597,184.218783 95.1092365,186.328602 99.2642186,188.049665 C103.419201,189.770722 107.70214,191.069954 112.113037,191.947343 C116.52394,192.824708 120.97804,193.263394 125.47536,193.263394 C129.972686,193.263377 134.426821,192.824673 138.837759,191.94729 C143.248656,191.069884 147.531613,189.770653 151.686613,188.049572 C155.841612,186.328515 159.788789,184.218696 163.52819,181.720103 C167.267567,179.221511 170.727309,176.382179 173.907404,173.202096 C177.087504,170.022012 179.926842,166.562271 182.425435,162.822876 C184.92401,159.083475 187.033823,155.136298 188.754868,150.981316 C190.475908,146.826334 191.77514,142.543394 192.652529,138.132497 C193.529912,133.721583 193.968597,129.267477 193.96858,124.770174 C193.968562,120.272854 193.529859,115.818713 192.652476,111.407799 C191.77507,106.996878 190.475838,102.713921 188.754758,98.5589274 C187.033718,94.4039337 184.923899,90.4567452 182.425307,86.7173561 C179.92672,82.977967 177.087365,79.5182309 173.907282,76.338142 C170.727198,73.1580474 167.267462,70.3187211 163.528062,67.8201401 C159.788667,65.3215532 155.841484,63.21174 151.686502,61.4906887 C147.531526,59.7696374 143.248586,58.4704115 138.837701,57.5930227 C134.426786,56.7156397 129.972686,56.2769482 125.47536,56.2769482 L125.475948,0.237031125 Z" id="Fill-8" fill="url(#radialGradient-2)"></path>
                </g>
                <circle id="Oval" fill="#FFFFFF" cx="124.90822" cy="244.671189" r="87.3982442"></circle>
                <path d="M80.1879256,271.352202 L77.8641075,271.352202 L77.8641075,268.209766 C75.9099878,267.99851 74.0614961,267.47037 72.5827028,266.651752 L72.5827028,263.694165 C74.6160436,264.988109 76.9926757,265.51625 79.1052376,265.51625 C81.4818698,265.51625 83.0926982,264.961702 83.0926982,263.218839 C83.0926982,258.940901 72.6619238,261.211905 72.6619238,254.662963 C72.6619238,251.652562 74.9593349,250.041734 77.8641075,249.698443 L77.8641075,246.5296 L80.1879256,246.5296 L80.1879256,249.672036 C81.9571962,249.804071 83.7264668,250.279397 84.9675969,251.018794 L84.9675969,253.897159 C83.4623965,252.893693 81.4026487,252.339145 79.4221219,252.365552 C77.1775249,252.365552 75.7251386,253.025728 75.7251386,254.610149 C75.7251386,258.59761 86.155913,256.458641 86.155913,263.060397 C86.155913,266.625345 83.4888036,268.051324 80.1879256,268.236173 L80.1879256,271.352202 Z M88.3212889,258.940901 C88.3212889,253.685903 90.8035491,249.619222 96.3754311,249.619222 C101.947313,249.619222 104.429573,253.685903 104.429573,258.940901 C104.429573,264.195899 101.947313,268.26258 96.3754311,268.26258 C90.8035491,268.26258 88.3212889,264.195899 88.3212889,258.940901 Z M101.392766,258.940901 C101.392766,254.768591 99.8083442,252.365552 96.3754311,252.365552 C92.916111,252.365552 91.3580966,254.768591 91.3580966,258.940901 C91.3580966,263.113211 92.916111,265.51625 96.3754311,265.51625 C99.8083442,265.51625 101.392766,263.113211 101.392766,258.940901 Z M110.529596,266.466903 C110.529596,267.655219 109.710978,268.209766 108.760325,268.209766 C107.809672,268.209766 106.964648,267.655219 106.964648,266.466903 C106.964648,265.331401 107.809672,264.776853 108.760325,264.776853 C109.710978,264.776853 110.529596,265.331401 110.529596,266.466903 Z M113.06467,258.940901 C113.06467,253.685903 115.54693,249.619222 121.118812,249.619222 C126.690694,249.619222 129.172955,253.685903 129.172955,258.940901 C129.172955,264.195899 126.690694,268.26258 121.118812,268.26258 C115.54693,268.26258 113.06467,264.195899 113.06467,258.940901 Z M126.136147,258.940901 C126.136147,254.768591 124.551725,252.365552 121.118812,252.365552 C117.659492,252.365552 116.101478,254.768591 116.101478,258.940901 C116.101478,263.113211 117.659492,265.51625 121.118812,265.51625 C124.551725,265.51625 126.136147,263.113211 126.136147,258.940901 Z M140.633603,249.962513 L143.723225,249.962513 L143.723225,261.634417 L146.812846,261.634417 L146.812846,264.248713 L143.723225,264.248713 L143.723225,267.919289 L140.818452,267.919289 L140.818452,264.248713 L131.07426,264.248713 L131.07426,261.687231 L140.633603,249.962513 Z M140.818452,261.634417 L140.818452,253.791531 L134.427952,261.634417 L140.818452,261.634417 Z M149.321514,251.441306 C151.170005,250.173769 153.203346,249.619222 155.289501,249.619222 C158.93367,249.619222 161.60078,251.309271 161.60078,254.662963 C161.60078,257.699771 159.065705,259.495448 156.636259,260.947835 C154.312441,262.321 152.120658,263.430095 152.094251,265.225773 L161.732815,265.199366 L161.732815,267.919289 L148.714152,267.919289 L148.714152,266.546124 C148.714152,262.162558 151.962216,260.498915 154.68214,258.888087 C156.768294,257.673364 158.590379,256.749118 158.590379,254.715777 C158.590379,253.157763 157.243621,252.339145 155.025431,252.339145 C153.203346,252.339145 151.222819,252.972914 149.321514,254.346079 L149.321514,251.441306 Z M165.456205,249.962513 L176.520748,249.962513 L176.520748,252.656029 L168.228943,252.656029 L167.964872,256.986781 C168.836304,256.775525 169.76055,256.669897 170.684796,256.669897 C174.144116,256.669897 177.365773,258.175097 177.365773,262.400221 C177.365773,266.282054 174.064895,268.26258 170.103841,268.26258 C168.017686,268.26258 165.931532,267.813661 164.34711,267.047857 L164.34711,264.222306 C165.852311,265.093737 167.885651,265.542657 169.76055,265.542657 C172.427659,265.542657 174.328965,264.486376 174.328965,262.373814 C174.328965,259.997182 172.295624,259.152157 169.443666,259.152157 C167.991279,259.152157 166.327637,259.442634 164.875251,259.944368 L165.456205,249.962513 Z M90.2886122,281.962513 L92.5068022,281.962513 L92.5068022,297.199366 L95.702052,297.199366 L95.702052,299.919289 L85.9314533,299.919289 L85.9314533,297.199366 L89.5228085,297.199366 L89.5228085,285.052135 L85.9314533,286.398893 L85.9314533,283.626155 L90.2886122,281.962513 Z M121.528121,281.434372 L124.248045,281.434372 L124.248045,299.919289 L121.237644,299.919289 L121.237644,286.979847 L115.401692,295.746979 L113.606014,295.746979 L107.770062,286.95344 L107.770062,299.919289 L104.759661,299.919289 L104.759661,281.434372 L107.479585,281.434372 L114.503853,292.023589 L121.528121,281.434372 Z M131.747639,299.919289 L128.737239,299.919289 L128.737239,281.434372 L131.56279,281.434372 L141.518238,294.954769 C141.491831,294.321 141.491831,293.60801 141.491831,292.921428 L141.491831,281.434372 L144.502232,281.434372 L144.502232,299.919289 L141.67668,299.919289 L131.721232,286.398893 C131.747639,287.032661 131.747639,287.745651 131.747639,288.405827 L131.747639,299.919289 Z M152.001827,299.919289 L148.991426,299.919289 L148.991426,281.434372 L156.385393,281.434372 C159.844713,281.434372 163.488882,282.807538 163.488882,287.217511 C163.488882,290.518389 161.429134,292.10281 158.999688,292.683765 L164.914861,299.919289 L161.297099,299.919289 L155.751624,293.000649 L152.001827,293.000649 L152.001827,299.919289 Z M152.001827,284.180703 L152.001827,290.333539 L156.517428,290.333539 C158.497954,290.333539 160.425667,289.62055 160.425667,287.270325 C160.425667,284.893693 158.497954,284.180703 156.517428,284.180703 L152.001827,284.180703 Z" id="$0.0425-1-MNR" fill="#131F3C"></path>
                <g id="Group-4" transform="translate(0.000000, 119.762969)"></g>
                <path d="M55.3159617,7.1452514 L58.1779729,7.1452514 L58.1779729,21.6128492 L61.171269,21.6128492 L61.171269,25 L50.9835595,25 L50.9835595,21.6128492 L54.3444533,21.6128492 L54.3444533,11.0837989 L50.9835595,12.3441341 L50.9835595,8.79944134 L55.3159617,7.1452514 Z M66.7902634,14.6547486 C68.3656824,13.8145251 69.8098164,13.4469274 71.5690343,13.4469274 C74.7723863,13.4469274 77.7919393,15.3899441 77.7919393,19.2234637 C77.7919393,23.2932961 74.6148444,25.3675978 70.9651237,25.3675978 C65.2148444,25.3675978 62.8779729,21.849162 62.8779729,16.0726257 C62.8779729,9.53463687 66.8165204,6.77765363 71.3589785,6.77765363 C73.0394254,6.77765363 74.7461293,7.17150838 76.2690343,7.88044693 L76.2690343,11.3463687 C75.0349561,10.5324022 73.4070231,10.0860335 71.8841181,10.0860335 C69.4684757,10.0860335 67.2628891,11.1100559 66.7902634,14.6547486 Z M66.7902634,17.8318436 C67.1578611,21.1664804 68.6019952,22.1642458 70.6500399,22.1642458 C72.3830008,22.1642458 73.8533919,21.3765363 73.8533919,19.4072626 C73.8533919,17.3592179 72.1992019,16.7290503 70.3612131,16.7290503 C69.1796488,16.7290503 67.9193136,17.096648 66.7902634,17.8318436 Z M81.8092578,26.549162 L79.2098164,26.549162 L87.2444533,5.07094972 L89.8438947,5.07094972 L81.8092578,26.549162 Z M91.5768555,16.0726257 C91.5768555,10.926257 94.018755,6.77765363 99.7165204,6.77765363 C105.414286,6.77765363 107.856185,10.926257 107.856185,16.0726257 C107.856185,21.2189944 105.414286,25.3675978 99.7165204,25.3675978 C94.018755,25.3675978 91.5768555,21.2189944 91.5768555,16.0726257 Z M103.917638,16.0726257 C103.917638,12.2653631 102.604789,10.2435754 99.7165204,10.2435754 C96.8282522,10.2435754 95.515403,12.2653631 95.515403,16.0726257 C95.515403,19.8798883 96.8282522,21.901676 99.7165204,21.901676 C102.604789,21.901676 103.917638,19.8798883 103.917638,16.0726257 Z M110.718196,11.7139665 C110.718196,9.32458101 112.713727,6.77765363 117.597526,6.77765363 C122.139984,6.77765363 124.503113,9.32458101 124.52937,11.8189944 C124.555626,13.5519553 123.715403,14.8648045 122.271269,15.9413408 C123.899202,16.7553073 125.185794,18.0156425 125.185794,20.1687151 C125.185794,22.7944134 123.032721,25.3675978 117.65004,25.3675978 C112.319872,25.3675978 110.061772,22.7681564 110.061772,20.0374302 C110.061772,18.2519553 111.164565,16.5452514 112.845012,15.547486 C111.610934,14.7072626 110.718196,13.5256983 110.718196,11.7139665 Z M118.043895,17.6480447 C117.256185,17.3592179 116.310934,17.096648 115.391939,16.7553073 C114.420431,17.5692737 113.974062,18.6458101 114.000319,19.5648045 C114.026576,21.0877095 115.234397,22.2692737 117.938867,22.2692737 C119.82937,22.2692737 121.273504,21.4815642 121.273504,20.273743 C121.273504,18.750838 119.803113,18.2519553 118.043895,17.6480447 Z M120.748364,12.1078212 C120.748364,10.873743 119.645571,9.87597765 117.439984,9.87597765 C115.549481,9.87597765 114.472945,10.7424581 114.472945,11.7402235 C114.472945,13.3156425 116.074621,13.8145251 117.833839,14.3921788 C118.358978,14.5234637 118.910375,14.7072626 119.488029,14.8648045 C120.328252,14.024581 120.774621,12.9743017 120.748364,12.1078212 Z M129.465682,26.549162 L126.866241,26.549162 L134.900878,5.07094972 L137.500319,5.07094972 L129.465682,26.549162 Z M139.75842,8.66815642 C141.596409,7.35530726 143.723224,6.77765363 145.902554,6.77765363 C149.499761,6.77765363 152.414286,8.40558659 152.414286,12.0553073 C152.414286,15.0748603 149.919872,16.8603352 147.583001,18.2519553 C145.456185,19.5122905 143.644453,20.4837989 143.618196,21.6391061 L152.545571,21.6128492 L152.545571,25 L139.154509,25 L139.154509,23.2407821 C139.154509,18.9346369 142.410375,17.2541899 145.036073,15.7050279 C146.900319,14.6284916 148.501995,13.9195531 148.501995,12.2128492 C148.501995,10.9 147.346688,10.2173184 145.534956,10.2173184 C143.749481,10.2173184 141.648923,10.9 139.75842,12.3441341 L139.75842,8.66815642 Z M154.882442,16.0726257 C154.882442,10.926257 157.324342,6.77765363 163.022107,6.77765363 C168.719872,6.77765363 171.161772,10.926257 171.161772,16.0726257 C171.161772,21.2189944 168.719872,25.3675978 163.022107,25.3675978 C157.324342,25.3675978 154.882442,21.2189944 154.882442,16.0726257 Z M167.223224,16.0726257 C167.223224,12.2653631 165.910375,10.2435754 163.022107,10.2435754 C160.133839,10.2435754 158.82099,12.2653631 158.82099,16.0726257 C158.82099,19.8798883 160.133839,21.901676 163.022107,21.901676 C165.910375,21.901676 167.223224,19.8798883 167.223224,16.0726257 Z M177.96233,7.1452514 L180.824342,7.1452514 L180.824342,21.6128492 L183.817638,21.6128492 L183.817638,25 L173.629928,25 L173.629928,21.6128492 L176.990822,21.6128492 L176.990822,11.0837989 L173.629928,12.3441341 L173.629928,8.79944134 L177.96233,7.1452514 Z M186.128252,11.7139665 C186.128252,9.32458101 188.123783,6.77765363 193.007582,6.77765363 C197.55004,6.77765363 199.913168,9.32458101 199.939425,11.8189944 C199.965682,13.5519553 199.125459,14.8648045 197.681325,15.9413408 C199.309258,16.7553073 200.59585,18.0156425 200.59585,20.1687151 C200.59585,22.7944134 198.442777,25.3675978 193.060096,25.3675978 C187.729928,25.3675978 185.471828,22.7681564 185.471828,20.0374302 C185.471828,18.2519553 186.574621,16.5452514 188.255068,15.547486 C187.02099,14.7072626 186.128252,13.5256983 186.128252,11.7139665 Z M193.453951,17.6480447 C192.666241,17.3592179 191.72099,17.096648 190.801995,16.7553073 C189.830487,17.5692737 189.384118,18.6458101 189.410375,19.5648045 C189.436632,21.0877095 190.644453,22.2692737 193.348923,22.2692737 C195.239425,22.2692737 196.683559,21.4815642 196.683559,20.273743 C196.683559,18.750838 195.213168,18.2519553 193.453951,17.6480447 Z M196.15842,12.1078212 C196.15842,10.873743 195.055626,9.87597765 192.85004,9.87597765 C190.959537,9.87597765 189.883001,10.7424581 189.883001,11.7402235 C189.883001,13.3156425 191.484677,13.8145251 193.243895,14.3921788 C193.769034,14.5234637 194.320431,14.7072626 194.898085,14.8648045 C195.738308,14.024581 196.184677,12.9743017 196.15842,12.1078212 Z M134.375738,51.1424581 L116.941101,51.1424581 L116.941101,48.0703911 L134.375738,48.0703911 L134.375738,51.1424581 Z M56.3137271,69.1452514 L59.1757382,69.1452514 L59.1757382,83.6128492 L62.1690343,83.6128492 L62.1690343,87 L51.9813248,87 L51.9813248,83.6128492 L55.3422187,83.6128492 L55.3422187,73.0837989 L51.9813248,74.3441341 L51.9813248,70.7994413 L56.3137271,69.1452514 Z M63.4031125,69.1189944 L77.1355148,69.1189944 L77.1355148,71.9547486 L69.8098164,87 L65.5561852,87 L72.6193136,72.5061453 L63.4031125,72.5061453 L63.4031125,69.1189944 Z M80.8114924,88.549162 L78.2120511,88.549162 L86.2466879,67.0709497 L88.8461293,67.0709497 L80.8114924,88.549162 Z M90.5790902,78.0726257 C90.5790902,72.926257 93.0209896,68.7776536 98.718755,68.7776536 C104.41652,68.7776536 106.85842,72.926257 106.85842,78.0726257 C106.85842,83.2189944 104.41652,87.3675978 98.718755,87.3675978 C93.0209896,87.3675978 90.5790902,83.2189944 90.5790902,78.0726257 Z M102.919872,78.0726257 C102.919872,74.2653631 101.607023,72.2435754 98.718755,72.2435754 C95.8304868,72.2435754 94.5176377,74.2653631 94.5176377,78.0726257 C94.5176377,81.8798883 95.8304868,83.901676 98.718755,83.901676 C101.607023,83.901676 102.919872,81.8798883 102.919872,78.0726257 Z M109.720431,73.7139665 C109.720431,71.324581 111.715962,68.7776536 116.599761,68.7776536 C121.142219,68.7776536 123.505347,71.324581 123.531604,73.8189944 C123.557861,75.5519553 122.717638,76.8648045 121.273504,77.9413408 C122.901437,78.7553073 124.188029,80.0156425 124.188029,82.1687151 C124.188029,84.7944134 122.034956,87.3675978 116.652275,87.3675978 C111.322107,87.3675978 109.064006,84.7681564 109.064006,82.0374302 C109.064006,80.2519553 110.1668,78.5452514 111.847247,77.547486 C110.613168,76.7072626 109.720431,75.5256983 109.720431,73.7139665 Z M117.046129,79.6480447 C116.25842,79.3592179 115.313168,79.096648 114.394174,78.7553073 C113.422666,79.5692737 112.976297,80.6458101 113.002554,81.5648045 C113.028811,83.0877095 114.236632,84.2692737 116.941101,84.2692737 C118.831604,84.2692737 120.275738,83.4815642 120.275738,82.273743 C120.275738,80.750838 118.805347,80.2519553 117.046129,79.6480447 Z M119.750599,74.1078212 C119.750599,72.873743 118.647805,71.8759777 116.442219,71.8759777 C114.551716,71.8759777 113.47518,72.7424581 113.47518,73.7402235 C113.47518,75.3156425 115.076856,75.8145251 116.836073,76.3921788 C117.361213,76.5234637 117.91261,76.7072626 118.490263,76.8648045 C119.330487,76.024581 119.776856,74.9743017 119.750599,74.1078212 Z M128.467917,88.549162 L125.868476,88.549162 L133.903113,67.0709497 L136.502554,67.0709497 L128.467917,88.549162 Z M138.760654,70.6681564 C140.598643,69.3553073 142.725459,68.7776536 144.904789,68.7776536 C148.501995,68.7776536 151.41652,70.4055866 151.41652,74.0553073 C151.41652,77.0748603 148.922107,78.8603352 146.585235,80.2519553 C144.45842,81.5122905 142.646688,82.4837989 142.620431,83.6391061 L151.547805,83.6128492 L151.547805,87 L138.156744,87 L138.156744,85.2407821 C138.156744,80.9346369 141.41261,79.2541899 144.038308,77.7050279 C145.902554,76.6284916 147.50423,75.9195531 147.50423,74.2128492 C147.50423,72.9 146.348923,72.2173184 144.537191,72.2173184 C142.751716,72.2173184 140.651157,72.9 138.760654,74.3441341 L138.760654,70.6681564 Z M153.884677,78.0726257 C153.884677,72.926257 156.326576,68.7776536 162.024342,68.7776536 C167.722107,68.7776536 170.164006,72.926257 170.164006,78.0726257 C170.164006,83.2189944 167.722107,87.3675978 162.024342,87.3675978 C156.326576,87.3675978 153.884677,83.2189944 153.884677,78.0726257 Z M166.225459,78.0726257 C166.225459,74.2653631 164.91261,72.2435754 162.024342,72.2435754 C159.136073,72.2435754 157.823224,74.2653631 157.823224,78.0726257 C157.823224,81.8798883 159.136073,83.901676 162.024342,83.901676 C164.91261,83.901676 166.225459,81.8798883 166.225459,78.0726257 Z M176.964565,69.1452514 L179.826576,69.1452514 L179.826576,83.6128492 L182.819872,83.6128492 L182.819872,87 L172.632163,87 L172.632163,83.6128492 L175.993057,83.6128492 L175.993057,73.0837989 L172.632163,74.3441341 L172.632163,70.7994413 L176.964565,69.1452514 Z M185.130487,73.7139665 C185.130487,71.324581 187.126018,68.7776536 192.009816,68.7776536 C196.552275,68.7776536 198.915403,71.324581 198.94166,73.8189944 C198.967917,75.5519553 198.127694,76.8648045 196.683559,77.9413408 C198.311492,78.7553073 199.598085,80.0156425 199.598085,82.1687151 C199.598085,84.7944134 197.445012,87.3675978 192.06233,87.3675978 C186.732163,87.3675978 184.474062,84.7681564 184.474062,82.0374302 C184.474062,80.2519553 185.576856,78.5452514 187.257302,77.547486 C186.023224,76.7072626 185.130487,75.5256983 185.130487,73.7139665 Z M192.456185,79.6480447 C191.668476,79.3592179 190.723224,79.096648 189.80423,78.7553073 C188.832721,79.5692737 188.386353,80.6458101 188.41261,81.5648045 C188.438867,83.0877095 189.646688,84.2692737 192.351157,84.2692737 C194.24166,84.2692737 195.685794,83.4815642 195.685794,82.273743 C195.685794,80.750838 194.215403,80.2519553 192.456185,79.6480447 Z M195.160654,74.1078212 C195.160654,72.873743 194.057861,71.8759777 191.852275,71.8759777 C189.961772,71.8759777 188.885235,72.7424581 188.885235,73.7402235 C188.885235,75.3156425 190.486911,75.8145251 192.246129,76.3921788 C192.771269,76.5234637 193.322666,76.7072626 193.900319,76.8648045 C194.740543,76.024581 195.186911,74.9743017 195.160654,74.1078212 Z" id="16/08/2018-—-17/08/2" fill="#131F3C"></path>
            </g>
            <path d="M103.862087,184.956634 L107.642756,184.956634 L107.642756,199.659233 L110.61128,199.659233 L110.61128,204 L99.2412708,204 L99.2412708,199.659233 L102.601865,199.659233 L102.601865,190.08154 L99.2412708,191.341763 L99.2412708,186.720946 L103.862087,184.956634 Z M113.691825,184.928629 L126.154027,184.928629 L126.154027,189.269397 L118.340646,189.241392 L118.144612,192.041887 C118.844735,191.929867 119.544859,191.873857 120.188973,191.873857 C124.081661,191.873857 126.994176,193.638169 126.994176,197.922926 C126.994176,202.627757 122.821438,204.420074 118.564686,204.420074 C116.352295,204.420074 114.139904,203.94399 112.431602,203.131847 L112.431602,198.371005 C113.915864,199.407188 116.15626,199.939282 118.004587,199.939282 C120.160968,199.939282 121.81326,199.295168 121.81326,197.810906 C121.81326,196.606693 120.833087,195.68253 117.724537,195.654525 C116.520325,195.654525 114.784018,195.822555 113.019706,196.438664 L113.691825,184.928629 Z M136.935933,205.680297 L133.855388,205.680297 L145.309413,182.716238 L148.389957,182.716238 L136.935933,205.680297 Z M139.400368,189.017352 C139.400368,192.377946 136.935933,194.058243 134.079428,194.058243 C131.194918,194.058243 128.730483,192.377946 128.730483,189.017352 C128.730483,185.656758 131.194918,183.976461 134.079428,183.976461 C136.935933,183.976461 139.400368,185.656758 139.400368,189.017352 Z M132.427136,189.017352 C132.427136,189.857501 132.875215,190.697649 134.079428,190.697649 C135.255636,190.697649 135.703715,189.857501 135.703715,189.017352 C135.703715,188.177204 135.255636,187.337055 134.079428,187.337055 C132.875215,187.337055 132.427136,188.177204 132.427136,189.017352 Z M153.402843,199.379183 C153.402843,202.739777 150.938408,204.420074 148.081903,204.420074 C145.197393,204.420074 142.732957,202.739777 142.732957,199.379183 C142.732957,196.018589 145.197393,194.338292 148.081903,194.338292 C150.938408,194.338292 153.402843,196.018589 153.402843,199.379183 Z M146.429611,199.379183 C146.429611,200.219332 146.87769,201.05948 148.081903,201.05948 C149.258111,201.05948 149.70619,200.219332 149.70619,199.379183 C149.70619,198.539035 149.258111,197.698886 148.081903,197.698886 C146.87769,197.698886 146.429611,198.539035 146.429611,199.379183 Z" id="15%" fill="#131F3C"></path>
            <path d="M151.085763,231.937443 L133.351695,231.937443 L133.351695,228.569139 L145.422337,228.59039 C145.422337,228.505385 145.112428,228.168912 144.4926,227.580962 C143.872772,226.993011 143.205139,226.454654 142.489681,225.965876 C141.73172,225.441678 140.920643,225.179584 140.056426,225.179584 C139.383471,225.179584 138.345717,225.431053 136.943136,225.933999 C137.524003,224.928107 137.934854,224.308289 138.175701,224.074525 C138.799071,223.351983 139.836824,222.990717 141.288992,222.990717 C142.811997,222.990717 144.504987,223.83367 146.368012,225.519602 C147.083471,226.192558 147.784751,226.785813 148.471874,227.299384 C149.158998,227.812956 150.030285,228.218494 151.085763,228.516011 L151.085763,231.937443 Z M141.203987,217.104154 L144.306653,218.347345 L143.169717,220.865604 L140.130805,219.590536 L141.203987,217.104154 Z M117.721488,228.622267 C118.564453,228.622267 119.506577,228.2185 120.547888,227.410953 C121.490026,226.709662 122.212557,226.153596 122.715503,225.742739 C125.081474,223.681369 126.661126,222.650699 127.454506,222.650699 C128.212466,222.650699 129.03771,222.856125 129.930262,223.266982 C132.197061,224.690815 133.330443,226.022539 133.330443,227.262195 C133.32336,227.665968 133.256065,228.09807 133.128558,228.558514 L133.989228,228.569139 L133.989228,231.937443 L132.267887,231.937443 L131.736609,231.384914 C131.694106,231.455751 131.651604,231.523046 131.609102,231.5868 C131.474511,231.820563 131.014074,231.937443 130.227778,231.937443 L116.701433,231.937443 C114.902162,231.937443 113.549187,231.668265 112.642467,231.1299 C111.842004,231.668265 110.953007,231.937443 109.97545,231.937443 L109.295414,231.937443 L109.295414,228.569139 C111.370952,228.625809 112.486625,228.526638 112.642467,228.271623 C112.755807,228.144116 112.812476,227.811185 112.812476,227.27282 C112.812476,226.713204 112.7806,226.298811 112.716846,226.029629 L114.714453,224.000146 C114.742788,224.127653 114.76758,224.294119 114.788832,224.499548 C114.810083,224.704976 114.817166,224.949362 114.810083,225.232712 C114.810083,225.480643 114.779977,225.78701 114.719765,226.151823 C114.659554,226.516636 114.59403,226.844254 114.523192,227.134688 C114.452355,227.425121 114.38506,227.660652 114.321307,227.841288 C114.257553,228.021923 114.225677,228.144116 114.225677,228.20787 C114.246928,228.299959 114.399226,228.392046 114.682576,228.484135 C114.965926,228.576223 115.978886,228.622267 117.721488,228.622267 Z M131.545348,228.175993 C131.545348,227.765136 130.985741,227.272823 129.866509,226.69904 C128.803947,226.146507 128.04954,225.870246 127.603264,225.870246 C125.867746,225.870246 124.348305,226.312973 123.044896,227.198441 C122.060255,227.949318 121.567942,228.480591 121.567942,228.792276 C121.660031,228.827695 122.111613,228.864884 122.922702,228.903844 C123.733791,228.942805 125.34709,228.962285 127.762647,228.962285 C130.284461,228.962285 131.545348,228.70019 131.545348,228.175993 Z M106.373384,231.884316 C105.842103,231.863064 105.250619,231.817021 104.598914,231.746183 C101.836253,231.604508 100.451402,231.760348 100.444318,232.213708 L100.539948,232.606854 C100.568283,232.691859 100.614327,232.874263 100.678081,233.154071 C100.741834,233.433879 100.865798,233.920879 101.049975,234.615086 C101.269571,235.60681 101.423641,236.499349 101.512187,237.292728 C101.600734,238.086108 101.637923,238.794472 101.623756,239.417842 C101.623756,240.182886 101.347494,241.04709 100.794962,242.01048 C100.674538,240.735405 100.52224,239.53827 100.338062,238.419038 C100.153885,237.299807 99.937834,236.247886 99.6899029,235.263245 C99.4490556,234.59029 99.2843609,234.020057 99.1958141,233.552529 C99.1072673,233.085002 99.0629946,232.716653 99.0629946,232.447471 C99.4171818,230.499441 99.8811602,229.362516 100.454944,229.036664 C100.780796,228.85957 101.529891,228.763941 102.702251,228.749774 C103.874611,228.735606 104.676833,228.728523 105.108941,228.728523 C105.264784,228.728523 105.381664,228.74269 105.459585,228.771025 L103.143212,225.806492 L100.178679,227.336574 L100.19993,226.900925 C100.207014,226.660078 100.773705,225.810041 101.900021,224.35079 C102.714651,223.529075 103.472601,223.118224 104.173892,223.118224 C104.804345,223.118224 105.367494,223.468864 105.863356,224.170155 C106.288381,224.864362 106.731109,225.615228 107.191552,226.422775 C107.4324,226.982391 107.648451,227.435744 107.839712,227.782847 C108.009722,228.094532 108.399322,228.356627 109.008524,228.569139 L109.932948,228.569139 L109.932948,231.937443 L108.530373,231.937443 L107.999095,231.629302 L107.850337,231.979946 C107.396978,231.937443 106.904665,231.905567 106.373384,231.884316 Z" id="خصم" fill="#131F3C"></path>
        </g>
    </g>
</svg>