<?xml version="1.0" encoding="UTF-8" standalone="no"?>
<svg width="250px" height="365px" viewBox="0 0 250 365" version="1.1" xmlns="http://www.w3.org/2000/svg" xmlns:xlink="http://www.w3.org/1999/xlink">
    <!-- Generator: Sketch 49 (51002) - http://www.bohemiancoding.com/sketch -->
    <title>ar20</title>
    <desc>Created with Sketch.</desc>
    <defs>
        <radialGradient cx="50%" cy="50%" fx="50%" fy="50%" r="50.0301469%" id="radialGradient-1">
            <stop stop-color="#8D00FF" offset="0%"></stop>
            <stop stop-color="#5C00FE" offset="69.8959662%"></stop>
            <stop stop-color="#8900FF" offset="100%"></stop>
        </radialGradient>
    </defs>
    <g id="Monoreto" stroke="none" stroke-width="1" fill="none" fill-rule="evenodd">
        <g id="ar20" transform="translate(0.000000, -5.000000)">
            <g id="1-copy">
                <path d="M124.534208,120.762969 C132.711116,120.763004 140.809466,121.560659 148.829249,123.15593 C156.849031,124.751205 164.636136,127.113446 172.190582,130.242651 C179.745051,133.371851 186.921705,137.207897 193.720557,141.750778 C200.519385,146.293663 206.80975,151.456096 212.591686,157.238075 C218.373622,163.020054 223.535985,169.31049 228.078816,176.109373 C232.621648,182.908265 236.457622,190.08496 239.586764,197.639458 C242.715941,205.193974 245.078181,212.981143 246.673414,221.000966 C248.268642,229.020783 249.066241,237.119169 249.066241,245.296094 C249.066206,253.473078 248.268572,261.571493 246.673269,269.591345 C245.078041,277.611197 242.715802,285.398378 239.586549,292.952916 C236.457372,300.507449 232.621334,307.684162 228.078462,314.483043 C223.535595,321.28193 218.373157,327.572364 212.591151,333.354352 C206.80918,339.13634 200.518781,344.298762 193.719865,348.841645 C186.920978,353.384512 179.744289,357.220539 172.189785,360.349698 C164.635281,363.478892 156.848106,365.841098 148.828289,367.436348 C140.808455,369.031593 132.710069,369.82921 124.533126,369.82921 C116.356143,369.829175 108.257746,369.031523 100.237911,367.436238 C92.2180591,365.840975 84.4308608,363.478736 76.8763221,360.349518 C69.3217834,357.220324 62.1450765,353.384285 55.3461899,348.841413 C48.5472975,344.298529 42.256863,339.136108 36.4748864,333.35412 C30.6929041,327.572155 25.5304769,321.281714 20.9876108,314.482834 C16.4447331,307.683947 12.6087116,300.507257 9.4795232,292.952736 C6.3503348,285.398232 3.98812395,277.611075 2.39288484,269.591257 C0.797622465,261.571423 0,253.473037 0,245.296094 C2.90693572e-05,237.119128 0.797680604,229.020731 2.3929546,221.000867 C3.9882286,212.981015 6.35046852,205.193829 9.47967436,197.639301 C12.6088802,190.084774 16.4449307,182.908062 20.9878143,176.109169 C25.530692,169.310277 30.693125,163.019833 36.4751074,157.237853 C42.2570955,151.45587 48.54753,146.293442 55.346405,141.750569 C62.1452858,137.207697 69.3219985,133.37167 76.8765023,130.242486 C84.4310004,127.113304 92.2181812,124.75109 100.237998,123.155846 C108.257815,121.560598 116.356195,120.762974 124.533126,120.762974 L124.533022,176.802874 C120.03573,176.802903 115.581648,177.241612 111.170768,178.119019 C106.759883,178.996413 102.476984,180.295645 98.3220195,182.016702 C94.1670548,183.737771 90.2199129,185.847601 86.480547,188.346188 C82.741187,190.844775 79.2814858,193.684113 76.1014203,196.864202 C72.9213547,200.044291 70.0820343,203.504033 67.5834823,207.24341 C65.0849246,210.982799 62.9751229,214.929982 61.2540833,219.084958 C59.5330552,223.239934 58.233841,227.522874 57.356458,231.933789 C56.4791041,236.344668 56.0404243,240.798791 56.0404068,245.296112 C56.0404243,249.793432 56.479139,254.247573 57.3565452,258.658487 C58.2339282,263.069408 59.5331599,267.352347 61.2542228,271.507341 C62.9753032,275.66234 65.0851164,279.609523 67.5837091,283.348918 C70.0823017,287.088319 72.9216395,290.548072 76.1017226,293.728155 C79.2818172,296.908238 82.7415591,299.747576 86.4809366,302.246169 C90.2203198,304.744721 94.1674967,306.85454 98.3224788,308.575603 C102.477461,310.29666 106.7604,311.595892 111.171297,312.473281 C115.5822,313.350646 120.0363,313.789332 124.533621,313.789332 C129.030947,313.789314 133.485081,313.350611 137.896019,312.473228 C142.306916,311.595822 146.589873,310.29659 150.744873,308.57551 C154.899872,306.854453 158.847049,304.744634 162.58645,302.246041 C166.325827,299.747448 169.785569,296.908116 172.965664,293.728033 C176.145764,290.54795 178.985102,287.088208 181.483695,283.348813 C183.98227,279.609413 186.092083,275.662236 187.813129,271.507254 C189.534168,267.352272 190.8334,263.069332 191.710789,258.658435 C192.588172,254.24752 193.026857,249.793415 193.02684,245.296112 C193.026823,240.798791 192.588119,236.344651 191.710736,231.933736 C190.83333,227.522816 189.534099,223.239859 187.813018,219.084865 C186.091979,214.929871 183.982159,210.982683 181.483567,207.243294 C178.98498,203.503905 176.145625,200.044169 172.965542,196.86408 C169.785459,193.683985 166.325723,190.844659 162.586322,188.346078 C158.846927,185.847491 154.899744,183.737678 150.744762,182.016626 C146.589786,180.295575 142.306846,178.996349 137.895961,178.11896 C133.485047,177.241577 129.030947,176.802886 124.533621,176.802886 L124.534208,120.762969 Z" id="Fill-8" fill="url(#radialGradient-1)"></path>
                <circle id="Oval" fill="#FFFFFF" cx="125.65842" cy="246.421389" r="87.3982442"></circle>
                <path d="M77.354572,272.478404 L75.0307539,272.478404 L75.0307539,269.335968 C73.0766341,269.124712 71.2281425,268.596571 69.7493492,267.777954 L69.7493492,264.820367 C71.78269,266.114311 74.1593221,266.642452 76.271884,266.642452 C78.6485161,266.642452 80.2593446,266.087904 80.2593446,264.345041 C80.2593446,260.067103 69.8285702,262.338107 69.8285702,255.789165 C69.8285702,252.778764 72.1259813,251.167936 75.0307539,250.824644 L75.0307539,247.655802 L77.354572,247.655802 L77.354572,250.798237 C79.1238426,250.930273 80.8931132,251.405599 82.1342433,252.144996 L82.1342433,255.023361 C80.6290429,254.019894 78.5692951,253.465347 76.5887683,253.491754 C74.3441713,253.491754 72.891785,254.151929 72.891785,255.736351 C72.891785,259.723811 83.3225593,257.584843 83.3225593,264.186598 C83.3225593,267.751547 80.65545,269.177526 77.354572,269.362375 L77.354572,272.478404 Z M85.4879353,260.067103 C85.4879353,254.812105 87.9701955,250.745423 93.5420775,250.745423 C99.1139595,250.745423 101.59622,254.812105 101.59622,260.067103 C101.59622,265.3221 99.1139595,269.388782 93.5420775,269.388782 C87.9701955,269.388782 85.4879353,265.3221 85.4879353,260.067103 Z M98.559412,260.067103 C98.559412,255.894793 96.9749906,253.491754 93.5420775,253.491754 C90.0827574,253.491754 88.524743,255.894793 88.524743,260.067103 C88.524743,264.239413 90.0827574,266.642452 93.5420775,266.642452 C96.9749906,266.642452 98.559412,264.239413 98.559412,260.067103 Z M107.696242,267.593105 C107.696242,268.781421 106.877625,269.335968 105.926972,269.335968 C104.976319,269.335968 104.131294,268.781421 104.131294,267.593105 C104.131294,266.457602 104.976319,265.903055 105.926972,265.903055 C106.877625,265.903055 107.696242,266.457602 107.696242,267.593105 Z M110.231317,260.067103 C110.231317,254.812105 112.713577,250.745423 118.285459,250.745423 C123.857341,250.745423 126.339601,254.812105 126.339601,260.067103 C126.339601,265.3221 123.857341,269.388782 118.285459,269.388782 C112.713577,269.388782 110.231317,265.3221 110.231317,260.067103 Z M123.302793,260.067103 C123.302793,255.894793 121.718372,253.491754 118.285459,253.491754 C114.826139,253.491754 113.268124,255.894793 113.268124,260.067103 C113.268124,264.239413 114.826139,266.642452 118.285459,266.642452 C121.718372,266.642452 123.302793,264.239413 123.302793,260.067103 Z M137.800249,251.088715 L140.889871,251.088715 L140.889871,262.760619 L143.979493,262.760619 L143.979493,265.374915 L140.889871,265.374915 L140.889871,269.045491 L137.985098,269.045491 L137.985098,265.374915 L128.240907,265.374915 L128.240907,262.813433 L137.800249,251.088715 Z M137.985098,262.760619 L137.985098,254.917733 L131.594599,262.760619 L137.985098,262.760619 Z M146.012834,260.067103 C146.012834,254.812105 148.495094,250.745423 154.066976,250.745423 C159.638858,250.745423 162.121118,254.812105 162.121118,260.067103 C162.121118,265.3221 159.638858,269.388782 154.066976,269.388782 C148.495094,269.388782 146.012834,265.3221 146.012834,260.067103 Z M159.08431,260.067103 C159.08431,255.894793 157.499889,253.491754 154.066976,253.491754 C150.607656,253.491754 149.049641,255.894793 149.049641,260.067103 C149.049641,264.239413 150.607656,266.642452 154.066976,266.642452 C157.499889,266.642452 159.08431,264.239413 159.08431,260.067103 Z M164.656192,260.067103 C164.656192,254.812105 167.138453,250.745423 172.710335,250.745423 C178.282217,250.745423 180.764477,254.812105 180.764477,260.067103 C180.764477,265.3221 178.282217,269.388782 172.710335,269.388782 C167.138453,269.388782 164.656192,265.3221 164.656192,260.067103 Z M177.727669,260.067103 C177.727669,255.894793 176.143248,253.491754 172.710335,253.491754 C169.251015,253.491754 167.693,255.894793 167.693,260.067103 C167.693,264.239413 169.251015,266.642452 172.710335,266.642452 C176.143248,266.642452 177.727669,264.239413 177.727669,260.067103 Z M90.6637119,283.088715 L92.8819019,283.088715 L92.8819019,298.325567 L96.0771518,298.325567 L96.0771518,301.045491 L86.306553,301.045491 L86.306553,298.325567 L89.8979083,298.325567 L89.8979083,286.178336 L86.306553,287.525095 L86.306553,284.752357 L90.6637119,283.088715 Z M121.903221,282.560574 L124.623144,282.560574 L124.623144,301.045491 L121.612744,301.045491 L121.612744,288.106049 L115.776791,296.873181 L113.981114,296.873181 L108.145162,288.079642 L108.145162,301.045491 L105.134761,301.045491 L105.134761,282.560574 L107.854684,282.560574 L114.878953,293.149791 L121.903221,282.560574 Z M132.122739,301.045491 L129.112338,301.045491 L129.112338,282.560574 L131.93789,282.560574 L141.893338,296.08097 C141.866931,295.447202 141.866931,294.734212 141.866931,294.04763 L141.866931,282.560574 L144.877332,282.560574 L144.877332,301.045491 L142.05178,301.045491 L132.096332,287.525095 C132.122739,288.158863 132.122739,288.871853 132.122739,289.532028 L132.122739,301.045491 Z M152.376926,301.045491 L149.366526,301.045491 L149.366526,282.560574 L156.760492,282.560574 C160.219812,282.560574 163.863982,283.933739 163.863982,288.343712 C163.863982,291.64459 161.804234,293.229012 159.374788,293.809966 L165.289961,301.045491 L161.672199,301.045491 L156.126724,294.126851 L152.376926,294.126851 L152.376926,301.045491 Z M152.376926,285.306905 L152.376926,291.459741 L156.892527,291.459741 C158.873054,291.459741 160.800767,290.746752 160.800767,288.396526 C160.800767,286.019894 158.873054,285.306905 156.892527,285.306905 L152.376926,285.306905 Z" id="$0.0400-1-MNR" fill="#131F3C"></path>
                <path d="M54.5113727,7.1452514 L57.3733839,7.1452514 L57.3733839,21.6128492 L60.36668,21.6128492 L60.36668,25 L50.1789705,25 L50.1789705,21.6128492 L53.5398643,21.6128492 L53.5398643,11.0837989 L50.1789705,12.3441341 L50.1789705,8.79944134 L54.5113727,7.1452514 Z M63.2812051,7.11899441 L74.6242219,7.11899441 L74.6242219,10.5061453 L66.8258978,10.4798883 L66.589585,13.972067 C67.3510375,13.8145251 68.165004,13.7094972 68.9001995,13.7094972 C72.4711492,13.7094972 75.4381883,15.3111732 75.4381883,19.4072626 C75.4381883,23.5558659 71.8147247,25.3675978 67.8761772,25.3675978 C65.8018755,25.3675978 63.7013168,24.9212291 62.1258978,24.1597765 L62.1258978,20.5100559 C63.5700319,21.4290503 65.6443336,21.927933 67.4298085,21.927933 C69.76668,21.927933 71.4996409,21.0877095 71.4996409,19.3547486 C71.4996409,17.5955307 70.0029928,16.7290503 67.1409816,16.7290503 C65.8543895,16.7290503 64.2001995,16.9391061 62.6510375,17.4905028 L63.2812051,7.11899441 Z M79.6130487,26.549162 L77.0136073,26.549162 L85.0482442,5.07094972 L87.6476856,5.07094972 L79.6130487,26.549162 Z M89.3806464,16.0726257 C89.3806464,10.926257 91.8225459,6.77765363 97.5203113,6.77765363 C103.218077,6.77765363 105.659976,10.926257 105.659976,16.0726257 C105.659976,21.2189944 103.218077,25.3675978 97.5203113,25.3675978 C91.8225459,25.3675978 89.3806464,21.2189944 89.3806464,16.0726257 Z M101.721429,16.0726257 C101.721429,12.2653631 100.408579,10.2435754 97.5203113,10.2435754 C94.6320431,10.2435754 93.3191939,12.2653631 93.3191939,16.0726257 C93.3191939,19.8798883 94.6320431,21.901676 97.5203113,21.901676 C100.408579,21.901676 101.721429,19.8798883 101.721429,16.0726257 Z M108.521987,11.7139665 C108.521987,9.32458101 110.517518,6.77765363 115.401317,6.77765363 C119.943775,6.77765363 122.306903,9.32458101 122.33316,11.8189944 C122.359417,13.5519553 121.519194,14.8648045 120.07506,15.9413408 C121.702993,16.7553073 122.989585,18.0156425 122.989585,20.1687151 C122.989585,22.7944134 120.836512,25.3675978 115.453831,25.3675978 C110.123663,25.3675978 107.865563,22.7681564 107.865563,20.0374302 C107.865563,18.2519553 108.968356,16.5452514 110.648803,15.547486 C109.414725,14.7072626 108.521987,13.5256983 108.521987,11.7139665 Z M115.847686,17.6480447 C115.059976,17.3592179 114.114725,17.096648 113.19573,16.7553073 C112.224222,17.5692737 111.777853,18.6458101 111.80411,19.5648045 C111.830367,21.0877095 113.038188,22.2692737 115.742658,22.2692737 C117.63316,22.2692737 119.077294,21.4815642 119.077294,20.273743 C119.077294,18.750838 117.606903,18.2519553 115.847686,17.6480447 Z M118.552155,12.1078212 C118.552155,10.873743 117.449362,9.87597765 115.243775,9.87597765 C113.353272,9.87597765 112.276736,10.7424581 112.276736,11.7402235 C112.276736,13.3156425 113.878412,13.8145251 115.63763,14.3921788 C116.162769,14.5234637 116.714166,14.7072626 117.29182,14.8648045 C118.132043,14.024581 118.578412,12.9743017 118.552155,12.1078212 Z M127.269473,26.549162 L124.670032,26.549162 L132.704669,5.07094972 L135.30411,5.07094972 L127.269473,26.549162 Z M137.562211,8.66815642 C139.4002,7.35530726 141.527015,6.77765363 143.706345,6.77765363 C147.303551,6.77765363 150.218077,8.40558659 150.218077,12.0553073 C150.218077,15.0748603 147.723663,16.8603352 145.386792,18.2519553 C143.259976,19.5122905 141.448244,20.4837989 141.421987,21.6391061 L150.349362,21.6128492 L150.349362,25 L136.9583,25 L136.9583,23.2407821 C136.9583,18.9346369 140.214166,17.2541899 142.839864,15.7050279 C144.70411,14.6284916 146.305786,13.9195531 146.305786,12.2128492 C146.305786,10.9 145.150479,10.2173184 143.338747,10.2173184 C141.553272,10.2173184 139.452713,10.9 137.562211,12.3441341 L137.562211,8.66815642 Z M152.686233,16.0726257 C152.686233,10.926257 155.128132,6.77765363 160.825898,6.77765363 C166.523663,6.77765363 168.965563,10.926257 168.965563,16.0726257 C168.965563,21.2189944 166.523663,25.3675978 160.825898,25.3675978 C155.128132,25.3675978 152.686233,21.2189944 152.686233,16.0726257 Z M165.027015,16.0726257 C165.027015,12.2653631 163.714166,10.2435754 160.825898,10.2435754 C157.93763,10.2435754 156.624781,12.2653631 156.624781,16.0726257 C156.624781,19.8798883 157.93763,21.901676 160.825898,21.901676 C163.714166,21.901676 165.027015,19.8798883 165.027015,16.0726257 Z M175.766121,7.1452514 L178.628132,7.1452514 L178.628132,21.6128492 L181.621429,21.6128492 L181.621429,25 L171.433719,25 L171.433719,21.6128492 L174.794613,21.6128492 L174.794613,11.0837989 L171.433719,12.3441341 L171.433719,8.79944134 L175.766121,7.1452514 Z M183.932043,11.7139665 C183.932043,9.32458101 185.927574,6.77765363 190.811373,6.77765363 C195.353831,6.77765363 197.716959,9.32458101 197.743216,11.8189944 C197.769473,13.5519553 196.92925,14.8648045 195.485116,15.9413408 C197.113049,16.7553073 198.399641,18.0156425 198.399641,20.1687151 C198.399641,22.7944134 196.246568,25.3675978 190.863887,25.3675978 C185.533719,25.3675978 183.275619,22.7681564 183.275619,20.0374302 C183.275619,18.2519553 184.378412,16.5452514 186.058859,15.547486 C184.824781,14.7072626 183.932043,13.5256983 183.932043,11.7139665 Z M191.257741,17.6480447 C190.470032,17.3592179 189.524781,17.096648 188.605786,16.7553073 C187.634278,17.5692737 187.187909,18.6458101 187.214166,19.5648045 C187.240423,21.0877095 188.448244,22.2692737 191.152713,22.2692737 C193.043216,22.2692737 194.48735,21.4815642 194.48735,20.273743 C194.48735,18.750838 193.016959,18.2519553 191.257741,17.6480447 Z M193.962211,12.1078212 C193.962211,10.873743 192.859417,9.87597765 190.653831,9.87597765 C188.763328,9.87597765 187.686792,10.7424581 187.686792,11.7402235 C187.686792,13.3156425 189.288468,13.8145251 191.047686,14.3921788 C191.572825,14.5234637 192.124222,14.7072626 192.701875,14.8648045 C193.542099,14.024581 193.988468,12.9743017 193.962211,12.1078212 Z M132.875339,51.1424581 L115.440702,51.1424581 L115.440702,48.0703911 L132.875339,48.0703911 L132.875339,51.1424581 Z M54.5113727,69.1452514 L57.3733839,69.1452514 L57.3733839,83.6128492 L60.36668,83.6128492 L60.36668,87 L50.1789705,87 L50.1789705,83.6128492 L53.5398643,83.6128492 L53.5398643,73.0837989 L50.1789705,74.3441341 L50.1789705,70.7994413 L54.5113727,69.1452514 Z M63.2812051,69.1189944 L74.6242219,69.1189944 L74.6242219,72.5061453 L66.8258978,72.4798883 L66.589585,75.972067 C67.3510375,75.8145251 68.165004,75.7094972 68.9001995,75.7094972 C72.4711492,75.7094972 75.4381883,77.3111732 75.4381883,81.4072626 C75.4381883,85.5558659 71.8147247,87.3675978 67.8761772,87.3675978 C65.8018755,87.3675978 63.7013168,86.9212291 62.1258978,86.1597765 L62.1258978,82.5100559 C63.5700319,83.4290503 65.6443336,83.927933 67.4298085,83.927933 C69.76668,83.927933 71.4996409,83.0877095 71.4996409,81.3547486 C71.4996409,79.5955307 70.0029928,78.7290503 67.1409816,78.7290503 C65.8543895,78.7290503 64.2001995,78.9391061 62.6510375,79.4905028 L63.2812051,69.1189944 Z M79.6130487,88.549162 L77.0136073,88.549162 L85.0482442,67.0709497 L87.6476856,67.0709497 L79.6130487,88.549162 Z M89.3806464,78.0726257 C89.3806464,72.926257 91.8225459,68.7776536 97.5203113,68.7776536 C103.218077,68.7776536 105.659976,72.926257 105.659976,78.0726257 C105.659976,83.2189944 103.218077,87.3675978 97.5203113,87.3675978 C91.8225459,87.3675978 89.3806464,83.2189944 89.3806464,78.0726257 Z M101.721429,78.0726257 C101.721429,74.2653631 100.408579,72.2435754 97.5203113,72.2435754 C94.6320431,72.2435754 93.3191939,74.2653631 93.3191939,78.0726257 C93.3191939,81.8798883 94.6320431,83.901676 97.5203113,83.901676 C100.408579,83.901676 101.721429,81.8798883 101.721429,78.0726257 Z M108.521987,73.7139665 C108.521987,71.324581 110.517518,68.7776536 115.401317,68.7776536 C119.943775,68.7776536 122.306903,71.324581 122.33316,73.8189944 C122.359417,75.5519553 121.519194,76.8648045 120.07506,77.9413408 C121.702993,78.7553073 122.989585,80.0156425 122.989585,82.1687151 C122.989585,84.7944134 120.836512,87.3675978 115.453831,87.3675978 C110.123663,87.3675978 107.865563,84.7681564 107.865563,82.0374302 C107.865563,80.2519553 108.968356,78.5452514 110.648803,77.547486 C109.414725,76.7072626 108.521987,75.5256983 108.521987,73.7139665 Z M115.847686,79.6480447 C115.059976,79.3592179 114.114725,79.096648 113.19573,78.7553073 C112.224222,79.5692737 111.777853,80.6458101 111.80411,81.5648045 C111.830367,83.0877095 113.038188,84.2692737 115.742658,84.2692737 C117.63316,84.2692737 119.077294,83.4815642 119.077294,82.273743 C119.077294,80.750838 117.606903,80.2519553 115.847686,79.6480447 Z M118.552155,74.1078212 C118.552155,72.873743 117.449362,71.8759777 115.243775,71.8759777 C113.353272,71.8759777 112.276736,72.7424581 112.276736,73.7402235 C112.276736,75.3156425 113.878412,75.8145251 115.63763,76.3921788 C116.162769,76.5234637 116.714166,76.7072626 117.29182,76.8648045 C118.132043,76.024581 118.578412,74.9743017 118.552155,74.1078212 Z M127.269473,88.549162 L124.670032,88.549162 L132.704669,67.0709497 L135.30411,67.0709497 L127.269473,88.549162 Z M137.562211,70.6681564 C139.4002,69.3553073 141.527015,68.7776536 143.706345,68.7776536 C147.303551,68.7776536 150.218077,70.4055866 150.218077,74.0553073 C150.218077,77.0748603 147.723663,78.8603352 145.386792,80.2519553 C143.259976,81.5122905 141.448244,82.4837989 141.421987,83.6391061 L150.349362,83.6128492 L150.349362,87 L136.9583,87 L136.9583,85.2407821 C136.9583,80.9346369 140.214166,79.2541899 142.839864,77.7050279 C144.70411,76.6284916 146.305786,75.9195531 146.305786,74.2128492 C146.305786,72.9 145.150479,72.2173184 143.338747,72.2173184 C141.553272,72.2173184 139.452713,72.9 137.562211,74.3441341 L137.562211,70.6681564 Z M152.686233,78.0726257 C152.686233,72.926257 155.128132,68.7776536 160.825898,68.7776536 C166.523663,68.7776536 168.965563,72.926257 168.965563,78.0726257 C168.965563,83.2189944 166.523663,87.3675978 160.825898,87.3675978 C155.128132,87.3675978 152.686233,83.2189944 152.686233,78.0726257 Z M165.027015,78.0726257 C165.027015,74.2653631 163.714166,72.2435754 160.825898,72.2435754 C157.93763,72.2435754 156.624781,74.2653631 156.624781,78.0726257 C156.624781,81.8798883 157.93763,83.901676 160.825898,83.901676 C163.714166,83.901676 165.027015,81.8798883 165.027015,78.0726257 Z M175.766121,69.1452514 L178.628132,69.1452514 L178.628132,83.6128492 L181.621429,83.6128492 L181.621429,87 L171.433719,87 L171.433719,83.6128492 L174.794613,83.6128492 L174.794613,73.0837989 L171.433719,74.3441341 L171.433719,70.7994413 L175.766121,69.1452514 Z M183.932043,73.7139665 C183.932043,71.324581 185.927574,68.7776536 190.811373,68.7776536 C195.353831,68.7776536 197.716959,71.324581 197.743216,73.8189944 C197.769473,75.5519553 196.92925,76.8648045 195.485116,77.9413408 C197.113049,78.7553073 198.399641,80.0156425 198.399641,82.1687151 C198.399641,84.7944134 196.246568,87.3675978 190.863887,87.3675978 C185.533719,87.3675978 183.275619,84.7681564 183.275619,82.0374302 C183.275619,80.2519553 184.378412,78.5452514 186.058859,77.547486 C184.824781,76.7072626 183.932043,75.5256983 183.932043,73.7139665 Z M191.257741,79.6480447 C190.470032,79.3592179 189.524781,79.096648 188.605786,78.7553073 C187.634278,79.5692737 187.187909,80.6458101 187.214166,81.5648045 C187.240423,83.0877095 188.448244,84.2692737 191.152713,84.2692737 C193.043216,84.2692737 194.48735,83.4815642 194.48735,82.273743 C194.48735,80.750838 193.016959,80.2519553 191.257741,79.6480447 Z M193.962211,74.1078212 C193.962211,72.873743 192.859417,71.8759777 190.653831,71.8759777 C188.763328,71.8759777 187.686792,72.7424581 187.686792,73.7402235 C187.686792,75.3156425 189.288468,75.8145251 191.047686,76.3921788 C191.572825,76.5234637 192.124222,76.7072626 192.701875,76.8648045 C193.542099,76.024581 193.988468,74.9743017 193.962211,74.1078212 Z" id="15/08/2018-—-15/08/2" fill="#131F3C"></path>
            </g>
            <path d="M95.044206,187.636931 C97.0605623,186.208679 99.4129781,185.53656 101.849409,185.53656 C105.658082,185.53656 109.046681,187.216857 109.046681,191.445604 C109.046681,194.666174 106.414215,196.57051 104.00579,198.026768 C101.961428,199.258985 100.365146,200.155144 100.365146,200.659233 L109.186705,200.659233 L109.186705,205 L94.4280971,205 L94.4280971,202.731599 C94.4280971,198.138787 97.9287158,196.346471 100.645196,194.750188 C102.409508,193.714005 103.865765,193.181911 103.865765,191.725654 C103.865765,190.577451 102.829582,190.017352 101.373325,190.017352 C99.468988,190.017352 97.1165722,190.773486 95.044206,192.397773 L95.044206,187.636931 Z M111.483111,195.478317 C111.483111,190.045357 114.087572,185.53656 120.30467,185.53656 C126.521769,185.53656 129.126229,190.045357 129.126229,195.478317 C129.126229,200.911277 126.521769,205.420074 120.30467,205.420074 C114.087572,205.420074 111.483111,200.911277 111.483111,195.478317 Z M123.945314,195.478317 C123.945314,191.809669 122.797111,190.017352 120.30467,190.017352 C117.81223,190.017352 116.664027,191.809669 116.664027,195.478317 C116.664027,199.146966 117.81223,200.939282 120.30467,200.939282 C122.797111,200.939282 123.945314,199.146966 123.945314,195.478317 Z M139.180006,206.680297 L136.099462,206.680297 L147.553486,183.716238 L150.634031,183.716238 L139.180006,206.680297 Z M141.644442,190.017352 C141.644442,193.377946 139.180006,195.058243 136.323502,195.058243 C133.438992,195.058243 130.974556,193.377946 130.974556,190.017352 C130.974556,186.656758 133.438992,184.976461 136.323502,184.976461 C139.180006,184.976461 141.644442,186.656758 141.644442,190.017352 Z M134.671209,190.017352 C134.671209,190.857501 135.119289,191.697649 136.323502,191.697649 C137.499709,191.697649 137.947789,190.857501 137.947789,190.017352 C137.947789,189.177204 137.499709,188.337055 136.323502,188.337055 C135.119289,188.337055 134.671209,189.177204 134.671209,190.017352 Z M155.646917,200.379183 C155.646917,203.739777 153.182481,205.420074 150.325976,205.420074 C147.441466,205.420074 144.977031,203.739777 144.977031,200.379183 C144.977031,197.018589 147.441466,195.338292 150.325976,195.338292 C153.182481,195.338292 155.646917,197.018589 155.646917,200.379183 Z M148.673684,200.379183 C148.673684,201.219332 149.121763,202.05948 150.325976,202.05948 C151.502184,202.05948 151.950263,201.219332 151.950263,200.379183 C151.950263,199.539035 151.502184,198.698886 150.325976,198.698886 C149.121763,198.698886 148.673684,199.539035 148.673684,200.379183 Z" id="20%" fill="#131F3C"></path>
            <path d="M150.100927,232.937443 L132.366858,232.937443 L132.366858,229.569139 L144.437501,229.59039 C144.437501,229.505385 144.127591,229.168912 143.507764,228.580962 C142.887936,227.993011 142.220303,227.454654 141.504844,226.965876 C140.746884,226.441678 139.935807,226.179584 139.07159,226.179584 C138.398634,226.179584 137.360881,226.431053 135.958299,226.933999 C136.539166,225.928107 136.950018,225.308289 137.190865,225.074525 C137.814234,224.351983 138.851988,223.990717 140.304156,223.990717 C141.827161,223.990717 143.520151,224.83367 145.383176,226.519602 C146.098634,227.192558 146.799915,227.785813 147.487038,228.299384 C148.174161,228.812956 149.045449,229.218494 150.100927,229.516011 L150.100927,232.937443 Z M140.219151,218.104154 L143.321816,219.347345 L142.184881,221.865604 L139.145969,220.590536 L140.219151,218.104154 Z M116.736651,229.622267 C117.579617,229.622267 118.521741,229.2185 119.563052,228.410953 C120.50519,227.709662 121.227721,227.153596 121.730667,226.742739 C124.096638,224.681369 125.67629,223.650699 126.469669,223.650699 C127.22763,223.650699 128.052874,223.856125 128.945426,224.266982 C131.212225,225.690815 132.345607,227.022539 132.345607,228.262195 C132.338523,228.665968 132.271229,229.09807 132.143721,229.558514 L133.004392,229.569139 L133.004392,232.937443 L131.28305,232.937443 L130.751772,232.384914 C130.70927,232.455751 130.666768,232.523046 130.624265,232.5868 C130.489674,232.820563 130.029238,232.937443 129.242942,232.937443 L115.716597,232.937443 C113.917326,232.937443 112.56435,232.668265 111.657631,232.1299 C110.857168,232.668265 109.968171,232.937443 108.990614,232.937443 L108.310578,232.937443 L108.310578,229.569139 C110.386115,229.625809 111.501788,229.526638 111.657631,229.271623 C111.770971,229.144116 111.82764,228.811185 111.82764,228.27282 C111.82764,227.713204 111.795764,227.298811 111.73201,227.029629 L113.729616,225.000146 C113.757951,225.127653 113.782744,225.294119 113.803995,225.499548 C113.825246,225.704976 113.83233,225.949362 113.825246,226.232712 C113.825246,226.480643 113.795141,226.78701 113.734929,227.151823 C113.674717,227.516636 113.609193,227.844254 113.538356,228.134688 C113.467519,228.425121 113.400224,228.660652 113.33647,228.841288 C113.272717,229.021923 113.24084,229.144116 113.24084,229.20787 C113.262091,229.299959 113.41439,229.392046 113.697739,229.484135 C113.981089,229.576223 114.99405,229.622267 116.736651,229.622267 Z M130.560512,229.175993 C130.560512,228.765136 130.000904,228.272823 128.881673,227.69904 C127.819111,227.146507 127.064703,226.870246 126.618427,226.870246 C124.882909,226.870246 123.363469,227.312973 122.06006,228.198441 C121.075419,228.949318 120.583106,229.480591 120.583106,229.792276 C120.675195,229.827695 121.126777,229.864884 121.937866,229.903844 C122.748954,229.942805 124.362253,229.962285 126.777811,229.962285 C129.299624,229.962285 130.560512,229.70019 130.560512,229.175993 Z M105.388547,232.884316 C104.857266,232.863064 104.265782,232.817021 103.614078,232.746183 C100.851417,232.604508 99.4665654,232.760348 99.4594817,233.213708 L99.5551118,233.606854 C99.5834468,233.691859 99.6294904,233.874263 99.6932441,234.154071 C99.7569978,234.433879 99.8809615,234.920879 100.065139,235.615086 C100.284735,236.60681 100.438804,237.499349 100.527351,238.292728 C100.615898,239.086108 100.653087,239.794472 100.638919,240.417842 C100.638919,241.182886 100.362658,242.04709 99.8101253,243.01048 C99.6897017,241.735405 99.5374034,240.53827 99.353226,239.419038 C99.1690486,238.299807 98.9529976,237.247886 98.7050665,236.263245 C98.4642192,235.59029 98.2995246,235.020057 98.2109777,234.552529 C98.1224309,234.085002 98.0781582,233.716653 98.0781582,233.447471 C98.4323455,231.499441 98.8963238,230.362516 99.4701072,230.036664 C99.7959596,229.85957 100.545054,229.763941 101.717414,229.749774 C102.889774,229.735606 103.691996,229.728523 104.124105,229.728523 C104.279947,229.728523 104.396827,229.74269 104.474749,229.771025 L102.158375,226.806492 L99.1938425,228.336574 L99.2150937,227.900925 C99.2221774,227.660078 99.7888686,226.810041 100.915184,225.35079 C101.729815,224.529075 102.487764,224.118224 103.189055,224.118224 C103.819509,224.118224 104.382658,224.468864 104.87852,225.170155 C105.303545,225.864362 105.746272,226.615228 106.206716,227.422775 C106.447563,227.982391 106.663614,228.435744 106.854875,228.782847 C107.024885,229.094532 107.414485,229.356627 108.023687,229.569139 L108.948112,229.569139 L108.948112,232.937443 L107.545537,232.937443 L107.014259,232.629302 L106.865501,232.979946 C106.412141,232.937443 105.919828,232.905567 105.388547,232.884316 Z" id="خصم" fill="#131F3C"></path>
        </g>
    </g>
</svg>