<?xml version="1.0" encoding="UTF-8" standalone="no"?>
<svg width="250px" height="365px" viewBox="0 0 250 365" version="1.1" xmlns="http://www.w3.org/2000/svg" xmlns:xlink="http://www.w3.org/1999/xlink">
    <!-- Generator: Sketch 49 (51002) - http://www.bohemiancoding.com/sketch -->
    <title>ar50</title>
    <desc>Created with Sketch.</desc>
    <defs>
        <radialGradient cx="50%" cy="50%" fx="50%" fy="50%" r="50.0301469%" id="radialGradient-1">
            <stop stop-color="#8800FF" offset="0%"></stop>
            <stop stop-color="#8600FB" offset="71.050849%"></stop>
            <stop stop-color="#A700FE" offset="100%"></stop>
        </radialGradient>
        <path d="M124.534208,115.762969 C132.711116,115.763004 140.809466,116.560659 148.829249,118.15593 C156.849031,119.751205 164.636136,122.113446 172.190582,125.242651 C179.745051,128.371851 186.921705,132.207897 193.720557,136.750778 C200.519385,141.293663 206.80975,146.456096 212.591686,152.238075 C218.373622,158.020054 223.535985,164.31049 228.078816,171.109373 C232.621648,177.908265 236.457622,185.08496 239.586764,192.639458 C242.715941,200.193974 245.078181,207.981143 246.673414,216.000966 C248.268642,224.020783 249.066241,232.119169 249.066241,240.296094 C249.066206,248.473078 248.268572,256.571493 246.673269,264.591345 C245.078041,272.611197 242.715802,280.398378 239.586549,287.952916 C236.457372,295.507449 232.621334,302.684162 228.078462,309.483043 C223.535595,316.28193 218.373157,322.572364 212.591151,328.354352 C206.80918,334.13634 200.518781,339.298762 193.719865,343.841645 C186.920978,348.384512 179.744289,352.220539 172.189785,355.349698 C164.635281,358.478892 156.848106,360.841098 148.828289,362.436348 C140.808455,364.031593 132.710069,364.82921 124.533126,364.82921 C116.356143,364.829175 108.257746,364.031523 100.237911,362.436238 C92.2180591,360.840975 84.4308608,358.478736 76.8763221,355.349518 C69.3217834,352.220324 62.1450765,348.384285 55.3461899,343.841413 C48.5472975,339.298529 42.256863,334.136108 36.4748864,328.35412 C30.6929041,322.572155 25.5304769,316.281714 20.9876108,309.482834 C16.4447331,302.683947 12.6087116,295.507257 9.4795232,287.952736 C6.3503348,280.398232 3.98812395,272.611075 2.39288484,264.591257 C0.797622465,256.571423 0,248.473037 0,240.296094 C2.90693572e-05,232.119128 0.797680604,224.020731 2.3929546,216.000867 C3.9882286,207.981015 6.35046852,200.193829 9.47967436,192.639301 C12.6088802,185.084774 16.4449307,177.908062 20.9878143,171.109169 C25.530692,164.310277 30.693125,158.019833 36.4751074,152.237853 C42.2570955,146.45587 48.54753,141.293442 55.346405,136.750569 C62.1452858,132.207697 69.3219985,128.37167 76.8765023,125.242486 C84.4310004,122.113304 92.2181812,119.75109 100.237998,118.155846 C108.257815,116.560598 116.356195,115.762974 124.533126,115.762974 L124.533022,171.802874 C120.03573,171.802903 115.581648,172.241612 111.170768,173.119019 C106.759883,173.996413 102.476984,175.295645 98.3220195,177.016702 C94.1670548,178.737771 90.2199129,180.847601 86.480547,183.346188 C82.741187,185.844775 79.2814858,188.684113 76.1014203,191.864202 C72.9213547,195.044291 70.0820343,198.504033 67.5834823,202.24341 C65.0849246,205.982799 62.9751229,209.929982 61.2540833,214.084958 C59.5330552,218.239934 58.233841,222.522874 57.356458,226.933789 C56.4791041,231.344668 56.0404243,235.798791 56.0404068,240.296112 C56.0404243,244.793432 56.479139,249.247573 57.3565452,253.658487 C58.2339282,258.069408 59.5331599,262.352347 61.2542228,266.507341 C62.9753032,270.66234 65.0851164,274.609523 67.5837091,278.348918 C70.0823017,282.088319 72.9216395,285.548072 76.1017226,288.728155 C79.2818172,291.908238 82.7415591,294.747576 86.4809366,297.246169 C90.2203198,299.744721 94.1674967,301.85454 98.3224788,303.575603 C102.477461,305.29666 106.7604,306.595892 111.171297,307.473281 C115.5822,308.350646 120.0363,308.789332 124.533621,308.789332 C129.030947,308.789314 133.485081,308.350611 137.896019,307.473228 C142.306916,306.595822 146.589873,305.29659 150.744873,303.57551 C154.899872,301.854453 158.847049,299.744634 162.58645,297.246041 C166.325827,294.747448 169.785569,291.908116 172.965664,288.728033 C176.145764,285.54795 178.985102,282.088208 181.483695,278.348813 C183.98227,274.609413 186.092083,270.662236 187.813129,266.507254 C189.534168,262.352272 190.8334,258.069332 191.710789,253.658435 C192.588172,249.24752 193.026857,244.793415 193.02684,240.296112 C193.026823,235.798791 192.588119,231.344651 191.710736,226.933736 C190.83333,222.522816 189.534099,218.239859 187.813018,214.084865 C186.091979,209.929871 183.982159,205.982683 181.483567,202.243294 C178.98498,198.503905 176.145625,195.044169 172.965542,191.86408 C169.785459,188.683985 166.325723,185.844659 162.586322,183.346078 C158.846927,180.847491 154.899744,178.737678 150.744762,177.016626 C146.589786,175.295575 142.306846,173.996349 137.895961,173.11896 C133.485047,172.241577 129.030947,171.802886 124.533621,171.802886 L124.534208,115.762969 Z" id="path-2"></path>
        <filter x="0.0%" y="0.0%" width="100.0%" height="100.0%" filterUnits="objectBoundingBox" id="filter-3">
            <feOffset dx="0" dy="0" in="SourceAlpha" result="shadowOffsetOuter1"></feOffset>
            <feColorMatrix values="0 0 0 0 0.65382076   0 0 0 0 0.258187342   0 0 0 0 1  0 0 0 1 0" type="matrix" in="shadowOffsetOuter1"></feColorMatrix>
        </filter>
    </defs>
    <g id="Monoreto" stroke="none" stroke-width="1" fill="none" fill-rule="evenodd">
        <g id="ar50">
            <g id="Fill-8">
                <use fill="black" fill-opacity="1" filter="url(#filter-3)" xlink:href="#path-2"></use>
                <use fill="url(#radialGradient-1)" fill-rule="evenodd" xlink:href="#path-2"></use>
            </g>
            <circle id="Oval" fill="#FFFFFF" cx="125.65842" cy="241.421389" r="87.3982442"></circle>
            <path d="M79.8104252,267.478404 L77.4866071,267.478404 L77.4866071,264.335968 C75.5324873,264.124712 73.6839957,263.596571 72.2052024,262.777954 L72.2052024,259.820367 C74.2385432,261.114311 76.6151753,261.642452 78.7277372,261.642452 C81.1043694,261.642452 82.7151978,261.087904 82.7151978,259.345041 C82.7151978,255.067103 72.2844234,257.338107 72.2844234,250.789165 C72.2844234,247.778764 74.5818345,246.167936 77.4866071,245.824644 L77.4866071,242.655802 L79.8104252,242.655802 L79.8104252,245.798237 C81.5796958,245.930273 83.3489664,246.405599 84.5900965,247.144996 L84.5900965,250.023361 C83.0848961,249.019894 81.0251483,248.465347 79.0446215,248.491754 C76.8000245,248.491754 75.3476382,249.151929 75.3476382,250.736351 C75.3476382,254.723811 85.7784126,252.584843 85.7784126,259.186598 C85.7784126,262.751547 83.1113032,264.177526 79.8104252,264.362375 L79.8104252,267.478404 Z M87.9437885,255.067103 C87.9437885,249.812105 90.4260487,245.745423 95.9979307,245.745423 C101.569813,245.745423 104.052073,249.812105 104.052073,255.067103 C104.052073,260.3221 101.569813,264.388782 95.9979307,264.388782 C90.4260487,264.388782 87.9437885,260.3221 87.9437885,255.067103 Z M101.015265,255.067103 C101.015265,250.894793 99.4308438,248.491754 95.9979307,248.491754 C92.5386106,248.491754 90.9805962,250.894793 90.9805962,255.067103 C90.9805962,259.239413 92.5386106,261.642452 95.9979307,261.642452 C99.4308438,261.642452 101.015265,259.239413 101.015265,255.067103 Z M110.152095,262.593105 C110.152095,263.781421 109.333478,264.335968 108.382825,264.335968 C107.432172,264.335968 106.587147,263.781421 106.587147,262.593105 C106.587147,261.457602 107.432172,260.903055 108.382825,260.903055 C109.333478,260.903055 110.152095,261.457602 110.152095,262.593105 Z M112.68717,255.067103 C112.68717,249.812105 115.16943,245.745423 120.741312,245.745423 C126.313194,245.745423 128.795454,249.812105 128.795454,255.067103 C128.795454,260.3221 126.313194,264.388782 120.741312,264.388782 C115.16943,264.388782 112.68717,260.3221 112.68717,255.067103 Z M125.758646,255.067103 C125.758646,250.894793 124.174225,248.491754 120.741312,248.491754 C117.281992,248.491754 115.723977,250.894793 115.723977,255.067103 C115.723977,259.239413 117.281992,261.642452 120.741312,261.642452 C124.174225,261.642452 125.758646,259.239413 125.758646,255.067103 Z M131.805855,247.567508 C133.654347,246.299971 135.687687,245.745423 137.773842,245.745423 C141.418012,245.745423 144.085121,247.435473 144.085121,250.789165 C144.085121,253.825973 141.550047,255.62165 139.1206,257.074037 C136.796782,258.447202 134.604999,259.556297 134.578592,261.351974 L144.217156,261.325567 L144.217156,264.045491 L131.198493,264.045491 L131.198493,262.672326 C131.198493,258.28876 134.446557,256.625117 137.166481,255.014289 C139.252636,253.799566 141.07472,252.87532 141.07472,250.841979 C141.07472,249.283965 139.727962,248.465347 137.509772,248.465347 C135.687687,248.465347 133.707161,249.099115 131.805855,250.472281 L131.805855,247.567508 Z M147.940546,246.088715 L159.005089,246.088715 L159.005089,248.782231 L150.713284,248.782231 L150.449214,253.112983 C151.320645,252.901727 152.244891,252.796099 153.169137,252.796099 C156.628457,252.796099 159.850114,254.301299 159.850114,258.526423 C159.850114,262.408255 156.549236,264.388782 152.588183,264.388782 C150.502028,264.388782 148.415873,263.939863 146.831451,263.174059 L146.831451,260.348508 C148.336652,261.219939 150.369993,261.668859 152.244891,261.668859 C154.912001,261.668859 156.813306,260.612578 156.813306,258.500016 C156.813306,256.123384 154.779966,255.278359 151.928007,255.278359 C150.475621,255.278359 148.811978,255.568836 147.359592,256.07057 L147.940546,246.088715 Z M162.200339,255.067103 C162.200339,249.812105 164.682599,245.745423 170.254481,245.745423 C175.826363,245.745423 178.308624,249.812105 178.308624,255.067103 C178.308624,260.3221 175.826363,264.388782 170.254481,264.388782 C164.682599,264.388782 162.200339,260.3221 162.200339,255.067103 Z M175.271816,255.067103 C175.271816,250.894793 173.687395,248.491754 170.254481,248.491754 C166.795161,248.491754 165.237147,250.894793 165.237147,255.067103 C165.237147,259.239413 166.795161,261.642452 170.254481,261.642452 C173.687395,261.642452 175.271816,259.239413 175.271816,255.067103 Z M90.6637119,278.088715 L92.8819019,278.088715 L92.8819019,293.325567 L96.0771518,293.325567 L96.0771518,296.045491 L86.306553,296.045491 L86.306553,293.325567 L89.8979083,293.325567 L89.8979083,281.178336 L86.306553,282.525095 L86.306553,279.752357 L90.6637119,278.088715 Z M121.903221,277.560574 L124.623144,277.560574 L124.623144,296.045491 L121.612744,296.045491 L121.612744,283.106049 L115.776791,291.873181 L113.981114,291.873181 L108.145162,283.079642 L108.145162,296.045491 L105.134761,296.045491 L105.134761,277.560574 L107.854684,277.560574 L114.878953,288.149791 L121.903221,277.560574 Z M132.122739,296.045491 L129.112338,296.045491 L129.112338,277.560574 L131.93789,277.560574 L141.893338,291.08097 C141.866931,290.447202 141.866931,289.734212 141.866931,289.04763 L141.866931,277.560574 L144.877332,277.560574 L144.877332,296.045491 L142.05178,296.045491 L132.096332,282.525095 C132.122739,283.158863 132.122739,283.871853 132.122739,284.532028 L132.122739,296.045491 Z M152.376926,296.045491 L149.366526,296.045491 L149.366526,277.560574 L156.760492,277.560574 C160.219812,277.560574 163.863982,278.933739 163.863982,283.343712 C163.863982,286.64459 161.804234,288.229012 159.374788,288.809966 L165.289961,296.045491 L161.672199,296.045491 L156.126724,289.126851 L152.376926,289.126851 L152.376926,296.045491 Z M152.376926,280.306905 L152.376926,286.459741 L156.892527,286.459741 C158.873054,286.459741 160.800767,285.746752 160.800767,283.396526 C160.800767,281.019894 158.873054,280.306905 156.892527,280.306905 L152.376926,280.306905 Z" id="$0.0250-1-MNR" fill="#131F3C"></path>
            <path d="M53.8812051,2.1452514 L56.7432163,2.1452514 L56.7432163,16.6128492 L59.7365124,16.6128492 L59.7365124,20 L49.5488029,20 L49.5488029,16.6128492 L52.9096967,16.6128492 L52.9096967,6.08379888 L49.5488029,7.34413408 L49.5488029,3.79944134 L53.8812051,2.1452514 Z M61.4432163,11.0726257 C61.4432163,5.92625698 63.8851157,1.77765363 69.5828811,1.77765363 C75.2806464,1.77765363 77.7225459,5.92625698 77.7225459,11.0726257 C77.7225459,16.2189944 75.2806464,20.3675978 69.5828811,20.3675978 C63.8851157,20.3675978 61.4432163,16.2189944 61.4432163,11.0726257 Z M73.7839984,11.0726257 C73.7839984,7.26536313 72.4711492,5.24357542 69.5828811,5.24357542 C66.6946129,5.24357542 65.3817638,7.26536313 65.3817638,11.0726257 C65.3817638,14.8798883 66.6946129,16.901676 69.5828811,16.901676 C72.4711492,16.901676 73.7839984,14.8798883 73.7839984,11.0726257 Z M82.0549481,21.549162 L79.4555068,21.549162 L87.4901437,0.0709497207 L90.089585,0.0709497207 L82.0549481,21.549162 Z M91.8225459,11.0726257 C91.8225459,5.92625698 94.2644453,1.77765363 99.9622107,1.77765363 C105.659976,1.77765363 108.101875,5.92625698 108.101875,11.0726257 C108.101875,16.2189944 105.659976,20.3675978 99.9622107,20.3675978 C94.2644453,20.3675978 91.8225459,16.2189944 91.8225459,11.0726257 Z M104.163328,11.0726257 C104.163328,7.26536313 102.850479,5.24357542 99.9622107,5.24357542 C97.0739425,5.24357542 95.7610934,7.26536313 95.7610934,11.0726257 C95.7610934,14.8798883 97.0739425,16.901676 99.9622107,16.901676 C102.850479,16.901676 104.163328,14.8798883 104.163328,11.0726257 Z M111.567797,2.11899441 L122.910814,2.11899441 L122.910814,5.50614525 L115.11249,5.47988827 L114.876177,8.97206704 C115.63763,8.81452514 116.451596,8.70949721 117.186792,8.70949721 C120.757741,8.70949721 123.724781,10.3111732 123.724781,14.4072626 C123.724781,18.5558659 120.101317,20.3675978 116.162769,20.3675978 C114.088468,20.3675978 111.987909,19.9212291 110.41249,19.1597765 L110.41249,15.5100559 C111.856624,16.4290503 113.930926,16.927933 115.716401,16.927933 C118.053272,16.927933 119.786233,16.0877095 119.786233,14.3547486 C119.786233,12.5955307 118.289585,11.7290503 115.427574,11.7290503 C114.140982,11.7290503 112.486792,11.9391061 110.93763,12.4905028 L111.567797,2.11899441 Z M127.899641,21.549162 L125.3002,21.549162 L133.334836,0.0709497207 L135.934278,0.0709497207 L127.899641,21.549162 Z M138.192378,3.66815642 C140.030367,2.35530726 142.157183,1.77765363 144.336512,1.77765363 C147.933719,1.77765363 150.848244,3.40558659 150.848244,7.05530726 C150.848244,10.0748603 148.353831,11.8603352 146.016959,13.2519553 C143.890144,14.5122905 142.078412,15.4837989 142.052155,16.6391061 L150.979529,16.6128492 L150.979529,20 L137.588468,20 L137.588468,18.2407821 C137.588468,13.9346369 140.844334,12.2541899 143.470032,10.7050279 C145.334278,9.62849162 146.935954,8.91955307 146.935954,7.21284916 C146.935954,5.9 145.780646,5.21731844 143.968915,5.21731844 C142.18344,5.21731844 140.082881,5.9 138.192378,7.34413408 L138.192378,3.66815642 Z M153.316401,11.0726257 C153.316401,5.92625698 155.7583,1.77765363 161.456065,1.77765363 C167.153831,1.77765363 169.59573,5.92625698 169.59573,11.0726257 C169.59573,16.2189944 167.153831,20.3675978 161.456065,20.3675978 C155.7583,20.3675978 153.316401,16.2189944 153.316401,11.0726257 Z M165.657183,11.0726257 C165.657183,7.26536313 164.344334,5.24357542 161.456065,5.24357542 C158.567797,5.24357542 157.254948,7.26536313 157.254948,11.0726257 C157.254948,14.8798883 158.567797,16.901676 161.456065,16.901676 C164.344334,16.901676 165.657183,14.8798883 165.657183,11.0726257 Z M176.396289,2.1452514 L179.2583,2.1452514 L179.2583,16.6128492 L182.251596,16.6128492 L182.251596,20 L172.063887,20 L172.063887,16.6128492 L175.424781,16.6128492 L175.424781,6.08379888 L172.063887,7.34413408 L172.063887,3.79944134 L176.396289,2.1452514 Z M184.562211,6.71396648 C184.562211,4.32458101 186.557741,1.77765363 191.44154,1.77765363 C195.983998,1.77765363 198.347127,4.32458101 198.373384,6.81899441 C198.399641,8.55195531 197.559417,9.86480447 196.115283,10.9413408 C197.743216,11.7553073 199.029808,13.0156425 199.029808,15.1687151 C199.029808,17.7944134 196.876736,20.3675978 191.494054,20.3675978 C186.163887,20.3675978 183.905786,17.7681564 183.905786,15.0374302 C183.905786,13.2519553 185.008579,11.5452514 186.689026,10.547486 C185.454948,9.70726257 184.562211,8.52569832 184.562211,6.71396648 Z M191.887909,12.6480447 C191.1002,12.3592179 190.154948,12.096648 189.235954,11.7553073 C188.264445,12.5692737 187.818077,13.6458101 187.844334,14.5648045 C187.870591,16.0877095 189.078412,17.2692737 191.782881,17.2692737 C193.673384,17.2692737 195.117518,16.4815642 195.117518,15.273743 C195.117518,13.750838 193.647127,13.2519553 191.887909,12.6480447 Z M194.592378,7.10782123 C194.592378,5.87374302 193.489585,4.87597765 191.283998,4.87597765 C189.393496,4.87597765 188.316959,5.7424581 188.316959,6.74022346 C188.316959,8.31564246 189.918635,8.81452514 191.677853,9.39217877 C192.202993,9.52346369 192.754389,9.70726257 193.332043,9.86480447 C194.172267,9.02458101 194.618635,7.97430168 194.592378,7.10782123 Z M132.875339,46.1424581 L115.440702,46.1424581 L115.440702,43.0703911 L132.875339,43.0703911 L132.875339,46.1424581 Z M53.1853951,64.1452514 L56.0474062,64.1452514 L56.0474062,78.6128492 L59.0407023,78.6128492 L59.0407023,82 L48.8529928,82 L48.8529928,78.6128492 L52.2138867,78.6128492 L52.2138867,68.0837989 L48.8529928,69.3441341 L48.8529928,65.7994413 L53.1853951,64.1452514 Z M60.7474062,73.0726257 C60.7474062,67.926257 63.1893057,63.7776536 68.887071,63.7776536 C74.5848364,63.7776536 77.0267358,67.926257 77.0267358,73.0726257 C77.0267358,78.2189944 74.5848364,82.3675978 68.887071,82.3675978 C63.1893057,82.3675978 60.7474062,78.2189944 60.7474062,73.0726257 Z M73.0881883,73.0726257 C73.0881883,69.2653631 71.7753392,67.2435754 68.887071,67.2435754 C65.9988029,67.2435754 64.6859537,69.2653631 64.6859537,73.0726257 C64.6859537,76.8798883 65.9988029,78.901676 68.887071,78.901676 C71.7753392,78.901676 73.0881883,76.8798883 73.0881883,73.0726257 Z M81.3591381,83.549162 L78.7596967,83.549162 L86.7943336,62.0709497 L89.3937749,62.0709497 L81.3591381,83.549162 Z M91.1267358,73.0726257 C91.1267358,67.926257 93.5686353,63.7776536 99.2664006,63.7776536 C104.964166,63.7776536 107.406065,67.926257 107.406065,73.0726257 C107.406065,78.2189944 104.964166,82.3675978 99.2664006,82.3675978 C93.5686353,82.3675978 91.1267358,78.2189944 91.1267358,73.0726257 Z M103.467518,73.0726257 C103.467518,69.2653631 102.154669,67.2435754 99.2664006,67.2435754 C96.3781325,67.2435754 95.0652833,69.2653631 95.0652833,73.0726257 C95.0652833,76.8798883 96.3781325,78.901676 99.2664006,78.901676 C102.154669,78.901676 103.467518,76.8798883 103.467518,73.0726257 Z M113.576457,71.6547486 C115.151875,70.8145251 116.59601,70.4469274 118.355227,70.4469274 C121.558579,70.4469274 124.578132,72.3899441 124.578132,76.2234637 C124.578132,80.2932961 121.401038,82.3675978 117.751317,82.3675978 C112.001038,82.3675978 109.664166,78.849162 109.664166,73.0726257 C109.664166,66.5346369 113.602713,63.7776536 118.145172,63.7776536 C119.825619,63.7776536 121.532322,64.1715084 123.055227,64.8804469 L123.055227,68.3463687 C121.821149,67.5324022 120.193216,67.0860335 118.670311,67.0860335 C116.254669,67.0860335 114.049082,68.1100559 113.576457,71.6547486 Z M113.576457,74.8318436 C113.944054,78.1664804 115.388188,79.1642458 117.436233,79.1642458 C119.169194,79.1642458 120.639585,78.3765363 120.639585,76.4072626 C120.639585,74.3592179 118.985395,73.7290503 117.147406,73.7290503 C115.965842,73.7290503 114.705507,74.096648 113.576457,74.8318436 Z M128.595451,83.549162 L125.99601,83.549162 L134.030646,62.0709497 L136.630088,62.0709497 L128.595451,83.549162 Z M138.888188,65.6681564 C140.726177,64.3553073 142.852993,63.7776536 145.032322,63.7776536 C148.629529,63.7776536 151.544054,65.4055866 151.544054,69.0553073 C151.544054,72.0748603 149.049641,73.8603352 146.712769,75.2519553 C144.585954,76.5122905 142.774222,77.4837989 142.747965,78.6391061 L151.675339,78.6128492 L151.675339,82 L138.284278,82 L138.284278,80.2407821 C138.284278,75.9346369 141.540144,74.2541899 144.165842,72.7050279 C146.030088,71.6284916 147.631764,70.9195531 147.631764,69.2128492 C147.631764,67.9 146.476457,67.2173184 144.664725,67.2173184 C142.87925,67.2173184 140.778691,67.9 138.888188,69.3441341 L138.888188,65.6681564 Z M154.012211,73.0726257 C154.012211,67.926257 156.45411,63.7776536 162.151875,63.7776536 C167.849641,63.7776536 170.29154,67.926257 170.29154,73.0726257 C170.29154,78.2189944 167.849641,82.3675978 162.151875,82.3675978 C156.45411,82.3675978 154.012211,78.2189944 154.012211,73.0726257 Z M166.352993,73.0726257 C166.352993,69.2653631 165.040144,67.2435754 162.151875,67.2435754 C159.263607,67.2435754 157.950758,69.2653631 157.950758,73.0726257 C157.950758,76.8798883 159.263607,78.901676 162.151875,78.901676 C165.040144,78.901676 166.352993,76.8798883 166.352993,73.0726257 Z M177.092099,64.1452514 L179.95411,64.1452514 L179.95411,78.6128492 L182.947406,78.6128492 L182.947406,82 L172.759697,82 L172.759697,78.6128492 L176.120591,78.6128492 L176.120591,68.0837989 L172.759697,69.3441341 L172.759697,65.7994413 L177.092099,64.1452514 Z M185.258021,68.7139665 C185.258021,66.324581 187.253551,63.7776536 192.13735,63.7776536 C196.679808,63.7776536 199.042937,66.324581 199.069194,68.8189944 C199.095451,70.5519553 198.255227,71.8648045 196.811093,72.9413408 C198.439026,73.7553073 199.725619,75.0156425 199.725619,77.1687151 C199.725619,79.7944134 197.572546,82.3675978 192.189864,82.3675978 C186.859697,82.3675978 184.601596,79.7681564 184.601596,77.0374302 C184.601596,75.2519553 185.704389,73.5452514 187.384836,72.547486 C186.150758,71.7072626 185.258021,70.5256983 185.258021,68.7139665 Z M192.583719,74.6480447 C191.79601,74.3592179 190.850758,74.096648 189.931764,73.7553073 C188.960255,74.5692737 188.513887,75.6458101 188.540144,76.5648045 C188.566401,78.0877095 189.774222,79.2692737 192.478691,79.2692737 C194.369194,79.2692737 195.813328,78.4815642 195.813328,77.273743 C195.813328,75.750838 194.342937,75.2519553 192.583719,74.6480447 Z M195.288188,69.1078212 C195.288188,67.873743 194.185395,66.8759777 191.979808,66.8759777 C190.089306,66.8759777 189.012769,67.7424581 189.012769,68.7402235 C189.012769,70.3156425 190.614445,70.8145251 192.373663,71.3921788 C192.898803,71.5234637 193.4502,71.7072626 194.027853,71.8648045 C194.868077,71.024581 195.314445,69.9743017 195.288188,69.1078212 Z" id="10/05/2018-—-10/06/2" fill="#131F3C"></path>
            <path d="M96.9424983,177.251 L109.847498,177.251 L109.847498,181.746 L101.756498,181.717 L101.553498,184.617 C102.278498,184.501 103.003498,184.443 103.670498,184.443 C107.701498,184.443 110.717498,186.27 110.717498,190.707 C110.717498,195.579 106.396498,197.435 101.988498,197.435 C99.6974983,197.435 97.4064983,196.942 95.6374983,196.101 L95.6374983,191.171 C97.1744983,192.244 99.4944983,192.795 101.408498,192.795 C103.641498,192.795 105.352498,192.128 105.352498,190.591 C105.352498,189.344 104.337498,188.387 101.118498,188.358 C99.8714983,188.358 98.0734983,188.532 96.2464983,189.17 L96.9424983,177.251 Z M112.863498,187.14 C112.863498,181.514 115.560498,176.845 121.998498,176.845 C128.436498,176.845 131.133498,181.514 131.133498,187.14 C131.133498,192.766 128.436498,197.435 121.998498,197.435 C115.560498,197.435 112.863498,192.766 112.863498,187.14 Z M125.768498,187.14 C125.768498,183.341 124.579498,181.485 121.998498,181.485 C119.417498,181.485 118.228498,183.341 118.228498,187.14 C118.228498,190.939 119.417498,192.795 121.998498,192.795 C124.579498,192.795 125.768498,190.939 125.768498,187.14 Z M141.544498,198.74 L138.354498,198.74 L150.215498,174.96 L153.405498,174.96 L141.544498,198.74 Z M144.096498,181.485 C144.096498,184.965 141.544498,186.705 138.586498,186.705 C135.599498,186.705 133.047498,184.965 133.047498,181.485 C133.047498,178.005 135.599498,176.265 138.586498,176.265 C141.544498,176.265 144.096498,178.005 144.096498,181.485 Z M136.875498,181.485 C136.875498,182.355 137.339498,183.225 138.586498,183.225 C139.804498,183.225 140.268498,182.355 140.268498,181.485 C140.268498,180.615 139.804498,179.745 138.586498,179.745 C137.339498,179.745 136.875498,180.615 136.875498,181.485 Z M158.596498,192.215 C158.596498,195.695 156.044498,197.435 153.086498,197.435 C150.099498,197.435 147.547498,195.695 147.547498,192.215 C147.547498,188.735 150.099498,186.995 153.086498,186.995 C156.044498,186.995 158.596498,188.735 158.596498,192.215 Z M151.375498,192.215 C151.375498,193.085 151.839498,193.955 153.086498,193.955 C154.304498,193.955 154.768498,193.085 154.768498,192.215 C154.768498,191.345 154.304498,190.475 153.086498,190.475 C151.839498,190.475 151.375498,191.345 151.375498,192.215 Z" id="50%" fill="#6202E1"></path>
            <path d="M150.100927,224.937443 L132.366858,224.937443 L132.366858,221.569139 L144.437501,221.59039 C144.437501,221.505385 144.127591,221.168912 143.507764,220.580962 C142.887936,219.993011 142.220303,219.454654 141.504844,218.965876 C140.746884,218.441678 139.935807,218.179584 139.07159,218.179584 C138.398634,218.179584 137.360881,218.431053 135.958299,218.933999 C136.539166,217.928107 136.950018,217.308289 137.190865,217.074525 C137.814234,216.351983 138.851988,215.990717 140.304156,215.990717 C141.827161,215.990717 143.520151,216.83367 145.383176,218.519602 C146.098634,219.192558 146.799915,219.785813 147.487038,220.299384 C148.174161,220.812956 149.045449,221.218494 150.100927,221.516011 L150.100927,224.937443 Z M140.219151,210.104154 L143.321816,211.347345 L142.184881,213.865604 L139.145969,212.590536 L140.219151,210.104154 Z M116.736651,221.622267 C117.579617,221.622267 118.521741,221.2185 119.563052,220.410953 C120.50519,219.709662 121.227721,219.153596 121.730667,218.742739 C124.096638,216.681369 125.67629,215.650699 126.469669,215.650699 C127.22763,215.650699 128.052874,215.856125 128.945426,216.266982 C131.212225,217.690815 132.345607,219.022539 132.345607,220.262195 C132.338523,220.665968 132.271229,221.09807 132.143721,221.558514 L133.004392,221.569139 L133.004392,224.937443 L131.28305,224.937443 L130.751772,224.384914 C130.70927,224.455751 130.666768,224.523046 130.624265,224.5868 C130.489674,224.820563 130.029238,224.937443 129.242942,224.937443 L115.716597,224.937443 C113.917326,224.937443 112.56435,224.668265 111.657631,224.1299 C110.857168,224.668265 109.968171,224.937443 108.990614,224.937443 L108.310578,224.937443 L108.310578,221.569139 C110.386115,221.625809 111.501788,221.526638 111.657631,221.271623 C111.770971,221.144116 111.82764,220.811185 111.82764,220.27282 C111.82764,219.713204 111.795764,219.298811 111.73201,219.029629 L113.729616,217.000146 C113.757951,217.127653 113.782744,217.294119 113.803995,217.499548 C113.825246,217.704976 113.83233,217.949362 113.825246,218.232712 C113.825246,218.480643 113.795141,218.78701 113.734929,219.151823 C113.674717,219.516636 113.609193,219.844254 113.538356,220.134688 C113.467519,220.425121 113.400224,220.660652 113.33647,220.841288 C113.272717,221.021923 113.24084,221.144116 113.24084,221.20787 C113.262091,221.299959 113.41439,221.392046 113.697739,221.484135 C113.981089,221.576223 114.99405,221.622267 116.736651,221.622267 Z M130.560512,221.175993 C130.560512,220.765136 130.000904,220.272823 128.881673,219.69904 C127.819111,219.146507 127.064703,218.870246 126.618427,218.870246 C124.882909,218.870246 123.363469,219.312973 122.06006,220.198441 C121.075419,220.949318 120.583106,221.480591 120.583106,221.792276 C120.675195,221.827695 121.126777,221.864884 121.937866,221.903844 C122.748954,221.942805 124.362253,221.962285 126.777811,221.962285 C129.299624,221.962285 130.560512,221.70019 130.560512,221.175993 Z M105.388547,224.884316 C104.857266,224.863064 104.265782,224.817021 103.614078,224.746183 C100.851417,224.604508 99.4665654,224.760348 99.4594817,225.213708 L99.5551118,225.606854 C99.5834468,225.691859 99.6294904,225.874263 99.6932441,226.154071 C99.7569978,226.433879 99.8809615,226.920879 100.065139,227.615086 C100.284735,228.60681 100.438804,229.499349 100.527351,230.292728 C100.615898,231.086108 100.653087,231.794472 100.638919,232.417842 C100.638919,233.182886 100.362658,234.04709 99.8101253,235.01048 C99.6897017,233.735405 99.5374034,232.53827 99.353226,231.419038 C99.1690486,230.299807 98.9529976,229.247886 98.7050665,228.263245 C98.4642192,227.59029 98.2995246,227.020057 98.2109777,226.552529 C98.1224309,226.085002 98.0781582,225.716653 98.0781582,225.447471 C98.4323455,223.499441 98.8963238,222.362516 99.4701072,222.036664 C99.7959596,221.85957 100.545054,221.763941 101.717414,221.749774 C102.889774,221.735606 103.691996,221.728523 104.124105,221.728523 C104.279947,221.728523 104.396827,221.74269 104.474749,221.771025 L102.158375,218.806492 L99.1938425,220.336574 L99.2150937,219.900925 C99.2221774,219.660078 99.7888686,218.810041 100.915184,217.35079 C101.729815,216.529075 102.487764,216.118224 103.189055,216.118224 C103.819509,216.118224 104.382658,216.468864 104.87852,217.170155 C105.303545,217.864362 105.746272,218.615228 106.206716,219.422775 C106.447563,219.982391 106.663614,220.435744 106.854875,220.782847 C107.024885,221.094532 107.414485,221.356627 108.023687,221.569139 L108.948112,221.569139 L108.948112,224.937443 L107.545537,224.937443 L107.014259,224.629302 L106.865501,224.979946 C106.412141,224.937443 105.919828,224.905567 105.388547,224.884316 Z" id="خصم" fill="#131F3C"></path>
        </g>
    </g>
</svg>