<?xml version="1.0" encoding="UTF-8" standalone="no"?>
<svg width="250px" height="367px" viewBox="0 0 250 367" version="1.1" xmlns="http://www.w3.org/2000/svg" xmlns:xlink="http://www.w3.org/1999/xlink">
    <!-- Generator: Sketch 49 (51002) - http://www.bohemiancoding.com/sketch -->
    <title>ch50</title>
    <desc>Created with Sketch.</desc>
    <defs>
        <radialGradient cx="50%" cy="50%" fx="50%" fy="50%" r="50.0301469%" id="radialGradient-1">
            <stop stop-color="#8800FF" offset="0%"></stop>
            <stop stop-color="#8600FB" offset="71.050849%"></stop>
            <stop stop-color="#A700FE" offset="100%"></stop>
        </radialGradient>
        <path d="M124.534208,123.762969 C132.711116,123.763004 140.809466,124.560659 148.829249,126.15593 C156.849031,127.751205 164.636136,130.113446 172.190582,133.242651 C179.745051,136.371851 186.921705,140.207897 193.720557,144.750778 C200.519385,149.293663 206.80975,154.456096 212.591686,160.238075 C218.373622,166.020054 223.535985,172.31049 228.078816,179.109373 C232.621648,185.908265 236.457622,193.08496 239.586764,200.639458 C242.715941,208.193974 245.078181,215.981143 246.673414,224.000966 C248.268642,232.020783 249.066241,240.119169 249.066241,248.296094 C249.066206,256.473078 248.268572,264.571493 246.673269,272.591345 C245.078041,280.611197 242.715802,288.398378 239.586549,295.952916 C236.457372,303.507449 232.621334,310.684162 228.078462,317.483043 C223.535595,324.28193 218.373157,330.572364 212.591151,336.354352 C206.80918,342.13634 200.518781,347.298762 193.719865,351.841645 C186.920978,356.384512 179.744289,360.220539 172.189785,363.349698 C164.635281,366.478892 156.848106,368.841098 148.828289,370.436348 C140.808455,372.031593 132.710069,372.82921 124.533126,372.82921 C116.356143,372.829175 108.257746,372.031523 100.237911,370.436238 C92.2180591,368.840975 84.4308608,366.478736 76.8763221,363.349518 C69.3217834,360.220324 62.1450765,356.384285 55.3461899,351.841413 C48.5472975,347.298529 42.256863,342.136108 36.4748864,336.35412 C30.6929041,330.572155 25.5304769,324.281714 20.9876108,317.482834 C16.4447331,310.683947 12.6087116,303.507257 9.4795232,295.952736 C6.3503348,288.398232 3.98812395,280.611075 2.39288484,272.591257 C0.797622465,264.571423 0,256.473037 0,248.296094 C2.90693572e-05,240.119128 0.797680604,232.020731 2.3929546,224.000867 C3.9882286,215.981015 6.35046852,208.193829 9.47967436,200.639301 C12.6088802,193.084774 16.4449307,185.908062 20.9878143,179.109169 C25.530692,172.310277 30.693125,166.019833 36.4751074,160.237853 C42.2570955,154.45587 48.54753,149.293442 55.346405,144.750569 C62.1452858,140.207697 69.3219985,136.37167 76.8765023,133.242486 C84.4310004,130.113304 92.2181812,127.75109 100.237998,126.155846 C108.257815,124.560598 116.356195,123.762974 124.533126,123.762974 L124.533022,179.802874 C120.03573,179.802903 115.581648,180.241612 111.170768,181.119019 C106.759883,181.996413 102.476984,183.295645 98.3220195,185.016702 C94.1670548,186.737771 90.2199129,188.847601 86.480547,191.346188 C82.741187,193.844775 79.2814858,196.684113 76.1014203,199.864202 C72.9213547,203.044291 70.0820343,206.504033 67.5834823,210.24341 C65.0849246,213.982799 62.9751229,217.929982 61.2540833,222.084958 C59.5330552,226.239934 58.233841,230.522874 57.356458,234.933789 C56.4791041,239.344668 56.0404243,243.798791 56.0404068,248.296112 C56.0404243,252.793432 56.479139,257.247573 57.3565452,261.658487 C58.2339282,266.069408 59.5331599,270.352347 61.2542228,274.507341 C62.9753032,278.66234 65.0851164,282.609523 67.5837091,286.348918 C70.0823017,290.088319 72.9216395,293.548072 76.1017226,296.728155 C79.2818172,299.908238 82.7415591,302.747576 86.4809366,305.246169 C90.2203198,307.744721 94.1674967,309.85454 98.3224788,311.575603 C102.477461,313.29666 106.7604,314.595892 111.171297,315.473281 C115.5822,316.350646 120.0363,316.789332 124.533621,316.789332 C129.030947,316.789314 133.485081,316.350611 137.896019,315.473228 C142.306916,314.595822 146.589873,313.29659 150.744873,311.57551 C154.899872,309.854453 158.847049,307.744634 162.58645,305.246041 C166.325827,302.747448 169.785569,299.908116 172.965664,296.728033 C176.145764,293.54795 178.985102,290.088208 181.483695,286.348813 C183.98227,282.609413 186.092083,278.662236 187.813129,274.507254 C189.534168,270.352272 190.8334,266.069332 191.710789,261.658435 C192.588172,257.24752 193.026857,252.793415 193.02684,248.296112 C193.026823,243.798791 192.588119,239.344651 191.710736,234.933736 C190.83333,230.522816 189.534099,226.239859 187.813018,222.084865 C186.091979,217.929871 183.982159,213.982683 181.483567,210.243294 C178.98498,206.503905 176.145625,203.044169 172.965542,199.86408 C169.785459,196.683985 166.325723,193.844659 162.586322,191.346078 C158.846927,188.847491 154.899744,186.737678 150.744762,185.016626 C146.589786,183.295575 142.306846,181.996349 137.895961,181.11896 C133.485047,180.241577 129.030947,179.802886 124.533621,179.802886 L124.534208,123.762969 Z" id="path-2"></path>
        <filter x="0.0%" y="0.0%" width="100.0%" height="100.0%" filterUnits="objectBoundingBox" id="filter-3">
            <feOffset dx="0" dy="0" in="SourceAlpha" result="shadowOffsetOuter1"></feOffset>
            <feColorMatrix values="0 0 0 0 0.65382076   0 0 0 0 0.258187342   0 0 0 0 1  0 0 0 1 0" type="matrix" in="shadowOffsetOuter1"></feColorMatrix>
        </filter>
    </defs>
    <g id="Monoreto" stroke="none" stroke-width="1" fill="none" fill-rule="evenodd">
        <g id="ch50" transform="translate(0.000000, -6.000000)">
            <g id="Fill-8">
                <use fill="black" fill-opacity="1" filter="url(#filter-3)" xlink:href="#path-2"></use>
                <use fill="url(#radialGradient-1)" fill-rule="evenodd" xlink:href="#path-2"></use>
            </g>
            <circle id="Oval" fill="#FFFFFF" cx="125.65842" cy="249.421389" r="87.3982442"></circle>
            <path d="M79.8104252,275.478404 L77.4866071,275.478404 L77.4866071,272.335968 C75.5324873,272.124712 73.6839957,271.596571 72.2052024,270.777954 L72.2052024,267.820367 C74.2385432,269.114311 76.6151753,269.642452 78.7277372,269.642452 C81.1043694,269.642452 82.7151978,269.087904 82.7151978,267.345041 C82.7151978,263.067103 72.2844234,265.338107 72.2844234,258.789165 C72.2844234,255.778764 74.5818345,254.167936 77.4866071,253.824644 L77.4866071,250.655802 L79.8104252,250.655802 L79.8104252,253.798237 C81.5796958,253.930273 83.3489664,254.405599 84.5900965,255.144996 L84.5900965,258.023361 C83.0848961,257.019894 81.0251483,256.465347 79.0446215,256.491754 C76.8000245,256.491754 75.3476382,257.151929 75.3476382,258.736351 C75.3476382,262.723811 85.7784126,260.584843 85.7784126,267.186598 C85.7784126,270.751547 83.1113032,272.177526 79.8104252,272.362375 L79.8104252,275.478404 Z M87.9437885,263.067103 C87.9437885,257.812105 90.4260487,253.745423 95.9979307,253.745423 C101.569813,253.745423 104.052073,257.812105 104.052073,263.067103 C104.052073,268.3221 101.569813,272.388782 95.9979307,272.388782 C90.4260487,272.388782 87.9437885,268.3221 87.9437885,263.067103 Z M101.015265,263.067103 C101.015265,258.894793 99.4308438,256.491754 95.9979307,256.491754 C92.5386106,256.491754 90.9805962,258.894793 90.9805962,263.067103 C90.9805962,267.239413 92.5386106,269.642452 95.9979307,269.642452 C99.4308438,269.642452 101.015265,267.239413 101.015265,263.067103 Z M110.152095,270.593105 C110.152095,271.781421 109.333478,272.335968 108.382825,272.335968 C107.432172,272.335968 106.587147,271.781421 106.587147,270.593105 C106.587147,269.457602 107.432172,268.903055 108.382825,268.903055 C109.333478,268.903055 110.152095,269.457602 110.152095,270.593105 Z M112.68717,263.067103 C112.68717,257.812105 115.16943,253.745423 120.741312,253.745423 C126.313194,253.745423 128.795454,257.812105 128.795454,263.067103 C128.795454,268.3221 126.313194,272.388782 120.741312,272.388782 C115.16943,272.388782 112.68717,268.3221 112.68717,263.067103 Z M125.758646,263.067103 C125.758646,258.894793 124.174225,256.491754 120.741312,256.491754 C117.281992,256.491754 115.723977,258.894793 115.723977,263.067103 C115.723977,267.239413 117.281992,269.642452 120.741312,269.642452 C124.174225,269.642452 125.758646,267.239413 125.758646,263.067103 Z M131.805855,255.567508 C133.654347,254.299971 135.687687,253.745423 137.773842,253.745423 C141.418012,253.745423 144.085121,255.435473 144.085121,258.789165 C144.085121,261.825973 141.550047,263.62165 139.1206,265.074037 C136.796782,266.447202 134.604999,267.556297 134.578592,269.351974 L144.217156,269.325567 L144.217156,272.045491 L131.198493,272.045491 L131.198493,270.672326 C131.198493,266.28876 134.446557,264.625117 137.166481,263.014289 C139.252636,261.799566 141.07472,260.87532 141.07472,258.841979 C141.07472,257.283965 139.727962,256.465347 137.509772,256.465347 C135.687687,256.465347 133.707161,257.099115 131.805855,258.472281 L131.805855,255.567508 Z M147.940546,254.088715 L159.005089,254.088715 L159.005089,256.782231 L150.713284,256.782231 L150.449214,261.112983 C151.320645,260.901727 152.244891,260.796099 153.169137,260.796099 C156.628457,260.796099 159.850114,262.301299 159.850114,266.526423 C159.850114,270.408255 156.549236,272.388782 152.588183,272.388782 C150.502028,272.388782 148.415873,271.939863 146.831451,271.174059 L146.831451,268.348508 C148.336652,269.219939 150.369993,269.668859 152.244891,269.668859 C154.912001,269.668859 156.813306,268.612578 156.813306,266.500016 C156.813306,264.123384 154.779966,263.278359 151.928007,263.278359 C150.475621,263.278359 148.811978,263.568836 147.359592,264.07057 L147.940546,254.088715 Z M162.200339,263.067103 C162.200339,257.812105 164.682599,253.745423 170.254481,253.745423 C175.826363,253.745423 178.308624,257.812105 178.308624,263.067103 C178.308624,268.3221 175.826363,272.388782 170.254481,272.388782 C164.682599,272.388782 162.200339,268.3221 162.200339,263.067103 Z M175.271816,263.067103 C175.271816,258.894793 173.687395,256.491754 170.254481,256.491754 C166.795161,256.491754 165.237147,258.894793 165.237147,263.067103 C165.237147,267.239413 166.795161,269.642452 170.254481,269.642452 C173.687395,269.642452 175.271816,267.239413 175.271816,263.067103 Z M90.6637119,286.088715 L92.8819019,286.088715 L92.8819019,301.325567 L96.0771518,301.325567 L96.0771518,304.045491 L86.306553,304.045491 L86.306553,301.325567 L89.8979083,301.325567 L89.8979083,289.178336 L86.306553,290.525095 L86.306553,287.752357 L90.6637119,286.088715 Z M121.903221,285.560574 L124.623144,285.560574 L124.623144,304.045491 L121.612744,304.045491 L121.612744,291.106049 L115.776791,299.873181 L113.981114,299.873181 L108.145162,291.079642 L108.145162,304.045491 L105.134761,304.045491 L105.134761,285.560574 L107.854684,285.560574 L114.878953,296.149791 L121.903221,285.560574 Z M132.122739,304.045491 L129.112338,304.045491 L129.112338,285.560574 L131.93789,285.560574 L141.893338,299.08097 C141.866931,298.447202 141.866931,297.734212 141.866931,297.04763 L141.866931,285.560574 L144.877332,285.560574 L144.877332,304.045491 L142.05178,304.045491 L132.096332,290.525095 C132.122739,291.158863 132.122739,291.871853 132.122739,292.532028 L132.122739,304.045491 Z M152.376926,304.045491 L149.366526,304.045491 L149.366526,285.560574 L156.760492,285.560574 C160.219812,285.560574 163.863982,286.933739 163.863982,291.343712 C163.863982,294.64459 161.804234,296.229012 159.374788,296.809966 L165.289961,304.045491 L161.672199,304.045491 L156.126724,297.126851 L152.376926,297.126851 L152.376926,304.045491 Z M152.376926,288.306905 L152.376926,294.459741 L156.892527,294.459741 C158.873054,294.459741 160.800767,293.746752 160.800767,291.396526 C160.800767,289.019894 158.873054,288.306905 156.892527,288.306905 L152.376926,288.306905 Z" id="$0.0250-1-MNR" fill="#131F3C"></path>
            <path d="M75.3462889,15.8167598 L81.1228252,15.8167598 L82.2781325,10.3553073 L73.9809258,10.3553073 L73.9809258,7.70335196 L95.590423,7.70335196 L95.590423,10.3553073 L85.0351157,10.3553073 L83.8798085,15.8167598 L92.5446129,15.8167598 L92.5446129,27.0547486 L96.5881883,27.0547486 L96.5881883,29.7329609 L73.0094174,29.7329609 L73.0094174,27.0547486 L78.7596967,27.0547486 L80.5714286,18.4687151 L75.3462889,18.4687151 L75.3462889,15.8167598 Z M81.51668,27.0547486 L89.7613727,27.0547486 L89.7613727,18.4687151 L83.3284118,18.4687151 L81.51668,27.0547486 Z M106.539585,16.1581006 L106.539585,20.0441341 L116.911093,20.0441341 L116.911093,16.1581006 L106.539585,16.1581006 Z M116.911093,13.6111732 L116.911093,9.93519553 L106.539585,9.93519553 L106.539585,13.6111732 L116.911093,13.6111732 Z M106.382043,22.5910615 C106.014445,25.8994413 105.01668,28.6826816 103.388747,30.9145251 L101.288188,28.9977654 C102.916121,26.7134078 103.730088,23.7726257 103.782602,20.201676 L103.782602,7.30949721 L119.694334,7.30949721 L119.694334,27.8949721 C119.694334,29.627933 118.801596,30.4944134 117.016121,30.4944134 L113.655227,30.4944134 L112.920032,27.8162011 C114.075339,27.8949721 115.151875,27.947486 116.123384,27.947486 C116.648524,27.947486 116.911093,27.5798883 116.911093,26.8972067 L116.911093,22.5910615 L106.382043,22.5910615 Z M135.973663,6.46927374 L138.756903,6.46927374 L138.756903,14.7664804 L149.102155,14.7664804 L149.102155,17.4446927 L138.756903,17.4446927 L138.756903,30.7307263 L135.973663,30.7307263 L135.973663,17.4446927 L125.549641,17.4446927 L125.549641,14.7664804 L135.973663,14.7664804 L135.973663,6.46927374 Z M155.430088,7.15195531 L171.656903,7.15195531 L171.656903,14.8977654 L155.430088,14.8977654 L155.430088,7.15195531 Z M168.873663,12.4558659 L168.873663,9.62011173 L158.213328,9.62011173 L158.213328,12.4558659 L168.873663,12.4558659 Z M157.24182,19.0726257 L151.544054,19.0726257 L151.544054,16.4206704 L175.51668,16.4206704 L175.51668,19.0726257 L160.02506,19.0726257 L159.316121,21.3569832 L171.998244,21.3569832 C171.788188,25.8731844 171.368077,28.5513966 170.685395,29.3916201 C170.002713,30.2055866 168.716121,30.6256983 166.773105,30.6256983 C165.486512,30.6256983 164.331205,30.5469274 163.307183,30.4156425 L162.414445,27.9212291 C163.832322,28.052514 165.066401,28.1312849 166.169194,28.1312849 C167.455786,28.1312849 168.243496,27.8687151 168.558579,27.3960894 C168.847406,26.8972067 169.057462,25.7156425 169.188747,23.8251397 L156.033998,23.8251397 L157.24182,19.0726257 Z M111.029529,54.3134078 L137.286512,54.3134078 L137.286512,56.7815642 L111.029529,56.7815642 L111.029529,54.3134078 Z M89.7088587,91.9173184 C92.5446129,96.1184358 94.7501995,99.7681564 96.2731045,102.86648 L93.8312051,104.573184 C92.2032721,101.238547 90.0501995,97.5100559 87.3457302,93.4139665 L89.7088587,91.9173184 Z M79.6261772,92.0748603 L82.2781325,93.1251397 C80.4926576,98.0351955 78.1557861,101.789944 75.215004,104.415642 L72.8781325,102.393855 C75.9239425,99.8206704 78.1820431,96.3810056 79.6261772,92.0748603 Z M73.0094174,87.1910615 L96.5356744,87.1910615 L96.5356744,89.8430168 L73.0094174,89.8430168 L73.0094174,87.1910615 Z M82.7245012,80.6005587 C84.7462889,81.9921788 86.4529928,83.3837989 87.8446129,84.749162 L85.8490822,86.7709497 C84.6937749,85.4055866 83.013328,83.9614525 80.8339984,82.4122905 L82.7245012,80.6005587 Z M106.539585,90.1581006 L106.539585,94.0441341 L116.911093,94.0441341 L116.911093,90.1581006 L106.539585,90.1581006 Z M116.911093,87.6111732 L116.911093,83.9351955 L106.539585,83.9351955 L106.539585,87.6111732 L116.911093,87.6111732 Z M106.382043,96.5910615 C106.014445,99.8994413 105.01668,102.682682 103.388747,104.914525 L101.288188,102.997765 C102.916121,100.713408 103.730088,97.7726257 103.782602,94.201676 L103.782602,81.3094972 L119.694334,81.3094972 L119.694334,101.894972 C119.694334,103.627933 118.801596,104.494413 117.016121,104.494413 L113.655227,104.494413 L112.920032,101.816201 C114.075339,101.894972 115.151875,101.947486 116.123384,101.947486 C116.648524,101.947486 116.911093,101.579888 116.911093,100.897207 L116.911093,96.5910615 L106.382043,96.5910615 Z M135.973663,80.4692737 L138.756903,80.4692737 L138.756903,88.7664804 L149.102155,88.7664804 L149.102155,91.4446927 L138.756903,91.4446927 L138.756903,104.730726 L135.973663,104.730726 L135.973663,91.4446927 L125.549641,91.4446927 L125.549641,88.7664804 L135.973663,88.7664804 L135.973663,80.4692737 Z M155.430088,81.1519553 L171.656903,81.1519553 L171.656903,88.8977654 L155.430088,88.8977654 L155.430088,81.1519553 Z M168.873663,86.4558659 L168.873663,83.6201117 L158.213328,83.6201117 L158.213328,86.4558659 L168.873663,86.4558659 Z M157.24182,93.0726257 L151.544054,93.0726257 L151.544054,90.4206704 L175.51668,90.4206704 L175.51668,93.0726257 L160.02506,93.0726257 L159.316121,95.3569832 L171.998244,95.3569832 C171.788188,99.8731844 171.368077,102.551397 170.685395,103.39162 C170.002713,104.205587 168.716121,104.625698 166.773105,104.625698 C165.486512,104.625698 164.331205,104.546927 163.307183,104.415642 L162.414445,101.921229 C163.832322,102.052514 165.066401,102.131285 166.169194,102.131285 C167.455786,102.131285 168.243496,101.868715 168.558579,101.396089 C168.847406,100.897207 169.057462,99.7156425 169.188747,97.8251397 L156.033998,97.8251397 L157.24182,93.0726257 Z" id="五月十号-—-六月十号" fill="#131F3C"></path>
            <path d="M96.9424983,185.251 L109.847498,185.251 L109.847498,189.746 L101.756498,189.717 L101.553498,192.617 C102.278498,192.501 103.003498,192.443 103.670498,192.443 C107.701498,192.443 110.717498,194.27 110.717498,198.707 C110.717498,203.579 106.396498,205.435 101.988498,205.435 C99.6974983,205.435 97.4064983,204.942 95.6374983,204.101 L95.6374983,199.171 C97.1744983,200.244 99.4944983,200.795 101.408498,200.795 C103.641498,200.795 105.352498,200.128 105.352498,198.591 C105.352498,197.344 104.337498,196.387 101.118498,196.358 C99.8714983,196.358 98.0734983,196.532 96.2464983,197.17 L96.9424983,185.251 Z M112.863498,195.14 C112.863498,189.514 115.560498,184.845 121.998498,184.845 C128.436498,184.845 131.133498,189.514 131.133498,195.14 C131.133498,200.766 128.436498,205.435 121.998498,205.435 C115.560498,205.435 112.863498,200.766 112.863498,195.14 Z M125.768498,195.14 C125.768498,191.341 124.579498,189.485 121.998498,189.485 C119.417498,189.485 118.228498,191.341 118.228498,195.14 C118.228498,198.939 119.417498,200.795 121.998498,200.795 C124.579498,200.795 125.768498,198.939 125.768498,195.14 Z M141.544498,206.74 L138.354498,206.74 L150.215498,182.96 L153.405498,182.96 L141.544498,206.74 Z M144.096498,189.485 C144.096498,192.965 141.544498,194.705 138.586498,194.705 C135.599498,194.705 133.047498,192.965 133.047498,189.485 C133.047498,186.005 135.599498,184.265 138.586498,184.265 C141.544498,184.265 144.096498,186.005 144.096498,189.485 Z M136.875498,189.485 C136.875498,190.355 137.339498,191.225 138.586498,191.225 C139.804498,191.225 140.268498,190.355 140.268498,189.485 C140.268498,188.615 139.804498,187.745 138.586498,187.745 C137.339498,187.745 136.875498,188.615 136.875498,189.485 Z M158.596498,200.215 C158.596498,203.695 156.044498,205.435 153.086498,205.435 C150.099498,205.435 147.547498,203.695 147.547498,200.215 C147.547498,196.735 150.099498,194.995 153.086498,194.995 C156.044498,194.995 158.596498,196.735 158.596498,200.215 Z M151.375498,200.215 C151.375498,201.085 151.839498,201.955 153.086498,201.955 C154.304498,201.955 154.768498,201.085 154.768498,200.215 C154.768498,199.345 154.304498,198.475 153.086498,198.475 C151.839498,198.475 151.375498,199.345 151.375498,200.215 Z" id="50%" fill="#6202E1"></path>
            <path d="M110.876567,221.378486 L115.248265,221.378486 L115.248265,223.446816 L110.876567,223.446816 L110.876567,221.378486 Z M110.876567,224.669011 L115.53031,224.669011 L115.53031,232.1197 L110.876567,232.1197 L110.876567,224.669011 Z M113.791032,230.333415 L113.791032,226.455296 L112.615844,226.455296 L112.615844,230.333415 L113.791032,230.333415 Z M120.372082,221.425493 L122.440412,222.318636 C121.711796,225.656168 120.724638,228.453115 119.502443,230.709475 C119.596458,231.085535 119.690473,231.438091 119.784488,231.74364 C120.23106,233.036346 120.654127,233.717955 121.053691,233.788466 C121.194713,233.764962 121.265225,232.49576 121.312232,229.980859 L123.310051,230.897505 C123.310051,234.423068 122.604939,236.185849 121.194713,236.209353 C120.301571,236.209353 119.502443,235.551248 118.797331,234.258541 C118.562293,233.882481 118.35076,233.388902 118.139226,232.824812 C117.081557,234.235038 115.882866,235.363218 114.519648,236.209353 L113.062416,234.305549 C114.754686,233.318391 116.164911,231.884662 117.340098,230.027866 C117.105061,229.134724 116.893527,228.147566 116.705497,227.066393 C116.305933,224.904048 116.023888,222.553673 115.882866,219.991764 L109.983424,219.991764 L109.983424,226.384785 C109.889409,230.568452 109.019771,233.905985 107.3275,236.420886 L105.494208,234.799128 C106.95144,232.777805 107.727064,229.980859 107.797575,226.384785 L107.797575,217.735404 L115.788851,217.735404 C115.741843,216.748247 115.741843,215.737586 115.741843,214.70342 L117.998203,214.70342 C117.998203,215.690578 117.998203,216.701239 118.045211,217.735404 L119.784488,217.735404 C119.408428,217.006788 119.008865,216.325179 118.585797,215.690578 L120.536608,215.361526 C120.936172,216.066638 121.312232,216.865766 121.664789,217.735404 L122.698954,217.735404 L122.698954,219.991764 L118.139226,219.991764 C118.233241,221.684035 118.374263,223.423312 118.562293,225.209597 C118.632805,225.867702 118.72682,226.502303 118.820835,227.066393 C119.47894,225.397627 119.996022,223.517327 120.372082,221.425493 Z M103.5669,215.455541 C104.88311,217.523871 105.893772,219.310156 106.598884,220.837899 L104.624569,222.201117 C103.872449,220.555854 102.838284,218.746066 101.522074,216.724743 L103.5669,215.455541 Z M104.742088,225.139086 L106.880929,225.985221 C105.940779,229.463776 104.88311,232.754301 103.731427,235.833293 L101.451563,234.822631 C102.720765,231.673129 103.801938,228.429611 104.742088,225.139086 Z M127.56423,224.057913 C126.929629,224.904048 126.24802,225.72668 125.542907,226.525807 L124.720276,223.893387 C126.859117,221.260967 128.433869,218.158472 129.468034,214.585902 L131.771401,215.667074 C131.301326,217.171314 130.737236,218.628547 130.055628,219.991764 L130.055628,236.303368 L127.56423,236.303368 L127.56423,224.057913 Z M140.162241,223.023748 L142.536119,223.023748 L142.536119,236.232856 L140.162241,236.232856 L140.162241,223.023748 Z M134.286303,223.09426 L136.660182,223.09426 L136.660182,226.549311 C136.613174,231.109039 135.46149,234.470075 133.228634,236.585413 L131.371838,234.963654 C133.275641,233.224376 134.239295,230.403926 134.286303,226.549311 L134.286303,223.09426 Z M137.247775,214.820939 L139.480632,214.820939 C140.890857,217.829419 143.335247,220.461839 146.813802,222.7182 L145.427081,224.810033 C142.254074,222.741703 139.903699,220.203298 138.352452,217.171314 C136.58967,220.555854 134.356814,223.188275 131.630379,225.045071 L130.267161,222.953237 C133.275641,220.884907 135.602513,218.158472 137.247775,214.820939 Z" id="减价" fill="#131F3C"></path>
        </g>
    </g>
</svg>