<?xml version="1.0" encoding="UTF-8" standalone="no"?>
<svg width="250px" height="367px" viewBox="0 0 250 367" version="1.1" xmlns="http://www.w3.org/2000/svg" xmlns:xlink="http://www.w3.org/1999/xlink">
    <!-- Generator: Sketch 49 (51002) - http://www.bohemiancoding.com/sketch -->
    <title>ch20</title>
    <desc>Created with Sketch.</desc>
    <defs>
        <radialGradient cx="50%" cy="50%" fx="50%" fy="50%" r="50.0301469%" id="radialGradient-1">
            <stop stop-color="#8D00FF" offset="0%"></stop>
            <stop stop-color="#5C00FE" offset="69.8959662%"></stop>
            <stop stop-color="#8900FF" offset="100%"></stop>
        </radialGradient>
    </defs>
    <g id="Monoreto" stroke="none" stroke-width="1" fill="none" fill-rule="evenodd">
        <g id="ch20" transform="translate(0.000000, -6.000000)">
            <g id="1-copy">
                <path d="M124.534208,123.762969 C132.711116,123.763004 140.809466,124.560659 148.829249,126.15593 C156.849031,127.751205 164.636136,130.113446 172.190582,133.242651 C179.745051,136.371851 186.921705,140.207897 193.720557,144.750778 C200.519385,149.293663 206.80975,154.456096 212.591686,160.238075 C218.373622,166.020054 223.535985,172.31049 228.078816,179.109373 C232.621648,185.908265 236.457622,193.08496 239.586764,200.639458 C242.715941,208.193974 245.078181,215.981143 246.673414,224.000966 C248.268642,232.020783 249.066241,240.119169 249.066241,248.296094 C249.066206,256.473078 248.268572,264.571493 246.673269,272.591345 C245.078041,280.611197 242.715802,288.398378 239.586549,295.952916 C236.457372,303.507449 232.621334,310.684162 228.078462,317.483043 C223.535595,324.28193 218.373157,330.572364 212.591151,336.354352 C206.80918,342.13634 200.518781,347.298762 193.719865,351.841645 C186.920978,356.384512 179.744289,360.220539 172.189785,363.349698 C164.635281,366.478892 156.848106,368.841098 148.828289,370.436348 C140.808455,372.031593 132.710069,372.82921 124.533126,372.82921 C116.356143,372.829175 108.257746,372.031523 100.237911,370.436238 C92.2180591,368.840975 84.4308608,366.478736 76.8763221,363.349518 C69.3217834,360.220324 62.1450765,356.384285 55.3461899,351.841413 C48.5472975,347.298529 42.256863,342.136108 36.4748864,336.35412 C30.6929041,330.572155 25.5304769,324.281714 20.9876108,317.482834 C16.4447331,310.683947 12.6087116,303.507257 9.4795232,295.952736 C6.3503348,288.398232 3.98812395,280.611075 2.39288484,272.591257 C0.797622465,264.571423 0,256.473037 0,248.296094 C2.90693572e-05,240.119128 0.797680604,232.020731 2.3929546,224.000867 C3.9882286,215.981015 6.35046852,208.193829 9.47967436,200.639301 C12.6088802,193.084774 16.4449307,185.908062 20.9878143,179.109169 C25.530692,172.310277 30.693125,166.019833 36.4751074,160.237853 C42.2570955,154.45587 48.54753,149.293442 55.346405,144.750569 C62.1452858,140.207697 69.3219985,136.37167 76.8765023,133.242486 C84.4310004,130.113304 92.2181812,127.75109 100.237998,126.155846 C108.257815,124.560598 116.356195,123.762974 124.533126,123.762974 L124.533022,179.802874 C120.03573,179.802903 115.581648,180.241612 111.170768,181.119019 C106.759883,181.996413 102.476984,183.295645 98.3220195,185.016702 C94.1670548,186.737771 90.2199129,188.847601 86.480547,191.346188 C82.741187,193.844775 79.2814858,196.684113 76.1014203,199.864202 C72.9213547,203.044291 70.0820343,206.504033 67.5834823,210.24341 C65.0849246,213.982799 62.9751229,217.929982 61.2540833,222.084958 C59.5330552,226.239934 58.233841,230.522874 57.356458,234.933789 C56.4791041,239.344668 56.0404243,243.798791 56.0404068,248.296112 C56.0404243,252.793432 56.479139,257.247573 57.3565452,261.658487 C58.2339282,266.069408 59.5331599,270.352347 61.2542228,274.507341 C62.9753032,278.66234 65.0851164,282.609523 67.5837091,286.348918 C70.0823017,290.088319 72.9216395,293.548072 76.1017226,296.728155 C79.2818172,299.908238 82.7415591,302.747576 86.4809366,305.246169 C90.2203198,307.744721 94.1674967,309.85454 98.3224788,311.575603 C102.477461,313.29666 106.7604,314.595892 111.171297,315.473281 C115.5822,316.350646 120.0363,316.789332 124.533621,316.789332 C129.030947,316.789314 133.485081,316.350611 137.896019,315.473228 C142.306916,314.595822 146.589873,313.29659 150.744873,311.57551 C154.899872,309.854453 158.847049,307.744634 162.58645,305.246041 C166.325827,302.747448 169.785569,299.908116 172.965664,296.728033 C176.145764,293.54795 178.985102,290.088208 181.483695,286.348813 C183.98227,282.609413 186.092083,278.662236 187.813129,274.507254 C189.534168,270.352272 190.8334,266.069332 191.710789,261.658435 C192.588172,257.24752 193.026857,252.793415 193.02684,248.296112 C193.026823,243.798791 192.588119,239.344651 191.710736,234.933736 C190.83333,230.522816 189.534099,226.239859 187.813018,222.084865 C186.091979,217.929871 183.982159,213.982683 181.483567,210.243294 C178.98498,206.503905 176.145625,203.044169 172.965542,199.86408 C169.785459,196.683985 166.325723,193.844659 162.586322,191.346078 C158.846927,188.847491 154.899744,186.737678 150.744762,185.016626 C146.589786,183.295575 142.306846,181.996349 137.895961,181.11896 C133.485047,180.241577 129.030947,179.802886 124.533621,179.802886 L124.534208,123.762969 Z" id="Fill-8" fill="url(#radialGradient-1)"></path>
                <circle id="Oval" fill="#FFFFFF" cx="125.65842" cy="249.421389" r="87.3982442"></circle>
                <path d="M77.354572,275.478404 L75.0307539,275.478404 L75.0307539,272.335968 C73.0766341,272.124712 71.2281425,271.596571 69.7493492,270.777954 L69.7493492,267.820367 C71.78269,269.114311 74.1593221,269.642452 76.271884,269.642452 C78.6485161,269.642452 80.2593446,269.087904 80.2593446,267.345041 C80.2593446,263.067103 69.8285702,265.338107 69.8285702,258.789165 C69.8285702,255.778764 72.1259813,254.167936 75.0307539,253.824644 L75.0307539,250.655802 L77.354572,250.655802 L77.354572,253.798237 C79.1238426,253.930273 80.8931132,254.405599 82.1342433,255.144996 L82.1342433,258.023361 C80.6290429,257.019894 78.5692951,256.465347 76.5887683,256.491754 C74.3441713,256.491754 72.891785,257.151929 72.891785,258.736351 C72.891785,262.723811 83.3225593,260.584843 83.3225593,267.186598 C83.3225593,270.751547 80.65545,272.177526 77.354572,272.362375 L77.354572,275.478404 Z M85.4879353,263.067103 C85.4879353,257.812105 87.9701955,253.745423 93.5420775,253.745423 C99.1139595,253.745423 101.59622,257.812105 101.59622,263.067103 C101.59622,268.3221 99.1139595,272.388782 93.5420775,272.388782 C87.9701955,272.388782 85.4879353,268.3221 85.4879353,263.067103 Z M98.559412,263.067103 C98.559412,258.894793 96.9749906,256.491754 93.5420775,256.491754 C90.0827574,256.491754 88.524743,258.894793 88.524743,263.067103 C88.524743,267.239413 90.0827574,269.642452 93.5420775,269.642452 C96.9749906,269.642452 98.559412,267.239413 98.559412,263.067103 Z M107.696242,270.593105 C107.696242,271.781421 106.877625,272.335968 105.926972,272.335968 C104.976319,272.335968 104.131294,271.781421 104.131294,270.593105 C104.131294,269.457602 104.976319,268.903055 105.926972,268.903055 C106.877625,268.903055 107.696242,269.457602 107.696242,270.593105 Z M110.231317,263.067103 C110.231317,257.812105 112.713577,253.745423 118.285459,253.745423 C123.857341,253.745423 126.339601,257.812105 126.339601,263.067103 C126.339601,268.3221 123.857341,272.388782 118.285459,272.388782 C112.713577,272.388782 110.231317,268.3221 110.231317,263.067103 Z M123.302793,263.067103 C123.302793,258.894793 121.718372,256.491754 118.285459,256.491754 C114.826139,256.491754 113.268124,258.894793 113.268124,263.067103 C113.268124,267.239413 114.826139,269.642452 118.285459,269.642452 C121.718372,269.642452 123.302793,267.239413 123.302793,263.067103 Z M137.800249,254.088715 L140.889871,254.088715 L140.889871,265.760619 L143.979493,265.760619 L143.979493,268.374915 L140.889871,268.374915 L140.889871,272.045491 L137.985098,272.045491 L137.985098,268.374915 L128.240907,268.374915 L128.240907,265.813433 L137.800249,254.088715 Z M137.985098,265.760619 L137.985098,257.917733 L131.594599,265.760619 L137.985098,265.760619 Z M146.012834,263.067103 C146.012834,257.812105 148.495094,253.745423 154.066976,253.745423 C159.638858,253.745423 162.121118,257.812105 162.121118,263.067103 C162.121118,268.3221 159.638858,272.388782 154.066976,272.388782 C148.495094,272.388782 146.012834,268.3221 146.012834,263.067103 Z M159.08431,263.067103 C159.08431,258.894793 157.499889,256.491754 154.066976,256.491754 C150.607656,256.491754 149.049641,258.894793 149.049641,263.067103 C149.049641,267.239413 150.607656,269.642452 154.066976,269.642452 C157.499889,269.642452 159.08431,267.239413 159.08431,263.067103 Z M164.656192,263.067103 C164.656192,257.812105 167.138453,253.745423 172.710335,253.745423 C178.282217,253.745423 180.764477,257.812105 180.764477,263.067103 C180.764477,268.3221 178.282217,272.388782 172.710335,272.388782 C167.138453,272.388782 164.656192,268.3221 164.656192,263.067103 Z M177.727669,263.067103 C177.727669,258.894793 176.143248,256.491754 172.710335,256.491754 C169.251015,256.491754 167.693,258.894793 167.693,263.067103 C167.693,267.239413 169.251015,269.642452 172.710335,269.642452 C176.143248,269.642452 177.727669,267.239413 177.727669,263.067103 Z M90.6637119,286.088715 L92.8819019,286.088715 L92.8819019,301.325567 L96.0771518,301.325567 L96.0771518,304.045491 L86.306553,304.045491 L86.306553,301.325567 L89.8979083,301.325567 L89.8979083,289.178336 L86.306553,290.525095 L86.306553,287.752357 L90.6637119,286.088715 Z M121.903221,285.560574 L124.623144,285.560574 L124.623144,304.045491 L121.612744,304.045491 L121.612744,291.106049 L115.776791,299.873181 L113.981114,299.873181 L108.145162,291.079642 L108.145162,304.045491 L105.134761,304.045491 L105.134761,285.560574 L107.854684,285.560574 L114.878953,296.149791 L121.903221,285.560574 Z M132.122739,304.045491 L129.112338,304.045491 L129.112338,285.560574 L131.93789,285.560574 L141.893338,299.08097 C141.866931,298.447202 141.866931,297.734212 141.866931,297.04763 L141.866931,285.560574 L144.877332,285.560574 L144.877332,304.045491 L142.05178,304.045491 L132.096332,290.525095 C132.122739,291.158863 132.122739,291.871853 132.122739,292.532028 L132.122739,304.045491 Z M152.376926,304.045491 L149.366526,304.045491 L149.366526,285.560574 L156.760492,285.560574 C160.219812,285.560574 163.863982,286.933739 163.863982,291.343712 C163.863982,294.64459 161.804234,296.229012 159.374788,296.809966 L165.289961,304.045491 L161.672199,304.045491 L156.126724,297.126851 L152.376926,297.126851 L152.376926,304.045491 Z M152.376926,288.306905 L152.376926,294.459741 L156.892527,294.459741 C158.873054,294.459741 160.800767,293.746752 160.800767,291.396526 C160.800767,289.019894 158.873054,288.306905 156.892527,288.306905 L152.376926,288.306905 Z" id="$0.0400-1-MNR" fill="#131F3C"></path>
                <path d="M66.7602554,8.46480447 L69.4647247,8.93743017 C67.9943336,18.1798883 65.3161213,25.2955307 61.4038308,30.3368715 L59.592099,28.052514 C63.1367917,23.1949721 65.5261772,16.6569832 66.7602554,8.46480447 Z M75.7401437,7.41452514 C76.2915403,16.5256983 78.9434956,23.352514 83.7222666,27.8687151 L82.2518755,30.4418994 C77.0529928,25.7944134 74.0334397,18.3899441 73.1932163,8.20223464 L75.7401437,7.41452514 Z M93.4110934,16.1581006 L93.4110934,20.0441341 L103.782602,20.0441341 L103.782602,16.1581006 L93.4110934,16.1581006 Z M103.782602,13.6111732 L103.782602,9.93519553 L93.4110934,9.93519553 L93.4110934,13.6111732 L103.782602,13.6111732 Z M93.2535515,22.5910615 C92.8859537,25.8994413 91.8881883,28.6826816 90.2602554,30.9145251 L88.1596967,28.9977654 C89.7876297,26.7134078 90.6015962,23.7726257 90.6541101,20.201676 L90.6541101,7.30949721 L106.565842,7.30949721 L106.565842,27.8949721 C106.565842,29.627933 105.673105,30.4944134 103.88763,30.4944134 L100.526736,30.4944134 L99.7915403,27.8162011 C100.946848,27.8949721 102.023384,27.947486 102.994892,27.947486 C103.520032,27.947486 103.782602,27.5798883 103.782602,26.8972067 L103.782602,22.5910615 L93.2535515,22.5910615 Z M122.845172,6.46927374 L125.628412,6.46927374 L125.628412,14.7664804 L135.973663,14.7664804 L135.973663,17.4446927 L125.628412,17.4446927 L125.628412,30.7307263 L122.845172,30.7307263 L122.845172,17.4446927 L112.421149,17.4446927 L112.421149,14.7664804 L122.845172,14.7664804 L122.845172,6.46927374 Z M140.988747,15.8167598 L146.765283,15.8167598 L147.920591,10.3553073 L139.623384,10.3553073 L139.623384,7.70335196 L161.232881,7.70335196 L161.232881,10.3553073 L150.677574,10.3553073 L149.522267,15.8167598 L158.187071,15.8167598 L158.187071,27.0547486 L162.230646,27.0547486 L162.230646,29.7329609 L138.651875,29.7329609 L138.651875,27.0547486 L144.402155,27.0547486 L146.213887,18.4687151 L140.988747,18.4687151 L140.988747,15.8167598 Z M147.159138,27.0547486 L155.403831,27.0547486 L155.403831,18.4687151 L148.97087,18.4687151 L147.159138,27.0547486 Z M168.558579,7.15195531 L184.785395,7.15195531 L184.785395,14.8977654 L168.558579,14.8977654 L168.558579,7.15195531 Z M182.002155,12.4558659 L182.002155,9.62011173 L171.34182,9.62011173 L171.34182,12.4558659 L182.002155,12.4558659 Z M170.370311,19.0726257 L164.672546,19.0726257 L164.672546,16.4206704 L188.645172,16.4206704 L188.645172,19.0726257 L173.153551,19.0726257 L172.444613,21.3569832 L185.126736,21.3569832 C184.91668,25.8731844 184.496568,28.5513966 183.813887,29.3916201 C183.131205,30.2055866 181.844613,30.6256983 179.901596,30.6256983 C178.615004,30.6256983 177.459697,30.5469274 176.435674,30.4156425 L175.542937,27.9212291 C176.960814,28.052514 178.194892,28.1312849 179.297686,28.1312849 C180.584278,28.1312849 181.371987,27.8687151 181.687071,27.3960894 C181.975898,26.8972067 182.185954,25.7156425 182.317239,23.8251397 L169.16249,23.8251397 L170.370311,19.0726257 Z M111.029529,54.3134078 L137.286512,54.3134078 L137.286512,56.7815642 L111.029529,56.7815642 L111.029529,54.3134078 Z M66.7602554,82.4648045 L69.4647247,82.9374302 C67.9943336,92.1798883 65.3161213,99.2955307 61.4038308,104.336872 L59.592099,102.052514 C63.1367917,97.1949721 65.5261772,90.6569832 66.7602554,82.4648045 Z M75.7401437,81.4145251 C76.2915403,90.5256983 78.9434956,97.352514 83.7222666,101.868715 L82.2518755,104.441899 C77.0529928,99.7944134 74.0334397,92.3899441 73.1932163,82.2022346 L75.7401437,81.4145251 Z M93.4110934,90.1581006 L93.4110934,94.0441341 L103.782602,94.0441341 L103.782602,90.1581006 L93.4110934,90.1581006 Z M103.782602,87.6111732 L103.782602,83.9351955 L93.4110934,83.9351955 L93.4110934,87.6111732 L103.782602,87.6111732 Z M93.2535515,96.5910615 C92.8859537,99.8994413 91.8881883,102.682682 90.2602554,104.914525 L88.1596967,102.997765 C89.7876297,100.713408 90.6015962,97.7726257 90.6541101,94.201676 L90.6541101,81.3094972 L106.565842,81.3094972 L106.565842,101.894972 C106.565842,103.627933 105.673105,104.494413 103.88763,104.494413 L100.526736,104.494413 L99.7915403,101.816201 C100.946848,101.894972 102.023384,101.947486 102.994892,101.947486 C103.520032,101.947486 103.782602,101.579888 103.782602,100.897207 L103.782602,96.5910615 L93.2535515,96.5910615 Z M122.845172,80.4692737 L125.628412,80.4692737 L125.628412,88.7664804 L135.973663,88.7664804 L135.973663,91.4446927 L125.628412,91.4446927 L125.628412,104.730726 L122.845172,104.730726 L122.845172,91.4446927 L112.421149,91.4446927 L112.421149,88.7664804 L122.845172,88.7664804 L122.845172,80.4692737 Z M140.988747,89.8167598 L146.765283,89.8167598 L147.920591,84.3553073 L139.623384,84.3553073 L139.623384,81.703352 L161.232881,81.703352 L161.232881,84.3553073 L150.677574,84.3553073 L149.522267,89.8167598 L158.187071,89.8167598 L158.187071,101.054749 L162.230646,101.054749 L162.230646,103.732961 L138.651875,103.732961 L138.651875,101.054749 L144.402155,101.054749 L146.213887,92.4687151 L140.988747,92.4687151 L140.988747,89.8167598 Z M147.159138,101.054749 L155.403831,101.054749 L155.403831,92.4687151 L148.97087,92.4687151 L147.159138,101.054749 Z M168.558579,81.1519553 L184.785395,81.1519553 L184.785395,88.8977654 L168.558579,88.8977654 L168.558579,81.1519553 Z M182.002155,86.4558659 L182.002155,83.6201117 L171.34182,83.6201117 L171.34182,86.4558659 L182.002155,86.4558659 Z M170.370311,93.0726257 L164.672546,93.0726257 L164.672546,90.4206704 L188.645172,90.4206704 L188.645172,93.0726257 L173.153551,93.0726257 L172.444613,95.3569832 L185.126736,95.3569832 C184.91668,99.8731844 184.496568,102.551397 183.813887,103.39162 C183.131205,104.205587 181.844613,104.625698 179.901596,104.625698 C178.615004,104.625698 177.459697,104.546927 176.435674,104.415642 L175.542937,101.921229 C176.960814,102.052514 178.194892,102.131285 179.297686,102.131285 C180.584278,102.131285 181.371987,101.868715 181.687071,101.396089 C181.975898,100.897207 182.185954,99.7156425 182.317239,97.8251397 L169.16249,97.8251397 L170.370311,93.0726257 Z" id="八月十五号-—-八月十五号" fill="#131F3C"></path>
            </g>
            <path d="M95.044206,190.636931 C97.0605623,189.208679 99.4129781,188.53656 101.849409,188.53656 C105.658082,188.53656 109.046681,190.216857 109.046681,194.445604 C109.046681,197.666174 106.414215,199.57051 104.00579,201.026768 C101.961428,202.258985 100.365146,203.155144 100.365146,203.659233 L109.186705,203.659233 L109.186705,208 L94.4280971,208 L94.4280971,205.731599 C94.4280971,201.138787 97.9287158,199.346471 100.645196,197.750188 C102.409508,196.714005 103.865765,196.181911 103.865765,194.725654 C103.865765,193.577451 102.829582,193.017352 101.373325,193.017352 C99.468988,193.017352 97.1165722,193.773486 95.044206,195.397773 L95.044206,190.636931 Z M111.483111,198.478317 C111.483111,193.045357 114.087572,188.53656 120.30467,188.53656 C126.521769,188.53656 129.126229,193.045357 129.126229,198.478317 C129.126229,203.911277 126.521769,208.420074 120.30467,208.420074 C114.087572,208.420074 111.483111,203.911277 111.483111,198.478317 Z M123.945314,198.478317 C123.945314,194.809669 122.797111,193.017352 120.30467,193.017352 C117.81223,193.017352 116.664027,194.809669 116.664027,198.478317 C116.664027,202.146966 117.81223,203.939282 120.30467,203.939282 C122.797111,203.939282 123.945314,202.146966 123.945314,198.478317 Z M139.180006,209.680297 L136.099462,209.680297 L147.553486,186.716238 L150.634031,186.716238 L139.180006,209.680297 Z M141.644442,193.017352 C141.644442,196.377946 139.180006,198.058243 136.323502,198.058243 C133.438992,198.058243 130.974556,196.377946 130.974556,193.017352 C130.974556,189.656758 133.438992,187.976461 136.323502,187.976461 C139.180006,187.976461 141.644442,189.656758 141.644442,193.017352 Z M134.671209,193.017352 C134.671209,193.857501 135.119289,194.697649 136.323502,194.697649 C137.499709,194.697649 137.947789,193.857501 137.947789,193.017352 C137.947789,192.177204 137.499709,191.337055 136.323502,191.337055 C135.119289,191.337055 134.671209,192.177204 134.671209,193.017352 Z M155.646917,203.379183 C155.646917,206.739777 153.182481,208.420074 150.325976,208.420074 C147.441466,208.420074 144.977031,206.739777 144.977031,203.379183 C144.977031,200.018589 147.441466,198.338292 150.325976,198.338292 C153.182481,198.338292 155.646917,200.018589 155.646917,203.379183 Z M148.673684,203.379183 C148.673684,204.219332 149.121763,205.05948 150.325976,205.05948 C151.502184,205.05948 151.950263,204.219332 151.950263,203.379183 C151.950263,202.539035 151.502184,201.698886 150.325976,201.698886 C149.121763,201.698886 148.673684,202.539035 148.673684,203.379183 Z" id="20%" fill="#131F3C"></path>
            <path d="M110.876567,224.378486 L115.248265,224.378486 L115.248265,226.446816 L110.876567,226.446816 L110.876567,224.378486 Z M110.876567,227.669011 L115.53031,227.669011 L115.53031,235.1197 L110.876567,235.1197 L110.876567,227.669011 Z M113.791032,233.333415 L113.791032,229.455296 L112.615844,229.455296 L112.615844,233.333415 L113.791032,233.333415 Z M120.372082,224.425493 L122.440412,225.318636 C121.711796,228.656168 120.724638,231.453115 119.502443,233.709475 C119.596458,234.085535 119.690473,234.438091 119.784488,234.74364 C120.23106,236.036346 120.654127,236.717955 121.053691,236.788466 C121.194713,236.764962 121.265225,235.49576 121.312232,232.980859 L123.310051,233.897505 C123.310051,237.423068 122.604939,239.185849 121.194713,239.209353 C120.301571,239.209353 119.502443,238.551248 118.797331,237.258541 C118.562293,236.882481 118.35076,236.388902 118.139226,235.824812 C117.081557,237.235038 115.882866,238.363218 114.519648,239.209353 L113.062416,237.305549 C114.754686,236.318391 116.164911,234.884662 117.340098,233.027866 C117.105061,232.134724 116.893527,231.147566 116.705497,230.066393 C116.305933,227.904048 116.023888,225.553673 115.882866,222.991764 L109.983424,222.991764 L109.983424,229.384785 C109.889409,233.568452 109.019771,236.905985 107.3275,239.420886 L105.494208,237.799128 C106.95144,235.777805 107.727064,232.980859 107.797575,229.384785 L107.797575,220.735404 L115.788851,220.735404 C115.741843,219.748247 115.741843,218.737586 115.741843,217.70342 L117.998203,217.70342 C117.998203,218.690578 117.998203,219.701239 118.045211,220.735404 L119.784488,220.735404 C119.408428,220.006788 119.008865,219.325179 118.585797,218.690578 L120.536608,218.361526 C120.936172,219.066638 121.312232,219.865766 121.664789,220.735404 L122.698954,220.735404 L122.698954,222.991764 L118.139226,222.991764 C118.233241,224.684035 118.374263,226.423312 118.562293,228.209597 C118.632805,228.867702 118.72682,229.502303 118.820835,230.066393 C119.47894,228.397627 119.996022,226.517327 120.372082,224.425493 Z M103.5669,218.455541 C104.88311,220.523871 105.893772,222.310156 106.598884,223.837899 L104.624569,225.201117 C103.872449,223.555854 102.838284,221.746066 101.522074,219.724743 L103.5669,218.455541 Z M104.742088,228.139086 L106.880929,228.985221 C105.940779,232.463776 104.88311,235.754301 103.731427,238.833293 L101.451563,237.822631 C102.720765,234.673129 103.801938,231.429611 104.742088,228.139086 Z M127.56423,227.057913 C126.929629,227.904048 126.24802,228.72668 125.542907,229.525807 L124.720276,226.893387 C126.859117,224.260967 128.433869,221.158472 129.468034,217.585902 L131.771401,218.667074 C131.301326,220.171314 130.737236,221.628547 130.055628,222.991764 L130.055628,239.303368 L127.56423,239.303368 L127.56423,227.057913 Z M140.162241,226.023748 L142.536119,226.023748 L142.536119,239.232856 L140.162241,239.232856 L140.162241,226.023748 Z M134.286303,226.09426 L136.660182,226.09426 L136.660182,229.549311 C136.613174,234.109039 135.46149,237.470075 133.228634,239.585413 L131.371838,237.963654 C133.275641,236.224376 134.239295,233.403926 134.286303,229.549311 L134.286303,226.09426 Z M137.247775,217.820939 L139.480632,217.820939 C140.890857,220.829419 143.335247,223.461839 146.813802,225.7182 L145.427081,227.810033 C142.254074,225.741703 139.903699,223.203298 138.352452,220.171314 C136.58967,223.555854 134.356814,226.188275 131.630379,228.045071 L130.267161,225.953237 C133.275641,223.884907 135.602513,221.158472 137.247775,217.820939 Z" id="减价" fill="#131F3C"></path>
        </g>
    </g>
</svg>