<?xml version="1.0" encoding="UTF-8" standalone="no"?>
<svg width="250px" height="367px" viewBox="0 0 250 367" version="1.1" xmlns="http://www.w3.org/2000/svg" xmlns:xlink="http://www.w3.org/1999/xlink">
    <!-- Generator: Sketch 49 (51002) - http://www.bohemiancoding.com/sketch -->
    <title>ch15</title>
    <desc>Created with Sketch.</desc>
    <defs>
        <radialGradient cx="101.120329%" cy="100%" fx="101.120329%" fy="100%" r="101.454359%" gradientTransform="translate(1.011203,1.000000),scale(1.000000,0.999999),rotate(90.000000),translate(-1.011203,-1.000000)" id="radialGradient-1">
            <stop stop-color="#FF9495" offset="0%"></stop>
            <stop stop-color="#FE5F60" offset="70.3742825%"></stop>
            <stop stop-color="#FF9091" offset="100%"></stop>
        </radialGradient>
        <radialGradient cx="50%" cy="50%" fx="50%" fy="50%" r="50.0301469%" id="radialGradient-2">
            <stop stop-color="#8D00FF" offset="0%"></stop>
            <stop stop-color="#5C00FE" offset="69.8959662%"></stop>
            <stop stop-color="#8900FF" offset="100%"></stop>
        </radialGradient>
    </defs>
    <g id="Monoreto" stroke="none" stroke-width="1" fill="none" fill-rule="evenodd">
        <g id="ch15" transform="translate(-1.000000, -6.000000)">
            <g id="2-copy">
                <g id="Group-2" transform="translate(126.066640, 247.762969) scale(-1, 1) translate(-126.066640, -247.762969) translate(0.566640, 122.762969)">
                    <path d="M0.773750896,124.873729 C0.773779989,116.689946 1.57209481,108.584814 3.16869536,100.558282 C4.76529591,92.5317607 7.12950015,84.7380986 10.2613081,77.1772896 C13.393116,69.6164805 17.2323564,62.4338 21.7790176,55.629254 C26.325673,48.8247085 31.4923987,42.5290333 37.2791891,36.7422459 C43.0659853,30.9554544 49.3616506,25.7887338 56.1661792,21.2420837 C62.9707136,16.6954341 70.153394,12.8562164 77.7141798,9.7244312 C85.2749598,6.59264654 93.068616,4.22846849 101.095102,2.6318982 C109.121588,1.03532325 117.226597,0.237031125 125.410328,0.237031125 L125.410328,56.3235362 C120.909297,56.3235653 116.451511,56.762639 112.036963,57.6407748 C107.62241,58.518899 103.33595,59.8192111 99.17753,61.5416993 C95.0191103,63.2641992 91.0686861,65.3757843 87.3262108,67.8764488 C83.5837413,70.3771134 80.1211632,73.2188123 76.9384532,76.4015455 C73.7557433,79.5842788 70.9140618,83.0468976 68.4134322,86.7893845 C65.9127968,90.5318831 63.8012407,94.482348 62.0787699,98.6407794 C60.3563108,102.799211 59.0560162,107.085712 58.1779036,111.500294 C57.2998202,115.914842 56.8607755,120.372669 56.8607581,124.873729 L0.773750896,124.873729 Z" id="Fill-8" fill="url(#radialGradient-1)"></path>
                    <path d="M125.475948,0.237031125 C133.652855,0.23706659 141.751206,1.03472162 149.770988,2.62999272 C157.790771,4.22526731 165.577876,6.58750783 173.132322,9.71671311 C180.68679,12.8459137 187.863445,16.6819591 194.662297,21.2248403 C201.461125,25.7677257 207.75149,30.9301581 213.533426,36.7121376 C219.315362,42.4941165 224.477725,48.7845522 229.020556,55.5834348 C233.563387,62.3823272 237.399362,69.5590225 240.528504,77.1135206 C243.657681,84.6680362 246.019921,92.4552054 247.615154,100.475028 C249.210382,108.494845 250.007981,116.593231 250.007981,124.770157 C250.007946,132.94714 249.210312,141.045555 247.615009,149.065407 C246.019781,157.085259 243.657541,164.87244 240.528289,172.426979 C237.399112,179.981512 233.563073,187.158224 229.020201,193.957105 C224.477335,200.755992 219.314897,207.046426 213.532891,212.828415 C207.75092,218.610403 201.460521,223.772824 194.661605,228.315708 C187.862718,232.858574 180.686029,236.694601 173.131525,239.823761 C165.577021,242.952955 157.789846,245.31516 149.770029,246.910411 C141.750195,248.505655 133.651809,249.303272 125.474866,249.303272 C117.297883,249.303237 109.199485,248.505586 101.179651,246.9103 C93.1597989,245.315038 85.3726007,242.952798 77.8180619,239.82358 C70.2635232,236.694386 63.0868163,232.858347 56.2879297,228.315475 C49.4890373,223.772592 43.1986028,218.61017 37.4166263,212.828182 C31.6346439,207.046217 26.4722168,200.755777 21.9293506,193.956896 C17.3864729,187.158009 13.5504514,179.98132 10.421263,172.426798 C7.29207463,164.872294 4.92986378,157.085137 3.33462466,149.06532 C1.73936229,141.045485 0.941739824,132.947099 0.941739824,124.770157 C0.941739824,124.770153 19.6218754,124.770159 56.9821467,124.770174 C56.9821641,129.267494 57.4208788,133.721635 58.2982851,138.132549 C59.175668,142.54347 60.4748997,146.826409 62.1959626,150.981403 C63.917043,155.136403 66.0268562,159.083585 68.5254489,162.82298 C71.0240415,166.562381 73.8633794,170.022135 77.0434624,173.202218 C80.2235571,176.382301 83.6832989,179.221639 87.4226764,181.720231 C91.1620597,184.218783 95.1092365,186.328602 99.2642186,188.049665 C103.419201,189.770722 107.70214,191.069954 112.113037,191.947343 C116.52394,192.824708 120.97804,193.263394 125.47536,193.263394 C129.972686,193.263377 134.426821,192.824673 138.837759,191.94729 C143.248656,191.069884 147.531613,189.770653 151.686613,188.049572 C155.841612,186.328515 159.788789,184.218696 163.52819,181.720103 C167.267567,179.221511 170.727309,176.382179 173.907404,173.202096 C177.087504,170.022012 179.926842,166.562271 182.425435,162.822876 C184.92401,159.083475 187.033823,155.136298 188.754868,150.981316 C190.475908,146.826334 191.77514,142.543394 192.652529,138.132497 C193.529912,133.721583 193.968597,129.267477 193.96858,124.770174 C193.968562,120.272854 193.529859,115.818713 192.652476,111.407799 C191.77507,106.996878 190.475838,102.713921 188.754758,98.5589274 C187.033718,94.4039337 184.923899,90.4567452 182.425307,86.7173561 C179.92672,82.977967 177.087365,79.5182309 173.907282,76.338142 C170.727198,73.1580474 167.267462,70.3187211 163.528062,67.8201401 C159.788667,65.3215532 155.841484,63.21174 151.686502,61.4906887 C147.531526,59.7696374 143.248586,58.4704115 138.837701,57.5930227 C134.426786,56.7156397 129.972686,56.2769482 125.47536,56.2769482 L125.475948,0.237031125 Z" id="Fill-8" fill="url(#radialGradient-2)"></path>
                </g>
                <circle id="Oval" fill="#FFFFFF" cx="124.90822" cy="247.671189" r="87.3982442"></circle>
                <path d="M80.1879256,274.352202 L77.8641075,274.352202 L77.8641075,271.209766 C75.9099878,270.99851 74.0614961,270.47037 72.5827028,269.651752 L72.5827028,266.694165 C74.6160436,267.988109 76.9926757,268.51625 79.1052376,268.51625 C81.4818698,268.51625 83.0926982,267.961702 83.0926982,266.218839 C83.0926982,261.940901 72.6619238,264.211905 72.6619238,257.662963 C72.6619238,254.652562 74.9593349,253.041734 77.8641075,252.698443 L77.8641075,249.5296 L80.1879256,249.5296 L80.1879256,252.672036 C81.9571962,252.804071 83.7264668,253.279397 84.9675969,254.018794 L84.9675969,256.897159 C83.4623965,255.893693 81.4026487,255.339145 79.4221219,255.365552 C77.1775249,255.365552 75.7251386,256.025728 75.7251386,257.610149 C75.7251386,261.59761 86.155913,259.458641 86.155913,266.060397 C86.155913,269.625345 83.4888036,271.051324 80.1879256,271.236173 L80.1879256,274.352202 Z M88.3212889,261.940901 C88.3212889,256.685903 90.8035491,252.619222 96.3754311,252.619222 C101.947313,252.619222 104.429573,256.685903 104.429573,261.940901 C104.429573,267.195899 101.947313,271.26258 96.3754311,271.26258 C90.8035491,271.26258 88.3212889,267.195899 88.3212889,261.940901 Z M101.392766,261.940901 C101.392766,257.768591 99.8083442,255.365552 96.3754311,255.365552 C92.916111,255.365552 91.3580966,257.768591 91.3580966,261.940901 C91.3580966,266.113211 92.916111,268.51625 96.3754311,268.51625 C99.8083442,268.51625 101.392766,266.113211 101.392766,261.940901 Z M110.529596,269.466903 C110.529596,270.655219 109.710978,271.209766 108.760325,271.209766 C107.809672,271.209766 106.964648,270.655219 106.964648,269.466903 C106.964648,268.331401 107.809672,267.776853 108.760325,267.776853 C109.710978,267.776853 110.529596,268.331401 110.529596,269.466903 Z M113.06467,261.940901 C113.06467,256.685903 115.54693,252.619222 121.118812,252.619222 C126.690694,252.619222 129.172955,256.685903 129.172955,261.940901 C129.172955,267.195899 126.690694,271.26258 121.118812,271.26258 C115.54693,271.26258 113.06467,267.195899 113.06467,261.940901 Z M126.136147,261.940901 C126.136147,257.768591 124.551725,255.365552 121.118812,255.365552 C117.659492,255.365552 116.101478,257.768591 116.101478,261.940901 C116.101478,266.113211 117.659492,268.51625 121.118812,268.51625 C124.551725,268.51625 126.136147,266.113211 126.136147,261.940901 Z M140.633603,252.962513 L143.723225,252.962513 L143.723225,264.634417 L146.812846,264.634417 L146.812846,267.248713 L143.723225,267.248713 L143.723225,270.919289 L140.818452,270.919289 L140.818452,267.248713 L131.07426,267.248713 L131.07426,264.687231 L140.633603,252.962513 Z M140.818452,264.634417 L140.818452,256.791531 L134.427952,264.634417 L140.818452,264.634417 Z M149.321514,254.441306 C151.170005,253.173769 153.203346,252.619222 155.289501,252.619222 C158.93367,252.619222 161.60078,254.309271 161.60078,257.662963 C161.60078,260.699771 159.065705,262.495448 156.636259,263.947835 C154.312441,265.321 152.120658,266.430095 152.094251,268.225773 L161.732815,268.199366 L161.732815,270.919289 L148.714152,270.919289 L148.714152,269.546124 C148.714152,265.162558 151.962216,263.498915 154.68214,261.888087 C156.768294,260.673364 158.590379,259.749118 158.590379,257.715777 C158.590379,256.157763 157.243621,255.339145 155.025431,255.339145 C153.203346,255.339145 151.222819,255.972914 149.321514,257.346079 L149.321514,254.441306 Z M165.456205,252.962513 L176.520748,252.962513 L176.520748,255.656029 L168.228943,255.656029 L167.964872,259.986781 C168.836304,259.775525 169.76055,259.669897 170.684796,259.669897 C174.144116,259.669897 177.365773,261.175097 177.365773,265.400221 C177.365773,269.282054 174.064895,271.26258 170.103841,271.26258 C168.017686,271.26258 165.931532,270.813661 164.34711,270.047857 L164.34711,267.222306 C165.852311,268.093737 167.885651,268.542657 169.76055,268.542657 C172.427659,268.542657 174.328965,267.486376 174.328965,265.373814 C174.328965,262.997182 172.295624,262.152157 169.443666,262.152157 C167.991279,262.152157 166.327637,262.442634 164.875251,262.944368 L165.456205,252.962513 Z M90.2886122,284.962513 L92.5068022,284.962513 L92.5068022,300.199366 L95.702052,300.199366 L95.702052,302.919289 L85.9314533,302.919289 L85.9314533,300.199366 L89.5228085,300.199366 L89.5228085,288.052135 L85.9314533,289.398893 L85.9314533,286.626155 L90.2886122,284.962513 Z M121.528121,284.434372 L124.248045,284.434372 L124.248045,302.919289 L121.237644,302.919289 L121.237644,289.979847 L115.401692,298.746979 L113.606014,298.746979 L107.770062,289.95344 L107.770062,302.919289 L104.759661,302.919289 L104.759661,284.434372 L107.479585,284.434372 L114.503853,295.023589 L121.528121,284.434372 Z M131.747639,302.919289 L128.737239,302.919289 L128.737239,284.434372 L131.56279,284.434372 L141.518238,297.954769 C141.491831,297.321 141.491831,296.60801 141.491831,295.921428 L141.491831,284.434372 L144.502232,284.434372 L144.502232,302.919289 L141.67668,302.919289 L131.721232,289.398893 C131.747639,290.032661 131.747639,290.745651 131.747639,291.405827 L131.747639,302.919289 Z M152.001827,302.919289 L148.991426,302.919289 L148.991426,284.434372 L156.385393,284.434372 C159.844713,284.434372 163.488882,285.807538 163.488882,290.217511 C163.488882,293.518389 161.429134,295.10281 158.999688,295.683765 L164.914861,302.919289 L161.297099,302.919289 L155.751624,296.000649 L152.001827,296.000649 L152.001827,302.919289 Z M152.001827,287.180703 L152.001827,293.333539 L156.517428,293.333539 C158.497954,293.333539 160.425667,292.62055 160.425667,290.270325 C160.425667,287.893693 158.497954,287.180703 156.517428,287.180703 L152.001827,287.180703 Z" id="$0.0425-1-MNR" fill="#131F3C"></path>
                <g id="Group-4" transform="translate(0.000000, 122.762969)"></g>
                <path d="M68.2606544,8.46480447 L70.9651237,8.93743017 C69.4947326,18.1798883 66.8165204,25.2955307 62.9042298,30.3368715 L61.092498,28.052514 C64.6371907,23.1949721 67.0265762,16.6569832 68.2606544,8.46480447 Z M77.2405427,7.41452514 C77.7919393,16.5256983 80.4438947,23.352514 85.2226656,27.8687151 L83.7522745,30.4418994 C78.5533919,25.7944134 75.5338388,18.3899441 74.6936153,8.20223464 L77.2405427,7.41452514 Z M94.9114924,16.1581006 L94.9114924,20.0441341 L105.283001,20.0441341 L105.283001,16.1581006 L94.9114924,16.1581006 Z M105.283001,13.6111732 L105.283001,9.93519553 L94.9114924,9.93519553 L94.9114924,13.6111732 L105.283001,13.6111732 Z M94.7539505,22.5910615 C94.3863528,25.8994413 93.3885874,28.6826816 91.7606544,30.9145251 L89.6600958,28.9977654 C91.2880287,26.7134078 92.1019952,23.7726257 92.1545092,20.201676 L92.1545092,7.30949721 L108.066241,7.30949721 L108.066241,27.8949721 C108.066241,29.627933 107.173504,30.4944134 105.388029,30.4944134 L102.027135,30.4944134 L101.291939,27.8162011 C102.447247,27.8949721 103.523783,27.947486 104.495291,27.947486 C105.020431,27.947486 105.283001,27.5798883 105.283001,26.8972067 L105.283001,22.5910615 L94.7539505,22.5910615 Z M124.345571,6.46927374 L127.128811,6.46927374 L127.128811,14.7664804 L137.474062,14.7664804 L137.474062,17.4446927 L127.128811,17.4446927 L127.128811,30.7307263 L124.345571,30.7307263 L124.345571,17.4446927 L113.921548,17.4446927 L113.921548,14.7664804 L124.345571,14.7664804 L124.345571,6.46927374 Z M156.851716,17.9173184 C159.68747,22.1184358 161.893057,25.7681564 163.415962,28.8664804 L160.974062,30.5731844 C159.346129,27.2385475 157.193057,23.5100559 154.488587,19.4139665 L156.851716,17.9173184 Z M146.769034,18.0748603 L149.42099,19.1251397 C147.635515,24.0351955 145.298643,27.7899441 142.357861,30.4156425 L140.02099,28.3938547 C143.0668,25.8206704 145.3249,22.3810056 146.769034,18.0748603 Z M140.152275,13.1910615 L163.678532,13.1910615 L163.678532,15.8430168 L140.152275,15.8430168 L140.152275,13.1910615 Z M149.867358,6.60055866 C151.889146,7.99217877 153.59585,9.38379888 154.98747,10.749162 L152.991939,12.7709497 C151.836632,11.4055866 150.156185,9.96145251 147.976856,8.4122905 L149.867358,6.60055866 Z M170.058978,7.15195531 L186.285794,7.15195531 L186.285794,14.8977654 L170.058978,14.8977654 L170.058978,7.15195531 Z M183.502554,12.4558659 L183.502554,9.62011173 L172.842219,9.62011173 L172.842219,12.4558659 L183.502554,12.4558659 Z M171.87071,19.0726257 L166.172945,19.0726257 L166.172945,16.4206704 L190.145571,16.4206704 L190.145571,19.0726257 L174.653951,19.0726257 L173.945012,21.3569832 L186.627135,21.3569832 C186.417079,25.8731844 185.996967,28.5513966 185.314286,29.3916201 C184.631604,30.2055866 183.345012,30.6256983 181.401995,30.6256983 C180.115403,30.6256983 178.960096,30.5469274 177.936073,30.4156425 L177.043336,27.9212291 C178.461213,28.052514 179.695291,28.1312849 180.798085,28.1312849 C182.084677,28.1312849 182.872386,27.8687151 183.18747,27.3960894 C183.476297,26.8972067 183.686353,25.7156425 183.817638,23.8251397 L170.662889,23.8251397 L171.87071,19.0726257 Z M112.529928,54.3134078 L138.786911,54.3134078 L138.786911,56.7815642 L112.529928,56.7815642 L112.529928,54.3134078 Z M68.2606544,82.4648045 L70.9651237,82.9374302 C69.4947326,92.1798883 66.8165204,99.2955307 62.9042298,104.336872 L61.092498,102.052514 C64.6371907,97.1949721 67.0265762,90.6569832 68.2606544,82.4648045 Z M77.2405427,81.4145251 C77.7919393,90.5256983 80.4438947,97.352514 85.2226656,101.868715 L83.7522745,104.441899 C78.5533919,99.7944134 75.5338388,92.3899441 74.6936153,82.2022346 L77.2405427,81.4145251 Z M94.9114924,90.1581006 L94.9114924,94.0441341 L105.283001,94.0441341 L105.283001,90.1581006 L94.9114924,90.1581006 Z M105.283001,87.6111732 L105.283001,83.9351955 L94.9114924,83.9351955 L94.9114924,87.6111732 L105.283001,87.6111732 Z M94.7539505,96.5910615 C94.3863528,99.8994413 93.3885874,102.682682 91.7606544,104.914525 L89.6600958,102.997765 C91.2880287,100.713408 92.1019952,97.7726257 92.1545092,94.201676 L92.1545092,81.3094972 L108.066241,81.3094972 L108.066241,101.894972 C108.066241,103.627933 107.173504,104.494413 105.388029,104.494413 L102.027135,104.494413 L101.291939,101.816201 C102.447247,101.894972 103.523783,101.947486 104.495291,101.947486 C105.020431,101.947486 105.283001,101.579888 105.283001,100.897207 L105.283001,96.5910615 L94.7539505,96.5910615 Z M124.345571,80.4692737 L127.128811,80.4692737 L127.128811,88.7664804 L137.474062,88.7664804 L137.474062,91.4446927 L127.128811,91.4446927 L127.128811,104.730726 L124.345571,104.730726 L124.345571,91.4446927 L113.921548,91.4446927 L113.921548,88.7664804 L124.345571,88.7664804 L124.345571,80.4692737 Z M163.442219,86.350838 L163.888587,89.0027933 L151.101437,91.3396648 L151.101437,100.765922 C151.101437,101.186034 151.311492,101.422346 151.731604,101.422346 L159.109816,101.422346 C159.634956,101.422346 159.976297,101.238547 160.186353,100.897207 C160.396409,100.529609 160.527694,99.2955307 160.606464,97.1687151 L163.232163,98.0351955 C163.074621,100.87095 162.73328,102.603911 162.260654,103.207821 C161.761772,103.785475 160.869034,104.074302 159.608699,104.074302 L151.07518,104.074302 C149.237191,104.074302 148.318196,103.102793 148.318196,101.159777 L148.318196,91.8385475 L140.231045,93.3089385 L139.810934,90.6569832 L148.318196,89.1078212 L148.318196,80.5743017 L151.101437,80.5743017 L151.101437,88.6089385 L163.442219,86.350838 Z M170.058978,81.1519553 L186.285794,81.1519553 L186.285794,88.8977654 L170.058978,88.8977654 L170.058978,81.1519553 Z M183.502554,86.4558659 L183.502554,83.6201117 L172.842219,83.6201117 L172.842219,86.4558659 L183.502554,86.4558659 Z M171.87071,93.0726257 L166.172945,93.0726257 L166.172945,90.4206704 L190.145571,90.4206704 L190.145571,93.0726257 L174.653951,93.0726257 L173.945012,95.3569832 L186.627135,95.3569832 C186.417079,99.8731844 185.996967,102.551397 185.314286,103.39162 C184.631604,104.205587 183.345012,104.625698 181.401995,104.625698 C180.115403,104.625698 178.960096,104.546927 177.936073,104.415642 L177.043336,101.921229 C178.461213,102.052514 179.695291,102.131285 180.798085,102.131285 C182.084677,102.131285 182.872386,101.868715 183.18747,101.396089 C183.476297,100.897207 183.686353,99.7156425 183.817638,97.8251397 L170.662889,97.8251397 L171.87071,93.0726257 Z" id="八月十六号-—-八月十七号" fill="#131F3C"></path>
            </g>
            <path d="M103.745567,187.956634 L107.526235,187.956634 L107.526235,202.659233 L110.49476,202.659233 L110.49476,207 L99.1247504,207 L99.1247504,202.659233 L102.485344,202.659233 L102.485344,193.08154 L99.1247504,194.341763 L99.1247504,189.720946 L103.745567,187.956634 Z M113.575304,187.928629 L126.037507,187.928629 L126.037507,192.269397 L118.224126,192.241392 L118.028091,195.041887 C118.728215,194.929867 119.428339,194.873857 120.072453,194.873857 C123.965141,194.873857 126.877655,196.638169 126.877655,200.922926 C126.877655,205.627757 122.704918,207.420074 118.448166,207.420074 C116.235775,207.420074 114.023384,206.94399 112.315082,206.131847 L112.315082,201.371005 C113.799344,202.407188 116.03974,202.939282 117.888067,202.939282 C120.044448,202.939282 121.69674,202.295168 121.69674,200.810906 C121.69674,199.606693 120.716566,198.68253 117.608017,198.654525 C116.403804,198.654525 114.667497,198.822555 112.903186,199.438664 L113.575304,187.928629 Z M136.819412,208.680297 L133.738868,208.680297 L145.192892,185.716238 L148.273437,185.716238 L136.819412,208.680297 Z M139.283848,192.017352 C139.283848,195.377946 136.819412,197.058243 133.962908,197.058243 C131.078398,197.058243 128.613962,195.377946 128.613962,192.017352 C128.613962,188.656758 131.078398,186.976461 133.962908,186.976461 C136.819412,186.976461 139.283848,188.656758 139.283848,192.017352 Z M132.310616,192.017352 C132.310616,192.857501 132.758695,193.697649 133.962908,193.697649 C135.139115,193.697649 135.587195,192.857501 135.587195,192.017352 C135.587195,191.177204 135.139115,190.337055 133.962908,190.337055 C132.758695,190.337055 132.310616,191.177204 132.310616,192.017352 Z M153.286323,202.379183 C153.286323,205.739777 150.821887,207.420074 147.965382,207.420074 C145.080873,207.420074 142.616437,205.739777 142.616437,202.379183 C142.616437,199.018589 145.080873,197.338292 147.965382,197.338292 C150.821887,197.338292 153.286323,199.018589 153.286323,202.379183 Z M146.31309,202.379183 C146.31309,203.219332 146.761169,204.05948 147.965382,204.05948 C149.14159,204.05948 149.589669,203.219332 149.589669,202.379183 C149.589669,201.539035 149.14159,200.698886 147.965382,200.698886 C146.761169,200.698886 146.31309,201.539035 146.31309,202.379183 Z" id="15%" fill="#131F3C"></path>
            <path d="M111.876567,223.378486 L116.248265,223.378486 L116.248265,225.446816 L111.876567,225.446816 L111.876567,223.378486 Z M111.876567,226.669011 L116.53031,226.669011 L116.53031,234.1197 L111.876567,234.1197 L111.876567,226.669011 Z M114.791032,232.333415 L114.791032,228.455296 L113.615844,228.455296 L113.615844,232.333415 L114.791032,232.333415 Z M121.372082,223.425493 L123.440412,224.318636 C122.711796,227.656168 121.724638,230.453115 120.502443,232.709475 C120.596458,233.085535 120.690473,233.438091 120.784488,233.74364 C121.23106,235.036346 121.654127,235.717955 122.053691,235.788466 C122.194713,235.764962 122.265225,234.49576 122.312232,231.980859 L124.310051,232.897505 C124.310051,236.423068 123.604939,238.185849 122.194713,238.209353 C121.301571,238.209353 120.502443,237.551248 119.797331,236.258541 C119.562293,235.882481 119.35076,235.388902 119.139226,234.824812 C118.081557,236.235038 116.882866,237.363218 115.519648,238.209353 L114.062416,236.305549 C115.754686,235.318391 117.164911,233.884662 118.340098,232.027866 C118.105061,231.134724 117.893527,230.147566 117.705497,229.066393 C117.305933,226.904048 117.023888,224.553673 116.882866,221.991764 L110.983424,221.991764 L110.983424,228.384785 C110.889409,232.568452 110.019771,235.905985 108.3275,238.420886 L106.494208,236.799128 C107.95144,234.777805 108.727064,231.980859 108.797575,228.384785 L108.797575,219.735404 L116.788851,219.735404 C116.741843,218.748247 116.741843,217.737586 116.741843,216.70342 L118.998203,216.70342 C118.998203,217.690578 118.998203,218.701239 119.045211,219.735404 L120.784488,219.735404 C120.408428,219.006788 120.008865,218.325179 119.585797,217.690578 L121.536608,217.361526 C121.936172,218.066638 122.312232,218.865766 122.664789,219.735404 L123.698954,219.735404 L123.698954,221.991764 L119.139226,221.991764 C119.233241,223.684035 119.374263,225.423312 119.562293,227.209597 C119.632805,227.867702 119.72682,228.502303 119.820835,229.066393 C120.47894,227.397627 120.996022,225.517327 121.372082,223.425493 Z M104.5669,217.455541 C105.88311,219.523871 106.893772,221.310156 107.598884,222.837899 L105.624569,224.201117 C104.872449,222.555854 103.838284,220.746066 102.522074,218.724743 L104.5669,217.455541 Z M105.742088,227.139086 L107.880929,227.985221 C106.940779,231.463776 105.88311,234.754301 104.731427,237.833293 L102.451563,236.822631 C103.720765,233.673129 104.801938,230.429611 105.742088,227.139086 Z M128.56423,226.057913 C127.929629,226.904048 127.24802,227.72668 126.542907,228.525807 L125.720276,225.893387 C127.859117,223.260967 129.433869,220.158472 130.468034,216.585902 L132.771401,217.667074 C132.301326,219.171314 131.737236,220.628547 131.055628,221.991764 L131.055628,238.303368 L128.56423,238.303368 L128.56423,226.057913 Z M141.162241,225.023748 L143.536119,225.023748 L143.536119,238.232856 L141.162241,238.232856 L141.162241,225.023748 Z M135.286303,225.09426 L137.660182,225.09426 L137.660182,228.549311 C137.613174,233.109039 136.46149,236.470075 134.228634,238.585413 L132.371838,236.963654 C134.275641,235.224376 135.239295,232.403926 135.286303,228.549311 L135.286303,225.09426 Z M138.247775,216.820939 L140.480632,216.820939 C141.890857,219.829419 144.335247,222.461839 147.813802,224.7182 L146.427081,226.810033 C143.254074,224.741703 140.903699,222.203298 139.352452,219.171314 C137.58967,222.555854 135.356814,225.188275 132.630379,227.045071 L131.267161,224.953237 C134.275641,222.884907 136.602513,220.158472 138.247775,216.820939 Z" id="减价" fill="#131F3C"></path>
        </g>
    </g>
</svg>