<?xml version="1.0" encoding="UTF-8" standalone="no"?>
<svg width="250px" height="366px" viewBox="0 0 250 366" version="1.1" xmlns="http://www.w3.org/2000/svg" xmlns:xlink="http://www.w3.org/1999/xlink">
    <!-- Generator: Sketch 49 (51002) - http://www.bohemiancoding.com/sketch -->
    <title>ch10</title>
    <desc>Created with Sketch.</desc>
    <defs>
        <radialGradient cx="100%" cy="50%" fx="100%" fy="50%" r="100.014205%" gradientTransform="translate(1.000000,0.500000),scale(1.000000,0.500004),rotate(89.005123),translate(-1.000000,-0.500000)" id="radialGradient-1">
            <stop stop-color="#8D00FF" offset="0%"></stop>
            <stop stop-color="#5C00FE" offset="69.8959662%"></stop>
            <stop stop-color="#8900FF" offset="100%"></stop>
        </radialGradient>
        <radialGradient cx="100%" cy="50%" fx="100%" fy="50%" r="100.011799%" gradientTransform="translate(1.000000,0.500000),scale(1.000000,0.500004),rotate(89.087948),translate(-1.000000,-0.500000)" id="radialGradient-2">
            <stop stop-color="#FF9495" offset="0%"></stop>
            <stop stop-color="#FE5F60" offset="70.3742825%"></stop>
            <stop stop-color="#FF9091" offset="100%"></stop>
        </radialGradient>
    </defs>
    <g id="Monoreto" stroke="none" stroke-width="1" fill="none" fill-rule="evenodd">
        <g id="ch10" transform="translate(0.000000, -6.000000)">
            <g id="3-copy">
                <g id="Group-Copy-2" transform="translate(0.933759, 0.000000)">
                    <g id="Group-6" transform="translate(0.000000, 122.762969)">
                        <g id="Group-31">
                            <path d="M124.524976,249.047781 C113.595699,249.047871 102.852631,247.633628 92.2957729,244.804995 C81.7389145,241.976368 71.727937,237.829799 62.2629045,232.365289 C52.7978079,226.900714 44.2011758,220.304407 36.4730082,212.576368 C28.7447764,204.848264 22.1482772,196.25176 16.6835746,186.786792 C11.218872,177.321823 7.07211127,167.31091 4.24335644,156.754116 C1.41453755,146.197257 0.000128110995,135.454189 0,124.524976 C-6.40554976e-05,113.595699 1.41415322,102.852631 4.24277994,92.2957729 C7.07140665,81.7388504 11.2179752,71.727937 16.6825497,62.2628404 C22.1472523,52.7976798 28.7436875,44.2009837 36.4719192,36.4727519 C44.2000869,28.7444561 52.796719,22.148021 62.2618155,16.6833184 C71.726848,11.2185517 81.7378255,7.07185504 92.294684,4.24310021 C102.851606,1.41434539 113.59461,0 124.524976,0 L124.523759,56.0357493 C120.027832,56.0372866 115.575206,56.4772838 111.165882,57.3557409 C106.756558,58.234198 102.47528,59.5342684 98.321986,61.255888 C94.1686916,62.9775076 90.2231932,65.0876238 86.4854909,67.5863007 C82.7477885,70.0849135 79.2896244,72.9241093 76.1110625,76.1038242 C72.9325006,79.2835391 70.0945218,82.7426641 67.5971901,86.4812632 C65.0998584,90.2198623 62.9910874,94.1661294 61.270941,98.3200643 C59.5507307,102.473935 58.2521976,106.755725 57.3752778,111.165434 C56.4983581,115.575078 56.0598982,120.027896 56.0598982,124.523887 C56.0598982,129.019879 56.4984221,133.472761 57.375406,137.882469 C58.2523898,142.292114 59.5509869,146.573967 61.2711973,150.727902 C62.9914076,154.881837 65.1002427,158.828104 67.5976385,162.566704 C70.0950342,166.305367 72.933013,169.764492 76.1117031,172.944207 C79.290329,176.123857 82.7484932,178.963053 86.4862595,181.46173 C90.2240259,183.960343 94.1695884,186.070459 98.3229468,187.792079 C102.476241,189.513634 106.757583,190.813705 111.166971,191.692098 C115.576295,192.570491 120.028985,193.010488 124.524976,193.012025 L124.524976,249.047781 Z" id="Fill-30" fill="url(#radialGradient-1)"></path>
                            <path d="M249.044074,249.047781 C238.114797,249.047871 227.371729,247.633628 216.814871,244.804995 C206.258013,241.976368 196.247035,237.829799 186.782003,232.365289 C177.316906,226.900714 168.720274,220.304407 160.992106,212.576368 C153.263875,204.848264 146.667375,196.25176 141.202673,186.786792 C135.73797,177.321823 131.591209,167.31091 128.762455,156.754116 C125.933636,146.197257 124.519226,135.454189 124.519098,124.524976 C124.519034,113.595699 125.933251,102.852631 128.761878,92.2957729 C131.590505,81.7388504 135.737073,71.727937 141.201648,62.2628404 C146.66635,52.7976798 153.262786,44.2009837 160.991017,36.4727519 C168.719185,28.7444561 177.315817,22.148021 186.780914,16.6833184 C196.245946,11.2185517 206.256924,7.07185504 216.813782,4.24310021 C227.370705,1.41434539 238.113708,0 249.044074,0 L249.042857,56.0357493 C244.54693,56.0372866 240.094304,56.4772838 235.68498,57.3557409 C231.275656,58.234198 226.994378,59.5342684 222.841084,61.255888 C218.68779,62.9775076 214.742291,65.0876238 211.004589,67.5863007 C207.266887,70.0849135 203.808722,72.9241093 200.630161,76.1038242 C197.451599,79.2835391 194.61362,82.7426641 192.116288,86.4812632 C189.618956,90.2198623 187.510185,94.1661294 185.790039,98.3200643 C184.069829,102.473935 182.771296,106.755725 181.894376,111.165434 C181.017456,115.575078 180.578996,120.027896 180.578996,124.523887 C180.578996,129.019879 181.01752,133.472761 181.894504,137.882469 C182.771488,142.292114 184.070085,146.573967 185.790295,150.727902 C187.510506,154.881837 189.619341,158.828104 192.116737,162.566704 C194.614132,166.305367 197.452111,169.764492 200.630801,172.944207 C203.809427,176.123857 207.267591,178.963053 211.005358,181.46173 C214.743124,183.960343 218.688686,186.070459 222.842045,187.792079 C226.995339,189.513634 231.276681,190.813705 235.686069,191.692098 C240.095393,192.570491 244.548083,193.010488 249.044074,193.012025 L249.044074,249.047781 Z" id="Fill-30-Copy" fill="url(#radialGradient-2)" transform="translate(186.781586, 124.523890) scale(-1, 1) translate(-186.781586, -124.523890) "></path>
                        </g>
                        <circle id="Oval" fill="#FFFFFF" cx="124.90822" cy="124.90822" r="87.3982442"></circle>
                        <path d="M77.0899016,151.589233 L74.7660835,151.589233 L74.7660835,148.446797 C72.8119638,148.235541 70.9634721,147.707401 69.4846788,146.888783 L69.4846788,143.931196 C71.5180196,145.225141 73.8946518,145.753281 76.0072137,145.753281 C78.3838458,145.753281 79.9946742,145.198734 79.9946742,143.45587 C79.9946742,139.177932 69.5638999,141.448936 69.5638999,134.899994 C69.5638999,131.889594 71.8613109,130.278765 74.7660835,129.935474 L74.7660835,126.766631 L77.0899016,126.766631 L77.0899016,129.909067 C78.8591722,130.041102 80.6284428,130.516428 81.8695729,131.255825 L81.8695729,134.134191 C80.3643726,133.130724 78.3046247,132.576176 76.3240979,132.602583 C74.0795009,132.602583 72.6271146,133.262759 72.6271146,134.84718 C72.6271146,138.834641 83.057889,136.695672 83.057889,143.297428 C83.057889,146.862376 80.3907796,148.288355 77.0899016,148.473204 L77.0899016,151.589233 Z M85.2232649,139.177932 C85.2232649,133.922934 87.7055252,129.856253 93.2774072,129.856253 C98.8492892,129.856253 101.331549,133.922934 101.331549,139.177932 C101.331549,144.43293 98.8492892,148.499611 93.2774072,148.499611 C87.7055252,148.499611 85.2232649,144.43293 85.2232649,139.177932 Z M98.2947417,139.177932 C98.2947417,135.005622 96.7103203,132.602583 93.2774072,132.602583 C89.8180871,132.602583 88.2600727,135.005622 88.2600727,139.177932 C88.2600727,143.350242 89.8180871,145.753281 93.2774072,145.753281 C96.7103203,145.753281 98.2947417,143.350242 98.2947417,139.177932 Z M107.431572,146.703934 C107.431572,147.89225 106.612954,148.446797 105.662301,148.446797 C104.711648,148.446797 103.866624,147.89225 103.866624,146.703934 C103.866624,145.568432 104.711648,145.013884 105.662301,145.013884 C106.612954,145.013884 107.431572,145.568432 107.431572,146.703934 Z M109.966646,139.177932 C109.966646,133.922934 112.448906,129.856253 118.020788,129.856253 C123.59267,129.856253 126.074931,133.922934 126.074931,139.177932 C126.074931,144.43293 123.59267,148.499611 118.020788,148.499611 C112.448906,148.499611 109.966646,144.43293 109.966646,139.177932 Z M123.038123,139.177932 C123.038123,135.005622 121.453701,132.602583 118.020788,132.602583 C114.561468,132.602583 113.003454,135.005622 113.003454,139.177932 C113.003454,143.350242 114.561468,145.753281 118.020788,145.753281 C121.453701,145.753281 123.038123,143.350242 123.038123,139.177932 Z M137.535579,130.199544 L140.625201,130.199544 L140.625201,141.871449 L143.714822,141.871449 L143.714822,144.485744 L140.625201,144.485744 L140.625201,148.15632 L137.720428,148.15632 L137.720428,144.485744 L127.976236,144.485744 L127.976236,141.924263 L137.535579,130.199544 Z M137.720428,141.871449 L137.720428,134.028562 L131.329928,141.871449 L137.720428,141.871449 Z M146.910072,130.199544 L157.974615,130.199544 L157.974615,132.89306 L149.68281,132.89306 L149.41874,137.223812 C150.290171,137.012556 151.214417,136.906928 152.138663,136.906928 C155.597983,136.906928 158.81964,138.412128 158.81964,142.637252 C158.81964,146.519085 155.518762,148.499611 151.557709,148.499611 C149.471554,148.499611 147.385399,148.050692 145.800977,147.284888 L145.800977,144.459337 C147.306178,145.330769 149.339519,145.779688 151.214417,145.779688 C153.881527,145.779688 155.782832,144.723407 155.782832,142.610845 C155.782832,140.234213 153.749491,139.389188 150.897533,139.389188 C149.445147,139.389188 147.781504,139.679666 146.329118,140.181399 L146.910072,130.199544 Z M161.169865,139.177932 C161.169865,133.922934 163.652125,129.856253 169.224007,129.856253 C174.795889,129.856253 177.27815,133.922934 177.27815,139.177932 C177.27815,144.43293 174.795889,148.499611 169.224007,148.499611 C163.652125,148.499611 161.169865,144.43293 161.169865,139.177932 Z M174.241342,139.177932 C174.241342,135.005622 172.65692,132.602583 169.224007,132.602583 C165.764687,132.602583 164.206673,135.005622 164.206673,139.177932 C164.206673,143.350242 165.764687,145.753281 169.224007,145.753281 C172.65692,145.753281 174.241342,143.350242 174.241342,139.177932 Z M88.7882131,162.199544 L91.0064031,162.199544 L91.0064031,177.436397 L94.201653,177.436397 L94.201653,180.15632 L84.4310542,180.15632 L84.4310542,177.436397 L88.0224094,177.436397 L88.0224094,165.289166 L84.4310542,166.635924 L84.4310542,163.863187 L88.7882131,162.199544 Z M120.027722,161.671404 L122.747646,161.671404 L122.747646,180.15632 L119.737245,180.15632 L119.737245,167.216879 L113.901293,175.98401 L112.105615,175.98401 L106.269663,167.190472 L106.269663,180.15632 L103.259262,180.15632 L103.259262,161.671404 L105.979186,161.671404 L113.003454,172.26062 L120.027722,161.671404 Z M130.24724,180.15632 L127.23684,180.15632 L127.23684,161.671404 L130.062391,161.671404 L140.017839,175.1918 C139.991432,174.558031 139.991432,173.845041 139.991432,173.158459 L139.991432,161.671404 L143.001833,161.671404 L143.001833,180.15632 L140.176281,180.15632 L130.220833,166.635924 C130.24724,167.269693 130.24724,167.982682 130.24724,168.642858 L130.24724,180.15632 Z M150.501428,180.15632 L147.491027,180.15632 L147.491027,161.671404 L154.884993,161.671404 C158.344314,161.671404 161.988483,163.044569 161.988483,167.454542 C161.988483,170.75542 159.928735,172.339841 157.499289,172.920796 L163.414462,180.15632 L159.7967,180.15632 L154.251225,173.23768 L150.501428,173.23768 L150.501428,180.15632 Z M150.501428,164.417734 L150.501428,170.570571 L155.017029,170.570571 C156.997555,170.570571 158.925268,169.857581 158.925268,167.507356 C158.925268,165.130724 156.997555,164.417734 155.017029,164.417734 L150.501428,164.417734 Z" id="$0.0450-1-MNR" fill="#131F3C"></path>
                    </g>
                    <path d="M67.5104549,8.46480447 L70.2149242,8.93743017 C68.7445331,18.1798883 66.0663208,25.2955307 62.1540303,30.3368715 L60.3422985,28.052514 C63.8869912,23.1949721 66.2763767,16.6569832 67.5104549,8.46480447 Z M76.4903432,7.41452514 C77.0417398,16.5256983 79.6936951,23.352514 84.4724661,27.8687151 L83.002075,30.4418994 C77.8031923,25.7944134 74.7836393,18.3899441 73.9434158,8.20223464 L76.4903432,7.41452514 Z M94.1612929,16.1581006 L94.1612929,20.0441341 L104.532801,20.0441341 L104.532801,16.1581006 L94.1612929,16.1581006 Z M104.532801,13.6111732 L104.532801,9.93519553 L94.1612929,9.93519553 L94.1612929,13.6111732 L104.532801,13.6111732 Z M94.003751,22.5910615 C93.6361532,25.8994413 92.6383879,28.6826816 91.0104549,30.9145251 L88.9098962,28.9977654 C90.5378292,26.7134078 91.3517957,23.7726257 91.4043097,20.201676 L91.4043097,7.30949721 L107.316042,7.30949721 L107.316042,27.8949721 C107.316042,29.627933 106.423304,30.4944134 104.637829,30.4944134 L101.276935,30.4944134 L100.54174,27.8162011 C101.697047,27.8949721 102.773583,27.947486 103.745092,27.947486 C104.270231,27.947486 104.532801,27.5798883 104.532801,26.8972067 L104.532801,22.5910615 L94.003751,22.5910615 Z M123.595371,6.46927374 L126.378611,6.46927374 L126.378611,14.7664804 L136.723863,14.7664804 L136.723863,17.4446927 L126.378611,17.4446927 L126.378611,30.7307263 L123.595371,30.7307263 L123.595371,17.4446927 L113.171349,17.4446927 L113.171349,14.7664804 L123.595371,14.7664804 L123.595371,6.46927374 Z M146.281405,8.46480447 L148.985874,8.93743017 C147.515483,18.1798883 144.837271,25.2955307 140.92498,30.3368715 L139.113248,28.052514 C142.657941,23.1949721 145.047326,16.6569832 146.281405,8.46480447 Z M155.261293,7.41452514 C155.81269,16.5256983 158.464645,23.352514 163.243416,27.8687151 L161.773025,30.4418994 C156.574142,25.7944134 153.554589,18.3899441 152.714366,8.20223464 L155.261293,7.41452514 Z M169.308779,7.15195531 L185.535595,7.15195531 L185.535595,14.8977654 L169.308779,14.8977654 L169.308779,7.15195531 Z M182.752354,12.4558659 L182.752354,9.62011173 L172.092019,9.62011173 L172.092019,12.4558659 L182.752354,12.4558659 Z M171.120511,19.0726257 L165.422745,19.0726257 L165.422745,16.4206704 L189.395371,16.4206704 L189.395371,19.0726257 L173.903751,19.0726257 L173.194812,21.3569832 L185.876935,21.3569832 C185.666879,25.8731844 185.246768,28.5513966 184.564086,29.3916201 C183.881405,30.2055866 182.594812,30.6256983 180.651796,30.6256983 C179.365204,30.6256983 178.209896,30.5469274 177.185874,30.4156425 L176.293136,27.9212291 C177.711014,28.052514 178.945092,28.1312849 180.047885,28.1312849 C181.334477,28.1312849 182.122187,27.8687151 182.437271,27.3960894 C182.726097,26.8972067 182.936153,25.7156425 183.067438,23.8251397 L169.91269,23.8251397 L171.120511,19.0726257 Z M111.779729,54.3134078 L138.036712,54.3134078 L138.036712,56.7815642 L111.779729,56.7815642 L111.779729,54.3134078 Z M54.3819633,82.4648045 L57.0864326,82.9374302 C55.6160415,92.1798883 52.9378292,99.2955307 49.0255387,104.336872 L47.2138069,102.052514 C50.7584996,97.1949721 53.1478851,90.6569832 54.3819633,82.4648045 Z M63.3618516,81.4145251 C63.9132482,90.5256983 66.5652035,97.352514 71.3439745,101.868715 L69.8735834,104.441899 C64.6747007,99.7944134 61.6551476,92.3899441 60.8149242,82.2022346 L63.3618516,81.4145251 Z M81.0328013,90.1581006 L81.0328013,94.0441341 L91.4043097,94.0441341 L91.4043097,90.1581006 L81.0328013,90.1581006 Z M91.4043097,87.6111732 L91.4043097,83.9351955 L81.0328013,83.9351955 L81.0328013,87.6111732 L91.4043097,87.6111732 Z M80.8752594,96.5910615 C80.5076616,99.8994413 79.5098962,102.682682 77.8819633,104.914525 L75.7814046,102.997765 C77.4093376,100.713408 78.2233041,97.7726257 78.275818,94.201676 L78.275818,81.3094972 L94.1875499,81.3094972 L94.1875499,101.894972 C94.1875499,103.627933 93.2948125,104.494413 91.5093376,104.494413 L88.1484437,104.494413 L87.4132482,101.816201 C88.5685555,101.894972 89.6450918,101.947486 90.6166002,101.947486 C91.1417398,101.947486 91.4043097,101.579888 91.4043097,100.897207 L91.4043097,96.5910615 L80.8752594,96.5910615 Z M102.353472,83.0424581 L121.205986,83.0424581 L121.205986,85.7469274 L102.353472,85.7469274 L102.353472,83.0424581 Z M99.9115722,99.5581006 L123.621628,99.5581006 L123.621628,102.315084 L99.9115722,102.315084 L99.9115722,99.5581006 Z M136.723863,80.4692737 L139.507103,80.4692737 L139.507103,88.7664804 L149.852354,88.7664804 L149.852354,91.4446927 L139.507103,91.4446927 L139.507103,104.730726 L136.723863,104.730726 L136.723863,91.4446927 L126.29984,91.4446927 L126.29984,88.7664804 L136.723863,88.7664804 L136.723863,80.4692737 Z M159.409896,82.4648045 L162.114366,82.9374302 C160.643974,92.1798883 157.965762,99.2955307 154.053472,104.336872 L152.24174,102.052514 C155.786433,97.1949721 158.175818,90.6569832 159.409896,82.4648045 Z M168.389785,81.4145251 C168.941181,90.5256983 171.593136,97.352514 176.371907,101.868715 L174.901516,104.441899 C169.702634,99.7944134 166.683081,92.3899441 165.842857,82.2022346 L168.389785,81.4145251 Z M182.437271,81.1519553 L198.664086,81.1519553 L198.664086,88.8977654 L182.437271,88.8977654 L182.437271,81.1519553 Z M195.880846,86.4558659 L195.880846,83.6201117 L185.220511,83.6201117 L185.220511,86.4558659 L195.880846,86.4558659 Z M184.249002,93.0726257 L178.551237,93.0726257 L178.551237,90.4206704 L202.523863,90.4206704 L202.523863,93.0726257 L187.032243,93.0726257 L186.323304,95.3569832 L199.005427,95.3569832 C198.795371,99.8731844 198.375259,102.551397 197.692578,103.39162 C197.009896,104.205587 195.723304,104.625698 193.780287,104.625698 C192.493695,104.625698 191.338388,104.546927 190.314366,104.415642 L189.421628,101.921229 C190.839505,102.052514 192.073583,102.131285 193.176377,102.131285 C194.462969,102.131285 195.250678,101.868715 195.565762,101.396089 C195.854589,100.897207 196.064645,99.7156425 196.19593,97.8251397 L183.041181,97.8251397 L184.249002,93.0726257 Z" id="八月十八号-—-八月二十八号" fill="#131F3C"></path>
                </g>
            </g>
            <path d="M102.205295,187.956634 L105.985963,187.956634 L105.985963,202.659233 L108.954488,202.659233 L108.954488,207 L97.5844782,207 L97.5844782,202.659233 L100.945072,202.659233 L100.945072,193.08154 L97.5844782,194.341763 L97.5844782,189.720946 L102.205295,187.956634 Z M110.66279,197.478317 C110.66279,192.045357 113.26725,187.53656 119.484349,187.53656 C125.701447,187.53656 128.305908,192.045357 128.305908,197.478317 C128.305908,202.911277 125.701447,207.420074 119.484349,207.420074 C113.26725,207.420074 110.66279,202.911277 110.66279,197.478317 Z M123.124992,197.478317 C123.124992,193.809669 121.976789,192.017352 119.484349,192.017352 C116.991908,192.017352 115.843705,193.809669 115.843705,197.478317 C115.843705,201.146966 116.991908,202.939282 119.484349,202.939282 C121.976789,202.939282 123.124992,201.146966 123.124992,197.478317 Z M138.359685,208.680297 L135.27914,208.680297 L146.733165,185.716238 L149.813709,185.716238 L138.359685,208.680297 Z M140.82412,192.017352 C140.82412,195.377946 138.359685,197.058243 135.50318,197.058243 C132.61867,197.058243 130.154234,195.377946 130.154234,192.017352 C130.154234,188.656758 132.61867,186.976461 135.50318,186.976461 C138.359685,186.976461 140.82412,188.656758 140.82412,192.017352 Z M133.850888,192.017352 C133.850888,192.857501 134.298967,193.697649 135.50318,193.697649 C136.679388,193.697649 137.127467,192.857501 137.127467,192.017352 C137.127467,191.177204 136.679388,190.337055 135.50318,190.337055 C134.298967,190.337055 133.850888,191.177204 133.850888,192.017352 Z M154.826595,202.379183 C154.826595,205.739777 152.362159,207.420074 149.505655,207.420074 C146.621145,207.420074 144.156709,205.739777 144.156709,202.379183 C144.156709,199.018589 146.621145,197.338292 149.505655,197.338292 C152.362159,197.338292 154.826595,199.018589 154.826595,202.379183 Z M147.853363,202.379183 C147.853363,203.219332 148.301442,204.05948 149.505655,204.05948 C150.681862,204.05948 151.129942,203.219332 151.129942,202.379183 C151.129942,201.539035 150.681862,200.698886 149.505655,200.698886 C148.301442,200.698886 147.853363,201.539035 147.853363,202.379183 Z" id="10%" fill="#131F3C"></path>
            <path d="M111.876567,223.378486 L116.248265,223.378486 L116.248265,225.446816 L111.876567,225.446816 L111.876567,223.378486 Z M111.876567,226.669011 L116.53031,226.669011 L116.53031,234.1197 L111.876567,234.1197 L111.876567,226.669011 Z M114.791032,232.333415 L114.791032,228.455296 L113.615844,228.455296 L113.615844,232.333415 L114.791032,232.333415 Z M121.372082,223.425493 L123.440412,224.318636 C122.711796,227.656168 121.724638,230.453115 120.502443,232.709475 C120.596458,233.085535 120.690473,233.438091 120.784488,233.74364 C121.23106,235.036346 121.654127,235.717955 122.053691,235.788466 C122.194713,235.764962 122.265225,234.49576 122.312232,231.980859 L124.310051,232.897505 C124.310051,236.423068 123.604939,238.185849 122.194713,238.209353 C121.301571,238.209353 120.502443,237.551248 119.797331,236.258541 C119.562293,235.882481 119.35076,235.388902 119.139226,234.824812 C118.081557,236.235038 116.882866,237.363218 115.519648,238.209353 L114.062416,236.305549 C115.754686,235.318391 117.164911,233.884662 118.340098,232.027866 C118.105061,231.134724 117.893527,230.147566 117.705497,229.066393 C117.305933,226.904048 117.023888,224.553673 116.882866,221.991764 L110.983424,221.991764 L110.983424,228.384785 C110.889409,232.568452 110.019771,235.905985 108.3275,238.420886 L106.494208,236.799128 C107.95144,234.777805 108.727064,231.980859 108.797575,228.384785 L108.797575,219.735404 L116.788851,219.735404 C116.741843,218.748247 116.741843,217.737586 116.741843,216.70342 L118.998203,216.70342 C118.998203,217.690578 118.998203,218.701239 119.045211,219.735404 L120.784488,219.735404 C120.408428,219.006788 120.008865,218.325179 119.585797,217.690578 L121.536608,217.361526 C121.936172,218.066638 122.312232,218.865766 122.664789,219.735404 L123.698954,219.735404 L123.698954,221.991764 L119.139226,221.991764 C119.233241,223.684035 119.374263,225.423312 119.562293,227.209597 C119.632805,227.867702 119.72682,228.502303 119.820835,229.066393 C120.47894,227.397627 120.996022,225.517327 121.372082,223.425493 Z M104.5669,217.455541 C105.88311,219.523871 106.893772,221.310156 107.598884,222.837899 L105.624569,224.201117 C104.872449,222.555854 103.838284,220.746066 102.522074,218.724743 L104.5669,217.455541 Z M105.742088,227.139086 L107.880929,227.985221 C106.940779,231.463776 105.88311,234.754301 104.731427,237.833293 L102.451563,236.822631 C103.720765,233.673129 104.801938,230.429611 105.742088,227.139086 Z M128.56423,226.057913 C127.929629,226.904048 127.24802,227.72668 126.542907,228.525807 L125.720276,225.893387 C127.859117,223.260967 129.433869,220.158472 130.468034,216.585902 L132.771401,217.667074 C132.301326,219.171314 131.737236,220.628547 131.055628,221.991764 L131.055628,238.303368 L128.56423,238.303368 L128.56423,226.057913 Z M141.162241,225.023748 L143.536119,225.023748 L143.536119,238.232856 L141.162241,238.232856 L141.162241,225.023748 Z M135.286303,225.09426 L137.660182,225.09426 L137.660182,228.549311 C137.613174,233.109039 136.46149,236.470075 134.228634,238.585413 L132.371838,236.963654 C134.275641,235.224376 135.239295,232.403926 135.286303,228.549311 L135.286303,225.09426 Z M138.247775,216.820939 L140.480632,216.820939 C141.890857,219.829419 144.335247,222.461839 147.813802,224.7182 L146.427081,226.810033 C143.254074,224.741703 140.903699,222.203298 139.352452,219.171314 C137.58967,222.555854 135.356814,225.188275 132.630379,227.045071 L131.267161,224.953237 C134.275641,222.884907 136.602513,220.158472 138.247775,216.820939 Z" id="减价" fill="#131F3C"></path>
        </g>
    </g>
</svg>