<?xml version="1.0" encoding="UTF-8" standalone="no"?>
<svg width="250px" height="365px" viewBox="0 0 250 365" version="1.1" xmlns="http://www.w3.org/2000/svg" xmlns:xlink="http://www.w3.org/1999/xlink">
    <!-- Generator: Sketch 49 (51002) - http://www.bohemiancoding.com/sketch -->
    <title>ch5</title>
    <desc>Created with Sketch.</desc>
    <defs>
        <radialGradient cx="100%" cy="100%" fx="100%" fy="100%" r="100.47898%" gradientTransform="translate(1.000000,1.000000),scale(1.000000,0.999999),rotate(90.000000),translate(-1.000000,-1.000000)" id="radialGradient-1">
            <stop stop-color="#8D00FF" offset="0%"></stop>
            <stop stop-color="#5C00FE" offset="69.8959662%"></stop>
            <stop stop-color="#8900FF" offset="100%"></stop>
        </radialGradient>
        <radialGradient cx="50%" cy="50%" fx="50%" fy="50%" r="50.0253367%" id="radialGradient-2">
            <stop stop-color="#FF9495" offset="0%"></stop>
            <stop stop-color="#FE5F60" offset="70.3742825%"></stop>
            <stop stop-color="#FF9091" offset="100%"></stop>
        </radialGradient>
    </defs>
    <g id="Monoreto" stroke="none" stroke-width="1" fill="none" fill-rule="evenodd">
        <g id="ch5" transform="translate(0.000000, -7.000000)">
            <g id="4-copy">
                <g id="Group-Copy-3" transform="translate(0.545890, 0.588188)">
                    <g id="Group-3" transform="translate(0.000000, 121.762969)">
                        <g id="Group-8">
                            <path d="M0,125.013369 C2.91814549e-05,116.804853 0.800756631,108.675226 2.40218235,100.624437 C4.00360807,92.5736583 6.37495729,84.7564426 9.51623002,77.1727836 C12.6575028,69.5891246 16.5083459,62.384737 21.0687478,55.5596266 C25.6291439,48.7345168 30.8114843,42.4198151 36.6157632,36.6155391 C42.420048,30.811259 48.7347397,25.6289238 55.5598326,21.068533 C62.3849314,16.5081428 69.589319,12.6573224 77.1729546,9.51607244 C84.7565844,6.37482306 92.5737943,4.0035001 100.624537,2.40210473 C108.675281,0.800704688 116.804785,0 125.013248,0 L125.013248,56.256007 C120.498614,56.2560362 116.027356,56.6964369 111.599467,57.5772266 C107.171572,58.4580046 102.872157,59.7622464 98.7011703,61.4899402 C94.5301832,63.2176458 90.5678202,65.3356124 86.8140346,67.8438344 C83.0602548,70.3520563 79.5872123,73.2023432 76.3948837,76.3946952 C73.2025551,79.5870471 70.3522856,83.0601305 67.8440987,86.8139278 C65.335906,90.5677368 63.2179685,94.5301406 61.4902922,98.7011394 C59.7626275,102.872138 58.4584032,107.171594 57.5776369,111.599518 C56.6968997,116.027406 56.2565282,120.498706 56.2565107,125.013369 L0,125.013369 Z" id="Fill-8" fill="url(#radialGradient-1)"></path>
                            <path d="M124.740231,0 C132.917139,3.54646161e-05 140.809466,0.797690493 148.829249,2.3929616 C156.849031,3.98823619 164.636136,6.35047671 172.190582,9.47968199 C179.745051,12.6088826 186.921705,16.4449279 193.720557,20.9878092 C200.519385,25.5306945 206.80975,30.693127 212.591686,36.4751065 C218.373622,42.2570854 223.535985,48.5475211 228.078816,55.3464036 C232.621648,62.1452961 236.457622,69.3219914 239.586764,76.8764895 C242.715941,84.431005 245.078181,92.2181743 246.673414,100.237997 C248.268642,108.257814 249.066241,116.3562 249.066241,124.533125 C249.066206,132.710109 248.268572,140.808524 246.673269,148.828376 C245.078041,156.848228 242.715802,164.635409 239.586549,172.189947 C236.457372,179.74448 232.621334,186.921193 228.078462,193.720074 C223.535595,200.518961 218.373157,206.809395 212.591151,212.591383 C206.80918,218.373372 200.518781,223.535793 193.719865,228.078677 C186.920978,232.621543 179.744289,236.45757 172.189785,239.586729 C164.635281,242.715924 156.848106,245.078129 148.828289,246.673379 C140.808455,248.268624 132.710069,249.066241 124.533126,249.066241 C116.356143,249.066206 108.257746,248.268555 100.237911,246.673269 C92.2180591,245.078007 84.4308608,242.715767 76.8763221,239.586549 C69.3217834,236.457355 62.1450765,232.621316 55.3461899,228.078444 C48.5472975,223.53556 42.256863,218.373139 36.4748864,212.591151 C30.6929041,206.809186 25.5304769,200.518746 20.9876108,193.719865 C16.4447331,186.920978 12.6087116,179.744289 9.4795232,172.189767 C6.3503348,164.635263 3.98812395,156.848106 2.39288484,148.828289 C0.797622465,140.808454 5.00693342e-16,132.710068 0,124.533125 C0,124.533122 18.6801356,124.533128 56.0404068,124.533143 C56.0404243,129.030463 56.479139,133.484604 57.3565452,137.895518 C58.2339282,142.306439 59.5331599,146.589378 61.2542228,150.744372 C62.9753032,154.899372 65.0851164,158.846554 67.5837091,162.585949 C70.0823017,166.32535 72.9216395,169.785103 76.1017226,172.965187 C79.2818172,176.14527 82.7415591,178.984607 86.4809366,181.4832 C90.2203198,183.981752 94.1674967,186.091571 98.3224788,187.812634 C102.477461,189.533691 106.7604,190.832923 111.171297,191.710312 C115.5822,192.587677 120.0363,193.026363 124.533621,193.026363 C129.030947,193.026345 133.485081,192.587642 137.896019,191.710259 C142.306916,190.832853 146.589873,189.533621 150.744873,187.812541 C154.899872,186.091484 158.847049,183.981665 162.58645,181.483072 C166.325827,178.98448 169.785569,176.145147 172.965664,172.965064 C176.145764,169.784981 178.985102,166.325239 181.483695,162.585845 C183.98227,158.846444 186.092083,154.899267 187.813129,150.744285 C189.534168,146.589303 190.8334,142.306363 191.710789,137.895466 C192.588172,133.484552 193.026857,129.030446 193.02684,124.533143 C193.026823,120.035823 192.588119,115.581682 191.710736,111.170767 C190.83333,106.759847 189.534099,102.47689 187.813018,98.3218963 C186.091979,94.1669026 183.982159,90.2197141 181.483567,86.480325 C178.98498,82.7409359 176.145625,79.2811998 172.965542,76.1011109 C169.785459,72.9210162 166.325723,70.08169 162.586322,67.583109 C158.846927,65.0845221 154.899744,62.9747088 150.744762,61.2536575 C146.589786,59.5326062 142.306846,58.2333804 137.895961,57.3559916 C133.485047,56.4786086 129.030947,56.0399171 124.533621,56.0399171 L124.740231,0 Z" id="Fill-8" fill="url(#radialGradient-2)"></path>
                        </g>
                    </g>
                    <circle id="Oval" fill="#FFFFFF" cx="124.90822" cy="246.671189" r="87.3982442"></circle>
                    <path d="M80.636845,272.728204 L78.3130269,272.728204 L78.3130269,269.585769 C76.3589072,269.374512 74.5104155,268.846372 73.0316222,268.027754 L73.0316222,265.070168 C75.064963,266.364112 77.4415951,266.892252 79.554157,266.892252 C81.9307892,266.892252 83.5416176,266.337705 83.5416176,264.594841 C83.5416176,260.316903 73.1108433,262.587907 73.1108433,256.038965 C73.1108433,253.028565 75.4082543,251.417736 78.3130269,251.074445 L78.3130269,247.905602 L80.636845,247.905602 L80.636845,251.048038 C82.4061156,251.180073 84.1753862,251.655399 85.4165163,252.394796 L85.4165163,255.273162 C83.911316,254.269695 81.8515681,253.715147 79.8710413,253.741554 C77.6264443,253.741554 76.174058,254.40173 76.174058,255.986151 C76.174058,259.973612 86.6048324,257.834643 86.6048324,264.436399 C86.6048324,268.001347 83.937723,269.427326 80.636845,269.612176 L80.636845,272.728204 Z M88.7702083,260.316903 C88.7702083,255.061906 91.2524685,250.995224 96.8243505,250.995224 C102.396233,250.995224 104.878493,255.061906 104.878493,260.316903 C104.878493,265.571901 102.396233,269.638583 96.8243505,269.638583 C91.2524685,269.638583 88.7702083,265.571901 88.7702083,260.316903 Z M101.841685,260.316903 C101.841685,256.144593 100.257264,253.741554 96.8243505,253.741554 C93.3650304,253.741554 91.807016,256.144593 91.807016,260.316903 C91.807016,264.489213 93.3650304,266.892252 96.8243505,266.892252 C100.257264,266.892252 101.841685,264.489213 101.841685,260.316903 Z M110.978515,267.842905 C110.978515,269.031221 110.159898,269.585769 109.209245,269.585769 C108.258592,269.585769 107.413567,269.031221 107.413567,267.842905 C107.413567,266.707403 108.258592,266.152855 109.209245,266.152855 C110.159898,266.152855 110.978515,266.707403 110.978515,267.842905 Z M113.51359,260.316903 C113.51359,255.061906 115.99585,250.995224 121.567732,250.995224 C127.139614,250.995224 129.621874,255.061906 129.621874,260.316903 C129.621874,265.571901 127.139614,269.638583 121.567732,269.638583 C115.99585,269.638583 113.51359,265.571901 113.51359,260.316903 Z M126.585066,260.316903 C126.585066,256.144593 125.000645,253.741554 121.567732,253.741554 C118.108412,253.741554 116.550397,256.144593 116.550397,260.316903 C116.550397,264.489213 118.108412,266.892252 121.567732,266.892252 C125.000645,266.892252 126.585066,264.489213 126.585066,260.316903 Z M141.082522,251.338515 L144.172144,251.338515 L144.172144,263.01042 L147.261766,263.01042 L147.261766,265.624715 L144.172144,265.624715 L144.172144,269.295291 L141.267371,269.295291 L141.267371,265.624715 L131.52318,265.624715 L131.52318,263.063234 L141.082522,251.338515 Z M141.267371,263.01042 L141.267371,255.167534 L134.876872,263.01042 L141.267371,263.01042 Z M148.714152,251.338515 L162.049699,251.338515 L162.049699,253.715147 L154.602918,269.295291 L151.354855,269.295291 L158.643193,254.032032 L148.714152,254.032032 L148.714152,251.338515 Z M165.007286,251.338515 L176.071829,251.338515 L176.071829,254.032032 L167.780023,254.032032 L167.515953,258.362783 C168.387385,258.151527 169.311631,258.045899 170.235876,258.045899 C173.695197,258.045899 176.916853,259.5511 176.916853,263.776223 C176.916853,267.658056 173.615976,269.638583 169.654922,269.638583 C167.568767,269.638583 165.482612,269.189663 163.898191,268.42386 L163.898191,265.598308 C165.403391,266.46974 167.436732,266.918659 169.311631,266.918659 C171.97874,266.918659 173.880046,265.862378 173.880046,263.749816 C173.880046,261.373184 171.846705,260.528159 168.994746,260.528159 C167.54236,260.528159 165.878718,260.818637 164.426331,261.32037 L165.007286,251.338515 Z M90.2886122,283.338515 L92.5068022,283.338515 L92.5068022,298.575368 L95.702052,298.575368 L95.702052,301.295291 L85.9314533,301.295291 L85.9314533,298.575368 L89.5228085,298.575368 L89.5228085,286.428137 L85.9314533,287.774895 L85.9314533,285.002158 L90.2886122,283.338515 Z M121.528121,282.810375 L124.248045,282.810375 L124.248045,301.295291 L121.237644,301.295291 L121.237644,288.35585 L115.401692,297.122982 L113.606014,297.122982 L107.770062,288.329443 L107.770062,301.295291 L104.759661,301.295291 L104.759661,282.810375 L107.479585,282.810375 L114.503853,293.399591 L121.528121,282.810375 Z M131.747639,301.295291 L128.737239,301.295291 L128.737239,282.810375 L131.56279,282.810375 L141.518238,296.330771 C141.491831,295.697002 141.491831,294.984013 141.491831,294.29743 L141.491831,282.810375 L144.502232,282.810375 L144.502232,301.295291 L141.67668,301.295291 L131.721232,287.774895 C131.747639,288.408664 131.747639,289.121653 131.747639,289.781829 L131.747639,301.295291 Z M152.001827,301.295291 L148.991426,301.295291 L148.991426,282.810375 L156.385393,282.810375 C159.844713,282.810375 163.488882,284.18354 163.488882,288.593513 C163.488882,291.894391 161.429134,293.478812 158.999688,294.059767 L164.914861,301.295291 L161.297099,301.295291 L155.751624,294.376651 L152.001827,294.376651 L152.001827,301.295291 Z M152.001827,285.556705 L152.001827,291.709542 L156.517428,291.709542 C158.497954,291.709542 160.425667,290.996552 160.425667,288.646327 C160.425667,286.269695 158.497954,285.556705 156.517428,285.556705 L152.001827,285.556705 Z" id="$0.0475-1-MNR" fill="#131F3C"></path>
                    <path d="M52.8815642,8.46480447 L55.5860335,8.93743017 C54.1156425,18.1798883 51.4374302,25.2955307 47.5251397,30.3368715 L45.7134078,28.052514 C49.2581006,23.1949721 51.647486,16.6569832 52.8815642,8.46480447 Z M61.8614525,7.41452514 C62.4128492,16.5256983 65.0648045,23.352514 69.8435754,27.8687151 L68.3731844,30.4418994 C63.1743017,25.7944134 60.1547486,18.3899441 59.3145251,8.20223464 L61.8614525,7.41452514 Z M79.5324022,16.1581006 L79.5324022,20.0441341 L89.9039106,20.0441341 L89.9039106,16.1581006 L79.5324022,16.1581006 Z M89.9039106,13.6111732 L89.9039106,9.93519553 L79.5324022,9.93519553 L79.5324022,13.6111732 L89.9039106,13.6111732 Z M79.3748603,22.5910615 C79.0072626,25.8994413 78.0094972,28.6826816 76.3815642,30.9145251 L74.2810056,28.9977654 C75.9089385,26.7134078 76.722905,23.7726257 76.775419,20.201676 L76.775419,7.30949721 L92.6871508,7.30949721 L92.6871508,27.8949721 C92.6871508,29.627933 91.7944134,30.4944134 90.0089385,30.4944134 L86.6480447,30.4944134 L85.9128492,27.8162011 C87.0681564,27.8949721 88.1446927,27.947486 89.1162011,27.947486 C89.6413408,27.947486 89.9039106,27.5798883 89.9039106,26.8972067 L89.9039106,22.5910615 L79.3748603,22.5910615 Z M100.853073,9.0424581 L119.705587,9.0424581 L119.705587,11.7469274 L100.853073,11.7469274 L100.853073,9.0424581 Z M98.4111732,25.5581006 L122.121229,25.5581006 L122.121229,28.3150838 L98.4111732,28.3150838 L98.4111732,25.5581006 Z M135.223464,6.46927374 L138.006704,6.46927374 L138.006704,14.7664804 L148.351955,14.7664804 L148.351955,17.4446927 L138.006704,17.4446927 L138.006704,30.7307263 L135.223464,30.7307263 L135.223464,17.4446927 L124.799441,17.4446927 L124.799441,14.7664804 L135.223464,14.7664804 L135.223464,6.46927374 Z M158.881006,6.46927374 L161.637989,6.46927374 L161.637989,11.8519553 L169.278771,11.8519553 L169.278771,26.424581 C169.278771,27.2385475 169.72514,27.6586592 170.644134,27.6586592 L171.300559,27.6586592 C171.825698,27.6586592 172.167039,27.2648045 172.298324,26.503352 C172.350838,25.3743017 172.403352,24.1664804 172.403352,22.9061453 L174.976536,23.6413408 C174.792737,26.1620112 174.608939,27.7374302 174.42514,28.3150838 C174.083799,29.6804469 173.059777,30.3631285 171.326816,30.3631285 L170.197765,30.3631285 C167.677095,30.3631285 166.41676,29.1815642 166.41676,26.8709497 L166.41676,14.5826816 L161.559218,14.5826816 C161.296648,18.626257 160.535196,21.9083799 159.27486,24.4290503 C157.856983,27.1072626 155.572626,29.1553073 152.421788,30.5731844 L150.820112,28.026257 C153.918436,26.503352 155.992737,24.6128492 157.069274,22.3547486 C157.988268,20.2804469 158.565922,17.6810056 158.802235,14.5826816 L152.421788,14.5826816 L152.421788,11.8519553 L158.881006,11.8519553 L158.881006,6.46927374 Z M180.936872,7.15195531 L197.163687,7.15195531 L197.163687,14.8977654 L180.936872,14.8977654 L180.936872,7.15195531 Z M194.380447,12.4558659 L194.380447,9.62011173 L183.720112,9.62011173 L183.720112,12.4558659 L194.380447,12.4558659 Z M182.748603,19.0726257 L177.050838,19.0726257 L177.050838,16.4206704 L201.023464,16.4206704 L201.023464,19.0726257 L185.531844,19.0726257 L184.822905,21.3569832 L197.505028,21.3569832 C197.294972,25.8731844 196.87486,28.5513966 196.192179,29.3916201 C195.509497,30.2055866 194.222905,30.6256983 192.279888,30.6256983 C190.993296,30.6256983 189.837989,30.5469274 188.813966,30.4156425 L187.921229,27.9212291 C189.339106,28.052514 190.573184,28.1312849 191.675978,28.1312849 C192.96257,28.1312849 193.750279,27.8687151 194.065363,27.3960894 C194.35419,26.8972067 194.564246,25.7156425 194.695531,23.8251397 L181.540782,23.8251397 L182.748603,19.0726257 Z M110.27933,54.3134078 L136.536313,54.3134078 L136.536313,56.7815642 L110.27933,56.7815642 L110.27933,54.3134078 Z M80.1100559,80.4692737 L82.8670391,80.4692737 L82.8670391,85.8519553 L90.5078212,85.8519553 L90.5078212,100.424581 C90.5078212,101.238547 90.9541899,101.658659 91.8731844,101.658659 L92.5296089,101.658659 C93.0547486,101.658659 93.3960894,101.264804 93.5273743,100.503352 C93.5798883,99.3743017 93.6324022,98.1664804 93.6324022,96.9061453 L96.2055866,97.6413408 C96.0217877,100.162011 95.8379888,101.73743 95.6541899,102.315084 C95.3128492,103.680447 94.2888268,104.363128 92.5558659,104.363128 L91.4268156,104.363128 C88.9061453,104.363128 87.6458101,103.181564 87.6458101,100.87095 L87.6458101,88.5826816 L82.7882682,88.5826816 C82.5256983,92.626257 81.7642458,95.9083799 80.5039106,98.4290503 C79.0860335,101.107263 76.801676,103.155307 73.650838,104.573184 L72.049162,102.026257 C75.147486,100.503352 77.2217877,98.6128492 78.298324,96.3547486 C79.2173184,94.2804469 79.7949721,91.6810056 80.0312849,88.5826816 L73.650838,88.5826816 L73.650838,85.8519553 L80.1100559,85.8519553 L80.1100559,80.4692737 Z M105.789385,90.1581006 L105.789385,94.0441341 L116.160894,94.0441341 L116.160894,90.1581006 L105.789385,90.1581006 Z M116.160894,87.6111732 L116.160894,83.9351955 L105.789385,83.9351955 L105.789385,87.6111732 L116.160894,87.6111732 Z M105.631844,96.5910615 C105.264246,99.8994413 104.26648,102.682682 102.638547,104.914525 L100.537989,102.997765 C102.165922,100.713408 102.979888,97.7726257 103.032402,94.201676 L103.032402,81.3094972 L118.944134,81.3094972 L118.944134,101.894972 C118.944134,103.627933 118.051397,104.494413 116.265922,104.494413 L112.905028,104.494413 L112.169832,101.816201 C113.32514,101.894972 114.401676,101.947486 115.373184,101.947486 C115.898324,101.947486 116.160894,101.579888 116.160894,100.897207 L116.160894,96.5910615 L105.631844,96.5910615 Z M135.223464,80.4692737 L138.006704,80.4692737 L138.006704,88.7664804 L148.351955,88.7664804 L148.351955,91.4446927 L138.006704,91.4446927 L138.006704,104.730726 L135.223464,104.730726 L135.223464,91.4446927 L124.799441,91.4446927 L124.799441,88.7664804 L135.223464,88.7664804 L135.223464,80.4692737 Z M154.679888,81.1519553 L170.906704,81.1519553 L170.906704,88.8977654 L154.679888,88.8977654 L154.679888,81.1519553 Z M168.123464,86.4558659 L168.123464,83.6201117 L157.463128,83.6201117 L157.463128,86.4558659 L168.123464,86.4558659 Z M156.49162,93.0726257 L150.793855,93.0726257 L150.793855,90.4206704 L174.76648,90.4206704 L174.76648,93.0726257 L159.27486,93.0726257 L158.565922,95.3569832 L171.248045,95.3569832 C171.037989,99.8731844 170.617877,102.551397 169.935196,103.39162 C169.252514,104.205587 167.965922,104.625698 166.022905,104.625698 C164.736313,104.625698 163.581006,104.546927 162.556983,104.415642 L161.664246,101.921229 C163.082123,102.052514 164.316201,102.131285 165.418994,102.131285 C166.705587,102.131285 167.493296,101.868715 167.80838,101.396089 C168.097207,100.897207 168.307263,99.7156425 168.438547,97.8251397 L155.283799,97.8251397 L156.49162,93.0726257 Z" id="八月二十九号-—-九月十号" fill="#131F3C"></path>
                </g>
            </g>
            <path d="M106.882121,188.928629 L119.344324,188.928629 L119.344324,193.269397 L111.530943,193.241392 L111.334908,196.041887 C112.035032,195.929867 112.735156,195.873857 113.37927,195.873857 C117.271958,195.873857 120.184472,197.638169 120.184472,201.922926 C120.184472,206.627757 116.011735,208.420074 111.754983,208.420074 C109.542592,208.420074 107.330201,207.94399 105.621899,207.131847 L105.621899,202.371005 C107.106161,203.407188 109.346557,203.939282 111.194884,203.939282 C113.351265,203.939282 115.003557,203.295168 115.003557,201.810906 C115.003557,200.606693 114.023384,199.68253 110.914834,199.654525 C109.710621,199.654525 107.974314,199.822555 106.210003,200.438664 L106.882121,188.928629 Z M130.126229,209.680297 L127.045685,209.680297 L138.499709,186.716238 L141.580254,186.716238 L130.126229,209.680297 Z M132.590665,193.017352 C132.590665,196.377946 130.126229,198.058243 127.269725,198.058243 C124.385215,198.058243 121.920779,196.377946 121.920779,193.017352 C121.920779,189.656758 124.385215,187.976461 127.269725,187.976461 C130.126229,187.976461 132.590665,189.656758 132.590665,193.017352 Z M125.617433,193.017352 C125.617433,193.857501 126.065512,194.697649 127.269725,194.697649 C128.445933,194.697649 128.894012,193.857501 128.894012,193.017352 C128.894012,192.177204 128.445933,191.337055 127.269725,191.337055 C126.065512,191.337055 125.617433,192.177204 125.617433,193.017352 Z M146.59314,203.379183 C146.59314,206.739777 144.128704,208.420074 141.272199,208.420074 C138.38769,208.420074 135.923254,206.739777 135.923254,203.379183 C135.923254,200.018589 138.38769,198.338292 141.272199,198.338292 C144.128704,198.338292 146.59314,200.018589 146.59314,203.379183 Z M139.619907,203.379183 C139.619907,204.219332 140.067987,205.05948 141.272199,205.05948 C142.448407,205.05948 142.896486,204.219332 142.896486,203.379183 C142.896486,202.539035 142.448407,201.698886 141.272199,201.698886 C140.067987,201.698886 139.619907,202.539035 139.619907,203.379183 Z" id="5%" fill="#131F3C"></path>
            <path d="M111.876567,224.378486 L116.248265,224.378486 L116.248265,226.446816 L111.876567,226.446816 L111.876567,224.378486 Z M111.876567,227.669011 L116.53031,227.669011 L116.53031,235.1197 L111.876567,235.1197 L111.876567,227.669011 Z M114.791032,233.333415 L114.791032,229.455296 L113.615844,229.455296 L113.615844,233.333415 L114.791032,233.333415 Z M121.372082,224.425493 L123.440412,225.318636 C122.711796,228.656168 121.724638,231.453115 120.502443,233.709475 C120.596458,234.085535 120.690473,234.438091 120.784488,234.74364 C121.23106,236.036346 121.654127,236.717955 122.053691,236.788466 C122.194713,236.764962 122.265225,235.49576 122.312232,232.980859 L124.310051,233.897505 C124.310051,237.423068 123.604939,239.185849 122.194713,239.209353 C121.301571,239.209353 120.502443,238.551248 119.797331,237.258541 C119.562293,236.882481 119.35076,236.388902 119.139226,235.824812 C118.081557,237.235038 116.882866,238.363218 115.519648,239.209353 L114.062416,237.305549 C115.754686,236.318391 117.164911,234.884662 118.340098,233.027866 C118.105061,232.134724 117.893527,231.147566 117.705497,230.066393 C117.305933,227.904048 117.023888,225.553673 116.882866,222.991764 L110.983424,222.991764 L110.983424,229.384785 C110.889409,233.568452 110.019771,236.905985 108.3275,239.420886 L106.494208,237.799128 C107.95144,235.777805 108.727064,232.980859 108.797575,229.384785 L108.797575,220.735404 L116.788851,220.735404 C116.741843,219.748247 116.741843,218.737586 116.741843,217.70342 L118.998203,217.70342 C118.998203,218.690578 118.998203,219.701239 119.045211,220.735404 L120.784488,220.735404 C120.408428,220.006788 120.008865,219.325179 119.585797,218.690578 L121.536608,218.361526 C121.936172,219.066638 122.312232,219.865766 122.664789,220.735404 L123.698954,220.735404 L123.698954,222.991764 L119.139226,222.991764 C119.233241,224.684035 119.374263,226.423312 119.562293,228.209597 C119.632805,228.867702 119.72682,229.502303 119.820835,230.066393 C120.47894,228.397627 120.996022,226.517327 121.372082,224.425493 Z M104.5669,218.455541 C105.88311,220.523871 106.893772,222.310156 107.598884,223.837899 L105.624569,225.201117 C104.872449,223.555854 103.838284,221.746066 102.522074,219.724743 L104.5669,218.455541 Z M105.742088,228.139086 L107.880929,228.985221 C106.940779,232.463776 105.88311,235.754301 104.731427,238.833293 L102.451563,237.822631 C103.720765,234.673129 104.801938,231.429611 105.742088,228.139086 Z M128.56423,227.057913 C127.929629,227.904048 127.24802,228.72668 126.542907,229.525807 L125.720276,226.893387 C127.859117,224.260967 129.433869,221.158472 130.468034,217.585902 L132.771401,218.667074 C132.301326,220.171314 131.737236,221.628547 131.055628,222.991764 L131.055628,239.303368 L128.56423,239.303368 L128.56423,227.057913 Z M141.162241,226.023748 L143.536119,226.023748 L143.536119,239.232856 L141.162241,239.232856 L141.162241,226.023748 Z M135.286303,226.09426 L137.660182,226.09426 L137.660182,229.549311 C137.613174,234.109039 136.46149,237.470075 134.228634,239.585413 L132.371838,237.963654 C134.275641,236.224376 135.239295,233.403926 135.286303,229.549311 L135.286303,226.09426 Z M138.247775,217.820939 L140.480632,217.820939 C141.890857,220.829419 144.335247,223.461839 147.813802,225.7182 L146.427081,227.810033 C143.254074,225.741703 140.903699,223.203298 139.352452,220.171314 C137.58967,223.555854 135.356814,226.188275 132.630379,228.045071 L131.267161,225.953237 C134.275641,223.884907 136.602513,221.158472 138.247775,217.820939 Z" id="减价" fill="#131F3C"></path>
        </g>
    </g>
</svg>