<?xml version="1.0" encoding="UTF-8" standalone="no"?>
<svg width="250px" height="365px" viewBox="0 0 250 365" version="1.1" xmlns="http://www.w3.org/2000/svg" xmlns:xlink="http://www.w3.org/1999/xlink">
    <!-- Generator: Sketch 49 (51002) - http://www.bohemiancoding.com/sketch -->
    <title>ch0</title>
    <desc>Created with Sketch.</desc>
    <defs>
        <radialGradient cx="50%" cy="50%" fx="50%" fy="50%" r="50.0253367%" gradientTransform="translate(0.500000,0.500000),scale(1.000000,1.000000),rotate(88.176375),translate(-0.500000,-0.500000)" id="radialGradient-1">
            <stop stop-color="#FF9495" offset="0%"></stop>
            <stop stop-color="#FE5F60" offset="70.3742825%"></stop>
            <stop stop-color="#FF9091" offset="100%"></stop>
        </radialGradient>
    </defs>
    <g id="Monoreto" stroke="none" stroke-width="1" fill="none" fill-rule="evenodd">
        <g id="ch0" transform="translate(0.000000, -7.000000)">
            <g id="5-copy">
                <g id="Group-7" transform="translate(0.637670, 122.351157)">
                    <path d="M124.637764,0 C132.821471,3.54941064e-05 140.926556,0.798353806 148.953007,2.39495144 C156.979458,3.99155257 164.773039,6.3557574 172.333767,9.48756474 C179.894518,12.6193674 187.07714,16.4586026 193.881645,21.0052615 C200.686127,25.5519244 206.981723,30.7186496 212.768466,36.505437 C218.55521,42.2922239 223.721866,48.5878904 228.268475,55.3924265 C232.815084,62.1969726 236.654249,69.3796356 239.785993,76.9404155 C242.917771,84.501213 245.281976,92.2948576 246.878535,100.321349 C248.475089,108.347835 249.273352,116.452955 249.273352,124.63668 C249.273317,132.820463 248.47502,140.925612 246.87839,148.952133 C245.281836,156.978654 242.917632,164.77231 239.785777,172.333131 C236.653998,179.893946 232.81477,187.076626 228.26812,193.88116 C223.721476,200.685701 218.554745,206.981366 212.767931,212.768162 C206.981152,218.554958 200.685522,223.721672 193.880953,228.268334 C187.076412,232.814977 179.893755,236.654194 172.332969,239.785956 C164.772184,242.917752 156.978533,245.281921 148.952047,246.878499 C140.925544,248.47507 132.820424,249.27335 124.636682,249.27335 C116.452899,249.273315 108.347767,248.475 100.321264,246.878388 C92.2947429,245.281799 84.5010693,242.917595 76.9402486,239.785775 C69.3794278,236.653979 62.1967532,232.81475 55.392213,228.268101 C48.5876669,223.72144 42.2920016,218.554726 36.5052171,212.767929 C30.7184267,206.981156 25.5517068,200.685485 21.005063,193.880951 C16.4584077,187.076411 12.6191964,179.893754 9.48740589,172.33295 C6.35561542,164.772164 3.99144027,156.978532 2.39487464,148.952046 C0.798285727,140.925542 0,132.820422 0,124.63668 C2.90935298e-05,116.452914 0.798343914,108.347783 2.39494446,100.32125 C3.99154501,92.2947296 6.35574925,84.5010675 9.48755718,76.9402584 C12.6193651,69.3794494 16.4586055,62.1967689 21.0052667,55.3922229 C25.5519221,48.5876774 30.7186478,42.2920022 36.5054382,36.5052148 C42.2922344,30.7184232 48.5878997,25.5517027 55.3924283,21.0050526 C62.1969627,16.458403 69.3796431,12.6191853 76.9404289,9.48740007 C84.5012089,6.35561542 92.2948651,3.99143736 100.321351,2.39486707 C108.347837,0.798292128 116.452951,4.65496476e-06 124.636682,4.65496476e-06 L124.636577,56.086505 C120.135546,56.0865341 115.67776,56.5256079 111.263212,57.4037437 C106.848659,58.2818679 102.562199,59.5821799 98.4037791,61.3046682 C94.2453594,63.0271681 90.2949352,65.1387532 86.5524599,67.6394177 C82.8099904,70.1400823 79.3474123,72.9817811 76.1647023,76.1645144 C72.9819924,79.3472476 70.1403109,82.8098664 67.6396813,86.5523534 C65.1390459,90.294852 63.0274898,94.2453169 61.305019,98.4037482 C59.5825599,102.56218 58.2822653,106.848681 57.4041528,111.263263 C56.5260693,115.67781 56.0870247,120.135637 56.0870072,124.636697 C56.0870247,129.137757 56.5261042,133.595602 57.40424,138.010184 C58.2823526,142.424773 59.5826646,146.711274 61.3051587,150.869722 C63.0276702,155.028177 65.1392379,158.978642 67.6399082,162.721146 C70.1405786,166.463656 72.9822775,169.926287 76.1650049,173.109014 C79.347744,176.291742 82.8103628,179.133441 86.5528497,181.634111 C90.2953425,184.134741 94.2458016,186.246314 98.4042387,187.968808 C102.562676,189.691296 106.849177,190.991608 111.263742,191.869727 C115.678313,192.747822 120.136116,193.186872 124.637176,193.186872 C129.138242,193.186855 133.596081,192.747787 138.010686,191.869674 C142.425251,190.991539 146.71177,189.691227 150.870224,187.968715 C155.028679,186.246227 158.979138,184.134653 162.721648,181.633983 C166.464135,179.133313 169.926754,176.29162 173.109493,173.108892 C176.292238,169.926165 179.133937,166.463546 181.634607,162.721042 C184.13526,158.978531 186.246828,155.028072 187.969305,150.869635 C189.691775,146.711198 190.992087,142.424697 191.870206,138.010132 C192.748318,133.59555 193.187369,129.13774 193.187351,124.636697 C193.187334,120.135637 192.748266,115.677793 191.870153,111.263211 C190.992018,106.848622 189.691706,102.562104 187.969194,98.4036551 C186.246723,94.2452064 184.13515,90.2947356 181.634479,86.552237 C179.133815,82.8097384 176.292098,79.3471254 173.109371,76.1643922 C169.926644,72.9816531 166.464031,70.1399659 162.72152,67.6393072 C158.979016,65.1386426 155.028551,63.027075 150.870114,61.3045925 C146.711683,59.5821101 142.425182,58.2818039 138.010628,57.4036855 C133.596046,56.525573 129.138242,56.0865167 124.637176,56.0865167 L124.637764,0 Z" id="Fill-8" fill="url(#radialGradient-1)"></path>
                    <circle id="Oval" fill="#FFFFFF" cx="124.90822" cy="124.90822" r="87.3982442"></circle>
                    <path d="M77.8377005,151.589233 L75.5138824,151.589233 L75.5138824,148.446797 C73.5597627,148.235541 71.711271,147.707401 70.2324777,146.888783 L70.2324777,143.931196 C72.2658185,145.225141 74.6424506,145.753281 76.7550125,145.753281 C79.1316447,145.753281 80.7424731,145.198734 80.7424731,143.45587 C80.7424731,139.177932 70.3116987,141.448936 70.3116987,134.899994 C70.3116987,131.889594 72.6091098,130.278765 75.5138824,129.935474 L75.5138824,126.766631 L77.8377005,126.766631 L77.8377005,129.909067 C79.6069711,130.041102 81.3762417,130.516428 82.6173718,131.255825 L82.6173718,134.134191 C81.1121714,133.130724 79.0524236,132.576176 77.0718968,132.602583 C74.8272998,132.602583 73.3749135,133.262759 73.3749135,134.84718 C73.3749135,138.834641 83.8056879,136.695672 83.8056879,143.297428 C83.8056879,146.862376 81.1385785,148.288355 77.8377005,148.473204 L77.8377005,151.589233 Z M85.9710638,139.177932 C85.9710638,133.922934 88.453324,129.856253 94.025206,129.856253 C99.597088,129.856253 102.079348,133.922934 102.079348,139.177932 C102.079348,144.43293 99.597088,148.499611 94.025206,148.499611 C88.453324,148.499611 85.9710638,144.43293 85.9710638,139.177932 Z M99.0425405,139.177932 C99.0425405,135.005622 97.4581191,132.602583 94.025206,132.602583 C90.5658859,132.602583 89.0078715,135.005622 89.0078715,139.177932 C89.0078715,143.350242 90.5658859,145.753281 94.025206,145.753281 C97.4581191,145.753281 99.0425405,143.350242 99.0425405,139.177932 Z M108.179371,146.703934 C108.179371,147.89225 107.360753,148.446797 106.4101,148.446797 C105.459447,148.446797 104.614423,147.89225 104.614423,146.703934 C104.614423,145.568432 105.459447,145.013884 106.4101,145.013884 C107.360753,145.013884 108.179371,145.568432 108.179371,146.703934 Z M110.714445,139.177932 C110.714445,133.922934 113.196705,129.856253 118.768587,129.856253 C124.340469,129.856253 126.822729,133.922934 126.822729,139.177932 C126.822729,144.43293 124.340469,148.499611 118.768587,148.499611 C113.196705,148.499611 110.714445,144.43293 110.714445,139.177932 Z M123.785922,139.177932 C123.785922,135.005622 122.2015,132.602583 118.768587,132.602583 C115.309267,132.602583 113.751253,135.005622 113.751253,139.177932 C113.751253,143.350242 115.309267,145.753281 118.768587,145.753281 C122.2015,145.753281 123.785922,143.350242 123.785922,139.177932 Z M130.519713,130.199544 L141.584256,130.199544 L141.584256,132.89306 L133.29245,132.89306 L133.02838,137.223812 C133.899812,137.012556 134.824058,136.906928 135.748304,136.906928 C139.207624,136.906928 142.429281,138.412128 142.429281,142.637252 C142.429281,146.519085 139.128403,148.499611 135.167349,148.499611 C133.081194,148.499611 130.995039,148.050692 129.410618,147.284888 L129.410618,144.459337 C130.915818,145.330769 132.949159,145.779688 134.824058,145.779688 C137.491167,145.779688 139.392473,144.723407 139.392473,142.610845 C139.392473,140.234213 137.359132,139.389188 134.507173,139.389188 C133.054787,139.389188 131.391145,139.679666 129.938758,140.181399 L130.519713,130.199544 Z M144.779506,139.177932 C144.779506,133.922934 147.261766,129.856253 152.833648,129.856253 C158.40553,129.856253 160.88779,133.922934 160.88779,139.177932 C160.88779,144.43293 158.40553,148.499611 152.833648,148.499611 C147.261766,148.499611 144.779506,144.43293 144.779506,139.177932 Z M157.850982,139.177932 C157.850982,135.005622 156.266561,132.602583 152.833648,132.602583 C149.374328,132.602583 147.816313,135.005622 147.816313,139.177932 C147.816313,143.350242 149.374328,145.753281 152.833648,145.753281 C156.266561,145.753281 157.850982,143.350242 157.850982,139.177932 Z M163.422864,139.177932 C163.422864,133.922934 165.905125,129.856253 171.477007,129.856253 C177.048889,129.856253 179.531149,133.922934 179.531149,139.177932 C179.531149,144.43293 177.048889,148.499611 171.477007,148.499611 C165.905125,148.499611 163.422864,144.43293 163.422864,139.177932 Z M176.494341,139.177932 C176.494341,135.005622 174.90992,132.602583 171.477007,132.602583 C168.017686,132.602583 166.459672,135.005622 166.459672,139.177932 C166.459672,143.350242 168.017686,145.753281 171.477007,145.753281 C174.90992,145.753281 176.494341,143.350242 176.494341,139.177932 Z M90.2886122,162.199544 L92.5068022,162.199544 L92.5068022,177.436397 L95.702052,177.436397 L95.702052,180.15632 L85.9314533,180.15632 L85.9314533,177.436397 L89.5228085,177.436397 L89.5228085,165.289166 L85.9314533,166.635924 L85.9314533,163.863187 L90.2886122,162.199544 Z M121.528121,161.671404 L124.248045,161.671404 L124.248045,180.15632 L121.237644,180.15632 L121.237644,167.216879 L115.401692,175.98401 L113.606014,175.98401 L107.770062,167.190472 L107.770062,180.15632 L104.759661,180.15632 L104.759661,161.671404 L107.479585,161.671404 L114.503853,172.26062 L121.528121,161.671404 Z M131.747639,180.15632 L128.737239,180.15632 L128.737239,161.671404 L131.56279,161.671404 L141.518238,175.1918 C141.491831,174.558031 141.491831,173.845041 141.491831,173.158459 L141.491831,161.671404 L144.502232,161.671404 L144.502232,180.15632 L141.67668,180.15632 L131.721232,166.635924 C131.747639,167.269693 131.747639,167.982682 131.747639,168.642858 L131.747639,180.15632 Z M152.001827,180.15632 L148.991426,180.15632 L148.991426,161.671404 L156.385393,161.671404 C159.844713,161.671404 163.488882,163.044569 163.488882,167.454542 C163.488882,170.75542 161.429134,172.339841 158.999688,172.920796 L164.914861,180.15632 L161.297099,180.15632 L155.751624,173.23768 L152.001827,173.23768 L152.001827,180.15632 Z M152.001827,164.417734 L152.001827,170.570571 L156.517428,170.570571 C158.497954,170.570571 160.425667,169.857581 160.425667,167.507356 C160.425667,165.130724 158.497954,164.417734 156.517428,164.417734 L152.001827,164.417734 Z" id="$0.0500-1-MNR" fill="#131F3C"></path>
                </g>
                <path d="M69.4947326,7.05746209 L72.2517159,7.05746209 L72.2517159,12.4401437 L79.892498,12.4401437 L79.892498,27.0127694 C79.892498,27.8267358 80.3388667,28.2468476 81.2578611,28.2468476 L81.9142857,28.2468476 C82.4394254,28.2468476 82.7807662,27.8529928 82.9120511,27.0915403 C82.964565,25.96249 83.017079,24.7546688 83.017079,23.4943336 L85.5902634,24.2295291 C85.4064645,26.7501995 85.2226656,28.3256185 85.0388667,28.9032721 C84.6975259,30.2686353 83.6735036,30.9513168 81.9405427,30.9513168 L80.8114924,30.9513168 C78.290822,30.9513168 77.0304868,29.7697526 77.0304868,27.4591381 L77.0304868,15.1708699 L72.1729449,15.1708699 C71.9103751,19.2144453 71.1489226,22.4965682 69.8885874,25.0172386 C68.4707103,27.6954509 66.1863528,29.7434956 63.0355148,31.1613727 L61.4338388,28.6144453 C64.5321628,27.0915403 66.6064645,25.2010375 67.6830008,22.942937 C68.6019952,20.8686353 69.1796488,18.2691939 69.4159617,15.1708699 L63.0355148,15.1708699 L63.0355148,12.4401437 L69.4947326,12.4401437 L69.4947326,7.05746209 Z M95.1740623,16.7462889 L95.1740623,20.6323224 L105.545571,20.6323224 L105.545571,16.7462889 L95.1740623,16.7462889 Z M105.545571,14.1993615 L105.545571,10.5233839 L95.1740623,10.5233839 L95.1740623,14.1993615 L105.545571,14.1993615 Z M95.0165204,23.1792498 C94.6489226,26.4876297 93.6511572,29.2708699 92.0232243,31.5027135 L89.9226656,29.5859537 C91.5505986,27.3015962 92.364565,24.360814 92.417079,20.7898643 L92.417079,7.89768555 L108.328811,7.89768555 L108.328811,28.4831604 C108.328811,30.2161213 107.436073,31.0826018 105.650599,31.0826018 L102.289705,31.0826018 L101.554509,28.4043895 C102.709816,28.4831604 103.786353,28.5356744 104.757861,28.5356744 C105.283001,28.5356744 105.545571,28.1680766 105.545571,27.4853951 L105.545571,23.1792498 L95.0165204,23.1792498 Z M124.60814,7.05746209 L127.391381,7.05746209 L127.391381,15.3546688 L137.736632,15.3546688 L137.736632,18.0328811 L127.391381,18.0328811 L127.391381,31.3189146 L124.60814,31.3189146 L124.60814,18.0328811 L114.184118,18.0328811 L114.184118,15.3546688 L124.60814,15.3546688 L124.60814,7.05746209 Z M140.231045,17.5865124 L164.098643,17.5865124 L164.098643,20.3172386 L140.231045,20.3172386 L140.231045,17.5865124 Z M170.321548,7.74014366 L186.548364,7.74014366 L186.548364,15.4859537 L170.321548,15.4859537 L170.321548,7.74014366 Z M183.765124,13.0440543 L183.765124,10.2083001 L173.104789,10.2083001 L173.104789,13.0440543 L183.765124,13.0440543 Z M172.13328,19.660814 L166.435515,19.660814 L166.435515,17.0088587 L190.40814,17.0088587 L190.40814,19.660814 L174.91652,19.660814 L174.207582,21.9451716 L186.889705,21.9451716 C186.679649,26.4613727 186.259537,29.139585 185.576856,29.9798085 C184.894174,30.7937749 183.607582,31.2138867 181.664565,31.2138867 C180.377973,31.2138867 179.222666,31.1351157 178.198643,31.0038308 L177.305906,28.5094174 C178.723783,28.6407023 179.957861,28.7194733 181.060654,28.7194733 C182.347247,28.7194733 183.134956,28.4569034 183.45004,27.9842777 C183.738867,27.4853951 183.948923,26.3038308 184.080208,24.413328 L170.925459,24.413328 L172.13328,19.660814 Z M112.792498,54.9015962 L139.049481,54.9015962 L139.049481,57.3697526 L112.792498,57.3697526 L112.792498,54.9015962 Z M69.4947326,81.0574621 L72.2517159,81.0574621 L72.2517159,86.4401437 L79.892498,86.4401437 L79.892498,101.012769 C79.892498,101.826736 80.3388667,102.246848 81.2578611,102.246848 L81.9142857,102.246848 C82.4394254,102.246848 82.7807662,101.852993 82.9120511,101.09154 C82.964565,99.96249 83.017079,98.7546688 83.017079,97.4943336 L85.5902634,98.2295291 C85.4064645,100.7502 85.2226656,102.325619 85.0388667,102.903272 C84.6975259,104.268635 83.6735036,104.951317 81.9405427,104.951317 L80.8114924,104.951317 C78.290822,104.951317 77.0304868,103.769753 77.0304868,101.459138 L77.0304868,89.1708699 L72.1729449,89.1708699 C71.9103751,93.2144453 71.1489226,96.4965682 69.8885874,99.0172386 C68.4707103,101.695451 66.1863528,103.743496 63.0355148,105.161373 L61.4338388,102.614445 C64.5321628,101.09154 66.6064645,99.2010375 67.6830008,96.942937 C68.6019952,94.8686353 69.1796488,92.2691939 69.4159617,89.1708699 L63.0355148,89.1708699 L63.0355148,86.4401437 L69.4947326,86.4401437 L69.4947326,81.0574621 Z M95.1740623,90.7462889 L95.1740623,94.6323224 L105.545571,94.6323224 L105.545571,90.7462889 L95.1740623,90.7462889 Z M105.545571,88.1993615 L105.545571,84.5233839 L95.1740623,84.5233839 L95.1740623,88.1993615 L105.545571,88.1993615 Z M95.0165204,97.1792498 C94.6489226,100.48763 93.6511572,103.27087 92.0232243,105.502713 L89.9226656,103.585954 C91.5505986,101.301596 92.364565,98.360814 92.417079,94.7898643 L92.417079,81.8976856 L108.328811,81.8976856 L108.328811,102.48316 C108.328811,104.216121 107.436073,105.082602 105.650599,105.082602 L102.289705,105.082602 L101.554509,102.404389 C102.709816,102.48316 103.786353,102.535674 104.757861,102.535674 C105.283001,102.535674 105.545571,102.168077 105.545571,101.485395 L105.545571,97.1792498 L95.0165204,97.1792498 Z M115.890822,82.764166 L136.003671,82.764166 L136.003671,85.4423783 L115.890822,85.4423783 L115.890822,82.764166 Z M117.676297,91.7440543 L134.191939,91.7440543 L134.191939,94.4222666 L117.676297,94.4222666 L117.676297,91.7440543 Z M114.000319,101.406624 L137.84166,101.406624 L137.84166,104.13735 L114.000319,104.13735 L114.000319,101.406624 Z M150.865124,81.0574621 L153.648364,81.0574621 L153.648364,89.3546688 L163.993615,89.3546688 L163.993615,92.0328811 L153.648364,92.0328811 L153.648364,105.318915 L150.865124,105.318915 L150.865124,92.0328811 L140.441101,92.0328811 L140.441101,89.3546688 L150.865124,89.3546688 L150.865124,81.0574621 Z M170.321548,81.7401437 L186.548364,81.7401437 L186.548364,89.4859537 L170.321548,89.4859537 L170.321548,81.7401437 Z M183.765124,87.0440543 L183.765124,84.2083001 L173.104789,84.2083001 L173.104789,87.0440543 L183.765124,87.0440543 Z M172.13328,93.660814 L166.435515,93.660814 L166.435515,91.0088587 L190.40814,91.0088587 L190.40814,93.660814 L174.91652,93.660814 L174.207582,95.9451716 L186.889705,95.9451716 C186.679649,100.461373 186.259537,103.139585 185.576856,103.979808 C184.894174,104.793775 183.607582,105.213887 181.664565,105.213887 C180.377973,105.213887 179.222666,105.135116 178.198643,105.003831 L177.305906,102.509417 C178.723783,102.640702 179.957861,102.719473 181.060654,102.719473 C182.347247,102.719473 183.134956,102.456903 183.45004,101.984278 C183.738867,101.485395 183.948923,100.303831 184.080208,98.413328 L170.925459,98.413328 L172.13328,93.660814 Z" id="九月十一号-—-九月三十号" fill="#131F3C"></path>
            </g>
            <path d="M104.086127,198.478317 C104.086127,193.045357 106.690587,188.53656 112.907686,188.53656 C119.124785,188.53656 121.729245,193.045357 121.729245,198.478317 C121.729245,203.911277 119.124785,208.420074 112.907686,208.420074 C106.690587,208.420074 104.086127,203.911277 104.086127,198.478317 Z M116.54833,198.478317 C116.54833,194.809669 115.400127,193.017352 112.907686,193.017352 C110.415246,193.017352 109.267043,194.809669 109.267043,198.478317 C109.267043,202.146966 110.415246,203.939282 112.907686,203.939282 C115.400127,203.939282 116.54833,202.146966 116.54833,198.478317 Z M131.783022,209.680297 L128.702478,209.680297 L140.156502,186.716238 L143.237046,186.716238 L131.783022,209.680297 Z M134.247458,193.017352 C134.247458,196.377946 131.783022,198.058243 128.926517,198.058243 C126.042007,198.058243 123.577572,196.377946 123.577572,193.017352 C123.577572,189.656758 126.042007,187.976461 128.926517,187.976461 C131.783022,187.976461 134.247458,189.656758 134.247458,193.017352 Z M127.274225,193.017352 C127.274225,193.857501 127.722304,194.697649 128.926517,194.697649 C130.102725,194.697649 130.550804,193.857501 130.550804,193.017352 C130.550804,192.177204 130.102725,191.337055 128.926517,191.337055 C127.722304,191.337055 127.274225,192.177204 127.274225,193.017352 Z M148.249932,203.379183 C148.249932,206.739777 145.785497,208.420074 142.928992,208.420074 C140.044482,208.420074 137.580047,206.739777 137.580047,203.379183 C137.580047,200.018589 140.044482,198.338292 142.928992,198.338292 C145.785497,198.338292 148.249932,200.018589 148.249932,203.379183 Z M141.2767,203.379183 C141.2767,204.219332 141.724779,205.05948 142.928992,205.05948 C144.1052,205.05948 144.553279,204.219332 144.553279,203.379183 C144.553279,202.539035 144.1052,201.698886 142.928992,201.698886 C141.724779,201.698886 141.2767,202.539035 141.2767,203.379183 Z" id="0%" fill="#131F3C"></path>
            <path d="M111.861403,224.378486 L116.233101,224.378486 L116.233101,226.446816 L111.861403,226.446816 L111.861403,224.378486 Z M111.861403,227.669011 L116.515146,227.669011 L116.515146,235.1197 L111.861403,235.1197 L111.861403,227.669011 Z M114.775868,233.333415 L114.775868,229.455296 L113.600681,229.455296 L113.600681,233.333415 L114.775868,233.333415 Z M121.356919,224.425493 L123.425249,225.318636 C122.696632,228.656168 121.709475,231.453115 120.48728,233.709475 C120.581295,234.085535 120.67531,234.438091 120.769325,234.74364 C121.215896,236.036346 121.638964,236.717955 122.038527,236.788466 C122.17955,236.764962 122.250061,235.49576 122.297069,232.980859 L124.294887,233.897505 C124.294887,237.423068 123.589775,239.185849 122.17955,239.209353 C121.286407,239.209353 120.48728,238.551248 119.782167,237.258541 C119.54713,236.882481 119.335596,236.388902 119.124062,235.824812 C118.066393,237.235038 116.867702,238.363218 115.504485,239.209353 L114.047252,237.305549 C115.739522,236.318391 117.149747,234.884662 118.324935,233.027866 C118.089897,232.134724 117.878363,231.147566 117.690333,230.066393 C117.29077,227.904048 117.008725,225.553673 116.867702,222.991764 L110.968261,222.991764 L110.968261,229.384785 C110.874246,233.568452 110.004607,236.905985 108.312337,239.420886 L106.479044,237.799128 C107.936277,235.777805 108.711901,232.980859 108.782412,229.384785 L108.782412,220.735404 L116.773687,220.735404 C116.72668,219.748247 116.72668,218.737586 116.72668,217.70342 L118.98304,217.70342 C118.98304,218.690578 118.98304,219.701239 119.030047,220.735404 L120.769325,220.735404 C120.393265,220.006788 119.993701,219.325179 119.570634,218.690578 L121.521445,218.361526 C121.921009,219.066638 122.297069,219.865766 122.649625,220.735404 L123.68379,220.735404 L123.68379,222.991764 L119.124062,222.991764 C119.218077,224.684035 119.3591,226.423312 119.54713,228.209597 C119.617641,228.867702 119.711656,229.502303 119.805671,230.066393 C120.463776,228.397627 120.980859,226.517327 121.356919,224.425493 Z M104.551737,218.455541 C105.867947,220.523871 106.878608,222.310156 107.583721,223.837899 L105.609405,225.201117 C104.857285,223.555854 103.82312,221.746066 102.50691,219.724743 L104.551737,218.455541 Z M105.726924,228.139086 L107.865766,228.985221 C106.925616,232.463776 105.867947,235.754301 104.716263,238.833293 L102.436399,237.822631 C103.705602,234.673129 104.786774,231.429611 105.726924,228.139086 Z M128.549066,227.057913 C127.914465,227.904048 127.232856,228.72668 126.527744,229.525807 L125.705113,226.893387 C127.843954,224.260967 129.418705,221.158472 130.45287,217.585902 L132.756238,218.667074 C132.286163,220.171314 131.722073,221.628547 131.040464,222.991764 L131.040464,239.303368 L128.549066,239.303368 L128.549066,227.057913 Z M141.147077,226.023748 L143.520956,226.023748 L143.520956,239.232856 L141.147077,239.232856 L141.147077,226.023748 Z M135.271139,226.09426 L137.645018,226.09426 L137.645018,229.549311 C137.598011,234.109039 136.446327,237.470075 134.21347,239.585413 L132.356674,237.963654 C134.260478,236.224376 135.224132,233.403926 135.271139,229.549311 L135.271139,226.09426 Z M138.232612,217.820939 L140.465468,217.820939 C141.875693,220.829419 144.320083,223.461839 147.798638,225.7182 L146.411917,227.810033 C143.238911,225.741703 140.888536,223.203298 139.337288,220.171314 C137.574507,223.555854 135.34165,226.188275 132.615215,228.045071 L131.251998,225.953237 C134.260478,223.884907 136.587349,221.158472 138.232612,217.820939 Z" id="减价" fill="#131F3C"></path>
        </g>
    </g>
</svg>