<?xml version="1.0" encoding="UTF-8" standalone="no"?>
<svg width="250px" height="292px" viewBox="0 0 250 292" version="1.1" xmlns="http://www.w3.org/2000/svg" xmlns:xlink="http://www.w3.org/1999/xlink">
    <!-- Generator: Sketch 49 (51002) - http://www.bohemiancoding.com/sketch -->
    <title>1 copy 4</title>
    <desc>Created with Sketch.</desc>
    <defs>
        <radialGradient cx="50%" cy="50%" fx="50%" fy="50%" r="50.0301469%" id="radialGradient-1">
            <stop stop-color="#8800FF" offset="0%"></stop>
            <stop stop-color="#8600FB" offset="71.050849%"></stop>
            <stop stop-color="#A700FE" offset="100%"></stop>
        </radialGradient>
        <path d="M124.534208,48.7629689 C132.711116,48.7630043 140.809466,49.5606594 148.829249,51.1559305 C156.849031,52.7512051 164.636136,55.1134456 172.190582,58.2426509 C179.745051,61.3718515 186.921705,65.2078968 193.720557,69.7507781 C200.519385,74.2936634 206.80975,79.4560958 212.591686,85.2380753 C218.373622,91.0200542 223.535985,97.3104899 228.078816,104.109373 C232.621648,110.908265 236.457622,118.08496 239.586764,125.639458 C242.715941,133.193974 245.078181,140.981143 246.673414,149.000966 C248.268642,157.020783 249.066241,165.119169 249.066241,173.296094 C249.066206,181.473078 248.268572,189.571493 246.673269,197.591345 C245.078041,205.611197 242.715802,213.398378 239.586549,220.952916 C236.457372,228.507449 232.621334,235.684162 228.078462,242.483043 C223.535595,249.28193 218.373157,255.572364 212.591151,261.354352 C206.80918,267.13634 200.518781,272.298762 193.719865,276.841645 C186.920978,281.384512 179.744289,285.220539 172.189785,288.349698 C164.635281,291.478892 156.848106,293.841098 148.828289,295.436348 C140.808455,297.031593 132.710069,297.82921 124.533126,297.82921 C116.356143,297.829175 108.257746,297.031523 100.237911,295.436238 C92.2180591,293.840975 84.4308608,291.478736 76.8763221,288.349518 C69.3217834,285.220324 62.1450765,281.384285 55.3461899,276.841413 C48.5472975,272.298529 42.256863,267.136108 36.4748864,261.35412 C30.6929041,255.572155 25.5304769,249.281714 20.9876108,242.482834 C16.4447331,235.683947 12.6087116,228.507257 9.4795232,220.952736 C6.3503348,213.398232 3.98812395,205.611075 2.39288484,197.591257 C0.797622465,189.571423 0,181.473037 0,173.296094 C2.90693572e-05,165.119128 0.797680604,157.020731 2.3929546,149.000867 C3.9882286,140.981015 6.35046852,133.193829 9.47967436,125.639301 C12.6088802,118.084774 16.4449307,110.908062 20.9878143,104.109169 C25.530692,97.3102771 30.693125,91.0198327 36.4751074,85.2378532 C42.2570955,79.4558697 48.54753,74.2934419 55.346405,69.7505694 C62.1452858,65.2076974 69.3219985,61.3716695 76.8765023,58.2424863 C84.4310004,55.1133037 92.2181812,52.7510899 100.237998,51.1558462 C108.257815,49.5605977 116.356195,48.7629735 124.533126,48.7629735 L124.533022,104.802874 C120.03573,104.802903 115.581648,105.241612 111.170768,106.119019 C106.759883,106.996413 102.476984,108.295645 98.3220195,110.016702 C94.1670548,111.737771 90.2199129,113.847601 86.480547,116.346188 C82.741187,118.844775 79.2814858,121.684113 76.1014203,124.864202 C72.9213547,128.044291 70.0820343,131.504033 67.5834823,135.24341 C65.0849246,138.982799 62.9751229,142.929982 61.2540833,147.084958 C59.5330552,151.239934 58.233841,155.522874 57.356458,159.933789 C56.4791041,164.344668 56.0404243,168.798791 56.0404068,173.296112 C56.0404243,177.793432 56.479139,182.247573 57.3565452,186.658487 C58.2339282,191.069408 59.5331599,195.352347 61.2542228,199.507341 C62.9753032,203.66234 65.0851164,207.609523 67.5837091,211.348918 C70.0823017,215.088319 72.9216395,218.548072 76.1017226,221.728155 C79.2818172,224.908238 82.7415591,227.747576 86.4809366,230.246169 C90.2203198,232.744721 94.1674967,234.85454 98.3224788,236.575603 C102.477461,238.29666 106.7604,239.595892 111.171297,240.473281 C115.5822,241.350646 120.0363,241.789332 124.533621,241.789332 C129.030947,241.789314 133.485081,241.350611 137.896019,240.473228 C142.306916,239.595822 146.589873,238.29659 150.744873,236.57551 C154.899872,234.854453 158.847049,232.744634 162.58645,230.246041 C166.325827,227.747448 169.785569,224.908116 172.965664,221.728033 C176.145764,218.54795 178.985102,215.088208 181.483695,211.348813 C183.98227,207.609413 186.092083,203.662236 187.813129,199.507254 C189.534168,195.352272 190.8334,191.069332 191.710789,186.658435 C192.588172,182.24752 193.026857,177.793415 193.02684,173.296112 C193.026823,168.798791 192.588119,164.344651 191.710736,159.933736 C190.83333,155.522816 189.534099,151.239859 187.813018,147.084865 C186.091979,142.929871 183.982159,138.982683 181.483567,135.243294 C178.98498,131.503905 176.145625,128.044169 172.965542,124.86408 C169.785459,121.683985 166.325723,118.844659 162.586322,116.346078 C158.846927,113.847491 154.899744,111.737678 150.744762,110.016626 C146.589786,108.295575 142.306846,106.996349 137.895961,106.11896 C133.485047,105.241577 129.030947,104.802886 124.533621,104.802886 L124.534208,48.7629689 Z" id="path-2"></path>
        <filter x="0.0%" y="0.0%" width="100.0%" height="100.0%" filterUnits="objectBoundingBox" id="filter-3">
            <feOffset dx="0" dy="0" in="SourceAlpha" result="shadowOffsetOuter1"></feOffset>
            <feColorMatrix values="0 0 0 0 0.65382076   0 0 0 0 0.258187342   0 0 0 0 1  0 0 0 1 0" type="matrix" in="shadowOffsetOuter1"></feColorMatrix>
        </filter>
    </defs>
    <g id="Monoreto" stroke="none" stroke-width="1" fill="none" fill-rule="evenodd">
        <g id="1-copy-4" transform="translate(0.000000, -6.000000)">
            <g id="Fill-8">
                <use fill="black" fill-opacity="1" filter="url(#filter-3)" xlink:href="#path-2"></use>
                <use fill="url(#radialGradient-1)" fill-rule="evenodd" xlink:href="#path-2"></use>
            </g>
            <circle id="Oval" fill="#FFFFFF" cx="125.65842" cy="174.421389" r="87.3982442"></circle>
            <path d="M78.1071722,200.478404 L75.7833541,200.478404 L75.7833541,197.335968 C73.8292343,197.124712 71.9807427,196.596571 70.5019493,195.777954 L70.5019493,192.820367 C72.5352902,194.114311 74.9119223,194.642452 77.0244842,194.642452 C79.4011163,194.642452 81.0119448,194.087904 81.0119448,192.345041 C81.0119448,188.067103 70.5811704,190.338107 70.5811704,183.789165 C70.5811704,180.778764 72.8785815,179.167936 75.7833541,178.824644 L75.7833541,175.655802 L78.1071722,175.655802 L78.1071722,178.798237 C79.8764428,178.930273 81.6457133,179.405599 82.8868435,180.144996 L82.8868435,183.023361 C81.3816431,182.019894 79.3218953,181.465347 77.3413685,181.491754 C75.0967715,181.491754 73.6443852,182.151929 73.6443852,183.736351 C73.6443852,187.723811 84.0751595,185.584843 84.0751595,192.186598 C84.0751595,195.751547 81.4080501,197.177526 78.1071722,197.362375 L78.1071722,200.478404 Z M86.2405355,188.067103 C86.2405355,182.812105 88.7227957,178.745423 94.2946777,178.745423 C99.8665597,178.745423 102.34882,182.812105 102.34882,188.067103 C102.34882,193.3221 99.8665597,197.388782 94.2946777,197.388782 C88.7227957,197.388782 86.2405355,193.3221 86.2405355,188.067103 Z M99.3120122,188.067103 C99.3120122,183.894793 97.7275908,181.491754 94.2946777,181.491754 C90.8353576,181.491754 89.2773432,183.894793 89.2773432,188.067103 C89.2773432,192.239413 90.8353576,194.642452 94.2946777,194.642452 C97.7275908,194.642452 99.3120122,192.239413 99.3120122,188.067103 Z M108.448842,195.593105 C108.448842,196.781421 107.630225,197.335968 106.679572,197.335968 C105.728919,197.335968 104.883894,196.781421 104.883894,195.593105 C104.883894,194.457602 105.728919,193.903055 106.679572,193.903055 C107.630225,193.903055 108.448842,194.457602 108.448842,195.593105 Z M110.983917,188.067103 C110.983917,182.812105 113.466177,178.745423 119.038059,178.745423 C124.609941,178.745423 127.092201,182.812105 127.092201,188.067103 C127.092201,193.3221 124.609941,197.388782 119.038059,197.388782 C113.466177,197.388782 110.983917,193.3221 110.983917,188.067103 Z M124.055393,188.067103 C124.055393,183.894793 122.470972,181.491754 119.038059,181.491754 C115.578739,181.491754 114.020724,183.894793 114.020724,188.067103 C114.020724,192.239413 115.578739,194.642452 119.038059,194.642452 C122.470972,194.642452 124.055393,192.239413 124.055393,188.067103 Z M142.038577,183.65713 C142.038577,185.532028 140.982296,187.037229 139.371467,187.565369 C141.061517,188.09351 142.777973,189.440268 142.777973,192.160191 C142.777973,195.777954 139.582723,197.388782 135.912147,197.388782 C133.482701,197.388782 131.581395,197.019084 129.680089,196.200466 L129.680089,193.295693 C131.607802,194.351974 133.456294,194.695266 135.674484,194.668859 C138.051116,194.642452 139.899608,193.876648 139.899608,191.843307 C139.899608,189.809966 138.235965,189.149791 136.096996,189.149791 L133.245038,189.149791 L133.245038,186.429867 L135.753705,186.456274 C137.971895,186.456274 139.160211,185.505621 139.160211,184.026828 C139.160211,182.416 137.813453,181.465347 135.3576,181.465347 C133.588329,181.465347 131.739837,181.940673 129.996974,182.94414 L129.996974,180.065775 C131.607802,179.22075 133.535515,178.745423 135.753705,178.745423 C139.450688,178.745423 142.038577,180.593915 142.038577,183.65713 Z M145.260233,188.067103 C145.260233,182.812105 147.742494,178.745423 153.314376,178.745423 C158.886258,178.745423 161.368518,182.812105 161.368518,188.067103 C161.368518,193.3221 158.886258,197.388782 153.314376,197.388782 C147.742494,197.388782 145.260233,193.3221 145.260233,188.067103 Z M158.33171,188.067103 C158.33171,183.894793 156.747289,181.491754 153.314376,181.491754 C149.855056,181.491754 148.297041,183.894793 148.297041,188.067103 C148.297041,192.239413 149.855056,194.642452 153.314376,194.642452 C156.747289,194.642452 158.33171,192.239413 158.33171,188.067103 Z M163.903592,188.067103 C163.903592,182.812105 166.385852,178.745423 171.957734,178.745423 C177.529616,178.745423 180.011877,182.812105 180.011877,188.067103 C180.011877,193.3221 177.529616,197.388782 171.957734,197.388782 C166.385852,197.388782 163.903592,193.3221 163.903592,188.067103 Z M176.975069,188.067103 C176.975069,183.894793 175.390648,181.491754 171.957734,181.491754 C168.498414,181.491754 166.9404,183.894793 166.9404,188.067103 C166.9404,192.239413 168.498414,194.642452 171.957734,194.642452 C175.390648,194.642452 176.975069,192.239413 176.975069,188.067103 Z M90.6637119,211.088715 L92.8819019,211.088715 L92.8819019,226.325567 L96.0771518,226.325567 L96.0771518,229.045491 L86.306553,229.045491 L86.306553,226.325567 L89.8979083,226.325567 L89.8979083,214.178336 L86.306553,215.525095 L86.306553,212.752357 L90.6637119,211.088715 Z M121.903221,210.560574 L124.623144,210.560574 L124.623144,229.045491 L121.612744,229.045491 L121.612744,216.106049 L115.776791,224.873181 L113.981114,224.873181 L108.145162,216.079642 L108.145162,229.045491 L105.134761,229.045491 L105.134761,210.560574 L107.854684,210.560574 L114.878953,221.149791 L121.903221,210.560574 Z M132.122739,229.045491 L129.112338,229.045491 L129.112338,210.560574 L131.93789,210.560574 L141.893338,224.08097 C141.866931,223.447202 141.866931,222.734212 141.866931,222.04763 L141.866931,210.560574 L144.877332,210.560574 L144.877332,229.045491 L142.05178,229.045491 L132.096332,215.525095 C132.122739,216.158863 132.122739,216.871853 132.122739,217.532028 L132.122739,229.045491 Z M152.376926,229.045491 L149.366526,229.045491 L149.366526,210.560574 L156.760492,210.560574 C160.219812,210.560574 163.863982,211.933739 163.863982,216.343712 C163.863982,219.64459 161.804234,221.229012 159.374788,221.809966 L165.289961,229.045491 L161.672199,229.045491 L156.126724,222.126851 L152.376926,222.126851 L152.376926,229.045491 Z M152.376926,213.306905 L152.376926,219.459741 L156.892527,219.459741 C158.873054,219.459741 160.800767,218.746752 160.800767,216.396526 C160.800767,214.019894 158.873054,213.306905 156.892527,213.306905 L152.376926,213.306905 Z" id="$0.0300-1-MNR" fill="#131F3C"></path>
            <path d="M24.1320431,25 L20.0622107,25 L27.5717079,6.62011173 L31.8253392,6.62011173 L39.3085794,25 L35.238747,25 L33.8996409,21.5603352 L25.4974062,21.5603352 L24.1320431,25 Z M29.2784118,11.7139665 L26.7314844,18.3044693 L32.6655626,18.3044693 L30.0923783,11.7139665 C29.9610934,11.3463687 29.8298085,10.9787709 29.6985235,10.2698324 C29.5672386,10.9787709 29.4359537,11.3463687 29.2784118,11.7139665 Z M49.6800878,12.396648 L53.3298085,12.396648 L53.3298085,25 L50.1001995,25 L50.1001995,23.398324 C49.1286911,24.5273743 47.6845571,25.3675978 45.8990822,25.3675978 C42.4856744,25.3675978 40.7789705,23.1094972 40.7789705,20.1949721 L40.7789705,12.396648 L44.4286911,12.396648 L44.4286911,19.7223464 C44.4286911,21.4027933 45.3476856,22.2167598 46.8443336,22.2167598 C48.1571828,22.2167598 49.1286911,21.3765363 49.6800878,20.6150838 L49.6800878,12.396648 Z M55.7191939,18.698324 C55.7191939,15.2586592 57.8722666,12.0290503 61.889585,12.0290503 C64.2001995,12.0290503 65.6443336,13.1055866 66.4583001,14.2346369 L66.4583001,12.396648 L69.661652,12.396648 L69.661652,24.6586592 C69.661652,29.4636872 66.1169593,31.1441341 62.4147247,31.1441341 C60.4454509,31.1441341 58.6074621,30.6977654 57.0845571,29.9625698 L57.0845571,26.7592179 C58.5024342,27.5994413 60.2091381,28.072067 61.942099,28.072067 C64.1739425,28.072067 66.0381883,27.3106145 66.0381883,24.8162011 L66.0381883,23.6608939 C65.2242219,24.5536313 63.8851157,25.3675978 61.889585,25.3675978 C57.8722666,25.3675978 55.7191939,22.1379888 55.7191939,18.698324 Z M66.0381883,17.201676 C65.5393057,16.0988827 64.3577414,15.1011173 62.7560654,15.1011173 C60.6817638,15.1011173 59.4476856,16.7290503 59.4476856,18.698324 C59.4476856,20.6675978 60.6817638,22.2955307 62.7560654,22.2955307 C64.3577414,22.2955307 65.5393057,21.3240223 66.0381883,20.273743 L66.0381883,17.201676 Z M76.6985235,23.1882682 C76.6985235,24.6586592 75.6745012,25.3413408 74.492937,25.3413408 C73.3113727,25.3413408 72.2610934,24.6586592 72.2610934,23.1882682 C72.2610934,21.7178771 73.3113727,21.0351955 74.492937,21.0351955 C75.6745012,21.0351955 76.6985235,21.7178771 76.6985235,23.1882682 Z M89.2493615,7.1452514 L92.1113727,7.1452514 L92.1113727,21.6128492 L95.1046688,21.6128492 L95.1046688,25 L84.9169593,25 L84.9169593,21.6128492 L88.2778532,21.6128492 L88.2778532,11.0837989 L84.9169593,12.3441341 L84.9169593,8.79944134 L89.2493615,7.1452514 Z M98.0191939,7.11899441 L109.362211,7.11899441 L109.362211,10.5061453 L101.563887,10.4798883 L101.327574,13.972067 C102.089026,13.8145251 102.902993,13.7094972 103.638188,13.7094972 C107.209138,13.7094972 110.176177,15.3111732 110.176177,19.4072626 C110.176177,23.5558659 106.552713,25.3675978 102.614166,25.3675978 C100.539864,25.3675978 98.4393057,24.9212291 96.8638867,24.1597765 L96.8638867,20.5100559 C98.3080208,21.4290503 100.382322,21.927933 102.167797,21.927933 C104.504669,21.927933 106.23763,21.0877095 106.23763,19.3547486 C106.23763,17.5955307 104.740982,16.7290503 101.87897,16.7290503 C100.592378,16.7290503 98.9381883,16.9391061 97.3890263,17.4905028 L98.0191939,7.11899441 Z M135.855507,20.1424581 L118.42087,20.1424581 L118.42087,17.0703911 L135.855507,17.0703911 L135.855507,20.1424581 Z M144.073943,15.8100559 C144.073943,10.8212291 147.329808,6.25251397 153.84154,6.25251397 C160.353272,6.25251397 163.609138,10.8212291 163.609138,15.8100559 C163.609138,20.7988827 160.353272,25.3675978 153.84154,25.3675978 C147.329808,25.3675978 144.073943,20.7988827 144.073943,15.8100559 Z M159.565563,15.8100559 C159.565563,12.5804469 157.648803,9.90223464 153.84154,9.90223464 C150.008021,9.90223464 148.091261,12.5804469 148.091261,15.8100559 C148.091261,19.0396648 150.008021,21.7178771 153.84154,21.7178771 C157.648803,21.7178771 159.565563,19.0396648 159.565563,15.8100559 Z M165.394613,18.8821229 C165.394613,14.050838 169.018077,12.0027933 172.510255,12.0027933 C173.901875,12.0027933 175.267239,12.3178771 176.396289,12.9217877 L176.396289,16.1251397 C175.503551,15.547486 174.243216,15.1798883 173.035395,15.1798883 C171.039864,15.1798883 169.123105,16.1513966 169.123105,18.698324 C169.123105,21.1139665 171.013607,22.2167598 172.982881,22.2167598 C174.321987,22.2167598 175.608579,21.849162 176.527574,21.2977654 L176.527574,24.5273743 C175.293496,25.052514 173.875619,25.3675978 172.273943,25.3675978 C168.834278,25.3675978 165.394613,23.372067 165.394613,18.8821229 Z M179.914725,8.72067039 L183.538188,7.85418994 L183.538188,12.396648 L187.52925,12.396648 L187.52925,15.4687151 L183.538188,15.4687151 L183.538188,20.4050279 C183.538188,21.7178771 184.194613,22.2955307 185.559976,22.2955307 C186.4002,22.2955307 187.109138,22.1642458 187.844334,21.875419 L187.844334,24.8162011 C186.872825,25.1575419 185.717518,25.3675978 184.457183,25.3675978 C182.015283,25.3675978 179.914725,24.2385475 179.914725,21.1139665 L179.914725,15.4687151 L177.787909,15.4687151 L177.787909,12.396648 L179.914725,12.396648 L179.914725,8.72067039 Z M193.88344,23.1882682 C193.88344,24.6586592 192.859417,25.3413408 191.677853,25.3413408 C190.496289,25.3413408 189.44601,24.6586592 189.44601,23.1882682 C189.44601,21.7178771 190.496289,21.0351955 191.677853,21.0351955 C192.859417,21.0351955 193.88344,21.7178771 193.88344,23.1882682 Z M206.434278,7.1452514 L209.296289,7.1452514 L209.296289,21.6128492 L212.289585,21.6128492 L212.289585,25 L202.101875,25 L202.101875,21.6128492 L205.462769,21.6128492 L205.462769,11.0837989 L202.101875,12.3441341 L202.101875,8.79944134 L206.434278,7.1452514 Z M215.20411,7.11899441 L226.547127,7.11899441 L226.547127,10.5061453 L218.748803,10.4798883 L218.51249,13.972067 C219.273943,13.8145251 220.087909,13.7094972 220.823105,13.7094972 C224.394054,13.7094972 227.361093,15.3111732 227.361093,19.4072626 C227.361093,23.5558659 223.73763,25.3675978 219.799082,25.3675978 C217.724781,25.3675978 215.624222,24.9212291 214.048803,24.1597765 L214.048803,20.5100559 C215.492937,21.4290503 217.567239,21.927933 219.352713,21.927933 C221.689585,21.927933 223.422546,21.0877095 223.422546,19.3547486 C223.422546,17.5955307 221.925898,16.7290503 219.063887,16.7290503 C217.777294,16.7290503 216.123105,16.9391061 214.573943,17.4905028 L215.20411,7.11899441 Z" id="Aug.-15-—-Oct.-15" fill="#131F3C"></path>
            <path d="M103.902498,110.28 L109.122498,110.28 L109.122498,122.46 L111.732498,122.46 L111.732498,126.81 L109.122498,126.81 L109.122498,130 L104.047498,130 L104.047498,126.81 L94.0424983,126.81 L94.0424983,122.46 L103.902498,110.28 Z M104.047498,122.46 L104.047498,116.689 L99.3784983,122.46 L104.047498,122.46 Z M113.849498,120.14 C113.849498,114.514 116.546498,109.845 122.984498,109.845 C129.422498,109.845 132.119498,114.514 132.119498,120.14 C132.119498,125.766 129.422498,130.435 122.984498,130.435 C116.546498,130.435 113.849498,125.766 113.849498,120.14 Z M126.754498,120.14 C126.754498,116.341 125.565498,114.485 122.984498,114.485 C120.403498,114.485 119.214498,116.341 119.214498,120.14 C119.214498,123.939 120.403498,125.795 122.984498,125.795 C125.565498,125.795 126.754498,123.939 126.754498,120.14 Z M142.530498,131.74 L139.340498,131.74 L151.201498,107.96 L154.391498,107.96 L142.530498,131.74 Z M145.082498,114.485 C145.082498,117.965 142.530498,119.705 139.572498,119.705 C136.585498,119.705 134.033498,117.965 134.033498,114.485 C134.033498,111.005 136.585498,109.265 139.572498,109.265 C142.530498,109.265 145.082498,111.005 145.082498,114.485 Z M137.861498,114.485 C137.861498,115.355 138.325498,116.225 139.572498,116.225 C140.790498,116.225 141.254498,115.355 141.254498,114.485 C141.254498,113.615 140.790498,112.745 139.572498,112.745 C138.325498,112.745 137.861498,113.615 137.861498,114.485 Z M159.582498,125.215 C159.582498,128.695 157.030498,130.435 154.072498,130.435 C151.085498,130.435 148.533498,128.695 148.533498,125.215 C148.533498,121.735 151.085498,119.995 154.072498,119.995 C157.030498,119.995 159.582498,121.735 159.582498,125.215 Z M152.361498,125.215 C152.361498,126.085 152.825498,126.955 154.072498,126.955 C155.290498,126.955 155.754498,126.085 155.754498,125.215 C155.754498,124.345 155.290498,123.475 154.072498,123.475 C152.825498,123.475 152.361498,124.345 152.361498,125.215 Z" id="40%" fill="#6202E1"></path>
            <path d="M86.514929,142.547374 L89.7584466,142.547374 L89.7584466,159 L86.890989,159 L86.890989,157.354737 C86.1623727,158.365399 84.8696664,159.329053 82.8013363,159.329053 C79.2052624,159.329053 77.2779549,156.438091 77.2779549,153.3591 C77.2779549,150.280108 79.2052624,147.389147 82.8013363,147.389147 C84.5876214,147.389147 85.7863127,148.117763 86.514929,148.916891 L86.514929,142.547374 Z M86.514929,152.019386 C86.0683577,151.032228 85.0106889,150.139086 83.5769601,150.139086 C81.7201638,150.139086 80.6154875,151.596318 80.6154875,153.3591 C80.6154875,155.121881 81.7201638,156.579114 83.5769601,156.579114 C85.0106889,156.579114 86.0683577,155.685971 86.514929,154.698814 L86.514929,152.019386 Z M95.8224144,159 L92.555393,159 L92.555393,147.7182 L95.8224144,147.7182 L95.8224144,159 Z M96.1044594,143.981103 C96.1044594,145.273809 95.2113168,145.837899 94.1771518,145.837899 C93.1664905,145.837899 92.273348,145.273809 92.273348,143.981103 C92.273348,142.711901 93.1664905,142.147811 94.1771518,142.147811 C95.2113168,142.147811 96.1044594,142.711901 96.1044594,143.981103 Z M98.1492857,150.867702 C98.1492857,148.258786 100.476157,147.389147 102.850036,147.389147 C104.448291,147.389147 105.858516,147.788711 107.0102,148.352801 L107.0102,151.032228 C106.046546,150.374123 104.401283,149.880545 103.06157,149.880545 C102.332953,149.880545 101.486818,150.092078 101.486818,150.773687 C101.486818,152.653987 107.856335,151.713837 107.856335,155.850497 C107.856335,158.506421 105.435448,159.329053 102.732517,159.329053 C101.016743,159.329053 99.3949845,158.952992 98.2433007,158.271384 L98.2433007,155.568452 C99.4654958,156.36758 101.18127,156.767144 102.544487,156.767144 C103.743178,156.767144 104.518802,156.55561 104.518802,155.921009 C104.518802,154.11122 98.1492857,154.910347 98.1492857,150.867702 Z M109.219552,153.523626 C109.219552,149.198936 112.46307,147.365643 115.589069,147.365643 C116.834768,147.365643 118.056963,147.647688 119.067624,148.188275 L119.067624,151.055732 C118.268497,150.53865 117.140316,150.209597 116.059144,150.209597 C114.272859,150.209597 112.557085,151.079236 112.557085,153.3591 C112.557085,155.521445 114.249355,156.508602 116.012136,156.508602 C117.210828,156.508602 118.362512,156.17955 119.185143,155.685971 L119.185143,158.576932 C118.080466,159.047008 116.811264,159.329053 115.377535,159.329053 C112.298544,159.329053 109.219552,157.542767 109.219552,153.523626 Z M120.73639,153.3591 C120.73639,149.41047 123.697863,147.389147 126.964884,147.389147 C130.255409,147.389147 133.193378,149.41047 133.193378,153.3591 C133.193378,157.30773 130.255409,159.329053 126.964884,159.329053 C123.697863,159.329053 120.73639,157.30773 120.73639,153.3591 Z M129.879349,153.3591 C129.879349,151.619822 128.845184,150.303612 126.964884,150.303612 C125.108088,150.303612 124.073923,151.619822 124.073923,153.3591 C124.073923,155.098377 125.108088,156.414587 126.964884,156.414587 C128.845184,156.414587 129.879349,155.098377 129.879349,153.3591 Z M143.158969,147.7182 L146.42599,147.7182 L146.42599,159 L143.535029,159 L143.535029,157.566271 C142.66539,158.576932 141.372684,159.329053 139.774429,159.329053 C136.718941,159.329053 135.191197,157.30773 135.191197,154.698814 L135.191197,147.7182 L138.458219,147.7182 L138.458219,154.275746 C138.458219,155.779986 139.28085,156.508602 140.620564,156.508602 C141.795751,156.508602 142.66539,155.756482 143.158969,155.074874 L143.158969,147.7182 Z M152.090394,149.151928 C152.960033,148.141267 154.229235,147.389147 155.850994,147.389147 C158.812467,147.389147 160.434226,149.41047 160.434226,152.019386 L160.434226,159 L157.167204,159 L157.167204,152.442453 C157.167204,150.91471 156.250558,150.209597 154.981355,150.209597 C153.829672,150.209597 152.936529,150.961717 152.466454,151.643326 L152.466454,159 L149.199433,159 L149.199433,147.7182 L152.090394,147.7182 L152.090394,149.151928 Z M163.912781,144.427674 L167.156298,143.652051 L167.156298,147.7182 L170.728869,147.7182 L170.728869,150.468138 L167.156298,150.468138 L167.156298,154.886844 C167.156298,156.062031 167.743892,156.579114 168.966087,156.579114 C169.718207,156.579114 170.352809,156.461595 171.010914,156.203054 L171.010914,158.835474 C170.141275,159.141023 169.10711,159.329053 167.97893,159.329053 C165.793081,159.329053 163.912781,158.318391 163.912781,155.521445 L163.912781,150.468138 L162.008977,150.468138 L162.008977,147.7182 L163.912781,147.7182 L163.912781,144.427674 Z" id="discount" fill="#131F3C"></path>
        </g>
    </g>
</svg>