<?xml version="1.0" encoding="UTF-8" standalone="no"?>
<svg width="250px" height="292px" viewBox="0 0 250 292" version="1.1" xmlns="http://www.w3.org/2000/svg" xmlns:xlink="http://www.w3.org/1999/xlink">
    <!-- Generator: Sketch 49 (51002) - http://www.bohemiancoding.com/sketch -->
    <title>Group 38 Copy</title>
    <desc>Created with Sketch.</desc>
    <defs>
        <radialGradient cx="50%" cy="50%" fx="50%" fy="50%" r="50.0301469%" id="radialGradient-1">
            <stop stop-color="#8D00FF" offset="0%"></stop>
            <stop stop-color="#5C00FE" offset="69.8959662%"></stop>
            <stop stop-color="#8900FF" offset="100%"></stop>
        </radialGradient>
    </defs>
    <g id="Monoreto" stroke="none" stroke-width="1" fill="none" fill-rule="evenodd">
        <g id="Group-38-Copy" transform="translate(0.000000, -6.000000)">
            <g id="1-copy">
                <path d="M124.534208,48.7629689 C132.711116,48.7630043 140.809466,49.5606594 148.829249,51.1559305 C156.849031,52.7512051 164.636136,55.1134456 172.190582,58.2426509 C179.745051,61.3718515 186.921705,65.2078968 193.720557,69.7507781 C200.519385,74.2936634 206.80975,79.4560958 212.591686,85.2380753 C218.373622,91.0200542 223.535985,97.3104899 228.078816,104.109373 C232.621648,110.908265 236.457622,118.08496 239.586764,125.639458 C242.715941,133.193974 245.078181,140.981143 246.673414,149.000966 C248.268642,157.020783 249.066241,165.119169 249.066241,173.296094 C249.066206,181.473078 248.268572,189.571493 246.673269,197.591345 C245.078041,205.611197 242.715802,213.398378 239.586549,220.952916 C236.457372,228.507449 232.621334,235.684162 228.078462,242.483043 C223.535595,249.28193 218.373157,255.572364 212.591151,261.354352 C206.80918,267.13634 200.518781,272.298762 193.719865,276.841645 C186.920978,281.384512 179.744289,285.220539 172.189785,288.349698 C164.635281,291.478892 156.848106,293.841098 148.828289,295.436348 C140.808455,297.031593 132.710069,297.82921 124.533126,297.82921 C116.356143,297.829175 108.257746,297.031523 100.237911,295.436238 C92.2180591,293.840975 84.4308608,291.478736 76.8763221,288.349518 C69.3217834,285.220324 62.1450765,281.384285 55.3461899,276.841413 C48.5472975,272.298529 42.256863,267.136108 36.4748864,261.35412 C30.6929041,255.572155 25.5304769,249.281714 20.9876108,242.482834 C16.4447331,235.683947 12.6087116,228.507257 9.4795232,220.952736 C6.3503348,213.398232 3.98812395,205.611075 2.39288484,197.591257 C0.797622465,189.571423 0,181.473037 0,173.296094 C2.90693572e-05,165.119128 0.797680604,157.020731 2.3929546,149.000867 C3.9882286,140.981015 6.35046852,133.193829 9.47967436,125.639301 C12.6088802,118.084774 16.4449307,110.908062 20.9878143,104.109169 C25.530692,97.3102771 30.693125,91.0198327 36.4751074,85.2378532 C42.2570955,79.4558697 48.54753,74.2934419 55.346405,69.7505694 C62.1452858,65.2076974 69.3219985,61.3716695 76.8765023,58.2424863 C84.4310004,55.1133037 92.2181812,52.7510899 100.237998,51.1558462 C108.257815,49.5605977 116.356195,48.7629735 124.533126,48.7629735 L124.533022,104.802874 C120.03573,104.802903 115.581648,105.241612 111.170768,106.119019 C106.759883,106.996413 102.476984,108.295645 98.3220195,110.016702 C94.1670548,111.737771 90.2199129,113.847601 86.480547,116.346188 C82.741187,118.844775 79.2814858,121.684113 76.1014203,124.864202 C72.9213547,128.044291 70.0820343,131.504033 67.5834823,135.24341 C65.0849246,138.982799 62.9751229,142.929982 61.2540833,147.084958 C59.5330552,151.239934 58.233841,155.522874 57.356458,159.933789 C56.4791041,164.344668 56.0404243,168.798791 56.0404068,173.296112 C56.0404243,177.793432 56.479139,182.247573 57.3565452,186.658487 C58.2339282,191.069408 59.5331599,195.352347 61.2542228,199.507341 C62.9753032,203.66234 65.0851164,207.609523 67.5837091,211.348918 C70.0823017,215.088319 72.9216395,218.548072 76.1017226,221.728155 C79.2818172,224.908238 82.7415591,227.747576 86.4809366,230.246169 C90.2203198,232.744721 94.1674967,234.85454 98.3224788,236.575603 C102.477461,238.29666 106.7604,239.595892 111.171297,240.473281 C115.5822,241.350646 120.0363,241.789332 124.533621,241.789332 C129.030947,241.789314 133.485081,241.350611 137.896019,240.473228 C142.306916,239.595822 146.589873,238.29659 150.744873,236.57551 C154.899872,234.854453 158.847049,232.744634 162.58645,230.246041 C166.325827,227.747448 169.785569,224.908116 172.965664,221.728033 C176.145764,218.54795 178.985102,215.088208 181.483695,211.348813 C183.98227,207.609413 186.092083,203.662236 187.813129,199.507254 C189.534168,195.352272 190.8334,191.069332 191.710789,186.658435 C192.588172,182.24752 193.026857,177.793415 193.02684,173.296112 C193.026823,168.798791 192.588119,164.344651 191.710736,159.933736 C190.83333,155.522816 189.534099,151.239859 187.813018,147.084865 C186.091979,142.929871 183.982159,138.982683 181.483567,135.243294 C178.98498,131.503905 176.145625,128.044169 172.965542,124.86408 C169.785459,121.683985 166.325723,118.844659 162.586322,116.346078 C158.846927,113.847491 154.899744,111.737678 150.744762,110.016626 C146.589786,108.295575 142.306846,106.996349 137.895961,106.11896 C133.485047,105.241577 129.030947,104.802886 124.533621,104.802886 L124.534208,48.7629689 Z" id="Fill-8" fill="url(#radialGradient-1)"></path>
                <circle id="Oval" fill="#FFFFFF" cx="125.65842" cy="174.421389" r="87.3982442"></circle>
                <path d="M77.354572,200.478404 L75.0307539,200.478404 L75.0307539,197.335968 C73.0766341,197.124712 71.2281425,196.596571 69.7493492,195.777954 L69.7493492,192.820367 C71.78269,194.114311 74.1593221,194.642452 76.271884,194.642452 C78.6485161,194.642452 80.2593446,194.087904 80.2593446,192.345041 C80.2593446,188.067103 69.8285702,190.338107 69.8285702,183.789165 C69.8285702,180.778764 72.1259813,179.167936 75.0307539,178.824644 L75.0307539,175.655802 L77.354572,175.655802 L77.354572,178.798237 C79.1238426,178.930273 80.8931132,179.405599 82.1342433,180.144996 L82.1342433,183.023361 C80.6290429,182.019894 78.5692951,181.465347 76.5887683,181.491754 C74.3441713,181.491754 72.891785,182.151929 72.891785,183.736351 C72.891785,187.723811 83.3225593,185.584843 83.3225593,192.186598 C83.3225593,195.751547 80.65545,197.177526 77.354572,197.362375 L77.354572,200.478404 Z M85.4879353,188.067103 C85.4879353,182.812105 87.9701955,178.745423 93.5420775,178.745423 C99.1139595,178.745423 101.59622,182.812105 101.59622,188.067103 C101.59622,193.3221 99.1139595,197.388782 93.5420775,197.388782 C87.9701955,197.388782 85.4879353,193.3221 85.4879353,188.067103 Z M98.559412,188.067103 C98.559412,183.894793 96.9749906,181.491754 93.5420775,181.491754 C90.0827574,181.491754 88.524743,183.894793 88.524743,188.067103 C88.524743,192.239413 90.0827574,194.642452 93.5420775,194.642452 C96.9749906,194.642452 98.559412,192.239413 98.559412,188.067103 Z M107.696242,195.593105 C107.696242,196.781421 106.877625,197.335968 105.926972,197.335968 C104.976319,197.335968 104.131294,196.781421 104.131294,195.593105 C104.131294,194.457602 104.976319,193.903055 105.926972,193.903055 C106.877625,193.903055 107.696242,194.457602 107.696242,195.593105 Z M110.231317,188.067103 C110.231317,182.812105 112.713577,178.745423 118.285459,178.745423 C123.857341,178.745423 126.339601,182.812105 126.339601,188.067103 C126.339601,193.3221 123.857341,197.388782 118.285459,197.388782 C112.713577,197.388782 110.231317,193.3221 110.231317,188.067103 Z M123.302793,188.067103 C123.302793,183.894793 121.718372,181.491754 118.285459,181.491754 C114.826139,181.491754 113.268124,183.894793 113.268124,188.067103 C113.268124,192.239413 114.826139,194.642452 118.285459,194.642452 C121.718372,194.642452 123.302793,192.239413 123.302793,188.067103 Z M137.800249,179.088715 L140.889871,179.088715 L140.889871,190.760619 L143.979493,190.760619 L143.979493,193.374915 L140.889871,193.374915 L140.889871,197.045491 L137.985098,197.045491 L137.985098,193.374915 L128.240907,193.374915 L128.240907,190.813433 L137.800249,179.088715 Z M137.985098,190.760619 L137.985098,182.917733 L131.594599,190.760619 L137.985098,190.760619 Z M146.012834,188.067103 C146.012834,182.812105 148.495094,178.745423 154.066976,178.745423 C159.638858,178.745423 162.121118,182.812105 162.121118,188.067103 C162.121118,193.3221 159.638858,197.388782 154.066976,197.388782 C148.495094,197.388782 146.012834,193.3221 146.012834,188.067103 Z M159.08431,188.067103 C159.08431,183.894793 157.499889,181.491754 154.066976,181.491754 C150.607656,181.491754 149.049641,183.894793 149.049641,188.067103 C149.049641,192.239413 150.607656,194.642452 154.066976,194.642452 C157.499889,194.642452 159.08431,192.239413 159.08431,188.067103 Z M164.656192,188.067103 C164.656192,182.812105 167.138453,178.745423 172.710335,178.745423 C178.282217,178.745423 180.764477,182.812105 180.764477,188.067103 C180.764477,193.3221 178.282217,197.388782 172.710335,197.388782 C167.138453,197.388782 164.656192,193.3221 164.656192,188.067103 Z M177.727669,188.067103 C177.727669,183.894793 176.143248,181.491754 172.710335,181.491754 C169.251015,181.491754 167.693,183.894793 167.693,188.067103 C167.693,192.239413 169.251015,194.642452 172.710335,194.642452 C176.143248,194.642452 177.727669,192.239413 177.727669,188.067103 Z M90.6637119,211.088715 L92.8819019,211.088715 L92.8819019,226.325567 L96.0771518,226.325567 L96.0771518,229.045491 L86.306553,229.045491 L86.306553,226.325567 L89.8979083,226.325567 L89.8979083,214.178336 L86.306553,215.525095 L86.306553,212.752357 L90.6637119,211.088715 Z M121.903221,210.560574 L124.623144,210.560574 L124.623144,229.045491 L121.612744,229.045491 L121.612744,216.106049 L115.776791,224.873181 L113.981114,224.873181 L108.145162,216.079642 L108.145162,229.045491 L105.134761,229.045491 L105.134761,210.560574 L107.854684,210.560574 L114.878953,221.149791 L121.903221,210.560574 Z M132.122739,229.045491 L129.112338,229.045491 L129.112338,210.560574 L131.93789,210.560574 L141.893338,224.08097 C141.866931,223.447202 141.866931,222.734212 141.866931,222.04763 L141.866931,210.560574 L144.877332,210.560574 L144.877332,229.045491 L142.05178,229.045491 L132.096332,215.525095 C132.122739,216.158863 132.122739,216.871853 132.122739,217.532028 L132.122739,229.045491 Z M152.376926,229.045491 L149.366526,229.045491 L149.366526,210.560574 L156.760492,210.560574 C160.219812,210.560574 163.863982,211.933739 163.863982,216.343712 C163.863982,219.64459 161.804234,221.229012 159.374788,221.809966 L165.289961,229.045491 L161.672199,229.045491 L156.126724,222.126851 L152.376926,222.126851 L152.376926,229.045491 Z M152.376926,213.306905 L152.376926,219.459741 L156.892527,219.459741 C158.873054,219.459741 160.800767,218.746752 160.800767,216.396526 C160.800767,214.019894 158.873054,213.306905 156.892527,213.306905 L152.376926,213.306905 Z" id="$0.0400-1-MNR" fill="#131F3C"></path>
                <path d="M24.0138867,15.8100559 C24.0138867,10.8212291 27.2697526,6.25251397 33.7814844,6.25251397 C40.2932163,6.25251397 43.5490822,10.8212291 43.5490822,15.8100559 C43.5490822,20.7988827 40.2932163,25.3675978 33.7814844,25.3675978 C27.2697526,25.3675978 24.0138867,20.7988827 24.0138867,15.8100559 Z M39.5055068,15.8100559 C39.5055068,12.5804469 37.588747,9.90223464 33.7814844,9.90223464 C29.9479649,9.90223464 28.0312051,12.5804469 28.0312051,15.8100559 C28.0312051,19.0396648 29.9479649,21.7178771 33.7814844,21.7178771 C37.588747,21.7178771 39.5055068,19.0396648 39.5055068,15.8100559 Z M45.3345571,18.8821229 C45.3345571,14.050838 48.9580208,12.0027933 52.4501995,12.0027933 C53.8418196,12.0027933 55.2071828,12.3178771 56.336233,12.9217877 L56.336233,16.1251397 C55.4434956,15.547486 54.1831604,15.1798883 52.9753392,15.1798883 C50.9798085,15.1798883 49.0630487,16.1513966 49.0630487,18.698324 C49.0630487,21.1139665 50.9535515,22.2167598 52.9228252,22.2167598 C54.2619314,22.2167598 55.5485235,21.849162 56.467518,21.2977654 L56.467518,24.5273743 C55.2334397,25.052514 53.8155626,25.3675978 52.2138867,25.3675978 C48.7742219,25.3675978 45.3345571,23.372067 45.3345571,18.8821229 Z M59.8546688,8.72067039 L63.4781325,7.85418994 L63.4781325,12.396648 L67.4691939,12.396648 L67.4691939,15.4687151 L63.4781325,15.4687151 L63.4781325,20.4050279 C63.4781325,21.7178771 64.1345571,22.2955307 65.4999202,22.2955307 C66.3401437,22.2955307 67.0490822,22.1642458 67.7842777,21.875419 L67.7842777,24.8162011 C66.8127694,25.1575419 65.6574621,25.3675978 64.3971269,25.3675978 C61.9552275,25.3675978 59.8546688,24.2385475 59.8546688,21.1139665 L59.8546688,15.4687151 L57.7278532,15.4687151 L57.7278532,12.396648 L59.8546688,12.396648 L59.8546688,8.72067039 Z M73.8233839,23.1882682 C73.8233839,24.6586592 72.7993615,25.3413408 71.6177973,25.3413408 C70.436233,25.3413408 69.3859537,24.6586592 69.3859537,23.1882682 C69.3859537,21.7178771 70.436233,21.0351955 71.6177973,21.0351955 C72.7993615,21.0351955 73.8233839,21.7178771 73.8233839,23.1882682 Z M82.3569034,8.66815642 C84.1948923,7.35530726 86.3217079,6.77765363 88.5010375,6.77765363 C92.0982442,6.77765363 95.0127694,8.40558659 95.0127694,12.0553073 C95.0127694,15.0748603 92.5183559,16.8603352 90.1814844,18.2519553 C88.0546688,19.5122905 86.242937,20.4837989 86.21668,21.6391061 L95.1440543,21.6128492 L95.1440543,25 L81.7529928,25 L81.7529928,23.2407821 C81.7529928,18.9346369 85.0088587,17.2541899 87.6345571,15.7050279 C89.4988029,14.6284916 91.1004789,13.9195531 91.1004789,12.2128492 C91.1004789,10.9 89.9451716,10.2173184 88.1334397,10.2173184 C86.3479649,10.2173184 84.2474062,10.9 82.3569034,12.3441341 L82.3569034,8.66815642 Z M97.4809258,16.0726257 C97.4809258,10.926257 99.9228252,6.77765363 105.620591,6.77765363 C111.318356,6.77765363 113.760255,10.926257 113.760255,16.0726257 C113.760255,21.2189944 111.318356,25.3675978 105.620591,25.3675978 C99.9228252,25.3675978 97.4809258,21.2189944 97.4809258,16.0726257 Z M109.821708,16.0726257 C109.821708,12.2653631 108.508859,10.2435754 105.620591,10.2435754 C102.732322,10.2435754 101.419473,12.2653631 101.419473,16.0726257 C101.419473,19.8798883 102.732322,21.901676 105.620591,21.901676 C108.508859,21.901676 109.821708,19.8798883 109.821708,16.0726257 Z M139.597127,20.1424581 L122.16249,20.1424581 L122.16249,17.0703911 L139.597127,17.0703911 L139.597127,20.1424581 Z M152.778132,25 L148.839585,25 L148.839585,6.62011173 L152.54182,6.62011173 L161.101596,18.6195531 C161.049082,17.8581006 161.022825,16.9391061 161.022825,16.0988827 L161.022825,6.62011173 L164.961373,6.62011173 L164.961373,25 L161.259138,25 L152.699362,13.0005587 C152.751875,13.7620112 152.778132,14.6810056 152.778132,15.5212291 L152.778132,25 Z M167.77087,18.698324 C167.77087,14.2871508 171.07925,12.0290503 174.72897,12.0290503 C178.404948,12.0290503 181.687071,14.2871508 181.687071,18.698324 C181.687071,23.1094972 178.404948,25.3675978 174.72897,25.3675978 C171.07925,25.3675978 167.77087,23.1094972 167.77087,18.698324 Z M177.984836,18.698324 C177.984836,16.7553073 176.829529,15.2849162 174.72897,15.2849162 C172.654669,15.2849162 171.499362,16.7553073 171.499362,18.698324 C171.499362,20.6413408 172.654669,22.1117318 174.72897,22.1117318 C176.829529,22.1117318 177.984836,20.6413408 177.984836,18.698324 Z M193.108859,12.396648 L196.994892,12.396648 L191.79601,25 L187.96249,25 L182.763607,12.396648 L186.649641,12.396648 L189.87925,21.1402235 L193.108859,12.396648 Z M202.718915,23.1882682 C202.718915,24.6586592 201.694892,25.3413408 200.513328,25.3413408 C199.331764,25.3413408 198.281484,24.6586592 198.281484,23.1882682 C198.281484,21.7178771 199.331764,21.0351955 200.513328,21.0351955 C201.694892,21.0351955 202.718915,21.7178771 202.718915,23.1882682 Z M223.435674,11.7139665 C223.435674,13.5519553 222.411652,14.9698324 220.731205,15.547486 C222.542937,16.0988827 224.17087,17.4905028 224.17087,20.1162011 C224.17087,23.8709497 220.704948,25.3675978 217.02897,25.3675978 C214.718356,25.3675978 212.85411,25 210.832322,24.1597765 L210.832322,20.5100559 C212.85411,21.6391061 214.665842,21.927933 216.713887,21.901676 C218.735674,21.901676 220.416121,21.2452514 220.416121,19.5648045 C220.416121,18.0418994 219.103272,17.4905028 217.317797,17.4905028 L214.377015,17.4905028 L214.403272,14.1296089 L216.871429,14.1558659 C218.630646,14.1558659 219.707183,13.4994413 219.707183,12.2653631 C219.707183,10.9787709 218.578132,10.2173184 216.42506,10.2173184 C214.823384,10.2173184 212.906624,10.7424581 211.147406,11.8189944 L211.147406,8.16927374 C212.749082,7.3027933 214.77087,6.77765363 216.976457,6.77765363 C220.678691,6.77765363 223.435674,8.45810056 223.435674,11.7139665 Z" id="Oct.-20-—-Nov.-3" fill="#131F3C"></path>
            </g>
            <path d="M95.044206,115.636931 C97.0605623,114.208679 99.4129781,113.53656 101.849409,113.53656 C105.658082,113.53656 109.046681,115.216857 109.046681,119.445604 C109.046681,122.666174 106.414215,124.57051 104.00579,126.026768 C101.961428,127.258985 100.365146,128.155144 100.365146,128.659233 L109.186705,128.659233 L109.186705,133 L94.4280971,133 L94.4280971,130.731599 C94.4280971,126.138787 97.9287158,124.346471 100.645196,122.750188 C102.409508,121.714005 103.865765,121.181911 103.865765,119.725654 C103.865765,118.577451 102.829582,118.017352 101.373325,118.017352 C99.468988,118.017352 97.1165722,118.773486 95.044206,120.397773 L95.044206,115.636931 Z M111.483111,123.478317 C111.483111,118.045357 114.087572,113.53656 120.30467,113.53656 C126.521769,113.53656 129.126229,118.045357 129.126229,123.478317 C129.126229,128.911277 126.521769,133.420074 120.30467,133.420074 C114.087572,133.420074 111.483111,128.911277 111.483111,123.478317 Z M123.945314,123.478317 C123.945314,119.809669 122.797111,118.017352 120.30467,118.017352 C117.81223,118.017352 116.664027,119.809669 116.664027,123.478317 C116.664027,127.146966 117.81223,128.939282 120.30467,128.939282 C122.797111,128.939282 123.945314,127.146966 123.945314,123.478317 Z M139.180006,134.680297 L136.099462,134.680297 L147.553486,111.716238 L150.634031,111.716238 L139.180006,134.680297 Z M141.644442,118.017352 C141.644442,121.377946 139.180006,123.058243 136.323502,123.058243 C133.438992,123.058243 130.974556,121.377946 130.974556,118.017352 C130.974556,114.656758 133.438992,112.976461 136.323502,112.976461 C139.180006,112.976461 141.644442,114.656758 141.644442,118.017352 Z M134.671209,118.017352 C134.671209,118.857501 135.119289,119.697649 136.323502,119.697649 C137.499709,119.697649 137.947789,118.857501 137.947789,118.017352 C137.947789,117.177204 137.499709,116.337055 136.323502,116.337055 C135.119289,116.337055 134.671209,117.177204 134.671209,118.017352 Z M155.646917,128.379183 C155.646917,131.739777 153.182481,133.420074 150.325976,133.420074 C147.441466,133.420074 144.977031,131.739777 144.977031,128.379183 C144.977031,125.018589 147.441466,123.338292 150.325976,123.338292 C153.182481,123.338292 155.646917,125.018589 155.646917,128.379183 Z M148.673684,128.379183 C148.673684,129.219332 149.121763,130.05948 150.325976,130.05948 C151.502184,130.05948 151.950263,129.219332 151.950263,128.379183 C151.950263,127.539035 151.502184,126.698886 150.325976,126.698886 C149.121763,126.698886 148.673684,127.539035 148.673684,128.379183 Z" id="20%" fill="#131F3C"></path>
            <path d="M86.514929,145.547374 L89.7584466,145.547374 L89.7584466,162 L86.890989,162 L86.890989,160.354737 C86.1623727,161.365399 84.8696664,162.329053 82.8013363,162.329053 C79.2052624,162.329053 77.2779549,159.438091 77.2779549,156.3591 C77.2779549,153.280108 79.2052624,150.389147 82.8013363,150.389147 C84.5876214,150.389147 85.7863127,151.117763 86.514929,151.916891 L86.514929,145.547374 Z M86.514929,155.019386 C86.0683577,154.032228 85.0106889,153.139086 83.5769601,153.139086 C81.7201638,153.139086 80.6154875,154.596318 80.6154875,156.3591 C80.6154875,158.121881 81.7201638,159.579114 83.5769601,159.579114 C85.0106889,159.579114 86.0683577,158.685971 86.514929,157.698814 L86.514929,155.019386 Z M95.8224144,162 L92.555393,162 L92.555393,150.7182 L95.8224144,150.7182 L95.8224144,162 Z M96.1044594,146.981103 C96.1044594,148.273809 95.2113168,148.837899 94.1771518,148.837899 C93.1664905,148.837899 92.273348,148.273809 92.273348,146.981103 C92.273348,145.711901 93.1664905,145.147811 94.1771518,145.147811 C95.2113168,145.147811 96.1044594,145.711901 96.1044594,146.981103 Z M98.1492857,153.867702 C98.1492857,151.258786 100.476157,150.389147 102.850036,150.389147 C104.448291,150.389147 105.858516,150.788711 107.0102,151.352801 L107.0102,154.032228 C106.046546,153.374123 104.401283,152.880545 103.06157,152.880545 C102.332953,152.880545 101.486818,153.092078 101.486818,153.773687 C101.486818,155.653987 107.856335,154.713837 107.856335,158.850497 C107.856335,161.506421 105.435448,162.329053 102.732517,162.329053 C101.016743,162.329053 99.3949845,161.952992 98.2433007,161.271384 L98.2433007,158.568452 C99.4654958,159.36758 101.18127,159.767144 102.544487,159.767144 C103.743178,159.767144 104.518802,159.55561 104.518802,158.921009 C104.518802,157.11122 98.1492857,157.910347 98.1492857,153.867702 Z M109.219552,156.523626 C109.219552,152.198936 112.46307,150.365643 115.589069,150.365643 C116.834768,150.365643 118.056963,150.647688 119.067624,151.188275 L119.067624,154.055732 C118.268497,153.53865 117.140316,153.209597 116.059144,153.209597 C114.272859,153.209597 112.557085,154.079236 112.557085,156.3591 C112.557085,158.521445 114.249355,159.508602 116.012136,159.508602 C117.210828,159.508602 118.362512,159.17955 119.185143,158.685971 L119.185143,161.576932 C118.080466,162.047008 116.811264,162.329053 115.377535,162.329053 C112.298544,162.329053 109.219552,160.542767 109.219552,156.523626 Z M120.73639,156.3591 C120.73639,152.41047 123.697863,150.389147 126.964884,150.389147 C130.255409,150.389147 133.193378,152.41047 133.193378,156.3591 C133.193378,160.30773 130.255409,162.329053 126.964884,162.329053 C123.697863,162.329053 120.73639,160.30773 120.73639,156.3591 Z M129.879349,156.3591 C129.879349,154.619822 128.845184,153.303612 126.964884,153.303612 C125.108088,153.303612 124.073923,154.619822 124.073923,156.3591 C124.073923,158.098377 125.108088,159.414587 126.964884,159.414587 C128.845184,159.414587 129.879349,158.098377 129.879349,156.3591 Z M143.158969,150.7182 L146.42599,150.7182 L146.42599,162 L143.535029,162 L143.535029,160.566271 C142.66539,161.576932 141.372684,162.329053 139.774429,162.329053 C136.718941,162.329053 135.191197,160.30773 135.191197,157.698814 L135.191197,150.7182 L138.458219,150.7182 L138.458219,157.275746 C138.458219,158.779986 139.28085,159.508602 140.620564,159.508602 C141.795751,159.508602 142.66539,158.756482 143.158969,158.074874 L143.158969,150.7182 Z M152.090394,152.151928 C152.960033,151.141267 154.229235,150.389147 155.850994,150.389147 C158.812467,150.389147 160.434226,152.41047 160.434226,155.019386 L160.434226,162 L157.167204,162 L157.167204,155.442453 C157.167204,153.91471 156.250558,153.209597 154.981355,153.209597 C153.829672,153.209597 152.936529,153.961717 152.466454,154.643326 L152.466454,162 L149.199433,162 L149.199433,150.7182 L152.090394,150.7182 L152.090394,152.151928 Z M163.912781,147.427674 L167.156298,146.652051 L167.156298,150.7182 L170.728869,150.7182 L170.728869,153.468138 L167.156298,153.468138 L167.156298,157.886844 C167.156298,159.062031 167.743892,159.579114 168.966087,159.579114 C169.718207,159.579114 170.352809,159.461595 171.010914,159.203054 L171.010914,161.835474 C170.141275,162.141023 169.10711,162.329053 167.97893,162.329053 C165.793081,162.329053 163.912781,161.318391 163.912781,158.521445 L163.912781,153.468138 L162.008977,153.468138 L162.008977,150.7182 L163.912781,150.7182 L163.912781,147.427674 Z" id="discount" fill="#131F3C"></path>
        </g>
    </g>
</svg>