<?xml version="1.0" encoding="UTF-8" standalone="no"?>
<svg width="250px" height="293px" viewBox="0 0 250 293" version="1.1" xmlns="http://www.w3.org/2000/svg" xmlns:xlink="http://www.w3.org/1999/xlink">
    <!-- Generator: Sketch 49 (51002) - http://www.bohemiancoding.com/sketch -->
    <title>Group 39 Copy</title>
    <desc>Created with Sketch.</desc>
    <defs>
        <radialGradient cx="101.120329%" cy="100%" fx="101.120329%" fy="100%" r="101.454359%" gradientTransform="translate(1.011203,1.000000),scale(1.000000,0.999999),rotate(90.000000),translate(-1.011203,-1.000000)" id="radialGradient-1">
            <stop stop-color="#FF9495" offset="0%"></stop>
            <stop stop-color="#FE5F60" offset="70.3742825%"></stop>
            <stop stop-color="#FF9091" offset="100%"></stop>
        </radialGradient>
        <radialGradient cx="50%" cy="50%" fx="50%" fy="50%" r="50.0301469%" id="radialGradient-2">
            <stop stop-color="#8D00FF" offset="0%"></stop>
            <stop stop-color="#5C00FE" offset="69.8959662%"></stop>
            <stop stop-color="#8900FF" offset="100%"></stop>
        </radialGradient>
    </defs>
    <g id="Monoreto" stroke="none" stroke-width="1" fill="none" fill-rule="evenodd">
        <g id="Group-39-Copy" transform="translate(-1.000000, -6.000000)">
            <g id="2-copy">
                <g id="Group-2" transform="translate(126.066640, 173.762969) scale(-1, 1) translate(-126.066640, -173.762969) translate(0.566640, 48.762969)">
                    <path d="M0.773750896,124.873729 C0.773779989,116.689946 1.57209481,108.584814 3.16869536,100.558282 C4.76529591,92.5317607 7.12950015,84.7380986 10.2613081,77.1772896 C13.393116,69.6164805 17.2323564,62.4338 21.7790176,55.629254 C26.325673,48.8247085 31.4923987,42.5290333 37.2791891,36.7422459 C43.0659853,30.9554544 49.3616506,25.7887338 56.1661792,21.2420837 C62.9707136,16.6954341 70.153394,12.8562164 77.7141798,9.7244312 C85.2749598,6.59264654 93.068616,4.22846849 101.095102,2.6318982 C109.121588,1.03532325 117.226597,0.237031125 125.410328,0.237031125 L125.410328,56.3235362 C120.909297,56.3235653 116.451511,56.762639 112.036963,57.6407748 C107.62241,58.518899 103.33595,59.8192111 99.17753,61.5416993 C95.0191103,63.2641992 91.0686861,65.3757843 87.3262108,67.8764488 C83.5837413,70.3771134 80.1211632,73.2188123 76.9384532,76.4015455 C73.7557433,79.5842788 70.9140618,83.0468976 68.4134322,86.7893845 C65.9127968,90.5318831 63.8012407,94.482348 62.0787699,98.6407794 C60.3563108,102.799211 59.0560162,107.085712 58.1779036,111.500294 C57.2998202,115.914842 56.8607755,120.372669 56.8607581,124.873729 L0.773750896,124.873729 Z" id="Fill-8" fill="url(#radialGradient-1)"></path>
                    <path d="M125.475948,0.237031125 C133.652855,0.23706659 141.751206,1.03472162 149.770988,2.62999272 C157.790771,4.22526731 165.577876,6.58750783 173.132322,9.71671311 C180.68679,12.8459137 187.863445,16.6819591 194.662297,21.2248403 C201.461125,25.7677257 207.75149,30.9301581 213.533426,36.7121376 C219.315362,42.4941165 224.477725,48.7845522 229.020556,55.5834348 C233.563387,62.3823272 237.399362,69.5590225 240.528504,77.1135206 C243.657681,84.6680362 246.019921,92.4552054 247.615154,100.475028 C249.210382,108.494845 250.007981,116.593231 250.007981,124.770157 C250.007946,132.94714 249.210312,141.045555 247.615009,149.065407 C246.019781,157.085259 243.657541,164.87244 240.528289,172.426979 C237.399112,179.981512 233.563073,187.158224 229.020201,193.957105 C224.477335,200.755992 219.314897,207.046426 213.532891,212.828415 C207.75092,218.610403 201.460521,223.772824 194.661605,228.315708 C187.862718,232.858574 180.686029,236.694601 173.131525,239.823761 C165.577021,242.952955 157.789846,245.31516 149.770029,246.910411 C141.750195,248.505655 133.651809,249.303272 125.474866,249.303272 C117.297883,249.303237 109.199485,248.505586 101.179651,246.9103 C93.1597989,245.315038 85.3726007,242.952798 77.8180619,239.82358 C70.2635232,236.694386 63.0868163,232.858347 56.2879297,228.315475 C49.4890373,223.772592 43.1986028,218.61017 37.4166263,212.828182 C31.6346439,207.046217 26.4722168,200.755777 21.9293506,193.956896 C17.3864729,187.158009 13.5504514,179.98132 10.421263,172.426798 C7.29207463,164.872294 4.92986378,157.085137 3.33462466,149.06532 C1.73936229,141.045485 0.941739824,132.947099 0.941739824,124.770157 C0.941739824,124.770153 19.6218754,124.770159 56.9821467,124.770174 C56.9821641,129.267494 57.4208788,133.721635 58.2982851,138.132549 C59.175668,142.54347 60.4748997,146.826409 62.1959626,150.981403 C63.917043,155.136403 66.0268562,159.083585 68.5254489,162.82298 C71.0240415,166.562381 73.8633794,170.022135 77.0434624,173.202218 C80.2235571,176.382301 83.6832989,179.221639 87.4226764,181.720231 C91.1620597,184.218783 95.1092365,186.328602 99.2642186,188.049665 C103.419201,189.770722 107.70214,191.069954 112.113037,191.947343 C116.52394,192.824708 120.97804,193.263394 125.47536,193.263394 C129.972686,193.263377 134.426821,192.824673 138.837759,191.94729 C143.248656,191.069884 147.531613,189.770653 151.686613,188.049572 C155.841612,186.328515 159.788789,184.218696 163.52819,181.720103 C167.267567,179.221511 170.727309,176.382179 173.907404,173.202096 C177.087504,170.022012 179.926842,166.562271 182.425435,162.822876 C184.92401,159.083475 187.033823,155.136298 188.754868,150.981316 C190.475908,146.826334 191.77514,142.543394 192.652529,138.132497 C193.529912,133.721583 193.968597,129.267477 193.96858,124.770174 C193.968562,120.272854 193.529859,115.818713 192.652476,111.407799 C191.77507,106.996878 190.475838,102.713921 188.754758,98.5589274 C187.033718,94.4039337 184.923899,90.4567452 182.425307,86.7173561 C179.92672,82.977967 177.087365,79.5182309 173.907282,76.338142 C170.727198,73.1580474 167.267462,70.3187211 163.528062,67.8201401 C159.788667,65.3215532 155.841484,63.21174 151.686502,61.4906887 C147.531526,59.7696374 143.248586,58.4704115 138.837701,57.5930227 C134.426786,56.7156397 129.972686,56.2769482 125.47536,56.2769482 L125.475948,0.237031125 Z" id="Fill-8" fill="url(#radialGradient-2)"></path>
                </g>
                <circle id="Oval" fill="#FFFFFF" cx="124.90822" cy="173.671189" r="87.3982442"></circle>
                <path d="M80.1879256,200.352202 L77.8641075,200.352202 L77.8641075,197.209766 C75.9099878,196.99851 74.0614961,196.47037 72.5827028,195.651752 L72.5827028,192.694165 C74.6160436,193.988109 76.9926757,194.51625 79.1052376,194.51625 C81.4818698,194.51625 83.0926982,193.961702 83.0926982,192.218839 C83.0926982,187.940901 72.6619238,190.211905 72.6619238,183.662963 C72.6619238,180.652562 74.9593349,179.041734 77.8641075,178.698443 L77.8641075,175.5296 L80.1879256,175.5296 L80.1879256,178.672036 C81.9571962,178.804071 83.7264668,179.279397 84.9675969,180.018794 L84.9675969,182.897159 C83.4623965,181.893693 81.4026487,181.339145 79.4221219,181.365552 C77.1775249,181.365552 75.7251386,182.025728 75.7251386,183.610149 C75.7251386,187.59761 86.155913,185.458641 86.155913,192.060397 C86.155913,195.625345 83.4888036,197.051324 80.1879256,197.236173 L80.1879256,200.352202 Z M88.3212889,187.940901 C88.3212889,182.685903 90.8035491,178.619222 96.3754311,178.619222 C101.947313,178.619222 104.429573,182.685903 104.429573,187.940901 C104.429573,193.195899 101.947313,197.26258 96.3754311,197.26258 C90.8035491,197.26258 88.3212889,193.195899 88.3212889,187.940901 Z M101.392766,187.940901 C101.392766,183.768591 99.8083442,181.365552 96.3754311,181.365552 C92.916111,181.365552 91.3580966,183.768591 91.3580966,187.940901 C91.3580966,192.113211 92.916111,194.51625 96.3754311,194.51625 C99.8083442,194.51625 101.392766,192.113211 101.392766,187.940901 Z M110.529596,195.466903 C110.529596,196.655219 109.710978,197.209766 108.760325,197.209766 C107.809672,197.209766 106.964648,196.655219 106.964648,195.466903 C106.964648,194.331401 107.809672,193.776853 108.760325,193.776853 C109.710978,193.776853 110.529596,194.331401 110.529596,195.466903 Z M113.06467,187.940901 C113.06467,182.685903 115.54693,178.619222 121.118812,178.619222 C126.690694,178.619222 129.172955,182.685903 129.172955,187.940901 C129.172955,193.195899 126.690694,197.26258 121.118812,197.26258 C115.54693,197.26258 113.06467,193.195899 113.06467,187.940901 Z M126.136147,187.940901 C126.136147,183.768591 124.551725,181.365552 121.118812,181.365552 C117.659492,181.365552 116.101478,183.768591 116.101478,187.940901 C116.101478,192.113211 117.659492,194.51625 121.118812,194.51625 C124.551725,194.51625 126.136147,192.113211 126.136147,187.940901 Z M140.633603,178.962513 L143.723225,178.962513 L143.723225,190.634417 L146.812846,190.634417 L146.812846,193.248713 L143.723225,193.248713 L143.723225,196.919289 L140.818452,196.919289 L140.818452,193.248713 L131.07426,193.248713 L131.07426,190.687231 L140.633603,178.962513 Z M140.818452,190.634417 L140.818452,182.791531 L134.427952,190.634417 L140.818452,190.634417 Z M149.321514,180.441306 C151.170005,179.173769 153.203346,178.619222 155.289501,178.619222 C158.93367,178.619222 161.60078,180.309271 161.60078,183.662963 C161.60078,186.699771 159.065705,188.495448 156.636259,189.947835 C154.312441,191.321 152.120658,192.430095 152.094251,194.225773 L161.732815,194.199366 L161.732815,196.919289 L148.714152,196.919289 L148.714152,195.546124 C148.714152,191.162558 151.962216,189.498915 154.68214,187.888087 C156.768294,186.673364 158.590379,185.749118 158.590379,183.715777 C158.590379,182.157763 157.243621,181.339145 155.025431,181.339145 C153.203346,181.339145 151.222819,181.972914 149.321514,183.346079 L149.321514,180.441306 Z M165.456205,178.962513 L176.520748,178.962513 L176.520748,181.656029 L168.228943,181.656029 L167.964872,185.986781 C168.836304,185.775525 169.76055,185.669897 170.684796,185.669897 C174.144116,185.669897 177.365773,187.175097 177.365773,191.400221 C177.365773,195.282054 174.064895,197.26258 170.103841,197.26258 C168.017686,197.26258 165.931532,196.813661 164.34711,196.047857 L164.34711,193.222306 C165.852311,194.093737 167.885651,194.542657 169.76055,194.542657 C172.427659,194.542657 174.328965,193.486376 174.328965,191.373814 C174.328965,188.997182 172.295624,188.152157 169.443666,188.152157 C167.991279,188.152157 166.327637,188.442634 164.875251,188.944368 L165.456205,178.962513 Z M90.2886122,210.962513 L92.5068022,210.962513 L92.5068022,226.199366 L95.702052,226.199366 L95.702052,228.919289 L85.9314533,228.919289 L85.9314533,226.199366 L89.5228085,226.199366 L89.5228085,214.052135 L85.9314533,215.398893 L85.9314533,212.626155 L90.2886122,210.962513 Z M121.528121,210.434372 L124.248045,210.434372 L124.248045,228.919289 L121.237644,228.919289 L121.237644,215.979847 L115.401692,224.746979 L113.606014,224.746979 L107.770062,215.95344 L107.770062,228.919289 L104.759661,228.919289 L104.759661,210.434372 L107.479585,210.434372 L114.503853,221.023589 L121.528121,210.434372 Z M131.747639,228.919289 L128.737239,228.919289 L128.737239,210.434372 L131.56279,210.434372 L141.518238,223.954769 C141.491831,223.321 141.491831,222.60801 141.491831,221.921428 L141.491831,210.434372 L144.502232,210.434372 L144.502232,228.919289 L141.67668,228.919289 L131.721232,215.398893 C131.747639,216.032661 131.747639,216.745651 131.747639,217.405827 L131.747639,228.919289 Z M152.001827,228.919289 L148.991426,228.919289 L148.991426,210.434372 L156.385393,210.434372 C159.844713,210.434372 163.488882,211.807538 163.488882,216.217511 C163.488882,219.518389 161.429134,221.10281 158.999688,221.683765 L164.914861,228.919289 L161.297099,228.919289 L155.751624,222.000649 L152.001827,222.000649 L152.001827,228.919289 Z M152.001827,213.180703 L152.001827,219.333539 L156.517428,219.333539 C158.497954,219.333539 160.425667,218.62055 160.425667,216.270325 C160.425667,213.893693 158.497954,213.180703 156.517428,213.180703 L152.001827,213.180703 Z" id="$0.0425-1-MNR" fill="#131F3C"></path>
                <g id="Group-4" transform="translate(0.000000, 48.762969)"></g>
                <path d="M27.6279729,25 L23.6894254,25 L23.6894254,6.62011173 L27.39166,6.62011173 L35.9514366,18.6195531 C35.8989226,17.8581006 35.8726656,16.9391061 35.8726656,16.0988827 L35.8726656,6.62011173 L39.8112131,6.62011173 L39.8112131,25 L36.1089785,25 L27.5492019,13.0005587 C27.6017159,13.7620112 27.6279729,14.6810056 27.6279729,15.5212291 L27.6279729,25 Z M42.6207103,18.698324 C42.6207103,14.2871508 45.9290902,12.0290503 49.5788109,12.0290503 C53.2547885,12.0290503 56.5369114,14.2871508 56.5369114,18.698324 C56.5369114,23.1094972 53.2547885,25.3675978 49.5788109,25.3675978 C45.9290902,25.3675978 42.6207103,23.1094972 42.6207103,18.698324 Z M52.8346768,18.698324 C52.8346768,16.7553073 51.6793695,15.2849162 49.5788109,15.2849162 C47.5045092,15.2849162 46.3492019,16.7553073 46.3492019,18.698324 C46.3492019,20.6413408 47.5045092,22.1117318 49.5788109,22.1117318 C51.6793695,22.1117318 52.8346768,20.6413408 52.8346768,18.698324 Z M67.9586991,12.396648 L71.8447326,12.396648 L66.64585,25 L62.8123304,25 L57.6134477,12.396648 L61.4994812,12.396648 L64.7290902,21.1402235 L67.9586991,12.396648 Z M72.921269,18.698324 C72.921269,13.9458101 76.5709896,12.0290503 79.4067438,12.0290503 C84.6318835,12.0290503 86.3123304,16.1513966 85.4721069,19.8798883 L76.5972466,19.8798883 C77.0173583,21.7178771 78.9603751,22.4793296 81.0346768,22.4793296 C82.4788109,22.4793296 83.765403,22.1905028 84.8419393,21.7178771 L84.8419393,24.5798883 C83.6603751,25.0787709 82.1112131,25.3675978 80.2207103,25.3675978 C76.2296488,25.3675978 72.921269,23.0832402 72.921269,18.698324 Z M82.189984,17.5167598 C82.321269,16.6502793 81.8223863,14.8122905 79.5380287,14.8122905 C77.9888667,14.8122905 76.6235036,15.7837989 76.5709896,17.5167598 L82.189984,17.5167598 Z M91.642498,25 L87.9927773,25 L87.9927773,12.396648 L91.2223863,12.396648 L91.2223863,13.8670391 C91.8788109,13.0793296 93.3229449,12.0290503 95.2397047,12.0290503 C97.1302075,12.0290503 98.3642857,12.8167598 99.0994812,13.8932961 C100.149761,12.8692737 101.567638,12.0290503 103.300599,12.0290503 C106.845291,12.0290503 108.000599,14.7860335 108.000599,17.0178771 L108.000599,25 L104.377135,25 L104.377135,17.2541899 C104.377135,15.9413408 103.563168,15.1798883 102.407861,15.1798883 C101.410096,15.1798883 100.517358,15.7575419 99.9134477,16.4402235 C99.9397047,16.6240223 99.9397047,16.8078212 99.9397047,17.0178771 L99.9397047,25 L96.316241,25 L96.316241,17.2541899 C96.316241,15.9413408 95.5022745,15.1798883 94.3469673,15.1798883 C93.244174,15.1798883 92.2464086,15.9150838 91.642498,16.7027933 L91.642498,25 Z M110.967638,6.62011173 L114.617358,6.62011173 L114.617358,13.7357542 C115.405068,12.8430168 116.770431,12.0290503 118.765962,12.0290503 C122.757023,12.0290503 124.910096,15.2586592 124.910096,18.698324 C124.910096,22.1379888 122.757023,25.3675978 118.765962,25.3675978 C116.42909,25.3675978 114.984956,24.2910615 114.197247,23.1620112 L114.197247,25 L110.967638,25 L110.967638,6.62011173 Z M121.181604,18.698324 C121.181604,16.7290503 119.947526,15.1011173 117.873224,15.1011173 C116.271548,15.1011173 115.089984,16.0988827 114.591101,17.201676 L114.591101,20.1949721 C115.089984,21.2977654 116.271548,22.2955307 117.873224,22.2955307 C119.947526,22.2955307 121.181604,20.6675978 121.181604,18.698324 Z M126.590543,18.698324 C126.590543,13.9458101 130.240263,12.0290503 133.076018,12.0290503 C138.301157,12.0290503 139.981604,16.1513966 139.141381,19.8798883 L130.26652,19.8798883 C130.686632,21.7178771 132.629649,22.4793296 134.703951,22.4793296 C136.148085,22.4793296 137.434677,22.1905028 138.511213,21.7178771 L138.511213,24.5798883 C137.329649,25.0787709 135.780487,25.3675978 133.889984,25.3675978 C129.898923,25.3675978 126.590543,23.0832402 126.590543,18.698324 Z M135.859258,17.5167598 C135.990543,16.6502793 135.49166,14.8122905 133.207302,14.8122905 C131.65814,14.8122905 130.292777,15.7837989 130.240263,17.5167598 L135.859258,17.5167598 Z M144.89166,14.2871508 C145.784397,12.8955307 147.622386,11.8977654 149.985515,12.1340782 L149.985515,15.6787709 C147.989984,15.3374302 146.073224,16.0988827 145.311772,17.5955307 L145.311772,25 L141.662051,25 L141.662051,12.396648 L144.89166,12.396648 L144.89166,14.2871508 Z M166.002275,7.1452514 L169.914565,7.1452514 L169.914565,18.4620112 L172.619034,18.4620112 L172.619034,21.7441341 L169.914565,21.7441341 L169.914565,25 L166.159816,25 L166.159816,21.7441341 L156.786073,21.7441341 L156.786073,18.4882682 L166.002275,7.1452514 Z M166.159816,18.4620112 L166.159816,11.9502793 L160.882163,18.4620112 L166.159816,18.4620112 Z M198.114565,20.1424581 L180.679928,20.1424581 L180.679928,17.0703911 L198.114565,17.0703911 L198.114565,20.1424581 Z M211.059258,7.1452514 L213.921269,7.1452514 L213.921269,21.6128492 L216.914565,21.6128492 L216.914565,25 L206.726856,25 L206.726856,21.6128492 L210.087749,21.6128492 L210.087749,11.0837989 L206.726856,12.3441341 L206.726856,8.79944134 L211.059258,7.1452514 Z M223.163727,7.1452514 L226.025738,7.1452514 L226.025738,21.6128492 L229.019034,21.6128492 L229.019034,25 L218.831325,25 L218.831325,21.6128492 L222.192219,21.6128492 L222.192219,11.0837989 L218.831325,12.3441341 L218.831325,8.79944134 L223.163727,7.1452514 Z" id="November-4-—-11" fill="#131F3C"></path>
            </g>
            <path d="M103.745567,113.956634 L107.526235,113.956634 L107.526235,128.659233 L110.49476,128.659233 L110.49476,133 L99.1247504,133 L99.1247504,128.659233 L102.485344,128.659233 L102.485344,119.08154 L99.1247504,120.341763 L99.1247504,115.720946 L103.745567,113.956634 Z M113.575304,113.928629 L126.037507,113.928629 L126.037507,118.269397 L118.224126,118.241392 L118.028091,121.041887 C118.728215,120.929867 119.428339,120.873857 120.072453,120.873857 C123.965141,120.873857 126.877655,122.638169 126.877655,126.922926 C126.877655,131.627757 122.704918,133.420074 118.448166,133.420074 C116.235775,133.420074 114.023384,132.94399 112.315082,132.131847 L112.315082,127.371005 C113.799344,128.407188 116.03974,128.939282 117.888067,128.939282 C120.044448,128.939282 121.69674,128.295168 121.69674,126.810906 C121.69674,125.606693 120.716566,124.68253 117.608017,124.654525 C116.403804,124.654525 114.667497,124.822555 112.903186,125.438664 L113.575304,113.928629 Z M136.819412,134.680297 L133.738868,134.680297 L145.192892,111.716238 L148.273437,111.716238 L136.819412,134.680297 Z M139.283848,118.017352 C139.283848,121.377946 136.819412,123.058243 133.962908,123.058243 C131.078398,123.058243 128.613962,121.377946 128.613962,118.017352 C128.613962,114.656758 131.078398,112.976461 133.962908,112.976461 C136.819412,112.976461 139.283848,114.656758 139.283848,118.017352 Z M132.310616,118.017352 C132.310616,118.857501 132.758695,119.697649 133.962908,119.697649 C135.139115,119.697649 135.587195,118.857501 135.587195,118.017352 C135.587195,117.177204 135.139115,116.337055 133.962908,116.337055 C132.758695,116.337055 132.310616,117.177204 132.310616,118.017352 Z M153.286323,128.379183 C153.286323,131.739777 150.821887,133.420074 147.965382,133.420074 C145.080873,133.420074 142.616437,131.739777 142.616437,128.379183 C142.616437,125.018589 145.080873,123.338292 147.965382,123.338292 C150.821887,123.338292 153.286323,125.018589 153.286323,128.379183 Z M146.31309,128.379183 C146.31309,129.219332 146.761169,130.05948 147.965382,130.05948 C149.14159,130.05948 149.589669,129.219332 149.589669,128.379183 C149.589669,127.539035 149.14159,126.698886 147.965382,126.698886 C146.761169,126.698886 146.31309,127.539035 146.31309,128.379183 Z" id="15%" fill="#131F3C"></path>
            <path d="M87.514929,145.547374 L90.7584466,145.547374 L90.7584466,162 L87.890989,162 L87.890989,160.354737 C87.1623727,161.365399 85.8696664,162.329053 83.8013363,162.329053 C80.2052624,162.329053 78.2779549,159.438091 78.2779549,156.3591 C78.2779549,153.280108 80.2052624,150.389147 83.8013363,150.389147 C85.5876214,150.389147 86.7863127,151.117763 87.514929,151.916891 L87.514929,145.547374 Z M87.514929,155.019386 C87.0683577,154.032228 86.0106889,153.139086 84.5769601,153.139086 C82.7201638,153.139086 81.6154875,154.596318 81.6154875,156.3591 C81.6154875,158.121881 82.7201638,159.579114 84.5769601,159.579114 C86.0106889,159.579114 87.0683577,158.685971 87.514929,157.698814 L87.514929,155.019386 Z M96.8224144,162 L93.555393,162 L93.555393,150.7182 L96.8224144,150.7182 L96.8224144,162 Z M97.1044594,146.981103 C97.1044594,148.273809 96.2113168,148.837899 95.1771518,148.837899 C94.1664905,148.837899 93.273348,148.273809 93.273348,146.981103 C93.273348,145.711901 94.1664905,145.147811 95.1771518,145.147811 C96.2113168,145.147811 97.1044594,145.711901 97.1044594,146.981103 Z M99.1492857,153.867702 C99.1492857,151.258786 101.476157,150.389147 103.850036,150.389147 C105.448291,150.389147 106.858516,150.788711 108.0102,151.352801 L108.0102,154.032228 C107.046546,153.374123 105.401283,152.880545 104.06157,152.880545 C103.332953,152.880545 102.486818,153.092078 102.486818,153.773687 C102.486818,155.653987 108.856335,154.713837 108.856335,158.850497 C108.856335,161.506421 106.435448,162.329053 103.732517,162.329053 C102.016743,162.329053 100.394984,161.952992 99.2433007,161.271384 L99.2433007,158.568452 C100.465496,159.36758 102.18127,159.767144 103.544487,159.767144 C104.743178,159.767144 105.518802,159.55561 105.518802,158.921009 C105.518802,157.11122 99.1492857,157.910347 99.1492857,153.867702 Z M110.219552,156.523626 C110.219552,152.198936 113.46307,150.365643 116.589069,150.365643 C117.834768,150.365643 119.056963,150.647688 120.067624,151.188275 L120.067624,154.055732 C119.268497,153.53865 118.140316,153.209597 117.059144,153.209597 C115.272859,153.209597 113.557085,154.079236 113.557085,156.3591 C113.557085,158.521445 115.249355,159.508602 117.012136,159.508602 C118.210828,159.508602 119.362512,159.17955 120.185143,158.685971 L120.185143,161.576932 C119.080466,162.047008 117.811264,162.329053 116.377535,162.329053 C113.298544,162.329053 110.219552,160.542767 110.219552,156.523626 Z M121.73639,156.3591 C121.73639,152.41047 124.697863,150.389147 127.964884,150.389147 C131.255409,150.389147 134.193378,152.41047 134.193378,156.3591 C134.193378,160.30773 131.255409,162.329053 127.964884,162.329053 C124.697863,162.329053 121.73639,160.30773 121.73639,156.3591 Z M130.879349,156.3591 C130.879349,154.619822 129.845184,153.303612 127.964884,153.303612 C126.108088,153.303612 125.073923,154.619822 125.073923,156.3591 C125.073923,158.098377 126.108088,159.414587 127.964884,159.414587 C129.845184,159.414587 130.879349,158.098377 130.879349,156.3591 Z M144.158969,150.7182 L147.42599,150.7182 L147.42599,162 L144.535029,162 L144.535029,160.566271 C143.66539,161.576932 142.372684,162.329053 140.774429,162.329053 C137.718941,162.329053 136.191197,160.30773 136.191197,157.698814 L136.191197,150.7182 L139.458219,150.7182 L139.458219,157.275746 C139.458219,158.779986 140.28085,159.508602 141.620564,159.508602 C142.795751,159.508602 143.66539,158.756482 144.158969,158.074874 L144.158969,150.7182 Z M153.090394,152.151928 C153.960033,151.141267 155.229235,150.389147 156.850994,150.389147 C159.812467,150.389147 161.434226,152.41047 161.434226,155.019386 L161.434226,162 L158.167204,162 L158.167204,155.442453 C158.167204,153.91471 157.250558,153.209597 155.981355,153.209597 C154.829672,153.209597 153.936529,153.961717 153.466454,154.643326 L153.466454,162 L150.199433,162 L150.199433,150.7182 L153.090394,150.7182 L153.090394,152.151928 Z M164.912781,147.427674 L168.156298,146.652051 L168.156298,150.7182 L171.728869,150.7182 L171.728869,153.468138 L168.156298,153.468138 L168.156298,157.886844 C168.156298,159.062031 168.743892,159.579114 169.966087,159.579114 C170.718207,159.579114 171.352809,159.461595 172.010914,159.203054 L172.010914,161.835474 C171.141275,162.141023 170.10711,162.329053 168.97893,162.329053 C166.793081,162.329053 164.912781,161.318391 164.912781,158.521445 L164.912781,153.468138 L163.008977,153.468138 L163.008977,150.7182 L164.912781,150.7182 L164.912781,147.427674 Z" id="discount" fill="#131F3C"></path>
        </g>
    </g>
</svg>