<?xml version="1.0" encoding="UTF-8" standalone="no"?>
<svg width="250px" height="292px" viewBox="0 0 250 292" version="1.1" xmlns="http://www.w3.org/2000/svg" xmlns:xlink="http://www.w3.org/1999/xlink">
    <!-- Generator: Sketch 49 (51002) - http://www.bohemiancoding.com/sketch -->
    <title>Group 41 Copy</title>
    <desc>Created with Sketch.</desc>
    <defs>
        <radialGradient cx="100%" cy="100%" fx="100%" fy="100%" r="100.47898%" gradientTransform="translate(1.000000,1.000000),scale(1.000000,0.999999),rotate(90.000000),translate(-1.000000,-1.000000)" id="radialGradient-1">
            <stop stop-color="#8D00FF" offset="0%"></stop>
            <stop stop-color="#5C00FE" offset="69.8959662%"></stop>
            <stop stop-color="#8900FF" offset="100%"></stop>
        </radialGradient>
        <radialGradient cx="50%" cy="50%" fx="50%" fy="50%" r="50.0253367%" id="radialGradient-2">
            <stop stop-color="#FF9495" offset="0%"></stop>
            <stop stop-color="#FE5F60" offset="70.3742825%"></stop>
            <stop stop-color="#FF9091" offset="100%"></stop>
        </radialGradient>
    </defs>
    <g id="Monoreto" stroke="none" stroke-width="1" fill="none" fill-rule="evenodd">
        <g id="Group-41-Copy" transform="translate(0.000000, -7.000000)">
            <g id="4-copy">
                <g id="Group-Copy-3" transform="translate(0.545890, 0.588188)">
                    <g id="Group-3" transform="translate(0.000000, 48.762969)">
                        <g id="Group-8">
                            <path d="M0,125.013369 C2.91814549e-05,116.804853 0.800756631,108.675226 2.40218235,100.624437 C4.00360807,92.5736583 6.37495729,84.7564426 9.51623002,77.1727836 C12.6575028,69.5891246 16.5083459,62.384737 21.0687478,55.5596266 C25.6291439,48.7345168 30.8114843,42.4198151 36.6157632,36.6155391 C42.420048,30.811259 48.7347397,25.6289238 55.5598326,21.068533 C62.3849314,16.5081428 69.589319,12.6573224 77.1729546,9.51607244 C84.7565844,6.37482306 92.5737943,4.0035001 100.624537,2.40210473 C108.675281,0.800704688 116.804785,0 125.013248,0 L125.013248,56.256007 C120.498614,56.2560362 116.027356,56.6964369 111.599467,57.5772266 C107.171572,58.4580046 102.872157,59.7622464 98.7011703,61.4899402 C94.5301832,63.2176458 90.5678202,65.3356124 86.8140346,67.8438344 C83.0602548,70.3520563 79.5872123,73.2023432 76.3948837,76.3946952 C73.2025551,79.5870471 70.3522856,83.0601305 67.8440987,86.8139278 C65.335906,90.5677368 63.2179685,94.5301406 61.4902922,98.7011394 C59.7626275,102.872138 58.4584032,107.171594 57.5776369,111.599518 C56.6968997,116.027406 56.2565282,120.498706 56.2565107,125.013369 L0,125.013369 Z" id="Fill-8" fill="url(#radialGradient-1)"></path>
                            <path d="M124.740231,0 C132.917139,3.54646161e-05 140.809466,0.797690493 148.829249,2.3929616 C156.849031,3.98823619 164.636136,6.35047671 172.190582,9.47968199 C179.745051,12.6088826 186.921705,16.4449279 193.720557,20.9878092 C200.519385,25.5306945 206.80975,30.693127 212.591686,36.4751065 C218.373622,42.2570854 223.535985,48.5475211 228.078816,55.3464036 C232.621648,62.1452961 236.457622,69.3219914 239.586764,76.8764895 C242.715941,84.431005 245.078181,92.2181743 246.673414,100.237997 C248.268642,108.257814 249.066241,116.3562 249.066241,124.533125 C249.066206,132.710109 248.268572,140.808524 246.673269,148.828376 C245.078041,156.848228 242.715802,164.635409 239.586549,172.189947 C236.457372,179.74448 232.621334,186.921193 228.078462,193.720074 C223.535595,200.518961 218.373157,206.809395 212.591151,212.591383 C206.80918,218.373372 200.518781,223.535793 193.719865,228.078677 C186.920978,232.621543 179.744289,236.45757 172.189785,239.586729 C164.635281,242.715924 156.848106,245.078129 148.828289,246.673379 C140.808455,248.268624 132.710069,249.066241 124.533126,249.066241 C116.356143,249.066206 108.257746,248.268555 100.237911,246.673269 C92.2180591,245.078007 84.4308608,242.715767 76.8763221,239.586549 C69.3217834,236.457355 62.1450765,232.621316 55.3461899,228.078444 C48.5472975,223.53556 42.256863,218.373139 36.4748864,212.591151 C30.6929041,206.809186 25.5304769,200.518746 20.9876108,193.719865 C16.4447331,186.920978 12.6087116,179.744289 9.4795232,172.189767 C6.3503348,164.635263 3.98812395,156.848106 2.39288484,148.828289 C0.797622465,140.808454 5.00693342e-16,132.710068 0,124.533125 C0,124.533122 18.6801356,124.533128 56.0404068,124.533143 C56.0404243,129.030463 56.479139,133.484604 57.3565452,137.895518 C58.2339282,142.306439 59.5331599,146.589378 61.2542228,150.744372 C62.9753032,154.899372 65.0851164,158.846554 67.5837091,162.585949 C70.0823017,166.32535 72.9216395,169.785103 76.1017226,172.965187 C79.2818172,176.14527 82.7415591,178.984607 86.4809366,181.4832 C90.2203198,183.981752 94.1674967,186.091571 98.3224788,187.812634 C102.477461,189.533691 106.7604,190.832923 111.171297,191.710312 C115.5822,192.587677 120.0363,193.026363 124.533621,193.026363 C129.030947,193.026345 133.485081,192.587642 137.896019,191.710259 C142.306916,190.832853 146.589873,189.533621 150.744873,187.812541 C154.899872,186.091484 158.847049,183.981665 162.58645,181.483072 C166.325827,178.98448 169.785569,176.145147 172.965664,172.965064 C176.145764,169.784981 178.985102,166.325239 181.483695,162.585845 C183.98227,158.846444 186.092083,154.899267 187.813129,150.744285 C189.534168,146.589303 190.8334,142.306363 191.710789,137.895466 C192.588172,133.484552 193.026857,129.030446 193.02684,124.533143 C193.026823,120.035823 192.588119,115.581682 191.710736,111.170767 C190.83333,106.759847 189.534099,102.47689 187.813018,98.3218963 C186.091979,94.1669026 183.982159,90.2197141 181.483567,86.480325 C178.98498,82.7409359 176.145625,79.2811998 172.965542,76.1011109 C169.785459,72.9210162 166.325723,70.08169 162.586322,67.583109 C158.846927,65.0845221 154.899744,62.9747088 150.744762,61.2536575 C146.589786,59.5326062 142.306846,58.2333804 137.895961,57.3559916 C133.485047,56.4786086 129.030947,56.0399171 124.533621,56.0399171 L124.740231,0 Z" id="Fill-8" fill="url(#radialGradient-2)"></path>
                        </g>
                    </g>
                    <circle id="Oval" fill="#FFFFFF" cx="124.90822" cy="173.671189" r="87.3982442"></circle>
                    <path d="M80.636845,199.728204 L78.3130269,199.728204 L78.3130269,196.585769 C76.3589072,196.374512 74.5104155,195.846372 73.0316222,195.027754 L73.0316222,192.070168 C75.064963,193.364112 77.4415951,193.892252 79.554157,193.892252 C81.9307892,193.892252 83.5416176,193.337705 83.5416176,191.594841 C83.5416176,187.316903 73.1108433,189.587907 73.1108433,183.038965 C73.1108433,180.028565 75.4082543,178.417736 78.3130269,178.074445 L78.3130269,174.905602 L80.636845,174.905602 L80.636845,178.048038 C82.4061156,178.180073 84.1753862,178.655399 85.4165163,179.394796 L85.4165163,182.273162 C83.911316,181.269695 81.8515681,180.715147 79.8710413,180.741554 C77.6264443,180.741554 76.174058,181.40173 76.174058,182.986151 C76.174058,186.973612 86.6048324,184.834643 86.6048324,191.436399 C86.6048324,195.001347 83.937723,196.427326 80.636845,196.612176 L80.636845,199.728204 Z M88.7702083,187.316903 C88.7702083,182.061906 91.2524685,177.995224 96.8243505,177.995224 C102.396233,177.995224 104.878493,182.061906 104.878493,187.316903 C104.878493,192.571901 102.396233,196.638583 96.8243505,196.638583 C91.2524685,196.638583 88.7702083,192.571901 88.7702083,187.316903 Z M101.841685,187.316903 C101.841685,183.144593 100.257264,180.741554 96.8243505,180.741554 C93.3650304,180.741554 91.807016,183.144593 91.807016,187.316903 C91.807016,191.489213 93.3650304,193.892252 96.8243505,193.892252 C100.257264,193.892252 101.841685,191.489213 101.841685,187.316903 Z M110.978515,194.842905 C110.978515,196.031221 110.159898,196.585769 109.209245,196.585769 C108.258592,196.585769 107.413567,196.031221 107.413567,194.842905 C107.413567,193.707403 108.258592,193.152855 109.209245,193.152855 C110.159898,193.152855 110.978515,193.707403 110.978515,194.842905 Z M113.51359,187.316903 C113.51359,182.061906 115.99585,177.995224 121.567732,177.995224 C127.139614,177.995224 129.621874,182.061906 129.621874,187.316903 C129.621874,192.571901 127.139614,196.638583 121.567732,196.638583 C115.99585,196.638583 113.51359,192.571901 113.51359,187.316903 Z M126.585066,187.316903 C126.585066,183.144593 125.000645,180.741554 121.567732,180.741554 C118.108412,180.741554 116.550397,183.144593 116.550397,187.316903 C116.550397,191.489213 118.108412,193.892252 121.567732,193.892252 C125.000645,193.892252 126.585066,191.489213 126.585066,187.316903 Z M141.082522,178.338515 L144.172144,178.338515 L144.172144,190.01042 L147.261766,190.01042 L147.261766,192.624715 L144.172144,192.624715 L144.172144,196.295291 L141.267371,196.295291 L141.267371,192.624715 L131.52318,192.624715 L131.52318,190.063234 L141.082522,178.338515 Z M141.267371,190.01042 L141.267371,182.167534 L134.876872,190.01042 L141.267371,190.01042 Z M148.714152,178.338515 L162.049699,178.338515 L162.049699,180.715147 L154.602918,196.295291 L151.354855,196.295291 L158.643193,181.032032 L148.714152,181.032032 L148.714152,178.338515 Z M165.007286,178.338515 L176.071829,178.338515 L176.071829,181.032032 L167.780023,181.032032 L167.515953,185.362783 C168.387385,185.151527 169.311631,185.045899 170.235876,185.045899 C173.695197,185.045899 176.916853,186.5511 176.916853,190.776223 C176.916853,194.658056 173.615976,196.638583 169.654922,196.638583 C167.568767,196.638583 165.482612,196.189663 163.898191,195.42386 L163.898191,192.598308 C165.403391,193.46974 167.436732,193.918659 169.311631,193.918659 C171.97874,193.918659 173.880046,192.862378 173.880046,190.749816 C173.880046,188.373184 171.846705,187.528159 168.994746,187.528159 C167.54236,187.528159 165.878718,187.818637 164.426331,188.32037 L165.007286,178.338515 Z M90.2886122,210.338515 L92.5068022,210.338515 L92.5068022,225.575368 L95.702052,225.575368 L95.702052,228.295291 L85.9314533,228.295291 L85.9314533,225.575368 L89.5228085,225.575368 L89.5228085,213.428137 L85.9314533,214.774895 L85.9314533,212.002158 L90.2886122,210.338515 Z M121.528121,209.810375 L124.248045,209.810375 L124.248045,228.295291 L121.237644,228.295291 L121.237644,215.35585 L115.401692,224.122982 L113.606014,224.122982 L107.770062,215.329443 L107.770062,228.295291 L104.759661,228.295291 L104.759661,209.810375 L107.479585,209.810375 L114.503853,220.399591 L121.528121,209.810375 Z M131.747639,228.295291 L128.737239,228.295291 L128.737239,209.810375 L131.56279,209.810375 L141.518238,223.330771 C141.491831,222.697002 141.491831,221.984013 141.491831,221.29743 L141.491831,209.810375 L144.502232,209.810375 L144.502232,228.295291 L141.67668,228.295291 L131.721232,214.774895 C131.747639,215.408664 131.747639,216.121653 131.747639,216.781829 L131.747639,228.295291 Z M152.001827,228.295291 L148.991426,228.295291 L148.991426,209.810375 L156.385393,209.810375 C159.844713,209.810375 163.488882,211.18354 163.488882,215.593513 C163.488882,218.894391 161.429134,220.478812 158.999688,221.059767 L164.914861,228.295291 L161.297099,228.295291 L155.751624,221.376651 L152.001827,221.376651 L152.001827,228.295291 Z M152.001827,212.556705 L152.001827,218.709542 L156.517428,218.709542 C158.497954,218.709542 160.425667,217.996552 160.425667,215.646327 C160.425667,213.269695 158.497954,212.556705 156.517428,212.556705 L152.001827,212.556705 Z" id="$0.0475-1-MNR" fill="#131F3C"></path>
                    <path d="M21.6620112,6.62011173 L28.5413408,6.62011173 C35.0793296,6.62011173 38.1776536,10.4798883 38.1776536,15.8100559 C38.1776536,21.1402235 35.0793296,25 28.5413408,25 L21.6620112,25 L21.6620112,6.62011173 Z M34.1603352,15.8100559 C34.1603352,12.0290503 32.1910615,10.0860335 28.5413408,10.0860335 L25.6005587,10.0860335 L25.6005587,21.5340782 L28.5413408,21.5340782 C32.1910615,21.5340782 34.1603352,19.5910615 34.1603352,15.8100559 Z M40.0156425,18.698324 C40.0156425,13.9458101 43.6653631,12.0290503 46.5011173,12.0290503 C51.726257,12.0290503 53.4067039,16.1513966 52.5664804,19.8798883 L43.6916201,19.8798883 C44.1117318,21.7178771 46.0547486,22.4793296 48.1290503,22.4793296 C49.5731844,22.4793296 50.8597765,22.1905028 51.9363128,21.7178771 L51.9363128,24.5798883 C50.7547486,25.0787709 49.2055866,25.3675978 47.3150838,25.3675978 C43.3240223,25.3675978 40.0156425,23.0832402 40.0156425,18.698324 Z M49.2843575,17.5167598 C49.4156425,16.6502793 48.9167598,14.8122905 46.6324022,14.8122905 C45.0832402,14.8122905 43.7178771,15.7837989 43.6653631,17.5167598 L49.2843575,17.5167598 Z M54.3782123,18.8821229 C54.3782123,14.050838 58.001676,12.0027933 61.4938547,12.0027933 C62.8854749,12.0027933 64.250838,12.3178771 65.3798883,12.9217877 L65.3798883,16.1251397 C64.4871508,15.547486 63.2268156,15.1798883 62.0189944,15.1798883 C60.0234637,15.1798883 58.1067039,16.1513966 58.1067039,18.698324 C58.1067039,21.1139665 59.9972067,22.2167598 61.9664804,22.2167598 C63.3055866,22.2167598 64.5921788,21.849162 65.5111732,21.2977654 L65.5111732,24.5273743 C64.277095,25.052514 62.8592179,25.3675978 61.2575419,25.3675978 C57.8178771,25.3675978 54.3782123,23.372067 54.3782123,18.8821229 Z M67.2441341,18.698324 C67.2441341,13.9458101 70.8938547,12.0290503 73.7296089,12.0290503 C78.9547486,12.0290503 80.6351955,16.1513966 79.7949721,19.8798883 L70.9201117,19.8798883 C71.3402235,21.7178771 73.2832402,22.4793296 75.3575419,22.4793296 C76.801676,22.4793296 78.0882682,22.1905028 79.1648045,21.7178771 L79.1648045,24.5798883 C77.9832402,25.0787709 76.4340782,25.3675978 74.5435754,25.3675978 C70.552514,25.3675978 67.2441341,23.0832402 67.2441341,18.698324 Z M76.5128492,17.5167598 C76.6441341,16.6502793 76.1452514,14.8122905 73.8608939,14.8122905 C72.3117318,14.8122905 70.9463687,15.7837989 70.8938547,17.5167598 L76.5128492,17.5167598 Z M85.9653631,25 L82.3156425,25 L82.3156425,12.396648 L85.5452514,12.396648 L85.5452514,13.8670391 C86.201676,13.0793296 87.6458101,12.0290503 89.5625698,12.0290503 C91.4530726,12.0290503 92.6871508,12.8167598 93.4223464,13.8932961 C94.4726257,12.8692737 95.8905028,12.0290503 97.6234637,12.0290503 C101.168156,12.0290503 102.323464,14.7860335 102.323464,17.0178771 L102.323464,25 L98.7,25 L98.7,17.2541899 C98.7,15.9413408 97.8860335,15.1798883 96.7307263,15.1798883 C95.7329609,15.1798883 94.8402235,15.7575419 94.2363128,16.4402235 C94.2625698,16.6240223 94.2625698,16.8078212 94.2625698,17.0178771 L94.2625698,25 L90.6391061,25 L90.6391061,17.2541899 C90.6391061,15.9413408 89.8251397,15.1798883 88.6698324,15.1798883 C87.5670391,15.1798883 86.5692737,15.9150838 85.9653631,16.7027933 L85.9653631,25 Z M105.290503,6.62011173 L108.940223,6.62011173 L108.940223,13.7357542 C109.727933,12.8430168 111.093296,12.0290503 113.088827,12.0290503 C117.079888,12.0290503 119.232961,15.2586592 119.232961,18.698324 C119.232961,22.1379888 117.079888,25.3675978 113.088827,25.3675978 C110.751955,25.3675978 109.307821,24.2910615 108.520112,23.1620112 L108.520112,25 L105.290503,25 L105.290503,6.62011173 Z M115.504469,18.698324 C115.504469,16.7290503 114.270391,15.1011173 112.196089,15.1011173 C110.594413,15.1011173 109.412849,16.0988827 108.913966,17.201676 L108.913966,20.1949721 C109.412849,21.2977654 110.594413,22.2955307 112.196089,22.2955307 C114.270391,22.2955307 115.504469,20.6675978 115.504469,18.698324 Z M120.913408,18.698324 C120.913408,13.9458101 124.563128,12.0290503 127.398883,12.0290503 C132.624022,12.0290503 134.304469,16.1513966 133.464246,19.8798883 L124.589385,19.8798883 C125.009497,21.7178771 126.952514,22.4793296 129.026816,22.4793296 C130.47095,22.4793296 131.757542,22.1905028 132.834078,21.7178771 L132.834078,24.5798883 C131.652514,25.0787709 130.103352,25.3675978 128.212849,25.3675978 C124.221788,25.3675978 120.913408,23.0832402 120.913408,18.698324 Z M130.182123,17.5167598 C130.313408,16.6502793 129.814525,14.8122905 127.530168,14.8122905 C125.981006,14.8122905 124.615642,15.7837989 124.563128,17.5167598 L130.182123,17.5167598 Z M139.214525,14.2871508 C140.107263,12.8955307 141.945251,11.8977654 144.30838,12.1340782 L144.30838,15.6787709 C142.312849,15.3374302 140.396089,16.0988827 139.634637,17.5955307 L139.634637,25 L135.984916,25 L135.984916,12.396648 L139.214525,12.396648 L139.214525,14.2871508 Z M152.185475,8.66815642 C154.023464,7.35530726 156.150279,6.77765363 158.329609,6.77765363 C161.926816,6.77765363 164.841341,8.40558659 164.841341,12.0553073 C164.841341,15.0748603 162.346927,16.8603352 160.010056,18.2519553 C157.88324,19.5122905 156.071508,20.4837989 156.045251,21.6391061 L164.972626,21.6128492 L164.972626,25 L151.581564,25 L151.581564,23.2407821 C151.581564,18.9346369 154.83743,17.2541899 157.463128,15.7050279 C159.327374,14.6284916 160.92905,13.9195531 160.92905,12.2128492 C160.92905,10.9 159.773743,10.2173184 157.962011,10.2173184 C156.176536,10.2173184 154.075978,10.9 152.185475,12.3441341 L152.185475,8.66815642 Z M190.888268,20.1424581 L173.453631,20.1424581 L173.453631,17.0703911 L190.888268,17.0703911 L190.888268,20.1424581 Z M203.832961,7.1452514 L206.694972,7.1452514 L206.694972,21.6128492 L209.688268,21.6128492 L209.688268,25 L199.500559,25 L199.500559,21.6128492 L202.861453,21.6128492 L202.861453,11.0837989 L199.500559,12.3441341 L199.500559,8.79944134 L203.832961,7.1452514 Z M215.307263,14.6547486 C216.882682,13.8145251 218.326816,13.4469274 220.086034,13.4469274 C223.289385,13.4469274 226.308939,15.3899441 226.308939,19.2234637 C226.308939,23.2932961 223.131844,25.3675978 219.482123,25.3675978 C213.731844,25.3675978 211.394972,21.849162 211.394972,16.0726257 C211.394972,9.53463687 215.33352,6.77765363 219.875978,6.77765363 C221.556425,6.77765363 223.263128,7.17150838 224.786034,7.88044693 L224.786034,11.3463687 C223.551955,10.5324022 221.924022,10.0860335 220.401117,10.0860335 C217.985475,10.0860335 215.779888,11.1100559 215.307263,14.6547486 Z M215.307263,17.8318436 C215.67486,21.1664804 217.118994,22.1642458 219.167039,22.1642458 C220.9,22.1642458 222.370391,21.3765363 222.370391,19.4072626 C222.370391,17.3592179 220.716201,16.7290503 218.878212,16.7290503 C217.696648,16.7290503 216.436313,17.096648 215.307263,17.8318436 Z" id="December-2-—-16" fill="#131F3C"></path>
                </g>
            </g>
            <path d="M106.882121,115.928629 L119.344324,115.928629 L119.344324,120.269397 L111.530943,120.241392 L111.334908,123.041887 C112.035032,122.929867 112.735156,122.873857 113.37927,122.873857 C117.271958,122.873857 120.184472,124.638169 120.184472,128.922926 C120.184472,133.627757 116.011735,135.420074 111.754983,135.420074 C109.542592,135.420074 107.330201,134.94399 105.621899,134.131847 L105.621899,129.371005 C107.106161,130.407188 109.346557,130.939282 111.194884,130.939282 C113.351265,130.939282 115.003557,130.295168 115.003557,128.810906 C115.003557,127.606693 114.023384,126.68253 110.914834,126.654525 C109.710621,126.654525 107.974314,126.822555 106.210003,127.438664 L106.882121,115.928629 Z M130.126229,136.680297 L127.045685,136.680297 L138.499709,113.716238 L141.580254,113.716238 L130.126229,136.680297 Z M132.590665,120.017352 C132.590665,123.377946 130.126229,125.058243 127.269725,125.058243 C124.385215,125.058243 121.920779,123.377946 121.920779,120.017352 C121.920779,116.656758 124.385215,114.976461 127.269725,114.976461 C130.126229,114.976461 132.590665,116.656758 132.590665,120.017352 Z M125.617433,120.017352 C125.617433,120.857501 126.065512,121.697649 127.269725,121.697649 C128.445933,121.697649 128.894012,120.857501 128.894012,120.017352 C128.894012,119.177204 128.445933,118.337055 127.269725,118.337055 C126.065512,118.337055 125.617433,119.177204 125.617433,120.017352 Z M146.59314,130.379183 C146.59314,133.739777 144.128704,135.420074 141.272199,135.420074 C138.38769,135.420074 135.923254,133.739777 135.923254,130.379183 C135.923254,127.018589 138.38769,125.338292 141.272199,125.338292 C144.128704,125.338292 146.59314,127.018589 146.59314,130.379183 Z M139.619907,130.379183 C139.619907,131.219332 140.067987,132.05948 141.272199,132.05948 C142.448407,132.05948 142.896486,131.219332 142.896486,130.379183 C142.896486,129.539035 142.448407,128.698886 141.272199,128.698886 C140.067987,128.698886 139.619907,129.539035 139.619907,130.379183 Z" id="5%" fill="#131F3C"></path>
            <path d="M87.514929,147.547374 L90.7584466,147.547374 L90.7584466,164 L87.890989,164 L87.890989,162.354737 C87.1623727,163.365399 85.8696664,164.329053 83.8013363,164.329053 C80.2052624,164.329053 78.2779549,161.438091 78.2779549,158.3591 C78.2779549,155.280108 80.2052624,152.389147 83.8013363,152.389147 C85.5876214,152.389147 86.7863127,153.117763 87.514929,153.916891 L87.514929,147.547374 Z M87.514929,157.019386 C87.0683577,156.032228 86.0106889,155.139086 84.5769601,155.139086 C82.7201638,155.139086 81.6154875,156.596318 81.6154875,158.3591 C81.6154875,160.121881 82.7201638,161.579114 84.5769601,161.579114 C86.0106889,161.579114 87.0683577,160.685971 87.514929,159.698814 L87.514929,157.019386 Z M96.8224144,164 L93.555393,164 L93.555393,152.7182 L96.8224144,152.7182 L96.8224144,164 Z M97.1044594,148.981103 C97.1044594,150.273809 96.2113168,150.837899 95.1771518,150.837899 C94.1664905,150.837899 93.273348,150.273809 93.273348,148.981103 C93.273348,147.711901 94.1664905,147.147811 95.1771518,147.147811 C96.2113168,147.147811 97.1044594,147.711901 97.1044594,148.981103 Z M99.1492857,155.867702 C99.1492857,153.258786 101.476157,152.389147 103.850036,152.389147 C105.448291,152.389147 106.858516,152.788711 108.0102,153.352801 L108.0102,156.032228 C107.046546,155.374123 105.401283,154.880545 104.06157,154.880545 C103.332953,154.880545 102.486818,155.092078 102.486818,155.773687 C102.486818,157.653987 108.856335,156.713837 108.856335,160.850497 C108.856335,163.506421 106.435448,164.329053 103.732517,164.329053 C102.016743,164.329053 100.394984,163.952992 99.2433007,163.271384 L99.2433007,160.568452 C100.465496,161.36758 102.18127,161.767144 103.544487,161.767144 C104.743178,161.767144 105.518802,161.55561 105.518802,160.921009 C105.518802,159.11122 99.1492857,159.910347 99.1492857,155.867702 Z M110.219552,158.523626 C110.219552,154.198936 113.46307,152.365643 116.589069,152.365643 C117.834768,152.365643 119.056963,152.647688 120.067624,153.188275 L120.067624,156.055732 C119.268497,155.53865 118.140316,155.209597 117.059144,155.209597 C115.272859,155.209597 113.557085,156.079236 113.557085,158.3591 C113.557085,160.521445 115.249355,161.508602 117.012136,161.508602 C118.210828,161.508602 119.362512,161.17955 120.185143,160.685971 L120.185143,163.576932 C119.080466,164.047008 117.811264,164.329053 116.377535,164.329053 C113.298544,164.329053 110.219552,162.542767 110.219552,158.523626 Z M121.73639,158.3591 C121.73639,154.41047 124.697863,152.389147 127.964884,152.389147 C131.255409,152.389147 134.193378,154.41047 134.193378,158.3591 C134.193378,162.30773 131.255409,164.329053 127.964884,164.329053 C124.697863,164.329053 121.73639,162.30773 121.73639,158.3591 Z M130.879349,158.3591 C130.879349,156.619822 129.845184,155.303612 127.964884,155.303612 C126.108088,155.303612 125.073923,156.619822 125.073923,158.3591 C125.073923,160.098377 126.108088,161.414587 127.964884,161.414587 C129.845184,161.414587 130.879349,160.098377 130.879349,158.3591 Z M144.158969,152.7182 L147.42599,152.7182 L147.42599,164 L144.535029,164 L144.535029,162.566271 C143.66539,163.576932 142.372684,164.329053 140.774429,164.329053 C137.718941,164.329053 136.191197,162.30773 136.191197,159.698814 L136.191197,152.7182 L139.458219,152.7182 L139.458219,159.275746 C139.458219,160.779986 140.28085,161.508602 141.620564,161.508602 C142.795751,161.508602 143.66539,160.756482 144.158969,160.074874 L144.158969,152.7182 Z M153.090394,154.151928 C153.960033,153.141267 155.229235,152.389147 156.850994,152.389147 C159.812467,152.389147 161.434226,154.41047 161.434226,157.019386 L161.434226,164 L158.167204,164 L158.167204,157.442453 C158.167204,155.91471 157.250558,155.209597 155.981355,155.209597 C154.829672,155.209597 153.936529,155.961717 153.466454,156.643326 L153.466454,164 L150.199433,164 L150.199433,152.7182 L153.090394,152.7182 L153.090394,154.151928 Z M164.912781,149.427674 L168.156298,148.652051 L168.156298,152.7182 L171.728869,152.7182 L171.728869,155.468138 L168.156298,155.468138 L168.156298,159.886844 C168.156298,161.062031 168.743892,161.579114 169.966087,161.579114 C170.718207,161.579114 171.352809,161.461595 172.010914,161.203054 L172.010914,163.835474 C171.141275,164.141023 170.10711,164.329053 168.97893,164.329053 C166.793081,164.329053 164.912781,163.318391 164.912781,160.521445 L164.912781,155.468138 L163.008977,155.468138 L163.008977,152.7182 L164.912781,152.7182 L164.912781,149.427674 Z" id="discount" fill="#131F3C"></path>
        </g>
    </g>
</svg>