<?xml version="1.0" encoding="UTF-8" standalone="no"?>
<svg width="250px" height="292px" viewBox="0 0 250 292" version="1.1" xmlns="http://www.w3.org/2000/svg" xmlns:xlink="http://www.w3.org/1999/xlink">
    <!-- Generator: Sketch 49 (51002) - http://www.bohemiancoding.com/sketch -->
    <title>Group 42 Copy</title>
    <desc>Created with Sketch.</desc>
    <defs>
        <radialGradient cx="50%" cy="50%" fx="50%" fy="50%" r="50.0253367%" gradientTransform="translate(0.500000,0.500000),scale(1.000000,1.000000),rotate(88.176375),translate(-0.500000,-0.500000)" id="radialGradient-1">
            <stop stop-color="#FF9495" offset="0%"></stop>
            <stop stop-color="#FE5F60" offset="70.3742825%"></stop>
            <stop stop-color="#FF9091" offset="100%"></stop>
        </radialGradient>
    </defs>
    <g id="Monoreto" stroke="none" stroke-width="1" fill="none" fill-rule="evenodd">
        <g id="Group-42-Copy" transform="translate(0.000000, -7.000000)">
            <g id="5-copy">
                <g id="Group-7" transform="translate(0.637670, 49.351157)">
                    <path d="M124.637764,0 C132.821471,3.54941064e-05 140.926556,0.798353806 148.953007,2.39495144 C156.979458,3.99155257 164.773039,6.3557574 172.333767,9.48756474 C179.894518,12.6193674 187.07714,16.4586026 193.881645,21.0052615 C200.686127,25.5519244 206.981723,30.7186496 212.768466,36.505437 C218.55521,42.2922239 223.721866,48.5878904 228.268475,55.3924265 C232.815084,62.1969726 236.654249,69.3796356 239.785993,76.9404155 C242.917771,84.501213 245.281976,92.2948576 246.878535,100.321349 C248.475089,108.347835 249.273352,116.452955 249.273352,124.63668 C249.273317,132.820463 248.47502,140.925612 246.87839,148.952133 C245.281836,156.978654 242.917632,164.77231 239.785777,172.333131 C236.653998,179.893946 232.81477,187.076626 228.26812,193.88116 C223.721476,200.685701 218.554745,206.981366 212.767931,212.768162 C206.981152,218.554958 200.685522,223.721672 193.880953,228.268334 C187.076412,232.814977 179.893755,236.654194 172.332969,239.785956 C164.772184,242.917752 156.978533,245.281921 148.952047,246.878499 C140.925544,248.47507 132.820424,249.27335 124.636682,249.27335 C116.452899,249.273315 108.347767,248.475 100.321264,246.878388 C92.2947429,245.281799 84.5010693,242.917595 76.9402486,239.785775 C69.3794278,236.653979 62.1967532,232.81475 55.392213,228.268101 C48.5876669,223.72144 42.2920016,218.554726 36.5052171,212.767929 C30.7184267,206.981156 25.5517068,200.685485 21.005063,193.880951 C16.4584077,187.076411 12.6191964,179.893754 9.48740589,172.33295 C6.35561542,164.772164 3.99144027,156.978532 2.39487464,148.952046 C0.798285727,140.925542 0,132.820422 0,124.63668 C2.90935298e-05,116.452914 0.798343914,108.347783 2.39494446,100.32125 C3.99154501,92.2947296 6.35574925,84.5010675 9.48755718,76.9402584 C12.6193651,69.3794494 16.4586055,62.1967689 21.0052667,55.3922229 C25.5519221,48.5876774 30.7186478,42.2920022 36.5054382,36.5052148 C42.2922344,30.7184232 48.5878997,25.5517027 55.3924283,21.0050526 C62.1969627,16.458403 69.3796431,12.6191853 76.9404289,9.48740007 C84.5012089,6.35561542 92.2948651,3.99143736 100.321351,2.39486707 C108.347837,0.798292128 116.452951,4.65496476e-06 124.636682,4.65496476e-06 L124.636577,56.086505 C120.135546,56.0865341 115.67776,56.5256079 111.263212,57.4037437 C106.848659,58.2818679 102.562199,59.5821799 98.4037791,61.3046682 C94.2453594,63.0271681 90.2949352,65.1387532 86.5524599,67.6394177 C82.8099904,70.1400823 79.3474123,72.9817811 76.1647023,76.1645144 C72.9819924,79.3472476 70.1403109,82.8098664 67.6396813,86.5523534 C65.1390459,90.294852 63.0274898,94.2453169 61.305019,98.4037482 C59.5825599,102.56218 58.2822653,106.848681 57.4041528,111.263263 C56.5260693,115.67781 56.0870247,120.135637 56.0870072,124.636697 C56.0870247,129.137757 56.5261042,133.595602 57.40424,138.010184 C58.2823526,142.424773 59.5826646,146.711274 61.3051587,150.869722 C63.0276702,155.028177 65.1392379,158.978642 67.6399082,162.721146 C70.1405786,166.463656 72.9822775,169.926287 76.1650049,173.109014 C79.347744,176.291742 82.8103628,179.133441 86.5528497,181.634111 C90.2953425,184.134741 94.2458016,186.246314 98.4042387,187.968808 C102.562676,189.691296 106.849177,190.991608 111.263742,191.869727 C115.678313,192.747822 120.136116,193.186872 124.637176,193.186872 C129.138242,193.186855 133.596081,192.747787 138.010686,191.869674 C142.425251,190.991539 146.71177,189.691227 150.870224,187.968715 C155.028679,186.246227 158.979138,184.134653 162.721648,181.633983 C166.464135,179.133313 169.926754,176.29162 173.109493,173.108892 C176.292238,169.926165 179.133937,166.463546 181.634607,162.721042 C184.13526,158.978531 186.246828,155.028072 187.969305,150.869635 C189.691775,146.711198 190.992087,142.424697 191.870206,138.010132 C192.748318,133.59555 193.187369,129.13774 193.187351,124.636697 C193.187334,120.135637 192.748266,115.677793 191.870153,111.263211 C190.992018,106.848622 189.691706,102.562104 187.969194,98.4036551 C186.246723,94.2452064 184.13515,90.2947356 181.634479,86.552237 C179.133815,82.8097384 176.292098,79.3471254 173.109371,76.1643922 C169.926644,72.9816531 166.464031,70.1399659 162.72152,67.6393072 C158.979016,65.1386426 155.028551,63.027075 150.870114,61.3045925 C146.711683,59.5821101 142.425182,58.2818039 138.010628,57.4036855 C133.596046,56.525573 129.138242,56.0865167 124.637176,56.0865167 L124.637764,0 Z" id="Fill-8" fill="url(#radialGradient-1)"></path>
                    <circle id="Oval" fill="#FFFFFF" cx="124.90822" cy="124.90822" r="87.3982442"></circle>
                    <path d="M77.8377005,151.589233 L75.5138824,151.589233 L75.5138824,148.446797 C73.5597627,148.235541 71.711271,147.707401 70.2324777,146.888783 L70.2324777,143.931196 C72.2658185,145.225141 74.6424506,145.753281 76.7550125,145.753281 C79.1316447,145.753281 80.7424731,145.198734 80.7424731,143.45587 C80.7424731,139.177932 70.3116987,141.448936 70.3116987,134.899994 C70.3116987,131.889594 72.6091098,130.278765 75.5138824,129.935474 L75.5138824,126.766631 L77.8377005,126.766631 L77.8377005,129.909067 C79.6069711,130.041102 81.3762417,130.516428 82.6173718,131.255825 L82.6173718,134.134191 C81.1121714,133.130724 79.0524236,132.576176 77.0718968,132.602583 C74.8272998,132.602583 73.3749135,133.262759 73.3749135,134.84718 C73.3749135,138.834641 83.8056879,136.695672 83.8056879,143.297428 C83.8056879,146.862376 81.1385785,148.288355 77.8377005,148.473204 L77.8377005,151.589233 Z M85.9710638,139.177932 C85.9710638,133.922934 88.453324,129.856253 94.025206,129.856253 C99.597088,129.856253 102.079348,133.922934 102.079348,139.177932 C102.079348,144.43293 99.597088,148.499611 94.025206,148.499611 C88.453324,148.499611 85.9710638,144.43293 85.9710638,139.177932 Z M99.0425405,139.177932 C99.0425405,135.005622 97.4581191,132.602583 94.025206,132.602583 C90.5658859,132.602583 89.0078715,135.005622 89.0078715,139.177932 C89.0078715,143.350242 90.5658859,145.753281 94.025206,145.753281 C97.4581191,145.753281 99.0425405,143.350242 99.0425405,139.177932 Z M108.179371,146.703934 C108.179371,147.89225 107.360753,148.446797 106.4101,148.446797 C105.459447,148.446797 104.614423,147.89225 104.614423,146.703934 C104.614423,145.568432 105.459447,145.013884 106.4101,145.013884 C107.360753,145.013884 108.179371,145.568432 108.179371,146.703934 Z M110.714445,139.177932 C110.714445,133.922934 113.196705,129.856253 118.768587,129.856253 C124.340469,129.856253 126.822729,133.922934 126.822729,139.177932 C126.822729,144.43293 124.340469,148.499611 118.768587,148.499611 C113.196705,148.499611 110.714445,144.43293 110.714445,139.177932 Z M123.785922,139.177932 C123.785922,135.005622 122.2015,132.602583 118.768587,132.602583 C115.309267,132.602583 113.751253,135.005622 113.751253,139.177932 C113.751253,143.350242 115.309267,145.753281 118.768587,145.753281 C122.2015,145.753281 123.785922,143.350242 123.785922,139.177932 Z M130.519713,130.199544 L141.584256,130.199544 L141.584256,132.89306 L133.29245,132.89306 L133.02838,137.223812 C133.899812,137.012556 134.824058,136.906928 135.748304,136.906928 C139.207624,136.906928 142.429281,138.412128 142.429281,142.637252 C142.429281,146.519085 139.128403,148.499611 135.167349,148.499611 C133.081194,148.499611 130.995039,148.050692 129.410618,147.284888 L129.410618,144.459337 C130.915818,145.330769 132.949159,145.779688 134.824058,145.779688 C137.491167,145.779688 139.392473,144.723407 139.392473,142.610845 C139.392473,140.234213 137.359132,139.389188 134.507173,139.389188 C133.054787,139.389188 131.391145,139.679666 129.938758,140.181399 L130.519713,130.199544 Z M144.779506,139.177932 C144.779506,133.922934 147.261766,129.856253 152.833648,129.856253 C158.40553,129.856253 160.88779,133.922934 160.88779,139.177932 C160.88779,144.43293 158.40553,148.499611 152.833648,148.499611 C147.261766,148.499611 144.779506,144.43293 144.779506,139.177932 Z M157.850982,139.177932 C157.850982,135.005622 156.266561,132.602583 152.833648,132.602583 C149.374328,132.602583 147.816313,135.005622 147.816313,139.177932 C147.816313,143.350242 149.374328,145.753281 152.833648,145.753281 C156.266561,145.753281 157.850982,143.350242 157.850982,139.177932 Z M163.422864,139.177932 C163.422864,133.922934 165.905125,129.856253 171.477007,129.856253 C177.048889,129.856253 179.531149,133.922934 179.531149,139.177932 C179.531149,144.43293 177.048889,148.499611 171.477007,148.499611 C165.905125,148.499611 163.422864,144.43293 163.422864,139.177932 Z M176.494341,139.177932 C176.494341,135.005622 174.90992,132.602583 171.477007,132.602583 C168.017686,132.602583 166.459672,135.005622 166.459672,139.177932 C166.459672,143.350242 168.017686,145.753281 171.477007,145.753281 C174.90992,145.753281 176.494341,143.350242 176.494341,139.177932 Z M90.2886122,162.199544 L92.5068022,162.199544 L92.5068022,177.436397 L95.702052,177.436397 L95.702052,180.15632 L85.9314533,180.15632 L85.9314533,177.436397 L89.5228085,177.436397 L89.5228085,165.289166 L85.9314533,166.635924 L85.9314533,163.863187 L90.2886122,162.199544 Z M121.528121,161.671404 L124.248045,161.671404 L124.248045,180.15632 L121.237644,180.15632 L121.237644,167.216879 L115.401692,175.98401 L113.606014,175.98401 L107.770062,167.190472 L107.770062,180.15632 L104.759661,180.15632 L104.759661,161.671404 L107.479585,161.671404 L114.503853,172.26062 L121.528121,161.671404 Z M131.747639,180.15632 L128.737239,180.15632 L128.737239,161.671404 L131.56279,161.671404 L141.518238,175.1918 C141.491831,174.558031 141.491831,173.845041 141.491831,173.158459 L141.491831,161.671404 L144.502232,161.671404 L144.502232,180.15632 L141.67668,180.15632 L131.721232,166.635924 C131.747639,167.269693 131.747639,167.982682 131.747639,168.642858 L131.747639,180.15632 Z M152.001827,180.15632 L148.991426,180.15632 L148.991426,161.671404 L156.385393,161.671404 C159.844713,161.671404 163.488882,163.044569 163.488882,167.454542 C163.488882,170.75542 161.429134,172.339841 158.999688,172.920796 L164.914861,180.15632 L161.297099,180.15632 L155.751624,173.23768 L152.001827,173.23768 L152.001827,180.15632 Z M152.001827,164.417734 L152.001827,170.570571 L156.517428,170.570571 C158.497954,170.570571 160.425667,169.857581 160.425667,167.507356 C160.425667,165.130724 158.497954,164.417734 156.517428,164.417734 L152.001827,164.417734 Z" id="$0.0500-1-MNR" fill="#131F3C"></path>
                </g>
                <path d="M19.1207103,7.20830008 L26.0000399,7.20830008 C32.5380287,7.20830008 35.6363528,11.0680766 35.6363528,16.3982442 C35.6363528,21.7284118 32.5380287,25.5881883 26.0000399,25.5881883 L19.1207103,25.5881883 L19.1207103,7.20830008 Z M31.6190343,16.3982442 C31.6190343,12.6172386 29.6497606,10.6742219 26.0000399,10.6742219 L23.0592578,10.6742219 L23.0592578,22.1222666 L26.0000399,22.1222666 C29.6497606,22.1222666 31.6190343,20.1792498 31.6190343,16.3982442 Z M37.4743416,19.2865124 C37.4743416,14.5339984 41.1240623,12.6172386 43.9598164,12.6172386 C49.1849561,12.6172386 50.865403,16.739585 50.0251796,20.4680766 L41.1503192,20.4680766 C41.570431,22.3060654 43.5134477,23.067518 45.5877494,23.067518 C47.0318835,23.067518 48.3184757,22.7786911 49.395012,22.3060654 L49.395012,25.1680766 C48.2134477,25.6669593 46.6642857,25.9557861 44.7737829,25.9557861 C40.7827215,25.9557861 37.4743416,23.6714286 37.4743416,19.2865124 Z M46.7430567,18.1049481 C46.8743416,17.2384677 46.3754589,15.4004789 44.0911014,15.4004789 C42.5419393,15.4004789 41.1765762,16.3719872 41.1240623,18.1049481 L46.7430567,18.1049481 Z M51.8369114,19.4703113 C51.8369114,14.6390263 55.4603751,12.5909816 58.9525539,12.5909816 C60.344174,12.5909816 61.7095371,12.9060654 62.8385874,13.5099761 L62.8385874,16.713328 C61.94585,16.1356744 60.6855148,15.7680766 59.4776935,15.7680766 C57.4821628,15.7680766 55.565403,16.739585 55.565403,19.2865124 C55.565403,21.7021548 57.4559058,22.8049481 59.4251796,22.8049481 C60.7642857,22.8049481 62.0508779,22.4373504 62.9698723,21.8859537 L62.9698723,25.1155626 C61.7357941,25.6407023 60.317917,25.9557861 58.716241,25.9557861 C55.2765762,25.9557861 51.8369114,23.9602554 51.8369114,19.4703113 Z M64.7028332,19.2865124 C64.7028332,14.5339984 68.3525539,12.6172386 71.1883081,12.6172386 C76.4134477,12.6172386 78.0938947,16.739585 77.2536712,20.4680766 L68.3788109,20.4680766 C68.7989226,22.3060654 70.7419393,23.067518 72.816241,23.067518 C74.2603751,23.067518 75.5469673,22.7786911 76.6235036,22.3060654 L76.6235036,25.1680766 C75.4419393,25.6669593 73.8927773,25.9557861 72.0022745,25.9557861 C68.0112131,25.9557861 64.7028332,23.6714286 64.7028332,19.2865124 Z M73.9715483,18.1049481 C74.1028332,17.2384677 73.6039505,15.4004789 71.319593,15.4004789 C69.770431,15.4004789 68.4050678,16.3719872 68.3525539,18.1049481 L73.9715483,18.1049481 Z M83.4240623,25.5881883 L79.7743416,25.5881883 L79.7743416,12.9848364 L83.0039505,12.9848364 L83.0039505,14.4552275 C83.6603751,13.667518 85.1045092,12.6172386 87.021269,12.6172386 C88.9117717,12.6172386 90.14585,13.4049481 90.8810455,14.4814844 C91.9313248,13.4574621 93.3492019,12.6172386 95.0821628,12.6172386 C98.6268555,12.6172386 99.7821628,15.3742219 99.7821628,17.6060654 L99.7821628,25.5881883 L96.1586991,25.5881883 L96.1586991,17.8423783 C96.1586991,16.5295291 95.3447326,15.7680766 94.1894254,15.7680766 C93.19166,15.7680766 92.2989226,16.3457302 91.695012,17.0284118 C91.721269,17.2122107 91.721269,17.3960096 91.721269,17.6060654 L91.721269,25.5881883 L88.0978053,25.5881883 L88.0978053,17.8423783 C88.0978053,16.5295291 87.2838388,15.7680766 86.1285315,15.7680766 C85.0257382,15.7680766 84.0279729,16.5032721 83.4240623,17.2909816 L83.4240623,25.5881883 Z M102.749202,7.20830008 L106.398923,7.20830008 L106.398923,14.3239425 C107.186632,13.4312051 108.551995,12.6172386 110.547526,12.6172386 C114.538587,12.6172386 116.69166,15.8468476 116.69166,19.2865124 C116.69166,22.7261772 114.538587,25.9557861 110.547526,25.9557861 C108.210654,25.9557861 106.76652,24.8792498 105.978811,23.7501995 L105.978811,25.5881883 L102.749202,25.5881883 L102.749202,7.20830008 Z M112.963168,19.2865124 C112.963168,17.3172386 111.72909,15.6893057 109.654789,15.6893057 C108.053113,15.6893057 106.871548,16.687071 106.372666,17.7898643 L106.372666,20.7831604 C106.871548,21.8859537 108.053113,22.8837191 109.654789,22.8837191 C111.72909,22.8837191 112.963168,21.2557861 112.963168,19.2865124 Z M118.372107,19.2865124 C118.372107,14.5339984 122.021828,12.6172386 124.857582,12.6172386 C130.082721,12.6172386 131.763168,16.739585 130.922945,20.4680766 L122.048085,20.4680766 C122.468196,22.3060654 124.411213,23.067518 126.485515,23.067518 C127.929649,23.067518 129.216241,22.7786911 130.292777,22.3060654 L130.292777,25.1680766 C129.111213,25.6669593 127.562051,25.9557861 125.671548,25.9557861 C121.680487,25.9557861 118.372107,23.6714286 118.372107,19.2865124 Z M127.640822,18.1049481 C127.772107,17.2384677 127.273224,15.4004789 124.988867,15.4004789 C123.439705,15.4004789 122.074342,16.3719872 122.021828,18.1049481 L127.640822,18.1049481 Z M136.673224,14.8753392 C137.565962,13.4837191 139.403951,12.4859537 141.767079,12.7222666 L141.767079,16.2669593 C139.771548,15.9256185 137.854789,16.687071 137.093336,18.1837191 L137.093336,25.5881883 L133.443615,25.5881883 L133.443615,12.9848364 L136.673224,12.9848364 L136.673224,14.8753392 Z M153.661492,7.73343974 L156.523504,7.73343974 L156.523504,22.2010375 L159.5168,22.2010375 L159.5168,25.5881883 L149.32909,25.5881883 L149.32909,22.2010375 L152.689984,22.2010375 L152.689984,11.6719872 L149.32909,12.9323224 L149.32909,9.38762969 L153.661492,7.73343974 Z M160.750878,7.70718276 L174.48328,7.70718276 L174.48328,10.542937 L167.157582,25.5881883 L162.903951,25.5881883 L169.967079,11.0943336 L160.750878,11.0943336 L160.750878,7.70718276 Z M199.663727,20.7306464 L182.22909,20.7306464 L182.22909,17.6585794 L199.663727,17.6585794 L199.663727,20.7306464 Z M220.774342,12.3021548 C220.774342,14.1401437 219.750319,15.5580208 218.069872,16.1356744 C219.881604,16.687071 221.509537,18.0786911 221.509537,20.7043895 C221.509537,24.4591381 218.043615,25.9557861 214.367638,25.9557861 C212.057023,25.9557861 210.192777,25.5881883 208.17099,24.7479649 L208.17099,21.0982442 C210.192777,22.2272945 212.004509,22.5161213 214.052554,22.4898643 C216.074342,22.4898643 217.754789,21.8334397 217.754789,20.1529928 C217.754789,18.6300878 216.441939,18.0786911 214.656464,18.0786911 L211.715682,18.0786911 L211.741939,14.7177973 L214.210096,14.7440543 C215.969314,14.7440543 217.04585,14.0876297 217.04585,12.8535515 C217.04585,11.5669593 215.9168,10.8055068 213.763727,10.8055068 C212.162051,10.8055068 210.245291,11.3306464 208.486073,12.4071828 L208.486073,8.75746209 C210.087749,7.89098164 212.109537,7.36584198 214.315124,7.36584198 C218.017358,7.36584198 220.774342,9.04628891 220.774342,12.3021548 Z M228.257582,7.73343974 L231.119593,7.73343974 L231.119593,22.2010375 L234.112889,22.2010375 L234.112889,25.5881883 L223.92518,25.5881883 L223.92518,22.2010375 L227.286073,22.2010375 L227.286073,11.6719872 L223.92518,12.9323224 L223.92518,9.38762969 L228.257582,7.73343974 Z" id="December-17-—-31" fill="#131F3C"></path>
            </g>
            <path d="M103.969607,125.478317 C103.969607,120.045357 106.574067,115.53656 112.791166,115.53656 C119.008265,115.53656 121.612725,120.045357 121.612725,125.478317 C121.612725,130.911277 119.008265,135.420074 112.791166,135.420074 C106.574067,135.420074 103.969607,130.911277 103.969607,125.478317 Z M116.431809,125.478317 C116.431809,121.809669 115.283606,120.017352 112.791166,120.017352 C110.298725,120.017352 109.150522,121.809669 109.150522,125.478317 C109.150522,129.146966 110.298725,130.939282 112.791166,130.939282 C115.283606,130.939282 116.431809,129.146966 116.431809,125.478317 Z M131.666502,136.680297 L128.585957,136.680297 L140.039982,113.716238 L143.120526,113.716238 L131.666502,136.680297 Z M134.130937,120.017352 C134.130937,123.377946 131.666502,125.058243 128.809997,125.058243 C125.925487,125.058243 123.461052,123.377946 123.461052,120.017352 C123.461052,116.656758 125.925487,114.976461 128.809997,114.976461 C131.666502,114.976461 134.130937,116.656758 134.130937,120.017352 Z M127.157705,120.017352 C127.157705,120.857501 127.605784,121.697649 128.809997,121.697649 C129.986205,121.697649 130.434284,120.857501 130.434284,120.017352 C130.434284,119.177204 129.986205,118.337055 128.809997,118.337055 C127.605784,118.337055 127.157705,119.177204 127.157705,120.017352 Z M148.133412,130.379183 C148.133412,133.739777 145.668976,135.420074 142.812472,135.420074 C139.927962,135.420074 137.463526,133.739777 137.463526,130.379183 C137.463526,127.018589 139.927962,125.338292 142.812472,125.338292 C145.668976,125.338292 148.133412,127.018589 148.133412,130.379183 Z M141.16018,130.379183 C141.16018,131.219332 141.608259,132.05948 142.812472,132.05948 C143.988679,132.05948 144.436759,131.219332 144.436759,130.379183 C144.436759,129.539035 143.988679,128.698886 142.812472,128.698886 C141.608259,128.698886 141.16018,129.539035 141.16018,130.379183 Z" id="0%" fill="#131F3C"></path>
            <path d="M87.514929,147.547374 L90.7584466,147.547374 L90.7584466,164 L87.890989,164 L87.890989,162.354737 C87.1623727,163.365399 85.8696664,164.329053 83.8013363,164.329053 C80.2052624,164.329053 78.2779549,161.438091 78.2779549,158.3591 C78.2779549,155.280108 80.2052624,152.389147 83.8013363,152.389147 C85.5876214,152.389147 86.7863127,153.117763 87.514929,153.916891 L87.514929,147.547374 Z M87.514929,157.019386 C87.0683577,156.032228 86.0106889,155.139086 84.5769601,155.139086 C82.7201638,155.139086 81.6154875,156.596318 81.6154875,158.3591 C81.6154875,160.121881 82.7201638,161.579114 84.5769601,161.579114 C86.0106889,161.579114 87.0683577,160.685971 87.514929,159.698814 L87.514929,157.019386 Z M96.8224144,164 L93.555393,164 L93.555393,152.7182 L96.8224144,152.7182 L96.8224144,164 Z M97.1044594,148.981103 C97.1044594,150.273809 96.2113168,150.837899 95.1771518,150.837899 C94.1664905,150.837899 93.273348,150.273809 93.273348,148.981103 C93.273348,147.711901 94.1664905,147.147811 95.1771518,147.147811 C96.2113168,147.147811 97.1044594,147.711901 97.1044594,148.981103 Z M99.1492857,155.867702 C99.1492857,153.258786 101.476157,152.389147 103.850036,152.389147 C105.448291,152.389147 106.858516,152.788711 108.0102,153.352801 L108.0102,156.032228 C107.046546,155.374123 105.401283,154.880545 104.06157,154.880545 C103.332953,154.880545 102.486818,155.092078 102.486818,155.773687 C102.486818,157.653987 108.856335,156.713837 108.856335,160.850497 C108.856335,163.506421 106.435448,164.329053 103.732517,164.329053 C102.016743,164.329053 100.394984,163.952992 99.2433007,163.271384 L99.2433007,160.568452 C100.465496,161.36758 102.18127,161.767144 103.544487,161.767144 C104.743178,161.767144 105.518802,161.55561 105.518802,160.921009 C105.518802,159.11122 99.1492857,159.910347 99.1492857,155.867702 Z M110.219552,158.523626 C110.219552,154.198936 113.46307,152.365643 116.589069,152.365643 C117.834768,152.365643 119.056963,152.647688 120.067624,153.188275 L120.067624,156.055732 C119.268497,155.53865 118.140316,155.209597 117.059144,155.209597 C115.272859,155.209597 113.557085,156.079236 113.557085,158.3591 C113.557085,160.521445 115.249355,161.508602 117.012136,161.508602 C118.210828,161.508602 119.362512,161.17955 120.185143,160.685971 L120.185143,163.576932 C119.080466,164.047008 117.811264,164.329053 116.377535,164.329053 C113.298544,164.329053 110.219552,162.542767 110.219552,158.523626 Z M121.73639,158.3591 C121.73639,154.41047 124.697863,152.389147 127.964884,152.389147 C131.255409,152.389147 134.193378,154.41047 134.193378,158.3591 C134.193378,162.30773 131.255409,164.329053 127.964884,164.329053 C124.697863,164.329053 121.73639,162.30773 121.73639,158.3591 Z M130.879349,158.3591 C130.879349,156.619822 129.845184,155.303612 127.964884,155.303612 C126.108088,155.303612 125.073923,156.619822 125.073923,158.3591 C125.073923,160.098377 126.108088,161.414587 127.964884,161.414587 C129.845184,161.414587 130.879349,160.098377 130.879349,158.3591 Z M144.158969,152.7182 L147.42599,152.7182 L147.42599,164 L144.535029,164 L144.535029,162.566271 C143.66539,163.576932 142.372684,164.329053 140.774429,164.329053 C137.718941,164.329053 136.191197,162.30773 136.191197,159.698814 L136.191197,152.7182 L139.458219,152.7182 L139.458219,159.275746 C139.458219,160.779986 140.28085,161.508602 141.620564,161.508602 C142.795751,161.508602 143.66539,160.756482 144.158969,160.074874 L144.158969,152.7182 Z M153.090394,154.151928 C153.960033,153.141267 155.229235,152.389147 156.850994,152.389147 C159.812467,152.389147 161.434226,154.41047 161.434226,157.019386 L161.434226,164 L158.167204,164 L158.167204,157.442453 C158.167204,155.91471 157.250558,155.209597 155.981355,155.209597 C154.829672,155.209597 153.936529,155.961717 153.466454,156.643326 L153.466454,164 L150.199433,164 L150.199433,152.7182 L153.090394,152.7182 L153.090394,154.151928 Z M164.912781,149.427674 L168.156298,148.652051 L168.156298,152.7182 L171.728869,152.7182 L171.728869,155.468138 L168.156298,155.468138 L168.156298,159.886844 C168.156298,161.062031 168.743892,161.579114 169.966087,161.579114 C170.718207,161.579114 171.352809,161.461595 172.010914,161.203054 L172.010914,163.835474 C171.141275,164.141023 170.10711,164.329053 168.97893,164.329053 C166.793081,164.329053 164.912781,163.318391 164.912781,160.521445 L164.912781,155.468138 L163.008977,155.468138 L163.008977,152.7182 L164.912781,152.7182 L164.912781,149.427674 Z" id="discount" fill="#131F3C"></path>
        </g>
    </g>
</svg>