<?xml version="1.0" encoding="UTF-8"?>
<svg width="250px" height="291px" viewBox="0 0 250 291" version="1.1" xmlns="http://www.w3.org/2000/svg" xmlns:xlink="http://www.w3.org/1999/xlink">
    <!-- Generator: Sketch 48.2 (47327) - http://www.bohemiancoding.com/sketch -->
    <title>text_0</title>
    <desc>Created with Sketch.</desc>
    <defs>
        <radialGradient cx="100%" cy="100%" fx="100%" fy="100%" r="50.0301469%" gradientTransform="translate(1.000000,1.000000),translate(-1.000000,-1.000000)" id="radialGradient-1">
            <stop stop-color="#8800FF" offset="0%"></stop>
            <stop stop-color="#8600FB" offset="71.050849%"></stop>
            <stop stop-color="#EB00FE" offset="100%"></stop>
        </radialGradient>
    </defs>
    <g id="Page-1" stroke="none" stroke-width="1" fill="none" fill-rule="evenodd">
        <g id="text_0" transform="translate(0.000000, -7.000000)">
            <path d="M124.534208,48.7629689 C132.711116,48.7630043 140.809466,49.5606594 148.829249,51.1559305 C156.849031,52.7512051 164.636136,55.1134456 172.190582,58.2426509 C179.745051,61.3718515 186.921705,65.2078968 193.720557,69.7507781 C200.519385,74.2936634 206.80975,79.4560958 212.591686,85.2380753 C218.373622,91.0200542 223.535985,97.3104899 228.078816,104.109372 C232.621648,110.908265 236.457622,118.08496 239.586764,125.639458 C242.715941,133.193974 245.078181,140.981143 246.673414,149.000966 C248.268642,157.020783 249.066241,165.119169 249.066241,173.296094 C249.066206,181.473078 248.268572,189.571493 246.673269,197.591345 C245.078041,205.611197 242.715802,213.398378 239.586549,220.952916 C236.457372,228.507449 232.621334,235.684162 228.078462,242.483043 C223.535595,249.28193 218.373157,255.572364 212.591151,261.354352 C206.80918,267.13634 200.518781,272.298762 193.719865,276.841645 C186.920978,281.384512 179.744289,285.220539 172.189785,288.349698 C164.635281,291.478892 156.848106,293.841098 148.828289,295.436348 C140.808455,297.031593 132.710069,297.82921 124.533126,297.82921 C116.356143,297.829175 108.257746,297.031523 100.237911,295.436238 C92.218059,293.840975 84.430861,291.478736 76.876322,288.349518 C69.321783,285.220324 62.145077,281.384285 55.34619,276.841413 C48.547297,272.298529 42.256863,267.136108 36.4748864,261.35412 C30.6929041,255.572155 25.5304769,249.281714 20.9876108,242.482834 C16.4447331,235.683947 12.6087116,228.507257 9.4795232,220.952736 C6.3503348,213.398232 3.988124,205.611075 2.3928848,197.591257 C0.7976225,189.571423 0,181.473037 0,173.296094 C2.91e-05,165.119128 0.7976806,157.020731 2.3929546,149.000867 C3.9882286,140.981015 6.3504685,133.193829 9.4796744,125.639301 C12.6088802,118.084774 16.4449307,110.908062 20.9878143,104.109169 C25.530692,97.3102771 30.693125,91.0198327 36.4751074,85.2378532 C42.2570955,79.4558697 48.54753,74.2934419 55.346405,69.7505694 C62.145286,65.2076974 69.321999,61.3716695 76.876502,58.2424863 C84.431,55.1133037 92.218181,52.7510899 100.237998,51.1558462 C108.257815,49.5605977 116.356195,48.7629735 124.533126,48.7629735 L124.533022,104.802874 C120.03573,104.802903 115.581648,105.241612 111.170768,106.119019 C106.759883,106.996413 102.476984,108.295645 98.32202,110.016702 C94.167055,111.737771 90.219913,113.847601 86.480547,116.346188 C82.741187,118.844775 79.281486,121.684113 76.10142,124.864202 C72.921355,128.044291 70.082034,131.504033 67.583482,135.24341 C65.084925,138.982799 62.975123,142.929982 61.254083,147.084958 C59.533055,151.239934 58.233841,155.522874 57.356458,159.933789 C56.479104,164.344668 56.040424,168.798791 56.040407,173.296112 C56.040424,177.793432 56.479139,182.247573 57.356545,186.658487 C58.233928,191.069408 59.53316,195.352347 61.254223,199.507341 C62.975303,203.66234 65.085116,207.609523 67.583709,211.348918 C70.082302,215.088319 72.921639,218.548072 76.101723,221.728155 C79.281817,224.908238 82.741559,227.747576 86.480937,230.246169 C90.22032,232.744721 94.167497,234.85454 98.322479,236.575603 C102.477461,238.29666 106.7604,239.595892 111.171297,240.473281 C115.5822,241.350646 120.0363,241.789332 124.533621,241.789332 C129.030947,241.789314 133.485081,241.350611 137.896019,240.473228 C142.306916,239.595822 146.589873,238.29659 150.744873,236.57551 C154.899872,234.854453 158.847049,232.744634 162.58645,230.246041 C166.325827,227.747448 169.785569,224.908116 172.965664,221.728033 C176.145764,218.54795 178.985102,215.088208 181.483695,211.348813 C183.98227,207.609413 186.092083,203.662236 187.813129,199.507254 C189.534168,195.352272 190.8334,191.069332 191.710789,186.658435 C192.588172,182.24752 193.026857,177.793415 193.02684,173.296112 C193.026823,168.798791 192.588119,164.344651 191.710736,159.933736 C190.83333,155.522816 189.534099,151.239859 187.813018,147.084865 C186.091979,142.929871 183.982159,138.982683 181.483567,135.243294 C178.98498,131.503905 176.145625,128.044169 172.965542,124.86408 C169.785459,121.683985 166.325723,118.844659 162.586322,116.346078 C158.846927,113.847491 154.899744,111.737678 150.744762,110.016626 C146.589786,108.295575 142.306846,106.996349 137.895961,106.11896 C133.485047,105.241577 129.030947,104.802886 124.533621,104.802886 L124.534208,48.7629689 Z" id="Fill-8" fill="url(#radialGradient-1)" fill-rule="nonzero"></path>
            <circle id="Oval" fill="#FFFFFF" fill-rule="nonzero" cx="125.65842" cy="174.421389" r="87.3982442"></circle>
            <path d="M79.810425,200.478404 L77.486607,200.478404 L77.486607,197.335968 C75.532487,197.124712 73.683996,196.596571 72.205202,195.777954 L72.205202,192.820367 C74.238543,194.114311 76.615175,194.642452 78.727737,194.642452 C81.104369,194.642452 82.715198,194.087904 82.715198,192.345041 C82.715198,188.067103 72.284423,190.338107 72.284423,183.789165 C72.284423,180.778764 74.581835,179.167936 77.486607,178.824644 L77.486607,175.655802 L79.810425,175.655802 L79.810425,178.798237 C81.579696,178.930273 83.348966,179.405599 84.590097,180.144996 L84.590097,183.023361 C83.084896,182.019894 81.025148,181.465347 79.044622,181.491754 C76.800025,181.491754 75.347638,182.151929 75.347638,183.736351 C75.347638,187.723811 85.778413,185.584843 85.778413,192.186598 C85.778413,195.751547 83.111303,197.177526 79.810425,197.362375 L79.810425,200.478404 Z M87.943789,188.067103 C87.943789,182.812105 90.426049,178.745423 95.997931,178.745423 C101.569813,178.745423 104.052073,182.812105 104.052073,188.067103 C104.052073,193.3221 101.569813,197.388782 95.997931,197.388782 C90.426049,197.388782 87.943789,193.3221 87.943789,188.067103 Z M101.015265,188.067103 C101.015265,183.894793 99.430844,181.491754 95.997931,181.491754 C92.538611,181.491754 90.980596,183.894793 90.980596,188.067103 C90.980596,192.239413 92.538611,194.642452 95.997931,194.642452 C99.430844,194.642452 101.015265,192.239413 101.015265,188.067103 Z M110.152095,195.593105 C110.152095,196.781421 109.333478,197.335968 108.382825,197.335968 C107.432172,197.335968 106.587147,196.781421 106.587147,195.593105 C106.587147,194.457602 107.432172,193.903055 108.382825,193.903055 C109.333478,193.903055 110.152095,194.457602 110.152095,195.593105 Z M112.68717,188.067103 C112.68717,182.812105 115.16943,178.745423 120.741312,178.745423 C126.313194,178.745423 128.795454,182.812105 128.795454,188.067103 C128.795454,193.3221 126.313194,197.388782 120.741312,197.388782 C115.16943,197.388782 112.68717,193.3221 112.68717,188.067103 Z M125.758646,188.067103 C125.758646,183.894793 124.174225,181.491754 120.741312,181.491754 C117.281992,181.491754 115.723977,183.894793 115.723977,188.067103 C115.723977,192.239413 117.281992,194.642452 120.741312,194.642452 C124.174225,194.642452 125.758646,192.239413 125.758646,188.067103 Z M131.805855,180.567508 C133.654347,179.299971 135.687687,178.745423 137.773842,178.745423 C141.418012,178.745423 144.085121,180.435473 144.085121,183.789165 C144.085121,186.825973 141.550047,188.62165 139.1206,190.074037 C136.796782,191.447202 134.604999,192.556297 134.578592,194.351974 L144.217156,194.325567 L144.217156,197.045491 L131.198493,197.045491 L131.198493,195.672326 C131.198493,191.28876 134.446557,189.625117 137.166481,188.014289 C139.252636,186.799566 141.07472,185.87532 141.07472,183.841979 C141.07472,182.283965 139.727962,181.465347 137.509772,181.465347 C135.687687,181.465347 133.707161,182.099115 131.805855,183.472281 L131.805855,180.567508 Z M147.940546,179.088715 L159.005089,179.088715 L159.005089,181.782231 L150.713284,181.782231 L150.449214,186.112983 C151.320645,185.901727 152.244891,185.796099 153.169137,185.796099 C156.628457,185.796099 159.850114,187.301299 159.850114,191.526423 C159.850114,195.408255 156.549236,197.388782 152.588183,197.388782 C150.502028,197.388782 148.415873,196.939863 146.831451,196.174059 L146.831451,193.348508 C148.336652,194.219939 150.369993,194.668859 152.244891,194.668859 C154.912001,194.668859 156.813306,193.612578 156.813306,191.500016 C156.813306,189.123384 154.779966,188.278359 151.928007,188.278359 C150.475621,188.278359 148.811978,188.568836 147.359592,189.07057 L147.940546,179.088715 Z M162.200339,188.067103 C162.200339,182.812105 164.682599,178.745423 170.254481,178.745423 C175.826363,178.745423 178.308624,182.812105 178.308624,188.067103 C178.308624,193.3221 175.826363,197.388782 170.254481,197.388782 C164.682599,197.388782 162.200339,193.3221 162.200339,188.067103 Z M175.271816,188.067103 C175.271816,183.894793 173.687395,181.491754 170.254481,181.491754 C166.795161,181.491754 165.237147,183.894793 165.237147,188.067103 C165.237147,192.239413 166.795161,194.642452 170.254481,194.642452 C173.687395,194.642452 175.271816,192.239413 175.271816,188.067103 Z M90.663712,211.088715 L92.881902,211.088715 L92.881902,226.325567 L96.077152,226.325567 L96.077152,229.045491 L86.306553,229.045491 L86.306553,226.325567 L89.897908,226.325567 L89.897908,214.178336 L86.306553,215.525095 L86.306553,212.752357 L90.663712,211.088715 Z M121.903221,210.560574 L124.623144,210.560574 L124.623144,229.045491 L121.612744,229.045491 L121.612744,216.106049 L115.776791,224.873181 L113.981114,224.873181 L108.145162,216.079642 L108.145162,229.045491 L105.134761,229.045491 L105.134761,210.560574 L107.854684,210.560574 L114.878953,221.149791 L121.903221,210.560574 Z M132.122739,229.045491 L129.112338,229.045491 L129.112338,210.560574 L131.93789,210.560574 L141.893338,224.08097 C141.866931,223.447202 141.866931,222.734212 141.866931,222.04763 L141.866931,210.560574 L144.877332,210.560574 L144.877332,229.045491 L142.05178,229.045491 L132.096332,215.525095 C132.122739,216.158863 132.122739,216.871853 132.122739,217.532028 L132.122739,229.045491 Z M152.376926,229.045491 L149.366526,229.045491 L149.366526,210.560574 L156.760492,210.560574 C160.219812,210.560574 163.863982,211.933739 163.863982,216.343712 C163.863982,219.64459 161.804234,221.229012 159.374788,221.809966 L165.289961,229.045491 L161.672199,229.045491 L156.126724,222.126851 L152.376926,222.126851 L152.376926,229.045491 Z M152.376926,213.306905 L152.376926,219.459741 L156.892527,219.459741 C158.873054,219.459741 160.800767,218.746752 160.800767,216.396526 C160.800767,214.019894 158.873054,213.306905 156.892527,213.306905 L152.376926,213.306905 Z" id="$0.0250-1-MNR" fill="#6202E1" fill-rule="nonzero"></path>
            <path d="M96.942498,110.251 L109.847498,110.251 L109.847498,114.746 L101.756498,114.717 L101.553498,117.617 C102.278498,117.501 103.003498,117.443 103.670498,117.443 C107.701498,117.443 110.717498,119.27 110.717498,123.707 C110.717498,128.579 106.396498,130.435 101.988498,130.435 C99.697498,130.435 97.406498,129.942 95.637498,129.101 L95.637498,124.171 C97.174498,125.244 99.494498,125.795 101.408498,125.795 C103.641498,125.795 105.352498,125.128 105.352498,123.591 C105.352498,122.344 104.337498,121.387 101.118498,121.358 C99.871498,121.358 98.073498,121.532 96.246498,122.17 L96.942498,110.251 Z M112.863498,120.14 C112.863498,114.514 115.560498,109.845 121.998498,109.845 C128.436498,109.845 131.133498,114.514 131.133498,120.14 C131.133498,125.766 128.436498,130.435 121.998498,130.435 C115.560498,130.435 112.863498,125.766 112.863498,120.14 Z M125.768498,120.14 C125.768498,116.341 124.579498,114.485 121.998498,114.485 C119.417498,114.485 118.228498,116.341 118.228498,120.14 C118.228498,123.939 119.417498,125.795 121.998498,125.795 C124.579498,125.795 125.768498,123.939 125.768498,120.14 Z M141.544498,131.74 L138.354498,131.74 L150.215498,107.96 L153.405498,107.96 L141.544498,131.74 Z M144.096498,114.485 C144.096498,117.965 141.544498,119.705 138.586498,119.705 C135.599498,119.705 133.047498,117.965 133.047498,114.485 C133.047498,111.005 135.599498,109.265 138.586498,109.265 C141.544498,109.265 144.096498,111.005 144.096498,114.485 Z M136.875498,114.485 C136.875498,115.355 137.339498,116.225 138.586498,116.225 C139.804498,116.225 140.268498,115.355 140.268498,114.485 C140.268498,113.615 139.804498,112.745 138.586498,112.745 C137.339498,112.745 136.875498,113.615 136.875498,114.485 Z M158.596498,125.215 C158.596498,128.695 156.044498,130.435 153.086498,130.435 C150.099498,130.435 147.547498,128.695 147.547498,125.215 C147.547498,121.735 150.099498,119.995 153.086498,119.995 C156.044498,119.995 158.596498,121.735 158.596498,125.215 Z M151.375498,125.215 C151.375498,126.085 151.839498,126.955 153.086498,126.955 C154.304498,126.955 154.768498,126.085 154.768498,125.215 C154.768498,124.345 154.304498,123.475 153.086498,123.475 C151.839498,123.475 151.375498,124.345 151.375498,125.215 Z" id="50%" fill="#6202E1" fill-rule="nonzero"></path>
            <g id="discount" transform="translate(76.000000, 136.000000)" fill="#000000">
                <path d="M10.1495,6.9 L13.3235,6.9 L13.3235,23 L10.5175,23 L10.5175,21.39 C9.8045,22.379 8.5395,23.322 6.5155,23.322 C2.9965,23.322 1.1105,20.493 1.1105,17.48 C1.1105,14.467 2.9965,11.638 6.5155,11.638 C8.2635,11.638 9.4365,12.351 10.1495,13.133 L10.1495,6.9 Z M10.1495,16.169 C9.7125,15.203 8.6775,14.329 7.2745,14.329 C5.4575,14.329 4.3765,15.755 4.3765,17.48 C4.3765,19.205 5.4575,20.631 7.2745,20.631 C8.6775,20.631 9.7125,19.757 10.1495,18.791 L10.1495,16.169 Z M15.4165,17.48 C15.4165,13.317 18.6135,11.638 21.0975,11.638 C25.6745,11.638 27.1465,15.249 26.4105,18.515 L18.6365,18.515 C19.0045,20.125 20.7065,20.792 22.5235,20.792 C23.7885,20.792 24.9155,20.539 25.8585,20.125 L25.8585,22.632 C24.8235,23.069 23.4665,23.322 21.8105,23.322 C18.3145,23.322 15.4165,21.321 15.4165,17.48 Z M23.5355,16.445 C23.6505,15.686 23.2135,14.076 21.2125,14.076 C19.8555,14.076 18.6595,14.927 18.6135,16.445 L23.5355,16.445 Z M36.5535,13.616 C37.3355,12.397 38.9455,11.523 41.0155,11.73 L41.0155,14.835 C39.2675,14.536 37.5885,15.203 36.9215,16.514 L36.9215,23 L33.7245,23 L33.7245,11.96 L36.5535,11.96 L36.5535,13.616 Z M52.4465,20.148 C52.4465,20.723 52.8145,20.884 53.2285,20.884 C53.4125,20.884 53.6195,20.861 53.8265,20.792 L53.8265,22.885 C53.3205,23.069 52.6765,23.207 52.0555,23.207 C50.9285,23.207 50.0775,22.793 49.6175,21.965 C48.5365,22.816 47.2715,23.322 45.6385,23.322 C43.5685,23.322 41.7745,22.126 41.7745,19.941 C41.7745,17.135 44.4195,16.261 46.6275,16.261 C47.5015,16.261 48.4675,16.376 49.2495,16.56 L49.2495,16.169 C49.2495,15.065 48.3755,14.306 46.6505,14.306 C45.1325,14.306 43.7755,14.72 42.7405,15.134 L42.7405,12.374 C43.6375,12.075 45.3165,11.638 47.0185,11.638 C50.3305,11.638 52.4465,12.995 52.4465,16.629 L52.4465,20.148 Z M47.3635,18.17 C46.1905,18.17 45.0405,18.561 45.0405,19.688 C45.0405,20.516 45.7995,21.045 46.7655,21.045 C47.6625,21.045 48.5135,20.792 49.2495,20.148 L49.2495,18.423 C48.7665,18.308 48.0305,18.17 47.3635,18.17 Z M55.3445,6.9 L58.5415,6.9 L58.5415,13.133 C59.2315,12.351 60.4275,11.638 62.1755,11.638 C65.6715,11.638 67.5575,14.467 67.5575,17.48 C67.5575,20.493 65.6715,23.322 62.1755,23.322 C60.1285,23.322 58.8635,22.379 58.1735,21.39 L58.1735,23 L55.3445,23 L55.3445,6.9 Z M64.2915,17.48 C64.2915,15.755 63.2105,14.329 61.3935,14.329 C59.9905,14.329 58.9555,15.203 58.5185,16.169 L58.5185,18.791 C58.9555,19.757 59.9905,20.631 61.3935,20.631 C63.2105,20.631 64.2915,19.205 64.2915,17.48 Z M79.5175,20.148 C79.5175,20.723 79.8855,20.884 80.2995,20.884 C80.4835,20.884 80.6905,20.861 80.8975,20.792 L80.8975,22.885 C80.3915,23.069 79.7475,23.207 79.1265,23.207 C77.9995,23.207 77.1485,22.793 76.6885,21.965 C75.6075,22.816 74.3425,23.322 72.7095,23.322 C70.6395,23.322 68.8455,22.126 68.8455,19.941 C68.8455,17.135 71.4905,16.261 73.6985,16.261 C74.5725,16.261 75.5385,16.376 76.3205,16.56 L76.3205,16.169 C76.3205,15.065 75.4465,14.306 73.7215,14.306 C72.2035,14.306 70.8465,14.72 69.8115,15.134 L69.8115,12.374 C70.7085,12.075 72.3875,11.638 74.0895,11.638 C77.4015,11.638 79.5175,12.995 79.5175,16.629 L79.5175,20.148 Z M74.4345,18.17 C73.2615,18.17 72.1115,18.561 72.1115,19.688 C72.1115,20.516 72.8705,21.045 73.8365,21.045 C74.7335,21.045 75.5845,20.792 76.3205,20.148 L76.3205,18.423 C75.8375,18.308 75.1015,18.17 74.4345,18.17 Z M85.6355,23 L82.4385,23 L82.4385,11.96 L85.6355,11.96 L85.6355,23 Z M85.9115,8.303 C85.9115,9.568 85.0375,10.12 84.0255,10.12 C83.0365,10.12 82.1625,9.568 82.1625,8.303 C82.1625,7.061 83.0365,6.509 84.0255,6.509 C85.0375,6.509 85.9115,7.061 85.9115,8.303 Z M87.9125,15.042 C87.9125,12.489 90.1895,11.638 92.5125,11.638 C94.0765,11.638 95.4565,12.029 96.5835,12.581 L96.5835,15.203 C95.6405,14.559 94.0305,14.076 92.7195,14.076 C92.0065,14.076 91.1785,14.283 91.1785,14.95 C91.1785,16.79 97.4115,15.87 97.4115,19.918 C97.4115,22.517 95.0425,23.322 92.3975,23.322 C90.7185,23.322 89.1315,22.954 88.0045,22.287 L88.0045,19.642 C89.2005,20.424 90.8795,20.815 92.2135,20.815 C93.3865,20.815 94.1455,20.608 94.1455,19.987 C94.1455,18.216 87.9125,18.998 87.9125,15.042 Z" id="de-rabais"></path>
            </g>
            <g id="10-Mei---10-Juni" transform="translate(27.000000, 0.000000)" fill="#000000">
                <path d="M5.5125,8 L8.2375,8 L8.2375,21.775 L11.0875,21.775 L11.0875,25 L1.3875,25 L1.3875,21.775 L4.5875,21.775 L4.5875,11.75 L1.3875,12.95 L1.3875,9.575 L5.5125,8 Z M12.7125,16.5 C12.7125,11.6 15.0375,7.65 20.4625,7.65 C25.8875,7.65 28.2125,11.6 28.2125,16.5 C28.2125,21.4 25.8875,25.35 20.4625,25.35 C15.0375,25.35 12.7125,21.4 12.7125,16.5 Z M24.4625,16.5 C24.4625,12.875 23.2125,10.95 20.4625,10.95 C17.7125,10.95 16.4625,12.875 16.4625,16.5 C16.4625,20.125 17.7125,22.05 20.4625,22.05 C23.2125,22.05 24.4625,20.125 24.4625,16.5 Z M39.7875,25 L36.3125,25 L36.3125,13 L39.3875,13 L39.3875,14.4 C40.0125,13.65 41.3875,12.65 43.2125,12.65 C45.0125,12.65 46.1875,13.4 46.8875,14.425 C47.8875,13.45 49.2375,12.65 50.8875,12.65 C54.2625,12.65 55.3625,15.275 55.3625,17.4 L55.3625,25 L51.9125,25 L51.9125,17.625 C51.9125,16.375 51.1375,15.65 50.0375,15.65 C49.0875,15.65 48.2375,16.2 47.6625,16.85 C47.6875,17.025 47.6875,17.2 47.6875,17.4 L47.6875,25 L44.2375,25 L44.2375,17.625 C44.2375,16.375 43.4625,15.65 42.3625,15.65 C41.3125,15.65 40.3625,16.35 39.7875,17.1 L39.7875,25 Z M68.9125,21.9 C68.9125,22.525 69.3125,22.7 69.7625,22.7 C69.9625,22.7 70.1875,22.675 70.4125,22.6 L70.4125,24.875 C69.8625,25.075 69.1625,25.225 68.4875,25.225 C67.2625,25.225 66.3375,24.775 65.8375,23.875 C64.6625,24.8 63.2875,25.35 61.5125,25.35 C59.2625,25.35 57.3125,24.05 57.3125,21.675 C57.3125,18.625 60.1875,17.675 62.5875,17.675 C63.5375,17.675 64.5875,17.8 65.4375,18 L65.4375,17.575 C65.4375,16.375 64.4875,15.55 62.6125,15.55 C60.9625,15.55 59.4875,16 58.3625,16.45 L58.3625,13.45 C59.3375,13.125 61.1625,12.65 63.0125,12.65 C66.6125,12.65 68.9125,14.125 68.9125,18.075 L68.9125,21.9 Z M63.3875,19.75 C62.1125,19.75 60.8625,20.175 60.8625,21.4 C60.8625,22.3 61.6875,22.875 62.7375,22.875 C63.7125,22.875 64.6375,22.6 65.4375,21.9 L65.4375,20.025 C64.9125,19.9 64.1125,19.75 63.3875,19.75 Z M75.5625,25 L72.0875,25 L72.0875,13 L75.5625,13 L75.5625,25 Z M75.8625,9.025 C75.8625,10.4 74.9125,11 73.8125,11 C72.7375,11 71.7875,10.4 71.7875,9.025 C71.7875,7.675 72.7375,7.075 73.8125,7.075 C74.9125,7.075 75.8625,7.675 75.8625,9.025 Z M84.0125,17.45 L93.3125,17.45 L93.3125,20.375 L84.0125,20.375 L84.0125,17.45 Z M105.6375,8 L108.3625,8 L108.3625,21.775 L111.2125,21.775 L111.2125,25 L101.5125,25 L101.5125,21.775 L104.7125,21.775 L104.7125,11.75 L101.5125,12.95 L101.5125,9.575 L105.6375,8 Z M112.8375,16.5 C112.8375,11.6 115.1625,7.65 120.5875,7.65 C126.0125,7.65 128.3375,11.6 128.3375,16.5 C128.3375,21.4 126.0125,25.35 120.5875,25.35 C115.1625,25.35 112.8375,21.4 112.8375,16.5 Z M124.5875,16.5 C124.5875,12.875 123.3375,10.95 120.5875,10.95 C117.8375,10.95 116.5875,12.875 116.5875,16.5 C116.5875,20.125 117.8375,22.05 120.5875,22.05 C123.3375,22.05 124.5875,20.125 124.5875,16.5 Z M139.9375,26.7 C139.9375,29.825 137.9125,30.85 135.7375,30.85 C134.8875,30.85 134.1375,30.725 133.5875,30.5 L133.5875,27.525 C133.9625,27.7 134.4125,27.775 134.8375,27.775 C135.7375,27.775 136.4875,27.325 136.4875,26.075 L136.4875,13 L139.9375,13 L139.9375,26.7 Z M140.2375,9.025 C140.2375,10.4 139.2875,11 138.2125,11 C137.1375,11 136.1625,10.4 136.1625,9.025 C136.1625,7.675 137.1375,7.075 138.2125,7.075 C139.2875,7.075 140.2375,7.675 140.2375,9.025 Z M151.2375,13 L154.7125,13 L154.7125,25 L151.6375,25 L151.6375,23.475 C150.7125,24.55 149.3375,25.35 147.6375,25.35 C144.3875,25.35 142.7625,23.2 142.7625,20.425 L142.7625,13 L146.2375,13 L146.2375,19.975 C146.2375,21.575 147.1125,22.35 148.5375,22.35 C149.7875,22.35 150.7125,21.55 151.2375,20.825 L151.2375,13 Z M161.1625,25 L157.6875,25 L157.6875,13 L161.1625,13 L161.1625,25 Z M161.4625,9.025 C161.4625,10.4 160.5125,11 159.4125,11 C158.3375,11 157.3875,10.4 157.3875,9.025 C157.3875,7.675 158.3375,7.075 159.4125,7.075 C160.5125,7.075 161.4625,7.675 161.4625,9.025 Z M167.2375,14.525 C168.1625,13.45 169.5125,12.65 171.2375,12.65 C174.3875,12.65 176.1125,14.8 176.1125,17.575 L176.1125,25 L172.6375,25 L172.6375,18.025 C172.6375,16.4 171.6625,15.65 170.3125,15.65 C169.0875,15.65 168.1375,16.45 167.6375,17.175 L167.6375,25 L164.1625,25 L164.1625,13 L167.2375,13 L167.2375,14.525 Z" id="10-mai---10-juin"></path>
            </g>
        </g>
    </g>
</svg>