<?xml version="1.0" encoding="UTF-8"?>
<svg width="250px" height="292px" viewBox="0 0 250 292" version="1.1" xmlns="http://www.w3.org/2000/svg" xmlns:xlink="http://www.w3.org/1999/xlink">
    <!-- Generator: Sketch 48.2 (47327) - http://www.bohemiancoding.com/sketch -->
    <title>text_5</title>
    <desc>Created with Sketch.</desc>
    <defs>
        <radialGradient cx="200%" cy="200%" fx="200%" fy="200%" r="50.0253367%" gradientTransform="translate(2.000000,2.000000),scale(1.000000,1.000000),translate(-2.000000,-2.000000)" id="radialGradient-1">
            <stop stop-color="#FF9495" offset="0%"></stop>
            <stop stop-color="#FE5F60" offset="70.3742825%"></stop>
            <stop stop-color="#FF9091" offset="100%"></stop>
        </radialGradient>
    </defs>
    <g id="Page-1" stroke="none" stroke-width="1" fill="none" fill-rule="evenodd">
        <g id="text_5" transform="translate(-1.000000, -7.000000)">
            <g id="5-copy" transform="translate(1.000000, 49.000000)" fill-rule="nonzero">
                <g id="Group-7" transform="translate(0.637670, 0.351157)">
                    <path d="M124.637764,0 C132.821471,3.54941064e-05 140.926556,0.798353806 148.953007,2.39495144 C156.979458,3.99155257 164.773039,6.3557574 172.333767,9.48756474 C179.894518,12.6193674 187.07714,16.4586026 193.881645,21.0052615 C200.686127,25.5519244 206.981723,30.7186496 212.768466,36.505437 C218.55521,42.2922239 223.721866,48.5878904 228.268475,55.3924265 C232.815084,62.1969726 236.654249,69.3796356 239.785993,76.9404155 C242.917771,84.501213 245.281976,92.2948576 246.878535,100.321349 C248.475089,108.347835 249.273352,116.452955 249.273352,124.63668 C249.273317,132.820463 248.47502,140.925612 246.87839,148.952133 C245.281836,156.978654 242.917632,164.77231 239.785777,172.333131 C236.653998,179.893946 232.81477,187.076626 228.26812,193.88116 C223.721476,200.685701 218.554745,206.981366 212.767931,212.768162 C206.981152,218.554958 200.685522,223.721672 193.880953,228.268334 C187.076412,232.814977 179.893755,236.654194 172.332969,239.785956 C164.772184,242.917752 156.978533,245.281921 148.952047,246.878499 C140.925544,248.47507 132.820424,249.27335 124.636682,249.27335 C116.452899,249.273315 108.347767,248.475 100.321264,246.878388 C92.2947429,245.281799 84.5010693,242.917595 76.9402486,239.785775 C69.3794278,236.653979 62.1967532,232.81475 55.392213,228.268101 C48.5876669,223.72144 42.2920016,218.554726 36.5052171,212.767929 C30.7184267,206.981156 25.5517068,200.685485 21.005063,193.880951 C16.4584077,187.076411 12.6191964,179.893754 9.48740589,172.33295 C6.35561542,164.772164 3.99144027,156.978532 2.39487464,148.952046 C0.798285727,140.925542 0,132.820422 0,124.63668 C2.90935298e-05,116.452914 0.798343914,108.347783 2.39494446,100.32125 C3.99154501,92.2947296 6.35574925,84.5010675 9.48755718,76.9402584 C12.6193651,69.3794494 16.4586055,62.1967689 21.0052667,55.3922229 C25.5519221,48.5876774 30.7186478,42.2920022 36.5054382,36.5052148 C42.2922344,30.7184232 48.5878997,25.5517027 55.3924283,21.0050526 C62.1969627,16.458403 69.3796431,12.6191853 76.9404289,9.48740007 C84.5012089,6.35561542 92.2948651,3.99143736 100.321351,2.39486707 C108.347837,0.798292128 116.452951,4.65496476e-06 124.636682,4.65496476e-06 L124.636577,56.086505 C120.135546,56.0865341 115.67776,56.5256079 111.263212,57.4037437 C106.848659,58.2818679 102.562199,59.5821799 98.4037791,61.3046682 C94.2453594,63.0271681 90.2949352,65.1387532 86.5524599,67.6394177 C82.8099904,70.1400823 79.3474123,72.9817811 76.1647023,76.1645144 C72.9819924,79.3472476 70.1403109,82.8098664 67.6396813,86.5523534 C65.1390459,90.294852 63.0274898,94.2453169 61.305019,98.4037482 C59.5825599,102.56218 58.2822653,106.848681 57.4041528,111.263263 C56.5260693,115.67781 56.0870247,120.135637 56.0870072,124.636697 C56.0870247,129.137757 56.5261042,133.595602 57.40424,138.010184 C58.2823526,142.424773 59.5826646,146.711274 61.3051587,150.869722 C63.0276702,155.028177 65.1392379,158.978642 67.6399082,162.721146 C70.1405786,166.463656 72.9822775,169.926287 76.1650049,173.109014 C79.347744,176.291742 82.8103628,179.133441 86.5528497,181.634111 C90.2953425,184.134741 94.2458016,186.246314 98.4042387,187.968808 C102.562676,189.691296 106.849177,190.991608 111.263742,191.869727 C115.678313,192.747822 120.136116,193.186872 124.637176,193.186872 C129.138242,193.186855 133.596081,192.747787 138.010686,191.869674 C142.425251,190.991539 146.71177,189.691227 150.870224,187.968715 C155.028679,186.246227 158.979138,184.134653 162.721648,181.633983 C166.464135,179.133313 169.926754,176.29162 173.109493,173.108892 C176.292238,169.926165 179.133937,166.463546 181.634607,162.721042 C184.13526,158.978531 186.246828,155.028072 187.969305,150.869635 C189.691775,146.711198 190.992087,142.424697 191.870206,138.010132 C192.748318,133.59555 193.187369,129.13774 193.187351,124.636697 C193.187334,120.135637 192.748266,115.677793 191.870153,111.263211 C190.992018,106.848622 189.691706,102.562104 187.969194,98.4036551 C186.246723,94.2452064 184.13515,90.2947356 181.634479,86.552237 C179.133815,82.8097384 176.292098,79.3471254 173.109371,76.1643922 C169.926644,72.9816531 166.464031,70.1399659 162.72152,67.6393072 C158.979016,65.1386426 155.028551,63.027075 150.870114,61.3045925 C146.711683,59.5821101 142.425182,58.2818039 138.010628,57.4036855 C133.596046,56.525573 129.138242,56.0865167 124.637176,56.0865167 L124.637764,0 Z" id="Fill-8" fill="url(#radialGradient-1)"></path>
                    <circle id="Oval" fill="#FFFFFF" cx="124.90822" cy="124.90822" r="87.3982442"></circle>
                    <path d="M77.8377005,151.589233 L75.5138824,151.589233 L75.5138824,148.446797 C73.5597627,148.235541 71.711271,147.707401 70.2324777,146.888783 L70.2324777,143.931196 C72.2658185,145.225141 74.6424506,145.753281 76.7550125,145.753281 C79.1316447,145.753281 80.7424731,145.198734 80.7424731,143.45587 C80.7424731,139.177932 70.3116987,141.448936 70.3116987,134.899994 C70.3116987,131.889594 72.6091098,130.278765 75.5138824,129.935474 L75.5138824,126.766631 L77.8377005,126.766631 L77.8377005,129.909067 C79.6069711,130.041102 81.3762417,130.516428 82.6173718,131.255825 L82.6173718,134.134191 C81.1121714,133.130724 79.0524236,132.576176 77.0718968,132.602583 C74.8272998,132.602583 73.3749135,133.262759 73.3749135,134.84718 C73.3749135,138.834641 83.8056879,136.695672 83.8056879,143.297428 C83.8056879,146.862376 81.1385785,148.288355 77.8377005,148.473204 L77.8377005,151.589233 Z M85.9710638,139.177932 C85.9710638,133.922934 88.453324,129.856253 94.025206,129.856253 C99.597088,129.856253 102.079348,133.922934 102.079348,139.177932 C102.079348,144.43293 99.597088,148.499611 94.025206,148.499611 C88.453324,148.499611 85.9710638,144.43293 85.9710638,139.177932 Z M99.0425405,139.177932 C99.0425405,135.005622 97.4581191,132.602583 94.025206,132.602583 C90.5658859,132.602583 89.0078715,135.005622 89.0078715,139.177932 C89.0078715,143.350242 90.5658859,145.753281 94.025206,145.753281 C97.4581191,145.753281 99.0425405,143.350242 99.0425405,139.177932 Z M108.179371,146.703934 C108.179371,147.89225 107.360753,148.446797 106.4101,148.446797 C105.459447,148.446797 104.614423,147.89225 104.614423,146.703934 C104.614423,145.568432 105.459447,145.013884 106.4101,145.013884 C107.360753,145.013884 108.179371,145.568432 108.179371,146.703934 Z M110.714445,139.177932 C110.714445,133.922934 113.196705,129.856253 118.768587,129.856253 C124.340469,129.856253 126.822729,133.922934 126.822729,139.177932 C126.822729,144.43293 124.340469,148.499611 118.768587,148.499611 C113.196705,148.499611 110.714445,144.43293 110.714445,139.177932 Z M123.785922,139.177932 C123.785922,135.005622 122.2015,132.602583 118.768587,132.602583 C115.309267,132.602583 113.751253,135.005622 113.751253,139.177932 C113.751253,143.350242 115.309267,145.753281 118.768587,145.753281 C122.2015,145.753281 123.785922,143.350242 123.785922,139.177932 Z M130.519713,130.199544 L141.584256,130.199544 L141.584256,132.89306 L133.29245,132.89306 L133.02838,137.223812 C133.899812,137.012556 134.824058,136.906928 135.748304,136.906928 C139.207624,136.906928 142.429281,138.412128 142.429281,142.637252 C142.429281,146.519085 139.128403,148.499611 135.167349,148.499611 C133.081194,148.499611 130.995039,148.050692 129.410618,147.284888 L129.410618,144.459337 C130.915818,145.330769 132.949159,145.779688 134.824058,145.779688 C137.491167,145.779688 139.392473,144.723407 139.392473,142.610845 C139.392473,140.234213 137.359132,139.389188 134.507173,139.389188 C133.054787,139.389188 131.391145,139.679666 129.938758,140.181399 L130.519713,130.199544 Z M144.779506,139.177932 C144.779506,133.922934 147.261766,129.856253 152.833648,129.856253 C158.40553,129.856253 160.88779,133.922934 160.88779,139.177932 C160.88779,144.43293 158.40553,148.499611 152.833648,148.499611 C147.261766,148.499611 144.779506,144.43293 144.779506,139.177932 Z M157.850982,139.177932 C157.850982,135.005622 156.266561,132.602583 152.833648,132.602583 C149.374328,132.602583 147.816313,135.005622 147.816313,139.177932 C147.816313,143.350242 149.374328,145.753281 152.833648,145.753281 C156.266561,145.753281 157.850982,143.350242 157.850982,139.177932 Z M163.422864,139.177932 C163.422864,133.922934 165.905125,129.856253 171.477007,129.856253 C177.048889,129.856253 179.531149,133.922934 179.531149,139.177932 C179.531149,144.43293 177.048889,148.499611 171.477007,148.499611 C165.905125,148.499611 163.422864,144.43293 163.422864,139.177932 Z M176.494341,139.177932 C176.494341,135.005622 174.90992,132.602583 171.477007,132.602583 C168.017686,132.602583 166.459672,135.005622 166.459672,139.177932 C166.459672,143.350242 168.017686,145.753281 171.477007,145.753281 C174.90992,145.753281 176.494341,143.350242 176.494341,139.177932 Z M90.2886122,162.199544 L92.5068022,162.199544 L92.5068022,177.436397 L95.702052,177.436397 L95.702052,180.15632 L85.9314533,180.15632 L85.9314533,177.436397 L89.5228085,177.436397 L89.5228085,165.289166 L85.9314533,166.635924 L85.9314533,163.863187 L90.2886122,162.199544 Z M121.528121,161.671404 L124.248045,161.671404 L124.248045,180.15632 L121.237644,180.15632 L121.237644,167.216879 L115.401692,175.98401 L113.606014,175.98401 L107.770062,167.190472 L107.770062,180.15632 L104.759661,180.15632 L104.759661,161.671404 L107.479585,161.671404 L114.503853,172.26062 L121.528121,161.671404 Z M131.747639,180.15632 L128.737239,180.15632 L128.737239,161.671404 L131.56279,161.671404 L141.518238,175.1918 C141.491831,174.558031 141.491831,173.845041 141.491831,173.158459 L141.491831,161.671404 L144.502232,161.671404 L144.502232,180.15632 L141.67668,180.15632 L131.721232,166.635924 C131.747639,167.269693 131.747639,167.982682 131.747639,168.642858 L131.747639,180.15632 Z M152.001827,180.15632 L148.991426,180.15632 L148.991426,161.671404 L156.385393,161.671404 C159.844713,161.671404 163.488882,163.044569 163.488882,167.454542 C163.488882,170.75542 161.429134,172.339841 158.999688,172.920796 L164.914861,180.15632 L161.297099,180.15632 L155.751624,173.23768 L152.001827,173.23768 L152.001827,180.15632 Z M152.001827,164.417734 L152.001827,170.570571 L156.517428,170.570571 C158.497954,170.570571 160.425667,169.857581 160.425667,167.507356 C160.425667,165.130724 158.497954,164.417734 156.517428,164.417734 L152.001827,164.417734 Z" id="$0.0500-1-MNR" fill="#131F3C"></path>
                </g>
            </g>
            <path d="M104.969607,125.478317 C104.969607,120.045357 107.574067,115.53656 113.791166,115.53656 C120.008265,115.53656 122.612725,120.045357 122.612725,125.478317 C122.612725,130.911277 120.008265,135.420074 113.791166,135.420074 C107.574067,135.420074 104.969607,130.911277 104.969607,125.478317 Z M117.431809,125.478317 C117.431809,121.809669 116.283606,120.017352 113.791166,120.017352 C111.298725,120.017352 110.150522,121.809669 110.150522,125.478317 C110.150522,129.146966 111.298725,130.939282 113.791166,130.939282 C116.283606,130.939282 117.431809,129.146966 117.431809,125.478317 Z M132.666502,136.680297 L129.585957,136.680297 L141.039982,113.716238 L144.120526,113.716238 L132.666502,136.680297 Z M135.130937,120.017352 C135.130937,123.377946 132.666502,125.058243 129.809997,125.058243 C126.925487,125.058243 124.461052,123.377946 124.461052,120.017352 C124.461052,116.656758 126.925487,114.976461 129.809997,114.976461 C132.666502,114.976461 135.130937,116.656758 135.130937,120.017352 Z M128.157705,120.017352 C128.157705,120.857501 128.605784,121.697649 129.809997,121.697649 C130.986205,121.697649 131.434284,120.857501 131.434284,120.017352 C131.434284,119.177204 130.986205,118.337055 129.809997,118.337055 C128.605784,118.337055 128.157705,119.177204 128.157705,120.017352 Z M149.133412,130.379183 C149.133412,133.739777 146.668976,135.420074 143.812472,135.420074 C140.927962,135.420074 138.463526,133.739777 138.463526,130.379183 C138.463526,127.018589 140.927962,125.338292 143.812472,125.338292 C146.668976,125.338292 149.133412,127.018589 149.133412,130.379183 Z M142.16018,130.379183 C142.16018,131.219332 142.608259,132.05948 143.812472,132.05948 C144.988679,132.05948 145.436759,131.219332 145.436759,130.379183 C145.436759,129.539035 144.988679,128.698886 143.812472,128.698886 C142.608259,128.698886 142.16018,129.539035 142.16018,130.379183 Z" id="0%" fill="#131F3C" fill-rule="nonzero"></path>
            <g id="diskon" transform="translate(0.000000, 141.000000)" fill="#000000">
                <path d="M87.9575,6.9 L91.1315,6.9 L91.1315,23 L88.3255,23 L88.3255,21.39 C87.6125,22.379 86.3475,23.322 84.3235,23.322 C80.8045,23.322 78.9185,20.493 78.9185,17.48 C78.9185,14.467 80.8045,11.638 84.3235,11.638 C86.0715,11.638 87.2445,12.351 87.9575,13.133 L87.9575,6.9 Z M87.9575,16.169 C87.5205,15.203 86.4855,14.329 85.0825,14.329 C83.2655,14.329 82.1845,15.755 82.1845,17.48 C82.1845,19.205 83.2655,20.631 85.0825,20.631 C86.4855,20.631 87.5205,19.757 87.9575,18.791 L87.9575,16.169 Z M93.2245,17.48 C93.2245,13.317 96.4215,11.638 98.9055,11.638 C103.4825,11.638 104.9545,15.249 104.2185,18.515 L96.4445,18.515 C96.8125,20.125 98.5145,20.792 100.3315,20.792 C101.5965,20.792 102.7235,20.539 103.6665,20.125 L103.6665,22.632 C102.6315,23.069 101.2745,23.322 99.6185,23.322 C96.1225,23.322 93.2245,21.321 93.2245,17.48 Z M101.3435,16.445 C101.4585,15.686 101.0215,14.076 99.0205,14.076 C97.6635,14.076 96.4675,14.927 96.4215,16.445 L101.3435,16.445 Z M114.3615,13.616 C115.1435,12.397 116.7535,11.523 118.8235,11.73 L118.8235,14.835 C117.0755,14.536 115.3965,15.203 114.7295,16.514 L114.7295,23 L111.5325,23 L111.5325,11.96 L114.3615,11.96 L114.3615,13.616 Z M130.2545,20.148 C130.2545,20.723 130.6225,20.884 131.0365,20.884 C131.2205,20.884 131.4275,20.861 131.6345,20.792 L131.6345,22.885 C131.1285,23.069 130.4845,23.207 129.8635,23.207 C128.7365,23.207 127.8855,22.793 127.4255,21.965 C126.3445,22.816 125.0795,23.322 123.4465,23.322 C121.3765,23.322 119.5825,22.126 119.5825,19.941 C119.5825,17.135 122.2275,16.261 124.4355,16.261 C125.3095,16.261 126.2755,16.376 127.0575,16.56 L127.0575,16.169 C127.0575,15.065 126.1835,14.306 124.4585,14.306 C122.9405,14.306 121.5835,14.72 120.5485,15.134 L120.5485,12.374 C121.4455,12.075 123.1245,11.638 124.8265,11.638 C128.1385,11.638 130.2545,12.995 130.2545,16.629 L130.2545,20.148 Z M125.1715,18.17 C123.9985,18.17 122.8485,18.561 122.8485,19.688 C122.8485,20.516 123.6075,21.045 124.5735,21.045 C125.4705,21.045 126.3215,20.792 127.0575,20.148 L127.0575,18.423 C126.5745,18.308 125.8385,18.17 125.1715,18.17 Z M133.1525,6.9 L136.3495,6.9 L136.3495,13.133 C137.0395,12.351 138.2355,11.638 139.9835,11.638 C143.4795,11.638 145.3655,14.467 145.3655,17.48 C145.3655,20.493 143.4795,23.322 139.9835,23.322 C137.9365,23.322 136.6715,22.379 135.9815,21.39 L135.9815,23 L133.1525,23 L133.1525,6.9 Z M142.0995,17.48 C142.0995,15.755 141.0185,14.329 139.2015,14.329 C137.7985,14.329 136.7635,15.203 136.3265,16.169 L136.3265,18.791 C136.7635,19.757 137.7985,20.631 139.2015,20.631 C141.0185,20.631 142.0995,19.205 142.0995,17.48 Z M157.3255,20.148 C157.3255,20.723 157.6935,20.884 158.1075,20.884 C158.2915,20.884 158.4985,20.861 158.7055,20.792 L158.7055,22.885 C158.1995,23.069 157.5555,23.207 156.9345,23.207 C155.8075,23.207 154.9565,22.793 154.4965,21.965 C153.4155,22.816 152.1505,23.322 150.5175,23.322 C148.4475,23.322 146.6535,22.126 146.6535,19.941 C146.6535,17.135 149.2985,16.261 151.5065,16.261 C152.3805,16.261 153.3465,16.376 154.1285,16.56 L154.1285,16.169 C154.1285,15.065 153.2545,14.306 151.5295,14.306 C150.0115,14.306 148.6545,14.72 147.6195,15.134 L147.6195,12.374 C148.5165,12.075 150.1955,11.638 151.8975,11.638 C155.2095,11.638 157.3255,12.995 157.3255,16.629 L157.3255,20.148 Z M152.2425,18.17 C151.0695,18.17 149.9195,18.561 149.9195,19.688 C149.9195,20.516 150.6785,21.045 151.6445,21.045 C152.5415,21.045 153.3925,20.792 154.1285,20.148 L154.1285,18.423 C153.6455,18.308 152.9095,18.17 152.2425,18.17 Z M163.4435,23 L160.2465,23 L160.2465,11.96 L163.4435,11.96 L163.4435,23 Z M163.7195,8.303 C163.7195,9.568 162.8455,10.12 161.8335,10.12 C160.8445,10.12 159.9705,9.568 159.9705,8.303 C159.9705,7.061 160.8445,6.509 161.8335,6.509 C162.8455,6.509 163.7195,7.061 163.7195,8.303 Z M165.7205,15.042 C165.7205,12.489 167.9975,11.638 170.3205,11.638 C171.8845,11.638 173.2645,12.029 174.3915,12.581 L174.3915,15.203 C173.4485,14.559 171.8385,14.076 170.5275,14.076 C169.8145,14.076 168.9865,14.283 168.9865,14.95 C168.9865,16.79 175.2195,15.87 175.2195,19.918 C175.2195,22.517 172.8505,23.322 170.2055,23.322 C168.5265,23.322 166.9395,22.954 165.8125,22.287 L165.8125,19.642 C167.0085,20.424 168.6875,20.815 170.0215,20.815 C171.1945,20.815 171.9535,20.608 171.9535,19.987 C171.9535,18.216 165.7205,18.998 165.7205,15.042 Z" id="de-rabais"></path>
            </g>
            <g id="11-—-30-September" transform="translate(10.000000, 0.000000)" fill="#000000">
                <path d="M6.1125,8 L8.8375,8 L8.8375,21.775 L11.6875,21.775 L11.6875,25 L1.9875,25 L1.9875,21.775 L5.1875,21.775 L5.1875,11.75 L1.9875,12.95 L1.9875,9.575 L6.1125,8 Z M17.6375,8 L20.3625,8 L20.3625,21.775 L23.2125,21.775 L23.2125,25 L13.5125,25 L13.5125,21.775 L16.7125,21.775 L16.7125,11.75 L13.5125,12.95 L13.5125,9.575 L17.6375,8 Z M41.5125,21.9 C41.5125,22.525 41.9125,22.7 42.3625,22.7 C42.5625,22.7 42.7875,22.675 43.0125,22.6 L43.0125,24.875 C42.4625,25.075 41.7625,25.225 41.0875,25.225 C39.8625,25.225 38.9375,24.775 38.4375,23.875 C37.2625,24.8 35.8875,25.35 34.1125,25.35 C31.8625,25.35 29.9125,24.05 29.9125,21.675 C29.9125,18.625 32.7875,17.675 35.1875,17.675 C36.1375,17.675 37.1875,17.8 38.0375,18 L38.0375,17.575 C38.0375,16.375 37.0875,15.55 35.2125,15.55 C33.5625,15.55 32.0875,16 30.9625,16.45 L30.9625,13.45 C31.9375,13.125 33.7625,12.65 35.6125,12.65 C39.2125,12.65 41.5125,14.125 41.5125,18.075 L41.5125,21.9 Z M35.9875,19.75 C34.7125,19.75 33.4625,20.175 33.4625,21.4 C33.4625,22.3 34.2875,22.875 35.3375,22.875 C36.3125,22.875 37.2375,22.6 38.0375,21.9 L38.0375,20.025 C37.5125,19.9 36.7125,19.75 35.9875,19.75 Z M52.9875,13 L56.4625,13 L56.4625,25 L53.3875,25 L53.3875,23.475 C52.4625,24.55 51.0875,25.35 49.3875,25.35 C46.1375,25.35 44.5125,23.2 44.5125,20.425 L44.5125,13 L47.9875,13 L47.9875,19.975 C47.9875,21.575 48.8625,22.35 50.2875,22.35 C51.5375,22.35 52.4625,21.55 52.9875,20.825 L52.9875,13 Z M76.6625,12.35 C76.6625,14.1 75.6875,15.45 74.0875,16 C75.8125,16.525 77.3625,17.85 77.3625,20.35 C77.3625,23.925 74.0625,25.35 70.5625,25.35 C68.3625,25.35 66.5875,25 64.6625,24.2 L64.6625,20.725 C66.5875,21.8 68.3125,22.075 70.2625,22.05 C72.1875,22.05 73.7875,21.425 73.7875,19.825 C73.7875,18.375 72.5375,17.85 70.8375,17.85 L68.0375,17.85 L68.0625,14.65 L70.4125,14.675 C72.0875,14.675 73.1125,14.05 73.1125,12.875 C73.1125,11.65 72.0375,10.925 69.9875,10.925 C68.4625,10.925 66.6375,11.425 64.9625,12.45 L64.9625,8.975 C66.4875,8.15 68.4125,7.65 70.5125,7.65 C74.0375,7.65 76.6625,9.25 76.6625,12.35 Z M79.4625,16.5 C79.4625,11.6 81.7875,7.65 87.2125,7.65 C92.6375,7.65 94.9625,11.6 94.9625,16.5 C94.9625,21.4 92.6375,25.35 87.2125,25.35 C81.7875,25.35 79.4625,21.4 79.4625,16.5 Z M91.2125,16.5 C91.2125,12.875 89.9625,10.95 87.2125,10.95 C84.4625,10.95 83.2125,12.875 83.2125,16.5 C83.2125,20.125 84.4625,22.05 87.2125,22.05 C89.9625,22.05 91.2125,20.125 91.2125,16.5 Z M102.5375,16.35 C102.5375,13.575 105.0125,12.65 107.5375,12.65 C109.2375,12.65 110.7375,13.075 111.9625,13.675 L111.9625,16.525 C110.9375,15.825 109.1875,15.3 107.7625,15.3 C106.9875,15.3 106.0875,15.525 106.0875,16.25 C106.0875,18.25 112.8625,17.25 112.8625,21.65 C112.8625,24.475 110.2875,25.35 107.4125,25.35 C105.5875,25.35 103.8625,24.95 102.6375,24.225 L102.6375,21.35 C103.9375,22.2 105.7625,22.625 107.2125,22.625 C108.4875,22.625 109.3125,22.4 109.3125,21.725 C109.3125,19.8 102.5375,20.65 102.5375,16.35 Z M114.3125,19 C114.3125,14.475 117.7875,12.65 120.4875,12.65 C125.4625,12.65 127.0625,16.575 126.2625,20.125 L117.8125,20.125 C118.2125,21.875 120.0625,22.6 122.0375,22.6 C123.4125,22.6 124.6375,22.325 125.6625,21.875 L125.6625,24.6 C124.5375,25.075 123.0625,25.35 121.2625,25.35 C117.4625,25.35 114.3125,23.175 114.3125,19 Z M123.1375,17.875 C123.2625,17.05 122.7875,15.3 120.6125,15.3 C119.1375,15.3 117.8375,16.225 117.7875,17.875 L123.1375,17.875 Z M131.7375,14.75 C132.4875,13.675 133.8625,12.65 136.0875,12.65 C139.8875,12.65 141.9375,15.725 141.9375,19 C141.9375,22.275 139.8875,25.35 136.0875,25.35 C134.1875,25.35 132.9125,24.575 132.1375,23.725 L132.1375,30.5 L128.6625,30.5 L128.6625,13 L131.7375,13 L131.7375,14.75 Z M138.3875,19 C138.3875,17.125 137.2125,15.575 135.2375,15.575 C133.7125,15.575 132.5875,16.525 132.1125,17.575 L132.1125,20.425 C132.5875,21.475 133.7125,22.425 135.2375,22.425 C137.2125,22.425 138.3875,20.875 138.3875,19 Z M144.9625,9.5 L148.4125,8.675 L148.4125,13 L152.2125,13 L152.2125,15.925 L148.4125,15.925 L148.4125,20.625 C148.4125,21.875 149.0375,22.425 150.3375,22.425 C151.1375,22.425 151.8125,22.3 152.5125,22.025 L152.5125,24.825 C151.5875,25.15 150.4875,25.35 149.2875,25.35 C146.9625,25.35 144.9625,24.275 144.9625,21.3 L144.9625,15.925 L142.9375,15.925 L142.9375,13 L144.9625,13 L144.9625,9.5 Z M153.8375,19 C153.8375,14.475 157.3125,12.65 160.0125,12.65 C164.9875,12.65 166.5875,16.575 165.7875,20.125 L157.3375,20.125 C157.7375,21.875 159.5875,22.6 161.5625,22.6 C162.9375,22.6 164.1625,22.325 165.1875,21.875 L165.1875,24.6 C164.0625,25.075 162.5875,25.35 160.7875,25.35 C156.9875,25.35 153.8375,23.175 153.8375,19 Z M162.6625,17.875 C162.7875,17.05 162.3125,15.3 160.1375,15.3 C158.6625,15.3 157.3625,16.225 157.3125,17.875 L162.6625,17.875 Z M171.6625,25 L168.1875,25 L168.1875,13 L171.2625,13 L171.2625,14.4 C171.8875,13.65 173.2625,12.65 175.0875,12.65 C176.8875,12.65 178.0625,13.4 178.7625,14.425 C179.7625,13.45 181.1125,12.65 182.7625,12.65 C186.1375,12.65 187.2375,15.275 187.2375,17.4 L187.2375,25 L183.7875,25 L183.7875,17.625 C183.7875,16.375 183.0125,15.65 181.9125,15.65 C180.9625,15.65 180.1125,16.2 179.5375,16.85 C179.5625,17.025 179.5625,17.2 179.5625,17.4 L179.5625,25 L176.1125,25 L176.1125,17.625 C176.1125,16.375 175.3375,15.65 174.2375,15.65 C173.1875,15.65 172.2375,16.35 171.6625,17.1 L171.6625,25 Z M190.0625,7.5 L193.5375,7.5 L193.5375,14.275 C194.2875,13.425 195.5875,12.65 197.4875,12.65 C201.2875,12.65 203.3375,15.725 203.3375,19 C203.3375,22.275 201.2875,25.35 197.4875,25.35 C195.2625,25.35 193.8875,24.325 193.1375,23.25 L193.1375,25 L190.0625,25 L190.0625,7.5 Z M199.7875,19 C199.7875,17.125 198.6125,15.575 196.6375,15.575 C195.1125,15.575 193.9875,16.525 193.5125,17.575 L193.5125,20.425 C193.9875,21.475 195.1125,22.425 196.6375,22.425 C198.6125,22.425 199.7875,20.875 199.7875,19 Z M208.6875,14.8 C209.5375,13.475 211.2875,12.525 213.5375,12.75 L213.5375,16.125 C211.6375,15.8 209.8125,16.525 209.0875,17.95 L209.0875,25 L205.6125,25 L205.6125,13 L208.6875,13 L208.6875,14.8 Z M214.4375,19 C214.4375,14.475 217.9125,12.65 220.6125,12.65 C225.5875,12.65 227.1875,16.575 226.3875,20.125 L217.9375,20.125 C218.3375,21.875 220.1875,22.6 222.1625,22.6 C223.5375,22.6 224.7625,22.325 225.7875,21.875 L225.7875,24.6 C224.6625,25.075 223.1875,25.35 221.3875,25.35 C217.5875,25.35 214.4375,23.175 214.4375,19 Z M223.2625,17.875 C223.3875,17.05 222.9125,15.3 220.7375,15.3 C219.2625,15.3 217.9625,16.225 217.9125,17.875 L223.2625,17.875 Z" id="11-au-30-septembre"></path>
            </g>
        </g>
    </g>
</svg>