<?xml version="1.0" encoding="UTF-8"?>
<svg width="250px" height="292px" viewBox="0 0 250 292" version="1.1" xmlns="http://www.w3.org/2000/svg" xmlns:xlink="http://www.w3.org/1999/xlink">
    <!-- Generator: Sketch 48.2 (47327) - http://www.bohemiancoding.com/sketch -->
    <title>text_2</title>
    <desc>Created with Sketch.</desc>
    <defs>
        <radialGradient cx="404.481229%" cy="400%" fx="404.481229%" fy="400%" r="101.454359%" gradientTransform="translate(4.044812,4.000000),scale(1.000000,0.999999),translate(-4.044812,-4.000000)" id="radialGradient-1">
            <stop stop-color="#FF9495" offset="0%"></stop>
            <stop stop-color="#FE5F60" offset="70.3742825%"></stop>
            <stop stop-color="#FF9091" offset="100%"></stop>
        </radialGradient>
        <radialGradient cx="100%" cy="100%" fx="100%" fy="100%" r="50.0301469%" gradientTransform="translate(1.000000,1.000000),scale(1.000000,1.000000),translate(-1.000000,-1.000000)" id="radialGradient-2">
            <stop stop-color="#8D00FF" offset="0%"></stop>
            <stop stop-color="#5C00FE" offset="69.8959662%"></stop>
            <stop stop-color="#8900FF" offset="100%"></stop>
        </radialGradient>
    </defs>
    <g id="Page-1" stroke="none" stroke-width="1" fill="none" fill-rule="evenodd">
        <g id="text_2" transform="translate(-2.000000, -7.000000)">
            <g id="2-copy" transform="translate(1.000000, 48.000000)" fill-rule="nonzero">
                <g id="Group-2" transform="translate(126.066640, 125.762969) scale(-1, 1) translate(-126.066640, -125.762969) translate(0.566640, 0.762969)">
                    <path d="M0.773750896,124.873729 C0.773779989,116.689946 1.57209481,108.584814 3.16869536,100.558282 C4.76529591,92.5317607 7.12950015,84.7380986 10.2613081,77.1772896 C13.393116,69.6164805 17.2323564,62.4338 21.7790176,55.629254 C26.325673,48.8247085 31.4923987,42.5290333 37.2791891,36.7422459 C43.0659853,30.9554544 49.3616506,25.7887338 56.1661792,21.2420837 C62.9707136,16.6954341 70.153394,12.8562164 77.7141798,9.7244312 C85.2749598,6.59264654 93.068616,4.22846849 101.095102,2.6318982 C109.121588,1.03532325 117.226597,0.237031125 125.410328,0.237031125 L125.410328,56.3235362 C120.909297,56.3235653 116.451511,56.762639 112.036963,57.6407748 C107.62241,58.518899 103.33595,59.8192111 99.17753,61.5416993 C95.0191103,63.2641992 91.0686861,65.3757843 87.3262108,67.8764488 C83.5837413,70.3771134 80.1211632,73.2188123 76.9384532,76.4015455 C73.7557433,79.5842788 70.9140618,83.0468976 68.4134322,86.7893845 C65.9127968,90.5318831 63.8012407,94.482348 62.0787699,98.6407794 C60.3563108,102.799211 59.0560162,107.085712 58.1779036,111.500294 C57.2998202,115.914842 56.8607755,120.372669 56.8607581,124.873729 L0.773750896,124.873729 Z" id="Fill-8" fill="url(#radialGradient-1)"></path>
                    <path d="M125.475948,0.237031125 C133.652855,0.23706659 141.751206,1.03472162 149.770988,2.62999272 C157.790771,4.22526731 165.577876,6.58750783 173.132322,9.71671311 C180.68679,12.8459137 187.863445,16.6819591 194.662297,21.2248403 C201.461125,25.7677257 207.75149,30.9301581 213.533426,36.7121376 C219.315362,42.4941165 224.477725,48.7845522 229.020556,55.5834348 C233.563387,62.3823272 237.399362,69.5590225 240.528504,77.1135206 C243.657681,84.6680362 246.019921,92.4552054 247.615154,100.475028 C249.210382,108.494845 250.007981,116.593231 250.007981,124.770157 C250.007946,132.94714 249.210312,141.045555 247.615009,149.065407 C246.019781,157.085259 243.657541,164.87244 240.528289,172.426979 C237.399112,179.981512 233.563073,187.158224 229.020201,193.957105 C224.477335,200.755992 219.314897,207.046426 213.532891,212.828415 C207.75092,218.610403 201.460521,223.772824 194.661605,228.315708 C187.862718,232.858574 180.686029,236.694601 173.131525,239.823761 C165.577021,242.952955 157.789846,245.31516 149.770029,246.910411 C141.750195,248.505655 133.651809,249.303272 125.474866,249.303272 C117.297883,249.303237 109.199485,248.505586 101.179651,246.9103 C93.1597989,245.315038 85.3726007,242.952798 77.8180619,239.82358 C70.2635232,236.694386 63.0868163,232.858347 56.2879297,228.315475 C49.4890373,223.772592 43.1986028,218.61017 37.4166263,212.828182 C31.6346439,207.046217 26.4722168,200.755777 21.9293506,193.956896 C17.3864729,187.158009 13.5504514,179.98132 10.421263,172.426798 C7.29207463,164.872294 4.92986378,157.085137 3.33462466,149.06532 C1.73936229,141.045485 0.941739824,132.947099 0.941739824,124.770157 C0.941739824,124.770153 19.6218754,124.770159 56.9821467,124.770174 C56.9821641,129.267494 57.4208788,133.721635 58.2982851,138.132549 C59.175668,142.54347 60.4748997,146.826409 62.1959626,150.981403 C63.917043,155.136403 66.0268562,159.083585 68.5254489,162.82298 C71.0240415,166.562381 73.8633794,170.022135 77.0434624,173.202218 C80.2235571,176.382301 83.6832989,179.221639 87.4226764,181.720231 C91.1620597,184.218783 95.1092365,186.328602 99.2642186,188.049665 C103.419201,189.770722 107.70214,191.069954 112.113037,191.947343 C116.52394,192.824708 120.97804,193.263394 125.47536,193.263394 C129.972686,193.263377 134.426821,192.824673 138.837759,191.94729 C143.248656,191.069884 147.531613,189.770653 151.686613,188.049572 C155.841612,186.328515 159.788789,184.218696 163.52819,181.720103 C167.267567,179.221511 170.727309,176.382179 173.907404,173.202096 C177.087504,170.022012 179.926842,166.562271 182.425435,162.822876 C184.92401,159.083475 187.033823,155.136298 188.754868,150.981316 C190.475908,146.826334 191.77514,142.543394 192.652529,138.132497 C193.529912,133.721583 193.968597,129.267477 193.96858,124.770174 C193.968562,120.272854 193.529859,115.818713 192.652476,111.407799 C191.77507,106.996878 190.475838,102.713921 188.754758,98.5589274 C187.033718,94.4039337 184.923899,90.4567452 182.425307,86.7173561 C179.92672,82.977967 177.087365,79.5182309 173.907282,76.338142 C170.727198,73.1580474 167.267462,70.3187211 163.528062,67.8201401 C159.788667,65.3215532 155.841484,63.21174 151.686502,61.4906887 C147.531526,59.7696374 143.248586,58.4704115 138.837701,57.5930227 C134.426786,56.7156397 129.972686,56.2769482 125.47536,56.2769482 L125.475948,0.237031125 Z" id="Fill-8" fill="url(#radialGradient-2)"></path>
                </g>
                <circle id="Oval" fill="#FFFFFF" cx="124.90822" cy="125.671189" r="87.3982442"></circle>
                <path d="M80.1879256,152.352202 L77.8641075,152.352202 L77.8641075,149.209766 C75.9099878,148.99851 74.0614961,148.47037 72.5827028,147.651752 L72.5827028,144.694165 C74.6160436,145.988109 76.9926757,146.51625 79.1052376,146.51625 C81.4818698,146.51625 83.0926982,145.961702 83.0926982,144.218839 C83.0926982,139.940901 72.6619238,142.211905 72.6619238,135.662963 C72.6619238,132.652562 74.9593349,131.041734 77.8641075,130.698443 L77.8641075,127.5296 L80.1879256,127.5296 L80.1879256,130.672036 C81.9571962,130.804071 83.7264668,131.279397 84.9675969,132.018794 L84.9675969,134.897159 C83.4623965,133.893693 81.4026487,133.339145 79.4221219,133.365552 C77.1775249,133.365552 75.7251386,134.025728 75.7251386,135.610149 C75.7251386,139.59761 86.155913,137.458641 86.155913,144.060397 C86.155913,147.625345 83.4888036,149.051324 80.1879256,149.236173 L80.1879256,152.352202 Z M88.3212889,139.940901 C88.3212889,134.685903 90.8035491,130.619222 96.3754311,130.619222 C101.947313,130.619222 104.429573,134.685903 104.429573,139.940901 C104.429573,145.195899 101.947313,149.26258 96.3754311,149.26258 C90.8035491,149.26258 88.3212889,145.195899 88.3212889,139.940901 Z M101.392766,139.940901 C101.392766,135.768591 99.8083442,133.365552 96.3754311,133.365552 C92.916111,133.365552 91.3580966,135.768591 91.3580966,139.940901 C91.3580966,144.113211 92.916111,146.51625 96.3754311,146.51625 C99.8083442,146.51625 101.392766,144.113211 101.392766,139.940901 Z M110.529596,147.466903 C110.529596,148.655219 109.710978,149.209766 108.760325,149.209766 C107.809672,149.209766 106.964648,148.655219 106.964648,147.466903 C106.964648,146.331401 107.809672,145.776853 108.760325,145.776853 C109.710978,145.776853 110.529596,146.331401 110.529596,147.466903 Z M113.06467,139.940901 C113.06467,134.685903 115.54693,130.619222 121.118812,130.619222 C126.690694,130.619222 129.172955,134.685903 129.172955,139.940901 C129.172955,145.195899 126.690694,149.26258 121.118812,149.26258 C115.54693,149.26258 113.06467,145.195899 113.06467,139.940901 Z M126.136147,139.940901 C126.136147,135.768591 124.551725,133.365552 121.118812,133.365552 C117.659492,133.365552 116.101478,135.768591 116.101478,139.940901 C116.101478,144.113211 117.659492,146.51625 121.118812,146.51625 C124.551725,146.51625 126.136147,144.113211 126.136147,139.940901 Z M140.633603,130.962513 L143.723225,130.962513 L143.723225,142.634417 L146.812846,142.634417 L146.812846,145.248713 L143.723225,145.248713 L143.723225,148.919289 L140.818452,148.919289 L140.818452,145.248713 L131.07426,145.248713 L131.07426,142.687231 L140.633603,130.962513 Z M140.818452,142.634417 L140.818452,134.791531 L134.427952,142.634417 L140.818452,142.634417 Z M149.321514,132.441306 C151.170005,131.173769 153.203346,130.619222 155.289501,130.619222 C158.93367,130.619222 161.60078,132.309271 161.60078,135.662963 C161.60078,138.699771 159.065705,140.495448 156.636259,141.947835 C154.312441,143.321 152.120658,144.430095 152.094251,146.225773 L161.732815,146.199366 L161.732815,148.919289 L148.714152,148.919289 L148.714152,147.546124 C148.714152,143.162558 151.962216,141.498915 154.68214,139.888087 C156.768294,138.673364 158.590379,137.749118 158.590379,135.715777 C158.590379,134.157763 157.243621,133.339145 155.025431,133.339145 C153.203346,133.339145 151.222819,133.972914 149.321514,135.346079 L149.321514,132.441306 Z M165.456205,130.962513 L176.520748,130.962513 L176.520748,133.656029 L168.228943,133.656029 L167.964872,137.986781 C168.836304,137.775525 169.76055,137.669897 170.684796,137.669897 C174.144116,137.669897 177.365773,139.175097 177.365773,143.400221 C177.365773,147.282054 174.064895,149.26258 170.103841,149.26258 C168.017686,149.26258 165.931532,148.813661 164.34711,148.047857 L164.34711,145.222306 C165.852311,146.093737 167.885651,146.542657 169.76055,146.542657 C172.427659,146.542657 174.328965,145.486376 174.328965,143.373814 C174.328965,140.997182 172.295624,140.152157 169.443666,140.152157 C167.991279,140.152157 166.327637,140.442634 164.875251,140.944368 L165.456205,130.962513 Z M90.2886122,162.962513 L92.5068022,162.962513 L92.5068022,178.199366 L95.702052,178.199366 L95.702052,180.919289 L85.9314533,180.919289 L85.9314533,178.199366 L89.5228085,178.199366 L89.5228085,166.052135 L85.9314533,167.398893 L85.9314533,164.626155 L90.2886122,162.962513 Z M121.528121,162.434372 L124.248045,162.434372 L124.248045,180.919289 L121.237644,180.919289 L121.237644,167.979847 L115.401692,176.746979 L113.606014,176.746979 L107.770062,167.95344 L107.770062,180.919289 L104.759661,180.919289 L104.759661,162.434372 L107.479585,162.434372 L114.503853,173.023589 L121.528121,162.434372 Z M131.747639,180.919289 L128.737239,180.919289 L128.737239,162.434372 L131.56279,162.434372 L141.518238,175.954769 C141.491831,175.321 141.491831,174.60801 141.491831,173.921428 L141.491831,162.434372 L144.502232,162.434372 L144.502232,180.919289 L141.67668,180.919289 L131.721232,167.398893 C131.747639,168.032661 131.747639,168.745651 131.747639,169.405827 L131.747639,180.919289 Z M152.001827,180.919289 L148.991426,180.919289 L148.991426,162.434372 L156.385393,162.434372 C159.844713,162.434372 163.488882,163.807538 163.488882,168.217511 C163.488882,171.518389 161.429134,173.10281 158.999688,173.683765 L164.914861,180.919289 L161.297099,180.919289 L155.751624,174.000649 L152.001827,174.000649 L152.001827,180.919289 Z M152.001827,165.180703 L152.001827,171.333539 L156.517428,171.333539 C158.497954,171.333539 160.425667,170.62055 160.425667,168.270325 C160.425667,165.893693 158.497954,165.180703 156.517428,165.180703 L152.001827,165.180703 Z" id="$0.0425-1-MNR" fill="#131F3C"></path>
            </g>
            <path d="M104.745567,113.956634 L108.526235,113.956634 L108.526235,128.659233 L111.49476,128.659233 L111.49476,133 L100.12475,133 L100.12475,128.659233 L103.485344,128.659233 L103.485344,119.08154 L100.12475,120.341763 L100.12475,115.720946 L104.745567,113.956634 Z M114.575304,113.928629 L127.037507,113.928629 L127.037507,118.269397 L119.224126,118.241392 L119.028091,121.041887 C119.728215,120.929867 120.428339,120.873857 121.072453,120.873857 C124.965141,120.873857 127.877655,122.638169 127.877655,126.922926 C127.877655,131.627757 123.704918,133.420074 119.448166,133.420074 C117.235775,133.420074 115.023384,132.94399 113.315082,132.131847 L113.315082,127.371005 C114.799344,128.407188 117.03974,128.939282 118.888067,128.939282 C121.044448,128.939282 122.69674,128.295168 122.69674,126.810906 C122.69674,125.606693 121.716566,124.68253 118.608017,124.654525 C117.403804,124.654525 115.667497,124.822555 113.903186,125.438664 L114.575304,113.928629 Z M137.819412,134.680297 L134.738868,134.680297 L146.192892,111.716238 L149.273437,111.716238 L137.819412,134.680297 Z M140.283848,118.017352 C140.283848,121.377946 137.819412,123.058243 134.962908,123.058243 C132.078398,123.058243 129.613962,121.377946 129.613962,118.017352 C129.613962,114.656758 132.078398,112.976461 134.962908,112.976461 C137.819412,112.976461 140.283848,114.656758 140.283848,118.017352 Z M133.310616,118.017352 C133.310616,118.857501 133.758695,119.697649 134.962908,119.697649 C136.139115,119.697649 136.587195,118.857501 136.587195,118.017352 C136.587195,117.177204 136.139115,116.337055 134.962908,116.337055 C133.758695,116.337055 133.310616,117.177204 133.310616,118.017352 Z M154.286323,128.379183 C154.286323,131.739777 151.821887,133.420074 148.965382,133.420074 C146.080873,133.420074 143.616437,131.739777 143.616437,128.379183 C143.616437,125.018589 146.080873,123.338292 148.965382,123.338292 C151.821887,123.338292 154.286323,125.018589 154.286323,128.379183 Z M147.31309,128.379183 C147.31309,129.219332 147.761169,130.05948 148.965382,130.05948 C150.14159,130.05948 150.589669,129.219332 150.589669,128.379183 C150.589669,127.539035 150.14159,126.698886 148.965382,126.698886 C147.761169,126.698886 147.31309,127.539035 147.31309,128.379183 Z" id="15%" fill="#131F3C" fill-rule="nonzero"></path>
            <g id="diskon" transform="translate(-0.000000, 139.000000)" fill="#000000">
                <path d="M88.4575,6.9 L91.6315,6.9 L91.6315,23 L88.8255,23 L88.8255,21.39 C88.1125,22.379 86.8475,23.322 84.8235,23.322 C81.3045,23.322 79.4185,20.493 79.4185,17.48 C79.4185,14.467 81.3045,11.638 84.8235,11.638 C86.5715,11.638 87.7445,12.351 88.4575,13.133 L88.4575,6.9 Z M88.4575,16.169 C88.0205,15.203 86.9855,14.329 85.5825,14.329 C83.7655,14.329 82.6845,15.755 82.6845,17.48 C82.6845,19.205 83.7655,20.631 85.5825,20.631 C86.9855,20.631 88.0205,19.757 88.4575,18.791 L88.4575,16.169 Z M93.7245,17.48 C93.7245,13.317 96.9215,11.638 99.4055,11.638 C103.9825,11.638 105.4545,15.249 104.7185,18.515 L96.9445,18.515 C97.3125,20.125 99.0145,20.792 100.8315,20.792 C102.0965,20.792 103.2235,20.539 104.1665,20.125 L104.1665,22.632 C103.1315,23.069 101.7745,23.322 100.1185,23.322 C96.6225,23.322 93.7245,21.321 93.7245,17.48 Z M101.8435,16.445 C101.9585,15.686 101.5215,14.076 99.5205,14.076 C98.1635,14.076 96.9675,14.927 96.9215,16.445 L101.8435,16.445 Z M114.8615,13.616 C115.6435,12.397 117.2535,11.523 119.3235,11.73 L119.3235,14.835 C117.5755,14.536 115.8965,15.203 115.2295,16.514 L115.2295,23 L112.0325,23 L112.0325,11.96 L114.8615,11.96 L114.8615,13.616 Z M130.7545,20.148 C130.7545,20.723 131.1225,20.884 131.5365,20.884 C131.7205,20.884 131.9275,20.861 132.1345,20.792 L132.1345,22.885 C131.6285,23.069 130.9845,23.207 130.3635,23.207 C129.2365,23.207 128.3855,22.793 127.9255,21.965 C126.8445,22.816 125.5795,23.322 123.9465,23.322 C121.8765,23.322 120.0825,22.126 120.0825,19.941 C120.0825,17.135 122.7275,16.261 124.9355,16.261 C125.8095,16.261 126.7755,16.376 127.5575,16.56 L127.5575,16.169 C127.5575,15.065 126.6835,14.306 124.9585,14.306 C123.4405,14.306 122.0835,14.72 121.0485,15.134 L121.0485,12.374 C121.9455,12.075 123.6245,11.638 125.3265,11.638 C128.6385,11.638 130.7545,12.995 130.7545,16.629 L130.7545,20.148 Z M125.6715,18.17 C124.4985,18.17 123.3485,18.561 123.3485,19.688 C123.3485,20.516 124.1075,21.045 125.0735,21.045 C125.9705,21.045 126.8215,20.792 127.5575,20.148 L127.5575,18.423 C127.0745,18.308 126.3385,18.17 125.6715,18.17 Z M133.6525,6.9 L136.8495,6.9 L136.8495,13.133 C137.5395,12.351 138.7355,11.638 140.4835,11.638 C143.9795,11.638 145.8655,14.467 145.8655,17.48 C145.8655,20.493 143.9795,23.322 140.4835,23.322 C138.4365,23.322 137.1715,22.379 136.4815,21.39 L136.4815,23 L133.6525,23 L133.6525,6.9 Z M142.5995,17.48 C142.5995,15.755 141.5185,14.329 139.7015,14.329 C138.2985,14.329 137.2635,15.203 136.8265,16.169 L136.8265,18.791 C137.2635,19.757 138.2985,20.631 139.7015,20.631 C141.5185,20.631 142.5995,19.205 142.5995,17.48 Z M157.8255,20.148 C157.8255,20.723 158.1935,20.884 158.6075,20.884 C158.7915,20.884 158.9985,20.861 159.2055,20.792 L159.2055,22.885 C158.6995,23.069 158.0555,23.207 157.4345,23.207 C156.3075,23.207 155.4565,22.793 154.9965,21.965 C153.9155,22.816 152.6505,23.322 151.0175,23.322 C148.9475,23.322 147.1535,22.126 147.1535,19.941 C147.1535,17.135 149.7985,16.261 152.0065,16.261 C152.8805,16.261 153.8465,16.376 154.6285,16.56 L154.6285,16.169 C154.6285,15.065 153.7545,14.306 152.0295,14.306 C150.5115,14.306 149.1545,14.72 148.1195,15.134 L148.1195,12.374 C149.0165,12.075 150.6955,11.638 152.3975,11.638 C155.7095,11.638 157.8255,12.995 157.8255,16.629 L157.8255,20.148 Z M152.7425,18.17 C151.5695,18.17 150.4195,18.561 150.4195,19.688 C150.4195,20.516 151.1785,21.045 152.1445,21.045 C153.0415,21.045 153.8925,20.792 154.6285,20.148 L154.6285,18.423 C154.1455,18.308 153.4095,18.17 152.7425,18.17 Z M163.9435,23 L160.7465,23 L160.7465,11.96 L163.9435,11.96 L163.9435,23 Z M164.2195,8.303 C164.2195,9.568 163.3455,10.12 162.3335,10.12 C161.3445,10.12 160.4705,9.568 160.4705,8.303 C160.4705,7.061 161.3445,6.509 162.3335,6.509 C163.3455,6.509 164.2195,7.061 164.2195,8.303 Z M166.2205,15.042 C166.2205,12.489 168.4975,11.638 170.8205,11.638 C172.3845,11.638 173.7645,12.029 174.8915,12.581 L174.8915,15.203 C173.9485,14.559 172.3385,14.076 171.0275,14.076 C170.3145,14.076 169.4865,14.283 169.4865,14.95 C169.4865,16.79 175.7195,15.87 175.7195,19.918 C175.7195,22.517 173.3505,23.322 170.7055,23.322 C169.0265,23.322 167.4395,22.954 166.3125,22.287 L166.3125,19.642 C167.5085,20.424 169.1875,20.815 170.5215,20.815 C171.6945,20.815 172.4535,20.608 172.4535,19.987 C172.4535,18.216 166.2205,18.998 166.2205,15.042 Z" id="de-rabais"></path>
            </g>
            <g id="16-17-Agustus" fill="#000000">
                <path d="M69.2875,8 L72.0125,8 L72.0125,21.775 L74.8625,21.775 L74.8625,25 L65.1625,25 L65.1625,21.775 L68.3625,21.775 L68.3625,11.75 L65.1625,12.95 L65.1625,9.575 L69.2875,8 Z M80.2125,15.15 C81.7125,14.35 83.0875,14 84.7625,14 C87.8125,14 90.6875,15.85 90.6875,19.5 C90.6875,23.375 87.6625,25.35 84.1875,25.35 C78.7125,25.35 76.4875,22 76.4875,16.5 C76.4875,10.275 80.2375,7.65 84.5625,7.65 C86.1625,7.65 87.7875,8.025 89.2375,8.7 L89.2375,12 C88.0625,11.225 86.5125,10.8 85.0625,10.8 C82.7625,10.8 80.6625,11.775 80.2125,15.15 Z M80.2125,18.175 C80.5625,21.35 81.9375,22.3 83.8875,22.3 C85.5375,22.3 86.9375,21.55 86.9375,19.675 C86.9375,17.725 85.3625,17.125 83.6125,17.125 C82.4875,17.125 81.2875,17.475 80.2125,18.175 Z M92.8375,17.45 L102.1375,17.45 L102.1375,20.375 L92.8375,20.375 L92.8375,17.45 Z M108.3625,8 L111.0875,8 L111.0875,21.775 L113.9375,21.775 L113.9375,25 L104.2375,25 L104.2375,21.775 L107.4375,21.775 L107.4375,11.75 L104.2375,12.95 L104.2375,9.575 L108.3625,8 Z M115.1125,7.975 L128.1875,7.975 L128.1875,10.675 L121.2125,25 L117.1625,25 L123.8875,11.2 L115.1125,11.2 L115.1125,7.975 Z M146.3875,21.9 C146.3875,22.525 146.7875,22.7 147.2375,22.7 C147.4375,22.7 147.6625,22.675 147.8875,22.6 L147.8875,24.875 C147.3375,25.075 146.6375,25.225 145.9625,25.225 C144.7375,25.225 143.8125,24.775 143.3125,23.875 C142.1375,24.8 140.7625,25.35 138.9875,25.35 C136.7375,25.35 134.7875,24.05 134.7875,21.675 C134.7875,18.625 137.6625,17.675 140.0625,17.675 C141.0125,17.675 142.0625,17.8 142.9125,18 L142.9125,17.575 C142.9125,16.375 141.9625,15.55 140.0875,15.55 C138.4375,15.55 136.9625,16 135.8375,16.45 L135.8375,13.45 C136.8125,13.125 138.6375,12.65 140.4875,12.65 C144.0875,12.65 146.3875,14.125 146.3875,18.075 L146.3875,21.9 Z M140.8625,19.75 C139.5875,19.75 138.3375,20.175 138.3375,21.4 C138.3375,22.3 139.1625,22.875 140.2125,22.875 C141.1875,22.875 142.1125,22.6 142.9125,21.9 L142.9125,20.025 C142.3875,19.9 141.5875,19.75 140.8625,19.75 Z M148.8625,19 C148.8625,14.8 152.0125,12.65 155.4875,12.65 C158.9875,12.65 162.1125,14.8 162.1125,19 C162.1125,23.2 158.9875,25.35 155.4875,25.35 C152.0125,25.35 148.8625,23.2 148.8625,19 Z M158.5875,19 C158.5875,17.15 157.4875,15.75 155.4875,15.75 C153.5125,15.75 152.4125,17.15 152.4125,19 C152.4125,20.85 153.5125,22.25 155.4875,22.25 C157.4875,22.25 158.5875,20.85 158.5875,19 Z M172.7125,13 L176.1875,13 L176.1875,25 L173.1125,25 L173.1125,23.475 C172.1875,24.55 170.8125,25.35 169.1125,25.35 C165.8625,25.35 164.2375,23.2 164.2375,20.425 L164.2375,13 L167.7125,13 L167.7125,19.975 C167.7125,21.575 168.5875,22.35 170.0125,22.35 C171.2625,22.35 172.1875,21.55 172.7125,20.825 L172.7125,13 Z M168.7375,7.7 L171.8125,7.7 L174.9125,11.575 L171.6125,11.575 L170.2875,9.95 L168.9625,11.575 L165.6375,11.575 L168.7375,7.7 Z M180.0375,9.5 L183.4875,8.675 L183.4875,13 L187.2875,13 L187.2875,15.925 L183.4875,15.925 L183.4875,20.625 C183.4875,21.875 184.1125,22.425 185.4125,22.425 C186.2125,22.425 186.8875,22.3 187.5875,22.025 L187.5875,24.825 C186.6625,25.15 185.5625,25.35 184.3625,25.35 C182.0375,25.35 180.0375,24.275 180.0375,21.3 L180.0375,15.925 L178.0125,15.925 L178.0125,13 L180.0375,13 L180.0375,9.5 Z" id="16-17-août"></path>
            </g>
        </g>
    </g>
</svg>