<?xml version="1.0" encoding="UTF-8"?>
<svg width="250px" height="291px" viewBox="0 0 250 291" version="1.1" xmlns="http://www.w3.org/2000/svg" xmlns:xlink="http://www.w3.org/1999/xlink">
    <!-- Generator: Sketch 48.2 (47327) - http://www.bohemiancoding.com/sketch -->
    <title>text_1</title>
    <desc>Created with Sketch.</desc>
    <defs>
        <radialGradient cx="100%" cy="100%" fx="100%" fy="100%" r="50.0301469%" gradientTransform="translate(1.000000,1.000000),translate(-1.000000,-1.000000)" id="radialGradient-1">
            <stop stop-color="#8D00FF" offset="0%"></stop>
            <stop stop-color="#5C00FE" offset="69.8959662%"></stop>
            <stop stop-color="#8900FF" offset="100%"></stop>
        </radialGradient>
    </defs>
    <g id="Page-1" stroke="none" stroke-width="1" fill="none" fill-rule="evenodd">
        <g id="text_1" transform="translate(0.000000, -7.000000)">
            <g id="1-copy" transform="translate(0.000000, 48.000000)" fill-rule="nonzero">
                <path d="M124.534208,0.7629689 C132.711116,0.7630043 140.809466,1.5606594 148.829249,3.1559305 C156.849031,4.7512051 164.636136,7.1134456 172.190582,10.2426509 C179.745051,13.3718515 186.921705,17.2078968 193.720557,21.7507781 C200.519385,26.2936634 206.80975,31.4560958 212.591686,37.2380753 C218.373622,43.0200542 223.535985,49.3104899 228.078816,56.109373 C232.621648,62.908265 236.457622,70.08496 239.586764,77.639458 C242.715941,85.193974 245.078181,92.981143 246.673414,101.000966 C248.268642,109.020783 249.066241,117.119169 249.066241,125.296094 C249.066206,133.473078 248.268572,141.571493 246.673269,149.591345 C245.078041,157.611197 242.715802,165.398378 239.586549,172.952916 C236.457372,180.507449 232.621334,187.684162 228.078462,194.483043 C223.535595,201.28193 218.373157,207.572364 212.591151,213.354352 C206.80918,219.13634 200.518781,224.298762 193.719865,228.841645 C186.920978,233.384512 179.744289,237.220539 172.189785,240.349698 C164.635281,243.478892 156.848106,245.841098 148.828289,247.436348 C140.808455,249.031593 132.710069,249.82921 124.533126,249.82921 C116.356143,249.829175 108.257746,249.031523 100.237911,247.436238 C92.2180591,245.840975 84.4308608,243.478736 76.8763221,240.349518 C69.3217834,237.220324 62.1450765,233.384285 55.3461899,228.841413 C48.5472975,224.298529 42.256863,219.136108 36.4748864,213.35412 C30.6929041,207.572155 25.5304769,201.281714 20.9876108,194.482834 C16.4447331,187.683947 12.6087116,180.507257 9.4795232,172.952736 C6.3503348,165.398232 3.98812395,157.611075 2.39288484,149.591257 C0.797622465,141.571423 0,133.473037 0,125.296094 C2.90693572e-05,117.119128 0.797680604,109.020731 2.3929546,101.000867 C3.9882286,92.981015 6.35046852,85.193829 9.47967436,77.639301 C12.6088802,70.084774 16.4449307,62.908062 20.9878143,56.109169 C25.530692,49.3102771 30.693125,43.0198327 36.4751074,37.2378532 C42.2570955,31.4558697 48.54753,26.2934419 55.346405,21.7505694 C62.1452858,17.2076974 69.3219985,13.3716695 76.8765023,10.2424863 C84.4310004,7.1133037 92.2181812,4.7510899 100.237998,3.1558462 C108.257815,1.5605977 116.356195,0.7629735 124.533126,0.7629735 L124.533022,56.802874 C120.03573,56.802903 115.581648,57.241612 111.170768,58.119019 C106.759883,58.996413 102.476984,60.295645 98.3220195,62.016702 C94.1670548,63.737771 90.2199129,65.847601 86.480547,68.346188 C82.741187,70.844775 79.2814858,73.684113 76.1014203,76.864202 C72.9213547,80.044291 70.0820343,83.504033 67.5834823,87.24341 C65.0849246,90.982799 62.9751229,94.929982 61.2540833,99.084958 C59.5330552,103.239934 58.233841,107.522874 57.356458,111.933789 C56.4791041,116.344668 56.0404243,120.798791 56.0404068,125.296112 C56.0404243,129.793432 56.479139,134.247573 57.3565452,138.658487 C58.2339282,143.069408 59.5331599,147.352347 61.2542228,151.507341 C62.9753032,155.66234 65.0851164,159.609523 67.5837091,163.348918 C70.0823017,167.088319 72.9216395,170.548072 76.1017226,173.728155 C79.2818172,176.908238 82.7415591,179.747576 86.4809366,182.246169 C90.2203198,184.744721 94.1674967,186.85454 98.3224788,188.575603 C102.477461,190.29666 106.7604,191.595892 111.171297,192.473281 C115.5822,193.350646 120.0363,193.789332 124.533621,193.789332 C129.030947,193.789314 133.485081,193.350611 137.896019,192.473228 C142.306916,191.595822 146.589873,190.29659 150.744873,188.57551 C154.899872,186.854453 158.847049,184.744634 162.58645,182.246041 C166.325827,179.747448 169.785569,176.908116 172.965664,173.728033 C176.145764,170.54795 178.985102,167.088208 181.483695,163.348813 C183.98227,159.609413 186.092083,155.662236 187.813129,151.507254 C189.534168,147.352272 190.8334,143.069332 191.710789,138.658435 C192.588172,134.24752 193.026857,129.793415 193.02684,125.296112 C193.026823,120.798791 192.588119,116.344651 191.710736,111.933736 C190.83333,107.522816 189.534099,103.239859 187.813018,99.084865 C186.091979,94.929871 183.982159,90.982683 181.483567,87.243294 C178.98498,83.503905 176.145625,80.044169 172.965542,76.86408 C169.785459,73.683985 166.325723,70.844659 162.586322,68.346078 C158.846927,65.847491 154.899744,63.737678 150.744762,62.016626 C146.589786,60.295575 142.306846,58.996349 137.895961,58.11896 C133.485047,57.241577 129.030947,56.802886 124.533621,56.802886 L124.534208,0.7629689 Z" id="Fill-8" fill="url(#radialGradient-1)"></path>
                <circle id="Oval" fill="#FFFFFF" cx="125.65842" cy="126.421389" r="87.3982442"></circle>
                <path d="M77.354572,152.478404 L75.0307539,152.478404 L75.0307539,149.335968 C73.0766341,149.124712 71.2281425,148.596571 69.7493492,147.777954 L69.7493492,144.820367 C71.78269,146.114311 74.1593221,146.642452 76.271884,146.642452 C78.6485161,146.642452 80.2593446,146.087904 80.2593446,144.345041 C80.2593446,140.067103 69.8285702,142.338107 69.8285702,135.789165 C69.8285702,132.778764 72.1259813,131.167936 75.0307539,130.824644 L75.0307539,127.655802 L77.354572,127.655802 L77.354572,130.798237 C79.1238426,130.930273 80.8931132,131.405599 82.1342433,132.144996 L82.1342433,135.023361 C80.6290429,134.019894 78.5692951,133.465347 76.5887683,133.491754 C74.3441713,133.491754 72.891785,134.151929 72.891785,135.736351 C72.891785,139.723811 83.3225593,137.584843 83.3225593,144.186598 C83.3225593,147.751547 80.65545,149.177526 77.354572,149.362375 L77.354572,152.478404 Z M85.4879353,140.067103 C85.4879353,134.812105 87.9701955,130.745423 93.5420775,130.745423 C99.1139595,130.745423 101.59622,134.812105 101.59622,140.067103 C101.59622,145.3221 99.1139595,149.388782 93.5420775,149.388782 C87.9701955,149.388782 85.4879353,145.3221 85.4879353,140.067103 Z M98.559412,140.067103 C98.559412,135.894793 96.9749906,133.491754 93.5420775,133.491754 C90.0827574,133.491754 88.524743,135.894793 88.524743,140.067103 C88.524743,144.239413 90.0827574,146.642452 93.5420775,146.642452 C96.9749906,146.642452 98.559412,144.239413 98.559412,140.067103 Z M107.696242,147.593105 C107.696242,148.781421 106.877625,149.335968 105.926972,149.335968 C104.976319,149.335968 104.131294,148.781421 104.131294,147.593105 C104.131294,146.457602 104.976319,145.903055 105.926972,145.903055 C106.877625,145.903055 107.696242,146.457602 107.696242,147.593105 Z M110.231317,140.067103 C110.231317,134.812105 112.713577,130.745423 118.285459,130.745423 C123.857341,130.745423 126.339601,134.812105 126.339601,140.067103 C126.339601,145.3221 123.857341,149.388782 118.285459,149.388782 C112.713577,149.388782 110.231317,145.3221 110.231317,140.067103 Z M123.302793,140.067103 C123.302793,135.894793 121.718372,133.491754 118.285459,133.491754 C114.826139,133.491754 113.268124,135.894793 113.268124,140.067103 C113.268124,144.239413 114.826139,146.642452 118.285459,146.642452 C121.718372,146.642452 123.302793,144.239413 123.302793,140.067103 Z M137.800249,131.088715 L140.889871,131.088715 L140.889871,142.760619 L143.979493,142.760619 L143.979493,145.374915 L140.889871,145.374915 L140.889871,149.045491 L137.985098,149.045491 L137.985098,145.374915 L128.240907,145.374915 L128.240907,142.813433 L137.800249,131.088715 Z M137.985098,142.760619 L137.985098,134.917733 L131.594599,142.760619 L137.985098,142.760619 Z M146.012834,140.067103 C146.012834,134.812105 148.495094,130.745423 154.066976,130.745423 C159.638858,130.745423 162.121118,134.812105 162.121118,140.067103 C162.121118,145.3221 159.638858,149.388782 154.066976,149.388782 C148.495094,149.388782 146.012834,145.3221 146.012834,140.067103 Z M159.08431,140.067103 C159.08431,135.894793 157.499889,133.491754 154.066976,133.491754 C150.607656,133.491754 149.049641,135.894793 149.049641,140.067103 C149.049641,144.239413 150.607656,146.642452 154.066976,146.642452 C157.499889,146.642452 159.08431,144.239413 159.08431,140.067103 Z M164.656192,140.067103 C164.656192,134.812105 167.138453,130.745423 172.710335,130.745423 C178.282217,130.745423 180.764477,134.812105 180.764477,140.067103 C180.764477,145.3221 178.282217,149.388782 172.710335,149.388782 C167.138453,149.388782 164.656192,145.3221 164.656192,140.067103 Z M177.727669,140.067103 C177.727669,135.894793 176.143248,133.491754 172.710335,133.491754 C169.251015,133.491754 167.693,135.894793 167.693,140.067103 C167.693,144.239413 169.251015,146.642452 172.710335,146.642452 C176.143248,146.642452 177.727669,144.239413 177.727669,140.067103 Z M90.6637119,163.088715 L92.8819019,163.088715 L92.8819019,178.325567 L96.0771518,178.325567 L96.0771518,181.045491 L86.306553,181.045491 L86.306553,178.325567 L89.8979083,178.325567 L89.8979083,166.178336 L86.306553,167.525095 L86.306553,164.752357 L90.6637119,163.088715 Z M121.903221,162.560574 L124.623144,162.560574 L124.623144,181.045491 L121.612744,181.045491 L121.612744,168.106049 L115.776791,176.873181 L113.981114,176.873181 L108.145162,168.079642 L108.145162,181.045491 L105.134761,181.045491 L105.134761,162.560574 L107.854684,162.560574 L114.878953,173.149791 L121.903221,162.560574 Z M132.122739,181.045491 L129.112338,181.045491 L129.112338,162.560574 L131.93789,162.560574 L141.893338,176.08097 C141.866931,175.447202 141.866931,174.734212 141.866931,174.04763 L141.866931,162.560574 L144.877332,162.560574 L144.877332,181.045491 L142.05178,181.045491 L132.096332,167.525095 C132.122739,168.158863 132.122739,168.871853 132.122739,169.532028 L132.122739,181.045491 Z M152.376926,181.045491 L149.366526,181.045491 L149.366526,162.560574 L156.760492,162.560574 C160.219812,162.560574 163.863982,163.933739 163.863982,168.343712 C163.863982,171.64459 161.804234,173.229012 159.374788,173.809966 L165.289961,181.045491 L161.672199,181.045491 L156.126724,174.126851 L152.376926,174.126851 L152.376926,181.045491 Z M152.376926,165.306905 L152.376926,171.459741 L156.892527,171.459741 C158.873054,171.459741 160.800767,170.746752 160.800767,168.396526 C160.800767,166.019894 158.873054,165.306905 156.892527,165.306905 L152.376926,165.306905 Z" id="$0.0400-1-MNR" fill="#131F3C"></path>
            </g>
            <path d="M95.044206,115.636931 C97.0605623,114.208679 99.412978,113.53656 101.849409,113.53656 C105.658082,113.53656 109.046681,115.216857 109.046681,119.445604 C109.046681,122.666174 106.414215,124.57051 104.00579,126.026768 C101.961428,127.258985 100.365146,128.155144 100.365146,128.659233 L109.186705,128.659233 L109.186705,133 L94.4280971,133 L94.4280971,130.731599 C94.4280971,126.138787 97.9287158,124.346471 100.645196,122.750188 C102.409508,121.714005 103.865765,121.181911 103.865765,119.725654 C103.865765,118.577451 102.829582,118.017352 101.373325,118.017352 C99.468988,118.017352 97.1165722,118.773486 95.044206,120.397773 L95.044206,115.636931 Z M111.483111,123.478317 C111.483111,118.045357 114.087572,113.53656 120.30467,113.53656 C126.521769,113.53656 129.126229,118.045357 129.126229,123.478317 C129.126229,128.911277 126.521769,133.420074 120.30467,133.420074 C114.087572,133.420074 111.483111,128.911277 111.483111,123.478317 Z M123.945314,123.478317 C123.945314,119.809669 122.797111,118.017352 120.30467,118.017352 C117.81223,118.017352 116.664027,119.809669 116.664027,123.478317 C116.664027,127.146966 117.81223,128.939282 120.30467,128.939282 C122.797111,128.939282 123.945314,127.146966 123.945314,123.478317 Z M139.180006,134.680297 L136.099462,134.680297 L147.553486,111.716238 L150.634031,111.716238 L139.180006,134.680297 Z M141.644442,118.017352 C141.644442,121.377946 139.180006,123.058243 136.323502,123.058243 C133.438992,123.058243 130.974556,121.377946 130.974556,118.017352 C130.974556,114.656758 133.438992,112.976461 136.323502,112.976461 C139.180006,112.976461 141.644442,114.656758 141.644442,118.017352 Z M134.671209,118.017352 C134.671209,118.857501 135.119289,119.697649 136.323502,119.697649 C137.499709,119.697649 137.947789,118.857501 137.947789,118.017352 C137.947789,117.177204 137.499709,116.337055 136.323502,116.337055 C135.119289,116.337055 134.671209,117.177204 134.671209,118.017352 Z M155.646917,128.379183 C155.646917,131.739777 153.182481,133.420074 150.325976,133.420074 C147.441466,133.420074 144.977031,131.739777 144.977031,128.379183 C144.977031,125.018589 147.441466,123.338292 150.325976,123.338292 C153.182481,123.338292 155.646917,125.018589 155.646917,128.379183 Z M148.673684,128.379183 C148.673684,129.219332 149.121763,130.05948 150.325976,130.05948 C151.502184,130.05948 151.950263,129.219332 151.950263,128.379183 C151.950263,127.539035 151.502184,126.698886 150.325976,126.698886 C149.121763,126.698886 148.673684,127.539035 148.673684,128.379183 Z" id="20%" fill="#131F3C" fill-rule="nonzero"></path>
            <g id="diskon" transform="translate(1.000000, 139.000000)" fill="#000000">
                <path d="M85.9575,6.9 L89.1315,6.9 L89.1315,23 L86.3255,23 L86.3255,21.39 C85.6125,22.379 84.3475,23.322 82.3235,23.322 C78.8045,23.322 76.9185,20.493 76.9185,17.48 C76.9185,14.467 78.8045,11.638 82.3235,11.638 C84.0715,11.638 85.2445,12.351 85.9575,13.133 L85.9575,6.9 Z M85.9575,16.169 C85.5205,15.203 84.4855,14.329 83.0825,14.329 C81.2655,14.329 80.1845,15.755 80.1845,17.48 C80.1845,19.205 81.2655,20.631 83.0825,20.631 C84.4855,20.631 85.5205,19.757 85.9575,18.791 L85.9575,16.169 Z M91.2245,17.48 C91.2245,13.317 94.4215,11.638 96.9055,11.638 C101.4825,11.638 102.9545,15.249 102.2185,18.515 L94.4445,18.515 C94.8125,20.125 96.5145,20.792 98.3315,20.792 C99.5965,20.792 100.7235,20.539 101.6665,20.125 L101.6665,22.632 C100.6315,23.069 99.2745,23.322 97.6185,23.322 C94.1225,23.322 91.2245,21.321 91.2245,17.48 Z M99.3435,16.445 C99.4585,15.686 99.0215,14.076 97.0205,14.076 C95.6635,14.076 94.4675,14.927 94.4215,16.445 L99.3435,16.445 Z M112.3615,13.616 C113.1435,12.397 114.7535,11.523 116.8235,11.73 L116.8235,14.835 C115.0755,14.536 113.3965,15.203 112.7295,16.514 L112.7295,23 L109.5325,23 L109.5325,11.96 L112.3615,11.96 L112.3615,13.616 Z M128.2545,20.148 C128.2545,20.723 128.6225,20.884 129.0365,20.884 C129.2205,20.884 129.4275,20.861 129.6345,20.792 L129.6345,22.885 C129.1285,23.069 128.4845,23.207 127.8635,23.207 C126.7365,23.207 125.8855,22.793 125.4255,21.965 C124.3445,22.816 123.0795,23.322 121.4465,23.322 C119.3765,23.322 117.5825,22.126 117.5825,19.941 C117.5825,17.135 120.2275,16.261 122.4355,16.261 C123.3095,16.261 124.2755,16.376 125.0575,16.56 L125.0575,16.169 C125.0575,15.065 124.1835,14.306 122.4585,14.306 C120.9405,14.306 119.5835,14.72 118.5485,15.134 L118.5485,12.374 C119.4455,12.075 121.1245,11.638 122.8265,11.638 C126.1385,11.638 128.2545,12.995 128.2545,16.629 L128.2545,20.148 Z M123.1715,18.17 C121.9985,18.17 120.8485,18.561 120.8485,19.688 C120.8485,20.516 121.6075,21.045 122.5735,21.045 C123.4705,21.045 124.3215,20.792 125.0575,20.148 L125.0575,18.423 C124.5745,18.308 123.8385,18.17 123.1715,18.17 Z M131.1525,6.9 L134.3495,6.9 L134.3495,13.133 C135.0395,12.351 136.2355,11.638 137.9835,11.638 C141.4795,11.638 143.3655,14.467 143.3655,17.48 C143.3655,20.493 141.4795,23.322 137.9835,23.322 C135.9365,23.322 134.6715,22.379 133.9815,21.39 L133.9815,23 L131.1525,23 L131.1525,6.9 Z M140.0995,17.48 C140.0995,15.755 139.0185,14.329 137.2015,14.329 C135.7985,14.329 134.7635,15.203 134.3265,16.169 L134.3265,18.791 C134.7635,19.757 135.7985,20.631 137.2015,20.631 C139.0185,20.631 140.0995,19.205 140.0995,17.48 Z M155.3255,20.148 C155.3255,20.723 155.6935,20.884 156.1075,20.884 C156.2915,20.884 156.4985,20.861 156.7055,20.792 L156.7055,22.885 C156.1995,23.069 155.5555,23.207 154.9345,23.207 C153.8075,23.207 152.9565,22.793 152.4965,21.965 C151.4155,22.816 150.1505,23.322 148.5175,23.322 C146.4475,23.322 144.6535,22.126 144.6535,19.941 C144.6535,17.135 147.2985,16.261 149.5065,16.261 C150.3805,16.261 151.3465,16.376 152.1285,16.56 L152.1285,16.169 C152.1285,15.065 151.2545,14.306 149.5295,14.306 C148.0115,14.306 146.6545,14.72 145.6195,15.134 L145.6195,12.374 C146.5165,12.075 148.1955,11.638 149.8975,11.638 C153.2095,11.638 155.3255,12.995 155.3255,16.629 L155.3255,20.148 Z M150.2425,18.17 C149.0695,18.17 147.9195,18.561 147.9195,19.688 C147.9195,20.516 148.6785,21.045 149.6445,21.045 C150.5415,21.045 151.3925,20.792 152.1285,20.148 L152.1285,18.423 C151.6455,18.308 150.9095,18.17 150.2425,18.17 Z M161.4435,23 L158.2465,23 L158.2465,11.96 L161.4435,11.96 L161.4435,23 Z M161.7195,8.303 C161.7195,9.568 160.8455,10.12 159.8335,10.12 C158.8445,10.12 157.9705,9.568 157.9705,8.303 C157.9705,7.061 158.8445,6.509 159.8335,6.509 C160.8455,6.509 161.7195,7.061 161.7195,8.303 Z M163.7205,15.042 C163.7205,12.489 165.9975,11.638 168.3205,11.638 C169.8845,11.638 171.2645,12.029 172.3915,12.581 L172.3915,15.203 C171.4485,14.559 169.8385,14.076 168.5275,14.076 C167.8145,14.076 166.9865,14.283 166.9865,14.95 C166.9865,16.79 173.2195,15.87 173.2195,19.918 C173.2195,22.517 170.8505,23.322 168.2055,23.322 C166.5265,23.322 164.9395,22.954 163.8125,22.287 L163.8125,19.642 C165.0085,20.424 166.6875,20.815 168.0215,20.815 C169.1945,20.815 169.9535,20.608 169.9535,19.987 C169.9535,18.216 163.7205,18.998 163.7205,15.042 Z" id="de-rabais"></path>
            </g>
            <g id="15-Agustus" fill="#000000">
                <path d="M89.0375,8 L91.7625,8 L91.7625,21.775 L94.6125,21.775 L94.6125,25 L84.9125,25 L84.9125,21.775 L88.1125,21.775 L88.1125,11.75 L84.9125,12.95 L84.9125,9.575 L89.0375,8 Z M97.3875,7.975 L108.1875,7.975 L108.1875,11.2 L100.7625,11.175 L100.5375,14.5 C101.2625,14.35 102.0375,14.25 102.7375,14.25 C106.1375,14.25 108.9625,15.775 108.9625,19.675 C108.9625,23.625 105.5125,25.35 101.7625,25.35 C99.7875,25.35 97.7875,24.925 96.2875,24.2 L96.2875,20.725 C97.6625,21.6 99.6375,22.075 101.3375,22.075 C103.5625,22.075 105.2125,21.275 105.2125,19.625 C105.2125,17.95 103.7875,17.125 101.0625,17.125 C99.8375,17.125 98.2625,17.325 96.7875,17.85 L97.3875,7.975 Z M127.6375,21.9 C127.6375,22.525 128.0375,22.7 128.4875,22.7 C128.6875,22.7 128.9125,22.675 129.1375,22.6 L129.1375,24.875 C128.5875,25.075 127.8875,25.225 127.2125,25.225 C125.9875,25.225 125.0625,24.775 124.5625,23.875 C123.3875,24.8 122.0125,25.35 120.2375,25.35 C117.9875,25.35 116.0375,24.05 116.0375,21.675 C116.0375,18.625 118.9125,17.675 121.3125,17.675 C122.2625,17.675 123.3125,17.8 124.1625,18 L124.1625,17.575 C124.1625,16.375 123.2125,15.55 121.3375,15.55 C119.6875,15.55 118.2125,16 117.0875,16.45 L117.0875,13.45 C118.0625,13.125 119.8875,12.65 121.7375,12.65 C125.3375,12.65 127.6375,14.125 127.6375,18.075 L127.6375,21.9 Z M122.1125,19.75 C120.8375,19.75 119.5875,20.175 119.5875,21.4 C119.5875,22.3 120.4125,22.875 121.4625,22.875 C122.4375,22.875 123.3625,22.6 124.1625,21.9 L124.1625,20.025 C123.6375,19.9 122.8375,19.75 122.1125,19.75 Z M130.1125,19 C130.1125,14.8 133.2625,12.65 136.7375,12.65 C140.2375,12.65 143.3625,14.8 143.3625,19 C143.3625,23.2 140.2375,25.35 136.7375,25.35 C133.2625,25.35 130.1125,23.2 130.1125,19 Z M139.8375,19 C139.8375,17.15 138.7375,15.75 136.7375,15.75 C134.7625,15.75 133.6625,17.15 133.6625,19 C133.6625,20.85 134.7625,22.25 136.7375,22.25 C138.7375,22.25 139.8375,20.85 139.8375,19 Z M153.9625,13 L157.4375,13 L157.4375,25 L154.3625,25 L154.3625,23.475 C153.4375,24.55 152.0625,25.35 150.3625,25.35 C147.1125,25.35 145.4875,23.2 145.4875,20.425 L145.4875,13 L148.9625,13 L148.9625,19.975 C148.9625,21.575 149.8375,22.35 151.2625,22.35 C152.5125,22.35 153.4375,21.55 153.9625,20.825 L153.9625,13 Z M149.9875,7.7 L153.0625,7.7 L156.1625,11.575 L152.8625,11.575 L151.5375,9.95 L150.2125,11.575 L146.8875,11.575 L149.9875,7.7 Z M161.2875,9.5 L164.7375,8.675 L164.7375,13 L168.5375,13 L168.5375,15.925 L164.7375,15.925 L164.7375,20.625 C164.7375,21.875 165.3625,22.425 166.6625,22.425 C167.4625,22.425 168.1375,22.3 168.8375,22.025 L168.8375,24.825 C167.9125,25.15 166.8125,25.35 165.6125,25.35 C163.2875,25.35 161.2875,24.275 161.2875,21.3 L161.2875,15.925 L159.2625,15.925 L159.2625,13 L161.2875,13 L161.2875,9.5 Z" id="15-août"></path>
            </g>
        </g>
    </g>
</svg>