<?xml version="1.0" encoding="UTF-8"?>
<svg width="250px" height="323px" viewBox="0 0 250 323" version="1.1" xmlns="http://www.w3.org/2000/svg" xmlns:xlink="http://www.w3.org/1999/xlink">
    <!-- Generator: Sketch 48.2 (47327) - http://www.bohemiancoding.com/sketch -->
    <title>text_4</title>
    <desc>Created with Sketch.</desc>
    <defs>
        <radialGradient cx="400%" cy="400%" fx="400%" fy="400%" r="100.47898%" gradientTransform="translate(4.000000,4.000000),scale(1.000000,0.999999),translate(-4.000000,-4.000000)" id="radialGradient-1">
            <stop stop-color="#8D00FF" offset="0%"></stop>
            <stop stop-color="#5C00FE" offset="69.8959662%"></stop>
            <stop stop-color="#8900FF" offset="100%"></stop>
        </radialGradient>
        <radialGradient cx="50%" cy="50%" fx="50%" fy="50%" r="50.0253367%" id="radialGradient-2">
            <stop stop-color="#FF9495" offset="0%"></stop>
            <stop stop-color="#FE5F60" offset="70.3742825%"></stop>
            <stop stop-color="#FF9091" offset="100%"></stop>
        </radialGradient>
    </defs>
    <g id="Page-1" stroke="none" stroke-width="1" fill="none" fill-rule="evenodd">
        <g id="text_4" transform="translate(0.000000, -7.000000)">
            <g id="4-copy" transform="translate(0.000000, 79.000000)" fill-rule="nonzero">
                <g id="Group-Copy-3" transform="translate(0.545890, 0.588188)">
                    <g id="Group-3" transform="translate(0.000000, 0.762969)">
                        <g id="Group-8">
                            <path d="M0,125.013369 C2.91814549e-05,116.804853 0.800756631,108.675226 2.40218235,100.624437 C4.00360807,92.5736583 6.37495729,84.7564426 9.51623002,77.1727836 C12.6575028,69.5891246 16.5083459,62.384737 21.0687478,55.5596266 C25.6291439,48.7345168 30.8114843,42.4198151 36.6157632,36.6155391 C42.420048,30.811259 48.7347397,25.6289238 55.5598326,21.068533 C62.3849314,16.5081428 69.589319,12.6573224 77.1729546,9.51607244 C84.7565844,6.37482306 92.5737943,4.0035001 100.624537,2.40210473 C108.675281,0.800704688 116.804785,0 125.013248,0 L125.013248,56.256007 C120.498614,56.2560362 116.027356,56.6964369 111.599467,57.5772266 C107.171572,58.4580046 102.872157,59.7622464 98.7011703,61.4899402 C94.5301832,63.2176458 90.5678202,65.3356124 86.8140346,67.8438344 C83.0602548,70.3520563 79.5872123,73.2023432 76.3948837,76.3946952 C73.2025551,79.5870471 70.3522856,83.0601305 67.8440987,86.8139278 C65.335906,90.5677368 63.2179685,94.5301406 61.4902922,98.7011394 C59.7626275,102.872138 58.4584032,107.171594 57.5776369,111.599518 C56.6968997,116.027406 56.2565282,120.498706 56.2565107,125.013369 L0,125.013369 Z" id="Fill-8" fill="url(#radialGradient-1)"></path>
                            <path d="M124.740231,0 C132.917139,3.54646161e-05 140.809466,0.797690493 148.829249,2.3929616 C156.849031,3.98823619 164.636136,6.35047671 172.190582,9.47968199 C179.745051,12.6088826 186.921705,16.4449279 193.720557,20.9878092 C200.519385,25.5306945 206.80975,30.693127 212.591686,36.4751065 C218.373622,42.2570854 223.535985,48.5475211 228.078816,55.3464036 C232.621648,62.1452961 236.457622,69.3219914 239.586764,76.8764895 C242.715941,84.431005 245.078181,92.2181743 246.673414,100.237997 C248.268642,108.257814 249.066241,116.3562 249.066241,124.533125 C249.066206,132.710109 248.268572,140.808524 246.673269,148.828376 C245.078041,156.848228 242.715802,164.635409 239.586549,172.189947 C236.457372,179.74448 232.621334,186.921193 228.078462,193.720074 C223.535595,200.518961 218.373157,206.809395 212.591151,212.591383 C206.80918,218.373372 200.518781,223.535793 193.719865,228.078677 C186.920978,232.621543 179.744289,236.45757 172.189785,239.586729 C164.635281,242.715924 156.848106,245.078129 148.828289,246.673379 C140.808455,248.268624 132.710069,249.066241 124.533126,249.066241 C116.356143,249.066206 108.257746,248.268555 100.237911,246.673269 C92.2180591,245.078007 84.4308608,242.715767 76.8763221,239.586549 C69.3217834,236.457355 62.1450765,232.621316 55.3461899,228.078444 C48.5472975,223.53556 42.256863,218.373139 36.4748864,212.591151 C30.6929041,206.809186 25.5304769,200.518746 20.9876108,193.719865 C16.4447331,186.920978 12.6087116,179.744289 9.4795232,172.189767 C6.3503348,164.635263 3.98812395,156.848106 2.39288484,148.828289 C0.797622465,140.808454 5.00693342e-16,132.710068 0,124.533125 C0,124.533122 18.6801356,124.533128 56.0404068,124.533143 C56.0404243,129.030463 56.479139,133.484604 57.3565452,137.895518 C58.2339282,142.306439 59.5331599,146.589378 61.2542228,150.744372 C62.9753032,154.899372 65.0851164,158.846554 67.5837091,162.585949 C70.0823017,166.32535 72.9216395,169.785103 76.1017226,172.965187 C79.2818172,176.14527 82.7415591,178.984607 86.4809366,181.4832 C90.2203198,183.981752 94.1674967,186.091571 98.3224788,187.812634 C102.477461,189.533691 106.7604,190.832923 111.171297,191.710312 C115.5822,192.587677 120.0363,193.026363 124.533621,193.026363 C129.030947,193.026345 133.485081,192.587642 137.896019,191.710259 C142.306916,190.832853 146.589873,189.533621 150.744873,187.812541 C154.899872,186.091484 158.847049,183.981665 162.58645,181.483072 C166.325827,178.98448 169.785569,176.145147 172.965664,172.965064 C176.145764,169.784981 178.985102,166.325239 181.483695,162.585845 C183.98227,158.846444 186.092083,154.899267 187.813129,150.744285 C189.534168,146.589303 190.8334,142.306363 191.710789,137.895466 C192.588172,133.484552 193.026857,129.030446 193.02684,124.533143 C193.026823,120.035823 192.588119,115.581682 191.710736,111.170767 C190.83333,106.759847 189.534099,102.47689 187.813018,98.3218963 C186.091979,94.1669026 183.982159,90.2197141 181.483567,86.480325 C178.98498,82.7409359 176.145625,79.2811998 172.965542,76.1011109 C169.785459,72.9210162 166.325723,70.08169 162.586322,67.583109 C158.846927,65.0845221 154.899744,62.9747088 150.744762,61.2536575 C146.589786,59.5326062 142.306846,58.2333804 137.895961,57.3559916 C133.485047,56.4786086 129.030947,56.0399171 124.533621,56.0399171 L124.740231,0 Z" id="Fill-8" fill="url(#radialGradient-2)"></path>
                        </g>
                    </g>
                    <circle id="Oval" fill="#FFFFFF" cx="124.90822" cy="125.671189" r="87.3982442"></circle>
                    <path d="M80.636845,151.728204 L78.3130269,151.728204 L78.3130269,148.585769 C76.3589072,148.374512 74.5104155,147.846372 73.0316222,147.027754 L73.0316222,144.070168 C75.064963,145.364112 77.4415951,145.892252 79.554157,145.892252 C81.9307892,145.892252 83.5416176,145.337705 83.5416176,143.594841 C83.5416176,139.316903 73.1108433,141.587907 73.1108433,135.038965 C73.1108433,132.028565 75.4082543,130.417736 78.3130269,130.074445 L78.3130269,126.905602 L80.636845,126.905602 L80.636845,130.048038 C82.4061156,130.180073 84.1753862,130.655399 85.4165163,131.394796 L85.4165163,134.273162 C83.911316,133.269695 81.8515681,132.715147 79.8710413,132.741554 C77.6264443,132.741554 76.174058,133.40173 76.174058,134.986151 C76.174058,138.973612 86.6048324,136.834643 86.6048324,143.436399 C86.6048324,147.001347 83.937723,148.427326 80.636845,148.612176 L80.636845,151.728204 Z M88.7702083,139.316903 C88.7702083,134.061906 91.2524685,129.995224 96.8243505,129.995224 C102.396233,129.995224 104.878493,134.061906 104.878493,139.316903 C104.878493,144.571901 102.396233,148.638583 96.8243505,148.638583 C91.2524685,148.638583 88.7702083,144.571901 88.7702083,139.316903 Z M101.841685,139.316903 C101.841685,135.144593 100.257264,132.741554 96.8243505,132.741554 C93.3650304,132.741554 91.807016,135.144593 91.807016,139.316903 C91.807016,143.489213 93.3650304,145.892252 96.8243505,145.892252 C100.257264,145.892252 101.841685,143.489213 101.841685,139.316903 Z M110.978515,146.842905 C110.978515,148.031221 110.159898,148.585769 109.209245,148.585769 C108.258592,148.585769 107.413567,148.031221 107.413567,146.842905 C107.413567,145.707403 108.258592,145.152855 109.209245,145.152855 C110.159898,145.152855 110.978515,145.707403 110.978515,146.842905 Z M113.51359,139.316903 C113.51359,134.061906 115.99585,129.995224 121.567732,129.995224 C127.139614,129.995224 129.621874,134.061906 129.621874,139.316903 C129.621874,144.571901 127.139614,148.638583 121.567732,148.638583 C115.99585,148.638583 113.51359,144.571901 113.51359,139.316903 Z M126.585066,139.316903 C126.585066,135.144593 125.000645,132.741554 121.567732,132.741554 C118.108412,132.741554 116.550397,135.144593 116.550397,139.316903 C116.550397,143.489213 118.108412,145.892252 121.567732,145.892252 C125.000645,145.892252 126.585066,143.489213 126.585066,139.316903 Z M141.082522,130.338515 L144.172144,130.338515 L144.172144,142.01042 L147.261766,142.01042 L147.261766,144.624715 L144.172144,144.624715 L144.172144,148.295291 L141.267371,148.295291 L141.267371,144.624715 L131.52318,144.624715 L131.52318,142.063234 L141.082522,130.338515 Z M141.267371,142.01042 L141.267371,134.167534 L134.876872,142.01042 L141.267371,142.01042 Z M148.714152,130.338515 L162.049699,130.338515 L162.049699,132.715147 L154.602918,148.295291 L151.354855,148.295291 L158.643193,133.032032 L148.714152,133.032032 L148.714152,130.338515 Z M165.007286,130.338515 L176.071829,130.338515 L176.071829,133.032032 L167.780023,133.032032 L167.515953,137.362783 C168.387385,137.151527 169.311631,137.045899 170.235876,137.045899 C173.695197,137.045899 176.916853,138.5511 176.916853,142.776223 C176.916853,146.658056 173.615976,148.638583 169.654922,148.638583 C167.568767,148.638583 165.482612,148.189663 163.898191,147.42386 L163.898191,144.598308 C165.403391,145.46974 167.436732,145.918659 169.311631,145.918659 C171.97874,145.918659 173.880046,144.862378 173.880046,142.749816 C173.880046,140.373184 171.846705,139.528159 168.994746,139.528159 C167.54236,139.528159 165.878718,139.818637 164.426331,140.32037 L165.007286,130.338515 Z M90.2886122,162.338515 L92.5068022,162.338515 L92.5068022,177.575368 L95.702052,177.575368 L95.702052,180.295291 L85.9314533,180.295291 L85.9314533,177.575368 L89.5228085,177.575368 L89.5228085,165.428137 L85.9314533,166.774895 L85.9314533,164.002158 L90.2886122,162.338515 Z M121.528121,161.810375 L124.248045,161.810375 L124.248045,180.295291 L121.237644,180.295291 L121.237644,167.35585 L115.401692,176.122982 L113.606014,176.122982 L107.770062,167.329443 L107.770062,180.295291 L104.759661,180.295291 L104.759661,161.810375 L107.479585,161.810375 L114.503853,172.399591 L121.528121,161.810375 Z M131.747639,180.295291 L128.737239,180.295291 L128.737239,161.810375 L131.56279,161.810375 L141.518238,175.330771 C141.491831,174.697002 141.491831,173.984013 141.491831,173.29743 L141.491831,161.810375 L144.502232,161.810375 L144.502232,180.295291 L141.67668,180.295291 L131.721232,166.774895 C131.747639,167.408664 131.747639,168.121653 131.747639,168.781829 L131.747639,180.295291 Z M152.001827,180.295291 L148.991426,180.295291 L148.991426,161.810375 L156.385393,161.810375 C159.844713,161.810375 163.488882,163.18354 163.488882,167.593513 C163.488882,170.894391 161.429134,172.478812 158.999688,173.059767 L164.914861,180.295291 L161.297099,180.295291 L155.751624,173.376651 L152.001827,173.376651 L152.001827,180.295291 Z M152.001827,164.556705 L152.001827,170.709542 L156.517428,170.709542 C158.497954,170.709542 160.425667,169.996552 160.425667,167.646327 C160.425667,165.269695 158.497954,164.556705 156.517428,164.556705 L152.001827,164.556705 Z" id="$0.0475-1-MNR" fill="#131F3C"></path>
                </g>
            </g>
            <path d="M106.882121,146.928629 L119.344324,146.928629 L119.344324,151.269397 L111.530943,151.241392 L111.334908,154.041887 C112.035032,153.929867 112.735156,153.873857 113.37927,153.873857 C117.271958,153.873857 120.184472,155.638169 120.184472,159.922926 C120.184472,164.627757 116.011735,166.420074 111.754983,166.420074 C109.542592,166.420074 107.330201,165.94399 105.621899,165.131847 L105.621899,160.371005 C107.106161,161.407188 109.346557,161.939282 111.194884,161.939282 C113.351265,161.939282 115.003557,161.295168 115.003557,159.810906 C115.003557,158.606693 114.023384,157.68253 110.914834,157.654525 C109.710621,157.654525 107.974314,157.822555 106.210003,158.438664 L106.882121,146.928629 Z M130.126229,167.680297 L127.045685,167.680297 L138.499709,144.716238 L141.580254,144.716238 L130.126229,167.680297 Z M132.590665,151.017352 C132.590665,154.377946 130.126229,156.058243 127.269725,156.058243 C124.385215,156.058243 121.920779,154.377946 121.920779,151.017352 C121.920779,147.656758 124.385215,145.976461 127.269725,145.976461 C130.126229,145.976461 132.590665,147.656758 132.590665,151.017352 Z M125.617433,151.017352 C125.617433,151.857501 126.065512,152.697649 127.269725,152.697649 C128.445933,152.697649 128.894012,151.857501 128.894012,151.017352 C128.894012,150.177204 128.445933,149.337055 127.269725,149.337055 C126.065512,149.337055 125.617433,150.177204 125.617433,151.017352 Z M146.59314,161.379183 C146.59314,164.739777 144.128704,166.420074 141.272199,166.420074 C138.38769,166.420074 135.923254,164.739777 135.923254,161.379183 C135.923254,158.018589 138.38769,156.338292 141.272199,156.338292 C144.128704,156.338292 146.59314,158.018589 146.59314,161.379183 Z M139.619907,161.379183 C139.619907,162.219332 140.067987,163.05948 141.272199,163.05948 C142.448407,163.05948 142.896486,162.219332 142.896486,161.379183 C142.896486,160.539035 142.448407,159.698886 141.272199,159.698886 C140.067987,159.698886 139.619907,160.539035 139.619907,161.379183 Z" id="5%" fill="#131F3C" fill-rule="nonzero"></path>
            <g id="diskon" transform="translate(0.000000, 172.000000)" fill="#000000">
                <path d="M85.9575,6.9 L89.1315,6.9 L89.1315,23 L86.3255,23 L86.3255,21.39 C85.6125,22.379 84.3475,23.322 82.3235,23.322 C78.8045,23.322 76.9185,20.493 76.9185,17.48 C76.9185,14.467 78.8045,11.638 82.3235,11.638 C84.0715,11.638 85.2445,12.351 85.9575,13.133 L85.9575,6.9 Z M85.9575,16.169 C85.5205,15.203 84.4855,14.329 83.0825,14.329 C81.2655,14.329 80.1845,15.755 80.1845,17.48 C80.1845,19.205 81.2655,20.631 83.0825,20.631 C84.4855,20.631 85.5205,19.757 85.9575,18.791 L85.9575,16.169 Z M91.2245,17.48 C91.2245,13.317 94.4215,11.638 96.9055,11.638 C101.4825,11.638 102.9545,15.249 102.2185,18.515 L94.4445,18.515 C94.8125,20.125 96.5145,20.792 98.3315,20.792 C99.5965,20.792 100.7235,20.539 101.6665,20.125 L101.6665,22.632 C100.6315,23.069 99.2745,23.322 97.6185,23.322 C94.1225,23.322 91.2245,21.321 91.2245,17.48 Z M99.3435,16.445 C99.4585,15.686 99.0215,14.076 97.0205,14.076 C95.6635,14.076 94.4675,14.927 94.4215,16.445 L99.3435,16.445 Z M112.3615,13.616 C113.1435,12.397 114.7535,11.523 116.8235,11.73 L116.8235,14.835 C115.0755,14.536 113.3965,15.203 112.7295,16.514 L112.7295,23 L109.5325,23 L109.5325,11.96 L112.3615,11.96 L112.3615,13.616 Z M128.2545,20.148 C128.2545,20.723 128.6225,20.884 129.0365,20.884 C129.2205,20.884 129.4275,20.861 129.6345,20.792 L129.6345,22.885 C129.1285,23.069 128.4845,23.207 127.8635,23.207 C126.7365,23.207 125.8855,22.793 125.4255,21.965 C124.3445,22.816 123.0795,23.322 121.4465,23.322 C119.3765,23.322 117.5825,22.126 117.5825,19.941 C117.5825,17.135 120.2275,16.261 122.4355,16.261 C123.3095,16.261 124.2755,16.376 125.0575,16.56 L125.0575,16.169 C125.0575,15.065 124.1835,14.306 122.4585,14.306 C120.9405,14.306 119.5835,14.72 118.5485,15.134 L118.5485,12.374 C119.4455,12.075 121.1245,11.638 122.8265,11.638 C126.1385,11.638 128.2545,12.995 128.2545,16.629 L128.2545,20.148 Z M123.1715,18.17 C121.9985,18.17 120.8485,18.561 120.8485,19.688 C120.8485,20.516 121.6075,21.045 122.5735,21.045 C123.4705,21.045 124.3215,20.792 125.0575,20.148 L125.0575,18.423 C124.5745,18.308 123.8385,18.17 123.1715,18.17 Z M131.1525,6.9 L134.3495,6.9 L134.3495,13.133 C135.0395,12.351 136.2355,11.638 137.9835,11.638 C141.4795,11.638 143.3655,14.467 143.3655,17.48 C143.3655,20.493 141.4795,23.322 137.9835,23.322 C135.9365,23.322 134.6715,22.379 133.9815,21.39 L133.9815,23 L131.1525,23 L131.1525,6.9 Z M140.0995,17.48 C140.0995,15.755 139.0185,14.329 137.2015,14.329 C135.7985,14.329 134.7635,15.203 134.3265,16.169 L134.3265,18.791 C134.7635,19.757 135.7985,20.631 137.2015,20.631 C139.0185,20.631 140.0995,19.205 140.0995,17.48 Z M155.3255,20.148 C155.3255,20.723 155.6935,20.884 156.1075,20.884 C156.2915,20.884 156.4985,20.861 156.7055,20.792 L156.7055,22.885 C156.1995,23.069 155.5555,23.207 154.9345,23.207 C153.8075,23.207 152.9565,22.793 152.4965,21.965 C151.4155,22.816 150.1505,23.322 148.5175,23.322 C146.4475,23.322 144.6535,22.126 144.6535,19.941 C144.6535,17.135 147.2985,16.261 149.5065,16.261 C150.3805,16.261 151.3465,16.376 152.1285,16.56 L152.1285,16.169 C152.1285,15.065 151.2545,14.306 149.5295,14.306 C148.0115,14.306 146.6545,14.72 145.6195,15.134 L145.6195,12.374 C146.5165,12.075 148.1955,11.638 149.8975,11.638 C153.2095,11.638 155.3255,12.995 155.3255,16.629 L155.3255,20.148 Z M150.2425,18.17 C149.0695,18.17 147.9195,18.561 147.9195,19.688 C147.9195,20.516 148.6785,21.045 149.6445,21.045 C150.5415,21.045 151.3925,20.792 152.1285,20.148 L152.1285,18.423 C151.6455,18.308 150.9095,18.17 150.2425,18.17 Z M161.4435,23 L158.2465,23 L158.2465,11.96 L161.4435,11.96 L161.4435,23 Z M161.7195,8.303 C161.7195,9.568 160.8455,10.12 159.8335,10.12 C158.8445,10.12 157.9705,9.568 157.9705,8.303 C157.9705,7.061 158.8445,6.509 159.8335,6.509 C160.8455,6.509 161.7195,7.061 161.7195,8.303 Z M163.7205,15.042 C163.7205,12.489 165.9975,11.638 168.3205,11.638 C169.8845,11.638 171.2645,12.029 172.3915,12.581 L172.3915,15.203 C171.4485,14.559 169.8385,14.076 168.5275,14.076 C167.8145,14.076 166.9865,14.283 166.9865,14.95 C166.9865,16.79 173.2195,15.87 173.2195,19.918 C173.2195,22.517 170.8505,23.322 168.2055,23.322 C166.5265,23.322 164.9395,22.954 163.8125,22.287 L163.8125,19.642 C165.0085,20.424 166.6875,20.815 168.0215,20.815 C169.1945,20.815 169.9535,20.608 169.9535,19.987 C169.9535,18.216 163.7205,18.998 163.7205,15.042 Z" id="de-rabais"></path>
            </g>
            <g id="Aug.-29-—-Sept.-10" transform="translate(50.000000, 0.000000)" fill="#000000">
                <path d="M1.675,9.45 C3.425,8.2 5.45,7.65 7.525,7.65 C10.95,7.65 13.725,9.2 13.725,12.675 C13.725,15.55 11.35,17.25 9.125,18.575 C7.1,19.775 5.375,20.7 5.35,21.8 L13.85,21.775 L13.85,25 L1.1,25 L1.1,23.325 C1.1,19.225 4.2,17.625 6.7,16.15 C8.475,15.125 10,14.45 10,12.825 C10,11.575 8.9,10.925 7.175,10.925 C5.475,10.925 3.475,11.575 1.675,12.95 L1.675,9.45 Z M15.775,13.5 C15.775,9.625 18.8,7.65 22.275,7.65 C27.75,7.65 29.975,11 29.975,16.5 C29.975,22.725 26.225,25.35 21.9,25.35 C20.325,25.35 18.675,24.975 17.225,24.3 L17.225,21 C18.4,21.775 19.95,22.2 21.4,22.2 C23.7,22.2 25.8,21.225 26.25,17.85 C24.75,18.65 23.375,19 21.725,19 C18.65,19 15.775,17.15 15.775,13.5 Z M22.575,10.7 C20.925,10.7 19.525,11.45 19.525,13.325 C19.525,15.275 21.1,15.875 22.85,15.875 C23.975,15.875 25.15,15.525 26.25,14.85 C25.9,11.65 24.525,10.7 22.575,10.7 Z M48.8,21.9 C48.8,22.525 49.2,22.7 49.65,22.7 C49.85,22.7 50.075,22.675 50.3,22.6 L50.3,24.875 C49.75,25.075 49.05,25.225 48.375,25.225 C47.15,25.225 46.225,24.775 45.725,23.875 C44.55,24.8 43.175,25.35 41.4,25.35 C39.15,25.35 37.2,24.05 37.2,21.675 C37.2,18.625 40.075,17.675 42.475,17.675 C43.425,17.675 44.475,17.8 45.325,18 L45.325,17.575 C45.325,16.375 44.375,15.55 42.5,15.55 C40.85,15.55 39.375,16 38.25,16.45 L38.25,13.45 C39.225,13.125 41.05,12.65 42.9,12.65 C46.5,12.65 48.8,14.125 48.8,18.075 L48.8,21.9 Z M43.275,19.75 C42,19.75 40.75,20.175 40.75,21.4 C40.75,22.3 41.575,22.875 42.625,22.875 C43.6,22.875 44.525,22.6 45.325,21.9 L45.325,20.025 C44.8,19.9 44,19.75 43.275,19.75 Z M51.275,19 C51.275,14.8 54.425,12.65 57.9,12.65 C61.4,12.65 64.525,14.8 64.525,19 C64.525,23.2 61.4,25.35 57.9,25.35 C54.425,25.35 51.275,23.2 51.275,19 Z M61,19 C61,17.15 59.9,15.75 57.9,15.75 C55.925,15.75 54.825,17.15 54.825,19 C54.825,20.85 55.925,22.25 57.9,22.25 C59.9,22.25 61,20.85 61,19 Z M75.125,13 L78.6,13 L78.6,25 L75.525,25 L75.525,23.475 C74.6,24.55 73.225,25.35 71.525,25.35 C68.275,25.35 66.65,23.2 66.65,20.425 L66.65,13 L70.125,13 L70.125,19.975 C70.125,21.575 71,22.35 72.425,22.35 C73.675,22.35 74.6,21.55 75.125,20.825 L75.125,13 Z M71.15,7.7 L74.225,7.7 L77.325,11.575 L74.025,11.575 L72.7,9.95 L71.375,11.575 L68.05,11.575 L71.15,7.7 Z M82.45,9.5 L85.9,8.675 L85.9,13 L89.7,13 L89.7,15.925 L85.9,15.925 L85.9,20.625 C85.9,21.875 86.525,22.425 87.825,22.425 C88.625,22.425 89.3,22.3 90,22.025 L90,24.825 C89.075,25.15 87.975,25.35 86.775,25.35 C84.45,25.35 82.45,24.275 82.45,21.3 L82.45,15.925 L80.425,15.925 L80.425,13 L82.45,13 L82.45,9.5 Z M114.05,20.375 L97.45,20.375 L97.45,17.45 L114.05,17.45 L114.05,20.375 Z M5.5,39 L8.225,39 L8.225,52.775 L11.075,52.775 L11.075,56 L1.375,56 L1.375,52.775 L4.575,52.775 L4.575,42.75 L1.375,43.95 L1.375,40.575 L5.5,39 Z M12.7,47.5 C12.7,42.6 15.025,38.65 20.45,38.65 C25.875,38.65 28.2,42.6 28.2,47.5 C28.2,52.4 25.875,56.35 20.45,56.35 C15.025,56.35 12.7,52.4 12.7,47.5 Z M24.45,47.5 C24.45,43.875 23.2,41.95 20.45,41.95 C17.7,41.95 16.45,43.875 16.45,47.5 C16.45,51.125 17.7,53.05 20.45,53.05 C23.2,53.05 24.45,51.125 24.45,47.5 Z M35.775,47.35 C35.775,44.575 38.25,43.65 40.775,43.65 C42.475,43.65 43.975,44.075 45.2,44.675 L45.2,47.525 C44.175,46.825 42.425,46.3 41,46.3 C40.225,46.3 39.325,46.525 39.325,47.25 C39.325,49.25 46.1,48.25 46.1,52.65 C46.1,55.475 43.525,56.35 40.65,56.35 C38.825,56.35 37.1,55.95 35.875,55.225 L35.875,52.35 C37.175,53.2 39,53.625 40.45,53.625 C41.725,53.625 42.55,53.4 42.55,52.725 C42.55,50.8 35.775,51.65 35.775,47.35 Z M47.55,50 C47.55,45.475 51.025,43.65 53.725,43.65 C58.7,43.65 60.3,47.575 59.5,51.125 L51.05,51.125 C51.45,52.875 53.3,53.6 55.275,53.6 C56.65,53.6 57.875,53.325 58.9,52.875 L58.9,55.6 C57.775,56.075 56.3,56.35 54.5,56.35 C50.7,56.35 47.55,54.175 47.55,50 Z M56.375,48.875 C56.5,48.05 56.025,46.3 53.85,46.3 C52.375,46.3 51.075,47.225 51.025,48.875 L56.375,48.875 Z M64.975,45.75 C65.725,44.675 67.1,43.65 69.325,43.65 C73.125,43.65 75.175,46.725 75.175,50 C75.175,53.275 73.125,56.35 69.325,56.35 C67.425,56.35 66.15,55.575 65.375,54.725 L65.375,61.5 L61.9,61.5 L61.9,44 L64.975,44 L64.975,45.75 Z M71.625,50 C71.625,48.125 70.45,46.575 68.475,46.575 C66.95,46.575 65.825,47.525 65.35,48.575 L65.35,51.425 C65.825,52.475 66.95,53.425 68.475,53.425 C70.45,53.425 71.625,51.875 71.625,50 Z M78.2,40.5 L81.65,39.675 L81.65,44 L85.45,44 L85.45,46.925 L81.65,46.925 L81.65,51.625 C81.65,52.875 82.275,53.425 83.575,53.425 C84.375,53.425 85.05,53.3 85.75,53.025 L85.75,55.825 C84.825,56.15 83.725,56.35 82.525,56.35 C80.2,56.35 78.2,55.275 78.2,52.3 L78.2,46.925 L76.175,46.925 L76.175,44 L78.2,44 L78.2,40.5 Z M87.075,50 C87.075,45.475 90.55,43.65 93.25,43.65 C98.225,43.65 99.825,47.575 99.025,51.125 L90.575,51.125 C90.975,52.875 92.825,53.6 94.8,53.6 C96.175,53.6 97.4,53.325 98.425,52.875 L98.425,55.6 C97.3,56.075 95.825,56.35 94.025,56.35 C90.225,56.35 87.075,54.175 87.075,50 Z M95.9,48.875 C96.025,48.05 95.55,46.3 93.375,46.3 C91.9,46.3 90.6,47.225 90.55,48.875 L95.9,48.875 Z M104.9,56 L101.425,56 L101.425,44 L104.5,44 L104.5,45.4 C105.125,44.65 106.5,43.65 108.325,43.65 C110.125,43.65 111.3,44.4 112,45.425 C113,44.45 114.35,43.65 116,43.65 C119.375,43.65 120.475,46.275 120.475,48.4 L120.475,56 L117.025,56 L117.025,48.625 C117.025,47.375 116.25,46.65 115.15,46.65 C114.2,46.65 113.35,47.2 112.775,47.85 C112.8,48.025 112.8,48.2 112.8,48.4 L112.8,56 L109.35,56 L109.35,48.625 C109.35,47.375 108.575,46.65 107.475,46.65 C106.425,46.65 105.475,47.35 104.9,48.1 L104.9,56 Z M123.3,38.5 L126.775,38.5 L126.775,45.275 C127.525,44.425 128.825,43.65 130.725,43.65 C134.525,43.65 136.575,46.725 136.575,50 C136.575,53.275 134.525,56.35 130.725,56.35 C128.5,56.35 127.125,55.325 126.375,54.25 L126.375,56 L123.3,56 L123.3,38.5 Z M133.025,50 C133.025,48.125 131.85,46.575 129.875,46.575 C128.35,46.575 127.225,47.525 126.75,48.575 L126.75,51.425 C127.225,52.475 128.35,53.425 129.875,53.425 C131.85,53.425 133.025,51.875 133.025,50 Z M141.925,45.8 C142.775,44.475 144.525,43.525 146.775,43.75 L146.775,47.125 C144.875,46.8 143.05,47.525 142.325,48.95 L142.325,56 L138.85,56 L138.85,44 L141.925,44 L141.925,45.8 Z M147.675,50 C147.675,45.475 151.15,43.65 153.85,43.65 C158.825,43.65 160.425,47.575 159.625,51.125 L151.175,51.125 C151.575,52.875 153.425,53.6 155.4,53.6 C156.775,53.6 158,53.325 159.025,52.875 L159.025,55.6 C157.9,56.075 156.425,56.35 154.625,56.35 C150.825,56.35 147.675,54.175 147.675,50 Z M156.5,48.875 C156.625,48.05 156.15,46.3 153.975,46.3 C152.5,46.3 151.2,47.225 151.15,48.875 L156.5,48.875 Z" id="29-août-—-10-septemb"></path>
            </g>
        </g>
    </g>
</svg>