<?xml version="1.0" encoding="UTF-8"?>
<svg width="250px" height="292px" viewBox="0 0 250 292" version="1.1" xmlns="http://www.w3.org/2000/svg" xmlns:xlink="http://www.w3.org/1999/xlink">
    <!-- Generator: Sketch 48.2 (47327) - http://www.bohemiancoding.com/sketch -->
    <title>text_3</title>
    <desc>Created with Sketch.</desc>
    <defs>
        <radialGradient cx="400%" cy="200%" fx="400%" fy="200%" r="100.014205%" gradientTransform="translate(4.000000,2.000000),scale(1.000000,0.500004),translate(-4.000000,-2.000000)" id="radialGradient-1">
            <stop stop-color="#8D00FF" offset="0%"></stop>
            <stop stop-color="#5C00FE" offset="69.8959662%"></stop>
            <stop stop-color="#8900FF" offset="100%"></stop>
        </radialGradient>
        <radialGradient cx="400%" cy="200%" fx="400%" fy="200%" r="100.011799%" gradientTransform="translate(4.000000,2.000000),scale(1.000000,0.500004),translate(-4.000000,-2.000000)" id="radialGradient-2">
            <stop stop-color="#FF9495" offset="0%"></stop>
            <stop stop-color="#FE5F60" offset="70.3742825%"></stop>
            <stop stop-color="#FF9091" offset="100%"></stop>
        </radialGradient>
    </defs>
    <g id="Page-1" stroke="none" stroke-width="1" fill="none" fill-rule="evenodd">
        <g id="text_3" transform="translate(0.000000, -7.000000)">
            <g id="3-copy" transform="translate(0.000000, 49.000000)" fill-rule="nonzero">
                <g id="Group-Copy-2" transform="translate(0.933759, 0.000000)">
                    <g id="Group-6" transform="translate(0.000000, 0.762969)">
                        <g id="Group-31">
                            <path d="M124.524976,249.047781 C113.595699,249.047871 102.852631,247.633628 92.2957729,244.804995 C81.7389145,241.976368 71.727937,237.829799 62.2629045,232.365289 C52.7978079,226.900714 44.2011758,220.304407 36.4730082,212.576368 C28.7447764,204.848264 22.1482772,196.25176 16.6835746,186.786792 C11.218872,177.321823 7.07211127,167.31091 4.24335644,156.754116 C1.41453755,146.197257 0.000128110995,135.454189 0,124.524976 C-6.40554976e-05,113.595699 1.41415322,102.852631 4.24277994,92.2957729 C7.07140665,81.7388504 11.2179752,71.727937 16.6825497,62.2628404 C22.1472523,52.7976798 28.7436875,44.2009837 36.4719192,36.4727519 C44.2000869,28.7444561 52.796719,22.148021 62.2618155,16.6833184 C71.726848,11.2185517 81.7378255,7.07185504 92.294684,4.24310021 C102.851606,1.41434539 113.59461,0 124.524976,0 L124.523759,56.0357493 C120.027832,56.0372866 115.575206,56.4772838 111.165882,57.3557409 C106.756558,58.234198 102.47528,59.5342684 98.321986,61.255888 C94.1686916,62.9775076 90.2231932,65.0876238 86.4854909,67.5863007 C82.7477885,70.0849135 79.2896244,72.9241093 76.1110625,76.1038242 C72.9325006,79.2835391 70.0945218,82.7426641 67.5971901,86.4812632 C65.0998584,90.2198623 62.9910874,94.1661294 61.270941,98.3200643 C59.5507307,102.473935 58.2521976,106.755725 57.3752778,111.165434 C56.4983581,115.575078 56.0598982,120.027896 56.0598982,124.523887 C56.0598982,129.019879 56.4984221,133.472761 57.375406,137.882469 C58.2523898,142.292114 59.5509869,146.573967 61.2711973,150.727902 C62.9914076,154.881837 65.1002427,158.828104 67.5976385,162.566704 C70.0950342,166.305367 72.933013,169.764492 76.1117031,172.944207 C79.290329,176.123857 82.7484932,178.963053 86.4862595,181.46173 C90.2240259,183.960343 94.1695884,186.070459 98.3229468,187.792079 C102.476241,189.513634 106.757583,190.813705 111.166971,191.692098 C115.576295,192.570491 120.028985,193.010488 124.524976,193.012025 L124.524976,249.047781 Z" id="Fill-30" fill="url(#radialGradient-1)"></path>
                            <path d="M249.044074,249.047781 C238.114797,249.047871 227.371729,247.633628 216.814871,244.804995 C206.258013,241.976368 196.247035,237.829799 186.782003,232.365289 C177.316906,226.900714 168.720274,220.304407 160.992106,212.576368 C153.263875,204.848264 146.667375,196.25176 141.202673,186.786792 C135.73797,177.321823 131.591209,167.31091 128.762455,156.754116 C125.933636,146.197257 124.519226,135.454189 124.519098,124.524976 C124.519034,113.595699 125.933251,102.852631 128.761878,92.2957729 C131.590505,81.7388504 135.737073,71.727937 141.201648,62.2628404 C146.66635,52.7976798 153.262786,44.2009837 160.991017,36.4727519 C168.719185,28.7444561 177.315817,22.148021 186.780914,16.6833184 C196.245946,11.2185517 206.256924,7.07185504 216.813782,4.24310021 C227.370705,1.41434539 238.113708,0 249.044074,0 L249.042857,56.0357493 C244.54693,56.0372866 240.094304,56.4772838 235.68498,57.3557409 C231.275656,58.234198 226.994378,59.5342684 222.841084,61.255888 C218.68779,62.9775076 214.742291,65.0876238 211.004589,67.5863007 C207.266887,70.0849135 203.808722,72.9241093 200.630161,76.1038242 C197.451599,79.2835391 194.61362,82.7426641 192.116288,86.4812632 C189.618956,90.2198623 187.510185,94.1661294 185.790039,98.3200643 C184.069829,102.473935 182.771296,106.755725 181.894376,111.165434 C181.017456,115.575078 180.578996,120.027896 180.578996,124.523887 C180.578996,129.019879 181.01752,133.472761 181.894504,137.882469 C182.771488,142.292114 184.070085,146.573967 185.790295,150.727902 C187.510506,154.881837 189.619341,158.828104 192.116737,162.566704 C194.614132,166.305367 197.452111,169.764492 200.630801,172.944207 C203.809427,176.123857 207.267591,178.963053 211.005358,181.46173 C214.743124,183.960343 218.688686,186.070459 222.842045,187.792079 C226.995339,189.513634 231.276681,190.813705 235.686069,191.692098 C240.095393,192.570491 244.548083,193.010488 249.044074,193.012025 L249.044074,249.047781 Z" id="Fill-30-Copy" fill="url(#radialGradient-2)" transform="translate(186.781586, 124.523890) scale(-1, 1) translate(-186.781586, -124.523890) "></path>
                        </g>
                        <circle id="Oval" fill="#FFFFFF" cx="124.90822" cy="124.90822" r="87.3982442"></circle>
                        <path d="M77.0899016,151.589233 L74.7660835,151.589233 L74.7660835,148.446797 C72.8119638,148.235541 70.9634721,147.707401 69.4846788,146.888783 L69.4846788,143.931196 C71.5180196,145.225141 73.8946518,145.753281 76.0072137,145.753281 C78.3838458,145.753281 79.9946742,145.198734 79.9946742,143.45587 C79.9946742,139.177932 69.5638999,141.448936 69.5638999,134.899994 C69.5638999,131.889594 71.8613109,130.278765 74.7660835,129.935474 L74.7660835,126.766631 L77.0899016,126.766631 L77.0899016,129.909067 C78.8591722,130.041102 80.6284428,130.516428 81.8695729,131.255825 L81.8695729,134.134191 C80.3643726,133.130724 78.3046247,132.576176 76.3240979,132.602583 C74.0795009,132.602583 72.6271146,133.262759 72.6271146,134.84718 C72.6271146,138.834641 83.057889,136.695672 83.057889,143.297428 C83.057889,146.862376 80.3907796,148.288355 77.0899016,148.473204 L77.0899016,151.589233 Z M85.2232649,139.177932 C85.2232649,133.922934 87.7055252,129.856253 93.2774072,129.856253 C98.8492892,129.856253 101.331549,133.922934 101.331549,139.177932 C101.331549,144.43293 98.8492892,148.499611 93.2774072,148.499611 C87.7055252,148.499611 85.2232649,144.43293 85.2232649,139.177932 Z M98.2947417,139.177932 C98.2947417,135.005622 96.7103203,132.602583 93.2774072,132.602583 C89.8180871,132.602583 88.2600727,135.005622 88.2600727,139.177932 C88.2600727,143.350242 89.8180871,145.753281 93.2774072,145.753281 C96.7103203,145.753281 98.2947417,143.350242 98.2947417,139.177932 Z M107.431572,146.703934 C107.431572,147.89225 106.612954,148.446797 105.662301,148.446797 C104.711648,148.446797 103.866624,147.89225 103.866624,146.703934 C103.866624,145.568432 104.711648,145.013884 105.662301,145.013884 C106.612954,145.013884 107.431572,145.568432 107.431572,146.703934 Z M109.966646,139.177932 C109.966646,133.922934 112.448906,129.856253 118.020788,129.856253 C123.59267,129.856253 126.074931,133.922934 126.074931,139.177932 C126.074931,144.43293 123.59267,148.499611 118.020788,148.499611 C112.448906,148.499611 109.966646,144.43293 109.966646,139.177932 Z M123.038123,139.177932 C123.038123,135.005622 121.453701,132.602583 118.020788,132.602583 C114.561468,132.602583 113.003454,135.005622 113.003454,139.177932 C113.003454,143.350242 114.561468,145.753281 118.020788,145.753281 C121.453701,145.753281 123.038123,143.350242 123.038123,139.177932 Z M137.535579,130.199544 L140.625201,130.199544 L140.625201,141.871449 L143.714822,141.871449 L143.714822,144.485744 L140.625201,144.485744 L140.625201,148.15632 L137.720428,148.15632 L137.720428,144.485744 L127.976236,144.485744 L127.976236,141.924263 L137.535579,130.199544 Z M137.720428,141.871449 L137.720428,134.028562 L131.329928,141.871449 L137.720428,141.871449 Z M146.910072,130.199544 L157.974615,130.199544 L157.974615,132.89306 L149.68281,132.89306 L149.41874,137.223812 C150.290171,137.012556 151.214417,136.906928 152.138663,136.906928 C155.597983,136.906928 158.81964,138.412128 158.81964,142.637252 C158.81964,146.519085 155.518762,148.499611 151.557709,148.499611 C149.471554,148.499611 147.385399,148.050692 145.800977,147.284888 L145.800977,144.459337 C147.306178,145.330769 149.339519,145.779688 151.214417,145.779688 C153.881527,145.779688 155.782832,144.723407 155.782832,142.610845 C155.782832,140.234213 153.749491,139.389188 150.897533,139.389188 C149.445147,139.389188 147.781504,139.679666 146.329118,140.181399 L146.910072,130.199544 Z M161.169865,139.177932 C161.169865,133.922934 163.652125,129.856253 169.224007,129.856253 C174.795889,129.856253 177.27815,133.922934 177.27815,139.177932 C177.27815,144.43293 174.795889,148.499611 169.224007,148.499611 C163.652125,148.499611 161.169865,144.43293 161.169865,139.177932 Z M174.241342,139.177932 C174.241342,135.005622 172.65692,132.602583 169.224007,132.602583 C165.764687,132.602583 164.206673,135.005622 164.206673,139.177932 C164.206673,143.350242 165.764687,145.753281 169.224007,145.753281 C172.65692,145.753281 174.241342,143.350242 174.241342,139.177932 Z M88.7882131,162.199544 L91.0064031,162.199544 L91.0064031,177.436397 L94.201653,177.436397 L94.201653,180.15632 L84.4310542,180.15632 L84.4310542,177.436397 L88.0224094,177.436397 L88.0224094,165.289166 L84.4310542,166.635924 L84.4310542,163.863187 L88.7882131,162.199544 Z M120.027722,161.671404 L122.747646,161.671404 L122.747646,180.15632 L119.737245,180.15632 L119.737245,167.216879 L113.901293,175.98401 L112.105615,175.98401 L106.269663,167.190472 L106.269663,180.15632 L103.259262,180.15632 L103.259262,161.671404 L105.979186,161.671404 L113.003454,172.26062 L120.027722,161.671404 Z M130.24724,180.15632 L127.23684,180.15632 L127.23684,161.671404 L130.062391,161.671404 L140.017839,175.1918 C139.991432,174.558031 139.991432,173.845041 139.991432,173.158459 L139.991432,161.671404 L143.001833,161.671404 L143.001833,180.15632 L140.176281,180.15632 L130.220833,166.635924 C130.24724,167.269693 130.24724,167.982682 130.24724,168.642858 L130.24724,180.15632 Z M150.501428,180.15632 L147.491027,180.15632 L147.491027,161.671404 L154.884993,161.671404 C158.344314,161.671404 161.988483,163.044569 161.988483,167.454542 C161.988483,170.75542 159.928735,172.339841 157.499289,172.920796 L163.414462,180.15632 L159.7967,180.15632 L154.251225,173.23768 L150.501428,173.23768 L150.501428,180.15632 Z M150.501428,164.417734 L150.501428,170.570571 L155.017029,170.570571 C156.997555,170.570571 158.925268,169.857581 158.925268,167.507356 C158.925268,165.130724 156.997555,164.417734 155.017029,164.417734 L150.501428,164.417734 Z" id="$0.0450-1-MNR" fill="#131F3C"></path>
                    </g>
                </g>
            </g>
            <path d="M102.205295,114.956634 L105.985963,114.956634 L105.985963,129.659233 L108.954488,129.659233 L108.954488,134 L97.5844782,134 L97.5844782,129.659233 L100.945072,129.659233 L100.945072,120.08154 L97.5844782,121.341763 L97.5844782,116.720946 L102.205295,114.956634 Z M110.66279,124.478317 C110.66279,119.045357 113.26725,114.53656 119.484349,114.53656 C125.701447,114.53656 128.305908,119.045357 128.305908,124.478317 C128.305908,129.911277 125.701447,134.420074 119.484349,134.420074 C113.26725,134.420074 110.66279,129.911277 110.66279,124.478317 Z M123.124992,124.478317 C123.124992,120.809669 121.976789,119.017352 119.484349,119.017352 C116.991908,119.017352 115.843705,120.809669 115.843705,124.478317 C115.843705,128.146966 116.991908,129.939282 119.484349,129.939282 C121.976789,129.939282 123.124992,128.146966 123.124992,124.478317 Z M138.359685,135.680297 L135.27914,135.680297 L146.733165,112.716238 L149.813709,112.716238 L138.359685,135.680297 Z M140.82412,119.017352 C140.82412,122.377946 138.359685,124.058243 135.50318,124.058243 C132.61867,124.058243 130.154234,122.377946 130.154234,119.017352 C130.154234,115.656758 132.61867,113.976461 135.50318,113.976461 C138.359685,113.976461 140.82412,115.656758 140.82412,119.017352 Z M133.850888,119.017352 C133.850888,119.857501 134.298967,120.697649 135.50318,120.697649 C136.679388,120.697649 137.127467,119.857501 137.127467,119.017352 C137.127467,118.177204 136.679388,117.337055 135.50318,117.337055 C134.298967,117.337055 133.850888,118.177204 133.850888,119.017352 Z M154.826595,129.379183 C154.826595,132.739777 152.362159,134.420074 149.505655,134.420074 C146.621145,134.420074 144.156709,132.739777 144.156709,129.379183 C144.156709,126.018589 146.621145,124.338292 149.505655,124.338292 C152.362159,124.338292 154.826595,126.018589 154.826595,129.379183 Z M147.853363,129.379183 C147.853363,130.219332 148.301442,131.05948 149.505655,131.05948 C150.681862,131.05948 151.129942,130.219332 151.129942,129.379183 C151.129942,128.539035 150.681862,127.698886 149.505655,127.698886 C148.301442,127.698886 147.853363,128.539035 147.853363,129.379183 Z" id="10%" fill="#131F3C" fill-rule="nonzero"></path>
            <g id="diskon" transform="translate(1.000000, 139.000000)" fill="#000000">
                <path d="M85.9575,6.9 L89.1315,6.9 L89.1315,23 L86.3255,23 L86.3255,21.39 C85.6125,22.379 84.3475,23.322 82.3235,23.322 C78.8045,23.322 76.9185,20.493 76.9185,17.48 C76.9185,14.467 78.8045,11.638 82.3235,11.638 C84.0715,11.638 85.2445,12.351 85.9575,13.133 L85.9575,6.9 Z M85.9575,16.169 C85.5205,15.203 84.4855,14.329 83.0825,14.329 C81.2655,14.329 80.1845,15.755 80.1845,17.48 C80.1845,19.205 81.2655,20.631 83.0825,20.631 C84.4855,20.631 85.5205,19.757 85.9575,18.791 L85.9575,16.169 Z M91.2245,17.48 C91.2245,13.317 94.4215,11.638 96.9055,11.638 C101.4825,11.638 102.9545,15.249 102.2185,18.515 L94.4445,18.515 C94.8125,20.125 96.5145,20.792 98.3315,20.792 C99.5965,20.792 100.7235,20.539 101.6665,20.125 L101.6665,22.632 C100.6315,23.069 99.2745,23.322 97.6185,23.322 C94.1225,23.322 91.2245,21.321 91.2245,17.48 Z M99.3435,16.445 C99.4585,15.686 99.0215,14.076 97.0205,14.076 C95.6635,14.076 94.4675,14.927 94.4215,16.445 L99.3435,16.445 Z M112.3615,13.616 C113.1435,12.397 114.7535,11.523 116.8235,11.73 L116.8235,14.835 C115.0755,14.536 113.3965,15.203 112.7295,16.514 L112.7295,23 L109.5325,23 L109.5325,11.96 L112.3615,11.96 L112.3615,13.616 Z M128.2545,20.148 C128.2545,20.723 128.6225,20.884 129.0365,20.884 C129.2205,20.884 129.4275,20.861 129.6345,20.792 L129.6345,22.885 C129.1285,23.069 128.4845,23.207 127.8635,23.207 C126.7365,23.207 125.8855,22.793 125.4255,21.965 C124.3445,22.816 123.0795,23.322 121.4465,23.322 C119.3765,23.322 117.5825,22.126 117.5825,19.941 C117.5825,17.135 120.2275,16.261 122.4355,16.261 C123.3095,16.261 124.2755,16.376 125.0575,16.56 L125.0575,16.169 C125.0575,15.065 124.1835,14.306 122.4585,14.306 C120.9405,14.306 119.5835,14.72 118.5485,15.134 L118.5485,12.374 C119.4455,12.075 121.1245,11.638 122.8265,11.638 C126.1385,11.638 128.2545,12.995 128.2545,16.629 L128.2545,20.148 Z M123.1715,18.17 C121.9985,18.17 120.8485,18.561 120.8485,19.688 C120.8485,20.516 121.6075,21.045 122.5735,21.045 C123.4705,21.045 124.3215,20.792 125.0575,20.148 L125.0575,18.423 C124.5745,18.308 123.8385,18.17 123.1715,18.17 Z M131.1525,6.9 L134.3495,6.9 L134.3495,13.133 C135.0395,12.351 136.2355,11.638 137.9835,11.638 C141.4795,11.638 143.3655,14.467 143.3655,17.48 C143.3655,20.493 141.4795,23.322 137.9835,23.322 C135.9365,23.322 134.6715,22.379 133.9815,21.39 L133.9815,23 L131.1525,23 L131.1525,6.9 Z M140.0995,17.48 C140.0995,15.755 139.0185,14.329 137.2015,14.329 C135.7985,14.329 134.7635,15.203 134.3265,16.169 L134.3265,18.791 C134.7635,19.757 135.7985,20.631 137.2015,20.631 C139.0185,20.631 140.0995,19.205 140.0995,17.48 Z M155.3255,20.148 C155.3255,20.723 155.6935,20.884 156.1075,20.884 C156.2915,20.884 156.4985,20.861 156.7055,20.792 L156.7055,22.885 C156.1995,23.069 155.5555,23.207 154.9345,23.207 C153.8075,23.207 152.9565,22.793 152.4965,21.965 C151.4155,22.816 150.1505,23.322 148.5175,23.322 C146.4475,23.322 144.6535,22.126 144.6535,19.941 C144.6535,17.135 147.2985,16.261 149.5065,16.261 C150.3805,16.261 151.3465,16.376 152.1285,16.56 L152.1285,16.169 C152.1285,15.065 151.2545,14.306 149.5295,14.306 C148.0115,14.306 146.6545,14.72 145.6195,15.134 L145.6195,12.374 C146.5165,12.075 148.1955,11.638 149.8975,11.638 C153.2095,11.638 155.3255,12.995 155.3255,16.629 L155.3255,20.148 Z M150.2425,18.17 C149.0695,18.17 147.9195,18.561 147.9195,19.688 C147.9195,20.516 148.6785,21.045 149.6445,21.045 C150.5415,21.045 151.3925,20.792 152.1285,20.148 L152.1285,18.423 C151.6455,18.308 150.9095,18.17 150.2425,18.17 Z M161.4435,23 L158.2465,23 L158.2465,11.96 L161.4435,11.96 L161.4435,23 Z M161.7195,8.303 C161.7195,9.568 160.8455,10.12 159.8335,10.12 C158.8445,10.12 157.9705,9.568 157.9705,8.303 C157.9705,7.061 158.8445,6.509 159.8335,6.509 C160.8455,6.509 161.7195,7.061 161.7195,8.303 Z M163.7205,15.042 C163.7205,12.489 165.9975,11.638 168.3205,11.638 C169.8845,11.638 171.2645,12.029 172.3915,12.581 L172.3915,15.203 C171.4485,14.559 169.8385,14.076 168.5275,14.076 C167.8145,14.076 166.9865,14.283 166.9865,14.95 C166.9865,16.79 173.2195,15.87 173.2195,19.918 C173.2195,22.517 170.8505,23.322 168.2055,23.322 C166.5265,23.322 164.9395,22.954 163.8125,22.287 L163.8125,19.642 C165.0085,20.424 166.6875,20.815 168.0215,20.815 C169.1945,20.815 169.9535,20.608 169.9535,19.987 C169.9535,18.216 163.7205,18.998 163.7205,15.042 Z" id="de-rabais"></path>
            </g>
            <g id="18-28-Agustus" fill="#000000">
                <path d="M52.1375,8 L54.8625,8 L54.8625,21.775 L57.7125,21.775 L57.7125,25 L48.0125,25 L48.0125,21.775 L51.2125,21.775 L51.2125,11.75 L48.0125,12.95 L48.0125,9.575 L52.1375,8 Z M59.9125,12.35 C59.9125,10.075 61.8125,7.65 66.4625,7.65 C70.7875,7.65 73.0375,10.075 73.0625,12.45 C73.0875,14.1 72.2875,15.35 70.9125,16.375 C72.4625,17.15 73.6875,18.35 73.6875,20.4 C73.6875,22.9 71.6375,25.35 66.5125,25.35 C61.4375,25.35 59.2875,22.875 59.2875,20.275 C59.2875,18.575 60.3375,16.95 61.9375,16 C60.7625,15.2 59.9125,14.075 59.9125,12.35 Z M66.8875,18 C66.1375,17.725 65.2375,17.475 64.3625,17.15 C63.4375,17.925 63.0125,18.95 63.0375,19.825 C63.0625,21.275 64.2125,22.4 66.7875,22.4 C68.5875,22.4 69.9625,21.65 69.9625,20.5 C69.9625,19.05 68.5625,18.575 66.8875,18 Z M69.4625,12.725 C69.4625,11.55 68.4125,10.6 66.3125,10.6 C64.5125,10.6 63.4875,11.425 63.4875,12.375 C63.4875,13.875 65.0125,14.35 66.6875,14.9 C67.1875,15.025 67.7125,15.2 68.2625,15.35 C69.0625,14.55 69.4875,13.55 69.4625,12.725 Z M92.4625,21.9 C92.4625,22.525 92.8625,22.7 93.3125,22.7 C93.5125,22.7 93.7375,22.675 93.9625,22.6 L93.9625,24.875 C93.4125,25.075 92.7125,25.225 92.0375,25.225 C90.8125,25.225 89.8875,24.775 89.3875,23.875 C88.2125,24.8 86.8375,25.35 85.0625,25.35 C82.8125,25.35 80.8625,24.05 80.8625,21.675 C80.8625,18.625 83.7375,17.675 86.1375,17.675 C87.0875,17.675 88.1375,17.8 88.9875,18 L88.9875,17.575 C88.9875,16.375 88.0375,15.55 86.1625,15.55 C84.5125,15.55 83.0375,16 81.9125,16.45 L81.9125,13.45 C82.8875,13.125 84.7125,12.65 86.5625,12.65 C90.1625,12.65 92.4625,14.125 92.4625,18.075 L92.4625,21.9 Z M86.9375,19.75 C85.6625,19.75 84.4125,20.175 84.4125,21.4 C84.4125,22.3 85.2375,22.875 86.2875,22.875 C87.2625,22.875 88.1875,22.6 88.9875,21.9 L88.9875,20.025 C88.4625,19.9 87.6625,19.75 86.9375,19.75 Z M103.9375,13 L107.4125,13 L107.4125,25 L104.3375,25 L104.3375,23.475 C103.4125,24.55 102.0375,25.35 100.3375,25.35 C97.0875,25.35 95.4625,23.2 95.4625,20.425 L95.4625,13 L98.9375,13 L98.9375,19.975 C98.9375,21.575 99.8125,22.35 101.2375,22.35 C102.4875,22.35 103.4125,21.55 103.9375,20.825 L103.9375,13 Z M116.0125,9.45 C117.7625,8.2 119.7875,7.65 121.8625,7.65 C125.2875,7.65 128.0625,9.2 128.0625,12.675 C128.0625,15.55 125.6875,17.25 123.4625,18.575 C121.4375,19.775 119.7125,20.7 119.6875,21.8 L128.1875,21.775 L128.1875,25 L115.4375,25 L115.4375,23.325 C115.4375,19.225 118.5375,17.625 121.0375,16.15 C122.8125,15.125 124.3375,14.45 124.3375,12.825 C124.3375,11.575 123.2375,10.925 121.5125,10.925 C119.8125,10.925 117.8125,11.575 116.0125,12.95 L116.0125,9.45 Z M130.9875,12.35 C130.9875,10.075 132.8875,7.65 137.5375,7.65 C141.8625,7.65 144.1125,10.075 144.1375,12.45 C144.1625,14.1 143.3625,15.35 141.9875,16.375 C143.5375,17.15 144.7625,18.35 144.7625,20.4 C144.7625,22.9 142.7125,25.35 137.5875,25.35 C132.5125,25.35 130.3625,22.875 130.3625,20.275 C130.3625,18.575 131.4125,16.95 133.0125,16 C131.8375,15.2 130.9875,14.075 130.9875,12.35 Z M137.9625,18 C137.2125,17.725 136.3125,17.475 135.4375,17.15 C134.5125,17.925 134.0875,18.95 134.1125,19.825 C134.1375,21.275 135.2875,22.4 137.8625,22.4 C139.6625,22.4 141.0375,21.65 141.0375,20.5 C141.0375,19.05 139.6375,18.575 137.9625,18 Z M140.5375,12.725 C140.5375,11.55 139.4875,10.6 137.3875,10.6 C135.5875,10.6 134.5625,11.425 134.5625,12.375 C134.5625,13.875 136.0875,14.35 137.7625,14.9 C138.2625,15.025 138.7875,15.2 139.3375,15.35 C140.1375,14.55 140.5625,13.55 140.5375,12.725 Z M163.5375,21.9 C163.5375,22.525 163.9375,22.7 164.3875,22.7 C164.5875,22.7 164.8125,22.675 165.0375,22.6 L165.0375,24.875 C164.4875,25.075 163.7875,25.225 163.1125,25.225 C161.8875,25.225 160.9625,24.775 160.4625,23.875 C159.2875,24.8 157.9125,25.35 156.1375,25.35 C153.8875,25.35 151.9375,24.05 151.9375,21.675 C151.9375,18.625 154.8125,17.675 157.2125,17.675 C158.1625,17.675 159.2125,17.8 160.0625,18 L160.0625,17.575 C160.0625,16.375 159.1125,15.55 157.2375,15.55 C155.5875,15.55 154.1125,16 152.9875,16.45 L152.9875,13.45 C153.9625,13.125 155.7875,12.65 157.6375,12.65 C161.2375,12.65 163.5375,14.125 163.5375,18.075 L163.5375,21.9 Z M158.0125,19.75 C156.7375,19.75 155.4875,20.175 155.4875,21.4 C155.4875,22.3 156.3125,22.875 157.3625,22.875 C158.3375,22.875 159.2625,22.6 160.0625,21.9 L160.0625,20.025 C159.5375,19.9 158.7375,19.75 158.0125,19.75 Z M166.0125,19 C166.0125,14.8 169.1625,12.65 172.6375,12.65 C176.1375,12.65 179.2625,14.8 179.2625,19 C179.2625,23.2 176.1375,25.35 172.6375,25.35 C169.1625,25.35 166.0125,23.2 166.0125,19 Z M175.7375,19 C175.7375,17.15 174.6375,15.75 172.6375,15.75 C170.6625,15.75 169.5625,17.15 169.5625,19 C169.5625,20.85 170.6625,22.25 172.6375,22.25 C174.6375,22.25 175.7375,20.85 175.7375,19 Z M189.8625,13 L193.3375,13 L193.3375,25 L190.2625,25 L190.2625,23.475 C189.3375,24.55 187.9625,25.35 186.2625,25.35 C183.0125,25.35 181.3875,23.2 181.3875,20.425 L181.3875,13 L184.8625,13 L184.8625,19.975 C184.8625,21.575 185.7375,22.35 187.1625,22.35 C188.4125,22.35 189.3375,21.55 189.8625,20.825 L189.8625,13 Z M185.8875,7.7 L188.9625,7.7 L192.0625,11.575 L188.7625,11.575 L187.4375,9.95 L186.1125,11.575 L182.7875,11.575 L185.8875,7.7 Z M197.1875,9.5 L200.6375,8.675 L200.6375,13 L204.4375,13 L204.4375,15.925 L200.6375,15.925 L200.6375,20.625 C200.6375,21.875 201.2625,22.425 202.5625,22.425 C203.3625,22.425 204.0375,22.3 204.7375,22.025 L204.7375,24.825 C203.8125,25.15 202.7125,25.35 201.5125,25.35 C199.1875,25.35 197.1875,24.275 197.1875,21.3 L197.1875,15.925 L195.1625,15.925 L195.1625,13 L197.1875,13 L197.1875,9.5 Z" id="18-au-28-août"></path>
            </g>
        </g>
    </g>
</svg>