<?xml version="1.0" encoding="UTF-8"?>
<svg width="250px" height="299px" viewBox="0 0 250 299" version="1.1" xmlns="http://www.w3.org/2000/svg" xmlns:xlink="http://www.w3.org/1999/xlink">
    <!-- Generator: Sketch 48.2 (47327) - http://www.bohemiancoding.com/sketch -->
    <title>hin_4</title>
    <desc>Created with Sketch.</desc>
    <defs>
        <radialGradient cx="800%" cy="800%" fx="800%" fy="800%" r="100.47898%" gradientTransform="translate(8.000000,8.000000),scale(1.000000,0.999999),translate(-8.000000,-8.000000)" id="radialGradient-1">
            <stop stop-color="#8D00FF" offset="0%"></stop>
            <stop stop-color="#5C00FE" offset="69.8959662%"></stop>
            <stop stop-color="#8900FF" offset="100%"></stop>
        </radialGradient>
        <radialGradient cx="50%" cy="50%" fx="50%" fy="50%" r="50.0253367%" id="radialGradient-2">
            <stop stop-color="#FF9495" offset="0%"></stop>
            <stop stop-color="#FE5F60" offset="70.3742825%"></stop>
            <stop stop-color="#FF9091" offset="100%"></stop>
        </radialGradient>
    </defs>
    <g id="Page-1" stroke="none" stroke-width="1" fill="none" fill-rule="evenodd">
        <g id="hin_4">
            <g id="4-copy" transform="translate(0.000000, 48.000000)" fill-rule="nonzero">
                <g id="Group-Copy-3" transform="translate(0.545890, 0.588188)">
                    <g id="Group-3" transform="translate(0.000000, 0.762969)">
                        <g id="Group-8">
                            <path d="M0,125.013369 C2.91814549e-05,116.804853 0.800756631,108.675226 2.40218235,100.624437 C4.00360807,92.5736583 6.37495729,84.7564426 9.51623002,77.1727836 C12.6575028,69.5891246 16.5083459,62.384737 21.0687478,55.5596266 C25.6291439,48.7345168 30.8114843,42.4198151 36.6157632,36.6155391 C42.420048,30.811259 48.7347397,25.6289238 55.5598326,21.068533 C62.3849314,16.5081428 69.589319,12.6573224 77.1729546,9.51607244 C84.7565844,6.37482306 92.5737943,4.0035001 100.624537,2.40210473 C108.675281,0.800704688 116.804785,0 125.013248,0 L125.013248,56.256007 C120.498614,56.2560362 116.027356,56.6964369 111.599467,57.5772266 C107.171572,58.4580046 102.872157,59.7622464 98.7011703,61.4899402 C94.5301832,63.2176458 90.5678202,65.3356124 86.8140346,67.8438344 C83.0602548,70.3520563 79.5872123,73.2023432 76.3948837,76.3946952 C73.2025551,79.5870471 70.3522856,83.0601305 67.8440987,86.8139278 C65.335906,90.5677368 63.2179685,94.5301406 61.4902922,98.7011394 C59.7626275,102.872138 58.4584032,107.171594 57.5776369,111.599518 C56.6968997,116.027406 56.2565282,120.498706 56.2565107,125.013369 L0,125.013369 Z" id="Fill-8" fill="url(#radialGradient-1)"></path>
                            <path d="M124.740231,0 C132.917139,3.54646161e-05 140.809466,0.797690493 148.829249,2.3929616 C156.849031,3.98823619 164.636136,6.35047671 172.190582,9.47968199 C179.745051,12.6088826 186.921705,16.4449279 193.720557,20.9878092 C200.519385,25.5306945 206.80975,30.693127 212.591686,36.4751065 C218.373622,42.2570854 223.535985,48.5475211 228.078816,55.3464036 C232.621648,62.1452961 236.457622,69.3219914 239.586764,76.8764895 C242.715941,84.431005 245.078181,92.2181743 246.673414,100.237997 C248.268642,108.257814 249.066241,116.3562 249.066241,124.533125 C249.066206,132.710109 248.268572,140.808524 246.673269,148.828376 C245.078041,156.848228 242.715802,164.635409 239.586549,172.189947 C236.457372,179.74448 232.621334,186.921193 228.078462,193.720074 C223.535595,200.518961 218.373157,206.809395 212.591151,212.591383 C206.80918,218.373372 200.518781,223.535793 193.719865,228.078677 C186.920978,232.621543 179.744289,236.45757 172.189785,239.586729 C164.635281,242.715924 156.848106,245.078129 148.828289,246.673379 C140.808455,248.268624 132.710069,249.066241 124.533126,249.066241 C116.356143,249.066206 108.257746,248.268555 100.237911,246.673269 C92.2180591,245.078007 84.4308608,242.715767 76.8763221,239.586549 C69.3217834,236.457355 62.1450765,232.621316 55.3461899,228.078444 C48.5472975,223.53556 42.256863,218.373139 36.4748864,212.591151 C30.6929041,206.809186 25.5304769,200.518746 20.9876108,193.719865 C16.4447331,186.920978 12.6087116,179.744289 9.4795232,172.189767 C6.3503348,164.635263 3.98812395,156.848106 2.39288484,148.828289 C0.797622465,140.808454 5.00693342e-16,132.710068 0,124.533125 C0,124.533122 18.6801356,124.533128 56.0404068,124.533143 C56.0404243,129.030463 56.479139,133.484604 57.3565452,137.895518 C58.2339282,142.306439 59.5331599,146.589378 61.2542228,150.744372 C62.9753032,154.899372 65.0851164,158.846554 67.5837091,162.585949 C70.0823017,166.32535 72.9216395,169.785103 76.1017226,172.965187 C79.2818172,176.14527 82.7415591,178.984607 86.4809366,181.4832 C90.2203198,183.981752 94.1674967,186.091571 98.3224788,187.812634 C102.477461,189.533691 106.7604,190.832923 111.171297,191.710312 C115.5822,192.587677 120.0363,193.026363 124.533621,193.026363 C129.030947,193.026345 133.485081,192.587642 137.896019,191.710259 C142.306916,190.832853 146.589873,189.533621 150.744873,187.812541 C154.899872,186.091484 158.847049,183.981665 162.58645,181.483072 C166.325827,178.98448 169.785569,176.145147 172.965664,172.965064 C176.145764,169.784981 178.985102,166.325239 181.483695,162.585845 C183.98227,158.846444 186.092083,154.899267 187.813129,150.744285 C189.534168,146.589303 190.8334,142.306363 191.710789,137.895466 C192.588172,133.484552 193.026857,129.030446 193.02684,124.533143 C193.026823,120.035823 192.588119,115.581682 191.710736,111.170767 C190.83333,106.759847 189.534099,102.47689 187.813018,98.3218963 C186.091979,94.1669026 183.982159,90.2197141 181.483567,86.480325 C178.98498,82.7409359 176.145625,79.2811998 172.965542,76.1011109 C169.785459,72.9210162 166.325723,70.08169 162.586322,67.583109 C158.846927,65.0845221 154.899744,62.9747088 150.744762,61.2536575 C146.589786,59.5326062 142.306846,58.2333804 137.895961,57.3559916 C133.485047,56.4786086 129.030947,56.0399171 124.533621,56.0399171 L124.740231,0 Z" id="Fill-8" fill="url(#radialGradient-2)"></path>
                        </g>
                    </g>
                    <circle id="Oval" fill="#FFFFFF" cx="124.90822" cy="125.671189" r="87.3982442"></circle>
                    <path d="M87.112,136.284 C87.112,133.204 89.128,131.104 92.208,131.104 C95.288,131.104 97.304,133.204 97.304,136.284 C97.304,139.336 95.26,141.408 92.18,141.408 C89.1,141.408 87.112,139.364 87.112,136.284 Z M89.548,136.284 C89.548,138.02 90.556,139.196 92.18,139.196 C93.832,139.196 94.868,137.992 94.868,136.284 C94.868,134.548 93.86,133.316 92.208,133.316 C90.556,133.316 89.548,134.548 89.548,136.284 Z M100.288,144.096 C100.288,142.92 101.184,142.024 102.276,142.024 C103.452,142.024 104.348,142.92 104.348,144.096 C104.348,145.188 103.452,146.084 102.276,146.084 C101.184,146.084 100.288,145.188 100.288,144.096 Z M107.36,136.284 C107.36,133.204 109.376,131.104 112.456,131.104 C115.536,131.104 117.552,133.204 117.552,136.284 C117.552,139.336 115.508,141.408 112.428,141.408 C109.348,141.408 107.36,139.364 107.36,136.284 Z M109.796,136.284 C109.796,138.02 110.804,139.196 112.428,139.196 C114.08,139.196 115.116,137.992 115.116,136.284 C115.116,134.548 114.108,133.316 112.456,133.316 C110.804,133.316 109.796,134.548 109.796,136.284 Z M131.484,140.624 C131.484,143.368 129.496,145.16 126.388,145.16 C123.28,145.16 121.264,143.368 121.264,140.624 C121.264,138.44 122.692,137.012 124.372,135.78 C122.412,134.38 120.536,132.728 120.536,130.04 C120.536,128.948 120.788,128.248 121.096,127.716 L123.588,128.584 C123.364,128.948 123.168,129.508 123.168,130.152 C123.168,132 124.652,133.232 126.36,134.408 C128.068,133.232 129.552,132 129.552,130.152 C129.552,129.508 129.384,128.948 129.16,128.584 L131.652,127.716 C131.96,128.248 132.184,128.948 132.184,130.04 C132.184,132.728 130.308,134.38 128.348,135.78 C130.028,137.012 131.484,138.44 131.484,140.624 Z M126.388,142.948 C127.928,142.948 128.88,142.136 128.88,140.596 C128.88,139.224 127.788,138.188 126.36,137.18 C124.96,138.188 123.868,139.224 123.868,140.596 C123.868,142.136 124.82,142.948 126.388,142.948 Z M150.4,137.124 C150.4,141.912 147.684,144.88 143.596,144.88 C138.08,144.88 135.616,139.896 135.616,134.408 C135.616,132.308 135.868,129.928 136.344,128.08 L138.892,127.94 C138.444,129.508 138.108,131.972 138.108,134.38 C138.108,138.804 139.844,142.64 143.372,142.64 C145.472,142.64 147.152,141.548 147.768,139.196 C147.208,139.448 146.536,139.588 145.78,139.588 C143.316,139.588 141.412,137.964 141.412,135.36 C141.412,132.98 143.288,131.3 145.612,131.3 C148.132,131.3 150.4,133.204 150.4,137.124 Z M146.396,137.656 C146.956,137.656 147.516,137.516 148.02,137.264 L148.02,137.04 C148.02,134.492 146.928,133.54 145.668,133.54 C144.688,133.54 143.876,134.212 143.876,135.472 C143.876,136.76 144.772,137.656 146.396,137.656 Z M167.412,145.608 L164.556,146.168 L162.372,139.896 C161.672,140.26 160.692,140.624 159.096,140.624 C156.016,140.624 153.664,138.58 153.664,135.192 C153.664,132.336 154.98,129.676 156.94,127.436 L159.152,128.808 C157.388,130.684 156.324,132.98 156.324,135.08 C156.324,137.152 157.528,138.244 159.208,138.244 C160.58,138.244 161.336,137.88 161.784,137.516 L161.196,134.604 L162.988,133.876 C163.968,134.856 164.948,135.92 164.948,137.04 C164.948,137.74 164.808,138.3 164.276,138.916 L167.412,145.608 Z M91.768,161.576 L94.624,161.576 L94.624,180 L91.88,180 L91.88,169.416 L91.992,164.376 L91.88,164.376 L89.724,166.056 L87.792,167.4 L86.252,165.216 L91.768,161.576 Z M118.008,173.364 L118.148,173.364 L123.216,160.372 L127.612,160.372 L127.612,180 L124.868,180 L124.868,163.704 L124.728,163.704 C122.964,168.212 121.116,172.832 119.352,177.312 L116.636,177.312 L111.288,163.704 L111.12,163.704 L111.12,180 L108.46,180 L108.46,160.372 L112.94,160.372 L118.008,173.364 Z M135.552,163.816 L135.384,163.816 C135.468,165.58 135.524,167.12 135.524,169.5 L135.524,180 L132.808,180 L132.808,160.372 L136.532,160.372 L142.384,171.432 C143.196,173 144.092,174.708 144.792,176.304 L144.96,176.304 C144.876,174.232 144.876,172.16 144.876,170.396 L144.876,160.372 L147.536,160.372 L147.536,180 L143.896,180 L137.904,168.716 C137.064,167.12 136.336,165.524 135.552,163.816 Z M152.732,160.372 L158.08,160.372 C162.224,160.372 164.688,161.996 164.688,165.972 C164.688,169.248 162.672,171.04 160.348,171.348 L160.348,171.46 C161.188,171.852 161.888,172.524 162.784,174.092 L166.228,180 L162.84,180 L159.368,173.7 C158.752,172.58 157.968,172.104 156.68,172.104 L155.532,172.104 L155.532,180 L152.732,180 L152.732,160.372 Z M155.532,162.808 L155.532,169.752 L157.8,169.752 C160.376,169.752 161.804,168.688 161.804,166.224 C161.804,163.76 160.348,162.808 157.688,162.808 L155.532,162.808 Z" id="०.०४७५-1-MNR" fill="#000000"></path>
                </g>
            </g>
            <path d="M122.903,134.406 L119.042,135.189 L117.125,129.519 C116.342,129.87 115.424,130.14 114.182,130.14 C110.537,130.14 108.269,127.764 108.269,124.173 C108.269,121.149 109.592,118.557 111.293,116.424 L114.425,118.395 C113.183,119.826 112.049,121.959 112.049,124.038 C112.049,126.009 113.021,126.819 114.452,126.819 C115.613,126.819 116.153,126.441 116.396,126.225 L115.802,123.444 L118.232,122.553 C119.447,123.552 120.554,124.74 120.554,125.901 C120.554,126.846 120.311,127.467 119.744,128.142 L122.903,134.406 Z M130.166,136.62 L127.466,136.62 L138.509,114.48 L141.209,114.48 L130.166,136.62 Z M132.407,120.366 C132.407,123.417 130.139,125.01 127.547,125.01 C124.928,125.01 122.633,123.417 122.633,120.366 C122.633,117.315 124.928,115.722 127.547,115.722 C130.139,115.722 132.407,117.315 132.407,120.366 Z M125.657,120.366 C125.657,121.338 126.224,122.229 127.547,122.229 C128.816,122.229 129.383,121.338 129.383,120.366 C129.383,119.394 128.816,118.503 127.547,118.503 C126.224,118.503 125.657,119.394 125.657,120.366 Z M145.934,130.734 C145.934,133.785 143.666,135.378 141.074,135.378 C138.455,135.378 136.16,133.785 136.16,130.734 C136.16,127.683 138.455,126.09 141.074,126.09 C143.666,126.09 145.934,127.683 145.934,130.734 Z M139.184,130.734 C139.184,131.706 139.751,132.597 141.074,132.597 C142.343,132.597 142.91,131.706 142.91,130.734 C142.91,129.762 142.343,128.871 141.074,128.871 C139.751,128.871 139.184,129.762 139.184,130.734 Z" id="५%" fill="#000000" fill-rule="nonzero"></path>
            <g id="diskon" transform="translate(111.000000, 148.000000)" fill="#000000" fill-rule="nonzero">
                <path d="M8.169,15.609 C4.466,15.609 2.327,13.493 2.327,11.124 C2.327,9.261 3.339,8.364 4.282,8.019 L4.282,7.927 C2.741,7.674 1.913,6.524 1.913,5.144 C1.913,4.178 2.304,3.557 2.718,3.166 L2.718,3.074 L0.073,3.074 L0.073,0.567 L17.53,0.567 L17.53,3.074 L14.034,3.074 L14.034,4.96 C15.276,5.581 16.058,6.823 16.058,8.64 C16.058,12.021 13.091,15.609 8.169,15.609 Z M12.355,9.031 L10.423,10.825 C9.526,10.503 8.353,9.56 8.353,7.835 C8.353,6.34 9.388,5.075 10.998,4.684 L10.998,3.074 L7.249,3.074 C5.869,3.074 5.271,3.948 5.271,4.937 C5.271,5.903 5.869,6.639 7.065,6.639 L7.824,6.639 L7.824,9.261 C7.686,9.261 7.548,9.261 7.433,9.284 C6.099,9.399 5.639,10.112 5.639,10.986 C5.639,12.067 6.605,12.918 8.468,12.918 C11.113,12.918 13.206,10.917 13.206,8.594 C13.206,7.513 12.746,7.076 12.148,7.076 C11.688,7.076 11.343,7.398 11.343,7.881 C11.343,8.456 11.734,8.824 12.355,9.031 Z M14.494,22.555 L11.711,23.337 C11.182,20.439 9.411,18.438 7.778,18.438 C7.134,18.438 6.651,18.829 6.651,19.45 C6.651,20.002 7.042,20.393 7.686,20.393 C8.146,20.393 8.629,20.209 9.02,19.979 L9.02,22.532 C8.445,22.831 7.778,22.923 7.18,22.923 C5.133,22.923 3.753,21.451 3.753,19.542 C3.753,17.403 5.455,15.977 7.778,15.977 C11.688,15.977 14.034,19.795 14.494,22.555 Z M16.15,3.074 L16.15,0.567 L29.927,0.567 L29.927,3.074 L26.914,3.074 L26.914,6.938 L23.579,7.789 C21.141,8.41 20.796,9.261 20.796,10.411 C20.796,11.446 21.555,12.642 23.533,12.642 C25.005,12.642 26.247,12.182 27.581,10.779 L29.145,13.378 C27.512,14.942 25.695,15.425 23.924,15.425 C20.198,15.425 17.691,12.803 17.691,9.79 C17.691,7.375 18.956,5.995 21.854,5.19 L23.602,4.707 L23.602,3.074 L16.15,3.074 Z" id="छूट"></path>
            </g>
            <g id="Aug.-29-—-Sept.-10" transform="translate(31.000000, 0.000000)" fill="#000000" fill-rule="nonzero">
                <path d="M0.4875,16.275 C0.4875,15.875 0.5625,15.55 0.6875,15.25 L2.4125,14 L4.2625,16 C6.1375,15.725 7.5375,14.825 7.5375,13.125 C7.5375,11.7 6.5375,11.1 5.2875,11.1 C4.5875,11.1 3.8125,11.25 3.1375,11.675 L1.5625,8.725 C2.5125,8.225 3.8875,7.975 5.1125,7.975 C8.2625,7.975 10.8375,9.85 10.8375,13.1 C10.8375,16.375 8.3375,17.975 5.9875,18.55 L9.7375,23.775 L6.4375,24.9 L3.3625,19.25 C1.5375,18.975 0.4875,17.675 0.4875,16.275 Z M22.0375,25 L18.6375,25 L18.6375,24.825 C19.0875,24.225 19.3375,23.5 19.3375,22.8 C19.3375,22.1 19.1125,21.35 18.6125,20.825 L14.5625,16.45 C13.5125,15.325 12.9625,13.9 12.9625,12.625 C12.9625,9.875 14.8125,7.925 17.9375,7.925 C20.8375,7.925 22.7375,10 22.7375,12.55 C22.7375,15.175 20.9625,16.525 19.1875,16.975 L21.4875,19.425 C22.2375,20.325 22.7375,21.375 22.7375,22.55 C22.7375,23.4 22.4875,24.25 22.0375,25 Z M16.3125,12.65 C16.3125,13.4 16.6625,14.05 17.0375,14.6 C18.5375,14.525 19.4625,13.8 19.4625,12.575 C19.4625,11.55 18.8875,10.95 17.9125,10.95 C16.9875,10.95 16.3125,11.6 16.3125,12.65 Z M49.6375,8.225 L49.6375,10.95 L47.0125,10.95 L47.0125,25 L43.4875,25 L43.4875,19.1 C43.1625,19.2 42.7875,19.275 42.3625,19.275 C41.9125,19.275 41.5125,19.175 41.1375,19.025 L41.1375,19.175 C41.1375,22 39.0125,24.075 35.6125,24.075 C32.3375,24.075 30.6375,22.3 30.0125,21.375 L32.4375,19.15 C32.9625,20.075 34.0375,21.15 35.6625,21.15 C36.9875,21.15 37.7625,20.35 37.7625,19.25 C37.7625,18.175 36.9875,17.525 35.3875,17.525 L34.0375,17.525 L34.0375,14.6 L34.9125,14.6 C36.4375,14.6 37.0625,13.8 37.0625,12.675 C37.0625,11.7 36.3875,11.025 35.3125,11.025 C34.3125,11.025 33.6375,11.5 33.1625,12.275 L30.9625,10.2 C31.7625,9.05 33.3375,8.1 35.4125,8.1 C38.3375,8.1 40.2875,9.775 40.2875,12.325 C40.2875,13.75 39.6375,14.975 38.4625,15.55 L38.4625,15.65 C38.7375,15.7 39.0375,15.8 39.3125,15.95 L39.3375,15.95 C39.3875,16 39.4375,16.025 39.4875,16.05 C40.1625,16.4 40.8625,16.55 41.4875,16.55 C42.3625,16.55 43.0125,16.375 43.4875,16.125 L43.4875,10.95 L41.5375,10.95 L41.5375,8.225 L49.6375,8.225 Z M58.4375,25 L58.4375,10.95 L55.1625,10.95 L55.1625,20.8 L51.8125,20.8 C50.3125,19.725 49.7875,17.875 49.7875,16.675 L51.7125,15.25 L51.7125,10.95 L48.1375,10.95 L48.1375,8.225 L64.5375,8.225 L64.5375,10.95 L61.9125,10.95 L61.9125,25 L58.4375,25 Z M74.2375,15.875 C75.3375,15.875 76.4375,15.625 77.1875,14.975 C78.2125,13.7 79.8125,13.175 81.3125,13.175 L84.4375,13.175 L84.4375,10.95 L72.8875,10.95 L72.8875,14.875 C72.8875,15.175 72.8625,15.475 72.8125,15.75 C73.2125,15.825 73.6625,15.875 74.2375,15.875 Z M69.4625,18.575 L69.4625,18.675 C69.9875,19.2 70.4875,19.725 71.4875,20.925 L73.7875,23.675 L70.9125,25.475 L63.8125,16.725 L66.4625,14.625 C67.1625,15.575 67.6375,16.025 68.3625,16.025 C68.9375,16.025 69.3875,15.7 69.3875,14.8 L69.3875,10.95 L63.0375,10.95 L63.0375,8.225 L90.6125,8.225 L90.6125,10.95 L87.9625,10.95 L87.9625,25 L84.4375,25 L84.4375,16.2 L81.9375,16.2 C80.7625,16.2 79.7625,16.825 79.7625,18.35 C79.7625,20.25 80.8625,21.875 82.6375,23.125 L80.1125,25.325 C78.3625,24.125 76.4125,21.825 76.1875,18.8 C75.7125,18.9 75.2125,18.95 74.7125,18.95 C73.2875,18.95 72.2375,18.6 71.3875,17.975 C71.0375,18.2 70.6375,18.35 70.2125,18.45 C69.9625,18.5 69.7125,18.55 69.4625,18.575 Z M91.2125,17.45 L100.5125,17.45 L100.5125,20.375 L91.2125,20.375 L91.2125,17.45 Z M110.5875,25 L107.3375,25 L107.3375,24.725 C107.6375,24.35 107.7625,23.75 107.7625,23.35 C107.7625,22.65 107.5375,22 103.5125,19.4 L103.5125,17.625 C104.9875,17.025 106.1125,16.4 106.9625,15.8 C105.1375,15.75 103.2375,14.2 103.2375,12.075 C103.2375,9.65 104.9875,7.925 107.7125,7.925 C110.4125,7.925 112.3625,9.8 112.3625,12.325 C112.3625,15.275 110.1875,17.575 107.5125,18.95 C110.6625,21.125 111.1625,22 111.1625,23.225 C111.1625,23.85 110.9125,24.5 110.5875,25 Z M108.6375,14.15 C109.0375,13.55 109.2125,12.925 109.2125,12.3 C109.2125,11.4 108.7375,10.8 107.7625,10.8 C106.8875,10.8 106.3625,11.375 106.3625,12.3 C106.3625,13.45 107.5125,14.15 108.6375,14.15 Z M114.6125,15.95 C114.6125,12.975 116.6125,11.05 119.5875,11.05 C122.5625,11.05 124.5875,12.975 124.5875,15.95 C124.5875,18.925 122.5625,20.85 119.5875,20.85 C116.6125,20.85 114.6125,18.925 114.6125,15.95 Z M117.7125,15.95 C117.7125,17.275 118.4625,18.075 119.5875,18.075 C120.7125,18.075 121.4875,17.275 121.4875,15.95 C121.4875,14.625 120.7125,13.825 119.5875,13.825 C118.4625,13.825 117.7125,14.625 117.7125,15.95 Z M149.1125,15.875 C149.8375,15.875 150.5625,15.775 151.1875,15.5 L151.1875,10.95 L147.7625,10.95 L147.7625,14.8 C147.7625,15.15 147.7375,15.45 147.6875,15.725 C148.0625,15.825 148.5375,15.875 149.1125,15.875 Z M144.3375,18.575 L144.3375,18.675 C144.8625,19.2 145.3625,19.725 146.3625,20.925 L148.6625,23.675 L145.7875,25.475 L138.6875,16.725 L141.3375,14.625 C142.1125,15.625 142.5125,16.025 143.2375,16.025 C143.8125,16.025 144.2625,15.675 144.2625,14.775 L144.2625,10.95 L137.9125,10.95 L137.9125,8.225 L157.3875,8.225 L157.3875,10.95 L154.7625,10.95 L154.7625,25 L151.1875,25 L151.1875,18.775 C150.6625,18.9 150.1375,18.95 149.5875,18.95 C148.1625,18.95 147.1125,18.6 146.2625,17.975 C145.7625,18.275 145.1875,18.475 144.5625,18.55 C144.4875,18.55 144.4125,18.575 144.3375,18.575 Z M139.4125,10.95 L136.7875,10.95 L136.7875,25 L133.2625,25 L133.2625,10.95 L130.6375,10.95 L130.6375,8.225 L133.2625,8.225 L133.2625,6.9 C133.2625,3.1 136.1375,0.825 141.7875,0.825 C147.5375,0.825 152.0625,3.275 153.8125,4.775 L152.0875,7.025 C150.0375,5.325 146.1125,3.825 141.7375,3.825 C138.0625,3.825 136.7875,4.925 136.7875,6.875 L136.7875,8.225 L139.4125,8.225 L139.4125,10.95 Z M164.1875,23.125 L161.6625,25.325 C159.7875,24.05 157.7125,21.525 157.7125,18.225 C157.7125,14.55 160.4375,13.175 162.8625,13.175 L165.9875,13.175 L165.9875,10.95 L155.8875,10.95 L155.8875,8.225 L172.1625,8.225 L172.1625,10.95 L169.5125,10.95 L169.5125,25 L165.9875,25 L165.9875,16.2 L163.4875,16.2 C162.3125,16.2 161.3125,16.825 161.3125,18.35 C161.3125,20.25 162.4125,21.875 164.1875,23.125 Z M165.5625,4.175 C165.5625,2.875 166.5125,1.925 167.7125,1.925 C168.9875,1.925 169.9375,2.875 169.9375,4.175 C169.9375,5.35 168.9875,6.3 167.7125,6.3 C166.5125,6.3 165.5625,5.35 165.5625,4.175 Z M184.2875,10.95 L184.2875,25 L180.7375,25 L180.7375,21.475 L180.6375,21.475 C180.0125,22.1 178.7875,22.625 177.3625,22.625 C174.2875,22.625 172.1375,20.45 172.1375,17.475 C172.1375,14.1 174.7875,12.15 177.3375,12.15 C178.1375,12.15 178.5875,12.2 179.2625,12.375 L179.4375,15.325 C178.8375,15.125 178.2875,15.075 177.7625,15.075 C177.3875,15.075 177.0125,15.15 176.6875,15.325 L180.4375,18.15 C180.6625,17.75 180.7625,17.275 180.7625,16.8 L180.7625,10.95 L170.6375,10.95 L170.6375,8.225 L186.9125,8.225 L186.9125,10.95 L184.2875,10.95 Z M177.8875,19.825 C178.4625,19.825 178.9875,19.65 179.4375,19.35 L175.6125,16.475 C175.5125,16.75 175.4375,17.05 175.4375,17.4 C175.4375,18.85 176.5625,19.825 177.8875,19.825 Z M192.0375,18.5 L192.0375,18.6 C192.5625,19.125 193.0625,19.65 194.0625,20.85 L196.3625,23.6 L193.4875,25.4 L186.2625,16.5 L188.9125,14.4 C189.6875,15.525 190.2125,15.95 190.9375,15.95 C191.5125,15.95 191.9625,15.625 191.9625,14.725 L191.9625,10.95 L185.4125,10.95 L185.4125,8.225 L197.9375,8.225 L197.9375,10.95 L195.4625,10.95 L195.4625,14.8 C195.4625,17.25 194.0125,18.25 192.2625,18.475 C192.1875,18.475 192.1125,18.5 192.0375,18.5 Z" id="२९-अगस्त-१०-सितंबर"></path>
            </g>
            <path d="M79.612,198.752 L77.176,198.752 L77.232,194.916 C74.292,194.72 72.584,193.516 71.744,192.816 L73.368,190.604 C74.292,191.444 76.084,192.508 78.324,192.508 C80.844,192.508 81.88,191.332 81.88,189.848 C81.88,188.252 80.564,187.524 78.492,186.6 L76.784,185.844 C74.32,184.752 72.724,183.296 72.724,180.748 C72.724,177.92 74.88,176.072 77.624,175.652 L77.568,171.872 L80.004,171.872 L79.948,175.596 C82.356,175.82 83.728,176.884 84.232,177.332 L82.524,179.404 C81.684,178.592 80.228,178.004 78.772,178.004 C76.756,178.004 75.552,178.984 75.552,180.552 C75.552,182.12 76.812,182.932 78.716,183.8 L80.228,184.5 C82.86,185.732 84.708,186.88 84.708,189.596 C84.708,192.004 83.028,194.328 79.556,194.832 L79.612,198.752 Z" id="$" fill="#000000"></path>
        </g>
    </g>
</svg>