<?xml version="1.0" encoding="UTF-8"?>
<svg width="250px" height="298px" viewBox="0 0 250 298" version="1.1" xmlns="http://www.w3.org/2000/svg" xmlns:xlink="http://www.w3.org/1999/xlink">
    <!-- Generator: Sketch 48.2 (47327) - http://www.bohemiancoding.com/sketch -->
    <title>text_0</title>
    <desc>Created with Sketch.</desc>
    <defs>
        <radialGradient cx="100%" cy="100%" fx="100%" fy="100%" r="50.0301469%" gradientTransform="translate(1.000000,1.000000),translate(-1.000000,-1.000000)" id="radialGradient-1">
            <stop stop-color="#8800FF" offset="0%"></stop>
            <stop stop-color="#8600FB" offset="71.050849%"></stop>
            <stop stop-color="#EB00FE" offset="100%"></stop>
        </radialGradient>
    </defs>
    <g id="Page-1" stroke="none" stroke-width="1" fill="none" fill-rule="evenodd">
        <g id="text_0" transform="translate(-2.000000, -1.000000)">
            <path d="M126.534208,49.7629689 C134.711116,49.7630043 142.809466,50.5606594 150.829249,52.1559305 C158.849031,53.7512051 166.636136,56.1134456 174.190582,59.2426509 C181.745051,62.3718515 188.921705,66.2078968 195.720557,70.7507781 C202.519385,75.2936634 208.80975,80.4560958 214.591686,86.2380753 C220.373622,92.0200542 225.535985,98.3104899 230.078816,105.109372 C234.621648,111.908265 238.457622,119.08496 241.586764,126.639458 C244.715941,134.193974 247.078181,141.981143 248.673414,150.000966 C250.268642,158.020783 251.066241,166.119169 251.066241,174.296094 C251.066206,182.473078 250.268572,190.571493 248.673269,198.591345 C247.078041,206.611197 244.715802,214.398378 241.586549,221.952916 C238.457372,229.507449 234.621334,236.684162 230.078462,243.483043 C225.535595,250.28193 220.373157,256.572364 214.591151,262.354352 C208.80918,268.13634 202.518781,273.298762 195.719865,277.841645 C188.920978,282.384512 181.744289,286.220539 174.189785,289.349698 C166.635281,292.478892 158.848106,294.841098 150.828289,296.436348 C142.808455,298.031593 134.710069,298.82921 126.533126,298.82921 C118.356143,298.829175 110.257746,298.031523 102.237911,296.436238 C94.218059,294.840975 86.430861,292.478736 78.876322,289.349518 C71.321783,286.220324 64.145077,282.384285 57.34619,277.841413 C50.547297,273.298529 44.256863,268.136108 38.4748864,262.35412 C32.6929041,256.572155 27.5304769,250.281714 22.9876108,243.482834 C18.4447331,236.683947 14.6087116,229.507257 11.4795232,221.952736 C8.3503348,214.398232 5.988124,206.611075 4.3928848,198.591257 C2.7976225,190.571423 2,182.473037 2,174.296094 C2.0000291,166.119128 2.7976806,158.020731 4.3929546,150.000867 C5.9882286,141.981015 8.3504685,134.193829 11.4796744,126.639301 C14.6088802,119.084774 18.4449307,111.908062 22.9878143,105.109169 C27.530692,98.3102771 32.693125,92.0198327 38.4751074,86.2378532 C44.2570955,80.4558697 50.54753,75.2934419 57.346405,70.7505694 C64.145286,66.2076974 71.321999,62.3716695 78.876502,59.2424863 C86.431,56.1133037 94.218181,53.7510899 102.237998,52.1558462 C110.257815,50.5605977 118.356195,49.7629735 126.533126,49.7629735 L126.533022,105.802874 C122.03573,105.802903 117.581648,106.241612 113.170768,107.119019 C108.759883,107.996413 104.476984,109.295645 100.32202,111.016702 C96.167055,112.737771 92.219913,114.847601 88.480547,117.346188 C84.741187,119.844775 81.281486,122.684113 78.10142,125.864202 C74.921355,129.044291 72.082034,132.504033 69.583482,136.24341 C67.084925,139.982799 64.975123,143.929982 63.254083,148.084958 C61.533055,152.239934 60.233841,156.522874 59.356458,160.933789 C58.479104,165.344668 58.040424,169.798791 58.040407,174.296112 C58.040424,178.793432 58.479139,183.247573 59.356545,187.658487 C60.233928,192.069408 61.53316,196.352347 63.254223,200.507341 C64.975303,204.66234 67.085116,208.609523 69.583709,212.348918 C72.082302,216.088319 74.921639,219.548072 78.101723,222.728155 C81.281817,225.908238 84.741559,228.747576 88.480937,231.246169 C92.22032,233.744721 96.167497,235.85454 100.322479,237.575603 C104.477461,239.29666 108.7604,240.595892 113.171297,241.473281 C117.5822,242.350646 122.0363,242.789332 126.533621,242.789332 C131.030947,242.789314 135.485081,242.350611 139.896019,241.473228 C144.306916,240.595822 148.589873,239.29659 152.744873,237.57551 C156.899872,235.854453 160.847049,233.744634 164.58645,231.246041 C168.325827,228.747448 171.785569,225.908116 174.965664,222.728033 C178.145764,219.54795 180.985102,216.088208 183.483695,212.348813 C185.98227,208.609413 188.092083,204.662236 189.813129,200.507254 C191.534168,196.352272 192.8334,192.069332 193.710789,187.658435 C194.588172,183.24752 195.026857,178.793415 195.02684,174.296112 C195.026823,169.798791 194.588119,165.344651 193.710736,160.933736 C192.83333,156.522816 191.534099,152.239859 189.813018,148.084865 C188.091979,143.929871 185.982159,139.982683 183.483567,136.243294 C180.98498,132.503905 178.145625,129.044169 174.965542,125.86408 C171.785459,122.683985 168.325723,119.844659 164.586322,117.346078 C160.846927,114.847491 156.899744,112.737678 152.744762,111.016626 C148.589786,109.295575 144.306846,107.996349 139.895961,107.11896 C135.485047,106.241577 131.030947,105.802886 126.533621,105.802886 L126.534208,49.7629689 Z" id="Fill-8" fill="url(#radialGradient-1)" fill-rule="nonzero"></path>
            <circle id="Oval" fill="#FFFFFF" fill-rule="nonzero" cx="127.65842" cy="175.421389" r="87.3982442"></circle>
            <path d="M112.98,200.752 L110.544,200.752 L110.6,196.916 C107.66,196.72 105.952,195.516 105.112,194.816 L106.736,192.604 C107.66,193.444 109.452,194.508 111.692,194.508 C114.212,194.508 115.248,193.332 115.248,191.848 C115.248,190.252 113.932,189.524 111.86,188.6 L110.152,187.844 C107.688,186.752 106.092,185.296 106.092,182.748 C106.092,179.92 108.248,178.072 110.992,177.652 L110.936,173.872 L113.372,173.872 L113.316,177.596 C115.724,177.82 117.096,178.884 117.6,179.332 L115.892,181.404 C115.052,180.592 113.596,180.004 112.14,180.004 C110.124,180.004 108.92,180.984 108.92,182.552 C108.92,184.12 110.18,184.932 112.084,185.8 L113.596,186.5 C116.228,187.732 118.076,188.88 118.076,191.596 C118.076,194.004 116.396,196.328 112.924,196.832 L112.98,200.752 Z M121.228,186.948 C121.228,186.696 121.256,186.332 121.34,186.108 L122.796,185.128 L124.784,187.452 C127.108,187.228 128.984,186.024 128.984,183.868 C128.984,181.964 127.668,180.928 125.96,180.928 C124.952,180.928 124.056,181.18 123.272,181.74 L121.9,179.612 C122.936,178.912 124.28,178.52 125.848,178.52 C129.04,178.52 131.56,180.564 131.56,183.84 C131.56,187.34 128.816,189.076 126.128,189.58 L130.048,195.684 L127.304,196.44 L124.084,190.056 C122.32,189.804 121.228,188.376 121.228,186.948 Z M148.628,196.608 L145.772,197.168 L143.588,190.896 C142.888,191.26 141.908,191.624 140.312,191.624 C137.232,191.624 134.88,189.58 134.88,186.192 C134.88,183.336 136.196,180.676 138.156,178.436 L140.368,179.808 C138.604,181.684 137.54,183.98 137.54,186.08 C137.54,188.152 138.744,189.244 140.424,189.244 C141.796,189.244 142.552,188.88 143,188.516 L142.412,185.604 L144.204,184.876 C145.184,185.856 146.164,186.92 146.164,188.04 C146.164,188.74 146.024,189.3 145.492,189.916 L148.628,196.608 Z M91.768,212.576 L94.624,212.576 L94.624,231 L91.88,231 L91.88,220.416 L91.992,215.376 L91.88,215.376 L89.724,217.056 L87.792,218.4 L86.252,216.216 L91.768,212.576 Z M118.008,224.364 L118.148,224.364 L123.216,211.372 L127.612,211.372 L127.612,231 L124.868,231 L124.868,214.704 L124.728,214.704 C122.964,219.212 121.116,223.832 119.352,228.312 L116.636,228.312 L111.288,214.704 L111.12,214.704 L111.12,231 L108.46,231 L108.46,211.372 L112.94,211.372 L118.008,224.364 Z M135.552,214.816 L135.384,214.816 C135.468,216.58 135.524,218.12 135.524,220.5 L135.524,231 L132.808,231 L132.808,211.372 L136.532,211.372 L142.384,222.432 C143.196,224 144.092,225.708 144.792,227.304 L144.96,227.304 C144.876,225.232 144.876,223.16 144.876,221.396 L144.876,211.372 L147.536,211.372 L147.536,231 L143.896,231 L137.904,219.716 C137.064,218.12 136.336,216.524 135.552,214.816 Z M152.732,211.372 L158.08,211.372 C162.224,211.372 164.688,212.996 164.688,216.972 C164.688,220.248 162.672,222.04 160.348,222.348 L160.348,222.46 C161.188,222.852 161.888,223.524 162.784,225.092 L166.228,231 L162.84,231 L159.368,224.7 C158.752,223.58 157.968,223.104 156.68,223.104 L155.532,223.104 L155.532,231 L152.732,231 L152.732,211.372 Z M155.532,213.808 L155.532,220.752 L157.8,220.752 C160.376,220.752 161.804,219.688 161.804,217.224 C161.804,214.76 160.348,213.808 157.688,213.808 L155.532,213.808 Z" id="$२५-1-MNR" fill="#000000"></path>
            <g id="discount" transform="translate(2.000000, 103.000000)">
                <path d="M115.4425,27.406 L111.5815,28.189 L109.6645,22.519 C108.8815,22.87 107.9635,23.14 106.7215,23.14 C103.0765,23.14 100.8085,20.764 100.8085,17.173 C100.8085,14.149 102.1315,11.557 103.8325,9.424 L106.9645,11.395 C105.7225,12.826 104.5885,14.959 104.5885,17.038 C104.5885,19.009 105.5605,19.819 106.9915,19.819 C108.1525,19.819 108.6925,19.441 108.9355,19.225 L108.3415,16.444 L110.7715,15.553 C111.9865,16.552 113.0935,17.74 113.0935,18.901 C113.0935,19.846 112.8505,20.467 112.2835,21.142 L115.4425,27.406 Z M115.7395,18.226 C115.7395,15.013 117.8995,12.934 121.1125,12.934 C124.3255,12.934 126.5125,15.013 126.5125,18.226 C126.5125,21.439 124.3255,23.518 121.1125,23.518 C117.8995,23.518 115.7395,21.439 115.7395,18.226 Z M119.0875,18.226 C119.0875,19.657 119.8975,20.521 121.1125,20.521 C122.3275,20.521 123.1645,19.657 123.1645,18.226 C123.1645,16.795 122.3275,15.931 121.1125,15.931 C119.8975,15.931 119.0875,16.795 119.0875,18.226 Z M132.8575,27.217 L131.1295,25.516 L146.7895,9.667 L148.5445,11.368 L132.8575,27.217 Z M150.4345,22.978 C150.4345,26.515 148.6525,28.243 145.7365,28.243 C142.7935,28.243 141.2005,26.677 141.2005,23.14 C141.2005,19.792 142.9825,17.956 145.8985,17.956 C148.8145,17.956 150.4345,19.603 150.4345,22.978 Z M145.8445,25.948 C147.0325,25.948 147.4645,25.084 147.4645,23.113 C147.4645,21.169 146.8975,20.251 145.7365,20.251 C144.6835,20.251 144.1705,21.142 144.1705,23.113 C144.1705,25.057 144.8185,25.948 145.8445,25.948 Z M133.5325,16.822 C134.7205,16.822 135.1525,15.958 135.1525,13.987 C135.1525,12.043 134.5855,11.125 133.4245,11.125 C132.3715,11.125 131.8585,12.016 131.8585,13.987 C131.8585,15.931 132.5065,16.822 133.5325,16.822 Z M138.1225,13.852 C138.1225,17.389 136.3405,19.117 133.4245,19.117 C130.4815,19.117 128.8885,17.551 128.8885,14.014 C128.8885,10.666 130.6705,8.83 133.5865,8.83 C136.5025,8.83 138.1225,10.477 138.1225,13.852 Z" id="५०%" fill="#6202E1"></path>
                <path d="M118.669,56.609 C114.966,56.609 112.827,54.493 112.827,52.124 C112.827,50.261 113.839,49.364 114.782,49.019 L114.782,48.927 C113.241,48.674 112.413,47.524 112.413,46.144 C112.413,45.178 112.804,44.557 113.218,44.166 L113.218,44.074 L110.573,44.074 L110.573,41.567 L128.03,41.567 L128.03,44.074 L124.534,44.074 L124.534,45.96 C125.776,46.581 126.558,47.823 126.558,49.64 C126.558,53.021 123.591,56.609 118.669,56.609 Z M122.855,50.031 L120.923,51.825 C120.026,51.503 118.853,50.56 118.853,48.835 C118.853,47.34 119.888,46.075 121.498,45.684 L121.498,44.074 L117.749,44.074 C116.369,44.074 115.771,44.948 115.771,45.937 C115.771,46.903 116.369,47.639 117.565,47.639 L118.324,47.639 L118.324,50.261 C118.186,50.261 118.048,50.261 117.933,50.284 C116.599,50.399 116.139,51.112 116.139,51.986 C116.139,53.067 117.105,53.918 118.968,53.918 C121.613,53.918 123.706,51.917 123.706,49.594 C123.706,48.513 123.246,48.076 122.648,48.076 C122.188,48.076 121.843,48.398 121.843,48.881 C121.843,49.456 122.234,49.824 122.855,50.031 Z M124.994,63.555 L122.211,64.337 C121.682,61.439 119.911,59.438 118.278,59.438 C117.634,59.438 117.151,59.829 117.151,60.45 C117.151,61.002 117.542,61.393 118.186,61.393 C118.646,61.393 119.129,61.209 119.52,60.979 L119.52,63.532 C118.945,63.831 118.278,63.923 117.68,63.923 C115.633,63.923 114.253,62.451 114.253,60.542 C114.253,58.403 115.955,56.977 118.278,56.977 C122.188,56.977 124.534,60.795 124.994,63.555 Z M126.65,44.074 L126.65,41.567 L140.427,41.567 L140.427,44.074 L137.414,44.074 L137.414,47.938 L134.079,48.789 C131.641,49.41 131.296,50.261 131.296,51.411 C131.296,52.446 132.055,53.642 134.033,53.642 C135.505,53.642 136.747,53.182 138.081,51.779 L139.645,54.378 C138.012,55.942 136.195,56.425 134.424,56.425 C130.698,56.425 128.191,53.803 128.191,50.79 C128.191,48.375 129.456,46.995 132.354,46.19 L134.102,45.707 L134.102,44.074 L126.65,44.074 Z" id="छूट" fill="#000000"></path>
            </g>
            <g id="10-Mei---10-Juni" transform="translate(2.000000, 0.000000)" fill="#000000">
                <path d="M72.775,26 L69.325,26 L69.325,19.775 L65.65,19.775 L65.65,22.275 L63,22.275 C61.575,21.225 60.925,19.175 60.925,17.975 L62.325,16.875 L62.325,11.95 L58.7,11.95 L58.7,9.225 L75.4,9.225 L75.4,11.95 L72.775,11.95 L72.775,26 Z M69.325,11.95 L65.775,11.95 L65.775,16.7 L69.325,16.7 L69.325,11.95 Z M85.55,4.55 C84.5,4.55 83.825,5.225 83.825,6.325 C83.825,7.35 84.55,8.475 85.65,9.225 L89.175,9.225 L89.175,11.95 L86,11.95 L86,16.1 L81.25,16.1 C79.8,16.1 79.725,16.5 79.725,17.025 C79.725,17.4 80.05,18.025 80.725,18.225 L84.8,17.25 C86.275,17.7 87.325,19.1 87.325,21.175 C87.325,23.225 85.825,24.725 83.65,25.15 L83.65,25.25 L87.875,27.75 L84.25,29.675 L79.8,25.775 C76.7,25.775 75.575,24.175 75.575,22.825 C75.575,21.825 76.1,21.1 76.925,20.725 L80.85,23.125 L81.2,23.125 C82.65,23.125 84.125,22.575 84.125,21.225 C84.125,20.8 83.9,20.45 83.725,20.35 L80.4,21.2 C77.6,20.275 76.175,18.075 76.175,16.05 C76.175,14.375 77.325,13.35 79.55,13.35 L82.55,13.35 L82.55,11.95 L73.9,11.95 L73.9,9.225 L82.55,9.225 L82.55,9.125 C81.625,8.525 80.7,7.4 80.7,5.65 C80.7,3.225 82.75,1.675 85.1,1.675 C86.325,1.675 87.2,1.875 87.9,2.175 L87.05,4.925 C86.55,4.675 86.025,4.55 85.55,4.55 Z M102.675,26 L99.425,26 L99.425,25.725 C99.725,25.35 99.85,24.75 99.85,24.35 C99.85,23.65 99.625,23 95.6,20.4 L95.6,18.625 C97.075,18.025 98.2,17.4 99.05,16.8 C97.225,16.75 95.325,15.2 95.325,13.075 C95.325,10.65 97.075,8.925 99.8,8.925 C102.5,8.925 104.45,10.8 104.45,13.325 C104.45,16.275 102.275,18.575 99.6,19.95 C102.75,22.125 103.25,23 103.25,24.225 C103.25,24.85 103,25.5 102.675,26 Z M100.725,15.15 C101.125,14.55 101.3,13.925 101.3,13.3 C101.3,12.4 100.825,11.8 99.85,11.8 C98.975,11.8 98.45,12.375 98.45,13.3 C98.45,14.45 99.6,15.15 100.725,15.15 Z M106.7,16.95 C106.7,13.975 108.7,12.05 111.675,12.05 C114.65,12.05 116.675,13.975 116.675,16.95 C116.675,19.925 114.65,21.85 111.675,21.85 C108.7,21.85 106.7,19.925 106.7,16.95 Z M109.8,16.95 C109.8,18.275 110.55,19.075 111.675,19.075 C112.8,19.075 113.575,18.275 113.575,16.95 C113.575,15.625 112.8,14.825 111.675,14.825 C110.55,14.825 109.8,15.625 109.8,16.95 Z M119.3,18.45 L128.6,18.45 L128.6,21.375 L119.3,21.375 L119.3,18.45 Z M136.575,17.15 L136.575,16.9 L137.925,14.425 L143.775,14.425 L143.775,11.95 L129.225,11.95 L129.225,9.225 L149.95,9.225 L149.95,11.95 L147.325,11.95 L147.325,26 L143.775,26 L143.775,17.175 L140.7,17.175 L140.7,17.275 C141.45,17.825 141.875,18.8 141.875,19.925 C141.875,22.375 140.075,24.05 137.35,24.05 C132.575,24.05 130.7,18.875 130.35,15.875 L133.5,14.275 C133.675,17.5 134.775,21.05 137.075,21.05 C137.9,21.05 138.525,20.55 138.525,19.55 C138.525,18.6 137.85,17.65 136.575,17.15 Z M153.55,32.875 L150.25,33.8 C149.65,30.25 147.65,27.975 145.625,27.975 C144.825,27.975 144.25,28.475 144.25,29.225 C144.25,29.95 144.825,30.425 145.55,30.425 C146.1,30.425 146.65,30.175 147.125,29.875 L147.125,32.875 C146.425,33.225 145.625,33.3 144.925,33.3 C142.5,33.3 140.925,31.575 140.925,29.35 C140.925,26.825 142.925,25.15 145.65,25.15 C150.25,25.15 153.075,29.525 153.55,32.875 Z M153.9,21.05 L152.25,21.85 C150.75,21.175 149.45,19.7 149.45,17 L151.875,15.275 L157.65,15.275 L157.65,11.95 L148.45,11.95 L148.45,9.225 L163.8,9.225 L163.8,11.95 L161.175,11.95 L161.175,26 L157.65,26 L157.65,18.3 L153.9,18.3 L153.9,21.05 Z M177.3,26 L174.05,26 L174.05,25.725 C174.35,25.35 174.475,24.75 174.475,24.35 C174.475,23.65 174.25,23 170.225,20.4 L170.225,18.625 C171.7,18.025 172.825,17.4 173.675,16.8 C171.85,16.75 169.95,15.2 169.95,13.075 C169.95,10.65 171.7,8.925 174.425,8.925 C177.125,8.925 179.075,10.8 179.075,13.325 C179.075,16.275 176.9,18.575 174.225,19.95 C177.375,22.125 177.875,23 177.875,24.225 C177.875,24.85 177.625,25.5 177.3,26 Z M175.35,15.15 C175.75,14.55 175.925,13.925 175.925,13.3 C175.925,12.4 175.45,11.8 174.475,11.8 C173.6,11.8 173.075,12.375 173.075,13.3 C173.075,14.45 174.225,15.15 175.35,15.15 Z M181.325,16.95 C181.325,13.975 183.325,12.05 186.3,12.05 C189.275,12.05 191.3,13.975 191.3,16.95 C191.3,19.925 189.275,21.85 186.3,21.85 C183.325,21.85 181.325,19.925 181.325,16.95 Z M184.425,16.95 C184.425,18.275 185.175,19.075 186.3,19.075 C187.425,19.075 188.2,18.275 188.2,16.95 C188.2,15.625 187.425,14.825 186.3,14.825 C185.175,14.825 184.425,15.625 184.425,16.95 Z" id="मई-१०-जून-१०"></path>
            </g>
        </g>
    </g>
</svg>