<?xml version="1.0" encoding="UTF-8"?>
<svg width="250px" height="292px" viewBox="0 0 250 292" version="1.1" xmlns="http://www.w3.org/2000/svg" xmlns:xlink="http://www.w3.org/1999/xlink">
    <!-- Generator: Sketch 48.2 (47327) - http://www.bohemiancoding.com/sketch -->
    <title>hin_2</title>
    <desc>Created with Sketch.</desc>
    <defs>
        <radialGradient cx="808.962429%" cy="800%" fx="808.962429%" fy="800%" r="101.454359%" gradientTransform="translate(8.089624,8.000000),scale(1.000000,0.999999),translate(-8.089624,-8.000000)" id="radialGradient-1">
            <stop stop-color="#FF9495" offset="0%"></stop>
            <stop stop-color="#FE5F60" offset="70.3742825%"></stop>
            <stop stop-color="#FF9091" offset="100%"></stop>
        </radialGradient>
        <radialGradient cx="200%" cy="200%" fx="200%" fy="200%" r="50.0301469%" gradientTransform="translate(2.000000,2.000000),scale(1.000000,1.000000),translate(-2.000000,-2.000000)" id="radialGradient-2">
            <stop stop-color="#8D00FF" offset="0%"></stop>
            <stop stop-color="#5C00FE" offset="69.8959662%"></stop>
            <stop stop-color="#8900FF" offset="100%"></stop>
        </radialGradient>
    </defs>
    <g id="Page-1" stroke="none" stroke-width="1" fill="none" fill-rule="evenodd">
        <g id="hin_2" transform="translate(-1.000000, 0.000000)">
            <g id="2-copy" transform="translate(0.000000, 41.000000)" fill-rule="nonzero">
                <g id="Group-2" transform="translate(126.066640, 125.762969) scale(-1, 1) translate(-126.066640, -125.762969) translate(0.566640, 0.762969)">
                    <path d="M0.773750896,124.873729 C0.773779989,116.689946 1.57209481,108.584814 3.16869536,100.558282 C4.76529591,92.5317607 7.12950015,84.7380986 10.2613081,77.1772896 C13.393116,69.6164805 17.2323564,62.4338 21.7790176,55.629254 C26.325673,48.8247085 31.4923987,42.5290333 37.2791891,36.7422459 C43.0659853,30.9554544 49.3616506,25.7887338 56.1661792,21.2420837 C62.9707136,16.6954341 70.153394,12.8562164 77.7141798,9.7244312 C85.2749598,6.59264654 93.068616,4.22846849 101.095102,2.6318982 C109.121588,1.03532325 117.226597,0.237031125 125.410328,0.237031125 L125.410328,56.3235362 C120.909297,56.3235653 116.451511,56.762639 112.036963,57.6407748 C107.62241,58.518899 103.33595,59.8192111 99.17753,61.5416993 C95.0191103,63.2641992 91.0686861,65.3757843 87.3262108,67.8764488 C83.5837413,70.3771134 80.1211632,73.2188123 76.9384532,76.4015455 C73.7557433,79.5842788 70.9140618,83.0468976 68.4134322,86.7893845 C65.9127968,90.5318831 63.8012407,94.482348 62.0787699,98.6407794 C60.3563108,102.799211 59.0560162,107.085712 58.1779036,111.500294 C57.2998202,115.914842 56.8607755,120.372669 56.8607581,124.873729 L0.773750896,124.873729 Z" id="Fill-8" fill="url(#radialGradient-1)"></path>
                    <path d="M125.475948,0.237031125 C133.652855,0.23706659 141.751206,1.03472162 149.770988,2.62999272 C157.790771,4.22526731 165.577876,6.58750783 173.132322,9.71671311 C180.68679,12.8459137 187.863445,16.6819591 194.662297,21.2248403 C201.461125,25.7677257 207.75149,30.9301581 213.533426,36.7121376 C219.315362,42.4941165 224.477725,48.7845522 229.020556,55.5834348 C233.563387,62.3823272 237.399362,69.5590225 240.528504,77.1135206 C243.657681,84.6680362 246.019921,92.4552054 247.615154,100.475028 C249.210382,108.494845 250.007981,116.593231 250.007981,124.770157 C250.007946,132.94714 249.210312,141.045555 247.615009,149.065407 C246.019781,157.085259 243.657541,164.87244 240.528289,172.426979 C237.399112,179.981512 233.563073,187.158224 229.020201,193.957105 C224.477335,200.755992 219.314897,207.046426 213.532891,212.828415 C207.75092,218.610403 201.460521,223.772824 194.661605,228.315708 C187.862718,232.858574 180.686029,236.694601 173.131525,239.823761 C165.577021,242.952955 157.789846,245.31516 149.770029,246.910411 C141.750195,248.505655 133.651809,249.303272 125.474866,249.303272 C117.297883,249.303237 109.199485,248.505586 101.179651,246.9103 C93.1597989,245.315038 85.3726007,242.952798 77.8180619,239.82358 C70.2635232,236.694386 63.0868163,232.858347 56.2879297,228.315475 C49.4890373,223.772592 43.1986028,218.61017 37.4166263,212.828182 C31.6346439,207.046217 26.4722168,200.755777 21.9293506,193.956896 C17.3864729,187.158009 13.5504514,179.98132 10.421263,172.426798 C7.29207463,164.872294 4.92986378,157.085137 3.33462466,149.06532 C1.73936229,141.045485 0.941739824,132.947099 0.941739824,124.770157 C0.941739824,124.770153 19.6218754,124.770159 56.9821467,124.770174 C56.9821641,129.267494 57.4208788,133.721635 58.2982851,138.132549 C59.175668,142.54347 60.4748997,146.826409 62.1959626,150.981403 C63.917043,155.136403 66.0268562,159.083585 68.5254489,162.82298 C71.0240415,166.562381 73.8633794,170.022135 77.0434624,173.202218 C80.2235571,176.382301 83.6832989,179.221639 87.4226764,181.720231 C91.1620597,184.218783 95.1092365,186.328602 99.2642186,188.049665 C103.419201,189.770722 107.70214,191.069954 112.113037,191.947343 C116.52394,192.824708 120.97804,193.263394 125.47536,193.263394 C129.972686,193.263377 134.426821,192.824673 138.837759,191.94729 C143.248656,191.069884 147.531613,189.770653 151.686613,188.049572 C155.841612,186.328515 159.788789,184.218696 163.52819,181.720103 C167.267567,179.221511 170.727309,176.382179 173.907404,173.202096 C177.087504,170.022012 179.926842,166.562271 182.425435,162.822876 C184.92401,159.083475 187.033823,155.136298 188.754868,150.981316 C190.475908,146.826334 191.77514,142.543394 192.652529,138.132497 C193.529912,133.721583 193.968597,129.267477 193.96858,124.770174 C193.968562,120.272854 193.529859,115.818713 192.652476,111.407799 C191.77507,106.996878 190.475838,102.713921 188.754758,98.5589274 C187.033718,94.4039337 184.923899,90.4567452 182.425307,86.7173561 C179.92672,82.977967 177.087365,79.5182309 173.907282,76.338142 C170.727198,73.1580474 167.267462,70.3187211 163.528062,67.8201401 C159.788667,65.3215532 155.841484,63.21174 151.686502,61.4906887 C147.531526,59.7696374 143.248586,58.4704115 138.837701,57.5930227 C134.426786,56.7156397 129.972686,56.2769482 125.47536,56.2769482 L125.475948,0.237031125 Z" id="Fill-8" fill="url(#radialGradient-2)"></path>
                </g>
                <circle id="Oval" fill="#FFFFFF" cx="124.90822" cy="125.671189" r="87.3982442"></circle>
            </g>
            <path d="M84.158,178.284 C84.158,175.204 86.174,173.104 89.254,173.104 C92.334,173.104 94.35,175.204 94.35,178.284 C94.35,181.336 92.306,183.408 89.226,183.408 C86.146,183.408 84.158,181.364 84.158,178.284 Z M86.594,178.284 C86.594,180.02 87.602,181.196 89.226,181.196 C90.878,181.196 91.914,179.992 91.914,178.284 C91.914,176.548 90.906,175.316 89.254,175.316 C87.602,175.316 86.594,176.548 86.594,178.284 Z M98.006,192.312 L97.362,191.08 C98.958,190.464 99.798,189.4 99.798,188.42 C99.798,187.244 98.678,186.712 97.642,186.152 L97.642,185.984 C97.642,184.864 98.454,183.968 99.658,183.968 C101.114,183.968 102.122,185.088 102.122,186.852 C102.122,189.764 99.854,191.696 98.006,192.312 Z M112.85,178.284 C112.85,175.204 114.866,173.104 117.946,173.104 C121.026,173.104 123.042,175.204 123.042,178.284 C123.042,181.336 120.998,183.408 117.918,183.408 C114.838,183.408 112.85,181.364 112.85,178.284 Z M115.286,178.284 C115.286,180.02 116.294,181.196 117.918,181.196 C119.57,181.196 120.606,179.992 120.606,178.284 C120.606,176.548 119.598,175.316 117.946,175.316 C116.294,175.316 115.286,176.548 115.286,178.284 Z M136.974,182.624 C136.974,185.368 134.986,187.16 131.878,187.16 C128.77,187.16 126.754,185.368 126.754,182.624 C126.754,180.44 128.182,179.012 129.862,177.78 C127.902,176.38 126.026,174.728 126.026,172.04 C126.026,170.948 126.278,170.248 126.586,169.716 L129.078,170.584 C128.854,170.948 128.658,171.508 128.658,172.152 C128.658,174 130.142,175.232 131.85,176.408 C133.558,175.232 135.042,174 135.042,172.152 C135.042,171.508 134.874,170.948 134.65,170.584 L137.142,169.716 C137.45,170.248 137.674,170.948 137.674,172.04 C137.674,174.728 135.798,176.38 133.838,177.78 C135.518,179.012 136.974,180.44 136.974,182.624 Z M131.878,184.948 C133.418,184.948 134.37,184.136 134.37,182.596 C134.37,181.224 133.278,180.188 131.85,179.18 C130.45,180.188 129.358,181.224 129.358,182.596 C129.358,184.136 130.31,184.948 131.878,184.948 Z M140.966,177.948 C140.966,177.696 140.994,177.332 141.078,177.108 L142.534,176.128 L144.522,178.452 C146.846,178.228 148.722,177.024 148.722,174.868 C148.722,172.964 147.406,171.928 145.698,171.928 C144.69,171.928 143.794,172.18 143.01,172.74 L141.638,170.612 C142.674,169.912 144.018,169.52 145.586,169.52 C148.778,169.52 151.298,171.564 151.298,174.84 C151.298,178.34 148.554,180.076 145.866,180.58 L149.786,186.684 L147.042,187.44 L143.822,181.056 C142.058,180.804 140.966,179.376 140.966,177.948 Z M168.366,187.608 L165.51,188.168 L163.326,181.896 C162.626,182.26 161.646,182.624 160.05,182.624 C156.97,182.624 154.618,180.58 154.618,177.192 C154.618,174.336 155.934,171.676 157.894,169.436 L160.106,170.808 C158.342,172.684 157.278,174.98 157.278,177.08 C157.278,179.152 158.482,180.244 160.162,180.244 C161.534,180.244 162.29,179.88 162.738,179.516 L162.15,176.604 L163.942,175.876 C164.922,176.856 165.902,177.92 165.902,179.04 C165.902,179.74 165.762,180.3 165.23,180.916 L168.366,187.608 Z M90.768,203.576 L93.624,203.576 L93.624,222 L90.88,222 L90.88,211.416 L90.992,206.376 L90.88,206.376 L88.724,208.056 L86.792,209.4 L85.252,207.216 L90.768,203.576 Z M117.008,215.364 L117.148,215.364 L122.216,202.372 L126.612,202.372 L126.612,222 L123.868,222 L123.868,205.704 L123.728,205.704 C121.964,210.212 120.116,214.832 118.352,219.312 L115.636,219.312 L110.288,205.704 L110.12,205.704 L110.12,222 L107.46,222 L107.46,202.372 L111.94,202.372 L117.008,215.364 Z M134.552,205.816 L134.384,205.816 C134.468,207.58 134.524,209.12 134.524,211.5 L134.524,222 L131.808,222 L131.808,202.372 L135.532,202.372 L141.384,213.432 C142.196,215 143.092,216.708 143.792,218.304 L143.96,218.304 C143.876,216.232 143.876,214.16 143.876,212.396 L143.876,202.372 L146.536,202.372 L146.536,222 L142.896,222 L136.904,210.716 C136.064,209.12 135.336,207.524 134.552,205.816 Z M151.732,202.372 L157.08,202.372 C161.224,202.372 163.688,203.996 163.688,207.972 C163.688,211.248 161.672,213.04 159.348,213.348 L159.348,213.46 C160.188,213.852 160.888,214.524 161.784,216.092 L165.228,222 L161.84,222 L158.368,215.7 C157.752,214.58 156.968,214.104 155.68,214.104 L154.532,214.104 L154.532,222 L151.732,222 L151.732,202.372 Z M154.532,204.808 L154.532,211.752 L156.8,211.752 C159.376,211.752 160.804,210.688 160.804,208.224 C160.804,205.76 159.348,204.808 156.688,204.808 L154.532,204.808 Z" id="०,-०४२५-1-MNR" fill="#000000" fill-rule="nonzero"></path>
            <path d="M109.9755,125 L106.4655,125 L106.4655,124.703 C106.7895,124.298 106.9245,123.65 106.9245,123.218 C106.9245,122.462 106.6815,121.76 102.3345,118.952 L102.3345,117.035 C103.9275,116.387 105.1425,115.712 106.0605,115.064 C104.0895,115.01 102.0375,113.336 102.0375,111.041 C102.0375,108.422 103.9275,106.559 106.8705,106.559 C109.7865,106.559 111.8925,108.584 111.8925,111.311 C111.8925,114.497 109.5435,116.981 106.6545,118.466 C110.0565,120.815 110.5965,121.76 110.5965,123.083 C110.5965,123.758 110.3265,124.46 109.9755,125 Z M107.8695,113.282 C108.3015,112.634 108.4905,111.959 108.4905,111.284 C108.4905,110.312 107.9775,109.664 106.9245,109.664 C105.9795,109.664 105.4125,110.285 105.4125,111.284 C105.4125,112.526 106.6545,113.282 107.8695,113.282 Z M128.8755,124.406 L125.0145,125.189 L123.0975,119.519 C122.3145,119.87 121.3965,120.14 120.1545,120.14 C116.5095,120.14 114.2415,117.764 114.2415,114.173 C114.2415,111.149 115.5645,108.557 117.2655,106.424 L120.3975,108.395 C119.1555,109.826 118.0215,111.959 118.0215,114.038 C118.0215,116.009 118.9935,116.819 120.4245,116.819 C121.5855,116.819 122.1255,116.441 122.3685,116.225 L121.7745,113.444 L124.2045,112.553 C125.4195,113.552 126.5265,114.74 126.5265,115.901 C126.5265,116.846 126.2835,117.467 125.7165,118.142 L128.8755,124.406 Z M132.8175,124.217 L131.0895,122.516 L146.7495,106.667 L148.5045,108.368 L132.8175,124.217 Z M150.3945,119.978 C150.3945,123.515 148.6125,125.243 145.6965,125.243 C142.7535,125.243 141.1605,123.677 141.1605,120.14 C141.1605,116.792 142.9425,114.956 145.8585,114.956 C148.7745,114.956 150.3945,116.603 150.3945,119.978 Z M145.8045,122.948 C146.9925,122.948 147.4245,122.084 147.4245,120.113 C147.4245,118.169 146.8575,117.251 145.6965,117.251 C144.6435,117.251 144.1305,118.142 144.1305,120.113 C144.1305,122.057 144.7785,122.948 145.8045,122.948 Z M133.4925,113.822 C134.6805,113.822 135.1125,112.958 135.1125,110.987 C135.1125,109.043 134.5455,108.125 133.3845,108.125 C132.3315,108.125 131.8185,109.016 131.8185,110.987 C131.8185,112.931 132.4665,113.822 133.4925,113.822 Z M138.0825,110.852 C138.0825,114.389 136.3005,116.117 133.3845,116.117 C130.4415,116.117 128.8485,114.551 128.8485,111.014 C128.8485,107.666 130.6305,105.83 133.5465,105.83 C136.4625,105.83 138.0825,107.477 138.0825,110.852 Z" id="१५%" fill="#000000" fill-rule="nonzero"></path>
            <g id="diskon" transform="translate(111.000000, 139.000000)" fill="#000000" fill-rule="nonzero">
                <path d="M8.208804,15.609 C4.505804,15.609 2.366804,13.493 2.366804,11.124 C2.366804,9.261 3.378804,8.364 4.321804,8.019 L4.321804,7.927 C2.780804,7.674 1.952804,6.524 1.952804,5.144 C1.952804,4.178 2.343804,3.557 2.757804,3.166 L2.757804,3.074 L0.112804,3.074 L0.112804,0.567 L17.569804,0.567 L17.569804,3.074 L14.073804,3.074 L14.073804,4.96 C15.315804,5.581 16.097804,6.823 16.097804,8.64 C16.097804,12.021 13.130804,15.609 8.208804,15.609 Z M12.394804,9.031 L10.462804,10.825 C9.565804,10.503 8.392804,9.56 8.392804,7.835 C8.392804,6.34 9.427804,5.075 11.037804,4.684 L11.037804,3.074 L7.288804,3.074 C5.908804,3.074 5.310804,3.948 5.310804,4.937 C5.310804,5.903 5.908804,6.639 7.104804,6.639 L7.863804,6.639 L7.863804,9.261 C7.725804,9.261 7.587804,9.261 7.472804,9.284 C6.138804,9.399 5.678804,10.112 5.678804,10.986 C5.678804,12.067 6.644804,12.918 8.507804,12.918 C11.152804,12.918 13.245804,10.917 13.245804,8.594 C13.245804,7.513 12.785804,7.076 12.187804,7.076 C11.727804,7.076 11.382804,7.398 11.382804,7.881 C11.382804,8.456 11.773804,8.824 12.394804,9.031 Z M14.533804,22.555 L11.750804,23.337 C11.221804,20.439 9.450804,18.438 7.817804,18.438 C7.173804,18.438 6.690804,18.829 6.690804,19.45 C6.690804,20.002 7.081804,20.393 7.725804,20.393 C8.185804,20.393 8.668804,20.209 9.059804,19.979 L9.059804,22.532 C8.484804,22.831 7.817804,22.923 7.219804,22.923 C5.172804,22.923 3.792804,21.451 3.792804,19.542 C3.792804,17.403 5.494804,15.977 7.817804,15.977 C11.727804,15.977 14.073804,19.795 14.533804,22.555 Z M16.189804,3.074 L16.189804,0.567 L29.966804,0.567 L29.966804,3.074 L26.953804,3.074 L26.953804,6.938 L23.618804,7.789 C21.180804,8.41 20.835804,9.261 20.835804,10.411 C20.835804,11.446 21.594804,12.642 23.572804,12.642 C25.044804,12.642 26.286804,12.182 27.620804,10.779 L29.184804,13.378 C27.551804,14.942 25.734804,15.425 23.963804,15.425 C20.237804,15.425 17.730804,12.803 17.730804,9.79 C17.730804,7.375 18.995804,5.995 21.893804,5.19 L23.641804,4.707 L23.641804,3.074 L16.189804,3.074 Z" id="छूट"></path>
            </g>
            <g id="16-17-Agustus" transform="translate(63.000000, 0.000000)" fill="#000000" fill-rule="nonzero">
                <path d="M20.4375,1.225 L20.4375,3.95 L17.8125,3.95 L17.8125,18 L14.2875,18 L14.2875,12.1 C13.9625,12.2 13.5875,12.275 13.1625,12.275 C12.7125,12.275 12.3125,12.175 11.9375,12.025 L11.9375,12.175 C11.9375,15 9.8125,17.075 6.4125,17.075 C3.1375,17.075 1.4375,15.3 0.8125,14.375 L3.2375,12.15 C3.7625,13.075 4.8375,14.15 6.4625,14.15 C7.7875,14.15 8.5625,13.35 8.5625,12.25 C8.5625,11.175 7.7875,10.525 6.1875,10.525 L4.8375,10.525 L4.8375,7.6 L5.7125,7.6 C7.2375,7.6 7.8625,6.8 7.8625,5.675 C7.8625,4.7 7.1875,4.025 6.1125,4.025 C5.1125,4.025 4.4375,4.5 3.9625,5.275 L1.7625,3.2 C2.5625,2.05 4.1375,1.1 6.2125,1.1 C9.1375,1.1 11.0875,2.775 11.0875,5.325 C11.0875,6.75 10.4375,7.975 9.2625,8.55 L9.2625,8.65 C9.5375,8.7 9.8375,8.8 10.1125,8.95 L10.1375,8.95 C10.1875,9 10.2375,9.025 10.2875,9.05 C10.9625,9.4 11.6625,9.55 12.2875,9.55 C13.1625,9.55 13.8125,9.375 14.2875,9.125 L14.2875,3.95 L12.3375,3.95 L12.3375,1.225 L20.4375,1.225 Z M29.2375,18 L29.2375,3.95 L25.9625,3.95 L25.9625,13.8 L22.6125,13.8 C21.1125,12.725 20.5875,10.875 20.5875,9.675 L22.5125,8.25 L22.5125,3.95 L18.9375,3.95 L18.9375,1.225 L35.3375,1.225 L35.3375,3.95 L32.7125,3.95 L32.7125,18 L29.2375,18 Z M45.0375,8.875 C46.1375,8.875 47.2375,8.625 47.9875,7.975 C49.0125,6.7 50.6125,6.175 52.1125,6.175 L55.2375,6.175 L55.2375,3.95 L43.6875,3.95 L43.6875,7.875 C43.6875,8.175 43.6625,8.475 43.6125,8.75 C44.0125,8.825 44.4625,8.875 45.0375,8.875 Z M40.2625,11.575 L40.2625,11.675 C40.7875,12.2 41.2875,12.725 42.2875,13.925 L44.5875,16.675 L41.7125,18.475 L34.6125,9.725 L37.2625,7.625 C37.9625,8.575 38.4375,9.025 39.1625,9.025 C39.7375,9.025 40.1875,8.7 40.1875,7.8 L40.1875,3.95 L33.8375,3.95 L33.8375,1.225 L61.4125,1.225 L61.4125,3.95 L58.7625,3.95 L58.7625,18 L55.2375,18 L55.2375,9.2 L52.7375,9.2 C51.5625,9.2 50.5625,9.825 50.5625,11.35 C50.5625,13.25 51.6625,14.875 53.4375,16.125 L50.9125,18.325 C49.1625,17.125 47.2125,14.825 46.9875,11.8 C46.5125,11.9 46.0125,11.95 45.5125,11.95 C44.0875,11.95 43.0375,11.6 42.1875,10.975 C41.8375,11.2 41.4375,11.35 41.0125,11.45 C40.7625,11.5 40.5125,11.55 40.2625,11.575 Z M74.8875,18 L71.6375,18 L71.6375,17.725 C71.9375,17.35 72.0625,16.75 72.0625,16.35 C72.0625,15.65 71.8375,15 67.8125,12.4 L67.8125,10.625 C69.2875,10.025 70.4125,9.4 71.2625,8.8 C69.4375,8.75 67.5375,7.2 67.5375,5.075 C67.5375,2.65 69.2875,0.925 72.0125,0.925 C74.7125,0.925 76.6625,2.8 76.6625,5.325 C76.6625,8.275 74.4875,10.575 71.8125,11.95 C74.9625,14.125 75.4625,15 75.4625,16.225 C75.4625,16.85 75.2125,17.5 74.8875,18 Z M72.9375,7.15 C73.3375,6.55 73.5125,5.925 73.5125,5.3 C73.5125,4.4 73.0375,3.8 72.0625,3.8 C71.1875,3.8 70.6625,4.375 70.6625,5.3 C70.6625,6.45 71.8125,7.15 72.9375,7.15 Z M92.0375,18.975 L88.4875,19.6 L87.1375,16.275 C86.6125,16.45 85.6375,16.55 84.9625,16.55 C82.1375,16.55 79.1625,15.225 79.1625,12.1 C79.1625,10.6 80.0875,9.325 81.7875,8.575 L81.7875,8.475 C79.6375,7.925 78.8375,6.25 78.8375,4.85 C78.8375,2.55 80.7875,0.9 84.4375,0.9 C85.7875,0.9 87.5375,1.3 88.2875,1.7 L87.3625,4.525 C86.8625,4.275 86.0375,3.875 84.3375,3.875 C83.2625,3.875 82.4875,4.375 82.4875,5.375 C82.4875,6.375 83.5375,7 85.6375,7 C85.8875,7 86.2625,7 86.6375,6.95 L87.2625,9.725 C83.8375,9.875 82.6625,10.75 82.6625,12 C82.6625,13.05 83.3875,13.7 85.0125,13.7 C85.4625,13.7 86.2125,13.575 86.5875,13.35 L86.5875,11.45 L88.6625,10.85 C89.1375,11.2 89.9125,12.075 89.9125,13.125 C89.9125,13.95 89.6625,14.6 89.2375,15.125 L92.0375,18.975 Z M92.0375,10.45 L101.3375,10.45 L101.3375,13.375 L92.0375,13.375 L92.0375,10.45 Z M111.4125,18 L108.1625,18 L108.1625,17.725 C108.4625,17.35 108.5875,16.75 108.5875,16.35 C108.5875,15.65 108.3625,15 104.3375,12.4 L104.3375,10.625 C105.8125,10.025 106.9375,9.4 107.7875,8.8 C105.9625,8.75 104.0625,7.2 104.0625,5.075 C104.0625,2.65 105.8125,0.925 108.5375,0.925 C111.2375,0.925 113.1875,2.8 113.1875,5.325 C113.1875,8.275 111.0125,10.575 108.3375,11.95 C111.4875,14.125 111.9875,15 111.9875,16.225 C111.9875,16.85 111.7375,17.5 111.4125,18 Z M109.4625,7.15 C109.8625,6.55 110.0375,5.925 110.0375,5.3 C110.0375,4.4 109.5625,3.8 108.5875,3.8 C107.7125,3.8 107.1875,4.375 107.1875,5.3 C107.1875,6.45 108.3375,7.15 109.4625,7.15 Z M129.8375,10.075 C129.8375,14.55 127.2625,17.3 123.5375,17.3 C118.0625,17.3 115.6875,12.4 115.6875,7.05 C115.6875,5.2 115.8375,3.4 116.3125,1.55 L119.4875,1.225 C119.1375,2.55 118.7875,4.525 118.7875,7 C118.7875,11.05 120.1875,14.5 123.2625,14.5 C124.9375,14.5 126.1375,13.7 126.6625,11.975 C126.1125,12.175 125.6125,12.225 124.9625,12.225 C123.0625,12.225 121.0125,11.05 121.0125,8.3 C121.0125,6.025 122.7375,4.4 125.0125,4.4 C127.6625,4.4 129.8375,6.475 129.8375,10.075 Z M125.8625,9.925 C126.2125,9.925 126.5875,9.85 126.9125,9.75 C126.8625,7.85 125.9625,7.25 125.1375,7.25 C124.5625,7.25 124.0875,7.675 124.0875,8.45 C124.0875,9.475 124.9375,9.925 125.8625,9.925 Z" id="अगस्त-१६-१७"></path>
            </g>
            <path d="M73.612,192.752 L71.176,192.752 L71.232,188.916 C68.292,188.72 66.584,187.516 65.744,186.816 L67.368,184.604 C68.292,185.444 70.084,186.508 72.324,186.508 C74.844,186.508 75.88,185.332 75.88,183.848 C75.88,182.252 74.564,181.524 72.492,180.6 L70.784,179.844 C68.32,178.752 66.724,177.296 66.724,174.748 C66.724,171.92 68.88,170.072 71.624,169.652 L71.568,165.872 L74.004,165.872 L73.948,169.596 C76.356,169.82 77.728,170.884 78.232,171.332 L76.524,173.404 C75.684,172.592 74.228,172.004 72.772,172.004 C70.756,172.004 69.552,172.984 69.552,174.552 C69.552,176.12 70.812,176.932 72.716,177.8 L74.228,178.5 C76.86,179.732 78.708,180.88 78.708,183.596 C78.708,186.004 77.028,188.328 73.556,188.832 L73.612,192.752 Z" id="$" fill="#000000"></path>
        </g>
    </g>
</svg>