<?xml version="1.0" encoding="UTF-8"?>
<svg width="250px" height="292px" viewBox="0 0 250 292" version="1.1" xmlns="http://www.w3.org/2000/svg" xmlns:xlink="http://www.w3.org/1999/xlink">
    <!-- Generator: Sketch 48.2 (47327) - http://www.bohemiancoding.com/sketch -->
    <title>hin_3</title>
    <desc>Created with Sketch.</desc>
    <defs>
        <radialGradient cx="800%" cy="400%" fx="800%" fy="400%" r="100.014205%" gradientTransform="translate(8.000000,4.000000),scale(1.000000,0.500004),translate(-8.000000,-4.000000)" id="radialGradient-1">
            <stop stop-color="#8D00FF" offset="0%"></stop>
            <stop stop-color="#5C00FE" offset="69.8959662%"></stop>
            <stop stop-color="#8900FF" offset="100%"></stop>
        </radialGradient>
        <radialGradient cx="800%" cy="400%" fx="800%" fy="400%" r="100.011799%" gradientTransform="translate(8.000000,4.000000),scale(1.000000,0.500004),translate(-8.000000,-4.000000)" id="radialGradient-2">
            <stop stop-color="#FF9495" offset="0%"></stop>
            <stop stop-color="#FE5F60" offset="70.3742825%"></stop>
            <stop stop-color="#FF9091" offset="100%"></stop>
        </radialGradient>
    </defs>
    <g id="Page-1" stroke="none" stroke-width="1" fill="none" fill-rule="evenodd">
        <g id="hin_3">
            <g id="3-copy" transform="translate(0.000000, 42.000000)" fill-rule="nonzero">
                <g id="Group-Copy-2" transform="translate(0.933759, 0.000000)">
                    <g id="Group-6" transform="translate(0.000000, 0.762969)">
                        <g id="Group-31">
                            <path d="M124.524976,249.047781 C113.595699,249.047871 102.852631,247.633628 92.2957729,244.804995 C81.7389145,241.976368 71.727937,237.829799 62.2629045,232.365289 C52.7978079,226.900714 44.2011758,220.304407 36.4730082,212.576368 C28.7447764,204.848264 22.1482772,196.25176 16.6835746,186.786792 C11.218872,177.321823 7.07211127,167.31091 4.24335644,156.754116 C1.41453755,146.197257 0.000128110995,135.454189 0,124.524976 C-6.40554976e-05,113.595699 1.41415322,102.852631 4.24277994,92.2957729 C7.07140665,81.7388504 11.2179752,71.727937 16.6825497,62.2628404 C22.1472523,52.7976798 28.7436875,44.2009837 36.4719192,36.4727519 C44.2000869,28.7444561 52.796719,22.148021 62.2618155,16.6833184 C71.726848,11.2185517 81.7378255,7.07185504 92.294684,4.24310021 C102.851606,1.41434539 113.59461,0 124.524976,0 L124.523759,56.0357493 C120.027832,56.0372866 115.575206,56.4772838 111.165882,57.3557409 C106.756558,58.234198 102.47528,59.5342684 98.321986,61.255888 C94.1686916,62.9775076 90.2231932,65.0876238 86.4854909,67.5863007 C82.7477885,70.0849135 79.2896244,72.9241093 76.1110625,76.1038242 C72.9325006,79.2835391 70.0945218,82.7426641 67.5971901,86.4812632 C65.0998584,90.2198623 62.9910874,94.1661294 61.270941,98.3200643 C59.5507307,102.473935 58.2521976,106.755725 57.3752778,111.165434 C56.4983581,115.575078 56.0598982,120.027896 56.0598982,124.523887 C56.0598982,129.019879 56.4984221,133.472761 57.375406,137.882469 C58.2523898,142.292114 59.5509869,146.573967 61.2711973,150.727902 C62.9914076,154.881837 65.1002427,158.828104 67.5976385,162.566704 C70.0950342,166.305367 72.933013,169.764492 76.1117031,172.944207 C79.290329,176.123857 82.7484932,178.963053 86.4862595,181.46173 C90.2240259,183.960343 94.1695884,186.070459 98.3229468,187.792079 C102.476241,189.513634 106.757583,190.813705 111.166971,191.692098 C115.576295,192.570491 120.028985,193.010488 124.524976,193.012025 L124.524976,249.047781 Z" id="Fill-30" fill="url(#radialGradient-1)"></path>
                            <path d="M249.044074,249.047781 C238.114797,249.047871 227.371729,247.633628 216.814871,244.804995 C206.258013,241.976368 196.247035,237.829799 186.782003,232.365289 C177.316906,226.900714 168.720274,220.304407 160.992106,212.576368 C153.263875,204.848264 146.667375,196.25176 141.202673,186.786792 C135.73797,177.321823 131.591209,167.31091 128.762455,156.754116 C125.933636,146.197257 124.519226,135.454189 124.519098,124.524976 C124.519034,113.595699 125.933251,102.852631 128.761878,92.2957729 C131.590505,81.7388504 135.737073,71.727937 141.201648,62.2628404 C146.66635,52.7976798 153.262786,44.2009837 160.991017,36.4727519 C168.719185,28.7444561 177.315817,22.148021 186.780914,16.6833184 C196.245946,11.2185517 206.256924,7.07185504 216.813782,4.24310021 C227.370705,1.41434539 238.113708,0 249.044074,0 L249.042857,56.0357493 C244.54693,56.0372866 240.094304,56.4772838 235.68498,57.3557409 C231.275656,58.234198 226.994378,59.5342684 222.841084,61.255888 C218.68779,62.9775076 214.742291,65.0876238 211.004589,67.5863007 C207.266887,70.0849135 203.808722,72.9241093 200.630161,76.1038242 C197.451599,79.2835391 194.61362,82.7426641 192.116288,86.4812632 C189.618956,90.2198623 187.510185,94.1661294 185.790039,98.3200643 C184.069829,102.473935 182.771296,106.755725 181.894376,111.165434 C181.017456,115.575078 180.578996,120.027896 180.578996,124.523887 C180.578996,129.019879 181.01752,133.472761 181.894504,137.882469 C182.771488,142.292114 184.070085,146.573967 185.790295,150.727902 C187.510506,154.881837 189.619341,158.828104 192.116737,162.566704 C194.614132,166.305367 197.452111,169.764492 200.630801,172.944207 C203.809427,176.123857 207.267591,178.963053 211.005358,181.46173 C214.743124,183.960343 218.688686,186.070459 222.842045,187.792079 C226.995339,189.513634 231.276681,190.813705 235.686069,191.692098 C240.095393,192.570491 244.548083,193.010488 249.044074,193.012025 L249.044074,249.047781 Z" id="Fill-30-Copy" fill="url(#radialGradient-2)" transform="translate(186.781586, 124.523890) scale(-1, 1) translate(-186.781586, -124.523890) "></path>
                        </g>
                        <circle id="Oval" fill="#FFFFFF" cx="124.90822" cy="124.90822" r="87.3982442"></circle>
                    </g>
                </g>
            </g>
            <path d="M82.438,178.284 C82.438,175.204 84.454,173.104 87.534,173.104 C90.614,173.104 92.63,175.204 92.63,178.284 C92.63,181.336 90.586,183.408 87.506,183.408 C84.426,183.408 82.438,181.364 82.438,178.284 Z M84.874,178.284 C84.874,180.02 85.882,181.196 87.506,181.196 C89.158,181.196 90.194,179.992 90.194,178.284 C90.194,176.548 89.186,175.316 87.534,175.316 C85.882,175.316 84.874,176.548 84.874,178.284 Z M96.286,192.312 L95.642,191.08 C97.238,190.464 98.078,189.4 98.078,188.42 C98.078,187.244 96.958,186.712 95.922,186.152 L95.922,185.984 C95.922,184.864 96.734,183.968 97.938,183.968 C99.394,183.968 100.402,185.088 100.402,186.852 C100.402,189.764 98.134,191.696 96.286,192.312 Z M111.13,178.284 C111.13,175.204 113.146,173.104 116.226,173.104 C119.306,173.104 121.322,175.204 121.322,178.284 C121.322,181.336 119.278,183.408 116.198,183.408 C113.118,183.408 111.13,181.364 111.13,178.284 Z M113.566,178.284 C113.566,180.02 114.574,181.196 116.198,181.196 C117.85,181.196 118.886,179.992 118.886,178.284 C118.886,176.548 117.878,175.316 116.226,175.316 C114.574,175.316 113.566,176.548 113.566,178.284 Z M135.254,182.624 C135.254,185.368 133.266,187.16 130.158,187.16 C127.05,187.16 125.034,185.368 125.034,182.624 C125.034,180.44 126.462,179.012 128.142,177.78 C126.182,176.38 124.306,174.728 124.306,172.04 C124.306,170.948 124.558,170.248 124.866,169.716 L127.358,170.584 C127.134,170.948 126.938,171.508 126.938,172.152 C126.938,174 128.422,175.232 130.13,176.408 C131.838,175.232 133.322,174 133.322,172.152 C133.322,171.508 133.154,170.948 132.93,170.584 L135.422,169.716 C135.73,170.248 135.954,170.948 135.954,172.04 C135.954,174.728 134.078,176.38 132.118,177.78 C133.798,179.012 135.254,180.44 135.254,182.624 Z M130.158,184.948 C131.698,184.948 132.65,184.136 132.65,182.596 C132.65,181.224 131.558,180.188 130.13,179.18 C128.73,180.188 127.638,181.224 127.638,182.596 C127.638,184.136 128.59,184.948 130.158,184.948 Z M152.686,187.608 L149.83,188.168 L147.646,181.896 C146.946,182.26 145.966,182.624 144.37,182.624 C141.29,182.624 138.938,180.58 138.938,177.192 C138.938,174.336 140.254,171.676 142.214,169.436 L144.426,170.808 C142.662,172.684 141.598,174.98 141.598,177.08 C141.598,179.152 142.802,180.244 144.482,180.244 C145.854,180.244 146.61,179.88 147.058,179.516 L146.47,176.604 L148.262,175.876 C149.242,176.856 150.222,177.92 150.222,179.04 C150.222,179.74 150.082,180.3 149.55,180.916 L152.686,187.608 Z M154.298,178.284 C154.298,175.204 156.314,173.104 159.394,173.104 C162.474,173.104 164.49,175.204 164.49,178.284 C164.49,181.336 162.446,183.408 159.366,183.408 C156.286,183.408 154.298,181.364 154.298,178.284 Z M156.734,178.284 C156.734,180.02 157.742,181.196 159.366,181.196 C161.018,181.196 162.054,179.992 162.054,178.284 C162.054,176.548 161.046,175.316 159.394,175.316 C157.742,175.316 156.734,176.548 156.734,178.284 Z M88.768,203.576 L91.624,203.576 L91.624,222 L88.88,222 L88.88,211.416 L88.992,206.376 L88.88,206.376 L86.724,208.056 L84.792,209.4 L83.252,207.216 L88.768,203.576 Z M115.008,215.364 L115.148,215.364 L120.216,202.372 L124.612,202.372 L124.612,222 L121.868,222 L121.868,205.704 L121.728,205.704 C119.964,210.212 118.116,214.832 116.352,219.312 L113.636,219.312 L108.288,205.704 L108.12,205.704 L108.12,222 L105.46,222 L105.46,202.372 L109.94,202.372 L115.008,215.364 Z M132.552,205.816 L132.384,205.816 C132.468,207.58 132.524,209.12 132.524,211.5 L132.524,222 L129.808,222 L129.808,202.372 L133.532,202.372 L139.384,213.432 C140.196,215 141.092,216.708 141.792,218.304 L141.96,218.304 C141.876,216.232 141.876,214.16 141.876,212.396 L141.876,202.372 L144.536,202.372 L144.536,222 L140.896,222 L134.904,210.716 C134.064,209.12 133.336,207.524 132.552,205.816 Z M149.732,202.372 L155.08,202.372 C159.224,202.372 161.688,203.996 161.688,207.972 C161.688,211.248 159.672,213.04 157.348,213.348 L157.348,213.46 C158.188,213.852 158.888,214.524 159.784,216.092 L163.228,222 L159.84,222 L156.368,215.7 C155.752,214.58 154.968,214.104 153.68,214.104 L152.532,214.104 L152.532,222 L149.732,222 L149.732,202.372 Z M152.532,204.808 L152.532,211.752 L154.8,211.752 C157.376,211.752 158.804,210.688 158.804,208.224 C158.804,205.76 157.348,204.808 154.688,204.808 L152.532,204.808 Z" id="०,-०४५०-1-MNR" fill="#000000" fill-rule="nonzero"></path>
            <g id="diskon" transform="translate(111.000000, 139.000000)" fill="#000000" fill-rule="nonzero">
                <path d="M8.169,15.609 C4.466,15.609 2.327,13.493 2.327,11.124 C2.327,9.261 3.339,8.364 4.282,8.019 L4.282,7.927 C2.741,7.674 1.913,6.524 1.913,5.144 C1.913,4.178 2.304,3.557 2.718,3.166 L2.718,3.074 L0.073,3.074 L0.073,0.567 L17.53,0.567 L17.53,3.074 L14.034,3.074 L14.034,4.96 C15.276,5.581 16.058,6.823 16.058,8.64 C16.058,12.021 13.091,15.609 8.169,15.609 Z M12.355,9.031 L10.423,10.825 C9.526,10.503 8.353,9.56 8.353,7.835 C8.353,6.34 9.388,5.075 10.998,4.684 L10.998,3.074 L7.249,3.074 C5.869,3.074 5.271,3.948 5.271,4.937 C5.271,5.903 5.869,6.639 7.065,6.639 L7.824,6.639 L7.824,9.261 C7.686,9.261 7.548,9.261 7.433,9.284 C6.099,9.399 5.639,10.112 5.639,10.986 C5.639,12.067 6.605,12.918 8.468,12.918 C11.113,12.918 13.206,10.917 13.206,8.594 C13.206,7.513 12.746,7.076 12.148,7.076 C11.688,7.076 11.343,7.398 11.343,7.881 C11.343,8.456 11.734,8.824 12.355,9.031 Z M14.494,22.555 L11.711,23.337 C11.182,20.439 9.411,18.438 7.778,18.438 C7.134,18.438 6.651,18.829 6.651,19.45 C6.651,20.002 7.042,20.393 7.686,20.393 C8.146,20.393 8.629,20.209 9.02,19.979 L9.02,22.532 C8.445,22.831 7.778,22.923 7.18,22.923 C5.133,22.923 3.753,21.451 3.753,19.542 C3.753,17.403 5.455,15.977 7.778,15.977 C11.688,15.977 14.034,19.795 14.494,22.555 Z M16.15,3.074 L16.15,0.567 L29.927,0.567 L29.927,3.074 L26.914,3.074 L26.914,6.938 L23.579,7.789 C21.141,8.41 20.796,9.261 20.796,10.411 C20.796,11.446 21.555,12.642 23.533,12.642 C25.005,12.642 26.247,12.182 27.581,10.779 L29.145,13.378 C27.512,14.942 25.695,15.425 23.924,15.425 C20.198,15.425 17.691,12.803 17.691,9.79 C17.691,7.375 18.956,5.995 21.854,5.19 L23.602,4.707 L23.602,3.074 L16.15,3.074 Z" id="छूट"></path>
            </g>
            <g id="18-28-Agustus" transform="translate(64.000000, 0.000000)" fill="#000000" fill-rule="nonzero">
                <path d="M20.4,1.225 L20.4,3.95 L17.775,3.95 L17.775,18 L14.25,18 L14.25,12.1 C13.925,12.2 13.55,12.275 13.125,12.275 C12.675,12.275 12.275,12.175 11.9,12.025 L11.9,12.175 C11.9,15 9.775,17.075 6.375,17.075 C3.1,17.075 1.4,15.3 0.775,14.375 L3.2,12.15 C3.725,13.075 4.8,14.15 6.425,14.15 C7.75,14.15 8.525,13.35 8.525,12.25 C8.525,11.175 7.75,10.525 6.15,10.525 L4.8,10.525 L4.8,7.6 L5.675,7.6 C7.2,7.6 7.825,6.8 7.825,5.675 C7.825,4.7 7.15,4.025 6.075,4.025 C5.075,4.025 4.4,4.5 3.925,5.275 L1.725,3.2 C2.525,2.05 4.1,1.1 6.175,1.1 C9.1,1.1 11.05,2.775 11.05,5.325 C11.05,6.75 10.4,7.975 9.225,8.55 L9.225,8.65 C9.5,8.7 9.8,8.8 10.075,8.95 L10.1,8.95 C10.15,9 10.2,9.025 10.25,9.05 C10.925,9.4 11.625,9.55 12.25,9.55 C13.125,9.55 13.775,9.375 14.25,9.125 L14.25,3.95 L12.3,3.95 L12.3,1.225 L20.4,1.225 Z M29.2,18 L29.2,3.95 L25.925,3.95 L25.925,13.8 L22.575,13.8 C21.075,12.725 20.55,10.875 20.55,9.675 L22.475,8.25 L22.475,3.95 L18.9,3.95 L18.9,1.225 L35.3,1.225 L35.3,3.95 L32.675,3.95 L32.675,18 L29.2,18 Z M45,8.875 C46.1,8.875 47.2,8.625 47.95,7.975 C48.975,6.7 50.575,6.175 52.075,6.175 L55.2,6.175 L55.2,3.95 L43.65,3.95 L43.65,7.875 C43.65,8.175 43.625,8.475 43.575,8.75 C43.975,8.825 44.425,8.875 45,8.875 Z M40.225,11.575 L40.225,11.675 C40.75,12.2 41.25,12.725 42.25,13.925 L44.55,16.675 L41.675,18.475 L34.575,9.725 L37.225,7.625 C37.925,8.575 38.4,9.025 39.125,9.025 C39.7,9.025 40.15,8.7 40.15,7.8 L40.15,3.95 L33.8,3.95 L33.8,1.225 L61.375,1.225 L61.375,3.95 L58.725,3.95 L58.725,18 L55.2,18 L55.2,9.2 L52.7,9.2 C51.525,9.2 50.525,9.825 50.525,11.35 C50.525,13.25 51.625,14.875 53.4,16.125 L50.875,18.325 C49.125,17.125 47.175,14.825 46.95,11.8 C46.475,11.9 45.975,11.95 45.475,11.95 C44.05,11.95 43,11.6 42.15,10.975 C41.8,11.2 41.4,11.35 40.975,11.45 C40.725,11.5 40.475,11.55 40.225,11.575 Z M74.85,18 L71.6,18 L71.6,17.725 C71.9,17.35 72.025,16.75 72.025,16.35 C72.025,15.65 71.8,15 67.775,12.4 L67.775,10.625 C69.25,10.025 70.375,9.4 71.225,8.8 C69.4,8.75 67.5,7.2 67.5,5.075 C67.5,2.65 69.25,0.925 71.975,0.925 C74.675,0.925 76.625,2.8 76.625,5.325 C76.625,8.275 74.45,10.575 71.775,11.95 C74.925,14.125 75.425,15 75.425,16.225 C75.425,16.85 75.175,17.5 74.85,18 Z M72.9,7.15 C73.3,6.55 73.475,5.925 73.475,5.3 C73.475,4.4 73,3.8 72.025,3.8 C71.15,3.8 70.625,4.375 70.625,5.3 C70.625,6.45 71.775,7.15 72.9,7.15 Z M88.6,2.6 L83.675,9.325 C82.85,10.475 82.5,11.15 82.5,12.05 C82.5,13.35 83.35,14.225 84.975,14.225 C86.275,14.225 87.65,13.9 88.775,12.925 L90.375,15.675 C89.275,16.5 87.875,17.35 85.125,17.35 C81.75,17.35 78.975,15.4 78.975,12.175 C78.975,10.5 79.475,9.35 80.6,7.825 L85.55,1.175 L88.6,2.6 Z M91.925,10.45 L101.225,10.45 L101.225,13.375 L91.925,13.375 L91.925,10.45 Z M103.725,9.275 C103.725,8.875 103.8,8.55 103.925,8.25 L105.65,7 L107.5,9 C109.375,8.725 110.775,7.825 110.775,6.125 C110.775,4.7 109.775,4.1 108.525,4.1 C107.825,4.1 107.05,4.25 106.375,4.675 L104.8,1.725 C105.75,1.225 107.125,0.975 108.35,0.975 C111.5,0.975 114.075,2.85 114.075,6.1 C114.075,9.375 111.575,10.975 109.225,11.55 L112.975,16.775 L109.675,17.9 L106.6,12.25 C104.775,11.975 103.725,10.675 103.725,9.275 Z M126.05,2.6 L121.125,9.325 C120.3,10.475 119.95,11.15 119.95,12.05 C119.95,13.35 120.8,14.225 122.425,14.225 C123.725,14.225 125.1,13.9 126.225,12.925 L127.825,15.675 C126.725,16.5 125.325,17.35 122.575,17.35 C119.2,17.35 116.425,15.4 116.425,12.175 C116.425,10.5 116.925,9.35 118.05,7.825 L123,1.175 L126.05,2.6 Z" id="अगस्त-१८-२८"></path>
            </g>
            <path d="M110.664,128 L107.154,128 L107.154,127.703 C107.478,127.298 107.613,126.65 107.613,126.218 C107.613,125.462 107.37,124.76 103.023,121.952 L103.023,120.035 C104.616,119.387 105.831,118.712 106.749,118.064 C104.778,118.01 102.726,116.336 102.726,114.041 C102.726,111.422 104.616,109.559 107.559,109.559 C110.475,109.559 112.581,111.584 112.581,114.311 C112.581,117.497 110.232,119.981 107.343,121.466 C110.745,123.815 111.285,124.76 111.285,126.083 C111.285,126.758 111.015,127.46 110.664,128 Z M108.558,116.282 C108.99,115.634 109.179,114.959 109.179,114.284 C109.179,113.312 108.666,112.664 107.613,112.664 C106.668,112.664 106.101,113.285 106.101,114.284 C106.101,115.526 107.343,116.282 108.558,116.282 Z M115.011,118.226 C115.011,115.013 117.171,112.934 120.384,112.934 C123.597,112.934 125.784,115.013 125.784,118.226 C125.784,121.439 123.597,123.518 120.384,123.518 C117.171,123.518 115.011,121.439 115.011,118.226 Z M118.359,118.226 C118.359,119.657 119.169,120.521 120.384,120.521 C121.599,120.521 122.436,119.657 122.436,118.226 C122.436,116.795 121.599,115.931 120.384,115.931 C119.169,115.931 118.359,116.795 118.359,118.226 Z M132.129,127.217 L130.401,125.516 L146.061,109.667 L147.816,111.368 L132.129,127.217 Z M149.706,122.978 C149.706,126.515 147.924,128.243 145.008,128.243 C142.065,128.243 140.472,126.677 140.472,123.14 C140.472,119.792 142.254,117.956 145.17,117.956 C148.086,117.956 149.706,119.603 149.706,122.978 Z M145.116,125.948 C146.304,125.948 146.736,125.084 146.736,123.113 C146.736,121.169 146.169,120.251 145.008,120.251 C143.955,120.251 143.442,121.142 143.442,123.113 C143.442,125.057 144.09,125.948 145.116,125.948 Z M132.804,116.822 C133.992,116.822 134.424,115.958 134.424,113.987 C134.424,112.043 133.857,111.125 132.696,111.125 C131.643,111.125 131.13,112.016 131.13,113.987 C131.13,115.931 131.778,116.822 132.804,116.822 Z M137.394,113.852 C137.394,117.389 135.612,119.117 132.696,119.117 C129.753,119.117 128.16,117.551 128.16,114.014 C128.16,110.666 129.942,108.83 132.858,108.83 C135.774,108.83 137.394,110.477 137.394,113.852 Z" id="१०%" fill="#000000" fill-rule="nonzero"></path>
            <path d="M71.612,189.752 L69.176,189.752 L69.232,185.916 C66.292,185.72 64.584,184.516 63.744,183.816 L65.368,181.604 C66.292,182.444 68.084,183.508 70.324,183.508 C72.844,183.508 73.88,182.332 73.88,180.848 C73.88,179.252 72.564,178.524 70.492,177.6 L68.784,176.844 C66.32,175.752 64.724,174.296 64.724,171.748 C64.724,168.92 66.88,167.072 69.624,166.652 L69.568,162.872 L72.004,162.872 L71.948,166.596 C74.356,166.82 75.728,167.884 76.232,168.332 L74.524,170.404 C73.684,169.592 72.228,169.004 70.772,169.004 C68.756,169.004 67.552,169.984 67.552,171.552 C67.552,173.12 68.812,173.932 70.716,174.8 L72.228,175.5 C74.86,176.732 76.708,177.88 76.708,180.596 C76.708,183.004 75.028,185.328 71.556,185.832 L71.612,189.752 Z" id="$" fill="#000000"></path>
        </g>
    </g>
</svg>