<?xml version="1.0" encoding="UTF-8"?>
<svg width="250px" height="291px" viewBox="0 0 250 291" version="1.1" xmlns="http://www.w3.org/2000/svg" xmlns:xlink="http://www.w3.org/1999/xlink">
    <!-- Generator: Sketch 48.2 (47327) - http://www.bohemiancoding.com/sketch -->
    <title>text_1</title>
    <desc>Created with Sketch.</desc>
    <defs>
        <radialGradient cx="100%" cy="100%" fx="100%" fy="100%" r="50.0301469%" gradientTransform="translate(1.000000,1.000000),translate(-1.000000,-1.000000)" id="radialGradient-1">
            <stop stop-color="#8D00FF" offset="0%"></stop>
            <stop stop-color="#5C00FE" offset="69.8959662%"></stop>
            <stop stop-color="#8900FF" offset="100%"></stop>
        </radialGradient>
    </defs>
    <g id="Page-1" stroke="none" stroke-width="1" fill="none" fill-rule="evenodd">
        <g id="text_1" transform="translate(-13.000000, -8.000000)">
            <g id="hin_1" transform="translate(111.000000, 113.000000)"></g>
            <g id="1-copy" transform="translate(13.000000, 49.000000)" fill-rule="nonzero">
                <path d="M124.534208,0.7629689 C132.711116,0.7630043 140.809466,1.5606594 148.829249,3.1559305 C156.849031,4.7512051 164.636136,7.1134456 172.190582,10.2426509 C179.745051,13.3718515 186.921705,17.2078968 193.720557,21.7507781 C200.519385,26.2936634 206.80975,31.4560958 212.591686,37.2380753 C218.373622,43.0200542 223.535985,49.3104899 228.078816,56.109373 C232.621648,62.908265 236.457622,70.08496 239.586764,77.639458 C242.715941,85.193974 245.078181,92.981143 246.673414,101.000966 C248.268642,109.020783 249.066241,117.119169 249.066241,125.296094 C249.066206,133.473078 248.268572,141.571493 246.673269,149.591345 C245.078041,157.611197 242.715802,165.398378 239.586549,172.952916 C236.457372,180.507449 232.621334,187.684162 228.078462,194.483043 C223.535595,201.28193 218.373157,207.572364 212.591151,213.354352 C206.80918,219.13634 200.518781,224.298762 193.719865,228.841645 C186.920978,233.384512 179.744289,237.220539 172.189785,240.349698 C164.635281,243.478892 156.848106,245.841098 148.828289,247.436348 C140.808455,249.031593 132.710069,249.82921 124.533126,249.82921 C116.356143,249.829175 108.257746,249.031523 100.237911,247.436238 C92.2180591,245.840975 84.4308608,243.478736 76.8763221,240.349518 C69.3217834,237.220324 62.1450765,233.384285 55.3461899,228.841413 C48.5472975,224.298529 42.256863,219.136108 36.4748864,213.35412 C30.6929041,207.572155 25.5304769,201.281714 20.9876108,194.482834 C16.4447331,187.683947 12.6087116,180.507257 9.4795232,172.952736 C6.3503348,165.398232 3.98812395,157.611075 2.39288484,149.591257 C0.797622465,141.571423 0,133.473037 0,125.296094 C2.90693572e-05,117.119128 0.797680604,109.020731 2.3929546,101.000867 C3.9882286,92.981015 6.35046852,85.193829 9.47967436,77.639301 C12.6088802,70.084774 16.4449307,62.908062 20.9878143,56.109169 C25.530692,49.3102771 30.693125,43.0198327 36.4751074,37.2378532 C42.2570955,31.4558697 48.54753,26.2934419 55.346405,21.7505694 C62.1452858,17.2076974 69.3219985,13.3716695 76.8765023,10.2424863 C84.4310004,7.1133037 92.2181812,4.7510899 100.237998,3.1558462 C108.257815,1.5605977 116.356195,0.7629735 124.533126,0.7629735 L124.533022,56.802874 C120.03573,56.802903 115.581648,57.241612 111.170768,58.119019 C106.759883,58.996413 102.476984,60.295645 98.3220195,62.016702 C94.1670548,63.737771 90.2199129,65.847601 86.480547,68.346188 C82.741187,70.844775 79.2814858,73.684113 76.1014203,76.864202 C72.9213547,80.044291 70.0820343,83.504033 67.5834823,87.24341 C65.0849246,90.982799 62.9751229,94.929982 61.2540833,99.084958 C59.5330552,103.239934 58.233841,107.522874 57.356458,111.933789 C56.4791041,116.344668 56.0404243,120.798791 56.0404068,125.296112 C56.0404243,129.793432 56.479139,134.247573 57.3565452,138.658487 C58.2339282,143.069408 59.5331599,147.352347 61.2542228,151.507341 C62.9753032,155.66234 65.0851164,159.609523 67.5837091,163.348918 C70.0823017,167.088319 72.9216395,170.548072 76.1017226,173.728155 C79.2818172,176.908238 82.7415591,179.747576 86.4809366,182.246169 C90.2203198,184.744721 94.1674967,186.85454 98.3224788,188.575603 C102.477461,190.29666 106.7604,191.595892 111.171297,192.473281 C115.5822,193.350646 120.0363,193.789332 124.533621,193.789332 C129.030947,193.789314 133.485081,193.350611 137.896019,192.473228 C142.306916,191.595822 146.589873,190.29659 150.744873,188.57551 C154.899872,186.854453 158.847049,184.744634 162.58645,182.246041 C166.325827,179.747448 169.785569,176.908116 172.965664,173.728033 C176.145764,170.54795 178.985102,167.088208 181.483695,163.348813 C183.98227,159.609413 186.092083,155.662236 187.813129,151.507254 C189.534168,147.352272 190.8334,143.069332 191.710789,138.658435 C192.588172,134.24752 193.026857,129.793415 193.02684,125.296112 C193.026823,120.798791 192.588119,116.344651 191.710736,111.933736 C190.83333,107.522816 189.534099,103.239859 187.813018,99.084865 C186.091979,94.929871 183.982159,90.982683 181.483567,87.243294 C178.98498,83.503905 176.145625,80.044169 172.965542,76.86408 C169.785459,73.683985 166.325723,70.844659 162.586322,68.346078 C158.846927,65.847491 154.899744,63.737678 150.744762,62.016626 C146.589786,60.295575 142.306846,58.996349 137.895961,58.11896 C133.485047,57.241577 129.030947,56.802886 124.533621,56.802886 L124.534208,0.7629689 Z" id="Fill-8" fill="url(#radialGradient-1)"></path>
                <circle id="Oval" fill="#FFFFFF" cx="125.65842" cy="126.421389" r="87.3982442"></circle>
            </g>
            <path d="M127.054,201.64 L124.59,201.64 L124.59,198.308 C122.518,198.084 120.558,197.524 118.99,196.656 L118.99,193.52 C121.146,194.892 123.666,195.452 125.906,195.452 C128.426,195.452 130.134,194.864 130.134,193.016 C130.134,188.48 119.074,190.888 119.074,183.944 C119.074,180.752 121.51,179.044 124.59,178.68 L124.59,175.32 L127.054,175.32 L127.054,178.652 C128.93,178.792 130.806,179.296 132.122,180.08 L132.122,183.132 C130.526,182.068 128.342,181.48 126.242,181.508 C123.862,181.508 122.322,182.208 122.322,183.888 C122.322,188.116 133.382,185.848 133.382,192.848 C133.382,196.628 130.554,198.14 127.054,198.336 L127.054,201.64 Z M146.726,192.624 C146.726,195.368 144.738,197.16 141.63,197.16 C138.522,197.16 136.506,195.368 136.506,192.624 C136.506,190.44 137.934,189.012 139.614,187.78 C137.654,186.38 135.778,184.728 135.778,182.04 C135.778,180.948 136.03,180.248 136.338,179.716 L138.83,180.584 C138.606,180.948 138.41,181.508 138.41,182.152 C138.41,184 139.894,185.232 141.602,186.408 C143.31,185.232 144.794,184 144.794,182.152 C144.794,181.508 144.626,180.948 144.402,180.584 L146.894,179.716 C147.202,180.248 147.426,180.948 147.426,182.04 C147.426,184.728 145.55,186.38 143.59,187.78 C145.27,189.012 146.726,190.44 146.726,192.624 Z M141.63,194.948 C143.17,194.948 144.122,194.136 144.122,192.596 C144.122,191.224 143.03,190.188 141.602,189.18 C140.202,190.188 139.11,191.224 139.11,192.596 C139.11,194.136 140.062,194.948 141.63,194.948 Z M150.466,188.284 C150.466,185.204 152.482,183.104 155.562,183.104 C158.642,183.104 160.658,185.204 160.658,188.284 C160.658,191.336 158.614,193.408 155.534,193.408 C152.454,193.408 150.466,191.364 150.466,188.284 Z M152.902,188.284 C152.902,190.02 153.91,191.196 155.534,191.196 C157.186,191.196 158.222,189.992 158.222,188.284 C158.222,186.548 157.214,185.316 155.562,185.316 C153.91,185.316 152.902,186.548 152.902,188.284 Z M103.042,210.96 L105.394,210.96 L105.394,227.116 L108.782,227.116 L108.782,230 L98.422,230 L98.422,227.116 L102.23,227.116 L102.23,214.236 L98.422,215.664 L98.422,212.724 L103.042,210.96 Z M136.366,210.4 L139.25,210.4 L139.25,230 L136.058,230 L136.058,216.28 L129.87,225.576 L127.966,225.576 L121.778,216.252 L121.778,230 L118.586,230 L118.586,210.4 L121.47,210.4 L128.918,221.628 L136.366,210.4 Z M147.302,230 L144.11,230 L144.11,210.4 L147.106,210.4 L157.662,224.736 C157.634,224.064 157.634,223.308 157.634,222.58 L157.634,210.4 L160.826,210.4 L160.826,230 L157.83,230 L147.274,215.664 C147.302,216.336 147.302,217.092 147.302,217.792 L147.302,230 Z M168.878,230 L165.686,230 L165.686,210.4 L173.526,210.4 C177.194,210.4 181.058,211.856 181.058,216.532 C181.058,220.032 178.874,221.712 176.298,222.328 L182.57,230 L178.734,230 L172.854,222.664 L168.878,222.664 L168.878,230 Z M168.878,213.312 L168.878,219.836 L173.666,219.836 C175.766,219.836 177.81,219.08 177.81,216.588 C177.81,214.068 175.766,213.312 173.666,213.312 L168.878,213.312 Z" id="$४०-1-MNR" fill="#000000"></path>
            <path d="M111.943,123.577 C111.943,123.145 112.024,122.794 112.159,122.47 L114.022,121.12 L116.02,123.28 C118.045,122.983 119.557,122.011 119.557,120.175 C119.557,118.636 118.477,117.988 117.127,117.988 C116.371,117.988 115.534,118.15 114.805,118.609 L113.104,115.423 C114.13,114.883 115.615,114.613 116.938,114.613 C120.34,114.613 123.121,116.638 123.121,120.148 C123.121,123.685 120.421,125.413 117.883,126.034 L121.933,131.677 L118.369,132.892 L115.048,126.79 C113.077,126.493 111.943,125.089 111.943,123.577 Z M125.551,123.226 C125.551,120.013 127.711,117.934 130.924,117.934 C134.137,117.934 136.324,120.013 136.324,123.226 C136.324,126.439 134.137,128.518 130.924,128.518 C127.711,128.518 125.551,126.439 125.551,123.226 Z M128.899,123.226 C128.899,124.657 129.709,125.521 130.924,125.521 C132.139,125.521 132.976,124.657 132.976,123.226 C132.976,121.795 132.139,120.931 130.924,120.931 C129.709,120.931 128.899,121.795 128.899,123.226 Z M142.669,132.217 L140.941,130.516 L156.601,114.667 L158.356,116.368 L142.669,132.217 Z M160.246,127.978 C160.246,131.515 158.464,133.243 155.548,133.243 C152.605,133.243 151.012,131.677 151.012,128.14 C151.012,124.792 152.794,122.956 155.71,122.956 C158.626,122.956 160.246,124.603 160.246,127.978 Z M155.656,130.948 C156.844,130.948 157.276,130.084 157.276,128.113 C157.276,126.169 156.709,125.251 155.548,125.251 C154.495,125.251 153.982,126.142 153.982,128.113 C153.982,130.057 154.63,130.948 155.656,130.948 Z M143.344,121.822 C144.532,121.822 144.964,120.958 144.964,118.987 C144.964,117.043 144.397,116.125 143.236,116.125 C142.183,116.125 141.67,117.016 141.67,118.987 C141.67,120.931 142.318,121.822 143.344,121.822 Z M147.934,118.852 C147.934,122.389 146.152,124.117 143.236,124.117 C140.293,124.117 138.7,122.551 138.7,119.014 C138.7,115.666 140.482,113.83 143.398,113.83 C146.314,113.83 147.934,115.477 147.934,118.852 Z" id="२०%" fill="#000000" fill-rule="nonzero"></path>
            <g id="diskon" transform="translate(13.000000, 139.000000)" fill="#000000">
                <path d="M117.839257,23.609 C114.136257,23.609 111.997257,21.493 111.997257,19.124 C111.997257,17.261 113.009257,16.364 113.952257,16.019 L113.952257,15.927 C112.411257,15.674 111.583257,14.524 111.583257,13.144 C111.583257,12.178 111.974257,11.557 112.388257,11.166 L112.388257,11.074 L109.743257,11.074 L109.743257,8.567 L127.200257,8.567 L127.200257,11.074 L123.704257,11.074 L123.704257,12.96 C124.946257,13.581 125.728257,14.823 125.728257,16.64 C125.728257,20.021 122.761257,23.609 117.839257,23.609 Z M122.025257,17.031 L120.093257,18.825 C119.196257,18.503 118.023257,17.56 118.023257,15.835 C118.023257,14.34 119.058257,13.075 120.668257,12.684 L120.668257,11.074 L116.919257,11.074 C115.539257,11.074 114.941257,11.948 114.941257,12.937 C114.941257,13.903 115.539257,14.639 116.735257,14.639 L117.494257,14.639 L117.494257,17.261 C117.356257,17.261 117.218257,17.261 117.103257,17.284 C115.769257,17.399 115.309257,18.112 115.309257,18.986 C115.309257,20.067 116.275257,20.918 118.138257,20.918 C120.783257,20.918 122.876257,18.917 122.876257,16.594 C122.876257,15.513 122.416257,15.076 121.818257,15.076 C121.358257,15.076 121.013257,15.398 121.013257,15.881 C121.013257,16.456 121.404257,16.824 122.025257,17.031 Z M124.164257,30.555 L121.381257,31.337 C120.852257,28.439 119.081257,26.438 117.448257,26.438 C116.804257,26.438 116.321257,26.829 116.321257,27.45 C116.321257,28.002 116.712257,28.393 117.356257,28.393 C117.816257,28.393 118.299257,28.209 118.690257,27.979 L118.690257,30.532 C118.115257,30.831 117.448257,30.923 116.850257,30.923 C114.803257,30.923 113.423257,29.451 113.423257,27.542 C113.423257,25.403 115.125257,23.977 117.448257,23.977 C121.358257,23.977 123.704257,27.795 124.164257,30.555 Z M125.820257,11.074 L125.820257,8.567 L139.597257,8.567 L139.597257,11.074 L136.584257,11.074 L136.584257,14.938 L133.249257,15.789 C130.811257,16.41 130.466257,17.261 130.466257,18.411 C130.466257,19.446 131.225257,20.642 133.203257,20.642 C134.675257,20.642 135.917257,20.182 137.251257,18.779 L138.815257,21.378 C137.182257,22.942 135.365257,23.425 133.594257,23.425 C129.868257,23.425 127.361257,20.803 127.361257,17.79 C127.361257,15.375 128.626257,13.995 131.524257,13.19 L133.272257,12.707 L133.272257,11.074 L125.820257,11.074 Z" id="छूट"></path>
            </g>
            <g id="15-Agustus" transform="translate(12.000000, 0.000000)" fill="#000000">
                <path d="M91.5625,26 L88.3125,26 L88.3125,25.725 C88.6125,25.35 88.7375,24.75 88.7375,24.35 C88.7375,23.65 88.5125,23 84.4875,20.4 L84.4875,18.625 C85.9625,18.025 87.0875,17.4 87.9375,16.8 C86.1125,16.75 84.2125,15.2 84.2125,13.075 C84.2125,10.65 85.9625,8.925 88.6875,8.925 C91.3875,8.925 93.3375,10.8 93.3375,13.325 C93.3375,16.275 91.1625,18.575 88.4875,19.95 C91.6375,22.125 92.1375,23 92.1375,24.225 C92.1375,24.85 91.8875,25.5 91.5625,26 Z M89.6125,15.15 C90.0125,14.55 90.1875,13.925 90.1875,13.3 C90.1875,12.4 89.7125,11.8 88.7375,11.8 C87.8625,11.8 87.3375,12.375 87.3375,13.3 C87.3375,14.45 88.4875,15.15 89.6125,15.15 Z M109.0625,25.45 L105.4875,26.175 L103.7125,20.925 C102.9875,21.25 102.1375,21.5 100.9875,21.5 C97.6125,21.5 95.5125,19.3 95.5125,15.975 C95.5125,13.175 96.7375,10.775 98.3125,8.8 L101.2125,10.625 C100.0625,11.95 99.0125,13.925 99.0125,15.85 C99.0125,17.675 99.9125,18.425 101.2375,18.425 C102.3125,18.425 102.8125,18.075 103.0375,17.875 L102.4875,15.3 L104.7375,14.475 C105.8625,15.4 106.8875,16.5 106.8875,17.575 C106.8875,18.45 106.6625,19.025 106.1375,19.65 L109.0625,25.45 Z M133.4875,9.225 L133.4875,11.95 L130.8625,11.95 L130.8625,26 L127.3375,26 L127.3375,20.1 C127.0125,20.2 126.6375,20.275 126.2125,20.275 C125.7625,20.275 125.3625,20.175 124.9875,20.025 L124.9875,20.175 C124.9875,23 122.8625,25.075 119.4625,25.075 C116.1875,25.075 114.4875,23.3 113.8625,22.375 L116.2875,20.15 C116.8125,21.075 117.8875,22.15 119.5125,22.15 C120.8375,22.15 121.6125,21.35 121.6125,20.25 C121.6125,19.175 120.8375,18.525 119.2375,18.525 L117.8875,18.525 L117.8875,15.6 L118.7625,15.6 C120.2875,15.6 120.9125,14.8 120.9125,13.675 C120.9125,12.7 120.2375,12.025 119.1625,12.025 C118.1625,12.025 117.4875,12.5 117.0125,13.275 L114.8125,11.2 C115.6125,10.05 117.1875,9.1 119.2625,9.1 C122.1875,9.1 124.1375,10.775 124.1375,13.325 C124.1375,14.75 123.4875,15.975 122.3125,16.55 L122.3125,16.65 C122.5875,16.7 122.8875,16.8 123.1625,16.95 L123.1875,16.95 C123.2375,17 123.2875,17.025 123.3375,17.05 C124.0125,17.4 124.7125,17.55 125.3375,17.55 C126.2125,17.55 126.8625,17.375 127.3375,17.125 L127.3375,11.95 L125.3875,11.95 L125.3875,9.225 L133.4875,9.225 Z M142.2875,26 L142.2875,11.95 L139.0125,11.95 L139.0125,21.8 L135.6625,21.8 C134.1625,20.725 133.6375,18.875 133.6375,17.675 L135.5625,16.25 L135.5625,11.95 L131.9875,11.95 L131.9875,9.225 L148.3875,9.225 L148.3875,11.95 L145.7625,11.95 L145.7625,26 L142.2875,26 Z M158.0875,16.875 C159.1875,16.875 160.2875,16.625 161.0375,15.975 C162.0625,14.7 163.6625,14.175 165.1625,14.175 L168.2875,14.175 L168.2875,11.95 L156.7375,11.95 L156.7375,15.875 C156.7375,16.175 156.7125,16.475 156.6625,16.75 C157.0625,16.825 157.5125,16.875 158.0875,16.875 Z M153.3125,19.575 L153.3125,19.675 C153.8375,20.2 154.3375,20.725 155.3375,21.925 L157.6375,24.675 L154.7625,26.475 L147.6625,17.725 L150.3125,15.625 C151.0125,16.575 151.4875,17.025 152.2125,17.025 C152.7875,17.025 153.2375,16.7 153.2375,15.8 L153.2375,11.95 L146.8875,11.95 L146.8875,9.225 L174.4625,9.225 L174.4625,11.95 L171.8125,11.95 L171.8125,26 L168.2875,26 L168.2875,17.2 L165.7875,17.2 C164.6125,17.2 163.6125,17.825 163.6125,19.35 C163.6125,21.25 164.7125,22.875 166.4875,24.125 L163.9625,26.325 C162.2125,25.125 160.2625,22.825 160.0375,19.8 C159.5625,19.9 159.0625,19.95 158.5625,19.95 C157.1375,19.95 156.0875,19.6 155.2375,18.975 C154.8875,19.2 154.4875,19.35 154.0625,19.45 C153.8125,19.5 153.5625,19.55 153.3125,19.575 Z" id="१५-अगस्त"></path>
            </g>
        </g>
    </g>
</svg>