<?xml version="1.0" encoding="UTF-8"?>
<svg width="250px" height="299px" viewBox="0 0 250 299" version="1.1" xmlns="http://www.w3.org/2000/svg" xmlns:xlink="http://www.w3.org/1999/xlink">
    <!-- Generator: Sketch 48.2 (47327) - http://www.bohemiancoding.com/sketch -->
    <title>hin_5</title>
    <desc>Created with Sketch.</desc>
    <defs>
        <radialGradient cx="400%" cy="400%" fx="400%" fy="400%" r="50.0253367%" gradientTransform="translate(4.000000,4.000000),scale(1.000000,1.000000),translate(-4.000000,-4.000000)" id="radialGradient-1">
            <stop stop-color="#FF9495" offset="0%"></stop>
            <stop stop-color="#FE5F60" offset="70.3742825%"></stop>
            <stop stop-color="#FF9091" offset="100%"></stop>
        </radialGradient>
    </defs>
    <g id="Page-1" stroke="none" stroke-width="1" fill="none" fill-rule="evenodd">
        <g id="hin_5">
            <g id="5-copy" transform="translate(0.000000, 49.000000)" fill-rule="nonzero">
                <g id="Group-7" transform="translate(0.637670, 0.351157)">
                    <path d="M124.637764,0 C132.821471,3.54941064e-05 140.926556,0.798353806 148.953007,2.39495144 C156.979458,3.99155257 164.773039,6.3557574 172.333767,9.48756474 C179.894518,12.6193674 187.07714,16.4586026 193.881645,21.0052615 C200.686127,25.5519244 206.981723,30.7186496 212.768466,36.505437 C218.55521,42.2922239 223.721866,48.5878904 228.268475,55.3924265 C232.815084,62.1969726 236.654249,69.3796356 239.785993,76.9404155 C242.917771,84.501213 245.281976,92.2948576 246.878535,100.321349 C248.475089,108.347835 249.273352,116.452955 249.273352,124.63668 C249.273317,132.820463 248.47502,140.925612 246.87839,148.952133 C245.281836,156.978654 242.917632,164.77231 239.785777,172.333131 C236.653998,179.893946 232.81477,187.076626 228.26812,193.88116 C223.721476,200.685701 218.554745,206.981366 212.767931,212.768162 C206.981152,218.554958 200.685522,223.721672 193.880953,228.268334 C187.076412,232.814977 179.893755,236.654194 172.332969,239.785956 C164.772184,242.917752 156.978533,245.281921 148.952047,246.878499 C140.925544,248.47507 132.820424,249.27335 124.636682,249.27335 C116.452899,249.273315 108.347767,248.475 100.321264,246.878388 C92.2947429,245.281799 84.5010693,242.917595 76.9402486,239.785775 C69.3794278,236.653979 62.1967532,232.81475 55.392213,228.268101 C48.5876669,223.72144 42.2920016,218.554726 36.5052171,212.767929 C30.7184267,206.981156 25.5517068,200.685485 21.005063,193.880951 C16.4584077,187.076411 12.6191964,179.893754 9.48740589,172.33295 C6.35561542,164.772164 3.99144027,156.978532 2.39487464,148.952046 C0.798285727,140.925542 0,132.820422 0,124.63668 C2.90935298e-05,116.452914 0.798343914,108.347783 2.39494446,100.32125 C3.99154501,92.2947296 6.35574925,84.5010675 9.48755718,76.9402584 C12.6193651,69.3794494 16.4586055,62.1967689 21.0052667,55.3922229 C25.5519221,48.5876774 30.7186478,42.2920022 36.5054382,36.5052148 C42.2922344,30.7184232 48.5878997,25.5517027 55.3924283,21.0050526 C62.1969627,16.458403 69.3796431,12.6191853 76.9404289,9.48740007 C84.5012089,6.35561542 92.2948651,3.99143736 100.321351,2.39486707 C108.347837,0.798292128 116.452951,4.65496476e-06 124.636682,4.65496476e-06 L124.636577,56.086505 C120.135546,56.0865341 115.67776,56.5256079 111.263212,57.4037437 C106.848659,58.2818679 102.562199,59.5821799 98.4037791,61.3046682 C94.2453594,63.0271681 90.2949352,65.1387532 86.5524599,67.6394177 C82.8099904,70.1400823 79.3474123,72.9817811 76.1647023,76.1645144 C72.9819924,79.3472476 70.1403109,82.8098664 67.6396813,86.5523534 C65.1390459,90.294852 63.0274898,94.2453169 61.305019,98.4037482 C59.5825599,102.56218 58.2822653,106.848681 57.4041528,111.263263 C56.5260693,115.67781 56.0870247,120.135637 56.0870072,124.636697 C56.0870247,129.137757 56.5261042,133.595602 57.40424,138.010184 C58.2823526,142.424773 59.5826646,146.711274 61.3051587,150.869722 C63.0276702,155.028177 65.1392379,158.978642 67.6399082,162.721146 C70.1405786,166.463656 72.9822775,169.926287 76.1650049,173.109014 C79.347744,176.291742 82.8103628,179.133441 86.5528497,181.634111 C90.2953425,184.134741 94.2458016,186.246314 98.4042387,187.968808 C102.562676,189.691296 106.849177,190.991608 111.263742,191.869727 C115.678313,192.747822 120.136116,193.186872 124.637176,193.186872 C129.138242,193.186855 133.596081,192.747787 138.010686,191.869674 C142.425251,190.991539 146.71177,189.691227 150.870224,187.968715 C155.028679,186.246227 158.979138,184.134653 162.721648,181.633983 C166.464135,179.133313 169.926754,176.29162 173.109493,173.108892 C176.292238,169.926165 179.133937,166.463546 181.634607,162.721042 C184.13526,158.978531 186.246828,155.028072 187.969305,150.869635 C189.691775,146.711198 190.992087,142.424697 191.870206,138.010132 C192.748318,133.59555 193.187369,129.13774 193.187351,124.636697 C193.187334,120.135637 192.748266,115.677793 191.870153,111.263211 C190.992018,106.848622 189.691706,102.562104 187.969194,98.4036551 C186.246723,94.2452064 184.13515,90.2947356 181.634479,86.552237 C179.133815,82.8097384 176.292098,79.3471254 173.109371,76.1643922 C169.926644,72.9816531 166.464031,70.1399659 162.72152,67.6393072 C158.979016,65.1386426 155.028551,63.027075 150.870114,61.3045925 C146.711683,59.5821101 142.425182,58.2818039 138.010628,57.4036855 C133.596046,56.525573 129.138242,56.0865167 124.637176,56.0865167 L124.637764,0 Z" id="Fill-8" fill="url(#radialGradient-1)"></path>
                    <circle id="Oval" fill="#FFFFFF" cx="124.90822" cy="124.90822" r="87.3982442"></circle>
                </g>
            </g>
            <path d="M104.294,195.284 C104.294,192.204 106.31,190.104 109.39,190.104 C112.47,190.104 114.486,192.204 114.486,195.284 C114.486,198.336 112.442,200.408 109.362,200.408 C106.282,200.408 104.294,198.364 104.294,195.284 Z M106.73,195.284 C106.73,197.02 107.738,198.196 109.362,198.196 C111.014,198.196 112.05,196.992 112.05,195.284 C112.05,193.548 111.042,192.316 109.39,192.316 C107.738,192.316 106.73,193.548 106.73,195.284 Z M118.87,209.144 L116.434,209.144 L118.086,202.2 L121.25,202.2 L118.87,209.144 Z M131.138,195.284 C131.138,192.204 133.154,190.104 136.234,190.104 C139.314,190.104 141.33,192.204 141.33,195.284 C141.33,198.336 139.286,200.408 136.206,200.408 C133.126,200.408 131.138,198.364 131.138,195.284 Z M133.574,195.284 C133.574,197.02 134.582,198.196 136.206,198.196 C137.858,198.196 138.894,196.992 138.894,195.284 C138.894,193.548 137.886,192.316 136.234,192.316 C134.582,192.316 133.574,193.548 133.574,195.284 Z M158.23,204.608 L155.374,205.168 L153.19,198.896 C152.49,199.26 151.51,199.624 149.914,199.624 C146.834,199.624 144.482,197.58 144.482,194.192 C144.482,191.336 145.798,188.676 147.758,186.436 L149.97,187.808 C148.206,189.684 147.142,191.98 147.142,194.08 C147.142,196.152 148.346,197.244 150.026,197.244 C151.398,197.244 152.154,196.88 152.602,196.516 L152.014,193.604 L153.806,192.876 C154.786,193.856 155.766,194.92 155.766,196.04 C155.766,196.74 155.626,197.3 155.094,197.916 L158.23,204.608 Z M93.592,219.96 L95.944,219.96 L95.944,236.116 L99.332,236.116 L99.332,239 L88.972,239 L88.972,236.116 L92.78,236.116 L92.78,223.236 L88.972,224.664 L88.972,221.724 L93.592,219.96 Z M126.916,219.4 L129.8,219.4 L129.8,239 L126.608,239 L126.608,225.28 L120.42,234.576 L118.516,234.576 L112.328,225.252 L112.328,239 L109.136,239 L109.136,219.4 L112.02,219.4 L119.468,230.628 L126.916,219.4 Z M137.852,239 L134.66,239 L134.66,219.4 L137.656,219.4 L148.212,233.736 C148.184,233.064 148.184,232.308 148.184,231.58 L148.184,219.4 L151.376,219.4 L151.376,239 L148.38,239 L137.824,224.664 C137.852,225.336 137.852,226.092 137.852,226.792 L137.852,239 Z M159.428,239 L156.236,239 L156.236,219.4 L164.076,219.4 C167.744,219.4 171.608,220.856 171.608,225.532 C171.608,229.032 169.424,230.712 166.848,231.328 L173.12,239 L169.284,239 L163.404,231.664 L159.428,231.664 L159.428,239 Z M159.428,222.312 L159.428,228.836 L164.216,228.836 C166.316,228.836 168.36,228.08 168.36,225.588 C168.36,223.068 166.316,222.312 164.216,222.312 L159.428,222.312 Z" id="०,-०५-1-MNR" fill="#000000" fill-rule="nonzero"></path>
            <path d="M103.969607,125.478317 C103.969607,120.045357 106.574067,115.53656 112.791166,115.53656 C119.008265,115.53656 121.612725,120.045357 121.612725,125.478317 C121.612725,130.911277 119.008265,135.420074 112.791166,135.420074 C106.574067,135.420074 103.969607,130.911277 103.969607,125.478317 Z M116.431809,125.478317 C116.431809,121.809669 115.283606,120.017352 112.791166,120.017352 C110.298725,120.017352 109.150522,121.809669 109.150522,125.478317 C109.150522,129.146966 110.298725,130.939282 112.791166,130.939282 C115.283606,130.939282 116.431809,129.146966 116.431809,125.478317 Z M131.666502,136.680297 L128.585957,136.680297 L140.039982,113.716238 L143.120526,113.716238 L131.666502,136.680297 Z M134.130937,120.017352 C134.130937,123.377946 131.666502,125.058243 128.809997,125.058243 C125.925487,125.058243 123.461052,123.377946 123.461052,120.017352 C123.461052,116.656758 125.925487,114.976461 128.809997,114.976461 C131.666502,114.976461 134.130937,116.656758 134.130937,120.017352 Z M127.157705,120.017352 C127.157705,120.857501 127.605784,121.697649 128.809997,121.697649 C129.986205,121.697649 130.434284,120.857501 130.434284,120.017352 C130.434284,119.177204 129.986205,118.337055 128.809997,118.337055 C127.605784,118.337055 127.157705,119.177204 127.157705,120.017352 Z M148.133412,130.379183 C148.133412,133.739777 145.668976,135.420074 142.812472,135.420074 C139.927962,135.420074 137.463526,133.739777 137.463526,130.379183 C137.463526,127.018589 139.927962,125.338292 142.812472,125.338292 C145.668976,125.338292 148.133412,127.018589 148.133412,130.379183 Z M141.16018,130.379183 C141.16018,131.219332 141.608259,132.05948 142.812472,132.05948 C143.988679,132.05948 144.436759,131.219332 144.436759,130.379183 C144.436759,129.539035 143.988679,128.698886 142.812472,128.698886 C141.608259,128.698886 141.16018,129.539035 141.16018,130.379183 Z" id="0%" fill="#131F3C" fill-rule="nonzero"></path>
            <g id="diskon" transform="translate(111.000000, 148.000000)" fill="#000000" fill-rule="nonzero">
                <path d="M8.669,15.609 C4.966,15.609 2.827,13.493 2.827,11.124 C2.827,9.261 3.839,8.364 4.782,8.019 L4.782,7.927 C3.241,7.674 2.413,6.524 2.413,5.144 C2.413,4.178 2.804,3.557 3.218,3.166 L3.218,3.074 L0.573,3.074 L0.573,0.567 L18.03,0.567 L18.03,3.074 L14.534,3.074 L14.534,4.96 C15.776,5.581 16.558,6.823 16.558,8.64 C16.558,12.021 13.591,15.609 8.669,15.609 Z M12.855,9.031 L10.923,10.825 C10.026,10.503 8.853,9.56 8.853,7.835 C8.853,6.34 9.888,5.075 11.498,4.684 L11.498,3.074 L7.749,3.074 C6.369,3.074 5.771,3.948 5.771,4.937 C5.771,5.903 6.369,6.639 7.565,6.639 L8.324,6.639 L8.324,9.261 C8.186,9.261 8.048,9.261 7.933,9.284 C6.599,9.399 6.139,10.112 6.139,10.986 C6.139,12.067 7.105,12.918 8.968,12.918 C11.613,12.918 13.706,10.917 13.706,8.594 C13.706,7.513 13.246,7.076 12.648,7.076 C12.188,7.076 11.843,7.398 11.843,7.881 C11.843,8.456 12.234,8.824 12.855,9.031 Z M14.994,22.555 L12.211,23.337 C11.682,20.439 9.911,18.438 8.278,18.438 C7.634,18.438 7.151,18.829 7.151,19.45 C7.151,20.002 7.542,20.393 8.186,20.393 C8.646,20.393 9.129,20.209 9.52,19.979 L9.52,22.532 C8.945,22.831 8.278,22.923 7.68,22.923 C5.633,22.923 4.253,21.451 4.253,19.542 C4.253,17.403 5.955,15.977 8.278,15.977 C12.188,15.977 14.534,19.795 14.994,22.555 Z M16.65,3.074 L16.65,0.567 L30.427,0.567 L30.427,3.074 L27.414,3.074 L27.414,6.938 L24.079,7.789 C21.641,8.41 21.296,9.261 21.296,10.411 C21.296,11.446 22.055,12.642 24.033,12.642 C25.505,12.642 26.747,12.182 28.081,10.779 L29.645,13.378 C28.012,14.942 26.195,15.425 24.424,15.425 C20.698,15.425 18.191,12.803 18.191,9.79 C18.191,7.375 19.456,5.995 22.354,5.19 L24.102,4.707 L24.102,3.074 L16.65,3.074 Z" id="छूट"></path>
            </g>
            <g id="11-—-30-September" transform="translate(51.000000, 0.000000)" fill="#000000" fill-rule="nonzero">
                <path d="M2.9625,12.975 L0.5125,12.975 L0.5125,7.5 L3.6125,7.5 L2.9625,12.975 Z M27.8375,15.875 C28.5625,15.875 29.2875,15.775 29.9125,15.5 L29.9125,10.95 L26.4875,10.95 L26.4875,14.8 C26.4875,15.15 26.4625,15.45 26.4125,15.725 C26.7875,15.825 27.2625,15.875 27.8375,15.875 Z M23.0625,18.575 L23.0625,18.675 C23.5875,19.2 24.0875,19.725 25.0875,20.925 L27.3875,23.675 L24.5125,25.475 L17.4125,16.725 L20.0625,14.625 C20.8375,15.625 21.2375,16.025 21.9625,16.025 C22.5375,16.025 22.9875,15.675 22.9875,14.775 L22.9875,10.95 L16.6375,10.95 L16.6375,8.225 L36.1125,8.225 L36.1125,10.95 L33.4875,10.95 L33.4875,25 L29.9125,25 L29.9125,18.775 C29.3875,18.9 28.8625,18.95 28.3125,18.95 C26.8875,18.95 25.8375,18.6 24.9875,17.975 C24.4875,18.275 23.9125,18.475 23.2875,18.55 C23.2125,18.55 23.1375,18.575 23.0625,18.575 Z M18.1375,10.95 L15.5125,10.95 L15.5125,25 L11.9875,25 L11.9875,10.95 L9.3625,10.95 L9.3625,8.225 L11.9875,8.225 L11.9875,6.9 C11.9875,3.1 14.8625,0.825 20.5125,0.825 C26.2625,0.825 30.7875,3.275 32.5375,4.775 L30.8125,7.025 C28.7625,5.325 24.8375,3.825 20.4625,3.825 C16.7875,3.825 15.5125,4.925 15.5125,6.875 L15.5125,8.225 L18.1375,8.225 L18.1375,10.95 Z M42.9125,23.125 L40.3875,25.325 C38.5125,24.05 36.4375,21.525 36.4375,18.225 C36.4375,14.55 39.1625,13.175 41.5875,13.175 L44.7125,13.175 L44.7125,10.95 L34.6125,10.95 L34.6125,8.225 L50.8875,8.225 L50.8875,10.95 L48.2375,10.95 L48.2375,25 L44.7125,25 L44.7125,16.2 L42.2125,16.2 C41.0375,16.2 40.0375,16.825 40.0375,18.35 C40.0375,20.25 41.1375,21.875 42.9125,23.125 Z M72.1125,10.95 L72.1125,25 L68.5625,25 L68.5625,21.475 L68.4625,21.475 C67.8375,22.1 66.6125,22.625 65.1875,22.625 C62.5875,22.625 60.6375,21.075 60.1125,18.775 L56.3125,18.775 L56.3125,21.275 L53.6625,21.275 C52.2375,20.225 51.5875,18.175 51.5875,16.975 L52.9875,15.875 L52.9875,10.95 L49.3625,10.95 L49.3625,8.225 L74.7375,8.225 L74.7375,10.95 L72.1125,10.95 Z M65.5875,15.075 C65.2125,15.075 64.8375,15.15 64.5125,15.325 L68.2625,18.15 C68.4875,17.75 68.5875,17.275 68.5875,16.8 L68.5875,10.95 L56.4375,10.95 L56.4375,15.7 L60.2375,15.7 C60.9625,13.425 63.1125,12.15 65.1625,12.15 C65.9625,12.15 66.4125,12.2 67.0875,12.375 L67.2625,15.325 C66.6625,15.125 66.1125,15.075 65.5875,15.075 Z M65.7125,19.825 C66.2875,19.825 66.8125,19.65 67.2625,19.35 L63.4375,16.475 C63.3375,16.75 63.2625,17.05 63.2625,17.4 C63.2625,18.85 64.3875,19.825 65.7125,19.825 Z M79.8625,18.5 L79.8625,18.6 C80.3875,19.125 80.8875,19.65 81.8875,20.85 L84.1875,23.6 L81.3125,25.4 L74.0875,16.5 L76.7375,14.4 C77.5125,15.525 78.0375,15.95 78.7625,15.95 C79.3375,15.95 79.7875,15.625 79.7875,14.725 L79.7875,10.95 L73.2375,10.95 L73.2375,8.225 L85.7625,8.225 L85.7625,10.95 L83.2875,10.95 L83.2875,14.8 C83.2875,17.25 81.8375,18.25 80.0875,18.475 C80.0125,18.475 79.9375,18.5 79.8625,18.5 Z M99.2625,25 L96.0125,25 L96.0125,24.725 C96.3125,24.35 96.4375,23.75 96.4375,23.35 C96.4375,22.65 96.2125,22 92.1875,19.4 L92.1875,17.625 C93.6625,17.025 94.7875,16.4 95.6375,15.8 C93.8125,15.75 91.9125,14.2 91.9125,12.075 C91.9125,9.65 93.6625,7.925 96.3875,7.925 C99.0875,7.925 101.0375,9.8 101.0375,12.325 C101.0375,15.275 98.8625,17.575 96.1875,18.95 C99.3375,21.125 99.8375,22 99.8375,23.225 C99.8375,23.85 99.5875,24.5 99.2625,25 Z M97.3125,14.15 C97.7125,13.55 97.8875,12.925 97.8875,12.3 C97.8875,11.4 97.4125,10.8 96.4375,10.8 C95.5625,10.8 95.0375,11.375 95.0375,12.3 C95.0375,13.45 96.1875,14.15 97.3125,14.15 Z M110.7375,25 L107.4875,25 L107.4875,24.725 C107.7875,24.35 107.9125,23.75 107.9125,23.35 C107.9125,22.65 107.6875,22 103.6625,19.4 L103.6625,17.625 C105.1375,17.025 106.2625,16.4 107.1125,15.8 C105.2875,15.75 103.3875,14.2 103.3875,12.075 C103.3875,9.65 105.1375,7.925 107.8625,7.925 C110.5625,7.925 112.5125,9.8 112.5125,12.325 C112.5125,15.275 110.3375,17.575 107.6625,18.95 C110.8125,21.125 111.3125,22 111.3125,23.225 C111.3125,23.85 111.0625,24.5 110.7375,25 Z M108.7875,14.15 C109.1875,13.55 109.3625,12.925 109.3625,12.3 C109.3625,11.4 108.8875,10.8 107.9125,10.8 C107.0375,10.8 106.5125,11.375 106.5125,12.3 C106.5125,13.45 107.6625,14.15 108.7875,14.15 Z M114.8875,17.45 L124.1875,17.45 L124.1875,20.375 L114.8875,20.375 L114.8875,17.45 Z M136.6625,25.375 L133.3375,27.175 L129.8375,23.55 C127.6625,23.475 126.2625,22.2 126.2625,20.675 C126.2625,20.4 126.2875,20.175 126.3375,19.95 L127.8375,18.575 L130.3125,20.65 C130.5375,20.7 130.7125,20.7 130.9125,20.7 C132.6375,20.7 133.6625,19.95 133.6625,18.8 C133.6625,17.85 132.9875,17.2 131.4125,17.2 C130.9375,17.2 130.4125,17.275 129.9625,17.4 L129.2625,14.575 C131.8625,14.275 132.8875,13.675 132.8875,12.425 C132.8875,11.525 132.3625,10.85 131.2125,10.85 C130.1875,10.85 129.2125,11.375 128.6875,11.9 L126.6125,9.4 C127.5625,8.725 128.7375,7.925 131.2125,7.925 C134.0875,7.925 136.1875,9.675 136.1875,12.15 C136.1875,13.825 135.3125,14.775 134.1625,15.325 L134.1625,15.425 C135.4875,15.725 137.0625,16.575 137.0625,18.825 C137.0625,21.625 134.8375,22.65 133.0625,22.8 L133.0625,22.9 L136.6625,25.375 Z M139.5625,15.95 C139.5625,12.975 141.5625,11.05 144.5375,11.05 C147.5125,11.05 149.5375,12.975 149.5375,15.95 C149.5375,18.925 147.5125,20.85 144.5375,20.85 C141.5625,20.85 139.5625,18.925 139.5625,15.95 Z M142.6625,15.95 C142.6625,17.275 143.4125,18.075 144.5375,18.075 C145.6625,18.075 146.4375,17.275 146.4375,15.95 C146.4375,14.625 145.6625,13.825 144.5375,13.825 C143.4125,13.825 142.6625,14.625 142.6625,15.95 Z" id="'-सितम्बर-११-३०"></path>
            </g>
            <path d="M95.612,208.752 L93.176,208.752 L93.232,204.916 C90.292,204.72 88.584,203.516 87.744,202.816 L89.368,200.604 C90.292,201.444 92.084,202.508 94.324,202.508 C96.844,202.508 97.88,201.332 97.88,199.848 C97.88,198.252 96.564,197.524 94.492,196.6 L92.784,195.844 C90.32,194.752 88.724,193.296 88.724,190.748 C88.724,187.92 90.88,186.072 93.624,185.652 L93.568,181.872 L96.004,181.872 L95.948,185.596 C98.356,185.82 99.728,186.884 100.232,187.332 L98.524,189.404 C97.684,188.592 96.228,188.004 94.772,188.004 C92.756,188.004 91.552,188.984 91.552,190.552 C91.552,192.12 92.812,192.932 94.716,193.8 L96.228,194.5 C98.86,195.732 100.708,196.88 100.708,199.596 C100.708,202.004 99.028,204.328 95.556,204.832 L95.612,208.752 Z" id="$" fill="#000000"></path>
        </g>
    </g>
</svg>