<?xml version="1.0" encoding="UTF-8"?>
<svg width="250px" height="292px" viewBox="0 0 250 292" version="1.1" xmlns="http://www.w3.org/2000/svg" xmlns:xlink="http://www.w3.org/1999/xlink">
    <!-- Generator: Sketch 48.2 (47327) - http://www.bohemiancoding.com/sketch -->
    <title>en_2</title>
    <desc>Created with Sketch.</desc>
    <defs>
        <radialGradient cx="202.240629%" cy="200%" fx="202.240629%" fy="200%" r="101.454359%" gradientTransform="translate(2.022406,2.000000),scale(1.000000,0.999999),translate(-2.022406,-2.000000)" id="radialGradient-1">
            <stop stop-color="#FF9495" offset="0%"></stop>
            <stop stop-color="#FE5F60" offset="70.3742825%"></stop>
            <stop stop-color="#FF9091" offset="100%"></stop>
        </radialGradient>
        <radialGradient cx="50%" cy="50%" fx="50%" fy="50%" r="50.0301469%" gradientTransform="translate(0.500000,0.500000),scale(1.000000,1.000000),translate(-0.500000,-0.500000)" id="radialGradient-2">
            <stop stop-color="#8D00FF" offset="0%"></stop>
            <stop stop-color="#5C00FE" offset="69.8959662%"></stop>
            <stop stop-color="#8900FF" offset="100%"></stop>
        </radialGradient>
    </defs>
    <g id="Page-1" stroke="none" stroke-width="1" fill="none" fill-rule="evenodd">
        <g id="en_2" transform="translate(-1.000000, -7.000000)">
            <g id="2-copy" transform="translate(0.000000, 6.000000)" fill-rule="nonzero">
                <g id="Group-2" transform="translate(126.066640, 167.762969) scale(-1, 1) translate(-126.066640, -167.762969) translate(0.566640, 42.762969)">
                    <path d="M0.773750896,124.873729 C0.773779989,116.689946 1.57209481,108.584814 3.16869536,100.558282 C4.76529591,92.5317607 7.12950015,84.7380986 10.2613081,77.1772896 C13.393116,69.6164805 17.2323564,62.4338 21.7790176,55.629254 C26.325673,48.8247085 31.4923987,42.5290333 37.2791891,36.7422459 C43.0659853,30.9554544 49.3616506,25.7887338 56.1661792,21.2420837 C62.9707136,16.6954341 70.153394,12.8562164 77.7141798,9.7244312 C85.2749598,6.59264654 93.068616,4.22846849 101.095102,2.6318982 C109.121588,1.03532325 117.226597,0.237031125 125.410328,0.237031125 L125.410328,56.3235362 C120.909297,56.3235653 116.451511,56.762639 112.036963,57.6407748 C107.62241,58.518899 103.33595,59.8192111 99.17753,61.5416993 C95.0191103,63.2641992 91.0686861,65.3757843 87.3262108,67.8764488 C83.5837413,70.3771134 80.1211632,73.2188123 76.9384532,76.4015455 C73.7557433,79.5842788 70.9140618,83.0468976 68.4134322,86.7893845 C65.9127968,90.5318831 63.8012407,94.482348 62.0787699,98.6407794 C60.3563108,102.799211 59.0560162,107.085712 58.1779036,111.500294 C57.2998202,115.914842 56.8607755,120.372669 56.8607581,124.873729 L0.773750896,124.873729 Z" id="Fill-8" fill="url(#radialGradient-1)"></path>
                    <path d="M125.475948,0.237031125 C133.652855,0.23706659 141.751206,1.03472162 149.770988,2.62999272 C157.790771,4.22526731 165.577876,6.58750783 173.132322,9.71671311 C180.68679,12.8459137 187.863445,16.6819591 194.662297,21.2248403 C201.461125,25.7677257 207.75149,30.9301581 213.533426,36.7121376 C219.315362,42.4941165 224.477725,48.7845522 229.020556,55.5834348 C233.563387,62.3823272 237.399362,69.5590225 240.528504,77.1135206 C243.657681,84.6680362 246.019921,92.4552054 247.615154,100.475028 C249.210382,108.494845 250.007981,116.593231 250.007981,124.770157 C250.007946,132.94714 249.210312,141.045555 247.615009,149.065407 C246.019781,157.085259 243.657541,164.87244 240.528289,172.426979 C237.399112,179.981512 233.563073,187.158224 229.020201,193.957105 C224.477335,200.755992 219.314897,207.046426 213.532891,212.828415 C207.75092,218.610403 201.460521,223.772824 194.661605,228.315708 C187.862718,232.858574 180.686029,236.694601 173.131525,239.823761 C165.577021,242.952955 157.789846,245.31516 149.770029,246.910411 C141.750195,248.505655 133.651809,249.303272 125.474866,249.303272 C117.297883,249.303237 109.199485,248.505586 101.179651,246.9103 C93.1597989,245.315038 85.3726007,242.952798 77.8180619,239.82358 C70.2635232,236.694386 63.0868163,232.858347 56.2879297,228.315475 C49.4890373,223.772592 43.1986028,218.61017 37.4166263,212.828182 C31.6346439,207.046217 26.4722168,200.755777 21.9293506,193.956896 C17.3864729,187.158009 13.5504514,179.98132 10.421263,172.426798 C7.29207463,164.872294 4.92986378,157.085137 3.33462466,149.06532 C1.73936229,141.045485 0.941739824,132.947099 0.941739824,124.770157 C0.941739824,124.770153 19.6218754,124.770159 56.9821467,124.770174 C56.9821641,129.267494 57.4208788,133.721635 58.2982851,138.132549 C59.175668,142.54347 60.4748997,146.826409 62.1959626,150.981403 C63.917043,155.136403 66.0268562,159.083585 68.5254489,162.82298 C71.0240415,166.562381 73.8633794,170.022135 77.0434624,173.202218 C80.2235571,176.382301 83.6832989,179.221639 87.4226764,181.720231 C91.1620597,184.218783 95.1092365,186.328602 99.2642186,188.049665 C103.419201,189.770722 107.70214,191.069954 112.113037,191.947343 C116.52394,192.824708 120.97804,193.263394 125.47536,193.263394 C129.972686,193.263377 134.426821,192.824673 138.837759,191.94729 C143.248656,191.069884 147.531613,189.770653 151.686613,188.049572 C155.841612,186.328515 159.788789,184.218696 163.52819,181.720103 C167.267567,179.221511 170.727309,176.382179 173.907404,173.202096 C177.087504,170.022012 179.926842,166.562271 182.425435,162.822876 C184.92401,159.083475 187.033823,155.136298 188.754868,150.981316 C190.475908,146.826334 191.77514,142.543394 192.652529,138.132497 C193.529912,133.721583 193.968597,129.267477 193.96858,124.770174 C193.968562,120.272854 193.529859,115.818713 192.652476,111.407799 C191.77507,106.996878 190.475838,102.713921 188.754758,98.5589274 C187.033718,94.4039337 184.923899,90.4567452 182.425307,86.7173561 C179.92672,82.977967 177.087365,79.5182309 173.907282,76.338142 C170.727198,73.1580474 167.267462,70.3187211 163.528062,67.8201401 C159.788667,65.3215532 155.841484,63.21174 151.686502,61.4906887 C147.531526,59.7696374 143.248586,58.4704115 138.837701,57.5930227 C134.426786,56.7156397 129.972686,56.2769482 125.47536,56.2769482 L125.475948,0.237031125 Z" id="Fill-8" fill="url(#radialGradient-2)"></path>
                </g>
                <circle id="Oval" fill="#FFFFFF" cx="124.90822" cy="167.671189" r="87.3982442"></circle>
                <path d="M80.1879256,194.352202 L77.8641075,194.352202 L77.8641075,191.209766 C75.9099878,190.99851 74.0614961,190.47037 72.5827028,189.651752 L72.5827028,186.694165 C74.6160436,187.988109 76.9926757,188.51625 79.1052376,188.51625 C81.4818698,188.51625 83.0926982,187.961702 83.0926982,186.218839 C83.0926982,181.940901 72.6619238,184.211905 72.6619238,177.662963 C72.6619238,174.652562 74.9593349,173.041734 77.8641075,172.698443 L77.8641075,169.5296 L80.1879256,169.5296 L80.1879256,172.672036 C81.9571962,172.804071 83.7264668,173.279397 84.9675969,174.018794 L84.9675969,176.897159 C83.4623965,175.893693 81.4026487,175.339145 79.4221219,175.365552 C77.1775249,175.365552 75.7251386,176.025728 75.7251386,177.610149 C75.7251386,181.59761 86.155913,179.458641 86.155913,186.060397 C86.155913,189.625345 83.4888036,191.051324 80.1879256,191.236173 L80.1879256,194.352202 Z M88.3212889,181.940901 C88.3212889,176.685903 90.8035491,172.619222 96.3754311,172.619222 C101.947313,172.619222 104.429573,176.685903 104.429573,181.940901 C104.429573,187.195899 101.947313,191.26258 96.3754311,191.26258 C90.8035491,191.26258 88.3212889,187.195899 88.3212889,181.940901 Z M101.392766,181.940901 C101.392766,177.768591 99.8083442,175.365552 96.3754311,175.365552 C92.916111,175.365552 91.3580966,177.768591 91.3580966,181.940901 C91.3580966,186.113211 92.916111,188.51625 96.3754311,188.51625 C99.8083442,188.51625 101.392766,186.113211 101.392766,181.940901 Z M110.529596,189.466903 C110.529596,190.655219 109.710978,191.209766 108.760325,191.209766 C107.809672,191.209766 106.964648,190.655219 106.964648,189.466903 C106.964648,188.331401 107.809672,187.776853 108.760325,187.776853 C109.710978,187.776853 110.529596,188.331401 110.529596,189.466903 Z M113.06467,181.940901 C113.06467,176.685903 115.54693,172.619222 121.118812,172.619222 C126.690694,172.619222 129.172955,176.685903 129.172955,181.940901 C129.172955,187.195899 126.690694,191.26258 121.118812,191.26258 C115.54693,191.26258 113.06467,187.195899 113.06467,181.940901 Z M126.136147,181.940901 C126.136147,177.768591 124.551725,175.365552 121.118812,175.365552 C117.659492,175.365552 116.101478,177.768591 116.101478,181.940901 C116.101478,186.113211 117.659492,188.51625 121.118812,188.51625 C124.551725,188.51625 126.136147,186.113211 126.136147,181.940901 Z M140.633603,172.962513 L143.723225,172.962513 L143.723225,184.634417 L146.812846,184.634417 L146.812846,187.248713 L143.723225,187.248713 L143.723225,190.919289 L140.818452,190.919289 L140.818452,187.248713 L131.07426,187.248713 L131.07426,184.687231 L140.633603,172.962513 Z M140.818452,184.634417 L140.818452,176.791531 L134.427952,184.634417 L140.818452,184.634417 Z M149.321514,174.441306 C151.170005,173.173769 153.203346,172.619222 155.289501,172.619222 C158.93367,172.619222 161.60078,174.309271 161.60078,177.662963 C161.60078,180.699771 159.065705,182.495448 156.636259,183.947835 C154.312441,185.321 152.120658,186.430095 152.094251,188.225773 L161.732815,188.199366 L161.732815,190.919289 L148.714152,190.919289 L148.714152,189.546124 C148.714152,185.162558 151.962216,183.498915 154.68214,181.888087 C156.768294,180.673364 158.590379,179.749118 158.590379,177.715777 C158.590379,176.157763 157.243621,175.339145 155.025431,175.339145 C153.203346,175.339145 151.222819,175.972914 149.321514,177.346079 L149.321514,174.441306 Z M165.456205,172.962513 L176.520748,172.962513 L176.520748,175.656029 L168.228943,175.656029 L167.964872,179.986781 C168.836304,179.775525 169.76055,179.669897 170.684796,179.669897 C174.144116,179.669897 177.365773,181.175097 177.365773,185.400221 C177.365773,189.282054 174.064895,191.26258 170.103841,191.26258 C168.017686,191.26258 165.931532,190.813661 164.34711,190.047857 L164.34711,187.222306 C165.852311,188.093737 167.885651,188.542657 169.76055,188.542657 C172.427659,188.542657 174.328965,187.486376 174.328965,185.373814 C174.328965,182.997182 172.295624,182.152157 169.443666,182.152157 C167.991279,182.152157 166.327637,182.442634 164.875251,182.944368 L165.456205,172.962513 Z M90.2886122,204.962513 L92.5068022,204.962513 L92.5068022,220.199366 L95.702052,220.199366 L95.702052,222.919289 L85.9314533,222.919289 L85.9314533,220.199366 L89.5228085,220.199366 L89.5228085,208.052135 L85.9314533,209.398893 L85.9314533,206.626155 L90.2886122,204.962513 Z M121.528121,204.434372 L124.248045,204.434372 L124.248045,222.919289 L121.237644,222.919289 L121.237644,209.979847 L115.401692,218.746979 L113.606014,218.746979 L107.770062,209.95344 L107.770062,222.919289 L104.759661,222.919289 L104.759661,204.434372 L107.479585,204.434372 L114.503853,215.023589 L121.528121,204.434372 Z M131.747639,222.919289 L128.737239,222.919289 L128.737239,204.434372 L131.56279,204.434372 L141.518238,217.954769 C141.491831,217.321 141.491831,216.60801 141.491831,215.921428 L141.491831,204.434372 L144.502232,204.434372 L144.502232,222.919289 L141.67668,222.919289 L131.721232,209.398893 C131.747639,210.032661 131.747639,210.745651 131.747639,211.405827 L131.747639,222.919289 Z M152.001827,222.919289 L148.991426,222.919289 L148.991426,204.434372 L156.385393,204.434372 C159.844713,204.434372 163.488882,205.807538 163.488882,210.217511 C163.488882,213.518389 161.429134,215.10281 158.999688,215.683765 L164.914861,222.919289 L161.297099,222.919289 L155.751624,216.000649 L152.001827,216.000649 L152.001827,222.919289 Z M152.001827,207.180703 L152.001827,213.333539 L156.517428,213.333539 C158.497954,213.333539 160.425667,212.62055 160.425667,210.270325 C160.425667,207.893693 158.497954,207.180703 156.517428,207.180703 L152.001827,207.180703 Z" id="$0.0425-1-MNR" fill="#131F3C"></path>
            </g>
            <path d="M103.745567,113.956634 L107.526235,113.956634 L107.526235,128.659233 L110.49476,128.659233 L110.49476,133 L99.1247504,133 L99.1247504,128.659233 L102.485344,128.659233 L102.485344,119.08154 L99.1247504,120.341763 L99.1247504,115.720946 L103.745567,113.956634 Z M113.575304,113.928629 L126.037507,113.928629 L126.037507,118.269397 L118.224126,118.241392 L118.028091,121.041887 C118.728215,120.929867 119.428339,120.873857 120.072453,120.873857 C123.965141,120.873857 126.877655,122.638169 126.877655,126.922926 C126.877655,131.627757 122.704918,133.420074 118.448166,133.420074 C116.235775,133.420074 114.023384,132.94399 112.315082,132.131847 L112.315082,127.371005 C113.799344,128.407188 116.03974,128.939282 117.888067,128.939282 C120.044448,128.939282 121.69674,128.295168 121.69674,126.810906 C121.69674,125.606693 120.716566,124.68253 117.608017,124.654525 C116.403804,124.654525 114.667497,124.822555 112.903186,125.438664 L113.575304,113.928629 Z M136.819412,134.680297 L133.738868,134.680297 L145.192892,111.716238 L148.273437,111.716238 L136.819412,134.680297 Z M139.283848,118.017352 C139.283848,121.377946 136.819412,123.058243 133.962908,123.058243 C131.078398,123.058243 128.613962,121.377946 128.613962,118.017352 C128.613962,114.656758 131.078398,112.976461 133.962908,112.976461 C136.819412,112.976461 139.283848,114.656758 139.283848,118.017352 Z M132.310616,118.017352 C132.310616,118.857501 132.758695,119.697649 133.962908,119.697649 C135.139115,119.697649 135.587195,118.857501 135.587195,118.017352 C135.587195,117.177204 135.139115,116.337055 133.962908,116.337055 C132.758695,116.337055 132.310616,117.177204 132.310616,118.017352 Z M153.286323,128.379183 C153.286323,131.739777 150.821887,133.420074 147.965382,133.420074 C145.080873,133.420074 142.616437,131.739777 142.616437,128.379183 C142.616437,125.018589 145.080873,123.338292 147.965382,123.338292 C150.821887,123.338292 153.286323,125.018589 153.286323,128.379183 Z M146.31309,128.379183 C146.31309,129.219332 146.761169,130.05948 147.965382,130.05948 C149.14159,130.05948 149.589669,129.219332 149.589669,128.379183 C149.589669,127.539035 149.14159,126.698886 147.965382,126.698886 C146.761169,126.698886 146.31309,127.539035 146.31309,128.379183 Z" id="15%" fill="#131F3C" fill-rule="nonzero"></path>
            <path d="M100.6045,145.9 L103.7785,145.9 L103.7785,162 L100.9725,162 L100.9725,160.39 C100.2595,161.379 98.9945,162.322 96.9705,162.322 C93.4515,162.322 91.5655,159.493 91.5655,156.48 C91.5655,153.467 93.4515,150.638 96.9705,150.638 C98.7185,150.638 99.8915,151.351 100.6045,152.133 L100.6045,145.9 Z M100.6045,155.169 C100.1675,154.203 99.1325,153.329 97.7295,153.329 C95.9125,153.329 94.8315,154.755 94.8315,156.48 C94.8315,158.205 95.9125,159.631 97.7295,159.631 C99.1325,159.631 100.1675,158.757 100.6045,157.791 L100.6045,155.169 Z M110.0125,162 L106.8155,162 L106.8155,150.96 L110.0125,150.96 L110.0125,162 Z M110.2885,147.303 C110.2885,148.568 109.4145,149.12 108.4025,149.12 C107.4135,149.12 106.5395,148.568 106.5395,147.303 C106.5395,146.061 107.4135,145.509 108.4025,145.509 C109.4145,145.509 110.2885,146.061 110.2885,147.303 Z M112.5895,154.042 C112.5895,151.489 114.8665,150.638 117.1895,150.638 C118.7535,150.638 120.1335,151.029 121.2605,151.581 L121.2605,154.203 C120.3175,153.559 118.7075,153.076 117.3965,153.076 C116.6835,153.076 115.8555,153.283 115.8555,153.95 C115.8555,155.79 122.0885,154.87 122.0885,158.918 C122.0885,161.517 119.7195,162.322 117.0745,162.322 C115.3955,162.322 113.8085,161.954 112.6815,161.287 L112.6815,158.642 C113.8775,159.424 115.5565,159.815 116.8905,159.815 C118.0635,159.815 118.8225,159.608 118.8225,158.987 C118.8225,157.216 112.5895,157.998 112.5895,154.042 Z M135.5905,162 L132.0025,162 L128.8285,157.63 L127.5405,157.63 L127.5405,162 L124.3435,162 L124.3435,145.9 L127.5405,145.9 L127.5405,155.077 L128.8745,155.077 L131.6805,150.96 L135.2685,150.96 L131.4735,156.411 L135.5905,162 Z M136.0745,156.48 C136.0745,152.616 138.9725,150.638 142.1695,150.638 C145.3895,150.638 148.2645,152.616 148.2645,156.48 C148.2645,160.344 145.3895,162.322 142.1695,162.322 C138.9725,162.322 136.0745,160.344 136.0745,156.48 Z M145.0215,156.48 C145.0215,154.778 144.0095,153.49 142.1695,153.49 C140.3525,153.49 139.3405,154.778 139.3405,156.48 C139.3405,158.182 140.3525,159.47 142.1695,159.47 C144.0095,159.47 145.0215,158.182 145.0215,156.48 Z M153.4865,152.363 C154.3375,151.374 155.5795,150.638 157.1665,150.638 C160.0645,150.638 161.6515,152.616 161.6515,155.169 L161.6515,162 L158.4545,162 L158.4545,155.583 C158.4545,154.088 157.5575,153.398 156.3155,153.398 C155.1885,153.398 154.3145,154.134 153.8545,154.801 L153.8545,162 L150.6575,162 L150.6575,150.96 L153.4865,150.96 L153.4865,152.363 Z" id="diskon" fill="#131F3C"></path>
            <path d="M43.9875,8 L46.7125,8 L46.7125,21.775 L49.5625,21.775 L49.5625,25 L39.8625,25 L39.8625,21.775 L43.0625,21.775 L43.0625,11.75 L39.8625,12.95 L39.8625,9.575 L43.9875,8 Z M55.6625,15.15 C57.1625,14.35 58.5375,14 60.2125,14 C63.2625,14 66.1375,15.85 66.1375,19.5 C66.1375,23.375 63.1125,25.35 59.6375,25.35 C54.1625,25.35 51.9375,22 51.9375,16.5 C51.9375,10.275 55.6875,7.65 60.0125,7.65 C61.6125,7.65 63.2375,8.025 64.6875,8.7 L64.6875,12 C63.5125,11.225 61.9625,10.8 60.5125,10.8 C58.2125,10.8 56.1125,11.775 55.6625,15.15 Z M55.6625,18.175 C56.0125,21.35 57.3875,22.3 59.3375,22.3 C60.9875,22.3 62.3875,21.55 62.3875,19.675 C62.3875,17.725 60.8125,17.125 59.0625,17.125 C57.9375,17.125 56.7375,17.475 55.6625,18.175 Z M69.0375,17.45 L78.3375,17.45 L78.3375,20.375 L69.0375,20.375 L69.0375,17.45 Z M85.3125,8 L88.0375,8 L88.0375,21.775 L90.8875,21.775 L90.8875,25 L81.1875,25 L81.1875,21.775 L84.3875,21.775 L84.3875,11.75 L81.1875,12.95 L81.1875,9.575 L85.3125,8 Z M92.8125,7.975 L105.8875,7.975 L105.8875,10.675 L98.9125,25 L94.8625,25 L101.5875,11.2 L92.8125,11.2 L92.8125,7.975 Z M116.6125,25 L112.7375,25 L119.8875,7.5 L123.9375,7.5 L131.0625,25 L127.1875,25 L125.9125,21.725 L117.9125,21.725 L116.6125,25 Z M121.5125,12.35 L119.0875,18.625 L124.7375,18.625 L122.2875,12.35 C122.1625,12 122.0375,11.65 121.9125,10.975 C121.7875,11.65 121.6625,12 121.5125,12.35 Z M132.3625,19 C132.3625,15.725 134.4125,12.65 138.2375,12.65 C140.4375,12.65 141.8125,13.675 142.5875,14.75 L142.5875,13 L145.6375,13 L145.6375,24.675 C145.6375,29.25 142.2625,30.85 138.7375,30.85 C136.8625,30.85 135.1125,30.425 133.6625,29.725 L133.6625,26.675 C135.0125,27.475 136.6375,27.925 138.2875,27.925 C140.4125,27.925 142.1875,27.2 142.1875,24.825 L142.1875,23.725 C141.4125,24.575 140.1375,25.35 138.2375,25.35 C134.4125,25.35 132.3625,22.275 132.3625,19 Z M142.1875,17.575 C141.7125,16.525 140.5875,15.575 139.0625,15.575 C137.0875,15.575 135.9125,17.125 135.9125,19 C135.9125,20.875 137.0875,22.425 139.0625,22.425 C140.5875,22.425 141.7125,21.5 142.1875,20.5 L142.1875,17.575 Z M157.6625,13 L161.1375,13 L161.1375,25 L158.0625,25 L158.0625,23.475 C157.1375,24.55 155.7625,25.35 154.0625,25.35 C150.8125,25.35 149.1875,23.2 149.1875,20.425 L149.1875,13 L152.6625,13 L152.6625,19.975 C152.6625,21.575 153.5375,22.35 154.9625,22.35 C156.2125,22.35 157.1375,21.55 157.6625,20.825 L157.6625,13 Z M164.3125,16.35 C164.3125,13.575 166.7875,12.65 169.3125,12.65 C171.0125,12.65 172.5125,13.075 173.7375,13.675 L173.7375,16.525 C172.7125,15.825 170.9625,15.3 169.5375,15.3 C168.7625,15.3 167.8625,15.525 167.8625,16.25 C167.8625,18.25 174.6375,17.25 174.6375,21.65 C174.6375,24.475 172.0625,25.35 169.1875,25.35 C167.3625,25.35 165.6375,24.95 164.4125,24.225 L164.4125,21.35 C165.7125,22.2 167.5375,22.625 168.9875,22.625 C170.2625,22.625 171.0875,22.4 171.0875,21.725 C171.0875,19.8 164.3125,20.65 164.3125,16.35 Z M178.4125,9.5 L181.8625,8.675 L181.8625,13 L185.6625,13 L185.6625,15.925 L181.8625,15.925 L181.8625,20.625 C181.8625,21.875 182.4875,22.425 183.7875,22.425 C184.5875,22.425 185.2625,22.3 185.9625,22.025 L185.9625,24.825 C185.0375,25.15 183.9375,25.35 182.7375,25.35 C180.4125,25.35 178.4125,24.275 178.4125,21.3 L178.4125,15.925 L176.3875,15.925 L176.3875,13 L178.4125,13 L178.4125,9.5 Z M197.0375,13 L200.5125,13 L200.5125,25 L197.4375,25 L197.4375,23.475 C196.5125,24.55 195.1375,25.35 193.4375,25.35 C190.1875,25.35 188.5625,23.2 188.5625,20.425 L188.5625,13 L192.0375,13 L192.0375,19.975 C192.0375,21.575 192.9125,22.35 194.3375,22.35 C195.5875,22.35 196.5125,21.55 197.0375,20.825 L197.0375,13 Z M203.6875,16.35 C203.6875,13.575 206.1625,12.65 208.6875,12.65 C210.3875,12.65 211.8875,13.075 213.1125,13.675 L213.1125,16.525 C212.0875,15.825 210.3375,15.3 208.9125,15.3 C208.1375,15.3 207.2375,15.525 207.2375,16.25 C207.2375,18.25 214.0125,17.25 214.0125,21.65 C214.0125,24.475 211.4375,25.35 208.5625,25.35 C206.7375,25.35 205.0125,24.95 203.7875,24.225 L203.7875,21.35 C205.0875,22.2 206.9125,22.625 208.3625,22.625 C209.6375,22.625 210.4625,22.4 210.4625,21.725 C210.4625,19.8 203.6875,20.65 203.6875,16.35 Z" id="16-17-Agustus" fill="#131F3C"></path>
        </g>
    </g>
</svg>