<?xml version="1.0" encoding="UTF-8"?>
<svg width="250px" height="291px" viewBox="0 0 250 291" version="1.1" xmlns="http://www.w3.org/2000/svg" xmlns:xlink="http://www.w3.org/1999/xlink">
    <!-- Generator: Sketch 48.2 (47327) - http://www.bohemiancoding.com/sketch -->
    <title>en_0</title>
    <desc>Created with Sketch.</desc>
    <defs>
        <radialGradient cx="50%" cy="50%" fx="50%" fy="50%" r="50.0301469%" gradientTransform="translate(0.500000,0.500000),translate(-0.500000,-0.500000)" id="radialGradient-1">
            <stop stop-color="#8800FF" offset="0%"></stop>
            <stop stop-color="#8600FB" offset="71.050849%"></stop>
            <stop stop-color="#EB00FE" offset="100%"></stop>
        </radialGradient>
    </defs>
    <g id="Page-1" stroke="none" stroke-width="1" fill="none" fill-rule="evenodd">
        <g id="en_0" transform="translate(-55.000000, -7.000000)">
            <path d="M179.534208,48.7629689 C187.711116,48.7630043 195.809466,49.5606594 203.829249,51.1559305 C211.849031,52.7512051 219.636136,55.1134456 227.190582,58.2426509 C234.745051,61.3718515 241.921705,65.2078968 248.720557,69.7507781 C255.519385,74.2936634 261.80975,79.4560958 267.591686,85.2380753 C273.373622,91.0200542 278.535985,97.3104899 283.078816,104.109372 C287.621648,110.908265 291.457622,118.08496 294.586764,125.639458 C297.715941,133.193974 300.078181,140.981143 301.673414,149.000966 C303.268642,157.020783 304.066241,165.119169 304.066241,173.296094 C304.066206,181.473078 303.268572,189.571493 301.673269,197.591345 C300.078041,205.611197 297.715802,213.398378 294.586549,220.952916 C291.457372,228.507449 287.621334,235.684162 283.078462,242.483043 C278.535595,249.28193 273.373157,255.572364 267.591151,261.354352 C261.80918,267.13634 255.518781,272.298762 248.719865,276.841645 C241.920978,281.384512 234.744289,285.220539 227.189785,288.349698 C219.635281,291.478892 211.848106,293.841098 203.828289,295.436348 C195.808455,297.031593 187.710069,297.82921 179.533126,297.82921 C171.356143,297.829175 163.257746,297.031523 155.237911,295.436238 C147.218059,293.840975 139.430861,291.478736 131.876322,288.349518 C124.321783,285.220324 117.145077,281.384285 110.34619,276.841413 C103.547297,272.298529 97.256863,267.136108 91.4748864,261.35412 C85.6929041,255.572155 80.5304769,249.281714 75.9876108,242.482834 C71.4447331,235.683947 67.6087116,228.507257 64.4795232,220.952736 C61.3503348,213.398232 58.988124,205.611075 57.3928848,197.591257 C55.7976225,189.571423 55,181.473037 55,173.296094 C55.0000291,165.119128 55.7976806,157.020731 57.3929546,149.000867 C58.9882286,140.981015 61.3504685,133.193829 64.4796744,125.639301 C67.6088802,118.084774 71.4449307,110.908062 75.9878143,104.109169 C80.530692,97.3102771 85.693125,91.0198327 91.4751074,85.2378532 C97.2570955,79.4558697 103.54753,74.2934419 110.346405,69.7505694 C117.145286,65.2076974 124.321999,61.3716695 131.876502,58.2424863 C139.431,55.1133037 147.218181,52.7510899 155.237998,51.1558462 C163.257815,49.5605977 171.356195,48.7629735 179.533126,48.7629735 L179.533022,104.802874 C175.03573,104.802903 170.581648,105.241612 166.170768,106.119019 C161.759883,106.996413 157.476984,108.295645 153.32202,110.016702 C149.167055,111.737771 145.219913,113.847601 141.480547,116.346188 C137.741187,118.844775 134.281486,121.684113 131.10142,124.864202 C127.921355,128.044291 125.082034,131.504033 122.583482,135.24341 C120.084925,138.982799 117.975123,142.929982 116.254083,147.084958 C114.533055,151.239934 113.233841,155.522874 112.356458,159.933789 C111.479104,164.344668 111.040424,168.798791 111.040407,173.296112 C111.040424,177.793432 111.479139,182.247573 112.356545,186.658487 C113.233928,191.069408 114.53316,195.352347 116.254223,199.507341 C117.975303,203.66234 120.085116,207.609523 122.583709,211.348918 C125.082302,215.088319 127.921639,218.548072 131.101723,221.728155 C134.281817,224.908238 137.741559,227.747576 141.480937,230.246169 C145.22032,232.744721 149.167497,234.85454 153.322479,236.575603 C157.477461,238.29666 161.7604,239.595892 166.171297,240.473281 C170.5822,241.350646 175.0363,241.789332 179.533621,241.789332 C184.030947,241.789314 188.485081,241.350611 192.896019,240.473228 C197.306916,239.595822 201.589873,238.29659 205.744873,236.57551 C209.899872,234.854453 213.847049,232.744634 217.58645,230.246041 C221.325827,227.747448 224.785569,224.908116 227.965664,221.728033 C231.145764,218.54795 233.985102,215.088208 236.483695,211.348813 C238.98227,207.609413 241.092083,203.662236 242.813129,199.507254 C244.534168,195.352272 245.8334,191.069332 246.710789,186.658435 C247.588172,182.24752 248.026857,177.793415 248.02684,173.296112 C248.026823,168.798791 247.588119,164.344651 246.710736,159.933736 C245.83333,155.522816 244.534099,151.239859 242.813018,147.084865 C241.091979,142.929871 238.982159,138.982683 236.483567,135.243294 C233.98498,131.503905 231.145625,128.044169 227.965542,124.86408 C224.785459,121.683985 221.325723,118.844659 217.586322,116.346078 C213.846927,113.847491 209.899744,111.737678 205.744762,110.016626 C201.589786,108.295575 197.306846,106.996349 192.895961,106.11896 C188.485047,105.241577 184.030947,104.802886 179.533621,104.802886 L179.534208,48.7629689 Z" id="Fill-8" fill="url(#radialGradient-1)" fill-rule="nonzero"></path>
            <circle id="Oval" fill="#FFFFFF" fill-rule="nonzero" cx="180.65842" cy="174.421389" r="87.3982442"></circle>
            <path d="M134.810425,200.478404 L132.486607,200.478404 L132.486607,197.335968 C130.532487,197.124712 128.683996,196.596571 127.205202,195.777954 L127.205202,192.820367 C129.238543,194.114311 131.615175,194.642452 133.727737,194.642452 C136.104369,194.642452 137.715198,194.087904 137.715198,192.345041 C137.715198,188.067103 127.284423,190.338107 127.284423,183.789165 C127.284423,180.778764 129.581835,179.167936 132.486607,178.824644 L132.486607,175.655802 L134.810425,175.655802 L134.810425,178.798237 C136.579696,178.930273 138.348966,179.405599 139.590097,180.144996 L139.590097,183.023361 C138.084896,182.019894 136.025148,181.465347 134.044622,181.491754 C131.800025,181.491754 130.347638,182.151929 130.347638,183.736351 C130.347638,187.723811 140.778413,185.584843 140.778413,192.186598 C140.778413,195.751547 138.111303,197.177526 134.810425,197.362375 L134.810425,200.478404 Z M142.943789,188.067103 C142.943789,182.812105 145.426049,178.745423 150.997931,178.745423 C156.569813,178.745423 159.052073,182.812105 159.052073,188.067103 C159.052073,193.3221 156.569813,197.388782 150.997931,197.388782 C145.426049,197.388782 142.943789,193.3221 142.943789,188.067103 Z M156.015265,188.067103 C156.015265,183.894793 154.430844,181.491754 150.997931,181.491754 C147.538611,181.491754 145.980596,183.894793 145.980596,188.067103 C145.980596,192.239413 147.538611,194.642452 150.997931,194.642452 C154.430844,194.642452 156.015265,192.239413 156.015265,188.067103 Z M165.152095,195.593105 C165.152095,196.781421 164.333478,197.335968 163.382825,197.335968 C162.432172,197.335968 161.587147,196.781421 161.587147,195.593105 C161.587147,194.457602 162.432172,193.903055 163.382825,193.903055 C164.333478,193.903055 165.152095,194.457602 165.152095,195.593105 Z M167.68717,188.067103 C167.68717,182.812105 170.16943,178.745423 175.741312,178.745423 C181.313194,178.745423 183.795454,182.812105 183.795454,188.067103 C183.795454,193.3221 181.313194,197.388782 175.741312,197.388782 C170.16943,197.388782 167.68717,193.3221 167.68717,188.067103 Z M180.758646,188.067103 C180.758646,183.894793 179.174225,181.491754 175.741312,181.491754 C172.281992,181.491754 170.723977,183.894793 170.723977,188.067103 C170.723977,192.239413 172.281992,194.642452 175.741312,194.642452 C179.174225,194.642452 180.758646,192.239413 180.758646,188.067103 Z M186.805855,180.567508 C188.654347,179.299971 190.687687,178.745423 192.773842,178.745423 C196.418012,178.745423 199.085121,180.435473 199.085121,183.789165 C199.085121,186.825973 196.550047,188.62165 194.1206,190.074037 C191.796782,191.447202 189.604999,192.556297 189.578592,194.351974 L199.217156,194.325567 L199.217156,197.045491 L186.198493,197.045491 L186.198493,195.672326 C186.198493,191.28876 189.446557,189.625117 192.166481,188.014289 C194.252636,186.799566 196.07472,185.87532 196.07472,183.841979 C196.07472,182.283965 194.727962,181.465347 192.509772,181.465347 C190.687687,181.465347 188.707161,182.099115 186.805855,183.472281 L186.805855,180.567508 Z M202.940546,179.088715 L214.005089,179.088715 L214.005089,181.782231 L205.713284,181.782231 L205.449214,186.112983 C206.320645,185.901727 207.244891,185.796099 208.169137,185.796099 C211.628457,185.796099 214.850114,187.301299 214.850114,191.526423 C214.850114,195.408255 211.549236,197.388782 207.588183,197.388782 C205.502028,197.388782 203.415873,196.939863 201.831451,196.174059 L201.831451,193.348508 C203.336652,194.219939 205.369993,194.668859 207.244891,194.668859 C209.912001,194.668859 211.813306,193.612578 211.813306,191.500016 C211.813306,189.123384 209.779966,188.278359 206.928007,188.278359 C205.475621,188.278359 203.811978,188.568836 202.359592,189.07057 L202.940546,179.088715 Z M217.200339,188.067103 C217.200339,182.812105 219.682599,178.745423 225.254481,178.745423 C230.826363,178.745423 233.308624,182.812105 233.308624,188.067103 C233.308624,193.3221 230.826363,197.388782 225.254481,197.388782 C219.682599,197.388782 217.200339,193.3221 217.200339,188.067103 Z M230.271816,188.067103 C230.271816,183.894793 228.687395,181.491754 225.254481,181.491754 C221.795161,181.491754 220.237147,183.894793 220.237147,188.067103 C220.237147,192.239413 221.795161,194.642452 225.254481,194.642452 C228.687395,194.642452 230.271816,192.239413 230.271816,188.067103 Z M145.663712,211.088715 L147.881902,211.088715 L147.881902,226.325567 L151.077152,226.325567 L151.077152,229.045491 L141.306553,229.045491 L141.306553,226.325567 L144.897908,226.325567 L144.897908,214.178336 L141.306553,215.525095 L141.306553,212.752357 L145.663712,211.088715 Z M176.903221,210.560574 L179.623144,210.560574 L179.623144,229.045491 L176.612744,229.045491 L176.612744,216.106049 L170.776791,224.873181 L168.981114,224.873181 L163.145162,216.079642 L163.145162,229.045491 L160.134761,229.045491 L160.134761,210.560574 L162.854684,210.560574 L169.878953,221.149791 L176.903221,210.560574 Z M187.122739,229.045491 L184.112338,229.045491 L184.112338,210.560574 L186.93789,210.560574 L196.893338,224.08097 C196.866931,223.447202 196.866931,222.734212 196.866931,222.04763 L196.866931,210.560574 L199.877332,210.560574 L199.877332,229.045491 L197.05178,229.045491 L187.096332,215.525095 C187.122739,216.158863 187.122739,216.871853 187.122739,217.532028 L187.122739,229.045491 Z M207.376926,229.045491 L204.366526,229.045491 L204.366526,210.560574 L211.760492,210.560574 C215.219812,210.560574 218.863982,211.933739 218.863982,216.343712 C218.863982,219.64459 216.804234,221.229012 214.374788,221.809966 L220.289961,229.045491 L216.672199,229.045491 L211.126724,222.126851 L207.376926,222.126851 L207.376926,229.045491 Z M207.376926,213.306905 L207.376926,219.459741 L211.892527,219.459741 C213.873054,219.459741 215.800767,218.746752 215.800767,216.396526 C215.800767,214.019894 213.873054,213.306905 211.892527,213.306905 L207.376926,213.306905 Z" id="$0.0250-1-MNR" fill="#6202E1" fill-rule="nonzero"></path>
            <path d="M151.942498,110.251 L164.847498,110.251 L164.847498,114.746 L156.756498,114.717 L156.553498,117.617 C157.278498,117.501 158.003498,117.443 158.670498,117.443 C162.701498,117.443 165.717498,119.27 165.717498,123.707 C165.717498,128.579 161.396498,130.435 156.988498,130.435 C154.697498,130.435 152.406498,129.942 150.637498,129.101 L150.637498,124.171 C152.174498,125.244 154.494498,125.795 156.408498,125.795 C158.641498,125.795 160.352498,125.128 160.352498,123.591 C160.352498,122.344 159.337498,121.387 156.118498,121.358 C154.871498,121.358 153.073498,121.532 151.246498,122.17 L151.942498,110.251 Z M167.863498,120.14 C167.863498,114.514 170.560498,109.845 176.998498,109.845 C183.436498,109.845 186.133498,114.514 186.133498,120.14 C186.133498,125.766 183.436498,130.435 176.998498,130.435 C170.560498,130.435 167.863498,125.766 167.863498,120.14 Z M180.768498,120.14 C180.768498,116.341 179.579498,114.485 176.998498,114.485 C174.417498,114.485 173.228498,116.341 173.228498,120.14 C173.228498,123.939 174.417498,125.795 176.998498,125.795 C179.579498,125.795 180.768498,123.939 180.768498,120.14 Z M196.544498,131.74 L193.354498,131.74 L205.215498,107.96 L208.405498,107.96 L196.544498,131.74 Z M199.096498,114.485 C199.096498,117.965 196.544498,119.705 193.586498,119.705 C190.599498,119.705 188.047498,117.965 188.047498,114.485 C188.047498,111.005 190.599498,109.265 193.586498,109.265 C196.544498,109.265 199.096498,111.005 199.096498,114.485 Z M191.875498,114.485 C191.875498,115.355 192.339498,116.225 193.586498,116.225 C194.804498,116.225 195.268498,115.355 195.268498,114.485 C195.268498,113.615 194.804498,112.745 193.586498,112.745 C192.339498,112.745 191.875498,113.615 191.875498,114.485 Z M213.596498,125.215 C213.596498,128.695 211.044498,130.435 208.086498,130.435 C205.099498,130.435 202.547498,128.695 202.547498,125.215 C202.547498,121.735 205.099498,119.995 208.086498,119.995 C211.044498,119.995 213.596498,121.735 213.596498,125.215 Z M206.375498,125.215 C206.375498,126.085 206.839498,126.955 208.086498,126.955 C209.304498,126.955 209.768498,126.085 209.768498,125.215 C209.768498,124.345 209.304498,123.475 208.086498,123.475 C206.839498,123.475 206.375498,124.345 206.375498,125.215 Z" id="50%" fill="#6202E1" fill-rule="nonzero"></path>
            <path d="M152.6045,142.9 L155.7785,142.9 L155.7785,159 L152.9725,159 L152.9725,157.39 C152.2595,158.379 150.9945,159.322 148.9705,159.322 C145.4515,159.322 143.5655,156.493 143.5655,153.48 C143.5655,150.467 145.4515,147.638 148.9705,147.638 C150.7185,147.638 151.8915,148.351 152.6045,149.133 L152.6045,142.9 Z M152.6045,152.169 C152.1675,151.203 151.1325,150.329 149.7295,150.329 C147.9125,150.329 146.8315,151.755 146.8315,153.48 C146.8315,155.205 147.9125,156.631 149.7295,156.631 C151.1325,156.631 152.1675,155.757 152.6045,154.791 L152.6045,152.169 Z M162.0125,159 L158.8155,159 L158.8155,147.96 L162.0125,147.96 L162.0125,159 Z M162.2885,144.303 C162.2885,145.568 161.4145,146.12 160.4025,146.12 C159.4135,146.12 158.5395,145.568 158.5395,144.303 C158.5395,143.061 159.4135,142.509 160.4025,142.509 C161.4145,142.509 162.2885,143.061 162.2885,144.303 Z M164.5895,151.042 C164.5895,148.489 166.8665,147.638 169.1895,147.638 C170.7535,147.638 172.1335,148.029 173.2605,148.581 L173.2605,151.203 C172.3175,150.559 170.7075,150.076 169.3965,150.076 C168.6835,150.076 167.8555,150.283 167.8555,150.95 C167.8555,152.79 174.0885,151.87 174.0885,155.918 C174.0885,158.517 171.7195,159.322 169.0745,159.322 C167.3955,159.322 165.8085,158.954 164.6815,158.287 L164.6815,155.642 C165.8775,156.424 167.5565,156.815 168.8905,156.815 C170.0635,156.815 170.8225,156.608 170.8225,155.987 C170.8225,154.216 164.5895,154.998 164.5895,151.042 Z M187.5905,159 L184.0025,159 L180.8285,154.63 L179.5405,154.63 L179.5405,159 L176.3435,159 L176.3435,142.9 L179.5405,142.9 L179.5405,152.077 L180.8745,152.077 L183.6805,147.96 L187.2685,147.96 L183.4735,153.411 L187.5905,159 Z M188.0745,153.48 C188.0745,149.616 190.9725,147.638 194.1695,147.638 C197.3895,147.638 200.2645,149.616 200.2645,153.48 C200.2645,157.344 197.3895,159.322 194.1695,159.322 C190.9725,159.322 188.0745,157.344 188.0745,153.48 Z M197.0215,153.48 C197.0215,151.778 196.0095,150.49 194.1695,150.49 C192.3525,150.49 191.3405,151.778 191.3405,153.48 C191.3405,155.182 192.3525,156.47 194.1695,156.47 C196.0095,156.47 197.0215,155.182 197.0215,153.48 Z M205.4865,149.363 C206.3375,148.374 207.5795,147.638 209.1665,147.638 C212.0645,147.638 213.6515,149.616 213.6515,152.169 L213.6515,159 L210.4545,159 L210.4545,152.583 C210.4545,151.088 209.5575,150.398 208.3155,150.398 C207.1885,150.398 206.3145,151.134 205.8545,151.801 L205.8545,159 L202.6575,159 L202.6575,147.96 L205.4865,147.96 L205.4865,149.363 Z" id="diskon" fill="#131F3C"></path>
            <path d="M87.5125,8 L90.2375,8 L90.2375,21.775 L93.0875,21.775 L93.0875,25 L83.3875,25 L83.3875,21.775 L86.5875,21.775 L86.5875,11.75 L83.3875,12.95 L83.3875,9.575 L87.5125,8 Z M95.4625,16.5 C95.4625,11.6 97.7875,7.65 103.2125,7.65 C108.6375,7.65 110.9625,11.6 110.9625,16.5 C110.9625,21.4 108.6375,25.35 103.2125,25.35 C97.7875,25.35 95.4625,21.4 95.4625,16.5 Z M107.2125,16.5 C107.2125,12.875 105.9625,10.95 103.2125,10.95 C100.4625,10.95 99.2125,12.875 99.2125,16.5 C99.2125,20.125 100.4625,22.05 103.2125,22.05 C105.9625,22.05 107.2125,20.125 107.2125,16.5 Z M136.4125,7.5 L139.8875,7.5 L139.8875,25 L136.1375,25 L136.1375,14.225 L131.5125,21.25 L129.3375,21.25 L124.7125,14.2 L124.7125,25 L120.9625,25 L120.9625,7.5 L124.4375,7.5 L130.4375,16.6 L136.4125,7.5 Z M143.0125,19 C143.0125,14.475 146.4875,12.65 149.1875,12.65 C154.1625,12.65 155.7625,16.575 154.9625,20.125 L146.5125,20.125 C146.9125,21.875 148.7625,22.6 150.7375,22.6 C152.1125,22.6 153.3375,22.325 154.3625,21.875 L154.3625,24.6 C153.2375,25.075 151.7625,25.35 149.9625,25.35 C146.1625,25.35 143.0125,23.175 143.0125,19 Z M151.8375,17.875 C151.9625,17.05 151.4875,15.3 149.3125,15.3 C147.8375,15.3 146.5375,16.225 146.4875,17.875 L151.8375,17.875 Z M161.6125,25 L158.1375,25 L158.1375,13 L161.6125,13 L161.6125,25 Z M161.9125,9.025 C161.9125,10.4 160.9625,11 159.8625,11 C158.7875,11 157.8375,10.4 157.8375,9.025 C157.8375,7.675 158.7875,7.075 159.8625,7.075 C160.9625,7.075 161.9125,7.675 161.9125,9.025 Z M171.5625,17.45 L180.8625,17.45 L180.8625,20.375 L171.5625,20.375 L171.5625,17.45 Z M194.6875,8 L197.4125,8 L197.4125,21.775 L200.2625,21.775 L200.2625,25 L190.5625,25 L190.5625,21.775 L193.7625,21.775 L193.7625,11.75 L190.5625,12.95 L190.5625,9.575 L194.6875,8 Z M202.6375,16.5 C202.6375,11.6 204.9625,7.65 210.3875,7.65 C215.8125,7.65 218.1375,11.6 218.1375,16.5 C218.1375,21.4 215.8125,25.35 210.3875,25.35 C204.9625,25.35 202.6375,21.4 202.6375,16.5 Z M214.3875,16.5 C214.3875,12.875 213.1375,10.95 210.3875,10.95 C207.6375,10.95 206.3875,12.875 206.3875,16.5 C206.3875,20.125 207.6375,22.05 210.3875,22.05 C213.1375,22.05 214.3875,20.125 214.3875,16.5 Z M228.9875,7.5 L237.3875,7.5 L237.3875,19.725 C237.3875,23.85 234.4875,25.325 231.1375,25.325 C229.3875,25.325 227.7125,24.925 226.6125,24.425 L226.6125,20.925 C227.5875,21.525 228.9375,21.875 230.2375,21.875 C232.1125,21.875 233.6375,21.275 233.6375,19.3 L233.6375,10.875 L228.9875,10.875 L228.9875,7.5 Z M249.4375,13 L252.9125,13 L252.9125,25 L249.8375,25 L249.8375,23.475 C248.9125,24.55 247.5375,25.35 245.8375,25.35 C242.5875,25.35 240.9625,23.2 240.9625,20.425 L240.9625,13 L244.4375,13 L244.4375,19.975 C244.4375,21.575 245.3125,22.35 246.7375,22.35 C247.9875,22.35 248.9125,21.55 249.4375,20.825 L249.4375,13 Z M259.6875,14.525 C260.6125,13.45 261.9625,12.65 263.6875,12.65 C266.8375,12.65 268.5625,14.8 268.5625,17.575 L268.5625,25 L265.0875,25 L265.0875,18.025 C265.0875,16.4 264.1125,15.65 262.7625,15.65 C261.5375,15.65 260.5875,16.45 260.0875,17.175 L260.0875,25 L256.6125,25 L256.6125,13 L259.6875,13 L259.6875,14.525 Z M275.6125,25 L272.1375,25 L272.1375,13 L275.6125,13 L275.6125,25 Z M275.9125,9.025 C275.9125,10.4 274.9625,11 273.8625,11 C272.7875,11 271.8375,10.4 271.8375,9.025 C271.8375,7.675 272.7875,7.075 273.8625,7.075 C274.9625,7.075 275.9125,7.675 275.9125,9.025 Z" id="10-Mei---10-Juni" fill="#131F3C"></path>
        </g>
    </g>
</svg>