<?xml version="1.0" encoding="UTF-8"?>
<svg width="250px" height="292px" viewBox="0 0 250 292" version="1.1" xmlns="http://www.w3.org/2000/svg" xmlns:xlink="http://www.w3.org/1999/xlink">
    <!-- Generator: Sketch 48.2 (47327) - http://www.bohemiancoding.com/sketch -->
    <title>en_5</title>
    <desc>Created with Sketch.</desc>
    <defs>
        <radialGradient cx="100%" cy="100%" fx="100%" fy="100%" r="50.0253367%" gradientTransform="translate(1.000000,1.000000),scale(1.000000,1.000000),translate(-1.000000,-1.000000)" id="radialGradient-1">
            <stop stop-color="#FF9495" offset="0%"></stop>
            <stop stop-color="#FE5F60" offset="70.3742825%"></stop>
            <stop stop-color="#FF9091" offset="100%"></stop>
        </radialGradient>
    </defs>
    <g id="Page-1" stroke="none" stroke-width="1" fill="none" fill-rule="evenodd">
        <g id="en_5" transform="translate(0.000000, -7.000000)">
            <g id="5-copy" transform="translate(0.000000, 49.000000)" fill-rule="nonzero">
                <g id="Group-7" transform="translate(0.637670, 0.351157)">
                    <path d="M124.637764,0 C132.821471,3.54941064e-05 140.926556,0.798353806 148.953007,2.39495144 C156.979458,3.99155257 164.773039,6.3557574 172.333767,9.48756474 C179.894518,12.6193674 187.07714,16.4586026 193.881645,21.0052615 C200.686127,25.5519244 206.981723,30.7186496 212.768466,36.505437 C218.55521,42.2922239 223.721866,48.5878904 228.268475,55.3924265 C232.815084,62.1969726 236.654249,69.3796356 239.785993,76.9404155 C242.917771,84.501213 245.281976,92.2948576 246.878535,100.321349 C248.475089,108.347835 249.273352,116.452955 249.273352,124.63668 C249.273317,132.820463 248.47502,140.925612 246.87839,148.952133 C245.281836,156.978654 242.917632,164.77231 239.785777,172.333131 C236.653998,179.893946 232.81477,187.076626 228.26812,193.88116 C223.721476,200.685701 218.554745,206.981366 212.767931,212.768162 C206.981152,218.554958 200.685522,223.721672 193.880953,228.268334 C187.076412,232.814977 179.893755,236.654194 172.332969,239.785956 C164.772184,242.917752 156.978533,245.281921 148.952047,246.878499 C140.925544,248.47507 132.820424,249.27335 124.636682,249.27335 C116.452899,249.273315 108.347767,248.475 100.321264,246.878388 C92.2947429,245.281799 84.5010693,242.917595 76.9402486,239.785775 C69.3794278,236.653979 62.1967532,232.81475 55.392213,228.268101 C48.5876669,223.72144 42.2920016,218.554726 36.5052171,212.767929 C30.7184267,206.981156 25.5517068,200.685485 21.005063,193.880951 C16.4584077,187.076411 12.6191964,179.893754 9.48740589,172.33295 C6.35561542,164.772164 3.99144027,156.978532 2.39487464,148.952046 C0.798285727,140.925542 0,132.820422 0,124.63668 C2.90935298e-05,116.452914 0.798343914,108.347783 2.39494446,100.32125 C3.99154501,92.2947296 6.35574925,84.5010675 9.48755718,76.9402584 C12.6193651,69.3794494 16.4586055,62.1967689 21.0052667,55.3922229 C25.5519221,48.5876774 30.7186478,42.2920022 36.5054382,36.5052148 C42.2922344,30.7184232 48.5878997,25.5517027 55.3924283,21.0050526 C62.1969627,16.458403 69.3796431,12.6191853 76.9404289,9.48740007 C84.5012089,6.35561542 92.2948651,3.99143736 100.321351,2.39486707 C108.347837,0.798292128 116.452951,4.65496476e-06 124.636682,4.65496476e-06 L124.636577,56.086505 C120.135546,56.0865341 115.67776,56.5256079 111.263212,57.4037437 C106.848659,58.2818679 102.562199,59.5821799 98.4037791,61.3046682 C94.2453594,63.0271681 90.2949352,65.1387532 86.5524599,67.6394177 C82.8099904,70.1400823 79.3474123,72.9817811 76.1647023,76.1645144 C72.9819924,79.3472476 70.1403109,82.8098664 67.6396813,86.5523534 C65.1390459,90.294852 63.0274898,94.2453169 61.305019,98.4037482 C59.5825599,102.56218 58.2822653,106.848681 57.4041528,111.263263 C56.5260693,115.67781 56.0870247,120.135637 56.0870072,124.636697 C56.0870247,129.137757 56.5261042,133.595602 57.40424,138.010184 C58.2823526,142.424773 59.5826646,146.711274 61.3051587,150.869722 C63.0276702,155.028177 65.1392379,158.978642 67.6399082,162.721146 C70.1405786,166.463656 72.9822775,169.926287 76.1650049,173.109014 C79.347744,176.291742 82.8103628,179.133441 86.5528497,181.634111 C90.2953425,184.134741 94.2458016,186.246314 98.4042387,187.968808 C102.562676,189.691296 106.849177,190.991608 111.263742,191.869727 C115.678313,192.747822 120.136116,193.186872 124.637176,193.186872 C129.138242,193.186855 133.596081,192.747787 138.010686,191.869674 C142.425251,190.991539 146.71177,189.691227 150.870224,187.968715 C155.028679,186.246227 158.979138,184.134653 162.721648,181.633983 C166.464135,179.133313 169.926754,176.29162 173.109493,173.108892 C176.292238,169.926165 179.133937,166.463546 181.634607,162.721042 C184.13526,158.978531 186.246828,155.028072 187.969305,150.869635 C189.691775,146.711198 190.992087,142.424697 191.870206,138.010132 C192.748318,133.59555 193.187369,129.13774 193.187351,124.636697 C193.187334,120.135637 192.748266,115.677793 191.870153,111.263211 C190.992018,106.848622 189.691706,102.562104 187.969194,98.4036551 C186.246723,94.2452064 184.13515,90.2947356 181.634479,86.552237 C179.133815,82.8097384 176.292098,79.3471254 173.109371,76.1643922 C169.926644,72.9816531 166.464031,70.1399659 162.72152,67.6393072 C158.979016,65.1386426 155.028551,63.027075 150.870114,61.3045925 C146.711683,59.5821101 142.425182,58.2818039 138.010628,57.4036855 C133.596046,56.525573 129.138242,56.0865167 124.637176,56.0865167 L124.637764,0 Z" id="Fill-8" fill="url(#radialGradient-1)"></path>
                    <circle id="Oval" fill="#FFFFFF" cx="124.90822" cy="124.90822" r="87.3982442"></circle>
                    <path d="M77.8377005,151.589233 L75.5138824,151.589233 L75.5138824,148.446797 C73.5597627,148.235541 71.711271,147.707401 70.2324777,146.888783 L70.2324777,143.931196 C72.2658185,145.225141 74.6424506,145.753281 76.7550125,145.753281 C79.1316447,145.753281 80.7424731,145.198734 80.7424731,143.45587 C80.7424731,139.177932 70.3116987,141.448936 70.3116987,134.899994 C70.3116987,131.889594 72.6091098,130.278765 75.5138824,129.935474 L75.5138824,126.766631 L77.8377005,126.766631 L77.8377005,129.909067 C79.6069711,130.041102 81.3762417,130.516428 82.6173718,131.255825 L82.6173718,134.134191 C81.1121714,133.130724 79.0524236,132.576176 77.0718968,132.602583 C74.8272998,132.602583 73.3749135,133.262759 73.3749135,134.84718 C73.3749135,138.834641 83.8056879,136.695672 83.8056879,143.297428 C83.8056879,146.862376 81.1385785,148.288355 77.8377005,148.473204 L77.8377005,151.589233 Z M85.9710638,139.177932 C85.9710638,133.922934 88.453324,129.856253 94.025206,129.856253 C99.597088,129.856253 102.079348,133.922934 102.079348,139.177932 C102.079348,144.43293 99.597088,148.499611 94.025206,148.499611 C88.453324,148.499611 85.9710638,144.43293 85.9710638,139.177932 Z M99.0425405,139.177932 C99.0425405,135.005622 97.4581191,132.602583 94.025206,132.602583 C90.5658859,132.602583 89.0078715,135.005622 89.0078715,139.177932 C89.0078715,143.350242 90.5658859,145.753281 94.025206,145.753281 C97.4581191,145.753281 99.0425405,143.350242 99.0425405,139.177932 Z M108.179371,146.703934 C108.179371,147.89225 107.360753,148.446797 106.4101,148.446797 C105.459447,148.446797 104.614423,147.89225 104.614423,146.703934 C104.614423,145.568432 105.459447,145.013884 106.4101,145.013884 C107.360753,145.013884 108.179371,145.568432 108.179371,146.703934 Z M110.714445,139.177932 C110.714445,133.922934 113.196705,129.856253 118.768587,129.856253 C124.340469,129.856253 126.822729,133.922934 126.822729,139.177932 C126.822729,144.43293 124.340469,148.499611 118.768587,148.499611 C113.196705,148.499611 110.714445,144.43293 110.714445,139.177932 Z M123.785922,139.177932 C123.785922,135.005622 122.2015,132.602583 118.768587,132.602583 C115.309267,132.602583 113.751253,135.005622 113.751253,139.177932 C113.751253,143.350242 115.309267,145.753281 118.768587,145.753281 C122.2015,145.753281 123.785922,143.350242 123.785922,139.177932 Z M130.519713,130.199544 L141.584256,130.199544 L141.584256,132.89306 L133.29245,132.89306 L133.02838,137.223812 C133.899812,137.012556 134.824058,136.906928 135.748304,136.906928 C139.207624,136.906928 142.429281,138.412128 142.429281,142.637252 C142.429281,146.519085 139.128403,148.499611 135.167349,148.499611 C133.081194,148.499611 130.995039,148.050692 129.410618,147.284888 L129.410618,144.459337 C130.915818,145.330769 132.949159,145.779688 134.824058,145.779688 C137.491167,145.779688 139.392473,144.723407 139.392473,142.610845 C139.392473,140.234213 137.359132,139.389188 134.507173,139.389188 C133.054787,139.389188 131.391145,139.679666 129.938758,140.181399 L130.519713,130.199544 Z M144.779506,139.177932 C144.779506,133.922934 147.261766,129.856253 152.833648,129.856253 C158.40553,129.856253 160.88779,133.922934 160.88779,139.177932 C160.88779,144.43293 158.40553,148.499611 152.833648,148.499611 C147.261766,148.499611 144.779506,144.43293 144.779506,139.177932 Z M157.850982,139.177932 C157.850982,135.005622 156.266561,132.602583 152.833648,132.602583 C149.374328,132.602583 147.816313,135.005622 147.816313,139.177932 C147.816313,143.350242 149.374328,145.753281 152.833648,145.753281 C156.266561,145.753281 157.850982,143.350242 157.850982,139.177932 Z M163.422864,139.177932 C163.422864,133.922934 165.905125,129.856253 171.477007,129.856253 C177.048889,129.856253 179.531149,133.922934 179.531149,139.177932 C179.531149,144.43293 177.048889,148.499611 171.477007,148.499611 C165.905125,148.499611 163.422864,144.43293 163.422864,139.177932 Z M176.494341,139.177932 C176.494341,135.005622 174.90992,132.602583 171.477007,132.602583 C168.017686,132.602583 166.459672,135.005622 166.459672,139.177932 C166.459672,143.350242 168.017686,145.753281 171.477007,145.753281 C174.90992,145.753281 176.494341,143.350242 176.494341,139.177932 Z M90.2886122,162.199544 L92.5068022,162.199544 L92.5068022,177.436397 L95.702052,177.436397 L95.702052,180.15632 L85.9314533,180.15632 L85.9314533,177.436397 L89.5228085,177.436397 L89.5228085,165.289166 L85.9314533,166.635924 L85.9314533,163.863187 L90.2886122,162.199544 Z M121.528121,161.671404 L124.248045,161.671404 L124.248045,180.15632 L121.237644,180.15632 L121.237644,167.216879 L115.401692,175.98401 L113.606014,175.98401 L107.770062,167.190472 L107.770062,180.15632 L104.759661,180.15632 L104.759661,161.671404 L107.479585,161.671404 L114.503853,172.26062 L121.528121,161.671404 Z M131.747639,180.15632 L128.737239,180.15632 L128.737239,161.671404 L131.56279,161.671404 L141.518238,175.1918 C141.491831,174.558031 141.491831,173.845041 141.491831,173.158459 L141.491831,161.671404 L144.502232,161.671404 L144.502232,180.15632 L141.67668,180.15632 L131.721232,166.635924 C131.747639,167.269693 131.747639,167.982682 131.747639,168.642858 L131.747639,180.15632 Z M152.001827,180.15632 L148.991426,180.15632 L148.991426,161.671404 L156.385393,161.671404 C159.844713,161.671404 163.488882,163.044569 163.488882,167.454542 C163.488882,170.75542 161.429134,172.339841 158.999688,172.920796 L164.914861,180.15632 L161.297099,180.15632 L155.751624,173.23768 L152.001827,173.23768 L152.001827,180.15632 Z M152.001827,164.417734 L152.001827,170.570571 L156.517428,170.570571 C158.497954,170.570571 160.425667,169.857581 160.425667,167.507356 C160.425667,165.130724 158.497954,164.417734 156.517428,164.417734 L152.001827,164.417734 Z" id="$0.0500-1-MNR" fill="#131F3C"></path>
                </g>
            </g>
            <path d="M103.969607,125.478317 C103.969607,120.045357 106.574067,115.53656 112.791166,115.53656 C119.008265,115.53656 121.612725,120.045357 121.612725,125.478317 C121.612725,130.911277 119.008265,135.420074 112.791166,135.420074 C106.574067,135.420074 103.969607,130.911277 103.969607,125.478317 Z M116.431809,125.478317 C116.431809,121.809669 115.283606,120.017352 112.791166,120.017352 C110.298725,120.017352 109.150522,121.809669 109.150522,125.478317 C109.150522,129.146966 110.298725,130.939282 112.791166,130.939282 C115.283606,130.939282 116.431809,129.146966 116.431809,125.478317 Z M131.666502,136.680297 L128.585957,136.680297 L140.039982,113.716238 L143.120526,113.716238 L131.666502,136.680297 Z M134.130937,120.017352 C134.130937,123.377946 131.666502,125.058243 128.809997,125.058243 C125.925487,125.058243 123.461052,123.377946 123.461052,120.017352 C123.461052,116.656758 125.925487,114.976461 128.809997,114.976461 C131.666502,114.976461 134.130937,116.656758 134.130937,120.017352 Z M127.157705,120.017352 C127.157705,120.857501 127.605784,121.697649 128.809997,121.697649 C129.986205,121.697649 130.434284,120.857501 130.434284,120.017352 C130.434284,119.177204 129.986205,118.337055 128.809997,118.337055 C127.605784,118.337055 127.157705,119.177204 127.157705,120.017352 Z M148.133412,130.379183 C148.133412,133.739777 145.668976,135.420074 142.812472,135.420074 C139.927962,135.420074 137.463526,133.739777 137.463526,130.379183 C137.463526,127.018589 139.927962,125.338292 142.812472,125.338292 C145.668976,125.338292 148.133412,127.018589 148.133412,130.379183 Z M141.16018,130.379183 C141.16018,131.219332 141.608259,132.05948 142.812472,132.05948 C143.988679,132.05948 144.436759,131.219332 144.436759,130.379183 C144.436759,129.539035 143.988679,128.698886 142.812472,128.698886 C141.608259,128.698886 141.16018,129.539035 141.16018,130.379183 Z" id="0%" fill="#131F3C" fill-rule="nonzero"></path>
            <path d="M99.1045,147.9 L102.2785,147.9 L102.2785,164 L99.4725,164 L99.4725,162.39 C98.7595,163.379 97.4945,164.322 95.4705,164.322 C91.9515,164.322 90.0655,161.493 90.0655,158.48 C90.0655,155.467 91.9515,152.638 95.4705,152.638 C97.2185,152.638 98.3915,153.351 99.1045,154.133 L99.1045,147.9 Z M99.1045,157.169 C98.6675,156.203 97.6325,155.329 96.2295,155.329 C94.4125,155.329 93.3315,156.755 93.3315,158.48 C93.3315,160.205 94.4125,161.631 96.2295,161.631 C97.6325,161.631 98.6675,160.757 99.1045,159.791 L99.1045,157.169 Z M108.5125,164 L105.3155,164 L105.3155,152.96 L108.5125,152.96 L108.5125,164 Z M108.7885,149.303 C108.7885,150.568 107.9145,151.12 106.9025,151.12 C105.9135,151.12 105.0395,150.568 105.0395,149.303 C105.0395,148.061 105.9135,147.509 106.9025,147.509 C107.9145,147.509 108.7885,148.061 108.7885,149.303 Z M111.0895,156.042 C111.0895,153.489 113.3665,152.638 115.6895,152.638 C117.2535,152.638 118.6335,153.029 119.7605,153.581 L119.7605,156.203 C118.8175,155.559 117.2075,155.076 115.8965,155.076 C115.1835,155.076 114.3555,155.283 114.3555,155.95 C114.3555,157.79 120.5885,156.87 120.5885,160.918 C120.5885,163.517 118.2195,164.322 115.5745,164.322 C113.8955,164.322 112.3085,163.954 111.1815,163.287 L111.1815,160.642 C112.3775,161.424 114.0565,161.815 115.3905,161.815 C116.5635,161.815 117.3225,161.608 117.3225,160.987 C117.3225,159.216 111.0895,159.998 111.0895,156.042 Z M134.0905,164 L130.5025,164 L127.3285,159.63 L126.0405,159.63 L126.0405,164 L122.8435,164 L122.8435,147.9 L126.0405,147.9 L126.0405,157.077 L127.3745,157.077 L130.1805,152.96 L133.7685,152.96 L129.9735,158.411 L134.0905,164 Z M134.5745,158.48 C134.5745,154.616 137.4725,152.638 140.6695,152.638 C143.8895,152.638 146.7645,154.616 146.7645,158.48 C146.7645,162.344 143.8895,164.322 140.6695,164.322 C137.4725,164.322 134.5745,162.344 134.5745,158.48 Z M143.5215,158.48 C143.5215,156.778 142.5095,155.49 140.6695,155.49 C138.8525,155.49 137.8405,156.778 137.8405,158.48 C137.8405,160.182 138.8525,161.47 140.6695,161.47 C142.5095,161.47 143.5215,160.182 143.5215,158.48 Z M151.9865,154.363 C152.8375,153.374 154.0795,152.638 155.6665,152.638 C158.5645,152.638 160.1515,154.616 160.1515,157.169 L160.1515,164 L156.9545,164 L156.9545,157.583 C156.9545,156.088 156.0575,155.398 154.8155,155.398 C153.6885,155.398 152.8145,156.134 152.3545,156.801 L152.3545,164 L149.1575,164 L149.1575,152.96 L151.9865,152.96 L151.9865,154.363 Z" id="diskon" fill="#131F3C"></path>
            <path d="M15.1125,8 L17.8375,8 L17.8375,21.775 L20.6875,21.775 L20.6875,25 L10.9875,25 L10.9875,21.775 L14.1875,21.775 L14.1875,11.75 L10.9875,12.95 L10.9875,9.575 L15.1125,8 Z M27.3875,8 L30.1125,8 L30.1125,21.775 L32.9625,21.775 L32.9625,25 L23.2625,25 L23.2625,21.775 L26.4625,21.775 L26.4625,11.75 L23.2625,12.95 L23.2625,9.575 L27.3875,8 Z M58.5375,20.375 L41.9375,20.375 L41.9375,17.45 L58.5375,17.45 L58.5375,20.375 Z M80.1375,12.35 C80.1375,14.1 79.1625,15.45 77.5625,16 C79.2875,16.525 80.8375,17.85 80.8375,20.35 C80.8375,23.925 77.5375,25.35 74.0375,25.35 C71.8375,25.35 70.0625,25 68.1375,24.2 L68.1375,20.725 C70.0625,21.8 71.7875,22.075 73.7375,22.05 C75.6625,22.05 77.2625,21.425 77.2625,19.825 C77.2625,18.375 76.0125,17.85 74.3125,17.85 L71.5125,17.85 L71.5375,14.65 L73.8875,14.675 C75.5625,14.675 76.5875,14.05 76.5875,12.875 C76.5875,11.65 75.5125,10.925 73.4625,10.925 C71.9375,10.925 70.1125,11.425 68.4375,12.45 L68.4375,8.975 C69.9625,8.15 71.8875,7.65 73.9875,7.65 C77.5125,7.65 80.1375,9.25 80.1375,12.35 Z M83.6875,16.5 C83.6875,11.6 86.0125,7.65 91.4375,7.65 C96.8625,7.65 99.1875,11.6 99.1875,16.5 C99.1875,21.4 96.8625,25.35 91.4375,25.35 C86.0125,25.35 83.6875,21.4 83.6875,16.5 Z M95.4375,16.5 C95.4375,12.875 94.1875,10.95 91.4375,10.95 C88.6875,10.95 87.4375,12.875 87.4375,16.5 C87.4375,20.125 88.6875,22.05 91.4375,22.05 C94.1875,22.05 95.4375,20.125 95.4375,16.5 Z M108.4125,12.125 C108.4125,8.75 111.3625,7.15 114.8125,7.15 C116.8875,7.15 118.9875,7.65 120.4875,8.5 L120.4875,12 C119.0125,10.95 117.0375,10.425 115.0875,10.45 C113.1875,10.475 112.2375,11 112.2375,12.075 C112.2375,15.1 121.8125,13.975 121.8125,20.2 C121.8125,24.125 118.6625,25.35 114.9875,25.35 C112.5625,25.35 110.3125,24.775 108.5125,23.775 L108.5125,20.2 C110.5125,21.525 112.7125,22.05 114.7125,22.05 C116.7375,22.05 117.9875,21.625 117.9875,20.375 C117.9875,17.1 108.4125,18.325 108.4125,12.125 Z M124.0125,19 C124.0125,14.475 127.4875,12.65 130.1875,12.65 C135.1625,12.65 136.7625,16.575 135.9625,20.125 L127.5125,20.125 C127.9125,21.875 129.7625,22.6 131.7375,22.6 C133.1125,22.6 134.3375,22.325 135.3625,21.875 L135.3625,24.6 C134.2375,25.075 132.7625,25.35 130.9625,25.35 C127.1625,25.35 124.0125,23.175 124.0125,19 Z M132.8375,17.875 C132.9625,17.05 132.4875,15.3 130.3125,15.3 C128.8375,15.3 127.5375,16.225 127.4875,17.875 L132.8375,17.875 Z M142.1875,14.75 C142.9375,13.675 144.3125,12.65 146.5375,12.65 C150.3375,12.65 152.3875,15.725 152.3875,19 C152.3875,22.275 150.3375,25.35 146.5375,25.35 C144.6375,25.35 143.3625,24.575 142.5875,23.725 L142.5875,30.5 L139.1125,30.5 L139.1125,13 L142.1875,13 L142.1875,14.75 Z M148.8375,19 C148.8375,17.125 147.6625,15.575 145.6875,15.575 C144.1625,15.575 143.0375,16.525 142.5625,17.575 L142.5625,20.425 C143.0375,21.475 144.1625,22.425 145.6875,22.425 C147.6625,22.425 148.8375,20.875 148.8375,19 Z M156.1625,9.5 L159.6125,8.675 L159.6125,13 L163.4125,13 L163.4125,15.925 L159.6125,15.925 L159.6125,20.625 C159.6125,21.875 160.2375,22.425 161.5375,22.425 C162.3375,22.425 163.0125,22.3 163.7125,22.025 L163.7125,24.825 C162.7875,25.15 161.6875,25.35 160.4875,25.35 C158.1625,25.35 156.1625,24.275 156.1625,21.3 L156.1625,15.925 L154.1375,15.925 L154.1375,13 L156.1625,13 L156.1625,9.5 Z M165.7875,19 C165.7875,14.475 169.2625,12.65 171.9625,12.65 C176.9375,12.65 178.5375,16.575 177.7375,20.125 L169.2875,20.125 C169.6875,21.875 171.5375,22.6 173.5125,22.6 C174.8875,22.6 176.1125,22.325 177.1375,21.875 L177.1375,24.6 C176.0125,25.075 174.5375,25.35 172.7375,25.35 C168.9375,25.35 165.7875,23.175 165.7875,19 Z M174.6125,17.875 C174.7375,17.05 174.2625,15.3 172.0875,15.3 C170.6125,15.3 169.3125,16.225 169.2625,17.875 L174.6125,17.875 Z M184.3625,25 L180.8875,25 L180.8875,13 L183.9625,13 L183.9625,14.4 C184.5875,13.65 185.9625,12.65 187.7875,12.65 C189.5875,12.65 190.7625,13.4 191.4625,14.425 C192.4625,13.45 193.8125,12.65 195.4625,12.65 C198.8375,12.65 199.9375,15.275 199.9375,17.4 L199.9375,25 L196.4875,25 L196.4875,17.625 C196.4875,16.375 195.7125,15.65 194.6125,15.65 C193.6625,15.65 192.8125,16.2 192.2375,16.85 C192.2625,17.025 192.2625,17.2 192.2625,17.4 L192.2625,25 L188.8125,25 L188.8125,17.625 C188.8125,16.375 188.0375,15.65 186.9375,15.65 C185.8875,15.65 184.9375,16.35 184.3625,17.1 L184.3625,25 Z M203.5125,7.5 L206.9875,7.5 L206.9875,14.275 C207.7375,13.425 209.0375,12.65 210.9375,12.65 C214.7375,12.65 216.7875,15.725 216.7875,19 C216.7875,22.275 214.7375,25.35 210.9375,25.35 C208.7125,25.35 207.3375,24.325 206.5875,23.25 L206.5875,25 L203.5125,25 L203.5125,7.5 Z M213.2375,19 C213.2375,17.125 212.0625,15.575 210.0875,15.575 C208.5625,15.575 207.4375,16.525 206.9625,17.575 L206.9625,20.425 C207.4375,21.475 208.5625,22.425 210.0875,22.425 C212.0625,22.425 213.2375,20.875 213.2375,19 Z M219.1375,19 C219.1375,14.475 222.6125,12.65 225.3125,12.65 C230.2875,12.65 231.8875,16.575 231.0875,20.125 L222.6375,20.125 C223.0375,21.875 224.8875,22.6 226.8625,22.6 C228.2375,22.6 229.4625,22.325 230.4875,21.875 L230.4875,24.6 C229.3625,25.075 227.8875,25.35 226.0875,25.35 C222.2875,25.35 219.1375,23.175 219.1375,19 Z M227.9625,17.875 C228.0875,17.05 227.6125,15.3 225.4375,15.3 C223.9625,15.3 222.6625,16.225 222.6125,17.875 L227.9625,17.875 Z M237.3125,14.8 C238.1625,13.475 239.9125,12.525 242.1625,12.75 L242.1625,16.125 C240.2625,15.8 238.4375,16.525 237.7125,17.95 L237.7125,25 L234.2375,25 L234.2375,13 L237.3125,13 L237.3125,14.8 Z" id="11-—-30-September" fill="#131F3C"></path>
        </g>
    </g>
</svg>