<?xml version="1.0" encoding="UTF-8"?>
<svg width="250px" height="292px" viewBox="0 0 250 292" version="1.1" xmlns="http://www.w3.org/2000/svg" xmlns:xlink="http://www.w3.org/1999/xlink">
    <!-- Generator: Sketch 48.2 (47327) - http://www.bohemiancoding.com/sketch -->
    <title>en_3</title>
    <desc>Created with Sketch.</desc>
    <defs>
        <radialGradient cx="200%" cy="100%" fx="200%" fy="100%" r="100.014205%" gradientTransform="translate(2.000000,1.000000),scale(1.000000,0.500004),translate(-2.000000,-1.000000)" id="radialGradient-1">
            <stop stop-color="#8D00FF" offset="0%"></stop>
            <stop stop-color="#5C00FE" offset="69.8959662%"></stop>
            <stop stop-color="#8900FF" offset="100%"></stop>
        </radialGradient>
        <radialGradient cx="200%" cy="100%" fx="200%" fy="100%" r="100.011799%" gradientTransform="translate(2.000000,1.000000),scale(1.000000,0.500004),translate(-2.000000,-1.000000)" id="radialGradient-2">
            <stop stop-color="#FF9495" offset="0%"></stop>
            <stop stop-color="#FE5F60" offset="70.3742825%"></stop>
            <stop stop-color="#FF9091" offset="100%"></stop>
        </radialGradient>
    </defs>
    <g id="Page-1" stroke="none" stroke-width="1" fill="none" fill-rule="evenodd">
        <g id="en_3" transform="translate(0.000000, -7.000000)">
            <g id="3-copy" transform="translate(0.000000, 49.000000)" fill-rule="nonzero">
                <g id="Group-Copy-2" transform="translate(0.933759, 0.000000)">
                    <g id="Group-6" transform="translate(0.000000, 0.762969)">
                        <g id="Group-31">
                            <path d="M124.524976,249.047781 C113.595699,249.047871 102.852631,247.633628 92.2957729,244.804995 C81.7389145,241.976368 71.727937,237.829799 62.2629045,232.365289 C52.7978079,226.900714 44.2011758,220.304407 36.4730082,212.576368 C28.7447764,204.848264 22.1482772,196.25176 16.6835746,186.786792 C11.218872,177.321823 7.07211127,167.31091 4.24335644,156.754116 C1.41453755,146.197257 0.000128110995,135.454189 0,124.524976 C-6.40554976e-05,113.595699 1.41415322,102.852631 4.24277994,92.2957729 C7.07140665,81.7388504 11.2179752,71.727937 16.6825497,62.2628404 C22.1472523,52.7976798 28.7436875,44.2009837 36.4719192,36.4727519 C44.2000869,28.7444561 52.796719,22.148021 62.2618155,16.6833184 C71.726848,11.2185517 81.7378255,7.07185504 92.294684,4.24310021 C102.851606,1.41434539 113.59461,0 124.524976,0 L124.523759,56.0357493 C120.027832,56.0372866 115.575206,56.4772838 111.165882,57.3557409 C106.756558,58.234198 102.47528,59.5342684 98.321986,61.255888 C94.1686916,62.9775076 90.2231932,65.0876238 86.4854909,67.5863007 C82.7477885,70.0849135 79.2896244,72.9241093 76.1110625,76.1038242 C72.9325006,79.2835391 70.0945218,82.7426641 67.5971901,86.4812632 C65.0998584,90.2198623 62.9910874,94.1661294 61.270941,98.3200643 C59.5507307,102.473935 58.2521976,106.755725 57.3752778,111.165434 C56.4983581,115.575078 56.0598982,120.027896 56.0598982,124.523887 C56.0598982,129.019879 56.4984221,133.472761 57.375406,137.882469 C58.2523898,142.292114 59.5509869,146.573967 61.2711973,150.727902 C62.9914076,154.881837 65.1002427,158.828104 67.5976385,162.566704 C70.0950342,166.305367 72.933013,169.764492 76.1117031,172.944207 C79.290329,176.123857 82.7484932,178.963053 86.4862595,181.46173 C90.2240259,183.960343 94.1695884,186.070459 98.3229468,187.792079 C102.476241,189.513634 106.757583,190.813705 111.166971,191.692098 C115.576295,192.570491 120.028985,193.010488 124.524976,193.012025 L124.524976,249.047781 Z" id="Fill-30" fill="url(#radialGradient-1)"></path>
                            <path d="M249.044074,249.047781 C238.114797,249.047871 227.371729,247.633628 216.814871,244.804995 C206.258013,241.976368 196.247035,237.829799 186.782003,232.365289 C177.316906,226.900714 168.720274,220.304407 160.992106,212.576368 C153.263875,204.848264 146.667375,196.25176 141.202673,186.786792 C135.73797,177.321823 131.591209,167.31091 128.762455,156.754116 C125.933636,146.197257 124.519226,135.454189 124.519098,124.524976 C124.519034,113.595699 125.933251,102.852631 128.761878,92.2957729 C131.590505,81.7388504 135.737073,71.727937 141.201648,62.2628404 C146.66635,52.7976798 153.262786,44.2009837 160.991017,36.4727519 C168.719185,28.7444561 177.315817,22.148021 186.780914,16.6833184 C196.245946,11.2185517 206.256924,7.07185504 216.813782,4.24310021 C227.370705,1.41434539 238.113708,0 249.044074,0 L249.042857,56.0357493 C244.54693,56.0372866 240.094304,56.4772838 235.68498,57.3557409 C231.275656,58.234198 226.994378,59.5342684 222.841084,61.255888 C218.68779,62.9775076 214.742291,65.0876238 211.004589,67.5863007 C207.266887,70.0849135 203.808722,72.9241093 200.630161,76.1038242 C197.451599,79.2835391 194.61362,82.7426641 192.116288,86.4812632 C189.618956,90.2198623 187.510185,94.1661294 185.790039,98.3200643 C184.069829,102.473935 182.771296,106.755725 181.894376,111.165434 C181.017456,115.575078 180.578996,120.027896 180.578996,124.523887 C180.578996,129.019879 181.01752,133.472761 181.894504,137.882469 C182.771488,142.292114 184.070085,146.573967 185.790295,150.727902 C187.510506,154.881837 189.619341,158.828104 192.116737,162.566704 C194.614132,166.305367 197.452111,169.764492 200.630801,172.944207 C203.809427,176.123857 207.267591,178.963053 211.005358,181.46173 C214.743124,183.960343 218.688686,186.070459 222.842045,187.792079 C226.995339,189.513634 231.276681,190.813705 235.686069,191.692098 C240.095393,192.570491 244.548083,193.010488 249.044074,193.012025 L249.044074,249.047781 Z" id="Fill-30-Copy" fill="url(#radialGradient-2)" transform="translate(186.781586, 124.523890) scale(-1, 1) translate(-186.781586, -124.523890) "></path>
                        </g>
                        <circle id="Oval" fill="#FFFFFF" cx="124.90822" cy="124.90822" r="87.3982442"></circle>
                        <path d="M77.0899016,151.589233 L74.7660835,151.589233 L74.7660835,148.446797 C72.8119638,148.235541 70.9634721,147.707401 69.4846788,146.888783 L69.4846788,143.931196 C71.5180196,145.225141 73.8946518,145.753281 76.0072137,145.753281 C78.3838458,145.753281 79.9946742,145.198734 79.9946742,143.45587 C79.9946742,139.177932 69.5638999,141.448936 69.5638999,134.899994 C69.5638999,131.889594 71.8613109,130.278765 74.7660835,129.935474 L74.7660835,126.766631 L77.0899016,126.766631 L77.0899016,129.909067 C78.8591722,130.041102 80.6284428,130.516428 81.8695729,131.255825 L81.8695729,134.134191 C80.3643726,133.130724 78.3046247,132.576176 76.3240979,132.602583 C74.0795009,132.602583 72.6271146,133.262759 72.6271146,134.84718 C72.6271146,138.834641 83.057889,136.695672 83.057889,143.297428 C83.057889,146.862376 80.3907796,148.288355 77.0899016,148.473204 L77.0899016,151.589233 Z M85.2232649,139.177932 C85.2232649,133.922934 87.7055252,129.856253 93.2774072,129.856253 C98.8492892,129.856253 101.331549,133.922934 101.331549,139.177932 C101.331549,144.43293 98.8492892,148.499611 93.2774072,148.499611 C87.7055252,148.499611 85.2232649,144.43293 85.2232649,139.177932 Z M98.2947417,139.177932 C98.2947417,135.005622 96.7103203,132.602583 93.2774072,132.602583 C89.8180871,132.602583 88.2600727,135.005622 88.2600727,139.177932 C88.2600727,143.350242 89.8180871,145.753281 93.2774072,145.753281 C96.7103203,145.753281 98.2947417,143.350242 98.2947417,139.177932 Z M107.431572,146.703934 C107.431572,147.89225 106.612954,148.446797 105.662301,148.446797 C104.711648,148.446797 103.866624,147.89225 103.866624,146.703934 C103.866624,145.568432 104.711648,145.013884 105.662301,145.013884 C106.612954,145.013884 107.431572,145.568432 107.431572,146.703934 Z M109.966646,139.177932 C109.966646,133.922934 112.448906,129.856253 118.020788,129.856253 C123.59267,129.856253 126.074931,133.922934 126.074931,139.177932 C126.074931,144.43293 123.59267,148.499611 118.020788,148.499611 C112.448906,148.499611 109.966646,144.43293 109.966646,139.177932 Z M123.038123,139.177932 C123.038123,135.005622 121.453701,132.602583 118.020788,132.602583 C114.561468,132.602583 113.003454,135.005622 113.003454,139.177932 C113.003454,143.350242 114.561468,145.753281 118.020788,145.753281 C121.453701,145.753281 123.038123,143.350242 123.038123,139.177932 Z M137.535579,130.199544 L140.625201,130.199544 L140.625201,141.871449 L143.714822,141.871449 L143.714822,144.485744 L140.625201,144.485744 L140.625201,148.15632 L137.720428,148.15632 L137.720428,144.485744 L127.976236,144.485744 L127.976236,141.924263 L137.535579,130.199544 Z M137.720428,141.871449 L137.720428,134.028562 L131.329928,141.871449 L137.720428,141.871449 Z M146.910072,130.199544 L157.974615,130.199544 L157.974615,132.89306 L149.68281,132.89306 L149.41874,137.223812 C150.290171,137.012556 151.214417,136.906928 152.138663,136.906928 C155.597983,136.906928 158.81964,138.412128 158.81964,142.637252 C158.81964,146.519085 155.518762,148.499611 151.557709,148.499611 C149.471554,148.499611 147.385399,148.050692 145.800977,147.284888 L145.800977,144.459337 C147.306178,145.330769 149.339519,145.779688 151.214417,145.779688 C153.881527,145.779688 155.782832,144.723407 155.782832,142.610845 C155.782832,140.234213 153.749491,139.389188 150.897533,139.389188 C149.445147,139.389188 147.781504,139.679666 146.329118,140.181399 L146.910072,130.199544 Z M161.169865,139.177932 C161.169865,133.922934 163.652125,129.856253 169.224007,129.856253 C174.795889,129.856253 177.27815,133.922934 177.27815,139.177932 C177.27815,144.43293 174.795889,148.499611 169.224007,148.499611 C163.652125,148.499611 161.169865,144.43293 161.169865,139.177932 Z M174.241342,139.177932 C174.241342,135.005622 172.65692,132.602583 169.224007,132.602583 C165.764687,132.602583 164.206673,135.005622 164.206673,139.177932 C164.206673,143.350242 165.764687,145.753281 169.224007,145.753281 C172.65692,145.753281 174.241342,143.350242 174.241342,139.177932 Z M88.7882131,162.199544 L91.0064031,162.199544 L91.0064031,177.436397 L94.201653,177.436397 L94.201653,180.15632 L84.4310542,180.15632 L84.4310542,177.436397 L88.0224094,177.436397 L88.0224094,165.289166 L84.4310542,166.635924 L84.4310542,163.863187 L88.7882131,162.199544 Z M120.027722,161.671404 L122.747646,161.671404 L122.747646,180.15632 L119.737245,180.15632 L119.737245,167.216879 L113.901293,175.98401 L112.105615,175.98401 L106.269663,167.190472 L106.269663,180.15632 L103.259262,180.15632 L103.259262,161.671404 L105.979186,161.671404 L113.003454,172.26062 L120.027722,161.671404 Z M130.24724,180.15632 L127.23684,180.15632 L127.23684,161.671404 L130.062391,161.671404 L140.017839,175.1918 C139.991432,174.558031 139.991432,173.845041 139.991432,173.158459 L139.991432,161.671404 L143.001833,161.671404 L143.001833,180.15632 L140.176281,180.15632 L130.220833,166.635924 C130.24724,167.269693 130.24724,167.982682 130.24724,168.642858 L130.24724,180.15632 Z M150.501428,180.15632 L147.491027,180.15632 L147.491027,161.671404 L154.884993,161.671404 C158.344314,161.671404 161.988483,163.044569 161.988483,167.454542 C161.988483,170.75542 159.928735,172.339841 157.499289,172.920796 L163.414462,180.15632 L159.7967,180.15632 L154.251225,173.23768 L150.501428,173.23768 L150.501428,180.15632 Z M150.501428,164.417734 L150.501428,170.570571 L155.017029,170.570571 C156.997555,170.570571 158.925268,169.857581 158.925268,167.507356 C158.925268,165.130724 156.997555,164.417734 155.017029,164.417734 L150.501428,164.417734 Z" id="$0.0450-1-MNR" fill="#131F3C"></path>
                    </g>
                </g>
            </g>
            <path d="M102.205295,114.956634 L105.985963,114.956634 L105.985963,129.659233 L108.954488,129.659233 L108.954488,134 L97.5844782,134 L97.5844782,129.659233 L100.945072,129.659233 L100.945072,120.08154 L97.5844782,121.341763 L97.5844782,116.720946 L102.205295,114.956634 Z M110.66279,124.478317 C110.66279,119.045357 113.26725,114.53656 119.484349,114.53656 C125.701447,114.53656 128.305908,119.045357 128.305908,124.478317 C128.305908,129.911277 125.701447,134.420074 119.484349,134.420074 C113.26725,134.420074 110.66279,129.911277 110.66279,124.478317 Z M123.124992,124.478317 C123.124992,120.809669 121.976789,119.017352 119.484349,119.017352 C116.991908,119.017352 115.843705,120.809669 115.843705,124.478317 C115.843705,128.146966 116.991908,129.939282 119.484349,129.939282 C121.976789,129.939282 123.124992,128.146966 123.124992,124.478317 Z M138.359685,135.680297 L135.27914,135.680297 L146.733165,112.716238 L149.813709,112.716238 L138.359685,135.680297 Z M140.82412,119.017352 C140.82412,122.377946 138.359685,124.058243 135.50318,124.058243 C132.61867,124.058243 130.154234,122.377946 130.154234,119.017352 C130.154234,115.656758 132.61867,113.976461 135.50318,113.976461 C138.359685,113.976461 140.82412,115.656758 140.82412,119.017352 Z M133.850888,119.017352 C133.850888,119.857501 134.298967,120.697649 135.50318,120.697649 C136.679388,120.697649 137.127467,119.857501 137.127467,119.017352 C137.127467,118.177204 136.679388,117.337055 135.50318,117.337055 C134.298967,117.337055 133.850888,118.177204 133.850888,119.017352 Z M154.826595,129.379183 C154.826595,132.739777 152.362159,134.420074 149.505655,134.420074 C146.621145,134.420074 144.156709,132.739777 144.156709,129.379183 C144.156709,126.018589 146.621145,124.338292 149.505655,124.338292 C152.362159,124.338292 154.826595,126.018589 154.826595,129.379183 Z M147.853363,129.379183 C147.853363,130.219332 148.301442,131.05948 149.505655,131.05948 C150.681862,131.05948 151.129942,130.219332 151.129942,129.379183 C151.129942,128.539035 150.681862,127.698886 149.505655,127.698886 C148.301442,127.698886 147.853363,128.539035 147.853363,129.379183 Z" id="10%" fill="#131F3C" fill-rule="nonzero"></path>
            <path d="M99.1045,145.9 L102.2785,145.9 L102.2785,162 L99.4725,162 L99.4725,160.39 C98.7595,161.379 97.4945,162.322 95.4705,162.322 C91.9515,162.322 90.0655,159.493 90.0655,156.48 C90.0655,153.467 91.9515,150.638 95.4705,150.638 C97.2185,150.638 98.3915,151.351 99.1045,152.133 L99.1045,145.9 Z M99.1045,155.169 C98.6675,154.203 97.6325,153.329 96.2295,153.329 C94.4125,153.329 93.3315,154.755 93.3315,156.48 C93.3315,158.205 94.4125,159.631 96.2295,159.631 C97.6325,159.631 98.6675,158.757 99.1045,157.791 L99.1045,155.169 Z M108.5125,162 L105.3155,162 L105.3155,150.96 L108.5125,150.96 L108.5125,162 Z M108.7885,147.303 C108.7885,148.568 107.9145,149.12 106.9025,149.12 C105.9135,149.12 105.0395,148.568 105.0395,147.303 C105.0395,146.061 105.9135,145.509 106.9025,145.509 C107.9145,145.509 108.7885,146.061 108.7885,147.303 Z M111.0895,154.042 C111.0895,151.489 113.3665,150.638 115.6895,150.638 C117.2535,150.638 118.6335,151.029 119.7605,151.581 L119.7605,154.203 C118.8175,153.559 117.2075,153.076 115.8965,153.076 C115.1835,153.076 114.3555,153.283 114.3555,153.95 C114.3555,155.79 120.5885,154.87 120.5885,158.918 C120.5885,161.517 118.2195,162.322 115.5745,162.322 C113.8955,162.322 112.3085,161.954 111.1815,161.287 L111.1815,158.642 C112.3775,159.424 114.0565,159.815 115.3905,159.815 C116.5635,159.815 117.3225,159.608 117.3225,158.987 C117.3225,157.216 111.0895,157.998 111.0895,154.042 Z M134.0905,162 L130.5025,162 L127.3285,157.63 L126.0405,157.63 L126.0405,162 L122.8435,162 L122.8435,145.9 L126.0405,145.9 L126.0405,155.077 L127.3745,155.077 L130.1805,150.96 L133.7685,150.96 L129.9735,156.411 L134.0905,162 Z M134.5745,156.48 C134.5745,152.616 137.4725,150.638 140.6695,150.638 C143.8895,150.638 146.7645,152.616 146.7645,156.48 C146.7645,160.344 143.8895,162.322 140.6695,162.322 C137.4725,162.322 134.5745,160.344 134.5745,156.48 Z M143.5215,156.48 C143.5215,154.778 142.5095,153.49 140.6695,153.49 C138.8525,153.49 137.8405,154.778 137.8405,156.48 C137.8405,158.182 138.8525,159.47 140.6695,159.47 C142.5095,159.47 143.5215,158.182 143.5215,156.48 Z M151.9865,152.363 C152.8375,151.374 154.0795,150.638 155.6665,150.638 C158.5645,150.638 160.1515,152.616 160.1515,155.169 L160.1515,162 L156.9545,162 L156.9545,155.583 C156.9545,154.088 156.0575,153.398 154.8155,153.398 C153.6885,153.398 152.8145,154.134 152.3545,154.801 L152.3545,162 L149.1575,162 L149.1575,150.96 L151.9865,150.96 L151.9865,152.363 Z" id="diskon" fill="#131F3C"></path>
            <path d="M38.825,8 L41.55,8 L41.55,21.775 L44.4,21.775 L44.4,25 L34.7,25 L34.7,21.775 L37.9,21.775 L37.9,11.75 L34.7,12.95 L34.7,9.575 L38.825,8 Z M47.35,12.35 C47.35,10.075 49.25,7.65 53.9,7.65 C58.225,7.65 60.475,10.075 60.5,12.45 C60.525,14.1 59.725,15.35 58.35,16.375 C59.9,17.15 61.125,18.35 61.125,20.4 C61.125,22.9 59.075,25.35 53.95,25.35 C48.875,25.35 46.725,22.875 46.725,20.275 C46.725,18.575 47.775,16.95 49.375,16 C48.2,15.2 47.35,14.075 47.35,12.35 Z M54.325,18 C53.575,17.725 52.675,17.475 51.8,17.15 C50.875,17.925 50.45,18.95 50.475,19.825 C50.5,21.275 51.65,22.4 54.225,22.4 C56.025,22.4 57.4,21.65 57.4,20.5 C57.4,19.05 56,18.575 54.325,18 Z M56.9,12.725 C56.9,11.55 55.85,10.6 53.75,10.6 C51.95,10.6 50.925,11.425 50.925,12.375 C50.925,13.875 52.45,14.35 54.125,14.9 C54.625,15.025 55.15,15.2 55.7,15.35 C56.5,14.55 56.925,13.55 56.9,12.725 Z M64.275,17.45 L73.575,17.45 L73.575,20.375 L64.275,20.375 L64.275,17.45 Z M76.975,9.45 C78.725,8.2 80.75,7.65 82.825,7.65 C86.25,7.65 89.025,9.2 89.025,12.675 C89.025,15.55 86.65,17.25 84.425,18.575 C82.4,19.775 80.675,20.7 80.65,21.8 L89.15,21.775 L89.15,25 L76.4,25 L76.4,23.325 C76.4,19.225 79.5,17.625 82,16.15 C83.775,15.125 85.3,14.45 85.3,12.825 C85.3,11.575 84.2,10.925 82.475,10.925 C80.775,10.925 78.775,11.575 76.975,12.95 L76.975,9.45 Z M92.7,12.35 C92.7,10.075 94.6,7.65 99.25,7.65 C103.575,7.65 105.825,10.075 105.85,12.45 C105.875,14.1 105.075,15.35 103.7,16.375 C105.25,17.15 106.475,18.35 106.475,20.4 C106.475,22.9 104.425,25.35 99.3,25.35 C94.225,25.35 92.075,22.875 92.075,20.275 C92.075,18.575 93.125,16.95 94.725,16 C93.55,15.2 92.7,14.075 92.7,12.35 Z M99.675,18 C98.925,17.725 98.025,17.475 97.15,17.15 C96.225,17.925 95.8,18.95 95.825,19.825 C95.85,21.275 97,22.4 99.575,22.4 C101.375,22.4 102.75,21.65 102.75,20.5 C102.75,19.05 101.35,18.575 99.675,18 Z M102.25,12.725 C102.25,11.55 101.2,10.6 99.1,10.6 C97.3,10.6 96.275,11.425 96.275,12.375 C96.275,13.875 97.8,14.35 99.475,14.9 C99.975,15.025 100.5,15.2 101.05,15.35 C101.85,14.55 102.275,13.55 102.25,12.725 Z M117.775,25 L113.9,25 L121.05,7.5 L125.1,7.5 L132.225,25 L128.35,25 L127.075,21.725 L119.075,21.725 L117.775,25 Z M122.675,12.35 L120.25,18.625 L125.9,18.625 L123.45,12.35 C123.325,12 123.2,11.65 123.075,10.975 C122.95,11.65 122.825,12 122.675,12.35 Z M133.525,19 C133.525,15.725 135.575,12.65 139.4,12.65 C141.6,12.65 142.975,13.675 143.75,14.75 L143.75,13 L146.8,13 L146.8,24.675 C146.8,29.25 143.425,30.85 139.9,30.85 C138.025,30.85 136.275,30.425 134.825,29.725 L134.825,26.675 C136.175,27.475 137.8,27.925 139.45,27.925 C141.575,27.925 143.35,27.2 143.35,24.825 L143.35,23.725 C142.575,24.575 141.3,25.35 139.4,25.35 C135.575,25.35 133.525,22.275 133.525,19 Z M143.35,17.575 C142.875,16.525 141.75,15.575 140.225,15.575 C138.25,15.575 137.075,17.125 137.075,19 C137.075,20.875 138.25,22.425 140.225,22.425 C141.75,22.425 142.875,21.5 143.35,20.5 L143.35,17.575 Z M158.825,13 L162.3,13 L162.3,25 L159.225,25 L159.225,23.475 C158.3,24.55 156.925,25.35 155.225,25.35 C151.975,25.35 150.35,23.2 150.35,20.425 L150.35,13 L153.825,13 L153.825,19.975 C153.825,21.575 154.7,22.35 156.125,22.35 C157.375,22.35 158.3,21.55 158.825,20.825 L158.825,13 Z M165.475,16.35 C165.475,13.575 167.95,12.65 170.475,12.65 C172.175,12.65 173.675,13.075 174.9,13.675 L174.9,16.525 C173.875,15.825 172.125,15.3 170.7,15.3 C169.925,15.3 169.025,15.525 169.025,16.25 C169.025,18.25 175.8,17.25 175.8,21.65 C175.8,24.475 173.225,25.35 170.35,25.35 C168.525,25.35 166.8,24.95 165.575,24.225 L165.575,21.35 C166.875,22.2 168.7,22.625 170.15,22.625 C171.425,22.625 172.25,22.4 172.25,21.725 C172.25,19.8 165.475,20.65 165.475,16.35 Z M179.575,9.5 L183.025,8.675 L183.025,13 L186.825,13 L186.825,15.925 L183.025,15.925 L183.025,20.625 C183.025,21.875 183.65,22.425 184.95,22.425 C185.75,22.425 186.425,22.3 187.125,22.025 L187.125,24.825 C186.2,25.15 185.1,25.35 183.9,25.35 C181.575,25.35 179.575,24.275 179.575,21.3 L179.575,15.925 L177.55,15.925 L177.55,13 L179.575,13 L179.575,9.5 Z M198.2,13 L201.675,13 L201.675,25 L198.6,25 L198.6,23.475 C197.675,24.55 196.3,25.35 194.6,25.35 C191.35,25.35 189.725,23.2 189.725,20.425 L189.725,13 L193.2,13 L193.2,19.975 C193.2,21.575 194.075,22.35 195.5,22.35 C196.75,22.35 197.675,21.55 198.2,20.825 L198.2,13 Z M204.85,16.35 C204.85,13.575 207.325,12.65 209.85,12.65 C211.55,12.65 213.05,13.075 214.275,13.675 L214.275,16.525 C213.25,15.825 211.5,15.3 210.075,15.3 C209.3,15.3 208.4,15.525 208.4,16.25 C208.4,18.25 215.175,17.25 215.175,21.65 C215.175,24.475 212.6,25.35 209.725,25.35 C207.9,25.35 206.175,24.95 204.95,24.225 L204.95,21.35 C206.25,22.2 208.075,22.625 209.525,22.625 C210.8,22.625 211.625,22.4 211.625,21.725 C211.625,19.8 204.85,20.65 204.85,16.35 Z" id="18-28-Agustus" fill="#131F3C"></path>
        </g>
    </g>
</svg>