<?xml version="1.0" encoding="UTF-8"?>
<svg width="250px" height="291px" viewBox="0 0 250 291" version="1.1" xmlns="http://www.w3.org/2000/svg" xmlns:xlink="http://www.w3.org/1999/xlink">
    <!-- Generator: Sketch 48.2 (47327) - http://www.bohemiancoding.com/sketch -->
    <title>en_1</title>
    <desc>Created with Sketch.</desc>
    <defs>
        <radialGradient cx="50%" cy="50%" fx="50%" fy="50%" r="50.0301469%" gradientTransform="translate(0.500000,0.500000),translate(-0.500000,-0.500000)" id="radialGradient-1">
            <stop stop-color="#8D00FF" offset="0%"></stop>
            <stop stop-color="#5C00FE" offset="69.8959662%"></stop>
            <stop stop-color="#8900FF" offset="100%"></stop>
        </radialGradient>
    </defs>
    <g id="Page-1" stroke="none" stroke-width="1" fill="none" fill-rule="evenodd">
        <g id="en_1" transform="translate(-1.000000, -7.000000)">
            <g id="1-copy" transform="translate(1.000000, 48.000000)" fill-rule="nonzero">
                <path d="M124.534208,0.7629689 C132.711116,0.7630043 140.809466,1.5606594 148.829249,3.1559305 C156.849031,4.7512051 164.636136,7.1134456 172.190582,10.2426509 C179.745051,13.3718515 186.921705,17.2078968 193.720557,21.7507781 C200.519385,26.2936634 206.80975,31.4560958 212.591686,37.2380753 C218.373622,43.0200542 223.535985,49.3104899 228.078816,56.109373 C232.621648,62.908265 236.457622,70.08496 239.586764,77.639458 C242.715941,85.193974 245.078181,92.981143 246.673414,101.000966 C248.268642,109.020783 249.066241,117.119169 249.066241,125.296094 C249.066206,133.473078 248.268572,141.571493 246.673269,149.591345 C245.078041,157.611197 242.715802,165.398378 239.586549,172.952916 C236.457372,180.507449 232.621334,187.684162 228.078462,194.483043 C223.535595,201.28193 218.373157,207.572364 212.591151,213.354352 C206.80918,219.13634 200.518781,224.298762 193.719865,228.841645 C186.920978,233.384512 179.744289,237.220539 172.189785,240.349698 C164.635281,243.478892 156.848106,245.841098 148.828289,247.436348 C140.808455,249.031593 132.710069,249.82921 124.533126,249.82921 C116.356143,249.829175 108.257746,249.031523 100.237911,247.436238 C92.2180591,245.840975 84.4308608,243.478736 76.8763221,240.349518 C69.3217834,237.220324 62.1450765,233.384285 55.3461899,228.841413 C48.5472975,224.298529 42.256863,219.136108 36.4748864,213.35412 C30.6929041,207.572155 25.5304769,201.281714 20.9876108,194.482834 C16.4447331,187.683947 12.6087116,180.507257 9.4795232,172.952736 C6.3503348,165.398232 3.98812395,157.611075 2.39288484,149.591257 C0.797622465,141.571423 0,133.473037 0,125.296094 C2.90693572e-05,117.119128 0.797680604,109.020731 2.3929546,101.000867 C3.9882286,92.981015 6.35046852,85.193829 9.47967436,77.639301 C12.6088802,70.084774 16.4449307,62.908062 20.9878143,56.109169 C25.530692,49.3102771 30.693125,43.0198327 36.4751074,37.2378532 C42.2570955,31.4558697 48.54753,26.2934419 55.346405,21.7505694 C62.1452858,17.2076974 69.3219985,13.3716695 76.8765023,10.2424863 C84.4310004,7.1133037 92.2181812,4.7510899 100.237998,3.1558462 C108.257815,1.5605977 116.356195,0.7629735 124.533126,0.7629735 L124.533022,56.802874 C120.03573,56.802903 115.581648,57.241612 111.170768,58.119019 C106.759883,58.996413 102.476984,60.295645 98.3220195,62.016702 C94.1670548,63.737771 90.2199129,65.847601 86.480547,68.346188 C82.741187,70.844775 79.2814858,73.684113 76.1014203,76.864202 C72.9213547,80.044291 70.0820343,83.504033 67.5834823,87.24341 C65.0849246,90.982799 62.9751229,94.929982 61.2540833,99.084958 C59.5330552,103.239934 58.233841,107.522874 57.356458,111.933789 C56.4791041,116.344668 56.0404243,120.798791 56.0404068,125.296112 C56.0404243,129.793432 56.479139,134.247573 57.3565452,138.658487 C58.2339282,143.069408 59.5331599,147.352347 61.2542228,151.507341 C62.9753032,155.66234 65.0851164,159.609523 67.5837091,163.348918 C70.0823017,167.088319 72.9216395,170.548072 76.1017226,173.728155 C79.2818172,176.908238 82.7415591,179.747576 86.4809366,182.246169 C90.2203198,184.744721 94.1674967,186.85454 98.3224788,188.575603 C102.477461,190.29666 106.7604,191.595892 111.171297,192.473281 C115.5822,193.350646 120.0363,193.789332 124.533621,193.789332 C129.030947,193.789314 133.485081,193.350611 137.896019,192.473228 C142.306916,191.595822 146.589873,190.29659 150.744873,188.57551 C154.899872,186.854453 158.847049,184.744634 162.58645,182.246041 C166.325827,179.747448 169.785569,176.908116 172.965664,173.728033 C176.145764,170.54795 178.985102,167.088208 181.483695,163.348813 C183.98227,159.609413 186.092083,155.662236 187.813129,151.507254 C189.534168,147.352272 190.8334,143.069332 191.710789,138.658435 C192.588172,134.24752 193.026857,129.793415 193.02684,125.296112 C193.026823,120.798791 192.588119,116.344651 191.710736,111.933736 C190.83333,107.522816 189.534099,103.239859 187.813018,99.084865 C186.091979,94.929871 183.982159,90.982683 181.483567,87.243294 C178.98498,83.503905 176.145625,80.044169 172.965542,76.86408 C169.785459,73.683985 166.325723,70.844659 162.586322,68.346078 C158.846927,65.847491 154.899744,63.737678 150.744762,62.016626 C146.589786,60.295575 142.306846,58.996349 137.895961,58.11896 C133.485047,57.241577 129.030947,56.802886 124.533621,56.802886 L124.534208,0.7629689 Z" id="Fill-8" fill="url(#radialGradient-1)"></path>
                <circle id="Oval" fill="#FFFFFF" cx="125.65842" cy="126.421389" r="87.3982442"></circle>
                <path d="M77.354572,152.478404 L75.0307539,152.478404 L75.0307539,149.335968 C73.0766341,149.124712 71.2281425,148.596571 69.7493492,147.777954 L69.7493492,144.820367 C71.78269,146.114311 74.1593221,146.642452 76.271884,146.642452 C78.6485161,146.642452 80.2593446,146.087904 80.2593446,144.345041 C80.2593446,140.067103 69.8285702,142.338107 69.8285702,135.789165 C69.8285702,132.778764 72.1259813,131.167936 75.0307539,130.824644 L75.0307539,127.655802 L77.354572,127.655802 L77.354572,130.798237 C79.1238426,130.930273 80.8931132,131.405599 82.1342433,132.144996 L82.1342433,135.023361 C80.6290429,134.019894 78.5692951,133.465347 76.5887683,133.491754 C74.3441713,133.491754 72.891785,134.151929 72.891785,135.736351 C72.891785,139.723811 83.3225593,137.584843 83.3225593,144.186598 C83.3225593,147.751547 80.65545,149.177526 77.354572,149.362375 L77.354572,152.478404 Z M85.4879353,140.067103 C85.4879353,134.812105 87.9701955,130.745423 93.5420775,130.745423 C99.1139595,130.745423 101.59622,134.812105 101.59622,140.067103 C101.59622,145.3221 99.1139595,149.388782 93.5420775,149.388782 C87.9701955,149.388782 85.4879353,145.3221 85.4879353,140.067103 Z M98.559412,140.067103 C98.559412,135.894793 96.9749906,133.491754 93.5420775,133.491754 C90.0827574,133.491754 88.524743,135.894793 88.524743,140.067103 C88.524743,144.239413 90.0827574,146.642452 93.5420775,146.642452 C96.9749906,146.642452 98.559412,144.239413 98.559412,140.067103 Z M107.696242,147.593105 C107.696242,148.781421 106.877625,149.335968 105.926972,149.335968 C104.976319,149.335968 104.131294,148.781421 104.131294,147.593105 C104.131294,146.457602 104.976319,145.903055 105.926972,145.903055 C106.877625,145.903055 107.696242,146.457602 107.696242,147.593105 Z M110.231317,140.067103 C110.231317,134.812105 112.713577,130.745423 118.285459,130.745423 C123.857341,130.745423 126.339601,134.812105 126.339601,140.067103 C126.339601,145.3221 123.857341,149.388782 118.285459,149.388782 C112.713577,149.388782 110.231317,145.3221 110.231317,140.067103 Z M123.302793,140.067103 C123.302793,135.894793 121.718372,133.491754 118.285459,133.491754 C114.826139,133.491754 113.268124,135.894793 113.268124,140.067103 C113.268124,144.239413 114.826139,146.642452 118.285459,146.642452 C121.718372,146.642452 123.302793,144.239413 123.302793,140.067103 Z M137.800249,131.088715 L140.889871,131.088715 L140.889871,142.760619 L143.979493,142.760619 L143.979493,145.374915 L140.889871,145.374915 L140.889871,149.045491 L137.985098,149.045491 L137.985098,145.374915 L128.240907,145.374915 L128.240907,142.813433 L137.800249,131.088715 Z M137.985098,142.760619 L137.985098,134.917733 L131.594599,142.760619 L137.985098,142.760619 Z M146.012834,140.067103 C146.012834,134.812105 148.495094,130.745423 154.066976,130.745423 C159.638858,130.745423 162.121118,134.812105 162.121118,140.067103 C162.121118,145.3221 159.638858,149.388782 154.066976,149.388782 C148.495094,149.388782 146.012834,145.3221 146.012834,140.067103 Z M159.08431,140.067103 C159.08431,135.894793 157.499889,133.491754 154.066976,133.491754 C150.607656,133.491754 149.049641,135.894793 149.049641,140.067103 C149.049641,144.239413 150.607656,146.642452 154.066976,146.642452 C157.499889,146.642452 159.08431,144.239413 159.08431,140.067103 Z M164.656192,140.067103 C164.656192,134.812105 167.138453,130.745423 172.710335,130.745423 C178.282217,130.745423 180.764477,134.812105 180.764477,140.067103 C180.764477,145.3221 178.282217,149.388782 172.710335,149.388782 C167.138453,149.388782 164.656192,145.3221 164.656192,140.067103 Z M177.727669,140.067103 C177.727669,135.894793 176.143248,133.491754 172.710335,133.491754 C169.251015,133.491754 167.693,135.894793 167.693,140.067103 C167.693,144.239413 169.251015,146.642452 172.710335,146.642452 C176.143248,146.642452 177.727669,144.239413 177.727669,140.067103 Z M90.6637119,163.088715 L92.8819019,163.088715 L92.8819019,178.325567 L96.0771518,178.325567 L96.0771518,181.045491 L86.306553,181.045491 L86.306553,178.325567 L89.8979083,178.325567 L89.8979083,166.178336 L86.306553,167.525095 L86.306553,164.752357 L90.6637119,163.088715 Z M121.903221,162.560574 L124.623144,162.560574 L124.623144,181.045491 L121.612744,181.045491 L121.612744,168.106049 L115.776791,176.873181 L113.981114,176.873181 L108.145162,168.079642 L108.145162,181.045491 L105.134761,181.045491 L105.134761,162.560574 L107.854684,162.560574 L114.878953,173.149791 L121.903221,162.560574 Z M132.122739,181.045491 L129.112338,181.045491 L129.112338,162.560574 L131.93789,162.560574 L141.893338,176.08097 C141.866931,175.447202 141.866931,174.734212 141.866931,174.04763 L141.866931,162.560574 L144.877332,162.560574 L144.877332,181.045491 L142.05178,181.045491 L132.096332,167.525095 C132.122739,168.158863 132.122739,168.871853 132.122739,169.532028 L132.122739,181.045491 Z M152.376926,181.045491 L149.366526,181.045491 L149.366526,162.560574 L156.760492,162.560574 C160.219812,162.560574 163.863982,163.933739 163.863982,168.343712 C163.863982,171.64459 161.804234,173.229012 159.374788,173.809966 L165.289961,181.045491 L161.672199,181.045491 L156.126724,174.126851 L152.376926,174.126851 L152.376926,181.045491 Z M152.376926,165.306905 L152.376926,171.459741 L156.892527,171.459741 C158.873054,171.459741 160.800767,170.746752 160.800767,168.396526 C160.800767,166.019894 158.873054,165.306905 156.892527,165.306905 L152.376926,165.306905 Z" id="$0.0400-1-MNR" fill="#131F3C"></path>
            </g>
            <path d="M96.044206,115.636931 C98.0605623,114.208679 100.412978,113.53656 102.849409,113.53656 C106.658082,113.53656 110.046681,115.216857 110.046681,119.445604 C110.046681,122.666174 107.414215,124.57051 105.00579,126.026768 C102.961428,127.258985 101.365146,128.155144 101.365146,128.659233 L110.186705,128.659233 L110.186705,133 L95.4280971,133 L95.4280971,130.731599 C95.4280971,126.138787 98.9287158,124.346471 101.645196,122.750188 C103.409508,121.714005 104.865765,121.181911 104.865765,119.725654 C104.865765,118.577451 103.829582,118.017352 102.373325,118.017352 C100.468988,118.017352 98.1165722,118.773486 96.044206,120.397773 L96.044206,115.636931 Z M112.483111,123.478317 C112.483111,118.045357 115.087572,113.53656 121.30467,113.53656 C127.521769,113.53656 130.126229,118.045357 130.126229,123.478317 C130.126229,128.911277 127.521769,133.420074 121.30467,133.420074 C115.087572,133.420074 112.483111,128.911277 112.483111,123.478317 Z M124.945314,123.478317 C124.945314,119.809669 123.797111,118.017352 121.30467,118.017352 C118.81223,118.017352 117.664027,119.809669 117.664027,123.478317 C117.664027,127.146966 118.81223,128.939282 121.30467,128.939282 C123.797111,128.939282 124.945314,127.146966 124.945314,123.478317 Z M140.180006,134.680297 L137.099462,134.680297 L148.553486,111.716238 L151.634031,111.716238 L140.180006,134.680297 Z M142.644442,118.017352 C142.644442,121.377946 140.180006,123.058243 137.323502,123.058243 C134.438992,123.058243 131.974556,121.377946 131.974556,118.017352 C131.974556,114.656758 134.438992,112.976461 137.323502,112.976461 C140.180006,112.976461 142.644442,114.656758 142.644442,118.017352 Z M135.671209,118.017352 C135.671209,118.857501 136.119289,119.697649 137.323502,119.697649 C138.499709,119.697649 138.947789,118.857501 138.947789,118.017352 C138.947789,117.177204 138.499709,116.337055 137.323502,116.337055 C136.119289,116.337055 135.671209,117.177204 135.671209,118.017352 Z M156.646917,128.379183 C156.646917,131.739777 154.182481,133.420074 151.325976,133.420074 C148.441466,133.420074 145.977031,131.739777 145.977031,128.379183 C145.977031,125.018589 148.441466,123.338292 151.325976,123.338292 C154.182481,123.338292 156.646917,125.018589 156.646917,128.379183 Z M149.673684,128.379183 C149.673684,129.219332 150.121763,130.05948 151.325976,130.05948 C152.502184,130.05948 152.950263,129.219332 152.950263,128.379183 C152.950263,127.539035 152.502184,126.698886 151.325976,126.698886 C150.121763,126.698886 149.673684,127.539035 149.673684,128.379183 Z" id="20%" fill="#131F3C" fill-rule="nonzero"></path>
            <path d="M98.6045,145.9 L101.7785,145.9 L101.7785,162 L98.9725,162 L98.9725,160.39 C98.2595,161.379 96.9945,162.322 94.9705,162.322 C91.4515,162.322 89.5655,159.493 89.5655,156.48 C89.5655,153.467 91.4515,150.638 94.9705,150.638 C96.7185,150.638 97.8915,151.351 98.6045,152.133 L98.6045,145.9 Z M98.6045,155.169 C98.1675,154.203 97.1325,153.329 95.7295,153.329 C93.9125,153.329 92.8315,154.755 92.8315,156.48 C92.8315,158.205 93.9125,159.631 95.7295,159.631 C97.1325,159.631 98.1675,158.757 98.6045,157.791 L98.6045,155.169 Z M108.0125,162 L104.8155,162 L104.8155,150.96 L108.0125,150.96 L108.0125,162 Z M108.2885,147.303 C108.2885,148.568 107.4145,149.12 106.4025,149.12 C105.4135,149.12 104.5395,148.568 104.5395,147.303 C104.5395,146.061 105.4135,145.509 106.4025,145.509 C107.4145,145.509 108.2885,146.061 108.2885,147.303 Z M110.5895,154.042 C110.5895,151.489 112.8665,150.638 115.1895,150.638 C116.7535,150.638 118.1335,151.029 119.2605,151.581 L119.2605,154.203 C118.3175,153.559 116.7075,153.076 115.3965,153.076 C114.6835,153.076 113.8555,153.283 113.8555,153.95 C113.8555,155.79 120.0885,154.87 120.0885,158.918 C120.0885,161.517 117.7195,162.322 115.0745,162.322 C113.3955,162.322 111.8085,161.954 110.6815,161.287 L110.6815,158.642 C111.8775,159.424 113.5565,159.815 114.8905,159.815 C116.0635,159.815 116.8225,159.608 116.8225,158.987 C116.8225,157.216 110.5895,157.998 110.5895,154.042 Z M133.5905,162 L130.0025,162 L126.8285,157.63 L125.5405,157.63 L125.5405,162 L122.3435,162 L122.3435,145.9 L125.5405,145.9 L125.5405,155.077 L126.8745,155.077 L129.6805,150.96 L133.2685,150.96 L129.4735,156.411 L133.5905,162 Z M134.0745,156.48 C134.0745,152.616 136.9725,150.638 140.1695,150.638 C143.3895,150.638 146.2645,152.616 146.2645,156.48 C146.2645,160.344 143.3895,162.322 140.1695,162.322 C136.9725,162.322 134.0745,160.344 134.0745,156.48 Z M143.0215,156.48 C143.0215,154.778 142.0095,153.49 140.1695,153.49 C138.3525,153.49 137.3405,154.778 137.3405,156.48 C137.3405,158.182 138.3525,159.47 140.1695,159.47 C142.0095,159.47 143.0215,158.182 143.0215,156.48 Z M151.4865,152.363 C152.3375,151.374 153.5795,150.638 155.1665,150.638 C158.0645,150.638 159.6515,152.616 159.6515,155.169 L159.6515,162 L156.4545,162 L156.4545,155.583 C156.4545,154.088 155.5575,153.398 154.3155,153.398 C153.1885,153.398 152.3145,154.134 151.8545,154.801 L151.8545,162 L148.6575,162 L148.6575,150.96 L151.4865,150.96 L151.4865,152.363 Z" id="diskon" fill="#131F3C"></path>
            <path d="M62.3625,8 L65.0875,8 L65.0875,21.775 L67.9375,21.775 L67.9375,25 L58.2375,25 L58.2375,21.775 L61.4375,21.775 L61.4375,11.75 L58.2375,12.95 L58.2375,9.575 L62.3625,8 Z M71.4625,7.975 L82.2625,7.975 L82.2625,11.2 L74.8375,11.175 L74.6125,14.5 C75.3375,14.35 76.1125,14.25 76.8125,14.25 C80.2125,14.25 83.0375,15.775 83.0375,19.675 C83.0375,23.625 79.5875,25.35 75.8375,25.35 C73.8625,25.35 71.8625,24.925 70.3625,24.2 L70.3625,20.725 C71.7375,21.6 73.7125,22.075 75.4125,22.075 C77.6375,22.075 79.2875,21.275 79.2875,19.625 C79.2875,17.95 77.8625,17.125 75.1375,17.125 C73.9125,17.125 72.3375,17.325 70.8625,17.85 L71.4625,7.975 Z M94.2375,25 L90.3625,25 L97.5125,7.5 L101.5625,7.5 L108.6875,25 L104.8125,25 L103.5375,21.725 L95.5375,21.725 L94.2375,25 Z M99.1375,12.35 L96.7125,18.625 L102.3625,18.625 L99.9125,12.35 C99.7875,12 99.6625,11.65 99.5375,10.975 C99.4125,11.65 99.2875,12 99.1375,12.35 Z M109.9875,19 C109.9875,15.725 112.0375,12.65 115.8625,12.65 C118.0625,12.65 119.4375,13.675 120.2125,14.75 L120.2125,13 L123.2625,13 L123.2625,24.675 C123.2625,29.25 119.8875,30.85 116.3625,30.85 C114.4875,30.85 112.7375,30.425 111.2875,29.725 L111.2875,26.675 C112.6375,27.475 114.2625,27.925 115.9125,27.925 C118.0375,27.925 119.8125,27.2 119.8125,24.825 L119.8125,23.725 C119.0375,24.575 117.7625,25.35 115.8625,25.35 C112.0375,25.35 109.9875,22.275 109.9875,19 Z M119.8125,17.575 C119.3375,16.525 118.2125,15.575 116.6875,15.575 C114.7125,15.575 113.5375,17.125 113.5375,19 C113.5375,20.875 114.7125,22.425 116.6875,22.425 C118.2125,22.425 119.3375,21.5 119.8125,20.5 L119.8125,17.575 Z M135.2875,13 L138.7625,13 L138.7625,25 L135.6875,25 L135.6875,23.475 C134.7625,24.55 133.3875,25.35 131.6875,25.35 C128.4375,25.35 126.8125,23.2 126.8125,20.425 L126.8125,13 L130.2875,13 L130.2875,19.975 C130.2875,21.575 131.1625,22.35 132.5875,22.35 C133.8375,22.35 134.7625,21.55 135.2875,20.825 L135.2875,13 Z M141.9375,16.35 C141.9375,13.575 144.4125,12.65 146.9375,12.65 C148.6375,12.65 150.1375,13.075 151.3625,13.675 L151.3625,16.525 C150.3375,15.825 148.5875,15.3 147.1625,15.3 C146.3875,15.3 145.4875,15.525 145.4875,16.25 C145.4875,18.25 152.2625,17.25 152.2625,21.65 C152.2625,24.475 149.6875,25.35 146.8125,25.35 C144.9875,25.35 143.2625,24.95 142.0375,24.225 L142.0375,21.35 C143.3375,22.2 145.1625,22.625 146.6125,22.625 C147.8875,22.625 148.7125,22.4 148.7125,21.725 C148.7125,19.8 141.9375,20.65 141.9375,16.35 Z M156.0375,9.5 L159.4875,8.675 L159.4875,13 L163.2875,13 L163.2875,15.925 L159.4875,15.925 L159.4875,20.625 C159.4875,21.875 160.1125,22.425 161.4125,22.425 C162.2125,22.425 162.8875,22.3 163.5875,22.025 L163.5875,24.825 C162.6625,25.15 161.5625,25.35 160.3625,25.35 C158.0375,25.35 156.0375,24.275 156.0375,21.3 L156.0375,15.925 L154.0125,15.925 L154.0125,13 L156.0375,13 L156.0375,9.5 Z M174.6625,13 L178.1375,13 L178.1375,25 L175.0625,25 L175.0625,23.475 C174.1375,24.55 172.7625,25.35 171.0625,25.35 C167.8125,25.35 166.1875,23.2 166.1875,20.425 L166.1875,13 L169.6625,13 L169.6625,19.975 C169.6625,21.575 170.5375,22.35 171.9625,22.35 C173.2125,22.35 174.1375,21.55 174.6625,20.825 L174.6625,13 Z M181.3125,16.35 C181.3125,13.575 183.7875,12.65 186.3125,12.65 C188.0125,12.65 189.5125,13.075 190.7375,13.675 L190.7375,16.525 C189.7125,15.825 187.9625,15.3 186.5375,15.3 C185.7625,15.3 184.8625,15.525 184.8625,16.25 C184.8625,18.25 191.6375,17.25 191.6375,21.65 C191.6375,24.475 189.0625,25.35 186.1875,25.35 C184.3625,25.35 182.6375,24.95 181.4125,24.225 L181.4125,21.35 C182.7125,22.2 184.5375,22.625 185.9875,22.625 C187.2625,22.625 188.0875,22.4 188.0875,21.725 C188.0875,19.8 181.3125,20.65 181.3125,16.35 Z" id="15-Agustus" fill="#131F3C"></path>
        </g>
    </g>
</svg>