<?xml version="1.0" encoding="UTF-8"?>
<svg width="250px" height="292px" viewBox="0 0 250 292" version="1.1" xmlns="http://www.w3.org/2000/svg" xmlns:xlink="http://www.w3.org/1999/xlink">
    <!-- Generator: Sketch 48.2 (47327) - http://www.bohemiancoding.com/sketch -->
    <title>text_4</title>
    <desc>Created with Sketch.</desc>
    <defs>
        <radialGradient cx="400%" cy="400%" fx="400%" fy="400%" r="100.47898%" gradientTransform="translate(4.000000,4.000000),scale(1.000000,0.999999),translate(-4.000000,-4.000000)" id="radialGradient-1">
            <stop stop-color="#8D00FF" offset="0%"></stop>
            <stop stop-color="#5C00FE" offset="69.8959662%"></stop>
            <stop stop-color="#8900FF" offset="100%"></stop>
        </radialGradient>
        <radialGradient cx="50%" cy="50%" fx="50%" fy="50%" r="50.0253367%" id="radialGradient-2">
            <stop stop-color="#FF9495" offset="0%"></stop>
            <stop stop-color="#FE5F60" offset="70.3742825%"></stop>
            <stop stop-color="#FF9091" offset="100%"></stop>
        </radialGradient>
    </defs>
    <g id="Page-1" stroke="none" stroke-width="1" fill="none" fill-rule="evenodd">
        <g id="text_4" transform="translate(0.000000, -7.000000)">
            <g id="4-copy" transform="translate(0.000000, 48.000000)" fill-rule="nonzero">
                <g id="Group-Copy-3" transform="translate(0.545890, 0.588188)">
                    <g id="Group-3" transform="translate(0.000000, 0.762969)">
                        <g id="Group-8">
                            <path d="M0,125.013369 C2.91814549e-05,116.804853 0.800756631,108.675226 2.40218235,100.624437 C4.00360807,92.5736583 6.37495729,84.7564426 9.51623002,77.1727836 C12.6575028,69.5891246 16.5083459,62.384737 21.0687478,55.5596266 C25.6291439,48.7345168 30.8114843,42.4198151 36.6157632,36.6155391 C42.420048,30.811259 48.7347397,25.6289238 55.5598326,21.068533 C62.3849314,16.5081428 69.589319,12.6573224 77.1729546,9.51607244 C84.7565844,6.37482306 92.5737943,4.0035001 100.624537,2.40210473 C108.675281,0.800704688 116.804785,0 125.013248,0 L125.013248,56.256007 C120.498614,56.2560362 116.027356,56.6964369 111.599467,57.5772266 C107.171572,58.4580046 102.872157,59.7622464 98.7011703,61.4899402 C94.5301832,63.2176458 90.5678202,65.3356124 86.8140346,67.8438344 C83.0602548,70.3520563 79.5872123,73.2023432 76.3948837,76.3946952 C73.2025551,79.5870471 70.3522856,83.0601305 67.8440987,86.8139278 C65.335906,90.5677368 63.2179685,94.5301406 61.4902922,98.7011394 C59.7626275,102.872138 58.4584032,107.171594 57.5776369,111.599518 C56.6968997,116.027406 56.2565282,120.498706 56.2565107,125.013369 L0,125.013369 Z" id="Fill-8" fill="url(#radialGradient-1)"></path>
                            <path d="M124.740231,0 C132.917139,3.54646161e-05 140.809466,0.797690493 148.829249,2.3929616 C156.849031,3.98823619 164.636136,6.35047671 172.190582,9.47968199 C179.745051,12.6088826 186.921705,16.4449279 193.720557,20.9878092 C200.519385,25.5306945 206.80975,30.693127 212.591686,36.4751065 C218.373622,42.2570854 223.535985,48.5475211 228.078816,55.3464036 C232.621648,62.1452961 236.457622,69.3219914 239.586764,76.8764895 C242.715941,84.431005 245.078181,92.2181743 246.673414,100.237997 C248.268642,108.257814 249.066241,116.3562 249.066241,124.533125 C249.066206,132.710109 248.268572,140.808524 246.673269,148.828376 C245.078041,156.848228 242.715802,164.635409 239.586549,172.189947 C236.457372,179.74448 232.621334,186.921193 228.078462,193.720074 C223.535595,200.518961 218.373157,206.809395 212.591151,212.591383 C206.80918,218.373372 200.518781,223.535793 193.719865,228.078677 C186.920978,232.621543 179.744289,236.45757 172.189785,239.586729 C164.635281,242.715924 156.848106,245.078129 148.828289,246.673379 C140.808455,248.268624 132.710069,249.066241 124.533126,249.066241 C116.356143,249.066206 108.257746,248.268555 100.237911,246.673269 C92.2180591,245.078007 84.4308608,242.715767 76.8763221,239.586549 C69.3217834,236.457355 62.1450765,232.621316 55.3461899,228.078444 C48.5472975,223.53556 42.256863,218.373139 36.4748864,212.591151 C30.6929041,206.809186 25.5304769,200.518746 20.9876108,193.719865 C16.4447331,186.920978 12.6087116,179.744289 9.4795232,172.189767 C6.3503348,164.635263 3.98812395,156.848106 2.39288484,148.828289 C0.797622465,140.808454 5.00693342e-16,132.710068 0,124.533125 C0,124.533122 18.6801356,124.533128 56.0404068,124.533143 C56.0404243,129.030463 56.479139,133.484604 57.3565452,137.895518 C58.2339282,142.306439 59.5331599,146.589378 61.2542228,150.744372 C62.9753032,154.899372 65.0851164,158.846554 67.5837091,162.585949 C70.0823017,166.32535 72.9216395,169.785103 76.1017226,172.965187 C79.2818172,176.14527 82.7415591,178.984607 86.4809366,181.4832 C90.2203198,183.981752 94.1674967,186.091571 98.3224788,187.812634 C102.477461,189.533691 106.7604,190.832923 111.171297,191.710312 C115.5822,192.587677 120.0363,193.026363 124.533621,193.026363 C129.030947,193.026345 133.485081,192.587642 137.896019,191.710259 C142.306916,190.832853 146.589873,189.533621 150.744873,187.812541 C154.899872,186.091484 158.847049,183.981665 162.58645,181.483072 C166.325827,178.98448 169.785569,176.145147 172.965664,172.965064 C176.145764,169.784981 178.985102,166.325239 181.483695,162.585845 C183.98227,158.846444 186.092083,154.899267 187.813129,150.744285 C189.534168,146.589303 190.8334,142.306363 191.710789,137.895466 C192.588172,133.484552 193.026857,129.030446 193.02684,124.533143 C193.026823,120.035823 192.588119,115.581682 191.710736,111.170767 C190.83333,106.759847 189.534099,102.47689 187.813018,98.3218963 C186.091979,94.1669026 183.982159,90.2197141 181.483567,86.480325 C178.98498,82.7409359 176.145625,79.2811998 172.965542,76.1011109 C169.785459,72.9210162 166.325723,70.08169 162.586322,67.583109 C158.846927,65.0845221 154.899744,62.9747088 150.744762,61.2536575 C146.589786,59.5326062 142.306846,58.2333804 137.895961,57.3559916 C133.485047,56.4786086 129.030947,56.0399171 124.533621,56.0399171 L124.740231,0 Z" id="Fill-8" fill="url(#radialGradient-2)"></path>
                        </g>
                    </g>
                    <circle id="Oval" fill="#FFFFFF" cx="124.90822" cy="125.671189" r="87.3982442"></circle>
                    <path d="M80.636845,151.728204 L78.3130269,151.728204 L78.3130269,148.585769 C76.3589072,148.374512 74.5104155,147.846372 73.0316222,147.027754 L73.0316222,144.070168 C75.064963,145.364112 77.4415951,145.892252 79.554157,145.892252 C81.9307892,145.892252 83.5416176,145.337705 83.5416176,143.594841 C83.5416176,139.316903 73.1108433,141.587907 73.1108433,135.038965 C73.1108433,132.028565 75.4082543,130.417736 78.3130269,130.074445 L78.3130269,126.905602 L80.636845,126.905602 L80.636845,130.048038 C82.4061156,130.180073 84.1753862,130.655399 85.4165163,131.394796 L85.4165163,134.273162 C83.911316,133.269695 81.8515681,132.715147 79.8710413,132.741554 C77.6264443,132.741554 76.174058,133.40173 76.174058,134.986151 C76.174058,138.973612 86.6048324,136.834643 86.6048324,143.436399 C86.6048324,147.001347 83.937723,148.427326 80.636845,148.612176 L80.636845,151.728204 Z M88.7702083,139.316903 C88.7702083,134.061906 91.2524685,129.995224 96.8243505,129.995224 C102.396233,129.995224 104.878493,134.061906 104.878493,139.316903 C104.878493,144.571901 102.396233,148.638583 96.8243505,148.638583 C91.2524685,148.638583 88.7702083,144.571901 88.7702083,139.316903 Z M101.841685,139.316903 C101.841685,135.144593 100.257264,132.741554 96.8243505,132.741554 C93.3650304,132.741554 91.807016,135.144593 91.807016,139.316903 C91.807016,143.489213 93.3650304,145.892252 96.8243505,145.892252 C100.257264,145.892252 101.841685,143.489213 101.841685,139.316903 Z M110.978515,146.842905 C110.978515,148.031221 110.159898,148.585769 109.209245,148.585769 C108.258592,148.585769 107.413567,148.031221 107.413567,146.842905 C107.413567,145.707403 108.258592,145.152855 109.209245,145.152855 C110.159898,145.152855 110.978515,145.707403 110.978515,146.842905 Z M113.51359,139.316903 C113.51359,134.061906 115.99585,129.995224 121.567732,129.995224 C127.139614,129.995224 129.621874,134.061906 129.621874,139.316903 C129.621874,144.571901 127.139614,148.638583 121.567732,148.638583 C115.99585,148.638583 113.51359,144.571901 113.51359,139.316903 Z M126.585066,139.316903 C126.585066,135.144593 125.000645,132.741554 121.567732,132.741554 C118.108412,132.741554 116.550397,135.144593 116.550397,139.316903 C116.550397,143.489213 118.108412,145.892252 121.567732,145.892252 C125.000645,145.892252 126.585066,143.489213 126.585066,139.316903 Z M141.082522,130.338515 L144.172144,130.338515 L144.172144,142.01042 L147.261766,142.01042 L147.261766,144.624715 L144.172144,144.624715 L144.172144,148.295291 L141.267371,148.295291 L141.267371,144.624715 L131.52318,144.624715 L131.52318,142.063234 L141.082522,130.338515 Z M141.267371,142.01042 L141.267371,134.167534 L134.876872,142.01042 L141.267371,142.01042 Z M148.714152,130.338515 L162.049699,130.338515 L162.049699,132.715147 L154.602918,148.295291 L151.354855,148.295291 L158.643193,133.032032 L148.714152,133.032032 L148.714152,130.338515 Z M165.007286,130.338515 L176.071829,130.338515 L176.071829,133.032032 L167.780023,133.032032 L167.515953,137.362783 C168.387385,137.151527 169.311631,137.045899 170.235876,137.045899 C173.695197,137.045899 176.916853,138.5511 176.916853,142.776223 C176.916853,146.658056 173.615976,148.638583 169.654922,148.638583 C167.568767,148.638583 165.482612,148.189663 163.898191,147.42386 L163.898191,144.598308 C165.403391,145.46974 167.436732,145.918659 169.311631,145.918659 C171.97874,145.918659 173.880046,144.862378 173.880046,142.749816 C173.880046,140.373184 171.846705,139.528159 168.994746,139.528159 C167.54236,139.528159 165.878718,139.818637 164.426331,140.32037 L165.007286,130.338515 Z M90.2886122,162.338515 L92.5068022,162.338515 L92.5068022,177.575368 L95.702052,177.575368 L95.702052,180.295291 L85.9314533,180.295291 L85.9314533,177.575368 L89.5228085,177.575368 L89.5228085,165.428137 L85.9314533,166.774895 L85.9314533,164.002158 L90.2886122,162.338515 Z M121.528121,161.810375 L124.248045,161.810375 L124.248045,180.295291 L121.237644,180.295291 L121.237644,167.35585 L115.401692,176.122982 L113.606014,176.122982 L107.770062,167.329443 L107.770062,180.295291 L104.759661,180.295291 L104.759661,161.810375 L107.479585,161.810375 L114.503853,172.399591 L121.528121,161.810375 Z M131.747639,180.295291 L128.737239,180.295291 L128.737239,161.810375 L131.56279,161.810375 L141.518238,175.330771 C141.491831,174.697002 141.491831,173.984013 141.491831,173.29743 L141.491831,161.810375 L144.502232,161.810375 L144.502232,180.295291 L141.67668,180.295291 L131.721232,166.774895 C131.747639,167.408664 131.747639,168.121653 131.747639,168.781829 L131.747639,180.295291 Z M152.001827,180.295291 L148.991426,180.295291 L148.991426,161.810375 L156.385393,161.810375 C159.844713,161.810375 163.488882,163.18354 163.488882,167.593513 C163.488882,170.894391 161.429134,172.478812 158.999688,173.059767 L164.914861,180.295291 L161.297099,180.295291 L155.751624,173.376651 L152.001827,173.376651 L152.001827,180.295291 Z M152.001827,164.556705 L152.001827,170.709542 L156.517428,170.709542 C158.497954,170.709542 160.425667,169.996552 160.425667,167.646327 C160.425667,165.269695 158.497954,164.556705 156.517428,164.556705 L152.001827,164.556705 Z" id="$0.0475-1-MNR" fill="#131F3C"></path>
                </g>
            </g>
            <path d="M106.882121,115.928629 L119.344324,115.928629 L119.344324,120.269397 L111.530943,120.241392 L111.334908,123.041887 C112.035032,122.929867 112.735156,122.873857 113.37927,122.873857 C117.271958,122.873857 120.184472,124.638169 120.184472,128.922926 C120.184472,133.627757 116.011735,135.420074 111.754983,135.420074 C109.542592,135.420074 107.330201,134.94399 105.621899,134.131847 L105.621899,129.371005 C107.106161,130.407188 109.346557,130.939282 111.194884,130.939282 C113.351265,130.939282 115.003557,130.295168 115.003557,128.810906 C115.003557,127.606693 114.023384,126.68253 110.914834,126.654525 C109.710621,126.654525 107.974314,126.822555 106.210003,127.438664 L106.882121,115.928629 Z M130.126229,136.680297 L127.045685,136.680297 L138.499709,113.716238 L141.580254,113.716238 L130.126229,136.680297 Z M132.590665,120.017352 C132.590665,123.377946 130.126229,125.058243 127.269725,125.058243 C124.385215,125.058243 121.920779,123.377946 121.920779,120.017352 C121.920779,116.656758 124.385215,114.976461 127.269725,114.976461 C130.126229,114.976461 132.590665,116.656758 132.590665,120.017352 Z M125.617433,120.017352 C125.617433,120.857501 126.065512,121.697649 127.269725,121.697649 C128.445933,121.697649 128.894012,120.857501 128.894012,120.017352 C128.894012,119.177204 128.445933,118.337055 127.269725,118.337055 C126.065512,118.337055 125.617433,119.177204 125.617433,120.017352 Z M146.59314,130.379183 C146.59314,133.739777 144.128704,135.420074 141.272199,135.420074 C138.38769,135.420074 135.923254,133.739777 135.923254,130.379183 C135.923254,127.018589 138.38769,125.338292 141.272199,125.338292 C144.128704,125.338292 146.59314,127.018589 146.59314,130.379183 Z M139.619907,130.379183 C139.619907,131.219332 140.067987,132.05948 141.272199,132.05948 C142.448407,132.05948 142.896486,131.219332 142.896486,130.379183 C142.896486,129.539035 142.448407,128.698886 141.272199,128.698886 C140.067987,128.698886 139.619907,129.539035 139.619907,130.379183 Z" id="5%" fill="#131F3C" fill-rule="nonzero"></path>
            <g id="diskon" transform="translate(88.000000, 141.000000)" fill="#000000">
                <path d="M10.1045,6.9 L13.2785,6.9 L13.2785,23 L10.4725,23 L10.4725,21.39 C9.7595,22.379 8.4945,23.322 6.4705,23.322 C2.9515,23.322 1.0655,20.493 1.0655,17.48 C1.0655,14.467 2.9515,11.638 6.4705,11.638 C8.2185,11.638 9.3915,12.351 10.1045,13.133 L10.1045,6.9 Z M10.1045,16.169 C9.6675,15.203 8.6325,14.329 7.2295,14.329 C5.4125,14.329 4.3315,15.755 4.3315,17.48 C4.3315,19.205 5.4125,20.631 7.2295,20.631 C8.6325,20.631 9.6675,19.757 10.1045,18.791 L10.1045,16.169 Z M19.2125,23 L16.0155,23 L16.0155,11.96 L19.2125,11.96 L19.2125,23 Z M19.4885,8.303 C19.4885,9.568 18.6145,10.12 17.6025,10.12 C16.6135,10.12 15.7395,9.568 15.7395,8.303 C15.7395,7.061 16.6135,6.509 17.6025,6.509 C18.6145,6.509 19.4885,7.061 19.4885,8.303 Z M21.4895,15.042 C21.4895,12.489 23.7665,11.638 26.0895,11.638 C27.6535,11.638 29.0335,12.029 30.1605,12.581 L30.1605,15.203 C29.2175,14.559 27.6075,14.076 26.2965,14.076 C25.5835,14.076 24.7555,14.283 24.7555,14.95 C24.7555,16.79 30.9885,15.87 30.9885,19.918 C30.9885,22.517 28.6195,23.322 25.9745,23.322 C24.2955,23.322 22.7085,22.954 21.5815,22.287 L21.5815,19.642 C22.7775,20.424 24.4565,20.815 25.7905,20.815 C26.9635,20.815 27.7225,20.608 27.7225,19.987 C27.7225,18.216 21.4895,18.998 21.4895,15.042 Z M44.1905,23 L40.6025,23 L37.4285,18.63 L36.1405,18.63 L36.1405,23 L32.9435,23 L32.9435,6.9 L36.1405,6.9 L36.1405,16.077 L37.4745,16.077 L40.2805,11.96 L43.8685,11.96 L40.0735,17.411 L44.1905,23 Z M44.3745,17.48 C44.3745,13.616 47.2725,11.638 50.4695,11.638 C53.6895,11.638 56.5645,13.616 56.5645,17.48 C56.5645,21.344 53.6895,23.322 50.4695,23.322 C47.2725,23.322 44.3745,21.344 44.3745,17.48 Z M53.3215,17.48 C53.3215,15.778 52.3095,14.49 50.4695,14.49 C48.6525,14.49 47.6405,15.778 47.6405,17.48 C47.6405,19.182 48.6525,20.47 50.4695,20.47 C52.3095,20.47 53.3215,19.182 53.3215,17.48 Z M61.4865,13.363 C62.3375,12.374 63.5795,11.638 65.1665,11.638 C68.0645,11.638 69.6515,13.616 69.6515,16.169 L69.6515,23 L66.4545,23 L66.4545,16.583 C66.4545,15.088 65.5575,14.398 64.3155,14.398 C63.1885,14.398 62.3145,15.134 61.8545,15.801 L61.8545,23 L58.6575,23 L58.6575,11.96 L61.4865,11.96 L61.4865,13.363 Z"></path>
            </g>
            <g id="Aug.-29-—-Sept.-10" transform="translate(10.000000, 0.000000)" fill="#000000">
                <path d="M4.05,25 L0.175,25 L7.325,7.5 L11.375,7.5 L18.5,25 L14.625,25 L13.35,21.725 L5.35,21.725 L4.05,25 Z M8.95,12.35 L6.525,18.625 L12.175,18.625 L9.725,12.35 C9.6,12 9.475,11.65 9.35,10.975 C9.225,11.65 9.1,12 8.95,12.35 Z M28.1,13 L31.575,13 L31.575,25 L28.5,25 L28.5,23.475 C27.575,24.55 26.2,25.35 24.5,25.35 C21.25,25.35 19.625,23.2 19.625,20.425 L19.625,13 L23.1,13 L23.1,19.975 C23.1,21.575 23.975,22.35 25.4,22.35 C26.65,22.35 27.575,21.55 28.1,20.825 L28.1,13 Z M33.85,19 C33.85,15.725 35.9,12.65 39.725,12.65 C41.925,12.65 43.3,13.675 44.075,14.75 L44.075,13 L47.125,13 L47.125,24.675 C47.125,29.25 43.75,30.85 40.225,30.85 C38.35,30.85 36.6,30.425 35.15,29.725 L35.15,26.675 C36.5,27.475 38.125,27.925 39.775,27.925 C41.9,27.925 43.675,27.2 43.675,24.825 L43.675,23.725 C42.9,24.575 41.625,25.35 39.725,25.35 C35.9,25.35 33.85,22.275 33.85,19 Z M43.675,17.575 C43.2,16.525 42.075,15.575 40.55,15.575 C38.575,15.575 37.4,17.125 37.4,19 C37.4,20.875 38.575,22.425 40.55,22.425 C42.075,22.425 43.2,21.5 43.675,20.5 L43.675,17.575 Z M53.825,23.275 C53.825,24.675 52.85,25.325 51.725,25.325 C50.6,25.325 49.6,24.675 49.6,23.275 C49.6,21.875 50.6,21.225 51.725,21.225 C52.85,21.225 53.825,21.875 53.825,23.275 Z M61.95,9.45 C63.7,8.2 65.725,7.65 67.8,7.65 C71.225,7.65 74,9.2 74,12.675 C74,15.55 71.625,17.25 69.4,18.575 C67.375,19.775 65.65,20.7 65.625,21.8 L74.125,21.775 L74.125,25 L61.375,25 L61.375,23.325 C61.375,19.225 64.475,17.625 66.975,16.15 C68.75,15.125 70.275,14.45 70.275,12.825 C70.275,11.575 69.175,10.925 67.45,10.925 C65.75,10.925 63.75,11.575 61.95,12.95 L61.95,9.45 Z M76.05,13.5 C76.05,9.625 79.075,7.65 82.55,7.65 C88.025,7.65 90.25,11 90.25,16.5 C90.25,22.725 86.5,25.35 82.175,25.35 C80.6,25.35 78.95,24.975 77.5,24.3 L77.5,21 C78.675,21.775 80.225,22.2 81.675,22.2 C83.975,22.2 86.075,21.225 86.525,17.85 C85.025,18.65 83.65,19 82,19 C78.925,19 76.05,17.15 76.05,13.5 Z M82.85,10.7 C81.2,10.7 79.8,11.45 79.8,13.325 C79.8,15.275 81.375,15.875 83.125,15.875 C84.25,15.875 85.425,15.525 86.525,14.85 C86.175,11.65 84.8,10.7 82.85,10.7 Z M114.85,20.375 L98.25,20.375 L98.25,17.45 L114.85,17.45 L114.85,20.375 Z M122.875,12.125 C122.875,8.75 125.825,7.15 129.275,7.15 C131.35,7.15 133.45,7.65 134.95,8.5 L134.95,12 C133.475,10.95 131.5,10.425 129.55,10.45 C127.65,10.475 126.7,11 126.7,12.075 C126.7,15.1 136.275,13.975 136.275,20.2 C136.275,24.125 133.125,25.35 129.45,25.35 C127.025,25.35 124.775,24.775 122.975,23.775 L122.975,20.2 C124.975,21.525 127.175,22.05 129.175,22.05 C131.2,22.05 132.45,21.625 132.45,20.375 C132.45,17.1 122.875,18.325 122.875,12.125 Z M137.725,19 C137.725,14.475 141.2,12.65 143.9,12.65 C148.875,12.65 150.475,16.575 149.675,20.125 L141.225,20.125 C141.625,21.875 143.475,22.6 145.45,22.6 C146.825,22.6 148.05,22.325 149.075,21.875 L149.075,24.6 C147.95,25.075 146.475,25.35 144.675,25.35 C140.875,25.35 137.725,23.175 137.725,19 Z M146.55,17.875 C146.675,17.05 146.2,15.3 144.025,15.3 C142.55,15.3 141.25,16.225 141.2,17.875 L146.55,17.875 Z M155.15,14.75 C155.9,13.675 157.275,12.65 159.5,12.65 C163.3,12.65 165.35,15.725 165.35,19 C165.35,22.275 163.3,25.35 159.5,25.35 C157.6,25.35 156.325,24.575 155.55,23.725 L155.55,30.5 L152.075,30.5 L152.075,13 L155.15,13 L155.15,14.75 Z M161.8,19 C161.8,17.125 160.625,15.575 158.65,15.575 C157.125,15.575 156,16.525 155.525,17.575 L155.525,20.425 C156,21.475 157.125,22.425 158.65,22.425 C160.625,22.425 161.8,20.875 161.8,19 Z M168.375,9.5 L171.825,8.675 L171.825,13 L175.625,13 L175.625,15.925 L171.825,15.925 L171.825,20.625 C171.825,21.875 172.45,22.425 173.75,22.425 C174.55,22.425 175.225,22.3 175.925,22.025 L175.925,24.825 C175,25.15 173.9,25.35 172.7,25.35 C170.375,25.35 168.375,24.275 168.375,21.3 L168.375,15.925 L166.35,15.925 L166.35,13 L168.375,13 L168.375,9.5 Z M181.675,23.275 C181.675,24.675 180.7,25.325 179.575,25.325 C178.45,25.325 177.45,24.675 177.45,23.275 C177.45,21.875 178.45,21.225 179.575,21.225 C180.7,21.225 181.675,21.875 181.675,23.275 Z M193.625,8 L196.35,8 L196.35,21.775 L199.2,21.775 L199.2,25 L189.5,25 L189.5,21.775 L192.7,21.775 L192.7,11.75 L189.5,12.95 L189.5,9.575 L193.625,8 Z M200.825,16.5 C200.825,11.6 203.15,7.65 208.575,7.65 C214,7.65 216.325,11.6 216.325,16.5 C216.325,21.4 214,25.35 208.575,25.35 C203.15,25.35 200.825,21.4 200.825,16.5 Z M212.575,16.5 C212.575,12.875 211.325,10.95 208.575,10.95 C205.825,10.95 204.575,12.875 204.575,16.5 C204.575,20.125 205.825,22.05 208.575,22.05 C211.325,22.05 212.575,20.125 212.575,16.5 Z"></path>
            </g>
        </g>
    </g>
</svg>