<?xml version="1.0" encoding="UTF-8"?>
<svg width="250px" height="292px" viewBox="0 0 250 292" version="1.1" xmlns="http://www.w3.org/2000/svg" xmlns:xlink="http://www.w3.org/1999/xlink">
    <!-- Generator: Sketch 48.2 (47327) - http://www.bohemiancoding.com/sketch -->
    <title>text_5</title>
    <desc>Created with Sketch.</desc>
    <defs>
        <radialGradient cx="200%" cy="200%" fx="200%" fy="200%" r="50.0253367%" gradientTransform="translate(2.000000,2.000000),scale(1.000000,1.000000),translate(-2.000000,-2.000000)" id="radialGradient-1">
            <stop stop-color="#FF9495" offset="0%"></stop>
            <stop stop-color="#FE5F60" offset="70.3742825%"></stop>
            <stop stop-color="#FF9091" offset="100%"></stop>
        </radialGradient>
    </defs>
    <g id="Page-1" stroke="none" stroke-width="1" fill="none" fill-rule="evenodd">
        <g id="text_5" transform="translate(-2.000000, -7.000000)">
            <g id="5-copy" transform="translate(2.000000, 49.000000)" fill-rule="nonzero">
                <g id="Group-7" transform="translate(0.637670, 0.351157)">
                    <path d="M124.637764,0 C132.821471,3.54941064e-05 140.926556,0.798353806 148.953007,2.39495144 C156.979458,3.99155257 164.773039,6.3557574 172.333767,9.48756474 C179.894518,12.6193674 187.07714,16.4586026 193.881645,21.0052615 C200.686127,25.5519244 206.981723,30.7186496 212.768466,36.505437 C218.55521,42.2922239 223.721866,48.5878904 228.268475,55.3924265 C232.815084,62.1969726 236.654249,69.3796356 239.785993,76.9404155 C242.917771,84.501213 245.281976,92.2948576 246.878535,100.321349 C248.475089,108.347835 249.273352,116.452955 249.273352,124.63668 C249.273317,132.820463 248.47502,140.925612 246.87839,148.952133 C245.281836,156.978654 242.917632,164.77231 239.785777,172.333131 C236.653998,179.893946 232.81477,187.076626 228.26812,193.88116 C223.721476,200.685701 218.554745,206.981366 212.767931,212.768162 C206.981152,218.554958 200.685522,223.721672 193.880953,228.268334 C187.076412,232.814977 179.893755,236.654194 172.332969,239.785956 C164.772184,242.917752 156.978533,245.281921 148.952047,246.878499 C140.925544,248.47507 132.820424,249.27335 124.636682,249.27335 C116.452899,249.273315 108.347767,248.475 100.321264,246.878388 C92.2947429,245.281799 84.5010693,242.917595 76.9402486,239.785775 C69.3794278,236.653979 62.1967532,232.81475 55.392213,228.268101 C48.5876669,223.72144 42.2920016,218.554726 36.5052171,212.767929 C30.7184267,206.981156 25.5517068,200.685485 21.005063,193.880951 C16.4584077,187.076411 12.6191964,179.893754 9.48740589,172.33295 C6.35561542,164.772164 3.99144027,156.978532 2.39487464,148.952046 C0.798285727,140.925542 0,132.820422 0,124.63668 C2.90935298e-05,116.452914 0.798343914,108.347783 2.39494446,100.32125 C3.99154501,92.2947296 6.35574925,84.5010675 9.48755718,76.9402584 C12.6193651,69.3794494 16.4586055,62.1967689 21.0052667,55.3922229 C25.5519221,48.5876774 30.7186478,42.2920022 36.5054382,36.5052148 C42.2922344,30.7184232 48.5878997,25.5517027 55.3924283,21.0050526 C62.1969627,16.458403 69.3796431,12.6191853 76.9404289,9.48740007 C84.5012089,6.35561542 92.2948651,3.99143736 100.321351,2.39486707 C108.347837,0.798292128 116.452951,4.65496476e-06 124.636682,4.65496476e-06 L124.636577,56.086505 C120.135546,56.0865341 115.67776,56.5256079 111.263212,57.4037437 C106.848659,58.2818679 102.562199,59.5821799 98.4037791,61.3046682 C94.2453594,63.0271681 90.2949352,65.1387532 86.5524599,67.6394177 C82.8099904,70.1400823 79.3474123,72.9817811 76.1647023,76.1645144 C72.9819924,79.3472476 70.1403109,82.8098664 67.6396813,86.5523534 C65.1390459,90.294852 63.0274898,94.2453169 61.305019,98.4037482 C59.5825599,102.56218 58.2822653,106.848681 57.4041528,111.263263 C56.5260693,115.67781 56.0870247,120.135637 56.0870072,124.636697 C56.0870247,129.137757 56.5261042,133.595602 57.40424,138.010184 C58.2823526,142.424773 59.5826646,146.711274 61.3051587,150.869722 C63.0276702,155.028177 65.1392379,158.978642 67.6399082,162.721146 C70.1405786,166.463656 72.9822775,169.926287 76.1650049,173.109014 C79.347744,176.291742 82.8103628,179.133441 86.5528497,181.634111 C90.2953425,184.134741 94.2458016,186.246314 98.4042387,187.968808 C102.562676,189.691296 106.849177,190.991608 111.263742,191.869727 C115.678313,192.747822 120.136116,193.186872 124.637176,193.186872 C129.138242,193.186855 133.596081,192.747787 138.010686,191.869674 C142.425251,190.991539 146.71177,189.691227 150.870224,187.968715 C155.028679,186.246227 158.979138,184.134653 162.721648,181.633983 C166.464135,179.133313 169.926754,176.29162 173.109493,173.108892 C176.292238,169.926165 179.133937,166.463546 181.634607,162.721042 C184.13526,158.978531 186.246828,155.028072 187.969305,150.869635 C189.691775,146.711198 190.992087,142.424697 191.870206,138.010132 C192.748318,133.59555 193.187369,129.13774 193.187351,124.636697 C193.187334,120.135637 192.748266,115.677793 191.870153,111.263211 C190.992018,106.848622 189.691706,102.562104 187.969194,98.4036551 C186.246723,94.2452064 184.13515,90.2947356 181.634479,86.552237 C179.133815,82.8097384 176.292098,79.3471254 173.109371,76.1643922 C169.926644,72.9816531 166.464031,70.1399659 162.72152,67.6393072 C158.979016,65.1386426 155.028551,63.027075 150.870114,61.3045925 C146.711683,59.5821101 142.425182,58.2818039 138.010628,57.4036855 C133.596046,56.525573 129.138242,56.0865167 124.637176,56.0865167 L124.637764,0 Z" id="Fill-8" fill="url(#radialGradient-1)"></path>
                    <circle id="Oval" fill="#FFFFFF" cx="124.90822" cy="124.90822" r="87.3982442"></circle>
                    <path d="M77.8377005,151.589233 L75.5138824,151.589233 L75.5138824,148.446797 C73.5597627,148.235541 71.711271,147.707401 70.2324777,146.888783 L70.2324777,143.931196 C72.2658185,145.225141 74.6424506,145.753281 76.7550125,145.753281 C79.1316447,145.753281 80.7424731,145.198734 80.7424731,143.45587 C80.7424731,139.177932 70.3116987,141.448936 70.3116987,134.899994 C70.3116987,131.889594 72.6091098,130.278765 75.5138824,129.935474 L75.5138824,126.766631 L77.8377005,126.766631 L77.8377005,129.909067 C79.6069711,130.041102 81.3762417,130.516428 82.6173718,131.255825 L82.6173718,134.134191 C81.1121714,133.130724 79.0524236,132.576176 77.0718968,132.602583 C74.8272998,132.602583 73.3749135,133.262759 73.3749135,134.84718 C73.3749135,138.834641 83.8056879,136.695672 83.8056879,143.297428 C83.8056879,146.862376 81.1385785,148.288355 77.8377005,148.473204 L77.8377005,151.589233 Z M85.9710638,139.177932 C85.9710638,133.922934 88.453324,129.856253 94.025206,129.856253 C99.597088,129.856253 102.079348,133.922934 102.079348,139.177932 C102.079348,144.43293 99.597088,148.499611 94.025206,148.499611 C88.453324,148.499611 85.9710638,144.43293 85.9710638,139.177932 Z M99.0425405,139.177932 C99.0425405,135.005622 97.4581191,132.602583 94.025206,132.602583 C90.5658859,132.602583 89.0078715,135.005622 89.0078715,139.177932 C89.0078715,143.350242 90.5658859,145.753281 94.025206,145.753281 C97.4581191,145.753281 99.0425405,143.350242 99.0425405,139.177932 Z M108.179371,146.703934 C108.179371,147.89225 107.360753,148.446797 106.4101,148.446797 C105.459447,148.446797 104.614423,147.89225 104.614423,146.703934 C104.614423,145.568432 105.459447,145.013884 106.4101,145.013884 C107.360753,145.013884 108.179371,145.568432 108.179371,146.703934 Z M110.714445,139.177932 C110.714445,133.922934 113.196705,129.856253 118.768587,129.856253 C124.340469,129.856253 126.822729,133.922934 126.822729,139.177932 C126.822729,144.43293 124.340469,148.499611 118.768587,148.499611 C113.196705,148.499611 110.714445,144.43293 110.714445,139.177932 Z M123.785922,139.177932 C123.785922,135.005622 122.2015,132.602583 118.768587,132.602583 C115.309267,132.602583 113.751253,135.005622 113.751253,139.177932 C113.751253,143.350242 115.309267,145.753281 118.768587,145.753281 C122.2015,145.753281 123.785922,143.350242 123.785922,139.177932 Z M130.519713,130.199544 L141.584256,130.199544 L141.584256,132.89306 L133.29245,132.89306 L133.02838,137.223812 C133.899812,137.012556 134.824058,136.906928 135.748304,136.906928 C139.207624,136.906928 142.429281,138.412128 142.429281,142.637252 C142.429281,146.519085 139.128403,148.499611 135.167349,148.499611 C133.081194,148.499611 130.995039,148.050692 129.410618,147.284888 L129.410618,144.459337 C130.915818,145.330769 132.949159,145.779688 134.824058,145.779688 C137.491167,145.779688 139.392473,144.723407 139.392473,142.610845 C139.392473,140.234213 137.359132,139.389188 134.507173,139.389188 C133.054787,139.389188 131.391145,139.679666 129.938758,140.181399 L130.519713,130.199544 Z M144.779506,139.177932 C144.779506,133.922934 147.261766,129.856253 152.833648,129.856253 C158.40553,129.856253 160.88779,133.922934 160.88779,139.177932 C160.88779,144.43293 158.40553,148.499611 152.833648,148.499611 C147.261766,148.499611 144.779506,144.43293 144.779506,139.177932 Z M157.850982,139.177932 C157.850982,135.005622 156.266561,132.602583 152.833648,132.602583 C149.374328,132.602583 147.816313,135.005622 147.816313,139.177932 C147.816313,143.350242 149.374328,145.753281 152.833648,145.753281 C156.266561,145.753281 157.850982,143.350242 157.850982,139.177932 Z M163.422864,139.177932 C163.422864,133.922934 165.905125,129.856253 171.477007,129.856253 C177.048889,129.856253 179.531149,133.922934 179.531149,139.177932 C179.531149,144.43293 177.048889,148.499611 171.477007,148.499611 C165.905125,148.499611 163.422864,144.43293 163.422864,139.177932 Z M176.494341,139.177932 C176.494341,135.005622 174.90992,132.602583 171.477007,132.602583 C168.017686,132.602583 166.459672,135.005622 166.459672,139.177932 C166.459672,143.350242 168.017686,145.753281 171.477007,145.753281 C174.90992,145.753281 176.494341,143.350242 176.494341,139.177932 Z M90.2886122,162.199544 L92.5068022,162.199544 L92.5068022,177.436397 L95.702052,177.436397 L95.702052,180.15632 L85.9314533,180.15632 L85.9314533,177.436397 L89.5228085,177.436397 L89.5228085,165.289166 L85.9314533,166.635924 L85.9314533,163.863187 L90.2886122,162.199544 Z M121.528121,161.671404 L124.248045,161.671404 L124.248045,180.15632 L121.237644,180.15632 L121.237644,167.216879 L115.401692,175.98401 L113.606014,175.98401 L107.770062,167.190472 L107.770062,180.15632 L104.759661,180.15632 L104.759661,161.671404 L107.479585,161.671404 L114.503853,172.26062 L121.528121,161.671404 Z M131.747639,180.15632 L128.737239,180.15632 L128.737239,161.671404 L131.56279,161.671404 L141.518238,175.1918 C141.491831,174.558031 141.491831,173.845041 141.491831,173.158459 L141.491831,161.671404 L144.502232,161.671404 L144.502232,180.15632 L141.67668,180.15632 L131.721232,166.635924 C131.747639,167.269693 131.747639,167.982682 131.747639,168.642858 L131.747639,180.15632 Z M152.001827,180.15632 L148.991426,180.15632 L148.991426,161.671404 L156.385393,161.671404 C159.844713,161.671404 163.488882,163.044569 163.488882,167.454542 C163.488882,170.75542 161.429134,172.339841 158.999688,172.920796 L164.914861,180.15632 L161.297099,180.15632 L155.751624,173.23768 L152.001827,173.23768 L152.001827,180.15632 Z M152.001827,164.417734 L152.001827,170.570571 L156.517428,170.570571 C158.497954,170.570571 160.425667,169.857581 160.425667,167.507356 C160.425667,165.130724 158.497954,164.417734 156.517428,164.417734 L152.001827,164.417734 Z" id="$0.0500-1-MNR" fill="#131F3C"></path>
                </g>
            </g>
            <path d="M105.969607,125.478317 C105.969607,120.045357 108.574067,115.53656 114.791166,115.53656 C121.008265,115.53656 123.612725,120.045357 123.612725,125.478317 C123.612725,130.911277 121.008265,135.420074 114.791166,135.420074 C108.574067,135.420074 105.969607,130.911277 105.969607,125.478317 Z M118.431809,125.478317 C118.431809,121.809669 117.283606,120.017352 114.791166,120.017352 C112.298725,120.017352 111.150522,121.809669 111.150522,125.478317 C111.150522,129.146966 112.298725,130.939282 114.791166,130.939282 C117.283606,130.939282 118.431809,129.146966 118.431809,125.478317 Z M133.666502,136.680297 L130.585957,136.680297 L142.039982,113.716238 L145.120526,113.716238 L133.666502,136.680297 Z M136.130937,120.017352 C136.130937,123.377946 133.666502,125.058243 130.809997,125.058243 C127.925487,125.058243 125.461052,123.377946 125.461052,120.017352 C125.461052,116.656758 127.925487,114.976461 130.809997,114.976461 C133.666502,114.976461 136.130937,116.656758 136.130937,120.017352 Z M129.157705,120.017352 C129.157705,120.857501 129.605784,121.697649 130.809997,121.697649 C131.986205,121.697649 132.434284,120.857501 132.434284,120.017352 C132.434284,119.177204 131.986205,118.337055 130.809997,118.337055 C129.605784,118.337055 129.157705,119.177204 129.157705,120.017352 Z M150.133412,130.379183 C150.133412,133.739777 147.668976,135.420074 144.812472,135.420074 C141.927962,135.420074 139.463526,133.739777 139.463526,130.379183 C139.463526,127.018589 141.927962,125.338292 144.812472,125.338292 C147.668976,125.338292 150.133412,127.018589 150.133412,130.379183 Z M143.16018,130.379183 C143.16018,131.219332 143.608259,132.05948 144.812472,132.05948 C145.988679,132.05948 146.436759,131.219332 146.436759,130.379183 C146.436759,129.539035 145.988679,128.698886 144.812472,128.698886 C143.608259,128.698886 143.16018,129.539035 143.16018,130.379183 Z" id="0%" fill="#131F3C" fill-rule="nonzero"></path>
            <g id="diskon" transform="translate(0.000000, 141.000000)" fill="#000000">
                <path d="M86.2505,6.9 L89.4245,6.9 L89.4245,23 L86.6185,23 L86.6185,21.39 C85.9055,22.379 84.6405,23.322 82.6165,23.322 C79.0975,23.322 77.2115,20.493 77.2115,17.48 C77.2115,14.467 79.0975,11.638 82.6165,11.638 C84.3645,11.638 85.5375,12.351 86.2505,13.133 L86.2505,6.9 Z M86.2505,16.169 C85.8135,15.203 84.7785,14.329 83.3755,14.329 C81.5585,14.329 80.4775,15.755 80.4775,17.48 C80.4775,19.205 81.5585,20.631 83.3755,20.631 C84.7785,20.631 85.8135,19.757 86.2505,18.791 L86.2505,16.169 Z M95.3585,23 L92.1615,23 L92.1615,11.96 L95.3585,11.96 L95.3585,23 Z M95.6345,8.303 C95.6345,9.568 94.7605,10.12 93.7485,10.12 C92.7595,10.12 91.8855,9.568 91.8855,8.303 C91.8855,7.061 92.7595,6.509 93.7485,6.509 C94.7605,6.509 95.6345,7.061 95.6345,8.303 Z M102.7415,15.042 C102.7415,12.489 105.0185,11.638 107.3415,11.638 C108.9055,11.638 110.2855,12.029 111.4125,12.581 L111.4125,15.203 C110.4695,14.559 108.8595,14.076 107.5485,14.076 C106.8355,14.076 106.0075,14.283 106.0075,14.95 C106.0075,16.79 112.2405,15.87 112.2405,19.918 C112.2405,22.517 109.8715,23.322 107.2265,23.322 C105.5475,23.322 103.9605,22.954 102.8335,22.287 L102.8335,19.642 C104.0295,20.424 105.7085,20.815 107.0425,20.815 C108.2155,20.815 108.9745,20.608 108.9745,19.987 C108.9745,18.216 102.7415,18.998 102.7415,15.042 Z M113.5745,17.641 C113.5745,13.409 116.7485,11.615 119.8075,11.615 C121.0265,11.615 122.2225,11.891 123.2115,12.42 L123.2115,15.226 C122.4295,14.72 121.3255,14.398 120.2675,14.398 C118.5195,14.398 116.8405,15.249 116.8405,17.48 C116.8405,19.596 118.4965,20.562 120.2215,20.562 C121.3945,20.562 122.5215,20.24 123.3265,19.757 L123.3265,22.586 C122.2455,23.046 121.0035,23.322 119.6005,23.322 C116.5875,23.322 113.5745,21.574 113.5745,17.641 Z M124.8445,17.48 C124.8445,13.616 127.7425,11.638 130.9395,11.638 C134.1595,11.638 137.0345,13.616 137.0345,17.48 C137.0345,21.344 134.1595,23.322 130.9395,23.322 C127.7425,23.322 124.8445,21.344 124.8445,17.48 Z M133.7915,17.48 C133.7915,15.778 132.7795,14.49 130.9395,14.49 C129.1225,14.49 128.1105,15.778 128.1105,17.48 C128.1105,19.182 129.1225,20.47 130.9395,20.47 C132.7795,20.47 133.7915,19.182 133.7915,17.48 Z M141.9565,13.363 C142.8075,12.374 144.0495,11.638 145.6365,11.638 C148.5345,11.638 150.1215,13.616 150.1215,16.169 L150.1215,23 L146.9245,23 L146.9245,16.583 C146.9245,15.088 146.0275,14.398 144.7855,14.398 C143.6585,14.398 142.7845,15.134 142.3245,15.801 L142.3245,23 L139.1275,23 L139.1275,11.96 L141.9565,11.96 L141.9565,13.363 Z M153.4335,8.74 L156.6075,7.981 L156.6075,11.96 L160.1035,11.96 L160.1035,14.651 L156.6075,14.651 L156.6075,18.975 C156.6075,20.125 157.1825,20.631 158.3785,20.631 C159.1145,20.631 159.7355,20.516 160.3795,20.263 L160.3795,22.839 C159.5285,23.138 158.5165,23.322 157.4125,23.322 C155.2735,23.322 153.4335,22.333 153.4335,19.596 L153.4335,14.651 L151.5705,14.651 L151.5705,11.96 L153.4335,11.96 L153.4335,8.74 Z M161.5985,17.48 C161.5985,13.616 164.4965,11.638 167.6935,11.638 C170.9135,11.638 173.7885,13.616 173.7885,17.48 C173.7885,21.344 170.9135,23.322 167.6935,23.322 C164.4965,23.322 161.5985,21.344 161.5985,17.48 Z M170.5455,17.48 C170.5455,15.778 169.5335,14.49 167.6935,14.49 C165.8765,14.49 164.8645,15.778 164.8645,17.48 C164.8645,19.182 165.8765,20.47 167.6935,20.47 C169.5335,20.47 170.5455,19.182 170.5455,17.48 Z" id="di-sconto"></path>
            </g>
            <g id="11-—-30-September" transform="translate(2.000000, 0.000000)" fill="#000000">
                <path d="M33.5625,8 L36.2875,8 L36.2875,21.775 L39.1375,21.775 L39.1375,25 L29.4375,25 L29.4375,21.775 L32.6375,21.775 L32.6375,11.75 L29.4375,12.95 L29.4375,9.575 L33.5625,8 Z M45.0875,8 L47.8125,8 L47.8125,21.775 L50.6625,21.775 L50.6625,25 L40.9625,25 L40.9625,21.775 L44.1625,21.775 L44.1625,11.75 L40.9625,12.95 L40.9625,9.575 L45.0875,8 Z M52.2875,17.45 L61.5875,17.45 L61.5875,20.375 L52.2875,20.375 L52.2875,17.45 Z M76.1375,12.35 C76.1375,14.1 75.1625,15.45 73.5625,16 C75.2875,16.525 76.8375,17.85 76.8375,20.35 C76.8375,23.925 73.5375,25.35 70.0375,25.35 C67.8375,25.35 66.0625,25 64.1375,24.2 L64.1375,20.725 C66.0625,21.8 67.7875,22.075 69.7375,22.05 C71.6625,22.05 73.2625,21.425 73.2625,19.825 C73.2625,18.375 72.0125,17.85 70.3125,17.85 L67.5125,17.85 L67.5375,14.65 L69.8875,14.675 C71.5625,14.675 72.5875,14.05 72.5875,12.875 C72.5875,11.65 71.5125,10.925 69.4625,10.925 C67.9375,10.925 66.1125,11.425 64.4375,12.45 L64.4375,8.975 C65.9625,8.15 67.8875,7.65 69.9875,7.65 C73.5125,7.65 76.1375,9.25 76.1375,12.35 Z M78.9375,16.5 C78.9375,11.6 81.2625,7.65 86.6875,7.65 C92.1125,7.65 94.4375,11.6 94.4375,16.5 C94.4375,21.4 92.1125,25.35 86.6875,25.35 C81.2625,25.35 78.9375,21.4 78.9375,16.5 Z M90.6875,16.5 C90.6875,12.875 89.4375,10.95 86.6875,10.95 C83.9375,10.95 82.6875,12.875 82.6875,16.5 C82.6875,20.125 83.9375,22.05 86.6875,22.05 C89.4375,22.05 90.6875,20.125 90.6875,16.5 Z M102.0125,16.35 C102.0125,13.575 104.4875,12.65 107.0125,12.65 C108.7125,12.65 110.2125,13.075 111.4375,13.675 L111.4375,16.525 C110.4125,15.825 108.6625,15.3 107.2375,15.3 C106.4625,15.3 105.5625,15.525 105.5625,16.25 C105.5625,18.25 112.3375,17.25 112.3375,21.65 C112.3375,24.475 109.7625,25.35 106.8875,25.35 C105.0625,25.35 103.3375,24.95 102.1125,24.225 L102.1125,21.35 C103.4125,22.2 105.2375,22.625 106.6875,22.625 C107.9625,22.625 108.7875,22.4 108.7875,21.725 C108.7875,19.8 102.0125,20.65 102.0125,16.35 Z M113.7875,19 C113.7875,14.475 117.2625,12.65 119.9625,12.65 C124.9375,12.65 126.5375,16.575 125.7375,20.125 L117.2875,20.125 C117.6875,21.875 119.5375,22.6 121.5125,22.6 C122.8875,22.6 124.1125,22.325 125.1375,21.875 L125.1375,24.6 C124.0125,25.075 122.5375,25.35 120.7375,25.35 C116.9375,25.35 113.7875,23.175 113.7875,19 Z M122.6125,17.875 C122.7375,17.05 122.2625,15.3 120.0875,15.3 C118.6125,15.3 117.3125,16.225 117.2625,17.875 L122.6125,17.875 Z M129.0375,9.5 L132.4875,8.675 L132.4875,13 L136.2875,13 L136.2875,15.925 L132.4875,15.925 L132.4875,20.625 C132.4875,21.875 133.1125,22.425 134.4125,22.425 C135.2125,22.425 135.8875,22.3 136.5875,22.025 L136.5875,24.825 C135.6625,25.15 134.5625,25.35 133.3625,25.35 C131.0375,25.35 129.0375,24.275 129.0375,21.3 L129.0375,15.925 L127.0125,15.925 L127.0125,13 L129.0375,13 L129.0375,9.5 Z M139.4875,9.5 L142.9375,8.675 L142.9375,13 L146.7375,13 L146.7375,15.925 L142.9375,15.925 L142.9375,20.625 C142.9375,21.875 143.5625,22.425 144.8625,22.425 C145.6625,22.425 146.3375,22.3 147.0375,22.025 L147.0375,24.825 C146.1125,25.15 145.0125,25.35 143.8125,25.35 C141.4875,25.35 139.4875,24.275 139.4875,21.3 L139.4875,15.925 L137.4625,15.925 L137.4625,13 L139.4875,13 L139.4875,9.5 Z M148.3625,19 C148.3625,14.475 151.8375,12.65 154.5375,12.65 C159.5125,12.65 161.1125,16.575 160.3125,20.125 L151.8625,20.125 C152.2625,21.875 154.1125,22.6 156.0875,22.6 C157.4625,22.6 158.6875,22.325 159.7125,21.875 L159.7125,24.6 C158.5875,25.075 157.1125,25.35 155.3125,25.35 C151.5125,25.35 148.3625,23.175 148.3625,19 Z M157.1875,17.875 C157.3125,17.05 156.8375,15.3 154.6625,15.3 C153.1875,15.3 151.8875,16.225 151.8375,17.875 L157.1875,17.875 Z M166.1875,25 L162.7125,25 L162.7125,13 L165.7875,13 L165.7875,14.4 C166.4125,13.65 167.7875,12.65 169.6125,12.65 C171.4125,12.65 172.5875,13.4 173.2875,14.425 C174.2875,13.45 175.6375,12.65 177.2875,12.65 C180.6625,12.65 181.7625,15.275 181.7625,17.4 L181.7625,25 L178.3125,25 L178.3125,17.625 C178.3125,16.375 177.5375,15.65 176.4375,15.65 C175.4875,15.65 174.6375,16.2 174.0625,16.85 C174.0875,17.025 174.0875,17.2 174.0875,17.4 L174.0875,25 L170.6375,25 L170.6375,17.625 C170.6375,16.375 169.8625,15.65 168.7625,15.65 C167.7125,15.65 166.7625,16.35 166.1875,17.1 L166.1875,25 Z M184.5875,7.5 L188.0625,7.5 L188.0625,14.275 C188.8125,13.425 190.1125,12.65 192.0125,12.65 C195.8125,12.65 197.8625,15.725 197.8625,19 C197.8625,22.275 195.8125,25.35 192.0125,25.35 C189.7875,25.35 188.4125,24.325 187.6625,23.25 L187.6625,25 L184.5875,25 L184.5875,7.5 Z M194.3125,19 C194.3125,17.125 193.1375,15.575 191.1625,15.575 C189.6375,15.575 188.5125,16.525 188.0375,17.575 L188.0375,20.425 C188.5125,21.475 189.6375,22.425 191.1625,22.425 C193.1375,22.425 194.3125,20.875 194.3125,19 Z M203.2125,14.8 C204.0625,13.475 205.8125,12.525 208.0625,12.75 L208.0625,16.125 C206.1625,15.8 204.3375,16.525 203.6125,17.95 L203.6125,25 L200.1375,25 L200.1375,13 L203.2125,13 L203.2125,14.8 Z M208.9625,19 C208.9625,14.475 212.4375,12.65 215.1375,12.65 C220.1125,12.65 221.7125,16.575 220.9125,20.125 L212.4625,20.125 C212.8625,21.875 214.7125,22.6 216.6875,22.6 C218.0625,22.6 219.2875,22.325 220.3125,21.875 L220.3125,24.6 C219.1875,25.075 217.7125,25.35 215.9125,25.35 C212.1125,25.35 208.9625,23.175 208.9625,19 Z M217.7875,17.875 C217.9125,17.05 217.4375,15.3 215.2625,15.3 C213.7875,15.3 212.4875,16.225 212.4375,17.875 L217.7875,17.875 Z" id="11-30-settembre"></path>
            </g>
        </g>
    </g>
</svg>