<?xml version="1.0" encoding="UTF-8"?>
<svg width="250px" height="322px" viewBox="0 0 250 322" version="1.1" xmlns="http://www.w3.org/2000/svg" xmlns:xlink="http://www.w3.org/1999/xlink">
    <!-- Generator: Sketch 48.2 (47327) - http://www.bohemiancoding.com/sketch -->
    <title>text_4</title>
    <desc>Created with Sketch.</desc>
    <defs>
        <radialGradient cx="400%" cy="400%" fx="400%" fy="400%" r="100.47898%" gradientTransform="translate(4.000000,4.000000),scale(1.000000,0.999999),translate(-4.000000,-4.000000)" id="radialGradient-1">
            <stop stop-color="#8D00FF" offset="0%"></stop>
            <stop stop-color="#5C00FE" offset="69.8959662%"></stop>
            <stop stop-color="#8900FF" offset="100%"></stop>
        </radialGradient>
        <radialGradient cx="50%" cy="50%" fx="50%" fy="50%" r="50.0253367%" id="radialGradient-2">
            <stop stop-color="#FF9495" offset="0%"></stop>
            <stop stop-color="#FE5F60" offset="70.3742825%"></stop>
            <stop stop-color="#FF9091" offset="100%"></stop>
        </radialGradient>
    </defs>
    <g id="Page-1" stroke="none" stroke-width="1" fill="none" fill-rule="evenodd">
        <g id="text_4" transform="translate(0.000000, -7.000000)">
            <g id="4-copy" transform="translate(0.000000, 78.000000)" fill-rule="nonzero">
                <g id="Group-Copy-3" transform="translate(0.545890, 0.588188)">
                    <g id="Group-3" transform="translate(0.000000, 0.762969)">
                        <g id="Group-8">
                            <path d="M0,125.013369 C2.91814549e-05,116.804853 0.800756631,108.675226 2.40218235,100.624437 C4.00360807,92.5736583 6.37495729,84.7564426 9.51623002,77.1727836 C12.6575028,69.5891246 16.5083459,62.384737 21.0687478,55.5596266 C25.6291439,48.7345168 30.8114843,42.4198151 36.6157632,36.6155391 C42.420048,30.811259 48.7347397,25.6289238 55.5598326,21.068533 C62.3849314,16.5081428 69.589319,12.6573224 77.1729546,9.51607244 C84.7565844,6.37482306 92.5737943,4.0035001 100.624537,2.40210473 C108.675281,0.800704688 116.804785,0 125.013248,0 L125.013248,56.256007 C120.498614,56.2560362 116.027356,56.6964369 111.599467,57.5772266 C107.171572,58.4580046 102.872157,59.7622464 98.7011703,61.4899402 C94.5301832,63.2176458 90.5678202,65.3356124 86.8140346,67.8438344 C83.0602548,70.3520563 79.5872123,73.2023432 76.3948837,76.3946952 C73.2025551,79.5870471 70.3522856,83.0601305 67.8440987,86.8139278 C65.335906,90.5677368 63.2179685,94.5301406 61.4902922,98.7011394 C59.7626275,102.872138 58.4584032,107.171594 57.5776369,111.599518 C56.6968997,116.027406 56.2565282,120.498706 56.2565107,125.013369 L0,125.013369 Z" id="Fill-8" fill="url(#radialGradient-1)"></path>
                            <path d="M124.740231,0 C132.917139,3.54646161e-05 140.809466,0.797690493 148.829249,2.3929616 C156.849031,3.98823619 164.636136,6.35047671 172.190582,9.47968199 C179.745051,12.6088826 186.921705,16.4449279 193.720557,20.9878092 C200.519385,25.5306945 206.80975,30.693127 212.591686,36.4751065 C218.373622,42.2570854 223.535985,48.5475211 228.078816,55.3464036 C232.621648,62.1452961 236.457622,69.3219914 239.586764,76.8764895 C242.715941,84.431005 245.078181,92.2181743 246.673414,100.237997 C248.268642,108.257814 249.066241,116.3562 249.066241,124.533125 C249.066206,132.710109 248.268572,140.808524 246.673269,148.828376 C245.078041,156.848228 242.715802,164.635409 239.586549,172.189947 C236.457372,179.74448 232.621334,186.921193 228.078462,193.720074 C223.535595,200.518961 218.373157,206.809395 212.591151,212.591383 C206.80918,218.373372 200.518781,223.535793 193.719865,228.078677 C186.920978,232.621543 179.744289,236.45757 172.189785,239.586729 C164.635281,242.715924 156.848106,245.078129 148.828289,246.673379 C140.808455,248.268624 132.710069,249.066241 124.533126,249.066241 C116.356143,249.066206 108.257746,248.268555 100.237911,246.673269 C92.2180591,245.078007 84.4308608,242.715767 76.8763221,239.586549 C69.3217834,236.457355 62.1450765,232.621316 55.3461899,228.078444 C48.5472975,223.53556 42.256863,218.373139 36.4748864,212.591151 C30.6929041,206.809186 25.5304769,200.518746 20.9876108,193.719865 C16.4447331,186.920978 12.6087116,179.744289 9.4795232,172.189767 C6.3503348,164.635263 3.98812395,156.848106 2.39288484,148.828289 C0.797622465,140.808454 5.00693342e-16,132.710068 0,124.533125 C0,124.533122 18.6801356,124.533128 56.0404068,124.533143 C56.0404243,129.030463 56.479139,133.484604 57.3565452,137.895518 C58.2339282,142.306439 59.5331599,146.589378 61.2542228,150.744372 C62.9753032,154.899372 65.0851164,158.846554 67.5837091,162.585949 C70.0823017,166.32535 72.9216395,169.785103 76.1017226,172.965187 C79.2818172,176.14527 82.7415591,178.984607 86.4809366,181.4832 C90.2203198,183.981752 94.1674967,186.091571 98.3224788,187.812634 C102.477461,189.533691 106.7604,190.832923 111.171297,191.710312 C115.5822,192.587677 120.0363,193.026363 124.533621,193.026363 C129.030947,193.026345 133.485081,192.587642 137.896019,191.710259 C142.306916,190.832853 146.589873,189.533621 150.744873,187.812541 C154.899872,186.091484 158.847049,183.981665 162.58645,181.483072 C166.325827,178.98448 169.785569,176.145147 172.965664,172.965064 C176.145764,169.784981 178.985102,166.325239 181.483695,162.585845 C183.98227,158.846444 186.092083,154.899267 187.813129,150.744285 C189.534168,146.589303 190.8334,142.306363 191.710789,137.895466 C192.588172,133.484552 193.026857,129.030446 193.02684,124.533143 C193.026823,120.035823 192.588119,115.581682 191.710736,111.170767 C190.83333,106.759847 189.534099,102.47689 187.813018,98.3218963 C186.091979,94.1669026 183.982159,90.2197141 181.483567,86.480325 C178.98498,82.7409359 176.145625,79.2811998 172.965542,76.1011109 C169.785459,72.9210162 166.325723,70.08169 162.586322,67.583109 C158.846927,65.0845221 154.899744,62.9747088 150.744762,61.2536575 C146.589786,59.5326062 142.306846,58.2333804 137.895961,57.3559916 C133.485047,56.4786086 129.030947,56.0399171 124.533621,56.0399171 L124.740231,0 Z" id="Fill-8" fill="url(#radialGradient-2)"></path>
                        </g>
                    </g>
                    <circle id="Oval" fill="#FFFFFF" cx="124.90822" cy="125.671189" r="87.3982442"></circle>
                    <path d="M80.636845,151.728204 L78.3130269,151.728204 L78.3130269,148.585769 C76.3589072,148.374512 74.5104155,147.846372 73.0316222,147.027754 L73.0316222,144.070168 C75.064963,145.364112 77.4415951,145.892252 79.554157,145.892252 C81.9307892,145.892252 83.5416176,145.337705 83.5416176,143.594841 C83.5416176,139.316903 73.1108433,141.587907 73.1108433,135.038965 C73.1108433,132.028565 75.4082543,130.417736 78.3130269,130.074445 L78.3130269,126.905602 L80.636845,126.905602 L80.636845,130.048038 C82.4061156,130.180073 84.1753862,130.655399 85.4165163,131.394796 L85.4165163,134.273162 C83.911316,133.269695 81.8515681,132.715147 79.8710413,132.741554 C77.6264443,132.741554 76.174058,133.40173 76.174058,134.986151 C76.174058,138.973612 86.6048324,136.834643 86.6048324,143.436399 C86.6048324,147.001347 83.937723,148.427326 80.636845,148.612176 L80.636845,151.728204 Z M88.7702083,139.316903 C88.7702083,134.061906 91.2524685,129.995224 96.8243505,129.995224 C102.396233,129.995224 104.878493,134.061906 104.878493,139.316903 C104.878493,144.571901 102.396233,148.638583 96.8243505,148.638583 C91.2524685,148.638583 88.7702083,144.571901 88.7702083,139.316903 Z M101.841685,139.316903 C101.841685,135.144593 100.257264,132.741554 96.8243505,132.741554 C93.3650304,132.741554 91.807016,135.144593 91.807016,139.316903 C91.807016,143.489213 93.3650304,145.892252 96.8243505,145.892252 C100.257264,145.892252 101.841685,143.489213 101.841685,139.316903 Z M110.978515,146.842905 C110.978515,148.031221 110.159898,148.585769 109.209245,148.585769 C108.258592,148.585769 107.413567,148.031221 107.413567,146.842905 C107.413567,145.707403 108.258592,145.152855 109.209245,145.152855 C110.159898,145.152855 110.978515,145.707403 110.978515,146.842905 Z M113.51359,139.316903 C113.51359,134.061906 115.99585,129.995224 121.567732,129.995224 C127.139614,129.995224 129.621874,134.061906 129.621874,139.316903 C129.621874,144.571901 127.139614,148.638583 121.567732,148.638583 C115.99585,148.638583 113.51359,144.571901 113.51359,139.316903 Z M126.585066,139.316903 C126.585066,135.144593 125.000645,132.741554 121.567732,132.741554 C118.108412,132.741554 116.550397,135.144593 116.550397,139.316903 C116.550397,143.489213 118.108412,145.892252 121.567732,145.892252 C125.000645,145.892252 126.585066,143.489213 126.585066,139.316903 Z M141.082522,130.338515 L144.172144,130.338515 L144.172144,142.01042 L147.261766,142.01042 L147.261766,144.624715 L144.172144,144.624715 L144.172144,148.295291 L141.267371,148.295291 L141.267371,144.624715 L131.52318,144.624715 L131.52318,142.063234 L141.082522,130.338515 Z M141.267371,142.01042 L141.267371,134.167534 L134.876872,142.01042 L141.267371,142.01042 Z M148.714152,130.338515 L162.049699,130.338515 L162.049699,132.715147 L154.602918,148.295291 L151.354855,148.295291 L158.643193,133.032032 L148.714152,133.032032 L148.714152,130.338515 Z M165.007286,130.338515 L176.071829,130.338515 L176.071829,133.032032 L167.780023,133.032032 L167.515953,137.362783 C168.387385,137.151527 169.311631,137.045899 170.235876,137.045899 C173.695197,137.045899 176.916853,138.5511 176.916853,142.776223 C176.916853,146.658056 173.615976,148.638583 169.654922,148.638583 C167.568767,148.638583 165.482612,148.189663 163.898191,147.42386 L163.898191,144.598308 C165.403391,145.46974 167.436732,145.918659 169.311631,145.918659 C171.97874,145.918659 173.880046,144.862378 173.880046,142.749816 C173.880046,140.373184 171.846705,139.528159 168.994746,139.528159 C167.54236,139.528159 165.878718,139.818637 164.426331,140.32037 L165.007286,130.338515 Z M90.2886122,162.338515 L92.5068022,162.338515 L92.5068022,177.575368 L95.702052,177.575368 L95.702052,180.295291 L85.9314533,180.295291 L85.9314533,177.575368 L89.5228085,177.575368 L89.5228085,165.428137 L85.9314533,166.774895 L85.9314533,164.002158 L90.2886122,162.338515 Z M121.528121,161.810375 L124.248045,161.810375 L124.248045,180.295291 L121.237644,180.295291 L121.237644,167.35585 L115.401692,176.122982 L113.606014,176.122982 L107.770062,167.329443 L107.770062,180.295291 L104.759661,180.295291 L104.759661,161.810375 L107.479585,161.810375 L114.503853,172.399591 L121.528121,161.810375 Z M131.747639,180.295291 L128.737239,180.295291 L128.737239,161.810375 L131.56279,161.810375 L141.518238,175.330771 C141.491831,174.697002 141.491831,173.984013 141.491831,173.29743 L141.491831,161.810375 L144.502232,161.810375 L144.502232,180.295291 L141.67668,180.295291 L131.721232,166.774895 C131.747639,167.408664 131.747639,168.121653 131.747639,168.781829 L131.747639,180.295291 Z M152.001827,180.295291 L148.991426,180.295291 L148.991426,161.810375 L156.385393,161.810375 C159.844713,161.810375 163.488882,163.18354 163.488882,167.593513 C163.488882,170.894391 161.429134,172.478812 158.999688,173.059767 L164.914861,180.295291 L161.297099,180.295291 L155.751624,173.376651 L152.001827,173.376651 L152.001827,180.295291 Z M152.001827,164.556705 L152.001827,170.709542 L156.517428,170.709542 C158.497954,170.709542 160.425667,169.996552 160.425667,167.646327 C160.425667,165.269695 158.497954,164.556705 156.517428,164.556705 L152.001827,164.556705 Z" id="$0.0475-1-MNR" fill="#131F3C"></path>
                </g>
            </g>
            <path d="M106.882121,145.928629 L119.344324,145.928629 L119.344324,150.269397 L111.530943,150.241392 L111.334908,153.041887 C112.035032,152.929867 112.735156,152.873857 113.37927,152.873857 C117.271958,152.873857 120.184472,154.638169 120.184472,158.922926 C120.184472,163.627757 116.011735,165.420074 111.754983,165.420074 C109.542592,165.420074 107.330201,164.94399 105.621899,164.131847 L105.621899,159.371005 C107.106161,160.407188 109.346557,160.939282 111.194884,160.939282 C113.351265,160.939282 115.003557,160.295168 115.003557,158.810906 C115.003557,157.606693 114.023384,156.68253 110.914834,156.654525 C109.710621,156.654525 107.974314,156.822555 106.210003,157.438664 L106.882121,145.928629 Z M130.126229,166.680297 L127.045685,166.680297 L138.499709,143.716238 L141.580254,143.716238 L130.126229,166.680297 Z M132.590665,150.017352 C132.590665,153.377946 130.126229,155.058243 127.269725,155.058243 C124.385215,155.058243 121.920779,153.377946 121.920779,150.017352 C121.920779,146.656758 124.385215,144.976461 127.269725,144.976461 C130.126229,144.976461 132.590665,146.656758 132.590665,150.017352 Z M125.617433,150.017352 C125.617433,150.857501 126.065512,151.697649 127.269725,151.697649 C128.445933,151.697649 128.894012,150.857501 128.894012,150.017352 C128.894012,149.177204 128.445933,148.337055 127.269725,148.337055 C126.065512,148.337055 125.617433,149.177204 125.617433,150.017352 Z M146.59314,160.379183 C146.59314,163.739777 144.128704,165.420074 141.272199,165.420074 C138.38769,165.420074 135.923254,163.739777 135.923254,160.379183 C135.923254,157.018589 138.38769,155.338292 141.272199,155.338292 C144.128704,155.338292 146.59314,157.018589 146.59314,160.379183 Z M139.619907,160.379183 C139.619907,161.219332 140.067987,162.05948 141.272199,162.05948 C142.448407,162.05948 142.896486,161.219332 142.896486,160.379183 C142.896486,159.539035 142.448407,158.698886 141.272199,158.698886 C140.067987,158.698886 139.619907,159.539035 139.619907,160.379183 Z" id="5%" fill="#131F3C" fill-rule="nonzero"></path>
            <g id="diskon" transform="translate(0.000000, 171.000000)" fill="#000000">
                <path d="M70.202,11.155 C70.202,8.05 72.916,6.578 76.09,6.578 C77.999,6.578 79.931,7.038 81.311,7.82 L81.311,11.04 C79.954,10.074 78.137,9.591 76.343,9.614 C74.595,9.637 73.721,10.12 73.721,11.109 C73.721,13.892 82.53,12.857 82.53,18.584 C82.53,22.195 79.632,23.322 76.251,23.322 C74.02,23.322 71.95,22.793 70.294,21.873 L70.294,18.584 C72.134,19.803 74.158,20.286 75.998,20.286 C77.861,20.286 79.011,19.895 79.011,18.745 C79.011,15.732 70.202,16.859 70.202,11.155 Z M83.864,17.641 C83.864,13.409 87.038,11.615 90.097,11.615 C91.316,11.615 92.512,11.891 93.501,12.42 L93.501,15.226 C92.719,14.72 91.615,14.398 90.557,14.398 C88.809,14.398 87.13,15.249 87.13,17.48 C87.13,19.596 88.786,20.562 90.511,20.562 C91.684,20.562 92.811,20.24 93.616,19.757 L93.616,22.586 C92.535,23.046 91.293,23.322 89.89,23.322 C86.877,23.322 83.864,21.574 83.864,17.641 Z M95.134,17.48 C95.134,13.616 98.032,11.638 101.229,11.638 C104.449,11.638 107.324,13.616 107.324,17.48 C107.324,21.344 104.449,23.322 101.229,23.322 C98.032,23.322 95.134,21.344 95.134,17.48 Z M104.081,17.48 C104.081,15.778 103.069,14.49 101.229,14.49 C99.412,14.49 98.4,15.778 98.4,17.48 C98.4,19.182 99.412,20.47 101.229,20.47 C103.069,20.47 104.081,19.182 104.081,17.48 Z M112.246,13.363 C113.097,12.374 114.339,11.638 115.926,11.638 C118.824,11.638 120.411,13.616 120.411,16.169 L120.411,23 L117.214,23 L117.214,16.583 C117.214,15.088 116.317,14.398 115.075,14.398 C113.948,14.398 113.074,15.134 112.614,15.801 L112.614,23 L109.417,23 L109.417,11.96 L112.246,11.96 L112.246,13.363 Z M123.723,8.74 L126.897,7.981 L126.897,11.96 L130.393,11.96 L130.393,14.651 L126.897,14.651 L126.897,18.975 C126.897,20.125 127.472,20.631 128.668,20.631 C129.404,20.631 130.025,20.516 130.669,20.263 L130.669,22.839 C129.818,23.138 128.806,23.322 127.702,23.322 C125.563,23.322 123.723,22.333 123.723,19.596 L123.723,14.651 L121.86,14.651 L121.86,11.96 L123.723,11.96 L123.723,8.74 Z M131.888,17.48 C131.888,13.616 134.786,11.638 137.983,11.638 C141.203,11.638 144.078,13.616 144.078,17.48 C144.078,21.344 141.203,23.322 137.983,23.322 C134.786,23.322 131.888,21.344 131.888,17.48 Z M140.835,17.48 C140.835,15.778 139.823,14.49 137.983,14.49 C136.166,14.49 135.154,15.778 135.154,17.48 C135.154,19.182 136.166,20.47 137.983,20.47 C139.823,20.47 140.835,19.182 140.835,17.48 Z M159.695,6.9 L162.869,6.9 L162.869,23 L160.063,23 L160.063,21.39 C159.35,22.379 158.085,23.322 156.061,23.322 C152.542,23.322 150.656,20.493 150.656,17.48 C150.656,14.467 152.542,11.638 156.061,11.638 C157.809,11.638 158.982,12.351 159.695,13.133 L159.695,6.9 Z M159.695,16.169 C159.258,15.203 158.223,14.329 156.82,14.329 C155.003,14.329 153.922,15.755 153.922,17.48 C153.922,19.205 155.003,20.631 156.82,20.631 C158.223,20.631 159.258,19.757 159.695,18.791 L159.695,16.169 Z M164.962,17.48 C164.962,13.317 168.159,11.638 170.643,11.638 C175.22,11.638 176.692,15.249 175.956,18.515 L168.182,18.515 C168.55,20.125 170.252,20.792 172.069,20.792 C173.334,20.792 174.461,20.539 175.404,20.125 L175.404,22.632 C174.369,23.069 173.012,23.322 171.356,23.322 C167.86,23.322 164.962,21.321 164.962,17.48 Z M173.081,16.445 C173.196,15.686 172.759,14.076 170.758,14.076 C169.401,14.076 168.205,14.927 168.159,16.445 L173.081,16.445 Z M178.21,6.21 L181.407,6.21 L181.407,23 L178.21,23 L178.21,6.21 Z" id="Sconto-del"></path>
            </g>
            <g id="Aug.-29-—-Sept.-10" transform="translate(2.000000, 0.000000)" fill="#000000">
                <path d="M56.125,9.45 C57.875,8.2 59.9,7.65 61.975,7.65 C65.4,7.65 68.175,9.2 68.175,12.675 C68.175,15.55 65.8,17.25 63.575,18.575 C61.55,19.775 59.825,20.7 59.8,21.8 L68.3,21.775 L68.3,25 L55.55,25 L55.55,23.325 C55.55,19.225 58.65,17.625 61.15,16.15 C62.925,15.125 64.45,14.45 64.45,12.825 C64.45,11.575 63.35,10.925 61.625,10.925 C59.925,10.925 57.925,11.575 56.125,12.95 L56.125,9.45 Z M70.225,13.5 C70.225,9.625 73.25,7.65 76.725,7.65 C82.2,7.65 84.425,11 84.425,16.5 C84.425,22.725 80.675,25.35 76.35,25.35 C74.775,25.35 73.125,24.975 71.675,24.3 L71.675,21 C72.85,21.775 74.4,22.2 75.85,22.2 C78.15,22.2 80.25,21.225 80.7,17.85 C79.2,18.65 77.825,19 76.175,19 C73.1,19 70.225,17.15 70.225,13.5 Z M77.025,10.7 C75.375,10.7 73.975,11.45 73.975,13.325 C73.975,15.275 75.55,15.875 77.3,15.875 C78.425,15.875 79.6,15.525 80.7,14.85 C80.35,11.65 78.975,10.7 77.025,10.7 Z M103.25,21.9 C103.25,22.525 103.65,22.7 104.1,22.7 C104.3,22.7 104.525,22.675 104.75,22.6 L104.75,24.875 C104.2,25.075 103.5,25.225 102.825,25.225 C101.6,25.225 100.675,24.775 100.175,23.875 C99,24.8 97.625,25.35 95.85,25.35 C93.6,25.35 91.65,24.05 91.65,21.675 C91.65,18.625 94.525,17.675 96.925,17.675 C97.875,17.675 98.925,17.8 99.775,18 L99.775,17.575 C99.775,16.375 98.825,15.55 96.95,15.55 C95.3,15.55 93.825,16 92.7,16.45 L92.7,13.45 C93.675,13.125 95.5,12.65 97.35,12.65 C100.95,12.65 103.25,14.125 103.25,18.075 L103.25,21.9 Z M97.725,19.75 C96.45,19.75 95.2,20.175 95.2,21.4 C95.2,22.3 96.025,22.875 97.075,22.875 C98.05,22.875 98.975,22.6 99.775,21.9 L99.775,20.025 C99.25,19.9 98.45,19.75 97.725,19.75 Z M105.725,19 C105.725,15.725 107.775,12.65 111.6,12.65 C113.8,12.65 115.175,13.675 115.95,14.75 L115.95,13 L119,13 L119,24.675 C119,29.25 115.625,30.85 112.1,30.85 C110.225,30.85 108.475,30.425 107.025,29.725 L107.025,26.675 C108.375,27.475 110,27.925 111.65,27.925 C113.775,27.925 115.55,27.2 115.55,24.825 L115.55,23.725 C114.775,24.575 113.5,25.35 111.6,25.35 C107.775,25.35 105.725,22.275 105.725,19 Z M115.55,17.575 C115.075,16.525 113.95,15.575 112.425,15.575 C110.45,15.575 109.275,17.125 109.275,19 C109.275,20.875 110.45,22.425 112.425,22.425 C113.95,22.425 115.075,21.5 115.55,20.5 L115.55,17.575 Z M121.275,19 C121.275,14.8 124.425,12.65 127.9,12.65 C131.4,12.65 134.525,14.8 134.525,19 C134.525,23.2 131.4,25.35 127.9,25.35 C124.425,25.35 121.275,23.2 121.275,19 Z M131,19 C131,17.15 129.9,15.75 127.9,15.75 C125.925,15.75 124.825,17.15 124.825,19 C124.825,20.85 125.925,22.25 127.9,22.25 C129.9,22.25 131,20.85 131,19 Z M136.275,16.35 C136.275,13.575 138.75,12.65 141.275,12.65 C142.975,12.65 144.475,13.075 145.7,13.675 L145.7,16.525 C144.675,15.825 142.925,15.3 141.5,15.3 C140.725,15.3 139.825,15.525 139.825,16.25 C139.825,18.25 146.6,17.25 146.6,21.65 C146.6,24.475 144.025,25.35 141.15,25.35 C139.325,25.35 137.6,24.95 136.375,24.225 L136.375,21.35 C137.675,22.2 139.5,22.625 140.95,22.625 C142.225,22.625 143.05,22.4 143.05,21.725 C143.05,19.8 136.275,20.65 136.275,16.35 Z M149.625,9.5 L153.075,8.675 L153.075,13 L156.875,13 L156.875,15.925 L153.075,15.925 L153.075,20.625 C153.075,21.875 153.7,22.425 155,22.425 C155.8,22.425 156.475,22.3 157.175,22.025 L157.175,24.825 C156.25,25.15 155.15,25.35 153.95,25.35 C151.625,25.35 149.625,24.275 149.625,21.3 L149.625,15.925 L147.6,15.925 L147.6,13 L149.625,13 L149.625,9.5 Z M158.5,19 C158.5,14.8 161.65,12.65 165.125,12.65 C168.625,12.65 171.75,14.8 171.75,19 C171.75,23.2 168.625,25.35 165.125,25.35 C161.65,25.35 158.5,23.2 158.5,19 Z M168.225,19 C168.225,17.15 167.125,15.75 165.125,15.75 C163.15,15.75 162.05,17.15 162.05,19 C162.05,20.85 163.15,22.25 165.125,22.25 C167.125,22.25 168.225,20.85 168.225,19 Z M196.075,20.375 L179.475,20.375 L179.475,17.45 L196.075,17.45 L196.075,20.375 Z M53.65,39 L56.375,39 L56.375,52.775 L59.225,52.775 L59.225,56 L49.525,56 L49.525,52.775 L52.725,52.775 L52.725,42.75 L49.525,43.95 L49.525,40.575 L53.65,39 Z M60.85,47.5 C60.85,42.6 63.175,38.65 68.6,38.65 C74.025,38.65 76.35,42.6 76.35,47.5 C76.35,52.4 74.025,56.35 68.6,56.35 C63.175,56.35 60.85,52.4 60.85,47.5 Z M72.6,47.5 C72.6,43.875 71.35,41.95 68.6,41.95 C65.85,41.95 64.6,43.875 64.6,47.5 C64.6,51.125 65.85,53.05 68.6,53.05 C71.35,53.05 72.6,51.125 72.6,47.5 Z M83.925,47.35 C83.925,44.575 86.4,43.65 88.925,43.65 C90.625,43.65 92.125,44.075 93.35,44.675 L93.35,47.525 C92.325,46.825 90.575,46.3 89.15,46.3 C88.375,46.3 87.475,46.525 87.475,47.25 C87.475,49.25 94.25,48.25 94.25,52.65 C94.25,55.475 91.675,56.35 88.8,56.35 C86.975,56.35 85.25,55.95 84.025,55.225 L84.025,52.35 C85.325,53.2 87.15,53.625 88.6,53.625 C89.875,53.625 90.7,53.4 90.7,52.725 C90.7,50.8 83.925,51.65 83.925,47.35 Z M95.7,50 C95.7,45.475 99.175,43.65 101.875,43.65 C106.85,43.65 108.45,47.575 107.65,51.125 L99.2,51.125 C99.6,52.875 101.45,53.6 103.425,53.6 C104.8,53.6 106.025,53.325 107.05,52.875 L107.05,55.6 C105.925,56.075 104.45,56.35 102.65,56.35 C98.85,56.35 95.7,54.175 95.7,50 Z M104.525,48.875 C104.65,48.05 104.175,46.3 102,46.3 C100.525,46.3 99.225,47.225 99.175,48.875 L104.525,48.875 Z M110.95,40.5 L114.4,39.675 L114.4,44 L118.2,44 L118.2,46.925 L114.4,46.925 L114.4,51.625 C114.4,52.875 115.025,53.425 116.325,53.425 C117.125,53.425 117.8,53.3 118.5,53.025 L118.5,55.825 C117.575,56.15 116.475,56.35 115.275,56.35 C112.95,56.35 110.95,55.275 110.95,52.3 L110.95,46.925 L108.925,46.925 L108.925,44 L110.95,44 L110.95,40.5 Z M121.4,40.5 L124.85,39.675 L124.85,44 L128.65,44 L128.65,46.925 L124.85,46.925 L124.85,51.625 C124.85,52.875 125.475,53.425 126.775,53.425 C127.575,53.425 128.25,53.3 128.95,53.025 L128.95,55.825 C128.025,56.15 126.925,56.35 125.725,56.35 C123.4,56.35 121.4,55.275 121.4,52.3 L121.4,46.925 L119.375,46.925 L119.375,44 L121.4,44 L121.4,40.5 Z M130.275,50 C130.275,45.475 133.75,43.65 136.45,43.65 C141.425,43.65 143.025,47.575 142.225,51.125 L133.775,51.125 C134.175,52.875 136.025,53.6 138,53.6 C139.375,53.6 140.6,53.325 141.625,52.875 L141.625,55.6 C140.5,56.075 139.025,56.35 137.225,56.35 C133.425,56.35 130.275,54.175 130.275,50 Z M139.1,48.875 C139.225,48.05 138.75,46.3 136.575,46.3 C135.1,46.3 133.8,47.225 133.75,48.875 L139.1,48.875 Z M148.1,56 L144.625,56 L144.625,44 L147.7,44 L147.7,45.4 C148.325,44.65 149.7,43.65 151.525,43.65 C153.325,43.65 154.5,44.4 155.2,45.425 C156.2,44.45 157.55,43.65 159.2,43.65 C162.575,43.65 163.675,46.275 163.675,48.4 L163.675,56 L160.225,56 L160.225,48.625 C160.225,47.375 159.45,46.65 158.35,46.65 C157.4,46.65 156.55,47.2 155.975,47.85 C156,48.025 156,48.2 156,48.4 L156,56 L152.55,56 L152.55,48.625 C152.55,47.375 151.775,46.65 150.675,46.65 C149.625,46.65 148.675,47.35 148.1,48.1 L148.1,56 Z M166.5,38.5 L169.975,38.5 L169.975,45.275 C170.725,44.425 172.025,43.65 173.925,43.65 C177.725,43.65 179.775,46.725 179.775,50 C179.775,53.275 177.725,56.35 173.925,56.35 C171.7,56.35 170.325,55.325 169.575,54.25 L169.575,56 L166.5,56 L166.5,38.5 Z M176.225,50 C176.225,48.125 175.05,46.575 173.075,46.575 C171.55,46.575 170.425,47.525 169.95,48.575 L169.95,51.425 C170.425,52.475 171.55,53.425 173.075,53.425 C175.05,53.425 176.225,51.875 176.225,50 Z M185.125,45.8 C185.975,44.475 187.725,43.525 189.975,43.75 L189.975,47.125 C188.075,46.8 186.25,47.525 185.525,48.95 L185.525,56 L182.05,56 L182.05,44 L185.125,44 L185.125,45.8 Z M190.875,50 C190.875,45.475 194.35,43.65 197.05,43.65 C202.025,43.65 203.625,47.575 202.825,51.125 L194.375,51.125 C194.775,52.875 196.625,53.6 198.6,53.6 C199.975,53.6 201.2,53.325 202.225,52.875 L202.225,55.6 C201.1,56.075 199.625,56.35 197.825,56.35 C194.025,56.35 190.875,54.175 190.875,50 Z M199.7,48.875 C199.825,48.05 199.35,46.3 197.175,46.3 C195.7,46.3 194.4,47.225 194.35,48.875 L199.7,48.875 Z" id="29-agosto-—-10-sette"></path>
            </g>
        </g>
    </g>
</svg>