<?xml version="1.0" encoding="UTF-8"?>
<svg width="250px" height="322px" viewBox="0 0 250 322" version="1.1" xmlns="http://www.w3.org/2000/svg" xmlns:xlink="http://www.w3.org/1999/xlink">
    <!-- Generator: Sketch 48.2 (47327) - http://www.bohemiancoding.com/sketch -->
    <title>text_0</title>
    <desc>Created with Sketch.</desc>
    <defs>
        <radialGradient cx="100%" cy="100%" fx="100%" fy="100%" r="50.0301469%" gradientTransform="translate(1.000000,1.000000),translate(-1.000000,-1.000000)" id="radialGradient-1">
            <stop stop-color="#8800FF" offset="0%"></stop>
            <stop stop-color="#8600FB" offset="71.050849%"></stop>
            <stop stop-color="#EB00FE" offset="100%"></stop>
        </radialGradient>
    </defs>
    <g id="Page-1" stroke="none" stroke-width="1" fill="none" fill-rule="evenodd">
        <g id="text_0" transform="translate(0.000000, -7.000000)">
            <path d="M124.534208,79.7629689 C132.711116,79.7630043 140.809466,80.5606594 148.829249,82.1559305 C156.849031,83.7512051 164.636136,86.1134456 172.190582,89.2426509 C179.745051,92.3718515 186.921705,96.2078968 193.720557,100.750778 C200.519385,105.293663 206.80975,110.456096 212.591686,116.238075 C218.373622,122.020054 223.535985,128.31049 228.078816,135.109372 C232.621648,141.908265 236.457622,149.08496 239.586764,156.639458 C242.715941,164.193974 245.078181,171.981143 246.673414,180.000966 C248.268642,188.020783 249.066241,196.119169 249.066241,204.296094 C249.066206,212.473078 248.268572,220.571493 246.673269,228.591345 C245.078041,236.611197 242.715802,244.398378 239.586549,251.952916 C236.457372,259.507449 232.621334,266.684162 228.078462,273.483043 C223.535595,280.28193 218.373157,286.572364 212.591151,292.354352 C206.80918,298.13634 200.518781,303.298762 193.719865,307.841645 C186.920978,312.384512 179.744289,316.220539 172.189785,319.349698 C164.635281,322.478892 156.848106,324.841098 148.828289,326.436348 C140.808455,328.031593 132.710069,328.82921 124.533126,328.82921 C116.356143,328.829175 108.257746,328.031523 100.237911,326.436238 C92.218059,324.840975 84.430861,322.478736 76.876322,319.349518 C69.321783,316.220324 62.145077,312.384285 55.34619,307.841413 C48.547297,303.298529 42.256863,298.136108 36.4748864,292.35412 C30.6929041,286.572155 25.5304769,280.281714 20.9876108,273.482834 C16.4447331,266.683947 12.6087116,259.507257 9.4795232,251.952736 C6.3503348,244.398232 3.988124,236.611075 2.3928848,228.591257 C0.7976225,220.571423 0,212.473037 0,204.296094 C2.91e-05,196.119128 0.7976806,188.020731 2.3929546,180.000867 C3.9882286,171.981015 6.3504685,164.193829 9.4796744,156.639301 C12.6088802,149.084774 16.4449307,141.908062 20.9878143,135.109169 C25.530692,128.310277 30.693125,122.019833 36.4751074,116.237853 C42.2570955,110.45587 48.54753,105.293442 55.346405,100.750569 C62.145286,96.2076974 69.321999,92.3716695 76.876502,89.2424863 C84.431,86.1133037 92.218181,83.7510899 100.237998,82.1558462 C108.257815,80.5605977 116.356195,79.7629735 124.533126,79.7629735 L124.533022,135.802874 C120.03573,135.802903 115.581648,136.241612 111.170768,137.119019 C106.759883,137.996413 102.476984,139.295645 98.32202,141.016702 C94.167055,142.737771 90.219913,144.847601 86.480547,147.346188 C82.741187,149.844775 79.281486,152.684113 76.10142,155.864202 C72.921355,159.044291 70.082034,162.504033 67.583482,166.24341 C65.084925,169.982799 62.975123,173.929982 61.254083,178.084958 C59.533055,182.239934 58.233841,186.522874 57.356458,190.933789 C56.479104,195.344668 56.040424,199.798791 56.040407,204.296112 C56.040424,208.793432 56.479139,213.247573 57.356545,217.658487 C58.233928,222.069408 59.53316,226.352347 61.254223,230.507341 C62.975303,234.66234 65.085116,238.609523 67.583709,242.348918 C70.082302,246.088319 72.921639,249.548072 76.101723,252.728155 C79.281817,255.908238 82.741559,258.747576 86.480937,261.246169 C90.22032,263.744721 94.167497,265.85454 98.322479,267.575603 C102.477461,269.29666 106.7604,270.595892 111.171297,271.473281 C115.5822,272.350646 120.0363,272.789332 124.533621,272.789332 C129.030947,272.789314 133.485081,272.350611 137.896019,271.473228 C142.306916,270.595822 146.589873,269.29659 150.744873,267.57551 C154.899872,265.854453 158.847049,263.744634 162.58645,261.246041 C166.325827,258.747448 169.785569,255.908116 172.965664,252.728033 C176.145764,249.54795 178.985102,246.088208 181.483695,242.348813 C183.98227,238.609413 186.092083,234.662236 187.813129,230.507254 C189.534168,226.352272 190.8334,222.069332 191.710789,217.658435 C192.588172,213.24752 193.026857,208.793415 193.02684,204.296112 C193.026823,199.798791 192.588119,195.344651 191.710736,190.933736 C190.83333,186.522816 189.534099,182.239859 187.813018,178.084865 C186.091979,173.929871 183.982159,169.982683 181.483567,166.243294 C178.98498,162.503905 176.145625,159.044169 172.965542,155.86408 C169.785459,152.683985 166.325723,149.844659 162.586322,147.346078 C158.846927,144.847491 154.899744,142.737678 150.744762,141.016626 C146.589786,139.295575 142.306846,137.996349 137.895961,137.11896 C133.485047,136.241577 129.030947,135.802886 124.533621,135.802886 L124.534208,79.7629689 Z" id="Fill-8" fill="url(#radialGradient-1)" fill-rule="nonzero"></path>
            <circle id="Oval" fill="#FFFFFF" fill-rule="nonzero" cx="125.65842" cy="205.421389" r="87.3982442"></circle>
            <path d="M79.810425,231.478404 L77.486607,231.478404 L77.486607,228.335968 C75.532487,228.124712 73.683996,227.596571 72.205202,226.777954 L72.205202,223.820367 C74.238543,225.114311 76.615175,225.642452 78.727737,225.642452 C81.104369,225.642452 82.715198,225.087904 82.715198,223.345041 C82.715198,219.067103 72.284423,221.338107 72.284423,214.789165 C72.284423,211.778764 74.581835,210.167936 77.486607,209.824644 L77.486607,206.655802 L79.810425,206.655802 L79.810425,209.798237 C81.579696,209.930273 83.348966,210.405599 84.590097,211.144996 L84.590097,214.023361 C83.084896,213.019894 81.025148,212.465347 79.044622,212.491754 C76.800025,212.491754 75.347638,213.151929 75.347638,214.736351 C75.347638,218.723811 85.778413,216.584843 85.778413,223.186598 C85.778413,226.751547 83.111303,228.177526 79.810425,228.362375 L79.810425,231.478404 Z M87.943789,219.067103 C87.943789,213.812105 90.426049,209.745423 95.997931,209.745423 C101.569813,209.745423 104.052073,213.812105 104.052073,219.067103 C104.052073,224.3221 101.569813,228.388782 95.997931,228.388782 C90.426049,228.388782 87.943789,224.3221 87.943789,219.067103 Z M101.015265,219.067103 C101.015265,214.894793 99.430844,212.491754 95.997931,212.491754 C92.538611,212.491754 90.980596,214.894793 90.980596,219.067103 C90.980596,223.239413 92.538611,225.642452 95.997931,225.642452 C99.430844,225.642452 101.015265,223.239413 101.015265,219.067103 Z M110.152095,226.593105 C110.152095,227.781421 109.333478,228.335968 108.382825,228.335968 C107.432172,228.335968 106.587147,227.781421 106.587147,226.593105 C106.587147,225.457602 107.432172,224.903055 108.382825,224.903055 C109.333478,224.903055 110.152095,225.457602 110.152095,226.593105 Z M112.68717,219.067103 C112.68717,213.812105 115.16943,209.745423 120.741312,209.745423 C126.313194,209.745423 128.795454,213.812105 128.795454,219.067103 C128.795454,224.3221 126.313194,228.388782 120.741312,228.388782 C115.16943,228.388782 112.68717,224.3221 112.68717,219.067103 Z M125.758646,219.067103 C125.758646,214.894793 124.174225,212.491754 120.741312,212.491754 C117.281992,212.491754 115.723977,214.894793 115.723977,219.067103 C115.723977,223.239413 117.281992,225.642452 120.741312,225.642452 C124.174225,225.642452 125.758646,223.239413 125.758646,219.067103 Z M131.805855,211.567508 C133.654347,210.299971 135.687687,209.745423 137.773842,209.745423 C141.418012,209.745423 144.085121,211.435473 144.085121,214.789165 C144.085121,217.825973 141.550047,219.62165 139.1206,221.074037 C136.796782,222.447202 134.604999,223.556297 134.578592,225.351974 L144.217156,225.325567 L144.217156,228.045491 L131.198493,228.045491 L131.198493,226.672326 C131.198493,222.28876 134.446557,220.625117 137.166481,219.014289 C139.252636,217.799566 141.07472,216.87532 141.07472,214.841979 C141.07472,213.283965 139.727962,212.465347 137.509772,212.465347 C135.687687,212.465347 133.707161,213.099115 131.805855,214.472281 L131.805855,211.567508 Z M147.940546,210.088715 L159.005089,210.088715 L159.005089,212.782231 L150.713284,212.782231 L150.449214,217.112983 C151.320645,216.901727 152.244891,216.796099 153.169137,216.796099 C156.628457,216.796099 159.850114,218.301299 159.850114,222.526423 C159.850114,226.408255 156.549236,228.388782 152.588183,228.388782 C150.502028,228.388782 148.415873,227.939863 146.831451,227.174059 L146.831451,224.348508 C148.336652,225.219939 150.369993,225.668859 152.244891,225.668859 C154.912001,225.668859 156.813306,224.612578 156.813306,222.500016 C156.813306,220.123384 154.779966,219.278359 151.928007,219.278359 C150.475621,219.278359 148.811978,219.568836 147.359592,220.07057 L147.940546,210.088715 Z M162.200339,219.067103 C162.200339,213.812105 164.682599,209.745423 170.254481,209.745423 C175.826363,209.745423 178.308624,213.812105 178.308624,219.067103 C178.308624,224.3221 175.826363,228.388782 170.254481,228.388782 C164.682599,228.388782 162.200339,224.3221 162.200339,219.067103 Z M175.271816,219.067103 C175.271816,214.894793 173.687395,212.491754 170.254481,212.491754 C166.795161,212.491754 165.237147,214.894793 165.237147,219.067103 C165.237147,223.239413 166.795161,225.642452 170.254481,225.642452 C173.687395,225.642452 175.271816,223.239413 175.271816,219.067103 Z M90.663712,242.088715 L92.881902,242.088715 L92.881902,257.325567 L96.077152,257.325567 L96.077152,260.045491 L86.306553,260.045491 L86.306553,257.325567 L89.897908,257.325567 L89.897908,245.178336 L86.306553,246.525095 L86.306553,243.752357 L90.663712,242.088715 Z M121.903221,241.560574 L124.623144,241.560574 L124.623144,260.045491 L121.612744,260.045491 L121.612744,247.106049 L115.776791,255.873181 L113.981114,255.873181 L108.145162,247.079642 L108.145162,260.045491 L105.134761,260.045491 L105.134761,241.560574 L107.854684,241.560574 L114.878953,252.149791 L121.903221,241.560574 Z M132.122739,260.045491 L129.112338,260.045491 L129.112338,241.560574 L131.93789,241.560574 L141.893338,255.08097 C141.866931,254.447202 141.866931,253.734212 141.866931,253.04763 L141.866931,241.560574 L144.877332,241.560574 L144.877332,260.045491 L142.05178,260.045491 L132.096332,246.525095 C132.122739,247.158863 132.122739,247.871853 132.122739,248.532028 L132.122739,260.045491 Z M152.376926,260.045491 L149.366526,260.045491 L149.366526,241.560574 L156.760492,241.560574 C160.219812,241.560574 163.863982,242.933739 163.863982,247.343712 C163.863982,250.64459 161.804234,252.229012 159.374788,252.809966 L165.289961,260.045491 L161.672199,260.045491 L156.126724,253.126851 L152.376926,253.126851 L152.376926,260.045491 Z M152.376926,244.306905 L152.376926,250.459741 L156.892527,250.459741 C158.873054,250.459741 160.800767,249.746752 160.800767,247.396526 C160.800767,245.019894 158.873054,244.306905 156.892527,244.306905 L152.376926,244.306905 Z" id="$0.0250-1-MNR" fill="#6202E1" fill-rule="nonzero"></path>
            <path d="M96.942498,141.251 L109.847498,141.251 L109.847498,145.746 L101.756498,145.717 L101.553498,148.617 C102.278498,148.501 103.003498,148.443 103.670498,148.443 C107.701498,148.443 110.717498,150.27 110.717498,154.707 C110.717498,159.579 106.396498,161.435 101.988498,161.435 C99.697498,161.435 97.406498,160.942 95.637498,160.101 L95.637498,155.171 C97.174498,156.244 99.494498,156.795 101.408498,156.795 C103.641498,156.795 105.352498,156.128 105.352498,154.591 C105.352498,153.344 104.337498,152.387 101.118498,152.358 C99.871498,152.358 98.073498,152.532 96.246498,153.17 L96.942498,141.251 Z M112.863498,151.14 C112.863498,145.514 115.560498,140.845 121.998498,140.845 C128.436498,140.845 131.133498,145.514 131.133498,151.14 C131.133498,156.766 128.436498,161.435 121.998498,161.435 C115.560498,161.435 112.863498,156.766 112.863498,151.14 Z M125.768498,151.14 C125.768498,147.341 124.579498,145.485 121.998498,145.485 C119.417498,145.485 118.228498,147.341 118.228498,151.14 C118.228498,154.939 119.417498,156.795 121.998498,156.795 C124.579498,156.795 125.768498,154.939 125.768498,151.14 Z M141.544498,162.74 L138.354498,162.74 L150.215498,138.96 L153.405498,138.96 L141.544498,162.74 Z M144.096498,145.485 C144.096498,148.965 141.544498,150.705 138.586498,150.705 C135.599498,150.705 133.047498,148.965 133.047498,145.485 C133.047498,142.005 135.599498,140.265 138.586498,140.265 C141.544498,140.265 144.096498,142.005 144.096498,145.485 Z M136.875498,145.485 C136.875498,146.355 137.339498,147.225 138.586498,147.225 C139.804498,147.225 140.268498,146.355 140.268498,145.485 C140.268498,144.615 139.804498,143.745 138.586498,143.745 C137.339498,143.745 136.875498,144.615 136.875498,145.485 Z M158.596498,156.215 C158.596498,159.695 156.044498,161.435 153.086498,161.435 C150.099498,161.435 147.547498,159.695 147.547498,156.215 C147.547498,152.735 150.099498,150.995 153.086498,150.995 C156.044498,150.995 158.596498,152.735 158.596498,156.215 Z M151.375498,156.215 C151.375498,157.085 151.839498,157.955 153.086498,157.955 C154.304498,157.955 154.768498,157.085 154.768498,156.215 C154.768498,155.345 154.304498,154.475 153.086498,154.475 C151.839498,154.475 151.375498,155.345 151.375498,156.215 Z" id="50%" fill="#6202E1" fill-rule="nonzero"></path>
            <g id="discount" transform="translate(76.000000, 167.000000)" fill="#000000">
                <path d="M2.0995,6.9 L8.1255,6.9 C13.8525,6.9 16.5665,10.281 16.5665,14.95 C16.5665,19.619 13.8525,23 8.1255,23 L2.0995,23 L2.0995,6.9 Z M13.0475,14.95 C13.0475,11.638 11.3225,9.936 8.1255,9.936 L5.5495,9.936 L5.5495,19.964 L8.1255,19.964 C11.3225,19.964 13.0475,18.262 13.0475,14.95 Z M21.9025,23 L18.7055,23 L18.7055,11.96 L21.9025,11.96 L21.9025,23 Z M22.1785,8.303 C22.1785,9.568 21.3045,10.12 20.2925,10.12 C19.3035,10.12 18.4295,9.568 18.4295,8.303 C18.4295,7.061 19.3035,6.509 20.2925,6.509 C21.3045,6.509 22.1785,7.061 22.1785,8.303 Z M29.2855,15.042 C29.2855,12.489 31.5625,11.638 33.8855,11.638 C35.4495,11.638 36.8295,12.029 37.9565,12.581 L37.9565,15.203 C37.0135,14.559 35.4035,14.076 34.0925,14.076 C33.3795,14.076 32.5515,14.283 32.5515,14.95 C32.5515,16.79 38.7845,15.87 38.7845,19.918 C38.7845,22.517 36.4155,23.322 33.7705,23.322 C32.0915,23.322 30.5045,22.954 29.3775,22.287 L29.3775,19.642 C30.5735,20.424 32.2525,20.815 33.5865,20.815 C34.7595,20.815 35.5185,20.608 35.5185,19.987 C35.5185,18.216 29.2855,18.998 29.2855,15.042 Z M40.1185,17.641 C40.1185,13.409 43.2925,11.615 46.3515,11.615 C47.5705,11.615 48.7665,11.891 49.7555,12.42 L49.7555,15.226 C48.9735,14.72 47.8695,14.398 46.8115,14.398 C45.0635,14.398 43.3845,15.249 43.3845,17.48 C43.3845,19.596 45.0405,20.562 46.7655,20.562 C47.9385,20.562 49.0655,20.24 49.8705,19.757 L49.8705,22.586 C48.7895,23.046 47.5475,23.322 46.1445,23.322 C43.1315,23.322 40.1185,21.574 40.1185,17.641 Z M51.3885,17.48 C51.3885,13.616 54.2865,11.638 57.4835,11.638 C60.7035,11.638 63.5785,13.616 63.5785,17.48 C63.5785,21.344 60.7035,23.322 57.4835,23.322 C54.2865,23.322 51.3885,21.344 51.3885,17.48 Z M60.3355,17.48 C60.3355,15.778 59.3235,14.49 57.4835,14.49 C55.6665,14.49 54.6545,15.778 54.6545,17.48 C54.6545,19.182 55.6665,20.47 57.4835,20.47 C59.3235,20.47 60.3355,19.182 60.3355,17.48 Z M68.5005,13.363 C69.3515,12.374 70.5935,11.638 72.1805,11.638 C75.0785,11.638 76.6655,13.616 76.6655,16.169 L76.6655,23 L73.4685,23 L73.4685,16.583 C73.4685,15.088 72.5715,14.398 71.3295,14.398 C70.2025,14.398 69.3285,15.134 68.8685,15.801 L68.8685,23 L65.6715,23 L65.6715,11.96 L68.5005,11.96 L68.5005,13.363 Z M79.9775,8.74 L83.1515,7.981 L83.1515,11.96 L86.6475,11.96 L86.6475,14.651 L83.1515,14.651 L83.1515,18.975 C83.1515,20.125 83.7265,20.631 84.9225,20.631 C85.6585,20.631 86.2795,20.516 86.9235,20.263 L86.9235,22.839 C86.0725,23.138 85.0605,23.322 83.9565,23.322 C81.8175,23.322 79.9775,22.333 79.9775,19.596 L79.9775,14.651 L78.1145,14.651 L78.1145,11.96 L79.9775,11.96 L79.9775,8.74 Z M88.1425,17.48 C88.1425,13.616 91.0405,11.638 94.2375,11.638 C97.4575,11.638 100.3325,13.616 100.3325,17.48 C100.3325,21.344 97.4575,23.322 94.2375,23.322 C91.0405,23.322 88.1425,21.344 88.1425,17.48 Z M97.0895,17.48 C97.0895,15.778 96.0775,14.49 94.2375,14.49 C92.4205,14.49 91.4085,15.778 91.4085,17.48 C91.4085,19.182 92.4205,20.47 94.2375,20.47 C96.0775,20.47 97.0895,19.182 97.0895,17.48 Z" id="Di-sconto"></path>
            </g>
            <g id="10-Mei---10-Juni" transform="translate(41.000000, 0.000000)" fill="#000000">
                <path d="M5.4,8 L8.125,8 L8.125,21.775 L10.975,21.775 L10.975,25 L1.275,25 L1.275,21.775 L4.475,21.775 L4.475,11.75 L1.275,12.95 L1.275,9.575 L5.4,8 Z M12.6,16.5 C12.6,11.6 14.925,7.65 20.35,7.65 C25.775,7.65 28.1,11.6 28.1,16.5 C28.1,21.4 25.775,25.35 20.35,25.35 C14.925,25.35 12.6,21.4 12.6,16.5 Z M24.35,16.5 C24.35,12.875 23.1,10.95 20.35,10.95 C17.6,10.95 16.35,12.875 16.35,16.5 C16.35,20.125 17.6,22.05 20.35,22.05 C23.1,22.05 24.35,20.125 24.35,16.5 Z M39.675,25 L36.2,25 L36.2,13 L39.275,13 L39.275,14.4 C39.9,13.65 41.275,12.65 43.1,12.65 C44.9,12.65 46.075,13.4 46.775,14.425 C47.775,13.45 49.125,12.65 50.775,12.65 C54.15,12.65 55.25,15.275 55.25,17.4 L55.25,25 L51.8,25 L51.8,17.625 C51.8,16.375 51.025,15.65 49.925,15.65 C48.975,15.65 48.125,16.2 47.55,16.85 C47.575,17.025 47.575,17.2 47.575,17.4 L47.575,25 L44.125,25 L44.125,17.625 C44.125,16.375 43.35,15.65 42.25,15.65 C41.2,15.65 40.25,16.35 39.675,17.1 L39.675,25 Z M68.8,21.9 C68.8,22.525 69.2,22.7 69.65,22.7 C69.85,22.7 70.075,22.675 70.3,22.6 L70.3,24.875 C69.75,25.075 69.05,25.225 68.375,25.225 C67.15,25.225 66.225,24.775 65.725,23.875 C64.55,24.8 63.175,25.35 61.4,25.35 C59.15,25.35 57.2,24.05 57.2,21.675 C57.2,18.625 60.075,17.675 62.475,17.675 C63.425,17.675 64.475,17.8 65.325,18 L65.325,17.575 C65.325,16.375 64.375,15.55 62.5,15.55 C60.85,15.55 59.375,16 58.25,16.45 L58.25,13.45 C59.225,13.125 61.05,12.65 62.9,12.65 C66.5,12.65 68.8,14.125 68.8,18.075 L68.8,21.9 Z M63.275,19.75 C62,19.75 60.75,20.175 60.75,21.4 C60.75,22.3 61.575,22.875 62.625,22.875 C63.6,22.875 64.525,22.6 65.325,21.9 L65.325,20.025 C64.8,19.9 64,19.75 63.275,19.75 Z M71.275,19 C71.275,15.725 73.325,12.65 77.15,12.65 C79.35,12.65 80.725,13.675 81.5,14.75 L81.5,13 L84.55,13 L84.55,24.675 C84.55,29.25 81.175,30.85 77.65,30.85 C75.775,30.85 74.025,30.425 72.575,29.725 L72.575,26.675 C73.925,27.475 75.55,27.925 77.2,27.925 C79.325,27.925 81.1,27.2 81.1,24.825 L81.1,23.725 C80.325,24.575 79.05,25.35 77.15,25.35 C73.325,25.35 71.275,22.275 71.275,19 Z M81.1,17.575 C80.625,16.525 79.5,15.575 77.975,15.575 C76,15.575 74.825,17.125 74.825,19 C74.825,20.875 76,22.425 77.975,22.425 C79.5,22.425 80.625,21.5 81.1,20.5 L81.1,17.575 Z M86.825,19 C86.825,15.725 88.875,12.65 92.7,12.65 C94.9,12.65 96.275,13.675 97.05,14.75 L97.05,13 L100.1,13 L100.1,24.675 C100.1,29.25 96.725,30.85 93.2,30.85 C91.325,30.85 89.575,30.425 88.125,29.725 L88.125,26.675 C89.475,27.475 91.1,27.925 92.75,27.925 C94.875,27.925 96.65,27.2 96.65,24.825 L96.65,23.725 C95.875,24.575 94.6,25.35 92.7,25.35 C88.875,25.35 86.825,22.275 86.825,19 Z M96.65,17.575 C96.175,16.525 95.05,15.575 93.525,15.575 C91.55,15.575 90.375,17.125 90.375,19 C90.375,20.875 91.55,22.425 93.525,22.425 C95.05,22.425 96.175,21.5 96.65,20.5 L96.65,17.575 Z M106.55,25 L103.075,25 L103.075,13 L106.55,13 L106.55,25 Z M106.85,9.025 C106.85,10.4 105.9,11 104.8,11 C103.725,11 102.775,10.4 102.775,9.025 C102.775,7.675 103.725,7.075 104.8,7.075 C105.9,7.075 106.85,7.675 106.85,9.025 Z M108.875,19 C108.875,14.8 112.025,12.65 115.5,12.65 C119,12.65 122.125,14.8 122.125,19 C122.125,23.2 119,25.35 115.5,25.35 C112.025,25.35 108.875,23.2 108.875,19 Z M118.6,19 C118.6,17.15 117.5,15.75 115.5,15.75 C113.525,15.75 112.425,17.15 112.425,19 C112.425,20.85 113.525,22.25 115.5,22.25 C117.5,22.25 118.6,20.85 118.6,19 Z M146.45,20.375 L129.85,20.375 L129.85,17.45 L146.45,17.45 L146.45,20.375 Z M5.4,39 L8.125,39 L8.125,52.775 L10.975,52.775 L10.975,56 L1.275,56 L1.275,52.775 L4.475,52.775 L4.475,42.75 L1.275,43.95 L1.275,40.575 L5.4,39 Z M12.6,47.5 C12.6,42.6 14.925,38.65 20.35,38.65 C25.775,38.65 28.1,42.6 28.1,47.5 C28.1,52.4 25.775,56.35 20.35,56.35 C14.925,56.35 12.6,52.4 12.6,47.5 Z M24.35,47.5 C24.35,43.875 23.1,41.95 20.35,41.95 C17.6,41.95 16.35,43.875 16.35,47.5 C16.35,51.125 17.6,53.05 20.35,53.05 C23.1,53.05 24.35,51.125 24.35,47.5 Z M35.525,50 C35.525,46.725 37.575,43.65 41.4,43.65 C43.6,43.65 44.975,44.675 45.75,45.75 L45.75,44 L48.8,44 L48.8,55.675 C48.8,60.25 45.425,61.85 41.9,61.85 C40.025,61.85 38.275,61.425 36.825,60.725 L36.825,57.675 C38.175,58.475 39.8,58.925 41.45,58.925 C43.575,58.925 45.35,58.2 45.35,55.825 L45.35,54.725 C44.575,55.575 43.3,56.35 41.4,56.35 C37.575,56.35 35.525,53.275 35.525,50 Z M45.35,48.575 C44.875,47.525 43.75,46.575 42.225,46.575 C40.25,46.575 39.075,48.125 39.075,50 C39.075,51.875 40.25,53.425 42.225,53.425 C43.75,53.425 44.875,52.5 45.35,51.5 L45.35,48.575 Z M55.25,56 L51.775,56 L51.775,44 L55.25,44 L55.25,56 Z M55.55,40.025 C55.55,41.4 54.6,42 53.5,42 C52.425,42 51.475,41.4 51.475,40.025 C51.475,38.675 52.425,38.075 53.5,38.075 C54.6,38.075 55.55,38.675 55.55,40.025 Z M66.575,44 L70.05,44 L70.05,56 L66.975,56 L66.975,54.475 C66.05,55.55 64.675,56.35 62.975,56.35 C59.725,56.35 58.1,54.2 58.1,51.425 L58.1,44 L61.575,44 L61.575,50.975 C61.575,52.575 62.45,53.35 63.875,53.35 C65.125,53.35 66.05,52.55 66.575,51.825 L66.575,44 Z M72.325,50 C72.325,46.725 74.375,43.65 78.2,43.65 C80.4,43.65 81.775,44.675 82.55,45.75 L82.55,44 L85.6,44 L85.6,55.675 C85.6,60.25 82.225,61.85 78.7,61.85 C76.825,61.85 75.075,61.425 73.625,60.725 L73.625,57.675 C74.975,58.475 76.6,58.925 78.25,58.925 C80.375,58.925 82.15,58.2 82.15,55.825 L82.15,54.725 C81.375,55.575 80.1,56.35 78.2,56.35 C74.375,56.35 72.325,53.275 72.325,50 Z M82.15,48.575 C81.675,47.525 80.55,46.575 79.025,46.575 C77.05,46.575 75.875,48.125 75.875,50 C75.875,51.875 77.05,53.425 79.025,53.425 C80.55,53.425 81.675,52.5 82.15,51.5 L82.15,48.575 Z M91.625,45.525 C92.55,44.45 93.9,43.65 95.625,43.65 C98.775,43.65 100.5,45.8 100.5,48.575 L100.5,56 L97.025,56 L97.025,49.025 C97.025,47.4 96.05,46.65 94.7,46.65 C93.475,46.65 92.525,47.45 92.025,48.175 L92.025,56 L88.55,56 L88.55,44 L91.625,44 L91.625,45.525 Z M102.625,50 C102.625,45.8 105.775,43.65 109.25,43.65 C112.75,43.65 115.875,45.8 115.875,50 C115.875,54.2 112.75,56.35 109.25,56.35 C105.775,56.35 102.625,54.2 102.625,50 Z M112.35,50 C112.35,48.15 111.25,46.75 109.25,46.75 C107.275,46.75 106.175,48.15 106.175,50 C106.175,51.85 107.275,53.25 109.25,53.25 C111.25,53.25 112.35,51.85 112.35,50 Z" id="10-maggio-—-10-giugn"></path>
            </g>
        </g>
    </g>
</svg>