<?xml version="1.0" encoding="UTF-8"?>
<svg width="250px" height="292px" viewBox="0 0 250 292" version="1.1" xmlns="http://www.w3.org/2000/svg" xmlns:xlink="http://www.w3.org/1999/xlink">
    <!-- Generator: Sketch 48.2 (47327) - http://www.bohemiancoding.com/sketch -->
    <title>text_3</title>
    <desc>Created with Sketch.</desc>
    <defs>
        <radialGradient cx="400%" cy="200%" fx="400%" fy="200%" r="100.014205%" gradientTransform="translate(4.000000,2.000000),scale(1.000000,0.500004),translate(-4.000000,-2.000000)" id="radialGradient-1">
            <stop stop-color="#8D00FF" offset="0%"></stop>
            <stop stop-color="#5C00FE" offset="69.8959662%"></stop>
            <stop stop-color="#8900FF" offset="100%"></stop>
        </radialGradient>
        <radialGradient cx="400%" cy="200%" fx="400%" fy="200%" r="100.011799%" gradientTransform="translate(4.000000,2.000000),scale(1.000000,0.500004),translate(-4.000000,-2.000000)" id="radialGradient-2">
            <stop stop-color="#FF9495" offset="0%"></stop>
            <stop stop-color="#FE5F60" offset="70.3742825%"></stop>
            <stop stop-color="#FF9091" offset="100%"></stop>
        </radialGradient>
    </defs>
    <g id="Page-1" stroke="none" stroke-width="1" fill="none" fill-rule="evenodd">
        <g id="text_3" transform="translate(-1.000000, -7.000000)">
            <g id="3-copy" transform="translate(1.000000, 49.000000)" fill-rule="nonzero">
                <g id="Group-Copy-2" transform="translate(0.933759, 0.000000)">
                    <g id="Group-6" transform="translate(0.000000, 0.762969)">
                        <g id="Group-31">
                            <path d="M124.524976,249.047781 C113.595699,249.047871 102.852631,247.633628 92.2957729,244.804995 C81.7389145,241.976368 71.727937,237.829799 62.2629045,232.365289 C52.7978079,226.900714 44.2011758,220.304407 36.4730082,212.576368 C28.7447764,204.848264 22.1482772,196.25176 16.6835746,186.786792 C11.218872,177.321823 7.07211127,167.31091 4.24335644,156.754116 C1.41453755,146.197257 0.000128110995,135.454189 0,124.524976 C-6.40554976e-05,113.595699 1.41415322,102.852631 4.24277994,92.2957729 C7.07140665,81.7388504 11.2179752,71.727937 16.6825497,62.2628404 C22.1472523,52.7976798 28.7436875,44.2009837 36.4719192,36.4727519 C44.2000869,28.7444561 52.796719,22.148021 62.2618155,16.6833184 C71.726848,11.2185517 81.7378255,7.07185504 92.294684,4.24310021 C102.851606,1.41434539 113.59461,0 124.524976,0 L124.523759,56.0357493 C120.027832,56.0372866 115.575206,56.4772838 111.165882,57.3557409 C106.756558,58.234198 102.47528,59.5342684 98.321986,61.255888 C94.1686916,62.9775076 90.2231932,65.0876238 86.4854909,67.5863007 C82.7477885,70.0849135 79.2896244,72.9241093 76.1110625,76.1038242 C72.9325006,79.2835391 70.0945218,82.7426641 67.5971901,86.4812632 C65.0998584,90.2198623 62.9910874,94.1661294 61.270941,98.3200643 C59.5507307,102.473935 58.2521976,106.755725 57.3752778,111.165434 C56.4983581,115.575078 56.0598982,120.027896 56.0598982,124.523887 C56.0598982,129.019879 56.4984221,133.472761 57.375406,137.882469 C58.2523898,142.292114 59.5509869,146.573967 61.2711973,150.727902 C62.9914076,154.881837 65.1002427,158.828104 67.5976385,162.566704 C70.0950342,166.305367 72.933013,169.764492 76.1117031,172.944207 C79.290329,176.123857 82.7484932,178.963053 86.4862595,181.46173 C90.2240259,183.960343 94.1695884,186.070459 98.3229468,187.792079 C102.476241,189.513634 106.757583,190.813705 111.166971,191.692098 C115.576295,192.570491 120.028985,193.010488 124.524976,193.012025 L124.524976,249.047781 Z" id="Fill-30" fill="url(#radialGradient-1)"></path>
                            <path d="M249.044074,249.047781 C238.114797,249.047871 227.371729,247.633628 216.814871,244.804995 C206.258013,241.976368 196.247035,237.829799 186.782003,232.365289 C177.316906,226.900714 168.720274,220.304407 160.992106,212.576368 C153.263875,204.848264 146.667375,196.25176 141.202673,186.786792 C135.73797,177.321823 131.591209,167.31091 128.762455,156.754116 C125.933636,146.197257 124.519226,135.454189 124.519098,124.524976 C124.519034,113.595699 125.933251,102.852631 128.761878,92.2957729 C131.590505,81.7388504 135.737073,71.727937 141.201648,62.2628404 C146.66635,52.7976798 153.262786,44.2009837 160.991017,36.4727519 C168.719185,28.7444561 177.315817,22.148021 186.780914,16.6833184 C196.245946,11.2185517 206.256924,7.07185504 216.813782,4.24310021 C227.370705,1.41434539 238.113708,0 249.044074,0 L249.042857,56.0357493 C244.54693,56.0372866 240.094304,56.4772838 235.68498,57.3557409 C231.275656,58.234198 226.994378,59.5342684 222.841084,61.255888 C218.68779,62.9775076 214.742291,65.0876238 211.004589,67.5863007 C207.266887,70.0849135 203.808722,72.9241093 200.630161,76.1038242 C197.451599,79.2835391 194.61362,82.7426641 192.116288,86.4812632 C189.618956,90.2198623 187.510185,94.1661294 185.790039,98.3200643 C184.069829,102.473935 182.771296,106.755725 181.894376,111.165434 C181.017456,115.575078 180.578996,120.027896 180.578996,124.523887 C180.578996,129.019879 181.01752,133.472761 181.894504,137.882469 C182.771488,142.292114 184.070085,146.573967 185.790295,150.727902 C187.510506,154.881837 189.619341,158.828104 192.116737,162.566704 C194.614132,166.305367 197.452111,169.764492 200.630801,172.944207 C203.809427,176.123857 207.267591,178.963053 211.005358,181.46173 C214.743124,183.960343 218.688686,186.070459 222.842045,187.792079 C226.995339,189.513634 231.276681,190.813705 235.686069,191.692098 C240.095393,192.570491 244.548083,193.010488 249.044074,193.012025 L249.044074,249.047781 Z" id="Fill-30-Copy" fill="url(#radialGradient-2)" transform="translate(186.781586, 124.523890) scale(-1, 1) translate(-186.781586, -124.523890) "></path>
                        </g>
                        <circle id="Oval" fill="#FFFFFF" cx="124.90822" cy="124.90822" r="87.3982442"></circle>
                        <path d="M77.0899016,151.589233 L74.7660835,151.589233 L74.7660835,148.446797 C72.8119638,148.235541 70.9634721,147.707401 69.4846788,146.888783 L69.4846788,143.931196 C71.5180196,145.225141 73.8946518,145.753281 76.0072137,145.753281 C78.3838458,145.753281 79.9946742,145.198734 79.9946742,143.45587 C79.9946742,139.177932 69.5638999,141.448936 69.5638999,134.899994 C69.5638999,131.889594 71.8613109,130.278765 74.7660835,129.935474 L74.7660835,126.766631 L77.0899016,126.766631 L77.0899016,129.909067 C78.8591722,130.041102 80.6284428,130.516428 81.8695729,131.255825 L81.8695729,134.134191 C80.3643726,133.130724 78.3046247,132.576176 76.3240979,132.602583 C74.0795009,132.602583 72.6271146,133.262759 72.6271146,134.84718 C72.6271146,138.834641 83.057889,136.695672 83.057889,143.297428 C83.057889,146.862376 80.3907796,148.288355 77.0899016,148.473204 L77.0899016,151.589233 Z M85.2232649,139.177932 C85.2232649,133.922934 87.7055252,129.856253 93.2774072,129.856253 C98.8492892,129.856253 101.331549,133.922934 101.331549,139.177932 C101.331549,144.43293 98.8492892,148.499611 93.2774072,148.499611 C87.7055252,148.499611 85.2232649,144.43293 85.2232649,139.177932 Z M98.2947417,139.177932 C98.2947417,135.005622 96.7103203,132.602583 93.2774072,132.602583 C89.8180871,132.602583 88.2600727,135.005622 88.2600727,139.177932 C88.2600727,143.350242 89.8180871,145.753281 93.2774072,145.753281 C96.7103203,145.753281 98.2947417,143.350242 98.2947417,139.177932 Z M107.431572,146.703934 C107.431572,147.89225 106.612954,148.446797 105.662301,148.446797 C104.711648,148.446797 103.866624,147.89225 103.866624,146.703934 C103.866624,145.568432 104.711648,145.013884 105.662301,145.013884 C106.612954,145.013884 107.431572,145.568432 107.431572,146.703934 Z M109.966646,139.177932 C109.966646,133.922934 112.448906,129.856253 118.020788,129.856253 C123.59267,129.856253 126.074931,133.922934 126.074931,139.177932 C126.074931,144.43293 123.59267,148.499611 118.020788,148.499611 C112.448906,148.499611 109.966646,144.43293 109.966646,139.177932 Z M123.038123,139.177932 C123.038123,135.005622 121.453701,132.602583 118.020788,132.602583 C114.561468,132.602583 113.003454,135.005622 113.003454,139.177932 C113.003454,143.350242 114.561468,145.753281 118.020788,145.753281 C121.453701,145.753281 123.038123,143.350242 123.038123,139.177932 Z M137.535579,130.199544 L140.625201,130.199544 L140.625201,141.871449 L143.714822,141.871449 L143.714822,144.485744 L140.625201,144.485744 L140.625201,148.15632 L137.720428,148.15632 L137.720428,144.485744 L127.976236,144.485744 L127.976236,141.924263 L137.535579,130.199544 Z M137.720428,141.871449 L137.720428,134.028562 L131.329928,141.871449 L137.720428,141.871449 Z M146.910072,130.199544 L157.974615,130.199544 L157.974615,132.89306 L149.68281,132.89306 L149.41874,137.223812 C150.290171,137.012556 151.214417,136.906928 152.138663,136.906928 C155.597983,136.906928 158.81964,138.412128 158.81964,142.637252 C158.81964,146.519085 155.518762,148.499611 151.557709,148.499611 C149.471554,148.499611 147.385399,148.050692 145.800977,147.284888 L145.800977,144.459337 C147.306178,145.330769 149.339519,145.779688 151.214417,145.779688 C153.881527,145.779688 155.782832,144.723407 155.782832,142.610845 C155.782832,140.234213 153.749491,139.389188 150.897533,139.389188 C149.445147,139.389188 147.781504,139.679666 146.329118,140.181399 L146.910072,130.199544 Z M161.169865,139.177932 C161.169865,133.922934 163.652125,129.856253 169.224007,129.856253 C174.795889,129.856253 177.27815,133.922934 177.27815,139.177932 C177.27815,144.43293 174.795889,148.499611 169.224007,148.499611 C163.652125,148.499611 161.169865,144.43293 161.169865,139.177932 Z M174.241342,139.177932 C174.241342,135.005622 172.65692,132.602583 169.224007,132.602583 C165.764687,132.602583 164.206673,135.005622 164.206673,139.177932 C164.206673,143.350242 165.764687,145.753281 169.224007,145.753281 C172.65692,145.753281 174.241342,143.350242 174.241342,139.177932 Z M88.7882131,162.199544 L91.0064031,162.199544 L91.0064031,177.436397 L94.201653,177.436397 L94.201653,180.15632 L84.4310542,180.15632 L84.4310542,177.436397 L88.0224094,177.436397 L88.0224094,165.289166 L84.4310542,166.635924 L84.4310542,163.863187 L88.7882131,162.199544 Z M120.027722,161.671404 L122.747646,161.671404 L122.747646,180.15632 L119.737245,180.15632 L119.737245,167.216879 L113.901293,175.98401 L112.105615,175.98401 L106.269663,167.190472 L106.269663,180.15632 L103.259262,180.15632 L103.259262,161.671404 L105.979186,161.671404 L113.003454,172.26062 L120.027722,161.671404 Z M130.24724,180.15632 L127.23684,180.15632 L127.23684,161.671404 L130.062391,161.671404 L140.017839,175.1918 C139.991432,174.558031 139.991432,173.845041 139.991432,173.158459 L139.991432,161.671404 L143.001833,161.671404 L143.001833,180.15632 L140.176281,180.15632 L130.220833,166.635924 C130.24724,167.269693 130.24724,167.982682 130.24724,168.642858 L130.24724,180.15632 Z M150.501428,180.15632 L147.491027,180.15632 L147.491027,161.671404 L154.884993,161.671404 C158.344314,161.671404 161.988483,163.044569 161.988483,167.454542 C161.988483,170.75542 159.928735,172.339841 157.499289,172.920796 L163.414462,180.15632 L159.7967,180.15632 L154.251225,173.23768 L150.501428,173.23768 L150.501428,180.15632 Z M150.501428,164.417734 L150.501428,170.570571 L155.017029,170.570571 C156.997555,170.570571 158.925268,169.857581 158.925268,167.507356 C158.925268,165.130724 156.997555,164.417734 155.017029,164.417734 L150.501428,164.417734 Z" id="$0.0450-1-MNR" fill="#131F3C"></path>
                    </g>
                </g>
            </g>
            <path d="M103.205295,114.956634 L106.985963,114.956634 L106.985963,129.659233 L109.954488,129.659233 L109.954488,134 L98.5844782,134 L98.5844782,129.659233 L101.945072,129.659233 L101.945072,120.08154 L98.5844782,121.341763 L98.5844782,116.720946 L103.205295,114.956634 Z M111.66279,124.478317 C111.66279,119.045357 114.26725,114.53656 120.484349,114.53656 C126.701447,114.53656 129.305908,119.045357 129.305908,124.478317 C129.305908,129.911277 126.701447,134.420074 120.484349,134.420074 C114.26725,134.420074 111.66279,129.911277 111.66279,124.478317 Z M124.124992,124.478317 C124.124992,120.809669 122.976789,119.017352 120.484349,119.017352 C117.991908,119.017352 116.843705,120.809669 116.843705,124.478317 C116.843705,128.146966 117.991908,129.939282 120.484349,129.939282 C122.976789,129.939282 124.124992,128.146966 124.124992,124.478317 Z M139.359685,135.680297 L136.27914,135.680297 L147.733165,112.716238 L150.813709,112.716238 L139.359685,135.680297 Z M141.82412,119.017352 C141.82412,122.377946 139.359685,124.058243 136.50318,124.058243 C133.61867,124.058243 131.154234,122.377946 131.154234,119.017352 C131.154234,115.656758 133.61867,113.976461 136.50318,113.976461 C139.359685,113.976461 141.82412,115.656758 141.82412,119.017352 Z M134.850888,119.017352 C134.850888,119.857501 135.298967,120.697649 136.50318,120.697649 C137.679388,120.697649 138.127467,119.857501 138.127467,119.017352 C138.127467,118.177204 137.679388,117.337055 136.50318,117.337055 C135.298967,117.337055 134.850888,118.177204 134.850888,119.017352 Z M155.826595,129.379183 C155.826595,132.739777 153.362159,134.420074 150.505655,134.420074 C147.621145,134.420074 145.156709,132.739777 145.156709,129.379183 C145.156709,126.018589 147.621145,124.338292 150.505655,124.338292 C153.362159,124.338292 155.826595,126.018589 155.826595,129.379183 Z M148.853363,129.379183 C148.853363,130.219332 149.301442,131.05948 150.505655,131.05948 C151.681862,131.05948 152.129942,130.219332 152.129942,129.379183 C152.129942,128.539035 151.681862,127.698886 150.505655,127.698886 C149.301442,127.698886 148.853363,128.539035 148.853363,129.379183 Z" id="10%" fill="#131F3C" fill-rule="nonzero"></path>
            <g id="diskon" transform="translate(2.000000, 139.000000)" fill="#000000">
                <path d="M69.702,11.155 C69.702,8.05 72.416,6.578 75.59,6.578 C77.499,6.578 79.431,7.038 80.811,7.82 L80.811,11.04 C79.454,10.074 77.637,9.591 75.843,9.614 C74.095,9.637 73.221,10.12 73.221,11.109 C73.221,13.892 82.03,12.857 82.03,18.584 C82.03,22.195 79.132,23.322 75.751,23.322 C73.52,23.322 71.45,22.793 69.794,21.873 L69.794,18.584 C71.634,19.803 73.658,20.286 75.498,20.286 C77.361,20.286 78.511,19.895 78.511,18.745 C78.511,15.732 69.702,16.859 69.702,11.155 Z M83.364,17.641 C83.364,13.409 86.538,11.615 89.597,11.615 C90.816,11.615 92.012,11.891 93.001,12.42 L93.001,15.226 C92.219,14.72 91.115,14.398 90.057,14.398 C88.309,14.398 86.63,15.249 86.63,17.48 C86.63,19.596 88.286,20.562 90.011,20.562 C91.184,20.562 92.311,20.24 93.116,19.757 L93.116,22.586 C92.035,23.046 90.793,23.322 89.39,23.322 C86.377,23.322 83.364,21.574 83.364,17.641 Z M94.634,17.48 C94.634,13.616 97.532,11.638 100.729,11.638 C103.949,11.638 106.824,13.616 106.824,17.48 C106.824,21.344 103.949,23.322 100.729,23.322 C97.532,23.322 94.634,21.344 94.634,17.48 Z M103.581,17.48 C103.581,15.778 102.569,14.49 100.729,14.49 C98.912,14.49 97.9,15.778 97.9,17.48 C97.9,19.182 98.912,20.47 100.729,20.47 C102.569,20.47 103.581,19.182 103.581,17.48 Z M111.746,13.363 C112.597,12.374 113.839,11.638 115.426,11.638 C118.324,11.638 119.911,13.616 119.911,16.169 L119.911,23 L116.714,23 L116.714,16.583 C116.714,15.088 115.817,14.398 114.575,14.398 C113.448,14.398 112.574,15.134 112.114,15.801 L112.114,23 L108.917,23 L108.917,11.96 L111.746,11.96 L111.746,13.363 Z M123.223,8.74 L126.397,7.981 L126.397,11.96 L129.893,11.96 L129.893,14.651 L126.397,14.651 L126.397,18.975 C126.397,20.125 126.972,20.631 128.168,20.631 C128.904,20.631 129.525,20.516 130.169,20.263 L130.169,22.839 C129.318,23.138 128.306,23.322 127.202,23.322 C125.063,23.322 123.223,22.333 123.223,19.596 L123.223,14.651 L121.36,14.651 L121.36,11.96 L123.223,11.96 L123.223,8.74 Z M131.388,17.48 C131.388,13.616 134.286,11.638 137.483,11.638 C140.703,11.638 143.578,13.616 143.578,17.48 C143.578,21.344 140.703,23.322 137.483,23.322 C134.286,23.322 131.388,21.344 131.388,17.48 Z M140.335,17.48 C140.335,15.778 139.323,14.49 137.483,14.49 C135.666,14.49 134.654,15.778 134.654,17.48 C134.654,19.182 135.666,20.47 137.483,20.47 C139.323,20.47 140.335,19.182 140.335,17.48 Z M159.195,6.9 L162.369,6.9 L162.369,23 L159.563,23 L159.563,21.39 C158.85,22.379 157.585,23.322 155.561,23.322 C152.042,23.322 150.156,20.493 150.156,17.48 C150.156,14.467 152.042,11.638 155.561,11.638 C157.309,11.638 158.482,12.351 159.195,13.133 L159.195,6.9 Z M159.195,16.169 C158.758,15.203 157.723,14.329 156.32,14.329 C154.503,14.329 153.422,15.755 153.422,17.48 C153.422,19.205 154.503,20.631 156.32,20.631 C157.723,20.631 158.758,19.757 159.195,18.791 L159.195,16.169 Z M164.462,17.48 C164.462,13.317 167.659,11.638 170.143,11.638 C174.72,11.638 176.192,15.249 175.456,18.515 L167.682,18.515 C168.05,20.125 169.752,20.792 171.569,20.792 C172.834,20.792 173.961,20.539 174.904,20.125 L174.904,22.632 C173.869,23.069 172.512,23.322 170.856,23.322 C167.36,23.322 164.462,21.321 164.462,17.48 Z M172.581,16.445 C172.696,15.686 172.259,14.076 170.258,14.076 C168.901,14.076 167.705,14.927 167.659,16.445 L172.581,16.445 Z M177.71,6.21 L180.907,6.21 L180.907,23 L177.71,23 L177.71,6.21 Z" id="Sconto-del"></path>
            </g>
            <g id="18-28-Agustus" fill="#000000">
                <path d="M52.3375,8 L55.0625,8 L55.0625,21.775 L57.9125,21.775 L57.9125,25 L48.2125,25 L48.2125,21.775 L51.4125,21.775 L51.4125,11.75 L48.2125,12.95 L48.2125,9.575 L52.3375,8 Z M60.1125,12.35 C60.1125,10.075 62.0125,7.65 66.6625,7.65 C70.9875,7.65 73.2375,10.075 73.2625,12.45 C73.2875,14.1 72.4875,15.35 71.1125,16.375 C72.6625,17.15 73.8875,18.35 73.8875,20.4 C73.8875,22.9 71.8375,25.35 66.7125,25.35 C61.6375,25.35 59.4875,22.875 59.4875,20.275 C59.4875,18.575 60.5375,16.95 62.1375,16 C60.9625,15.2 60.1125,14.075 60.1125,12.35 Z M67.0875,18 C66.3375,17.725 65.4375,17.475 64.5625,17.15 C63.6375,17.925 63.2125,18.95 63.2375,19.825 C63.2625,21.275 64.4125,22.4 66.9875,22.4 C68.7875,22.4 70.1625,21.65 70.1625,20.5 C70.1625,19.05 68.7625,18.575 67.0875,18 Z M69.6625,12.725 C69.6625,11.55 68.6125,10.6 66.5125,10.6 C64.7125,10.6 63.6875,11.425 63.6875,12.375 C63.6875,13.875 65.2125,14.35 66.8875,14.9 C67.3875,15.025 67.9125,15.2 68.4625,15.35 C69.2625,14.55 69.6875,13.55 69.6625,12.725 Z M76.2875,17.45 L85.5875,17.45 L85.5875,20.375 L76.2875,20.375 L76.2875,17.45 Z M88.2375,9.45 C89.9875,8.2 92.0125,7.65 94.0875,7.65 C97.5125,7.65 100.2875,9.2 100.2875,12.675 C100.2875,15.55 97.9125,17.25 95.6875,18.575 C93.6625,19.775 91.9375,20.7 91.9125,21.8 L100.4125,21.775 L100.4125,25 L87.6625,25 L87.6625,23.325 C87.6625,19.225 90.7625,17.625 93.2625,16.15 C95.0375,15.125 96.5625,14.45 96.5625,12.825 C96.5625,11.575 95.4625,10.925 93.7375,10.925 C92.0375,10.925 90.0375,11.575 88.2375,12.95 L88.2375,9.45 Z M103.2125,12.35 C103.2125,10.075 105.1125,7.65 109.7625,7.65 C114.0875,7.65 116.3375,10.075 116.3625,12.45 C116.3875,14.1 115.5875,15.35 114.2125,16.375 C115.7625,17.15 116.9875,18.35 116.9875,20.4 C116.9875,22.9 114.9375,25.35 109.8125,25.35 C104.7375,25.35 102.5875,22.875 102.5875,20.275 C102.5875,18.575 103.6375,16.95 105.2375,16 C104.0625,15.2 103.2125,14.075 103.2125,12.35 Z M110.1875,18 C109.4375,17.725 108.5375,17.475 107.6625,17.15 C106.7375,17.925 106.3125,18.95 106.3375,19.825 C106.3625,21.275 107.5125,22.4 110.0875,22.4 C111.8875,22.4 113.2625,21.65 113.2625,20.5 C113.2625,19.05 111.8625,18.575 110.1875,18 Z M112.7625,12.725 C112.7625,11.55 111.7125,10.6 109.6125,10.6 C107.8125,10.6 106.7875,11.425 106.7875,12.375 C106.7875,13.875 108.3125,14.35 109.9875,14.9 C110.4875,15.025 111.0125,15.2 111.5625,15.35 C112.3625,14.55 112.7875,13.55 112.7625,12.725 Z M135.7625,21.9 C135.7625,22.525 136.1625,22.7 136.6125,22.7 C136.8125,22.7 137.0375,22.675 137.2625,22.6 L137.2625,24.875 C136.7125,25.075 136.0125,25.225 135.3375,25.225 C134.1125,25.225 133.1875,24.775 132.6875,23.875 C131.5125,24.8 130.1375,25.35 128.3625,25.35 C126.1125,25.35 124.1625,24.05 124.1625,21.675 C124.1625,18.625 127.0375,17.675 129.4375,17.675 C130.3875,17.675 131.4375,17.8 132.2875,18 L132.2875,17.575 C132.2875,16.375 131.3375,15.55 129.4625,15.55 C127.8125,15.55 126.3375,16 125.2125,16.45 L125.2125,13.45 C126.1875,13.125 128.0125,12.65 129.8625,12.65 C133.4625,12.65 135.7625,14.125 135.7625,18.075 L135.7625,21.9 Z M130.2375,19.75 C128.9625,19.75 127.7125,20.175 127.7125,21.4 C127.7125,22.3 128.5375,22.875 129.5875,22.875 C130.5625,22.875 131.4875,22.6 132.2875,21.9 L132.2875,20.025 C131.7625,19.9 130.9625,19.75 130.2375,19.75 Z M138.2375,19 C138.2375,15.725 140.2875,12.65 144.1125,12.65 C146.3125,12.65 147.6875,13.675 148.4625,14.75 L148.4625,13 L151.5125,13 L151.5125,24.675 C151.5125,29.25 148.1375,30.85 144.6125,30.85 C142.7375,30.85 140.9875,30.425 139.5375,29.725 L139.5375,26.675 C140.8875,27.475 142.5125,27.925 144.1625,27.925 C146.2875,27.925 148.0625,27.2 148.0625,24.825 L148.0625,23.725 C147.2875,24.575 146.0125,25.35 144.1125,25.35 C140.2875,25.35 138.2375,22.275 138.2375,19 Z M148.0625,17.575 C147.5875,16.525 146.4625,15.575 144.9375,15.575 C142.9625,15.575 141.7875,17.125 141.7875,19 C141.7875,20.875 142.9625,22.425 144.9375,22.425 C146.4625,22.425 147.5875,21.5 148.0625,20.5 L148.0625,17.575 Z M153.7875,19 C153.7875,14.8 156.9375,12.65 160.4125,12.65 C163.9125,12.65 167.0375,14.8 167.0375,19 C167.0375,23.2 163.9125,25.35 160.4125,25.35 C156.9375,25.35 153.7875,23.2 153.7875,19 Z M163.5125,19 C163.5125,17.15 162.4125,15.75 160.4125,15.75 C158.4375,15.75 157.3375,17.15 157.3375,19 C157.3375,20.85 158.4375,22.25 160.4125,22.25 C162.4125,22.25 163.5125,20.85 163.5125,19 Z M168.7875,16.35 C168.7875,13.575 171.2625,12.65 173.7875,12.65 C175.4875,12.65 176.9875,13.075 178.2125,13.675 L178.2125,16.525 C177.1875,15.825 175.4375,15.3 174.0125,15.3 C173.2375,15.3 172.3375,15.525 172.3375,16.25 C172.3375,18.25 179.1125,17.25 179.1125,21.65 C179.1125,24.475 176.5375,25.35 173.6625,25.35 C171.8375,25.35 170.1125,24.95 168.8875,24.225 L168.8875,21.35 C170.1875,22.2 172.0125,22.625 173.4625,22.625 C174.7375,22.625 175.5625,22.4 175.5625,21.725 C175.5625,19.8 168.7875,20.65 168.7875,16.35 Z M182.1375,9.5 L185.5875,8.675 L185.5875,13 L189.3875,13 L189.3875,15.925 L185.5875,15.925 L185.5875,20.625 C185.5875,21.875 186.2125,22.425 187.5125,22.425 C188.3125,22.425 188.9875,22.3 189.6875,22.025 L189.6875,24.825 C188.7625,25.15 187.6625,25.35 186.4625,25.35 C184.1375,25.35 182.1375,24.275 182.1375,21.3 L182.1375,15.925 L180.1125,15.925 L180.1125,13 L182.1375,13 L182.1375,9.5 Z M191.0125,19 C191.0125,14.8 194.1625,12.65 197.6375,12.65 C201.1375,12.65 204.2625,14.8 204.2625,19 C204.2625,23.2 201.1375,25.35 197.6375,25.35 C194.1625,25.35 191.0125,23.2 191.0125,19 Z M200.7375,19 C200.7375,17.15 199.6375,15.75 197.6375,15.75 C195.6625,15.75 194.5625,17.15 194.5625,19 C194.5625,20.85 195.6625,22.25 197.6375,22.25 C199.6375,22.25 200.7375,20.85 200.7375,19 Z" id="18-28-agosto"></path>
            </g>
        </g>
    </g>
</svg>