<?xml version="1.0" encoding="UTF-8"?>
<svg width="250px" height="292px" viewBox="0 0 250 292" version="1.1" xmlns="http://www.w3.org/2000/svg" xmlns:xlink="http://www.w3.org/1999/xlink">
    <!-- Generator: Sketch 48.2 (47327) - http://www.bohemiancoding.com/sketch -->
    <title>text_2</title>
    <desc>Created with Sketch.</desc>
    <defs>
        <radialGradient cx="404.481229%" cy="400%" fx="404.481229%" fy="400%" r="101.454359%" gradientTransform="translate(4.044812,4.000000),scale(1.000000,0.999999),translate(-4.044812,-4.000000)" id="radialGradient-1">
            <stop stop-color="#FF9495" offset="0%"></stop>
            <stop stop-color="#FE5F60" offset="70.3742825%"></stop>
            <stop stop-color="#FF9091" offset="100%"></stop>
        </radialGradient>
        <radialGradient cx="100%" cy="100%" fx="100%" fy="100%" r="50.0301469%" gradientTransform="translate(1.000000,1.000000),scale(1.000000,1.000000),translate(-1.000000,-1.000000)" id="radialGradient-2">
            <stop stop-color="#8D00FF" offset="0%"></stop>
            <stop stop-color="#5C00FE" offset="69.8959662%"></stop>
            <stop stop-color="#8900FF" offset="100%"></stop>
        </radialGradient>
    </defs>
    <g id="Page-1" stroke="none" stroke-width="1" fill="none" fill-rule="evenodd">
        <g id="text_2" transform="translate(-1.000000, -7.000000)">
            <g id="2-copy" transform="translate(0.000000, 48.000000)" fill-rule="nonzero">
                <g id="Group-2" transform="translate(126.066640, 125.762969) scale(-1, 1) translate(-126.066640, -125.762969) translate(0.566640, 0.762969)">
                    <path d="M0.773750896,124.873729 C0.773779989,116.689946 1.57209481,108.584814 3.16869536,100.558282 C4.76529591,92.5317607 7.12950015,84.7380986 10.2613081,77.1772896 C13.393116,69.6164805 17.2323564,62.4338 21.7790176,55.629254 C26.325673,48.8247085 31.4923987,42.5290333 37.2791891,36.7422459 C43.0659853,30.9554544 49.3616506,25.7887338 56.1661792,21.2420837 C62.9707136,16.6954341 70.153394,12.8562164 77.7141798,9.7244312 C85.2749598,6.59264654 93.068616,4.22846849 101.095102,2.6318982 C109.121588,1.03532325 117.226597,0.237031125 125.410328,0.237031125 L125.410328,56.3235362 C120.909297,56.3235653 116.451511,56.762639 112.036963,57.6407748 C107.62241,58.518899 103.33595,59.8192111 99.17753,61.5416993 C95.0191103,63.2641992 91.0686861,65.3757843 87.3262108,67.8764488 C83.5837413,70.3771134 80.1211632,73.2188123 76.9384532,76.4015455 C73.7557433,79.5842788 70.9140618,83.0468976 68.4134322,86.7893845 C65.9127968,90.5318831 63.8012407,94.482348 62.0787699,98.6407794 C60.3563108,102.799211 59.0560162,107.085712 58.1779036,111.500294 C57.2998202,115.914842 56.8607755,120.372669 56.8607581,124.873729 L0.773750896,124.873729 Z" id="Fill-8" fill="url(#radialGradient-1)"></path>
                    <path d="M125.475948,0.237031125 C133.652855,0.23706659 141.751206,1.03472162 149.770988,2.62999272 C157.790771,4.22526731 165.577876,6.58750783 173.132322,9.71671311 C180.68679,12.8459137 187.863445,16.6819591 194.662297,21.2248403 C201.461125,25.7677257 207.75149,30.9301581 213.533426,36.7121376 C219.315362,42.4941165 224.477725,48.7845522 229.020556,55.5834348 C233.563387,62.3823272 237.399362,69.5590225 240.528504,77.1135206 C243.657681,84.6680362 246.019921,92.4552054 247.615154,100.475028 C249.210382,108.494845 250.007981,116.593231 250.007981,124.770157 C250.007946,132.94714 249.210312,141.045555 247.615009,149.065407 C246.019781,157.085259 243.657541,164.87244 240.528289,172.426979 C237.399112,179.981512 233.563073,187.158224 229.020201,193.957105 C224.477335,200.755992 219.314897,207.046426 213.532891,212.828415 C207.75092,218.610403 201.460521,223.772824 194.661605,228.315708 C187.862718,232.858574 180.686029,236.694601 173.131525,239.823761 C165.577021,242.952955 157.789846,245.31516 149.770029,246.910411 C141.750195,248.505655 133.651809,249.303272 125.474866,249.303272 C117.297883,249.303237 109.199485,248.505586 101.179651,246.9103 C93.1597989,245.315038 85.3726007,242.952798 77.8180619,239.82358 C70.2635232,236.694386 63.0868163,232.858347 56.2879297,228.315475 C49.4890373,223.772592 43.1986028,218.61017 37.4166263,212.828182 C31.6346439,207.046217 26.4722168,200.755777 21.9293506,193.956896 C17.3864729,187.158009 13.5504514,179.98132 10.421263,172.426798 C7.29207463,164.872294 4.92986378,157.085137 3.33462466,149.06532 C1.73936229,141.045485 0.941739824,132.947099 0.941739824,124.770157 C0.941739824,124.770153 19.6218754,124.770159 56.9821467,124.770174 C56.9821641,129.267494 57.4208788,133.721635 58.2982851,138.132549 C59.175668,142.54347 60.4748997,146.826409 62.1959626,150.981403 C63.917043,155.136403 66.0268562,159.083585 68.5254489,162.82298 C71.0240415,166.562381 73.8633794,170.022135 77.0434624,173.202218 C80.2235571,176.382301 83.6832989,179.221639 87.4226764,181.720231 C91.1620597,184.218783 95.1092365,186.328602 99.2642186,188.049665 C103.419201,189.770722 107.70214,191.069954 112.113037,191.947343 C116.52394,192.824708 120.97804,193.263394 125.47536,193.263394 C129.972686,193.263377 134.426821,192.824673 138.837759,191.94729 C143.248656,191.069884 147.531613,189.770653 151.686613,188.049572 C155.841612,186.328515 159.788789,184.218696 163.52819,181.720103 C167.267567,179.221511 170.727309,176.382179 173.907404,173.202096 C177.087504,170.022012 179.926842,166.562271 182.425435,162.822876 C184.92401,159.083475 187.033823,155.136298 188.754868,150.981316 C190.475908,146.826334 191.77514,142.543394 192.652529,138.132497 C193.529912,133.721583 193.968597,129.267477 193.96858,124.770174 C193.968562,120.272854 193.529859,115.818713 192.652476,111.407799 C191.77507,106.996878 190.475838,102.713921 188.754758,98.5589274 C187.033718,94.4039337 184.923899,90.4567452 182.425307,86.7173561 C179.92672,82.977967 177.087365,79.5182309 173.907282,76.338142 C170.727198,73.1580474 167.267462,70.3187211 163.528062,67.8201401 C159.788667,65.3215532 155.841484,63.21174 151.686502,61.4906887 C147.531526,59.7696374 143.248586,58.4704115 138.837701,57.5930227 C134.426786,56.7156397 129.972686,56.2769482 125.47536,56.2769482 L125.475948,0.237031125 Z" id="Fill-8" fill="url(#radialGradient-2)"></path>
                </g>
                <circle id="Oval" fill="#FFFFFF" cx="124.90822" cy="125.671189" r="87.3982442"></circle>
                <path d="M80.1879256,152.352202 L77.8641075,152.352202 L77.8641075,149.209766 C75.9099878,148.99851 74.0614961,148.47037 72.5827028,147.651752 L72.5827028,144.694165 C74.6160436,145.988109 76.9926757,146.51625 79.1052376,146.51625 C81.4818698,146.51625 83.0926982,145.961702 83.0926982,144.218839 C83.0926982,139.940901 72.6619238,142.211905 72.6619238,135.662963 C72.6619238,132.652562 74.9593349,131.041734 77.8641075,130.698443 L77.8641075,127.5296 L80.1879256,127.5296 L80.1879256,130.672036 C81.9571962,130.804071 83.7264668,131.279397 84.9675969,132.018794 L84.9675969,134.897159 C83.4623965,133.893693 81.4026487,133.339145 79.4221219,133.365552 C77.1775249,133.365552 75.7251386,134.025728 75.7251386,135.610149 C75.7251386,139.59761 86.155913,137.458641 86.155913,144.060397 C86.155913,147.625345 83.4888036,149.051324 80.1879256,149.236173 L80.1879256,152.352202 Z M88.3212889,139.940901 C88.3212889,134.685903 90.8035491,130.619222 96.3754311,130.619222 C101.947313,130.619222 104.429573,134.685903 104.429573,139.940901 C104.429573,145.195899 101.947313,149.26258 96.3754311,149.26258 C90.8035491,149.26258 88.3212889,145.195899 88.3212889,139.940901 Z M101.392766,139.940901 C101.392766,135.768591 99.8083442,133.365552 96.3754311,133.365552 C92.916111,133.365552 91.3580966,135.768591 91.3580966,139.940901 C91.3580966,144.113211 92.916111,146.51625 96.3754311,146.51625 C99.8083442,146.51625 101.392766,144.113211 101.392766,139.940901 Z M110.529596,147.466903 C110.529596,148.655219 109.710978,149.209766 108.760325,149.209766 C107.809672,149.209766 106.964648,148.655219 106.964648,147.466903 C106.964648,146.331401 107.809672,145.776853 108.760325,145.776853 C109.710978,145.776853 110.529596,146.331401 110.529596,147.466903 Z M113.06467,139.940901 C113.06467,134.685903 115.54693,130.619222 121.118812,130.619222 C126.690694,130.619222 129.172955,134.685903 129.172955,139.940901 C129.172955,145.195899 126.690694,149.26258 121.118812,149.26258 C115.54693,149.26258 113.06467,145.195899 113.06467,139.940901 Z M126.136147,139.940901 C126.136147,135.768591 124.551725,133.365552 121.118812,133.365552 C117.659492,133.365552 116.101478,135.768591 116.101478,139.940901 C116.101478,144.113211 117.659492,146.51625 121.118812,146.51625 C124.551725,146.51625 126.136147,144.113211 126.136147,139.940901 Z M140.633603,130.962513 L143.723225,130.962513 L143.723225,142.634417 L146.812846,142.634417 L146.812846,145.248713 L143.723225,145.248713 L143.723225,148.919289 L140.818452,148.919289 L140.818452,145.248713 L131.07426,145.248713 L131.07426,142.687231 L140.633603,130.962513 Z M140.818452,142.634417 L140.818452,134.791531 L134.427952,142.634417 L140.818452,142.634417 Z M149.321514,132.441306 C151.170005,131.173769 153.203346,130.619222 155.289501,130.619222 C158.93367,130.619222 161.60078,132.309271 161.60078,135.662963 C161.60078,138.699771 159.065705,140.495448 156.636259,141.947835 C154.312441,143.321 152.120658,144.430095 152.094251,146.225773 L161.732815,146.199366 L161.732815,148.919289 L148.714152,148.919289 L148.714152,147.546124 C148.714152,143.162558 151.962216,141.498915 154.68214,139.888087 C156.768294,138.673364 158.590379,137.749118 158.590379,135.715777 C158.590379,134.157763 157.243621,133.339145 155.025431,133.339145 C153.203346,133.339145 151.222819,133.972914 149.321514,135.346079 L149.321514,132.441306 Z M165.456205,130.962513 L176.520748,130.962513 L176.520748,133.656029 L168.228943,133.656029 L167.964872,137.986781 C168.836304,137.775525 169.76055,137.669897 170.684796,137.669897 C174.144116,137.669897 177.365773,139.175097 177.365773,143.400221 C177.365773,147.282054 174.064895,149.26258 170.103841,149.26258 C168.017686,149.26258 165.931532,148.813661 164.34711,148.047857 L164.34711,145.222306 C165.852311,146.093737 167.885651,146.542657 169.76055,146.542657 C172.427659,146.542657 174.328965,145.486376 174.328965,143.373814 C174.328965,140.997182 172.295624,140.152157 169.443666,140.152157 C167.991279,140.152157 166.327637,140.442634 164.875251,140.944368 L165.456205,130.962513 Z M90.2886122,162.962513 L92.5068022,162.962513 L92.5068022,178.199366 L95.702052,178.199366 L95.702052,180.919289 L85.9314533,180.919289 L85.9314533,178.199366 L89.5228085,178.199366 L89.5228085,166.052135 L85.9314533,167.398893 L85.9314533,164.626155 L90.2886122,162.962513 Z M121.528121,162.434372 L124.248045,162.434372 L124.248045,180.919289 L121.237644,180.919289 L121.237644,167.979847 L115.401692,176.746979 L113.606014,176.746979 L107.770062,167.95344 L107.770062,180.919289 L104.759661,180.919289 L104.759661,162.434372 L107.479585,162.434372 L114.503853,173.023589 L121.528121,162.434372 Z M131.747639,180.919289 L128.737239,180.919289 L128.737239,162.434372 L131.56279,162.434372 L141.518238,175.954769 C141.491831,175.321 141.491831,174.60801 141.491831,173.921428 L141.491831,162.434372 L144.502232,162.434372 L144.502232,180.919289 L141.67668,180.919289 L131.721232,167.398893 C131.747639,168.032661 131.747639,168.745651 131.747639,169.405827 L131.747639,180.919289 Z M152.001827,180.919289 L148.991426,180.919289 L148.991426,162.434372 L156.385393,162.434372 C159.844713,162.434372 163.488882,163.807538 163.488882,168.217511 C163.488882,171.518389 161.429134,173.10281 158.999688,173.683765 L164.914861,180.919289 L161.297099,180.919289 L155.751624,174.000649 L152.001827,174.000649 L152.001827,180.919289 Z M152.001827,165.180703 L152.001827,171.333539 L156.517428,171.333539 C158.497954,171.333539 160.425667,170.62055 160.425667,168.270325 C160.425667,165.893693 158.497954,165.180703 156.517428,165.180703 L152.001827,165.180703 Z" id="$0.0425-1-MNR" fill="#131F3C"></path>
            </g>
            <path d="M103.745567,113.956634 L107.526235,113.956634 L107.526235,128.659233 L110.49476,128.659233 L110.49476,133 L99.1247504,133 L99.1247504,128.659233 L102.485344,128.659233 L102.485344,119.08154 L99.1247504,120.341763 L99.1247504,115.720946 L103.745567,113.956634 Z M113.575304,113.928629 L126.037507,113.928629 L126.037507,118.269397 L118.224126,118.241392 L118.028091,121.041887 C118.728215,120.929867 119.428339,120.873857 120.072453,120.873857 C123.965141,120.873857 126.877655,122.638169 126.877655,126.922926 C126.877655,131.627757 122.704918,133.420074 118.448166,133.420074 C116.235775,133.420074 114.023384,132.94399 112.315082,132.131847 L112.315082,127.371005 C113.799344,128.407188 116.03974,128.939282 117.888067,128.939282 C120.044448,128.939282 121.69674,128.295168 121.69674,126.810906 C121.69674,125.606693 120.716566,124.68253 117.608017,124.654525 C116.403804,124.654525 114.667497,124.822555 112.903186,125.438664 L113.575304,113.928629 Z M136.819412,134.680297 L133.738868,134.680297 L145.192892,111.716238 L148.273437,111.716238 L136.819412,134.680297 Z M139.283848,118.017352 C139.283848,121.377946 136.819412,123.058243 133.962908,123.058243 C131.078398,123.058243 128.613962,121.377946 128.613962,118.017352 C128.613962,114.656758 131.078398,112.976461 133.962908,112.976461 C136.819412,112.976461 139.283848,114.656758 139.283848,118.017352 Z M132.310616,118.017352 C132.310616,118.857501 132.758695,119.697649 133.962908,119.697649 C135.139115,119.697649 135.587195,118.857501 135.587195,118.017352 C135.587195,117.177204 135.139115,116.337055 133.962908,116.337055 C132.758695,116.337055 132.310616,117.177204 132.310616,118.017352 Z M153.286323,128.379183 C153.286323,131.739777 150.821887,133.420074 147.965382,133.420074 C145.080873,133.420074 142.616437,131.739777 142.616437,128.379183 C142.616437,125.018589 145.080873,123.338292 147.965382,123.338292 C150.821887,123.338292 153.286323,125.018589 153.286323,128.379183 Z M146.31309,128.379183 C146.31309,129.219332 146.761169,130.05948 147.965382,130.05948 C149.14159,130.05948 149.589669,129.219332 149.589669,128.379183 C149.589669,127.539035 149.14159,126.698886 147.965382,126.698886 C146.761169,126.698886 146.31309,127.539035 146.31309,128.379183 Z" id="15%" fill="#131F3C" fill-rule="nonzero"></path>
            <g id="diskon" transform="translate(3.000000, 139.000000)" fill="#000000">
                <path d="M68.702,11.155 C68.702,8.05 71.416,6.578 74.59,6.578 C76.499,6.578 78.431,7.038 79.811,7.82 L79.811,11.04 C78.454,10.074 76.637,9.591 74.843,9.614 C73.095,9.637 72.221,10.12 72.221,11.109 C72.221,13.892 81.03,12.857 81.03,18.584 C81.03,22.195 78.132,23.322 74.751,23.322 C72.52,23.322 70.45,22.793 68.794,21.873 L68.794,18.584 C70.634,19.803 72.658,20.286 74.498,20.286 C76.361,20.286 77.511,19.895 77.511,18.745 C77.511,15.732 68.702,16.859 68.702,11.155 Z M82.364,17.641 C82.364,13.409 85.538,11.615 88.597,11.615 C89.816,11.615 91.012,11.891 92.001,12.42 L92.001,15.226 C91.219,14.72 90.115,14.398 89.057,14.398 C87.309,14.398 85.63,15.249 85.63,17.48 C85.63,19.596 87.286,20.562 89.011,20.562 C90.184,20.562 91.311,20.24 92.116,19.757 L92.116,22.586 C91.035,23.046 89.793,23.322 88.39,23.322 C85.377,23.322 82.364,21.574 82.364,17.641 Z M93.634,17.48 C93.634,13.616 96.532,11.638 99.729,11.638 C102.949,11.638 105.824,13.616 105.824,17.48 C105.824,21.344 102.949,23.322 99.729,23.322 C96.532,23.322 93.634,21.344 93.634,17.48 Z M102.581,17.48 C102.581,15.778 101.569,14.49 99.729,14.49 C97.912,14.49 96.9,15.778 96.9,17.48 C96.9,19.182 97.912,20.47 99.729,20.47 C101.569,20.47 102.581,19.182 102.581,17.48 Z M110.746,13.363 C111.597,12.374 112.839,11.638 114.426,11.638 C117.324,11.638 118.911,13.616 118.911,16.169 L118.911,23 L115.714,23 L115.714,16.583 C115.714,15.088 114.817,14.398 113.575,14.398 C112.448,14.398 111.574,15.134 111.114,15.801 L111.114,23 L107.917,23 L107.917,11.96 L110.746,11.96 L110.746,13.363 Z M122.223,8.74 L125.397,7.981 L125.397,11.96 L128.893,11.96 L128.893,14.651 L125.397,14.651 L125.397,18.975 C125.397,20.125 125.972,20.631 127.168,20.631 C127.904,20.631 128.525,20.516 129.169,20.263 L129.169,22.839 C128.318,23.138 127.306,23.322 126.202,23.322 C124.063,23.322 122.223,22.333 122.223,19.596 L122.223,14.651 L120.36,14.651 L120.36,11.96 L122.223,11.96 L122.223,8.74 Z M130.388,17.48 C130.388,13.616 133.286,11.638 136.483,11.638 C139.703,11.638 142.578,13.616 142.578,17.48 C142.578,21.344 139.703,23.322 136.483,23.322 C133.286,23.322 130.388,21.344 130.388,17.48 Z M139.335,17.48 C139.335,15.778 138.323,14.49 136.483,14.49 C134.666,14.49 133.654,15.778 133.654,17.48 C133.654,19.182 134.666,20.47 136.483,20.47 C138.323,20.47 139.335,19.182 139.335,17.48 Z M158.195,6.9 L161.369,6.9 L161.369,23 L158.563,23 L158.563,21.39 C157.85,22.379 156.585,23.322 154.561,23.322 C151.042,23.322 149.156,20.493 149.156,17.48 C149.156,14.467 151.042,11.638 154.561,11.638 C156.309,11.638 157.482,12.351 158.195,13.133 L158.195,6.9 Z M158.195,16.169 C157.758,15.203 156.723,14.329 155.32,14.329 C153.503,14.329 152.422,15.755 152.422,17.48 C152.422,19.205 153.503,20.631 155.32,20.631 C156.723,20.631 157.758,19.757 158.195,18.791 L158.195,16.169 Z M163.462,17.48 C163.462,13.317 166.659,11.638 169.143,11.638 C173.72,11.638 175.192,15.249 174.456,18.515 L166.682,18.515 C167.05,20.125 168.752,20.792 170.569,20.792 C171.834,20.792 172.961,20.539 173.904,20.125 L173.904,22.632 C172.869,23.069 171.512,23.322 169.856,23.322 C166.36,23.322 163.462,21.321 163.462,17.48 Z M171.581,16.445 C171.696,15.686 171.259,14.076 169.258,14.076 C167.901,14.076 166.705,14.927 166.659,16.445 L171.581,16.445 Z M176.71,6.21 L179.907,6.21 L179.907,23 L176.71,23 L176.71,6.21 Z" id="Sconto-del"></path>
            </g>
            <g id="16-17-Agustus" transform="translate(1.000000, 0.000000)" fill="#000000">
                <path d="M56,8 L58.725,8 L58.725,21.775 L61.575,21.775 L61.575,25 L51.875,25 L51.875,21.775 L55.075,21.775 L55.075,11.75 L51.875,12.95 L51.875,9.575 L56,8 Z M66.925,15.15 C68.425,14.35 69.8,14 71.475,14 C74.525,14 77.4,15.85 77.4,19.5 C77.4,23.375 74.375,25.35 70.9,25.35 C65.425,25.35 63.2,22 63.2,16.5 C63.2,10.275 66.95,7.65 71.275,7.65 C72.875,7.65 74.5,8.025 75.95,8.7 L75.95,12 C74.775,11.225 73.225,10.8 71.775,10.8 C69.475,10.8 67.375,11.775 66.925,15.15 Z M66.925,18.175 C67.275,21.35 68.65,22.3 70.6,22.3 C72.25,22.3 73.65,21.55 73.65,19.675 C73.65,17.725 72.075,17.125 70.325,17.125 C69.2,17.125 68,17.475 66.925,18.175 Z M79.55,17.45 L88.85,17.45 L88.85,20.375 L79.55,20.375 L79.55,17.45 Z M95.075,8 L97.8,8 L97.8,21.775 L100.65,21.775 L100.65,25 L90.95,25 L90.95,21.775 L94.15,21.775 L94.15,11.75 L90.95,12.95 L90.95,9.575 L95.075,8 Z M101.825,7.975 L114.9,7.975 L114.9,10.675 L107.925,25 L103.875,25 L110.6,11.2 L101.825,11.2 L101.825,7.975 Z M133.1,21.9 C133.1,22.525 133.5,22.7 133.95,22.7 C134.15,22.7 134.375,22.675 134.6,22.6 L134.6,24.875 C134.05,25.075 133.35,25.225 132.675,25.225 C131.45,25.225 130.525,24.775 130.025,23.875 C128.85,24.8 127.475,25.35 125.7,25.35 C123.45,25.35 121.5,24.05 121.5,21.675 C121.5,18.625 124.375,17.675 126.775,17.675 C127.725,17.675 128.775,17.8 129.625,18 L129.625,17.575 C129.625,16.375 128.675,15.55 126.8,15.55 C125.15,15.55 123.675,16 122.55,16.45 L122.55,13.45 C123.525,13.125 125.35,12.65 127.2,12.65 C130.8,12.65 133.1,14.125 133.1,18.075 L133.1,21.9 Z M127.575,19.75 C126.3,19.75 125.05,20.175 125.05,21.4 C125.05,22.3 125.875,22.875 126.925,22.875 C127.9,22.875 128.825,22.6 129.625,21.9 L129.625,20.025 C129.1,19.9 128.3,19.75 127.575,19.75 Z M135.575,19 C135.575,15.725 137.625,12.65 141.45,12.65 C143.65,12.65 145.025,13.675 145.8,14.75 L145.8,13 L148.85,13 L148.85,24.675 C148.85,29.25 145.475,30.85 141.95,30.85 C140.075,30.85 138.325,30.425 136.875,29.725 L136.875,26.675 C138.225,27.475 139.85,27.925 141.5,27.925 C143.625,27.925 145.4,27.2 145.4,24.825 L145.4,23.725 C144.625,24.575 143.35,25.35 141.45,25.35 C137.625,25.35 135.575,22.275 135.575,19 Z M145.4,17.575 C144.925,16.525 143.8,15.575 142.275,15.575 C140.3,15.575 139.125,17.125 139.125,19 C139.125,20.875 140.3,22.425 142.275,22.425 C143.8,22.425 144.925,21.5 145.4,20.5 L145.4,17.575 Z M151.125,19 C151.125,14.8 154.275,12.65 157.75,12.65 C161.25,12.65 164.375,14.8 164.375,19 C164.375,23.2 161.25,25.35 157.75,25.35 C154.275,25.35 151.125,23.2 151.125,19 Z M160.85,19 C160.85,17.15 159.75,15.75 157.75,15.75 C155.775,15.75 154.675,17.15 154.675,19 C154.675,20.85 155.775,22.25 157.75,22.25 C159.75,22.25 160.85,20.85 160.85,19 Z M166.125,16.35 C166.125,13.575 168.6,12.65 171.125,12.65 C172.825,12.65 174.325,13.075 175.55,13.675 L175.55,16.525 C174.525,15.825 172.775,15.3 171.35,15.3 C170.575,15.3 169.675,15.525 169.675,16.25 C169.675,18.25 176.45,17.25 176.45,21.65 C176.45,24.475 173.875,25.35 171,25.35 C169.175,25.35 167.45,24.95 166.225,24.225 L166.225,21.35 C167.525,22.2 169.35,22.625 170.8,22.625 C172.075,22.625 172.9,22.4 172.9,21.725 C172.9,19.8 166.125,20.65 166.125,16.35 Z M179.475,9.5 L182.925,8.675 L182.925,13 L186.725,13 L186.725,15.925 L182.925,15.925 L182.925,20.625 C182.925,21.875 183.55,22.425 184.85,22.425 C185.65,22.425 186.325,22.3 187.025,22.025 L187.025,24.825 C186.1,25.15 185,25.35 183.8,25.35 C181.475,25.35 179.475,24.275 179.475,21.3 L179.475,15.925 L177.45,15.925 L177.45,13 L179.475,13 L179.475,9.5 Z M188.35,19 C188.35,14.8 191.5,12.65 194.975,12.65 C198.475,12.65 201.6,14.8 201.6,19 C201.6,23.2 198.475,25.35 194.975,25.35 C191.5,25.35 188.35,23.2 188.35,19 Z M198.075,19 C198.075,17.15 196.975,15.75 194.975,15.75 C193,15.75 191.9,17.15 191.9,19 C191.9,20.85 193,22.25 194.975,22.25 C196.975,22.25 198.075,20.85 198.075,19 Z" id="16-17-agosto"></path>
            </g>
        </g>
    </g>
</svg>