<?xml version="1.0" encoding="UTF-8"?>
<svg width="250px" height="291px" viewBox="0 0 250 291" version="1.1" xmlns="http://www.w3.org/2000/svg" xmlns:xlink="http://www.w3.org/1999/xlink">
    <!-- Generator: Sketch 48.2 (47327) - http://www.bohemiancoding.com/sketch -->
    <title>text_1</title>
    <desc>Created with Sketch.</desc>
    <defs>
        <radialGradient cx="100%" cy="100%" fx="100%" fy="100%" r="50.0301469%" gradientTransform="translate(1.000000,1.000000),translate(-1.000000,-1.000000)" id="radialGradient-1">
            <stop stop-color="#8D00FF" offset="0%"></stop>
            <stop stop-color="#5C00FE" offset="69.8959662%"></stop>
            <stop stop-color="#8900FF" offset="100%"></stop>
        </radialGradient>
    </defs>
    <g id="Page-1" stroke="none" stroke-width="1" fill="none" fill-rule="evenodd">
        <g id="text_1" transform="translate(-3.000000, -7.000000)">
            <g id="1-copy" transform="translate(3.000000, 48.000000)" fill-rule="nonzero">
                <path d="M124.534208,0.7629689 C132.711116,0.7630043 140.809466,1.5606594 148.829249,3.1559305 C156.849031,4.7512051 164.636136,7.1134456 172.190582,10.2426509 C179.745051,13.3718515 186.921705,17.2078968 193.720557,21.7507781 C200.519385,26.2936634 206.80975,31.4560958 212.591686,37.2380753 C218.373622,43.0200542 223.535985,49.3104899 228.078816,56.109373 C232.621648,62.908265 236.457622,70.08496 239.586764,77.639458 C242.715941,85.193974 245.078181,92.981143 246.673414,101.000966 C248.268642,109.020783 249.066241,117.119169 249.066241,125.296094 C249.066206,133.473078 248.268572,141.571493 246.673269,149.591345 C245.078041,157.611197 242.715802,165.398378 239.586549,172.952916 C236.457372,180.507449 232.621334,187.684162 228.078462,194.483043 C223.535595,201.28193 218.373157,207.572364 212.591151,213.354352 C206.80918,219.13634 200.518781,224.298762 193.719865,228.841645 C186.920978,233.384512 179.744289,237.220539 172.189785,240.349698 C164.635281,243.478892 156.848106,245.841098 148.828289,247.436348 C140.808455,249.031593 132.710069,249.82921 124.533126,249.82921 C116.356143,249.829175 108.257746,249.031523 100.237911,247.436238 C92.2180591,245.840975 84.4308608,243.478736 76.8763221,240.349518 C69.3217834,237.220324 62.1450765,233.384285 55.3461899,228.841413 C48.5472975,224.298529 42.256863,219.136108 36.4748864,213.35412 C30.6929041,207.572155 25.5304769,201.281714 20.9876108,194.482834 C16.4447331,187.683947 12.6087116,180.507257 9.4795232,172.952736 C6.3503348,165.398232 3.98812395,157.611075 2.39288484,149.591257 C0.797622465,141.571423 0,133.473037 0,125.296094 C2.90693572e-05,117.119128 0.797680604,109.020731 2.3929546,101.000867 C3.9882286,92.981015 6.35046852,85.193829 9.47967436,77.639301 C12.6088802,70.084774 16.4449307,62.908062 20.9878143,56.109169 C25.530692,49.3102771 30.693125,43.0198327 36.4751074,37.2378532 C42.2570955,31.4558697 48.54753,26.2934419 55.346405,21.7505694 C62.1452858,17.2076974 69.3219985,13.3716695 76.8765023,10.2424863 C84.4310004,7.1133037 92.2181812,4.7510899 100.237998,3.1558462 C108.257815,1.5605977 116.356195,0.7629735 124.533126,0.7629735 L124.533022,56.802874 C120.03573,56.802903 115.581648,57.241612 111.170768,58.119019 C106.759883,58.996413 102.476984,60.295645 98.3220195,62.016702 C94.1670548,63.737771 90.2199129,65.847601 86.480547,68.346188 C82.741187,70.844775 79.2814858,73.684113 76.1014203,76.864202 C72.9213547,80.044291 70.0820343,83.504033 67.5834823,87.24341 C65.0849246,90.982799 62.9751229,94.929982 61.2540833,99.084958 C59.5330552,103.239934 58.233841,107.522874 57.356458,111.933789 C56.4791041,116.344668 56.0404243,120.798791 56.0404068,125.296112 C56.0404243,129.793432 56.479139,134.247573 57.3565452,138.658487 C58.2339282,143.069408 59.5331599,147.352347 61.2542228,151.507341 C62.9753032,155.66234 65.0851164,159.609523 67.5837091,163.348918 C70.0823017,167.088319 72.9216395,170.548072 76.1017226,173.728155 C79.2818172,176.908238 82.7415591,179.747576 86.4809366,182.246169 C90.2203198,184.744721 94.1674967,186.85454 98.3224788,188.575603 C102.477461,190.29666 106.7604,191.595892 111.171297,192.473281 C115.5822,193.350646 120.0363,193.789332 124.533621,193.789332 C129.030947,193.789314 133.485081,193.350611 137.896019,192.473228 C142.306916,191.595822 146.589873,190.29659 150.744873,188.57551 C154.899872,186.854453 158.847049,184.744634 162.58645,182.246041 C166.325827,179.747448 169.785569,176.908116 172.965664,173.728033 C176.145764,170.54795 178.985102,167.088208 181.483695,163.348813 C183.98227,159.609413 186.092083,155.662236 187.813129,151.507254 C189.534168,147.352272 190.8334,143.069332 191.710789,138.658435 C192.588172,134.24752 193.026857,129.793415 193.02684,125.296112 C193.026823,120.798791 192.588119,116.344651 191.710736,111.933736 C190.83333,107.522816 189.534099,103.239859 187.813018,99.084865 C186.091979,94.929871 183.982159,90.982683 181.483567,87.243294 C178.98498,83.503905 176.145625,80.044169 172.965542,76.86408 C169.785459,73.683985 166.325723,70.844659 162.586322,68.346078 C158.846927,65.847491 154.899744,63.737678 150.744762,62.016626 C146.589786,60.295575 142.306846,58.996349 137.895961,58.11896 C133.485047,57.241577 129.030947,56.802886 124.533621,56.802886 L124.534208,0.7629689 Z" id="Fill-8" fill="url(#radialGradient-1)"></path>
                <circle id="Oval" fill="#FFFFFF" cx="125.65842" cy="126.421389" r="87.3982442"></circle>
                <path d="M77.354572,152.478404 L75.0307539,152.478404 L75.0307539,149.335968 C73.0766341,149.124712 71.2281425,148.596571 69.7493492,147.777954 L69.7493492,144.820367 C71.78269,146.114311 74.1593221,146.642452 76.271884,146.642452 C78.6485161,146.642452 80.2593446,146.087904 80.2593446,144.345041 C80.2593446,140.067103 69.8285702,142.338107 69.8285702,135.789165 C69.8285702,132.778764 72.1259813,131.167936 75.0307539,130.824644 L75.0307539,127.655802 L77.354572,127.655802 L77.354572,130.798237 C79.1238426,130.930273 80.8931132,131.405599 82.1342433,132.144996 L82.1342433,135.023361 C80.6290429,134.019894 78.5692951,133.465347 76.5887683,133.491754 C74.3441713,133.491754 72.891785,134.151929 72.891785,135.736351 C72.891785,139.723811 83.3225593,137.584843 83.3225593,144.186598 C83.3225593,147.751547 80.65545,149.177526 77.354572,149.362375 L77.354572,152.478404 Z M85.4879353,140.067103 C85.4879353,134.812105 87.9701955,130.745423 93.5420775,130.745423 C99.1139595,130.745423 101.59622,134.812105 101.59622,140.067103 C101.59622,145.3221 99.1139595,149.388782 93.5420775,149.388782 C87.9701955,149.388782 85.4879353,145.3221 85.4879353,140.067103 Z M98.559412,140.067103 C98.559412,135.894793 96.9749906,133.491754 93.5420775,133.491754 C90.0827574,133.491754 88.524743,135.894793 88.524743,140.067103 C88.524743,144.239413 90.0827574,146.642452 93.5420775,146.642452 C96.9749906,146.642452 98.559412,144.239413 98.559412,140.067103 Z M107.696242,147.593105 C107.696242,148.781421 106.877625,149.335968 105.926972,149.335968 C104.976319,149.335968 104.131294,148.781421 104.131294,147.593105 C104.131294,146.457602 104.976319,145.903055 105.926972,145.903055 C106.877625,145.903055 107.696242,146.457602 107.696242,147.593105 Z M110.231317,140.067103 C110.231317,134.812105 112.713577,130.745423 118.285459,130.745423 C123.857341,130.745423 126.339601,134.812105 126.339601,140.067103 C126.339601,145.3221 123.857341,149.388782 118.285459,149.388782 C112.713577,149.388782 110.231317,145.3221 110.231317,140.067103 Z M123.302793,140.067103 C123.302793,135.894793 121.718372,133.491754 118.285459,133.491754 C114.826139,133.491754 113.268124,135.894793 113.268124,140.067103 C113.268124,144.239413 114.826139,146.642452 118.285459,146.642452 C121.718372,146.642452 123.302793,144.239413 123.302793,140.067103 Z M137.800249,131.088715 L140.889871,131.088715 L140.889871,142.760619 L143.979493,142.760619 L143.979493,145.374915 L140.889871,145.374915 L140.889871,149.045491 L137.985098,149.045491 L137.985098,145.374915 L128.240907,145.374915 L128.240907,142.813433 L137.800249,131.088715 Z M137.985098,142.760619 L137.985098,134.917733 L131.594599,142.760619 L137.985098,142.760619 Z M146.012834,140.067103 C146.012834,134.812105 148.495094,130.745423 154.066976,130.745423 C159.638858,130.745423 162.121118,134.812105 162.121118,140.067103 C162.121118,145.3221 159.638858,149.388782 154.066976,149.388782 C148.495094,149.388782 146.012834,145.3221 146.012834,140.067103 Z M159.08431,140.067103 C159.08431,135.894793 157.499889,133.491754 154.066976,133.491754 C150.607656,133.491754 149.049641,135.894793 149.049641,140.067103 C149.049641,144.239413 150.607656,146.642452 154.066976,146.642452 C157.499889,146.642452 159.08431,144.239413 159.08431,140.067103 Z M164.656192,140.067103 C164.656192,134.812105 167.138453,130.745423 172.710335,130.745423 C178.282217,130.745423 180.764477,134.812105 180.764477,140.067103 C180.764477,145.3221 178.282217,149.388782 172.710335,149.388782 C167.138453,149.388782 164.656192,145.3221 164.656192,140.067103 Z M177.727669,140.067103 C177.727669,135.894793 176.143248,133.491754 172.710335,133.491754 C169.251015,133.491754 167.693,135.894793 167.693,140.067103 C167.693,144.239413 169.251015,146.642452 172.710335,146.642452 C176.143248,146.642452 177.727669,144.239413 177.727669,140.067103 Z M90.6637119,163.088715 L92.8819019,163.088715 L92.8819019,178.325567 L96.0771518,178.325567 L96.0771518,181.045491 L86.306553,181.045491 L86.306553,178.325567 L89.8979083,178.325567 L89.8979083,166.178336 L86.306553,167.525095 L86.306553,164.752357 L90.6637119,163.088715 Z M121.903221,162.560574 L124.623144,162.560574 L124.623144,181.045491 L121.612744,181.045491 L121.612744,168.106049 L115.776791,176.873181 L113.981114,176.873181 L108.145162,168.079642 L108.145162,181.045491 L105.134761,181.045491 L105.134761,162.560574 L107.854684,162.560574 L114.878953,173.149791 L121.903221,162.560574 Z M132.122739,181.045491 L129.112338,181.045491 L129.112338,162.560574 L131.93789,162.560574 L141.893338,176.08097 C141.866931,175.447202 141.866931,174.734212 141.866931,174.04763 L141.866931,162.560574 L144.877332,162.560574 L144.877332,181.045491 L142.05178,181.045491 L132.096332,167.525095 C132.122739,168.158863 132.122739,168.871853 132.122739,169.532028 L132.122739,181.045491 Z M152.376926,181.045491 L149.366526,181.045491 L149.366526,162.560574 L156.760492,162.560574 C160.219812,162.560574 163.863982,163.933739 163.863982,168.343712 C163.863982,171.64459 161.804234,173.229012 159.374788,173.809966 L165.289961,181.045491 L161.672199,181.045491 L156.126724,174.126851 L152.376926,174.126851 L152.376926,181.045491 Z M152.376926,165.306905 L152.376926,171.459741 L156.892527,171.459741 C158.873054,171.459741 160.800767,170.746752 160.800767,168.396526 C160.800767,166.019894 158.873054,165.306905 156.892527,165.306905 L152.376926,165.306905 Z" id="$0.0400-1-MNR" fill="#131F3C"></path>
            </g>
            <path d="M98.044206,115.636931 C100.060562,114.208679 102.412978,113.53656 104.849409,113.53656 C108.658082,113.53656 112.046681,115.216857 112.046681,119.445604 C112.046681,122.666174 109.414215,124.57051 107.00579,126.026768 C104.961428,127.258985 103.365146,128.155144 103.365146,128.659233 L112.186705,128.659233 L112.186705,133 L97.4280971,133 L97.4280971,130.731599 C97.4280971,126.138787 100.928716,124.346471 103.645196,122.750188 C105.409508,121.714005 106.865765,121.181911 106.865765,119.725654 C106.865765,118.577451 105.829582,118.017352 104.373325,118.017352 C102.468988,118.017352 100.116572,118.773486 98.044206,120.397773 L98.044206,115.636931 Z M114.483111,123.478317 C114.483111,118.045357 117.087572,113.53656 123.30467,113.53656 C129.521769,113.53656 132.126229,118.045357 132.126229,123.478317 C132.126229,128.911277 129.521769,133.420074 123.30467,133.420074 C117.087572,133.420074 114.483111,128.911277 114.483111,123.478317 Z M126.945314,123.478317 C126.945314,119.809669 125.797111,118.017352 123.30467,118.017352 C120.81223,118.017352 119.664027,119.809669 119.664027,123.478317 C119.664027,127.146966 120.81223,128.939282 123.30467,128.939282 C125.797111,128.939282 126.945314,127.146966 126.945314,123.478317 Z M142.180006,134.680297 L139.099462,134.680297 L150.553486,111.716238 L153.634031,111.716238 L142.180006,134.680297 Z M144.644442,118.017352 C144.644442,121.377946 142.180006,123.058243 139.323502,123.058243 C136.438992,123.058243 133.974556,121.377946 133.974556,118.017352 C133.974556,114.656758 136.438992,112.976461 139.323502,112.976461 C142.180006,112.976461 144.644442,114.656758 144.644442,118.017352 Z M137.671209,118.017352 C137.671209,118.857501 138.119289,119.697649 139.323502,119.697649 C140.499709,119.697649 140.947789,118.857501 140.947789,118.017352 C140.947789,117.177204 140.499709,116.337055 139.323502,116.337055 C138.119289,116.337055 137.671209,117.177204 137.671209,118.017352 Z M158.646917,128.379183 C158.646917,131.739777 156.182481,133.420074 153.325976,133.420074 C150.441466,133.420074 147.977031,131.739777 147.977031,128.379183 C147.977031,125.018589 150.441466,123.338292 153.325976,123.338292 C156.182481,123.338292 158.646917,125.018589 158.646917,128.379183 Z M151.673684,128.379183 C151.673684,129.219332 152.121763,130.05948 153.325976,130.05948 C154.502184,130.05948 154.950263,129.219332 154.950263,128.379183 C154.950263,127.539035 154.502184,126.698886 153.325976,126.698886 C152.121763,126.698886 151.673684,127.539035 151.673684,128.379183 Z" id="20%" fill="#131F3C" fill-rule="nonzero"></path>
            <g id="diskon" transform="translate(1.000000, 139.000000)" fill="#000000">
                <path d="M70.702,11.155 C70.702,8.05 73.416,6.578 76.59,6.578 C78.499,6.578 80.431,7.038 81.811,7.82 L81.811,11.04 C80.454,10.074 78.637,9.591 76.843,9.614 C75.095,9.637 74.221,10.12 74.221,11.109 C74.221,13.892 83.03,12.857 83.03,18.584 C83.03,22.195 80.132,23.322 76.751,23.322 C74.52,23.322 72.45,22.793 70.794,21.873 L70.794,18.584 C72.634,19.803 74.658,20.286 76.498,20.286 C78.361,20.286 79.511,19.895 79.511,18.745 C79.511,15.732 70.702,16.859 70.702,11.155 Z M84.364,17.641 C84.364,13.409 87.538,11.615 90.597,11.615 C91.816,11.615 93.012,11.891 94.001,12.42 L94.001,15.226 C93.219,14.72 92.115,14.398 91.057,14.398 C89.309,14.398 87.63,15.249 87.63,17.48 C87.63,19.596 89.286,20.562 91.011,20.562 C92.184,20.562 93.311,20.24 94.116,19.757 L94.116,22.586 C93.035,23.046 91.793,23.322 90.39,23.322 C87.377,23.322 84.364,21.574 84.364,17.641 Z M95.634,17.48 C95.634,13.616 98.532,11.638 101.729,11.638 C104.949,11.638 107.824,13.616 107.824,17.48 C107.824,21.344 104.949,23.322 101.729,23.322 C98.532,23.322 95.634,21.344 95.634,17.48 Z M104.581,17.48 C104.581,15.778 103.569,14.49 101.729,14.49 C99.912,14.49 98.9,15.778 98.9,17.48 C98.9,19.182 99.912,20.47 101.729,20.47 C103.569,20.47 104.581,19.182 104.581,17.48 Z M112.746,13.363 C113.597,12.374 114.839,11.638 116.426,11.638 C119.324,11.638 120.911,13.616 120.911,16.169 L120.911,23 L117.714,23 L117.714,16.583 C117.714,15.088 116.817,14.398 115.575,14.398 C114.448,14.398 113.574,15.134 113.114,15.801 L113.114,23 L109.917,23 L109.917,11.96 L112.746,11.96 L112.746,13.363 Z M124.223,8.74 L127.397,7.981 L127.397,11.96 L130.893,11.96 L130.893,14.651 L127.397,14.651 L127.397,18.975 C127.397,20.125 127.972,20.631 129.168,20.631 C129.904,20.631 130.525,20.516 131.169,20.263 L131.169,22.839 C130.318,23.138 129.306,23.322 128.202,23.322 C126.063,23.322 124.223,22.333 124.223,19.596 L124.223,14.651 L122.36,14.651 L122.36,11.96 L124.223,11.96 L124.223,8.74 Z M132.388,17.48 C132.388,13.616 135.286,11.638 138.483,11.638 C141.703,11.638 144.578,13.616 144.578,17.48 C144.578,21.344 141.703,23.322 138.483,23.322 C135.286,23.322 132.388,21.344 132.388,17.48 Z M141.335,17.48 C141.335,15.778 140.323,14.49 138.483,14.49 C136.666,14.49 135.654,15.778 135.654,17.48 C135.654,19.182 136.666,20.47 138.483,20.47 C140.323,20.47 141.335,19.182 141.335,17.48 Z M160.195,6.9 L163.369,6.9 L163.369,23 L160.563,23 L160.563,21.39 C159.85,22.379 158.585,23.322 156.561,23.322 C153.042,23.322 151.156,20.493 151.156,17.48 C151.156,14.467 153.042,11.638 156.561,11.638 C158.309,11.638 159.482,12.351 160.195,13.133 L160.195,6.9 Z M160.195,16.169 C159.758,15.203 158.723,14.329 157.32,14.329 C155.503,14.329 154.422,15.755 154.422,17.48 C154.422,19.205 155.503,20.631 157.32,20.631 C158.723,20.631 159.758,19.757 160.195,18.791 L160.195,16.169 Z M165.462,17.48 C165.462,13.317 168.659,11.638 171.143,11.638 C175.72,11.638 177.192,15.249 176.456,18.515 L168.682,18.515 C169.05,20.125 170.752,20.792 172.569,20.792 C173.834,20.792 174.961,20.539 175.904,20.125 L175.904,22.632 C174.869,23.069 173.512,23.322 171.856,23.322 C168.36,23.322 165.462,21.321 165.462,17.48 Z M173.581,16.445 C173.696,15.686 173.259,14.076 171.258,14.076 C169.901,14.076 168.705,14.927 168.659,16.445 L173.581,16.445 Z M178.71,6.21 L181.907,6.21 L181.907,23 L178.71,23 L178.71,6.21 Z" id="Sconto-del"></path>
            </g>
            <g id="15-Agustus" fill="#000000">
                <path d="M75.25,8 L77.975,8 L77.975,21.775 L80.825,21.775 L80.825,25 L71.125,25 L71.125,21.775 L74.325,21.775 L74.325,11.75 L71.125,12.95 L71.125,9.575 L75.25,8 Z M83.6,7.975 L94.4,7.975 L94.4,11.2 L86.975,11.175 L86.75,14.5 C87.475,14.35 88.25,14.25 88.95,14.25 C92.35,14.25 95.175,15.775 95.175,19.675 C95.175,23.625 91.725,25.35 87.975,25.35 C86,25.35 84,24.925 82.5,24.2 L82.5,20.725 C83.875,21.6 85.85,22.075 87.55,22.075 C89.775,22.075 91.425,21.275 91.425,19.625 C91.425,17.95 90,17.125 87.275,17.125 C86.05,17.125 84.475,17.325 83,17.85 L83.6,7.975 Z M113.85,21.9 C113.85,22.525 114.25,22.7 114.7,22.7 C114.9,22.7 115.125,22.675 115.35,22.6 L115.35,24.875 C114.8,25.075 114.1,25.225 113.425,25.225 C112.2,25.225 111.275,24.775 110.775,23.875 C109.6,24.8 108.225,25.35 106.45,25.35 C104.2,25.35 102.25,24.05 102.25,21.675 C102.25,18.625 105.125,17.675 107.525,17.675 C108.475,17.675 109.525,17.8 110.375,18 L110.375,17.575 C110.375,16.375 109.425,15.55 107.55,15.55 C105.9,15.55 104.425,16 103.3,16.45 L103.3,13.45 C104.275,13.125 106.1,12.65 107.95,12.65 C111.55,12.65 113.85,14.125 113.85,18.075 L113.85,21.9 Z M108.325,19.75 C107.05,19.75 105.8,20.175 105.8,21.4 C105.8,22.3 106.625,22.875 107.675,22.875 C108.65,22.875 109.575,22.6 110.375,21.9 L110.375,20.025 C109.85,19.9 109.05,19.75 108.325,19.75 Z M116.325,19 C116.325,15.725 118.375,12.65 122.2,12.65 C124.4,12.65 125.775,13.675 126.55,14.75 L126.55,13 L129.6,13 L129.6,24.675 C129.6,29.25 126.225,30.85 122.7,30.85 C120.825,30.85 119.075,30.425 117.625,29.725 L117.625,26.675 C118.975,27.475 120.6,27.925 122.25,27.925 C124.375,27.925 126.15,27.2 126.15,24.825 L126.15,23.725 C125.375,24.575 124.1,25.35 122.2,25.35 C118.375,25.35 116.325,22.275 116.325,19 Z M126.15,17.575 C125.675,16.525 124.55,15.575 123.025,15.575 C121.05,15.575 119.875,17.125 119.875,19 C119.875,20.875 121.05,22.425 123.025,22.425 C124.55,22.425 125.675,21.5 126.15,20.5 L126.15,17.575 Z M131.875,19 C131.875,14.8 135.025,12.65 138.5,12.65 C142,12.65 145.125,14.8 145.125,19 C145.125,23.2 142,25.35 138.5,25.35 C135.025,25.35 131.875,23.2 131.875,19 Z M141.6,19 C141.6,17.15 140.5,15.75 138.5,15.75 C136.525,15.75 135.425,17.15 135.425,19 C135.425,20.85 136.525,22.25 138.5,22.25 C140.5,22.25 141.6,20.85 141.6,19 Z M146.875,16.35 C146.875,13.575 149.35,12.65 151.875,12.65 C153.575,12.65 155.075,13.075 156.3,13.675 L156.3,16.525 C155.275,15.825 153.525,15.3 152.1,15.3 C151.325,15.3 150.425,15.525 150.425,16.25 C150.425,18.25 157.2,17.25 157.2,21.65 C157.2,24.475 154.625,25.35 151.75,25.35 C149.925,25.35 148.2,24.95 146.975,24.225 L146.975,21.35 C148.275,22.2 150.1,22.625 151.55,22.625 C152.825,22.625 153.65,22.4 153.65,21.725 C153.65,19.8 146.875,20.65 146.875,16.35 Z M160.225,9.5 L163.675,8.675 L163.675,13 L167.475,13 L167.475,15.925 L163.675,15.925 L163.675,20.625 C163.675,21.875 164.3,22.425 165.6,22.425 C166.4,22.425 167.075,22.3 167.775,22.025 L167.775,24.825 C166.85,25.15 165.75,25.35 164.55,25.35 C162.225,25.35 160.225,24.275 160.225,21.3 L160.225,15.925 L158.2,15.925 L158.2,13 L160.225,13 L160.225,9.5 Z M169.1,19 C169.1,14.8 172.25,12.65 175.725,12.65 C179.225,12.65 182.35,14.8 182.35,19 C182.35,23.2 179.225,25.35 175.725,25.35 C172.25,25.35 169.1,23.2 169.1,19 Z M178.825,19 C178.825,17.15 177.725,15.75 175.725,15.75 C173.75,15.75 172.65,17.15 172.65,19 C172.65,20.85 173.75,22.25 175.725,22.25 C177.725,22.25 178.825,20.85 178.825,19 Z" id="15-agosto"></path>
            </g>
        </g>
    </g>
</svg>