<?xml version="1.0" encoding="UTF-8"?>
<svg width="250px" height="294px" viewBox="0 0 250 294" version="1.1" xmlns="http://www.w3.org/2000/svg" xmlns:xlink="http://www.w3.org/1999/xlink">
    <!-- Generator: Sketch 48.2 (47327) - http://www.bohemiancoding.com/sketch -->
    <title>text_0</title>
    <desc>Created with Sketch.</desc>
    <defs>
        <radialGradient cx="100%" cy="100%" fx="100%" fy="100%" r="50.0301469%" gradientTransform="translate(1.000000,1.000000),translate(-1.000000,-1.000000)" id="radialGradient-1">
            <stop stop-color="#8800FF" offset="0%"></stop>
            <stop stop-color="#8600FB" offset="71.050849%"></stop>
            <stop stop-color="#EB00FE" offset="100%"></stop>
        </radialGradient>
    </defs>
    <g id="Page-1" stroke="none" stroke-width="1" fill="none" fill-rule="evenodd">
        <g id="text_0" transform="translate(0.000000, -4.000000)">
            <path d="M124.534208,48.7629689 C132.711116,48.7630043 140.809466,49.5606594 148.829249,51.1559305 C156.849031,52.7512051 164.636136,55.1134456 172.190582,58.2426509 C179.745051,61.3718515 186.921705,65.2078968 193.720557,69.7507781 C200.519385,74.2936634 206.80975,79.4560958 212.591686,85.2380753 C218.373622,91.0200542 223.535985,97.3104899 228.078816,104.109372 C232.621648,110.908265 236.457622,118.08496 239.586764,125.639458 C242.715941,133.193974 245.078181,140.981143 246.673414,149.000966 C248.268642,157.020783 249.066241,165.119169 249.066241,173.296094 C249.066206,181.473078 248.268572,189.571493 246.673269,197.591345 C245.078041,205.611197 242.715802,213.398378 239.586549,220.952916 C236.457372,228.507449 232.621334,235.684162 228.078462,242.483043 C223.535595,249.28193 218.373157,255.572364 212.591151,261.354352 C206.80918,267.13634 200.518781,272.298762 193.719865,276.841645 C186.920978,281.384512 179.744289,285.220539 172.189785,288.349698 C164.635281,291.478892 156.848106,293.841098 148.828289,295.436348 C140.808455,297.031593 132.710069,297.82921 124.533126,297.82921 C116.356143,297.829175 108.257746,297.031523 100.237911,295.436238 C92.218059,293.840975 84.430861,291.478736 76.876322,288.349518 C69.321783,285.220324 62.145077,281.384285 55.34619,276.841413 C48.547297,272.298529 42.256863,267.136108 36.4748864,261.35412 C30.6929041,255.572155 25.5304769,249.281714 20.9876108,242.482834 C16.4447331,235.683947 12.6087116,228.507257 9.4795232,220.952736 C6.3503348,213.398232 3.988124,205.611075 2.3928848,197.591257 C0.7976225,189.571423 0,181.473037 0,173.296094 C2.91e-05,165.119128 0.7976806,157.020731 2.3929546,149.000867 C3.9882286,140.981015 6.3504685,133.193829 9.4796744,125.639301 C12.6088802,118.084774 16.4449307,110.908062 20.9878143,104.109169 C25.530692,97.3102771 30.693125,91.0198327 36.4751074,85.2378532 C42.2570955,79.4558697 48.54753,74.2934419 55.346405,69.7505694 C62.145286,65.2076974 69.321999,61.3716695 76.876502,58.2424863 C84.431,55.1133037 92.218181,52.7510899 100.237998,51.1558462 C108.257815,49.5605977 116.356195,48.7629735 124.533126,48.7629735 L124.533022,104.802874 C120.03573,104.802903 115.581648,105.241612 111.170768,106.119019 C106.759883,106.996413 102.476984,108.295645 98.32202,110.016702 C94.167055,111.737771 90.219913,113.847601 86.480547,116.346188 C82.741187,118.844775 79.281486,121.684113 76.10142,124.864202 C72.921355,128.044291 70.082034,131.504033 67.583482,135.24341 C65.084925,138.982799 62.975123,142.929982 61.254083,147.084958 C59.533055,151.239934 58.233841,155.522874 57.356458,159.933789 C56.479104,164.344668 56.040424,168.798791 56.040407,173.296112 C56.040424,177.793432 56.479139,182.247573 57.356545,186.658487 C58.233928,191.069408 59.53316,195.352347 61.254223,199.507341 C62.975303,203.66234 65.085116,207.609523 67.583709,211.348918 C70.082302,215.088319 72.921639,218.548072 76.101723,221.728155 C79.281817,224.908238 82.741559,227.747576 86.480937,230.246169 C90.22032,232.744721 94.167497,234.85454 98.322479,236.575603 C102.477461,238.29666 106.7604,239.595892 111.171297,240.473281 C115.5822,241.350646 120.0363,241.789332 124.533621,241.789332 C129.030947,241.789314 133.485081,241.350611 137.896019,240.473228 C142.306916,239.595822 146.589873,238.29659 150.744873,236.57551 C154.899872,234.854453 158.847049,232.744634 162.58645,230.246041 C166.325827,227.747448 169.785569,224.908116 172.965664,221.728033 C176.145764,218.54795 178.985102,215.088208 181.483695,211.348813 C183.98227,207.609413 186.092083,203.662236 187.813129,199.507254 C189.534168,195.352272 190.8334,191.069332 191.710789,186.658435 C192.588172,182.24752 193.026857,177.793415 193.02684,173.296112 C193.026823,168.798791 192.588119,164.344651 191.710736,159.933736 C190.83333,155.522816 189.534099,151.239859 187.813018,147.084865 C186.091979,142.929871 183.982159,138.982683 181.483567,135.243294 C178.98498,131.503905 176.145625,128.044169 172.965542,124.86408 C169.785459,121.683985 166.325723,118.844659 162.586322,116.346078 C158.846927,113.847491 154.899744,111.737678 150.744762,110.016626 C146.589786,108.295575 142.306846,106.996349 137.895961,106.11896 C133.485047,105.241577 129.030947,104.802886 124.533621,104.802886 L124.534208,48.7629689 Z" id="Fill-8" fill="url(#radialGradient-1)" fill-rule="nonzero"></path>
            <circle id="Oval" fill="#FFFFFF" fill-rule="nonzero" cx="125.65842" cy="174.421389" r="87.3982442"></circle>
            <path d="M79.810425,200.478404 L77.486607,200.478404 L77.486607,197.335968 C75.532487,197.124712 73.683996,196.596571 72.205202,195.777954 L72.205202,192.820367 C74.238543,194.114311 76.615175,194.642452 78.727737,194.642452 C81.104369,194.642452 82.715198,194.087904 82.715198,192.345041 C82.715198,188.067103 72.284423,190.338107 72.284423,183.789165 C72.284423,180.778764 74.581835,179.167936 77.486607,178.824644 L77.486607,175.655802 L79.810425,175.655802 L79.810425,178.798237 C81.579696,178.930273 83.348966,179.405599 84.590097,180.144996 L84.590097,183.023361 C83.084896,182.019894 81.025148,181.465347 79.044622,181.491754 C76.800025,181.491754 75.347638,182.151929 75.347638,183.736351 C75.347638,187.723811 85.778413,185.584843 85.778413,192.186598 C85.778413,195.751547 83.111303,197.177526 79.810425,197.362375 L79.810425,200.478404 Z M87.943789,188.067103 C87.943789,182.812105 90.426049,178.745423 95.997931,178.745423 C101.569813,178.745423 104.052073,182.812105 104.052073,188.067103 C104.052073,193.3221 101.569813,197.388782 95.997931,197.388782 C90.426049,197.388782 87.943789,193.3221 87.943789,188.067103 Z M101.015265,188.067103 C101.015265,183.894793 99.430844,181.491754 95.997931,181.491754 C92.538611,181.491754 90.980596,183.894793 90.980596,188.067103 C90.980596,192.239413 92.538611,194.642452 95.997931,194.642452 C99.430844,194.642452 101.015265,192.239413 101.015265,188.067103 Z M110.152095,195.593105 C110.152095,196.781421 109.333478,197.335968 108.382825,197.335968 C107.432172,197.335968 106.587147,196.781421 106.587147,195.593105 C106.587147,194.457602 107.432172,193.903055 108.382825,193.903055 C109.333478,193.903055 110.152095,194.457602 110.152095,195.593105 Z M112.68717,188.067103 C112.68717,182.812105 115.16943,178.745423 120.741312,178.745423 C126.313194,178.745423 128.795454,182.812105 128.795454,188.067103 C128.795454,193.3221 126.313194,197.388782 120.741312,197.388782 C115.16943,197.388782 112.68717,193.3221 112.68717,188.067103 Z M125.758646,188.067103 C125.758646,183.894793 124.174225,181.491754 120.741312,181.491754 C117.281992,181.491754 115.723977,183.894793 115.723977,188.067103 C115.723977,192.239413 117.281992,194.642452 120.741312,194.642452 C124.174225,194.642452 125.758646,192.239413 125.758646,188.067103 Z M131.805855,180.567508 C133.654347,179.299971 135.687687,178.745423 137.773842,178.745423 C141.418012,178.745423 144.085121,180.435473 144.085121,183.789165 C144.085121,186.825973 141.550047,188.62165 139.1206,190.074037 C136.796782,191.447202 134.604999,192.556297 134.578592,194.351974 L144.217156,194.325567 L144.217156,197.045491 L131.198493,197.045491 L131.198493,195.672326 C131.198493,191.28876 134.446557,189.625117 137.166481,188.014289 C139.252636,186.799566 141.07472,185.87532 141.07472,183.841979 C141.07472,182.283965 139.727962,181.465347 137.509772,181.465347 C135.687687,181.465347 133.707161,182.099115 131.805855,183.472281 L131.805855,180.567508 Z M147.940546,179.088715 L159.005089,179.088715 L159.005089,181.782231 L150.713284,181.782231 L150.449214,186.112983 C151.320645,185.901727 152.244891,185.796099 153.169137,185.796099 C156.628457,185.796099 159.850114,187.301299 159.850114,191.526423 C159.850114,195.408255 156.549236,197.388782 152.588183,197.388782 C150.502028,197.388782 148.415873,196.939863 146.831451,196.174059 L146.831451,193.348508 C148.336652,194.219939 150.369993,194.668859 152.244891,194.668859 C154.912001,194.668859 156.813306,193.612578 156.813306,191.500016 C156.813306,189.123384 154.779966,188.278359 151.928007,188.278359 C150.475621,188.278359 148.811978,188.568836 147.359592,189.07057 L147.940546,179.088715 Z M162.200339,188.067103 C162.200339,182.812105 164.682599,178.745423 170.254481,178.745423 C175.826363,178.745423 178.308624,182.812105 178.308624,188.067103 C178.308624,193.3221 175.826363,197.388782 170.254481,197.388782 C164.682599,197.388782 162.200339,193.3221 162.200339,188.067103 Z M175.271816,188.067103 C175.271816,183.894793 173.687395,181.491754 170.254481,181.491754 C166.795161,181.491754 165.237147,183.894793 165.237147,188.067103 C165.237147,192.239413 166.795161,194.642452 170.254481,194.642452 C173.687395,194.642452 175.271816,192.239413 175.271816,188.067103 Z M90.663712,211.088715 L92.881902,211.088715 L92.881902,226.325567 L96.077152,226.325567 L96.077152,229.045491 L86.306553,229.045491 L86.306553,226.325567 L89.897908,226.325567 L89.897908,214.178336 L86.306553,215.525095 L86.306553,212.752357 L90.663712,211.088715 Z M121.903221,210.560574 L124.623144,210.560574 L124.623144,229.045491 L121.612744,229.045491 L121.612744,216.106049 L115.776791,224.873181 L113.981114,224.873181 L108.145162,216.079642 L108.145162,229.045491 L105.134761,229.045491 L105.134761,210.560574 L107.854684,210.560574 L114.878953,221.149791 L121.903221,210.560574 Z M132.122739,229.045491 L129.112338,229.045491 L129.112338,210.560574 L131.93789,210.560574 L141.893338,224.08097 C141.866931,223.447202 141.866931,222.734212 141.866931,222.04763 L141.866931,210.560574 L144.877332,210.560574 L144.877332,229.045491 L142.05178,229.045491 L132.096332,215.525095 C132.122739,216.158863 132.122739,216.871853 132.122739,217.532028 L132.122739,229.045491 Z M152.376926,229.045491 L149.366526,229.045491 L149.366526,210.560574 L156.760492,210.560574 C160.219812,210.560574 163.863982,211.933739 163.863982,216.343712 C163.863982,219.64459 161.804234,221.229012 159.374788,221.809966 L165.289961,229.045491 L161.672199,229.045491 L156.126724,222.126851 L152.376926,222.126851 L152.376926,229.045491 Z M152.376926,213.306905 L152.376926,219.459741 L156.892527,219.459741 C158.873054,219.459741 160.800767,218.746752 160.800767,216.396526 C160.800767,214.019894 158.873054,213.306905 156.892527,213.306905 L152.376926,213.306905 Z" id="$0.0250-1-MNR" fill="#6202E1" fill-rule="nonzero"></path>
            <path d="M96.942498,110.251 L109.847498,110.251 L109.847498,114.746 L101.756498,114.717 L101.553498,117.617 C102.278498,117.501 103.003498,117.443 103.670498,117.443 C107.701498,117.443 110.717498,119.27 110.717498,123.707 C110.717498,128.579 106.396498,130.435 101.988498,130.435 C99.697498,130.435 97.406498,129.942 95.637498,129.101 L95.637498,124.171 C97.174498,125.244 99.494498,125.795 101.408498,125.795 C103.641498,125.795 105.352498,125.128 105.352498,123.591 C105.352498,122.344 104.337498,121.387 101.118498,121.358 C99.871498,121.358 98.073498,121.532 96.246498,122.17 L96.942498,110.251 Z M112.863498,120.14 C112.863498,114.514 115.560498,109.845 121.998498,109.845 C128.436498,109.845 131.133498,114.514 131.133498,120.14 C131.133498,125.766 128.436498,130.435 121.998498,130.435 C115.560498,130.435 112.863498,125.766 112.863498,120.14 Z M125.768498,120.14 C125.768498,116.341 124.579498,114.485 121.998498,114.485 C119.417498,114.485 118.228498,116.341 118.228498,120.14 C118.228498,123.939 119.417498,125.795 121.998498,125.795 C124.579498,125.795 125.768498,123.939 125.768498,120.14 Z M141.544498,131.74 L138.354498,131.74 L150.215498,107.96 L153.405498,107.96 L141.544498,131.74 Z M144.096498,114.485 C144.096498,117.965 141.544498,119.705 138.586498,119.705 C135.599498,119.705 133.047498,117.965 133.047498,114.485 C133.047498,111.005 135.599498,109.265 138.586498,109.265 C141.544498,109.265 144.096498,111.005 144.096498,114.485 Z M136.875498,114.485 C136.875498,115.355 137.339498,116.225 138.586498,116.225 C139.804498,116.225 140.268498,115.355 140.268498,114.485 C140.268498,113.615 139.804498,112.745 138.586498,112.745 C137.339498,112.745 136.875498,113.615 136.875498,114.485 Z M158.596498,125.215 C158.596498,128.695 156.044498,130.435 153.086498,130.435 C150.099498,130.435 147.547498,128.695 147.547498,125.215 C147.547498,121.735 150.099498,119.995 153.086498,119.995 C156.044498,119.995 158.596498,121.735 158.596498,125.215 Z M151.375498,125.215 C151.375498,126.085 151.839498,126.955 153.086498,126.955 C154.304498,126.955 154.768498,126.085 154.768498,125.215 C154.768498,124.345 154.304498,123.475 153.086498,123.475 C151.839498,123.475 151.375498,124.345 151.375498,125.215 Z" id="50%" fill="#6202E1" fill-rule="nonzero"></path>
            <g id="discount" transform="translate(1.000000, 136.000000)" fill="#000000">
                <path d="M76.775,9.361 L64.884,9.361 L64.884,7.291 L76.775,7.291 L76.775,9.361 Z M67.989,6.44 L67.989,4.416 L74.061,4.416 L74.061,6.44 L67.989,6.44 Z M83.951,11.891 L81.076,11.891 L81.076,15.962 L78.385,15.962 L78.385,4.324 L81.076,4.324 L81.076,9.683 L83.951,9.683 L83.951,11.891 Z M81.582,24.771 L67.575,24.771 L67.575,19.918 L78.362,19.918 L78.362,18.952 L67.552,18.952 L67.552,16.951 L81.076,16.951 L81.076,21.735 L70.266,21.735 L70.266,22.747 L81.582,22.747 L81.582,24.771 Z M75.878,13.064 C75.878,14.973 73.808,16.261 71.025,16.261 C68.196,16.261 66.103,14.973 66.103,13.064 C66.103,11.178 68.173,9.867 71.025,9.867 C73.808,9.867 75.878,11.178 75.878,13.064 Z M68.771,13.064 C68.771,13.846 69.806,14.329 71.025,14.329 C72.198,14.329 73.233,13.846 73.233,13.064 C73.233,12.328 72.198,11.822 71.025,11.822 C69.783,11.822 68.771,12.328 68.771,13.064 Z M101.868,19.182 L99.2,19.182 L99.2,4.324 L101.868,4.324 L101.868,19.182 Z M102.328,24.265 L88.114,24.265 L88.114,17.71 L90.828,17.71 L90.828,22.149 L102.328,22.149 L102.328,24.265 Z M85.584,10.902 C85.584,8.004 87.769,5.842 91.127,5.842 C94.508,5.842 96.67,8.004 96.67,10.902 C96.67,13.846 94.508,15.939 91.127,15.939 C87.769,15.939 85.584,13.846 85.584,10.902 Z M88.344,10.902 C88.344,12.535 89.402,13.731 91.127,13.731 C92.898,13.731 93.933,12.535 93.933,10.902 C93.933,9.338 92.898,8.142 91.127,8.142 C89.402,8.142 88.344,9.338 88.344,10.902 Z M127.375,24.817 L124.822,24.817 L124.822,14.766 L123.12,14.766 L123.12,23.874 L120.613,23.874 L120.613,4.692 L123.12,4.692 L123.12,12.604 L124.822,12.604 L124.822,4.324 L127.375,4.324 L127.375,24.817 Z M119.325,16.376 C119.325,18.952 117.508,20.631 114.84,20.631 C112.195,20.631 110.355,18.814 110.355,16.376 C110.355,13.777 112.218,12.121 114.84,12.121 C117.508,12.121 119.325,13.8 119.325,16.376 Z M109.918,11.362 L109.918,9.223 L119.693,9.223 L119.693,11.362 L109.918,11.362 Z M116.91,16.376 C116.91,15.111 116.036,14.237 114.84,14.237 C113.667,14.237 112.793,15.111 112.793,16.376 C112.793,17.664 113.667,18.515 114.84,18.515 C116.036,18.515 116.91,17.618 116.91,16.376 Z M112.149,8.05 L112.149,5.911 L117.669,5.911 L117.669,8.05 L112.149,8.05 Z M146.81,24.817 L144.096,24.817 L144.096,13.524 L140.393,13.524 L140.393,11.247 L144.096,11.247 L144.096,4.324 L146.81,4.324 L146.81,24.817 Z M142.302,18.239 L140.761,20.263 C139.059,19.228 136.736,16.652 136.046,14.513 C135.379,16.859 133.286,19.458 131.147,20.608 L129.537,18.63 C132.826,16.491 134.62,13.248 134.62,9.177 L134.62,6.049 L137.38,6.049 L137.38,9.039 C137.38,13.087 139.22,16.261 142.302,18.239 Z M159.115,7.36 L161.622,7.36 L161.622,20.033 L164.244,20.033 L164.244,23 L155.32,23 L155.32,20.033 L158.264,20.033 L158.264,10.81 L155.32,11.914 L155.32,8.809 L159.115,7.36 Z M182.897,24.817 L180.344,24.817 L180.344,14.49 L178.527,14.49 L178.527,23.874 L176.02,23.874 L176.02,4.692 L178.527,4.692 L178.527,12.351 L180.344,12.351 L180.344,4.324 L182.897,4.324 L182.897,24.817 Z M174.157,6.739 C174.18,12.857 171.742,17.526 166.728,20.815 L164.98,18.952 C168.982,16.56 171.213,12.972 171.558,8.901 L166.222,8.901 L166.222,6.739 L174.157,6.739 Z" id="할인-해서-1개"></path>
            </g>
            <g id="10-Mei---10-Juni" fill="#000000">
                <path d="M21.7875,7.975 L32.5875,7.975 L32.5875,11.2 L25.1625,11.175 L24.9375,14.5 C25.6625,14.35 26.4375,14.25 27.1375,14.25 C30.5375,14.25 33.3625,15.775 33.3625,19.675 C33.3625,23.625 29.9125,25.35 26.1625,25.35 C24.1875,25.35 22.1875,24.925 20.6875,24.2 L20.6875,20.725 C22.0625,21.6 24.0375,22.075 25.7375,22.075 C27.9625,22.075 29.6125,21.275 29.6125,19.625 C29.6125,17.95 28.1875,17.125 25.4625,17.125 C24.2375,17.125 22.6625,17.325 21.1875,17.85 L21.7875,7.975 Z M54.5625,27.05 L38.6125,27.05 L38.6125,22.025 L50.8875,22.025 L50.8875,21.025 L38.5875,21.025 L38.5875,18.925 L53.8125,18.925 L53.8125,23.925 L41.5375,23.925 L41.5375,24.95 L54.5625,24.95 L54.5625,27.05 Z M36.5875,8.7 C36.5875,6.5 39.0625,5.025 42.1375,5.025 C45.1625,5.025 47.5875,6.5 47.5875,8.75 C47.5875,10.925 45.1625,12.4 42.1375,12.4 C39.0625,12.4 36.5875,10.925 36.5875,8.7 Z M46.4625,17.525 L46.4625,15.6 L50.9375,15.6 L50.9375,4.7 L53.8375,4.7 L53.8375,18.1 L50.9375,18.1 L50.9375,17.525 L46.4625,17.525 Z M43.2375,18.125 L40.3125,18.125 L40.3125,15.425 C38.3875,15.5 36.8375,15.575 35.3125,15.575 L34.9125,13.25 C37.4375,13.25 39.6625,13.225 42.1375,13.125 C45.2375,12.975 47.3875,12.8 49.3625,12.55 L49.5875,14.725 C47.8375,14.975 45.4625,15.175 43.2375,15.3 L43.2375,18.125 Z M39.5375,8.725 C39.5375,9.675 40.5625,10.3 42.1375,10.3 C43.6625,10.3 44.7375,9.675 44.7375,8.725 C44.7375,7.775 43.6625,7.125 42.1375,7.125 C40.5625,7.125 39.5375,7.775 39.5375,8.725 Z M66.8625,8 L69.5875,8 L69.5875,21.775 L72.4375,21.775 L72.4375,25 L62.7375,25 L62.7375,21.775 L65.9375,21.775 L65.9375,11.75 L62.7375,12.95 L62.7375,9.575 L66.8625,8 Z M74.0625,16.5 C74.0625,11.6 76.3875,7.65 81.8125,7.65 C87.2375,7.65 89.5625,11.6 89.5625,16.5 C89.5625,21.4 87.2375,25.35 81.8125,25.35 C76.3875,25.35 74.0625,21.4 74.0625,16.5 Z M85.8125,16.5 C85.8125,12.875 84.5625,10.95 81.8125,10.95 C79.0625,10.95 77.8125,12.875 77.8125,16.5 C77.8125,20.125 79.0625,22.05 81.8125,22.05 C84.5625,22.05 85.8125,20.125 85.8125,16.5 Z M116.0375,26.8 L100.7125,26.8 L100.7125,20.825 L112.4375,20.825 L112.4375,19.275 L100.5875,19.275 L100.5875,16.975 L115.3375,16.975 L115.3375,22.925 L103.6375,22.925 L103.6375,24.45 L116.0375,24.45 L116.0375,26.8 Z M115.3375,15.85 L112.4375,15.85 L112.4375,4.7 L115.3375,4.7 L115.3375,15.85 Z M97.5875,10.625 C97.5875,7.65 100.0875,5.45 103.5125,5.45 C106.9125,5.45 109.3875,7.6 109.3875,10.625 C109.3875,13.6 106.9125,15.6 103.5125,15.6 C100.2125,15.6 97.5875,13.675 97.5875,10.625 Z M100.4875,10.6 C100.4875,12.1 101.7875,13.175 103.5125,13.175 C105.3375,13.175 106.4875,11.975 106.4875,10.6 C106.4875,9.075 105.3875,7.85 103.5125,7.85 C101.8625,7.85 100.4875,9.1 100.4875,10.6 Z M119.1875,17.45 L128.4875,17.45 L128.4875,20.375 L119.1875,20.375 L119.1875,17.45 Z M140.2125,15.15 C141.7125,14.35 143.0875,14 144.7625,14 C147.8125,14 150.6875,15.85 150.6875,19.5 C150.6875,23.375 147.6625,25.35 144.1875,25.35 C138.7125,25.35 136.4875,22 136.4875,16.5 C136.4875,10.275 140.2375,7.65 144.5625,7.65 C146.1625,7.65 147.7875,8.025 149.2375,8.7 L149.2375,12 C148.0625,11.225 146.5125,10.8 145.0625,10.8 C142.7625,10.8 140.6625,11.775 140.2125,15.15 Z M140.2125,18.175 C140.5625,21.35 141.9375,22.3 143.8875,22.3 C145.5375,22.3 146.9375,21.55 146.9375,19.675 C146.9375,17.725 145.3625,17.125 143.6125,17.125 C142.4875,17.125 141.2875,17.475 140.2125,18.175 Z M171.7375,27.05 L155.7875,27.05 L155.7875,22.025 L168.0625,22.025 L168.0625,21.025 L155.7625,21.025 L155.7625,18.925 L170.9875,18.925 L170.9875,23.925 L158.7125,23.925 L158.7125,24.95 L171.7375,24.95 L171.7375,27.05 Z M153.7625,8.7 C153.7625,6.5 156.2375,5.025 159.3125,5.025 C162.3375,5.025 164.7625,6.5 164.7625,8.75 C164.7625,10.925 162.3375,12.4 159.3125,12.4 C156.2375,12.4 153.7625,10.925 153.7625,8.7 Z M163.6375,17.525 L163.6375,15.6 L168.1125,15.6 L168.1125,4.7 L171.0125,4.7 L171.0125,18.1 L168.1125,18.1 L168.1125,17.525 L163.6375,17.525 Z M160.4125,18.125 L157.4875,18.125 L157.4875,15.425 C155.5625,15.5 154.0125,15.575 152.4875,15.575 L152.0875,13.25 C154.6125,13.25 156.8375,13.225 159.3125,13.125 C162.4125,12.975 164.5625,12.8 166.5375,12.55 L166.7625,14.725 C165.0125,14.975 162.6375,15.175 160.4125,15.3 L160.4125,18.125 Z M156.7125,8.725 C156.7125,9.675 157.7375,10.3 159.3125,10.3 C160.8375,10.3 161.9125,9.675 161.9125,8.725 C161.9125,7.775 160.8375,7.125 159.3125,7.125 C157.7375,7.125 156.7125,7.775 156.7125,8.725 Z M184.0375,8 L186.7625,8 L186.7625,21.775 L189.6125,21.775 L189.6125,25 L179.9125,25 L179.9125,21.775 L183.1125,21.775 L183.1125,11.75 L179.9125,12.95 L179.9125,9.575 L184.0375,8 Z M191.2375,16.5 C191.2375,11.6 193.5625,7.65 198.9875,7.65 C204.4125,7.65 206.7375,11.6 206.7375,16.5 C206.7375,21.4 204.4125,25.35 198.9875,25.35 C193.5625,25.35 191.2375,21.4 191.2375,16.5 Z M202.9875,16.5 C202.9875,12.875 201.7375,10.95 198.9875,10.95 C196.2375,10.95 194.9875,12.875 194.9875,16.5 C194.9875,20.125 196.2375,22.05 198.9875,22.05 C201.7375,22.05 202.9875,20.125 202.9875,16.5 Z M227.6625,26.8 L212.3375,26.8 L212.3375,20.825 L224.0625,20.825 L224.0625,19.275 L212.2125,19.275 L212.2125,16.975 L226.9625,16.975 L226.9625,22.925 L215.2625,22.925 L215.2625,24.45 L227.6625,24.45 L227.6625,26.8 Z M226.9625,15.85 L224.0625,15.85 L224.0625,4.7 L226.9625,4.7 L226.9625,15.85 Z M209.2125,10.625 C209.2125,7.65 211.7125,5.45 215.1375,5.45 C218.5375,5.45 221.0125,7.6 221.0125,10.625 C221.0125,13.6 218.5375,15.6 215.1375,15.6 C211.8375,15.6 209.2125,13.675 209.2125,10.625 Z M212.1125,10.6 C212.1125,12.1 213.4125,13.175 215.1375,13.175 C216.9625,13.175 218.1125,11.975 218.1125,10.6 C218.1125,9.075 217.0125,7.85 215.1375,7.85 C213.4875,7.85 212.1125,9.1 212.1125,10.6 Z" id="5월-10-일--6월-10일"></path>
            </g>
        </g>
    </g>
</svg>