<?xml version="1.0" encoding="UTF-8"?>
<svg width="250px" height="294px" viewBox="0 0 250 294" version="1.1" xmlns="http://www.w3.org/2000/svg" xmlns:xlink="http://www.w3.org/1999/xlink">
    <!-- Generator: Sketch 48.2 (47327) - http://www.bohemiancoding.com/sketch -->
    <title>text_1</title>
    <desc>Created with Sketch.</desc>
    <defs>
        <radialGradient cx="100%" cy="100%" fx="100%" fy="100%" r="50.0301469%" gradientTransform="translate(1.000000,1.000000),translate(-1.000000,-1.000000)" id="radialGradient-1">
            <stop stop-color="#8D00FF" offset="0%"></stop>
            <stop stop-color="#5C00FE" offset="69.8959662%"></stop>
            <stop stop-color="#8900FF" offset="100%"></stop>
        </radialGradient>
    </defs>
    <g id="Page-1" stroke="none" stroke-width="1" fill="none" fill-rule="evenodd">
        <g id="text_1" transform="translate(-3.000000, -4.000000)">
            <g id="1-copy" transform="translate(3.000000, 48.000000)" fill-rule="nonzero">
                <path d="M124.534208,0.7629689 C132.711116,0.7630043 140.809466,1.5606594 148.829249,3.1559305 C156.849031,4.7512051 164.636136,7.1134456 172.190582,10.2426509 C179.745051,13.3718515 186.921705,17.2078968 193.720557,21.7507781 C200.519385,26.2936634 206.80975,31.4560958 212.591686,37.2380753 C218.373622,43.0200542 223.535985,49.3104899 228.078816,56.109373 C232.621648,62.908265 236.457622,70.08496 239.586764,77.639458 C242.715941,85.193974 245.078181,92.981143 246.673414,101.000966 C248.268642,109.020783 249.066241,117.119169 249.066241,125.296094 C249.066206,133.473078 248.268572,141.571493 246.673269,149.591345 C245.078041,157.611197 242.715802,165.398378 239.586549,172.952916 C236.457372,180.507449 232.621334,187.684162 228.078462,194.483043 C223.535595,201.28193 218.373157,207.572364 212.591151,213.354352 C206.80918,219.13634 200.518781,224.298762 193.719865,228.841645 C186.920978,233.384512 179.744289,237.220539 172.189785,240.349698 C164.635281,243.478892 156.848106,245.841098 148.828289,247.436348 C140.808455,249.031593 132.710069,249.82921 124.533126,249.82921 C116.356143,249.829175 108.257746,249.031523 100.237911,247.436238 C92.2180591,245.840975 84.4308608,243.478736 76.8763221,240.349518 C69.3217834,237.220324 62.1450765,233.384285 55.3461899,228.841413 C48.5472975,224.298529 42.256863,219.136108 36.4748864,213.35412 C30.6929041,207.572155 25.5304769,201.281714 20.9876108,194.482834 C16.4447331,187.683947 12.6087116,180.507257 9.4795232,172.952736 C6.3503348,165.398232 3.98812395,157.611075 2.39288484,149.591257 C0.797622465,141.571423 0,133.473037 0,125.296094 C2.90693572e-05,117.119128 0.797680604,109.020731 2.3929546,101.000867 C3.9882286,92.981015 6.35046852,85.193829 9.47967436,77.639301 C12.6088802,70.084774 16.4449307,62.908062 20.9878143,56.109169 C25.530692,49.3102771 30.693125,43.0198327 36.4751074,37.2378532 C42.2570955,31.4558697 48.54753,26.2934419 55.346405,21.7505694 C62.1452858,17.2076974 69.3219985,13.3716695 76.8765023,10.2424863 C84.4310004,7.1133037 92.2181812,4.7510899 100.237998,3.1558462 C108.257815,1.5605977 116.356195,0.7629735 124.533126,0.7629735 L124.533022,56.802874 C120.03573,56.802903 115.581648,57.241612 111.170768,58.119019 C106.759883,58.996413 102.476984,60.295645 98.3220195,62.016702 C94.1670548,63.737771 90.2199129,65.847601 86.480547,68.346188 C82.741187,70.844775 79.2814858,73.684113 76.1014203,76.864202 C72.9213547,80.044291 70.0820343,83.504033 67.5834823,87.24341 C65.0849246,90.982799 62.9751229,94.929982 61.2540833,99.084958 C59.5330552,103.239934 58.233841,107.522874 57.356458,111.933789 C56.4791041,116.344668 56.0404243,120.798791 56.0404068,125.296112 C56.0404243,129.793432 56.479139,134.247573 57.3565452,138.658487 C58.2339282,143.069408 59.5331599,147.352347 61.2542228,151.507341 C62.9753032,155.66234 65.0851164,159.609523 67.5837091,163.348918 C70.0823017,167.088319 72.9216395,170.548072 76.1017226,173.728155 C79.2818172,176.908238 82.7415591,179.747576 86.4809366,182.246169 C90.2203198,184.744721 94.1674967,186.85454 98.3224788,188.575603 C102.477461,190.29666 106.7604,191.595892 111.171297,192.473281 C115.5822,193.350646 120.0363,193.789332 124.533621,193.789332 C129.030947,193.789314 133.485081,193.350611 137.896019,192.473228 C142.306916,191.595822 146.589873,190.29659 150.744873,188.57551 C154.899872,186.854453 158.847049,184.744634 162.58645,182.246041 C166.325827,179.747448 169.785569,176.908116 172.965664,173.728033 C176.145764,170.54795 178.985102,167.088208 181.483695,163.348813 C183.98227,159.609413 186.092083,155.662236 187.813129,151.507254 C189.534168,147.352272 190.8334,143.069332 191.710789,138.658435 C192.588172,134.24752 193.026857,129.793415 193.02684,125.296112 C193.026823,120.798791 192.588119,116.344651 191.710736,111.933736 C190.83333,107.522816 189.534099,103.239859 187.813018,99.084865 C186.091979,94.929871 183.982159,90.982683 181.483567,87.243294 C178.98498,83.503905 176.145625,80.044169 172.965542,76.86408 C169.785459,73.683985 166.325723,70.844659 162.586322,68.346078 C158.846927,65.847491 154.899744,63.737678 150.744762,62.016626 C146.589786,60.295575 142.306846,58.996349 137.895961,58.11896 C133.485047,57.241577 129.030947,56.802886 124.533621,56.802886 L124.534208,0.7629689 Z" id="Fill-8" fill="url(#radialGradient-1)"></path>
                <circle id="Oval" fill="#FFFFFF" cx="125.65842" cy="126.421389" r="87.3982442"></circle>
                <path d="M77.354572,152.478404 L75.0307539,152.478404 L75.0307539,149.335968 C73.0766341,149.124712 71.2281425,148.596571 69.7493492,147.777954 L69.7493492,144.820367 C71.78269,146.114311 74.1593221,146.642452 76.271884,146.642452 C78.6485161,146.642452 80.2593446,146.087904 80.2593446,144.345041 C80.2593446,140.067103 69.8285702,142.338107 69.8285702,135.789165 C69.8285702,132.778764 72.1259813,131.167936 75.0307539,130.824644 L75.0307539,127.655802 L77.354572,127.655802 L77.354572,130.798237 C79.1238426,130.930273 80.8931132,131.405599 82.1342433,132.144996 L82.1342433,135.023361 C80.6290429,134.019894 78.5692951,133.465347 76.5887683,133.491754 C74.3441713,133.491754 72.891785,134.151929 72.891785,135.736351 C72.891785,139.723811 83.3225593,137.584843 83.3225593,144.186598 C83.3225593,147.751547 80.65545,149.177526 77.354572,149.362375 L77.354572,152.478404 Z M85.4879353,140.067103 C85.4879353,134.812105 87.9701955,130.745423 93.5420775,130.745423 C99.1139595,130.745423 101.59622,134.812105 101.59622,140.067103 C101.59622,145.3221 99.1139595,149.388782 93.5420775,149.388782 C87.9701955,149.388782 85.4879353,145.3221 85.4879353,140.067103 Z M98.559412,140.067103 C98.559412,135.894793 96.9749906,133.491754 93.5420775,133.491754 C90.0827574,133.491754 88.524743,135.894793 88.524743,140.067103 C88.524743,144.239413 90.0827574,146.642452 93.5420775,146.642452 C96.9749906,146.642452 98.559412,144.239413 98.559412,140.067103 Z M107.696242,147.593105 C107.696242,148.781421 106.877625,149.335968 105.926972,149.335968 C104.976319,149.335968 104.131294,148.781421 104.131294,147.593105 C104.131294,146.457602 104.976319,145.903055 105.926972,145.903055 C106.877625,145.903055 107.696242,146.457602 107.696242,147.593105 Z M110.231317,140.067103 C110.231317,134.812105 112.713577,130.745423 118.285459,130.745423 C123.857341,130.745423 126.339601,134.812105 126.339601,140.067103 C126.339601,145.3221 123.857341,149.388782 118.285459,149.388782 C112.713577,149.388782 110.231317,145.3221 110.231317,140.067103 Z M123.302793,140.067103 C123.302793,135.894793 121.718372,133.491754 118.285459,133.491754 C114.826139,133.491754 113.268124,135.894793 113.268124,140.067103 C113.268124,144.239413 114.826139,146.642452 118.285459,146.642452 C121.718372,146.642452 123.302793,144.239413 123.302793,140.067103 Z M137.800249,131.088715 L140.889871,131.088715 L140.889871,142.760619 L143.979493,142.760619 L143.979493,145.374915 L140.889871,145.374915 L140.889871,149.045491 L137.985098,149.045491 L137.985098,145.374915 L128.240907,145.374915 L128.240907,142.813433 L137.800249,131.088715 Z M137.985098,142.760619 L137.985098,134.917733 L131.594599,142.760619 L137.985098,142.760619 Z M146.012834,140.067103 C146.012834,134.812105 148.495094,130.745423 154.066976,130.745423 C159.638858,130.745423 162.121118,134.812105 162.121118,140.067103 C162.121118,145.3221 159.638858,149.388782 154.066976,149.388782 C148.495094,149.388782 146.012834,145.3221 146.012834,140.067103 Z M159.08431,140.067103 C159.08431,135.894793 157.499889,133.491754 154.066976,133.491754 C150.607656,133.491754 149.049641,135.894793 149.049641,140.067103 C149.049641,144.239413 150.607656,146.642452 154.066976,146.642452 C157.499889,146.642452 159.08431,144.239413 159.08431,140.067103 Z M164.656192,140.067103 C164.656192,134.812105 167.138453,130.745423 172.710335,130.745423 C178.282217,130.745423 180.764477,134.812105 180.764477,140.067103 C180.764477,145.3221 178.282217,149.388782 172.710335,149.388782 C167.138453,149.388782 164.656192,145.3221 164.656192,140.067103 Z M177.727669,140.067103 C177.727669,135.894793 176.143248,133.491754 172.710335,133.491754 C169.251015,133.491754 167.693,135.894793 167.693,140.067103 C167.693,144.239413 169.251015,146.642452 172.710335,146.642452 C176.143248,146.642452 177.727669,144.239413 177.727669,140.067103 Z M90.6637119,163.088715 L92.8819019,163.088715 L92.8819019,178.325567 L96.0771518,178.325567 L96.0771518,181.045491 L86.306553,181.045491 L86.306553,178.325567 L89.8979083,178.325567 L89.8979083,166.178336 L86.306553,167.525095 L86.306553,164.752357 L90.6637119,163.088715 Z M121.903221,162.560574 L124.623144,162.560574 L124.623144,181.045491 L121.612744,181.045491 L121.612744,168.106049 L115.776791,176.873181 L113.981114,176.873181 L108.145162,168.079642 L108.145162,181.045491 L105.134761,181.045491 L105.134761,162.560574 L107.854684,162.560574 L114.878953,173.149791 L121.903221,162.560574 Z M132.122739,181.045491 L129.112338,181.045491 L129.112338,162.560574 L131.93789,162.560574 L141.893338,176.08097 C141.866931,175.447202 141.866931,174.734212 141.866931,174.04763 L141.866931,162.560574 L144.877332,162.560574 L144.877332,181.045491 L142.05178,181.045491 L132.096332,167.525095 C132.122739,168.158863 132.122739,168.871853 132.122739,169.532028 L132.122739,181.045491 Z M152.376926,181.045491 L149.366526,181.045491 L149.366526,162.560574 L156.760492,162.560574 C160.219812,162.560574 163.863982,163.933739 163.863982,168.343712 C163.863982,171.64459 161.804234,173.229012 159.374788,173.809966 L165.289961,181.045491 L161.672199,181.045491 L156.126724,174.126851 L152.376926,174.126851 L152.376926,181.045491 Z M152.376926,165.306905 L152.376926,171.459741 L156.892527,171.459741 C158.873054,171.459741 160.800767,170.746752 160.800767,168.396526 C160.800767,166.019894 158.873054,165.306905 156.892527,165.306905 L152.376926,165.306905 Z" id="$0.0400-1-MNR" fill="#131F3C"></path>
            </g>
            <path d="M98.044206,115.636931 C100.060562,114.208679 102.412978,113.53656 104.849409,113.53656 C108.658082,113.53656 112.046681,115.216857 112.046681,119.445604 C112.046681,122.666174 109.414215,124.57051 107.00579,126.026768 C104.961428,127.258985 103.365146,128.155144 103.365146,128.659233 L112.186705,128.659233 L112.186705,133 L97.4280971,133 L97.4280971,130.731599 C97.4280971,126.138787 100.928716,124.346471 103.645196,122.750188 C105.409508,121.714005 106.865765,121.181911 106.865765,119.725654 C106.865765,118.577451 105.829582,118.017352 104.373325,118.017352 C102.468988,118.017352 100.116572,118.773486 98.044206,120.397773 L98.044206,115.636931 Z M114.483111,123.478317 C114.483111,118.045357 117.087572,113.53656 123.30467,113.53656 C129.521769,113.53656 132.126229,118.045357 132.126229,123.478317 C132.126229,128.911277 129.521769,133.420074 123.30467,133.420074 C117.087572,133.420074 114.483111,128.911277 114.483111,123.478317 Z M126.945314,123.478317 C126.945314,119.809669 125.797111,118.017352 123.30467,118.017352 C120.81223,118.017352 119.664027,119.809669 119.664027,123.478317 C119.664027,127.146966 120.81223,128.939282 123.30467,128.939282 C125.797111,128.939282 126.945314,127.146966 126.945314,123.478317 Z M142.180006,134.680297 L139.099462,134.680297 L150.553486,111.716238 L153.634031,111.716238 L142.180006,134.680297 Z M144.644442,118.017352 C144.644442,121.377946 142.180006,123.058243 139.323502,123.058243 C136.438992,123.058243 133.974556,121.377946 133.974556,118.017352 C133.974556,114.656758 136.438992,112.976461 139.323502,112.976461 C142.180006,112.976461 144.644442,114.656758 144.644442,118.017352 Z M137.671209,118.017352 C137.671209,118.857501 138.119289,119.697649 139.323502,119.697649 C140.499709,119.697649 140.947789,118.857501 140.947789,118.017352 C140.947789,117.177204 140.499709,116.337055 139.323502,116.337055 C138.119289,116.337055 137.671209,117.177204 137.671209,118.017352 Z M158.646917,128.379183 C158.646917,131.739777 156.182481,133.420074 153.325976,133.420074 C150.441466,133.420074 147.977031,131.739777 147.977031,128.379183 C147.977031,125.018589 150.441466,123.338292 153.325976,123.338292 C156.182481,123.338292 158.646917,125.018589 158.646917,128.379183 Z M151.673684,128.379183 C151.673684,129.219332 152.121763,130.05948 153.325976,130.05948 C154.502184,130.05948 154.950263,129.219332 154.950263,128.379183 C154.950263,127.539035 154.502184,126.698886 153.325976,126.698886 C152.121763,126.698886 151.673684,127.539035 151.673684,128.379183 Z" id="20%" fill="#131F3C" fill-rule="nonzero"></path>
            <g id="diskon" transform="translate(4.000000, 139.000000)" fill="#000000">
                <path d="M76.6545546,9.361 L64.7635546,9.361 L64.7635546,7.291 L76.6545546,7.291 L76.6545546,9.361 Z M67.8685546,6.44 L67.8685546,4.416 L73.9405546,4.416 L73.9405546,6.44 L67.8685546,6.44 Z M83.8305546,11.891 L80.9555546,11.891 L80.9555546,15.962 L78.2645546,15.962 L78.2645546,4.324 L80.9555546,4.324 L80.9555546,9.683 L83.8305546,9.683 L83.8305546,11.891 Z M81.4615546,24.771 L67.4545546,24.771 L67.4545546,19.918 L78.2415546,19.918 L78.2415546,18.952 L67.4315546,18.952 L67.4315546,16.951 L80.9555546,16.951 L80.9555546,21.735 L70.1455546,21.735 L70.1455546,22.747 L81.4615546,22.747 L81.4615546,24.771 Z M75.7575546,13.064 C75.7575546,14.973 73.6875546,16.261 70.9045546,16.261 C68.0755546,16.261 65.9825546,14.973 65.9825546,13.064 C65.9825546,11.178 68.0525546,9.867 70.9045546,9.867 C73.6875546,9.867 75.7575546,11.178 75.7575546,13.064 Z M68.6505546,13.064 C68.6505546,13.846 69.6855546,14.329 70.9045546,14.329 C72.0775546,14.329 73.1125546,13.846 73.1125546,13.064 C73.1125546,12.328 72.0775546,11.822 70.9045546,11.822 C69.6625546,11.822 68.6505546,12.328 68.6505546,13.064 Z M101.747555,19.182 L99.0795546,19.182 L99.0795546,4.324 L101.747555,4.324 L101.747555,19.182 Z M102.207555,24.265 L87.9935546,24.265 L87.9935546,17.71 L90.7075546,17.71 L90.7075546,22.149 L102.207555,22.149 L102.207555,24.265 Z M85.4635546,10.902 C85.4635546,8.004 87.6485546,5.842 91.0065546,5.842 C94.3875546,5.842 96.5495546,8.004 96.5495546,10.902 C96.5495546,13.846 94.3875546,15.939 91.0065546,15.939 C87.6485546,15.939 85.4635546,13.846 85.4635546,10.902 Z M88.2235546,10.902 C88.2235546,12.535 89.2815546,13.731 91.0065546,13.731 C92.7775546,13.731 93.8125546,12.535 93.8125546,10.902 C93.8125546,9.338 92.7775546,8.142 91.0065546,8.142 C89.2815546,8.142 88.2235546,9.338 88.2235546,10.902 Z M127.254555,24.817 L124.701555,24.817 L124.701555,14.766 L122.999555,14.766 L122.999555,23.874 L120.492555,23.874 L120.492555,4.692 L122.999555,4.692 L122.999555,12.604 L124.701555,12.604 L124.701555,4.324 L127.254555,4.324 L127.254555,24.817 Z M119.204555,16.376 C119.204555,18.952 117.387555,20.631 114.719555,20.631 C112.074555,20.631 110.234555,18.814 110.234555,16.376 C110.234555,13.777 112.097555,12.121 114.719555,12.121 C117.387555,12.121 119.204555,13.8 119.204555,16.376 Z M109.797555,11.362 L109.797555,9.223 L119.572555,9.223 L119.572555,11.362 L109.797555,11.362 Z M116.789555,16.376 C116.789555,15.111 115.915555,14.237 114.719555,14.237 C113.546555,14.237 112.672555,15.111 112.672555,16.376 C112.672555,17.664 113.546555,18.515 114.719555,18.515 C115.915555,18.515 116.789555,17.618 116.789555,16.376 Z M112.028555,8.05 L112.028555,5.911 L117.548555,5.911 L117.548555,8.05 L112.028555,8.05 Z M146.689555,24.817 L143.975555,24.817 L143.975555,13.524 L140.272555,13.524 L140.272555,11.247 L143.975555,11.247 L143.975555,4.324 L146.689555,4.324 L146.689555,24.817 Z M142.181555,18.239 L140.640555,20.263 C138.938555,19.228 136.615555,16.652 135.925555,14.513 C135.258555,16.859 133.165555,19.458 131.026555,20.608 L129.416555,18.63 C132.705555,16.491 134.499555,13.248 134.499555,9.177 L134.499555,6.049 L137.259555,6.049 L137.259555,9.039 C137.259555,13.087 139.099555,16.261 142.181555,18.239 Z M158.994555,7.36 L161.501555,7.36 L161.501555,20.033 L164.123555,20.033 L164.123555,23 L155.199555,23 L155.199555,20.033 L158.143555,20.033 L158.143555,10.81 L155.199555,11.914 L155.199555,8.809 L158.994555,7.36 Z M182.776555,24.817 L180.223555,24.817 L180.223555,14.49 L178.406555,14.49 L178.406555,23.874 L175.899555,23.874 L175.899555,4.692 L178.406555,4.692 L178.406555,12.351 L180.223555,12.351 L180.223555,4.324 L182.776555,4.324 L182.776555,24.817 Z M174.036555,6.739 C174.059555,12.857 171.621555,17.526 166.607555,20.815 L164.859555,18.952 C168.861555,16.56 171.092555,12.972 171.437555,8.901 L166.101555,8.901 L166.101555,6.739 L174.036555,6.739 Z" id="할인-해서-1개"></path>
            </g>
            <g id="15-Agustus" fill="#000000">
                <path d="M82.9,12.35 C82.9,10.075 84.8,7.65 89.45,7.65 C93.775,7.65 96.025,10.075 96.05,12.45 C96.075,14.1 95.275,15.35 93.9,16.375 C95.45,17.15 96.675,18.35 96.675,20.4 C96.675,22.9 94.625,25.35 89.5,25.35 C84.425,25.35 82.275,22.875 82.275,20.275 C82.275,18.575 83.325,16.95 84.925,16 C83.75,15.2 82.9,14.075 82.9,12.35 Z M89.875,18 C89.125,17.725 88.225,17.475 87.35,17.15 C86.425,17.925 86,18.95 86.025,19.825 C86.05,21.275 87.2,22.4 89.775,22.4 C91.575,22.4 92.95,21.65 92.95,20.5 C92.95,19.05 91.55,18.575 89.875,18 Z M92.45,12.725 C92.45,11.55 91.4,10.6 89.3,10.6 C87.5,10.6 86.475,11.425 86.475,12.375 C86.475,13.875 88,14.35 89.675,14.9 C90.175,15.025 90.7,15.2 91.25,15.35 C92.05,14.55 92.475,13.55 92.45,12.725 Z M117.975,27.05 L102.025,27.05 L102.025,22.025 L114.3,22.025 L114.3,21.025 L102,21.025 L102,18.925 L117.225,18.925 L117.225,23.925 L104.95,23.925 L104.95,24.95 L117.975,24.95 L117.975,27.05 Z M100,8.7 C100,6.5 102.475,5.025 105.55,5.025 C108.575,5.025 111,6.5 111,8.75 C111,10.925 108.575,12.4 105.55,12.4 C102.475,12.4 100,10.925 100,8.7 Z M109.875,17.525 L109.875,15.6 L114.35,15.6 L114.35,4.7 L117.25,4.7 L117.25,18.1 L114.35,18.1 L114.35,17.525 L109.875,17.525 Z M106.65,18.125 L103.725,18.125 L103.725,15.425 C101.8,15.5 100.25,15.575 98.725,15.575 L98.325,13.25 C100.85,13.25 103.075,13.225 105.55,13.125 C108.65,12.975 110.8,12.8 112.775,12.55 L113,14.725 C111.25,14.975 108.875,15.175 106.65,15.3 L106.65,18.125 Z M102.95,8.725 C102.95,9.675 103.975,10.3 105.55,10.3 C107.075,10.3 108.15,9.675 108.15,8.725 C108.15,7.775 107.075,7.125 105.55,7.125 C103.975,7.125 102.95,7.775 102.95,8.725 Z M130.275,8 L133,8 L133,21.775 L135.85,21.775 L135.85,25 L126.15,25 L126.15,21.775 L129.35,21.775 L129.35,11.75 L126.15,12.95 L126.15,9.575 L130.275,8 Z M138.625,7.975 L149.425,7.975 L149.425,11.2 L142,11.175 L141.775,14.5 C142.5,14.35 143.275,14.25 143.975,14.25 C147.375,14.25 150.2,15.775 150.2,19.675 C150.2,23.625 146.75,25.35 143,25.35 C141.025,25.35 139.025,24.925 137.525,24.2 L137.525,20.725 C138.9,21.6 140.875,22.075 142.575,22.075 C144.8,22.075 146.45,21.275 146.45,19.625 C146.45,17.95 145.025,17.125 142.3,17.125 C141.075,17.125 139.5,17.325 138.025,17.85 L138.625,7.975 Z M170.975,26.8 L155.65,26.8 L155.65,20.825 L167.375,20.825 L167.375,19.275 L155.525,19.275 L155.525,16.975 L170.275,16.975 L170.275,22.925 L158.575,22.925 L158.575,24.45 L170.975,24.45 L170.975,26.8 Z M170.275,15.85 L167.375,15.85 L167.375,4.7 L170.275,4.7 L170.275,15.85 Z M152.525,10.625 C152.525,7.65 155.025,5.45 158.45,5.45 C161.85,5.45 164.325,7.6 164.325,10.625 C164.325,13.6 161.85,15.6 158.45,15.6 C155.15,15.6 152.525,13.675 152.525,10.625 Z M155.425,10.6 C155.425,12.1 156.725,13.175 158.45,13.175 C160.275,13.175 161.425,11.975 161.425,10.6 C161.425,9.075 160.325,7.85 158.45,7.85 C156.8,7.85 155.425,9.1 155.425,10.6 Z" id="8월-15일"></path>
            </g>
        </g>
    </g>
</svg>