<?xml version="1.0" encoding="UTF-8"?>
<svg width="250px" height="295px" viewBox="0 0 250 295" version="1.1" xmlns="http://www.w3.org/2000/svg" xmlns:xlink="http://www.w3.org/1999/xlink">
    <!-- Generator: Sketch 48.2 (47327) - http://www.bohemiancoding.com/sketch -->
    <title>text_2</title>
    <desc>Created with Sketch.</desc>
    <defs>
        <radialGradient cx="404.481229%" cy="400%" fx="404.481229%" fy="400%" r="101.454359%" gradientTransform="translate(4.044812,4.000000),scale(1.000000,0.999999),translate(-4.044812,-4.000000)" id="radialGradient-1">
            <stop stop-color="#FF9495" offset="0%"></stop>
            <stop stop-color="#FE5F60" offset="70.3742825%"></stop>
            <stop stop-color="#FF9091" offset="100%"></stop>
        </radialGradient>
        <radialGradient cx="100%" cy="100%" fx="100%" fy="100%" r="50.0301469%" gradientTransform="translate(1.000000,1.000000),scale(1.000000,1.000000),translate(-1.000000,-1.000000)" id="radialGradient-2">
            <stop stop-color="#8D00FF" offset="0%"></stop>
            <stop stop-color="#5C00FE" offset="69.8959662%"></stop>
            <stop stop-color="#8900FF" offset="100%"></stop>
        </radialGradient>
    </defs>
    <g id="Page-1" stroke="none" stroke-width="1" fill="none" fill-rule="evenodd">
        <g id="text_2" transform="translate(-1.000000, -4.000000)">
            <g id="2-copy" transform="translate(0.000000, 48.000000)" fill-rule="nonzero">
                <g id="Group-2" transform="translate(126.066640, 125.762969) scale(-1, 1) translate(-126.066640, -125.762969) translate(0.566640, 0.762969)">
                    <path d="M0.773750896,124.873729 C0.773779989,116.689946 1.57209481,108.584814 3.16869536,100.558282 C4.76529591,92.5317607 7.12950015,84.7380986 10.2613081,77.1772896 C13.393116,69.6164805 17.2323564,62.4338 21.7790176,55.629254 C26.325673,48.8247085 31.4923987,42.5290333 37.2791891,36.7422459 C43.0659853,30.9554544 49.3616506,25.7887338 56.1661792,21.2420837 C62.9707136,16.6954341 70.153394,12.8562164 77.7141798,9.7244312 C85.2749598,6.59264654 93.068616,4.22846849 101.095102,2.6318982 C109.121588,1.03532325 117.226597,0.237031125 125.410328,0.237031125 L125.410328,56.3235362 C120.909297,56.3235653 116.451511,56.762639 112.036963,57.6407748 C107.62241,58.518899 103.33595,59.8192111 99.17753,61.5416993 C95.0191103,63.2641992 91.0686861,65.3757843 87.3262108,67.8764488 C83.5837413,70.3771134 80.1211632,73.2188123 76.9384532,76.4015455 C73.7557433,79.5842788 70.9140618,83.0468976 68.4134322,86.7893845 C65.9127968,90.5318831 63.8012407,94.482348 62.0787699,98.6407794 C60.3563108,102.799211 59.0560162,107.085712 58.1779036,111.500294 C57.2998202,115.914842 56.8607755,120.372669 56.8607581,124.873729 L0.773750896,124.873729 Z" id="Fill-8" fill="url(#radialGradient-1)"></path>
                    <path d="M125.475948,0.237031125 C133.652855,0.23706659 141.751206,1.03472162 149.770988,2.62999272 C157.790771,4.22526731 165.577876,6.58750783 173.132322,9.71671311 C180.68679,12.8459137 187.863445,16.6819591 194.662297,21.2248403 C201.461125,25.7677257 207.75149,30.9301581 213.533426,36.7121376 C219.315362,42.4941165 224.477725,48.7845522 229.020556,55.5834348 C233.563387,62.3823272 237.399362,69.5590225 240.528504,77.1135206 C243.657681,84.6680362 246.019921,92.4552054 247.615154,100.475028 C249.210382,108.494845 250.007981,116.593231 250.007981,124.770157 C250.007946,132.94714 249.210312,141.045555 247.615009,149.065407 C246.019781,157.085259 243.657541,164.87244 240.528289,172.426979 C237.399112,179.981512 233.563073,187.158224 229.020201,193.957105 C224.477335,200.755992 219.314897,207.046426 213.532891,212.828415 C207.75092,218.610403 201.460521,223.772824 194.661605,228.315708 C187.862718,232.858574 180.686029,236.694601 173.131525,239.823761 C165.577021,242.952955 157.789846,245.31516 149.770029,246.910411 C141.750195,248.505655 133.651809,249.303272 125.474866,249.303272 C117.297883,249.303237 109.199485,248.505586 101.179651,246.9103 C93.1597989,245.315038 85.3726007,242.952798 77.8180619,239.82358 C70.2635232,236.694386 63.0868163,232.858347 56.2879297,228.315475 C49.4890373,223.772592 43.1986028,218.61017 37.4166263,212.828182 C31.6346439,207.046217 26.4722168,200.755777 21.9293506,193.956896 C17.3864729,187.158009 13.5504514,179.98132 10.421263,172.426798 C7.29207463,164.872294 4.92986378,157.085137 3.33462466,149.06532 C1.73936229,141.045485 0.941739824,132.947099 0.941739824,124.770157 C0.941739824,124.770153 19.6218754,124.770159 56.9821467,124.770174 C56.9821641,129.267494 57.4208788,133.721635 58.2982851,138.132549 C59.175668,142.54347 60.4748997,146.826409 62.1959626,150.981403 C63.917043,155.136403 66.0268562,159.083585 68.5254489,162.82298 C71.0240415,166.562381 73.8633794,170.022135 77.0434624,173.202218 C80.2235571,176.382301 83.6832989,179.221639 87.4226764,181.720231 C91.1620597,184.218783 95.1092365,186.328602 99.2642186,188.049665 C103.419201,189.770722 107.70214,191.069954 112.113037,191.947343 C116.52394,192.824708 120.97804,193.263394 125.47536,193.263394 C129.972686,193.263377 134.426821,192.824673 138.837759,191.94729 C143.248656,191.069884 147.531613,189.770653 151.686613,188.049572 C155.841612,186.328515 159.788789,184.218696 163.52819,181.720103 C167.267567,179.221511 170.727309,176.382179 173.907404,173.202096 C177.087504,170.022012 179.926842,166.562271 182.425435,162.822876 C184.92401,159.083475 187.033823,155.136298 188.754868,150.981316 C190.475908,146.826334 191.77514,142.543394 192.652529,138.132497 C193.529912,133.721583 193.968597,129.267477 193.96858,124.770174 C193.968562,120.272854 193.529859,115.818713 192.652476,111.407799 C191.77507,106.996878 190.475838,102.713921 188.754758,98.5589274 C187.033718,94.4039337 184.923899,90.4567452 182.425307,86.7173561 C179.92672,82.977967 177.087365,79.5182309 173.907282,76.338142 C170.727198,73.1580474 167.267462,70.3187211 163.528062,67.8201401 C159.788667,65.3215532 155.841484,63.21174 151.686502,61.4906887 C147.531526,59.7696374 143.248586,58.4704115 138.837701,57.5930227 C134.426786,56.7156397 129.972686,56.2769482 125.47536,56.2769482 L125.475948,0.237031125 Z" id="Fill-8" fill="url(#radialGradient-2)"></path>
                </g>
                <circle id="Oval" fill="#FFFFFF" cx="124.90822" cy="125.671189" r="87.3982442"></circle>
                <path d="M80.1879256,152.352202 L77.8641075,152.352202 L77.8641075,149.209766 C75.9099878,148.99851 74.0614961,148.47037 72.5827028,147.651752 L72.5827028,144.694165 C74.6160436,145.988109 76.9926757,146.51625 79.1052376,146.51625 C81.4818698,146.51625 83.0926982,145.961702 83.0926982,144.218839 C83.0926982,139.940901 72.6619238,142.211905 72.6619238,135.662963 C72.6619238,132.652562 74.9593349,131.041734 77.8641075,130.698443 L77.8641075,127.5296 L80.1879256,127.5296 L80.1879256,130.672036 C81.9571962,130.804071 83.7264668,131.279397 84.9675969,132.018794 L84.9675969,134.897159 C83.4623965,133.893693 81.4026487,133.339145 79.4221219,133.365552 C77.1775249,133.365552 75.7251386,134.025728 75.7251386,135.610149 C75.7251386,139.59761 86.155913,137.458641 86.155913,144.060397 C86.155913,147.625345 83.4888036,149.051324 80.1879256,149.236173 L80.1879256,152.352202 Z M88.3212889,139.940901 C88.3212889,134.685903 90.8035491,130.619222 96.3754311,130.619222 C101.947313,130.619222 104.429573,134.685903 104.429573,139.940901 C104.429573,145.195899 101.947313,149.26258 96.3754311,149.26258 C90.8035491,149.26258 88.3212889,145.195899 88.3212889,139.940901 Z M101.392766,139.940901 C101.392766,135.768591 99.8083442,133.365552 96.3754311,133.365552 C92.916111,133.365552 91.3580966,135.768591 91.3580966,139.940901 C91.3580966,144.113211 92.916111,146.51625 96.3754311,146.51625 C99.8083442,146.51625 101.392766,144.113211 101.392766,139.940901 Z M110.529596,147.466903 C110.529596,148.655219 109.710978,149.209766 108.760325,149.209766 C107.809672,149.209766 106.964648,148.655219 106.964648,147.466903 C106.964648,146.331401 107.809672,145.776853 108.760325,145.776853 C109.710978,145.776853 110.529596,146.331401 110.529596,147.466903 Z M113.06467,139.940901 C113.06467,134.685903 115.54693,130.619222 121.118812,130.619222 C126.690694,130.619222 129.172955,134.685903 129.172955,139.940901 C129.172955,145.195899 126.690694,149.26258 121.118812,149.26258 C115.54693,149.26258 113.06467,145.195899 113.06467,139.940901 Z M126.136147,139.940901 C126.136147,135.768591 124.551725,133.365552 121.118812,133.365552 C117.659492,133.365552 116.101478,135.768591 116.101478,139.940901 C116.101478,144.113211 117.659492,146.51625 121.118812,146.51625 C124.551725,146.51625 126.136147,144.113211 126.136147,139.940901 Z M140.633603,130.962513 L143.723225,130.962513 L143.723225,142.634417 L146.812846,142.634417 L146.812846,145.248713 L143.723225,145.248713 L143.723225,148.919289 L140.818452,148.919289 L140.818452,145.248713 L131.07426,145.248713 L131.07426,142.687231 L140.633603,130.962513 Z M140.818452,142.634417 L140.818452,134.791531 L134.427952,142.634417 L140.818452,142.634417 Z M149.321514,132.441306 C151.170005,131.173769 153.203346,130.619222 155.289501,130.619222 C158.93367,130.619222 161.60078,132.309271 161.60078,135.662963 C161.60078,138.699771 159.065705,140.495448 156.636259,141.947835 C154.312441,143.321 152.120658,144.430095 152.094251,146.225773 L161.732815,146.199366 L161.732815,148.919289 L148.714152,148.919289 L148.714152,147.546124 C148.714152,143.162558 151.962216,141.498915 154.68214,139.888087 C156.768294,138.673364 158.590379,137.749118 158.590379,135.715777 C158.590379,134.157763 157.243621,133.339145 155.025431,133.339145 C153.203346,133.339145 151.222819,133.972914 149.321514,135.346079 L149.321514,132.441306 Z M165.456205,130.962513 L176.520748,130.962513 L176.520748,133.656029 L168.228943,133.656029 L167.964872,137.986781 C168.836304,137.775525 169.76055,137.669897 170.684796,137.669897 C174.144116,137.669897 177.365773,139.175097 177.365773,143.400221 C177.365773,147.282054 174.064895,149.26258 170.103841,149.26258 C168.017686,149.26258 165.931532,148.813661 164.34711,148.047857 L164.34711,145.222306 C165.852311,146.093737 167.885651,146.542657 169.76055,146.542657 C172.427659,146.542657 174.328965,145.486376 174.328965,143.373814 C174.328965,140.997182 172.295624,140.152157 169.443666,140.152157 C167.991279,140.152157 166.327637,140.442634 164.875251,140.944368 L165.456205,130.962513 Z M90.2886122,162.962513 L92.5068022,162.962513 L92.5068022,178.199366 L95.702052,178.199366 L95.702052,180.919289 L85.9314533,180.919289 L85.9314533,178.199366 L89.5228085,178.199366 L89.5228085,166.052135 L85.9314533,167.398893 L85.9314533,164.626155 L90.2886122,162.962513 Z M121.528121,162.434372 L124.248045,162.434372 L124.248045,180.919289 L121.237644,180.919289 L121.237644,167.979847 L115.401692,176.746979 L113.606014,176.746979 L107.770062,167.95344 L107.770062,180.919289 L104.759661,180.919289 L104.759661,162.434372 L107.479585,162.434372 L114.503853,173.023589 L121.528121,162.434372 Z M131.747639,180.919289 L128.737239,180.919289 L128.737239,162.434372 L131.56279,162.434372 L141.518238,175.954769 C141.491831,175.321 141.491831,174.60801 141.491831,173.921428 L141.491831,162.434372 L144.502232,162.434372 L144.502232,180.919289 L141.67668,180.919289 L131.721232,167.398893 C131.747639,168.032661 131.747639,168.745651 131.747639,169.405827 L131.747639,180.919289 Z M152.001827,180.919289 L148.991426,180.919289 L148.991426,162.434372 L156.385393,162.434372 C159.844713,162.434372 163.488882,163.807538 163.488882,168.217511 C163.488882,171.518389 161.429134,173.10281 158.999688,173.683765 L164.914861,180.919289 L161.297099,180.919289 L155.751624,174.000649 L152.001827,174.000649 L152.001827,180.919289 Z M152.001827,165.180703 L152.001827,171.333539 L156.517428,171.333539 C158.497954,171.333539 160.425667,170.62055 160.425667,168.270325 C160.425667,165.893693 158.497954,165.180703 156.517428,165.180703 L152.001827,165.180703 Z" id="$0.0425-1-MNR" fill="#131F3C"></path>
            </g>
            <path d="M103.745567,113.956634 L107.526235,113.956634 L107.526235,128.659233 L110.49476,128.659233 L110.49476,133 L99.1247504,133 L99.1247504,128.659233 L102.485344,128.659233 L102.485344,119.08154 L99.1247504,120.341763 L99.1247504,115.720946 L103.745567,113.956634 Z M113.575304,113.928629 L126.037507,113.928629 L126.037507,118.269397 L118.224126,118.241392 L118.028091,121.041887 C118.728215,120.929867 119.428339,120.873857 120.072453,120.873857 C123.965141,120.873857 126.877655,122.638169 126.877655,126.922926 C126.877655,131.627757 122.704918,133.420074 118.448166,133.420074 C116.235775,133.420074 114.023384,132.94399 112.315082,132.131847 L112.315082,127.371005 C113.799344,128.407188 116.03974,128.939282 117.888067,128.939282 C120.044448,128.939282 121.69674,128.295168 121.69674,126.810906 C121.69674,125.606693 120.716566,124.68253 117.608017,124.654525 C116.403804,124.654525 114.667497,124.822555 112.903186,125.438664 L113.575304,113.928629 Z M136.819412,134.680297 L133.738868,134.680297 L145.192892,111.716238 L148.273437,111.716238 L136.819412,134.680297 Z M139.283848,118.017352 C139.283848,121.377946 136.819412,123.058243 133.962908,123.058243 C131.078398,123.058243 128.613962,121.377946 128.613962,118.017352 C128.613962,114.656758 131.078398,112.976461 133.962908,112.976461 C136.819412,112.976461 139.283848,114.656758 139.283848,118.017352 Z M132.310616,118.017352 C132.310616,118.857501 132.758695,119.697649 133.962908,119.697649 C135.139115,119.697649 135.587195,118.857501 135.587195,118.017352 C135.587195,117.177204 135.139115,116.337055 133.962908,116.337055 C132.758695,116.337055 132.310616,117.177204 132.310616,118.017352 Z M153.286323,128.379183 C153.286323,131.739777 150.821887,133.420074 147.965382,133.420074 C145.080873,133.420074 142.616437,131.739777 142.616437,128.379183 C142.616437,125.018589 145.080873,123.338292 147.965382,123.338292 C150.821887,123.338292 153.286323,125.018589 153.286323,128.379183 Z M146.31309,128.379183 C146.31309,129.219332 146.761169,130.05948 147.965382,130.05948 C149.14159,130.05948 149.589669,129.219332 149.589669,128.379183 C149.589669,127.539035 149.14159,126.698886 147.965382,126.698886 C146.761169,126.698886 146.31309,127.539035 146.31309,128.379183 Z" id="15%" fill="#131F3C" fill-rule="nonzero"></path>
            <g id="diskon" transform="translate(-0.000000, 139.000000)" fill="#000000">
                <path d="M81.828,9.361 L69.937,9.361 L69.937,7.291 L81.828,7.291 L81.828,9.361 Z M73.042,6.44 L73.042,4.416 L79.114,4.416 L79.114,6.44 L73.042,6.44 Z M89.004,11.891 L86.129,11.891 L86.129,15.962 L83.438,15.962 L83.438,4.324 L86.129,4.324 L86.129,9.683 L89.004,9.683 L89.004,11.891 Z M86.635,24.771 L72.628,24.771 L72.628,19.918 L83.415,19.918 L83.415,18.952 L72.605,18.952 L72.605,16.951 L86.129,16.951 L86.129,21.735 L75.319,21.735 L75.319,22.747 L86.635,22.747 L86.635,24.771 Z M80.931,13.064 C80.931,14.973 78.861,16.261 76.078,16.261 C73.249,16.261 71.156,14.973 71.156,13.064 C71.156,11.178 73.226,9.867 76.078,9.867 C78.861,9.867 80.931,11.178 80.931,13.064 Z M73.824,13.064 C73.824,13.846 74.859,14.329 76.078,14.329 C77.251,14.329 78.286,13.846 78.286,13.064 C78.286,12.328 77.251,11.822 76.078,11.822 C74.836,11.822 73.824,12.328 73.824,13.064 Z M106.921,19.182 L104.253,19.182 L104.253,4.324 L106.921,4.324 L106.921,19.182 Z M107.381,24.265 L93.167,24.265 L93.167,17.71 L95.881,17.71 L95.881,22.149 L107.381,22.149 L107.381,24.265 Z M90.637,10.902 C90.637,8.004 92.822,5.842 96.18,5.842 C99.561,5.842 101.723,8.004 101.723,10.902 C101.723,13.846 99.561,15.939 96.18,15.939 C92.822,15.939 90.637,13.846 90.637,10.902 Z M93.397,10.902 C93.397,12.535 94.455,13.731 96.18,13.731 C97.951,13.731 98.986,12.535 98.986,10.902 C98.986,9.338 97.951,8.142 96.18,8.142 C94.455,8.142 93.397,9.338 93.397,10.902 Z M132.428,24.817 L129.875,24.817 L129.875,14.766 L128.173,14.766 L128.173,23.874 L125.666,23.874 L125.666,4.692 L128.173,4.692 L128.173,12.604 L129.875,12.604 L129.875,4.324 L132.428,4.324 L132.428,24.817 Z M124.378,16.376 C124.378,18.952 122.561,20.631 119.893,20.631 C117.248,20.631 115.408,18.814 115.408,16.376 C115.408,13.777 117.271,12.121 119.893,12.121 C122.561,12.121 124.378,13.8 124.378,16.376 Z M114.971,11.362 L114.971,9.223 L124.746,9.223 L124.746,11.362 L114.971,11.362 Z M121.963,16.376 C121.963,15.111 121.089,14.237 119.893,14.237 C118.72,14.237 117.846,15.111 117.846,16.376 C117.846,17.664 118.72,18.515 119.893,18.515 C121.089,18.515 121.963,17.618 121.963,16.376 Z M117.202,8.05 L117.202,5.911 L122.722,5.911 L122.722,8.05 L117.202,8.05 Z M151.863,24.817 L149.149,24.817 L149.149,13.524 L145.446,13.524 L145.446,11.247 L149.149,11.247 L149.149,4.324 L151.863,4.324 L151.863,24.817 Z M147.355,18.239 L145.814,20.263 C144.112,19.228 141.789,16.652 141.099,14.513 C140.432,16.859 138.339,19.458 136.2,20.608 L134.59,18.63 C137.879,16.491 139.673,13.248 139.673,9.177 L139.673,6.049 L142.433,6.049 L142.433,9.039 C142.433,13.087 144.273,16.261 147.355,18.239 Z M164.168,7.36 L166.675,7.36 L166.675,20.033 L169.297,20.033 L169.297,23 L160.373,23 L160.373,20.033 L163.317,20.033 L163.317,10.81 L160.373,11.914 L160.373,8.809 L164.168,7.36 Z M187.95,24.817 L185.397,24.817 L185.397,14.49 L183.58,14.49 L183.58,23.874 L181.073,23.874 L181.073,4.692 L183.58,4.692 L183.58,12.351 L185.397,12.351 L185.397,4.324 L187.95,4.324 L187.95,24.817 Z M179.21,6.739 C179.233,12.857 176.795,17.526 171.781,20.815 L170.033,18.952 C174.035,16.56 176.266,12.972 176.611,8.901 L171.275,8.901 L171.275,6.739 L179.21,6.739 Z" id="할인-해서-1개"></path>
            </g>
            <g id="16-17-Agustus" fill="#000000">
                <path d="M30.75,12.35 C30.75,10.075 32.65,7.65 37.3,7.65 C41.625,7.65 43.875,10.075 43.9,12.45 C43.925,14.1 43.125,15.35 41.75,16.375 C43.3,17.15 44.525,18.35 44.525,20.4 C44.525,22.9 42.475,25.35 37.35,25.35 C32.275,25.35 30.125,22.875 30.125,20.275 C30.125,18.575 31.175,16.95 32.775,16 C31.6,15.2 30.75,14.075 30.75,12.35 Z M37.725,18 C36.975,17.725 36.075,17.475 35.2,17.15 C34.275,17.925 33.85,18.95 33.875,19.825 C33.9,21.275 35.05,22.4 37.625,22.4 C39.425,22.4 40.8,21.65 40.8,20.5 C40.8,19.05 39.4,18.575 37.725,18 Z M40.3,12.725 C40.3,11.55 39.25,10.6 37.15,10.6 C35.35,10.6 34.325,11.425 34.325,12.375 C34.325,13.875 35.85,14.35 37.525,14.9 C38.025,15.025 38.55,15.2 39.1,15.35 C39.9,14.55 40.325,13.55 40.3,12.725 Z M65.825,27.05 L49.875,27.05 L49.875,22.025 L62.15,22.025 L62.15,21.025 L49.85,21.025 L49.85,18.925 L65.075,18.925 L65.075,23.925 L52.8,23.925 L52.8,24.95 L65.825,24.95 L65.825,27.05 Z M47.85,8.7 C47.85,6.5 50.325,5.025 53.4,5.025 C56.425,5.025 58.85,6.5 58.85,8.75 C58.85,10.925 56.425,12.4 53.4,12.4 C50.325,12.4 47.85,10.925 47.85,8.7 Z M57.725,17.525 L57.725,15.6 L62.2,15.6 L62.2,4.7 L65.1,4.7 L65.1,18.1 L62.2,18.1 L62.2,17.525 L57.725,17.525 Z M54.5,18.125 L51.575,18.125 L51.575,15.425 C49.65,15.5 48.1,15.575 46.575,15.575 L46.175,13.25 C48.7,13.25 50.925,13.225 53.4,13.125 C56.5,12.975 58.65,12.8 60.625,12.55 L60.85,14.725 C59.1,14.975 56.725,15.175 54.5,15.3 L54.5,18.125 Z M50.8,8.725 C50.8,9.675 51.825,10.3 53.4,10.3 C54.925,10.3 56,9.675 56,8.725 C56,7.775 54.925,7.125 53.4,7.125 C51.825,7.125 50.8,7.775 50.8,8.725 Z M78.125,8 L80.85,8 L80.85,21.775 L83.7,21.775 L83.7,25 L74,25 L74,21.775 L77.2,21.775 L77.2,11.75 L74,12.95 L74,9.575 L78.125,8 Z M89.05,15.15 C90.55,14.35 91.925,14 93.6,14 C96.65,14 99.525,15.85 99.525,19.5 C99.525,23.375 96.5,25.35 93.025,25.35 C87.55,25.35 85.325,22 85.325,16.5 C85.325,10.275 89.075,7.65 93.4,7.65 C95,7.65 96.625,8.025 98.075,8.7 L98.075,12 C96.9,11.225 95.35,10.8 93.9,10.8 C91.6,10.8 89.5,11.775 89.05,15.15 Z M89.05,18.175 C89.4,21.35 90.775,22.3 92.725,22.3 C94.375,22.3 95.775,21.55 95.775,19.675 C95.775,17.725 94.2,17.125 92.45,17.125 C91.325,17.125 90.125,17.475 89.05,18.175 Z M120.15,26.8 L104.825,26.8 L104.825,20.825 L116.55,20.825 L116.55,19.275 L104.7,19.275 L104.7,16.975 L119.45,16.975 L119.45,22.925 L107.75,22.925 L107.75,24.45 L120.15,24.45 L120.15,26.8 Z M119.45,15.85 L116.55,15.85 L116.55,4.7 L119.45,4.7 L119.45,15.85 Z M101.7,10.625 C101.7,7.65 104.2,5.45 107.625,5.45 C111.025,5.45 113.5,7.6 113.5,10.625 C113.5,13.6 111.025,15.6 107.625,15.6 C104.325,15.6 101.7,13.675 101.7,10.625 Z M104.6,10.6 C104.6,12.1 105.9,13.175 107.625,13.175 C109.45,13.175 110.6,11.975 110.6,10.6 C110.6,9.075 109.5,7.85 107.625,7.85 C105.975,7.85 104.6,9.1 104.6,10.6 Z M123.3,17.45 L132.6,17.45 L132.6,20.375 L123.3,20.375 L123.3,17.45 Z M135.625,12.35 C135.625,10.075 137.525,7.65 142.175,7.65 C146.5,7.65 148.75,10.075 148.775,12.45 C148.8,14.1 148,15.35 146.625,16.375 C148.175,17.15 149.4,18.35 149.4,20.4 C149.4,22.9 147.35,25.35 142.225,25.35 C137.15,25.35 135,22.875 135,20.275 C135,18.575 136.05,16.95 137.65,16 C136.475,15.2 135.625,14.075 135.625,12.35 Z M142.6,18 C141.85,17.725 140.95,17.475 140.075,17.15 C139.15,17.925 138.725,18.95 138.75,19.825 C138.775,21.275 139.925,22.4 142.5,22.4 C144.3,22.4 145.675,21.65 145.675,20.5 C145.675,19.05 144.275,18.575 142.6,18 Z M145.175,12.725 C145.175,11.55 144.125,10.6 142.025,10.6 C140.225,10.6 139.2,11.425 139.2,12.375 C139.2,13.875 140.725,14.35 142.4,14.9 C142.9,15.025 143.425,15.2 143.975,15.35 C144.775,14.55 145.2,13.55 145.175,12.725 Z M170.7,27.05 L154.75,27.05 L154.75,22.025 L167.025,22.025 L167.025,21.025 L154.725,21.025 L154.725,18.925 L169.95,18.925 L169.95,23.925 L157.675,23.925 L157.675,24.95 L170.7,24.95 L170.7,27.05 Z M152.725,8.7 C152.725,6.5 155.2,5.025 158.275,5.025 C161.3,5.025 163.725,6.5 163.725,8.75 C163.725,10.925 161.3,12.4 158.275,12.4 C155.2,12.4 152.725,10.925 152.725,8.7 Z M162.6,17.525 L162.6,15.6 L167.075,15.6 L167.075,4.7 L169.975,4.7 L169.975,18.1 L167.075,18.1 L167.075,17.525 L162.6,17.525 Z M159.375,18.125 L156.45,18.125 L156.45,15.425 C154.525,15.5 152.975,15.575 151.45,15.575 L151.05,13.25 C153.575,13.25 155.8,13.225 158.275,13.125 C161.375,12.975 163.525,12.8 165.5,12.55 L165.725,14.725 C163.975,14.975 161.6,15.175 159.375,15.3 L159.375,18.125 Z M155.675,8.725 C155.675,9.675 156.7,10.3 158.275,10.3 C159.8,10.3 160.875,9.675 160.875,8.725 C160.875,7.775 159.8,7.125 158.275,7.125 C156.7,7.125 155.675,7.775 155.675,8.725 Z M183,8 L185.725,8 L185.725,21.775 L188.575,21.775 L188.575,25 L178.875,25 L178.875,21.775 L182.075,21.775 L182.075,11.75 L178.875,12.95 L178.875,9.575 L183,8 Z M189.75,7.975 L202.825,7.975 L202.825,10.675 L195.85,25 L191.8,25 L198.525,11.2 L189.75,11.2 L189.75,7.975 Z M223.125,26.8 L207.8,26.8 L207.8,20.825 L219.525,20.825 L219.525,19.275 L207.675,19.275 L207.675,16.975 L222.425,16.975 L222.425,22.925 L210.725,22.925 L210.725,24.45 L223.125,24.45 L223.125,26.8 Z M222.425,15.85 L219.525,15.85 L219.525,4.7 L222.425,4.7 L222.425,15.85 Z M204.675,10.625 C204.675,7.65 207.175,5.45 210.6,5.45 C214,5.45 216.475,7.6 216.475,10.625 C216.475,13.6 214,15.6 210.6,15.6 C207.3,15.6 204.675,13.675 204.675,10.625 Z M207.575,10.6 C207.575,12.1 208.875,13.175 210.6,13.175 C212.425,13.175 213.575,11.975 213.575,10.6 C213.575,9.075 212.475,7.85 210.6,7.85 C208.95,7.85 207.575,9.1 207.575,10.6 Z" id="8월-16일-8월-17일"></path>
            </g>
        </g>
    </g>
</svg>