<?xml version="1.0" encoding="UTF-8"?>
<svg width="250px" height="295px" viewBox="0 0 250 295" version="1.1" xmlns="http://www.w3.org/2000/svg" xmlns:xlink="http://www.w3.org/1999/xlink">
    <!-- Generator: Sketch 48.2 (47327) - http://www.bohemiancoding.com/sketch -->
    <title>text_5</title>
    <desc>Created with Sketch.</desc>
    <defs>
        <radialGradient cx="200%" cy="200%" fx="200%" fy="200%" r="50.0253367%" gradientTransform="translate(2.000000,2.000000),scale(1.000000,1.000000),translate(-2.000000,-2.000000)" id="radialGradient-1">
            <stop stop-color="#FF9495" offset="0%"></stop>
            <stop stop-color="#FE5F60" offset="70.3742825%"></stop>
            <stop stop-color="#FF9091" offset="100%"></stop>
        </radialGradient>
    </defs>
    <g id="Page-1" stroke="none" stroke-width="1" fill="none" fill-rule="evenodd">
        <g id="text_5" transform="translate(-1.000000, -4.000000)">
            <g id="5-copy" transform="translate(1.000000, 49.000000)" fill-rule="nonzero">
                <g id="Group-7" transform="translate(0.637670, 0.351157)">
                    <path d="M124.637764,0 C132.821471,3.54941064e-05 140.926556,0.798353806 148.953007,2.39495144 C156.979458,3.99155257 164.773039,6.3557574 172.333767,9.48756474 C179.894518,12.6193674 187.07714,16.4586026 193.881645,21.0052615 C200.686127,25.5519244 206.981723,30.7186496 212.768466,36.505437 C218.55521,42.2922239 223.721866,48.5878904 228.268475,55.3924265 C232.815084,62.1969726 236.654249,69.3796356 239.785993,76.9404155 C242.917771,84.501213 245.281976,92.2948576 246.878535,100.321349 C248.475089,108.347835 249.273352,116.452955 249.273352,124.63668 C249.273317,132.820463 248.47502,140.925612 246.87839,148.952133 C245.281836,156.978654 242.917632,164.77231 239.785777,172.333131 C236.653998,179.893946 232.81477,187.076626 228.26812,193.88116 C223.721476,200.685701 218.554745,206.981366 212.767931,212.768162 C206.981152,218.554958 200.685522,223.721672 193.880953,228.268334 C187.076412,232.814977 179.893755,236.654194 172.332969,239.785956 C164.772184,242.917752 156.978533,245.281921 148.952047,246.878499 C140.925544,248.47507 132.820424,249.27335 124.636682,249.27335 C116.452899,249.273315 108.347767,248.475 100.321264,246.878388 C92.2947429,245.281799 84.5010693,242.917595 76.9402486,239.785775 C69.3794278,236.653979 62.1967532,232.81475 55.392213,228.268101 C48.5876669,223.72144 42.2920016,218.554726 36.5052171,212.767929 C30.7184267,206.981156 25.5517068,200.685485 21.005063,193.880951 C16.4584077,187.076411 12.6191964,179.893754 9.48740589,172.33295 C6.35561542,164.772164 3.99144027,156.978532 2.39487464,148.952046 C0.798285727,140.925542 0,132.820422 0,124.63668 C2.90935298e-05,116.452914 0.798343914,108.347783 2.39494446,100.32125 C3.99154501,92.2947296 6.35574925,84.5010675 9.48755718,76.9402584 C12.6193651,69.3794494 16.4586055,62.1967689 21.0052667,55.3922229 C25.5519221,48.5876774 30.7186478,42.2920022 36.5054382,36.5052148 C42.2922344,30.7184232 48.5878997,25.5517027 55.3924283,21.0050526 C62.1969627,16.458403 69.3796431,12.6191853 76.9404289,9.48740007 C84.5012089,6.35561542 92.2948651,3.99143736 100.321351,2.39486707 C108.347837,0.798292128 116.452951,4.65496476e-06 124.636682,4.65496476e-06 L124.636577,56.086505 C120.135546,56.0865341 115.67776,56.5256079 111.263212,57.4037437 C106.848659,58.2818679 102.562199,59.5821799 98.4037791,61.3046682 C94.2453594,63.0271681 90.2949352,65.1387532 86.5524599,67.6394177 C82.8099904,70.1400823 79.3474123,72.9817811 76.1647023,76.1645144 C72.9819924,79.3472476 70.1403109,82.8098664 67.6396813,86.5523534 C65.1390459,90.294852 63.0274898,94.2453169 61.305019,98.4037482 C59.5825599,102.56218 58.2822653,106.848681 57.4041528,111.263263 C56.5260693,115.67781 56.0870247,120.135637 56.0870072,124.636697 C56.0870247,129.137757 56.5261042,133.595602 57.40424,138.010184 C58.2823526,142.424773 59.5826646,146.711274 61.3051587,150.869722 C63.0276702,155.028177 65.1392379,158.978642 67.6399082,162.721146 C70.1405786,166.463656 72.9822775,169.926287 76.1650049,173.109014 C79.347744,176.291742 82.8103628,179.133441 86.5528497,181.634111 C90.2953425,184.134741 94.2458016,186.246314 98.4042387,187.968808 C102.562676,189.691296 106.849177,190.991608 111.263742,191.869727 C115.678313,192.747822 120.136116,193.186872 124.637176,193.186872 C129.138242,193.186855 133.596081,192.747787 138.010686,191.869674 C142.425251,190.991539 146.71177,189.691227 150.870224,187.968715 C155.028679,186.246227 158.979138,184.134653 162.721648,181.633983 C166.464135,179.133313 169.926754,176.29162 173.109493,173.108892 C176.292238,169.926165 179.133937,166.463546 181.634607,162.721042 C184.13526,158.978531 186.246828,155.028072 187.969305,150.869635 C189.691775,146.711198 190.992087,142.424697 191.870206,138.010132 C192.748318,133.59555 193.187369,129.13774 193.187351,124.636697 C193.187334,120.135637 192.748266,115.677793 191.870153,111.263211 C190.992018,106.848622 189.691706,102.562104 187.969194,98.4036551 C186.246723,94.2452064 184.13515,90.2947356 181.634479,86.552237 C179.133815,82.8097384 176.292098,79.3471254 173.109371,76.1643922 C169.926644,72.9816531 166.464031,70.1399659 162.72152,67.6393072 C158.979016,65.1386426 155.028551,63.027075 150.870114,61.3045925 C146.711683,59.5821101 142.425182,58.2818039 138.010628,57.4036855 C133.596046,56.525573 129.138242,56.0865167 124.637176,56.0865167 L124.637764,0 Z" id="Fill-8" fill="url(#radialGradient-1)"></path>
                    <circle id="Oval" fill="#FFFFFF" cx="124.90822" cy="124.90822" r="87.3982442"></circle>
                    <path d="M77.8377005,151.589233 L75.5138824,151.589233 L75.5138824,148.446797 C73.5597627,148.235541 71.711271,147.707401 70.2324777,146.888783 L70.2324777,143.931196 C72.2658185,145.225141 74.6424506,145.753281 76.7550125,145.753281 C79.1316447,145.753281 80.7424731,145.198734 80.7424731,143.45587 C80.7424731,139.177932 70.3116987,141.448936 70.3116987,134.899994 C70.3116987,131.889594 72.6091098,130.278765 75.5138824,129.935474 L75.5138824,126.766631 L77.8377005,126.766631 L77.8377005,129.909067 C79.6069711,130.041102 81.3762417,130.516428 82.6173718,131.255825 L82.6173718,134.134191 C81.1121714,133.130724 79.0524236,132.576176 77.0718968,132.602583 C74.8272998,132.602583 73.3749135,133.262759 73.3749135,134.84718 C73.3749135,138.834641 83.8056879,136.695672 83.8056879,143.297428 C83.8056879,146.862376 81.1385785,148.288355 77.8377005,148.473204 L77.8377005,151.589233 Z M85.9710638,139.177932 C85.9710638,133.922934 88.453324,129.856253 94.025206,129.856253 C99.597088,129.856253 102.079348,133.922934 102.079348,139.177932 C102.079348,144.43293 99.597088,148.499611 94.025206,148.499611 C88.453324,148.499611 85.9710638,144.43293 85.9710638,139.177932 Z M99.0425405,139.177932 C99.0425405,135.005622 97.4581191,132.602583 94.025206,132.602583 C90.5658859,132.602583 89.0078715,135.005622 89.0078715,139.177932 C89.0078715,143.350242 90.5658859,145.753281 94.025206,145.753281 C97.4581191,145.753281 99.0425405,143.350242 99.0425405,139.177932 Z M108.179371,146.703934 C108.179371,147.89225 107.360753,148.446797 106.4101,148.446797 C105.459447,148.446797 104.614423,147.89225 104.614423,146.703934 C104.614423,145.568432 105.459447,145.013884 106.4101,145.013884 C107.360753,145.013884 108.179371,145.568432 108.179371,146.703934 Z M110.714445,139.177932 C110.714445,133.922934 113.196705,129.856253 118.768587,129.856253 C124.340469,129.856253 126.822729,133.922934 126.822729,139.177932 C126.822729,144.43293 124.340469,148.499611 118.768587,148.499611 C113.196705,148.499611 110.714445,144.43293 110.714445,139.177932 Z M123.785922,139.177932 C123.785922,135.005622 122.2015,132.602583 118.768587,132.602583 C115.309267,132.602583 113.751253,135.005622 113.751253,139.177932 C113.751253,143.350242 115.309267,145.753281 118.768587,145.753281 C122.2015,145.753281 123.785922,143.350242 123.785922,139.177932 Z M130.519713,130.199544 L141.584256,130.199544 L141.584256,132.89306 L133.29245,132.89306 L133.02838,137.223812 C133.899812,137.012556 134.824058,136.906928 135.748304,136.906928 C139.207624,136.906928 142.429281,138.412128 142.429281,142.637252 C142.429281,146.519085 139.128403,148.499611 135.167349,148.499611 C133.081194,148.499611 130.995039,148.050692 129.410618,147.284888 L129.410618,144.459337 C130.915818,145.330769 132.949159,145.779688 134.824058,145.779688 C137.491167,145.779688 139.392473,144.723407 139.392473,142.610845 C139.392473,140.234213 137.359132,139.389188 134.507173,139.389188 C133.054787,139.389188 131.391145,139.679666 129.938758,140.181399 L130.519713,130.199544 Z M144.779506,139.177932 C144.779506,133.922934 147.261766,129.856253 152.833648,129.856253 C158.40553,129.856253 160.88779,133.922934 160.88779,139.177932 C160.88779,144.43293 158.40553,148.499611 152.833648,148.499611 C147.261766,148.499611 144.779506,144.43293 144.779506,139.177932 Z M157.850982,139.177932 C157.850982,135.005622 156.266561,132.602583 152.833648,132.602583 C149.374328,132.602583 147.816313,135.005622 147.816313,139.177932 C147.816313,143.350242 149.374328,145.753281 152.833648,145.753281 C156.266561,145.753281 157.850982,143.350242 157.850982,139.177932 Z M163.422864,139.177932 C163.422864,133.922934 165.905125,129.856253 171.477007,129.856253 C177.048889,129.856253 179.531149,133.922934 179.531149,139.177932 C179.531149,144.43293 177.048889,148.499611 171.477007,148.499611 C165.905125,148.499611 163.422864,144.43293 163.422864,139.177932 Z M176.494341,139.177932 C176.494341,135.005622 174.90992,132.602583 171.477007,132.602583 C168.017686,132.602583 166.459672,135.005622 166.459672,139.177932 C166.459672,143.350242 168.017686,145.753281 171.477007,145.753281 C174.90992,145.753281 176.494341,143.350242 176.494341,139.177932 Z M90.2886122,162.199544 L92.5068022,162.199544 L92.5068022,177.436397 L95.702052,177.436397 L95.702052,180.15632 L85.9314533,180.15632 L85.9314533,177.436397 L89.5228085,177.436397 L89.5228085,165.289166 L85.9314533,166.635924 L85.9314533,163.863187 L90.2886122,162.199544 Z M121.528121,161.671404 L124.248045,161.671404 L124.248045,180.15632 L121.237644,180.15632 L121.237644,167.216879 L115.401692,175.98401 L113.606014,175.98401 L107.770062,167.190472 L107.770062,180.15632 L104.759661,180.15632 L104.759661,161.671404 L107.479585,161.671404 L114.503853,172.26062 L121.528121,161.671404 Z M131.747639,180.15632 L128.737239,180.15632 L128.737239,161.671404 L131.56279,161.671404 L141.518238,175.1918 C141.491831,174.558031 141.491831,173.845041 141.491831,173.158459 L141.491831,161.671404 L144.502232,161.671404 L144.502232,180.15632 L141.67668,180.15632 L131.721232,166.635924 C131.747639,167.269693 131.747639,167.982682 131.747639,168.642858 L131.747639,180.15632 Z M152.001827,180.15632 L148.991426,180.15632 L148.991426,161.671404 L156.385393,161.671404 C159.844713,161.671404 163.488882,163.044569 163.488882,167.454542 C163.488882,170.75542 161.429134,172.339841 158.999688,172.920796 L164.914861,180.15632 L161.297099,180.15632 L155.751624,173.23768 L152.001827,173.23768 L152.001827,180.15632 Z M152.001827,164.417734 L152.001827,170.570571 L156.517428,170.570571 C158.497954,170.570571 160.425667,169.857581 160.425667,167.507356 C160.425667,165.130724 158.497954,164.417734 156.517428,164.417734 L152.001827,164.417734 Z" id="$0.0500-1-MNR" fill="#131F3C"></path>
                </g>
            </g>
            <path d="M104.969607,125.478317 C104.969607,120.045357 107.574067,115.53656 113.791166,115.53656 C120.008265,115.53656 122.612725,120.045357 122.612725,125.478317 C122.612725,130.911277 120.008265,135.420074 113.791166,135.420074 C107.574067,135.420074 104.969607,130.911277 104.969607,125.478317 Z M117.431809,125.478317 C117.431809,121.809669 116.283606,120.017352 113.791166,120.017352 C111.298725,120.017352 110.150522,121.809669 110.150522,125.478317 C110.150522,129.146966 111.298725,130.939282 113.791166,130.939282 C116.283606,130.939282 117.431809,129.146966 117.431809,125.478317 Z M132.666502,136.680297 L129.585957,136.680297 L141.039982,113.716238 L144.120526,113.716238 L132.666502,136.680297 Z M135.130937,120.017352 C135.130937,123.377946 132.666502,125.058243 129.809997,125.058243 C126.925487,125.058243 124.461052,123.377946 124.461052,120.017352 C124.461052,116.656758 126.925487,114.976461 129.809997,114.976461 C132.666502,114.976461 135.130937,116.656758 135.130937,120.017352 Z M128.157705,120.017352 C128.157705,120.857501 128.605784,121.697649 129.809997,121.697649 C130.986205,121.697649 131.434284,120.857501 131.434284,120.017352 C131.434284,119.177204 130.986205,118.337055 129.809997,118.337055 C128.605784,118.337055 128.157705,119.177204 128.157705,120.017352 Z M149.133412,130.379183 C149.133412,133.739777 146.668976,135.420074 143.812472,135.420074 C140.927962,135.420074 138.463526,133.739777 138.463526,130.379183 C138.463526,127.018589 140.927962,125.338292 143.812472,125.338292 C146.668976,125.338292 149.133412,127.018589 149.133412,130.379183 Z M142.16018,130.379183 C142.16018,131.219332 142.608259,132.05948 143.812472,132.05948 C144.988679,132.05948 145.436759,131.219332 145.436759,130.379183 C145.436759,129.539035 144.988679,128.698886 143.812472,128.698886 C142.608259,128.698886 142.16018,129.539035 142.16018,130.379183 Z" id="0%" fill="#131F3C" fill-rule="nonzero"></path>
            <g id="diskon" transform="translate(0.000000, 141.000000)" fill="#000000">
                <path d="M79.275,9.361 L67.384,9.361 L67.384,7.291 L79.275,7.291 L79.275,9.361 Z M70.489,6.44 L70.489,4.416 L76.561,4.416 L76.561,6.44 L70.489,6.44 Z M86.451,11.891 L83.576,11.891 L83.576,15.962 L80.885,15.962 L80.885,4.324 L83.576,4.324 L83.576,9.683 L86.451,9.683 L86.451,11.891 Z M84.082,24.771 L70.075,24.771 L70.075,19.918 L80.862,19.918 L80.862,18.952 L70.052,18.952 L70.052,16.951 L83.576,16.951 L83.576,21.735 L72.766,21.735 L72.766,22.747 L84.082,22.747 L84.082,24.771 Z M78.378,13.064 C78.378,14.973 76.308,16.261 73.525,16.261 C70.696,16.261 68.603,14.973 68.603,13.064 C68.603,11.178 70.673,9.867 73.525,9.867 C76.308,9.867 78.378,11.178 78.378,13.064 Z M71.271,13.064 C71.271,13.846 72.306,14.329 73.525,14.329 C74.698,14.329 75.733,13.846 75.733,13.064 C75.733,12.328 74.698,11.822 73.525,11.822 C72.283,11.822 71.271,12.328 71.271,13.064 Z M104.368,19.182 L101.7,19.182 L101.7,4.324 L104.368,4.324 L104.368,19.182 Z M104.828,24.265 L90.614,24.265 L90.614,17.71 L93.328,17.71 L93.328,22.149 L104.828,22.149 L104.828,24.265 Z M88.084,10.902 C88.084,8.004 90.269,5.842 93.627,5.842 C97.008,5.842 99.17,8.004 99.17,10.902 C99.17,13.846 97.008,15.939 93.627,15.939 C90.269,15.939 88.084,13.846 88.084,10.902 Z M90.844,10.902 C90.844,12.535 91.902,13.731 93.627,13.731 C95.398,13.731 96.433,12.535 96.433,10.902 C96.433,9.338 95.398,8.142 93.627,8.142 C91.902,8.142 90.844,9.338 90.844,10.902 Z M129.875,24.817 L127.322,24.817 L127.322,14.766 L125.62,14.766 L125.62,23.874 L123.113,23.874 L123.113,4.692 L125.62,4.692 L125.62,12.604 L127.322,12.604 L127.322,4.324 L129.875,4.324 L129.875,24.817 Z M121.825,16.376 C121.825,18.952 120.008,20.631 117.34,20.631 C114.695,20.631 112.855,18.814 112.855,16.376 C112.855,13.777 114.718,12.121 117.34,12.121 C120.008,12.121 121.825,13.8 121.825,16.376 Z M112.418,11.362 L112.418,9.223 L122.193,9.223 L122.193,11.362 L112.418,11.362 Z M119.41,16.376 C119.41,15.111 118.536,14.237 117.34,14.237 C116.167,14.237 115.293,15.111 115.293,16.376 C115.293,17.664 116.167,18.515 117.34,18.515 C118.536,18.515 119.41,17.618 119.41,16.376 Z M114.649,8.05 L114.649,5.911 L120.169,5.911 L120.169,8.05 L114.649,8.05 Z M149.31,24.817 L146.596,24.817 L146.596,13.524 L142.893,13.524 L142.893,11.247 L146.596,11.247 L146.596,4.324 L149.31,4.324 L149.31,24.817 Z M144.802,18.239 L143.261,20.263 C141.559,19.228 139.236,16.652 138.546,14.513 C137.879,16.859 135.786,19.458 133.647,20.608 L132.037,18.63 C135.326,16.491 137.12,13.248 137.12,9.177 L137.12,6.049 L139.88,6.049 L139.88,9.039 C139.88,13.087 141.72,16.261 144.802,18.239 Z M161.615,7.36 L164.122,7.36 L164.122,20.033 L166.744,20.033 L166.744,23 L157.82,23 L157.82,20.033 L160.764,20.033 L160.764,10.81 L157.82,11.914 L157.82,8.809 L161.615,7.36 Z M185.397,24.817 L182.844,24.817 L182.844,14.49 L181.027,14.49 L181.027,23.874 L178.52,23.874 L178.52,4.692 L181.027,4.692 L181.027,12.351 L182.844,12.351 L182.844,4.324 L185.397,4.324 L185.397,24.817 Z M176.657,6.739 C176.68,12.857 174.242,17.526 169.228,20.815 L167.48,18.952 C171.482,16.56 173.713,12.972 174.058,8.901 L168.722,8.901 L168.722,6.739 L176.657,6.739 Z" id="할인-해서-1개"></path>
            </g>
            <g id="11-—-30-September" transform="translate(1.000000, 0.000000)" fill="#000000">
                <path d="M22.7875,7.975 L33.5875,7.975 L33.5875,11.2 L26.1625,11.175 L25.9375,14.5 C26.6625,14.35 27.4375,14.25 28.1375,14.25 C31.5375,14.25 34.3625,15.775 34.3625,19.675 C34.3625,23.625 30.9125,25.35 27.1625,25.35 C25.1875,25.35 23.1875,24.925 21.6875,24.2 L21.6875,20.725 C23.0625,21.6 25.0375,22.075 26.7375,22.075 C28.9625,22.075 30.6125,21.275 30.6125,19.625 C30.6125,17.95 29.1875,17.125 26.4625,17.125 C25.2375,17.125 23.6625,17.325 22.1875,17.85 L22.7875,7.975 Z M55.5625,27.05 L39.6125,27.05 L39.6125,22.025 L51.8875,22.025 L51.8875,21.025 L39.5875,21.025 L39.5875,18.925 L54.8125,18.925 L54.8125,23.925 L42.5375,23.925 L42.5375,24.95 L55.5625,24.95 L55.5625,27.05 Z M37.5875,8.7 C37.5875,6.5 40.0625,5.025 43.1375,5.025 C46.1625,5.025 48.5875,6.5 48.5875,8.75 C48.5875,10.925 46.1625,12.4 43.1375,12.4 C40.0625,12.4 37.5875,10.925 37.5875,8.7 Z M47.4625,17.525 L47.4625,15.6 L51.9375,15.6 L51.9375,4.7 L54.8375,4.7 L54.8375,18.1 L51.9375,18.1 L51.9375,17.525 L47.4625,17.525 Z M44.2375,18.125 L41.3125,18.125 L41.3125,15.425 C39.3875,15.5 37.8375,15.575 36.3125,15.575 L35.9125,13.25 C38.4375,13.25 40.6625,13.225 43.1375,13.125 C46.2375,12.975 48.3875,12.8 50.3625,12.55 L50.5875,14.725 C48.8375,14.975 46.4625,15.175 44.2375,15.3 L44.2375,18.125 Z M40.5375,8.725 C40.5375,9.675 41.5625,10.3 43.1375,10.3 C44.6625,10.3 45.7375,9.675 45.7375,8.725 C45.7375,7.775 44.6625,7.125 43.1375,7.125 C41.5625,7.125 40.5375,7.775 40.5375,8.725 Z M67.8625,8 L70.5875,8 L70.5875,21.775 L73.4375,21.775 L73.4375,25 L63.7375,25 L63.7375,21.775 L66.9375,21.775 L66.9375,11.75 L63.7375,12.95 L63.7375,9.575 L67.8625,8 Z M75.0625,16.5 C75.0625,11.6 77.3875,7.65 82.8125,7.65 C88.2375,7.65 90.5625,11.6 90.5625,16.5 C90.5625,21.4 88.2375,25.35 82.8125,25.35 C77.3875,25.35 75.0625,21.4 75.0625,16.5 Z M86.8125,16.5 C86.8125,12.875 85.5625,10.95 82.8125,10.95 C80.0625,10.95 78.8125,12.875 78.8125,16.5 C78.8125,20.125 80.0625,22.05 82.8125,22.05 C85.5625,22.05 86.8125,20.125 86.8125,16.5 Z M117.0375,26.8 L101.7125,26.8 L101.7125,20.825 L113.4375,20.825 L113.4375,19.275 L101.5875,19.275 L101.5875,16.975 L116.3375,16.975 L116.3375,22.925 L104.6375,22.925 L104.6375,24.45 L117.0375,24.45 L117.0375,26.8 Z M116.3375,15.85 L113.4375,15.85 L113.4375,4.7 L116.3375,4.7 L116.3375,15.85 Z M98.5875,10.625 C98.5875,7.65 101.0875,5.45 104.5125,5.45 C107.9125,5.45 110.3875,7.6 110.3875,10.625 C110.3875,13.6 107.9125,15.6 104.5125,15.6 C101.2125,15.6 98.5875,13.675 98.5875,10.625 Z M101.4875,10.6 C101.4875,12.1 102.7875,13.175 104.5125,13.175 C106.3375,13.175 107.4875,11.975 107.4875,10.6 C107.4875,9.075 106.3875,7.85 104.5125,7.85 C102.8625,7.85 101.4875,9.1 101.4875,10.6 Z M120.1875,17.45 L129.4875,17.45 L129.4875,20.375 L120.1875,20.375 L120.1875,17.45 Z M141.2125,15.15 C142.7125,14.35 144.0875,14 145.7625,14 C148.8125,14 151.6875,15.85 151.6875,19.5 C151.6875,23.375 148.6625,25.35 145.1875,25.35 C139.7125,25.35 137.4875,22 137.4875,16.5 C137.4875,10.275 141.2375,7.65 145.5625,7.65 C147.1625,7.65 148.7875,8.025 150.2375,8.7 L150.2375,12 C149.0625,11.225 147.5125,10.8 146.0625,10.8 C143.7625,10.8 141.6625,11.775 141.2125,15.15 Z M141.2125,18.175 C141.5625,21.35 142.9375,22.3 144.8875,22.3 C146.5375,22.3 147.9375,21.55 147.9375,19.675 C147.9375,17.725 146.3625,17.125 144.6125,17.125 C143.4875,17.125 142.2875,17.475 141.2125,18.175 Z M172.7375,27.05 L156.7875,27.05 L156.7875,22.025 L169.0625,22.025 L169.0625,21.025 L156.7625,21.025 L156.7625,18.925 L171.9875,18.925 L171.9875,23.925 L159.7125,23.925 L159.7125,24.95 L172.7375,24.95 L172.7375,27.05 Z M154.7625,8.7 C154.7625,6.5 157.2375,5.025 160.3125,5.025 C163.3375,5.025 165.7625,6.5 165.7625,8.75 C165.7625,10.925 163.3375,12.4 160.3125,12.4 C157.2375,12.4 154.7625,10.925 154.7625,8.7 Z M164.6375,17.525 L164.6375,15.6 L169.1125,15.6 L169.1125,4.7 L172.0125,4.7 L172.0125,18.1 L169.1125,18.1 L169.1125,17.525 L164.6375,17.525 Z M161.4125,18.125 L158.4875,18.125 L158.4875,15.425 C156.5625,15.5 155.0125,15.575 153.4875,15.575 L153.0875,13.25 C155.6125,13.25 157.8375,13.225 160.3125,13.125 C163.4125,12.975 165.5625,12.8 167.5375,12.55 L167.7625,14.725 C166.0125,14.975 163.6375,15.175 161.4125,15.3 L161.4125,18.125 Z M157.7125,8.725 C157.7125,9.675 158.7375,10.3 160.3125,10.3 C161.8375,10.3 162.9125,9.675 162.9125,8.725 C162.9125,7.775 161.8375,7.125 160.3125,7.125 C158.7375,7.125 157.7125,7.775 157.7125,8.725 Z M185.0375,8 L187.7625,8 L187.7625,21.775 L190.6125,21.775 L190.6125,25 L180.9125,25 L180.9125,21.775 L184.1125,21.775 L184.1125,11.75 L180.9125,12.95 L180.9125,9.575 L185.0375,8 Z M192.2375,16.5 C192.2375,11.6 194.5625,7.65 199.9875,7.65 C205.4125,7.65 207.7375,11.6 207.7375,16.5 C207.7375,21.4 205.4125,25.35 199.9875,25.35 C194.5625,25.35 192.2375,21.4 192.2375,16.5 Z M203.9875,16.5 C203.9875,12.875 202.7375,10.95 199.9875,10.95 C197.2375,10.95 195.9875,12.875 195.9875,16.5 C195.9875,20.125 197.2375,22.05 199.9875,22.05 C202.7375,22.05 203.9875,20.125 203.9875,16.5 Z M228.6625,26.8 L213.3375,26.8 L213.3375,20.825 L225.0625,20.825 L225.0625,19.275 L213.2125,19.275 L213.2125,16.975 L227.9625,16.975 L227.9625,22.925 L216.2625,22.925 L216.2625,24.45 L228.6625,24.45 L228.6625,26.8 Z M227.9625,15.85 L225.0625,15.85 L225.0625,4.7 L227.9625,4.7 L227.9625,15.85 Z M210.2125,10.625 C210.2125,7.65 212.7125,5.45 216.1375,5.45 C219.5375,5.45 222.0125,7.6 222.0125,10.625 C222.0125,13.6 219.5375,15.6 216.1375,15.6 C212.8375,15.6 210.2125,13.675 210.2125,10.625 Z M213.1125,10.6 C213.1125,12.1 214.4125,13.175 216.1375,13.175 C217.9625,13.175 219.1125,11.975 219.1125,10.6 C219.1125,9.075 218.0125,7.85 216.1375,7.85 C214.4875,7.85 213.1125,9.1 213.1125,10.6 Z" id="5월-10-일--6월-10일"></path>
            </g>
        </g>
    </g>
</svg>