<?xml version="1.0" encoding="UTF-8"?>
<svg width="250px" height="295px" viewBox="0 0 250 295" version="1.1" xmlns="http://www.w3.org/2000/svg" xmlns:xlink="http://www.w3.org/1999/xlink">
    <!-- Generator: Sketch 48.2 (47327) - http://www.bohemiancoding.com/sketch -->
    <title>text_3</title>
    <desc>Created with Sketch.</desc>
    <defs>
        <radialGradient cx="400%" cy="200%" fx="400%" fy="200%" r="100.014205%" gradientTransform="translate(4.000000,2.000000),scale(1.000000,0.500004),translate(-4.000000,-2.000000)" id="radialGradient-1">
            <stop stop-color="#8D00FF" offset="0%"></stop>
            <stop stop-color="#5C00FE" offset="69.8959662%"></stop>
            <stop stop-color="#8900FF" offset="100%"></stop>
        </radialGradient>
        <radialGradient cx="400%" cy="200%" fx="400%" fy="200%" r="100.011799%" gradientTransform="translate(4.000000,2.000000),scale(1.000000,0.500004),translate(-4.000000,-2.000000)" id="radialGradient-2">
            <stop stop-color="#FF9495" offset="0%"></stop>
            <stop stop-color="#FE5F60" offset="70.3742825%"></stop>
            <stop stop-color="#FF9091" offset="100%"></stop>
        </radialGradient>
    </defs>
    <g id="Page-1" stroke="none" stroke-width="1" fill="none" fill-rule="evenodd">
        <g id="text_3" transform="translate(-1.000000, -4.000000)">
            <g id="3-copy" transform="translate(1.000000, 49.000000)" fill-rule="nonzero">
                <g id="Group-Copy-2" transform="translate(0.933759, 0.000000)">
                    <g id="Group-6" transform="translate(0.000000, 0.762969)">
                        <g id="Group-31">
                            <path d="M124.524976,249.047781 C113.595699,249.047871 102.852631,247.633628 92.2957729,244.804995 C81.7389145,241.976368 71.727937,237.829799 62.2629045,232.365289 C52.7978079,226.900714 44.2011758,220.304407 36.4730082,212.576368 C28.7447764,204.848264 22.1482772,196.25176 16.6835746,186.786792 C11.218872,177.321823 7.07211127,167.31091 4.24335644,156.754116 C1.41453755,146.197257 0.000128110995,135.454189 0,124.524976 C-6.40554976e-05,113.595699 1.41415322,102.852631 4.24277994,92.2957729 C7.07140665,81.7388504 11.2179752,71.727937 16.6825497,62.2628404 C22.1472523,52.7976798 28.7436875,44.2009837 36.4719192,36.4727519 C44.2000869,28.7444561 52.796719,22.148021 62.2618155,16.6833184 C71.726848,11.2185517 81.7378255,7.07185504 92.294684,4.24310021 C102.851606,1.41434539 113.59461,0 124.524976,0 L124.523759,56.0357493 C120.027832,56.0372866 115.575206,56.4772838 111.165882,57.3557409 C106.756558,58.234198 102.47528,59.5342684 98.321986,61.255888 C94.1686916,62.9775076 90.2231932,65.0876238 86.4854909,67.5863007 C82.7477885,70.0849135 79.2896244,72.9241093 76.1110625,76.1038242 C72.9325006,79.2835391 70.0945218,82.7426641 67.5971901,86.4812632 C65.0998584,90.2198623 62.9910874,94.1661294 61.270941,98.3200643 C59.5507307,102.473935 58.2521976,106.755725 57.3752778,111.165434 C56.4983581,115.575078 56.0598982,120.027896 56.0598982,124.523887 C56.0598982,129.019879 56.4984221,133.472761 57.375406,137.882469 C58.2523898,142.292114 59.5509869,146.573967 61.2711973,150.727902 C62.9914076,154.881837 65.1002427,158.828104 67.5976385,162.566704 C70.0950342,166.305367 72.933013,169.764492 76.1117031,172.944207 C79.290329,176.123857 82.7484932,178.963053 86.4862595,181.46173 C90.2240259,183.960343 94.1695884,186.070459 98.3229468,187.792079 C102.476241,189.513634 106.757583,190.813705 111.166971,191.692098 C115.576295,192.570491 120.028985,193.010488 124.524976,193.012025 L124.524976,249.047781 Z" id="Fill-30" fill="url(#radialGradient-1)"></path>
                            <path d="M249.044074,249.047781 C238.114797,249.047871 227.371729,247.633628 216.814871,244.804995 C206.258013,241.976368 196.247035,237.829799 186.782003,232.365289 C177.316906,226.900714 168.720274,220.304407 160.992106,212.576368 C153.263875,204.848264 146.667375,196.25176 141.202673,186.786792 C135.73797,177.321823 131.591209,167.31091 128.762455,156.754116 C125.933636,146.197257 124.519226,135.454189 124.519098,124.524976 C124.519034,113.595699 125.933251,102.852631 128.761878,92.2957729 C131.590505,81.7388504 135.737073,71.727937 141.201648,62.2628404 C146.66635,52.7976798 153.262786,44.2009837 160.991017,36.4727519 C168.719185,28.7444561 177.315817,22.148021 186.780914,16.6833184 C196.245946,11.2185517 206.256924,7.07185504 216.813782,4.24310021 C227.370705,1.41434539 238.113708,0 249.044074,0 L249.042857,56.0357493 C244.54693,56.0372866 240.094304,56.4772838 235.68498,57.3557409 C231.275656,58.234198 226.994378,59.5342684 222.841084,61.255888 C218.68779,62.9775076 214.742291,65.0876238 211.004589,67.5863007 C207.266887,70.0849135 203.808722,72.9241093 200.630161,76.1038242 C197.451599,79.2835391 194.61362,82.7426641 192.116288,86.4812632 C189.618956,90.2198623 187.510185,94.1661294 185.790039,98.3200643 C184.069829,102.473935 182.771296,106.755725 181.894376,111.165434 C181.017456,115.575078 180.578996,120.027896 180.578996,124.523887 C180.578996,129.019879 181.01752,133.472761 181.894504,137.882469 C182.771488,142.292114 184.070085,146.573967 185.790295,150.727902 C187.510506,154.881837 189.619341,158.828104 192.116737,162.566704 C194.614132,166.305367 197.452111,169.764492 200.630801,172.944207 C203.809427,176.123857 207.267591,178.963053 211.005358,181.46173 C214.743124,183.960343 218.688686,186.070459 222.842045,187.792079 C226.995339,189.513634 231.276681,190.813705 235.686069,191.692098 C240.095393,192.570491 244.548083,193.010488 249.044074,193.012025 L249.044074,249.047781 Z" id="Fill-30-Copy" fill="url(#radialGradient-2)" transform="translate(186.781586, 124.523890) scale(-1, 1) translate(-186.781586, -124.523890) "></path>
                        </g>
                        <circle id="Oval" fill="#FFFFFF" cx="124.90822" cy="124.90822" r="87.3982442"></circle>
                        <path d="M77.0899016,151.589233 L74.7660835,151.589233 L74.7660835,148.446797 C72.8119638,148.235541 70.9634721,147.707401 69.4846788,146.888783 L69.4846788,143.931196 C71.5180196,145.225141 73.8946518,145.753281 76.0072137,145.753281 C78.3838458,145.753281 79.9946742,145.198734 79.9946742,143.45587 C79.9946742,139.177932 69.5638999,141.448936 69.5638999,134.899994 C69.5638999,131.889594 71.8613109,130.278765 74.7660835,129.935474 L74.7660835,126.766631 L77.0899016,126.766631 L77.0899016,129.909067 C78.8591722,130.041102 80.6284428,130.516428 81.8695729,131.255825 L81.8695729,134.134191 C80.3643726,133.130724 78.3046247,132.576176 76.3240979,132.602583 C74.0795009,132.602583 72.6271146,133.262759 72.6271146,134.84718 C72.6271146,138.834641 83.057889,136.695672 83.057889,143.297428 C83.057889,146.862376 80.3907796,148.288355 77.0899016,148.473204 L77.0899016,151.589233 Z M85.2232649,139.177932 C85.2232649,133.922934 87.7055252,129.856253 93.2774072,129.856253 C98.8492892,129.856253 101.331549,133.922934 101.331549,139.177932 C101.331549,144.43293 98.8492892,148.499611 93.2774072,148.499611 C87.7055252,148.499611 85.2232649,144.43293 85.2232649,139.177932 Z M98.2947417,139.177932 C98.2947417,135.005622 96.7103203,132.602583 93.2774072,132.602583 C89.8180871,132.602583 88.2600727,135.005622 88.2600727,139.177932 C88.2600727,143.350242 89.8180871,145.753281 93.2774072,145.753281 C96.7103203,145.753281 98.2947417,143.350242 98.2947417,139.177932 Z M107.431572,146.703934 C107.431572,147.89225 106.612954,148.446797 105.662301,148.446797 C104.711648,148.446797 103.866624,147.89225 103.866624,146.703934 C103.866624,145.568432 104.711648,145.013884 105.662301,145.013884 C106.612954,145.013884 107.431572,145.568432 107.431572,146.703934 Z M109.966646,139.177932 C109.966646,133.922934 112.448906,129.856253 118.020788,129.856253 C123.59267,129.856253 126.074931,133.922934 126.074931,139.177932 C126.074931,144.43293 123.59267,148.499611 118.020788,148.499611 C112.448906,148.499611 109.966646,144.43293 109.966646,139.177932 Z M123.038123,139.177932 C123.038123,135.005622 121.453701,132.602583 118.020788,132.602583 C114.561468,132.602583 113.003454,135.005622 113.003454,139.177932 C113.003454,143.350242 114.561468,145.753281 118.020788,145.753281 C121.453701,145.753281 123.038123,143.350242 123.038123,139.177932 Z M137.535579,130.199544 L140.625201,130.199544 L140.625201,141.871449 L143.714822,141.871449 L143.714822,144.485744 L140.625201,144.485744 L140.625201,148.15632 L137.720428,148.15632 L137.720428,144.485744 L127.976236,144.485744 L127.976236,141.924263 L137.535579,130.199544 Z M137.720428,141.871449 L137.720428,134.028562 L131.329928,141.871449 L137.720428,141.871449 Z M146.910072,130.199544 L157.974615,130.199544 L157.974615,132.89306 L149.68281,132.89306 L149.41874,137.223812 C150.290171,137.012556 151.214417,136.906928 152.138663,136.906928 C155.597983,136.906928 158.81964,138.412128 158.81964,142.637252 C158.81964,146.519085 155.518762,148.499611 151.557709,148.499611 C149.471554,148.499611 147.385399,148.050692 145.800977,147.284888 L145.800977,144.459337 C147.306178,145.330769 149.339519,145.779688 151.214417,145.779688 C153.881527,145.779688 155.782832,144.723407 155.782832,142.610845 C155.782832,140.234213 153.749491,139.389188 150.897533,139.389188 C149.445147,139.389188 147.781504,139.679666 146.329118,140.181399 L146.910072,130.199544 Z M161.169865,139.177932 C161.169865,133.922934 163.652125,129.856253 169.224007,129.856253 C174.795889,129.856253 177.27815,133.922934 177.27815,139.177932 C177.27815,144.43293 174.795889,148.499611 169.224007,148.499611 C163.652125,148.499611 161.169865,144.43293 161.169865,139.177932 Z M174.241342,139.177932 C174.241342,135.005622 172.65692,132.602583 169.224007,132.602583 C165.764687,132.602583 164.206673,135.005622 164.206673,139.177932 C164.206673,143.350242 165.764687,145.753281 169.224007,145.753281 C172.65692,145.753281 174.241342,143.350242 174.241342,139.177932 Z M88.7882131,162.199544 L91.0064031,162.199544 L91.0064031,177.436397 L94.201653,177.436397 L94.201653,180.15632 L84.4310542,180.15632 L84.4310542,177.436397 L88.0224094,177.436397 L88.0224094,165.289166 L84.4310542,166.635924 L84.4310542,163.863187 L88.7882131,162.199544 Z M120.027722,161.671404 L122.747646,161.671404 L122.747646,180.15632 L119.737245,180.15632 L119.737245,167.216879 L113.901293,175.98401 L112.105615,175.98401 L106.269663,167.190472 L106.269663,180.15632 L103.259262,180.15632 L103.259262,161.671404 L105.979186,161.671404 L113.003454,172.26062 L120.027722,161.671404 Z M130.24724,180.15632 L127.23684,180.15632 L127.23684,161.671404 L130.062391,161.671404 L140.017839,175.1918 C139.991432,174.558031 139.991432,173.845041 139.991432,173.158459 L139.991432,161.671404 L143.001833,161.671404 L143.001833,180.15632 L140.176281,180.15632 L130.220833,166.635924 C130.24724,167.269693 130.24724,167.982682 130.24724,168.642858 L130.24724,180.15632 Z M150.501428,180.15632 L147.491027,180.15632 L147.491027,161.671404 L154.884993,161.671404 C158.344314,161.671404 161.988483,163.044569 161.988483,167.454542 C161.988483,170.75542 159.928735,172.339841 157.499289,172.920796 L163.414462,180.15632 L159.7967,180.15632 L154.251225,173.23768 L150.501428,173.23768 L150.501428,180.15632 Z M150.501428,164.417734 L150.501428,170.570571 L155.017029,170.570571 C156.997555,170.570571 158.925268,169.857581 158.925268,167.507356 C158.925268,165.130724 156.997555,164.417734 155.017029,164.417734 L150.501428,164.417734 Z" id="$0.0450-1-MNR" fill="#131F3C"></path>
                    </g>
                </g>
            </g>
            <path d="M103.205295,114.956634 L106.985963,114.956634 L106.985963,129.659233 L109.954488,129.659233 L109.954488,134 L98.5844782,134 L98.5844782,129.659233 L101.945072,129.659233 L101.945072,120.08154 L98.5844782,121.341763 L98.5844782,116.720946 L103.205295,114.956634 Z M111.66279,124.478317 C111.66279,119.045357 114.26725,114.53656 120.484349,114.53656 C126.701447,114.53656 129.305908,119.045357 129.305908,124.478317 C129.305908,129.911277 126.701447,134.420074 120.484349,134.420074 C114.26725,134.420074 111.66279,129.911277 111.66279,124.478317 Z M124.124992,124.478317 C124.124992,120.809669 122.976789,119.017352 120.484349,119.017352 C117.991908,119.017352 116.843705,120.809669 116.843705,124.478317 C116.843705,128.146966 117.991908,129.939282 120.484349,129.939282 C122.976789,129.939282 124.124992,128.146966 124.124992,124.478317 Z M139.359685,135.680297 L136.27914,135.680297 L147.733165,112.716238 L150.813709,112.716238 L139.359685,135.680297 Z M141.82412,119.017352 C141.82412,122.377946 139.359685,124.058243 136.50318,124.058243 C133.61867,124.058243 131.154234,122.377946 131.154234,119.017352 C131.154234,115.656758 133.61867,113.976461 136.50318,113.976461 C139.359685,113.976461 141.82412,115.656758 141.82412,119.017352 Z M134.850888,119.017352 C134.850888,119.857501 135.298967,120.697649 136.50318,120.697649 C137.679388,120.697649 138.127467,119.857501 138.127467,119.017352 C138.127467,118.177204 137.679388,117.337055 136.50318,117.337055 C135.298967,117.337055 134.850888,118.177204 134.850888,119.017352 Z M155.826595,129.379183 C155.826595,132.739777 153.362159,134.420074 150.505655,134.420074 C147.621145,134.420074 145.156709,132.739777 145.156709,129.379183 C145.156709,126.018589 147.621145,124.338292 150.505655,124.338292 C153.362159,124.338292 155.826595,126.018589 155.826595,129.379183 Z M148.853363,129.379183 C148.853363,130.219332 149.301442,131.05948 150.505655,131.05948 C151.681862,131.05948 152.129942,130.219332 152.129942,129.379183 C152.129942,128.539035 151.681862,127.698886 150.505655,127.698886 C149.301442,127.698886 148.853363,128.539035 148.853363,129.379183 Z" id="10%" fill="#131F3C" fill-rule="nonzero"></path>
            <g id="diskon" transform="translate(1.000000, 139.000000)" fill="#000000">
                <path d="M76.775,9.361 L64.884,9.361 L64.884,7.291 L76.775,7.291 L76.775,9.361 Z M67.989,6.44 L67.989,4.416 L74.061,4.416 L74.061,6.44 L67.989,6.44 Z M83.951,11.891 L81.076,11.891 L81.076,15.962 L78.385,15.962 L78.385,4.324 L81.076,4.324 L81.076,9.683 L83.951,9.683 L83.951,11.891 Z M81.582,24.771 L67.575,24.771 L67.575,19.918 L78.362,19.918 L78.362,18.952 L67.552,18.952 L67.552,16.951 L81.076,16.951 L81.076,21.735 L70.266,21.735 L70.266,22.747 L81.582,22.747 L81.582,24.771 Z M75.878,13.064 C75.878,14.973 73.808,16.261 71.025,16.261 C68.196,16.261 66.103,14.973 66.103,13.064 C66.103,11.178 68.173,9.867 71.025,9.867 C73.808,9.867 75.878,11.178 75.878,13.064 Z M68.771,13.064 C68.771,13.846 69.806,14.329 71.025,14.329 C72.198,14.329 73.233,13.846 73.233,13.064 C73.233,12.328 72.198,11.822 71.025,11.822 C69.783,11.822 68.771,12.328 68.771,13.064 Z M101.868,19.182 L99.2,19.182 L99.2,4.324 L101.868,4.324 L101.868,19.182 Z M102.328,24.265 L88.114,24.265 L88.114,17.71 L90.828,17.71 L90.828,22.149 L102.328,22.149 L102.328,24.265 Z M85.584,10.902 C85.584,8.004 87.769,5.842 91.127,5.842 C94.508,5.842 96.67,8.004 96.67,10.902 C96.67,13.846 94.508,15.939 91.127,15.939 C87.769,15.939 85.584,13.846 85.584,10.902 Z M88.344,10.902 C88.344,12.535 89.402,13.731 91.127,13.731 C92.898,13.731 93.933,12.535 93.933,10.902 C93.933,9.338 92.898,8.142 91.127,8.142 C89.402,8.142 88.344,9.338 88.344,10.902 Z M127.375,24.817 L124.822,24.817 L124.822,14.766 L123.12,14.766 L123.12,23.874 L120.613,23.874 L120.613,4.692 L123.12,4.692 L123.12,12.604 L124.822,12.604 L124.822,4.324 L127.375,4.324 L127.375,24.817 Z M119.325,16.376 C119.325,18.952 117.508,20.631 114.84,20.631 C112.195,20.631 110.355,18.814 110.355,16.376 C110.355,13.777 112.218,12.121 114.84,12.121 C117.508,12.121 119.325,13.8 119.325,16.376 Z M109.918,11.362 L109.918,9.223 L119.693,9.223 L119.693,11.362 L109.918,11.362 Z M116.91,16.376 C116.91,15.111 116.036,14.237 114.84,14.237 C113.667,14.237 112.793,15.111 112.793,16.376 C112.793,17.664 113.667,18.515 114.84,18.515 C116.036,18.515 116.91,17.618 116.91,16.376 Z M112.149,8.05 L112.149,5.911 L117.669,5.911 L117.669,8.05 L112.149,8.05 Z M146.81,24.817 L144.096,24.817 L144.096,13.524 L140.393,13.524 L140.393,11.247 L144.096,11.247 L144.096,4.324 L146.81,4.324 L146.81,24.817 Z M142.302,18.239 L140.761,20.263 C139.059,19.228 136.736,16.652 136.046,14.513 C135.379,16.859 133.286,19.458 131.147,20.608 L129.537,18.63 C132.826,16.491 134.62,13.248 134.62,9.177 L134.62,6.049 L137.38,6.049 L137.38,9.039 C137.38,13.087 139.22,16.261 142.302,18.239 Z M159.115,7.36 L161.622,7.36 L161.622,20.033 L164.244,20.033 L164.244,23 L155.32,23 L155.32,20.033 L158.264,20.033 L158.264,10.81 L155.32,11.914 L155.32,8.809 L159.115,7.36 Z M182.897,24.817 L180.344,24.817 L180.344,14.49 L178.527,14.49 L178.527,23.874 L176.02,23.874 L176.02,4.692 L178.527,4.692 L178.527,12.351 L180.344,12.351 L180.344,4.324 L182.897,4.324 L182.897,24.817 Z M174.157,6.739 C174.18,12.857 171.742,17.526 166.728,20.815 L164.98,18.952 C168.982,16.56 171.213,12.972 171.558,8.901 L166.222,8.901 L166.222,6.739 L174.157,6.739 Z" id="할인-해서-1개"></path>
            </g>
            <g id="18-28-Agustus" fill="#000000">
                <path d="M26.7125,12.35 C26.7125,10.075 28.6125,7.65 33.2625,7.65 C37.5875,7.65 39.8375,10.075 39.8625,12.45 C39.8875,14.1 39.0875,15.35 37.7125,16.375 C39.2625,17.15 40.4875,18.35 40.4875,20.4 C40.4875,22.9 38.4375,25.35 33.3125,25.35 C28.2375,25.35 26.0875,22.875 26.0875,20.275 C26.0875,18.575 27.1375,16.95 28.7375,16 C27.5625,15.2 26.7125,14.075 26.7125,12.35 Z M33.6875,18 C32.9375,17.725 32.0375,17.475 31.1625,17.15 C30.2375,17.925 29.8125,18.95 29.8375,19.825 C29.8625,21.275 31.0125,22.4 33.5875,22.4 C35.3875,22.4 36.7625,21.65 36.7625,20.5 C36.7625,19.05 35.3625,18.575 33.6875,18 Z M36.2625,12.725 C36.2625,11.55 35.2125,10.6 33.1125,10.6 C31.3125,10.6 30.2875,11.425 30.2875,12.375 C30.2875,13.875 31.8125,14.35 33.4875,14.9 C33.9875,15.025 34.5125,15.2 35.0625,15.35 C35.8625,14.55 36.2875,13.55 36.2625,12.725 Z M61.7875,27.05 L45.8375,27.05 L45.8375,22.025 L58.1125,22.025 L58.1125,21.025 L45.8125,21.025 L45.8125,18.925 L61.0375,18.925 L61.0375,23.925 L48.7625,23.925 L48.7625,24.95 L61.7875,24.95 L61.7875,27.05 Z M43.8125,8.7 C43.8125,6.5 46.2875,5.025 49.3625,5.025 C52.3875,5.025 54.8125,6.5 54.8125,8.75 C54.8125,10.925 52.3875,12.4 49.3625,12.4 C46.2875,12.4 43.8125,10.925 43.8125,8.7 Z M53.6875,17.525 L53.6875,15.6 L58.1625,15.6 L58.1625,4.7 L61.0625,4.7 L61.0625,18.1 L58.1625,18.1 L58.1625,17.525 L53.6875,17.525 Z M50.4625,18.125 L47.5375,18.125 L47.5375,15.425 C45.6125,15.5 44.0625,15.575 42.5375,15.575 L42.1375,13.25 C44.6625,13.25 46.8875,13.225 49.3625,13.125 C52.4625,12.975 54.6125,12.8 56.5875,12.55 L56.8125,14.725 C55.0625,14.975 52.6875,15.175 50.4625,15.3 L50.4625,18.125 Z M46.7625,8.725 C46.7625,9.675 47.7875,10.3 49.3625,10.3 C50.8875,10.3 51.9625,9.675 51.9625,8.725 C51.9625,7.775 50.8875,7.125 49.3625,7.125 C47.7875,7.125 46.7625,7.775 46.7625,8.725 Z M74.0875,8 L76.8125,8 L76.8125,21.775 L79.6625,21.775 L79.6625,25 L69.9625,25 L69.9625,21.775 L73.1625,21.775 L73.1625,11.75 L69.9625,12.95 L69.9625,9.575 L74.0875,8 Z M81.8625,12.35 C81.8625,10.075 83.7625,7.65 88.4125,7.65 C92.7375,7.65 94.9875,10.075 95.0125,12.45 C95.0375,14.1 94.2375,15.35 92.8625,16.375 C94.4125,17.15 95.6375,18.35 95.6375,20.4 C95.6375,22.9 93.5875,25.35 88.4625,25.35 C83.3875,25.35 81.2375,22.875 81.2375,20.275 C81.2375,18.575 82.2875,16.95 83.8875,16 C82.7125,15.2 81.8625,14.075 81.8625,12.35 Z M88.8375,18 C88.0875,17.725 87.1875,17.475 86.3125,17.15 C85.3875,17.925 84.9625,18.95 84.9875,19.825 C85.0125,21.275 86.1625,22.4 88.7375,22.4 C90.5375,22.4 91.9125,21.65 91.9125,20.5 C91.9125,19.05 90.5125,18.575 88.8375,18 Z M91.4125,12.725 C91.4125,11.55 90.3625,10.6 88.2625,10.6 C86.4625,10.6 85.4375,11.425 85.4375,12.375 C85.4375,13.875 86.9625,14.35 88.6375,14.9 C89.1375,15.025 89.6625,15.2 90.2125,15.35 C91.0125,14.55 91.4375,13.55 91.4125,12.725 Z M116.5125,26.8 L101.1875,26.8 L101.1875,20.825 L112.9125,20.825 L112.9125,19.275 L101.0625,19.275 L101.0625,16.975 L115.8125,16.975 L115.8125,22.925 L104.1125,22.925 L104.1125,24.45 L116.5125,24.45 L116.5125,26.8 Z M115.8125,15.85 L112.9125,15.85 L112.9125,4.7 L115.8125,4.7 L115.8125,15.85 Z M98.0625,10.625 C98.0625,7.65 100.5625,5.45 103.9875,5.45 C107.3875,5.45 109.8625,7.6 109.8625,10.625 C109.8625,13.6 107.3875,15.6 103.9875,15.6 C100.6875,15.6 98.0625,13.675 98.0625,10.625 Z M100.9625,10.6 C100.9625,12.1 102.2625,13.175 103.9875,13.175 C105.8125,13.175 106.9625,11.975 106.9625,10.6 C106.9625,9.075 105.8625,7.85 103.9875,7.85 C102.3375,7.85 100.9625,9.1 100.9625,10.6 Z M119.6625,17.45 L128.9625,17.45 L128.9625,20.375 L119.6625,20.375 L119.6625,17.45 Z M131.9875,12.35 C131.9875,10.075 133.8875,7.65 138.5375,7.65 C142.8625,7.65 145.1125,10.075 145.1375,12.45 C145.1625,14.1 144.3625,15.35 142.9875,16.375 C144.5375,17.15 145.7625,18.35 145.7625,20.4 C145.7625,22.9 143.7125,25.35 138.5875,25.35 C133.5125,25.35 131.3625,22.875 131.3625,20.275 C131.3625,18.575 132.4125,16.95 134.0125,16 C132.8375,15.2 131.9875,14.075 131.9875,12.35 Z M138.9625,18 C138.2125,17.725 137.3125,17.475 136.4375,17.15 C135.5125,17.925 135.0875,18.95 135.1125,19.825 C135.1375,21.275 136.2875,22.4 138.8625,22.4 C140.6625,22.4 142.0375,21.65 142.0375,20.5 C142.0375,19.05 140.6375,18.575 138.9625,18 Z M141.5375,12.725 C141.5375,11.55 140.4875,10.6 138.3875,10.6 C136.5875,10.6 135.5625,11.425 135.5625,12.375 C135.5625,13.875 137.0875,14.35 138.7625,14.9 C139.2625,15.025 139.7875,15.2 140.3375,15.35 C141.1375,14.55 141.5625,13.55 141.5375,12.725 Z M167.0625,27.05 L151.1125,27.05 L151.1125,22.025 L163.3875,22.025 L163.3875,21.025 L151.0875,21.025 L151.0875,18.925 L166.3125,18.925 L166.3125,23.925 L154.0375,23.925 L154.0375,24.95 L167.0625,24.95 L167.0625,27.05 Z M149.0875,8.7 C149.0875,6.5 151.5625,5.025 154.6375,5.025 C157.6625,5.025 160.0875,6.5 160.0875,8.75 C160.0875,10.925 157.6625,12.4 154.6375,12.4 C151.5625,12.4 149.0875,10.925 149.0875,8.7 Z M158.9625,17.525 L158.9625,15.6 L163.4375,15.6 L163.4375,4.7 L166.3375,4.7 L166.3375,18.1 L163.4375,18.1 L163.4375,17.525 L158.9625,17.525 Z M155.7375,18.125 L152.8125,18.125 L152.8125,15.425 C150.8875,15.5 149.3375,15.575 147.8125,15.575 L147.4125,13.25 C149.9375,13.25 152.1625,13.225 154.6375,13.125 C157.7375,12.975 159.8875,12.8 161.8625,12.55 L162.0875,14.725 C160.3375,14.975 157.9625,15.175 155.7375,15.3 L155.7375,18.125 Z M152.0375,8.725 C152.0375,9.675 153.0625,10.3 154.6375,10.3 C156.1625,10.3 157.2375,9.675 157.2375,8.725 C157.2375,7.775 156.1625,7.125 154.6375,7.125 C153.0625,7.125 152.0375,7.775 152.0375,8.725 Z M175.5375,9.45 C177.2875,8.2 179.3125,7.65 181.3875,7.65 C184.8125,7.65 187.5875,9.2 187.5875,12.675 C187.5875,15.55 185.2125,17.25 182.9875,18.575 C180.9625,19.775 179.2375,20.7 179.2125,21.8 L187.7125,21.775 L187.7125,25 L174.9625,25 L174.9625,23.325 C174.9625,19.225 178.0625,17.625 180.5625,16.15 C182.3375,15.125 183.8625,14.45 183.8625,12.825 C183.8625,11.575 182.7625,10.925 181.0375,10.925 C179.3375,10.925 177.3375,11.575 175.5375,12.95 L175.5375,9.45 Z M190.5125,12.35 C190.5125,10.075 192.4125,7.65 197.0625,7.65 C201.3875,7.65 203.6375,10.075 203.6625,12.45 C203.6875,14.1 202.8875,15.35 201.5125,16.375 C203.0625,17.15 204.2875,18.35 204.2875,20.4 C204.2875,22.9 202.2375,25.35 197.1125,25.35 C192.0375,25.35 189.8875,22.875 189.8875,20.275 C189.8875,18.575 190.9375,16.95 192.5375,16 C191.3625,15.2 190.5125,14.075 190.5125,12.35 Z M197.4875,18 C196.7375,17.725 195.8375,17.475 194.9625,17.15 C194.0375,17.925 193.6125,18.95 193.6375,19.825 C193.6625,21.275 194.8125,22.4 197.3875,22.4 C199.1875,22.4 200.5625,21.65 200.5625,20.5 C200.5625,19.05 199.1625,18.575 197.4875,18 Z M200.0625,12.725 C200.0625,11.55 199.0125,10.6 196.9125,10.6 C195.1125,10.6 194.0875,11.425 194.0875,12.375 C194.0875,13.875 195.6125,14.35 197.2875,14.9 C197.7875,15.025 198.3125,15.2 198.8625,15.35 C199.6625,14.55 200.0875,13.55 200.0625,12.725 Z M225.1625,26.8 L209.8375,26.8 L209.8375,20.825 L221.5625,20.825 L221.5625,19.275 L209.7125,19.275 L209.7125,16.975 L224.4625,16.975 L224.4625,22.925 L212.7625,22.925 L212.7625,24.45 L225.1625,24.45 L225.1625,26.8 Z M224.4625,15.85 L221.5625,15.85 L221.5625,4.7 L224.4625,4.7 L224.4625,15.85 Z M206.7125,10.625 C206.7125,7.65 209.2125,5.45 212.6375,5.45 C216.0375,5.45 218.5125,7.6 218.5125,10.625 C218.5125,13.6 216.0375,15.6 212.6375,15.6 C209.3375,15.6 206.7125,13.675 206.7125,10.625 Z M209.6125,10.6 C209.6125,12.1 210.9125,13.175 212.6375,13.175 C214.4625,13.175 215.6125,11.975 215.6125,10.6 C215.6125,9.075 214.5125,7.85 212.6375,7.85 C210.9875,7.85 209.6125,9.1 209.6125,10.6 Z" id="8월-18일-8월-28일"></path>
            </g>
        </g>
    </g>
</svg>