<?xml version="1.0" encoding="UTF-8"?>
<svg width="250px" height="295px" viewBox="0 0 250 295" version="1.1" xmlns="http://www.w3.org/2000/svg" xmlns:xlink="http://www.w3.org/1999/xlink">
    <!-- Generator: Sketch 48.2 (47327) - http://www.bohemiancoding.com/sketch -->
    <title>text_4</title>
    <desc>Created with Sketch.</desc>
    <defs>
        <radialGradient cx="400%" cy="400%" fx="400%" fy="400%" r="100.47898%" gradientTransform="translate(4.000000,4.000000),scale(1.000000,0.999999),translate(-4.000000,-4.000000)" id="radialGradient-1">
            <stop stop-color="#8D00FF" offset="0%"></stop>
            <stop stop-color="#5C00FE" offset="69.8959662%"></stop>
            <stop stop-color="#8900FF" offset="100%"></stop>
        </radialGradient>
        <radialGradient cx="50%" cy="50%" fx="50%" fy="50%" r="50.0253367%" id="radialGradient-2">
            <stop stop-color="#FF9495" offset="0%"></stop>
            <stop stop-color="#FE5F60" offset="70.3742825%"></stop>
            <stop stop-color="#FF9091" offset="100%"></stop>
        </radialGradient>
    </defs>
    <g id="Page-1" stroke="none" stroke-width="1" fill="none" fill-rule="evenodd">
        <g id="text_4" transform="translate(0.000000, -4.000000)">
            <g id="4-copy" transform="translate(0.000000, 48.000000)" fill-rule="nonzero">
                <g id="Group-Copy-3" transform="translate(0.545890, 0.588188)">
                    <g id="Group-3" transform="translate(0.000000, 0.762969)">
                        <g id="Group-8">
                            <path d="M0,125.013369 C2.91814549e-05,116.804853 0.800756631,108.675226 2.40218235,100.624437 C4.00360807,92.5736583 6.37495729,84.7564426 9.51623002,77.1727836 C12.6575028,69.5891246 16.5083459,62.384737 21.0687478,55.5596266 C25.6291439,48.7345168 30.8114843,42.4198151 36.6157632,36.6155391 C42.420048,30.811259 48.7347397,25.6289238 55.5598326,21.068533 C62.3849314,16.5081428 69.589319,12.6573224 77.1729546,9.51607244 C84.7565844,6.37482306 92.5737943,4.0035001 100.624537,2.40210473 C108.675281,0.800704688 116.804785,0 125.013248,0 L125.013248,56.256007 C120.498614,56.2560362 116.027356,56.6964369 111.599467,57.5772266 C107.171572,58.4580046 102.872157,59.7622464 98.7011703,61.4899402 C94.5301832,63.2176458 90.5678202,65.3356124 86.8140346,67.8438344 C83.0602548,70.3520563 79.5872123,73.2023432 76.3948837,76.3946952 C73.2025551,79.5870471 70.3522856,83.0601305 67.8440987,86.8139278 C65.335906,90.5677368 63.2179685,94.5301406 61.4902922,98.7011394 C59.7626275,102.872138 58.4584032,107.171594 57.5776369,111.599518 C56.6968997,116.027406 56.2565282,120.498706 56.2565107,125.013369 L0,125.013369 Z" id="Fill-8" fill="url(#radialGradient-1)"></path>
                            <path d="M124.740231,0 C132.917139,3.54646161e-05 140.809466,0.797690493 148.829249,2.3929616 C156.849031,3.98823619 164.636136,6.35047671 172.190582,9.47968199 C179.745051,12.6088826 186.921705,16.4449279 193.720557,20.9878092 C200.519385,25.5306945 206.80975,30.693127 212.591686,36.4751065 C218.373622,42.2570854 223.535985,48.5475211 228.078816,55.3464036 C232.621648,62.1452961 236.457622,69.3219914 239.586764,76.8764895 C242.715941,84.431005 245.078181,92.2181743 246.673414,100.237997 C248.268642,108.257814 249.066241,116.3562 249.066241,124.533125 C249.066206,132.710109 248.268572,140.808524 246.673269,148.828376 C245.078041,156.848228 242.715802,164.635409 239.586549,172.189947 C236.457372,179.74448 232.621334,186.921193 228.078462,193.720074 C223.535595,200.518961 218.373157,206.809395 212.591151,212.591383 C206.80918,218.373372 200.518781,223.535793 193.719865,228.078677 C186.920978,232.621543 179.744289,236.45757 172.189785,239.586729 C164.635281,242.715924 156.848106,245.078129 148.828289,246.673379 C140.808455,248.268624 132.710069,249.066241 124.533126,249.066241 C116.356143,249.066206 108.257746,248.268555 100.237911,246.673269 C92.2180591,245.078007 84.4308608,242.715767 76.8763221,239.586549 C69.3217834,236.457355 62.1450765,232.621316 55.3461899,228.078444 C48.5472975,223.53556 42.256863,218.373139 36.4748864,212.591151 C30.6929041,206.809186 25.5304769,200.518746 20.9876108,193.719865 C16.4447331,186.920978 12.6087116,179.744289 9.4795232,172.189767 C6.3503348,164.635263 3.98812395,156.848106 2.39288484,148.828289 C0.797622465,140.808454 5.00693342e-16,132.710068 0,124.533125 C0,124.533122 18.6801356,124.533128 56.0404068,124.533143 C56.0404243,129.030463 56.479139,133.484604 57.3565452,137.895518 C58.2339282,142.306439 59.5331599,146.589378 61.2542228,150.744372 C62.9753032,154.899372 65.0851164,158.846554 67.5837091,162.585949 C70.0823017,166.32535 72.9216395,169.785103 76.1017226,172.965187 C79.2818172,176.14527 82.7415591,178.984607 86.4809366,181.4832 C90.2203198,183.981752 94.1674967,186.091571 98.3224788,187.812634 C102.477461,189.533691 106.7604,190.832923 111.171297,191.710312 C115.5822,192.587677 120.0363,193.026363 124.533621,193.026363 C129.030947,193.026345 133.485081,192.587642 137.896019,191.710259 C142.306916,190.832853 146.589873,189.533621 150.744873,187.812541 C154.899872,186.091484 158.847049,183.981665 162.58645,181.483072 C166.325827,178.98448 169.785569,176.145147 172.965664,172.965064 C176.145764,169.784981 178.985102,166.325239 181.483695,162.585845 C183.98227,158.846444 186.092083,154.899267 187.813129,150.744285 C189.534168,146.589303 190.8334,142.306363 191.710789,137.895466 C192.588172,133.484552 193.026857,129.030446 193.02684,124.533143 C193.026823,120.035823 192.588119,115.581682 191.710736,111.170767 C190.83333,106.759847 189.534099,102.47689 187.813018,98.3218963 C186.091979,94.1669026 183.982159,90.2197141 181.483567,86.480325 C178.98498,82.7409359 176.145625,79.2811998 172.965542,76.1011109 C169.785459,72.9210162 166.325723,70.08169 162.586322,67.583109 C158.846927,65.0845221 154.899744,62.9747088 150.744762,61.2536575 C146.589786,59.5326062 142.306846,58.2333804 137.895961,57.3559916 C133.485047,56.4786086 129.030947,56.0399171 124.533621,56.0399171 L124.740231,0 Z" id="Fill-8" fill="url(#radialGradient-2)"></path>
                        </g>
                    </g>
                    <circle id="Oval" fill="#FFFFFF" cx="124.90822" cy="125.671189" r="87.3982442"></circle>
                    <path d="M80.636845,151.728204 L78.3130269,151.728204 L78.3130269,148.585769 C76.3589072,148.374512 74.5104155,147.846372 73.0316222,147.027754 L73.0316222,144.070168 C75.064963,145.364112 77.4415951,145.892252 79.554157,145.892252 C81.9307892,145.892252 83.5416176,145.337705 83.5416176,143.594841 C83.5416176,139.316903 73.1108433,141.587907 73.1108433,135.038965 C73.1108433,132.028565 75.4082543,130.417736 78.3130269,130.074445 L78.3130269,126.905602 L80.636845,126.905602 L80.636845,130.048038 C82.4061156,130.180073 84.1753862,130.655399 85.4165163,131.394796 L85.4165163,134.273162 C83.911316,133.269695 81.8515681,132.715147 79.8710413,132.741554 C77.6264443,132.741554 76.174058,133.40173 76.174058,134.986151 C76.174058,138.973612 86.6048324,136.834643 86.6048324,143.436399 C86.6048324,147.001347 83.937723,148.427326 80.636845,148.612176 L80.636845,151.728204 Z M88.7702083,139.316903 C88.7702083,134.061906 91.2524685,129.995224 96.8243505,129.995224 C102.396233,129.995224 104.878493,134.061906 104.878493,139.316903 C104.878493,144.571901 102.396233,148.638583 96.8243505,148.638583 C91.2524685,148.638583 88.7702083,144.571901 88.7702083,139.316903 Z M101.841685,139.316903 C101.841685,135.144593 100.257264,132.741554 96.8243505,132.741554 C93.3650304,132.741554 91.807016,135.144593 91.807016,139.316903 C91.807016,143.489213 93.3650304,145.892252 96.8243505,145.892252 C100.257264,145.892252 101.841685,143.489213 101.841685,139.316903 Z M110.978515,146.842905 C110.978515,148.031221 110.159898,148.585769 109.209245,148.585769 C108.258592,148.585769 107.413567,148.031221 107.413567,146.842905 C107.413567,145.707403 108.258592,145.152855 109.209245,145.152855 C110.159898,145.152855 110.978515,145.707403 110.978515,146.842905 Z M113.51359,139.316903 C113.51359,134.061906 115.99585,129.995224 121.567732,129.995224 C127.139614,129.995224 129.621874,134.061906 129.621874,139.316903 C129.621874,144.571901 127.139614,148.638583 121.567732,148.638583 C115.99585,148.638583 113.51359,144.571901 113.51359,139.316903 Z M126.585066,139.316903 C126.585066,135.144593 125.000645,132.741554 121.567732,132.741554 C118.108412,132.741554 116.550397,135.144593 116.550397,139.316903 C116.550397,143.489213 118.108412,145.892252 121.567732,145.892252 C125.000645,145.892252 126.585066,143.489213 126.585066,139.316903 Z M141.082522,130.338515 L144.172144,130.338515 L144.172144,142.01042 L147.261766,142.01042 L147.261766,144.624715 L144.172144,144.624715 L144.172144,148.295291 L141.267371,148.295291 L141.267371,144.624715 L131.52318,144.624715 L131.52318,142.063234 L141.082522,130.338515 Z M141.267371,142.01042 L141.267371,134.167534 L134.876872,142.01042 L141.267371,142.01042 Z M148.714152,130.338515 L162.049699,130.338515 L162.049699,132.715147 L154.602918,148.295291 L151.354855,148.295291 L158.643193,133.032032 L148.714152,133.032032 L148.714152,130.338515 Z M165.007286,130.338515 L176.071829,130.338515 L176.071829,133.032032 L167.780023,133.032032 L167.515953,137.362783 C168.387385,137.151527 169.311631,137.045899 170.235876,137.045899 C173.695197,137.045899 176.916853,138.5511 176.916853,142.776223 C176.916853,146.658056 173.615976,148.638583 169.654922,148.638583 C167.568767,148.638583 165.482612,148.189663 163.898191,147.42386 L163.898191,144.598308 C165.403391,145.46974 167.436732,145.918659 169.311631,145.918659 C171.97874,145.918659 173.880046,144.862378 173.880046,142.749816 C173.880046,140.373184 171.846705,139.528159 168.994746,139.528159 C167.54236,139.528159 165.878718,139.818637 164.426331,140.32037 L165.007286,130.338515 Z M90.2886122,162.338515 L92.5068022,162.338515 L92.5068022,177.575368 L95.702052,177.575368 L95.702052,180.295291 L85.9314533,180.295291 L85.9314533,177.575368 L89.5228085,177.575368 L89.5228085,165.428137 L85.9314533,166.774895 L85.9314533,164.002158 L90.2886122,162.338515 Z M121.528121,161.810375 L124.248045,161.810375 L124.248045,180.295291 L121.237644,180.295291 L121.237644,167.35585 L115.401692,176.122982 L113.606014,176.122982 L107.770062,167.329443 L107.770062,180.295291 L104.759661,180.295291 L104.759661,161.810375 L107.479585,161.810375 L114.503853,172.399591 L121.528121,161.810375 Z M131.747639,180.295291 L128.737239,180.295291 L128.737239,161.810375 L131.56279,161.810375 L141.518238,175.330771 C141.491831,174.697002 141.491831,173.984013 141.491831,173.29743 L141.491831,161.810375 L144.502232,161.810375 L144.502232,180.295291 L141.67668,180.295291 L131.721232,166.774895 C131.747639,167.408664 131.747639,168.121653 131.747639,168.781829 L131.747639,180.295291 Z M152.001827,180.295291 L148.991426,180.295291 L148.991426,161.810375 L156.385393,161.810375 C159.844713,161.810375 163.488882,163.18354 163.488882,167.593513 C163.488882,170.894391 161.429134,172.478812 158.999688,173.059767 L164.914861,180.295291 L161.297099,180.295291 L155.751624,173.376651 L152.001827,173.376651 L152.001827,180.295291 Z M152.001827,164.556705 L152.001827,170.709542 L156.517428,170.709542 C158.497954,170.709542 160.425667,169.996552 160.425667,167.646327 C160.425667,165.269695 158.497954,164.556705 156.517428,164.556705 L152.001827,164.556705 Z" id="$0.0475-1-MNR" fill="#131F3C"></path>
                </g>
            </g>
            <path d="M106.882121,115.928629 L119.344324,115.928629 L119.344324,120.269397 L111.530943,120.241392 L111.334908,123.041887 C112.035032,122.929867 112.735156,122.873857 113.37927,122.873857 C117.271958,122.873857 120.184472,124.638169 120.184472,128.922926 C120.184472,133.627757 116.011735,135.420074 111.754983,135.420074 C109.542592,135.420074 107.330201,134.94399 105.621899,134.131847 L105.621899,129.371005 C107.106161,130.407188 109.346557,130.939282 111.194884,130.939282 C113.351265,130.939282 115.003557,130.295168 115.003557,128.810906 C115.003557,127.606693 114.023384,126.68253 110.914834,126.654525 C109.710621,126.654525 107.974314,126.822555 106.210003,127.438664 L106.882121,115.928629 Z M130.126229,136.680297 L127.045685,136.680297 L138.499709,113.716238 L141.580254,113.716238 L130.126229,136.680297 Z M132.590665,120.017352 C132.590665,123.377946 130.126229,125.058243 127.269725,125.058243 C124.385215,125.058243 121.920779,123.377946 121.920779,120.017352 C121.920779,116.656758 124.385215,114.976461 127.269725,114.976461 C130.126229,114.976461 132.590665,116.656758 132.590665,120.017352 Z M125.617433,120.017352 C125.617433,120.857501 126.065512,121.697649 127.269725,121.697649 C128.445933,121.697649 128.894012,120.857501 128.894012,120.017352 C128.894012,119.177204 128.445933,118.337055 127.269725,118.337055 C126.065512,118.337055 125.617433,119.177204 125.617433,120.017352 Z M146.59314,130.379183 C146.59314,133.739777 144.128704,135.420074 141.272199,135.420074 C138.38769,135.420074 135.923254,133.739777 135.923254,130.379183 C135.923254,127.018589 138.38769,125.338292 141.272199,125.338292 C144.128704,125.338292 146.59314,127.018589 146.59314,130.379183 Z M139.619907,130.379183 C139.619907,131.219332 140.067987,132.05948 141.272199,132.05948 C142.448407,132.05948 142.896486,131.219332 142.896486,130.379183 C142.896486,129.539035 142.448407,128.698886 141.272199,128.698886 C140.067987,128.698886 139.619907,129.539035 139.619907,130.379183 Z" id="5%" fill="#131F3C" fill-rule="nonzero"></path>
            <g id="diskon" transform="translate(2.000000, 141.000000)" fill="#000000">
                <path d="M77.775,9.361 L65.884,9.361 L65.884,7.291 L77.775,7.291 L77.775,9.361 Z M68.989,6.44 L68.989,4.416 L75.061,4.416 L75.061,6.44 L68.989,6.44 Z M84.951,11.891 L82.076,11.891 L82.076,15.962 L79.385,15.962 L79.385,4.324 L82.076,4.324 L82.076,9.683 L84.951,9.683 L84.951,11.891 Z M82.582,24.771 L68.575,24.771 L68.575,19.918 L79.362,19.918 L79.362,18.952 L68.552,18.952 L68.552,16.951 L82.076,16.951 L82.076,21.735 L71.266,21.735 L71.266,22.747 L82.582,22.747 L82.582,24.771 Z M76.878,13.064 C76.878,14.973 74.808,16.261 72.025,16.261 C69.196,16.261 67.103,14.973 67.103,13.064 C67.103,11.178 69.173,9.867 72.025,9.867 C74.808,9.867 76.878,11.178 76.878,13.064 Z M69.771,13.064 C69.771,13.846 70.806,14.329 72.025,14.329 C73.198,14.329 74.233,13.846 74.233,13.064 C74.233,12.328 73.198,11.822 72.025,11.822 C70.783,11.822 69.771,12.328 69.771,13.064 Z M102.868,19.182 L100.2,19.182 L100.2,4.324 L102.868,4.324 L102.868,19.182 Z M103.328,24.265 L89.114,24.265 L89.114,17.71 L91.828,17.71 L91.828,22.149 L103.328,22.149 L103.328,24.265 Z M86.584,10.902 C86.584,8.004 88.769,5.842 92.127,5.842 C95.508,5.842 97.67,8.004 97.67,10.902 C97.67,13.846 95.508,15.939 92.127,15.939 C88.769,15.939 86.584,13.846 86.584,10.902 Z M89.344,10.902 C89.344,12.535 90.402,13.731 92.127,13.731 C93.898,13.731 94.933,12.535 94.933,10.902 C94.933,9.338 93.898,8.142 92.127,8.142 C90.402,8.142 89.344,9.338 89.344,10.902 Z M128.375,24.817 L125.822,24.817 L125.822,14.766 L124.12,14.766 L124.12,23.874 L121.613,23.874 L121.613,4.692 L124.12,4.692 L124.12,12.604 L125.822,12.604 L125.822,4.324 L128.375,4.324 L128.375,24.817 Z M120.325,16.376 C120.325,18.952 118.508,20.631 115.84,20.631 C113.195,20.631 111.355,18.814 111.355,16.376 C111.355,13.777 113.218,12.121 115.84,12.121 C118.508,12.121 120.325,13.8 120.325,16.376 Z M110.918,11.362 L110.918,9.223 L120.693,9.223 L120.693,11.362 L110.918,11.362 Z M117.91,16.376 C117.91,15.111 117.036,14.237 115.84,14.237 C114.667,14.237 113.793,15.111 113.793,16.376 C113.793,17.664 114.667,18.515 115.84,18.515 C117.036,18.515 117.91,17.618 117.91,16.376 Z M113.149,8.05 L113.149,5.911 L118.669,5.911 L118.669,8.05 L113.149,8.05 Z M147.81,24.817 L145.096,24.817 L145.096,13.524 L141.393,13.524 L141.393,11.247 L145.096,11.247 L145.096,4.324 L147.81,4.324 L147.81,24.817 Z M143.302,18.239 L141.761,20.263 C140.059,19.228 137.736,16.652 137.046,14.513 C136.379,16.859 134.286,19.458 132.147,20.608 L130.537,18.63 C133.826,16.491 135.62,13.248 135.62,9.177 L135.62,6.049 L138.38,6.049 L138.38,9.039 C138.38,13.087 140.22,16.261 143.302,18.239 Z M160.115,7.36 L162.622,7.36 L162.622,20.033 L165.244,20.033 L165.244,23 L156.32,23 L156.32,20.033 L159.264,20.033 L159.264,10.81 L156.32,11.914 L156.32,8.809 L160.115,7.36 Z M183.897,24.817 L181.344,24.817 L181.344,14.49 L179.527,14.49 L179.527,23.874 L177.02,23.874 L177.02,4.692 L179.527,4.692 L179.527,12.351 L181.344,12.351 L181.344,4.324 L183.897,4.324 L183.897,24.817 Z M175.157,6.739 C175.18,12.857 172.742,17.526 167.728,20.815 L165.98,18.952 C169.982,16.56 172.213,12.972 172.558,8.901 L167.222,8.901 L167.222,6.739 L175.157,6.739 Z" id="할인-해서-1개"></path>
            </g>
            <g id="Aug.-29-—-Sept.-10" transform="translate(1.000000, 0.000000)" fill="#000000">
                <path d="M23.7375,12.35 C23.7375,10.075 25.6375,7.65 30.2875,7.65 C34.6125,7.65 36.8625,10.075 36.8875,12.45 C36.9125,14.1 36.1125,15.35 34.7375,16.375 C36.2875,17.15 37.5125,18.35 37.5125,20.4 C37.5125,22.9 35.4625,25.35 30.3375,25.35 C25.2625,25.35 23.1125,22.875 23.1125,20.275 C23.1125,18.575 24.1625,16.95 25.7625,16 C24.5875,15.2 23.7375,14.075 23.7375,12.35 Z M30.7125,18 C29.9625,17.725 29.0625,17.475 28.1875,17.15 C27.2625,17.925 26.8375,18.95 26.8625,19.825 C26.8875,21.275 28.0375,22.4 30.6125,22.4 C32.4125,22.4 33.7875,21.65 33.7875,20.5 C33.7875,19.05 32.3875,18.575 30.7125,18 Z M33.2875,12.725 C33.2875,11.55 32.2375,10.6 30.1375,10.6 C28.3375,10.6 27.3125,11.425 27.3125,12.375 C27.3125,13.875 28.8375,14.35 30.5125,14.9 C31.0125,15.025 31.5375,15.2 32.0875,15.35 C32.8875,14.55 33.3125,13.55 33.2875,12.725 Z M58.8125,27.05 L42.8625,27.05 L42.8625,22.025 L55.1375,22.025 L55.1375,21.025 L42.8375,21.025 L42.8375,18.925 L58.0625,18.925 L58.0625,23.925 L45.7875,23.925 L45.7875,24.95 L58.8125,24.95 L58.8125,27.05 Z M40.8375,8.7 C40.8375,6.5 43.3125,5.025 46.3875,5.025 C49.4125,5.025 51.8375,6.5 51.8375,8.75 C51.8375,10.925 49.4125,12.4 46.3875,12.4 C43.3125,12.4 40.8375,10.925 40.8375,8.7 Z M50.7125,17.525 L50.7125,15.6 L55.1875,15.6 L55.1875,4.7 L58.0875,4.7 L58.0875,18.1 L55.1875,18.1 L55.1875,17.525 L50.7125,17.525 Z M47.4875,18.125 L44.5625,18.125 L44.5625,15.425 C42.6375,15.5 41.0875,15.575 39.5625,15.575 L39.1625,13.25 C41.6875,13.25 43.9125,13.225 46.3875,13.125 C49.4875,12.975 51.6375,12.8 53.6125,12.55 L53.8375,14.725 C52.0875,14.975 49.7125,15.175 47.4875,15.3 L47.4875,18.125 Z M43.7875,8.725 C43.7875,9.675 44.8125,10.3 46.3875,10.3 C47.9125,10.3 48.9875,9.675 48.9875,8.725 C48.9875,7.775 47.9125,7.125 46.3875,7.125 C44.8125,7.125 43.7875,7.775 43.7875,8.725 Z M67.2875,9.45 C69.0375,8.2 71.0625,7.65 73.1375,7.65 C76.5625,7.65 79.3375,9.2 79.3375,12.675 C79.3375,15.55 76.9625,17.25 74.7375,18.575 C72.7125,19.775 70.9875,20.7 70.9625,21.8 L79.4625,21.775 L79.4625,25 L66.7125,25 L66.7125,23.325 C66.7125,19.225 69.8125,17.625 72.3125,16.15 C74.0875,15.125 75.6125,14.45 75.6125,12.825 C75.6125,11.575 74.5125,10.925 72.7875,10.925 C71.0875,10.925 69.0875,11.575 67.2875,12.95 L67.2875,9.45 Z M81.3875,13.5 C81.3875,9.625 84.4125,7.65 87.8875,7.65 C93.3625,7.65 95.5875,11 95.5875,16.5 C95.5875,22.725 91.8375,25.35 87.5125,25.35 C85.9375,25.35 84.2875,24.975 82.8375,24.3 L82.8375,21 C84.0125,21.775 85.5625,22.2 87.0125,22.2 C89.3125,22.2 91.4125,21.225 91.8625,17.85 C90.3625,18.65 88.9875,19 87.3375,19 C84.2625,19 81.3875,17.15 81.3875,13.5 Z M88.1875,10.7 C86.5375,10.7 85.1375,11.45 85.1375,13.325 C85.1375,15.275 86.7125,15.875 88.4625,15.875 C89.5875,15.875 90.7625,15.525 91.8625,14.85 C91.5125,11.65 90.1375,10.7 88.1875,10.7 Z M122.0625,26.8 L106.7375,26.8 L106.7375,20.825 L118.4625,20.825 L118.4625,19.275 L106.6125,19.275 L106.6125,16.975 L121.3625,16.975 L121.3625,22.925 L109.6625,22.925 L109.6625,24.45 L122.0625,24.45 L122.0625,26.8 Z M121.3625,15.85 L118.4625,15.85 L118.4625,4.7 L121.3625,4.7 L121.3625,15.85 Z M103.6125,10.625 C103.6125,7.65 106.1125,5.45 109.5375,5.45 C112.9375,5.45 115.4125,7.6 115.4125,10.625 C115.4125,13.6 112.9375,15.6 109.5375,15.6 C106.2375,15.6 103.6125,13.675 103.6125,10.625 Z M106.5125,10.6 C106.5125,12.1 107.8125,13.175 109.5375,13.175 C111.3625,13.175 112.5125,11.975 112.5125,10.6 C112.5125,9.075 111.4125,7.85 109.5375,7.85 C107.8875,7.85 106.5125,9.1 106.5125,10.6 Z M125.2125,17.45 L134.5125,17.45 L134.5125,20.375 L125.2125,20.375 L125.2125,17.45 Z M142.2125,13.5 C142.2125,9.625 145.2375,7.65 148.7125,7.65 C154.1875,7.65 156.4125,11 156.4125,16.5 C156.4125,22.725 152.6625,25.35 148.3375,25.35 C146.7625,25.35 145.1125,24.975 143.6625,24.3 L143.6625,21 C144.8375,21.775 146.3875,22.2 147.8375,22.2 C150.1375,22.2 152.2375,21.225 152.6875,17.85 C151.1875,18.65 149.8125,19 148.1625,19 C145.0875,19 142.2125,17.15 142.2125,13.5 Z M149.0125,10.7 C147.3625,10.7 145.9625,11.45 145.9625,13.325 C145.9625,15.275 147.5375,15.875 149.2875,15.875 C150.4125,15.875 151.5875,15.525 152.6875,14.85 C152.3375,11.65 150.9625,10.7 149.0125,10.7 Z M177.7625,27.05 L161.8125,27.05 L161.8125,22.025 L174.0875,22.025 L174.0875,21.025 L161.7875,21.025 L161.7875,18.925 L177.0125,18.925 L177.0125,23.925 L164.7375,23.925 L164.7375,24.95 L177.7625,24.95 L177.7625,27.05 Z M159.7875,8.7 C159.7875,6.5 162.2625,5.025 165.3375,5.025 C168.3625,5.025 170.7875,6.5 170.7875,8.75 C170.7875,10.925 168.3625,12.4 165.3375,12.4 C162.2625,12.4 159.7875,10.925 159.7875,8.7 Z M169.6625,17.525 L169.6625,15.6 L174.1375,15.6 L174.1375,4.7 L177.0375,4.7 L177.0375,18.1 L174.1375,18.1 L174.1375,17.525 L169.6625,17.525 Z M166.4375,18.125 L163.5125,18.125 L163.5125,15.425 C161.5875,15.5 160.0375,15.575 158.5125,15.575 L158.1125,13.25 C160.6375,13.25 162.8625,13.225 165.3375,13.125 C168.4375,12.975 170.5875,12.8 172.5625,12.55 L172.7875,14.725 C171.0375,14.975 168.6625,15.175 166.4375,15.3 L166.4375,18.125 Z M162.7375,8.725 C162.7375,9.675 163.7625,10.3 165.3375,10.3 C166.8625,10.3 167.9375,9.675 167.9375,8.725 C167.9375,7.775 166.8625,7.125 165.3375,7.125 C163.7625,7.125 162.7375,7.775 162.7375,8.725 Z M184.5125,8 L187.2375,8 L187.2375,21.775 L190.0875,21.775 L190.0875,25 L180.3875,25 L180.3875,21.775 L183.5875,21.775 L183.5875,11.75 L180.3875,12.95 L180.3875,9.575 L184.5125,8 Z M191.7125,16.5 C191.7125,11.6 194.0375,7.65 199.4625,7.65 C204.8875,7.65 207.2125,11.6 207.2125,16.5 C207.2125,21.4 204.8875,25.35 199.4625,25.35 C194.0375,25.35 191.7125,21.4 191.7125,16.5 Z M203.4625,16.5 C203.4625,12.875 202.2125,10.95 199.4625,10.95 C196.7125,10.95 195.4625,12.875 195.4625,16.5 C195.4625,20.125 196.7125,22.05 199.4625,22.05 C202.2125,22.05 203.4625,20.125 203.4625,16.5 Z M228.1375,26.8 L212.8125,26.8 L212.8125,20.825 L224.5375,20.825 L224.5375,19.275 L212.6875,19.275 L212.6875,16.975 L227.4375,16.975 L227.4375,22.925 L215.7375,22.925 L215.7375,24.45 L228.1375,24.45 L228.1375,26.8 Z M227.4375,15.85 L224.5375,15.85 L224.5375,4.7 L227.4375,4.7 L227.4375,15.85 Z M209.6875,10.625 C209.6875,7.65 212.1875,5.45 215.6125,5.45 C219.0125,5.45 221.4875,7.6 221.4875,10.625 C221.4875,13.6 219.0125,15.6 215.6125,15.6 C212.3125,15.6 209.6875,13.675 209.6875,10.625 Z M212.5875,10.6 C212.5875,12.1 213.8875,13.175 215.6125,13.175 C217.4375,13.175 218.5875,11.975 218.5875,10.6 C218.5875,9.075 217.4875,7.85 215.6125,7.85 C213.9625,7.85 212.5875,9.1 212.5875,10.6 Z" id="8월-29-일--9월10일"></path>
            </g>
        </g>
    </g>
</svg>