<?xml version="1.0" encoding="UTF-8"?>
<svg width="250px" height="293px" viewBox="0 0 250 293" version="1.1" xmlns="http://www.w3.org/2000/svg" xmlns:xlink="http://www.w3.org/1999/xlink">
    <!-- Generator: Sketch 48.2 (47327) - http://www.bohemiancoding.com/sketch -->
    <title>text_5</title>
    <desc>Created with Sketch.</desc>
    <defs>
        <radialGradient cx="200%" cy="200%" fx="200%" fy="200%" r="50.0253367%" gradientTransform="translate(2.000000,2.000000),scale(1.000000,1.000000),translate(-2.000000,-2.000000)" id="radialGradient-1">
            <stop stop-color="#FF9495" offset="0%"></stop>
            <stop stop-color="#FE5F60" offset="70.3742825%"></stop>
            <stop stop-color="#FF9091" offset="100%"></stop>
        </radialGradient>
    </defs>
    <g id="Page-1" stroke="none" stroke-width="1" fill="none" fill-rule="evenodd">
        <g id="text_5" transform="translate(0.000000, -6.000000)">
            <g id="5-copy" transform="translate(0.000000, 49.000000)" fill-rule="nonzero">
                <g id="Group-7" transform="translate(0.637670, 0.351157)">
                    <path d="M124.637764,0 C132.821471,3.54941064e-05 140.926556,0.798353806 148.953007,2.39495144 C156.979458,3.99155257 164.773039,6.3557574 172.333767,9.48756474 C179.894518,12.6193674 187.07714,16.4586026 193.881645,21.0052615 C200.686127,25.5519244 206.981723,30.7186496 212.768466,36.505437 C218.55521,42.2922239 223.721866,48.5878904 228.268475,55.3924265 C232.815084,62.1969726 236.654249,69.3796356 239.785993,76.9404155 C242.917771,84.501213 245.281976,92.2948576 246.878535,100.321349 C248.475089,108.347835 249.273352,116.452955 249.273352,124.63668 C249.273317,132.820463 248.47502,140.925612 246.87839,148.952133 C245.281836,156.978654 242.917632,164.77231 239.785777,172.333131 C236.653998,179.893946 232.81477,187.076626 228.26812,193.88116 C223.721476,200.685701 218.554745,206.981366 212.767931,212.768162 C206.981152,218.554958 200.685522,223.721672 193.880953,228.268334 C187.076412,232.814977 179.893755,236.654194 172.332969,239.785956 C164.772184,242.917752 156.978533,245.281921 148.952047,246.878499 C140.925544,248.47507 132.820424,249.27335 124.636682,249.27335 C116.452899,249.273315 108.347767,248.475 100.321264,246.878388 C92.2947429,245.281799 84.5010693,242.917595 76.9402486,239.785775 C69.3794278,236.653979 62.1967532,232.81475 55.392213,228.268101 C48.5876669,223.72144 42.2920016,218.554726 36.5052171,212.767929 C30.7184267,206.981156 25.5517068,200.685485 21.005063,193.880951 C16.4584077,187.076411 12.6191964,179.893754 9.48740589,172.33295 C6.35561542,164.772164 3.99144027,156.978532 2.39487464,148.952046 C0.798285727,140.925542 0,132.820422 0,124.63668 C2.90935298e-05,116.452914 0.798343914,108.347783 2.39494446,100.32125 C3.99154501,92.2947296 6.35574925,84.5010675 9.48755718,76.9402584 C12.6193651,69.3794494 16.4586055,62.1967689 21.0052667,55.3922229 C25.5519221,48.5876774 30.7186478,42.2920022 36.5054382,36.5052148 C42.2922344,30.7184232 48.5878997,25.5517027 55.3924283,21.0050526 C62.1969627,16.458403 69.3796431,12.6191853 76.9404289,9.48740007 C84.5012089,6.35561542 92.2948651,3.99143736 100.321351,2.39486707 C108.347837,0.798292128 116.452951,4.65496476e-06 124.636682,4.65496476e-06 L124.636577,56.086505 C120.135546,56.0865341 115.67776,56.5256079 111.263212,57.4037437 C106.848659,58.2818679 102.562199,59.5821799 98.4037791,61.3046682 C94.2453594,63.0271681 90.2949352,65.1387532 86.5524599,67.6394177 C82.8099904,70.1400823 79.3474123,72.9817811 76.1647023,76.1645144 C72.9819924,79.3472476 70.1403109,82.8098664 67.6396813,86.5523534 C65.1390459,90.294852 63.0274898,94.2453169 61.305019,98.4037482 C59.5825599,102.56218 58.2822653,106.848681 57.4041528,111.263263 C56.5260693,115.67781 56.0870247,120.135637 56.0870072,124.636697 C56.0870247,129.137757 56.5261042,133.595602 57.40424,138.010184 C58.2823526,142.424773 59.5826646,146.711274 61.3051587,150.869722 C63.0276702,155.028177 65.1392379,158.978642 67.6399082,162.721146 C70.1405786,166.463656 72.9822775,169.926287 76.1650049,173.109014 C79.347744,176.291742 82.8103628,179.133441 86.5528497,181.634111 C90.2953425,184.134741 94.2458016,186.246314 98.4042387,187.968808 C102.562676,189.691296 106.849177,190.991608 111.263742,191.869727 C115.678313,192.747822 120.136116,193.186872 124.637176,193.186872 C129.138242,193.186855 133.596081,192.747787 138.010686,191.869674 C142.425251,190.991539 146.71177,189.691227 150.870224,187.968715 C155.028679,186.246227 158.979138,184.134653 162.721648,181.633983 C166.464135,179.133313 169.926754,176.29162 173.109493,173.108892 C176.292238,169.926165 179.133937,166.463546 181.634607,162.721042 C184.13526,158.978531 186.246828,155.028072 187.969305,150.869635 C189.691775,146.711198 190.992087,142.424697 191.870206,138.010132 C192.748318,133.59555 193.187369,129.13774 193.187351,124.636697 C193.187334,120.135637 192.748266,115.677793 191.870153,111.263211 C190.992018,106.848622 189.691706,102.562104 187.969194,98.4036551 C186.246723,94.2452064 184.13515,90.2947356 181.634479,86.552237 C179.133815,82.8097384 176.292098,79.3471254 173.109371,76.1643922 C169.926644,72.9816531 166.464031,70.1399659 162.72152,67.6393072 C158.979016,65.1386426 155.028551,63.027075 150.870114,61.3045925 C146.711683,59.5821101 142.425182,58.2818039 138.010628,57.4036855 C133.596046,56.525573 129.138242,56.0865167 124.637176,56.0865167 L124.637764,0 Z" id="Fill-8" fill="url(#radialGradient-1)"></path>
                    <circle id="Oval" fill="#FFFFFF" cx="124.90822" cy="124.90822" r="87.3982442"></circle>
                    <path d="M77.8377005,151.589233 L75.5138824,151.589233 L75.5138824,148.446797 C73.5597627,148.235541 71.711271,147.707401 70.2324777,146.888783 L70.2324777,143.931196 C72.2658185,145.225141 74.6424506,145.753281 76.7550125,145.753281 C79.1316447,145.753281 80.7424731,145.198734 80.7424731,143.45587 C80.7424731,139.177932 70.3116987,141.448936 70.3116987,134.899994 C70.3116987,131.889594 72.6091098,130.278765 75.5138824,129.935474 L75.5138824,126.766631 L77.8377005,126.766631 L77.8377005,129.909067 C79.6069711,130.041102 81.3762417,130.516428 82.6173718,131.255825 L82.6173718,134.134191 C81.1121714,133.130724 79.0524236,132.576176 77.0718968,132.602583 C74.8272998,132.602583 73.3749135,133.262759 73.3749135,134.84718 C73.3749135,138.834641 83.8056879,136.695672 83.8056879,143.297428 C83.8056879,146.862376 81.1385785,148.288355 77.8377005,148.473204 L77.8377005,151.589233 Z M85.9710638,139.177932 C85.9710638,133.922934 88.453324,129.856253 94.025206,129.856253 C99.597088,129.856253 102.079348,133.922934 102.079348,139.177932 C102.079348,144.43293 99.597088,148.499611 94.025206,148.499611 C88.453324,148.499611 85.9710638,144.43293 85.9710638,139.177932 Z M99.0425405,139.177932 C99.0425405,135.005622 97.4581191,132.602583 94.025206,132.602583 C90.5658859,132.602583 89.0078715,135.005622 89.0078715,139.177932 C89.0078715,143.350242 90.5658859,145.753281 94.025206,145.753281 C97.4581191,145.753281 99.0425405,143.350242 99.0425405,139.177932 Z M108.179371,146.703934 C108.179371,147.89225 107.360753,148.446797 106.4101,148.446797 C105.459447,148.446797 104.614423,147.89225 104.614423,146.703934 C104.614423,145.568432 105.459447,145.013884 106.4101,145.013884 C107.360753,145.013884 108.179371,145.568432 108.179371,146.703934 Z M110.714445,139.177932 C110.714445,133.922934 113.196705,129.856253 118.768587,129.856253 C124.340469,129.856253 126.822729,133.922934 126.822729,139.177932 C126.822729,144.43293 124.340469,148.499611 118.768587,148.499611 C113.196705,148.499611 110.714445,144.43293 110.714445,139.177932 Z M123.785922,139.177932 C123.785922,135.005622 122.2015,132.602583 118.768587,132.602583 C115.309267,132.602583 113.751253,135.005622 113.751253,139.177932 C113.751253,143.350242 115.309267,145.753281 118.768587,145.753281 C122.2015,145.753281 123.785922,143.350242 123.785922,139.177932 Z M130.519713,130.199544 L141.584256,130.199544 L141.584256,132.89306 L133.29245,132.89306 L133.02838,137.223812 C133.899812,137.012556 134.824058,136.906928 135.748304,136.906928 C139.207624,136.906928 142.429281,138.412128 142.429281,142.637252 C142.429281,146.519085 139.128403,148.499611 135.167349,148.499611 C133.081194,148.499611 130.995039,148.050692 129.410618,147.284888 L129.410618,144.459337 C130.915818,145.330769 132.949159,145.779688 134.824058,145.779688 C137.491167,145.779688 139.392473,144.723407 139.392473,142.610845 C139.392473,140.234213 137.359132,139.389188 134.507173,139.389188 C133.054787,139.389188 131.391145,139.679666 129.938758,140.181399 L130.519713,130.199544 Z M144.779506,139.177932 C144.779506,133.922934 147.261766,129.856253 152.833648,129.856253 C158.40553,129.856253 160.88779,133.922934 160.88779,139.177932 C160.88779,144.43293 158.40553,148.499611 152.833648,148.499611 C147.261766,148.499611 144.779506,144.43293 144.779506,139.177932 Z M157.850982,139.177932 C157.850982,135.005622 156.266561,132.602583 152.833648,132.602583 C149.374328,132.602583 147.816313,135.005622 147.816313,139.177932 C147.816313,143.350242 149.374328,145.753281 152.833648,145.753281 C156.266561,145.753281 157.850982,143.350242 157.850982,139.177932 Z M163.422864,139.177932 C163.422864,133.922934 165.905125,129.856253 171.477007,129.856253 C177.048889,129.856253 179.531149,133.922934 179.531149,139.177932 C179.531149,144.43293 177.048889,148.499611 171.477007,148.499611 C165.905125,148.499611 163.422864,144.43293 163.422864,139.177932 Z M176.494341,139.177932 C176.494341,135.005622 174.90992,132.602583 171.477007,132.602583 C168.017686,132.602583 166.459672,135.005622 166.459672,139.177932 C166.459672,143.350242 168.017686,145.753281 171.477007,145.753281 C174.90992,145.753281 176.494341,143.350242 176.494341,139.177932 Z M90.2886122,162.199544 L92.5068022,162.199544 L92.5068022,177.436397 L95.702052,177.436397 L95.702052,180.15632 L85.9314533,180.15632 L85.9314533,177.436397 L89.5228085,177.436397 L89.5228085,165.289166 L85.9314533,166.635924 L85.9314533,163.863187 L90.2886122,162.199544 Z M121.528121,161.671404 L124.248045,161.671404 L124.248045,180.15632 L121.237644,180.15632 L121.237644,167.216879 L115.401692,175.98401 L113.606014,175.98401 L107.770062,167.190472 L107.770062,180.15632 L104.759661,180.15632 L104.759661,161.671404 L107.479585,161.671404 L114.503853,172.26062 L121.528121,161.671404 Z M131.747639,180.15632 L128.737239,180.15632 L128.737239,161.671404 L131.56279,161.671404 L141.518238,175.1918 C141.491831,174.558031 141.491831,173.845041 141.491831,173.158459 L141.491831,161.671404 L144.502232,161.671404 L144.502232,180.15632 L141.67668,180.15632 L131.721232,166.635924 C131.747639,167.269693 131.747639,167.982682 131.747639,168.642858 L131.747639,180.15632 Z M152.001827,180.15632 L148.991426,180.15632 L148.991426,161.671404 L156.385393,161.671404 C159.844713,161.671404 163.488882,163.044569 163.488882,167.454542 C163.488882,170.75542 161.429134,172.339841 158.999688,172.920796 L164.914861,180.15632 L161.297099,180.15632 L155.751624,173.23768 L152.001827,173.23768 L152.001827,180.15632 Z M152.001827,164.417734 L152.001827,170.570571 L156.517428,170.570571 C158.497954,170.570571 160.425667,169.857581 160.425667,167.507356 C160.425667,165.130724 158.497954,164.417734 156.517428,164.417734 L152.001827,164.417734 Z" id="$0.0500-1-MNR" fill="#131F3C"></path>
                </g>
            </g>
            <path d="M103.969607,125.478317 C103.969607,120.045357 106.574067,115.53656 112.791166,115.53656 C119.008265,115.53656 121.612725,120.045357 121.612725,125.478317 C121.612725,130.911277 119.008265,135.420074 112.791166,135.420074 C106.574067,135.420074 103.969607,130.911277 103.969607,125.478317 Z M116.431809,125.478317 C116.431809,121.809669 115.283606,120.017352 112.791166,120.017352 C110.298725,120.017352 109.150522,121.809669 109.150522,125.478317 C109.150522,129.146966 110.298725,130.939282 112.791166,130.939282 C115.283606,130.939282 116.431809,129.146966 116.431809,125.478317 Z M131.666502,136.680297 L128.585957,136.680297 L140.039982,113.716238 L143.120526,113.716238 L131.666502,136.680297 Z M134.130937,120.017352 C134.130937,123.377946 131.666502,125.058243 128.809997,125.058243 C125.925487,125.058243 123.461052,123.377946 123.461052,120.017352 C123.461052,116.656758 125.925487,114.976461 128.809997,114.976461 C131.666502,114.976461 134.130937,116.656758 134.130937,120.017352 Z M127.157705,120.017352 C127.157705,120.857501 127.605784,121.697649 128.809997,121.697649 C129.986205,121.697649 130.434284,120.857501 130.434284,120.017352 C130.434284,119.177204 129.986205,118.337055 128.809997,118.337055 C127.605784,118.337055 127.157705,119.177204 127.157705,120.017352 Z M148.133412,130.379183 C148.133412,133.739777 145.668976,135.420074 142.812472,135.420074 C139.927962,135.420074 137.463526,133.739777 137.463526,130.379183 C137.463526,127.018589 139.927962,125.338292 142.812472,125.338292 C145.668976,125.338292 148.133412,127.018589 148.133412,130.379183 Z M141.16018,130.379183 C141.16018,131.219332 141.608259,132.05948 142.812472,132.05948 C143.988679,132.05948 144.436759,131.219332 144.436759,130.379183 C144.436759,129.539035 143.988679,128.698886 142.812472,128.698886 C141.608259,128.698886 141.16018,129.539035 141.16018,130.379183 Z" id="0%" fill="#131F3C" fill-rule="nonzero"></path>
            <g id="diskon" transform="translate(89.000000, 141.000000)" fill="#000000">
                <path d="M2.0545,6.9 L5.5045,6.9 L5.5045,23 L2.0545,23 L2.0545,6.9 Z M1.9165,3.818 C1.9165,2.599 2.7675,2.001 3.7795,2.001 C4.7915,2.001 5.6655,2.599 5.6655,3.818 C5.6655,5.083 4.7915,5.635 3.7795,5.635 C2.7675,5.635 1.9165,5.083 1.9165,3.818 Z M11.4155,13.363 C12.2665,12.374 13.5085,11.638 15.0955,11.638 C17.9935,11.638 19.5805,13.616 19.5805,16.169 L19.5805,23 L16.3835,23 L16.3835,16.583 C16.3835,15.088 15.4865,14.398 14.2445,14.398 C13.1175,14.398 12.2435,15.134 11.7835,15.801 L11.7835,23 L8.5865,23 L8.5865,11.96 L11.4155,11.96 L11.4155,13.363 Z M30.5745,6.9 L33.7485,6.9 L33.7485,23 L30.9425,23 L30.9425,21.39 C30.2295,22.379 28.9645,23.322 26.9405,23.322 C23.4215,23.322 21.5355,20.493 21.5355,17.48 C21.5355,14.467 23.4215,11.638 26.9405,11.638 C28.6885,11.638 29.8615,12.351 30.5745,13.133 L30.5745,6.9 Z M30.5745,16.169 C30.1375,15.203 29.1025,14.329 27.6995,14.329 C25.8825,14.329 24.8015,15.755 24.8015,17.48 C24.8015,19.205 25.8825,20.631 27.6995,20.631 C29.1025,20.631 30.1375,19.757 30.5745,18.791 L30.5745,16.169 Z M39.6825,23 L36.4855,23 L36.4855,11.96 L39.6825,11.96 L39.6825,23 Z M39.9585,8.303 C39.9585,9.568 39.0845,10.12 38.0725,10.12 C37.0835,10.12 36.2095,9.568 36.2095,8.303 C36.2095,7.061 37.0835,6.509 38.0725,6.509 C39.0845,6.509 39.9585,7.061 39.9585,8.303 Z M45.2715,13.616 C46.0535,12.397 47.6635,11.523 49.7335,11.73 L49.7335,14.835 C47.9855,14.536 46.3065,15.203 45.6395,16.514 L45.6395,23 L42.4425,23 L42.4425,11.96 L45.2715,11.96 L45.2715,13.616 Z M54.6555,23 L51.4585,23 L51.4585,11.96 L54.6555,11.96 L54.6555,23 Z M54.9315,8.303 C54.9315,9.568 54.0575,10.12 53.0455,10.12 C52.0565,10.12 51.1825,9.568 51.1825,8.303 C51.1825,7.061 52.0565,6.509 53.0455,6.509 C54.0575,6.509 54.9315,7.061 54.9315,8.303 Z M60.6125,23 L57.4155,23 L57.4155,11.96 L60.2445,11.96 L60.2445,13.248 C60.8195,12.558 62.0845,11.638 63.7635,11.638 C65.4195,11.638 66.5005,12.328 67.1445,13.271 C68.0645,12.374 69.3065,11.638 70.8245,11.638 C73.9295,11.638 74.9415,14.053 74.9415,16.008 L74.9415,23 L71.7675,23 L71.7675,16.215 C71.7675,15.065 71.0545,14.398 70.0425,14.398 C69.1685,14.398 68.3865,14.904 67.8575,15.502 C67.8805,15.663 67.8805,15.824 67.8805,16.008 L67.8805,23 L64.7065,23 L64.7065,16.215 C64.7065,15.065 63.9935,14.398 62.9815,14.398 C62.0155,14.398 61.1415,15.042 60.6125,15.732 L60.6125,23 Z" id="İndirim"></path>
            </g>
            <g id="11-—-30-September" transform="translate(1.000000, 0.000000)" fill="#000000">
                <path d="M66.025,8 L68.75,8 L68.75,21.775 L71.6,21.775 L71.6,25 L61.9,25 L61.9,21.775 L65.1,21.775 L65.1,11.75 L61.9,12.95 L61.9,9.575 L66.025,8 Z M77.55,8 L80.275,8 L80.275,21.775 L83.125,21.775 L83.125,25 L73.425,25 L73.425,21.775 L76.625,21.775 L76.625,11.75 L73.425,12.95 L73.425,9.575 L77.55,8 Z M84.75,17.45 L94.05,17.45 L94.05,20.375 L84.75,20.375 L84.75,17.45 Z M108.6,12.35 C108.6,14.1 107.625,15.45 106.025,16 C107.75,16.525 109.3,17.85 109.3,20.35 C109.3,23.925 106,25.35 102.5,25.35 C100.3,25.35 98.525,25 96.6,24.2 L96.6,20.725 C98.525,21.8 100.25,22.075 102.2,22.05 C104.125,22.05 105.725,21.425 105.725,19.825 C105.725,18.375 104.475,17.85 102.775,17.85 L99.975,17.85 L100,14.65 L102.35,14.675 C104.025,14.675 105.05,14.05 105.05,12.875 C105.05,11.65 103.975,10.925 101.925,10.925 C100.4,10.925 98.575,11.425 96.9,12.45 L96.9,8.975 C98.425,8.15 100.35,7.65 102.45,7.65 C105.975,7.65 108.6,9.25 108.6,12.35 Z M111.4,16.5 C111.4,11.6 113.725,7.65 119.15,7.65 C124.575,7.65 126.9,11.6 126.9,16.5 C126.9,21.4 124.575,25.35 119.15,25.35 C113.725,25.35 111.4,21.4 111.4,16.5 Z M123.15,16.5 C123.15,12.875 121.9,10.95 119.15,10.95 C116.4,10.95 115.15,12.875 115.15,16.5 C115.15,20.125 116.4,22.05 119.15,22.05 C121.9,22.05 123.15,20.125 123.15,16.5 Z M135.4,7.5 L147.725,7.5 L147.725,10.8 L139.15,10.8 L139.15,14.525 L146.975,14.525 L146.975,17.8 L139.15,17.8 L139.15,21.7 L147.875,21.7 L147.875,25 L135.4,25 L135.4,7.5 Z M155.75,21.1 L158.725,13 L162.325,13 L157,26.45 C155.65,29.8 153.775,30.825 151.825,30.825 C151.2,30.825 150.575,30.7 149.95,30.55 L149.95,27.675 C150.425,27.775 150.9,27.85 151.375,27.85 C152.625,27.85 153.575,27 154.225,25.225 L154.25,25.175 L148.575,13 L152.25,13 L155.75,21.1 Z M164.1,6.75 L167.575,6.75 L167.575,25 L164.1,25 L164.1,6.75 Z M178.9,13 L182.375,13 L182.375,25 L179.3,25 L179.3,23.475 C178.375,24.55 177,25.35 175.3,25.35 C172.05,25.35 170.425,23.2 170.425,20.425 L170.425,13 L173.9,13 L173.9,19.975 C173.9,21.575 174.775,22.35 176.2,22.35 C177.45,22.35 178.375,21.55 178.9,20.825 L178.9,13 Z M180.975,9.675 C180.975,10.7 180.15,11.525 179.125,11.525 C178.075,11.525 177.25,10.7 177.25,9.675 C177.25,8.65 178.075,7.8 179.125,7.8 C180.15,7.8 180.975,8.65 180.975,9.675 Z M175.625,9.675 C175.625,10.7 174.8,11.525 173.775,11.525 C172.75,11.525 171.9,10.7 171.9,9.675 C171.9,8.65 172.75,7.8 173.775,7.8 C174.8,7.8 175.625,8.65 175.625,9.675 Z M185.375,6.75 L188.85,6.75 L188.85,25 L185.375,25 L185.375,6.75 Z" id="11-30-Eylül"></path>
            </g>
        </g>
    </g>
</svg>