<?xml version="1.0" encoding="UTF-8"?>
<svg width="250px" height="292px" viewBox="0 0 250 292" version="1.1" xmlns="http://www.w3.org/2000/svg" xmlns:xlink="http://www.w3.org/1999/xlink">
    <!-- Generator: Sketch 48.2 (47327) - http://www.bohemiancoding.com/sketch -->
    <title>text_2</title>
    <desc>Created with Sketch.</desc>
    <defs>
        <radialGradient cx="404.481229%" cy="400%" fx="404.481229%" fy="400%" r="101.454359%" gradientTransform="translate(4.044812,4.000000),scale(1.000000,0.999999),translate(-4.044812,-4.000000)" id="radialGradient-1">
            <stop stop-color="#FF9495" offset="0%"></stop>
            <stop stop-color="#FE5F60" offset="70.3742825%"></stop>
            <stop stop-color="#FF9091" offset="100%"></stop>
        </radialGradient>
        <radialGradient cx="100%" cy="100%" fx="100%" fy="100%" r="50.0301469%" gradientTransform="translate(1.000000,1.000000),scale(1.000000,1.000000),translate(-1.000000,-1.000000)" id="radialGradient-2">
            <stop stop-color="#8D00FF" offset="0%"></stop>
            <stop stop-color="#5C00FE" offset="69.8959662%"></stop>
            <stop stop-color="#8900FF" offset="100%"></stop>
        </radialGradient>
    </defs>
    <g id="Page-1" stroke="none" stroke-width="1" fill="none" fill-rule="evenodd">
        <g id="text_2" transform="translate(-1.000000, -7.000000)">
            <g id="2-copy" transform="translate(0.000000, 48.000000)" fill-rule="nonzero">
                <g id="Group-2" transform="translate(126.066640, 125.762969) scale(-1, 1) translate(-126.066640, -125.762969) translate(0.566640, 0.762969)">
                    <path d="M0.773750896,124.873729 C0.773779989,116.689946 1.57209481,108.584814 3.16869536,100.558282 C4.76529591,92.5317607 7.12950015,84.7380986 10.2613081,77.1772896 C13.393116,69.6164805 17.2323564,62.4338 21.7790176,55.629254 C26.325673,48.8247085 31.4923987,42.5290333 37.2791891,36.7422459 C43.0659853,30.9554544 49.3616506,25.7887338 56.1661792,21.2420837 C62.9707136,16.6954341 70.153394,12.8562164 77.7141798,9.7244312 C85.2749598,6.59264654 93.068616,4.22846849 101.095102,2.6318982 C109.121588,1.03532325 117.226597,0.237031125 125.410328,0.237031125 L125.410328,56.3235362 C120.909297,56.3235653 116.451511,56.762639 112.036963,57.6407748 C107.62241,58.518899 103.33595,59.8192111 99.17753,61.5416993 C95.0191103,63.2641992 91.0686861,65.3757843 87.3262108,67.8764488 C83.5837413,70.3771134 80.1211632,73.2188123 76.9384532,76.4015455 C73.7557433,79.5842788 70.9140618,83.0468976 68.4134322,86.7893845 C65.9127968,90.5318831 63.8012407,94.482348 62.0787699,98.6407794 C60.3563108,102.799211 59.0560162,107.085712 58.1779036,111.500294 C57.2998202,115.914842 56.8607755,120.372669 56.8607581,124.873729 L0.773750896,124.873729 Z" id="Fill-8" fill="url(#radialGradient-1)"></path>
                    <path d="M125.475948,0.237031125 C133.652855,0.23706659 141.751206,1.03472162 149.770988,2.62999272 C157.790771,4.22526731 165.577876,6.58750783 173.132322,9.71671311 C180.68679,12.8459137 187.863445,16.6819591 194.662297,21.2248403 C201.461125,25.7677257 207.75149,30.9301581 213.533426,36.7121376 C219.315362,42.4941165 224.477725,48.7845522 229.020556,55.5834348 C233.563387,62.3823272 237.399362,69.5590225 240.528504,77.1135206 C243.657681,84.6680362 246.019921,92.4552054 247.615154,100.475028 C249.210382,108.494845 250.007981,116.593231 250.007981,124.770157 C250.007946,132.94714 249.210312,141.045555 247.615009,149.065407 C246.019781,157.085259 243.657541,164.87244 240.528289,172.426979 C237.399112,179.981512 233.563073,187.158224 229.020201,193.957105 C224.477335,200.755992 219.314897,207.046426 213.532891,212.828415 C207.75092,218.610403 201.460521,223.772824 194.661605,228.315708 C187.862718,232.858574 180.686029,236.694601 173.131525,239.823761 C165.577021,242.952955 157.789846,245.31516 149.770029,246.910411 C141.750195,248.505655 133.651809,249.303272 125.474866,249.303272 C117.297883,249.303237 109.199485,248.505586 101.179651,246.9103 C93.1597989,245.315038 85.3726007,242.952798 77.8180619,239.82358 C70.2635232,236.694386 63.0868163,232.858347 56.2879297,228.315475 C49.4890373,223.772592 43.1986028,218.61017 37.4166263,212.828182 C31.6346439,207.046217 26.4722168,200.755777 21.9293506,193.956896 C17.3864729,187.158009 13.5504514,179.98132 10.421263,172.426798 C7.29207463,164.872294 4.92986378,157.085137 3.33462466,149.06532 C1.73936229,141.045485 0.941739824,132.947099 0.941739824,124.770157 C0.941739824,124.770153 19.6218754,124.770159 56.9821467,124.770174 C56.9821641,129.267494 57.4208788,133.721635 58.2982851,138.132549 C59.175668,142.54347 60.4748997,146.826409 62.1959626,150.981403 C63.917043,155.136403 66.0268562,159.083585 68.5254489,162.82298 C71.0240415,166.562381 73.8633794,170.022135 77.0434624,173.202218 C80.2235571,176.382301 83.6832989,179.221639 87.4226764,181.720231 C91.1620597,184.218783 95.1092365,186.328602 99.2642186,188.049665 C103.419201,189.770722 107.70214,191.069954 112.113037,191.947343 C116.52394,192.824708 120.97804,193.263394 125.47536,193.263394 C129.972686,193.263377 134.426821,192.824673 138.837759,191.94729 C143.248656,191.069884 147.531613,189.770653 151.686613,188.049572 C155.841612,186.328515 159.788789,184.218696 163.52819,181.720103 C167.267567,179.221511 170.727309,176.382179 173.907404,173.202096 C177.087504,170.022012 179.926842,166.562271 182.425435,162.822876 C184.92401,159.083475 187.033823,155.136298 188.754868,150.981316 C190.475908,146.826334 191.77514,142.543394 192.652529,138.132497 C193.529912,133.721583 193.968597,129.267477 193.96858,124.770174 C193.968562,120.272854 193.529859,115.818713 192.652476,111.407799 C191.77507,106.996878 190.475838,102.713921 188.754758,98.5589274 C187.033718,94.4039337 184.923899,90.4567452 182.425307,86.7173561 C179.92672,82.977967 177.087365,79.5182309 173.907282,76.338142 C170.727198,73.1580474 167.267462,70.3187211 163.528062,67.8201401 C159.788667,65.3215532 155.841484,63.21174 151.686502,61.4906887 C147.531526,59.7696374 143.248586,58.4704115 138.837701,57.5930227 C134.426786,56.7156397 129.972686,56.2769482 125.47536,56.2769482 L125.475948,0.237031125 Z" id="Fill-8" fill="url(#radialGradient-2)"></path>
                </g>
                <circle id="Oval" fill="#FFFFFF" cx="124.90822" cy="125.671189" r="87.3982442"></circle>
                <path d="M80.1879256,152.352202 L77.8641075,152.352202 L77.8641075,149.209766 C75.9099878,148.99851 74.0614961,148.47037 72.5827028,147.651752 L72.5827028,144.694165 C74.6160436,145.988109 76.9926757,146.51625 79.1052376,146.51625 C81.4818698,146.51625 83.0926982,145.961702 83.0926982,144.218839 C83.0926982,139.940901 72.6619238,142.211905 72.6619238,135.662963 C72.6619238,132.652562 74.9593349,131.041734 77.8641075,130.698443 L77.8641075,127.5296 L80.1879256,127.5296 L80.1879256,130.672036 C81.9571962,130.804071 83.7264668,131.279397 84.9675969,132.018794 L84.9675969,134.897159 C83.4623965,133.893693 81.4026487,133.339145 79.4221219,133.365552 C77.1775249,133.365552 75.7251386,134.025728 75.7251386,135.610149 C75.7251386,139.59761 86.155913,137.458641 86.155913,144.060397 C86.155913,147.625345 83.4888036,149.051324 80.1879256,149.236173 L80.1879256,152.352202 Z M88.3212889,139.940901 C88.3212889,134.685903 90.8035491,130.619222 96.3754311,130.619222 C101.947313,130.619222 104.429573,134.685903 104.429573,139.940901 C104.429573,145.195899 101.947313,149.26258 96.3754311,149.26258 C90.8035491,149.26258 88.3212889,145.195899 88.3212889,139.940901 Z M101.392766,139.940901 C101.392766,135.768591 99.8083442,133.365552 96.3754311,133.365552 C92.916111,133.365552 91.3580966,135.768591 91.3580966,139.940901 C91.3580966,144.113211 92.916111,146.51625 96.3754311,146.51625 C99.8083442,146.51625 101.392766,144.113211 101.392766,139.940901 Z M110.529596,147.466903 C110.529596,148.655219 109.710978,149.209766 108.760325,149.209766 C107.809672,149.209766 106.964648,148.655219 106.964648,147.466903 C106.964648,146.331401 107.809672,145.776853 108.760325,145.776853 C109.710978,145.776853 110.529596,146.331401 110.529596,147.466903 Z M113.06467,139.940901 C113.06467,134.685903 115.54693,130.619222 121.118812,130.619222 C126.690694,130.619222 129.172955,134.685903 129.172955,139.940901 C129.172955,145.195899 126.690694,149.26258 121.118812,149.26258 C115.54693,149.26258 113.06467,145.195899 113.06467,139.940901 Z M126.136147,139.940901 C126.136147,135.768591 124.551725,133.365552 121.118812,133.365552 C117.659492,133.365552 116.101478,135.768591 116.101478,139.940901 C116.101478,144.113211 117.659492,146.51625 121.118812,146.51625 C124.551725,146.51625 126.136147,144.113211 126.136147,139.940901 Z M140.633603,130.962513 L143.723225,130.962513 L143.723225,142.634417 L146.812846,142.634417 L146.812846,145.248713 L143.723225,145.248713 L143.723225,148.919289 L140.818452,148.919289 L140.818452,145.248713 L131.07426,145.248713 L131.07426,142.687231 L140.633603,130.962513 Z M140.818452,142.634417 L140.818452,134.791531 L134.427952,142.634417 L140.818452,142.634417 Z M149.321514,132.441306 C151.170005,131.173769 153.203346,130.619222 155.289501,130.619222 C158.93367,130.619222 161.60078,132.309271 161.60078,135.662963 C161.60078,138.699771 159.065705,140.495448 156.636259,141.947835 C154.312441,143.321 152.120658,144.430095 152.094251,146.225773 L161.732815,146.199366 L161.732815,148.919289 L148.714152,148.919289 L148.714152,147.546124 C148.714152,143.162558 151.962216,141.498915 154.68214,139.888087 C156.768294,138.673364 158.590379,137.749118 158.590379,135.715777 C158.590379,134.157763 157.243621,133.339145 155.025431,133.339145 C153.203346,133.339145 151.222819,133.972914 149.321514,135.346079 L149.321514,132.441306 Z M165.456205,130.962513 L176.520748,130.962513 L176.520748,133.656029 L168.228943,133.656029 L167.964872,137.986781 C168.836304,137.775525 169.76055,137.669897 170.684796,137.669897 C174.144116,137.669897 177.365773,139.175097 177.365773,143.400221 C177.365773,147.282054 174.064895,149.26258 170.103841,149.26258 C168.017686,149.26258 165.931532,148.813661 164.34711,148.047857 L164.34711,145.222306 C165.852311,146.093737 167.885651,146.542657 169.76055,146.542657 C172.427659,146.542657 174.328965,145.486376 174.328965,143.373814 C174.328965,140.997182 172.295624,140.152157 169.443666,140.152157 C167.991279,140.152157 166.327637,140.442634 164.875251,140.944368 L165.456205,130.962513 Z M90.2886122,162.962513 L92.5068022,162.962513 L92.5068022,178.199366 L95.702052,178.199366 L95.702052,180.919289 L85.9314533,180.919289 L85.9314533,178.199366 L89.5228085,178.199366 L89.5228085,166.052135 L85.9314533,167.398893 L85.9314533,164.626155 L90.2886122,162.962513 Z M121.528121,162.434372 L124.248045,162.434372 L124.248045,180.919289 L121.237644,180.919289 L121.237644,167.979847 L115.401692,176.746979 L113.606014,176.746979 L107.770062,167.95344 L107.770062,180.919289 L104.759661,180.919289 L104.759661,162.434372 L107.479585,162.434372 L114.503853,173.023589 L121.528121,162.434372 Z M131.747639,180.919289 L128.737239,180.919289 L128.737239,162.434372 L131.56279,162.434372 L141.518238,175.954769 C141.491831,175.321 141.491831,174.60801 141.491831,173.921428 L141.491831,162.434372 L144.502232,162.434372 L144.502232,180.919289 L141.67668,180.919289 L131.721232,167.398893 C131.747639,168.032661 131.747639,168.745651 131.747639,169.405827 L131.747639,180.919289 Z M152.001827,180.919289 L148.991426,180.919289 L148.991426,162.434372 L156.385393,162.434372 C159.844713,162.434372 163.488882,163.807538 163.488882,168.217511 C163.488882,171.518389 161.429134,173.10281 158.999688,173.683765 L164.914861,180.919289 L161.297099,180.919289 L155.751624,174.000649 L152.001827,174.000649 L152.001827,180.919289 Z M152.001827,165.180703 L152.001827,171.333539 L156.517428,171.333539 C158.497954,171.333539 160.425667,170.62055 160.425667,168.270325 C160.425667,165.893693 158.497954,165.180703 156.517428,165.180703 L152.001827,165.180703 Z" id="$0.0425-1-MNR" fill="#131F3C"></path>
            </g>
            <path d="M103.745567,113.956634 L107.526235,113.956634 L107.526235,128.659233 L110.49476,128.659233 L110.49476,133 L99.1247504,133 L99.1247504,128.659233 L102.485344,128.659233 L102.485344,119.08154 L99.1247504,120.341763 L99.1247504,115.720946 L103.745567,113.956634 Z M113.575304,113.928629 L126.037507,113.928629 L126.037507,118.269397 L118.224126,118.241392 L118.028091,121.041887 C118.728215,120.929867 119.428339,120.873857 120.072453,120.873857 C123.965141,120.873857 126.877655,122.638169 126.877655,126.922926 C126.877655,131.627757 122.704918,133.420074 118.448166,133.420074 C116.235775,133.420074 114.023384,132.94399 112.315082,132.131847 L112.315082,127.371005 C113.799344,128.407188 116.03974,128.939282 117.888067,128.939282 C120.044448,128.939282 121.69674,128.295168 121.69674,126.810906 C121.69674,125.606693 120.716566,124.68253 117.608017,124.654525 C116.403804,124.654525 114.667497,124.822555 112.903186,125.438664 L113.575304,113.928629 Z M136.819412,134.680297 L133.738868,134.680297 L145.192892,111.716238 L148.273437,111.716238 L136.819412,134.680297 Z M139.283848,118.017352 C139.283848,121.377946 136.819412,123.058243 133.962908,123.058243 C131.078398,123.058243 128.613962,121.377946 128.613962,118.017352 C128.613962,114.656758 131.078398,112.976461 133.962908,112.976461 C136.819412,112.976461 139.283848,114.656758 139.283848,118.017352 Z M132.310616,118.017352 C132.310616,118.857501 132.758695,119.697649 133.962908,119.697649 C135.139115,119.697649 135.587195,118.857501 135.587195,118.017352 C135.587195,117.177204 135.139115,116.337055 133.962908,116.337055 C132.758695,116.337055 132.310616,117.177204 132.310616,118.017352 Z M153.286323,128.379183 C153.286323,131.739777 150.821887,133.420074 147.965382,133.420074 C145.080873,133.420074 142.616437,131.739777 142.616437,128.379183 C142.616437,125.018589 145.080873,123.338292 147.965382,123.338292 C150.821887,123.338292 153.286323,125.018589 153.286323,128.379183 Z M146.31309,128.379183 C146.31309,129.219332 146.761169,130.05948 147.965382,130.05948 C149.14159,130.05948 149.589669,129.219332 149.589669,128.379183 C149.589669,127.539035 149.14159,126.698886 147.965382,126.698886 C146.761169,126.698886 146.31309,127.539035 146.31309,128.379183 Z" id="15%" fill="#131F3C" fill-rule="nonzero"></path>
            <g id="diskon" transform="translate(90.000000, 139.000000)" fill="#000000">
                <path d="M5.4065,23 L2.2095,23 L2.2095,11.96 L5.4065,11.96 L5.4065,23 Z M5.6825,8.303 C5.6825,9.568 4.8085,10.12 3.7965,10.12 C2.8075,10.12 1.9335,9.568 1.9335,8.303 C1.9335,7.061 2.8075,6.509 3.7965,6.509 C4.8085,6.509 5.6825,7.061 5.6825,8.303 Z M10.9955,13.363 C11.8465,12.374 13.0885,11.638 14.6755,11.638 C17.5735,11.638 19.1605,13.616 19.1605,16.169 L19.1605,23 L15.9635,23 L15.9635,16.583 C15.9635,15.088 15.0665,14.398 13.8245,14.398 C12.6975,14.398 11.8235,15.134 11.3635,15.801 L11.3635,23 L8.1665,23 L8.1665,11.96 L10.9955,11.96 L10.9955,13.363 Z M30.1545,6.9 L33.3285,6.9 L33.3285,23 L30.5225,23 L30.5225,21.39 C29.8095,22.379 28.5445,23.322 26.5205,23.322 C23.0015,23.322 21.1155,20.493 21.1155,17.48 C21.1155,14.467 23.0015,11.638 26.5205,11.638 C28.2685,11.638 29.4415,12.351 30.1545,13.133 L30.1545,6.9 Z M30.1545,16.169 C29.7175,15.203 28.6825,14.329 27.2795,14.329 C25.4625,14.329 24.3815,15.755 24.3815,17.48 C24.3815,19.205 25.4625,20.631 27.2795,20.631 C28.6825,20.631 29.7175,19.757 30.1545,18.791 L30.1545,16.169 Z M39.2625,23 L36.0655,23 L36.0655,11.96 L39.2625,11.96 L39.2625,23 Z M39.5385,8.303 C39.5385,9.568 38.6645,10.12 37.6525,10.12 C36.6635,10.12 35.7895,9.568 35.7895,8.303 C35.7895,7.061 36.6635,6.509 37.6525,6.509 C38.6645,6.509 39.5385,7.061 39.5385,8.303 Z M44.8515,13.616 C45.6335,12.397 47.2435,11.523 49.3135,11.73 L49.3135,14.835 C47.5655,14.536 45.8865,15.203 45.2195,16.514 L45.2195,23 L42.0225,23 L42.0225,11.96 L44.8515,11.96 L44.8515,13.616 Z M54.2355,23 L51.0385,23 L51.0385,11.96 L54.2355,11.96 L54.2355,23 Z M54.5115,8.303 C54.5115,9.568 53.6375,10.12 52.6255,10.12 C51.6365,10.12 50.7625,9.568 50.7625,8.303 C50.7625,7.061 51.6365,6.509 52.6255,6.509 C53.6375,6.509 54.5115,7.061 54.5115,8.303 Z M60.1925,23 L56.9955,23 L56.9955,11.96 L59.8245,11.96 L59.8245,13.248 C60.3995,12.558 61.6645,11.638 63.3435,11.638 C64.9995,11.638 66.0805,12.328 66.7245,13.271 C67.6445,12.374 68.8865,11.638 70.4045,11.638 C73.5095,11.638 74.5215,14.053 74.5215,16.008 L74.5215,23 L71.3475,23 L71.3475,16.215 C71.3475,15.065 70.6345,14.398 69.6225,14.398 C68.7485,14.398 67.9665,14.904 67.4375,15.502 C67.4605,15.663 67.4605,15.824 67.4605,16.008 L67.4605,23 L64.2865,23 L64.2865,16.215 C64.2865,15.065 63.5735,14.398 62.5615,14.398 C61.5955,14.398 60.7215,15.042 60.1925,15.732 L60.1925,23 Z" id="indirim"></path>
            </g>
            <g id="16-17-Agustus" transform="translate(38.000000, 0.000000)" fill="#000000">
                <path d="M5.9875,8 L8.7125,8 L8.7125,21.775 L11.5625,21.775 L11.5625,25 L1.8625,25 L1.8625,21.775 L5.0625,21.775 L5.0625,11.75 L1.8625,12.95 L1.8625,9.575 L5.9875,8 Z M16.9125,15.15 C18.4125,14.35 19.7875,14 21.4625,14 C24.5125,14 27.3875,15.85 27.3875,19.5 C27.3875,23.375 24.3625,25.35 20.8875,25.35 C15.4125,25.35 13.1875,22 13.1875,16.5 C13.1875,10.275 16.9375,7.65 21.2625,7.65 C22.8625,7.65 24.4875,8.025 25.9375,8.7 L25.9375,12 C24.7625,11.225 23.2125,10.8 21.7625,10.8 C19.4625,10.8 17.3625,11.775 16.9125,15.15 Z M16.9125,18.175 C17.2625,21.35 18.6375,22.3 20.5875,22.3 C22.2375,22.3 23.6375,21.55 23.6375,19.675 C23.6375,17.725 22.0625,17.125 20.3125,17.125 C19.1875,17.125 17.9875,17.475 16.9125,18.175 Z M29.5375,17.45 L38.8375,17.45 L38.8375,20.375 L29.5375,20.375 L29.5375,17.45 Z M45.0625,8 L47.7875,8 L47.7875,21.775 L50.6375,21.775 L50.6375,25 L40.9375,25 L40.9375,21.775 L44.1375,21.775 L44.1375,11.75 L40.9375,12.95 L40.9375,9.575 L45.0625,8 Z M51.8125,7.975 L64.8875,7.975 L64.8875,10.675 L57.9125,25 L53.8625,25 L60.5875,11.2 L51.8125,11.2 L51.8125,7.975 Z M74.1125,25 L70.2375,25 L77.3875,7.5 L81.4375,7.5 L88.5625,25 L84.6875,25 L83.4125,21.725 L75.4125,21.725 L74.1125,25 Z M79.0125,12.35 L76.5875,18.625 L82.2375,18.625 L79.7875,12.35 C79.6625,12 79.5375,11.65 79.4125,10.975 C79.2875,11.65 79.1625,12 79.0125,12.35 Z M89.1125,19 C89.1125,15.725 91.1625,12.65 94.9875,12.65 C97.1875,12.65 98.5625,13.675 99.3375,14.75 L99.3375,13 L102.3875,13 L102.3875,24.675 C102.3875,29.25 99.0125,30.85 95.4875,30.85 C93.6125,30.85 91.8625,30.425 90.4125,29.725 L90.4125,26.675 C91.7625,27.475 93.3875,27.925 95.0375,27.925 C97.1625,27.925 98.9375,27.2 98.9375,24.825 L98.9375,23.725 C98.1625,24.575 96.8875,25.35 94.9875,25.35 C91.1625,25.35 89.1125,22.275 89.1125,19 Z M98.9375,17.575 C98.4625,16.525 97.3375,15.575 95.8125,15.575 C93.8375,15.575 92.6625,17.125 92.6625,19 C92.6625,20.875 93.8375,22.425 95.8125,22.425 C97.3375,22.425 98.4625,21.5 98.9375,20.5 L98.9375,17.575 Z M99.2875,10.65 C98.1875,11.425 96.9875,11.775 95.3625,11.775 C93.7375,11.775 92.5625,11.425 91.4625,10.65 L91.4625,7.925 C92.7875,8.75 94.0125,9 95.3625,9 C96.7125,9 97.9625,8.75 99.2875,7.925 L99.2875,10.65 Z M113.6625,13 L117.1375,13 L117.1375,25 L114.0625,25 L114.0625,23.475 C113.1375,24.55 111.7625,25.35 110.0625,25.35 C106.8125,25.35 105.1875,23.2 105.1875,20.425 L105.1875,13 L108.6625,13 L108.6625,19.975 C108.6625,21.575 109.5375,22.35 110.9625,22.35 C112.2125,22.35 113.1375,21.55 113.6625,20.825 L113.6625,13 Z M119.5625,16.35 C119.5625,13.575 122.0375,12.65 124.5625,12.65 C126.2625,12.65 127.7625,13.075 128.9875,13.675 L128.9875,16.525 C127.9625,15.825 126.2125,15.3 124.7875,15.3 C124.0125,15.3 123.1125,15.525 123.1125,16.25 C123.1125,18.25 129.8875,17.25 129.8875,21.65 C129.8875,24.475 127.3125,25.35 124.4375,25.35 C122.6125,25.35 120.8875,24.95 119.6625,24.225 L119.6625,21.35 C120.9625,22.2 122.7875,22.625 124.2375,22.625 C125.5125,22.625 126.3375,22.4 126.3375,21.725 C126.3375,19.8 119.5625,20.65 119.5625,16.35 Z M132.9125,9.5 L136.3625,8.675 L136.3625,13 L140.1625,13 L140.1625,15.925 L136.3625,15.925 L136.3625,20.625 C136.3625,21.875 136.9875,22.425 138.2875,22.425 C139.0875,22.425 139.7625,22.3 140.4625,22.025 L140.4625,24.825 C139.5375,25.15 138.4375,25.35 137.2375,25.35 C134.9125,25.35 132.9125,24.275 132.9125,21.3 L132.9125,15.925 L130.8875,15.925 L130.8875,13 L132.9125,13 L132.9125,9.5 Z M141.7875,19 C141.7875,14.8 144.9375,12.65 148.4125,12.65 C151.9125,12.65 155.0375,14.8 155.0375,19 C155.0375,23.2 151.9125,25.35 148.4125,25.35 C144.9375,25.35 141.7875,23.2 141.7875,19 Z M151.5125,19 C151.5125,17.15 150.4125,15.75 148.4125,15.75 C146.4375,15.75 145.3375,17.15 145.3375,19 C145.3375,20.85 146.4375,22.25 148.4125,22.25 C150.4125,22.25 151.5125,20.85 151.5125,19 Z M156.7875,16.35 C156.7875,13.575 159.2625,12.65 161.7875,12.65 C163.4875,12.65 164.9875,13.075 166.2125,13.675 L166.2125,16.525 C165.1875,15.825 163.4375,15.3 162.0125,15.3 C161.2375,15.3 160.3375,15.525 160.3375,16.25 C160.3375,18.25 167.1125,17.25 167.1125,21.65 C167.1125,24.475 164.5375,25.35 161.6625,25.35 C159.8375,25.35 158.1125,24.95 156.8875,24.225 L156.8875,21.35 C158.1875,22.2 160.0125,22.625 161.4625,22.625 C162.7375,22.625 163.5625,22.4 163.5625,21.725 C163.5625,19.8 156.7875,20.65 156.7875,16.35 Z" id="16-17-Ağustos"></path>
            </g>
        </g>
    </g>
</svg>