<?xml version="1.0" encoding="UTF-8"?>
<svg width="250px" height="322px" viewBox="0 0 250 322" version="1.1" xmlns="http://www.w3.org/2000/svg" xmlns:xlink="http://www.w3.org/1999/xlink">
    <!-- Generator: Sketch 48.2 (47327) - http://www.bohemiancoding.com/sketch -->
    <title>text_4</title>
    <desc>Created with Sketch.</desc>
    <defs>
        <radialGradient cx="400%" cy="400%" fx="400%" fy="400%" r="100.47898%" gradientTransform="translate(4.000000,4.000000),scale(1.000000,0.999999),translate(-4.000000,-4.000000)" id="radialGradient-1">
            <stop stop-color="#8D00FF" offset="0%"></stop>
            <stop stop-color="#5C00FE" offset="69.8959662%"></stop>
            <stop stop-color="#8900FF" offset="100%"></stop>
        </radialGradient>
        <radialGradient cx="50%" cy="50%" fx="50%" fy="50%" r="50.0253367%" id="radialGradient-2">
            <stop stop-color="#FF9495" offset="0%"></stop>
            <stop stop-color="#FE5F60" offset="70.3742825%"></stop>
            <stop stop-color="#FF9091" offset="100%"></stop>
        </radialGradient>
    </defs>
    <g id="Page-1" stroke="none" stroke-width="1" fill="none" fill-rule="evenodd">
        <g id="text_4" transform="translate(-1.000000, -7.000000)">
            <g id="4-copy" transform="translate(1.000000, 78.000000)" fill-rule="nonzero">
                <g id="Group-Copy-3" transform="translate(0.545890, 0.588188)">
                    <g id="Group-3" transform="translate(0.000000, 0.762969)">
                        <g id="Group-8">
                            <path d="M0,125.013369 C2.91814549e-05,116.804853 0.800756631,108.675226 2.40218235,100.624437 C4.00360807,92.5736583 6.37495729,84.7564426 9.51623002,77.1727836 C12.6575028,69.5891246 16.5083459,62.384737 21.0687478,55.5596266 C25.6291439,48.7345168 30.8114843,42.4198151 36.6157632,36.6155391 C42.420048,30.811259 48.7347397,25.6289238 55.5598326,21.068533 C62.3849314,16.5081428 69.589319,12.6573224 77.1729546,9.51607244 C84.7565844,6.37482306 92.5737943,4.0035001 100.624537,2.40210473 C108.675281,0.800704688 116.804785,0 125.013248,0 L125.013248,56.256007 C120.498614,56.2560362 116.027356,56.6964369 111.599467,57.5772266 C107.171572,58.4580046 102.872157,59.7622464 98.7011703,61.4899402 C94.5301832,63.2176458 90.5678202,65.3356124 86.8140346,67.8438344 C83.0602548,70.3520563 79.5872123,73.2023432 76.3948837,76.3946952 C73.2025551,79.5870471 70.3522856,83.0601305 67.8440987,86.8139278 C65.335906,90.5677368 63.2179685,94.5301406 61.4902922,98.7011394 C59.7626275,102.872138 58.4584032,107.171594 57.5776369,111.599518 C56.6968997,116.027406 56.2565282,120.498706 56.2565107,125.013369 L0,125.013369 Z" id="Fill-8" fill="url(#radialGradient-1)"></path>
                            <path d="M124.740231,0 C132.917139,3.54646161e-05 140.809466,0.797690493 148.829249,2.3929616 C156.849031,3.98823619 164.636136,6.35047671 172.190582,9.47968199 C179.745051,12.6088826 186.921705,16.4449279 193.720557,20.9878092 C200.519385,25.5306945 206.80975,30.693127 212.591686,36.4751065 C218.373622,42.2570854 223.535985,48.5475211 228.078816,55.3464036 C232.621648,62.1452961 236.457622,69.3219914 239.586764,76.8764895 C242.715941,84.431005 245.078181,92.2181743 246.673414,100.237997 C248.268642,108.257814 249.066241,116.3562 249.066241,124.533125 C249.066206,132.710109 248.268572,140.808524 246.673269,148.828376 C245.078041,156.848228 242.715802,164.635409 239.586549,172.189947 C236.457372,179.74448 232.621334,186.921193 228.078462,193.720074 C223.535595,200.518961 218.373157,206.809395 212.591151,212.591383 C206.80918,218.373372 200.518781,223.535793 193.719865,228.078677 C186.920978,232.621543 179.744289,236.45757 172.189785,239.586729 C164.635281,242.715924 156.848106,245.078129 148.828289,246.673379 C140.808455,248.268624 132.710069,249.066241 124.533126,249.066241 C116.356143,249.066206 108.257746,248.268555 100.237911,246.673269 C92.2180591,245.078007 84.4308608,242.715767 76.8763221,239.586549 C69.3217834,236.457355 62.1450765,232.621316 55.3461899,228.078444 C48.5472975,223.53556 42.256863,218.373139 36.4748864,212.591151 C30.6929041,206.809186 25.5304769,200.518746 20.9876108,193.719865 C16.4447331,186.920978 12.6087116,179.744289 9.4795232,172.189767 C6.3503348,164.635263 3.98812395,156.848106 2.39288484,148.828289 C0.797622465,140.808454 5.00693342e-16,132.710068 0,124.533125 C0,124.533122 18.6801356,124.533128 56.0404068,124.533143 C56.0404243,129.030463 56.479139,133.484604 57.3565452,137.895518 C58.2339282,142.306439 59.5331599,146.589378 61.2542228,150.744372 C62.9753032,154.899372 65.0851164,158.846554 67.5837091,162.585949 C70.0823017,166.32535 72.9216395,169.785103 76.1017226,172.965187 C79.2818172,176.14527 82.7415591,178.984607 86.4809366,181.4832 C90.2203198,183.981752 94.1674967,186.091571 98.3224788,187.812634 C102.477461,189.533691 106.7604,190.832923 111.171297,191.710312 C115.5822,192.587677 120.0363,193.026363 124.533621,193.026363 C129.030947,193.026345 133.485081,192.587642 137.896019,191.710259 C142.306916,190.832853 146.589873,189.533621 150.744873,187.812541 C154.899872,186.091484 158.847049,183.981665 162.58645,181.483072 C166.325827,178.98448 169.785569,176.145147 172.965664,172.965064 C176.145764,169.784981 178.985102,166.325239 181.483695,162.585845 C183.98227,158.846444 186.092083,154.899267 187.813129,150.744285 C189.534168,146.589303 190.8334,142.306363 191.710789,137.895466 C192.588172,133.484552 193.026857,129.030446 193.02684,124.533143 C193.026823,120.035823 192.588119,115.581682 191.710736,111.170767 C190.83333,106.759847 189.534099,102.47689 187.813018,98.3218963 C186.091979,94.1669026 183.982159,90.2197141 181.483567,86.480325 C178.98498,82.7409359 176.145625,79.2811998 172.965542,76.1011109 C169.785459,72.9210162 166.325723,70.08169 162.586322,67.583109 C158.846927,65.0845221 154.899744,62.9747088 150.744762,61.2536575 C146.589786,59.5326062 142.306846,58.2333804 137.895961,57.3559916 C133.485047,56.4786086 129.030947,56.0399171 124.533621,56.0399171 L124.740231,0 Z" id="Fill-8" fill="url(#radialGradient-2)"></path>
                        </g>
                    </g>
                    <circle id="Oval" fill="#FFFFFF" cx="124.90822" cy="125.671189" r="87.3982442"></circle>
                    <path d="M80.636845,151.728204 L78.3130269,151.728204 L78.3130269,148.585769 C76.3589072,148.374512 74.5104155,147.846372 73.0316222,147.027754 L73.0316222,144.070168 C75.064963,145.364112 77.4415951,145.892252 79.554157,145.892252 C81.9307892,145.892252 83.5416176,145.337705 83.5416176,143.594841 C83.5416176,139.316903 73.1108433,141.587907 73.1108433,135.038965 C73.1108433,132.028565 75.4082543,130.417736 78.3130269,130.074445 L78.3130269,126.905602 L80.636845,126.905602 L80.636845,130.048038 C82.4061156,130.180073 84.1753862,130.655399 85.4165163,131.394796 L85.4165163,134.273162 C83.911316,133.269695 81.8515681,132.715147 79.8710413,132.741554 C77.6264443,132.741554 76.174058,133.40173 76.174058,134.986151 C76.174058,138.973612 86.6048324,136.834643 86.6048324,143.436399 C86.6048324,147.001347 83.937723,148.427326 80.636845,148.612176 L80.636845,151.728204 Z M88.7702083,139.316903 C88.7702083,134.061906 91.2524685,129.995224 96.8243505,129.995224 C102.396233,129.995224 104.878493,134.061906 104.878493,139.316903 C104.878493,144.571901 102.396233,148.638583 96.8243505,148.638583 C91.2524685,148.638583 88.7702083,144.571901 88.7702083,139.316903 Z M101.841685,139.316903 C101.841685,135.144593 100.257264,132.741554 96.8243505,132.741554 C93.3650304,132.741554 91.807016,135.144593 91.807016,139.316903 C91.807016,143.489213 93.3650304,145.892252 96.8243505,145.892252 C100.257264,145.892252 101.841685,143.489213 101.841685,139.316903 Z M110.978515,146.842905 C110.978515,148.031221 110.159898,148.585769 109.209245,148.585769 C108.258592,148.585769 107.413567,148.031221 107.413567,146.842905 C107.413567,145.707403 108.258592,145.152855 109.209245,145.152855 C110.159898,145.152855 110.978515,145.707403 110.978515,146.842905 Z M113.51359,139.316903 C113.51359,134.061906 115.99585,129.995224 121.567732,129.995224 C127.139614,129.995224 129.621874,134.061906 129.621874,139.316903 C129.621874,144.571901 127.139614,148.638583 121.567732,148.638583 C115.99585,148.638583 113.51359,144.571901 113.51359,139.316903 Z M126.585066,139.316903 C126.585066,135.144593 125.000645,132.741554 121.567732,132.741554 C118.108412,132.741554 116.550397,135.144593 116.550397,139.316903 C116.550397,143.489213 118.108412,145.892252 121.567732,145.892252 C125.000645,145.892252 126.585066,143.489213 126.585066,139.316903 Z M141.082522,130.338515 L144.172144,130.338515 L144.172144,142.01042 L147.261766,142.01042 L147.261766,144.624715 L144.172144,144.624715 L144.172144,148.295291 L141.267371,148.295291 L141.267371,144.624715 L131.52318,144.624715 L131.52318,142.063234 L141.082522,130.338515 Z M141.267371,142.01042 L141.267371,134.167534 L134.876872,142.01042 L141.267371,142.01042 Z M148.714152,130.338515 L162.049699,130.338515 L162.049699,132.715147 L154.602918,148.295291 L151.354855,148.295291 L158.643193,133.032032 L148.714152,133.032032 L148.714152,130.338515 Z M165.007286,130.338515 L176.071829,130.338515 L176.071829,133.032032 L167.780023,133.032032 L167.515953,137.362783 C168.387385,137.151527 169.311631,137.045899 170.235876,137.045899 C173.695197,137.045899 176.916853,138.5511 176.916853,142.776223 C176.916853,146.658056 173.615976,148.638583 169.654922,148.638583 C167.568767,148.638583 165.482612,148.189663 163.898191,147.42386 L163.898191,144.598308 C165.403391,145.46974 167.436732,145.918659 169.311631,145.918659 C171.97874,145.918659 173.880046,144.862378 173.880046,142.749816 C173.880046,140.373184 171.846705,139.528159 168.994746,139.528159 C167.54236,139.528159 165.878718,139.818637 164.426331,140.32037 L165.007286,130.338515 Z M90.2886122,162.338515 L92.5068022,162.338515 L92.5068022,177.575368 L95.702052,177.575368 L95.702052,180.295291 L85.9314533,180.295291 L85.9314533,177.575368 L89.5228085,177.575368 L89.5228085,165.428137 L85.9314533,166.774895 L85.9314533,164.002158 L90.2886122,162.338515 Z M121.528121,161.810375 L124.248045,161.810375 L124.248045,180.295291 L121.237644,180.295291 L121.237644,167.35585 L115.401692,176.122982 L113.606014,176.122982 L107.770062,167.329443 L107.770062,180.295291 L104.759661,180.295291 L104.759661,161.810375 L107.479585,161.810375 L114.503853,172.399591 L121.528121,161.810375 Z M131.747639,180.295291 L128.737239,180.295291 L128.737239,161.810375 L131.56279,161.810375 L141.518238,175.330771 C141.491831,174.697002 141.491831,173.984013 141.491831,173.29743 L141.491831,161.810375 L144.502232,161.810375 L144.502232,180.295291 L141.67668,180.295291 L131.721232,166.774895 C131.747639,167.408664 131.747639,168.121653 131.747639,168.781829 L131.747639,180.295291 Z M152.001827,180.295291 L148.991426,180.295291 L148.991426,161.810375 L156.385393,161.810375 C159.844713,161.810375 163.488882,163.18354 163.488882,167.593513 C163.488882,170.894391 161.429134,172.478812 158.999688,173.059767 L164.914861,180.295291 L161.297099,180.295291 L155.751624,173.376651 L152.001827,173.376651 L152.001827,180.295291 Z M152.001827,164.556705 L152.001827,170.709542 L156.517428,170.709542 C158.497954,170.709542 160.425667,169.996552 160.425667,167.646327 C160.425667,165.269695 158.497954,164.556705 156.517428,164.556705 L152.001827,164.556705 Z" id="$0.0475-1-MNR" fill="#131F3C"></path>
                </g>
            </g>
            <path d="M108.261107,146.215854 L120.732057,146.215854 L120.732057,150.563415 L112.913192,150.535367 L112.717019,153.340245 C113.417635,153.228049 114.11825,153.171952 114.762816,153.171952 C118.658237,153.171952 121.572795,154.939025 121.572795,159.230488 C121.572795,163.942682 117.397129,165.737805 113.137389,165.737805 C110.923445,165.737805 108.709501,165.260976 107,164.447561 L107,159.679268 C108.485304,160.717073 110.727272,161.25 112.576897,161.25 C114.734791,161.25 116.388243,160.604878 116.388243,159.118293 C116.388243,157.912195 115.407382,156.986586 112.29665,156.958537 C111.091592,156.958537 109.354066,157.12683 107.588517,157.743903 L108.261107,146.215854 Z M131.52153,167 L128.438824,167 L139.900888,144 L142.983595,144 L131.52153,167 Z M133.987696,150.310976 C133.987696,153.67683 131.52153,155.359756 128.663021,155.359756 C125.776487,155.359756 123.310321,153.67683 123.310321,150.310976 C123.310321,146.945122 125.776487,145.262195 128.663021,145.262195 C131.52153,145.262195 133.987696,146.945122 133.987696,150.310976 Z M127.009569,150.310976 C127.009569,151.15244 127.457963,151.993903 128.663021,151.993903 C129.840055,151.993903 130.288448,151.15244 130.288448,150.310976 C130.288448,149.469513 129.840055,148.628049 128.663021,148.628049 C127.457963,148.628049 127.009569,149.469513 127.009569,150.310976 Z M148,160.689024 C148,164.054878 145.533834,165.737805 142.675324,165.737805 C139.78879,165.737805 137.322624,164.054878 137.322624,160.689024 C137.322624,157.32317 139.78879,155.640244 142.675324,155.640244 C145.533834,155.640244 148,157.32317 148,160.689024 Z M141.021872,160.689024 C141.021872,161.530488 141.470267,162.371951 142.675324,162.371951 C143.852358,162.371951 144.300751,161.530488 144.300751,160.689024 C144.300751,159.847561 143.852358,159.006097 142.675324,159.006097 C141.470267,159.006097 141.021872,159.847561 141.021872,160.689024 Z" id="5%" fill="#131F3C" fill-rule="nonzero"></path>
            <g id="diskon" transform="translate(87.000000, 171.000000)" fill="#000000">
                <path d="M4.577,23 L1.38,23 L1.38,11.96 L4.577,11.96 L4.577,23 Z M4.853,8.303 C4.853,9.568 3.979,10.12 2.967,10.12 C1.978,10.12 1.104,9.568 1.104,8.303 C1.104,7.061 1.978,6.509 2.967,6.509 C3.979,6.509 4.853,7.061 4.853,8.303 Z M10.166,13.363 C11.017,12.374 12.259,11.638 13.846,11.638 C16.744,11.638 18.331,13.616 18.331,16.169 L18.331,23 L15.134,23 L15.134,16.583 C15.134,15.088 14.237,14.398 12.995,14.398 C11.868,14.398 10.994,15.134 10.534,15.801 L10.534,23 L7.337,23 L7.337,11.96 L10.166,11.96 L10.166,13.363 Z M29.325,6.9 L32.499,6.9 L32.499,23 L29.693,23 L29.693,21.39 C28.98,22.379 27.715,23.322 25.691,23.322 C22.172,23.322 20.286,20.493 20.286,17.48 C20.286,14.467 22.172,11.638 25.691,11.638 C27.439,11.638 28.612,12.351 29.325,13.133 L29.325,6.9 Z M29.325,16.169 C28.888,15.203 27.853,14.329 26.45,14.329 C24.633,14.329 23.552,15.755 23.552,17.48 C23.552,19.205 24.633,20.631 26.45,20.631 C27.853,20.631 28.888,19.757 29.325,18.791 L29.325,16.169 Z M38.433,23 L35.236,23 L35.236,11.96 L38.433,11.96 L38.433,23 Z M38.709,8.303 C38.709,9.568 37.835,10.12 36.823,10.12 C35.834,10.12 34.96,9.568 34.96,8.303 C34.96,7.061 35.834,6.509 36.823,6.509 C37.835,6.509 38.709,7.061 38.709,8.303 Z M44.022,13.616 C44.804,12.397 46.414,11.523 48.484,11.73 L48.484,14.835 C46.736,14.536 45.057,15.203 44.39,16.514 L44.39,23 L41.193,23 L41.193,11.96 L44.022,11.96 L44.022,13.616 Z M53.406,23 L50.209,23 L50.209,11.96 L53.406,11.96 L53.406,23 Z M53.682,8.303 C53.682,9.568 52.808,10.12 51.796,10.12 C50.807,10.12 49.933,9.568 49.933,8.303 C49.933,7.061 50.807,6.509 51.796,6.509 C52.808,6.509 53.682,7.061 53.682,8.303 Z M59.363,23 L56.166,23 L56.166,11.96 L58.995,11.96 L58.995,13.248 C59.57,12.558 60.835,11.638 62.514,11.638 C64.17,11.638 65.251,12.328 65.895,13.271 C66.815,12.374 68.057,11.638 69.575,11.638 C72.68,11.638 73.692,14.053 73.692,16.008 L73.692,23 L70.518,23 L70.518,16.215 C70.518,15.065 69.805,14.398 68.793,14.398 C67.919,14.398 67.137,14.904 66.608,15.502 C66.631,15.663 66.631,15.824 66.631,16.008 L66.631,23 L63.457,23 L63.457,16.215 C63.457,15.065 62.744,14.398 61.732,14.398 C60.766,14.398 59.892,15.042 59.363,15.732 L59.363,23 Z" id="indirim"></path>
            </g>
            <g id="Aug.-29-—-Sept.-10" fill="#000000">
                <path d="M48.9375,9.45 C50.6875,8.2 52.7125,7.65 54.7875,7.65 C58.2125,7.65 60.9875,9.2 60.9875,12.675 C60.9875,15.55 58.6125,17.25 56.3875,18.575 C54.3625,19.775 52.6375,20.7 52.6125,21.8 L61.1125,21.775 L61.1125,25 L48.3625,25 L48.3625,23.325 C48.3625,19.225 51.4625,17.625 53.9625,16.15 C55.7375,15.125 57.2625,14.45 57.2625,12.825 C57.2625,11.575 56.1625,10.925 54.4375,10.925 C52.7375,10.925 50.7375,11.575 48.9375,12.95 L48.9375,9.45 Z M63.0375,13.5 C63.0375,9.625 66.0625,7.65 69.5375,7.65 C75.0125,7.65 77.2375,11 77.2375,16.5 C77.2375,22.725 73.4875,25.35 69.1625,25.35 C67.5875,25.35 65.9375,24.975 64.4875,24.3 L64.4875,21 C65.6625,21.775 67.2125,22.2 68.6625,22.2 C70.9625,22.2 73.0625,21.225 73.5125,17.85 C72.0125,18.65 70.6375,19 68.9875,19 C65.9125,19 63.0375,17.15 63.0375,13.5 Z M69.8375,10.7 C68.1875,10.7 66.7875,11.45 66.7875,13.325 C66.7875,15.275 68.3625,15.875 70.1125,15.875 C71.2375,15.875 72.4125,15.525 73.5125,14.85 C73.1625,11.65 71.7875,10.7 69.8375,10.7 Z M87.0875,25 L83.2125,25 L90.3625,7.5 L94.4125,7.5 L101.5375,25 L97.6625,25 L96.3875,21.725 L88.3875,21.725 L87.0875,25 Z M91.9875,12.35 L89.5625,18.625 L95.2125,18.625 L92.7625,12.35 C92.6375,12 92.5125,11.65 92.3875,10.975 C92.2625,11.65 92.1375,12 91.9875,12.35 Z M102.0875,19 C102.0875,15.725 104.1375,12.65 107.9625,12.65 C110.1625,12.65 111.5375,13.675 112.3125,14.75 L112.3125,13 L115.3625,13 L115.3625,24.675 C115.3625,29.25 111.9875,30.85 108.4625,30.85 C106.5875,30.85 104.8375,30.425 103.3875,29.725 L103.3875,26.675 C104.7375,27.475 106.3625,27.925 108.0125,27.925 C110.1375,27.925 111.9125,27.2 111.9125,24.825 L111.9125,23.725 C111.1375,24.575 109.8625,25.35 107.9625,25.35 C104.1375,25.35 102.0875,22.275 102.0875,19 Z M111.9125,17.575 C111.4375,16.525 110.3125,15.575 108.7875,15.575 C106.8125,15.575 105.6375,17.125 105.6375,19 C105.6375,20.875 106.8125,22.425 108.7875,22.425 C110.3125,22.425 111.4375,21.5 111.9125,20.5 L111.9125,17.575 Z M112.2625,10.65 C111.1625,11.425 109.9625,11.775 108.3375,11.775 C106.7125,11.775 105.5375,11.425 104.4375,10.65 L104.4375,7.925 C105.7625,8.75 106.9875,9 108.3375,9 C109.6875,9 110.9375,8.75 112.2625,7.925 L112.2625,10.65 Z M126.6375,13 L130.1125,13 L130.1125,25 L127.0375,25 L127.0375,23.475 C126.1125,24.55 124.7375,25.35 123.0375,25.35 C119.7875,25.35 118.1625,23.2 118.1625,20.425 L118.1625,13 L121.6375,13 L121.6375,19.975 C121.6375,21.575 122.5125,22.35 123.9375,22.35 C125.1875,22.35 126.1125,21.55 126.6375,20.825 L126.6375,13 Z M132.5375,16.35 C132.5375,13.575 135.0125,12.65 137.5375,12.65 C139.2375,12.65 140.7375,13.075 141.9625,13.675 L141.9625,16.525 C140.9375,15.825 139.1875,15.3 137.7625,15.3 C136.9875,15.3 136.0875,15.525 136.0875,16.25 C136.0875,18.25 142.8625,17.25 142.8625,21.65 C142.8625,24.475 140.2875,25.35 137.4125,25.35 C135.5875,25.35 133.8625,24.95 132.6375,24.225 L132.6375,21.35 C133.9375,22.2 135.7625,22.625 137.2125,22.625 C138.4875,22.625 139.3125,22.4 139.3125,21.725 C139.3125,19.8 132.5375,20.65 132.5375,16.35 Z M145.8875,9.5 L149.3375,8.675 L149.3375,13 L153.1375,13 L153.1375,15.925 L149.3375,15.925 L149.3375,20.625 C149.3375,21.875 149.9625,22.425 151.2625,22.425 C152.0625,22.425 152.7375,22.3 153.4375,22.025 L153.4375,24.825 C152.5125,25.15 151.4125,25.35 150.2125,25.35 C147.8875,25.35 145.8875,24.275 145.8875,21.3 L145.8875,15.925 L143.8625,15.925 L143.8625,13 L145.8875,13 L145.8875,9.5 Z M154.7625,19 C154.7625,14.8 157.9125,12.65 161.3875,12.65 C164.8875,12.65 168.0125,14.8 168.0125,19 C168.0125,23.2 164.8875,25.35 161.3875,25.35 C157.9125,25.35 154.7625,23.2 154.7625,19 Z M164.4875,19 C164.4875,17.15 163.3875,15.75 161.3875,15.75 C159.4125,15.75 158.3125,17.15 158.3125,19 C158.3125,20.85 159.4125,22.25 161.3875,22.25 C163.3875,22.25 164.4875,20.85 164.4875,19 Z M169.7625,16.35 C169.7625,13.575 172.2375,12.65 174.7625,12.65 C176.4625,12.65 177.9625,13.075 179.1875,13.675 L179.1875,16.525 C178.1625,15.825 176.4125,15.3 174.9875,15.3 C174.2125,15.3 173.3125,15.525 173.3125,16.25 C173.3125,18.25 180.0875,17.25 180.0875,21.65 C180.0875,24.475 177.5125,25.35 174.6375,25.35 C172.8125,25.35 171.0875,24.95 169.8625,24.225 L169.8625,21.35 C171.1625,22.2 172.9875,22.625 174.4375,22.625 C175.7125,22.625 176.5375,22.4 176.5375,21.725 C176.5375,19.8 169.7625,20.65 169.7625,16.35 Z M204.2625,20.375 L187.6625,20.375 L187.6625,17.45 L204.2625,17.45 L204.2625,20.375 Z M86.1125,39 L88.8375,39 L88.8375,52.775 L91.6875,52.775 L91.6875,56 L81.9875,56 L81.9875,52.775 L85.1875,52.775 L85.1875,42.75 L81.9875,43.95 L81.9875,40.575 L86.1125,39 Z M93.3125,47.5 C93.3125,42.6 95.6375,38.65 101.0625,38.65 C106.4875,38.65 108.8125,42.6 108.8125,47.5 C108.8125,52.4 106.4875,56.35 101.0625,56.35 C95.6375,56.35 93.3125,52.4 93.3125,47.5 Z M105.0625,47.5 C105.0625,43.875 103.8125,41.95 101.0625,41.95 C98.3125,41.95 97.0625,43.875 97.0625,47.5 C97.0625,51.125 98.3125,53.05 101.0625,53.05 C103.8125,53.05 105.0625,51.125 105.0625,47.5 Z M117.3125,38.5 L129.6375,38.5 L129.6375,41.8 L121.0625,41.8 L121.0625,45.525 L128.8875,45.525 L128.8875,48.8 L121.0625,48.8 L121.0625,52.7 L129.7875,52.7 L129.7875,56 L117.3125,56 L117.3125,38.5 Z M137.6625,52.1 L140.6375,44 L144.2375,44 L138.9125,57.45 C137.5625,60.8 135.6875,61.825 133.7375,61.825 C133.1125,61.825 132.4875,61.7 131.8625,61.55 L131.8625,58.675 C132.3375,58.775 132.8125,58.85 133.2875,58.85 C134.5375,58.85 135.4875,58 136.1375,56.225 L136.1625,56.175 L130.4875,44 L134.1625,44 L137.6625,52.1 Z M146.0125,37.75 L149.4875,37.75 L149.4875,56 L146.0125,56 L146.0125,37.75 Z M160.8125,44 L164.2875,44 L164.2875,56 L161.2125,56 L161.2125,54.475 C160.2875,55.55 158.9125,56.35 157.2125,56.35 C153.9625,56.35 152.3375,54.2 152.3375,51.425 L152.3375,44 L155.8125,44 L155.8125,50.975 C155.8125,52.575 156.6875,53.35 158.1125,53.35 C159.3625,53.35 160.2875,52.55 160.8125,51.825 L160.8125,44 Z M162.8875,40.675 C162.8875,41.7 162.0625,42.525 161.0375,42.525 C159.9875,42.525 159.1625,41.7 159.1625,40.675 C159.1625,39.65 159.9875,38.8 161.0375,38.8 C162.0625,38.8 162.8875,39.65 162.8875,40.675 Z M157.5375,40.675 C157.5375,41.7 156.7125,42.525 155.6875,42.525 C154.6625,42.525 153.8125,41.7 153.8125,40.675 C153.8125,39.65 154.6625,38.8 155.6875,38.8 C156.7125,38.8 157.5375,39.65 157.5375,40.675 Z M167.2875,37.75 L170.7625,37.75 L170.7625,56 L167.2875,56 L167.2875,37.75 Z" id="29-Ağustos-—-10-Eylü"></path>
            </g>
        </g>
    </g>
</svg>