<?xml version="1.0" encoding="UTF-8"?>
<svg width="250px" height="321px" viewBox="0 0 250 321" version="1.1" xmlns="http://www.w3.org/2000/svg" xmlns:xlink="http://www.w3.org/1999/xlink">
    <!-- Generator: Sketch 48.2 (47327) - http://www.bohemiancoding.com/sketch -->
    <title>text_0</title>
    <desc>Created with Sketch.</desc>
    <defs>
        <radialGradient cx="100%" cy="100%" fx="100%" fy="100%" r="50.0301469%" gradientTransform="translate(1.000000,1.000000),translate(-1.000000,-1.000000)" id="radialGradient-1">
            <stop stop-color="#8800FF" offset="0%"></stop>
            <stop stop-color="#8600FB" offset="71.050849%"></stop>
            <stop stop-color="#EB00FE" offset="100%"></stop>
        </radialGradient>
    </defs>
    <g id="Page-1" stroke="none" stroke-width="1" fill="none" fill-rule="evenodd">
        <g id="text_0" transform="translate(-3.000000, -7.000000)">
            <path d="M127.534208,78.7629689 C135.711116,78.7630043 143.809466,79.5606594 151.829249,81.1559305 C159.849031,82.7512051 167.636136,85.1134456 175.190582,88.2426509 C182.745051,91.3718515 189.921705,95.2078968 196.720557,99.7507781 C203.519385,104.293663 209.80975,109.456096 215.591686,115.238075 C221.373622,121.020054 226.535985,127.31049 231.078816,134.109372 C235.621648,140.908265 239.457622,148.08496 242.586764,155.639458 C245.715941,163.193974 248.078181,170.981143 249.673414,179.000966 C251.268642,187.020783 252.066241,195.119169 252.066241,203.296094 C252.066206,211.473078 251.268572,219.571493 249.673269,227.591345 C248.078041,235.611197 245.715802,243.398378 242.586549,250.952916 C239.457372,258.507449 235.621334,265.684162 231.078462,272.483043 C226.535595,279.28193 221.373157,285.572364 215.591151,291.354352 C209.80918,297.13634 203.518781,302.298762 196.719865,306.841645 C189.920978,311.384512 182.744289,315.220539 175.189785,318.349698 C167.635281,321.478892 159.848106,323.841098 151.828289,325.436348 C143.808455,327.031593 135.710069,327.82921 127.533126,327.82921 C119.356143,327.829175 111.257746,327.031523 103.237911,325.436238 C95.218059,323.840975 87.430861,321.478736 79.876322,318.349518 C72.321783,315.220324 65.145077,311.384285 58.34619,306.841413 C51.547297,302.298529 45.256863,297.136108 39.4748864,291.35412 C33.6929041,285.572155 28.5304769,279.281714 23.9876108,272.482834 C19.4447331,265.683947 15.6087116,258.507257 12.4795232,250.952736 C9.3503348,243.398232 6.988124,235.611075 5.3928848,227.591257 C3.7976225,219.571423 3,211.473037 3,203.296094 C3.0000291,195.119128 3.7976806,187.020731 5.3929546,179.000867 C6.9882286,170.981015 9.3504685,163.193829 12.4796744,155.639301 C15.6088802,148.084774 19.4449307,140.908062 23.9878143,134.109169 C28.530692,127.310277 33.693125,121.019833 39.4751074,115.237853 C45.2570955,109.45587 51.54753,104.293442 58.346405,99.7505694 C65.145286,95.2076974 72.321999,91.3716695 79.876502,88.2424863 C87.431,85.1133037 95.218181,82.7510899 103.237998,81.1558462 C111.257815,79.5605977 119.356195,78.7629735 127.533126,78.7629735 L127.533022,134.802874 C123.03573,134.802903 118.581648,135.241612 114.170768,136.119019 C109.759883,136.996413 105.476984,138.295645 101.32202,140.016702 C97.167055,141.737771 93.219913,143.847601 89.480547,146.346188 C85.741187,148.844775 82.281486,151.684113 79.10142,154.864202 C75.921355,158.044291 73.082034,161.504033 70.583482,165.24341 C68.084925,168.982799 65.975123,172.929982 64.254083,177.084958 C62.533055,181.239934 61.233841,185.522874 60.356458,189.933789 C59.479104,194.344668 59.040424,198.798791 59.040407,203.296112 C59.040424,207.793432 59.479139,212.247573 60.356545,216.658487 C61.233928,221.069408 62.53316,225.352347 64.254223,229.507341 C65.975303,233.66234 68.085116,237.609523 70.583709,241.348918 C73.082302,245.088319 75.921639,248.548072 79.101723,251.728155 C82.281817,254.908238 85.741559,257.747576 89.480937,260.246169 C93.22032,262.744721 97.167497,264.85454 101.322479,266.575603 C105.477461,268.29666 109.7604,269.595892 114.171297,270.473281 C118.5822,271.350646 123.0363,271.789332 127.533621,271.789332 C132.030947,271.789314 136.485081,271.350611 140.896019,270.473228 C145.306916,269.595822 149.589873,268.29659 153.744873,266.57551 C157.899872,264.854453 161.847049,262.744634 165.58645,260.246041 C169.325827,257.747448 172.785569,254.908116 175.965664,251.728033 C179.145764,248.54795 181.985102,245.088208 184.483695,241.348813 C186.98227,237.609413 189.092083,233.662236 190.813129,229.507254 C192.534168,225.352272 193.8334,221.069332 194.710789,216.658435 C195.588172,212.24752 196.026857,207.793415 196.02684,203.296112 C196.026823,198.798791 195.588119,194.344651 194.710736,189.933736 C193.83333,185.522816 192.534099,181.239859 190.813018,177.084865 C189.091979,172.929871 186.982159,168.982683 184.483567,165.243294 C181.98498,161.503905 179.145625,158.044169 175.965542,154.86408 C172.785459,151.683985 169.325723,148.844659 165.586322,146.346078 C161.846927,143.847491 157.899744,141.737678 153.744762,140.016626 C149.589786,138.295575 145.306846,136.996349 140.895961,136.11896 C136.485047,135.241577 132.030947,134.802886 127.533621,134.802886 L127.534208,78.7629689 Z" id="Fill-8" fill="url(#radialGradient-1)" fill-rule="nonzero"></path>
            <circle id="Oval" fill="#FFFFFF" fill-rule="nonzero" cx="128.65842" cy="204.421389" r="87.3982442"></circle>
            <path d="M82.810425,230.478404 L80.486607,230.478404 L80.486607,227.335968 C78.532487,227.124712 76.683996,226.596571 75.205202,225.777954 L75.205202,222.820367 C77.238543,224.114311 79.615175,224.642452 81.727737,224.642452 C84.104369,224.642452 85.715198,224.087904 85.715198,222.345041 C85.715198,218.067103 75.284423,220.338107 75.284423,213.789165 C75.284423,210.778764 77.581835,209.167936 80.486607,208.824644 L80.486607,205.655802 L82.810425,205.655802 L82.810425,208.798237 C84.579696,208.930273 86.348966,209.405599 87.590097,210.144996 L87.590097,213.023361 C86.084896,212.019894 84.025148,211.465347 82.044622,211.491754 C79.800025,211.491754 78.347638,212.151929 78.347638,213.736351 C78.347638,217.723811 88.778413,215.584843 88.778413,222.186598 C88.778413,225.751547 86.111303,227.177526 82.810425,227.362375 L82.810425,230.478404 Z M90.943789,218.067103 C90.943789,212.812105 93.426049,208.745423 98.997931,208.745423 C104.569813,208.745423 107.052073,212.812105 107.052073,218.067103 C107.052073,223.3221 104.569813,227.388782 98.997931,227.388782 C93.426049,227.388782 90.943789,223.3221 90.943789,218.067103 Z M104.015265,218.067103 C104.015265,213.894793 102.430844,211.491754 98.997931,211.491754 C95.538611,211.491754 93.980596,213.894793 93.980596,218.067103 C93.980596,222.239413 95.538611,224.642452 98.997931,224.642452 C102.430844,224.642452 104.015265,222.239413 104.015265,218.067103 Z M113.152095,225.593105 C113.152095,226.781421 112.333478,227.335968 111.382825,227.335968 C110.432172,227.335968 109.587147,226.781421 109.587147,225.593105 C109.587147,224.457602 110.432172,223.903055 111.382825,223.903055 C112.333478,223.903055 113.152095,224.457602 113.152095,225.593105 Z M115.68717,218.067103 C115.68717,212.812105 118.16943,208.745423 123.741312,208.745423 C129.313194,208.745423 131.795454,212.812105 131.795454,218.067103 C131.795454,223.3221 129.313194,227.388782 123.741312,227.388782 C118.16943,227.388782 115.68717,223.3221 115.68717,218.067103 Z M128.758646,218.067103 C128.758646,213.894793 127.174225,211.491754 123.741312,211.491754 C120.281992,211.491754 118.723977,213.894793 118.723977,218.067103 C118.723977,222.239413 120.281992,224.642452 123.741312,224.642452 C127.174225,224.642452 128.758646,222.239413 128.758646,218.067103 Z M134.805855,210.567508 C136.654347,209.299971 138.687687,208.745423 140.773842,208.745423 C144.418012,208.745423 147.085121,210.435473 147.085121,213.789165 C147.085121,216.825973 144.550047,218.62165 142.1206,220.074037 C139.796782,221.447202 137.604999,222.556297 137.578592,224.351974 L147.217156,224.325567 L147.217156,227.045491 L134.198493,227.045491 L134.198493,225.672326 C134.198493,221.28876 137.446557,219.625117 140.166481,218.014289 C142.252636,216.799566 144.07472,215.87532 144.07472,213.841979 C144.07472,212.283965 142.727962,211.465347 140.509772,211.465347 C138.687687,211.465347 136.707161,212.099115 134.805855,213.472281 L134.805855,210.567508 Z M150.940546,209.088715 L162.005089,209.088715 L162.005089,211.782231 L153.713284,211.782231 L153.449214,216.112983 C154.320645,215.901727 155.244891,215.796099 156.169137,215.796099 C159.628457,215.796099 162.850114,217.301299 162.850114,221.526423 C162.850114,225.408255 159.549236,227.388782 155.588183,227.388782 C153.502028,227.388782 151.415873,226.939863 149.831451,226.174059 L149.831451,223.348508 C151.336652,224.219939 153.369993,224.668859 155.244891,224.668859 C157.912001,224.668859 159.813306,223.612578 159.813306,221.500016 C159.813306,219.123384 157.779966,218.278359 154.928007,218.278359 C153.475621,218.278359 151.811978,218.568836 150.359592,219.07057 L150.940546,209.088715 Z M165.200339,218.067103 C165.200339,212.812105 167.682599,208.745423 173.254481,208.745423 C178.826363,208.745423 181.308624,212.812105 181.308624,218.067103 C181.308624,223.3221 178.826363,227.388782 173.254481,227.388782 C167.682599,227.388782 165.200339,223.3221 165.200339,218.067103 Z M178.271816,218.067103 C178.271816,213.894793 176.687395,211.491754 173.254481,211.491754 C169.795161,211.491754 168.237147,213.894793 168.237147,218.067103 C168.237147,222.239413 169.795161,224.642452 173.254481,224.642452 C176.687395,224.642452 178.271816,222.239413 178.271816,218.067103 Z M93.663712,241.088715 L95.881902,241.088715 L95.881902,256.325567 L99.077152,256.325567 L99.077152,259.045491 L89.306553,259.045491 L89.306553,256.325567 L92.897908,256.325567 L92.897908,244.178336 L89.306553,245.525095 L89.306553,242.752357 L93.663712,241.088715 Z M124.903221,240.560574 L127.623144,240.560574 L127.623144,259.045491 L124.612744,259.045491 L124.612744,246.106049 L118.776791,254.873181 L116.981114,254.873181 L111.145162,246.079642 L111.145162,259.045491 L108.134761,259.045491 L108.134761,240.560574 L110.854684,240.560574 L117.878953,251.149791 L124.903221,240.560574 Z M135.122739,259.045491 L132.112338,259.045491 L132.112338,240.560574 L134.93789,240.560574 L144.893338,254.08097 C144.866931,253.447202 144.866931,252.734212 144.866931,252.04763 L144.866931,240.560574 L147.877332,240.560574 L147.877332,259.045491 L145.05178,259.045491 L135.096332,245.525095 C135.122739,246.158863 135.122739,246.871853 135.122739,247.532028 L135.122739,259.045491 Z M155.376926,259.045491 L152.366526,259.045491 L152.366526,240.560574 L159.760492,240.560574 C163.219812,240.560574 166.863982,241.933739 166.863982,246.343712 C166.863982,249.64459 164.804234,251.229012 162.374788,251.809966 L168.289961,259.045491 L164.672199,259.045491 L159.126724,252.126851 L155.376926,252.126851 L155.376926,259.045491 Z M155.376926,243.306905 L155.376926,249.459741 L159.892527,249.459741 C161.873054,249.459741 163.800767,248.746752 163.800767,246.396526 C163.800767,244.019894 161.873054,243.306905 159.892527,243.306905 L155.376926,243.306905 Z" id="$0.0250-1-MNR" fill="#6202E1" fill-rule="nonzero"></path>
            <path d="M99.942498,140.251 L112.847498,140.251 L112.847498,144.746 L104.756498,144.717 L104.553498,147.617 C105.278498,147.501 106.003498,147.443 106.670498,147.443 C110.701498,147.443 113.717498,149.27 113.717498,153.707 C113.717498,158.579 109.396498,160.435 104.988498,160.435 C102.697498,160.435 100.406498,159.942 98.637498,159.101 L98.637498,154.171 C100.174498,155.244 102.494498,155.795 104.408498,155.795 C106.641498,155.795 108.352498,155.128 108.352498,153.591 C108.352498,152.344 107.337498,151.387 104.118498,151.358 C102.871498,151.358 101.073498,151.532 99.246498,152.17 L99.942498,140.251 Z M115.863498,150.14 C115.863498,144.514 118.560498,139.845 124.998498,139.845 C131.436498,139.845 134.133498,144.514 134.133498,150.14 C134.133498,155.766 131.436498,160.435 124.998498,160.435 C118.560498,160.435 115.863498,155.766 115.863498,150.14 Z M128.768498,150.14 C128.768498,146.341 127.579498,144.485 124.998498,144.485 C122.417498,144.485 121.228498,146.341 121.228498,150.14 C121.228498,153.939 122.417498,155.795 124.998498,155.795 C127.579498,155.795 128.768498,153.939 128.768498,150.14 Z M144.544498,161.74 L141.354498,161.74 L153.215498,137.96 L156.405498,137.96 L144.544498,161.74 Z M147.096498,144.485 C147.096498,147.965 144.544498,149.705 141.586498,149.705 C138.599498,149.705 136.047498,147.965 136.047498,144.485 C136.047498,141.005 138.599498,139.265 141.586498,139.265 C144.544498,139.265 147.096498,141.005 147.096498,144.485 Z M139.875498,144.485 C139.875498,145.355 140.339498,146.225 141.586498,146.225 C142.804498,146.225 143.268498,145.355 143.268498,144.485 C143.268498,143.615 142.804498,142.745 141.586498,142.745 C140.339498,142.745 139.875498,143.615 139.875498,144.485 Z M161.596498,155.215 C161.596498,158.695 159.044498,160.435 156.086498,160.435 C153.099498,160.435 150.547498,158.695 150.547498,155.215 C150.547498,151.735 153.099498,149.995 156.086498,149.995 C159.044498,149.995 161.596498,151.735 161.596498,155.215 Z M154.375498,155.215 C154.375498,156.085 154.839498,156.955 156.086498,156.955 C157.304498,156.955 157.768498,156.085 157.768498,155.215 C157.768498,154.345 157.304498,153.475 156.086498,153.475 C154.839498,153.475 154.375498,154.345 154.375498,155.215 Z" id="50%" fill="#6202E1" fill-rule="nonzero"></path>
            <g id="discount" transform="translate(1.000000, 166.000000)" fill="#000000">
                <path d="M93.61,23 L90.413,23 L90.413,11.96 L93.61,11.96 L93.61,23 Z M93.886,8.303 C93.886,9.568 93.012,10.12 92,10.12 C91.011,10.12 90.137,9.568 90.137,8.303 C90.137,7.061 91.011,6.509 92,6.509 C93.012,6.509 93.886,7.061 93.886,8.303 Z M99.199,13.363 C100.05,12.374 101.292,11.638 102.879,11.638 C105.777,11.638 107.364,13.616 107.364,16.169 L107.364,23 L104.167,23 L104.167,16.583 C104.167,15.088 103.27,14.398 102.028,14.398 C100.901,14.398 100.027,15.134 99.567,15.801 L99.567,23 L96.37,23 L96.37,11.96 L99.199,11.96 L99.199,13.363 Z M118.358,6.9 L121.532,6.9 L121.532,23 L118.726,23 L118.726,21.39 C118.013,22.379 116.748,23.322 114.724,23.322 C111.205,23.322 109.319,20.493 109.319,17.48 C109.319,14.467 111.205,11.638 114.724,11.638 C116.472,11.638 117.645,12.351 118.358,13.133 L118.358,6.9 Z M118.358,16.169 C117.921,15.203 116.886,14.329 115.483,14.329 C113.666,14.329 112.585,15.755 112.585,17.48 C112.585,19.205 113.666,20.631 115.483,20.631 C116.886,20.631 117.921,19.757 118.358,18.791 L118.358,16.169 Z M127.466,23 L124.269,23 L124.269,11.96 L127.466,11.96 L127.466,23 Z M127.742,8.303 C127.742,9.568 126.868,10.12 125.856,10.12 C124.867,10.12 123.993,9.568 123.993,8.303 C123.993,7.061 124.867,6.509 125.856,6.509 C126.868,6.509 127.742,7.061 127.742,8.303 Z M133.055,13.616 C133.837,12.397 135.447,11.523 137.517,11.73 L137.517,14.835 C135.769,14.536 134.09,15.203 133.423,16.514 L133.423,23 L130.226,23 L130.226,11.96 L133.055,11.96 L133.055,13.616 Z M142.439,23 L139.242,23 L139.242,11.96 L142.439,11.96 L142.439,23 Z M142.715,8.303 C142.715,9.568 141.841,10.12 140.829,10.12 C139.84,10.12 138.966,9.568 138.966,8.303 C138.966,7.061 139.84,6.509 140.829,6.509 C141.841,6.509 142.715,7.061 142.715,8.303 Z M148.396,23 L145.199,23 L145.199,11.96 L148.028,11.96 L148.028,13.248 C148.603,12.558 149.868,11.638 151.547,11.638 C153.203,11.638 154.284,12.328 154.928,13.271 C155.848,12.374 157.09,11.638 158.608,11.638 C161.713,11.638 162.725,14.053 162.725,16.008 L162.725,23 L159.551,23 L159.551,16.215 C159.551,15.065 158.838,14.398 157.826,14.398 C156.952,14.398 156.17,14.904 155.641,15.502 C155.664,15.663 155.664,15.824 155.664,16.008 L155.664,23 L152.49,23 L152.49,16.215 C152.49,15.065 151.777,14.398 150.765,14.398 C149.799,14.398 148.925,15.042 148.396,15.732 L148.396,23 Z" id="indirim"></path>
            </g>
            <g id="10-Mei---10-Juni" fill="#000000">
                <path d="M70.0375,8 L72.7625,8 L72.7625,21.775 L75.6125,21.775 L75.6125,25 L65.9125,25 L65.9125,21.775 L69.1125,21.775 L69.1125,11.75 L65.9125,12.95 L65.9125,9.575 L70.0375,8 Z M77.2375,16.5 C77.2375,11.6 79.5625,7.65 84.9875,7.65 C90.4125,7.65 92.7375,11.6 92.7375,16.5 C92.7375,21.4 90.4125,25.35 84.9875,25.35 C79.5625,25.35 77.2375,21.4 77.2375,16.5 Z M88.9875,16.5 C88.9875,12.875 87.7375,10.95 84.9875,10.95 C82.2375,10.95 80.9875,12.875 80.9875,16.5 C80.9875,20.125 82.2375,22.05 84.9875,22.05 C87.7375,22.05 88.9875,20.125 88.9875,16.5 Z M116.6875,7.5 L120.1625,7.5 L120.1625,25 L116.4125,25 L116.4125,14.225 L111.7875,21.25 L109.6125,21.25 L104.9875,14.2 L104.9875,25 L101.2375,25 L101.2375,7.5 L104.7125,7.5 L110.7125,16.6 L116.6875,7.5 Z M134.0375,21.9 C134.0375,22.525 134.4375,22.7 134.8875,22.7 C135.0875,22.7 135.3125,22.675 135.5375,22.6 L135.5375,24.875 C134.9875,25.075 134.2875,25.225 133.6125,25.225 C132.3875,25.225 131.4625,24.775 130.9625,23.875 C129.7875,24.8 128.4125,25.35 126.6375,25.35 C124.3875,25.35 122.4375,24.05 122.4375,21.675 C122.4375,18.625 125.3125,17.675 127.7125,17.675 C128.6625,17.675 129.7125,17.8 130.5625,18 L130.5625,17.575 C130.5625,16.375 129.6125,15.55 127.7375,15.55 C126.0875,15.55 124.6125,16 123.4875,16.45 L123.4875,13.45 C124.4625,13.125 126.2875,12.65 128.1375,12.65 C131.7375,12.65 134.0375,14.125 134.0375,18.075 L134.0375,21.9 Z M128.5125,19.75 C127.2375,19.75 125.9875,20.175 125.9875,21.4 C125.9875,22.3 126.8125,22.875 127.8625,22.875 C128.8375,22.875 129.7625,22.6 130.5625,21.9 L130.5625,20.025 C130.0375,19.9 129.2375,19.75 128.5125,19.75 Z M142.1875,21.1 L145.1625,13 L148.7625,13 L143.4375,26.45 C142.0875,29.8 140.2125,30.825 138.2625,30.825 C137.6375,30.825 137.0125,30.7 136.3875,30.55 L136.3875,27.675 C136.8625,27.775 137.3375,27.85 137.8125,27.85 C139.0625,27.85 140.0125,27 140.6625,25.225 L140.6875,25.175 L135.0125,13 L138.6875,13 L142.1875,21.1 Z M150.5375,13 L154.0125,13 L154.0125,25 L150.5375,25 L150.5375,13 Z M156.4875,16.35 C156.4875,13.575 158.9625,12.65 161.4875,12.65 C163.1875,12.65 164.6875,13.075 165.9125,13.675 L165.9125,16.525 C164.8875,15.825 163.1375,15.3 161.7125,15.3 C160.9375,15.3 160.0375,15.525 160.0375,16.25 C160.0375,18.25 166.8125,17.25 166.8125,21.65 C166.8125,24.475 164.2375,25.35 161.3625,25.35 C159.5375,25.35 157.8125,24.95 156.5875,24.225 L156.5875,21.35 C157.8875,22.2 159.7125,22.625 161.1625,22.625 C162.4375,22.625 163.2625,22.4 163.2625,21.725 C163.2625,19.8 156.4875,20.65 156.4875,16.35 Z M190.9875,20.375 L174.3875,20.375 L174.3875,17.45 L190.9875,17.45 L190.9875,20.375 Z M71.75,39 L74.475,39 L74.475,52.775 L77.325,52.775 L77.325,56 L67.625,56 L67.625,52.775 L70.825,52.775 L70.825,42.75 L67.625,43.95 L67.625,40.575 L71.75,39 Z M78.95,47.5 C78.95,42.6 81.275,38.65 86.7,38.65 C92.125,38.65 94.45,42.6 94.45,47.5 C94.45,52.4 92.125,56.35 86.7,56.35 C81.275,56.35 78.95,52.4 78.95,47.5 Z M90.7,47.5 C90.7,43.875 89.45,41.95 86.7,41.95 C83.95,41.95 82.7,43.875 82.7,47.5 C82.7,51.125 83.95,53.05 86.7,53.05 C89.45,53.05 90.7,51.125 90.7,47.5 Z M114.55,38.5 L118.3,38.5 L118.3,56 L114.55,56 L114.55,48.95 L106.7,48.95 L106.7,56 L102.95,56 L102.95,38.5 L106.7,38.5 L106.7,45.55 L114.55,45.55 L114.55,38.5 Z M132.175,52.9 C132.175,53.525 132.575,53.7 133.025,53.7 C133.225,53.7 133.45,53.675 133.675,53.6 L133.675,55.875 C133.125,56.075 132.425,56.225 131.75,56.225 C130.525,56.225 129.6,55.775 129.1,54.875 C127.925,55.8 126.55,56.35 124.775,56.35 C122.525,56.35 120.575,55.05 120.575,52.675 C120.575,49.625 123.45,48.675 125.85,48.675 C126.8,48.675 127.85,48.8 128.7,49 L128.7,48.575 C128.7,47.375 127.75,46.55 125.875,46.55 C124.225,46.55 122.75,47 121.625,47.45 L121.625,44.45 C122.6,44.125 124.425,43.65 126.275,43.65 C129.875,43.65 132.175,45.125 132.175,49.075 L132.175,52.9 Z M126.65,50.75 C125.375,50.75 124.125,51.175 124.125,52.4 C124.125,53.3 124.95,53.875 126,53.875 C126.975,53.875 127.9,53.6 128.7,52.9 L128.7,51.025 C128.175,50.9 127.375,50.75 126.65,50.75 Z M134.95,44 L144.725,44 L144.725,46.25 L139.1,53.1 L145.125,53.1 L145.125,56 L134.625,56 L134.625,53.75 L140.25,46.875 L134.95,46.875 L134.95,44 Z M150.875,56 L147.4,56 L147.4,44 L150.875,44 L150.875,56 Z M151.175,40.025 C151.175,41.4 150.225,42 149.125,42 C148.05,42 147.1,41.4 147.1,40.025 C147.1,38.675 148.05,38.075 149.125,38.075 C150.225,38.075 151.175,38.675 151.175,40.025 Z M156.95,45.8 C157.8,44.475 159.55,43.525 161.8,43.75 L161.8,47.125 C159.9,46.8 158.075,47.525 157.35,48.95 L157.35,56 L153.875,56 L153.875,44 L156.95,44 L156.95,45.8 Z M174.225,52.9 C174.225,53.525 174.625,53.7 175.075,53.7 C175.275,53.7 175.5,53.675 175.725,53.6 L175.725,55.875 C175.175,56.075 174.475,56.225 173.8,56.225 C172.575,56.225 171.65,55.775 171.15,54.875 C169.975,55.8 168.6,56.35 166.825,56.35 C164.575,56.35 162.625,55.05 162.625,52.675 C162.625,49.625 165.5,48.675 167.9,48.675 C168.85,48.675 169.9,48.8 170.75,49 L170.75,48.575 C170.75,47.375 169.8,46.55 167.925,46.55 C166.275,46.55 164.8,47 163.675,47.45 L163.675,44.45 C164.65,44.125 166.475,43.65 168.325,43.65 C171.925,43.65 174.225,45.125 174.225,49.075 L174.225,52.9 Z M168.7,50.75 C167.425,50.75 166.175,51.175 166.175,52.4 C166.175,53.3 167,53.875 168.05,53.875 C169.025,53.875 169.95,53.6 170.75,52.9 L170.75,51.025 C170.225,50.9 169.425,50.75 168.7,50.75 Z M180.45,45.525 C181.375,44.45 182.725,43.65 184.45,43.65 C187.6,43.65 189.325,45.8 189.325,48.575 L189.325,56 L185.85,56 L185.85,49.025 C185.85,47.4 184.875,46.65 183.525,46.65 C182.3,46.65 181.35,47.45 180.85,48.175 L180.85,56 L177.375,56 L177.375,44 L180.45,44 L180.45,45.525 Z" id="10-Mayıs-—-10-Hazira"></path>
            </g>
        </g>
    </g>
</svg>