<?xml version="1.0" encoding="UTF-8"?>
<svg width="250px" height="292px" viewBox="0 0 250 292" version="1.1" xmlns="http://www.w3.org/2000/svg" xmlns:xlink="http://www.w3.org/1999/xlink">
    <!-- Generator: Sketch 48.2 (47327) - http://www.bohemiancoding.com/sketch -->
    <title>text_3</title>
    <desc>Created with Sketch.</desc>
    <defs>
        <radialGradient cx="400%" cy="200%" fx="400%" fy="200%" r="100.014205%" gradientTransform="translate(4.000000,2.000000),scale(1.000000,0.500004),translate(-4.000000,-2.000000)" id="radialGradient-1">
            <stop stop-color="#8D00FF" offset="0%"></stop>
            <stop stop-color="#5C00FE" offset="69.8959662%"></stop>
            <stop stop-color="#8900FF" offset="100%"></stop>
        </radialGradient>
        <radialGradient cx="400%" cy="200%" fx="400%" fy="200%" r="100.011799%" gradientTransform="translate(4.000000,2.000000),scale(1.000000,0.500004),translate(-4.000000,-2.000000)" id="radialGradient-2">
            <stop stop-color="#FF9495" offset="0%"></stop>
            <stop stop-color="#FE5F60" offset="70.3742825%"></stop>
            <stop stop-color="#FF9091" offset="100%"></stop>
        </radialGradient>
    </defs>
    <g id="Page-1" stroke="none" stroke-width="1" fill="none" fill-rule="evenodd">
        <g id="text_3" transform="translate(0.000000, -7.000000)">
            <g id="3-copy" transform="translate(0.000000, 49.000000)" fill-rule="nonzero">
                <g id="Group-Copy-2" transform="translate(0.933759, 0.000000)">
                    <g id="Group-6" transform="translate(0.000000, 0.762969)">
                        <g id="Group-31">
                            <path d="M124.524976,249.047781 C113.595699,249.047871 102.852631,247.633628 92.2957729,244.804995 C81.7389145,241.976368 71.727937,237.829799 62.2629045,232.365289 C52.7978079,226.900714 44.2011758,220.304407 36.4730082,212.576368 C28.7447764,204.848264 22.1482772,196.25176 16.6835746,186.786792 C11.218872,177.321823 7.07211127,167.31091 4.24335644,156.754116 C1.41453755,146.197257 0.000128110995,135.454189 0,124.524976 C-6.40554976e-05,113.595699 1.41415322,102.852631 4.24277994,92.2957729 C7.07140665,81.7388504 11.2179752,71.727937 16.6825497,62.2628404 C22.1472523,52.7976798 28.7436875,44.2009837 36.4719192,36.4727519 C44.2000869,28.7444561 52.796719,22.148021 62.2618155,16.6833184 C71.726848,11.2185517 81.7378255,7.07185504 92.294684,4.24310021 C102.851606,1.41434539 113.59461,0 124.524976,0 L124.523759,56.0357493 C120.027832,56.0372866 115.575206,56.4772838 111.165882,57.3557409 C106.756558,58.234198 102.47528,59.5342684 98.321986,61.255888 C94.1686916,62.9775076 90.2231932,65.0876238 86.4854909,67.5863007 C82.7477885,70.0849135 79.2896244,72.9241093 76.1110625,76.1038242 C72.9325006,79.2835391 70.0945218,82.7426641 67.5971901,86.4812632 C65.0998584,90.2198623 62.9910874,94.1661294 61.270941,98.3200643 C59.5507307,102.473935 58.2521976,106.755725 57.3752778,111.165434 C56.4983581,115.575078 56.0598982,120.027896 56.0598982,124.523887 C56.0598982,129.019879 56.4984221,133.472761 57.375406,137.882469 C58.2523898,142.292114 59.5509869,146.573967 61.2711973,150.727902 C62.9914076,154.881837 65.1002427,158.828104 67.5976385,162.566704 C70.0950342,166.305367 72.933013,169.764492 76.1117031,172.944207 C79.290329,176.123857 82.7484932,178.963053 86.4862595,181.46173 C90.2240259,183.960343 94.1695884,186.070459 98.3229468,187.792079 C102.476241,189.513634 106.757583,190.813705 111.166971,191.692098 C115.576295,192.570491 120.028985,193.010488 124.524976,193.012025 L124.524976,249.047781 Z" id="Fill-30" fill="url(#radialGradient-1)"></path>
                            <path d="M249.044074,249.047781 C238.114797,249.047871 227.371729,247.633628 216.814871,244.804995 C206.258013,241.976368 196.247035,237.829799 186.782003,232.365289 C177.316906,226.900714 168.720274,220.304407 160.992106,212.576368 C153.263875,204.848264 146.667375,196.25176 141.202673,186.786792 C135.73797,177.321823 131.591209,167.31091 128.762455,156.754116 C125.933636,146.197257 124.519226,135.454189 124.519098,124.524976 C124.519034,113.595699 125.933251,102.852631 128.761878,92.2957729 C131.590505,81.7388504 135.737073,71.727937 141.201648,62.2628404 C146.66635,52.7976798 153.262786,44.2009837 160.991017,36.4727519 C168.719185,28.7444561 177.315817,22.148021 186.780914,16.6833184 C196.245946,11.2185517 206.256924,7.07185504 216.813782,4.24310021 C227.370705,1.41434539 238.113708,0 249.044074,0 L249.042857,56.0357493 C244.54693,56.0372866 240.094304,56.4772838 235.68498,57.3557409 C231.275656,58.234198 226.994378,59.5342684 222.841084,61.255888 C218.68779,62.9775076 214.742291,65.0876238 211.004589,67.5863007 C207.266887,70.0849135 203.808722,72.9241093 200.630161,76.1038242 C197.451599,79.2835391 194.61362,82.7426641 192.116288,86.4812632 C189.618956,90.2198623 187.510185,94.1661294 185.790039,98.3200643 C184.069829,102.473935 182.771296,106.755725 181.894376,111.165434 C181.017456,115.575078 180.578996,120.027896 180.578996,124.523887 C180.578996,129.019879 181.01752,133.472761 181.894504,137.882469 C182.771488,142.292114 184.070085,146.573967 185.790295,150.727902 C187.510506,154.881837 189.619341,158.828104 192.116737,162.566704 C194.614132,166.305367 197.452111,169.764492 200.630801,172.944207 C203.809427,176.123857 207.267591,178.963053 211.005358,181.46173 C214.743124,183.960343 218.688686,186.070459 222.842045,187.792079 C226.995339,189.513634 231.276681,190.813705 235.686069,191.692098 C240.095393,192.570491 244.548083,193.010488 249.044074,193.012025 L249.044074,249.047781 Z" id="Fill-30-Copy" fill="url(#radialGradient-2)" transform="translate(186.781586, 124.523890) scale(-1, 1) translate(-186.781586, -124.523890) "></path>
                        </g>
                        <circle id="Oval" fill="#FFFFFF" cx="124.90822" cy="124.90822" r="87.3982442"></circle>
                        <path d="M77.0899016,151.589233 L74.7660835,151.589233 L74.7660835,148.446797 C72.8119638,148.235541 70.9634721,147.707401 69.4846788,146.888783 L69.4846788,143.931196 C71.5180196,145.225141 73.8946518,145.753281 76.0072137,145.753281 C78.3838458,145.753281 79.9946742,145.198734 79.9946742,143.45587 C79.9946742,139.177932 69.5638999,141.448936 69.5638999,134.899994 C69.5638999,131.889594 71.8613109,130.278765 74.7660835,129.935474 L74.7660835,126.766631 L77.0899016,126.766631 L77.0899016,129.909067 C78.8591722,130.041102 80.6284428,130.516428 81.8695729,131.255825 L81.8695729,134.134191 C80.3643726,133.130724 78.3046247,132.576176 76.3240979,132.602583 C74.0795009,132.602583 72.6271146,133.262759 72.6271146,134.84718 C72.6271146,138.834641 83.057889,136.695672 83.057889,143.297428 C83.057889,146.862376 80.3907796,148.288355 77.0899016,148.473204 L77.0899016,151.589233 Z M85.2232649,139.177932 C85.2232649,133.922934 87.7055252,129.856253 93.2774072,129.856253 C98.8492892,129.856253 101.331549,133.922934 101.331549,139.177932 C101.331549,144.43293 98.8492892,148.499611 93.2774072,148.499611 C87.7055252,148.499611 85.2232649,144.43293 85.2232649,139.177932 Z M98.2947417,139.177932 C98.2947417,135.005622 96.7103203,132.602583 93.2774072,132.602583 C89.8180871,132.602583 88.2600727,135.005622 88.2600727,139.177932 C88.2600727,143.350242 89.8180871,145.753281 93.2774072,145.753281 C96.7103203,145.753281 98.2947417,143.350242 98.2947417,139.177932 Z M107.431572,146.703934 C107.431572,147.89225 106.612954,148.446797 105.662301,148.446797 C104.711648,148.446797 103.866624,147.89225 103.866624,146.703934 C103.866624,145.568432 104.711648,145.013884 105.662301,145.013884 C106.612954,145.013884 107.431572,145.568432 107.431572,146.703934 Z M109.966646,139.177932 C109.966646,133.922934 112.448906,129.856253 118.020788,129.856253 C123.59267,129.856253 126.074931,133.922934 126.074931,139.177932 C126.074931,144.43293 123.59267,148.499611 118.020788,148.499611 C112.448906,148.499611 109.966646,144.43293 109.966646,139.177932 Z M123.038123,139.177932 C123.038123,135.005622 121.453701,132.602583 118.020788,132.602583 C114.561468,132.602583 113.003454,135.005622 113.003454,139.177932 C113.003454,143.350242 114.561468,145.753281 118.020788,145.753281 C121.453701,145.753281 123.038123,143.350242 123.038123,139.177932 Z M137.535579,130.199544 L140.625201,130.199544 L140.625201,141.871449 L143.714822,141.871449 L143.714822,144.485744 L140.625201,144.485744 L140.625201,148.15632 L137.720428,148.15632 L137.720428,144.485744 L127.976236,144.485744 L127.976236,141.924263 L137.535579,130.199544 Z M137.720428,141.871449 L137.720428,134.028562 L131.329928,141.871449 L137.720428,141.871449 Z M146.910072,130.199544 L157.974615,130.199544 L157.974615,132.89306 L149.68281,132.89306 L149.41874,137.223812 C150.290171,137.012556 151.214417,136.906928 152.138663,136.906928 C155.597983,136.906928 158.81964,138.412128 158.81964,142.637252 C158.81964,146.519085 155.518762,148.499611 151.557709,148.499611 C149.471554,148.499611 147.385399,148.050692 145.800977,147.284888 L145.800977,144.459337 C147.306178,145.330769 149.339519,145.779688 151.214417,145.779688 C153.881527,145.779688 155.782832,144.723407 155.782832,142.610845 C155.782832,140.234213 153.749491,139.389188 150.897533,139.389188 C149.445147,139.389188 147.781504,139.679666 146.329118,140.181399 L146.910072,130.199544 Z M161.169865,139.177932 C161.169865,133.922934 163.652125,129.856253 169.224007,129.856253 C174.795889,129.856253 177.27815,133.922934 177.27815,139.177932 C177.27815,144.43293 174.795889,148.499611 169.224007,148.499611 C163.652125,148.499611 161.169865,144.43293 161.169865,139.177932 Z M174.241342,139.177932 C174.241342,135.005622 172.65692,132.602583 169.224007,132.602583 C165.764687,132.602583 164.206673,135.005622 164.206673,139.177932 C164.206673,143.350242 165.764687,145.753281 169.224007,145.753281 C172.65692,145.753281 174.241342,143.350242 174.241342,139.177932 Z M88.7882131,162.199544 L91.0064031,162.199544 L91.0064031,177.436397 L94.201653,177.436397 L94.201653,180.15632 L84.4310542,180.15632 L84.4310542,177.436397 L88.0224094,177.436397 L88.0224094,165.289166 L84.4310542,166.635924 L84.4310542,163.863187 L88.7882131,162.199544 Z M120.027722,161.671404 L122.747646,161.671404 L122.747646,180.15632 L119.737245,180.15632 L119.737245,167.216879 L113.901293,175.98401 L112.105615,175.98401 L106.269663,167.190472 L106.269663,180.15632 L103.259262,180.15632 L103.259262,161.671404 L105.979186,161.671404 L113.003454,172.26062 L120.027722,161.671404 Z M130.24724,180.15632 L127.23684,180.15632 L127.23684,161.671404 L130.062391,161.671404 L140.017839,175.1918 C139.991432,174.558031 139.991432,173.845041 139.991432,173.158459 L139.991432,161.671404 L143.001833,161.671404 L143.001833,180.15632 L140.176281,180.15632 L130.220833,166.635924 C130.24724,167.269693 130.24724,167.982682 130.24724,168.642858 L130.24724,180.15632 Z M150.501428,180.15632 L147.491027,180.15632 L147.491027,161.671404 L154.884993,161.671404 C158.344314,161.671404 161.988483,163.044569 161.988483,167.454542 C161.988483,170.75542 159.928735,172.339841 157.499289,172.920796 L163.414462,180.15632 L159.7967,180.15632 L154.251225,173.23768 L150.501428,173.23768 L150.501428,180.15632 Z M150.501428,164.417734 L150.501428,170.570571 L155.017029,170.570571 C156.997555,170.570571 158.925268,169.857581 158.925268,167.507356 C158.925268,165.130724 156.997555,164.417734 155.017029,164.417734 L150.501428,164.417734 Z" id="$0.0450-1-MNR" fill="#131F3C"></path>
                    </g>
                </g>
            </g>
            <path d="M102.205295,114.956634 L105.985963,114.956634 L105.985963,129.659233 L108.954488,129.659233 L108.954488,134 L97.5844782,134 L97.5844782,129.659233 L100.945072,129.659233 L100.945072,120.08154 L97.5844782,121.341763 L97.5844782,116.720946 L102.205295,114.956634 Z M110.66279,124.478317 C110.66279,119.045357 113.26725,114.53656 119.484349,114.53656 C125.701447,114.53656 128.305908,119.045357 128.305908,124.478317 C128.305908,129.911277 125.701447,134.420074 119.484349,134.420074 C113.26725,134.420074 110.66279,129.911277 110.66279,124.478317 Z M123.124992,124.478317 C123.124992,120.809669 121.976789,119.017352 119.484349,119.017352 C116.991908,119.017352 115.843705,120.809669 115.843705,124.478317 C115.843705,128.146966 116.991908,129.939282 119.484349,129.939282 C121.976789,129.939282 123.124992,128.146966 123.124992,124.478317 Z M138.359685,135.680297 L135.27914,135.680297 L146.733165,112.716238 L149.813709,112.716238 L138.359685,135.680297 Z M140.82412,119.017352 C140.82412,122.377946 138.359685,124.058243 135.50318,124.058243 C132.61867,124.058243 130.154234,122.377946 130.154234,119.017352 C130.154234,115.656758 132.61867,113.976461 135.50318,113.976461 C138.359685,113.976461 140.82412,115.656758 140.82412,119.017352 Z M133.850888,119.017352 C133.850888,119.857501 134.298967,120.697649 135.50318,120.697649 C136.679388,120.697649 137.127467,119.857501 137.127467,119.017352 C137.127467,118.177204 136.679388,117.337055 135.50318,117.337055 C134.298967,117.337055 133.850888,118.177204 133.850888,119.017352 Z M154.826595,129.379183 C154.826595,132.739777 152.362159,134.420074 149.505655,134.420074 C146.621145,134.420074 144.156709,132.739777 144.156709,129.379183 C144.156709,126.018589 146.621145,124.338292 149.505655,124.338292 C152.362159,124.338292 154.826595,126.018589 154.826595,129.379183 Z M147.853363,129.379183 C147.853363,130.219332 148.301442,131.05948 149.505655,131.05948 C150.681862,131.05948 151.129942,130.219332 151.129942,129.379183 C151.129942,128.539035 150.681862,127.698886 149.505655,127.698886 C148.301442,127.698886 147.853363,128.539035 147.853363,129.379183 Z" id="10%" fill="#131F3C" fill-rule="nonzero"></path>
            <g id="diskon" transform="translate(89.000000, 139.000000)" fill="#000000">
                <path d="M4.9065,23 L1.7095,23 L1.7095,11.96 L4.9065,11.96 L4.9065,23 Z M5.1825,8.303 C5.1825,9.568 4.3085,10.12 3.2965,10.12 C2.3075,10.12 1.4335,9.568 1.4335,8.303 C1.4335,7.061 2.3075,6.509 3.2965,6.509 C4.3085,6.509 5.1825,7.061 5.1825,8.303 Z M10.4955,13.363 C11.3465,12.374 12.5885,11.638 14.1755,11.638 C17.0735,11.638 18.6605,13.616 18.6605,16.169 L18.6605,23 L15.4635,23 L15.4635,16.583 C15.4635,15.088 14.5665,14.398 13.3245,14.398 C12.1975,14.398 11.3235,15.134 10.8635,15.801 L10.8635,23 L7.6665,23 L7.6665,11.96 L10.4955,11.96 L10.4955,13.363 Z M29.6545,6.9 L32.8285,6.9 L32.8285,23 L30.0225,23 L30.0225,21.39 C29.3095,22.379 28.0445,23.322 26.0205,23.322 C22.5015,23.322 20.6155,20.493 20.6155,17.48 C20.6155,14.467 22.5015,11.638 26.0205,11.638 C27.7685,11.638 28.9415,12.351 29.6545,13.133 L29.6545,6.9 Z M29.6545,16.169 C29.2175,15.203 28.1825,14.329 26.7795,14.329 C24.9625,14.329 23.8815,15.755 23.8815,17.48 C23.8815,19.205 24.9625,20.631 26.7795,20.631 C28.1825,20.631 29.2175,19.757 29.6545,18.791 L29.6545,16.169 Z M38.7625,23 L35.5655,23 L35.5655,11.96 L38.7625,11.96 L38.7625,23 Z M39.0385,8.303 C39.0385,9.568 38.1645,10.12 37.1525,10.12 C36.1635,10.12 35.2895,9.568 35.2895,8.303 C35.2895,7.061 36.1635,6.509 37.1525,6.509 C38.1645,6.509 39.0385,7.061 39.0385,8.303 Z M44.3515,13.616 C45.1335,12.397 46.7435,11.523 48.8135,11.73 L48.8135,14.835 C47.0655,14.536 45.3865,15.203 44.7195,16.514 L44.7195,23 L41.5225,23 L41.5225,11.96 L44.3515,11.96 L44.3515,13.616 Z M53.7355,23 L50.5385,23 L50.5385,11.96 L53.7355,11.96 L53.7355,23 Z M54.0115,8.303 C54.0115,9.568 53.1375,10.12 52.1255,10.12 C51.1365,10.12 50.2625,9.568 50.2625,8.303 C50.2625,7.061 51.1365,6.509 52.1255,6.509 C53.1375,6.509 54.0115,7.061 54.0115,8.303 Z M59.6925,23 L56.4955,23 L56.4955,11.96 L59.3245,11.96 L59.3245,13.248 C59.8995,12.558 61.1645,11.638 62.8435,11.638 C64.4995,11.638 65.5805,12.328 66.2245,13.271 C67.1445,12.374 68.3865,11.638 69.9045,11.638 C73.0095,11.638 74.0215,14.053 74.0215,16.008 L74.0215,23 L70.8475,23 L70.8475,16.215 C70.8475,15.065 70.1345,14.398 69.1225,14.398 C68.2485,14.398 67.4665,14.904 66.9375,15.502 C66.9605,15.663 66.9605,15.824 66.9605,16.008 L66.9605,23 L63.7865,23 L63.7865,16.215 C63.7865,15.065 63.0735,14.398 62.0615,14.398 C61.0955,14.398 60.2215,15.042 59.6925,15.732 L59.6925,23 Z" id="indirim"></path>
            </g>
            <g id="18-28-Agustus" transform="translate(33.000000, 0.000000)" fill="#000000">
                <path d="M5.825,8 L8.55,8 L8.55,21.775 L11.4,21.775 L11.4,25 L1.7,25 L1.7,21.775 L4.9,21.775 L4.9,11.75 L1.7,12.95 L1.7,9.575 L5.825,8 Z M13.6,12.35 C13.6,10.075 15.5,7.65 20.15,7.65 C24.475,7.65 26.725,10.075 26.75,12.45 C26.775,14.1 25.975,15.35 24.6,16.375 C26.15,17.15 27.375,18.35 27.375,20.4 C27.375,22.9 25.325,25.35 20.2,25.35 C15.125,25.35 12.975,22.875 12.975,20.275 C12.975,18.575 14.025,16.95 15.625,16 C14.45,15.2 13.6,14.075 13.6,12.35 Z M20.575,18 C19.825,17.725 18.925,17.475 18.05,17.15 C17.125,17.925 16.7,18.95 16.725,19.825 C16.75,21.275 17.9,22.4 20.475,22.4 C22.275,22.4 23.65,21.65 23.65,20.5 C23.65,19.05 22.25,18.575 20.575,18 Z M23.15,12.725 C23.15,11.55 22.1,10.6 20,10.6 C18.2,10.6 17.175,11.425 17.175,12.375 C17.175,13.875 18.7,14.35 20.375,14.9 C20.875,15.025 21.4,15.2 21.95,15.35 C22.75,14.55 23.175,13.55 23.15,12.725 Z M29.775,17.45 L39.075,17.45 L39.075,20.375 L29.775,20.375 L29.775,17.45 Z M41.725,9.45 C43.475,8.2 45.5,7.65 47.575,7.65 C51,7.65 53.775,9.2 53.775,12.675 C53.775,15.55 51.4,17.25 49.175,18.575 C47.15,19.775 45.425,20.7 45.4,21.8 L53.9,21.775 L53.9,25 L41.15,25 L41.15,23.325 C41.15,19.225 44.25,17.625 46.75,16.15 C48.525,15.125 50.05,14.45 50.05,12.825 C50.05,11.575 48.95,10.925 47.225,10.925 C45.525,10.925 43.525,11.575 41.725,12.95 L41.725,9.45 Z M56.7,12.35 C56.7,10.075 58.6,7.65 63.25,7.65 C67.575,7.65 69.825,10.075 69.85,12.45 C69.875,14.1 69.075,15.35 67.7,16.375 C69.25,17.15 70.475,18.35 70.475,20.4 C70.475,22.9 68.425,25.35 63.3,25.35 C58.225,25.35 56.075,22.875 56.075,20.275 C56.075,18.575 57.125,16.95 58.725,16 C57.55,15.2 56.7,14.075 56.7,12.35 Z M63.675,18 C62.925,17.725 62.025,17.475 61.15,17.15 C60.225,17.925 59.8,18.95 59.825,19.825 C59.85,21.275 61,22.4 63.575,22.4 C65.375,22.4 66.75,21.65 66.75,20.5 C66.75,19.05 65.35,18.575 63.675,18 Z M66.25,12.725 C66.25,11.55 65.2,10.6 63.1,10.6 C61.3,10.6 60.275,11.425 60.275,12.375 C60.275,13.875 61.8,14.35 63.475,14.9 C63.975,15.025 64.5,15.2 65.05,15.35 C65.85,14.55 66.275,13.55 66.25,12.725 Z M80.275,25 L76.4,25 L83.55,7.5 L87.6,7.5 L94.725,25 L90.85,25 L89.575,21.725 L81.575,21.725 L80.275,25 Z M85.175,12.35 L82.75,18.625 L88.4,18.625 L85.95,12.35 C85.825,12 85.7,11.65 85.575,10.975 C85.45,11.65 85.325,12 85.175,12.35 Z M95.275,19 C95.275,15.725 97.325,12.65 101.15,12.65 C103.35,12.65 104.725,13.675 105.5,14.75 L105.5,13 L108.55,13 L108.55,24.675 C108.55,29.25 105.175,30.85 101.65,30.85 C99.775,30.85 98.025,30.425 96.575,29.725 L96.575,26.675 C97.925,27.475 99.55,27.925 101.2,27.925 C103.325,27.925 105.1,27.2 105.1,24.825 L105.1,23.725 C104.325,24.575 103.05,25.35 101.15,25.35 C97.325,25.35 95.275,22.275 95.275,19 Z M105.1,17.575 C104.625,16.525 103.5,15.575 101.975,15.575 C100,15.575 98.825,17.125 98.825,19 C98.825,20.875 100,22.425 101.975,22.425 C103.5,22.425 104.625,21.5 105.1,20.5 L105.1,17.575 Z M105.45,10.65 C104.35,11.425 103.15,11.775 101.525,11.775 C99.9,11.775 98.725,11.425 97.625,10.65 L97.625,7.925 C98.95,8.75 100.175,9 101.525,9 C102.875,9 104.125,8.75 105.45,7.925 L105.45,10.65 Z M119.825,13 L123.3,13 L123.3,25 L120.225,25 L120.225,23.475 C119.3,24.55 117.925,25.35 116.225,25.35 C112.975,25.35 111.35,23.2 111.35,20.425 L111.35,13 L114.825,13 L114.825,19.975 C114.825,21.575 115.7,22.35 117.125,22.35 C118.375,22.35 119.3,21.55 119.825,20.825 L119.825,13 Z M125.725,16.35 C125.725,13.575 128.2,12.65 130.725,12.65 C132.425,12.65 133.925,13.075 135.15,13.675 L135.15,16.525 C134.125,15.825 132.375,15.3 130.95,15.3 C130.175,15.3 129.275,15.525 129.275,16.25 C129.275,18.25 136.05,17.25 136.05,21.65 C136.05,24.475 133.475,25.35 130.6,25.35 C128.775,25.35 127.05,24.95 125.825,24.225 L125.825,21.35 C127.125,22.2 128.95,22.625 130.4,22.625 C131.675,22.625 132.5,22.4 132.5,21.725 C132.5,19.8 125.725,20.65 125.725,16.35 Z M139.075,9.5 L142.525,8.675 L142.525,13 L146.325,13 L146.325,15.925 L142.525,15.925 L142.525,20.625 C142.525,21.875 143.15,22.425 144.45,22.425 C145.25,22.425 145.925,22.3 146.625,22.025 L146.625,24.825 C145.7,25.15 144.6,25.35 143.4,25.35 C141.075,25.35 139.075,24.275 139.075,21.3 L139.075,15.925 L137.05,15.925 L137.05,13 L139.075,13 L139.075,9.5 Z M147.95,19 C147.95,14.8 151.1,12.65 154.575,12.65 C158.075,12.65 161.2,14.8 161.2,19 C161.2,23.2 158.075,25.35 154.575,25.35 C151.1,25.35 147.95,23.2 147.95,19 Z M157.675,19 C157.675,17.15 156.575,15.75 154.575,15.75 C152.6,15.75 151.5,17.15 151.5,19 C151.5,20.85 152.6,22.25 154.575,22.25 C156.575,22.25 157.675,20.85 157.675,19 Z M162.95,16.35 C162.95,13.575 165.425,12.65 167.95,12.65 C169.65,12.65 171.15,13.075 172.375,13.675 L172.375,16.525 C171.35,15.825 169.6,15.3 168.175,15.3 C167.4,15.3 166.5,15.525 166.5,16.25 C166.5,18.25 173.275,17.25 173.275,21.65 C173.275,24.475 170.7,25.35 167.825,25.35 C166,25.35 164.275,24.95 163.05,24.225 L163.05,21.35 C164.35,22.2 166.175,22.625 167.625,22.625 C168.9,22.625 169.725,22.4 169.725,21.725 C169.725,19.8 162.95,20.65 162.95,16.35 Z" id="18-28-Ağustos"></path>
            </g>
        </g>
    </g>
</svg>