<?xml version="1.0" encoding="UTF-8"?>
<svg width="250px" height="291px" viewBox="0 0 250 291" version="1.1" xmlns="http://www.w3.org/2000/svg" xmlns:xlink="http://www.w3.org/1999/xlink">
    <!-- Generator: Sketch 48.2 (47327) - http://www.bohemiancoding.com/sketch -->
    <title>text_0</title>
    <desc>Created with Sketch.</desc>
    <defs>
        <radialGradient cx="100%" cy="100%" fx="100%" fy="100%" r="50.0301469%" gradientTransform="translate(1.000000,1.000000),translate(-1.000000,-1.000000)" id="radialGradient-1">
            <stop stop-color="#8800FF" offset="0%"></stop>
            <stop stop-color="#8600FB" offset="71.050849%"></stop>
            <stop stop-color="#EB00FE" offset="100%"></stop>
        </radialGradient>
    </defs>
    <g id="Page-1" stroke="none" stroke-width="1" fill="none" fill-rule="evenodd">
        <g id="text_0" transform="translate(-1.000000, -7.000000)">
            <path d="M125.534208,48.7629689 C133.711116,48.7630043 141.809466,49.5606594 149.829249,51.1559305 C157.849031,52.7512051 165.636136,55.1134456 173.190582,58.2426509 C180.745051,61.3718515 187.921705,65.2078968 194.720557,69.7507781 C201.519385,74.2936634 207.80975,79.4560958 213.591686,85.2380753 C219.373622,91.0200542 224.535985,97.3104899 229.078816,104.109372 C233.621648,110.908265 237.457622,118.08496 240.586764,125.639458 C243.715941,133.193974 246.078181,140.981143 247.673414,149.000966 C249.268642,157.020783 250.066241,165.119169 250.066241,173.296094 C250.066206,181.473078 249.268572,189.571493 247.673269,197.591345 C246.078041,205.611197 243.715802,213.398378 240.586549,220.952916 C237.457372,228.507449 233.621334,235.684162 229.078462,242.483043 C224.535595,249.28193 219.373157,255.572364 213.591151,261.354352 C207.80918,267.13634 201.518781,272.298762 194.719865,276.841645 C187.920978,281.384512 180.744289,285.220539 173.189785,288.349698 C165.635281,291.478892 157.848106,293.841098 149.828289,295.436348 C141.808455,297.031593 133.710069,297.82921 125.533126,297.82921 C117.356143,297.829175 109.257746,297.031523 101.237911,295.436238 C93.218059,293.840975 85.430861,291.478736 77.876322,288.349518 C70.321783,285.220324 63.145077,281.384285 56.34619,276.841413 C49.547297,272.298529 43.256863,267.136108 37.4748864,261.35412 C31.6929041,255.572155 26.5304769,249.281714 21.9876108,242.482834 C17.4447331,235.683947 13.6087116,228.507257 10.4795232,220.952736 C7.3503348,213.398232 4.988124,205.611075 3.3928848,197.591257 C1.7976225,189.571423 1,181.473037 1,173.296094 C1.0000291,165.119128 1.7976806,157.020731 3.3929546,149.000867 C4.9882286,140.981015 7.3504685,133.193829 10.4796744,125.639301 C13.6088802,118.084774 17.4449307,110.908062 21.9878143,104.109169 C26.530692,97.3102771 31.693125,91.0198327 37.4751074,85.2378532 C43.2570955,79.4558697 49.54753,74.2934419 56.346405,69.7505694 C63.145286,65.2076974 70.321999,61.3716695 77.876502,58.2424863 C85.431,55.1133037 93.218181,52.7510899 101.237998,51.1558462 C109.257815,49.5605977 117.356195,48.7629735 125.533126,48.7629735 L125.533022,104.802874 C121.03573,104.802903 116.581648,105.241612 112.170768,106.119019 C107.759883,106.996413 103.476984,108.295645 99.32202,110.016702 C95.167055,111.737771 91.219913,113.847601 87.480547,116.346188 C83.741187,118.844775 80.281486,121.684113 77.10142,124.864202 C73.921355,128.044291 71.082034,131.504033 68.583482,135.24341 C66.084925,138.982799 63.975123,142.929982 62.254083,147.084958 C60.533055,151.239934 59.233841,155.522874 58.356458,159.933789 C57.479104,164.344668 57.040424,168.798791 57.040407,173.296112 C57.040424,177.793432 57.479139,182.247573 58.356545,186.658487 C59.233928,191.069408 60.53316,195.352347 62.254223,199.507341 C63.975303,203.66234 66.085116,207.609523 68.583709,211.348918 C71.082302,215.088319 73.921639,218.548072 77.101723,221.728155 C80.281817,224.908238 83.741559,227.747576 87.480937,230.246169 C91.22032,232.744721 95.167497,234.85454 99.322479,236.575603 C103.477461,238.29666 107.7604,239.595892 112.171297,240.473281 C116.5822,241.350646 121.0363,241.789332 125.533621,241.789332 C130.030947,241.789314 134.485081,241.350611 138.896019,240.473228 C143.306916,239.595822 147.589873,238.29659 151.744873,236.57551 C155.899872,234.854453 159.847049,232.744634 163.58645,230.246041 C167.325827,227.747448 170.785569,224.908116 173.965664,221.728033 C177.145764,218.54795 179.985102,215.088208 182.483695,211.348813 C184.98227,207.609413 187.092083,203.662236 188.813129,199.507254 C190.534168,195.352272 191.8334,191.069332 192.710789,186.658435 C193.588172,182.24752 194.026857,177.793415 194.02684,173.296112 C194.026823,168.798791 193.588119,164.344651 192.710736,159.933736 C191.83333,155.522816 190.534099,151.239859 188.813018,147.084865 C187.091979,142.929871 184.982159,138.982683 182.483567,135.243294 C179.98498,131.503905 177.145625,128.044169 173.965542,124.86408 C170.785459,121.683985 167.325723,118.844659 163.586322,116.346078 C159.846927,113.847491 155.899744,111.737678 151.744762,110.016626 C147.589786,108.295575 143.306846,106.996349 138.895961,106.11896 C134.485047,105.241577 130.030947,104.802886 125.533621,104.802886 L125.534208,48.7629689 Z" id="Fill-8" fill="url(#radialGradient-1)" fill-rule="nonzero"></path>
            <circle id="Oval" fill="#FFFFFF" fill-rule="nonzero" cx="126.65842" cy="174.421389" r="87.3982442"></circle>
            <path d="M80.810425,200.478404 L78.486607,200.478404 L78.486607,197.335968 C76.532487,197.124712 74.683996,196.596571 73.205202,195.777954 L73.205202,192.820367 C75.238543,194.114311 77.615175,194.642452 79.727737,194.642452 C82.104369,194.642452 83.715198,194.087904 83.715198,192.345041 C83.715198,188.067103 73.284423,190.338107 73.284423,183.789165 C73.284423,180.778764 75.581835,179.167936 78.486607,178.824644 L78.486607,175.655802 L80.810425,175.655802 L80.810425,178.798237 C82.579696,178.930273 84.348966,179.405599 85.590097,180.144996 L85.590097,183.023361 C84.084896,182.019894 82.025148,181.465347 80.044622,181.491754 C77.800025,181.491754 76.347638,182.151929 76.347638,183.736351 C76.347638,187.723811 86.778413,185.584843 86.778413,192.186598 C86.778413,195.751547 84.111303,197.177526 80.810425,197.362375 L80.810425,200.478404 Z M88.943789,188.067103 C88.943789,182.812105 91.426049,178.745423 96.997931,178.745423 C102.569813,178.745423 105.052073,182.812105 105.052073,188.067103 C105.052073,193.3221 102.569813,197.388782 96.997931,197.388782 C91.426049,197.388782 88.943789,193.3221 88.943789,188.067103 Z M102.015265,188.067103 C102.015265,183.894793 100.430844,181.491754 96.997931,181.491754 C93.538611,181.491754 91.980596,183.894793 91.980596,188.067103 C91.980596,192.239413 93.538611,194.642452 96.997931,194.642452 C100.430844,194.642452 102.015265,192.239413 102.015265,188.067103 Z M111.152095,195.593105 C111.152095,196.781421 110.333478,197.335968 109.382825,197.335968 C108.432172,197.335968 107.587147,196.781421 107.587147,195.593105 C107.587147,194.457602 108.432172,193.903055 109.382825,193.903055 C110.333478,193.903055 111.152095,194.457602 111.152095,195.593105 Z M113.68717,188.067103 C113.68717,182.812105 116.16943,178.745423 121.741312,178.745423 C127.313194,178.745423 129.795454,182.812105 129.795454,188.067103 C129.795454,193.3221 127.313194,197.388782 121.741312,197.388782 C116.16943,197.388782 113.68717,193.3221 113.68717,188.067103 Z M126.758646,188.067103 C126.758646,183.894793 125.174225,181.491754 121.741312,181.491754 C118.281992,181.491754 116.723977,183.894793 116.723977,188.067103 C116.723977,192.239413 118.281992,194.642452 121.741312,194.642452 C125.174225,194.642452 126.758646,192.239413 126.758646,188.067103 Z M132.805855,180.567508 C134.654347,179.299971 136.687687,178.745423 138.773842,178.745423 C142.418012,178.745423 145.085121,180.435473 145.085121,183.789165 C145.085121,186.825973 142.550047,188.62165 140.1206,190.074037 C137.796782,191.447202 135.604999,192.556297 135.578592,194.351974 L145.217156,194.325567 L145.217156,197.045491 L132.198493,197.045491 L132.198493,195.672326 C132.198493,191.28876 135.446557,189.625117 138.166481,188.014289 C140.252636,186.799566 142.07472,185.87532 142.07472,183.841979 C142.07472,182.283965 140.727962,181.465347 138.509772,181.465347 C136.687687,181.465347 134.707161,182.099115 132.805855,183.472281 L132.805855,180.567508 Z M148.940546,179.088715 L160.005089,179.088715 L160.005089,181.782231 L151.713284,181.782231 L151.449214,186.112983 C152.320645,185.901727 153.244891,185.796099 154.169137,185.796099 C157.628457,185.796099 160.850114,187.301299 160.850114,191.526423 C160.850114,195.408255 157.549236,197.388782 153.588183,197.388782 C151.502028,197.388782 149.415873,196.939863 147.831451,196.174059 L147.831451,193.348508 C149.336652,194.219939 151.369993,194.668859 153.244891,194.668859 C155.912001,194.668859 157.813306,193.612578 157.813306,191.500016 C157.813306,189.123384 155.779966,188.278359 152.928007,188.278359 C151.475621,188.278359 149.811978,188.568836 148.359592,189.07057 L148.940546,179.088715 Z M163.200339,188.067103 C163.200339,182.812105 165.682599,178.745423 171.254481,178.745423 C176.826363,178.745423 179.308624,182.812105 179.308624,188.067103 C179.308624,193.3221 176.826363,197.388782 171.254481,197.388782 C165.682599,197.388782 163.200339,193.3221 163.200339,188.067103 Z M176.271816,188.067103 C176.271816,183.894793 174.687395,181.491754 171.254481,181.491754 C167.795161,181.491754 166.237147,183.894793 166.237147,188.067103 C166.237147,192.239413 167.795161,194.642452 171.254481,194.642452 C174.687395,194.642452 176.271816,192.239413 176.271816,188.067103 Z M91.663712,211.088715 L93.881902,211.088715 L93.881902,226.325567 L97.077152,226.325567 L97.077152,229.045491 L87.306553,229.045491 L87.306553,226.325567 L90.897908,226.325567 L90.897908,214.178336 L87.306553,215.525095 L87.306553,212.752357 L91.663712,211.088715 Z M122.903221,210.560574 L125.623144,210.560574 L125.623144,229.045491 L122.612744,229.045491 L122.612744,216.106049 L116.776791,224.873181 L114.981114,224.873181 L109.145162,216.079642 L109.145162,229.045491 L106.134761,229.045491 L106.134761,210.560574 L108.854684,210.560574 L115.878953,221.149791 L122.903221,210.560574 Z M133.122739,229.045491 L130.112338,229.045491 L130.112338,210.560574 L132.93789,210.560574 L142.893338,224.08097 C142.866931,223.447202 142.866931,222.734212 142.866931,222.04763 L142.866931,210.560574 L145.877332,210.560574 L145.877332,229.045491 L143.05178,229.045491 L133.096332,215.525095 C133.122739,216.158863 133.122739,216.871853 133.122739,217.532028 L133.122739,229.045491 Z M153.376926,229.045491 L150.366526,229.045491 L150.366526,210.560574 L157.760492,210.560574 C161.219812,210.560574 164.863982,211.933739 164.863982,216.343712 C164.863982,219.64459 162.804234,221.229012 160.374788,221.809966 L166.289961,229.045491 L162.672199,229.045491 L157.126724,222.126851 L153.376926,222.126851 L153.376926,229.045491 Z M153.376926,213.306905 L153.376926,219.459741 L157.892527,219.459741 C159.873054,219.459741 161.800767,218.746752 161.800767,216.396526 C161.800767,214.019894 159.873054,213.306905 157.892527,213.306905 L153.376926,213.306905 Z" id="$0.0250-1-MNR" fill="#6202E1" fill-rule="nonzero"></path>
            <path d="M97.942498,110.251 L110.847498,110.251 L110.847498,114.746 L102.756498,114.717 L102.553498,117.617 C103.278498,117.501 104.003498,117.443 104.670498,117.443 C108.701498,117.443 111.717498,119.27 111.717498,123.707 C111.717498,128.579 107.396498,130.435 102.988498,130.435 C100.697498,130.435 98.406498,129.942 96.637498,129.101 L96.637498,124.171 C98.174498,125.244 100.494498,125.795 102.408498,125.795 C104.641498,125.795 106.352498,125.128 106.352498,123.591 C106.352498,122.344 105.337498,121.387 102.118498,121.358 C100.871498,121.358 99.073498,121.532 97.246498,122.17 L97.942498,110.251 Z M113.863498,120.14 C113.863498,114.514 116.560498,109.845 122.998498,109.845 C129.436498,109.845 132.133498,114.514 132.133498,120.14 C132.133498,125.766 129.436498,130.435 122.998498,130.435 C116.560498,130.435 113.863498,125.766 113.863498,120.14 Z M126.768498,120.14 C126.768498,116.341 125.579498,114.485 122.998498,114.485 C120.417498,114.485 119.228498,116.341 119.228498,120.14 C119.228498,123.939 120.417498,125.795 122.998498,125.795 C125.579498,125.795 126.768498,123.939 126.768498,120.14 Z M142.544498,131.74 L139.354498,131.74 L151.215498,107.96 L154.405498,107.96 L142.544498,131.74 Z M145.096498,114.485 C145.096498,117.965 142.544498,119.705 139.586498,119.705 C136.599498,119.705 134.047498,117.965 134.047498,114.485 C134.047498,111.005 136.599498,109.265 139.586498,109.265 C142.544498,109.265 145.096498,111.005 145.096498,114.485 Z M137.875498,114.485 C137.875498,115.355 138.339498,116.225 139.586498,116.225 C140.804498,116.225 141.268498,115.355 141.268498,114.485 C141.268498,113.615 140.804498,112.745 139.586498,112.745 C138.339498,112.745 137.875498,113.615 137.875498,114.485 Z M159.596498,125.215 C159.596498,128.695 157.044498,130.435 154.086498,130.435 C151.099498,130.435 148.547498,128.695 148.547498,125.215 C148.547498,121.735 151.099498,119.995 154.086498,119.995 C157.044498,119.995 159.596498,121.735 159.596498,125.215 Z M152.375498,125.215 C152.375498,126.085 152.839498,126.955 154.086498,126.955 C155.304498,126.955 155.768498,126.085 155.768498,125.215 C155.768498,124.345 155.304498,123.475 154.086498,123.475 C152.839498,123.475 152.375498,124.345 152.375498,125.215 Z" id="50%" fill="#6202E1" fill-rule="nonzero"></path>
            <g id="discount" transform="translate(0.000000, 136.000000)" fill="#000000">
                <path d="M92.61,23 L89.413,23 L89.413,11.96 L92.61,11.96 L92.61,23 Z M92.886,8.303 C92.886,9.568 92.012,10.12 91,10.12 C90.011,10.12 89.137,9.568 89.137,8.303 C89.137,7.061 90.011,6.509 91,6.509 C92.012,6.509 92.886,7.061 92.886,8.303 Z M98.199,13.363 C99.05,12.374 100.292,11.638 101.879,11.638 C104.777,11.638 106.364,13.616 106.364,16.169 L106.364,23 L103.167,23 L103.167,16.583 C103.167,15.088 102.27,14.398 101.028,14.398 C99.901,14.398 99.027,15.134 98.567,15.801 L98.567,23 L95.37,23 L95.37,11.96 L98.199,11.96 L98.199,13.363 Z M117.358,6.9 L120.532,6.9 L120.532,23 L117.726,23 L117.726,21.39 C117.013,22.379 115.748,23.322 113.724,23.322 C110.205,23.322 108.319,20.493 108.319,17.48 C108.319,14.467 110.205,11.638 113.724,11.638 C115.472,11.638 116.645,12.351 117.358,13.133 L117.358,6.9 Z M117.358,16.169 C116.921,15.203 115.886,14.329 114.483,14.329 C112.666,14.329 111.585,15.755 111.585,17.48 C111.585,19.205 112.666,20.631 114.483,20.631 C115.886,20.631 116.921,19.757 117.358,18.791 L117.358,16.169 Z M126.466,23 L123.269,23 L123.269,11.96 L126.466,11.96 L126.466,23 Z M126.742,8.303 C126.742,9.568 125.868,10.12 124.856,10.12 C123.867,10.12 122.993,9.568 122.993,8.303 C122.993,7.061 123.867,6.509 124.856,6.509 C125.868,6.509 126.742,7.061 126.742,8.303 Z M132.055,13.616 C132.837,12.397 134.447,11.523 136.517,11.73 L136.517,14.835 C134.769,14.536 133.09,15.203 132.423,16.514 L132.423,23 L129.226,23 L129.226,11.96 L132.055,11.96 L132.055,13.616 Z M141.439,23 L138.242,23 L138.242,11.96 L141.439,11.96 L141.439,23 Z M141.715,8.303 C141.715,9.568 140.841,10.12 139.829,10.12 C138.84,10.12 137.966,9.568 137.966,8.303 C137.966,7.061 138.84,6.509 139.829,6.509 C140.841,6.509 141.715,7.061 141.715,8.303 Z M147.396,23 L144.199,23 L144.199,11.96 L147.028,11.96 L147.028,13.248 C147.603,12.558 148.868,11.638 150.547,11.638 C152.203,11.638 153.284,12.328 153.928,13.271 C154.848,12.374 156.09,11.638 157.608,11.638 C160.713,11.638 161.725,14.053 161.725,16.008 L161.725,23 L158.551,23 L158.551,16.215 C158.551,15.065 157.838,14.398 156.826,14.398 C155.952,14.398 155.17,14.904 154.641,15.502 C154.664,15.663 154.664,15.824 154.664,16.008 L154.664,23 L151.49,23 L151.49,16.215 C151.49,15.065 150.777,14.398 149.765,14.398 C148.799,14.398 147.925,15.042 147.396,15.732 L147.396,23 Z" id="indirim"></path>
            </g>
            <g id="10-Mei---10-Juni" transform="translate(2.000000, 0.000000)" fill="#000000">
                <path d="M5.4,8 L8.125,8 L8.125,21.775 L10.975,21.775 L10.975,25 L1.275,25 L1.275,21.775 L4.475,21.775 L4.475,11.75 L1.275,12.95 L1.275,9.575 L5.4,8 Z M12.6,16.5 C12.6,11.6 14.925,7.65 20.35,7.65 C25.775,7.65 28.1,11.6 28.1,16.5 C28.1,21.4 25.775,25.35 20.35,25.35 C14.925,25.35 12.6,21.4 12.6,16.5 Z M24.35,16.5 C24.35,12.875 23.1,10.95 20.35,10.95 C17.6,10.95 16.35,12.875 16.35,16.5 C16.35,20.125 17.6,22.05 20.35,22.05 C23.1,22.05 24.35,20.125 24.35,16.5 Z M52.05,7.5 L55.525,7.5 L55.525,25 L51.775,25 L51.775,14.225 L47.15,21.25 L44.975,21.25 L40.35,14.2 L40.35,25 L36.6,25 L36.6,7.5 L40.075,7.5 L46.075,16.6 L52.05,7.5 Z M69.4,21.9 C69.4,22.525 69.8,22.7 70.25,22.7 C70.45,22.7 70.675,22.675 70.9,22.6 L70.9,24.875 C70.35,25.075 69.65,25.225 68.975,25.225 C67.75,25.225 66.825,24.775 66.325,23.875 C65.15,24.8 63.775,25.35 62,25.35 C59.75,25.35 57.8,24.05 57.8,21.675 C57.8,18.625 60.675,17.675 63.075,17.675 C64.025,17.675 65.075,17.8 65.925,18 L65.925,17.575 C65.925,16.375 64.975,15.55 63.1,15.55 C61.45,15.55 59.975,16 58.85,16.45 L58.85,13.45 C59.825,13.125 61.65,12.65 63.5,12.65 C67.1,12.65 69.4,14.125 69.4,18.075 L69.4,21.9 Z M63.875,19.75 C62.6,19.75 61.35,20.175 61.35,21.4 C61.35,22.3 62.175,22.875 63.225,22.875 C64.2,22.875 65.125,22.6 65.925,21.9 L65.925,20.025 C65.4,19.9 64.6,19.75 63.875,19.75 Z M77.55,21.1 L80.525,13 L84.125,13 L78.8,26.45 C77.45,29.8 75.575,30.825 73.625,30.825 C73,30.825 72.375,30.7 71.75,30.55 L71.75,27.675 C72.225,27.775 72.7,27.85 73.175,27.85 C74.425,27.85 75.375,27 76.025,25.225 L76.05,25.175 L70.375,13 L74.05,13 L77.55,21.1 Z M85.9,13 L89.375,13 L89.375,25 L85.9,25 L85.9,13 Z M91.85,16.35 C91.85,13.575 94.325,12.65 96.85,12.65 C98.55,12.65 100.05,13.075 101.275,13.675 L101.275,16.525 C100.25,15.825 98.5,15.3 97.075,15.3 C96.3,15.3 95.4,15.525 95.4,16.25 C95.4,18.25 102.175,17.25 102.175,21.65 C102.175,24.475 99.6,25.35 96.725,25.35 C94.9,25.35 93.175,24.95 91.95,24.225 L91.95,21.35 C93.25,22.2 95.075,22.625 96.525,22.625 C97.8,22.625 98.625,22.4 98.625,21.725 C98.625,19.8 91.85,20.65 91.85,16.35 Z M109.75,17.45 L119.05,17.45 L119.05,20.375 L109.75,20.375 L109.75,17.45 Z M131.375,8 L134.1,8 L134.1,21.775 L136.95,21.775 L136.95,25 L127.25,25 L127.25,21.775 L130.45,21.775 L130.45,11.75 L127.25,12.95 L127.25,9.575 L131.375,8 Z M138.575,16.5 C138.575,11.6 140.9,7.65 146.325,7.65 C151.75,7.65 154.075,11.6 154.075,16.5 C154.075,21.4 151.75,25.35 146.325,25.35 C140.9,25.35 138.575,21.4 138.575,16.5 Z M150.325,16.5 C150.325,12.875 149.075,10.95 146.325,10.95 C143.575,10.95 142.325,12.875 142.325,16.5 C142.325,20.125 143.575,22.05 146.325,22.05 C149.075,22.05 150.325,20.125 150.325,16.5 Z M174.175,7.5 L177.925,7.5 L177.925,25 L174.175,25 L174.175,17.95 L166.325,17.95 L166.325,25 L162.575,25 L162.575,7.5 L166.325,7.5 L166.325,14.55 L174.175,14.55 L174.175,7.5 Z M191.8,21.9 C191.8,22.525 192.2,22.7 192.65,22.7 C192.85,22.7 193.075,22.675 193.3,22.6 L193.3,24.875 C192.75,25.075 192.05,25.225 191.375,25.225 C190.15,25.225 189.225,24.775 188.725,23.875 C187.55,24.8 186.175,25.35 184.4,25.35 C182.15,25.35 180.2,24.05 180.2,21.675 C180.2,18.625 183.075,17.675 185.475,17.675 C186.425,17.675 187.475,17.8 188.325,18 L188.325,17.575 C188.325,16.375 187.375,15.55 185.5,15.55 C183.85,15.55 182.375,16 181.25,16.45 L181.25,13.45 C182.225,13.125 184.05,12.65 185.9,12.65 C189.5,12.65 191.8,14.125 191.8,18.075 L191.8,21.9 Z M186.275,19.75 C185,19.75 183.75,20.175 183.75,21.4 C183.75,22.3 184.575,22.875 185.625,22.875 C186.6,22.875 187.525,22.6 188.325,21.9 L188.325,20.025 C187.8,19.9 187,19.75 186.275,19.75 Z M194.575,13 L204.35,13 L204.35,15.25 L198.725,22.1 L204.75,22.1 L204.75,25 L194.25,25 L194.25,22.75 L199.875,15.875 L194.575,15.875 L194.575,13 Z M210.5,25 L207.025,25 L207.025,13 L210.5,13 L210.5,25 Z M210.8,9.025 C210.8,10.4 209.85,11 208.75,11 C207.675,11 206.725,10.4 206.725,9.025 C206.725,7.675 207.675,7.075 208.75,7.075 C209.85,7.075 210.8,7.675 210.8,9.025 Z M216.575,14.8 C217.425,13.475 219.175,12.525 221.425,12.75 L221.425,16.125 C219.525,15.8 217.7,16.525 216.975,17.95 L216.975,25 L213.5,25 L213.5,13 L216.575,13 L216.575,14.8 Z M233.85,21.9 C233.85,22.525 234.25,22.7 234.7,22.7 C234.9,22.7 235.125,22.675 235.35,22.6 L235.35,24.875 C234.8,25.075 234.1,25.225 233.425,25.225 C232.2,25.225 231.275,24.775 230.775,23.875 C229.6,24.8 228.225,25.35 226.45,25.35 C224.2,25.35 222.25,24.05 222.25,21.675 C222.25,18.625 225.125,17.675 227.525,17.675 C228.475,17.675 229.525,17.8 230.375,18 L230.375,17.575 C230.375,16.375 229.425,15.55 227.55,15.55 C225.9,15.55 224.425,16 223.3,16.45 L223.3,13.45 C224.275,13.125 226.1,12.65 227.95,12.65 C231.55,12.65 233.85,14.125 233.85,18.075 L233.85,21.9 Z M228.325,19.75 C227.05,19.75 225.8,20.175 225.8,21.4 C225.8,22.3 226.625,22.875 227.675,22.875 C228.65,22.875 229.575,22.6 230.375,21.9 L230.375,20.025 C229.85,19.9 229.05,19.75 228.325,19.75 Z M240.075,14.525 C241,13.45 242.35,12.65 244.075,12.65 C247.225,12.65 248.95,14.8 248.95,17.575 L248.95,25 L245.475,25 L245.475,18.025 C245.475,16.4 244.5,15.65 243.15,15.65 C241.925,15.65 240.975,16.45 240.475,17.175 L240.475,25 L237,25 L237,13 L240.075,13 L240.075,14.525 Z" id="10-Mayıs---10-Hazira"></path>
            </g>
        </g>
    </g>
</svg>