<?xml version="1.0" encoding="UTF-8"?>
<svg width="250px" height="293px" viewBox="0 0 250 293" version="1.1" xmlns="http://www.w3.org/2000/svg" xmlns:xlink="http://www.w3.org/1999/xlink">
    <!-- Generator: Sketch 48.2 (47327) - http://www.bohemiancoding.com/sketch -->
    <title>text_4</title>
    <desc>Created with Sketch.</desc>
    <defs>
        <radialGradient cx="400%" cy="400%" fx="400%" fy="400%" r="100.47898%" gradientTransform="translate(4.000000,4.000000),scale(1.000000,0.999999),translate(-4.000000,-4.000000)" id="radialGradient-1">
            <stop stop-color="#8D00FF" offset="0%"></stop>
            <stop stop-color="#5C00FE" offset="69.8959662%"></stop>
            <stop stop-color="#8900FF" offset="100%"></stop>
        </radialGradient>
        <radialGradient cx="50%" cy="50%" fx="50%" fy="50%" r="50.0253367%" id="radialGradient-2">
            <stop stop-color="#FF9495" offset="0%"></stop>
            <stop stop-color="#FE5F60" offset="70.3742825%"></stop>
            <stop stop-color="#FF9091" offset="100%"></stop>
        </radialGradient>
    </defs>
    <g id="Page-1" stroke="none" stroke-width="1" fill="none" fill-rule="evenodd">
        <g id="text_4" transform="translate(0.000000, -6.000000)">
            <g id="4-copy" transform="translate(0.000000, 48.000000)" fill-rule="nonzero">
                <g id="Group-Copy-3" transform="translate(0.545890, 0.588188)">
                    <g id="Group-3" transform="translate(0.000000, 0.762969)">
                        <g id="Group-8">
                            <path d="M0,125.013369 C2.91814549e-05,116.804853 0.800756631,108.675226 2.40218235,100.624437 C4.00360807,92.5736583 6.37495729,84.7564426 9.51623002,77.1727836 C12.6575028,69.5891246 16.5083459,62.384737 21.0687478,55.5596266 C25.6291439,48.7345168 30.8114843,42.4198151 36.6157632,36.6155391 C42.420048,30.811259 48.7347397,25.6289238 55.5598326,21.068533 C62.3849314,16.5081428 69.589319,12.6573224 77.1729546,9.51607244 C84.7565844,6.37482306 92.5737943,4.0035001 100.624537,2.40210473 C108.675281,0.800704688 116.804785,0 125.013248,0 L125.013248,56.256007 C120.498614,56.2560362 116.027356,56.6964369 111.599467,57.5772266 C107.171572,58.4580046 102.872157,59.7622464 98.7011703,61.4899402 C94.5301832,63.2176458 90.5678202,65.3356124 86.8140346,67.8438344 C83.0602548,70.3520563 79.5872123,73.2023432 76.3948837,76.3946952 C73.2025551,79.5870471 70.3522856,83.0601305 67.8440987,86.8139278 C65.335906,90.5677368 63.2179685,94.5301406 61.4902922,98.7011394 C59.7626275,102.872138 58.4584032,107.171594 57.5776369,111.599518 C56.6968997,116.027406 56.2565282,120.498706 56.2565107,125.013369 L0,125.013369 Z" id="Fill-8" fill="url(#radialGradient-1)"></path>
                            <path d="M124.740231,0 C132.917139,3.54646161e-05 140.809466,0.797690493 148.829249,2.3929616 C156.849031,3.98823619 164.636136,6.35047671 172.190582,9.47968199 C179.745051,12.6088826 186.921705,16.4449279 193.720557,20.9878092 C200.519385,25.5306945 206.80975,30.693127 212.591686,36.4751065 C218.373622,42.2570854 223.535985,48.5475211 228.078816,55.3464036 C232.621648,62.1452961 236.457622,69.3219914 239.586764,76.8764895 C242.715941,84.431005 245.078181,92.2181743 246.673414,100.237997 C248.268642,108.257814 249.066241,116.3562 249.066241,124.533125 C249.066206,132.710109 248.268572,140.808524 246.673269,148.828376 C245.078041,156.848228 242.715802,164.635409 239.586549,172.189947 C236.457372,179.74448 232.621334,186.921193 228.078462,193.720074 C223.535595,200.518961 218.373157,206.809395 212.591151,212.591383 C206.80918,218.373372 200.518781,223.535793 193.719865,228.078677 C186.920978,232.621543 179.744289,236.45757 172.189785,239.586729 C164.635281,242.715924 156.848106,245.078129 148.828289,246.673379 C140.808455,248.268624 132.710069,249.066241 124.533126,249.066241 C116.356143,249.066206 108.257746,248.268555 100.237911,246.673269 C92.2180591,245.078007 84.4308608,242.715767 76.8763221,239.586549 C69.3217834,236.457355 62.1450765,232.621316 55.3461899,228.078444 C48.5472975,223.53556 42.256863,218.373139 36.4748864,212.591151 C30.6929041,206.809186 25.5304769,200.518746 20.9876108,193.719865 C16.4447331,186.920978 12.6087116,179.744289 9.4795232,172.189767 C6.3503348,164.635263 3.98812395,156.848106 2.39288484,148.828289 C0.797622465,140.808454 5.00693342e-16,132.710068 0,124.533125 C0,124.533122 18.6801356,124.533128 56.0404068,124.533143 C56.0404243,129.030463 56.479139,133.484604 57.3565452,137.895518 C58.2339282,142.306439 59.5331599,146.589378 61.2542228,150.744372 C62.9753032,154.899372 65.0851164,158.846554 67.5837091,162.585949 C70.0823017,166.32535 72.9216395,169.785103 76.1017226,172.965187 C79.2818172,176.14527 82.7415591,178.984607 86.4809366,181.4832 C90.2203198,183.981752 94.1674967,186.091571 98.3224788,187.812634 C102.477461,189.533691 106.7604,190.832923 111.171297,191.710312 C115.5822,192.587677 120.0363,193.026363 124.533621,193.026363 C129.030947,193.026345 133.485081,192.587642 137.896019,191.710259 C142.306916,190.832853 146.589873,189.533621 150.744873,187.812541 C154.899872,186.091484 158.847049,183.981665 162.58645,181.483072 C166.325827,178.98448 169.785569,176.145147 172.965664,172.965064 C176.145764,169.784981 178.985102,166.325239 181.483695,162.585845 C183.98227,158.846444 186.092083,154.899267 187.813129,150.744285 C189.534168,146.589303 190.8334,142.306363 191.710789,137.895466 C192.588172,133.484552 193.026857,129.030446 193.02684,124.533143 C193.026823,120.035823 192.588119,115.581682 191.710736,111.170767 C190.83333,106.759847 189.534099,102.47689 187.813018,98.3218963 C186.091979,94.1669026 183.982159,90.2197141 181.483567,86.480325 C178.98498,82.7409359 176.145625,79.2811998 172.965542,76.1011109 C169.785459,72.9210162 166.325723,70.08169 162.586322,67.583109 C158.846927,65.0845221 154.899744,62.9747088 150.744762,61.2536575 C146.589786,59.5326062 142.306846,58.2333804 137.895961,57.3559916 C133.485047,56.4786086 129.030947,56.0399171 124.533621,56.0399171 L124.740231,0 Z" id="Fill-8" fill="url(#radialGradient-2)"></path>
                        </g>
                    </g>
                    <circle id="Oval" fill="#FFFFFF" cx="124.90822" cy="125.671189" r="87.3982442"></circle>
                    <path d="M80.636845,151.728204 L78.3130269,151.728204 L78.3130269,148.585769 C76.3589072,148.374512 74.5104155,147.846372 73.0316222,147.027754 L73.0316222,144.070168 C75.064963,145.364112 77.4415951,145.892252 79.554157,145.892252 C81.9307892,145.892252 83.5416176,145.337705 83.5416176,143.594841 C83.5416176,139.316903 73.1108433,141.587907 73.1108433,135.038965 C73.1108433,132.028565 75.4082543,130.417736 78.3130269,130.074445 L78.3130269,126.905602 L80.636845,126.905602 L80.636845,130.048038 C82.4061156,130.180073 84.1753862,130.655399 85.4165163,131.394796 L85.4165163,134.273162 C83.911316,133.269695 81.8515681,132.715147 79.8710413,132.741554 C77.6264443,132.741554 76.174058,133.40173 76.174058,134.986151 C76.174058,138.973612 86.6048324,136.834643 86.6048324,143.436399 C86.6048324,147.001347 83.937723,148.427326 80.636845,148.612176 L80.636845,151.728204 Z M88.7702083,139.316903 C88.7702083,134.061906 91.2524685,129.995224 96.8243505,129.995224 C102.396233,129.995224 104.878493,134.061906 104.878493,139.316903 C104.878493,144.571901 102.396233,148.638583 96.8243505,148.638583 C91.2524685,148.638583 88.7702083,144.571901 88.7702083,139.316903 Z M101.841685,139.316903 C101.841685,135.144593 100.257264,132.741554 96.8243505,132.741554 C93.3650304,132.741554 91.807016,135.144593 91.807016,139.316903 C91.807016,143.489213 93.3650304,145.892252 96.8243505,145.892252 C100.257264,145.892252 101.841685,143.489213 101.841685,139.316903 Z M110.978515,146.842905 C110.978515,148.031221 110.159898,148.585769 109.209245,148.585769 C108.258592,148.585769 107.413567,148.031221 107.413567,146.842905 C107.413567,145.707403 108.258592,145.152855 109.209245,145.152855 C110.159898,145.152855 110.978515,145.707403 110.978515,146.842905 Z M113.51359,139.316903 C113.51359,134.061906 115.99585,129.995224 121.567732,129.995224 C127.139614,129.995224 129.621874,134.061906 129.621874,139.316903 C129.621874,144.571901 127.139614,148.638583 121.567732,148.638583 C115.99585,148.638583 113.51359,144.571901 113.51359,139.316903 Z M126.585066,139.316903 C126.585066,135.144593 125.000645,132.741554 121.567732,132.741554 C118.108412,132.741554 116.550397,135.144593 116.550397,139.316903 C116.550397,143.489213 118.108412,145.892252 121.567732,145.892252 C125.000645,145.892252 126.585066,143.489213 126.585066,139.316903 Z M141.082522,130.338515 L144.172144,130.338515 L144.172144,142.01042 L147.261766,142.01042 L147.261766,144.624715 L144.172144,144.624715 L144.172144,148.295291 L141.267371,148.295291 L141.267371,144.624715 L131.52318,144.624715 L131.52318,142.063234 L141.082522,130.338515 Z M141.267371,142.01042 L141.267371,134.167534 L134.876872,142.01042 L141.267371,142.01042 Z M148.714152,130.338515 L162.049699,130.338515 L162.049699,132.715147 L154.602918,148.295291 L151.354855,148.295291 L158.643193,133.032032 L148.714152,133.032032 L148.714152,130.338515 Z M165.007286,130.338515 L176.071829,130.338515 L176.071829,133.032032 L167.780023,133.032032 L167.515953,137.362783 C168.387385,137.151527 169.311631,137.045899 170.235876,137.045899 C173.695197,137.045899 176.916853,138.5511 176.916853,142.776223 C176.916853,146.658056 173.615976,148.638583 169.654922,148.638583 C167.568767,148.638583 165.482612,148.189663 163.898191,147.42386 L163.898191,144.598308 C165.403391,145.46974 167.436732,145.918659 169.311631,145.918659 C171.97874,145.918659 173.880046,144.862378 173.880046,142.749816 C173.880046,140.373184 171.846705,139.528159 168.994746,139.528159 C167.54236,139.528159 165.878718,139.818637 164.426331,140.32037 L165.007286,130.338515 Z M90.2886122,162.338515 L92.5068022,162.338515 L92.5068022,177.575368 L95.702052,177.575368 L95.702052,180.295291 L85.9314533,180.295291 L85.9314533,177.575368 L89.5228085,177.575368 L89.5228085,165.428137 L85.9314533,166.774895 L85.9314533,164.002158 L90.2886122,162.338515 Z M121.528121,161.810375 L124.248045,161.810375 L124.248045,180.295291 L121.237644,180.295291 L121.237644,167.35585 L115.401692,176.122982 L113.606014,176.122982 L107.770062,167.329443 L107.770062,180.295291 L104.759661,180.295291 L104.759661,161.810375 L107.479585,161.810375 L114.503853,172.399591 L121.528121,161.810375 Z M131.747639,180.295291 L128.737239,180.295291 L128.737239,161.810375 L131.56279,161.810375 L141.518238,175.330771 C141.491831,174.697002 141.491831,173.984013 141.491831,173.29743 L141.491831,161.810375 L144.502232,161.810375 L144.502232,180.295291 L141.67668,180.295291 L131.721232,166.774895 C131.747639,167.408664 131.747639,168.121653 131.747639,168.781829 L131.747639,180.295291 Z M152.001827,180.295291 L148.991426,180.295291 L148.991426,161.810375 L156.385393,161.810375 C159.844713,161.810375 163.488882,163.18354 163.488882,167.593513 C163.488882,170.894391 161.429134,172.478812 158.999688,173.059767 L164.914861,180.295291 L161.297099,180.295291 L155.751624,173.376651 L152.001827,173.376651 L152.001827,180.295291 Z M152.001827,164.556705 L152.001827,170.709542 L156.517428,170.709542 C158.497954,170.709542 160.425667,169.996552 160.425667,167.646327 C160.425667,165.269695 158.497954,164.556705 156.517428,164.556705 L152.001827,164.556705 Z" id="$0.0475-1-MNR" fill="#131F3C"></path>
                </g>
            </g>
            <path d="M106.882121,115.928629 L119.344324,115.928629 L119.344324,120.269397 L111.530943,120.241392 L111.334908,123.041887 C112.035032,122.929867 112.735156,122.873857 113.37927,122.873857 C117.271958,122.873857 120.184472,124.638169 120.184472,128.922926 C120.184472,133.627757 116.011735,135.420074 111.754983,135.420074 C109.542592,135.420074 107.330201,134.94399 105.621899,134.131847 L105.621899,129.371005 C107.106161,130.407188 109.346557,130.939282 111.194884,130.939282 C113.351265,130.939282 115.003557,130.295168 115.003557,128.810906 C115.003557,127.606693 114.023384,126.68253 110.914834,126.654525 C109.710621,126.654525 107.974314,126.822555 106.210003,127.438664 L106.882121,115.928629 Z M130.126229,136.680297 L127.045685,136.680297 L138.499709,113.716238 L141.580254,113.716238 L130.126229,136.680297 Z M132.590665,120.017352 C132.590665,123.377946 130.126229,125.058243 127.269725,125.058243 C124.385215,125.058243 121.920779,123.377946 121.920779,120.017352 C121.920779,116.656758 124.385215,114.976461 127.269725,114.976461 C130.126229,114.976461 132.590665,116.656758 132.590665,120.017352 Z M125.617433,120.017352 C125.617433,120.857501 126.065512,121.697649 127.269725,121.697649 C128.445933,121.697649 128.894012,120.857501 128.894012,120.017352 C128.894012,119.177204 128.445933,118.337055 127.269725,118.337055 C126.065512,118.337055 125.617433,119.177204 125.617433,120.017352 Z M146.59314,130.379183 C146.59314,133.739777 144.128704,135.420074 141.272199,135.420074 C138.38769,135.420074 135.923254,133.739777 135.923254,130.379183 C135.923254,127.018589 138.38769,125.338292 141.272199,125.338292 C144.128704,125.338292 146.59314,127.018589 146.59314,130.379183 Z M139.619907,130.379183 C139.619907,131.219332 140.067987,132.05948 141.272199,132.05948 C142.448407,132.05948 142.896486,131.219332 142.896486,130.379183 C142.896486,129.539035 142.448407,128.698886 141.272199,128.698886 C140.067987,128.698886 139.619907,129.539035 139.619907,130.379183 Z" id="5%" fill="#131F3C" fill-rule="nonzero"></path>
            <g id="diskon" transform="translate(88.000000, 141.000000)" fill="#000000">
                <path d="M4.9065,23 L1.7095,23 L1.7095,11.96 L4.9065,11.96 L4.9065,23 Z M5.1825,8.303 C5.1825,9.568 4.3085,10.12 3.2965,10.12 C2.3075,10.12 1.4335,9.568 1.4335,8.303 C1.4335,7.061 2.3075,6.509 3.2965,6.509 C4.3085,6.509 5.1825,7.061 5.1825,8.303 Z M10.4955,13.363 C11.3465,12.374 12.5885,11.638 14.1755,11.638 C17.0735,11.638 18.6605,13.616 18.6605,16.169 L18.6605,23 L15.4635,23 L15.4635,16.583 C15.4635,15.088 14.5665,14.398 13.3245,14.398 C12.1975,14.398 11.3235,15.134 10.8635,15.801 L10.8635,23 L7.6665,23 L7.6665,11.96 L10.4955,11.96 L10.4955,13.363 Z M29.6545,6.9 L32.8285,6.9 L32.8285,23 L30.0225,23 L30.0225,21.39 C29.3095,22.379 28.0445,23.322 26.0205,23.322 C22.5015,23.322 20.6155,20.493 20.6155,17.48 C20.6155,14.467 22.5015,11.638 26.0205,11.638 C27.7685,11.638 28.9415,12.351 29.6545,13.133 L29.6545,6.9 Z M29.6545,16.169 C29.2175,15.203 28.1825,14.329 26.7795,14.329 C24.9625,14.329 23.8815,15.755 23.8815,17.48 C23.8815,19.205 24.9625,20.631 26.7795,20.631 C28.1825,20.631 29.2175,19.757 29.6545,18.791 L29.6545,16.169 Z M38.7625,23 L35.5655,23 L35.5655,11.96 L38.7625,11.96 L38.7625,23 Z M39.0385,8.303 C39.0385,9.568 38.1645,10.12 37.1525,10.12 C36.1635,10.12 35.2895,9.568 35.2895,8.303 C35.2895,7.061 36.1635,6.509 37.1525,6.509 C38.1645,6.509 39.0385,7.061 39.0385,8.303 Z M44.3515,13.616 C45.1335,12.397 46.7435,11.523 48.8135,11.73 L48.8135,14.835 C47.0655,14.536 45.3865,15.203 44.7195,16.514 L44.7195,23 L41.5225,23 L41.5225,11.96 L44.3515,11.96 L44.3515,13.616 Z M53.7355,23 L50.5385,23 L50.5385,11.96 L53.7355,11.96 L53.7355,23 Z M54.0115,8.303 C54.0115,9.568 53.1375,10.12 52.1255,10.12 C51.1365,10.12 50.2625,9.568 50.2625,8.303 C50.2625,7.061 51.1365,6.509 52.1255,6.509 C53.1375,6.509 54.0115,7.061 54.0115,8.303 Z M59.6925,23 L56.4955,23 L56.4955,11.96 L59.3245,11.96 L59.3245,13.248 C59.8995,12.558 61.1645,11.638 62.8435,11.638 C64.4995,11.638 65.5805,12.328 66.2245,13.271 C67.1445,12.374 68.3865,11.638 69.9045,11.638 C73.0095,11.638 74.0215,14.053 74.0215,16.008 L74.0215,23 L70.8475,23 L70.8475,16.215 C70.8475,15.065 70.1345,14.398 69.1225,14.398 C68.2485,14.398 67.4665,14.904 66.9375,15.502 C66.9605,15.663 66.9605,15.824 66.9605,16.008 L66.9605,23 L63.7865,23 L63.7865,16.215 C63.7865,15.065 63.0735,14.398 62.0615,14.398 C61.0955,14.398 60.2215,15.042 59.6925,15.732 L59.6925,23 Z" id="indirim"></path>
            </g>
            <g id="Aug.-29-—-Sept.-10" transform="translate(2.000000, 0.000000)" fill="#000000">
                <path d="M1.675,9.45 C3.425,8.2 5.45,7.65 7.525,7.65 C10.95,7.65 13.725,9.2 13.725,12.675 C13.725,15.55 11.35,17.25 9.125,18.575 C7.1,19.775 5.375,20.7 5.35,21.8 L13.85,21.775 L13.85,25 L1.1,25 L1.1,23.325 C1.1,19.225 4.2,17.625 6.7,16.15 C8.475,15.125 10,14.45 10,12.825 C10,11.575 8.9,10.925 7.175,10.925 C5.475,10.925 3.475,11.575 1.675,12.95 L1.675,9.45 Z M15.775,13.5 C15.775,9.625 18.8,7.65 22.275,7.65 C27.75,7.65 29.975,11 29.975,16.5 C29.975,22.725 26.225,25.35 21.9,25.35 C20.325,25.35 18.675,24.975 17.225,24.3 L17.225,21 C18.4,21.775 19.95,22.2 21.4,22.2 C23.7,22.2 25.8,21.225 26.25,17.85 C24.75,18.65 23.375,19 21.725,19 C18.65,19 15.775,17.15 15.775,13.5 Z M22.575,10.7 C20.925,10.7 19.525,11.45 19.525,13.325 C19.525,15.275 21.1,15.875 22.85,15.875 C23.975,15.875 25.15,15.525 26.25,14.85 C25.9,11.65 24.525,10.7 22.575,10.7 Z M39.825,25 L35.95,25 L43.1,7.5 L47.15,7.5 L54.275,25 L50.4,25 L49.125,21.725 L41.125,21.725 L39.825,25 Z M44.725,12.35 L42.3,18.625 L47.95,18.625 L45.5,12.35 C45.375,12 45.25,11.65 45.125,10.975 C45,11.65 44.875,12 44.725,12.35 Z M54.825,19 C54.825,15.725 56.875,12.65 60.7,12.65 C62.9,12.65 64.275,13.675 65.05,14.75 L65.05,13 L68.1,13 L68.1,24.675 C68.1,29.25 64.725,30.85 61.2,30.85 C59.325,30.85 57.575,30.425 56.125,29.725 L56.125,26.675 C57.475,27.475 59.1,27.925 60.75,27.925 C62.875,27.925 64.65,27.2 64.65,24.825 L64.65,23.725 C63.875,24.575 62.6,25.35 60.7,25.35 C56.875,25.35 54.825,22.275 54.825,19 Z M64.65,17.575 C64.175,16.525 63.05,15.575 61.525,15.575 C59.55,15.575 58.375,17.125 58.375,19 C58.375,20.875 59.55,22.425 61.525,22.425 C63.05,22.425 64.175,21.5 64.65,20.5 L64.65,17.575 Z M65,10.65 C63.9,11.425 62.7,11.775 61.075,11.775 C59.45,11.775 58.275,11.425 57.175,10.65 L57.175,7.925 C58.5,8.75 59.725,9 61.075,9 C62.425,9 63.675,8.75 65,7.925 L65,10.65 Z M79.375,13 L82.85,13 L82.85,25 L79.775,25 L79.775,23.475 C78.85,24.55 77.475,25.35 75.775,25.35 C72.525,25.35 70.9,23.2 70.9,20.425 L70.9,13 L74.375,13 L74.375,19.975 C74.375,21.575 75.25,22.35 76.675,22.35 C77.925,22.35 78.85,21.55 79.375,20.825 L79.375,13 Z M85.275,16.35 C85.275,13.575 87.75,12.65 90.275,12.65 C91.975,12.65 93.475,13.075 94.7,13.675 L94.7,16.525 C93.675,15.825 91.925,15.3 90.5,15.3 C89.725,15.3 88.825,15.525 88.825,16.25 C88.825,18.25 95.6,17.25 95.6,21.65 C95.6,24.475 93.025,25.35 90.15,25.35 C88.325,25.35 86.6,24.95 85.375,24.225 L85.375,21.35 C86.675,22.2 88.5,22.625 89.95,22.625 C91.225,22.625 92.05,22.4 92.05,21.725 C92.05,19.8 85.275,20.65 85.275,16.35 Z M98.625,9.5 L102.075,8.675 L102.075,13 L105.875,13 L105.875,15.925 L102.075,15.925 L102.075,20.625 C102.075,21.875 102.7,22.425 104,22.425 C104.8,22.425 105.475,22.3 106.175,22.025 L106.175,24.825 C105.25,25.15 104.15,25.35 102.95,25.35 C100.625,25.35 98.625,24.275 98.625,21.3 L98.625,15.925 L96.6,15.925 L96.6,13 L98.625,13 L98.625,9.5 Z M107.5,19 C107.5,14.8 110.65,12.65 114.125,12.65 C117.625,12.65 120.75,14.8 120.75,19 C120.75,23.2 117.625,25.35 114.125,25.35 C110.65,25.35 107.5,23.2 107.5,19 Z M117.225,19 C117.225,17.15 116.125,15.75 114.125,15.75 C112.15,15.75 111.05,17.15 111.05,19 C111.05,20.85 112.15,22.25 114.125,22.25 C116.125,22.25 117.225,20.85 117.225,19 Z M122.5,16.35 C122.5,13.575 124.975,12.65 127.5,12.65 C129.2,12.65 130.7,13.075 131.925,13.675 L131.925,16.525 C130.9,15.825 129.15,15.3 127.725,15.3 C126.95,15.3 126.05,15.525 126.05,16.25 C126.05,18.25 132.825,17.25 132.825,21.65 C132.825,24.475 130.25,25.35 127.375,25.35 C125.55,25.35 123.825,24.95 122.6,24.225 L122.6,21.35 C123.9,22.2 125.725,22.625 127.175,22.625 C128.45,22.625 129.275,22.4 129.275,21.725 C129.275,19.8 122.5,20.65 122.5,16.35 Z M140.4,17.45 L149.7,17.45 L149.7,20.375 L140.4,20.375 L140.4,17.45 Z M162.025,8 L164.75,8 L164.75,21.775 L167.6,21.775 L167.6,25 L157.9,25 L157.9,21.775 L161.1,21.775 L161.1,11.75 L157.9,12.95 L157.9,9.575 L162.025,8 Z M169.225,16.5 C169.225,11.6 171.55,7.65 176.975,7.65 C182.4,7.65 184.725,11.6 184.725,16.5 C184.725,21.4 182.4,25.35 176.975,25.35 C171.55,25.35 169.225,21.4 169.225,16.5 Z M180.975,16.5 C180.975,12.875 179.725,10.95 176.975,10.95 C174.225,10.95 172.975,12.875 172.975,16.5 C172.975,20.125 174.225,22.05 176.975,22.05 C179.725,22.05 180.975,20.125 180.975,16.5 Z M193.225,7.5 L205.55,7.5 L205.55,10.8 L196.975,10.8 L196.975,14.525 L204.8,14.525 L204.8,17.8 L196.975,17.8 L196.975,21.7 L205.7,21.7 L205.7,25 L193.225,25 L193.225,7.5 Z M213.575,21.1 L216.55,13 L220.15,13 L214.825,26.45 C213.475,29.8 211.6,30.825 209.65,30.825 C209.025,30.825 208.4,30.7 207.775,30.55 L207.775,27.675 C208.25,27.775 208.725,27.85 209.2,27.85 C210.45,27.85 211.4,27 212.05,25.225 L212.075,25.175 L206.4,13 L210.075,13 L213.575,21.1 Z M221.925,6.75 L225.4,6.75 L225.4,25 L221.925,25 L221.925,6.75 Z M236.725,13 L240.2,13 L240.2,25 L237.125,25 L237.125,23.475 C236.2,24.55 234.825,25.35 233.125,25.35 C229.875,25.35 228.25,23.2 228.25,20.425 L228.25,13 L231.725,13 L231.725,19.975 C231.725,21.575 232.6,22.35 234.025,22.35 C235.275,22.35 236.2,21.55 236.725,20.825 L236.725,13 Z M238.8,9.675 C238.8,10.7 237.975,11.525 236.95,11.525 C235.9,11.525 235.075,10.7 235.075,9.675 C235.075,8.65 235.9,7.8 236.95,7.8 C237.975,7.8 238.8,8.65 238.8,9.675 Z M233.45,9.675 C233.45,10.7 232.625,11.525 231.6,11.525 C230.575,11.525 229.725,10.7 229.725,9.675 C229.725,8.65 230.575,7.8 231.6,7.8 C232.625,7.8 233.45,8.65 233.45,9.675 Z M243.2,6.75 L246.675,6.75 L246.675,25 L243.2,25 L243.2,6.75 Z" id="29-Ağustos---10-Eylü"></path>
            </g>
        </g>
    </g>
</svg>