<?xml version="1.0" encoding="UTF-8" standalone="no"?>
<svg width="250px" height="362px" viewBox="0 0 250 362" version="1.1" xmlns="http://www.w3.org/2000/svg" xmlns:xlink="http://www.w3.org/1999/xlink">
    <!-- Generator: Sketch 49 (51002) - http://www.bohemiancoding.com/sketch -->
    <title>v00</title>
    <desc>Created with Sketch.</desc>
    <defs>
        <radialGradient cx="50%" cy="50%" fx="50%" fy="50%" r="50.0253367%" gradientTransform="translate(0.500000,0.500000),scale(1.000000,1.000000),rotate(88.176375),translate(-0.500000,-0.500000)" id="radialGradient-1">
            <stop stop-color="#FF9495" offset="0%"></stop>
            <stop stop-color="#FE5F60" offset="70.3742825%"></stop>
            <stop stop-color="#FF9091" offset="100%"></stop>
        </radialGradient>
    </defs>
    <g id="Monoreto" stroke="none" stroke-width="1" fill="none" fill-rule="evenodd">
        <g id="v00" transform="translate(0.000000, -7.000000)">
            <g id="5-copy">
                <g id="Group-7" transform="translate(0.637670, 119.351157)">
                    <path d="M124.637764,0 C132.821471,3.54941064e-05 140.926556,0.798353806 148.953007,2.39495144 C156.979458,3.99155257 164.773039,6.3557574 172.333767,9.48756474 C179.894518,12.6193674 187.07714,16.4586026 193.881645,21.0052615 C200.686127,25.5519244 206.981723,30.7186496 212.768466,36.505437 C218.55521,42.2922239 223.721866,48.5878904 228.268475,55.3924265 C232.815084,62.1969726 236.654249,69.3796356 239.785993,76.9404155 C242.917771,84.501213 245.281976,92.2948576 246.878535,100.321349 C248.475089,108.347835 249.273352,116.452955 249.273352,124.63668 C249.273317,132.820463 248.47502,140.925612 246.87839,148.952133 C245.281836,156.978654 242.917632,164.77231 239.785777,172.333131 C236.653998,179.893946 232.81477,187.076626 228.26812,193.88116 C223.721476,200.685701 218.554745,206.981366 212.767931,212.768162 C206.981152,218.554958 200.685522,223.721672 193.880953,228.268334 C187.076412,232.814977 179.893755,236.654194 172.332969,239.785956 C164.772184,242.917752 156.978533,245.281921 148.952047,246.878499 C140.925544,248.47507 132.820424,249.27335 124.636682,249.27335 C116.452899,249.273315 108.347767,248.475 100.321264,246.878388 C92.2947429,245.281799 84.5010693,242.917595 76.9402486,239.785775 C69.3794278,236.653979 62.1967532,232.81475 55.392213,228.268101 C48.5876669,223.72144 42.2920016,218.554726 36.5052171,212.767929 C30.7184267,206.981156 25.5517068,200.685485 21.005063,193.880951 C16.4584077,187.076411 12.6191964,179.893754 9.48740589,172.33295 C6.35561542,164.772164 3.99144027,156.978532 2.39487464,148.952046 C0.798285727,140.925542 0,132.820422 0,124.63668 C2.90935298e-05,116.452914 0.798343914,108.347783 2.39494446,100.32125 C3.99154501,92.2947296 6.35574925,84.5010675 9.48755718,76.9402584 C12.6193651,69.3794494 16.4586055,62.1967689 21.0052667,55.3922229 C25.5519221,48.5876774 30.7186478,42.2920022 36.5054382,36.5052148 C42.2922344,30.7184232 48.5878997,25.5517027 55.3924283,21.0050526 C62.1969627,16.458403 69.3796431,12.6191853 76.9404289,9.48740007 C84.5012089,6.35561542 92.2948651,3.99143736 100.321351,2.39486707 C108.347837,0.798292128 116.452951,4.65496476e-06 124.636682,4.65496476e-06 L124.636577,56.086505 C120.135546,56.0865341 115.67776,56.5256079 111.263212,57.4037437 C106.848659,58.2818679 102.562199,59.5821799 98.4037791,61.3046682 C94.2453594,63.0271681 90.2949352,65.1387532 86.5524599,67.6394177 C82.8099904,70.1400823 79.3474123,72.9817811 76.1647023,76.1645144 C72.9819924,79.3472476 70.1403109,82.8098664 67.6396813,86.5523534 C65.1390459,90.294852 63.0274898,94.2453169 61.305019,98.4037482 C59.5825599,102.56218 58.2822653,106.848681 57.4041528,111.263263 C56.5260693,115.67781 56.0870247,120.135637 56.0870072,124.636697 C56.0870247,129.137757 56.5261042,133.595602 57.40424,138.010184 C58.2823526,142.424773 59.5826646,146.711274 61.3051587,150.869722 C63.0276702,155.028177 65.1392379,158.978642 67.6399082,162.721146 C70.1405786,166.463656 72.9822775,169.926287 76.1650049,173.109014 C79.347744,176.291742 82.8103628,179.133441 86.5528497,181.634111 C90.2953425,184.134741 94.2458016,186.246314 98.4042387,187.968808 C102.562676,189.691296 106.849177,190.991608 111.263742,191.869727 C115.678313,192.747822 120.136116,193.186872 124.637176,193.186872 C129.138242,193.186855 133.596081,192.747787 138.010686,191.869674 C142.425251,190.991539 146.71177,189.691227 150.870224,187.968715 C155.028679,186.246227 158.979138,184.134653 162.721648,181.633983 C166.464135,179.133313 169.926754,176.29162 173.109493,173.108892 C176.292238,169.926165 179.133937,166.463546 181.634607,162.721042 C184.13526,158.978531 186.246828,155.028072 187.969305,150.869635 C189.691775,146.711198 190.992087,142.424697 191.870206,138.010132 C192.748318,133.59555 193.187369,129.13774 193.187351,124.636697 C193.187334,120.135637 192.748266,115.677793 191.870153,111.263211 C190.992018,106.848622 189.691706,102.562104 187.969194,98.4036551 C186.246723,94.2452064 184.13515,90.2947356 181.634479,86.552237 C179.133815,82.8097384 176.292098,79.3471254 173.109371,76.1643922 C169.926644,72.9816531 166.464031,70.1399659 162.72152,67.6393072 C158.979016,65.1386426 155.028551,63.027075 150.870114,61.3045925 C146.711683,59.5821101 142.425182,58.2818039 138.010628,57.4036855 C133.596046,56.525573 129.138242,56.0865167 124.637176,56.0865167 L124.637764,0 Z" id="Fill-8" fill="url(#radialGradient-1)"></path>
                    <circle id="Oval" fill="#FFFFFF" cx="124.90822" cy="124.90822" r="87.3982442"></circle>
                    <text id="$0.0500-1-MNR" font-family="MullerMedium, Muller" font-size="26.4070237" font-weight="400" fill="#131F3C">
                        <tspan x="69.0177546" y="148.15632">$0.0500</tspan>
                        <tspan x="84.558288" y="180.15632">1 MNR</tspan>
                    </text>
                </g>
                <text id="Ngày-29-tháng-8-—-Ng" font-family="MullerBold, Muller" font-size="26.2569832" font-weight="bold" fill="#131F3C">
                    <tspan x="22.9804868" y="25.5881883">Ngày 29 tháng 8 </tspan>
                    <tspan x="115.759537" y="56.5881883">— </tspan>
                    <tspan x="24.1226656" y="87.5881883">Ngày 10 tháng 9</tspan>
                </text>
            </g>
            <text id="0%" font-family="MullerExtraBold, Muller" font-size="28.0049495" font-weight="600" fill="#131F3C">
                <tspan x="102.993934" y="205">0%</tspan>
            </text>
            <text id="Giảm-giá" font-family="MullerBold, Muller" font-size="23.5037509" font-weight="bold" fill="#131F3C">
                <tspan x="77.0066259" y="234">Gi</tspan>
                <tspan x="99.6172343" y="234" font-family="LucidaGrande-Bold, Lucida Grande">ả</tspan>
                <tspan x="113.434869" y="234">m giá</tspan>
            </text>
        </g>
    </g>
</svg>