<?xml version="1.0" encoding="UTF-8" standalone="no"?>
<svg width="250px" height="363px" viewBox="0 0 250 363" version="1.1" xmlns="http://www.w3.org/2000/svg" xmlns:xlink="http://www.w3.org/1999/xlink">
    <!-- Generator: Sketch 49 (51002) - http://www.bohemiancoding.com/sketch -->
    <title>v10</title>
    <desc>Created with Sketch.</desc>
    <defs>
        <radialGradient cx="100%" cy="50%" fx="100%" fy="50%" r="100.014205%" gradientTransform="translate(1.000000,0.500000),scale(1.000000,0.500004),rotate(89.005123),translate(-1.000000,-0.500000)" id="radialGradient-1">
            <stop stop-color="#8D00FF" offset="0%"></stop>
            <stop stop-color="#5C00FE" offset="69.8959662%"></stop>
            <stop stop-color="#8900FF" offset="100%"></stop>
        </radialGradient>
        <radialGradient cx="100%" cy="50%" fx="100%" fy="50%" r="100.011799%" gradientTransform="translate(1.000000,0.500000),scale(1.000000,0.500004),rotate(89.087948),translate(-1.000000,-0.500000)" id="radialGradient-2">
            <stop stop-color="#FF9495" offset="0%"></stop>
            <stop stop-color="#FE5F60" offset="70.3742825%"></stop>
            <stop stop-color="#FF9091" offset="100%"></stop>
        </radialGradient>
    </defs>
    <g id="Monoreto" stroke="none" stroke-width="1" fill="none" fill-rule="evenodd">
        <g id="v10" transform="translate(0.000000, -9.000000)">
            <g id="3-copy">
                <g id="Group-Copy-2" transform="translate(0.933759, 0.000000)">
                    <g id="Group-6" transform="translate(0.000000, 122.762969)">
                        <g id="Group-31">
                            <path d="M124.524976,249.047781 C113.595699,249.047871 102.852631,247.633628 92.2957729,244.804995 C81.7389145,241.976368 71.727937,237.829799 62.2629045,232.365289 C52.7978079,226.900714 44.2011758,220.304407 36.4730082,212.576368 C28.7447764,204.848264 22.1482772,196.25176 16.6835746,186.786792 C11.218872,177.321823 7.07211127,167.31091 4.24335644,156.754116 C1.41453755,146.197257 0.000128110995,135.454189 0,124.524976 C-6.40554976e-05,113.595699 1.41415322,102.852631 4.24277994,92.2957729 C7.07140665,81.7388504 11.2179752,71.727937 16.6825497,62.2628404 C22.1472523,52.7976798 28.7436875,44.2009837 36.4719192,36.4727519 C44.2000869,28.7444561 52.796719,22.148021 62.2618155,16.6833184 C71.726848,11.2185517 81.7378255,7.07185504 92.294684,4.24310021 C102.851606,1.41434539 113.59461,0 124.524976,0 L124.523759,56.0357493 C120.027832,56.0372866 115.575206,56.4772838 111.165882,57.3557409 C106.756558,58.234198 102.47528,59.5342684 98.321986,61.255888 C94.1686916,62.9775076 90.2231932,65.0876238 86.4854909,67.5863007 C82.7477885,70.0849135 79.2896244,72.9241093 76.1110625,76.1038242 C72.9325006,79.2835391 70.0945218,82.7426641 67.5971901,86.4812632 C65.0998584,90.2198623 62.9910874,94.1661294 61.270941,98.3200643 C59.5507307,102.473935 58.2521976,106.755725 57.3752778,111.165434 C56.4983581,115.575078 56.0598982,120.027896 56.0598982,124.523887 C56.0598982,129.019879 56.4984221,133.472761 57.375406,137.882469 C58.2523898,142.292114 59.5509869,146.573967 61.2711973,150.727902 C62.9914076,154.881837 65.1002427,158.828104 67.5976385,162.566704 C70.0950342,166.305367 72.933013,169.764492 76.1117031,172.944207 C79.290329,176.123857 82.7484932,178.963053 86.4862595,181.46173 C90.2240259,183.960343 94.1695884,186.070459 98.3229468,187.792079 C102.476241,189.513634 106.757583,190.813705 111.166971,191.692098 C115.576295,192.570491 120.028985,193.010488 124.524976,193.012025 L124.524976,249.047781 Z" id="Fill-30" fill="url(#radialGradient-1)"></path>
                            <path d="M249.044074,249.047781 C238.114797,249.047871 227.371729,247.633628 216.814871,244.804995 C206.258013,241.976368 196.247035,237.829799 186.782003,232.365289 C177.316906,226.900714 168.720274,220.304407 160.992106,212.576368 C153.263875,204.848264 146.667375,196.25176 141.202673,186.786792 C135.73797,177.321823 131.591209,167.31091 128.762455,156.754116 C125.933636,146.197257 124.519226,135.454189 124.519098,124.524976 C124.519034,113.595699 125.933251,102.852631 128.761878,92.2957729 C131.590505,81.7388504 135.737073,71.727937 141.201648,62.2628404 C146.66635,52.7976798 153.262786,44.2009837 160.991017,36.4727519 C168.719185,28.7444561 177.315817,22.148021 186.780914,16.6833184 C196.245946,11.2185517 206.256924,7.07185504 216.813782,4.24310021 C227.370705,1.41434539 238.113708,0 249.044074,0 L249.042857,56.0357493 C244.54693,56.0372866 240.094304,56.4772838 235.68498,57.3557409 C231.275656,58.234198 226.994378,59.5342684 222.841084,61.255888 C218.68779,62.9775076 214.742291,65.0876238 211.004589,67.5863007 C207.266887,70.0849135 203.808722,72.9241093 200.630161,76.1038242 C197.451599,79.2835391 194.61362,82.7426641 192.116288,86.4812632 C189.618956,90.2198623 187.510185,94.1661294 185.790039,98.3200643 C184.069829,102.473935 182.771296,106.755725 181.894376,111.165434 C181.017456,115.575078 180.578996,120.027896 180.578996,124.523887 C180.578996,129.019879 181.01752,133.472761 181.894504,137.882469 C182.771488,142.292114 184.070085,146.573967 185.790295,150.727902 C187.510506,154.881837 189.619341,158.828104 192.116737,162.566704 C194.614132,166.305367 197.452111,169.764492 200.630801,172.944207 C203.809427,176.123857 207.267591,178.963053 211.005358,181.46173 C214.743124,183.960343 218.688686,186.070459 222.842045,187.792079 C226.995339,189.513634 231.276681,190.813705 235.686069,191.692098 C240.095393,192.570491 244.548083,193.010488 249.044074,193.012025 L249.044074,249.047781 Z" id="Fill-30-Copy" fill="url(#radialGradient-2)" transform="translate(186.781586, 124.523890) scale(-1, 1) translate(-186.781586, -124.523890) "></path>
                        </g>
                        <circle id="Oval" fill="#FFFFFF" cx="124.90822" cy="124.90822" r="87.3982442"></circle>
                        <text id="$0.0450-1-MNR" font-family="MullerMedium, Muller" font-size="26.4070237" font-weight="400" fill="#131F3C">
                            <tspan x="68.2699557" y="148.15632">$0.0450</tspan>
                            <tspan x="83.057889" y="180.15632">1 MNR</tspan>
                        </text>
                    </g>
                    <text id="Ngày-18-tháng-8-—-Ng" font-family="MullerBold, Muller" font-size="26.2569832" font-weight="bold" fill="#131F3C">
                        <tspan x="23.530008" y="28">Ngày 18 tháng 8</tspan>
                        <tspan x="114.746768" y="59">—</tspan>
                        <tspan x="21.7576616" y="90">Ngày 28 tháng 8</tspan>
                    </text>
                </g>
            </g>
            <text id="10%" font-family="MullerExtraBold, Muller" font-size="28.0049495" font-weight="600" fill="#131F3C">
                <tspan x="96.1842307" y="207">10%</tspan>
            </text>
            <text id="Giảm-giá" font-family="MullerBold, Muller" font-size="23.5037509" font-weight="bold" fill="#131F3C">
                <tspan x="77.0217895" y="236">Gi</tspan>
                <tspan x="99.632398" y="236" font-family="LucidaGrande-Bold, Lucida Grande">ả</tspan>
                <tspan x="113.450033" y="236">m giá</tspan>
            </text>
        </g>
    </g>
</svg>