<?xml version="1.0" encoding="UTF-8" standalone="no"?>
<svg width="250px" height="364px" viewBox="0 0 250 364" version="1.1" xmlns="http://www.w3.org/2000/svg" xmlns:xlink="http://www.w3.org/1999/xlink">
    <!-- Generator: Sketch 49 (51002) - http://www.bohemiancoding.com/sketch -->
    <title>v20</title>
    <desc>Created with Sketch.</desc>
    <defs>
        <radialGradient cx="50%" cy="50%" fx="50%" fy="50%" r="50.0301469%" id="radialGradient-1">
            <stop stop-color="#8D00FF" offset="0%"></stop>
            <stop stop-color="#5C00FE" offset="69.8959662%"></stop>
            <stop stop-color="#8900FF" offset="100%"></stop>
        </radialGradient>
    </defs>
    <g id="Monoreto" stroke="none" stroke-width="1" fill="none" fill-rule="evenodd">
        <g id="v20" transform="translate(0.000000, -9.000000)">
            <g id="1-copy">
                <path d="M124.534208,123.762969 C132.711116,123.763004 140.809466,124.560659 148.829249,126.15593 C156.849031,127.751205 164.636136,130.113446 172.190582,133.242651 C179.745051,136.371851 186.921705,140.207897 193.720557,144.750778 C200.519385,149.293663 206.80975,154.456096 212.591686,160.238075 C218.373622,166.020054 223.535985,172.31049 228.078816,179.109373 C232.621648,185.908265 236.457622,193.08496 239.586764,200.639458 C242.715941,208.193974 245.078181,215.981143 246.673414,224.000966 C248.268642,232.020783 249.066241,240.119169 249.066241,248.296094 C249.066206,256.473078 248.268572,264.571493 246.673269,272.591345 C245.078041,280.611197 242.715802,288.398378 239.586549,295.952916 C236.457372,303.507449 232.621334,310.684162 228.078462,317.483043 C223.535595,324.28193 218.373157,330.572364 212.591151,336.354352 C206.80918,342.13634 200.518781,347.298762 193.719865,351.841645 C186.920978,356.384512 179.744289,360.220539 172.189785,363.349698 C164.635281,366.478892 156.848106,368.841098 148.828289,370.436348 C140.808455,372.031593 132.710069,372.82921 124.533126,372.82921 C116.356143,372.829175 108.257746,372.031523 100.237911,370.436238 C92.2180591,368.840975 84.4308608,366.478736 76.8763221,363.349518 C69.3217834,360.220324 62.1450765,356.384285 55.3461899,351.841413 C48.5472975,347.298529 42.256863,342.136108 36.4748864,336.35412 C30.6929041,330.572155 25.5304769,324.281714 20.9876108,317.482834 C16.4447331,310.683947 12.6087116,303.507257 9.4795232,295.952736 C6.3503348,288.398232 3.98812395,280.611075 2.39288484,272.591257 C0.797622465,264.571423 0,256.473037 0,248.296094 C2.90693572e-05,240.119128 0.797680604,232.020731 2.3929546,224.000867 C3.9882286,215.981015 6.35046852,208.193829 9.47967436,200.639301 C12.6088802,193.084774 16.4449307,185.908062 20.9878143,179.109169 C25.530692,172.310277 30.693125,166.019833 36.4751074,160.237853 C42.2570955,154.45587 48.54753,149.293442 55.346405,144.750569 C62.1452858,140.207697 69.3219985,136.37167 76.8765023,133.242486 C84.4310004,130.113304 92.2181812,127.75109 100.237998,126.155846 C108.257815,124.560598 116.356195,123.762974 124.533126,123.762974 L124.533022,179.802874 C120.03573,179.802903 115.581648,180.241612 111.170768,181.119019 C106.759883,181.996413 102.476984,183.295645 98.3220195,185.016702 C94.1670548,186.737771 90.2199129,188.847601 86.480547,191.346188 C82.741187,193.844775 79.2814858,196.684113 76.1014203,199.864202 C72.9213547,203.044291 70.0820343,206.504033 67.5834823,210.24341 C65.0849246,213.982799 62.9751229,217.929982 61.2540833,222.084958 C59.5330552,226.239934 58.233841,230.522874 57.356458,234.933789 C56.4791041,239.344668 56.0404243,243.798791 56.0404068,248.296112 C56.0404243,252.793432 56.479139,257.247573 57.3565452,261.658487 C58.2339282,266.069408 59.5331599,270.352347 61.2542228,274.507341 C62.9753032,278.66234 65.0851164,282.609523 67.5837091,286.348918 C70.0823017,290.088319 72.9216395,293.548072 76.1017226,296.728155 C79.2818172,299.908238 82.7415591,302.747576 86.4809366,305.246169 C90.2203198,307.744721 94.1674967,309.85454 98.3224788,311.575603 C102.477461,313.29666 106.7604,314.595892 111.171297,315.473281 C115.5822,316.350646 120.0363,316.789332 124.533621,316.789332 C129.030947,316.789314 133.485081,316.350611 137.896019,315.473228 C142.306916,314.595822 146.589873,313.29659 150.744873,311.57551 C154.899872,309.854453 158.847049,307.744634 162.58645,305.246041 C166.325827,302.747448 169.785569,299.908116 172.965664,296.728033 C176.145764,293.54795 178.985102,290.088208 181.483695,286.348813 C183.98227,282.609413 186.092083,278.662236 187.813129,274.507254 C189.534168,270.352272 190.8334,266.069332 191.710789,261.658435 C192.588172,257.24752 193.026857,252.793415 193.02684,248.296112 C193.026823,243.798791 192.588119,239.344651 191.710736,234.933736 C190.83333,230.522816 189.534099,226.239859 187.813018,222.084865 C186.091979,217.929871 183.982159,213.982683 181.483567,210.243294 C178.98498,206.503905 176.145625,203.044169 172.965542,199.86408 C169.785459,196.683985 166.325723,193.844659 162.586322,191.346078 C158.846927,188.847491 154.899744,186.737678 150.744762,185.016626 C146.589786,183.295575 142.306846,181.996349 137.895961,181.11896 C133.485047,180.241577 129.030947,179.802886 124.533621,179.802886 L124.534208,123.762969 Z" id="Fill-8" fill="url(#radialGradient-1)"></path>
                <circle id="Oval" fill="#FFFFFF" cx="125.65842" cy="249.421389" r="87.3982442"></circle>
                <text id="$0.0400-1-MNR" font-family="MullerMedium, Muller" font-size="26.4070237" font-weight="400" fill="#131F3C">
                    <tspan x="68.5346261" y="272.045491">$0.0400</tspan>
                    <tspan x="84.9333878" y="304.045491">1 MNR</tspan>
                </text>
                <text id="Ngày-15-tháng-8-—-Ng" font-family="MullerBold, Muller" font-size="26.2569832" font-weight="bold" fill="#131F3C">
                    <tspan x="23.6856744" y="28">Ngày 15 tháng 8</tspan>
                    <tspan x="113.996568" y="59">—</tspan>
                    <tspan x="23.6856744" y="90">Ngày 15 tháng 8</tspan>
                </text>
            </g>
            <text id="20%" font-family="MullerExtraBold, Muller" font-size="28.0049495" font-weight="600" fill="#131F3C">
                <tspan x="93.363909" y="208">20%</tspan>
            </text>
            <text id="Giảm-giá" font-family="MullerBold, Muller" font-size="23.5037509" font-weight="bold" fill="#131F3C">
                <tspan x="76.0217895" y="237">Gi</tspan>
                <tspan x="98.632398" y="237" font-family="LucidaGrande-Bold, Lucida Grande">ả</tspan>
                <tspan x="112.450033" y="237">m giá</tspan>
            </text>
        </g>
    </g>
</svg>