<?xml version="1.0" encoding="UTF-8"?>
<svg width="250px" height="322px" viewBox="0 0 250 322" version="1.1" xmlns="http://www.w3.org/2000/svg" xmlns:xlink="http://www.w3.org/1999/xlink">
    <!-- Generator: Sketch 48.2 (47327) - http://www.bohemiancoding.com/sketch -->
    <title>text_0</title>
    <desc>Created with Sketch.</desc>
    <defs>
        <radialGradient cx="100%" cy="100%" fx="100%" fy="100%" r="50.0301469%" gradientTransform="translate(1.000000,1.000000),translate(-1.000000,-1.000000)" id="radialGradient-1">
            <stop stop-color="#8800FF" offset="0%"></stop>
            <stop stop-color="#8600FB" offset="71.050849%"></stop>
            <stop stop-color="#EB00FE" offset="100%"></stop>
        </radialGradient>
    </defs>
    <g id="Page-1" stroke="none" stroke-width="1" fill="none" fill-rule="evenodd">
        <g id="text_0" transform="translate(0.000000, -7.000000)">
            <path d="M124.534208,79.7629689 C132.711116,79.7630043 140.809466,80.5606594 148.829249,82.1559305 C156.849031,83.7512051 164.636136,86.1134456 172.190582,89.2426509 C179.745051,92.3718515 186.921705,96.2078968 193.720557,100.750778 C200.519385,105.293663 206.80975,110.456096 212.591686,116.238075 C218.373622,122.020054 223.535985,128.31049 228.078816,135.109372 C232.621648,141.908265 236.457622,149.08496 239.586764,156.639458 C242.715941,164.193974 245.078181,171.981143 246.673414,180.000966 C248.268642,188.020783 249.066241,196.119169 249.066241,204.296094 C249.066206,212.473078 248.268572,220.571493 246.673269,228.591345 C245.078041,236.611197 242.715802,244.398378 239.586549,251.952916 C236.457372,259.507449 232.621334,266.684162 228.078462,273.483043 C223.535595,280.28193 218.373157,286.572364 212.591151,292.354352 C206.80918,298.13634 200.518781,303.298762 193.719865,307.841645 C186.920978,312.384512 179.744289,316.220539 172.189785,319.349698 C164.635281,322.478892 156.848106,324.841098 148.828289,326.436348 C140.808455,328.031593 132.710069,328.82921 124.533126,328.82921 C116.356143,328.829175 108.257746,328.031523 100.237911,326.436238 C92.218059,324.840975 84.430861,322.478736 76.876322,319.349518 C69.321783,316.220324 62.145077,312.384285 55.34619,307.841413 C48.547297,303.298529 42.256863,298.136108 36.4748864,292.35412 C30.6929041,286.572155 25.5304769,280.281714 20.9876108,273.482834 C16.4447331,266.683947 12.6087116,259.507257 9.4795232,251.952736 C6.3503348,244.398232 3.988124,236.611075 2.3928848,228.591257 C0.7976225,220.571423 0,212.473037 0,204.296094 C2.91e-05,196.119128 0.7976806,188.020731 2.3929546,180.000867 C3.9882286,171.981015 6.3504685,164.193829 9.4796744,156.639301 C12.6088802,149.084774 16.4449307,141.908062 20.9878143,135.109169 C25.530692,128.310277 30.693125,122.019833 36.4751074,116.237853 C42.2570955,110.45587 48.54753,105.293442 55.346405,100.750569 C62.145286,96.2076974 69.321999,92.3716695 76.876502,89.2424863 C84.431,86.1133037 92.218181,83.7510899 100.237998,82.1558462 C108.257815,80.5605977 116.356195,79.7629735 124.533126,79.7629735 L124.533022,135.802874 C120.03573,135.802903 115.581648,136.241612 111.170768,137.119019 C106.759883,137.996413 102.476984,139.295645 98.32202,141.016702 C94.167055,142.737771 90.219913,144.847601 86.480547,147.346188 C82.741187,149.844775 79.281486,152.684113 76.10142,155.864202 C72.921355,159.044291 70.082034,162.504033 67.583482,166.24341 C65.084925,169.982799 62.975123,173.929982 61.254083,178.084958 C59.533055,182.239934 58.233841,186.522874 57.356458,190.933789 C56.479104,195.344668 56.040424,199.798791 56.040407,204.296112 C56.040424,208.793432 56.479139,213.247573 57.356545,217.658487 C58.233928,222.069408 59.53316,226.352347 61.254223,230.507341 C62.975303,234.66234 65.085116,238.609523 67.583709,242.348918 C70.082302,246.088319 72.921639,249.548072 76.101723,252.728155 C79.281817,255.908238 82.741559,258.747576 86.480937,261.246169 C90.22032,263.744721 94.167497,265.85454 98.322479,267.575603 C102.477461,269.29666 106.7604,270.595892 111.171297,271.473281 C115.5822,272.350646 120.0363,272.789332 124.533621,272.789332 C129.030947,272.789314 133.485081,272.350611 137.896019,271.473228 C142.306916,270.595822 146.589873,269.29659 150.744873,267.57551 C154.899872,265.854453 158.847049,263.744634 162.58645,261.246041 C166.325827,258.747448 169.785569,255.908116 172.965664,252.728033 C176.145764,249.54795 178.985102,246.088208 181.483695,242.348813 C183.98227,238.609413 186.092083,234.662236 187.813129,230.507254 C189.534168,226.352272 190.8334,222.069332 191.710789,217.658435 C192.588172,213.24752 193.026857,208.793415 193.02684,204.296112 C193.026823,199.798791 192.588119,195.344651 191.710736,190.933736 C190.83333,186.522816 189.534099,182.239859 187.813018,178.084865 C186.091979,173.929871 183.982159,169.982683 181.483567,166.243294 C178.98498,162.503905 176.145625,159.044169 172.965542,155.86408 C169.785459,152.683985 166.325723,149.844659 162.586322,147.346078 C158.846927,144.847491 154.899744,142.737678 150.744762,141.016626 C146.589786,139.295575 142.306846,137.996349 137.895961,137.11896 C133.485047,136.241577 129.030947,135.802886 124.533621,135.802886 L124.534208,79.7629689 Z" id="Fill-8" fill="url(#radialGradient-1)" fill-rule="nonzero"></path>
            <circle id="Oval" fill="#FFFFFF" fill-rule="nonzero" cx="125.65842" cy="205.421389" r="87.3982442"></circle>
            <path d="M79.810425,231.478404 L77.486607,231.478404 L77.486607,228.335968 C75.532487,228.124712 73.683996,227.596571 72.205202,226.777954 L72.205202,223.820367 C74.238543,225.114311 76.615175,225.642452 78.727737,225.642452 C81.104369,225.642452 82.715198,225.087904 82.715198,223.345041 C82.715198,219.067103 72.284423,221.338107 72.284423,214.789165 C72.284423,211.778764 74.581835,210.167936 77.486607,209.824644 L77.486607,206.655802 L79.810425,206.655802 L79.810425,209.798237 C81.579696,209.930273 83.348966,210.405599 84.590097,211.144996 L84.590097,214.023361 C83.084896,213.019894 81.025148,212.465347 79.044622,212.491754 C76.800025,212.491754 75.347638,213.151929 75.347638,214.736351 C75.347638,218.723811 85.778413,216.584843 85.778413,223.186598 C85.778413,226.751547 83.111303,228.177526 79.810425,228.362375 L79.810425,231.478404 Z M87.943789,219.067103 C87.943789,213.812105 90.426049,209.745423 95.997931,209.745423 C101.569813,209.745423 104.052073,213.812105 104.052073,219.067103 C104.052073,224.3221 101.569813,228.388782 95.997931,228.388782 C90.426049,228.388782 87.943789,224.3221 87.943789,219.067103 Z M101.015265,219.067103 C101.015265,214.894793 99.430844,212.491754 95.997931,212.491754 C92.538611,212.491754 90.980596,214.894793 90.980596,219.067103 C90.980596,223.239413 92.538611,225.642452 95.997931,225.642452 C99.430844,225.642452 101.015265,223.239413 101.015265,219.067103 Z M110.152095,226.593105 C110.152095,227.781421 109.333478,228.335968 108.382825,228.335968 C107.432172,228.335968 106.587147,227.781421 106.587147,226.593105 C106.587147,225.457602 107.432172,224.903055 108.382825,224.903055 C109.333478,224.903055 110.152095,225.457602 110.152095,226.593105 Z M112.68717,219.067103 C112.68717,213.812105 115.16943,209.745423 120.741312,209.745423 C126.313194,209.745423 128.795454,213.812105 128.795454,219.067103 C128.795454,224.3221 126.313194,228.388782 120.741312,228.388782 C115.16943,228.388782 112.68717,224.3221 112.68717,219.067103 Z M125.758646,219.067103 C125.758646,214.894793 124.174225,212.491754 120.741312,212.491754 C117.281992,212.491754 115.723977,214.894793 115.723977,219.067103 C115.723977,223.239413 117.281992,225.642452 120.741312,225.642452 C124.174225,225.642452 125.758646,223.239413 125.758646,219.067103 Z M131.805855,211.567508 C133.654347,210.299971 135.687687,209.745423 137.773842,209.745423 C141.418012,209.745423 144.085121,211.435473 144.085121,214.789165 C144.085121,217.825973 141.550047,219.62165 139.1206,221.074037 C136.796782,222.447202 134.604999,223.556297 134.578592,225.351974 L144.217156,225.325567 L144.217156,228.045491 L131.198493,228.045491 L131.198493,226.672326 C131.198493,222.28876 134.446557,220.625117 137.166481,219.014289 C139.252636,217.799566 141.07472,216.87532 141.07472,214.841979 C141.07472,213.283965 139.727962,212.465347 137.509772,212.465347 C135.687687,212.465347 133.707161,213.099115 131.805855,214.472281 L131.805855,211.567508 Z M147.940546,210.088715 L159.005089,210.088715 L159.005089,212.782231 L150.713284,212.782231 L150.449214,217.112983 C151.320645,216.901727 152.244891,216.796099 153.169137,216.796099 C156.628457,216.796099 159.850114,218.301299 159.850114,222.526423 C159.850114,226.408255 156.549236,228.388782 152.588183,228.388782 C150.502028,228.388782 148.415873,227.939863 146.831451,227.174059 L146.831451,224.348508 C148.336652,225.219939 150.369993,225.668859 152.244891,225.668859 C154.912001,225.668859 156.813306,224.612578 156.813306,222.500016 C156.813306,220.123384 154.779966,219.278359 151.928007,219.278359 C150.475621,219.278359 148.811978,219.568836 147.359592,220.07057 L147.940546,210.088715 Z M162.200339,219.067103 C162.200339,213.812105 164.682599,209.745423 170.254481,209.745423 C175.826363,209.745423 178.308624,213.812105 178.308624,219.067103 C178.308624,224.3221 175.826363,228.388782 170.254481,228.388782 C164.682599,228.388782 162.200339,224.3221 162.200339,219.067103 Z M175.271816,219.067103 C175.271816,214.894793 173.687395,212.491754 170.254481,212.491754 C166.795161,212.491754 165.237147,214.894793 165.237147,219.067103 C165.237147,223.239413 166.795161,225.642452 170.254481,225.642452 C173.687395,225.642452 175.271816,223.239413 175.271816,219.067103 Z M90.663712,242.088715 L92.881902,242.088715 L92.881902,257.325567 L96.077152,257.325567 L96.077152,260.045491 L86.306553,260.045491 L86.306553,257.325567 L89.897908,257.325567 L89.897908,245.178336 L86.306553,246.525095 L86.306553,243.752357 L90.663712,242.088715 Z M121.903221,241.560574 L124.623144,241.560574 L124.623144,260.045491 L121.612744,260.045491 L121.612744,247.106049 L115.776791,255.873181 L113.981114,255.873181 L108.145162,247.079642 L108.145162,260.045491 L105.134761,260.045491 L105.134761,241.560574 L107.854684,241.560574 L114.878953,252.149791 L121.903221,241.560574 Z M132.122739,260.045491 L129.112338,260.045491 L129.112338,241.560574 L131.93789,241.560574 L141.893338,255.08097 C141.866931,254.447202 141.866931,253.734212 141.866931,253.04763 L141.866931,241.560574 L144.877332,241.560574 L144.877332,260.045491 L142.05178,260.045491 L132.096332,246.525095 C132.122739,247.158863 132.122739,247.871853 132.122739,248.532028 L132.122739,260.045491 Z M152.376926,260.045491 L149.366526,260.045491 L149.366526,241.560574 L156.760492,241.560574 C160.219812,241.560574 163.863982,242.933739 163.863982,247.343712 C163.863982,250.64459 161.804234,252.229012 159.374788,252.809966 L165.289961,260.045491 L161.672199,260.045491 L156.126724,253.126851 L152.376926,253.126851 L152.376926,260.045491 Z M152.376926,244.306905 L152.376926,250.459741 L156.892527,250.459741 C158.873054,250.459741 160.800767,249.746752 160.800767,247.396526 C160.800767,245.019894 158.873054,244.306905 156.892527,244.306905 L152.376926,244.306905 Z" id="$0.0250-1-MNR" fill="#6202E1" fill-rule="nonzero"></path>
            <path d="M96.942498,141.251 L109.847498,141.251 L109.847498,145.746 L101.756498,145.717 L101.553498,148.617 C102.278498,148.501 103.003498,148.443 103.670498,148.443 C107.701498,148.443 110.717498,150.27 110.717498,154.707 C110.717498,159.579 106.396498,161.435 101.988498,161.435 C99.697498,161.435 97.406498,160.942 95.637498,160.101 L95.637498,155.171 C97.174498,156.244 99.494498,156.795 101.408498,156.795 C103.641498,156.795 105.352498,156.128 105.352498,154.591 C105.352498,153.344 104.337498,152.387 101.118498,152.358 C99.871498,152.358 98.073498,152.532 96.246498,153.17 L96.942498,141.251 Z M112.863498,151.14 C112.863498,145.514 115.560498,140.845 121.998498,140.845 C128.436498,140.845 131.133498,145.514 131.133498,151.14 C131.133498,156.766 128.436498,161.435 121.998498,161.435 C115.560498,161.435 112.863498,156.766 112.863498,151.14 Z M125.768498,151.14 C125.768498,147.341 124.579498,145.485 121.998498,145.485 C119.417498,145.485 118.228498,147.341 118.228498,151.14 C118.228498,154.939 119.417498,156.795 121.998498,156.795 C124.579498,156.795 125.768498,154.939 125.768498,151.14 Z M141.544498,162.74 L138.354498,162.74 L150.215498,138.96 L153.405498,138.96 L141.544498,162.74 Z M144.096498,145.485 C144.096498,148.965 141.544498,150.705 138.586498,150.705 C135.599498,150.705 133.047498,148.965 133.047498,145.485 C133.047498,142.005 135.599498,140.265 138.586498,140.265 C141.544498,140.265 144.096498,142.005 144.096498,145.485 Z M136.875498,145.485 C136.875498,146.355 137.339498,147.225 138.586498,147.225 C139.804498,147.225 140.268498,146.355 140.268498,145.485 C140.268498,144.615 139.804498,143.745 138.586498,143.745 C137.339498,143.745 136.875498,144.615 136.875498,145.485 Z M158.596498,156.215 C158.596498,159.695 156.044498,161.435 153.086498,161.435 C150.099498,161.435 147.547498,159.695 147.547498,156.215 C147.547498,152.735 150.099498,150.995 153.086498,150.995 C156.044498,150.995 158.596498,152.735 158.596498,156.215 Z M151.375498,156.215 C151.375498,157.085 151.839498,157.955 153.086498,157.955 C154.304498,157.955 154.768498,157.085 154.768498,156.215 C154.768498,155.345 154.304498,154.475 153.086498,154.475 C151.839498,154.475 151.375498,155.345 151.375498,156.215 Z" id="50%" fill="#6202E1" fill-rule="nonzero"></path>
            <g id="discount" transform="translate(1.000000, 167.000000)" fill="#000000">
                <path d="M79.3862578,14.95 C79.3862578,9.108 83.7332578,6.578 88.1492578,6.578 C89.8742578,6.578 91.5992578,6.946 93.0942578,7.613 L93.0942578,10.902 C91.8752578,10.097 90.2422578,9.66 88.6092578,9.66 C85.7342578,9.66 82.9052578,11.178 82.9052578,14.95 C82.9052578,19.228 86.0562578,20.309 88.4252578,20.309 C89.1152578,20.309 89.7132578,20.194 90.1962578,20.01 L90.1962578,14.26 L93.4852578,14.26 L93.4852578,22.241 C91.8752578,22.931 90.0352578,23.322 88.2412578,23.322 C83.7332578,23.322 79.3862578,20.861 79.3862578,14.95 Z M99.2582578,23 L96.0612578,23 L96.0612578,11.96 L99.2582578,11.96 L99.2582578,23 Z M99.5342578,8.303 C99.5342578,9.568 98.6602578,10.12 97.6482578,10.12 C96.6592578,10.12 95.7852578,9.568 95.7852578,8.303 C95.7852578,7.061 96.6592578,6.509 97.6482578,6.509 C98.6602578,6.509 99.5342578,7.061 99.5342578,8.303 Z M108.780887,21.6748047 C107.672808,22.7454481 106.486134,23.2807617 105.220828,23.2807617 C104.142698,23.2807617 103.26673,22.9513379 102.592898,22.2924805 C101.919067,21.633623 101.582156,20.7801159 101.582156,19.7319336 C101.582156,18.3692966 102.126829,17.3192582 103.216189,16.5817871 C104.30555,15.844316 105.864698,15.4755859 107.89368,15.4755859 L108.780887,15.4755859 L108.780887,14.3525391 C108.780887,13.0722592 108.050914,12.4321289 106.590945,12.4321289 C105.295691,12.4321289 103.985483,12.7989872 102.660281,13.5327148 L102.660281,11.2416992 C104.165172,10.672686 105.655066,10.3881836 107.130008,10.3881836 C110.356912,10.3881836 111.97034,11.6721877 111.97034,14.2402344 L111.97034,19.6982422 C111.97034,20.6640673 112.281046,21.1469727 112.902469,21.1469727 C113.014774,21.1469727 113.160769,21.1319988 113.340457,21.1020508 L113.41907,22.9663086 C112.715291,23.1759451 112.093878,23.2807617 111.554812,23.2807617 C110.192175,23.2807617 109.316208,22.7454481 108.926883,21.6748047 L108.780887,21.6748047 Z M108.780887,19.8891602 L108.780887,17.3847656 L107.994754,17.3847656 C105.84598,17.3847656 104.771609,18.058587 104.771609,19.40625 C104.771609,19.862958 104.926963,20.2466619 105.237674,20.557373 C105.548385,20.8680842 105.932089,21.0234375 106.388797,21.0234375 C107.167447,21.0234375 107.964802,20.6453488 108.780887,19.8891602 Z M107.826297,8.75976562 L105.613895,8.75976562 L105.613895,8.625 C105.613895,8.25813619 105.662559,7.99047936 105.759891,7.82202148 C105.857222,7.65356361 106.096803,7.42708476 106.478641,7.14257812 L106.71448,6.96289062 C106.804325,6.89550748 106.909141,6.82063843 107.028934,6.73828125 C107.320927,6.52864479 107.466922,6.30778111 107.466922,6.07568359 C107.466922,5.64892365 107.092577,5.43554688 106.343875,5.43554688 C105.857219,5.43554688 105.265753,5.53662008 104.569461,5.73876953 L104.569461,4.34619141 C105.318163,4.15152897 106.021932,4.05419922 106.680789,4.05419922 C108.724745,4.05419922 109.746707,4.60823014 109.746707,5.71630859 C109.746707,6.13558152 109.484665,6.56607852 108.960574,7.0078125 C108.833295,7.11263073 108.739709,7.19124323 108.679812,7.24365234 L108.432742,7.46826172 C108.028443,7.83512553 107.826297,8.18701003 107.826297,8.52392578 L107.826297,8.75976562 Z M118.736742,23 L115.539742,23 L115.539742,11.96 L118.368742,11.96 L118.368742,13.248 C118.943742,12.558 120.208742,11.638 121.887742,11.638 C123.543742,11.638 124.624742,12.328 125.268742,13.271 C126.188742,12.374 127.430742,11.638 128.948742,11.638 C132.053742,11.638 133.065742,14.053 133.065742,16.008 L133.065742,23 L129.891742,23 L129.891742,16.215 C129.891742,15.065 129.178742,14.398 128.166742,14.398 C127.292742,14.398 126.510742,14.904 125.981742,15.502 C126.004742,15.663 126.004742,15.824 126.004742,16.008 L126.004742,23 L122.830742,23 L122.830742,16.215 C122.830742,15.065 122.117742,14.398 121.105742,14.398 C120.139742,14.398 119.265742,15.042 118.736742,15.732 L118.736742,23 Z M140.149742,17.48 C140.149742,14.467 142.035742,11.638 145.554742,11.638 C147.578742,11.638 148.843742,12.581 149.556742,13.57 L149.556742,11.96 L152.362742,11.96 L152.362742,22.701 C152.362742,26.91 149.257742,28.382 146.014742,28.382 C144.289742,28.382 142.679742,27.991 141.345742,27.347 L141.345742,24.541 C142.587742,25.277 144.082742,25.691 145.600742,25.691 C147.555742,25.691 149.188742,25.024 149.188742,22.839 L149.188742,21.827 C148.475742,22.609 147.302742,23.322 145.554742,23.322 C142.035742,23.322 140.149742,20.493 140.149742,17.48 Z M149.188742,16.169 C148.751742,15.203 147.716742,14.329 146.313742,14.329 C144.496742,14.329 143.415742,15.755 143.415742,17.48 C143.415742,19.205 144.496742,20.631 146.313742,20.631 C147.716742,20.631 148.751742,19.78 149.188742,18.86 L149.188742,16.169 Z M158.296742,23 L155.099742,23 L155.099742,11.96 L158.296742,11.96 L158.296742,23 Z M158.572742,8.303 C158.572742,9.568 157.698742,10.12 156.686742,10.12 C155.697742,10.12 154.823742,9.568 154.823742,8.303 C154.823742,7.061 155.697742,6.509 156.686742,6.509 C157.698742,6.509 158.572742,7.061 158.572742,8.303 Z M170.923742,20.148 C170.923742,20.723 171.291742,20.884 171.705742,20.884 C171.889742,20.884 172.096742,20.861 172.303742,20.792 L172.303742,22.885 C171.797742,23.069 171.153742,23.207 170.532742,23.207 C169.405742,23.207 168.554742,22.793 168.094742,21.965 C167.013742,22.816 165.748742,23.322 164.115742,23.322 C162.045742,23.322 160.251742,22.126 160.251742,19.941 C160.251742,17.135 162.896742,16.261 165.104742,16.261 C165.978742,16.261 166.944742,16.376 167.726742,16.56 L167.726742,16.169 C167.726742,15.065 166.852742,14.306 165.127742,14.306 C163.609742,14.306 162.252742,14.72 161.217742,15.134 L161.217742,12.374 C162.114742,12.075 163.793742,11.638 165.495742,11.638 C168.807742,11.638 170.923742,12.995 170.923742,16.629 L170.923742,20.148 Z M165.840742,18.17 C164.667742,18.17 163.517742,18.561 163.517742,19.688 C163.517742,20.516 164.276742,21.045 165.242742,21.045 C166.139742,21.045 166.990742,20.792 167.726742,20.148 L167.726742,18.423 C167.243742,18.308 166.507742,18.17 165.840742,18.17 Z M166.576742,10.327 L163.494742,10.327 L165.564742,6.923 L169.060742,6.923 L166.576742,10.327 Z" id="Giảm-giá"></path>
            </g>
            <g id="10-Mei---10-Juni" transform="translate(17.000000, 0.000000)" fill="#000000">
                <path d="M5.625,25 L1.875,25 L1.875,7.5 L5.4,7.5 L13.55,18.925 C13.5,18.2 13.475,17.325 13.475,16.525 L13.475,7.5 L17.225,7.5 L17.225,25 L13.7,25 L5.55,13.575 C5.6,14.3 5.625,15.175 5.625,15.975 L5.625,25 Z M19.625,19 C19.625,15.725 21.675,12.65 25.5,12.65 C27.7,12.65 29.075,13.675 29.85,14.75 L29.85,13 L32.9,13 L32.9,24.675 C32.9,29.25 29.525,30.85 26,30.85 C24.125,30.85 22.375,30.425 20.925,29.725 L20.925,26.675 C22.275,27.475 23.9,27.925 25.55,27.925 C27.675,27.925 29.45,27.2 29.45,24.825 L29.45,23.725 C28.675,24.575 27.4,25.35 25.5,25.35 C21.675,25.35 19.625,22.275 19.625,19 Z M29.45,17.575 C28.975,16.525 27.85,15.575 26.325,15.575 C24.35,15.575 23.175,17.125 23.175,19 C23.175,20.875 24.35,22.425 26.325,22.425 C27.85,22.425 28.975,21.5 29.45,20.5 L29.45,17.575 Z M46.575,21.9 C46.575,22.525 46.975,22.7 47.425,22.7 C47.625,22.7 47.85,22.675 48.075,22.6 L48.075,24.875 C47.525,25.075 46.825,25.225 46.15,25.225 C44.925,25.225 44,24.775 43.5,23.875 C42.325,24.8 40.95,25.35 39.175,25.35 C36.925,25.35 34.975,24.05 34.975,21.675 C34.975,18.625 37.85,17.675 40.25,17.675 C41.2,17.675 42.25,17.8 43.1,18 L43.1,17.575 C43.1,16.375 42.15,15.55 40.275,15.55 C38.625,15.55 37.15,16 36.025,16.45 L36.025,13.45 C37,13.125 38.825,12.65 40.675,12.65 C44.275,12.65 46.575,14.125 46.575,18.075 L46.575,21.9 Z M41.05,19.75 C39.775,19.75 38.525,20.175 38.525,21.4 C38.525,22.3 39.35,22.875 40.4,22.875 C41.375,22.875 42.3,22.6 43.1,21.9 L43.1,20.025 C42.575,19.9 41.775,19.75 41.05,19.75 Z M42.875,11.225 L39.525,11.225 L36.825,7.525 L40.625,7.525 L42.875,11.225 Z M54.725,21.1 L57.7,13 L61.3,13 L55.975,26.45 C54.625,29.8 52.75,30.825 50.8,30.825 C50.175,30.825 49.55,30.7 48.925,30.55 L48.925,27.675 C49.4,27.775 49.875,27.85 50.35,27.85 C51.6,27.85 52.55,27 53.2,25.225 L53.225,25.175 L47.55,13 L51.225,13 L54.725,21.1 Z M71.825,8 L74.55,8 L74.55,21.775 L77.4,21.775 L77.4,25 L67.7,25 L67.7,21.775 L70.9,21.775 L70.9,11.75 L67.7,12.95 L67.7,9.575 L71.825,8 Z M79.025,16.5 C79.025,11.6 81.35,7.65 86.775,7.65 C92.2,7.65 94.525,11.6 94.525,16.5 C94.525,21.4 92.2,25.35 86.775,25.35 C81.35,25.35 79.025,21.4 79.025,16.5 Z M90.775,16.5 C90.775,12.875 89.525,10.95 86.775,10.95 C84.025,10.95 82.775,12.875 82.775,16.5 C82.775,20.125 84.025,22.05 86.775,22.05 C89.525,22.05 90.775,20.125 90.775,16.5 Z M103.1,9.5 L106.55,8.675 L106.55,13 L110.35,13 L110.35,15.925 L106.55,15.925 L106.55,20.625 C106.55,21.875 107.175,22.425 108.475,22.425 C109.275,22.425 109.95,22.3 110.65,22.025 L110.65,24.825 C109.725,25.15 108.625,25.35 107.425,25.35 C105.1,25.35 103.1,24.275 103.1,21.3 L103.1,15.925 L101.075,15.925 L101.075,13 L103.1,13 L103.1,9.5 Z M112.65,7.5 L116.125,7.5 L116.125,14.1 C117,13.275 118.225,12.65 119.725,12.65 C122.875,12.65 124.6,14.8 124.6,17.575 L124.6,25 L121.125,25 L121.125,18.025 C121.125,16.4 120.15,15.65 118.8,15.65 C117.575,15.65 116.625,16.45 116.125,17.175 L116.125,25 L112.65,25 L112.65,7.5 Z M138.125,21.9 C138.125,22.525 138.525,22.7 138.975,22.7 C139.175,22.7 139.4,22.675 139.625,22.6 L139.625,24.875 C139.075,25.075 138.375,25.225 137.7,25.225 C136.475,25.225 135.55,24.775 135.05,23.875 C133.875,24.8 132.5,25.35 130.725,25.35 C128.475,25.35 126.525,24.05 126.525,21.675 C126.525,18.625 129.4,17.675 131.8,17.675 C132.75,17.675 133.8,17.8 134.65,18 L134.65,17.575 C134.65,16.375 133.7,15.55 131.825,15.55 C130.175,15.55 128.7,16 127.575,16.45 L127.575,13.45 C128.55,13.125 130.375,12.65 132.225,12.65 C135.825,12.65 138.125,14.125 138.125,18.075 L138.125,21.9 Z M132.6,19.75 C131.325,19.75 130.075,20.175 130.075,21.4 C130.075,22.3 130.9,22.875 131.95,22.875 C132.925,22.875 133.85,22.6 134.65,21.9 L134.65,20.025 C134.125,19.9 133.325,19.75 132.6,19.75 Z M133.4,11.225 L130.05,11.225 L132.3,7.525 L136.1,7.525 L133.4,11.225 Z M144.35,14.525 C145.275,13.45 146.625,12.65 148.35,12.65 C151.5,12.65 153.225,14.8 153.225,17.575 L153.225,25 L149.75,25 L149.75,18.025 C149.75,16.4 148.775,15.65 147.425,15.65 C146.2,15.65 145.25,16.45 144.75,17.175 L144.75,25 L141.275,25 L141.275,13 L144.35,13 L144.35,14.525 Z M155.35,19 C155.35,15.725 157.4,12.65 161.225,12.65 C163.425,12.65 164.8,13.675 165.575,14.75 L165.575,13 L168.625,13 L168.625,24.675 C168.625,29.25 165.25,30.85 161.725,30.85 C159.85,30.85 158.1,30.425 156.65,29.725 L156.65,26.675 C158,27.475 159.625,27.925 161.275,27.925 C163.4,27.925 165.175,27.2 165.175,24.825 L165.175,23.725 C164.4,24.575 163.125,25.35 161.225,25.35 C157.4,25.35 155.35,22.275 155.35,19 Z M165.175,17.575 C164.7,16.525 163.575,15.575 162.05,15.575 C160.075,15.575 158.9,17.125 158.9,19 C158.9,20.875 160.075,22.425 162.05,22.425 C163.575,22.425 164.7,21.5 165.175,20.5 L165.175,17.575 Z M177.875,7.975 L188.675,7.975 L188.675,11.2 L181.25,11.175 L181.025,14.5 C181.75,14.35 182.525,14.25 183.225,14.25 C186.625,14.25 189.45,15.775 189.45,19.675 C189.45,23.625 186,25.35 182.25,25.35 C180.275,25.35 178.275,24.925 176.775,24.2 L176.775,20.725 C178.15,21.6 180.125,22.075 181.825,22.075 C184.05,22.075 185.7,21.275 185.7,19.625 C185.7,17.95 184.275,17.125 181.55,17.125 C180.325,17.125 178.75,17.325 177.275,17.85 L177.875,7.975 Z M213.9,20.375 L197.3,20.375 L197.3,17.45 L213.9,17.45 L213.9,20.375 Z M5.625,56 L1.875,56 L1.875,38.5 L5.4,38.5 L13.55,49.925 C13.5,49.2 13.475,48.325 13.475,47.525 L13.475,38.5 L17.225,38.5 L17.225,56 L13.7,56 L5.55,44.575 C5.6,45.3 5.625,46.175 5.625,46.975 L5.625,56 Z M19.625,50 C19.625,46.725 21.675,43.65 25.5,43.65 C27.7,43.65 29.075,44.675 29.85,45.75 L29.85,44 L32.9,44 L32.9,55.675 C32.9,60.25 29.525,61.85 26,61.85 C24.125,61.85 22.375,61.425 20.925,60.725 L20.925,57.675 C22.275,58.475 23.9,58.925 25.55,58.925 C27.675,58.925 29.45,58.2 29.45,55.825 L29.45,54.725 C28.675,55.575 27.4,56.35 25.5,56.35 C21.675,56.35 19.625,53.275 19.625,50 Z M29.45,48.575 C28.975,47.525 27.85,46.575 26.325,46.575 C24.35,46.575 23.175,48.125 23.175,50 C23.175,51.875 24.35,53.425 26.325,53.425 C27.85,53.425 28.975,52.5 29.45,51.5 L29.45,48.575 Z M46.575,52.9 C46.575,53.525 46.975,53.7 47.425,53.7 C47.625,53.7 47.85,53.675 48.075,53.6 L48.075,55.875 C47.525,56.075 46.825,56.225 46.15,56.225 C44.925,56.225 44,55.775 43.5,54.875 C42.325,55.8 40.95,56.35 39.175,56.35 C36.925,56.35 34.975,55.05 34.975,52.675 C34.975,49.625 37.85,48.675 40.25,48.675 C41.2,48.675 42.25,48.8 43.1,49 L43.1,48.575 C43.1,47.375 42.15,46.55 40.275,46.55 C38.625,46.55 37.15,47 36.025,47.45 L36.025,44.45 C37,44.125 38.825,43.65 40.675,43.65 C44.275,43.65 46.575,45.125 46.575,49.075 L46.575,52.9 Z M41.05,50.75 C39.775,50.75 38.525,51.175 38.525,52.4 C38.525,53.3 39.35,53.875 40.4,53.875 C41.375,53.875 42.3,53.6 43.1,52.9 L43.1,51.025 C42.575,50.9 41.775,50.75 41.05,50.75 Z M42.875,42.225 L39.525,42.225 L36.825,38.525 L40.625,38.525 L42.875,42.225 Z M54.725,52.1 L57.7,44 L61.3,44 L55.975,57.45 C54.625,60.8 52.75,61.825 50.8,61.825 C50.175,61.825 49.55,61.7 48.925,61.55 L48.925,58.675 C49.4,58.775 49.875,58.85 50.35,58.85 C51.6,58.85 52.55,58 53.2,56.225 L53.225,56.175 L47.55,44 L51.225,44 L54.725,52.1 Z M71.825,39 L74.55,39 L74.55,52.775 L77.4,52.775 L77.4,56 L67.7,56 L67.7,52.775 L70.9,52.775 L70.9,42.75 L67.7,43.95 L67.7,40.575 L71.825,39 Z M79.025,47.5 C79.025,42.6 81.35,38.65 86.775,38.65 C92.2,38.65 94.525,42.6 94.525,47.5 C94.525,52.4 92.2,56.35 86.775,56.35 C81.35,56.35 79.025,52.4 79.025,47.5 Z M90.775,47.5 C90.775,43.875 89.525,41.95 86.775,41.95 C84.025,41.95 82.775,43.875 82.775,47.5 C82.775,51.125 84.025,53.05 86.775,53.05 C89.525,53.05 90.775,51.125 90.775,47.5 Z M103.1,40.5 L106.55,39.675 L106.55,44 L110.35,44 L110.35,46.925 L106.55,46.925 L106.55,51.625 C106.55,52.875 107.175,53.425 108.475,53.425 C109.275,53.425 109.95,53.3 110.65,53.025 L110.65,55.825 C109.725,56.15 108.625,56.35 107.425,56.35 C105.1,56.35 103.1,55.275 103.1,52.3 L103.1,46.925 L101.075,46.925 L101.075,44 L103.1,44 L103.1,40.5 Z M112.65,38.5 L116.125,38.5 L116.125,45.1 C117,44.275 118.225,43.65 119.725,43.65 C122.875,43.65 124.6,45.8 124.6,48.575 L124.6,56 L121.125,56 L121.125,49.025 C121.125,47.4 120.15,46.65 118.8,46.65 C117.575,46.65 116.625,47.45 116.125,48.175 L116.125,56 L112.65,56 L112.65,38.5 Z M138.125,52.9 C138.125,53.525 138.525,53.7 138.975,53.7 C139.175,53.7 139.4,53.675 139.625,53.6 L139.625,55.875 C139.075,56.075 138.375,56.225 137.7,56.225 C136.475,56.225 135.55,55.775 135.05,54.875 C133.875,55.8 132.5,56.35 130.725,56.35 C128.475,56.35 126.525,55.05 126.525,52.675 C126.525,49.625 129.4,48.675 131.8,48.675 C132.75,48.675 133.8,48.8 134.65,49 L134.65,48.575 C134.65,47.375 133.7,46.55 131.825,46.55 C130.175,46.55 128.7,47 127.575,47.45 L127.575,44.45 C128.55,44.125 130.375,43.65 132.225,43.65 C135.825,43.65 138.125,45.125 138.125,49.075 L138.125,52.9 Z M132.6,50.75 C131.325,50.75 130.075,51.175 130.075,52.4 C130.075,53.3 130.9,53.875 131.95,53.875 C132.925,53.875 133.85,53.6 134.65,52.9 L134.65,51.025 C134.125,50.9 133.325,50.75 132.6,50.75 Z M133.4,42.225 L130.05,42.225 L132.3,38.525 L136.1,38.525 L133.4,42.225 Z M144.35,45.525 C145.275,44.45 146.625,43.65 148.35,43.65 C151.5,43.65 153.225,45.8 153.225,48.575 L153.225,56 L149.75,56 L149.75,49.025 C149.75,47.4 148.775,46.65 147.425,46.65 C146.2,46.65 145.25,47.45 144.75,48.175 L144.75,56 L141.275,56 L141.275,44 L144.35,44 L144.35,45.525 Z M155.35,50 C155.35,46.725 157.4,43.65 161.225,43.65 C163.425,43.65 164.8,44.675 165.575,45.75 L165.575,44 L168.625,44 L168.625,55.675 C168.625,60.25 165.25,61.85 161.725,61.85 C159.85,61.85 158.1,61.425 156.65,60.725 L156.65,57.675 C158,58.475 159.625,58.925 161.275,58.925 C163.4,58.925 165.175,58.2 165.175,55.825 L165.175,54.725 C164.4,55.575 163.125,56.35 161.225,56.35 C157.4,56.35 155.35,53.275 155.35,50 Z M165.175,48.575 C164.7,47.525 163.575,46.575 162.05,46.575 C160.075,46.575 158.9,48.125 158.9,50 C158.9,51.875 160.075,53.425 162.05,53.425 C163.575,53.425 164.7,52.5 165.175,51.5 L165.175,48.575 Z M180.45,46.15 C181.95,45.35 183.325,45 185,45 C188.05,45 190.925,46.85 190.925,50.5 C190.925,54.375 187.9,56.35 184.425,56.35 C178.95,56.35 176.725,53 176.725,47.5 C176.725,41.275 180.475,38.65 184.8,38.65 C186.4,38.65 188.025,39.025 189.475,39.7 L189.475,43 C188.3,42.225 186.75,41.8 185.3,41.8 C183,41.8 180.9,42.775 180.45,46.15 Z M180.45,49.175 C180.8,52.35 182.175,53.3 184.125,53.3 C185.775,53.3 187.175,52.55 187.175,50.675 C187.175,48.725 185.6,48.125 183.85,48.125 C182.725,48.125 181.525,48.475 180.45,49.175 Z" id="Ngày-10-tháng-5-—-Ng"></path>
            </g>
        </g>
    </g>
</svg>