<?xml version="1.0" encoding="UTF-8"?>
<svg width="250px" height="323px" viewBox="0 0 250 323" version="1.1" xmlns="http://www.w3.org/2000/svg" xmlns:xlink="http://www.w3.org/1999/xlink">
    <!-- Generator: Sketch 48.2 (47327) - http://www.bohemiancoding.com/sketch -->
    <title>text_4</title>
    <desc>Created with Sketch.</desc>
    <defs>
        <radialGradient cx="400%" cy="400%" fx="400%" fy="400%" r="100.47898%" gradientTransform="translate(4.000000,4.000000),scale(1.000000,0.999999),translate(-4.000000,-4.000000)" id="radialGradient-1">
            <stop stop-color="#8D00FF" offset="0%"></stop>
            <stop stop-color="#5C00FE" offset="69.8959662%"></stop>
            <stop stop-color="#8900FF" offset="100%"></stop>
        </radialGradient>
        <radialGradient cx="50%" cy="50%" fx="50%" fy="50%" r="50.0253367%" id="radialGradient-2">
            <stop stop-color="#FF9495" offset="0%"></stop>
            <stop stop-color="#FE5F60" offset="70.3742825%"></stop>
            <stop stop-color="#FF9091" offset="100%"></stop>
        </radialGradient>
    </defs>
    <g id="Page-1" stroke="none" stroke-width="1" fill="none" fill-rule="evenodd">
        <g id="text_4" transform="translate(0.000000, -7.000000)">
            <g id="4-copy" transform="translate(0.000000, 79.000000)" fill-rule="nonzero">
                <g id="Group-Copy-3" transform="translate(0.545890, 0.588188)">
                    <g id="Group-3" transform="translate(0.000000, 0.762969)">
                        <g id="Group-8">
                            <path d="M0,125.013369 C2.91814549e-05,116.804853 0.800756631,108.675226 2.40218235,100.624437 C4.00360807,92.5736583 6.37495729,84.7564426 9.51623002,77.1727836 C12.6575028,69.5891246 16.5083459,62.384737 21.0687478,55.5596266 C25.6291439,48.7345168 30.8114843,42.4198151 36.6157632,36.6155391 C42.420048,30.811259 48.7347397,25.6289238 55.5598326,21.068533 C62.3849314,16.5081428 69.589319,12.6573224 77.1729546,9.51607244 C84.7565844,6.37482306 92.5737943,4.0035001 100.624537,2.40210473 C108.675281,0.800704688 116.804785,0 125.013248,0 L125.013248,56.256007 C120.498614,56.2560362 116.027356,56.6964369 111.599467,57.5772266 C107.171572,58.4580046 102.872157,59.7622464 98.7011703,61.4899402 C94.5301832,63.2176458 90.5678202,65.3356124 86.8140346,67.8438344 C83.0602548,70.3520563 79.5872123,73.2023432 76.3948837,76.3946952 C73.2025551,79.5870471 70.3522856,83.0601305 67.8440987,86.8139278 C65.335906,90.5677368 63.2179685,94.5301406 61.4902922,98.7011394 C59.7626275,102.872138 58.4584032,107.171594 57.5776369,111.599518 C56.6968997,116.027406 56.2565282,120.498706 56.2565107,125.013369 L0,125.013369 Z" id="Fill-8" fill="url(#radialGradient-1)"></path>
                            <path d="M124.740231,0 C132.917139,3.54646161e-05 140.809466,0.797690493 148.829249,2.3929616 C156.849031,3.98823619 164.636136,6.35047671 172.190582,9.47968199 C179.745051,12.6088826 186.921705,16.4449279 193.720557,20.9878092 C200.519385,25.5306945 206.80975,30.693127 212.591686,36.4751065 C218.373622,42.2570854 223.535985,48.5475211 228.078816,55.3464036 C232.621648,62.1452961 236.457622,69.3219914 239.586764,76.8764895 C242.715941,84.431005 245.078181,92.2181743 246.673414,100.237997 C248.268642,108.257814 249.066241,116.3562 249.066241,124.533125 C249.066206,132.710109 248.268572,140.808524 246.673269,148.828376 C245.078041,156.848228 242.715802,164.635409 239.586549,172.189947 C236.457372,179.74448 232.621334,186.921193 228.078462,193.720074 C223.535595,200.518961 218.373157,206.809395 212.591151,212.591383 C206.80918,218.373372 200.518781,223.535793 193.719865,228.078677 C186.920978,232.621543 179.744289,236.45757 172.189785,239.586729 C164.635281,242.715924 156.848106,245.078129 148.828289,246.673379 C140.808455,248.268624 132.710069,249.066241 124.533126,249.066241 C116.356143,249.066206 108.257746,248.268555 100.237911,246.673269 C92.2180591,245.078007 84.4308608,242.715767 76.8763221,239.586549 C69.3217834,236.457355 62.1450765,232.621316 55.3461899,228.078444 C48.5472975,223.53556 42.256863,218.373139 36.4748864,212.591151 C30.6929041,206.809186 25.5304769,200.518746 20.9876108,193.719865 C16.4447331,186.920978 12.6087116,179.744289 9.4795232,172.189767 C6.3503348,164.635263 3.98812395,156.848106 2.39288484,148.828289 C0.797622465,140.808454 5.00693342e-16,132.710068 0,124.533125 C0,124.533122 18.6801356,124.533128 56.0404068,124.533143 C56.0404243,129.030463 56.479139,133.484604 57.3565452,137.895518 C58.2339282,142.306439 59.5331599,146.589378 61.2542228,150.744372 C62.9753032,154.899372 65.0851164,158.846554 67.5837091,162.585949 C70.0823017,166.32535 72.9216395,169.785103 76.1017226,172.965187 C79.2818172,176.14527 82.7415591,178.984607 86.4809366,181.4832 C90.2203198,183.981752 94.1674967,186.091571 98.3224788,187.812634 C102.477461,189.533691 106.7604,190.832923 111.171297,191.710312 C115.5822,192.587677 120.0363,193.026363 124.533621,193.026363 C129.030947,193.026345 133.485081,192.587642 137.896019,191.710259 C142.306916,190.832853 146.589873,189.533621 150.744873,187.812541 C154.899872,186.091484 158.847049,183.981665 162.58645,181.483072 C166.325827,178.98448 169.785569,176.145147 172.965664,172.965064 C176.145764,169.784981 178.985102,166.325239 181.483695,162.585845 C183.98227,158.846444 186.092083,154.899267 187.813129,150.744285 C189.534168,146.589303 190.8334,142.306363 191.710789,137.895466 C192.588172,133.484552 193.026857,129.030446 193.02684,124.533143 C193.026823,120.035823 192.588119,115.581682 191.710736,111.170767 C190.83333,106.759847 189.534099,102.47689 187.813018,98.3218963 C186.091979,94.1669026 183.982159,90.2197141 181.483567,86.480325 C178.98498,82.7409359 176.145625,79.2811998 172.965542,76.1011109 C169.785459,72.9210162 166.325723,70.08169 162.586322,67.583109 C158.846927,65.0845221 154.899744,62.9747088 150.744762,61.2536575 C146.589786,59.5326062 142.306846,58.2333804 137.895961,57.3559916 C133.485047,56.4786086 129.030947,56.0399171 124.533621,56.0399171 L124.740231,0 Z" id="Fill-8" fill="url(#radialGradient-2)"></path>
                        </g>
                    </g>
                    <circle id="Oval" fill="#FFFFFF" cx="124.90822" cy="125.671189" r="87.3982442"></circle>
                    <path d="M80.636845,151.728204 L78.3130269,151.728204 L78.3130269,148.585769 C76.3589072,148.374512 74.5104155,147.846372 73.0316222,147.027754 L73.0316222,144.070168 C75.064963,145.364112 77.4415951,145.892252 79.554157,145.892252 C81.9307892,145.892252 83.5416176,145.337705 83.5416176,143.594841 C83.5416176,139.316903 73.1108433,141.587907 73.1108433,135.038965 C73.1108433,132.028565 75.4082543,130.417736 78.3130269,130.074445 L78.3130269,126.905602 L80.636845,126.905602 L80.636845,130.048038 C82.4061156,130.180073 84.1753862,130.655399 85.4165163,131.394796 L85.4165163,134.273162 C83.911316,133.269695 81.8515681,132.715147 79.8710413,132.741554 C77.6264443,132.741554 76.174058,133.40173 76.174058,134.986151 C76.174058,138.973612 86.6048324,136.834643 86.6048324,143.436399 C86.6048324,147.001347 83.937723,148.427326 80.636845,148.612176 L80.636845,151.728204 Z M88.7702083,139.316903 C88.7702083,134.061906 91.2524685,129.995224 96.8243505,129.995224 C102.396233,129.995224 104.878493,134.061906 104.878493,139.316903 C104.878493,144.571901 102.396233,148.638583 96.8243505,148.638583 C91.2524685,148.638583 88.7702083,144.571901 88.7702083,139.316903 Z M101.841685,139.316903 C101.841685,135.144593 100.257264,132.741554 96.8243505,132.741554 C93.3650304,132.741554 91.807016,135.144593 91.807016,139.316903 C91.807016,143.489213 93.3650304,145.892252 96.8243505,145.892252 C100.257264,145.892252 101.841685,143.489213 101.841685,139.316903 Z M110.978515,146.842905 C110.978515,148.031221 110.159898,148.585769 109.209245,148.585769 C108.258592,148.585769 107.413567,148.031221 107.413567,146.842905 C107.413567,145.707403 108.258592,145.152855 109.209245,145.152855 C110.159898,145.152855 110.978515,145.707403 110.978515,146.842905 Z M113.51359,139.316903 C113.51359,134.061906 115.99585,129.995224 121.567732,129.995224 C127.139614,129.995224 129.621874,134.061906 129.621874,139.316903 C129.621874,144.571901 127.139614,148.638583 121.567732,148.638583 C115.99585,148.638583 113.51359,144.571901 113.51359,139.316903 Z M126.585066,139.316903 C126.585066,135.144593 125.000645,132.741554 121.567732,132.741554 C118.108412,132.741554 116.550397,135.144593 116.550397,139.316903 C116.550397,143.489213 118.108412,145.892252 121.567732,145.892252 C125.000645,145.892252 126.585066,143.489213 126.585066,139.316903 Z M141.082522,130.338515 L144.172144,130.338515 L144.172144,142.01042 L147.261766,142.01042 L147.261766,144.624715 L144.172144,144.624715 L144.172144,148.295291 L141.267371,148.295291 L141.267371,144.624715 L131.52318,144.624715 L131.52318,142.063234 L141.082522,130.338515 Z M141.267371,142.01042 L141.267371,134.167534 L134.876872,142.01042 L141.267371,142.01042 Z M148.714152,130.338515 L162.049699,130.338515 L162.049699,132.715147 L154.602918,148.295291 L151.354855,148.295291 L158.643193,133.032032 L148.714152,133.032032 L148.714152,130.338515 Z M165.007286,130.338515 L176.071829,130.338515 L176.071829,133.032032 L167.780023,133.032032 L167.515953,137.362783 C168.387385,137.151527 169.311631,137.045899 170.235876,137.045899 C173.695197,137.045899 176.916853,138.5511 176.916853,142.776223 C176.916853,146.658056 173.615976,148.638583 169.654922,148.638583 C167.568767,148.638583 165.482612,148.189663 163.898191,147.42386 L163.898191,144.598308 C165.403391,145.46974 167.436732,145.918659 169.311631,145.918659 C171.97874,145.918659 173.880046,144.862378 173.880046,142.749816 C173.880046,140.373184 171.846705,139.528159 168.994746,139.528159 C167.54236,139.528159 165.878718,139.818637 164.426331,140.32037 L165.007286,130.338515 Z M90.2886122,162.338515 L92.5068022,162.338515 L92.5068022,177.575368 L95.702052,177.575368 L95.702052,180.295291 L85.9314533,180.295291 L85.9314533,177.575368 L89.5228085,177.575368 L89.5228085,165.428137 L85.9314533,166.774895 L85.9314533,164.002158 L90.2886122,162.338515 Z M121.528121,161.810375 L124.248045,161.810375 L124.248045,180.295291 L121.237644,180.295291 L121.237644,167.35585 L115.401692,176.122982 L113.606014,176.122982 L107.770062,167.329443 L107.770062,180.295291 L104.759661,180.295291 L104.759661,161.810375 L107.479585,161.810375 L114.503853,172.399591 L121.528121,161.810375 Z M131.747639,180.295291 L128.737239,180.295291 L128.737239,161.810375 L131.56279,161.810375 L141.518238,175.330771 C141.491831,174.697002 141.491831,173.984013 141.491831,173.29743 L141.491831,161.810375 L144.502232,161.810375 L144.502232,180.295291 L141.67668,180.295291 L131.721232,166.774895 C131.747639,167.408664 131.747639,168.121653 131.747639,168.781829 L131.747639,180.295291 Z M152.001827,180.295291 L148.991426,180.295291 L148.991426,161.810375 L156.385393,161.810375 C159.844713,161.810375 163.488882,163.18354 163.488882,167.593513 C163.488882,170.894391 161.429134,172.478812 158.999688,173.059767 L164.914861,180.295291 L161.297099,180.295291 L155.751624,173.376651 L152.001827,173.376651 L152.001827,180.295291 Z M152.001827,164.556705 L152.001827,170.709542 L156.517428,170.709542 C158.497954,170.709542 160.425667,169.996552 160.425667,167.646327 C160.425667,165.269695 158.497954,164.556705 156.517428,164.556705 L152.001827,164.556705 Z" id="$0.0475-1-MNR" fill="#131F3C"></path>
                </g>
            </g>
            <path d="M106.882121,146.928629 L119.344324,146.928629 L119.344324,151.269397 L111.530943,151.241392 L111.334908,154.041887 C112.035032,153.929867 112.735156,153.873857 113.37927,153.873857 C117.271958,153.873857 120.184472,155.638169 120.184472,159.922926 C120.184472,164.627757 116.011735,166.420074 111.754983,166.420074 C109.542592,166.420074 107.330201,165.94399 105.621899,165.131847 L105.621899,160.371005 C107.106161,161.407188 109.346557,161.939282 111.194884,161.939282 C113.351265,161.939282 115.003557,161.295168 115.003557,159.810906 C115.003557,158.606693 114.023384,157.68253 110.914834,157.654525 C109.710621,157.654525 107.974314,157.822555 106.210003,158.438664 L106.882121,146.928629 Z M130.126229,167.680297 L127.045685,167.680297 L138.499709,144.716238 L141.580254,144.716238 L130.126229,167.680297 Z M132.590665,151.017352 C132.590665,154.377946 130.126229,156.058243 127.269725,156.058243 C124.385215,156.058243 121.920779,154.377946 121.920779,151.017352 C121.920779,147.656758 124.385215,145.976461 127.269725,145.976461 C130.126229,145.976461 132.590665,147.656758 132.590665,151.017352 Z M125.617433,151.017352 C125.617433,151.857501 126.065512,152.697649 127.269725,152.697649 C128.445933,152.697649 128.894012,151.857501 128.894012,151.017352 C128.894012,150.177204 128.445933,149.337055 127.269725,149.337055 C126.065512,149.337055 125.617433,150.177204 125.617433,151.017352 Z M146.59314,161.379183 C146.59314,164.739777 144.128704,166.420074 141.272199,166.420074 C138.38769,166.420074 135.923254,164.739777 135.923254,161.379183 C135.923254,158.018589 138.38769,156.338292 141.272199,156.338292 C144.128704,156.338292 146.59314,158.018589 146.59314,161.379183 Z M139.619907,161.379183 C139.619907,162.219332 140.067987,163.05948 141.272199,163.05948 C142.448407,163.05948 142.896486,162.219332 142.896486,161.379183 C142.896486,160.539035 142.448407,159.698886 141.272199,159.698886 C140.067987,159.698886 139.619907,160.539035 139.619907,161.379183 Z" id="5%" fill="#131F3C" fill-rule="nonzero"></path>
            <g id="diskon" transform="translate(1.000000, 172.000000)" fill="#000000">
                <path d="M79.3862578,14.95 C79.3862578,9.108 83.7332578,6.578 88.1492578,6.578 C89.8742578,6.578 91.5992578,6.946 93.0942578,7.613 L93.0942578,10.902 C91.8752578,10.097 90.2422578,9.66 88.6092578,9.66 C85.7342578,9.66 82.9052578,11.178 82.9052578,14.95 C82.9052578,19.228 86.0562578,20.309 88.4252578,20.309 C89.1152578,20.309 89.7132578,20.194 90.1962578,20.01 L90.1962578,14.26 L93.4852578,14.26 L93.4852578,22.241 C91.8752578,22.931 90.0352578,23.322 88.2412578,23.322 C83.7332578,23.322 79.3862578,20.861 79.3862578,14.95 Z M99.2582578,23 L96.0612578,23 L96.0612578,11.96 L99.2582578,11.96 L99.2582578,23 Z M99.5342578,8.303 C99.5342578,9.568 98.6602578,10.12 97.6482578,10.12 C96.6592578,10.12 95.7852578,9.568 95.7852578,8.303 C95.7852578,7.061 96.6592578,6.509 97.6482578,6.509 C98.6602578,6.509 99.5342578,7.061 99.5342578,8.303 Z M108.780887,21.6748047 C107.672808,22.7454481 106.486134,23.2807617 105.220828,23.2807617 C104.142698,23.2807617 103.26673,22.9513379 102.592898,22.2924805 C101.919067,21.633623 101.582156,20.7801159 101.582156,19.7319336 C101.582156,18.3692966 102.126829,17.3192582 103.216189,16.5817871 C104.30555,15.844316 105.864698,15.4755859 107.89368,15.4755859 L108.780887,15.4755859 L108.780887,14.3525391 C108.780887,13.0722592 108.050914,12.4321289 106.590945,12.4321289 C105.295691,12.4321289 103.985483,12.7989872 102.660281,13.5327148 L102.660281,11.2416992 C104.165172,10.672686 105.655066,10.3881836 107.130008,10.3881836 C110.356912,10.3881836 111.97034,11.6721877 111.97034,14.2402344 L111.97034,19.6982422 C111.97034,20.6640673 112.281046,21.1469727 112.902469,21.1469727 C113.014774,21.1469727 113.160769,21.1319988 113.340457,21.1020508 L113.41907,22.9663086 C112.715291,23.1759451 112.093878,23.2807617 111.554812,23.2807617 C110.192175,23.2807617 109.316208,22.7454481 108.926883,21.6748047 L108.780887,21.6748047 Z M108.780887,19.8891602 L108.780887,17.3847656 L107.994754,17.3847656 C105.84598,17.3847656 104.771609,18.058587 104.771609,19.40625 C104.771609,19.862958 104.926963,20.2466619 105.237674,20.557373 C105.548385,20.8680842 105.932089,21.0234375 106.388797,21.0234375 C107.167447,21.0234375 107.964802,20.6453488 108.780887,19.8891602 Z M107.826297,8.75976562 L105.613895,8.75976562 L105.613895,8.625 C105.613895,8.25813619 105.662559,7.99047936 105.759891,7.82202148 C105.857222,7.65356361 106.096803,7.42708476 106.478641,7.14257812 L106.71448,6.96289062 C106.804325,6.89550748 106.909141,6.82063843 107.028934,6.73828125 C107.320927,6.52864479 107.466922,6.30778111 107.466922,6.07568359 C107.466922,5.64892365 107.092577,5.43554688 106.343875,5.43554688 C105.857219,5.43554688 105.265753,5.53662008 104.569461,5.73876953 L104.569461,4.34619141 C105.318163,4.15152897 106.021932,4.05419922 106.680789,4.05419922 C108.724745,4.05419922 109.746707,4.60823014 109.746707,5.71630859 C109.746707,6.13558152 109.484665,6.56607852 108.960574,7.0078125 C108.833295,7.11263073 108.739709,7.19124323 108.679812,7.24365234 L108.432742,7.46826172 C108.028443,7.83512553 107.826297,8.18701003 107.826297,8.52392578 L107.826297,8.75976562 Z M118.736742,23 L115.539742,23 L115.539742,11.96 L118.368742,11.96 L118.368742,13.248 C118.943742,12.558 120.208742,11.638 121.887742,11.638 C123.543742,11.638 124.624742,12.328 125.268742,13.271 C126.188742,12.374 127.430742,11.638 128.948742,11.638 C132.053742,11.638 133.065742,14.053 133.065742,16.008 L133.065742,23 L129.891742,23 L129.891742,16.215 C129.891742,15.065 129.178742,14.398 128.166742,14.398 C127.292742,14.398 126.510742,14.904 125.981742,15.502 C126.004742,15.663 126.004742,15.824 126.004742,16.008 L126.004742,23 L122.830742,23 L122.830742,16.215 C122.830742,15.065 122.117742,14.398 121.105742,14.398 C120.139742,14.398 119.265742,15.042 118.736742,15.732 L118.736742,23 Z M140.149742,17.48 C140.149742,14.467 142.035742,11.638 145.554742,11.638 C147.578742,11.638 148.843742,12.581 149.556742,13.57 L149.556742,11.96 L152.362742,11.96 L152.362742,22.701 C152.362742,26.91 149.257742,28.382 146.014742,28.382 C144.289742,28.382 142.679742,27.991 141.345742,27.347 L141.345742,24.541 C142.587742,25.277 144.082742,25.691 145.600742,25.691 C147.555742,25.691 149.188742,25.024 149.188742,22.839 L149.188742,21.827 C148.475742,22.609 147.302742,23.322 145.554742,23.322 C142.035742,23.322 140.149742,20.493 140.149742,17.48 Z M149.188742,16.169 C148.751742,15.203 147.716742,14.329 146.313742,14.329 C144.496742,14.329 143.415742,15.755 143.415742,17.48 C143.415742,19.205 144.496742,20.631 146.313742,20.631 C147.716742,20.631 148.751742,19.78 149.188742,18.86 L149.188742,16.169 Z M158.296742,23 L155.099742,23 L155.099742,11.96 L158.296742,11.96 L158.296742,23 Z M158.572742,8.303 C158.572742,9.568 157.698742,10.12 156.686742,10.12 C155.697742,10.12 154.823742,9.568 154.823742,8.303 C154.823742,7.061 155.697742,6.509 156.686742,6.509 C157.698742,6.509 158.572742,7.061 158.572742,8.303 Z M170.923742,20.148 C170.923742,20.723 171.291742,20.884 171.705742,20.884 C171.889742,20.884 172.096742,20.861 172.303742,20.792 L172.303742,22.885 C171.797742,23.069 171.153742,23.207 170.532742,23.207 C169.405742,23.207 168.554742,22.793 168.094742,21.965 C167.013742,22.816 165.748742,23.322 164.115742,23.322 C162.045742,23.322 160.251742,22.126 160.251742,19.941 C160.251742,17.135 162.896742,16.261 165.104742,16.261 C165.978742,16.261 166.944742,16.376 167.726742,16.56 L167.726742,16.169 C167.726742,15.065 166.852742,14.306 165.127742,14.306 C163.609742,14.306 162.252742,14.72 161.217742,15.134 L161.217742,12.374 C162.114742,12.075 163.793742,11.638 165.495742,11.638 C168.807742,11.638 170.923742,12.995 170.923742,16.629 L170.923742,20.148 Z M165.840742,18.17 C164.667742,18.17 163.517742,18.561 163.517742,19.688 C163.517742,20.516 164.276742,21.045 165.242742,21.045 C166.139742,21.045 166.990742,20.792 167.726742,20.148 L167.726742,18.423 C167.243742,18.308 166.507742,18.17 165.840742,18.17 Z M166.576742,10.327 L163.494742,10.327 L165.564742,6.923 L169.060742,6.923 L166.576742,10.327 Z" id="Giảm-giá"></path>
            </g>
            <g id="Aug.-29-—-Sept.-10" transform="translate(20.000000, 0.000000)" fill="#000000">
                <path d="M5.625,25 L1.875,25 L1.875,7.5 L5.4,7.5 L13.55,18.925 C13.5,18.2 13.475,17.325 13.475,16.525 L13.475,7.5 L17.225,7.5 L17.225,25 L13.7,25 L5.55,13.575 C5.6,14.3 5.625,15.175 5.625,15.975 L5.625,25 Z M19.625,19 C19.625,15.725 21.675,12.65 25.5,12.65 C27.7,12.65 29.075,13.675 29.85,14.75 L29.85,13 L32.9,13 L32.9,24.675 C32.9,29.25 29.525,30.85 26,30.85 C24.125,30.85 22.375,30.425 20.925,29.725 L20.925,26.675 C22.275,27.475 23.9,27.925 25.55,27.925 C27.675,27.925 29.45,27.2 29.45,24.825 L29.45,23.725 C28.675,24.575 27.4,25.35 25.5,25.35 C21.675,25.35 19.625,22.275 19.625,19 Z M29.45,17.575 C28.975,16.525 27.85,15.575 26.325,15.575 C24.35,15.575 23.175,17.125 23.175,19 C23.175,20.875 24.35,22.425 26.325,22.425 C27.85,22.425 28.975,21.5 29.45,20.5 L29.45,17.575 Z M46.575,21.9 C46.575,22.525 46.975,22.7 47.425,22.7 C47.625,22.7 47.85,22.675 48.075,22.6 L48.075,24.875 C47.525,25.075 46.825,25.225 46.15,25.225 C44.925,25.225 44,24.775 43.5,23.875 C42.325,24.8 40.95,25.35 39.175,25.35 C36.925,25.35 34.975,24.05 34.975,21.675 C34.975,18.625 37.85,17.675 40.25,17.675 C41.2,17.675 42.25,17.8 43.1,18 L43.1,17.575 C43.1,16.375 42.15,15.55 40.275,15.55 C38.625,15.55 37.15,16 36.025,16.45 L36.025,13.45 C37,13.125 38.825,12.65 40.675,12.65 C44.275,12.65 46.575,14.125 46.575,18.075 L46.575,21.9 Z M41.05,19.75 C39.775,19.75 38.525,20.175 38.525,21.4 C38.525,22.3 39.35,22.875 40.4,22.875 C41.375,22.875 42.3,22.6 43.1,21.9 L43.1,20.025 C42.575,19.9 41.775,19.75 41.05,19.75 Z M42.875,11.225 L39.525,11.225 L36.825,7.525 L40.625,7.525 L42.875,11.225 Z M54.725,21.1 L57.7,13 L61.3,13 L55.975,26.45 C54.625,29.8 52.75,30.825 50.8,30.825 C50.175,30.825 49.55,30.7 48.925,30.55 L48.925,27.675 C49.4,27.775 49.875,27.85 50.35,27.85 C51.6,27.85 52.55,27 53.2,25.225 L53.225,25.175 L47.55,13 L51.225,13 L54.725,21.1 Z M68,9.45 C69.75,8.2 71.775,7.65 73.85,7.65 C77.275,7.65 80.05,9.2 80.05,12.675 C80.05,15.55 77.675,17.25 75.45,18.575 C73.425,19.775 71.7,20.7 71.675,21.8 L80.175,21.775 L80.175,25 L67.425,25 L67.425,23.325 C67.425,19.225 70.525,17.625 73.025,16.15 C74.8,15.125 76.325,14.45 76.325,12.825 C76.325,11.575 75.225,10.925 73.5,10.925 C71.8,10.925 69.8,11.575 68,12.95 L68,9.45 Z M82.1,13.5 C82.1,9.625 85.125,7.65 88.6,7.65 C94.075,7.65 96.3,11 96.3,16.5 C96.3,22.725 92.55,25.35 88.225,25.35 C86.65,25.35 85,24.975 83.55,24.3 L83.55,21 C84.725,21.775 86.275,22.2 87.725,22.2 C90.025,22.2 92.125,21.225 92.575,17.85 C91.075,18.65 89.7,19 88.05,19 C84.975,19 82.1,17.15 82.1,13.5 Z M88.9,10.7 C87.25,10.7 85.85,11.45 85.85,13.325 C85.85,15.275 87.425,15.875 89.175,15.875 C90.3,15.875 91.475,15.525 92.575,14.85 C92.225,11.65 90.85,10.7 88.9,10.7 Z M104.875,9.5 L108.325,8.675 L108.325,13 L112.125,13 L112.125,15.925 L108.325,15.925 L108.325,20.625 C108.325,21.875 108.95,22.425 110.25,22.425 C111.05,22.425 111.725,22.3 112.425,22.025 L112.425,24.825 C111.5,25.15 110.4,25.35 109.2,25.35 C106.875,25.35 104.875,24.275 104.875,21.3 L104.875,15.925 L102.85,15.925 L102.85,13 L104.875,13 L104.875,9.5 Z M114.425,7.5 L117.9,7.5 L117.9,14.1 C118.775,13.275 120,12.65 121.5,12.65 C124.65,12.65 126.375,14.8 126.375,17.575 L126.375,25 L122.9,25 L122.9,18.025 C122.9,16.4 121.925,15.65 120.575,15.65 C119.35,15.65 118.4,16.45 117.9,17.175 L117.9,25 L114.425,25 L114.425,7.5 Z M139.9,21.9 C139.9,22.525 140.3,22.7 140.75,22.7 C140.95,22.7 141.175,22.675 141.4,22.6 L141.4,24.875 C140.85,25.075 140.15,25.225 139.475,25.225 C138.25,25.225 137.325,24.775 136.825,23.875 C135.65,24.8 134.275,25.35 132.5,25.35 C130.25,25.35 128.3,24.05 128.3,21.675 C128.3,18.625 131.175,17.675 133.575,17.675 C134.525,17.675 135.575,17.8 136.425,18 L136.425,17.575 C136.425,16.375 135.475,15.55 133.6,15.55 C131.95,15.55 130.475,16 129.35,16.45 L129.35,13.45 C130.325,13.125 132.15,12.65 134,12.65 C137.6,12.65 139.9,14.125 139.9,18.075 L139.9,21.9 Z M134.375,19.75 C133.1,19.75 131.85,20.175 131.85,21.4 C131.85,22.3 132.675,22.875 133.725,22.875 C134.7,22.875 135.625,22.6 136.425,21.9 L136.425,20.025 C135.9,19.9 135.1,19.75 134.375,19.75 Z M135.175,11.225 L131.825,11.225 L134.075,7.525 L137.875,7.525 L135.175,11.225 Z M146.125,14.525 C147.05,13.45 148.4,12.65 150.125,12.65 C153.275,12.65 155,14.8 155,17.575 L155,25 L151.525,25 L151.525,18.025 C151.525,16.4 150.55,15.65 149.2,15.65 C147.975,15.65 147.025,16.45 146.525,17.175 L146.525,25 L143.05,25 L143.05,13 L146.125,13 L146.125,14.525 Z M157.125,19 C157.125,15.725 159.175,12.65 163,12.65 C165.2,12.65 166.575,13.675 167.35,14.75 L167.35,13 L170.4,13 L170.4,24.675 C170.4,29.25 167.025,30.85 163.5,30.85 C161.625,30.85 159.875,30.425 158.425,29.725 L158.425,26.675 C159.775,27.475 161.4,27.925 163.05,27.925 C165.175,27.925 166.95,27.2 166.95,24.825 L166.95,23.725 C166.175,24.575 164.9,25.35 163,25.35 C159.175,25.35 157.125,22.275 157.125,19 Z M166.95,17.575 C166.475,16.525 165.35,15.575 163.825,15.575 C161.85,15.575 160.675,17.125 160.675,19 C160.675,20.875 161.85,22.425 163.825,22.425 C165.35,22.425 166.475,21.5 166.95,20.5 L166.95,17.575 Z M179.075,12.35 C179.075,10.075 180.975,7.65 185.625,7.65 C189.95,7.65 192.2,10.075 192.225,12.45 C192.25,14.1 191.45,15.35 190.075,16.375 C191.625,17.15 192.85,18.35 192.85,20.4 C192.85,22.9 190.8,25.35 185.675,25.35 C180.6,25.35 178.45,22.875 178.45,20.275 C178.45,18.575 179.5,16.95 181.1,16 C179.925,15.2 179.075,14.075 179.075,12.35 Z M186.05,18 C185.3,17.725 184.4,17.475 183.525,17.15 C182.6,17.925 182.175,18.95 182.2,19.825 C182.225,21.275 183.375,22.4 185.95,22.4 C187.75,22.4 189.125,21.65 189.125,20.5 C189.125,19.05 187.725,18.575 186.05,18 Z M188.625,12.725 C188.625,11.55 187.575,10.6 185.475,10.6 C183.675,10.6 182.65,11.425 182.65,12.375 C182.65,13.875 184.175,14.35 185.85,14.9 C186.35,15.025 186.875,15.2 187.425,15.35 C188.225,14.55 188.65,13.55 188.625,12.725 Z M217.4,20.375 L200.8,20.375 L200.8,17.45 L217.4,17.45 L217.4,20.375 Z M4.55,45.525 C5.475,44.45 6.825,43.65 8.55,43.65 C11.7,43.65 13.425,45.8 13.425,48.575 L13.425,56 L9.95,56 L9.95,49.025 C9.95,47.4 8.975,46.65 7.625,46.65 C6.4,46.65 5.45,47.45 4.95,48.175 L4.95,56 L1.475,56 L1.475,44 L4.55,44 L4.55,45.525 Z M15.55,50 C15.55,46.725 17.6,43.65 21.425,43.65 C23.625,43.65 25,44.675 25.775,45.75 L25.775,44 L28.825,44 L28.825,55.675 C28.825,60.25 25.45,61.85 21.925,61.85 C20.05,61.85 18.3,61.425 16.85,60.725 L16.85,57.675 C18.2,58.475 19.825,58.925 21.475,58.925 C23.6,58.925 25.375,58.2 25.375,55.825 L25.375,54.725 C24.6,55.575 23.325,56.35 21.425,56.35 C17.6,56.35 15.55,53.275 15.55,50 Z M25.375,48.575 C24.9,47.525 23.775,46.575 22.25,46.575 C20.275,46.575 19.1,48.125 19.1,50 C19.1,51.875 20.275,53.425 22.25,53.425 C23.775,53.425 24.9,52.5 25.375,51.5 L25.375,48.575 Z M42.5,52.9 C42.5,53.525 42.9,53.7 43.35,53.7 C43.55,53.7 43.775,53.675 44,53.6 L44,55.875 C43.45,56.075 42.75,56.225 42.075,56.225 C40.85,56.225 39.925,55.775 39.425,54.875 C38.25,55.8 36.875,56.35 35.1,56.35 C32.85,56.35 30.9,55.05 30.9,52.675 C30.9,49.625 33.775,48.675 36.175,48.675 C37.125,48.675 38.175,48.8 39.025,49 L39.025,48.575 C39.025,47.375 38.075,46.55 36.2,46.55 C34.55,46.55 33.075,47 31.95,47.45 L31.95,44.45 C32.925,44.125 34.75,43.65 36.6,43.65 C40.2,43.65 42.5,45.125 42.5,49.075 L42.5,52.9 Z M36.975,50.75 C35.7,50.75 34.45,51.175 34.45,52.4 C34.45,53.3 35.275,53.875 36.325,53.875 C37.3,53.875 38.225,53.6 39.025,52.9 L39.025,51.025 C38.5,50.9 37.7,50.75 36.975,50.75 Z M38.8,42.225 L35.45,42.225 L32.75,38.525 L36.55,38.525 L38.8,42.225 Z M50.65,52.1 L53.625,44 L57.225,44 L51.9,57.45 C50.55,60.8 48.675,61.825 46.725,61.825 C46.1,61.825 45.475,61.7 44.85,61.55 L44.85,58.675 C45.325,58.775 45.8,58.85 46.275,58.85 C47.525,58.85 48.475,58 49.125,56.225 L49.15,56.175 L43.475,44 L47.15,44 L50.65,52.1 Z M67.75,39 L70.475,39 L70.475,52.775 L73.325,52.775 L73.325,56 L63.625,56 L63.625,52.775 L66.825,52.775 L66.825,42.75 L63.625,43.95 L63.625,40.575 L67.75,39 Z M74.95,47.5 C74.95,42.6 77.275,38.65 82.7,38.65 C88.125,38.65 90.45,42.6 90.45,47.5 C90.45,52.4 88.125,56.35 82.7,56.35 C77.275,56.35 74.95,52.4 74.95,47.5 Z M86.7,47.5 C86.7,43.875 85.45,41.95 82.7,41.95 C79.95,41.95 78.7,43.875 78.7,47.5 C78.7,51.125 79.95,53.05 82.7,53.05 C85.45,53.05 86.7,51.125 86.7,47.5 Z M99.025,40.5 L102.475,39.675 L102.475,44 L106.275,44 L106.275,46.925 L102.475,46.925 L102.475,51.625 C102.475,52.875 103.1,53.425 104.4,53.425 C105.2,53.425 105.875,53.3 106.575,53.025 L106.575,55.825 C105.65,56.15 104.55,56.35 103.35,56.35 C101.025,56.35 99.025,55.275 99.025,52.3 L99.025,46.925 L97,46.925 L97,44 L99.025,44 L99.025,40.5 Z M108.575,38.5 L112.05,38.5 L112.05,45.1 C112.925,44.275 114.15,43.65 115.65,43.65 C118.8,43.65 120.525,45.8 120.525,48.575 L120.525,56 L117.05,56 L117.05,49.025 C117.05,47.4 116.075,46.65 114.725,46.65 C113.5,46.65 112.55,47.45 112.05,48.175 L112.05,56 L108.575,56 L108.575,38.5 Z M134.05,52.9 C134.05,53.525 134.45,53.7 134.9,53.7 C135.1,53.7 135.325,53.675 135.55,53.6 L135.55,55.875 C135,56.075 134.3,56.225 133.625,56.225 C132.4,56.225 131.475,55.775 130.975,54.875 C129.8,55.8 128.425,56.35 126.65,56.35 C124.4,56.35 122.45,55.05 122.45,52.675 C122.45,49.625 125.325,48.675 127.725,48.675 C128.675,48.675 129.725,48.8 130.575,49 L130.575,48.575 C130.575,47.375 129.625,46.55 127.75,46.55 C126.1,46.55 124.625,47 123.5,47.45 L123.5,44.45 C124.475,44.125 126.3,43.65 128.15,43.65 C131.75,43.65 134.05,45.125 134.05,49.075 L134.05,52.9 Z M128.525,50.75 C127.25,50.75 126,51.175 126,52.4 C126,53.3 126.825,53.875 127.875,53.875 C128.85,53.875 129.775,53.6 130.575,52.9 L130.575,51.025 C130.05,50.9 129.25,50.75 128.525,50.75 Z M129.325,42.225 L125.975,42.225 L128.225,38.525 L132.025,38.525 L129.325,42.225 Z M140.275,45.525 C141.2,44.45 142.55,43.65 144.275,43.65 C147.425,43.65 149.15,45.8 149.15,48.575 L149.15,56 L145.675,56 L145.675,49.025 C145.675,47.4 144.7,46.65 143.35,46.65 C142.125,46.65 141.175,47.45 140.675,48.175 L140.675,56 L137.2,56 L137.2,44 L140.275,44 L140.275,45.525 Z M151.275,50 C151.275,46.725 153.325,43.65 157.15,43.65 C159.35,43.65 160.725,44.675 161.5,45.75 L161.5,44 L164.55,44 L164.55,55.675 C164.55,60.25 161.175,61.85 157.65,61.85 C155.775,61.85 154.025,61.425 152.575,60.725 L152.575,57.675 C153.925,58.475 155.55,58.925 157.2,58.925 C159.325,58.925 161.1,58.2 161.1,55.825 L161.1,54.725 C160.325,55.575 159.05,56.35 157.15,56.35 C153.325,56.35 151.275,53.275 151.275,50 Z M161.1,48.575 C160.625,47.525 159.5,46.575 157.975,46.575 C156,46.575 154.825,48.125 154.825,50 C154.825,51.875 156,53.425 157.975,53.425 C159.5,53.425 160.625,52.5 161.1,51.5 L161.1,48.575 Z M172.35,44.5 C172.35,40.625 175.375,38.65 178.85,38.65 C184.325,38.65 186.55,42 186.55,47.5 C186.55,53.725 182.8,56.35 178.475,56.35 C176.9,56.35 175.25,55.975 173.8,55.3 L173.8,52 C174.975,52.775 176.525,53.2 177.975,53.2 C180.275,53.2 182.375,52.225 182.825,48.85 C181.325,49.65 179.95,50 178.3,50 C175.225,50 172.35,48.15 172.35,44.5 Z M179.15,41.7 C177.5,41.7 176.1,42.45 176.1,44.325 C176.1,46.275 177.675,46.875 179.425,46.875 C180.55,46.875 181.725,46.525 182.825,45.85 C182.475,42.65 181.1,41.7 179.15,41.7 Z" id="Ngày-29-tháng-8-—-ng"></path>
            </g>
        </g>
    </g>
</svg>