<?xml version="1.0" encoding="UTF-8"?>
<svg width="250px" height="291px" viewBox="0 0 250 291" version="1.1" xmlns="http://www.w3.org/2000/svg" xmlns:xlink="http://www.w3.org/1999/xlink">
    <!-- Generator: Sketch 48.2 (47327) - http://www.bohemiancoding.com/sketch -->
    <title>text_1</title>
    <desc>Created with Sketch.</desc>
    <defs>
        <radialGradient cx="100%" cy="100%" fx="100%" fy="100%" r="50.0301469%" gradientTransform="translate(1.000000,1.000000),translate(-1.000000,-1.000000)" id="radialGradient-1">
            <stop stop-color="#8D00FF" offset="0%"></stop>
            <stop stop-color="#5C00FE" offset="69.8959662%"></stop>
            <stop stop-color="#8900FF" offset="100%"></stop>
        </radialGradient>
    </defs>
    <g id="Page-1" stroke="none" stroke-width="1" fill="none" fill-rule="evenodd">
        <g id="text_1" transform="translate(0.000000, -7.000000)">
            <g id="1-copy" transform="translate(0.000000, 48.000000)" fill-rule="nonzero">
                <path d="M124.534208,0.7629689 C132.711116,0.7630043 140.809466,1.5606594 148.829249,3.1559305 C156.849031,4.7512051 164.636136,7.1134456 172.190582,10.2426509 C179.745051,13.3718515 186.921705,17.2078968 193.720557,21.7507781 C200.519385,26.2936634 206.80975,31.4560958 212.591686,37.2380753 C218.373622,43.0200542 223.535985,49.3104899 228.078816,56.109373 C232.621648,62.908265 236.457622,70.08496 239.586764,77.639458 C242.715941,85.193974 245.078181,92.981143 246.673414,101.000966 C248.268642,109.020783 249.066241,117.119169 249.066241,125.296094 C249.066206,133.473078 248.268572,141.571493 246.673269,149.591345 C245.078041,157.611197 242.715802,165.398378 239.586549,172.952916 C236.457372,180.507449 232.621334,187.684162 228.078462,194.483043 C223.535595,201.28193 218.373157,207.572364 212.591151,213.354352 C206.80918,219.13634 200.518781,224.298762 193.719865,228.841645 C186.920978,233.384512 179.744289,237.220539 172.189785,240.349698 C164.635281,243.478892 156.848106,245.841098 148.828289,247.436348 C140.808455,249.031593 132.710069,249.82921 124.533126,249.82921 C116.356143,249.829175 108.257746,249.031523 100.237911,247.436238 C92.2180591,245.840975 84.4308608,243.478736 76.8763221,240.349518 C69.3217834,237.220324 62.1450765,233.384285 55.3461899,228.841413 C48.5472975,224.298529 42.256863,219.136108 36.4748864,213.35412 C30.6929041,207.572155 25.5304769,201.281714 20.9876108,194.482834 C16.4447331,187.683947 12.6087116,180.507257 9.4795232,172.952736 C6.3503348,165.398232 3.98812395,157.611075 2.39288484,149.591257 C0.797622465,141.571423 0,133.473037 0,125.296094 C2.90693572e-05,117.119128 0.797680604,109.020731 2.3929546,101.000867 C3.9882286,92.981015 6.35046852,85.193829 9.47967436,77.639301 C12.6088802,70.084774 16.4449307,62.908062 20.9878143,56.109169 C25.530692,49.3102771 30.693125,43.0198327 36.4751074,37.2378532 C42.2570955,31.4558697 48.54753,26.2934419 55.346405,21.7505694 C62.1452858,17.2076974 69.3219985,13.3716695 76.8765023,10.2424863 C84.4310004,7.1133037 92.2181812,4.7510899 100.237998,3.1558462 C108.257815,1.5605977 116.356195,0.7629735 124.533126,0.7629735 L124.533022,56.802874 C120.03573,56.802903 115.581648,57.241612 111.170768,58.119019 C106.759883,58.996413 102.476984,60.295645 98.3220195,62.016702 C94.1670548,63.737771 90.2199129,65.847601 86.480547,68.346188 C82.741187,70.844775 79.2814858,73.684113 76.1014203,76.864202 C72.9213547,80.044291 70.0820343,83.504033 67.5834823,87.24341 C65.0849246,90.982799 62.9751229,94.929982 61.2540833,99.084958 C59.5330552,103.239934 58.233841,107.522874 57.356458,111.933789 C56.4791041,116.344668 56.0404243,120.798791 56.0404068,125.296112 C56.0404243,129.793432 56.479139,134.247573 57.3565452,138.658487 C58.2339282,143.069408 59.5331599,147.352347 61.2542228,151.507341 C62.9753032,155.66234 65.0851164,159.609523 67.5837091,163.348918 C70.0823017,167.088319 72.9216395,170.548072 76.1017226,173.728155 C79.2818172,176.908238 82.7415591,179.747576 86.4809366,182.246169 C90.2203198,184.744721 94.1674967,186.85454 98.3224788,188.575603 C102.477461,190.29666 106.7604,191.595892 111.171297,192.473281 C115.5822,193.350646 120.0363,193.789332 124.533621,193.789332 C129.030947,193.789314 133.485081,193.350611 137.896019,192.473228 C142.306916,191.595822 146.589873,190.29659 150.744873,188.57551 C154.899872,186.854453 158.847049,184.744634 162.58645,182.246041 C166.325827,179.747448 169.785569,176.908116 172.965664,173.728033 C176.145764,170.54795 178.985102,167.088208 181.483695,163.348813 C183.98227,159.609413 186.092083,155.662236 187.813129,151.507254 C189.534168,147.352272 190.8334,143.069332 191.710789,138.658435 C192.588172,134.24752 193.026857,129.793415 193.02684,125.296112 C193.026823,120.798791 192.588119,116.344651 191.710736,111.933736 C190.83333,107.522816 189.534099,103.239859 187.813018,99.084865 C186.091979,94.929871 183.982159,90.982683 181.483567,87.243294 C178.98498,83.503905 176.145625,80.044169 172.965542,76.86408 C169.785459,73.683985 166.325723,70.844659 162.586322,68.346078 C158.846927,65.847491 154.899744,63.737678 150.744762,62.016626 C146.589786,60.295575 142.306846,58.996349 137.895961,58.11896 C133.485047,57.241577 129.030947,56.802886 124.533621,56.802886 L124.534208,0.7629689 Z" id="Fill-8" fill="url(#radialGradient-1)"></path>
                <circle id="Oval" fill="#FFFFFF" cx="125.65842" cy="126.421389" r="87.3982442"></circle>
                <path d="M77.354572,152.478404 L75.0307539,152.478404 L75.0307539,149.335968 C73.0766341,149.124712 71.2281425,148.596571 69.7493492,147.777954 L69.7493492,144.820367 C71.78269,146.114311 74.1593221,146.642452 76.271884,146.642452 C78.6485161,146.642452 80.2593446,146.087904 80.2593446,144.345041 C80.2593446,140.067103 69.8285702,142.338107 69.8285702,135.789165 C69.8285702,132.778764 72.1259813,131.167936 75.0307539,130.824644 L75.0307539,127.655802 L77.354572,127.655802 L77.354572,130.798237 C79.1238426,130.930273 80.8931132,131.405599 82.1342433,132.144996 L82.1342433,135.023361 C80.6290429,134.019894 78.5692951,133.465347 76.5887683,133.491754 C74.3441713,133.491754 72.891785,134.151929 72.891785,135.736351 C72.891785,139.723811 83.3225593,137.584843 83.3225593,144.186598 C83.3225593,147.751547 80.65545,149.177526 77.354572,149.362375 L77.354572,152.478404 Z M85.4879353,140.067103 C85.4879353,134.812105 87.9701955,130.745423 93.5420775,130.745423 C99.1139595,130.745423 101.59622,134.812105 101.59622,140.067103 C101.59622,145.3221 99.1139595,149.388782 93.5420775,149.388782 C87.9701955,149.388782 85.4879353,145.3221 85.4879353,140.067103 Z M98.559412,140.067103 C98.559412,135.894793 96.9749906,133.491754 93.5420775,133.491754 C90.0827574,133.491754 88.524743,135.894793 88.524743,140.067103 C88.524743,144.239413 90.0827574,146.642452 93.5420775,146.642452 C96.9749906,146.642452 98.559412,144.239413 98.559412,140.067103 Z M107.696242,147.593105 C107.696242,148.781421 106.877625,149.335968 105.926972,149.335968 C104.976319,149.335968 104.131294,148.781421 104.131294,147.593105 C104.131294,146.457602 104.976319,145.903055 105.926972,145.903055 C106.877625,145.903055 107.696242,146.457602 107.696242,147.593105 Z M110.231317,140.067103 C110.231317,134.812105 112.713577,130.745423 118.285459,130.745423 C123.857341,130.745423 126.339601,134.812105 126.339601,140.067103 C126.339601,145.3221 123.857341,149.388782 118.285459,149.388782 C112.713577,149.388782 110.231317,145.3221 110.231317,140.067103 Z M123.302793,140.067103 C123.302793,135.894793 121.718372,133.491754 118.285459,133.491754 C114.826139,133.491754 113.268124,135.894793 113.268124,140.067103 C113.268124,144.239413 114.826139,146.642452 118.285459,146.642452 C121.718372,146.642452 123.302793,144.239413 123.302793,140.067103 Z M137.800249,131.088715 L140.889871,131.088715 L140.889871,142.760619 L143.979493,142.760619 L143.979493,145.374915 L140.889871,145.374915 L140.889871,149.045491 L137.985098,149.045491 L137.985098,145.374915 L128.240907,145.374915 L128.240907,142.813433 L137.800249,131.088715 Z M137.985098,142.760619 L137.985098,134.917733 L131.594599,142.760619 L137.985098,142.760619 Z M146.012834,140.067103 C146.012834,134.812105 148.495094,130.745423 154.066976,130.745423 C159.638858,130.745423 162.121118,134.812105 162.121118,140.067103 C162.121118,145.3221 159.638858,149.388782 154.066976,149.388782 C148.495094,149.388782 146.012834,145.3221 146.012834,140.067103 Z M159.08431,140.067103 C159.08431,135.894793 157.499889,133.491754 154.066976,133.491754 C150.607656,133.491754 149.049641,135.894793 149.049641,140.067103 C149.049641,144.239413 150.607656,146.642452 154.066976,146.642452 C157.499889,146.642452 159.08431,144.239413 159.08431,140.067103 Z M164.656192,140.067103 C164.656192,134.812105 167.138453,130.745423 172.710335,130.745423 C178.282217,130.745423 180.764477,134.812105 180.764477,140.067103 C180.764477,145.3221 178.282217,149.388782 172.710335,149.388782 C167.138453,149.388782 164.656192,145.3221 164.656192,140.067103 Z M177.727669,140.067103 C177.727669,135.894793 176.143248,133.491754 172.710335,133.491754 C169.251015,133.491754 167.693,135.894793 167.693,140.067103 C167.693,144.239413 169.251015,146.642452 172.710335,146.642452 C176.143248,146.642452 177.727669,144.239413 177.727669,140.067103 Z M90.6637119,163.088715 L92.8819019,163.088715 L92.8819019,178.325567 L96.0771518,178.325567 L96.0771518,181.045491 L86.306553,181.045491 L86.306553,178.325567 L89.8979083,178.325567 L89.8979083,166.178336 L86.306553,167.525095 L86.306553,164.752357 L90.6637119,163.088715 Z M121.903221,162.560574 L124.623144,162.560574 L124.623144,181.045491 L121.612744,181.045491 L121.612744,168.106049 L115.776791,176.873181 L113.981114,176.873181 L108.145162,168.079642 L108.145162,181.045491 L105.134761,181.045491 L105.134761,162.560574 L107.854684,162.560574 L114.878953,173.149791 L121.903221,162.560574 Z M132.122739,181.045491 L129.112338,181.045491 L129.112338,162.560574 L131.93789,162.560574 L141.893338,176.08097 C141.866931,175.447202 141.866931,174.734212 141.866931,174.04763 L141.866931,162.560574 L144.877332,162.560574 L144.877332,181.045491 L142.05178,181.045491 L132.096332,167.525095 C132.122739,168.158863 132.122739,168.871853 132.122739,169.532028 L132.122739,181.045491 Z M152.376926,181.045491 L149.366526,181.045491 L149.366526,162.560574 L156.760492,162.560574 C160.219812,162.560574 163.863982,163.933739 163.863982,168.343712 C163.863982,171.64459 161.804234,173.229012 159.374788,173.809966 L165.289961,181.045491 L161.672199,181.045491 L156.126724,174.126851 L152.376926,174.126851 L152.376926,181.045491 Z M152.376926,165.306905 L152.376926,171.459741 L156.892527,171.459741 C158.873054,171.459741 160.800767,170.746752 160.800767,168.396526 C160.800767,166.019894 158.873054,165.306905 156.892527,165.306905 L152.376926,165.306905 Z" id="$0.0400-1-MNR" fill="#131F3C"></path>
            </g>
            <path d="M95.044206,115.636931 C97.0605623,114.208679 99.412978,113.53656 101.849409,113.53656 C105.658082,113.53656 109.046681,115.216857 109.046681,119.445604 C109.046681,122.666174 106.414215,124.57051 104.00579,126.026768 C101.961428,127.258985 100.365146,128.155144 100.365146,128.659233 L109.186705,128.659233 L109.186705,133 L94.4280971,133 L94.4280971,130.731599 C94.4280971,126.138787 97.9287158,124.346471 100.645196,122.750188 C102.409508,121.714005 103.865765,121.181911 103.865765,119.725654 C103.865765,118.577451 102.829582,118.017352 101.373325,118.017352 C99.468988,118.017352 97.1165722,118.773486 95.044206,120.397773 L95.044206,115.636931 Z M111.483111,123.478317 C111.483111,118.045357 114.087572,113.53656 120.30467,113.53656 C126.521769,113.53656 129.126229,118.045357 129.126229,123.478317 C129.126229,128.911277 126.521769,133.420074 120.30467,133.420074 C114.087572,133.420074 111.483111,128.911277 111.483111,123.478317 Z M123.945314,123.478317 C123.945314,119.809669 122.797111,118.017352 120.30467,118.017352 C117.81223,118.017352 116.664027,119.809669 116.664027,123.478317 C116.664027,127.146966 117.81223,128.939282 120.30467,128.939282 C122.797111,128.939282 123.945314,127.146966 123.945314,123.478317 Z M139.180006,134.680297 L136.099462,134.680297 L147.553486,111.716238 L150.634031,111.716238 L139.180006,134.680297 Z M141.644442,118.017352 C141.644442,121.377946 139.180006,123.058243 136.323502,123.058243 C133.438992,123.058243 130.974556,121.377946 130.974556,118.017352 C130.974556,114.656758 133.438992,112.976461 136.323502,112.976461 C139.180006,112.976461 141.644442,114.656758 141.644442,118.017352 Z M134.671209,118.017352 C134.671209,118.857501 135.119289,119.697649 136.323502,119.697649 C137.499709,119.697649 137.947789,118.857501 137.947789,118.017352 C137.947789,117.177204 137.499709,116.337055 136.323502,116.337055 C135.119289,116.337055 134.671209,117.177204 134.671209,118.017352 Z M155.646917,128.379183 C155.646917,131.739777 153.182481,133.420074 150.325976,133.420074 C147.441466,133.420074 144.977031,131.739777 144.977031,128.379183 C144.977031,125.018589 147.441466,123.338292 150.325976,123.338292 C153.182481,123.338292 155.646917,125.018589 155.646917,128.379183 Z M148.673684,128.379183 C148.673684,129.219332 149.121763,130.05948 150.325976,130.05948 C151.502184,130.05948 151.950263,129.219332 151.950263,128.379183 C151.950263,127.539035 151.502184,126.698886 150.325976,126.698886 C149.121763,126.698886 148.673684,127.539035 148.673684,128.379183 Z" id="20%" fill="#131F3C" fill-rule="nonzero"></path>
            <g id="diskon" transform="translate(0.000000, 139.000000)" fill="#000000">
                <path d="M78.8862578,14.95 C78.8862578,9.108 83.2332578,6.578 87.6492578,6.578 C89.3742578,6.578 91.0992578,6.946 92.5942578,7.613 L92.5942578,10.902 C91.3752578,10.097 89.7422578,9.66 88.1092578,9.66 C85.2342578,9.66 82.4052578,11.178 82.4052578,14.95 C82.4052578,19.228 85.5562578,20.309 87.9252578,20.309 C88.6152578,20.309 89.2132578,20.194 89.6962578,20.01 L89.6962578,14.26 L92.9852578,14.26 L92.9852578,22.241 C91.3752578,22.931 89.5352578,23.322 87.7412578,23.322 C83.2332578,23.322 78.8862578,20.861 78.8862578,14.95 Z M98.7582578,23 L95.5612578,23 L95.5612578,11.96 L98.7582578,11.96 L98.7582578,23 Z M99.0342578,8.303 C99.0342578,9.568 98.1602578,10.12 97.1482578,10.12 C96.1592578,10.12 95.2852578,9.568 95.2852578,8.303 C95.2852578,7.061 96.1592578,6.509 97.1482578,6.509 C98.1602578,6.509 99.0342578,7.061 99.0342578,8.303 Z M108.280887,21.6748047 C107.172808,22.7454481 105.986134,23.2807617 104.720828,23.2807617 C103.642698,23.2807617 102.76673,22.9513379 102.092898,22.2924805 C101.419067,21.633623 101.082156,20.7801159 101.082156,19.7319336 C101.082156,18.3692966 101.626829,17.3192582 102.716189,16.5817871 C103.80555,15.844316 105.364698,15.4755859 107.39368,15.4755859 L108.280887,15.4755859 L108.280887,14.3525391 C108.280887,13.0722592 107.550914,12.4321289 106.090945,12.4321289 C104.795691,12.4321289 103.485483,12.7989872 102.160281,13.5327148 L102.160281,11.2416992 C103.665172,10.672686 105.155066,10.3881836 106.630008,10.3881836 C109.856912,10.3881836 111.47034,11.6721877 111.47034,14.2402344 L111.47034,19.6982422 C111.47034,20.6640673 111.781046,21.1469727 112.402469,21.1469727 C112.514774,21.1469727 112.660769,21.1319988 112.840457,21.1020508 L112.91907,22.9663086 C112.215291,23.1759451 111.593878,23.2807617 111.054812,23.2807617 C109.692175,23.2807617 108.816208,22.7454481 108.426883,21.6748047 L108.280887,21.6748047 Z M108.280887,19.8891602 L108.280887,17.3847656 L107.494754,17.3847656 C105.34598,17.3847656 104.271609,18.058587 104.271609,19.40625 C104.271609,19.862958 104.426963,20.2466619 104.737674,20.557373 C105.048385,20.8680842 105.432089,21.0234375 105.888797,21.0234375 C106.667447,21.0234375 107.464802,20.6453488 108.280887,19.8891602 Z M107.326297,8.75976562 L105.113895,8.75976562 L105.113895,8.625 C105.113895,8.25813619 105.162559,7.99047936 105.259891,7.82202148 C105.357222,7.65356361 105.596803,7.42708476 105.978641,7.14257812 L106.21448,6.96289062 C106.304325,6.89550748 106.409141,6.82063843 106.528934,6.73828125 C106.820927,6.52864479 106.966922,6.30778111 106.966922,6.07568359 C106.966922,5.64892365 106.592577,5.43554688 105.843875,5.43554688 C105.357219,5.43554688 104.765753,5.53662008 104.069461,5.73876953 L104.069461,4.34619141 C104.818163,4.15152897 105.521932,4.05419922 106.180789,4.05419922 C108.224745,4.05419922 109.246707,4.60823014 109.246707,5.71630859 C109.246707,6.13558152 108.984665,6.56607852 108.460574,7.0078125 C108.333295,7.11263073 108.239709,7.19124323 108.179812,7.24365234 L107.932742,7.46826172 C107.528443,7.83512553 107.326297,8.18701003 107.326297,8.52392578 L107.326297,8.75976562 Z M118.236742,23 L115.039742,23 L115.039742,11.96 L117.868742,11.96 L117.868742,13.248 C118.443742,12.558 119.708742,11.638 121.387742,11.638 C123.043742,11.638 124.124742,12.328 124.768742,13.271 C125.688742,12.374 126.930742,11.638 128.448742,11.638 C131.553742,11.638 132.565742,14.053 132.565742,16.008 L132.565742,23 L129.391742,23 L129.391742,16.215 C129.391742,15.065 128.678742,14.398 127.666742,14.398 C126.792742,14.398 126.010742,14.904 125.481742,15.502 C125.504742,15.663 125.504742,15.824 125.504742,16.008 L125.504742,23 L122.330742,23 L122.330742,16.215 C122.330742,15.065 121.617742,14.398 120.605742,14.398 C119.639742,14.398 118.765742,15.042 118.236742,15.732 L118.236742,23 Z M139.649742,17.48 C139.649742,14.467 141.535742,11.638 145.054742,11.638 C147.078742,11.638 148.343742,12.581 149.056742,13.57 L149.056742,11.96 L151.862742,11.96 L151.862742,22.701 C151.862742,26.91 148.757742,28.382 145.514742,28.382 C143.789742,28.382 142.179742,27.991 140.845742,27.347 L140.845742,24.541 C142.087742,25.277 143.582742,25.691 145.100742,25.691 C147.055742,25.691 148.688742,25.024 148.688742,22.839 L148.688742,21.827 C147.975742,22.609 146.802742,23.322 145.054742,23.322 C141.535742,23.322 139.649742,20.493 139.649742,17.48 Z M148.688742,16.169 C148.251742,15.203 147.216742,14.329 145.813742,14.329 C143.996742,14.329 142.915742,15.755 142.915742,17.48 C142.915742,19.205 143.996742,20.631 145.813742,20.631 C147.216742,20.631 148.251742,19.78 148.688742,18.86 L148.688742,16.169 Z M157.796742,23 L154.599742,23 L154.599742,11.96 L157.796742,11.96 L157.796742,23 Z M158.072742,8.303 C158.072742,9.568 157.198742,10.12 156.186742,10.12 C155.197742,10.12 154.323742,9.568 154.323742,8.303 C154.323742,7.061 155.197742,6.509 156.186742,6.509 C157.198742,6.509 158.072742,7.061 158.072742,8.303 Z M170.423742,20.148 C170.423742,20.723 170.791742,20.884 171.205742,20.884 C171.389742,20.884 171.596742,20.861 171.803742,20.792 L171.803742,22.885 C171.297742,23.069 170.653742,23.207 170.032742,23.207 C168.905742,23.207 168.054742,22.793 167.594742,21.965 C166.513742,22.816 165.248742,23.322 163.615742,23.322 C161.545742,23.322 159.751742,22.126 159.751742,19.941 C159.751742,17.135 162.396742,16.261 164.604742,16.261 C165.478742,16.261 166.444742,16.376 167.226742,16.56 L167.226742,16.169 C167.226742,15.065 166.352742,14.306 164.627742,14.306 C163.109742,14.306 161.752742,14.72 160.717742,15.134 L160.717742,12.374 C161.614742,12.075 163.293742,11.638 164.995742,11.638 C168.307742,11.638 170.423742,12.995 170.423742,16.629 L170.423742,20.148 Z M165.340742,18.17 C164.167742,18.17 163.017742,18.561 163.017742,19.688 C163.017742,20.516 163.776742,21.045 164.742742,21.045 C165.639742,21.045 166.490742,20.792 167.226742,20.148 L167.226742,18.423 C166.743742,18.308 166.007742,18.17 165.340742,18.17 Z M166.076742,10.327 L162.994742,10.327 L165.064742,6.923 L168.560742,6.923 L166.076742,10.327 Z" id="Giảm-giá"></path>
            </g>
            <g id="15-Agustus" fill="#000000">
                <path d="M37.0375,25 L33.2875,25 L33.2875,7.5 L36.8125,7.5 L44.9625,18.925 C44.9125,18.2 44.8875,17.325 44.8875,16.525 L44.8875,7.5 L48.6375,7.5 L48.6375,25 L45.1125,25 L36.9625,13.575 C37.0125,14.3 37.0375,15.175 37.0375,15.975 L37.0375,25 Z M51.0375,19 C51.0375,15.725 53.0875,12.65 56.9125,12.65 C59.1125,12.65 60.4875,13.675 61.2625,14.75 L61.2625,13 L64.3125,13 L64.3125,24.675 C64.3125,29.25 60.9375,30.85 57.4125,30.85 C55.5375,30.85 53.7875,30.425 52.3375,29.725 L52.3375,26.675 C53.6875,27.475 55.3125,27.925 56.9625,27.925 C59.0875,27.925 60.8625,27.2 60.8625,24.825 L60.8625,23.725 C60.0875,24.575 58.8125,25.35 56.9125,25.35 C53.0875,25.35 51.0375,22.275 51.0375,19 Z M60.8625,17.575 C60.3875,16.525 59.2625,15.575 57.7375,15.575 C55.7625,15.575 54.5875,17.125 54.5875,19 C54.5875,20.875 55.7625,22.425 57.7375,22.425 C59.2625,22.425 60.3875,21.5 60.8625,20.5 L60.8625,17.575 Z M77.9875,21.9 C77.9875,22.525 78.3875,22.7 78.8375,22.7 C79.0375,22.7 79.2625,22.675 79.4875,22.6 L79.4875,24.875 C78.9375,25.075 78.2375,25.225 77.5625,25.225 C76.3375,25.225 75.4125,24.775 74.9125,23.875 C73.7375,24.8 72.3625,25.35 70.5875,25.35 C68.3375,25.35 66.3875,24.05 66.3875,21.675 C66.3875,18.625 69.2625,17.675 71.6625,17.675 C72.6125,17.675 73.6625,17.8 74.5125,18 L74.5125,17.575 C74.5125,16.375 73.5625,15.55 71.6875,15.55 C70.0375,15.55 68.5625,16 67.4375,16.45 L67.4375,13.45 C68.4125,13.125 70.2375,12.65 72.0875,12.65 C75.6875,12.65 77.9875,14.125 77.9875,18.075 L77.9875,21.9 Z M72.4625,19.75 C71.1875,19.75 69.9375,20.175 69.9375,21.4 C69.9375,22.3 70.7625,22.875 71.8125,22.875 C72.7875,22.875 73.7125,22.6 74.5125,21.9 L74.5125,20.025 C73.9875,19.9 73.1875,19.75 72.4625,19.75 Z M74.2875,11.225 L70.9375,11.225 L68.2375,7.525 L72.0375,7.525 L74.2875,11.225 Z M86.1375,21.1 L89.1125,13 L92.7125,13 L87.3875,26.45 C86.0375,29.8 84.1625,30.825 82.2125,30.825 C81.5875,30.825 80.9625,30.7 80.3375,30.55 L80.3375,27.675 C80.8125,27.775 81.2875,27.85 81.7625,27.85 C83.0125,27.85 83.9625,27 84.6125,25.225 L84.6375,25.175 L78.9625,13 L82.6375,13 L86.1375,21.1 Z M103.2375,8 L105.9625,8 L105.9625,21.775 L108.8125,21.775 L108.8125,25 L99.1125,25 L99.1125,21.775 L102.3125,21.775 L102.3125,11.75 L99.1125,12.95 L99.1125,9.575 L103.2375,8 Z M111.5875,7.975 L122.3875,7.975 L122.3875,11.2 L114.9625,11.175 L114.7375,14.5 C115.4625,14.35 116.2375,14.25 116.9375,14.25 C120.3375,14.25 123.1625,15.775 123.1625,19.675 C123.1625,23.625 119.7125,25.35 115.9625,25.35 C113.9875,25.35 111.9875,24.925 110.4875,24.2 L110.4875,20.725 C111.8625,21.6 113.8375,22.075 115.5375,22.075 C117.7625,22.075 119.4125,21.275 119.4125,19.625 C119.4125,17.95 117.9875,17.125 115.2625,17.125 C114.0375,17.125 112.4625,17.325 110.9875,17.85 L111.5875,7.975 Z M131.5875,9.5 L135.0375,8.675 L135.0375,13 L138.8375,13 L138.8375,15.925 L135.0375,15.925 L135.0375,20.625 C135.0375,21.875 135.6625,22.425 136.9625,22.425 C137.7625,22.425 138.4375,22.3 139.1375,22.025 L139.1375,24.825 C138.2125,25.15 137.1125,25.35 135.9125,25.35 C133.5875,25.35 131.5875,24.275 131.5875,21.3 L131.5875,15.925 L129.5625,15.925 L129.5625,13 L131.5875,13 L131.5875,9.5 Z M141.1375,7.5 L144.6125,7.5 L144.6125,14.1 C145.4875,13.275 146.7125,12.65 148.2125,12.65 C151.3625,12.65 153.0875,14.8 153.0875,17.575 L153.0875,25 L149.6125,25 L149.6125,18.025 C149.6125,16.4 148.6375,15.65 147.2875,15.65 C146.0625,15.65 145.1125,16.45 144.6125,17.175 L144.6125,25 L141.1375,25 L141.1375,7.5 Z M166.6125,21.9 C166.6125,22.525 167.0125,22.7 167.4625,22.7 C167.6625,22.7 167.8875,22.675 168.1125,22.6 L168.1125,24.875 C167.5625,25.075 166.8625,25.225 166.1875,25.225 C164.9625,25.225 164.0375,24.775 163.5375,23.875 C162.3625,24.8 160.9875,25.35 159.2125,25.35 C156.9625,25.35 155.0125,24.05 155.0125,21.675 C155.0125,18.625 157.8875,17.675 160.2875,17.675 C161.2375,17.675 162.2875,17.8 163.1375,18 L163.1375,17.575 C163.1375,16.375 162.1875,15.55 160.3125,15.55 C158.6625,15.55 157.1875,16 156.0625,16.45 L156.0625,13.45 C157.0375,13.125 158.8625,12.65 160.7125,12.65 C164.3125,12.65 166.6125,14.125 166.6125,18.075 L166.6125,21.9 Z M161.0875,19.75 C159.8125,19.75 158.5625,20.175 158.5625,21.4 C158.5625,22.3 159.3875,22.875 160.4375,22.875 C161.4125,22.875 162.3375,22.6 163.1375,21.9 L163.1375,20.025 C162.6125,19.9 161.8125,19.75 161.0875,19.75 Z M161.8875,11.225 L158.5375,11.225 L160.7875,7.525 L164.5875,7.525 L161.8875,11.225 Z M172.8375,14.525 C173.7625,13.45 175.1125,12.65 176.8375,12.65 C179.9875,12.65 181.7125,14.8 181.7125,17.575 L181.7125,25 L178.2375,25 L178.2375,18.025 C178.2375,16.4 177.2625,15.65 175.9125,15.65 C174.6875,15.65 173.7375,16.45 173.2375,17.175 L173.2375,25 L169.7625,25 L169.7625,13 L172.8375,13 L172.8375,14.525 Z M183.8375,19 C183.8375,15.725 185.8875,12.65 189.7125,12.65 C191.9125,12.65 193.2875,13.675 194.0625,14.75 L194.0625,13 L197.1125,13 L197.1125,24.675 C197.1125,29.25 193.7375,30.85 190.2125,30.85 C188.3375,30.85 186.5875,30.425 185.1375,29.725 L185.1375,26.675 C186.4875,27.475 188.1125,27.925 189.7625,27.925 C191.8875,27.925 193.6625,27.2 193.6625,24.825 L193.6625,23.725 C192.8875,24.575 191.6125,25.35 189.7125,25.35 C185.8875,25.35 183.8375,22.275 183.8375,19 Z M193.6625,17.575 C193.1875,16.525 192.0625,15.575 190.5375,15.575 C188.5625,15.575 187.3875,17.125 187.3875,19 C187.3875,20.875 188.5625,22.425 190.5375,22.425 C192.0625,22.425 193.1875,21.5 193.6625,20.5 L193.6625,17.575 Z M205.7875,12.35 C205.7875,10.075 207.6875,7.65 212.3375,7.65 C216.6625,7.65 218.9125,10.075 218.9375,12.45 C218.9625,14.1 218.1625,15.35 216.7875,16.375 C218.3375,17.15 219.5625,18.35 219.5625,20.4 C219.5625,22.9 217.5125,25.35 212.3875,25.35 C207.3125,25.35 205.1625,22.875 205.1625,20.275 C205.1625,18.575 206.2125,16.95 207.8125,16 C206.6375,15.2 205.7875,14.075 205.7875,12.35 Z M212.7625,18 C212.0125,17.725 211.1125,17.475 210.2375,17.15 C209.3125,17.925 208.8875,18.95 208.9125,19.825 C208.9375,21.275 210.0875,22.4 212.6625,22.4 C214.4625,22.4 215.8375,21.65 215.8375,20.5 C215.8375,19.05 214.4375,18.575 212.7625,18 Z M215.3375,12.725 C215.3375,11.55 214.2875,10.6 212.1875,10.6 C210.3875,10.6 209.3625,11.425 209.3625,12.375 C209.3625,13.875 210.8875,14.35 212.5625,14.9 C213.0625,15.025 213.5875,15.2 214.1375,15.35 C214.9375,14.55 215.3625,13.55 215.3375,12.725 Z" id="Ngày-15-tháng-8"></path>
            </g>
        </g>
    </g>
</svg>