<?xml version="1.0" encoding="UTF-8"?>
<svg width="250px" height="292px" viewBox="0 0 250 292" version="1.1" xmlns="http://www.w3.org/2000/svg" xmlns:xlink="http://www.w3.org/1999/xlink">
    <!-- Generator: Sketch 48.2 (47327) - http://www.bohemiancoding.com/sketch -->
    <title>text_5</title>
    <desc>Created with Sketch.</desc>
    <defs>
        <radialGradient cx="200%" cy="200%" fx="200%" fy="200%" r="50.0253367%" gradientTransform="translate(2.000000,2.000000),scale(1.000000,1.000000),translate(-2.000000,-2.000000)" id="radialGradient-1">
            <stop stop-color="#FF9495" offset="0%"></stop>
            <stop stop-color="#FE5F60" offset="70.3742825%"></stop>
            <stop stop-color="#FF9091" offset="100%"></stop>
        </radialGradient>
    </defs>
    <g id="Page-1" stroke="none" stroke-width="1" fill="none" fill-rule="evenodd">
        <g id="text_5" transform="translate(-1.000000, -7.000000)">
            <g id="5-copy" transform="translate(1.000000, 49.000000)" fill-rule="nonzero">
                <g id="Group-7" transform="translate(0.637670, 0.351157)">
                    <path d="M124.637764,0 C132.821471,3.54941064e-05 140.926556,0.798353806 148.953007,2.39495144 C156.979458,3.99155257 164.773039,6.3557574 172.333767,9.48756474 C179.894518,12.6193674 187.07714,16.4586026 193.881645,21.0052615 C200.686127,25.5519244 206.981723,30.7186496 212.768466,36.505437 C218.55521,42.2922239 223.721866,48.5878904 228.268475,55.3924265 C232.815084,62.1969726 236.654249,69.3796356 239.785993,76.9404155 C242.917771,84.501213 245.281976,92.2948576 246.878535,100.321349 C248.475089,108.347835 249.273352,116.452955 249.273352,124.63668 C249.273317,132.820463 248.47502,140.925612 246.87839,148.952133 C245.281836,156.978654 242.917632,164.77231 239.785777,172.333131 C236.653998,179.893946 232.81477,187.076626 228.26812,193.88116 C223.721476,200.685701 218.554745,206.981366 212.767931,212.768162 C206.981152,218.554958 200.685522,223.721672 193.880953,228.268334 C187.076412,232.814977 179.893755,236.654194 172.332969,239.785956 C164.772184,242.917752 156.978533,245.281921 148.952047,246.878499 C140.925544,248.47507 132.820424,249.27335 124.636682,249.27335 C116.452899,249.273315 108.347767,248.475 100.321264,246.878388 C92.2947429,245.281799 84.5010693,242.917595 76.9402486,239.785775 C69.3794278,236.653979 62.1967532,232.81475 55.392213,228.268101 C48.5876669,223.72144 42.2920016,218.554726 36.5052171,212.767929 C30.7184267,206.981156 25.5517068,200.685485 21.005063,193.880951 C16.4584077,187.076411 12.6191964,179.893754 9.48740589,172.33295 C6.35561542,164.772164 3.99144027,156.978532 2.39487464,148.952046 C0.798285727,140.925542 0,132.820422 0,124.63668 C2.90935298e-05,116.452914 0.798343914,108.347783 2.39494446,100.32125 C3.99154501,92.2947296 6.35574925,84.5010675 9.48755718,76.9402584 C12.6193651,69.3794494 16.4586055,62.1967689 21.0052667,55.3922229 C25.5519221,48.5876774 30.7186478,42.2920022 36.5054382,36.5052148 C42.2922344,30.7184232 48.5878997,25.5517027 55.3924283,21.0050526 C62.1969627,16.458403 69.3796431,12.6191853 76.9404289,9.48740007 C84.5012089,6.35561542 92.2948651,3.99143736 100.321351,2.39486707 C108.347837,0.798292128 116.452951,4.65496476e-06 124.636682,4.65496476e-06 L124.636577,56.086505 C120.135546,56.0865341 115.67776,56.5256079 111.263212,57.4037437 C106.848659,58.2818679 102.562199,59.5821799 98.4037791,61.3046682 C94.2453594,63.0271681 90.2949352,65.1387532 86.5524599,67.6394177 C82.8099904,70.1400823 79.3474123,72.9817811 76.1647023,76.1645144 C72.9819924,79.3472476 70.1403109,82.8098664 67.6396813,86.5523534 C65.1390459,90.294852 63.0274898,94.2453169 61.305019,98.4037482 C59.5825599,102.56218 58.2822653,106.848681 57.4041528,111.263263 C56.5260693,115.67781 56.0870247,120.135637 56.0870072,124.636697 C56.0870247,129.137757 56.5261042,133.595602 57.40424,138.010184 C58.2823526,142.424773 59.5826646,146.711274 61.3051587,150.869722 C63.0276702,155.028177 65.1392379,158.978642 67.6399082,162.721146 C70.1405786,166.463656 72.9822775,169.926287 76.1650049,173.109014 C79.347744,176.291742 82.8103628,179.133441 86.5528497,181.634111 C90.2953425,184.134741 94.2458016,186.246314 98.4042387,187.968808 C102.562676,189.691296 106.849177,190.991608 111.263742,191.869727 C115.678313,192.747822 120.136116,193.186872 124.637176,193.186872 C129.138242,193.186855 133.596081,192.747787 138.010686,191.869674 C142.425251,190.991539 146.71177,189.691227 150.870224,187.968715 C155.028679,186.246227 158.979138,184.134653 162.721648,181.633983 C166.464135,179.133313 169.926754,176.29162 173.109493,173.108892 C176.292238,169.926165 179.133937,166.463546 181.634607,162.721042 C184.13526,158.978531 186.246828,155.028072 187.969305,150.869635 C189.691775,146.711198 190.992087,142.424697 191.870206,138.010132 C192.748318,133.59555 193.187369,129.13774 193.187351,124.636697 C193.187334,120.135637 192.748266,115.677793 191.870153,111.263211 C190.992018,106.848622 189.691706,102.562104 187.969194,98.4036551 C186.246723,94.2452064 184.13515,90.2947356 181.634479,86.552237 C179.133815,82.8097384 176.292098,79.3471254 173.109371,76.1643922 C169.926644,72.9816531 166.464031,70.1399659 162.72152,67.6393072 C158.979016,65.1386426 155.028551,63.027075 150.870114,61.3045925 C146.711683,59.5821101 142.425182,58.2818039 138.010628,57.4036855 C133.596046,56.525573 129.138242,56.0865167 124.637176,56.0865167 L124.637764,0 Z" id="Fill-8" fill="url(#radialGradient-1)"></path>
                    <circle id="Oval" fill="#FFFFFF" cx="124.90822" cy="124.90822" r="87.3982442"></circle>
                    <path d="M77.8377005,151.589233 L75.5138824,151.589233 L75.5138824,148.446797 C73.5597627,148.235541 71.711271,147.707401 70.2324777,146.888783 L70.2324777,143.931196 C72.2658185,145.225141 74.6424506,145.753281 76.7550125,145.753281 C79.1316447,145.753281 80.7424731,145.198734 80.7424731,143.45587 C80.7424731,139.177932 70.3116987,141.448936 70.3116987,134.899994 C70.3116987,131.889594 72.6091098,130.278765 75.5138824,129.935474 L75.5138824,126.766631 L77.8377005,126.766631 L77.8377005,129.909067 C79.6069711,130.041102 81.3762417,130.516428 82.6173718,131.255825 L82.6173718,134.134191 C81.1121714,133.130724 79.0524236,132.576176 77.0718968,132.602583 C74.8272998,132.602583 73.3749135,133.262759 73.3749135,134.84718 C73.3749135,138.834641 83.8056879,136.695672 83.8056879,143.297428 C83.8056879,146.862376 81.1385785,148.288355 77.8377005,148.473204 L77.8377005,151.589233 Z M85.9710638,139.177932 C85.9710638,133.922934 88.453324,129.856253 94.025206,129.856253 C99.597088,129.856253 102.079348,133.922934 102.079348,139.177932 C102.079348,144.43293 99.597088,148.499611 94.025206,148.499611 C88.453324,148.499611 85.9710638,144.43293 85.9710638,139.177932 Z M99.0425405,139.177932 C99.0425405,135.005622 97.4581191,132.602583 94.025206,132.602583 C90.5658859,132.602583 89.0078715,135.005622 89.0078715,139.177932 C89.0078715,143.350242 90.5658859,145.753281 94.025206,145.753281 C97.4581191,145.753281 99.0425405,143.350242 99.0425405,139.177932 Z M108.179371,146.703934 C108.179371,147.89225 107.360753,148.446797 106.4101,148.446797 C105.459447,148.446797 104.614423,147.89225 104.614423,146.703934 C104.614423,145.568432 105.459447,145.013884 106.4101,145.013884 C107.360753,145.013884 108.179371,145.568432 108.179371,146.703934 Z M110.714445,139.177932 C110.714445,133.922934 113.196705,129.856253 118.768587,129.856253 C124.340469,129.856253 126.822729,133.922934 126.822729,139.177932 C126.822729,144.43293 124.340469,148.499611 118.768587,148.499611 C113.196705,148.499611 110.714445,144.43293 110.714445,139.177932 Z M123.785922,139.177932 C123.785922,135.005622 122.2015,132.602583 118.768587,132.602583 C115.309267,132.602583 113.751253,135.005622 113.751253,139.177932 C113.751253,143.350242 115.309267,145.753281 118.768587,145.753281 C122.2015,145.753281 123.785922,143.350242 123.785922,139.177932 Z M130.519713,130.199544 L141.584256,130.199544 L141.584256,132.89306 L133.29245,132.89306 L133.02838,137.223812 C133.899812,137.012556 134.824058,136.906928 135.748304,136.906928 C139.207624,136.906928 142.429281,138.412128 142.429281,142.637252 C142.429281,146.519085 139.128403,148.499611 135.167349,148.499611 C133.081194,148.499611 130.995039,148.050692 129.410618,147.284888 L129.410618,144.459337 C130.915818,145.330769 132.949159,145.779688 134.824058,145.779688 C137.491167,145.779688 139.392473,144.723407 139.392473,142.610845 C139.392473,140.234213 137.359132,139.389188 134.507173,139.389188 C133.054787,139.389188 131.391145,139.679666 129.938758,140.181399 L130.519713,130.199544 Z M144.779506,139.177932 C144.779506,133.922934 147.261766,129.856253 152.833648,129.856253 C158.40553,129.856253 160.88779,133.922934 160.88779,139.177932 C160.88779,144.43293 158.40553,148.499611 152.833648,148.499611 C147.261766,148.499611 144.779506,144.43293 144.779506,139.177932 Z M157.850982,139.177932 C157.850982,135.005622 156.266561,132.602583 152.833648,132.602583 C149.374328,132.602583 147.816313,135.005622 147.816313,139.177932 C147.816313,143.350242 149.374328,145.753281 152.833648,145.753281 C156.266561,145.753281 157.850982,143.350242 157.850982,139.177932 Z M163.422864,139.177932 C163.422864,133.922934 165.905125,129.856253 171.477007,129.856253 C177.048889,129.856253 179.531149,133.922934 179.531149,139.177932 C179.531149,144.43293 177.048889,148.499611 171.477007,148.499611 C165.905125,148.499611 163.422864,144.43293 163.422864,139.177932 Z M176.494341,139.177932 C176.494341,135.005622 174.90992,132.602583 171.477007,132.602583 C168.017686,132.602583 166.459672,135.005622 166.459672,139.177932 C166.459672,143.350242 168.017686,145.753281 171.477007,145.753281 C174.90992,145.753281 176.494341,143.350242 176.494341,139.177932 Z M90.2886122,162.199544 L92.5068022,162.199544 L92.5068022,177.436397 L95.702052,177.436397 L95.702052,180.15632 L85.9314533,180.15632 L85.9314533,177.436397 L89.5228085,177.436397 L89.5228085,165.289166 L85.9314533,166.635924 L85.9314533,163.863187 L90.2886122,162.199544 Z M121.528121,161.671404 L124.248045,161.671404 L124.248045,180.15632 L121.237644,180.15632 L121.237644,167.216879 L115.401692,175.98401 L113.606014,175.98401 L107.770062,167.190472 L107.770062,180.15632 L104.759661,180.15632 L104.759661,161.671404 L107.479585,161.671404 L114.503853,172.26062 L121.528121,161.671404 Z M131.747639,180.15632 L128.737239,180.15632 L128.737239,161.671404 L131.56279,161.671404 L141.518238,175.1918 C141.491831,174.558031 141.491831,173.845041 141.491831,173.158459 L141.491831,161.671404 L144.502232,161.671404 L144.502232,180.15632 L141.67668,180.15632 L131.721232,166.635924 C131.747639,167.269693 131.747639,167.982682 131.747639,168.642858 L131.747639,180.15632 Z M152.001827,180.15632 L148.991426,180.15632 L148.991426,161.671404 L156.385393,161.671404 C159.844713,161.671404 163.488882,163.044569 163.488882,167.454542 C163.488882,170.75542 161.429134,172.339841 158.999688,172.920796 L164.914861,180.15632 L161.297099,180.15632 L155.751624,173.23768 L152.001827,173.23768 L152.001827,180.15632 Z M152.001827,164.417734 L152.001827,170.570571 L156.517428,170.570571 C158.497954,170.570571 160.425667,169.857581 160.425667,167.507356 C160.425667,165.130724 158.497954,164.417734 156.517428,164.417734 L152.001827,164.417734 Z" id="$0.0500-1-MNR" fill="#131F3C"></path>
                </g>
            </g>
            <path d="M104.969607,125.478317 C104.969607,120.045357 107.574067,115.53656 113.791166,115.53656 C120.008265,115.53656 122.612725,120.045357 122.612725,125.478317 C122.612725,130.911277 120.008265,135.420074 113.791166,135.420074 C107.574067,135.420074 104.969607,130.911277 104.969607,125.478317 Z M117.431809,125.478317 C117.431809,121.809669 116.283606,120.017352 113.791166,120.017352 C111.298725,120.017352 110.150522,121.809669 110.150522,125.478317 C110.150522,129.146966 111.298725,130.939282 113.791166,130.939282 C116.283606,130.939282 117.431809,129.146966 117.431809,125.478317 Z M132.666502,136.680297 L129.585957,136.680297 L141.039982,113.716238 L144.120526,113.716238 L132.666502,136.680297 Z M135.130937,120.017352 C135.130937,123.377946 132.666502,125.058243 129.809997,125.058243 C126.925487,125.058243 124.461052,123.377946 124.461052,120.017352 C124.461052,116.656758 126.925487,114.976461 129.809997,114.976461 C132.666502,114.976461 135.130937,116.656758 135.130937,120.017352 Z M128.157705,120.017352 C128.157705,120.857501 128.605784,121.697649 129.809997,121.697649 C130.986205,121.697649 131.434284,120.857501 131.434284,120.017352 C131.434284,119.177204 130.986205,118.337055 129.809997,118.337055 C128.605784,118.337055 128.157705,119.177204 128.157705,120.017352 Z M149.133412,130.379183 C149.133412,133.739777 146.668976,135.420074 143.812472,135.420074 C140.927962,135.420074 138.463526,133.739777 138.463526,130.379183 C138.463526,127.018589 140.927962,125.338292 143.812472,125.338292 C146.668976,125.338292 149.133412,127.018589 149.133412,130.379183 Z M142.16018,130.379183 C142.16018,131.219332 142.608259,132.05948 143.812472,132.05948 C144.988679,132.05948 145.436759,131.219332 145.436759,130.379183 C145.436759,129.539035 144.988679,128.698886 143.812472,128.698886 C142.608259,128.698886 142.16018,129.539035 142.16018,130.379183 Z" id="0%" fill="#131F3C" fill-rule="nonzero"></path>
            <g id="diskon" transform="translate(0.000000, 141.000000)" fill="#000000">
                <path d="M79.3862578,14.95 C79.3862578,9.108 83.7332578,6.578 88.1492578,6.578 C89.8742578,6.578 91.5992578,6.946 93.0942578,7.613 L93.0942578,10.902 C91.8752578,10.097 90.2422578,9.66 88.6092578,9.66 C85.7342578,9.66 82.9052578,11.178 82.9052578,14.95 C82.9052578,19.228 86.0562578,20.309 88.4252578,20.309 C89.1152578,20.309 89.7132578,20.194 90.1962578,20.01 L90.1962578,14.26 L93.4852578,14.26 L93.4852578,22.241 C91.8752578,22.931 90.0352578,23.322 88.2412578,23.322 C83.7332578,23.322 79.3862578,20.861 79.3862578,14.95 Z M99.2582578,23 L96.0612578,23 L96.0612578,11.96 L99.2582578,11.96 L99.2582578,23 Z M99.5342578,8.303 C99.5342578,9.568 98.6602578,10.12 97.6482578,10.12 C96.6592578,10.12 95.7852578,9.568 95.7852578,8.303 C95.7852578,7.061 96.6592578,6.509 97.6482578,6.509 C98.6602578,6.509 99.5342578,7.061 99.5342578,8.303 Z M108.780887,21.6748047 C107.672808,22.7454481 106.486134,23.2807617 105.220828,23.2807617 C104.142698,23.2807617 103.26673,22.9513379 102.592898,22.2924805 C101.919067,21.633623 101.582156,20.7801159 101.582156,19.7319336 C101.582156,18.3692966 102.126829,17.3192582 103.216189,16.5817871 C104.30555,15.844316 105.864698,15.4755859 107.89368,15.4755859 L108.780887,15.4755859 L108.780887,14.3525391 C108.780887,13.0722592 108.050914,12.4321289 106.590945,12.4321289 C105.295691,12.4321289 103.985483,12.7989872 102.660281,13.5327148 L102.660281,11.2416992 C104.165172,10.672686 105.655066,10.3881836 107.130008,10.3881836 C110.356912,10.3881836 111.97034,11.6721877 111.97034,14.2402344 L111.97034,19.6982422 C111.97034,20.6640673 112.281046,21.1469727 112.902469,21.1469727 C113.014774,21.1469727 113.160769,21.1319988 113.340457,21.1020508 L113.41907,22.9663086 C112.715291,23.1759451 112.093878,23.2807617 111.554812,23.2807617 C110.192175,23.2807617 109.316208,22.7454481 108.926883,21.6748047 L108.780887,21.6748047 Z M108.780887,19.8891602 L108.780887,17.3847656 L107.994754,17.3847656 C105.84598,17.3847656 104.771609,18.058587 104.771609,19.40625 C104.771609,19.862958 104.926963,20.2466619 105.237674,20.557373 C105.548385,20.8680842 105.932089,21.0234375 106.388797,21.0234375 C107.167447,21.0234375 107.964802,20.6453488 108.780887,19.8891602 Z M107.826297,8.75976562 L105.613895,8.75976562 L105.613895,8.625 C105.613895,8.25813619 105.662559,7.99047936 105.759891,7.82202148 C105.857222,7.65356361 106.096803,7.42708476 106.478641,7.14257812 L106.71448,6.96289062 C106.804325,6.89550748 106.909141,6.82063843 107.028934,6.73828125 C107.320927,6.52864479 107.466922,6.30778111 107.466922,6.07568359 C107.466922,5.64892365 107.092577,5.43554688 106.343875,5.43554688 C105.857219,5.43554688 105.265753,5.53662008 104.569461,5.73876953 L104.569461,4.34619141 C105.318163,4.15152897 106.021932,4.05419922 106.680789,4.05419922 C108.724745,4.05419922 109.746707,4.60823014 109.746707,5.71630859 C109.746707,6.13558152 109.484665,6.56607852 108.960574,7.0078125 C108.833295,7.11263073 108.739709,7.19124323 108.679812,7.24365234 L108.432742,7.46826172 C108.028443,7.83512553 107.826297,8.18701003 107.826297,8.52392578 L107.826297,8.75976562 Z M118.736742,23 L115.539742,23 L115.539742,11.96 L118.368742,11.96 L118.368742,13.248 C118.943742,12.558 120.208742,11.638 121.887742,11.638 C123.543742,11.638 124.624742,12.328 125.268742,13.271 C126.188742,12.374 127.430742,11.638 128.948742,11.638 C132.053742,11.638 133.065742,14.053 133.065742,16.008 L133.065742,23 L129.891742,23 L129.891742,16.215 C129.891742,15.065 129.178742,14.398 128.166742,14.398 C127.292742,14.398 126.510742,14.904 125.981742,15.502 C126.004742,15.663 126.004742,15.824 126.004742,16.008 L126.004742,23 L122.830742,23 L122.830742,16.215 C122.830742,15.065 122.117742,14.398 121.105742,14.398 C120.139742,14.398 119.265742,15.042 118.736742,15.732 L118.736742,23 Z M140.149742,17.48 C140.149742,14.467 142.035742,11.638 145.554742,11.638 C147.578742,11.638 148.843742,12.581 149.556742,13.57 L149.556742,11.96 L152.362742,11.96 L152.362742,22.701 C152.362742,26.91 149.257742,28.382 146.014742,28.382 C144.289742,28.382 142.679742,27.991 141.345742,27.347 L141.345742,24.541 C142.587742,25.277 144.082742,25.691 145.600742,25.691 C147.555742,25.691 149.188742,25.024 149.188742,22.839 L149.188742,21.827 C148.475742,22.609 147.302742,23.322 145.554742,23.322 C142.035742,23.322 140.149742,20.493 140.149742,17.48 Z M149.188742,16.169 C148.751742,15.203 147.716742,14.329 146.313742,14.329 C144.496742,14.329 143.415742,15.755 143.415742,17.48 C143.415742,19.205 144.496742,20.631 146.313742,20.631 C147.716742,20.631 148.751742,19.78 149.188742,18.86 L149.188742,16.169 Z M158.296742,23 L155.099742,23 L155.099742,11.96 L158.296742,11.96 L158.296742,23 Z M158.572742,8.303 C158.572742,9.568 157.698742,10.12 156.686742,10.12 C155.697742,10.12 154.823742,9.568 154.823742,8.303 C154.823742,7.061 155.697742,6.509 156.686742,6.509 C157.698742,6.509 158.572742,7.061 158.572742,8.303 Z M170.923742,20.148 C170.923742,20.723 171.291742,20.884 171.705742,20.884 C171.889742,20.884 172.096742,20.861 172.303742,20.792 L172.303742,22.885 C171.797742,23.069 171.153742,23.207 170.532742,23.207 C169.405742,23.207 168.554742,22.793 168.094742,21.965 C167.013742,22.816 165.748742,23.322 164.115742,23.322 C162.045742,23.322 160.251742,22.126 160.251742,19.941 C160.251742,17.135 162.896742,16.261 165.104742,16.261 C165.978742,16.261 166.944742,16.376 167.726742,16.56 L167.726742,16.169 C167.726742,15.065 166.852742,14.306 165.127742,14.306 C163.609742,14.306 162.252742,14.72 161.217742,15.134 L161.217742,12.374 C162.114742,12.075 163.793742,11.638 165.495742,11.638 C168.807742,11.638 170.923742,12.995 170.923742,16.629 L170.923742,20.148 Z M165.840742,18.17 C164.667742,18.17 163.517742,18.561 163.517742,19.688 C163.517742,20.516 164.276742,21.045 165.242742,21.045 C166.139742,21.045 166.990742,20.792 167.726742,20.148 L167.726742,18.423 C167.243742,18.308 166.507742,18.17 165.840742,18.17 Z M166.576742,10.327 L163.494742,10.327 L165.564742,6.923 L169.060742,6.923 L166.576742,10.327 Z" id="Giảm-giá"></path>
            </g>
            <g id="11-—-30-September" transform="translate(11.000000, 0.000000)" fill="#000000">
                <path d="M6.3375,25 L2.5875,25 L2.5875,7.5 L6.1125,7.5 L14.2625,18.925 C14.2125,18.2 14.1875,17.325 14.1875,16.525 L14.1875,7.5 L17.9375,7.5 L17.9375,25 L14.4125,25 L6.2625,13.575 C6.3125,14.3 6.3375,15.175 6.3375,15.975 L6.3375,25 Z M20.3375,19 C20.3375,15.725 22.3875,12.65 26.2125,12.65 C28.4125,12.65 29.7875,13.675 30.5625,14.75 L30.5625,13 L33.6125,13 L33.6125,24.675 C33.6125,29.25 30.2375,30.85 26.7125,30.85 C24.8375,30.85 23.0875,30.425 21.6375,29.725 L21.6375,26.675 C22.9875,27.475 24.6125,27.925 26.2625,27.925 C28.3875,27.925 30.1625,27.2 30.1625,24.825 L30.1625,23.725 C29.3875,24.575 28.1125,25.35 26.2125,25.35 C22.3875,25.35 20.3375,22.275 20.3375,19 Z M30.1625,17.575 C29.6875,16.525 28.5625,15.575 27.0375,15.575 C25.0625,15.575 23.8875,17.125 23.8875,19 C23.8875,20.875 25.0625,22.425 27.0375,22.425 C28.5625,22.425 29.6875,21.5 30.1625,20.5 L30.1625,17.575 Z M47.2875,21.9 C47.2875,22.525 47.6875,22.7 48.1375,22.7 C48.3375,22.7 48.5625,22.675 48.7875,22.6 L48.7875,24.875 C48.2375,25.075 47.5375,25.225 46.8625,25.225 C45.6375,25.225 44.7125,24.775 44.2125,23.875 C43.0375,24.8 41.6625,25.35 39.8875,25.35 C37.6375,25.35 35.6875,24.05 35.6875,21.675 C35.6875,18.625 38.5625,17.675 40.9625,17.675 C41.9125,17.675 42.9625,17.8 43.8125,18 L43.8125,17.575 C43.8125,16.375 42.8625,15.55 40.9875,15.55 C39.3375,15.55 37.8625,16 36.7375,16.45 L36.7375,13.45 C37.7125,13.125 39.5375,12.65 41.3875,12.65 C44.9875,12.65 47.2875,14.125 47.2875,18.075 L47.2875,21.9 Z M41.7625,19.75 C40.4875,19.75 39.2375,20.175 39.2375,21.4 C39.2375,22.3 40.0625,22.875 41.1125,22.875 C42.0875,22.875 43.0125,22.6 43.8125,21.9 L43.8125,20.025 C43.2875,19.9 42.4875,19.75 41.7625,19.75 Z M43.5875,11.225 L40.2375,11.225 L37.5375,7.525 L41.3375,7.525 L43.5875,11.225 Z M55.4375,21.1 L58.4125,13 L62.0125,13 L56.6875,26.45 C55.3375,29.8 53.4625,30.825 51.5125,30.825 C50.8875,30.825 50.2625,30.7 49.6375,30.55 L49.6375,27.675 C50.1125,27.775 50.5875,27.85 51.0625,27.85 C52.3125,27.85 53.2625,27 53.9125,25.225 L53.9375,25.175 L48.2625,13 L51.9375,13 L55.4375,21.1 Z M72.5375,8 L75.2625,8 L75.2625,21.775 L78.1125,21.775 L78.1125,25 L68.4125,25 L68.4125,21.775 L71.6125,21.775 L71.6125,11.75 L68.4125,12.95 L68.4125,9.575 L72.5375,8 Z M84.0625,8 L86.7875,8 L86.7875,21.775 L89.6375,21.775 L89.6375,25 L79.9375,25 L79.9375,21.775 L83.1375,21.775 L83.1375,11.75 L79.9375,12.95 L79.9375,9.575 L84.0625,8 Z M91.2625,17.45 L100.5625,17.45 L100.5625,20.375 L91.2625,20.375 L91.2625,17.45 Z M115.1125,12.35 C115.1125,14.1 114.1375,15.45 112.5375,16 C114.2625,16.525 115.8125,17.85 115.8125,20.35 C115.8125,23.925 112.5125,25.35 109.0125,25.35 C106.8125,25.35 105.0375,25 103.1125,24.2 L103.1125,20.725 C105.0375,21.8 106.7625,22.075 108.7125,22.05 C110.6375,22.05 112.2375,21.425 112.2375,19.825 C112.2375,18.375 110.9875,17.85 109.2875,17.85 L106.4875,17.85 L106.5125,14.65 L108.8625,14.675 C110.5375,14.675 111.5625,14.05 111.5625,12.875 C111.5625,11.65 110.4875,10.925 108.4375,10.925 C106.9125,10.925 105.0875,11.425 103.4125,12.45 L103.4125,8.975 C104.9375,8.15 106.8625,7.65 108.9625,7.65 C112.4875,7.65 115.1125,9.25 115.1125,12.35 Z M117.9125,16.5 C117.9125,11.6 120.2375,7.65 125.6625,7.65 C131.0875,7.65 133.4125,11.6 133.4125,16.5 C133.4125,21.4 131.0875,25.35 125.6625,25.35 C120.2375,25.35 117.9125,21.4 117.9125,16.5 Z M129.6625,16.5 C129.6625,12.875 128.4125,10.95 125.6625,10.95 C122.9125,10.95 121.6625,12.875 121.6625,16.5 C121.6625,20.125 122.9125,22.05 125.6625,22.05 C128.4125,22.05 129.6625,20.125 129.6625,16.5 Z M141.9875,9.5 L145.4375,8.675 L145.4375,13 L149.2375,13 L149.2375,15.925 L145.4375,15.925 L145.4375,20.625 C145.4375,21.875 146.0625,22.425 147.3625,22.425 C148.1625,22.425 148.8375,22.3 149.5375,22.025 L149.5375,24.825 C148.6125,25.15 147.5125,25.35 146.3125,25.35 C143.9875,25.35 141.9875,24.275 141.9875,21.3 L141.9875,15.925 L139.9625,15.925 L139.9625,13 L141.9875,13 L141.9875,9.5 Z M151.5375,7.5 L155.0125,7.5 L155.0125,14.1 C155.8875,13.275 157.1125,12.65 158.6125,12.65 C161.7625,12.65 163.4875,14.8 163.4875,17.575 L163.4875,25 L160.0125,25 L160.0125,18.025 C160.0125,16.4 159.0375,15.65 157.6875,15.65 C156.4625,15.65 155.5125,16.45 155.0125,17.175 L155.0125,25 L151.5375,25 L151.5375,7.5 Z M177.0125,21.9 C177.0125,22.525 177.4125,22.7 177.8625,22.7 C178.0625,22.7 178.2875,22.675 178.5125,22.6 L178.5125,24.875 C177.9625,25.075 177.2625,25.225 176.5875,25.225 C175.3625,25.225 174.4375,24.775 173.9375,23.875 C172.7625,24.8 171.3875,25.35 169.6125,25.35 C167.3625,25.35 165.4125,24.05 165.4125,21.675 C165.4125,18.625 168.2875,17.675 170.6875,17.675 C171.6375,17.675 172.6875,17.8 173.5375,18 L173.5375,17.575 C173.5375,16.375 172.5875,15.55 170.7125,15.55 C169.0625,15.55 167.5875,16 166.4625,16.45 L166.4625,13.45 C167.4375,13.125 169.2625,12.65 171.1125,12.65 C174.7125,12.65 177.0125,14.125 177.0125,18.075 L177.0125,21.9 Z M171.4875,19.75 C170.2125,19.75 168.9625,20.175 168.9625,21.4 C168.9625,22.3 169.7875,22.875 170.8375,22.875 C171.8125,22.875 172.7375,22.6 173.5375,21.9 L173.5375,20.025 C173.0125,19.9 172.2125,19.75 171.4875,19.75 Z M172.2875,11.225 L168.9375,11.225 L171.1875,7.525 L174.9875,7.525 L172.2875,11.225 Z M183.2375,14.525 C184.1625,13.45 185.5125,12.65 187.2375,12.65 C190.3875,12.65 192.1125,14.8 192.1125,17.575 L192.1125,25 L188.6375,25 L188.6375,18.025 C188.6375,16.4 187.6625,15.65 186.3125,15.65 C185.0875,15.65 184.1375,16.45 183.6375,17.175 L183.6375,25 L180.1625,25 L180.1625,13 L183.2375,13 L183.2375,14.525 Z M194.2375,19 C194.2375,15.725 196.2875,12.65 200.1125,12.65 C202.3125,12.65 203.6875,13.675 204.4625,14.75 L204.4625,13 L207.5125,13 L207.5125,24.675 C207.5125,29.25 204.1375,30.85 200.6125,30.85 C198.7375,30.85 196.9875,30.425 195.5375,29.725 L195.5375,26.675 C196.8875,27.475 198.5125,27.925 200.1625,27.925 C202.2875,27.925 204.0625,27.2 204.0625,24.825 L204.0625,23.725 C203.2875,24.575 202.0125,25.35 200.1125,25.35 C196.2875,25.35 194.2375,22.275 194.2375,19 Z M204.0625,17.575 C203.5875,16.525 202.4625,15.575 200.9375,15.575 C198.9625,15.575 197.7875,17.125 197.7875,19 C197.7875,20.875 198.9625,22.425 200.9375,22.425 C202.4625,22.425 203.5875,21.5 204.0625,20.5 L204.0625,17.575 Z M215.3125,13.5 C215.3125,9.625 218.3375,7.65 221.8125,7.65 C227.2875,7.65 229.5125,11 229.5125,16.5 C229.5125,22.725 225.7625,25.35 221.4375,25.35 C219.8625,25.35 218.2125,24.975 216.7625,24.3 L216.7625,21 C217.9375,21.775 219.4875,22.2 220.9375,22.2 C223.2375,22.2 225.3375,21.225 225.7875,17.85 C224.2875,18.65 222.9125,19 221.2625,19 C218.1875,19 215.3125,17.15 215.3125,13.5 Z M222.1125,10.7 C220.4625,10.7 219.0625,11.45 219.0625,13.325 C219.0625,15.275 220.6375,15.875 222.3875,15.875 C223.5125,15.875 224.6875,15.525 225.7875,14.85 C225.4375,11.65 224.0625,10.7 222.1125,10.7 Z" id="Ngày-11-30-tháng-9"></path>
            </g>
        </g>
    </g>
</svg>