<?xml version="1.0" encoding="UTF-8"?>
<svg width="250px" height="292px" viewBox="0 0 250 292" version="1.1" xmlns="http://www.w3.org/2000/svg" xmlns:xlink="http://www.w3.org/1999/xlink">
    <!-- Generator: Sketch 48.2 (47327) - http://www.bohemiancoding.com/sketch -->
    <title>text_3</title>
    <desc>Created with Sketch.</desc>
    <defs>
        <radialGradient cx="400%" cy="200%" fx="400%" fy="200%" r="100.014205%" gradientTransform="translate(4.000000,2.000000),scale(1.000000,0.500004),translate(-4.000000,-2.000000)" id="radialGradient-1">
            <stop stop-color="#8D00FF" offset="0%"></stop>
            <stop stop-color="#5C00FE" offset="69.8959662%"></stop>
            <stop stop-color="#8900FF" offset="100%"></stop>
        </radialGradient>
        <radialGradient cx="400%" cy="200%" fx="400%" fy="200%" r="100.011799%" gradientTransform="translate(4.000000,2.000000),scale(1.000000,0.500004),translate(-4.000000,-2.000000)" id="radialGradient-2">
            <stop stop-color="#FF9495" offset="0%"></stop>
            <stop stop-color="#FE5F60" offset="70.3742825%"></stop>
            <stop stop-color="#FF9091" offset="100%"></stop>
        </radialGradient>
    </defs>
    <g id="Page-1" stroke="none" stroke-width="1" fill="none" fill-rule="evenodd">
        <g id="text_3" transform="translate(-1.000000, -7.000000)">
            <g id="3-copy" transform="translate(1.000000, 49.000000)" fill-rule="nonzero">
                <g id="Group-Copy-2" transform="translate(0.933759, 0.000000)">
                    <g id="Group-6" transform="translate(0.000000, 0.762969)">
                        <g id="Group-31">
                            <path d="M124.524976,249.047781 C113.595699,249.047871 102.852631,247.633628 92.2957729,244.804995 C81.7389145,241.976368 71.727937,237.829799 62.2629045,232.365289 C52.7978079,226.900714 44.2011758,220.304407 36.4730082,212.576368 C28.7447764,204.848264 22.1482772,196.25176 16.6835746,186.786792 C11.218872,177.321823 7.07211127,167.31091 4.24335644,156.754116 C1.41453755,146.197257 0.000128110995,135.454189 0,124.524976 C-6.40554976e-05,113.595699 1.41415322,102.852631 4.24277994,92.2957729 C7.07140665,81.7388504 11.2179752,71.727937 16.6825497,62.2628404 C22.1472523,52.7976798 28.7436875,44.2009837 36.4719192,36.4727519 C44.2000869,28.7444561 52.796719,22.148021 62.2618155,16.6833184 C71.726848,11.2185517 81.7378255,7.07185504 92.294684,4.24310021 C102.851606,1.41434539 113.59461,0 124.524976,0 L124.523759,56.0357493 C120.027832,56.0372866 115.575206,56.4772838 111.165882,57.3557409 C106.756558,58.234198 102.47528,59.5342684 98.321986,61.255888 C94.1686916,62.9775076 90.2231932,65.0876238 86.4854909,67.5863007 C82.7477885,70.0849135 79.2896244,72.9241093 76.1110625,76.1038242 C72.9325006,79.2835391 70.0945218,82.7426641 67.5971901,86.4812632 C65.0998584,90.2198623 62.9910874,94.1661294 61.270941,98.3200643 C59.5507307,102.473935 58.2521976,106.755725 57.3752778,111.165434 C56.4983581,115.575078 56.0598982,120.027896 56.0598982,124.523887 C56.0598982,129.019879 56.4984221,133.472761 57.375406,137.882469 C58.2523898,142.292114 59.5509869,146.573967 61.2711973,150.727902 C62.9914076,154.881837 65.1002427,158.828104 67.5976385,162.566704 C70.0950342,166.305367 72.933013,169.764492 76.1117031,172.944207 C79.290329,176.123857 82.7484932,178.963053 86.4862595,181.46173 C90.2240259,183.960343 94.1695884,186.070459 98.3229468,187.792079 C102.476241,189.513634 106.757583,190.813705 111.166971,191.692098 C115.576295,192.570491 120.028985,193.010488 124.524976,193.012025 L124.524976,249.047781 Z" id="Fill-30" fill="url(#radialGradient-1)"></path>
                            <path d="M249.044074,249.047781 C238.114797,249.047871 227.371729,247.633628 216.814871,244.804995 C206.258013,241.976368 196.247035,237.829799 186.782003,232.365289 C177.316906,226.900714 168.720274,220.304407 160.992106,212.576368 C153.263875,204.848264 146.667375,196.25176 141.202673,186.786792 C135.73797,177.321823 131.591209,167.31091 128.762455,156.754116 C125.933636,146.197257 124.519226,135.454189 124.519098,124.524976 C124.519034,113.595699 125.933251,102.852631 128.761878,92.2957729 C131.590505,81.7388504 135.737073,71.727937 141.201648,62.2628404 C146.66635,52.7976798 153.262786,44.2009837 160.991017,36.4727519 C168.719185,28.7444561 177.315817,22.148021 186.780914,16.6833184 C196.245946,11.2185517 206.256924,7.07185504 216.813782,4.24310021 C227.370705,1.41434539 238.113708,0 249.044074,0 L249.042857,56.0357493 C244.54693,56.0372866 240.094304,56.4772838 235.68498,57.3557409 C231.275656,58.234198 226.994378,59.5342684 222.841084,61.255888 C218.68779,62.9775076 214.742291,65.0876238 211.004589,67.5863007 C207.266887,70.0849135 203.808722,72.9241093 200.630161,76.1038242 C197.451599,79.2835391 194.61362,82.7426641 192.116288,86.4812632 C189.618956,90.2198623 187.510185,94.1661294 185.790039,98.3200643 C184.069829,102.473935 182.771296,106.755725 181.894376,111.165434 C181.017456,115.575078 180.578996,120.027896 180.578996,124.523887 C180.578996,129.019879 181.01752,133.472761 181.894504,137.882469 C182.771488,142.292114 184.070085,146.573967 185.790295,150.727902 C187.510506,154.881837 189.619341,158.828104 192.116737,162.566704 C194.614132,166.305367 197.452111,169.764492 200.630801,172.944207 C203.809427,176.123857 207.267591,178.963053 211.005358,181.46173 C214.743124,183.960343 218.688686,186.070459 222.842045,187.792079 C226.995339,189.513634 231.276681,190.813705 235.686069,191.692098 C240.095393,192.570491 244.548083,193.010488 249.044074,193.012025 L249.044074,249.047781 Z" id="Fill-30-Copy" fill="url(#radialGradient-2)" transform="translate(186.781586, 124.523890) scale(-1, 1) translate(-186.781586, -124.523890) "></path>
                        </g>
                        <circle id="Oval" fill="#FFFFFF" cx="124.90822" cy="124.90822" r="87.3982442"></circle>
                        <path d="M77.0899016,151.589233 L74.7660835,151.589233 L74.7660835,148.446797 C72.8119638,148.235541 70.9634721,147.707401 69.4846788,146.888783 L69.4846788,143.931196 C71.5180196,145.225141 73.8946518,145.753281 76.0072137,145.753281 C78.3838458,145.753281 79.9946742,145.198734 79.9946742,143.45587 C79.9946742,139.177932 69.5638999,141.448936 69.5638999,134.899994 C69.5638999,131.889594 71.8613109,130.278765 74.7660835,129.935474 L74.7660835,126.766631 L77.0899016,126.766631 L77.0899016,129.909067 C78.8591722,130.041102 80.6284428,130.516428 81.8695729,131.255825 L81.8695729,134.134191 C80.3643726,133.130724 78.3046247,132.576176 76.3240979,132.602583 C74.0795009,132.602583 72.6271146,133.262759 72.6271146,134.84718 C72.6271146,138.834641 83.057889,136.695672 83.057889,143.297428 C83.057889,146.862376 80.3907796,148.288355 77.0899016,148.473204 L77.0899016,151.589233 Z M85.2232649,139.177932 C85.2232649,133.922934 87.7055252,129.856253 93.2774072,129.856253 C98.8492892,129.856253 101.331549,133.922934 101.331549,139.177932 C101.331549,144.43293 98.8492892,148.499611 93.2774072,148.499611 C87.7055252,148.499611 85.2232649,144.43293 85.2232649,139.177932 Z M98.2947417,139.177932 C98.2947417,135.005622 96.7103203,132.602583 93.2774072,132.602583 C89.8180871,132.602583 88.2600727,135.005622 88.2600727,139.177932 C88.2600727,143.350242 89.8180871,145.753281 93.2774072,145.753281 C96.7103203,145.753281 98.2947417,143.350242 98.2947417,139.177932 Z M107.431572,146.703934 C107.431572,147.89225 106.612954,148.446797 105.662301,148.446797 C104.711648,148.446797 103.866624,147.89225 103.866624,146.703934 C103.866624,145.568432 104.711648,145.013884 105.662301,145.013884 C106.612954,145.013884 107.431572,145.568432 107.431572,146.703934 Z M109.966646,139.177932 C109.966646,133.922934 112.448906,129.856253 118.020788,129.856253 C123.59267,129.856253 126.074931,133.922934 126.074931,139.177932 C126.074931,144.43293 123.59267,148.499611 118.020788,148.499611 C112.448906,148.499611 109.966646,144.43293 109.966646,139.177932 Z M123.038123,139.177932 C123.038123,135.005622 121.453701,132.602583 118.020788,132.602583 C114.561468,132.602583 113.003454,135.005622 113.003454,139.177932 C113.003454,143.350242 114.561468,145.753281 118.020788,145.753281 C121.453701,145.753281 123.038123,143.350242 123.038123,139.177932 Z M137.535579,130.199544 L140.625201,130.199544 L140.625201,141.871449 L143.714822,141.871449 L143.714822,144.485744 L140.625201,144.485744 L140.625201,148.15632 L137.720428,148.15632 L137.720428,144.485744 L127.976236,144.485744 L127.976236,141.924263 L137.535579,130.199544 Z M137.720428,141.871449 L137.720428,134.028562 L131.329928,141.871449 L137.720428,141.871449 Z M146.910072,130.199544 L157.974615,130.199544 L157.974615,132.89306 L149.68281,132.89306 L149.41874,137.223812 C150.290171,137.012556 151.214417,136.906928 152.138663,136.906928 C155.597983,136.906928 158.81964,138.412128 158.81964,142.637252 C158.81964,146.519085 155.518762,148.499611 151.557709,148.499611 C149.471554,148.499611 147.385399,148.050692 145.800977,147.284888 L145.800977,144.459337 C147.306178,145.330769 149.339519,145.779688 151.214417,145.779688 C153.881527,145.779688 155.782832,144.723407 155.782832,142.610845 C155.782832,140.234213 153.749491,139.389188 150.897533,139.389188 C149.445147,139.389188 147.781504,139.679666 146.329118,140.181399 L146.910072,130.199544 Z M161.169865,139.177932 C161.169865,133.922934 163.652125,129.856253 169.224007,129.856253 C174.795889,129.856253 177.27815,133.922934 177.27815,139.177932 C177.27815,144.43293 174.795889,148.499611 169.224007,148.499611 C163.652125,148.499611 161.169865,144.43293 161.169865,139.177932 Z M174.241342,139.177932 C174.241342,135.005622 172.65692,132.602583 169.224007,132.602583 C165.764687,132.602583 164.206673,135.005622 164.206673,139.177932 C164.206673,143.350242 165.764687,145.753281 169.224007,145.753281 C172.65692,145.753281 174.241342,143.350242 174.241342,139.177932 Z M88.7882131,162.199544 L91.0064031,162.199544 L91.0064031,177.436397 L94.201653,177.436397 L94.201653,180.15632 L84.4310542,180.15632 L84.4310542,177.436397 L88.0224094,177.436397 L88.0224094,165.289166 L84.4310542,166.635924 L84.4310542,163.863187 L88.7882131,162.199544 Z M120.027722,161.671404 L122.747646,161.671404 L122.747646,180.15632 L119.737245,180.15632 L119.737245,167.216879 L113.901293,175.98401 L112.105615,175.98401 L106.269663,167.190472 L106.269663,180.15632 L103.259262,180.15632 L103.259262,161.671404 L105.979186,161.671404 L113.003454,172.26062 L120.027722,161.671404 Z M130.24724,180.15632 L127.23684,180.15632 L127.23684,161.671404 L130.062391,161.671404 L140.017839,175.1918 C139.991432,174.558031 139.991432,173.845041 139.991432,173.158459 L139.991432,161.671404 L143.001833,161.671404 L143.001833,180.15632 L140.176281,180.15632 L130.220833,166.635924 C130.24724,167.269693 130.24724,167.982682 130.24724,168.642858 L130.24724,180.15632 Z M150.501428,180.15632 L147.491027,180.15632 L147.491027,161.671404 L154.884993,161.671404 C158.344314,161.671404 161.988483,163.044569 161.988483,167.454542 C161.988483,170.75542 159.928735,172.339841 157.499289,172.920796 L163.414462,180.15632 L159.7967,180.15632 L154.251225,173.23768 L150.501428,173.23768 L150.501428,180.15632 Z M150.501428,164.417734 L150.501428,170.570571 L155.017029,170.570571 C156.997555,170.570571 158.925268,169.857581 158.925268,167.507356 C158.925268,165.130724 156.997555,164.417734 155.017029,164.417734 L150.501428,164.417734 Z" id="$0.0450-1-MNR" fill="#131F3C"></path>
                    </g>
                </g>
            </g>
            <path d="M103.205295,114.956634 L106.985963,114.956634 L106.985963,129.659233 L109.954488,129.659233 L109.954488,134 L98.5844782,134 L98.5844782,129.659233 L101.945072,129.659233 L101.945072,120.08154 L98.5844782,121.341763 L98.5844782,116.720946 L103.205295,114.956634 Z M111.66279,124.478317 C111.66279,119.045357 114.26725,114.53656 120.484349,114.53656 C126.701447,114.53656 129.305908,119.045357 129.305908,124.478317 C129.305908,129.911277 126.701447,134.420074 120.484349,134.420074 C114.26725,134.420074 111.66279,129.911277 111.66279,124.478317 Z M124.124992,124.478317 C124.124992,120.809669 122.976789,119.017352 120.484349,119.017352 C117.991908,119.017352 116.843705,120.809669 116.843705,124.478317 C116.843705,128.146966 117.991908,129.939282 120.484349,129.939282 C122.976789,129.939282 124.124992,128.146966 124.124992,124.478317 Z M139.359685,135.680297 L136.27914,135.680297 L147.733165,112.716238 L150.813709,112.716238 L139.359685,135.680297 Z M141.82412,119.017352 C141.82412,122.377946 139.359685,124.058243 136.50318,124.058243 C133.61867,124.058243 131.154234,122.377946 131.154234,119.017352 C131.154234,115.656758 133.61867,113.976461 136.50318,113.976461 C139.359685,113.976461 141.82412,115.656758 141.82412,119.017352 Z M134.850888,119.017352 C134.850888,119.857501 135.298967,120.697649 136.50318,120.697649 C137.679388,120.697649 138.127467,119.857501 138.127467,119.017352 C138.127467,118.177204 137.679388,117.337055 136.50318,117.337055 C135.298967,117.337055 134.850888,118.177204 134.850888,119.017352 Z M155.826595,129.379183 C155.826595,132.739777 153.362159,134.420074 150.505655,134.420074 C147.621145,134.420074 145.156709,132.739777 145.156709,129.379183 C145.156709,126.018589 147.621145,124.338292 150.505655,124.338292 C153.362159,124.338292 155.826595,126.018589 155.826595,129.379183 Z M148.853363,129.379183 C148.853363,130.219332 149.301442,131.05948 150.505655,131.05948 C151.681862,131.05948 152.129942,130.219332 152.129942,129.379183 C152.129942,128.539035 151.681862,127.698886 150.505655,127.698886 C149.301442,127.698886 148.853363,128.539035 148.853363,129.379183 Z" id="10%" fill="#131F3C" fill-rule="nonzero"></path>
            <g id="diskon" transform="translate(0.000000, 139.000000)" fill="#000000">
                <path d="M80.3862578,14.95 C80.3862578,9.108 84.7332578,6.578 89.1492578,6.578 C90.8742578,6.578 92.5992578,6.946 94.0942578,7.613 L94.0942578,10.902 C92.8752578,10.097 91.2422578,9.66 89.6092578,9.66 C86.7342578,9.66 83.9052578,11.178 83.9052578,14.95 C83.9052578,19.228 87.0562578,20.309 89.4252578,20.309 C90.1152578,20.309 90.7132578,20.194 91.1962578,20.01 L91.1962578,14.26 L94.4852578,14.26 L94.4852578,22.241 C92.8752578,22.931 91.0352578,23.322 89.2412578,23.322 C84.7332578,23.322 80.3862578,20.861 80.3862578,14.95 Z M100.258258,23 L97.0612578,23 L97.0612578,11.96 L100.258258,11.96 L100.258258,23 Z M100.534258,8.303 C100.534258,9.568 99.6602578,10.12 98.6482578,10.12 C97.6592578,10.12 96.7852578,9.568 96.7852578,8.303 C96.7852578,7.061 97.6592578,6.509 98.6482578,6.509 C99.6602578,6.509 100.534258,7.061 100.534258,8.303 Z M109.780887,21.6748047 C108.672808,22.7454481 107.486134,23.2807617 106.220828,23.2807617 C105.142698,23.2807617 104.26673,22.9513379 103.592898,22.2924805 C102.919067,21.633623 102.582156,20.7801159 102.582156,19.7319336 C102.582156,18.3692966 103.126829,17.3192582 104.216189,16.5817871 C105.30555,15.844316 106.864698,15.4755859 108.89368,15.4755859 L109.780887,15.4755859 L109.780887,14.3525391 C109.780887,13.0722592 109.050914,12.4321289 107.590945,12.4321289 C106.295691,12.4321289 104.985483,12.7989872 103.660281,13.5327148 L103.660281,11.2416992 C105.165172,10.672686 106.655066,10.3881836 108.130008,10.3881836 C111.356912,10.3881836 112.97034,11.6721877 112.97034,14.2402344 L112.97034,19.6982422 C112.97034,20.6640673 113.281046,21.1469727 113.902469,21.1469727 C114.014774,21.1469727 114.160769,21.1319988 114.340457,21.1020508 L114.41907,22.9663086 C113.715291,23.1759451 113.093878,23.2807617 112.554812,23.2807617 C111.192175,23.2807617 110.316208,22.7454481 109.926883,21.6748047 L109.780887,21.6748047 Z M109.780887,19.8891602 L109.780887,17.3847656 L108.994754,17.3847656 C106.84598,17.3847656 105.771609,18.058587 105.771609,19.40625 C105.771609,19.862958 105.926963,20.2466619 106.237674,20.557373 C106.548385,20.8680842 106.932089,21.0234375 107.388797,21.0234375 C108.167447,21.0234375 108.964802,20.6453488 109.780887,19.8891602 Z M108.826297,8.75976562 L106.613895,8.75976562 L106.613895,8.625 C106.613895,8.25813619 106.662559,7.99047936 106.759891,7.82202148 C106.857222,7.65356361 107.096803,7.42708476 107.478641,7.14257812 L107.71448,6.96289062 C107.804325,6.89550748 107.909141,6.82063843 108.028934,6.73828125 C108.320927,6.52864479 108.466922,6.30778111 108.466922,6.07568359 C108.466922,5.64892365 108.092577,5.43554688 107.343875,5.43554688 C106.857219,5.43554688 106.265753,5.53662008 105.569461,5.73876953 L105.569461,4.34619141 C106.318163,4.15152897 107.021932,4.05419922 107.680789,4.05419922 C109.724745,4.05419922 110.746707,4.60823014 110.746707,5.71630859 C110.746707,6.13558152 110.484665,6.56607852 109.960574,7.0078125 C109.833295,7.11263073 109.739709,7.19124323 109.679812,7.24365234 L109.432742,7.46826172 C109.028443,7.83512553 108.826297,8.18701003 108.826297,8.52392578 L108.826297,8.75976562 Z M119.736742,23 L116.539742,23 L116.539742,11.96 L119.368742,11.96 L119.368742,13.248 C119.943742,12.558 121.208742,11.638 122.887742,11.638 C124.543742,11.638 125.624742,12.328 126.268742,13.271 C127.188742,12.374 128.430742,11.638 129.948742,11.638 C133.053742,11.638 134.065742,14.053 134.065742,16.008 L134.065742,23 L130.891742,23 L130.891742,16.215 C130.891742,15.065 130.178742,14.398 129.166742,14.398 C128.292742,14.398 127.510742,14.904 126.981742,15.502 C127.004742,15.663 127.004742,15.824 127.004742,16.008 L127.004742,23 L123.830742,23 L123.830742,16.215 C123.830742,15.065 123.117742,14.398 122.105742,14.398 C121.139742,14.398 120.265742,15.042 119.736742,15.732 L119.736742,23 Z M141.149742,17.48 C141.149742,14.467 143.035742,11.638 146.554742,11.638 C148.578742,11.638 149.843742,12.581 150.556742,13.57 L150.556742,11.96 L153.362742,11.96 L153.362742,22.701 C153.362742,26.91 150.257742,28.382 147.014742,28.382 C145.289742,28.382 143.679742,27.991 142.345742,27.347 L142.345742,24.541 C143.587742,25.277 145.082742,25.691 146.600742,25.691 C148.555742,25.691 150.188742,25.024 150.188742,22.839 L150.188742,21.827 C149.475742,22.609 148.302742,23.322 146.554742,23.322 C143.035742,23.322 141.149742,20.493 141.149742,17.48 Z M150.188742,16.169 C149.751742,15.203 148.716742,14.329 147.313742,14.329 C145.496742,14.329 144.415742,15.755 144.415742,17.48 C144.415742,19.205 145.496742,20.631 147.313742,20.631 C148.716742,20.631 149.751742,19.78 150.188742,18.86 L150.188742,16.169 Z M159.296742,23 L156.099742,23 L156.099742,11.96 L159.296742,11.96 L159.296742,23 Z M159.572742,8.303 C159.572742,9.568 158.698742,10.12 157.686742,10.12 C156.697742,10.12 155.823742,9.568 155.823742,8.303 C155.823742,7.061 156.697742,6.509 157.686742,6.509 C158.698742,6.509 159.572742,7.061 159.572742,8.303 Z M171.923742,20.148 C171.923742,20.723 172.291742,20.884 172.705742,20.884 C172.889742,20.884 173.096742,20.861 173.303742,20.792 L173.303742,22.885 C172.797742,23.069 172.153742,23.207 171.532742,23.207 C170.405742,23.207 169.554742,22.793 169.094742,21.965 C168.013742,22.816 166.748742,23.322 165.115742,23.322 C163.045742,23.322 161.251742,22.126 161.251742,19.941 C161.251742,17.135 163.896742,16.261 166.104742,16.261 C166.978742,16.261 167.944742,16.376 168.726742,16.56 L168.726742,16.169 C168.726742,15.065 167.852742,14.306 166.127742,14.306 C164.609742,14.306 163.252742,14.72 162.217742,15.134 L162.217742,12.374 C163.114742,12.075 164.793742,11.638 166.495742,11.638 C169.807742,11.638 171.923742,12.995 171.923742,16.629 L171.923742,20.148 Z M166.840742,18.17 C165.667742,18.17 164.517742,18.561 164.517742,19.688 C164.517742,20.516 165.276742,21.045 166.242742,21.045 C167.139742,21.045 167.990742,20.792 168.726742,20.148 L168.726742,18.423 C168.243742,18.308 167.507742,18.17 166.840742,18.17 Z M167.576742,10.327 L164.494742,10.327 L166.564742,6.923 L170.060742,6.923 L167.576742,10.327 Z" id="Giảm-giá"></path>
            </g>
            <g id="18-28-Agustus" transform="translate(2.000000, 0.000000)" fill="#000000">
                <path d="M14.625,25 L10.875,25 L10.875,7.5 L14.4,7.5 L22.55,18.925 C22.5,18.2 22.475,17.325 22.475,16.525 L22.475,7.5 L26.225,7.5 L26.225,25 L22.7,25 L14.55,13.575 C14.6,14.3 14.625,15.175 14.625,15.975 L14.625,25 Z M28.625,19 C28.625,15.725 30.675,12.65 34.5,12.65 C36.7,12.65 38.075,13.675 38.85,14.75 L38.85,13 L41.9,13 L41.9,24.675 C41.9,29.25 38.525,30.85 35,30.85 C33.125,30.85 31.375,30.425 29.925,29.725 L29.925,26.675 C31.275,27.475 32.9,27.925 34.55,27.925 C36.675,27.925 38.45,27.2 38.45,24.825 L38.45,23.725 C37.675,24.575 36.4,25.35 34.5,25.35 C30.675,25.35 28.625,22.275 28.625,19 Z M38.45,17.575 C37.975,16.525 36.85,15.575 35.325,15.575 C33.35,15.575 32.175,17.125 32.175,19 C32.175,20.875 33.35,22.425 35.325,22.425 C36.85,22.425 37.975,21.5 38.45,20.5 L38.45,17.575 Z M55.575,21.9 C55.575,22.525 55.975,22.7 56.425,22.7 C56.625,22.7 56.85,22.675 57.075,22.6 L57.075,24.875 C56.525,25.075 55.825,25.225 55.15,25.225 C53.925,25.225 53,24.775 52.5,23.875 C51.325,24.8 49.95,25.35 48.175,25.35 C45.925,25.35 43.975,24.05 43.975,21.675 C43.975,18.625 46.85,17.675 49.25,17.675 C50.2,17.675 51.25,17.8 52.1,18 L52.1,17.575 C52.1,16.375 51.15,15.55 49.275,15.55 C47.625,15.55 46.15,16 45.025,16.45 L45.025,13.45 C46,13.125 47.825,12.65 49.675,12.65 C53.275,12.65 55.575,14.125 55.575,18.075 L55.575,21.9 Z M50.05,19.75 C48.775,19.75 47.525,20.175 47.525,21.4 C47.525,22.3 48.35,22.875 49.4,22.875 C50.375,22.875 51.3,22.6 52.1,21.9 L52.1,20.025 C51.575,19.9 50.775,19.75 50.05,19.75 Z M51.875,11.225 L48.525,11.225 L45.825,7.525 L49.625,7.525 L51.875,11.225 Z M63.725,21.1 L66.7,13 L70.3,13 L64.975,26.45 C63.625,29.8 61.75,30.825 59.8,30.825 C59.175,30.825 58.55,30.7 57.925,30.55 L57.925,27.675 C58.4,27.775 58.875,27.85 59.35,27.85 C60.6,27.85 61.55,27 62.2,25.225 L62.225,25.175 L56.55,13 L60.225,13 L63.725,21.1 Z M80.825,8 L83.55,8 L83.55,21.775 L86.4,21.775 L86.4,25 L76.7,25 L76.7,21.775 L79.9,21.775 L79.9,11.75 L76.7,12.95 L76.7,9.575 L80.825,8 Z M88.6,12.35 C88.6,10.075 90.5,7.65 95.15,7.65 C99.475,7.65 101.725,10.075 101.75,12.45 C101.775,14.1 100.975,15.35 99.6,16.375 C101.15,17.15 102.375,18.35 102.375,20.4 C102.375,22.9 100.325,25.35 95.2,25.35 C90.125,25.35 87.975,22.875 87.975,20.275 C87.975,18.575 89.025,16.95 90.625,16 C89.45,15.2 88.6,14.075 88.6,12.35 Z M95.575,18 C94.825,17.725 93.925,17.475 93.05,17.15 C92.125,17.925 91.7,18.95 91.725,19.825 C91.75,21.275 92.9,22.4 95.475,22.4 C97.275,22.4 98.65,21.65 98.65,20.5 C98.65,19.05 97.25,18.575 95.575,18 Z M98.15,12.725 C98.15,11.55 97.1,10.6 95,10.6 C93.2,10.6 92.175,11.425 92.175,12.375 C92.175,13.875 93.7,14.35 95.375,14.9 C95.875,15.025 96.4,15.2 96.95,15.35 C97.75,14.55 98.175,13.55 98.15,12.725 Z M104.775,17.45 L114.075,17.45 L114.075,20.375 L104.775,20.375 L104.775,17.45 Z M116.725,9.45 C118.475,8.2 120.5,7.65 122.575,7.65 C126,7.65 128.775,9.2 128.775,12.675 C128.775,15.55 126.4,17.25 124.175,18.575 C122.15,19.775 120.425,20.7 120.4,21.8 L128.9,21.775 L128.9,25 L116.15,25 L116.15,23.325 C116.15,19.225 119.25,17.625 121.75,16.15 C123.525,15.125 125.05,14.45 125.05,12.825 C125.05,11.575 123.95,10.925 122.225,10.925 C120.525,10.925 118.525,11.575 116.725,12.95 L116.725,9.45 Z M131.7,12.35 C131.7,10.075 133.6,7.65 138.25,7.65 C142.575,7.65 144.825,10.075 144.85,12.45 C144.875,14.1 144.075,15.35 142.7,16.375 C144.25,17.15 145.475,18.35 145.475,20.4 C145.475,22.9 143.425,25.35 138.3,25.35 C133.225,25.35 131.075,22.875 131.075,20.275 C131.075,18.575 132.125,16.95 133.725,16 C132.55,15.2 131.7,14.075 131.7,12.35 Z M138.675,18 C137.925,17.725 137.025,17.475 136.15,17.15 C135.225,17.925 134.8,18.95 134.825,19.825 C134.85,21.275 136,22.4 138.575,22.4 C140.375,22.4 141.75,21.65 141.75,20.5 C141.75,19.05 140.35,18.575 138.675,18 Z M141.25,12.725 C141.25,11.55 140.2,10.6 138.1,10.6 C136.3,10.6 135.275,11.425 135.275,12.375 C135.275,13.875 136.8,14.35 138.475,14.9 C138.975,15.025 139.5,15.2 140.05,15.35 C140.85,14.55 141.275,13.55 141.25,12.725 Z M154,9.5 L157.45,8.675 L157.45,13 L161.25,13 L161.25,15.925 L157.45,15.925 L157.45,20.625 C157.45,21.875 158.075,22.425 159.375,22.425 C160.175,22.425 160.85,22.3 161.55,22.025 L161.55,24.825 C160.625,25.15 159.525,25.35 158.325,25.35 C156,25.35 154,24.275 154,21.3 L154,15.925 L151.975,15.925 L151.975,13 L154,13 L154,9.5 Z M163.55,7.5 L167.025,7.5 L167.025,14.1 C167.9,13.275 169.125,12.65 170.625,12.65 C173.775,12.65 175.5,14.8 175.5,17.575 L175.5,25 L172.025,25 L172.025,18.025 C172.025,16.4 171.05,15.65 169.7,15.65 C168.475,15.65 167.525,16.45 167.025,17.175 L167.025,25 L163.55,25 L163.55,7.5 Z M189.025,21.9 C189.025,22.525 189.425,22.7 189.875,22.7 C190.075,22.7 190.3,22.675 190.525,22.6 L190.525,24.875 C189.975,25.075 189.275,25.225 188.6,25.225 C187.375,25.225 186.45,24.775 185.95,23.875 C184.775,24.8 183.4,25.35 181.625,25.35 C179.375,25.35 177.425,24.05 177.425,21.675 C177.425,18.625 180.3,17.675 182.7,17.675 C183.65,17.675 184.7,17.8 185.55,18 L185.55,17.575 C185.55,16.375 184.6,15.55 182.725,15.55 C181.075,15.55 179.6,16 178.475,16.45 L178.475,13.45 C179.45,13.125 181.275,12.65 183.125,12.65 C186.725,12.65 189.025,14.125 189.025,18.075 L189.025,21.9 Z M183.5,19.75 C182.225,19.75 180.975,20.175 180.975,21.4 C180.975,22.3 181.8,22.875 182.85,22.875 C183.825,22.875 184.75,22.6 185.55,21.9 L185.55,20.025 C185.025,19.9 184.225,19.75 183.5,19.75 Z M184.3,11.225 L180.95,11.225 L183.2,7.525 L187,7.525 L184.3,11.225 Z M195.25,14.525 C196.175,13.45 197.525,12.65 199.25,12.65 C202.4,12.65 204.125,14.8 204.125,17.575 L204.125,25 L200.65,25 L200.65,18.025 C200.65,16.4 199.675,15.65 198.325,15.65 C197.1,15.65 196.15,16.45 195.65,17.175 L195.65,25 L192.175,25 L192.175,13 L195.25,13 L195.25,14.525 Z M206.25,19 C206.25,15.725 208.3,12.65 212.125,12.65 C214.325,12.65 215.7,13.675 216.475,14.75 L216.475,13 L219.525,13 L219.525,24.675 C219.525,29.25 216.15,30.85 212.625,30.85 C210.75,30.85 209,30.425 207.55,29.725 L207.55,26.675 C208.9,27.475 210.525,27.925 212.175,27.925 C214.3,27.925 216.075,27.2 216.075,24.825 L216.075,23.725 C215.3,24.575 214.025,25.35 212.125,25.35 C208.3,25.35 206.25,22.275 206.25,19 Z M216.075,17.575 C215.6,16.525 214.475,15.575 212.95,15.575 C210.975,15.575 209.8,17.125 209.8,19 C209.8,20.875 210.975,22.425 212.95,22.425 C214.475,22.425 215.6,21.5 216.075,20.5 L216.075,17.575 Z M228.2,12.35 C228.2,10.075 230.1,7.65 234.75,7.65 C239.075,7.65 241.325,10.075 241.35,12.45 C241.375,14.1 240.575,15.35 239.2,16.375 C240.75,17.15 241.975,18.35 241.975,20.4 C241.975,22.9 239.925,25.35 234.8,25.35 C229.725,25.35 227.575,22.875 227.575,20.275 C227.575,18.575 228.625,16.95 230.225,16 C229.05,15.2 228.2,14.075 228.2,12.35 Z M235.175,18 C234.425,17.725 233.525,17.475 232.65,17.15 C231.725,17.925 231.3,18.95 231.325,19.825 C231.35,21.275 232.5,22.4 235.075,22.4 C236.875,22.4 238.25,21.65 238.25,20.5 C238.25,19.05 236.85,18.575 235.175,18 Z M237.75,12.725 C237.75,11.55 236.7,10.6 234.6,10.6 C232.8,10.6 231.775,11.425 231.775,12.375 C231.775,13.875 233.3,14.35 234.975,14.9 C235.475,15.025 236,15.2 236.55,15.35 C237.35,14.55 237.775,13.55 237.75,12.725 Z" id="Ngày-18-28-tháng-8"></path>
            </g>
        </g>
    </g>
</svg>