<?xml version="1.0" encoding="UTF-8"?>
<svg width="250px" height="292px" viewBox="0 0 250 292" version="1.1" xmlns="http://www.w3.org/2000/svg" xmlns:xlink="http://www.w3.org/1999/xlink">
    <!-- Generator: Sketch 48.2 (47327) - http://www.bohemiancoding.com/sketch -->
    <title>vie_2</title>
    <desc>Created with Sketch.</desc>
    <defs>
        <radialGradient cx="808.962429%" cy="800%" fx="808.962429%" fy="800%" r="101.454359%" gradientTransform="translate(8.089624,8.000000),scale(1.000000,0.999999),translate(-8.089624,-8.000000)" id="radialGradient-1">
            <stop stop-color="#FF9495" offset="0%"></stop>
            <stop stop-color="#FE5F60" offset="70.3742825%"></stop>
            <stop stop-color="#FF9091" offset="100%"></stop>
        </radialGradient>
        <radialGradient cx="200%" cy="200%" fx="200%" fy="200%" r="50.0301469%" gradientTransform="translate(2.000000,2.000000),scale(1.000000,1.000000),translate(-2.000000,-2.000000)" id="radialGradient-2">
            <stop stop-color="#8D00FF" offset="0%"></stop>
            <stop stop-color="#5C00FE" offset="69.8959662%"></stop>
            <stop stop-color="#8900FF" offset="100%"></stop>
        </radialGradient>
    </defs>
    <g id="Page-1" stroke="none" stroke-width="1" fill="none" fill-rule="evenodd">
        <g id="vie_2" transform="translate(-1.000000, -7.000000)">
            <g id="2-copy" transform="translate(0.000000, 48.000000)" fill-rule="nonzero">
                <g id="Group-2" transform="translate(126.066640, 125.762969) scale(-1, 1) translate(-126.066640, -125.762969) translate(0.566640, 0.762969)">
                    <path d="M0.773750896,124.873729 C0.773779989,116.689946 1.57209481,108.584814 3.16869536,100.558282 C4.76529591,92.5317607 7.12950015,84.7380986 10.2613081,77.1772896 C13.393116,69.6164805 17.2323564,62.4338 21.7790176,55.629254 C26.325673,48.8247085 31.4923987,42.5290333 37.2791891,36.7422459 C43.0659853,30.9554544 49.3616506,25.7887338 56.1661792,21.2420837 C62.9707136,16.6954341 70.153394,12.8562164 77.7141798,9.7244312 C85.2749598,6.59264654 93.068616,4.22846849 101.095102,2.6318982 C109.121588,1.03532325 117.226597,0.237031125 125.410328,0.237031125 L125.410328,56.3235362 C120.909297,56.3235653 116.451511,56.762639 112.036963,57.6407748 C107.62241,58.518899 103.33595,59.8192111 99.17753,61.5416993 C95.0191103,63.2641992 91.0686861,65.3757843 87.3262108,67.8764488 C83.5837413,70.3771134 80.1211632,73.2188123 76.9384532,76.4015455 C73.7557433,79.5842788 70.9140618,83.0468976 68.4134322,86.7893845 C65.9127968,90.5318831 63.8012407,94.482348 62.0787699,98.6407794 C60.3563108,102.799211 59.0560162,107.085712 58.1779036,111.500294 C57.2998202,115.914842 56.8607755,120.372669 56.8607581,124.873729 L0.773750896,124.873729 Z" id="Fill-8" fill="url(#radialGradient-1)"></path>
                    <path d="M125.475948,0.237031125 C133.652855,0.23706659 141.751206,1.03472162 149.770988,2.62999272 C157.790771,4.22526731 165.577876,6.58750783 173.132322,9.71671311 C180.68679,12.8459137 187.863445,16.6819591 194.662297,21.2248403 C201.461125,25.7677257 207.75149,30.9301581 213.533426,36.7121376 C219.315362,42.4941165 224.477725,48.7845522 229.020556,55.5834348 C233.563387,62.3823272 237.399362,69.5590225 240.528504,77.1135206 C243.657681,84.6680362 246.019921,92.4552054 247.615154,100.475028 C249.210382,108.494845 250.007981,116.593231 250.007981,124.770157 C250.007946,132.94714 249.210312,141.045555 247.615009,149.065407 C246.019781,157.085259 243.657541,164.87244 240.528289,172.426979 C237.399112,179.981512 233.563073,187.158224 229.020201,193.957105 C224.477335,200.755992 219.314897,207.046426 213.532891,212.828415 C207.75092,218.610403 201.460521,223.772824 194.661605,228.315708 C187.862718,232.858574 180.686029,236.694601 173.131525,239.823761 C165.577021,242.952955 157.789846,245.31516 149.770029,246.910411 C141.750195,248.505655 133.651809,249.303272 125.474866,249.303272 C117.297883,249.303237 109.199485,248.505586 101.179651,246.9103 C93.1597989,245.315038 85.3726007,242.952798 77.8180619,239.82358 C70.2635232,236.694386 63.0868163,232.858347 56.2879297,228.315475 C49.4890373,223.772592 43.1986028,218.61017 37.4166263,212.828182 C31.6346439,207.046217 26.4722168,200.755777 21.9293506,193.956896 C17.3864729,187.158009 13.5504514,179.98132 10.421263,172.426798 C7.29207463,164.872294 4.92986378,157.085137 3.33462466,149.06532 C1.73936229,141.045485 0.941739824,132.947099 0.941739824,124.770157 C0.941739824,124.770153 19.6218754,124.770159 56.9821467,124.770174 C56.9821641,129.267494 57.4208788,133.721635 58.2982851,138.132549 C59.175668,142.54347 60.4748997,146.826409 62.1959626,150.981403 C63.917043,155.136403 66.0268562,159.083585 68.5254489,162.82298 C71.0240415,166.562381 73.8633794,170.022135 77.0434624,173.202218 C80.2235571,176.382301 83.6832989,179.221639 87.4226764,181.720231 C91.1620597,184.218783 95.1092365,186.328602 99.2642186,188.049665 C103.419201,189.770722 107.70214,191.069954 112.113037,191.947343 C116.52394,192.824708 120.97804,193.263394 125.47536,193.263394 C129.972686,193.263377 134.426821,192.824673 138.837759,191.94729 C143.248656,191.069884 147.531613,189.770653 151.686613,188.049572 C155.841612,186.328515 159.788789,184.218696 163.52819,181.720103 C167.267567,179.221511 170.727309,176.382179 173.907404,173.202096 C177.087504,170.022012 179.926842,166.562271 182.425435,162.822876 C184.92401,159.083475 187.033823,155.136298 188.754868,150.981316 C190.475908,146.826334 191.77514,142.543394 192.652529,138.132497 C193.529912,133.721583 193.968597,129.267477 193.96858,124.770174 C193.968562,120.272854 193.529859,115.818713 192.652476,111.407799 C191.77507,106.996878 190.475838,102.713921 188.754758,98.5589274 C187.033718,94.4039337 184.923899,90.4567452 182.425307,86.7173561 C179.92672,82.977967 177.087365,79.5182309 173.907282,76.338142 C170.727198,73.1580474 167.267462,70.3187211 163.528062,67.8201401 C159.788667,65.3215532 155.841484,63.21174 151.686502,61.4906887 C147.531526,59.7696374 143.248586,58.4704115 138.837701,57.5930227 C134.426786,56.7156397 129.972686,56.2769482 125.47536,56.2769482 L125.475948,0.237031125 Z" id="Fill-8" fill="url(#radialGradient-2)"></path>
                </g>
                <circle id="Oval" fill="#FFFFFF" cx="124.90822" cy="125.671189" r="87.3982442"></circle>
                <path d="M80.1879256,152.352202 L77.8641075,152.352202 L77.8641075,149.209766 C75.9099878,148.99851 74.0614961,148.47037 72.5827028,147.651752 L72.5827028,144.694165 C74.6160436,145.988109 76.9926757,146.51625 79.1052376,146.51625 C81.4818698,146.51625 83.0926982,145.961702 83.0926982,144.218839 C83.0926982,139.940901 72.6619238,142.211905 72.6619238,135.662963 C72.6619238,132.652562 74.9593349,131.041734 77.8641075,130.698443 L77.8641075,127.5296 L80.1879256,127.5296 L80.1879256,130.672036 C81.9571962,130.804071 83.7264668,131.279397 84.9675969,132.018794 L84.9675969,134.897159 C83.4623965,133.893693 81.4026487,133.339145 79.4221219,133.365552 C77.1775249,133.365552 75.7251386,134.025728 75.7251386,135.610149 C75.7251386,139.59761 86.155913,137.458641 86.155913,144.060397 C86.155913,147.625345 83.4888036,149.051324 80.1879256,149.236173 L80.1879256,152.352202 Z M88.3212889,139.940901 C88.3212889,134.685903 90.8035491,130.619222 96.3754311,130.619222 C101.947313,130.619222 104.429573,134.685903 104.429573,139.940901 C104.429573,145.195899 101.947313,149.26258 96.3754311,149.26258 C90.8035491,149.26258 88.3212889,145.195899 88.3212889,139.940901 Z M101.392766,139.940901 C101.392766,135.768591 99.8083442,133.365552 96.3754311,133.365552 C92.916111,133.365552 91.3580966,135.768591 91.3580966,139.940901 C91.3580966,144.113211 92.916111,146.51625 96.3754311,146.51625 C99.8083442,146.51625 101.392766,144.113211 101.392766,139.940901 Z M110.529596,147.466903 C110.529596,148.655219 109.710978,149.209766 108.760325,149.209766 C107.809672,149.209766 106.964648,148.655219 106.964648,147.466903 C106.964648,146.331401 107.809672,145.776853 108.760325,145.776853 C109.710978,145.776853 110.529596,146.331401 110.529596,147.466903 Z M113.06467,139.940901 C113.06467,134.685903 115.54693,130.619222 121.118812,130.619222 C126.690694,130.619222 129.172955,134.685903 129.172955,139.940901 C129.172955,145.195899 126.690694,149.26258 121.118812,149.26258 C115.54693,149.26258 113.06467,145.195899 113.06467,139.940901 Z M126.136147,139.940901 C126.136147,135.768591 124.551725,133.365552 121.118812,133.365552 C117.659492,133.365552 116.101478,135.768591 116.101478,139.940901 C116.101478,144.113211 117.659492,146.51625 121.118812,146.51625 C124.551725,146.51625 126.136147,144.113211 126.136147,139.940901 Z M140.633603,130.962513 L143.723225,130.962513 L143.723225,142.634417 L146.812846,142.634417 L146.812846,145.248713 L143.723225,145.248713 L143.723225,148.919289 L140.818452,148.919289 L140.818452,145.248713 L131.07426,145.248713 L131.07426,142.687231 L140.633603,130.962513 Z M140.818452,142.634417 L140.818452,134.791531 L134.427952,142.634417 L140.818452,142.634417 Z M149.321514,132.441306 C151.170005,131.173769 153.203346,130.619222 155.289501,130.619222 C158.93367,130.619222 161.60078,132.309271 161.60078,135.662963 C161.60078,138.699771 159.065705,140.495448 156.636259,141.947835 C154.312441,143.321 152.120658,144.430095 152.094251,146.225773 L161.732815,146.199366 L161.732815,148.919289 L148.714152,148.919289 L148.714152,147.546124 C148.714152,143.162558 151.962216,141.498915 154.68214,139.888087 C156.768294,138.673364 158.590379,137.749118 158.590379,135.715777 C158.590379,134.157763 157.243621,133.339145 155.025431,133.339145 C153.203346,133.339145 151.222819,133.972914 149.321514,135.346079 L149.321514,132.441306 Z M165.456205,130.962513 L176.520748,130.962513 L176.520748,133.656029 L168.228943,133.656029 L167.964872,137.986781 C168.836304,137.775525 169.76055,137.669897 170.684796,137.669897 C174.144116,137.669897 177.365773,139.175097 177.365773,143.400221 C177.365773,147.282054 174.064895,149.26258 170.103841,149.26258 C168.017686,149.26258 165.931532,148.813661 164.34711,148.047857 L164.34711,145.222306 C165.852311,146.093737 167.885651,146.542657 169.76055,146.542657 C172.427659,146.542657 174.328965,145.486376 174.328965,143.373814 C174.328965,140.997182 172.295624,140.152157 169.443666,140.152157 C167.991279,140.152157 166.327637,140.442634 164.875251,140.944368 L165.456205,130.962513 Z M90.2886122,162.962513 L92.5068022,162.962513 L92.5068022,178.199366 L95.702052,178.199366 L95.702052,180.919289 L85.9314533,180.919289 L85.9314533,178.199366 L89.5228085,178.199366 L89.5228085,166.052135 L85.9314533,167.398893 L85.9314533,164.626155 L90.2886122,162.962513 Z M121.528121,162.434372 L124.248045,162.434372 L124.248045,180.919289 L121.237644,180.919289 L121.237644,167.979847 L115.401692,176.746979 L113.606014,176.746979 L107.770062,167.95344 L107.770062,180.919289 L104.759661,180.919289 L104.759661,162.434372 L107.479585,162.434372 L114.503853,173.023589 L121.528121,162.434372 Z M131.747639,180.919289 L128.737239,180.919289 L128.737239,162.434372 L131.56279,162.434372 L141.518238,175.954769 C141.491831,175.321 141.491831,174.60801 141.491831,173.921428 L141.491831,162.434372 L144.502232,162.434372 L144.502232,180.919289 L141.67668,180.919289 L131.721232,167.398893 C131.747639,168.032661 131.747639,168.745651 131.747639,169.405827 L131.747639,180.919289 Z M152.001827,180.919289 L148.991426,180.919289 L148.991426,162.434372 L156.385393,162.434372 C159.844713,162.434372 163.488882,163.807538 163.488882,168.217511 C163.488882,171.518389 161.429134,173.10281 158.999688,173.683765 L164.914861,180.919289 L161.297099,180.919289 L155.751624,174.000649 L152.001827,174.000649 L152.001827,180.919289 Z M152.001827,165.180703 L152.001827,171.333539 L156.517428,171.333539 C158.497954,171.333539 160.425667,170.62055 160.425667,168.270325 C160.425667,165.893693 158.497954,165.180703 156.517428,165.180703 L152.001827,165.180703 Z" id="$0.0425-1-MNR" fill="#131F3C"></path>
            </g>
            <path d="M103.745567,113.956634 L107.526235,113.956634 L107.526235,128.659233 L110.49476,128.659233 L110.49476,133 L99.1247504,133 L99.1247504,128.659233 L102.485344,128.659233 L102.485344,119.08154 L99.1247504,120.341763 L99.1247504,115.720946 L103.745567,113.956634 Z M113.575304,113.928629 L126.037507,113.928629 L126.037507,118.269397 L118.224126,118.241392 L118.028091,121.041887 C118.728215,120.929867 119.428339,120.873857 120.072453,120.873857 C123.965141,120.873857 126.877655,122.638169 126.877655,126.922926 C126.877655,131.627757 122.704918,133.420074 118.448166,133.420074 C116.235775,133.420074 114.023384,132.94399 112.315082,132.131847 L112.315082,127.371005 C113.799344,128.407188 116.03974,128.939282 117.888067,128.939282 C120.044448,128.939282 121.69674,128.295168 121.69674,126.810906 C121.69674,125.606693 120.716566,124.68253 117.608017,124.654525 C116.403804,124.654525 114.667497,124.822555 112.903186,125.438664 L113.575304,113.928629 Z M136.819412,134.680297 L133.738868,134.680297 L145.192892,111.716238 L148.273437,111.716238 L136.819412,134.680297 Z M139.283848,118.017352 C139.283848,121.377946 136.819412,123.058243 133.962908,123.058243 C131.078398,123.058243 128.613962,121.377946 128.613962,118.017352 C128.613962,114.656758 131.078398,112.976461 133.962908,112.976461 C136.819412,112.976461 139.283848,114.656758 139.283848,118.017352 Z M132.310616,118.017352 C132.310616,118.857501 132.758695,119.697649 133.962908,119.697649 C135.139115,119.697649 135.587195,118.857501 135.587195,118.017352 C135.587195,117.177204 135.139115,116.337055 133.962908,116.337055 C132.758695,116.337055 132.310616,117.177204 132.310616,118.017352 Z M153.286323,128.379183 C153.286323,131.739777 150.821887,133.420074 147.965382,133.420074 C145.080873,133.420074 142.616437,131.739777 142.616437,128.379183 C142.616437,125.018589 145.080873,123.338292 147.965382,123.338292 C150.821887,123.338292 153.286323,125.018589 153.286323,128.379183 Z M146.31309,128.379183 C146.31309,129.219332 146.761169,130.05948 147.965382,130.05948 C149.14159,130.05948 149.589669,129.219332 149.589669,128.379183 C149.589669,127.539035 149.14159,126.698886 147.965382,126.698886 C146.761169,126.698886 146.31309,127.539035 146.31309,128.379183 Z" id="15%" fill="#131F3C" fill-rule="nonzero"></path>
            <g id="diskon" transform="translate(79.000000, 139.000000)" fill="#000000">
                <g id="Giảm-giá">
                    <path d="M1.3862578,14.95 C1.3862578,9.108 5.7332578,6.578 10.1492578,6.578 C11.8742578,6.578 13.5992578,6.946 15.0942578,7.613 L15.0942578,10.902 C13.8752578,10.097 12.2422578,9.66 10.6092578,9.66 C7.7342578,9.66 4.9052578,11.178 4.9052578,14.95 C4.9052578,19.228 8.0562578,20.309 10.4252578,20.309 C11.1152578,20.309 11.7132578,20.194 12.1962578,20.01 L12.1962578,14.26 L15.4852578,14.26 L15.4852578,22.241 C13.8752578,22.931 12.0352578,23.322 10.2412578,23.322 C5.7332578,23.322 1.3862578,20.861 1.3862578,14.95 Z M21.2582578,23 L18.0612578,23 L18.0612578,11.96 L21.2582578,11.96 L21.2582578,23 Z M21.5342578,8.303 C21.5342578,9.568 20.6602578,10.12 19.6482578,10.12 C18.6592578,10.12 17.7852578,9.568 17.7852578,8.303 C17.7852578,7.061 18.6592578,6.509 19.6482578,6.509 C20.6602578,6.509 21.5342578,7.061 21.5342578,8.303 Z" id="Gi"></path>
                    <path d="M30.7808867,21.6748047 C29.6728082,22.7454481 28.4861339,23.2807617 27.2208281,23.2807617 C26.1426977,23.2807617 25.2667299,22.9513379 24.5928984,22.2924805 C23.9190669,21.633623 23.5821562,20.7801159 23.5821562,19.7319336 C23.5821562,18.3692966 24.1268285,17.3192582 25.2161894,16.5817871 C26.3055504,15.844316 27.8646982,15.4755859 29.8936797,15.4755859 L30.7808867,15.4755859 L30.7808867,14.3525391 C30.7808867,13.0722592 30.0509135,12.4321289 28.5909453,12.4321289 C27.2956914,12.4321289 25.9854832,12.7989872 24.6602812,13.5327148 L24.6602812,11.2416992 C26.1651716,10.672686 27.6550655,10.3881836 29.1300078,10.3881836 C32.356912,10.3881836 33.9703398,11.6721877 33.9703398,14.2402344 L33.9703398,19.6982422 C33.9703398,20.6640673 34.2810464,21.1469727 34.9024687,21.1469727 C35.014774,21.1469727 35.1607686,21.1319988 35.340457,21.1020508 L35.4190703,22.9663086 C34.7152907,23.1759451 34.0938777,23.2807617 33.5548125,23.2807617 C32.1921755,23.2807617 31.3162077,22.7454481 30.9268828,21.6748047 L30.7808867,21.6748047 Z M30.7808867,19.8891602 L30.7808867,17.3847656 L29.9947539,17.3847656 C27.8459801,17.3847656 26.7716094,18.058587 26.7716094,19.40625 C26.7716094,19.862958 26.9269626,20.2466619 27.2376738,20.557373 C27.548385,20.8680842 27.9320888,21.0234375 28.3887969,21.0234375 C29.1674466,21.0234375 29.9648019,20.6453488 30.7808867,19.8891602 Z M29.8262969,8.75976562 L27.6138945,8.75976562 L27.6138945,8.625 C27.6138945,8.25813619 27.6625594,7.99047936 27.7598906,7.82202148 C27.8572218,7.65356361 28.0968028,7.42708476 28.4786406,7.14257812 L28.7144805,6.96289062 C28.8043247,6.89550748 28.9091413,6.82063843 29.0289336,6.73828125 C29.3209272,6.52864479 29.4669219,6.30778111 29.4669219,6.07568359 C29.4669219,5.64892365 29.0925766,5.43554688 28.343875,5.43554688 C27.8572189,5.43554688 27.2657535,5.53662008 26.5694609,5.73876953 L26.5694609,4.34619141 C27.3181626,4.15152897 28.0219316,4.05419922 28.6807891,4.05419922 C30.7247446,4.05419922 31.746707,4.60823014 31.746707,5.71630859 C31.746707,6.13558152 31.4846654,6.56607852 30.9605742,7.0078125 C30.8332949,7.11263073 30.7397086,7.19124323 30.6798125,7.24365234 L30.4327422,7.46826172 C30.0284433,7.83512553 29.8262969,8.18701003 29.8262969,8.52392578 L29.8262969,8.75976562 Z" id="ả"></path>
                    <path d="M40.736742,23 L37.539742,23 L37.539742,11.96 L40.368742,11.96 L40.368742,13.248 C40.943742,12.558 42.208742,11.638 43.887742,11.638 C45.543742,11.638 46.624742,12.328 47.268742,13.271 C48.188742,12.374 49.430742,11.638 50.948742,11.638 C54.053742,11.638 55.065742,14.053 55.065742,16.008 L55.065742,23 L51.891742,23 L51.891742,16.215 C51.891742,15.065 51.178742,14.398 50.166742,14.398 C49.292742,14.398 48.510742,14.904 47.981742,15.502 C48.004742,15.663 48.004742,15.824 48.004742,16.008 L48.004742,23 L44.830742,23 L44.830742,16.215 C44.830742,15.065 44.117742,14.398 43.105742,14.398 C42.139742,14.398 41.265742,15.042 40.736742,15.732 L40.736742,23 Z M62.149742,17.48 C62.149742,14.467 64.035742,11.638 67.554742,11.638 C69.578742,11.638 70.843742,12.581 71.556742,13.57 L71.556742,11.96 L74.362742,11.96 L74.362742,22.701 C74.362742,26.91 71.257742,28.382 68.014742,28.382 C66.289742,28.382 64.679742,27.991 63.345742,27.347 L63.345742,24.541 C64.587742,25.277 66.082742,25.691 67.600742,25.691 C69.555742,25.691 71.188742,25.024 71.188742,22.839 L71.188742,21.827 C70.475742,22.609 69.302742,23.322 67.554742,23.322 C64.035742,23.322 62.149742,20.493 62.149742,17.48 Z M71.188742,16.169 C70.751742,15.203 69.716742,14.329 68.313742,14.329 C66.496742,14.329 65.415742,15.755 65.415742,17.48 C65.415742,19.205 66.496742,20.631 68.313742,20.631 C69.716742,20.631 70.751742,19.78 71.188742,18.86 L71.188742,16.169 Z M80.296742,23 L77.099742,23 L77.099742,11.96 L80.296742,11.96 L80.296742,23 Z M80.572742,8.303 C80.572742,9.568 79.698742,10.12 78.686742,10.12 C77.697742,10.12 76.823742,9.568 76.823742,8.303 C76.823742,7.061 77.697742,6.509 78.686742,6.509 C79.698742,6.509 80.572742,7.061 80.572742,8.303 Z M92.923742,20.148 C92.923742,20.723 93.291742,20.884 93.705742,20.884 C93.889742,20.884 94.096742,20.861 94.303742,20.792 L94.303742,22.885 C93.797742,23.069 93.153742,23.207 92.532742,23.207 C91.405742,23.207 90.554742,22.793 90.094742,21.965 C89.013742,22.816 87.748742,23.322 86.115742,23.322 C84.045742,23.322 82.251742,22.126 82.251742,19.941 C82.251742,17.135 84.896742,16.261 87.104742,16.261 C87.978742,16.261 88.944742,16.376 89.726742,16.56 L89.726742,16.169 C89.726742,15.065 88.852742,14.306 87.127742,14.306 C85.609742,14.306 84.252742,14.72 83.217742,15.134 L83.217742,12.374 C84.114742,12.075 85.793742,11.638 87.495742,11.638 C90.807742,11.638 92.923742,12.995 92.923742,16.629 L92.923742,20.148 Z M87.840742,18.17 C86.667742,18.17 85.517742,18.561 85.517742,19.688 C85.517742,20.516 86.276742,21.045 87.242742,21.045 C88.139742,21.045 88.990742,20.792 89.726742,20.148 L89.726742,18.423 C89.243742,18.308 88.507742,18.17 87.840742,18.17 Z M88.576742,10.327 L85.494742,10.327 L87.564742,6.923 L91.060742,6.923 L88.576742,10.327 Z" id="m-giá"></path>
                </g>
            </g>
            <g id="16-17-Agustus" transform="translate(12.000000, 0.000000)" fill="#000000">
                <path d="M5.7875,25 L2.0375,25 L2.0375,7.5 L5.5625,7.5 L13.7125,18.925 C13.6625,18.2 13.6375,17.325 13.6375,16.525 L13.6375,7.5 L17.3875,7.5 L17.3875,25 L13.8625,25 L5.7125,13.575 C5.7625,14.3 5.7875,15.175 5.7875,15.975 L5.7875,25 Z M19.7875,19 C19.7875,15.725 21.8375,12.65 25.6625,12.65 C27.8625,12.65 29.2375,13.675 30.0125,14.75 L30.0125,13 L33.0625,13 L33.0625,24.675 C33.0625,29.25 29.6875,30.85 26.1625,30.85 C24.2875,30.85 22.5375,30.425 21.0875,29.725 L21.0875,26.675 C22.4375,27.475 24.0625,27.925 25.7125,27.925 C27.8375,27.925 29.6125,27.2 29.6125,24.825 L29.6125,23.725 C28.8375,24.575 27.5625,25.35 25.6625,25.35 C21.8375,25.35 19.7875,22.275 19.7875,19 Z M29.6125,17.575 C29.1375,16.525 28.0125,15.575 26.4875,15.575 C24.5125,15.575 23.3375,17.125 23.3375,19 C23.3375,20.875 24.5125,22.425 26.4875,22.425 C28.0125,22.425 29.1375,21.5 29.6125,20.5 L29.6125,17.575 Z M46.7375,21.9 C46.7375,22.525 47.1375,22.7 47.5875,22.7 C47.7875,22.7 48.0125,22.675 48.2375,22.6 L48.2375,24.875 C47.6875,25.075 46.9875,25.225 46.3125,25.225 C45.0875,25.225 44.1625,24.775 43.6625,23.875 C42.4875,24.8 41.1125,25.35 39.3375,25.35 C37.0875,25.35 35.1375,24.05 35.1375,21.675 C35.1375,18.625 38.0125,17.675 40.4125,17.675 C41.3625,17.675 42.4125,17.8 43.2625,18 L43.2625,17.575 C43.2625,16.375 42.3125,15.55 40.4375,15.55 C38.7875,15.55 37.3125,16 36.1875,16.45 L36.1875,13.45 C37.1625,13.125 38.9875,12.65 40.8375,12.65 C44.4375,12.65 46.7375,14.125 46.7375,18.075 L46.7375,21.9 Z M41.2125,19.75 C39.9375,19.75 38.6875,20.175 38.6875,21.4 C38.6875,22.3 39.5125,22.875 40.5625,22.875 C41.5375,22.875 42.4625,22.6 43.2625,21.9 L43.2625,20.025 C42.7375,19.9 41.9375,19.75 41.2125,19.75 Z M43.0375,11.225 L39.6875,11.225 L36.9875,7.525 L40.7875,7.525 L43.0375,11.225 Z M54.8875,21.1 L57.8625,13 L61.4625,13 L56.1375,26.45 C54.7875,29.8 52.9125,30.825 50.9625,30.825 C50.3375,30.825 49.7125,30.7 49.0875,30.55 L49.0875,27.675 C49.5625,27.775 50.0375,27.85 50.5125,27.85 C51.7625,27.85 52.7125,27 53.3625,25.225 L53.3875,25.175 L47.7125,13 L51.3875,13 L54.8875,21.1 Z M71.9875,8 L74.7125,8 L74.7125,21.775 L77.5625,21.775 L77.5625,25 L67.8625,25 L67.8625,21.775 L71.0625,21.775 L71.0625,11.75 L67.8625,12.95 L67.8625,9.575 L71.9875,8 Z M82.9125,15.15 C84.4125,14.35 85.7875,14 87.4625,14 C90.5125,14 93.3875,15.85 93.3875,19.5 C93.3875,23.375 90.3625,25.35 86.8875,25.35 C81.4125,25.35 79.1875,22 79.1875,16.5 C79.1875,10.275 82.9375,7.65 87.2625,7.65 C88.8625,7.65 90.4875,8.025 91.9375,8.7 L91.9375,12 C90.7625,11.225 89.2125,10.8 87.7625,10.8 C85.4625,10.8 83.3625,11.775 82.9125,15.15 Z M82.9125,18.175 C83.2625,21.35 84.6375,22.3 86.5875,22.3 C88.2375,22.3 89.6375,21.55 89.6375,19.675 C89.6375,17.725 88.0625,17.125 86.3125,17.125 C85.1875,17.125 83.9875,17.475 82.9125,18.175 Z M95.5375,17.45 L104.8375,17.45 L104.8375,20.375 L95.5375,20.375 L95.5375,17.45 Z M111.0625,8 L113.7875,8 L113.7875,21.775 L116.6375,21.775 L116.6375,25 L106.9375,25 L106.9375,21.775 L110.1375,21.775 L110.1375,11.75 L106.9375,12.95 L106.9375,9.575 L111.0625,8 Z M117.8125,7.975 L130.8875,7.975 L130.8875,10.675 L123.9125,25 L119.8625,25 L126.5875,11.2 L117.8125,11.2 L117.8125,7.975 Z M138.8375,9.5 L142.2875,8.675 L142.2875,13 L146.0875,13 L146.0875,15.925 L142.2875,15.925 L142.2875,20.625 C142.2875,21.875 142.9125,22.425 144.2125,22.425 C145.0125,22.425 145.6875,22.3 146.3875,22.025 L146.3875,24.825 C145.4625,25.15 144.3625,25.35 143.1625,25.35 C140.8375,25.35 138.8375,24.275 138.8375,21.3 L138.8375,15.925 L136.8125,15.925 L136.8125,13 L138.8375,13 L138.8375,9.5 Z M148.3875,7.5 L151.8625,7.5 L151.8625,14.1 C152.7375,13.275 153.9625,12.65 155.4625,12.65 C158.6125,12.65 160.3375,14.8 160.3375,17.575 L160.3375,25 L156.8625,25 L156.8625,18.025 C156.8625,16.4 155.8875,15.65 154.5375,15.65 C153.3125,15.65 152.3625,16.45 151.8625,17.175 L151.8625,25 L148.3875,25 L148.3875,7.5 Z M173.8625,21.9 C173.8625,22.525 174.2625,22.7 174.7125,22.7 C174.9125,22.7 175.1375,22.675 175.3625,22.6 L175.3625,24.875 C174.8125,25.075 174.1125,25.225 173.4375,25.225 C172.2125,25.225 171.2875,24.775 170.7875,23.875 C169.6125,24.8 168.2375,25.35 166.4625,25.35 C164.2125,25.35 162.2625,24.05 162.2625,21.675 C162.2625,18.625 165.1375,17.675 167.5375,17.675 C168.4875,17.675 169.5375,17.8 170.3875,18 L170.3875,17.575 C170.3875,16.375 169.4375,15.55 167.5625,15.55 C165.9125,15.55 164.4375,16 163.3125,16.45 L163.3125,13.45 C164.2875,13.125 166.1125,12.65 167.9625,12.65 C171.5625,12.65 173.8625,14.125 173.8625,18.075 L173.8625,21.9 Z M168.3375,19.75 C167.0625,19.75 165.8125,20.175 165.8125,21.4 C165.8125,22.3 166.6375,22.875 167.6875,22.875 C168.6625,22.875 169.5875,22.6 170.3875,21.9 L170.3875,20.025 C169.8625,19.9 169.0625,19.75 168.3375,19.75 Z M169.1375,11.225 L165.7875,11.225 L168.0375,7.525 L171.8375,7.525 L169.1375,11.225 Z M180.0875,14.525 C181.0125,13.45 182.3625,12.65 184.0875,12.65 C187.2375,12.65 188.9625,14.8 188.9625,17.575 L188.9625,25 L185.4875,25 L185.4875,18.025 C185.4875,16.4 184.5125,15.65 183.1625,15.65 C181.9375,15.65 180.9875,16.45 180.4875,17.175 L180.4875,25 L177.0125,25 L177.0125,13 L180.0875,13 L180.0875,14.525 Z M191.0875,19 C191.0875,15.725 193.1375,12.65 196.9625,12.65 C199.1625,12.65 200.5375,13.675 201.3125,14.75 L201.3125,13 L204.3625,13 L204.3625,24.675 C204.3625,29.25 200.9875,30.85 197.4625,30.85 C195.5875,30.85 193.8375,30.425 192.3875,29.725 L192.3875,26.675 C193.7375,27.475 195.3625,27.925 197.0125,27.925 C199.1375,27.925 200.9125,27.2 200.9125,24.825 L200.9125,23.725 C200.1375,24.575 198.8625,25.35 196.9625,25.35 C193.1375,25.35 191.0875,22.275 191.0875,19 Z M200.9125,17.575 C200.4375,16.525 199.3125,15.575 197.7875,15.575 C195.8125,15.575 194.6375,17.125 194.6375,19 C194.6375,20.875 195.8125,22.425 197.7875,22.425 C199.3125,22.425 200.4375,21.5 200.9125,20.5 L200.9125,17.575 Z M213.0375,12.35 C213.0375,10.075 214.9375,7.65 219.5875,7.65 C223.9125,7.65 226.1625,10.075 226.1875,12.45 C226.2125,14.1 225.4125,15.35 224.0375,16.375 C225.5875,17.15 226.8125,18.35 226.8125,20.4 C226.8125,22.9 224.7625,25.35 219.6375,25.35 C214.5625,25.35 212.4125,22.875 212.4125,20.275 C212.4125,18.575 213.4625,16.95 215.0625,16 C213.8875,15.2 213.0375,14.075 213.0375,12.35 Z M220.0125,18 C219.2625,17.725 218.3625,17.475 217.4875,17.15 C216.5625,17.925 216.1375,18.95 216.1625,19.825 C216.1875,21.275 217.3375,22.4 219.9125,22.4 C221.7125,22.4 223.0875,21.65 223.0875,20.5 C223.0875,19.05 221.6875,18.575 220.0125,18 Z M222.5875,12.725 C222.5875,11.55 221.5375,10.6 219.4375,10.6 C217.6375,10.6 216.6125,11.425 216.6125,12.375 C216.6125,13.875 218.1375,14.35 219.8125,14.9 C220.3125,15.025 220.8375,15.2 221.3875,15.35 C222.1875,14.55 222.6125,13.55 222.5875,12.725 Z" id="Ngày-16-17-tháng-8"></path>
            </g>
        </g>
    </g>
</svg>