<?xml version="1.0" encoding="UTF-8"?>
<svg width="168px" height="33px" viewBox="0 0 168 33" version="1.1" xmlns="http://www.w3.org/2000/svg" xmlns:xlink="http://www.w3.org/1999/xlink">
    <!-- Generator: Sketch 48.2 (47327) - http://www.bohemiancoding.com/sketch -->
    <title>Снимок экрана 2018-05-22 в 12.48.43.png</title>
    <desc>Created with Sketch.</desc>
    <defs></defs>
    <g id="Page-1" stroke="none" stroke-width="1" fill="none" fill-rule="evenodd">
        <g id="Снимок-экрана-2018-05-22-в-12.48.43.png" fill-rule="nonzero">
            <path d="M50.979,16.417 C53.809,15.779 57.269,13.792 58.993,17.438 C60.706,21.06 57.171,25.616 52.615,26.396 C48.133,27.163 44.353,25.864 41.815,21.914 C39.38,18.125 39.579,14.255 42.311,10.774 C44.968,7.389 48.554,5.81 52.894,7.061 C54.366,7.485 56.973,7.834 56.456,9.695 C55.716,12.358 53.793,10.056 52.422,9.718 C48.414,8.73 44.592,10.88 43.481,14.839 C42.462,18.47 44.587,22.568 48.276,23.472 C52.253,24.447 55.428,23.477 56.7,18.956 C51.443,18.205 51.443,18.205 50.981,16.411 C51.64,17.081 52.479,16.933 53.289,16.918 C52.492,16.882 51.656,17.017 50.979,16.417 Z" id="Shape" fill="#787879"></path>
            <path d="M8.179,3.355 C13.178,6.146 18.176,8.938 23.175,11.729 C22.638,14.755 20.712,16.372 17.819,17.017 C12.685,13.673 7.703,10.183 5.618,3.979 C6.255,2.88 7.128,2.751 8.179,3.355 Z" id="Shape" fill="#03F084"></path>
            <path d="M74.898,18.39 C76.909,14.412 79.966,12.464 84.212,14.634 C87.638,16.385 88.562,19.514 86.935,23.11 C85.872,25.461 83.866,26.52 81.336,26.562 C77.832,26.62 75.826,24.697 74.825,21.505 C74.019,20.447 74.063,19.409 74.898,18.39 Z" id="Shape" fill="#767677"></path>
            <path d="M97.971,26.441 C96.81,26.48 95.623,26.696 94.493,26.527 C90.541,25.937 88.672,23.452 89.011,19.573 C89.335,15.87 91.771,13.658 95.327,13.915 C98.534,14.146 102.073,14.962 101.162,19.847 C100.569,23.029 102.08,26.474 100.027,29.502 C98.92,28.765 99.263,27.054 97.971,26.441 Z" id="Shape" fill="#7A7A7B"></path>
            <path d="M147.971,17.144 C147.003,17.371 145.9,17.726 145.324,16.628 C144.836,15.698 145.729,15.171 146.388,14.699 C149.688,12.332 154.521,14.304 155.203,18.33 C155.367,19.299 155.433,20.336 155.271,21.296 C154.994,22.938 156.001,26.243 154.174,25.881 C151.242,25.3 148.405,28 145.704,25.703 C142.921,23.336 143.623,20.974 147.959,18.227 C148.476,17.872 149.174,17.519 147.971,17.144 Z" id="Shape" fill="#7C7C7D"></path>
            <path d="M117.722,23.823 C114.863,27 111.173,27.571 108.958,24.82 C106.632,21.931 106.424,18.586 109.106,15.761 C111.686,13.044 114.705,12.929 117.44,15.659 C118.848,17.064 119.884,18.742 116.832,19.628 C116.516,19.72 116.181,19.843 115.928,20.044 C114.397,21.26 110.579,20.665 111.473,23.479 C112.176,25.694 114.948,23.039 116.813,23.46 C117.127,23.53 117.421,23.697 117.722,23.823 Z" id="Shape" fill="#7B7B7C"></path>
            <path d="M72.998,23.429 C70.861,26.165 68.125,27.391 64.766,26.19 C62.455,25.364 61.008,23.584 60.833,21.006 C60.623,17.913 61.682,15.505 64.71,14.307 C68.417,12.841 71.045,14.425 73.126,17.422 C74.221,19.449 73.943,21.447 72.998,23.429 Z" id="Shape" fill="#7C7C7D"></path>
            <path d="M4.012,32.312 C1.423,33.832 0.965,32.557 0.998,30.178 C1.112,21.93 1.124,13.681 1.175,5.432 C1.704,5.161 2.142,5.268 2.489,5.751 C3.297,7.134 3.217,8.673 3.275,10.187 C3.304,10.909 3.288,11.634 3.273,12.356 C2.03,18.555 5.931,21.999 10.186,25.256 C9.597,28.891 6.329,30.186 4.012,32.312 Z" id="Shape" fill="#0BDBF5"></path>
            <path d="M127.854,25.421 C125.495,25.692 125.307,25.695 125.28,24.221 C125.191,19.404 125.253,14.584 125.255,9.765 C125.255,8.475 125.596,7.317 127.137,7.455 C129.678,7.683 132.424,6.452 134.731,8.448 C133.143,9.382 131.378,8.703 129.714,8.948 C129.057,9.069 130,10.022 129.68,9.437 C129.57,9.237 129.683,9.118 130.019,9.09 C131.761,8.945 133.513,8.62 135.209,9.361 C139.251,11.236 138.667,13.743 136.185,16.509 C135.351,16.94 134.875,16.462 134.458,15.832 C133.798,14.29 134.329,11.816 131.611,11.843 C129.181,11.867 129.247,13.691 129.345,15.416 C129.426,15.807 129.541,16.192 129.731,16.543 C130.973,17.658 133.022,16.946 134.08,18.458 C130.971,19.349 126.825,19.167 127.928,24.411 C125.918,24.486 126.572,22.914 126.552,21.968 C126.472,18.265 126.489,14.558 126.535,11.615 C126.392,10.189 125.425,11.108 126.002,10.775 C126.181,10.672 126.282,10.798 126.323,11.152 C126.697,14.423 126.376,17.704 126.485,20.979 C126.54,22.582 126.083,24.346 127.854,25.421 Z" id="Shape" fill="#767677"></path>
            <path d="M17.962,16.745 C19.7,15.072 21.437,13.4 23.175,11.728 C25.476,12.432 27.183,14.046 28.981,15.52 C30.661,18.092 27.568,18.708 26.999,20.358 C25.696,21.082 24.394,21.806 23.091,22.531 C20.699,21.829 19.348,19.928 17.947,18.079 C17.749,17.633 17.755,17.188 17.962,16.745 Z" id="Shape" fill="#FBC842"></path>
            <path d="M156.693,14.4 C159.197,14.801 159.63,16.974 160.069,18.968 C160.318,20.097 160.809,20.889 161.862,20.976 C163.063,21.075 162.603,19.703 163.07,19.196 C164.396,17.757 164.064,13.694 166.483,14.877 C168.593,15.909 165.833,18.497 165.109,20.379 C163.869,23.604 162.736,26.87 161.484,30.091 C161.205,30.809 160.777,31.807 159.743,31.393 C159.319,31.223 158.784,30.175 158.947,29.865 C161.676,24.65 157.78,20.752 156.347,16.379 C156.136,15.732 155.866,15.145 156.693,14.4 Z" id="Shape" fill="#787879"></path>
            <path d="M4.012,32.312 C4.699,28.961 8.162,27.95 9.821,25.419 C9.465,23.754 10.649,22.829 11.561,21.766 C12.645,20.775 13.712,19.742 15.37,19.954 C17.28,21.209 19.218,22.454 17.992,25.259 C13.32,27.586 9.781,32.159 4.012,32.312 Z" id="Shape" fill="#F3294D"></path>
            <path d="M17.962,16.745 C17.961,16.949 17.964,17.153 17.971,17.357 C17.659,18.433 16.903,18.85 15.832,18.803 C9.955,15.659 5.775,10.751 1.987,5.438 C1.716,5.436 1.446,5.433 1.175,5.431 C1.145,4.036 0.366,2.529 1.79,1.353 C4.139,1.22 5.24,2.635 5.865,4.64 C9.897,8.675 13.93,12.71 17.962,16.745 Z" id="Shape" fill="#02C8F4"></path>
            <path d="M105.933,16.963 C105.931,19.275 105.951,21.588 105.922,23.9 C105.91,24.856 106.04,26.031 104.672,26.167 C103.269,26.307 103.137,25.203 103.132,24.19 C103.111,19.235 103.115,14.281 103.133,9.326 C103.136,8.475 103.343,7.632 104.394,7.554 C105.82,7.449 105.914,8.522 105.925,9.531 C105.954,12.008 105.935,14.486 105.933,16.963 Z" id="Shape" fill="#707071"></path>
            <path d="M142.751,16.978 C142.755,19.285 142.77,21.592 142.749,23.899 C142.74,24.884 142.757,26.024 141.449,26.167 C140.007,26.324 139.973,25.14 139.968,24.171 C139.941,19.228 139.948,14.284 139.976,9.341 C139.981,8.531 140.077,7.613 141.186,7.571 C142.549,7.519 142.73,8.532 142.74,9.564 C142.763,12.034 142.747,14.506 142.751,16.978 Z" id="Shape" fill="#6F6F70"></path>
            <path d="M15.977,18.316 C16.641,17.996 17.306,17.677 17.97,17.357 C19.677,19.081 21.384,20.806 23.091,22.531 C21.594,23.818 20.018,24.959 17.993,25.259 C17.644,23.194 16.287,21.775 14.877,20.39 C14.579,20.031 14.462,19.616 14.499,19.154 C14.754,18.456 15.147,18 15.977,18.316 Z" id="Shape" fill="#FA344B"></path>
            <path d="M97.971,26.441 C101.752,25.381 99.262,28.535 100.027,29.501 C99.784,30.557 99.112,31.19 98.086,31.474 C96.047,32.15 94.012,32.197 91.981,31.439 C90.846,31.001 89.573,30.255 90.135,29.014 C90.727,27.708 91.684,28.835 92.48,29.336 C95.941,31.516 97.54,30.063 97.971,26.441 Z" id="Shape" fill="#6F6F70"></path>
            <path d="M127.854,25.421 C126.404,25.204 126.013,24.239 126.019,22.923 C126.037,18.463 126.026,14.003 126.3,9.541 C128.062,14.393 125.627,19.64 127.929,24.412 C127.903,24.748 127.879,25.084 127.854,25.421 Z" id="Shape" fill="#727273"></path>
            <path d="M26.999,20.358 C27.66,18.745 28.32,17.132 28.981,15.52 C31.898,17.612 31.699,18.098 26.999,20.358 Z" id="Shape" fill="#FDD64E"></path>
            <path d="M134.08,18.459 C132.068,18.037 129.79,19.217 128.002,17.449 C129.326,15.908 131.441,16.499 132.999,15.583 C133.627,15.283 134.266,15.052 134.966,15.329 C135.372,15.723 135.778,16.116 136.185,16.51 C135.484,17.159 134.782,17.809 134.08,18.459 Z" id="Shape" fill="#6E6E6F"></path>
            <path d="M5.865,4.641 C4.507,3.545 3.148,2.45 1.79,1.354 C4.771,-0.693 6.135,2.417 8.18,3.356 C7.215,3.437 6.338,3.674 5.865,4.641 Z" id="Shape" fill="#06E082"></path>
            <path d="M72.998,23.429 C73.041,21.427 73.083,19.425 73.126,17.423 C73.717,17.745 74.307,18.067 74.898,18.39 C74.874,19.428 74.85,20.467 74.826,21.505 C74.216,22.146 73.607,22.788 72.998,23.429 Z" id="Shape" fill="#E8E9E9"></path>
            <path d="M147.971,17.144 C149.231,15.958 150.429,16.004 151.666,17.339 C150.739,19.137 149.252,18.292 147.959,18.226 C147.963,17.866 147.967,17.505 147.971,17.144 Z" id="Shape" fill="#E9E9E9"></path>
            <path d="M135.209,9.361 C133.151,9.361 131.092,9.361 128.02,9.361 C130.866,7.96 132.84,8.657 134.731,8.448 C134.89,8.752 135.05,9.057 135.209,9.361 Z" id="Shape" fill="#6E6E6F"></path>
            <path d="M91.981,31.44 C94.016,31.452 96.051,31.464 98.086,31.475 C96.042,33.071 94.008,32.811 91.981,31.44 Z" id="Shape" fill="#848585"></path>
            <path d="M50.979,16.417 C52.267,16.483 53.556,16.549 55.239,16.636 C53.453,17.843 52.178,17.63 50.983,16.413 C50.983,16.413 50.979,16.417 50.979,16.417 Z" id="Shape" fill="#666767"></path>
            <path d="M77.717,20.196 C77.859,17.887 78.937,16.359 81.382,16.455 C83.513,16.539 84.732,18.02 84.819,20.021 C84.917,22.282 83.58,23.991 81.326,24.078 C79.009,24.166 77.831,22.521 77.717,20.196 Z" id="Shape" fill="#F6F6F6"></path>
            <path d="M98.911,21.294 C97.677,22.77 96.702,24.792 94.209,23.876 C92.899,23.395 92.063,22.407 91.88,20.949 C91.655,19.159 92.082,17.598 93.773,16.77 C96.075,15.643 97.438,17.236 98.765,18.754 C99.913,19.538 99.636,20.403 98.911,21.294 Z" id="Shape" fill="#F6F6F6"></path>
            <path d="M98.911,21.294 C98.862,20.447 98.814,19.601 98.764,18.755 C99.405,18.005 100.049,18.181 99.896,19.077 C99.773,19.804 101.186,21.485 98.911,21.294 Z" id="Shape" fill="#707071"></path>
            <path d="M152.298,22.096 C151.653,23.644 150.401,24.2 148.779,24.24 C147.489,24.271 147.067,23.638 147.075,22.439 C147.091,20.027 148.918,20.576 150.272,20.508 C151.267,20.457 152.291,20.665 152.298,22.096 Z" id="Shape" fill="#E7E7E7"></path>
            <path d="M110.174,19.36 C111.292,16.801 112.598,15.857 115.586,17.15 C113.789,18.619 112.437,19.455 110.174,19.36 Z" id="Shape" fill="#F0F0F1"></path>
            <path d="M67.297,16.389 C69.611,16.867 70.963,18.275 70.713,20.551 C70.474,22.729 69.05,24.312 66.693,24.046 C64.628,23.812 63.532,22.206 63.595,20.163 C63.667,17.877 64.937,16.518 67.297,16.389 Z" id="Shape" fill="#F5F5F5"></path>
            <path d="M15.977,18.316 C15.608,18.687 15.239,19.059 14.871,19.43 C13.101,21.12 11.401,20.953 9.74,19.256 C6.999,16.457 3.82,14.043 2.006,10.432 C2,8.767 1.993,7.103 1.987,5.438 C6.65,9.731 11.314,14.023 15.977,18.316 Z" id="Shape" fill="#04CEF9"></path>
            <path d="M12.052,22.546 C11.3089976,23.504 10.5649951,24.461 9.8219927,25.419 C4.24997445,23.304 1.99596707,19.559 2.00593399,12.431 C6.76098267,14.405 9.51999171,18.363 12.052,22.546 Z" id="Shape" fill="#06D4F6"></path>
            <path d="M12.052,22.546 C8.113,19.761 6.267,14.896 2.005,12.431 C2.005,11.765 2.005,11.099 2.005,10.433 C4.736,12.998 7.598,15.441 10.146,18.176 C11.599,19.735 13.006,20.097 14.87,19.431 C15.008,19.75 15.01,20.07 14.875,20.391 C13.935,21.109 12.993,21.827 12.052,22.546 Z" id="Shape" fill="#04D1F6"></path>
            <path d="M134.967,15.328 C134.626,15.631 134.285,15.933 133.943,16.236 C131.991,17.334 130.033,17.286 128.07,16.264 C128.804,14.243 126.267,11.111 130.007,10.141 C133.697,9.184 135.257,10.889 134.967,15.328 Z" id="Shape" fill="#ECECEC"></path>
            <path d="M128.07,16.264 C130.028,16.255 131.985,16.246 133.943,16.236 C132.327,18.425 129.981,17.036 128.002,17.447 C128.025,17.054 128.047,16.659 128.07,16.264 Z" id="Shape" fill="#7C7D7D"></path>
        </g>
    </g>
</svg>