<?xml version="1.0" encoding="UTF-8"?>
<svg width="219px" height="42px" viewBox="0 0 219 42" version="1.1" xmlns="http://www.w3.org/2000/svg" xmlns:xlink="http://www.w3.org/1999/xlink">
    <!-- Generator: Sketch 48.2 (47327) - http://www.bohemiancoding.com/sketch -->
    <title>WBCSummit</title>
    <desc>Created with Sketch.</desc>
    <defs></defs>
    <g id="Page-1" stroke="none" stroke-width="1" fill="none" fill-rule="evenodd">
        <g id="WBCSummit" fill-rule="nonzero">
            <path d="M218.478,30.199 C178.393,30.199 138.532,30.199 98.496,30.199 C98.496,20.395 98.496,10.673 98.496,0.804 C138.48,0.804 178.448,0.804 218.478,0.804 C218.478,10.616 218.478,20.31 218.478,30.199 Z M140.411,5.075 C140.411,12.029 140.411,19.002 140.411,25.944 C141.446,25.944 142.329,25.944 143.441,25.944 C143.441,21.155 143.441,16.5 143.441,11.321 C145.219,13.97 146.66,16.153 148.141,18.311 C149.222,19.887 150.233,19.893 151.307,18.331 C152.807,16.147 154.268,13.937 155.746,11.738 C155.871,11.774 155.995,11.809 156.12,11.845 C156.12,16.528 156.12,21.21 156.12,25.968 C157.211,25.968 158.088,25.968 158.982,25.968 C158.982,18.887 158.982,11.922 158.982,5.044 C157.294,4.497 156.421,5.21 155.618,6.467 C153.786,9.335 151.819,12.117 149.755,15.156 C147.709,12.156 145.695,9.344 143.847,6.428 C142.981,5.059 142.026,4.473 140.411,5.075 Z M166.303,26.017 C166.303,21.148 166.303,16.489 166.303,11.286 C168.084,13.936 169.527,16.114 171.003,18.27 C172.135,19.922 173.116,19.897 174.276,18.22 C174.798,17.466 175.298,16.696 175.815,15.939 C176.767,14.546 177.725,13.157 178.681,11.766 C178.845,11.832 179.009,11.899 179.173,11.965 C179.173,16.642 179.173,21.318 179.173,25.955 C180.217,25.955 181.037,25.955 181.912,25.955 C181.912,18.906 181.912,11.986 181.912,5.069 C180.356,4.546 179.426,5.019 178.591,6.341 C176.74,9.272 174.721,12.097 172.644,15.151 C170.592,12.144 168.572,9.328 166.722,6.405 C165.849,5.026 164.876,4.496 163.281,5.079 C163.281,12.036 163.281,19.003 163.281,26.017 C164.275,26.017 165.114,26.017 166.303,26.017 Z M117.028,10.113 C116.909,8.077 115.82,6.752 114.245,5.807 C112.099,4.519 109.765,4.403 107.403,5.057 C104.158,5.956 102.3,8.313 102.407,11.267 C102.515,14.251 104.281,16.016 107.877,16.672 C109.486,16.966 111.141,17.063 112.715,17.476 C114.647,17.983 115.23,19.71 114.173,21.306 C112.548,23.758 107.33,23.973 105.938,21.402 C104.985,19.642 103.928,19.756 102.408,20.096 C102.215,22.138 103.24,23.528 104.721,24.594 C107.176,26.361 109.916,26.671 112.775,25.79 C116.014,24.791 117.885,22.391 117.753,19.526 C117.624,16.732 115.878,15.008 112.316,14.263 C110.716,13.929 109.056,13.843 107.485,13.416 C105.42,12.855 104.817,10.612 106.196,9.079 C107.825,7.268 111.846,7.071 113.307,9.017 C114.349,10.405 115.403,10.518 117.028,10.113 Z M136.535,5.033 C135.404,5.033 134.52,5.033 133.479,5.033 C133.479,9.872 133.504,14.579 133.469,19.286 C133.451,21.699 131.632,23.201 128.822,23.239 C125.913,23.279 124.063,21.762 124.046,19.247 C124.018,15.185 124.038,11.123 124.038,7.06 C124.038,6.373 124.038,5.685 124.038,5.046 C122.825,5.046 121.944,5.046 120.928,5.046 C120.928,9.77 120.921,14.348 120.93,18.926 C120.939,23.058 123.227,25.611 127.395,26.166 C132.026,26.783 136.259,24.325 136.469,20.453 C136.744,15.372 136.535,10.265 136.535,5.033 Z M189.114,7.928 C189.114,13.073 189.114,17.956 189.114,22.907 C187.837,22.974 186.681,23.034 185.442,23.099 C185.442,24.116 185.442,24.998 185.442,25.956 C189.059,25.956 192.561,25.956 196.076,25.956 C196.076,24.944 196.076,24.06 196.076,22.985 C194.8,22.985 193.649,22.985 192.392,22.985 C192.392,17.914 192.392,13.036 192.392,8.072 C193.703,7.988 194.905,7.911 196.113,7.834 C196.113,6.807 196.113,5.972 196.113,5.023 C192.519,5.023 189.019,5.023 185.47,5.023 C185.47,6.027 185.47,6.905 185.47,7.928 C186.705,7.928 187.801,7.928 189.114,7.928 Z M208.246,7.92 C210.541,7.92 212.536,7.92 214.508,7.92 C214.508,6.814 214.508,5.929 214.508,5.001 C209.242,5.001 204.101,5.001 198.92,5.001 C198.92,6.017 198.92,6.903 198.92,8.006 C201.021,8.006 203.019,8.006 205.223,8.006 C205.223,14.148 205.223,20.077 205.223,26.022 C206.324,26.022 207.207,26.022 208.246,26.022 C208.246,20.024 208.246,14.146 208.246,7.92 Z" id="Shape" fill="#000000"></path>
            <path d="M12.451,17.208 C13.859,12.21 15.184,7.822 16.305,3.381 C16.782,1.492 17.823,1.152 19.563,1.139 C21.329,1.127 22.328,1.539 22.805,3.398 C23.942,7.828 25.27,12.209 26.685,17.185 C27.71,13.715 28.581,10.785 29.44,7.851 C29.919,6.216 30.401,4.582 30.839,2.936 C31.148,1.772 31.772,1.166 33.058,1.184 C39.44,1.271 38.528,0.528 36.92,6.041 C34.81,13.273 32.521,20.453 30.418,27.687 C29.954,29.282 29.134,29.789 27.595,29.635 C25.999,29.475 24.218,30.185 23.55,27.68 C22.443,23.528 21.008,19.463 19.566,14.903 C18.137,19.443 16.706,23.459 15.637,27.568 C14.928,30.294 12.973,29.444 11.275,29.636 C9.665,29.818 8.982,29.117 8.532,27.587 C6.164,19.543 3.675,11.534 1.242,3.509 C0.594,1.371 0.714,1.181 2.862,1.206 C8.537,1.273 7.492,0.385 9.135,5.901 C10.199,9.474 11.235,13.055 12.451,17.208 Z" id="Shape" fill="#000000"></path>
            <path d="M62.62,14.883 C65.95,16.962 66.916,19.848 66.164,23.317 C65.404,26.821 62.891,28.713 59.558,29.191 C56.532,29.625 53.427,29.581 50.356,29.597 C47.761,29.611 45.165,29.408 42.569,29.301 C42.437,26.652 42.217,24.005 42.191,21.355 C42.133,15.458 42.235,9.559 42.136,3.663 C42.106,1.831 42.567,1.082 44.533,1.156 C48.197,1.295 51.871,1.164 55.54,1.216 C56.775,1.234 58.033,1.351 59.235,1.623 C62.25,2.306 64.567,3.951 65.316,7.087 C66.037,10.106 65.408,12.827 62.62,14.883 Z M49.027,23.43 C51.664,23.43 54.082,23.478 56.497,23.415 C58.512,23.363 59.462,22.476 59.512,20.803 C59.562,19.134 58.656,18.282 56.613,18.077 C53.662,17.781 53.75,17.778 53.64,14.732 C53.574,12.908 54.078,11.964 56.046,12.221 C56.355,12.261 56.69,12.14 57.008,12.069 C58.317,11.779 59.091,11.027 59.082,9.619 C59.073,8.143 58.141,7.428 56.85,7.376 C54.265,7.273 51.672,7.345 49.026,7.345 C49.027,12.747 49.027,17.957 49.027,23.43 Z" id="Shape" fill="#000000"></path>
            <path d="M77.713,15.521 C77.713,17.095 77.623,18.676 77.734,20.242 C77.896,22.513 79.377,23.9 81.687,24.145 C84.678,24.461 86.261,23.5 87.117,21.141 C87.332,20.548 88.153,19.986 88.809,19.791 C89.593,19.558 90.498,19.73 91.351,19.735 C93.653,19.749 94.1,20.298 93.621,22.594 C93.076,25.202 91.515,27.102 89.256,28.384 C84.648,31.001 79.975,30.935 75.412,28.302 C72.464,26.601 70.956,23.934 70.925,20.501 C70.899,17.549 70.917,14.597 70.919,11.646 C70.922,5.425 73.82,1.91 79.999,0.774 C83.843,0.067 87.447,0.722 90.627,3.099 C91.247,3.562 91.959,4.131 92.214,4.807 C92.787,6.332 93.1,7.954 93.519,9.536 C91.665,9.658 89.812,9.827 87.957,9.855 C87.668,9.859 87.334,9.252 87.082,8.886 C85.653,6.815 83.264,6.042 80.675,6.836 C78.649,7.457 77.718,8.932 77.694,11.584 C77.682,12.896 77.692,14.208 77.692,15.52 C77.7,15.521 77.706,15.521 77.713,15.521 Z" id="Shape" fill="#000000"></path>
            <path d="M9.739,35.584 C11.913,35.452 11.258,37.366 12.104,38.171 C12.488,37.262 12.863,36.378 13.483,34.91 C14.131,36.287 14.535,37.144 14.935,37.993 C15.483,37.119 16.032,36.242 16.582,35.366 C16.812,35.489 17.043,35.613 17.273,35.736 C16.819,37.267 16.394,38.809 15.888,40.323 C15.764,40.693 15.369,40.973 15.099,41.294 C14.805,41.002 14.43,40.755 14.236,40.407 C13.986,39.959 13.881,39.431 13.709,38.924 C13.587,38.98 13.45,38.998 13.404,39.072 C12.951,39.811 12.513,40.56 12.071,41.306 C11.617,40.515 11.071,39.76 10.734,38.922 C10.329,37.915 10.103,36.838 9.739,35.584 Z" id="Shape" fill="#000000"></path>
            <path d="M45.475,41.777 C45.475,39.298 45.475,37.556 45.475,35.289 C47.032,35.622 48.913,35.483 49.663,36.338 C50.402,37.18 50.587,39.504 49.938,40.309 C49.177,41.253 47.253,41.259 45.475,41.777 Z M49.195,37.015 C48.22,36.894 47.635,36.821 46.925,36.733 C46.925,37.884 46.925,38.841 46.925,40.023 C47.641,39.95 48.254,39.888 49.222,39.79 C48.465,39.119 48.069,38.769 47.588,38.343 C48.09,37.928 48.464,37.618 49.195,37.015 Z" id="Shape" fill="#000000"></path>
            <path d="M196.177,35.316 C196.995,36.255 197.814,37.193 198.609,38.106 C198.854,37.246 199.106,36.363 199.359,35.479 C199.573,35.542 199.786,35.605 200,35.668 C200,37.516 200,39.365 200,41.213 C199.829,41.321 199.657,41.429 199.486,41.537 C198.711,40.628 197.935,39.718 196.985,38.604 C196.945,39.284 196.972,39.878 196.854,40.443 C196.789,40.755 196.483,41.017 196.285,41.302 C196.019,41.01 195.538,40.729 195.523,40.424 C195.445,38.869 195.487,37.308 195.487,35.749 C195.717,35.604 195.947,35.46 196.177,35.316 Z" id="Shape" fill="#000000"></path>
            <path d="M117.081,38.15 C117.354,37.181 117.596,36.32 117.839,35.459 C118.057,35.522 118.274,35.584 118.492,35.647 C118.492,37.501 118.492,39.354 118.492,41.208 C118.326,41.318 118.161,41.427 117.995,41.537 C117.179,40.602 116.363,39.666 115.542,38.725 C115.488,38.841 115.429,38.946 115.389,39.057 C115.118,39.8 114.851,40.545 114.583,41.29 C114.372,40.484 114.061,39.689 113.976,38.871 C113.87,37.842 113.95,36.793 113.95,35.728 C116.193,35.143 115.888,37.755 117.081,38.15 Z" id="Shape" fill="#000000"></path>
            <path d="M98.538,35.687 C100.77,35.253 100.506,37.608 101.719,38.177 C101.803,38.049 101.889,37.964 101.922,37.862 C102.172,37.1 102.411,36.335 102.654,35.57 C102.851,36.312 103.154,37.044 103.221,37.797 C103.318,38.893 103.246,40.005 103.246,41.172 C101.139,41.538 101.352,39.398 100.102,38.701 C100.054,39.269 100.084,39.819 99.94,40.319 C99.836,40.678 99.5,40.97 99.267,41.293 C99.024,40.984 98.586,40.685 98.571,40.365 C98.498,38.812 98.538,37.254 98.538,35.687 Z" id="Shape" fill="#000000"></path>
            <path d="M27.679,37.028 C27.407,36.965 26.833,36.833 26.031,36.647 C26.031,37.977 26.092,39.081 25.998,40.172 C25.965,40.56 25.554,40.915 25.316,41.285 C25.1,40.949 24.713,40.62 24.697,40.275 C24.628,38.787 24.667,37.293 24.667,35.578 C25.785,35.578 26.748,35.482 27.683,35.601 C29.034,35.773 29.601,36.94 29.199,38.216 C28.925,39.088 28.842,40.021 28.605,41.297 C28.201,40.938 27.28,40.498 27.085,39.843 C26.882,39.16 27.381,38.268 27.679,37.028 Z" id="Shape" fill="#000000"></path>
            <path d="M186.323,37.097 C186.108,37.025 185.569,36.845 184.671,36.544 C184.671,37.971 184.719,39.117 184.643,40.254 C184.619,40.61 184.262,40.945 184.058,41.289 C183.795,40.93 183.327,40.583 183.305,40.21 C183.217,38.727 183.269,37.235 183.269,35.169 C184.965,35.633 186.457,35.783 187.599,36.493 C187.993,36.738 187.52,38.379 187.01,39.392 C187.304,39.943 187.598,40.494 187.892,41.045 C187.739,41.199 187.585,41.354 187.432,41.508 C186.821,40.947 185.885,40.479 185.69,39.799 C185.492,39.112 186.027,38.213 186.323,37.097 Z" id="Shape" fill="#000000"></path>
            <path d="M181.139,41.504 C180.53,40.941 179.6,40.47 179.404,39.788 C179.209,39.108 179.75,38.217 180.093,36.962 C180.346,37.055 180.1,36.909 179.841,36.882 C179.411,36.837 178.974,36.87 178.383,36.87 C178.383,38.05 178.432,39.155 178.355,40.25 C178.33,40.607 177.98,40.942 177.778,41.287 C177.52,40.99 177.055,40.704 177.04,40.395 C176.964,38.846 177.005,37.291 177.005,35.161 C178.697,35.631 180.187,35.789 181.328,36.504 C181.721,36.75 181.241,38.388 180.741,39.386 C181.026,39.942 181.312,40.497 181.597,41.053 C181.446,41.204 181.293,41.354 181.139,41.504 Z" id="Shape" fill="#000000"></path>
            <path d="M36.575,41.694 C36.575,39.284 36.575,37.491 36.575,35.056 C38.185,35.663 39.89,35.822 40.661,36.753 C41.26,37.476 41.164,39.57 40.521,40.316 C39.781,41.173 38.099,41.218 36.575,41.694 Z M37.983,36.849 C37.983,37.974 37.983,38.981 37.983,39.99 C39.384,40.212 39.723,39.562 39.703,38.427 C39.684,37.337 39.429,36.598 37.983,36.849 Z" id="Shape" fill="#000000"></path>
            <path d="M194.027,41.1 C192.623,41.196 191.219,41.293 189.659,41.4 C189.659,39.323 189.659,37.533 189.659,35.595 C191.127,35.78 192.642,34.945 194.269,36.533 C192.851,36.709 191.942,36.822 191.033,36.934 C191.012,37.1 190.992,37.266 190.971,37.432 C191.816,37.616 192.66,37.799 193.505,37.983 C193.542,38.163 193.579,38.343 193.617,38.524 C192.76,38.766 191.904,39.008 191.047,39.25 C191.007,39.394 190.967,39.539 190.928,39.683 C191.956,39.921 192.985,40.16 194.013,40.398 C194.017,40.631 194.022,40.865 194.027,41.1 Z" id="Shape" fill="#000000"></path>
            <path d="M147.311,35.628 C148.501,35.628 149.497,35.395 150.283,35.701 C150.924,35.951 151.677,36.823 151.715,37.459 C151.752,38.091 151.101,39.036 150.492,39.364 C149.706,39.788 148.496,39.507 148.545,40.969 C148.548,41.054 147.963,41.295 147.748,41.212 C147.538,41.131 147.336,40.731 147.33,40.466 C147.291,38.914 147.311,37.36 147.311,35.628 Z" id="Shape" fill="#000000"></path>
            <path d="M73.659,41.519 C72.845,40.76 72.032,40.001 71.327,39.344 C70.907,39.98 70.476,40.634 70.045,41.287 C69.849,40.474 69.618,39.667 69.471,38.845 C69.392,38.402 69.371,37.913 69.477,37.482 C69.638,36.825 69.932,36.201 70.17,35.563 C70.507,36.084 70.845,36.606 71.149,37.075 C71.973,36.531 72.918,35.907 73.863,35.283 C73.99,35.443 74.117,35.603 74.243,35.764 C73.692,36.444 73.141,37.123 72.492,37.923 C73.032,38.916 73.603,39.964 74.173,41.012 C74.001,41.182 73.83,41.351 73.659,41.519 Z" id="Shape" fill="#000000"></path>
            <path d="M82.279,35.424 C82.646,36.079 83.014,36.734 83.582,37.747 C84.266,37.986 85.039,37.976 85.026,36.436 C85.024,36.151 85.503,35.862 85.759,35.575 C85.945,35.864 86.278,36.146 86.292,36.442 C86.351,37.751 86.351,39.065 86.294,40.374 C86.281,40.683 85.963,40.978 85.786,41.279 C85.521,40.998 85.019,40.707 85.03,40.438 C85.088,39.069 84.392,38.904 83.162,39.2 C83.12,39.611 83.146,40.068 83.009,40.47 C82.904,40.779 82.594,41.018 82.375,41.288 C82.122,40.99 81.664,40.701 81.65,40.391 C81.575,38.831 81.616,37.265 81.616,35.702 C81.836,35.61 82.057,35.517 82.279,35.424 Z" id="Shape" fill="#000000"></path>
            <path d="M61.923,38.662 C62.099,40.219 61.493,41.331 59.642,41.406 C57.962,41.474 57.211,40.526 57.211,38.433 C57.211,36.333 57.947,35.423 59.628,35.447 C61.299,35.471 61.934,36.32 61.923,38.662 Z M58.185,38.38 C58.763,39.125 59.176,39.657 59.588,40.188 C59.923,39.589 60.524,38.986 60.517,38.391 C60.51,37.823 59.869,37.263 59.507,36.7 C59.125,37.186 58.742,37.673 58.185,38.38 Z" id="Shape" fill="#000000"></path>
            <path d="M23.114,38.275 C23.115,40.534 22.355,41.483 20.664,41.409 C18.736,41.325 18.365,40.086 18.415,38.434 C18.481,36.249 19.119,35.379 20.843,35.454 C22.758,35.538 23.237,36.755 23.114,38.275 Z M22.188,38.531 C21.599,37.761 21.188,37.225 20.778,36.689 C20.441,37.277 19.837,37.866 19.842,38.451 C19.846,39.031 20.463,39.606 20.812,40.183 C21.21,39.704 21.609,39.226 22.188,38.531 Z" id="Shape" fill="#000000"></path>
            <path d="M158.563,38.321 C158.578,36.281 159.265,35.439 160.909,35.445 C162.595,35.451 163.297,36.366 163.275,38.529 C163.254,40.539 162.53,41.417 160.895,41.415 C159.22,41.413 158.547,40.52 158.563,38.321 Z M162.336,38.276 C161.753,37.613 161.346,37.151 160.94,36.689 C160.602,37.271 159.997,37.855 160,38.436 C160.004,39.021 160.611,39.602 160.954,40.185 C161.355,39.632 161.755,39.079 162.336,38.276 Z" id="Shape" fill="#000000"></path>
            <path d="M135.328,35.014 C137.127,35.628 138.573,35.888 139.689,36.638 C140.046,36.878 139.528,38.418 138.994,39.365 C139.296,39.914 139.598,40.463 139.9,41.012 C139.744,41.169 139.589,41.327 139.433,41.484 C138.83,40.937 137.904,40.483 137.712,39.817 C137.514,39.133 138.032,38.242 138.321,37.112 C138.079,37.04 137.498,36.867 136.673,36.621 C136.673,38.074 136.724,39.242 136.64,40.4 C136.617,40.715 136.187,41.001 135.943,41.3 C135.738,41.021 135.367,40.748 135.356,40.461 C135.297,38.909 135.328,37.353 135.328,35.014 Z" id="Shape" fill="#000000"></path>
            <path d="M93.178,41.514 C91.904,40.997 91.09,40.414 90.273,40.409 C89.51,40.404 88.744,41.014 87.39,41.615 C88.19,39.455 88.712,37.744 89.461,36.139 C89.899,35.2 90.77,35.208 91.203,36.209 C91.889,37.795 92.42,39.449 93.178,41.514 Z" id="Shape" fill="#000000"></path>
            <path d="M107.408,40.831 C107.97,39.311 108.466,37.762 109.116,36.28 C109.601,35.173 110.46,35.168 110.943,36.227 C111.656,37.788 112.144,39.452 112.593,41.393 C110.868,39.871 109.206,40.122 107.523,41.527 C107.484,41.294 107.446,41.063 107.408,40.831 Z" id="Shape" fill="#000000"></path>
            <path d="M120.493,41.827 C120.493,39.299 120.493,37.563 120.493,35.227 C121.97,35.649 123.711,35.638 124.38,36.48 C125.035,37.305 125.104,39.35 124.502,40.21 C123.876,41.107 122.139,41.225 120.493,41.827 Z M121.89,36.856 C121.89,37.956 121.89,38.957 121.89,39.976 C123.281,40.208 123.629,39.573 123.618,38.443 C123.606,37.371 123.388,36.61 121.89,36.856 Z" id="Shape" fill="#000000"></path>
            <path d="M172.094,35.358 C172.094,36.744 171.989,37.796 172.139,38.81 C172.212,39.305 172.762,39.729 173.096,40.185 C173.396,39.753 173.873,39.352 173.956,38.882 C174.102,38.055 173.953,37.18 174.043,36.338 C174.072,36.063 174.462,35.826 174.687,35.572 C174.898,35.84 175.275,36.097 175.291,36.376 C175.357,37.485 175.537,38.67 175.226,39.69 C175.016,40.378 174.087,41.241 173.42,41.295 C172.616,41.361 171.194,40.821 171.021,40.247 C170.622,38.924 170.78,37.422 170.816,35.995 C170.82,35.821 171.459,35.663 172.094,35.358 Z" id="Shape" fill="#000000"></path>
            <path d="M206.355,36.937 C205.29,37.98 203.401,35.063 203.127,37.98 C203.009,39.241 203.182,39.33 206.322,39.614 C205.995,41.167 204.902,41.562 203.563,41.359 C202.303,41.168 201.675,40.331 201.695,39.017 C201.717,37.59 201.44,35.997 203.362,35.546 C204.656,35.242 205.78,35.522 206.355,36.937 Z" id="Shape" fill="#000000"></path>
            <path d="M169.345,37.287 C167.944,37.332 165.752,35.401 165.97,38.65 C166.201,42.098 168.231,38.576 169.25,39.73 C168.952,40.924 168.064,41.467 166.791,41.395 C165.554,41.324 164.642,40.723 164.647,39.347 C164.652,37.847 164.132,36.019 166.336,35.533 C167.63,35.248 168.756,35.547 169.345,37.287 Z" id="Shape" fill="#000000"></path>
            <path d="M133.817,37.178 C132.554,37.494 130.404,35.305 130.469,38.49 C130.541,42.013 132.776,38.655 133.713,39.612 C133.485,41.066 132.48,41.492 131.205,41.385 C129.82,41.269 129.115,40.449 129.148,39.017 C129.18,37.593 128.846,35.971 130.818,35.538 C132.123,35.251 133.244,35.525 133.817,37.178 Z" id="Shape" fill="#000000"></path>
            <path d="M80.028,39.688 C79.732,41.139 78.691,41.521 77.414,41.375 C76.007,41.214 75.422,40.305 75.47,38.911 C75.517,37.553 75.205,36.007 77.044,35.559 C78.326,35.247 79.476,35.466 80.222,37.318 C78.537,37.07 76.243,35.786 76.837,38.985 C77.379,41.91 78.979,38.602 80.028,39.688 Z" id="Shape" fill="#000000"></path>
            <path d="M67.801,37.193 C66.679,37.548 64.644,35.251 64.649,38.409 C64.655,41.891 66.742,39.04 67.846,39.477 C67.723,41.086 66.67,41.451 65.441,41.385 C63.802,41.297 63.297,40.238 63.325,38.698 C63.353,37.194 63.292,35.696 65.285,35.485 C66.482,35.36 67.593,35.55 67.801,37.193 Z" id="Shape" fill="#000000"></path>
            <path d="M30.919,41.171 C30.919,39.541 30.867,38.103 30.954,36.672 C30.977,36.292 31.423,35.937 31.674,35.57 C31.888,35.964 32.25,36.346 32.285,36.756 C32.374,37.781 32.314,38.82 32.314,39.791 C33.355,40.122 34.21,40.395 35.066,40.668 C34.082,40.89 33.103,41.137 32.111,41.32 C31.815,41.373 31.486,41.248 30.919,41.171 Z" id="Shape" fill="#000000"></path>
            <path d="M154.422,37.139 C153.794,36.814 153.262,36.538 152.73,36.263 C152.786,36.13 152.842,35.998 152.898,35.865 C154.399,35.865 155.9,35.865 157.402,35.865 C157.491,36.02 157.58,36.175 157.669,36.331 C155.596,36.6 155.833,37.968 155.809,39.306 C155.797,39.969 155.404,40.626 155.183,41.285 C154.929,40.599 154.58,39.93 154.45,39.221 C154.323,38.532 154.422,37.801 154.422,37.139 Z" id="Shape" fill="#000000"></path>
            <path d="M209.98,37.125 C210.584,36.524 211.186,35.926 211.789,35.327 C211.887,35.436 211.985,35.545 212.084,35.653 C211.584,37.392 211.098,39.135 210.566,40.865 C210.509,41.049 210.168,41.289 209.998,41.262 C209.731,41.22 209.345,41.021 209.274,40.802 C208.723,39.113 208.235,37.403 207.558,35.132 C208.572,35.967 209.299,36.565 209.98,37.125 Z" id="Shape" fill="#000000"></path>
            <path d="M141.557,35.323 C142.246,35.92 142.936,36.516 143.641,37.127 C144.182,36.622 144.875,35.974 145.567,35.326 C145.653,35.435 145.74,35.545 145.826,35.654 C145.305,37.344 144.802,39.039 144.243,40.716 C144.163,40.957 143.818,41.257 143.594,41.259 C143.38,41.261 143.045,40.948 142.965,40.707 C142.417,39.069 141.923,37.413 141.411,35.762 C141.461,35.616 141.509,35.47 141.557,35.323 Z" id="Shape" fill="#000000"></path>
            <path d="M94.47,35.656 C95.079,35.656 95.961,35.656 96.557,35.656 C96.557,37.48 96.557,39.19 96.557,41.117 C95.976,41.117 95.048,41.117 94.47,41.117 C94.47,39.244 94.47,37.591 94.47,35.656 Z" id="Shape" fill="#000000"></path>
            <path d="M51.923,41.205 C51.923,39.527 51.893,37.924 51.953,36.324 C51.963,36.066 52.373,35.824 52.598,35.574 C52.809,35.839 53.186,36.094 53.203,36.371 C53.272,37.523 53.232,38.681 53.232,39.684 C53.458,39.87 53.5,39.927 53.556,39.948 C54.354,40.246 55.154,40.539 55.953,40.833 C55.064,41 54.178,41.196 53.283,41.319 C52.917,41.37 52.53,41.262 51.923,41.205 Z" id="Shape" fill="#000000"></path>
            <path d="M140.411,5.075 C142.026,4.474 142.981,5.06 143.847,6.426 C145.695,9.343 147.71,12.154 149.755,15.154 C151.818,12.115 153.786,9.333 155.618,6.465 C156.421,5.208 157.294,4.496 158.982,5.042 C158.982,11.92 158.982,18.885 158.982,25.966 C158.088,25.966 157.211,25.966 156.12,25.966 C156.12,21.209 156.12,16.526 156.12,11.843 C155.995,11.807 155.871,11.772 155.746,11.736 C154.268,13.935 152.807,16.145 151.307,18.329 C150.234,19.891 149.223,19.884 148.141,18.309 C146.661,16.152 145.219,13.968 143.441,11.319 C143.441,16.498 143.441,21.153 143.441,25.942 C142.329,25.942 141.446,25.942 140.411,25.942 C140.411,19.002 140.411,12.029 140.411,5.075 Z" id="Shape" fill="#FFFFFF"></path>
            <path d="M166.303,26.017 C165.114,26.017 164.276,26.017 163.283,26.017 C163.283,19.002 163.283,12.036 163.283,5.079 C164.877,4.496 165.851,5.025 166.724,6.405 C168.574,9.328 170.595,12.143 172.646,15.151 C174.723,12.097 176.742,9.272 178.593,6.341 C179.427,5.02 180.358,4.546 181.914,5.069 C181.914,11.986 181.914,18.906 181.914,25.955 C181.038,25.955 180.219,25.955 179.175,25.955 C179.175,21.318 179.175,16.641 179.175,11.965 C179.011,11.899 178.847,11.832 178.683,11.766 C177.727,13.157 176.769,14.546 175.817,15.939 C175.299,16.696 174.799,17.466 174.278,18.22 C173.118,19.897 172.137,19.923 171.005,18.27 C169.529,16.115 168.086,13.937 166.305,11.286 C166.303,16.488 166.303,21.147 166.303,26.017 Z" id="Shape" fill="#FFFFFF"></path>
            <path d="M117.028,10.113 C115.403,10.518 114.349,10.405 113.307,9.017 C111.846,7.071 107.825,7.268 106.196,9.079 C104.818,10.612 105.42,12.854 107.485,13.416 C109.056,13.843 110.716,13.928 112.316,14.263 C115.878,15.008 117.624,16.732 117.753,19.526 C117.886,22.392 116.015,24.791 112.775,25.79 C109.917,26.671 107.176,26.361 104.721,24.594 C103.239,23.528 102.214,22.138 102.408,20.096 C103.928,19.756 104.985,19.642 105.938,21.402 C107.329,23.973 112.548,23.758 114.173,21.306 C115.23,19.71 114.647,17.983 112.715,17.476 C111.14,17.063 109.486,16.966 107.877,16.672 C104.281,16.016 102.515,14.251 102.407,11.267 C102.3,8.313 104.158,5.956 107.403,5.057 C109.765,4.403 112.099,4.518 114.245,5.807 C115.82,6.752 116.909,8.077 117.028,10.113 Z" id="Shape" fill="#FFFFFF"></path>
            <path d="M136.535,5.033 C136.535,10.264 136.743,15.372 136.467,20.453 C136.257,24.325 132.023,26.783 127.393,26.166 C123.226,25.611 120.937,23.058 120.928,18.926 C120.918,14.348 120.926,9.771 120.926,5.046 C121.942,5.046 122.824,5.046 124.036,5.046 C124.036,5.685 124.036,6.373 124.036,7.06 C124.036,11.122 124.017,15.185 124.044,19.247 C124.061,21.761 125.911,23.278 128.82,23.239 C131.631,23.201 133.449,21.699 133.467,19.286 C133.502,14.58 133.477,9.873 133.477,5.033 C134.52,5.033 135.404,5.033 136.535,5.033 Z" id="Shape" fill="#FFFFFF"></path>
            <path d="M189.114,7.928 C187.801,7.928 186.704,7.928 185.47,7.928 C185.47,6.905 185.47,6.027 185.47,5.023 C189.019,5.023 192.52,5.023 196.113,5.023 C196.113,5.972 196.113,6.807 196.113,7.834 C194.905,7.911 193.703,7.988 192.392,8.072 C192.392,13.035 192.392,17.914 192.392,22.985 C193.65,22.985 194.8,22.985 196.076,22.985 C196.076,24.06 196.076,24.944 196.076,25.956 C192.561,25.956 189.059,25.956 185.442,25.956 C185.442,24.998 185.442,24.116 185.442,23.099 C186.68,23.034 187.837,22.974 189.114,22.907 C189.114,17.957 189.114,13.073 189.114,7.928 Z" id="Shape" fill="#FFFFFF"></path>
            <path d="M208.246,7.92 C208.246,14.146 208.246,20.024 208.246,26.023 C207.208,26.023 206.324,26.023 205.223,26.023 C205.223,20.078 205.223,14.149 205.223,8.007 C203.019,8.007 201.02,8.007 198.92,8.007 C198.92,6.904 198.92,6.018 198.92,5.002 C204.101,5.002 209.242,5.002 214.508,5.002 C214.508,5.93 214.508,6.815 214.508,7.921 C212.536,7.92 210.54,7.92 208.246,7.92 Z" id="Shape" fill="#FFFFFF"></path>
            <path d="M49.027,23.43 C49.027,17.957 49.027,12.747 49.027,7.345 C51.674,7.345 54.266,7.272 56.851,7.376 C58.142,7.428 59.073,8.143 59.083,9.619 C59.092,11.027 58.318,11.779 57.009,12.069 C56.691,12.14 56.356,12.261 56.047,12.221 C54.079,11.964 53.575,12.909 53.641,14.732 C53.751,17.778 53.663,17.781 56.614,18.077 C58.657,18.282 59.563,19.134 59.513,20.803 C59.463,22.477 58.513,23.363 56.498,23.415 C54.083,23.478 51.665,23.43 49.027,23.43 Z" id="Shape" fill="#FFFFFF"></path>
            <path d="M49.195,37.015 C48.465,37.618 48.09,37.928 47.588,38.343 C48.069,38.769 48.465,39.119 49.222,39.79 C48.254,39.888 47.64,39.95 46.925,40.023 C46.925,38.841 46.925,37.884 46.925,36.733 C47.635,36.821 48.219,36.894 49.195,37.015 Z" id="Shape" fill="#FFFFFF"></path>
            <path d="M37.983,36.849 C39.43,36.598 39.684,37.337 39.703,38.427 C39.723,39.562 39.384,40.212 37.983,39.99 C37.983,38.981 37.983,37.974 37.983,36.849 Z" id="Shape" fill="#FFFFFF"></path>
            <path d="M58.185,38.38 C58.741,37.673 59.124,37.186 59.507,36.7 C59.869,37.263 60.51,37.823 60.517,38.391 C60.524,38.986 59.923,39.589 59.588,40.188 C59.176,39.656 58.764,39.125 58.185,38.38 Z" id="Shape" fill="#FFFFFF"></path>
            <path d="M22.188,38.531 C21.608,39.227 21.21,39.704 20.812,40.182 C20.464,39.605 19.847,39.03 19.842,38.45 C19.838,37.865 20.441,37.275 20.778,36.688 C21.189,37.225 21.599,37.761 22.188,38.531 Z" id="Shape" fill="#FFFFFF"></path>
            <path d="M162.336,38.276 C161.755,39.079 161.355,39.632 160.955,40.186 C160.612,39.603 160.004,39.022 160.001,38.437 C159.997,37.857 160.602,37.273 160.941,36.69 C161.346,37.152 161.753,37.614 162.336,38.276 Z" id="Shape" fill="#FFFFFF"></path>
            <path d="M121.89,36.856 C123.388,36.61 123.607,37.371 123.618,38.444 C123.63,39.573 123.281,40.208 121.89,39.977 C121.89,38.957 121.89,37.956 121.89,36.856 Z" id="Shape" fill="#FFFFFF"></path>
        </g>
    </g>
</svg>