<?xml version="1.0" encoding="UTF-8"?>
<svg width="432px" height="393px" viewBox="0 0 432 393" version="1.1" xmlns="http://www.w3.org/2000/svg" xmlns:xlink="http://www.w3.org/1999/xlink">
    <!-- Generator: Sketch 51.1 (57501) - http://www.bohemiancoding.com/sketch -->
    <title>d_left copy</title>
    <desc>Created with Sketch.</desc>
    <defs>
        <radialGradient cx="2.95331505e-05%" cy="171.555511%" fx="2.95331505e-05%" fy="171.555511%" r="173.701813%" gradientTransform="translate(0.000000,1.715555),scale(0.891551,1.000000),rotate(108.836227),translate(-0.000000,-1.715555)" id="radialGradient-1">
            <stop stop-color="#FE5D5D" offset="0%"></stop>
            <stop stop-color="#FE6060" offset="53.0512596%"></stop>
            <stop stop-color="#FF9696" offset="100%"></stop>
        </radialGradient>
        <radialGradient cx="49.9999936%" cy="44.6633034%" fx="49.9999936%" fy="44.6633034%" r="55.1673589%" gradientTransform="translate(0.500000,0.446633),scale(0.904505,1.000000),rotate(64.501953),translate(-0.500000,-0.446633)" id="radialGradient-2">
            <stop stop-color="#D9477F" offset="0%"></stop>
            <stop stop-color="#DA4A82" offset="54.942641%"></stop>
            <stop stop-color="#EE7DB6" offset="100%"></stop>
        </radialGradient>
        <radialGradient cx="105.39482%" cy="108.16749%" fx="105.39482%" fy="108.16749%" r="108.594049%" gradientTransform="translate(1.053948,1.081675),scale(0.988696,1.000000),rotate(-139.259052),translate(-1.053948,-1.081675)" id="radialGradient-3">
            <stop stop-color="#9A2DBB" offset="0%"></stop>
            <stop stop-color="#9D30BD" offset="54.5020201%"></stop>
            <stop stop-color="#CA59DF" offset="100%"></stop>
        </radialGradient>
        <radialGradient cx="99.9999711%" cy="217.943701%" fx="99.9999711%" fy="217.943701%" r="537.060011%" gradientTransform="translate(1.000000,2.179437),scale(1.000000,0.407579),rotate(-95.341943),translate(-1.000000,-2.179437)" id="radialGradient-4">
            <stop stop-color="#560CFF" offset="0%"></stop>
            <stop stop-color="#5C0EFF" offset="54.7672266%"></stop>
            <stop stop-color="#8F1CFF" offset="100%"></stop>
        </radialGradient>
        <path d="M2.612174,6 L8.532174,6 C11.452174,6 13.332174,7.16 13.332174,9.54 C13.332174,11.24 12.312174,12.24 11.132174,12.62 C12.392174,12.98 13.892174,13.94 13.892174,16.12 C13.892174,19.3 10.792174,20 8.572174,20 L2.612174,20 L2.612174,6 Z M11.572174,15.88 C11.572174,14.02 9.932174,13.74 8.672174,13.74 L4.892174,13.74 L4.892174,18 L8.352174,18 C9.912174,18 11.572174,17.82 11.572174,15.88 Z M11.012174,9.9 C11.012174,8.5 9.972174,7.98 8.292174,7.98 L4.892174,7.98 L4.892174,11.8 L8.612174,11.82 C9.932174,11.82 11.012174,11.26 11.012174,9.9 Z M15.452174,15.2 C15.452174,11.88 17.972174,10.14 20.652174,10.14 C23.352174,10.14 25.852174,11.88 25.852174,15.2 C25.852174,18.52 23.352174,20.26 20.652174,20.26 C17.972174,20.26 15.452174,18.52 15.452174,15.2 Z M23.672174,15.2 C23.672174,13.32 22.432174,12.1 20.652174,12.1 C18.852174,12.1 17.612174,13.32 17.612174,15.2 C17.612174,17.08 18.852174,18.3 20.652174,18.3 C22.432174,18.3 23.672174,17.08 23.672174,15.2 Z M34.892174,10.4 L37.032174,10.4 L37.032174,20 L35.132174,20 L35.132174,18.68 C34.432174,19.52 33.252174,20.26 31.792174,20.26 C29.252174,20.26 27.832174,18.62 27.832174,16.34 L27.832174,10.4 L29.972174,10.4 L29.972174,16.06 C29.972174,17.62 30.792174,18.36 32.212174,18.36 C33.432174,18.36 34.352174,17.54 34.892174,16.76 L34.892174,10.4 Z M41.612174,11.72 C42.312174,10.88 43.492174,10.14 44.952174,10.14 C47.372174,10.14 48.912174,11.78 48.912174,14.06 L48.912174,20 L46.772174,20 L46.772174,14.34 C46.772174,12.78 45.812174,12.04 44.532174,12.04 C43.312174,12.04 42.392174,12.86 41.852174,13.64 L41.852174,20 L39.712174,20 L39.712174,10.4 L41.612174,10.4 L41.612174,11.72 Z M52.092174,7.5 L54.212174,6.98 L54.212174,10.4 L57.692174,10.4 L57.692174,12.28 L54.212174,12.28 L54.212174,16.68 C54.212174,17.94 54.792174,18.36 56.032174,18.36 C56.732174,18.36 57.372174,18.22 57.972174,17.98 L57.972174,19.82 C57.252174,20.08 56.332174,20.24 55.392174,20.24 C53.532174,20.24 52.092174,19.32 52.092174,17.08 L52.092174,12.28 L50.372174,12.28 L50.372174,10.4 L52.092174,10.4 L52.092174,7.5 Z M64.032174,17.64 L66.892174,10.4 L69.132174,10.4 L64.632174,21.3 C63.592174,23.8 62.232174,24.64 60.772174,24.64 C60.352174,24.64 59.932174,24.58 59.512174,24.48 L59.512174,22.66 C59.832174,22.76 60.172174,22.8 60.492174,22.8 C61.532174,22.8 62.312174,22.06 62.872174,20.56 L63.072174,20.08 L58.512174,10.4 L60.792174,10.4 L64.032174,17.64 Z" id="path-5"></path>
        <path d="M30.087391,34.86 C30.087391,36.26 29.267391,37.46 28.107391,37.86 C29.267391,38.22 30.647391,39.22 30.647391,41.3 C30.647391,43.94 28.387391,45.24 25.667391,45.24 C23.727391,45.24 22.267391,44.94 20.927391,44.34 L20.927391,42.68 C22.307391,43.4 23.727391,43.68 25.527391,43.66 C27.527391,43.66 29.027391,43 29.027391,41.22 C29.027391,39.36 27.547391,38.78 25.707391,38.78 L23.627391,38.78 L23.627391,37.18 L25.527391,37.2 C27.507391,37.2 28.467391,36.26 28.467391,35 C28.467391,33.6 27.327391,32.72 25.247391,32.72 C23.807391,32.72 22.487391,33.06 21.167391,33.76 L21.167391,32.12 C22.387391,31.5 23.767391,31.16 25.467391,31.16 C28.247391,31.16 30.087391,32.66 30.087391,34.86 Z M37.307391,46.2 L35.707391,46.2 L43.887391,29.8 L45.487391,29.8 L37.307391,46.2 Z M38.847391,33.9 C38.847391,35.92 37.307391,37.04 35.587391,37.04 C33.847391,37.04 32.287391,35.92 32.287391,33.9 C32.287391,31.88 33.847391,30.76 35.587391,30.76 C37.307391,30.76 38.847391,31.88 38.847391,33.9 Z M33.807391,33.9 C33.807391,34.84 34.407391,35.64 35.587391,35.64 C36.727391,35.64 37.327391,34.84 37.327391,33.9 C37.327391,32.96 36.727391,32.16 35.587391,32.16 C34.407391,32.16 33.807391,32.96 33.807391,33.9 Z M48.887391,42.1 C48.887391,44.12 47.347391,45.24 45.627391,45.24 C43.887391,45.24 42.327391,44.12 42.327391,42.1 C42.327391,40.08 43.887391,38.96 45.627391,38.96 C47.347391,38.96 48.887391,40.08 48.887391,42.1 Z M43.847391,42.1 C43.847391,43.04 44.447391,43.84 45.627391,43.84 C46.767391,43.84 47.367391,43.04 47.367391,42.1 C47.367391,41.16 46.767391,40.36 45.627391,40.36 C44.447391,40.36 43.847391,41.16 43.847391,42.1 Z" id="path-6"></path>
        <path d="M1.468261,13.12 C1.468261,8.14 5.208261,5.74 8.888261,5.74 C10.288261,5.74 11.668261,6.06 12.868261,6.66 L12.868261,8.88 C11.888261,8.2 10.588261,7.84 9.268261,7.84 C6.588261,7.84 3.808261,9.42 3.788261,13.12 C3.788261,16.56 6.628261,18.16 9.308261,18.16 C10.748261,18.16 12.048261,17.78 12.968261,17.08 L12.968261,19.34 C11.788261,19.92 10.388261,20.26 8.908261,20.26 C5.288261,20.26 1.448261,17.9 1.468261,13.12 Z M16.968261,11.98 C17.708261,10.8 19.268261,10.04 21.008261,10.2 L21.008261,12.3 C19.288261,12.06 17.788261,12.82 17.208261,14.18 L17.208261,20 L15.068261,20 L15.068261,10.4 L16.968261,10.4 L16.968261,11.98 Z M21.768261,15.2 C21.768261,11.88 24.288261,10.14 26.968261,10.14 C29.668261,10.14 32.168261,11.88 32.168261,15.2 C32.168261,18.52 29.668261,20.26 26.968261,20.26 C24.288261,20.26 21.768261,18.52 21.768261,15.2 Z M29.988261,15.2 C29.988261,13.32 28.748261,12.1 26.968261,12.1 C25.168261,12.1 23.928261,13.32 23.928261,15.2 C23.928261,17.08 25.168261,18.3 26.968261,18.3 C28.748261,18.3 29.988261,17.08 29.988261,15.2 Z M46.268261,10.4 L48.528261,10.4 L45.348261,20 L43.048261,20 L40.768261,13.12 L38.488261,20 L36.208261,20 L33.008261,10.4 L35.268261,10.4 L37.428261,17.66 L39.768261,10.4 L41.768261,10.4 L44.128261,17.66 L46.268261,10.4 Z M57.588261,6 L59.728261,6 L59.728261,20 L57.808261,20 L57.808261,18.48 C57.068261,19.42 55.928261,20.26 54.128261,20.26 C51.228261,20.26 49.368261,17.96 49.368261,15.2 C49.368261,12.44 51.228261,10.14 54.128261,10.14 C55.808261,10.14 56.928261,10.88 57.588261,11.64 L57.588261,6 Z M57.568261,14.02 C57.108261,12.98 56.008261,12.02 54.508261,12.02 C52.788261,12.02 51.528261,13.32 51.528261,15.2 C51.528261,17.08 52.788261,18.38 54.508261,18.38 C56.008261,18.38 57.108261,17.42 57.568261,16.36 L57.568261,14.02 Z M61.908261,13 C61.908261,10.9 63.828261,10.14 65.728261,10.14 C67.048261,10.14 68.248261,10.48 69.188261,10.96 L69.188261,12.84 C68.388261,12.3 67.008261,11.9 65.868261,11.9 C65.008261,11.9 64.088261,12.16 64.088261,12.94 C64.088261,14.8 69.868261,13.94 69.868261,17.44 C69.868261,19.56 67.908261,20.26 65.728261,20.26 C64.328261,20.26 62.908261,19.92 61.968261,19.34 L61.968261,17.44 C62.968261,18.1 64.428261,18.46 65.628261,18.46 C66.828261,18.46 67.708261,18.26 67.708261,17.48 C67.708261,15.7 61.908261,16.44 61.908261,13 Z M79.988261,17.78 C79.988261,18.32 80.308261,18.48 80.688261,18.48 C80.908261,18.48 81.128261,18.42 81.328261,18.36 L81.328261,19.9 C80.928261,20.06 80.448261,20.14 79.968261,20.14 C79.088261,20.14 78.388261,19.8 78.048261,19.02 C77.108261,19.78 75.928261,20.26 74.428261,20.26 C72.688261,20.26 71.068261,19.3 71.068261,17.32 C71.068261,14.86 73.348261,14.1 75.348261,14.1 C76.168261,14.1 77.088261,14.22 77.848261,14.38 L77.848261,14.04 C77.848261,12.84 76.968261,12 75.328261,12 C73.908261,12 72.728261,12.36 71.868261,12.74 L71.868261,10.78 C72.628261,10.52 74.008261,10.14 75.548261,10.14 C78.268261,10.14 79.988261,11.44 79.988261,14.34 L79.988261,17.78 Z M75.768261,15.6 C74.548261,15.6 73.268261,15.98 73.268261,17.18 C73.268261,18.12 74.108261,18.6 75.068261,18.6 C76.088261,18.6 77.088261,18.22 77.848261,17.46 L77.848261,15.84 C77.268261,15.72 76.448261,15.6 75.768261,15.6 Z M82.848261,5.4 L84.988261,5.4 L84.988261,20 L82.848261,20 L82.848261,5.4 Z M87.108261,15.2 C87.108261,11.72 89.748261,10.14 91.968261,10.14 C95.788261,10.14 97.108261,13.22 96.488261,16 L89.268261,16 C89.508261,17.72 91.188261,18.44 92.948261,18.44 C94.108261,18.44 95.168261,18.16 95.988261,17.76 L95.988261,19.6 C95.108261,20.02 93.888261,20.26 92.548261,20.26 C89.608261,20.26 87.108261,18.58 87.108261,15.2 Z M94.568261,14.4 C94.688261,13.56 94.168261,11.92 92.068261,11.92 C90.628261,11.92 89.328261,12.78 89.248261,14.4 L94.568261,14.4 Z" id="path-7"></path>
        <path d="M30.026087,37.82 C31.406087,36.9 32.726087,36.52 34.286087,36.52 C36.546087,36.52 38.946087,37.94 38.946087,40.78 C38.946087,43.68 36.726087,45.24 34.066087,45.24 C30.126087,45.24 28.326087,42.62 28.326087,38.42 C28.326087,33.42 31.006087,31.16 34.506087,31.16 C35.666087,31.16 36.826087,31.44 37.806087,31.94 L37.806087,33.54 C36.786087,33 35.626087,32.76 34.546087,32.76 C32.266087,32.76 30.226087,34.06 30.026087,37.82 Z M30.046087,39.5 C30.306087,42.36 31.726087,43.68 33.946087,43.68 C35.766087,43.68 37.246087,42.92 37.246087,40.86 C37.246087,38.72 35.626087,38.08 33.866087,38.08 C32.526087,38.08 31.146087,38.52 30.046087,39.5 Z M49.906087,34.86 C49.906087,36.26 49.086087,37.46 47.926087,37.86 C49.086087,38.22 50.466087,39.22 50.466087,41.3 C50.466087,43.94 48.206087,45.24 45.486087,45.24 C43.546087,45.24 42.086087,44.94 40.746087,44.34 L40.746087,42.68 C42.126087,43.4 43.546087,43.68 45.346087,43.66 C47.346087,43.66 48.846087,43 48.846087,41.22 C48.846087,39.36 47.366087,38.78 45.526087,38.78 L43.446087,38.78 L43.446087,37.18 L45.346087,37.2 C47.326087,37.2 48.286087,36.26 48.286087,35 C48.286087,33.6 47.146087,32.72 45.066087,32.72 C43.626087,32.72 42.306087,33.06 40.986087,33.76 L40.986087,32.12 C42.206087,31.5 43.586087,31.16 45.286087,31.16 C48.066087,31.16 49.906087,32.66 49.906087,34.86 Z M57.126087,46.2 L55.526087,46.2 L63.706087,29.8 L65.306087,29.8 L57.126087,46.2 Z M58.666087,33.9 C58.666087,35.92 57.126087,37.04 55.406087,37.04 C53.666087,37.04 52.106087,35.92 52.106087,33.9 C52.106087,31.88 53.666087,30.76 55.406087,30.76 C57.126087,30.76 58.666087,31.88 58.666087,33.9 Z M53.626087,33.9 C53.626087,34.84 54.226087,35.64 55.406087,35.64 C56.546087,35.64 57.146087,34.84 57.146087,33.9 C57.146087,32.96 56.546087,32.16 55.406087,32.16 C54.226087,32.16 53.626087,32.96 53.626087,33.9 Z M68.706087,42.1 C68.706087,44.12 67.166087,45.24 65.446087,45.24 C63.706087,45.24 62.146087,44.12 62.146087,42.1 C62.146087,40.08 63.706087,38.96 65.446087,38.96 C67.166087,38.96 68.706087,40.08 68.706087,42.1 Z M63.666087,42.1 C63.666087,43.04 64.266087,43.84 65.446087,43.84 C66.586087,43.84 67.186087,43.04 67.186087,42.1 C67.186087,41.16 66.586087,40.36 65.446087,40.36 C64.266087,40.36 63.666087,41.16 63.666087,42.1 Z" id="path-8"></path>
        <path d="M2.2,6 L11.86,6 L11.86,8.1 L4.48,8.1 L4.48,12.2 L11.28,12.2 L11.28,14.32 L4.48,14.32 L4.48,20 L2.2,20 L2.2,6 Z M16,20 L13.86,20 L13.86,10.4 L16,10.4 L16,20 Z M16.24,7.28 C16.24,8.16 15.64,8.56 14.94,8.56 C14.24,8.56 13.62,8.16 13.62,7.28 C13.62,6.44 14.24,6.02 14.94,6.02 C15.64,6.02 16.24,6.44 16.24,7.28 Z M20.62,11.98 C21.36,10.8 22.92,10.04 24.66,10.2 L24.66,12.3 C22.94,12.06 21.44,12.82 20.86,14.18 L20.86,20 L18.72,20 L18.72,10.4 L20.62,10.4 L20.62,11.98 Z M25.78,13 C25.78,10.9 27.7,10.14 29.6,10.14 C30.92,10.14 32.12,10.48 33.06,10.96 L33.06,12.84 C32.26,12.3 30.88,11.9 29.74,11.9 C28.88,11.9 27.96,12.16 27.96,12.94 C27.96,14.8 33.74,13.94 33.74,17.44 C33.74,19.56 31.78,20.26 29.6,20.26 C28.2,20.26 26.78,19.92 25.84,19.34 L25.84,17.44 C26.84,18.1 28.3,18.46 29.5,18.46 C30.7,18.46 31.58,18.26 31.58,17.48 C31.58,15.7 25.78,16.44 25.78,13 Z M36.38,7.5 L38.5,6.98 L38.5,10.4 L41.98,10.4 L41.98,12.28 L38.5,12.28 L38.5,16.68 C38.5,17.94 39.08,18.36 40.32,18.36 C41.02,18.36 41.66,18.22 42.26,17.98 L42.26,19.82 C41.54,20.08 40.62,20.24 39.68,20.24 C37.82,20.24 36.38,19.32 36.38,17.08 L36.38,12.28 L34.66,12.28 L34.66,10.4 L36.38,10.4 L36.38,7.5 Z M55.68,10.4 L57.82,10.4 L57.82,20 L55.92,20 L55.92,18.68 C55.22,19.52 54.04,20.26 52.58,20.26 C50.04,20.26 48.62,18.62 48.62,16.34 L48.62,10.4 L50.76,10.4 L50.76,16.06 C50.76,17.62 51.58,18.36 53,18.36 C54.22,18.36 55.14,17.54 55.68,16.76 L55.68,10.4 Z M60,13 C60,10.9 61.92,10.14 63.82,10.14 C65.14,10.14 66.34,10.48 67.28,10.96 L67.28,12.84 C66.48,12.3 65.1,11.9 63.96,11.9 C63.1,11.9 62.18,12.16 62.18,12.94 C62.18,14.8 67.96,13.94 67.96,17.44 C67.96,19.56 66,20.26 63.82,20.26 C62.42,20.26 61,19.92 60.06,19.34 L60.06,17.44 C61.06,18.1 62.52,18.46 63.72,18.46 C64.92,18.46 65.8,18.26 65.8,17.48 C65.8,15.7 60,16.44 60,13 Z M69.3,15.2 C69.3,11.72 71.94,10.14 74.16,10.14 C77.98,10.14 79.3,13.22 78.68,16 L71.46,16 C71.7,17.72 73.38,18.44 75.14,18.44 C76.3,18.44 77.36,18.16 78.18,17.76 L78.18,19.6 C77.3,20.02 76.08,20.26 74.74,20.26 C71.8,20.26 69.3,18.58 69.3,15.2 Z M76.76,14.4 C76.88,13.56 76.36,11.92 74.26,11.92 C72.82,11.92 71.52,12.78 71.44,14.4 L76.76,14.4 Z M82.76,11.98 C83.5,10.8 85.06,10.04 86.8,10.2 L86.8,12.3 C85.08,12.06 83.58,12.82 83,14.18 L83,20 L80.86,20 L80.86,10.4 L82.76,10.4 L82.76,11.98 Z M87.92,13 C87.92,10.9 89.84,10.14 91.74,10.14 C93.06,10.14 94.26,10.48 95.2,10.96 L95.2,12.84 C94.4,12.3 93.02,11.9 91.88,11.9 C91.02,11.9 90.1,12.16 90.1,12.94 C90.1,14.8 95.88,13.94 95.88,17.44 C95.88,19.56 93.92,20.26 91.74,20.26 C90.34,20.26 88.92,19.92 87.98,19.34 L87.98,17.44 C88.98,18.1 90.44,18.46 91.64,18.46 C92.84,18.46 93.72,18.26 93.72,17.48 C93.72,15.7 87.92,16.44 87.92,13 Z" id="path-9"></path>
        <path d="M31.6104348,32.86 C32.9704348,31.92 34.4704348,31.54 35.9704348,31.54 C38.7504348,31.54 40.6104348,32.86 40.6104348,35.18 C40.6104348,37.5 38.6704348,38.84 36.7704348,39.96 C34.8704348,41.08 33.0104348,42 32.9704348,43.8 L40.7104348,43.78 L40.7104348,45.38 L31.1304348,45.38 L31.1304348,44.58 C31.1304348,41.26 33.5704348,40 35.6904348,38.76 C37.3904348,37.76 38.9304348,36.92 38.9304348,35.16 C38.9304348,33.82 37.7904348,33.1 35.8304348,33.1 C34.4504348,33.1 33.0104348,33.56 31.6104348,34.54 L31.6104348,32.86 Z M51.9304348,35.24 C51.9304348,36.64 51.1104348,37.84 49.9504348,38.24 C51.1104348,38.6 52.4904348,39.6 52.4904348,41.68 C52.4904348,44.32 50.2304348,45.62 47.5104348,45.62 C45.5704348,45.62 44.1104348,45.32 42.7704348,44.72 L42.7704348,43.06 C44.1504348,43.78 45.5704348,44.06 47.3704348,44.04 C49.3704348,44.04 50.8704348,43.38 50.8704348,41.6 C50.8704348,39.74 49.3904348,39.16 47.5504348,39.16 L45.4704348,39.16 L45.4704348,37.56 L47.3704348,37.58 C49.3504348,37.58 50.3104348,36.64 50.3104348,35.38 C50.3104348,33.98 49.1704348,33.1 47.0904348,33.1 C45.6504348,33.1 44.3304348,33.44 43.0104348,34.14 L43.0104348,32.5 C44.2304348,31.88 45.6104348,31.54 47.3104348,31.54 C50.0904348,31.54 51.9304348,33.04 51.9304348,35.24 Z M59.1504348,46.58 L57.5504348,46.58 L65.7304348,30.18 L67.3304348,30.18 L59.1504348,46.58 Z M60.6904348,34.28 C60.6904348,36.3 59.1504348,37.42 57.4304348,37.42 C55.6904348,37.42 54.1304348,36.3 54.1304348,34.28 C54.1304348,32.26 55.6904348,31.14 57.4304348,31.14 C59.1504348,31.14 60.6904348,32.26 60.6904348,34.28 Z M55.6504348,34.28 C55.6504348,35.22 56.2504348,36.02 57.4304348,36.02 C58.5704348,36.02 59.1704348,35.22 59.1704348,34.28 C59.1704348,33.34 58.5704348,32.54 57.4304348,32.54 C56.2504348,32.54 55.6504348,33.34 55.6504348,34.28 Z M70.7304348,42.48 C70.7304348,44.5 69.1904348,45.62 67.4704348,45.62 C65.7304348,45.62 64.1704348,44.5 64.1704348,42.48 C64.1704348,40.46 65.7304348,39.34 67.4704348,39.34 C69.1904348,39.34 70.7304348,40.46 70.7304348,42.48 Z M65.6904348,42.48 C65.6904348,43.42 66.2904348,44.22 67.4704348,44.22 C68.6104348,44.22 69.2104348,43.42 69.2104348,42.48 C69.2104348,41.54 68.6104348,40.74 67.4704348,40.74 C66.2904348,40.74 65.6904348,41.54 65.6904348,42.48 Z" id="path-10"></path>
    </defs>
    <g id="Page-1" stroke="none" stroke-width="1" fill="none" fill-rule="evenodd">
        <g id="d_left-copy" transform="translate(-2.000000, -6.000000)">
            <g id="Дизайн-без-названия" transform="translate(71.000000, 58.000000)" fill-rule="nonzero">
                <g id="Group-20">
                    <path d="M160,0.10000225 C179.276403,0.10000825 197.942455,3.47538025 215.998135,10.2261295 C234.0538,16.9768735 250.355702,26.6754782 264.903828,39.321949 L217.697102,93.62707 C209.695623,86.6715025 200.729568,81.3372625 190.79896,77.62435 C180.868345,73.911445 170.602015,72.0549925 160,72.0549925 L160,0.10000225 Z" id="Fill-15" fill="url(#radialGradient-1)"></path>
                    <path d="M253.986873,30.6381835 C261.727953,36.2624057 268.90633,42.5309643 275.522065,49.443859 C282.1378,56.3567545 288.085113,63.8034932 293.363995,71.7840625 C298.642885,79.76464 303.168933,88.1514625 306.942183,96.9445675 C310.715485,105.737665 313.67566,114.796465 315.822663,124.120975 C317.969665,133.44547 319.269258,142.886643 319.721388,152.444448 C320.17348,162.00226 319.770918,171.523945 318.513715,181.009473 C317.256468,190.495023 315.164718,199.792803 312.238375,208.902828 C309.31198,218.012823 305.597823,226.789458 301.095858,235.232725 C296.593885,243.67597 291.376068,251.650855 285.442398,259.15738 C279.508773,266.663928 272.954148,273.582108 265.778568,279.91195 C258.60298,286.241815 250.92109,291.882123 242.732935,296.83291 C234.544803,301.78369 225.98128,305.965818 217.042345,309.37927 C208.103388,312.7927 198.931953,315.382915 189.528025,317.149878 C180.124113,318.916825 170.638015,319.832305 161.069725,319.896325 C151.501435,319.960345 142.003938,319.17187 132.577188,317.5309 C123.150438,315.889908 113.945178,313.422655 104.9614,310.129135 C95.9776075,306.835593 87.3588775,302.76841 79.1052175,297.927625 C70.851535,293.086848 63.0948775,287.54983 55.8352225,281.316528 C48.5755825,275.083278 41.9290075,268.253395 35.89546,260.82691 C29.8619275,253.400455 24.5379025,245.496085 19.923355,237.113815 C15.3088225,228.731545 11.477545,220.0054 8.4295375,210.935343 C5.381545,201.8653 3.1655275,192.596343 1.7815075,183.128485 C0.39748,173.660628 -0.132425,164.14519 0.191785,154.582188 C0.51598,145.019178 1.68913,135.561483 3.7111975,126.209088 L74.0411575,141.415045 C72.92905,146.558868 72.283825,151.760598 72.105505,157.020235 C71.9272075,162.279873 72.218665,167.513365 72.979855,172.720705 C73.741075,177.928015 74.95987,183.025945 76.63627,188.014473 C78.31267,193.003 80.41987,197.802378 82.95787,202.412628 C85.49587,207.022878 88.424095,211.37026 91.7425375,215.45482 C95.06098,219.539373 98.716615,223.295808 102.709435,226.724088 C106.702255,230.152398 110.968405,233.197788 115.507893,235.860205 C120.047418,238.522653 124.787718,240.759603 129.728823,242.571048 C134.66992,244.382485 139.73281,245.739453 144.917485,246.642003 C150.10219,247.544553 155.325798,247.97824 160.58836,247.943013 C165.85093,247.907793 171.068268,247.404273 176.240425,246.432445 C181.412628,245.46061 186.456933,244.036 191.37334,242.158623 C196.28974,240.281223 200.999695,237.98107 205.503175,235.258135 C210.006678,232.535193 214.231698,229.43302 218.178258,225.951618 C222.124848,222.470208 225.729873,218.66521 228.993385,214.536588 C232.256898,210.407995 235.126683,206.021823 237.602778,201.37804 C240.078843,196.73425 242.121633,191.907115 243.731133,186.89659 C245.340633,181.886073 246.491103,176.77228 247.18258,171.555235 C247.874058,166.338198 248.09545,161.101285 247.846773,155.84449 C247.598118,150.587695 246.88336,145.395048 245.702493,140.266585 C244.521625,135.1381 242.89354,130.155753 240.818245,125.31955 C238.74295,120.483348 236.25361,115.870585 233.350218,111.48127 C230.446833,107.091963 227.175813,102.996258 223.537188,99.194155 C219.89854,95.3920675 215.95042,91.94437 211.692828,88.85104 L253.986873,30.6381835 Z" id="Fill-17" fill="url(#radialGradient-2)"></path>
                    <path d="M1.360855,139.959199 C2.485705,131.055103 4.34701,122.307712 6.944785,113.717018 C9.54256,105.126332 12.84022,96.8132729 16.8377725,88.7778641 C20.8353325,80.7424554 25.4765125,73.097789 30.7613125,65.8438734 C36.0461125,58.5899682 41.9001325,51.8289263 48.3233875,45.5607347 C54.7466425,39.2925492 61.6486975,33.6054598 69.0295675,28.4994733 C76.41043,23.3934808 84.16621,18.9404653 92.2968925,15.1404266 C100.427575,11.3403879 108.818725,8.24681014 117.47032,5.8597045 C126.121915,3.47259286 134.91217,1.82555411 143.8411,0.91858675 L151.112613,72.5052066 C141.220683,73.5099965 131.770908,76.1173336 122.763303,80.3272179 C113.755705,84.5370948 105.693895,90.1141464 98.577865,97.0583879 C91.4618575,104.002599 85.6894825,111.925748 81.2607775,120.827804 C76.83208,129.729853 73.99465,139.113094 72.74848,148.977535 L1.360855,139.959199 Z" id="Fill-18" fill="url(#radialGradient-3)"></path>
                    <path d="M143.52076,73.61275 L130.037718,2.93226625 C139.936833,1.044088 149.924253,0.09999625 159.999978,0.09999625 L159.99847,72.0550075 C154.456825,72.055105 148.96426,72.57436 143.52076,73.612765 L143.52076,73.61275 Z" id="Fill-19" fill="url(#radialGradient-4)"></path>
                </g>
            </g>
            <path d="M179.064348,197 L183.964348,197 C188.924348,197 191.324348,199.94 191.324348,204 C191.324348,208.06 188.924348,211 183.964348,211 L179.064348,211 L179.064348,197 Z M189.004348,204 C189.004348,200.86 187.264348,199.08 183.944348,199.08 L181.344348,199.08 L181.344348,208.92 L183.944348,208.92 C187.264348,208.92 189.004348,207.14 189.004348,204 Z M195.386956,211 L193.246956,211 L193.246956,201.4 L195.386956,201.4 L195.386956,211 Z M195.626956,198.28 C195.626956,199.16 195.026956,199.56 194.326956,199.56 C193.626956,199.56 193.006956,199.16 193.006956,198.28 C193.006956,197.44 193.626956,197.02 194.326956,197.02 C195.026956,197.02 195.626956,197.44 195.626956,198.28 Z M197.389565,204 C197.389565,201.9 199.309565,201.14 201.209565,201.14 C202.529565,201.14 203.729565,201.48 204.669565,201.96 L204.669565,203.84 C203.869565,203.3 202.489565,202.9 201.349565,202.9 C200.489565,202.9 199.569565,203.16 199.569565,203.94 C199.569565,205.8 205.349565,204.94 205.349565,208.44 C205.349565,210.56 203.389565,211.26 201.209565,211.26 C199.809565,211.26 198.389565,210.92 197.449565,210.34 L197.449565,208.44 C198.449565,209.1 199.909565,209.46 201.109565,209.46 C202.309565,209.46 203.189565,209.26 203.189565,208.48 C203.189565,206.7 197.389565,207.44 197.389565,204 Z M207.772174,198.5 L209.892174,197.98 L209.892174,201.4 L213.372174,201.4 L213.372174,203.28 L209.892174,203.28 L209.892174,207.68 C209.892174,208.94 210.472174,209.36 211.712174,209.36 C212.412174,209.36 213.052174,209.22 213.652174,208.98 L213.652174,210.82 C212.932174,211.08 212.012174,211.24 211.072174,211.24 C209.212174,211.24 207.772174,210.32 207.772174,208.08 L207.772174,203.28 L206.052174,203.28 L206.052174,201.4 L207.772174,201.4 L207.772174,198.5 Z M217.074783,202.98 C217.814783,201.8 219.374783,201.04 221.114783,201.2 L221.114783,203.3 C219.394783,203.06 217.894783,203.82 217.314783,205.18 L217.314783,211 L215.174783,211 L215.174783,201.4 L217.074783,201.4 L217.074783,202.98 Z M224.697391,211 L222.557391,211 L222.557391,201.4 L224.697391,201.4 L224.697391,211 Z M224.937391,198.28 C224.937391,199.16 224.337391,199.56 223.637391,199.56 C222.937391,199.56 222.317391,199.16 222.317391,198.28 C222.317391,197.44 222.937391,197.02 223.637391,197.02 C224.337391,197.02 224.937391,197.44 224.937391,198.28 Z M227.2,197 L229.34,197 L229.34,202.64 C230,201.9 231.12,201.14 232.8,201.14 C235.68,201.14 237.56,203.44 237.56,206.2 C237.56,208.96 235.68,211.26 232.8,211.26 C231,211.26 229.86,210.42 229.1,209.48 L229.1,211 L227.2,211 L227.2,197 Z M235.38,206.2 C235.38,204.32 234.14,203.02 232.4,203.02 C230.92,203.02 229.8,203.98 229.34,205.02 L229.34,207.36 C229.8,208.42 230.92,209.38 232.4,209.38 C234.14,209.38 235.38,208.08 235.38,206.2 Z M246.382609,201.4 L248.522609,201.4 L248.522609,211 L246.622609,211 L246.622609,209.68 C245.922609,210.52 244.742609,211.26 243.282609,211.26 C240.742609,211.26 239.322609,209.62 239.322609,207.34 L239.322609,201.4 L241.462609,201.4 L241.462609,207.06 C241.462609,208.62 242.282609,209.36 243.702609,209.36 C244.922609,209.36 245.842609,208.54 246.382609,207.76 L246.382609,201.4 Z M251.685217,198.5 L253.805217,197.98 L253.805217,201.4 L257.285217,201.4 L257.285217,203.28 L253.805217,203.28 L253.805217,207.68 C253.805217,208.94 254.385217,209.36 255.625217,209.36 C256.325217,209.36 256.965217,209.22 257.565217,208.98 L257.565217,210.82 C256.845217,211.08 255.925217,211.24 254.985217,211.24 C253.125217,211.24 251.685217,210.32 251.685217,208.08 L251.685217,203.28 L249.965217,203.28 L249.965217,201.4 L251.685217,201.4 L251.685217,198.5 Z M261.267826,211 L259.127826,211 L259.127826,201.4 L261.267826,201.4 L261.267826,211 Z M261.507826,198.28 C261.507826,199.16 260.907826,199.56 260.207826,199.56 C259.507826,199.56 258.887826,199.16 258.887826,198.28 C258.887826,197.44 259.507826,197.02 260.207826,197.02 C260.907826,197.02 261.507826,197.44 261.507826,198.28 Z M263.170435,206.2 C263.170435,202.88 265.690435,201.14 268.370435,201.14 C271.070435,201.14 273.570435,202.88 273.570435,206.2 C273.570435,209.52 271.070435,211.26 268.370435,211.26 C265.690435,211.26 263.170435,209.52 263.170435,206.2 Z M271.390435,206.2 C271.390435,204.32 270.150435,203.1 268.370435,203.1 C266.570435,203.1 265.330435,204.32 265.330435,206.2 C265.330435,208.08 266.570435,209.3 268.370435,209.3 C270.150435,209.3 271.390435,208.08 271.390435,206.2 Z M277.333044,202.72 C278.033044,201.88 279.213044,201.14 280.673044,201.14 C283.093044,201.14 284.633044,202.78 284.633044,205.06 L284.633044,211 L282.493044,211 L282.493044,205.34 C282.493044,203.78 281.533044,203.04 280.253044,203.04 C279.033044,203.04 278.113044,203.86 277.573044,204.64 L277.573044,211 L275.433044,211 L275.433044,201.4 L277.333044,201.4 L277.333044,202.72 Z M177.553261,233.76 C177.553261,229.444 180.829261,227.182 184.313261,227.182 C187.823261,227.182 191.073261,229.444 191.073261,233.76 C191.073261,238.076 187.823261,240.338 184.313261,240.338 C180.829261,240.338 177.553261,238.076 177.553261,233.76 Z M188.239261,233.76 C188.239261,231.316 186.627261,229.73 184.313261,229.73 C181.973261,229.73 180.361261,231.316 180.361261,233.76 C180.361261,236.204 181.973261,237.79 184.313261,237.79 C186.627261,237.79 188.239261,236.204 188.239261,233.76 Z M197.225869,240 L194.443869,240 L194.443869,229.964 L192.181869,229.964 L192.181869,227.52 L194.443869,227.52 L194.443869,226.142 C194.443869,222.528 196.809869,221.462 199.097869,221.462 C200.241869,221.462 201.333869,221.696 202.191869,222.008 L202.191869,224.452 C201.567869,224.14 200.657869,223.906 199.773869,223.906 C198.421869,223.906 197.225869,224.296 197.225869,226.246 L197.225869,227.52 L201.489869,227.52 L201.489869,229.964 L197.225869,229.964 L197.225869,240 Z M209.089087,223.75 L211.845087,223.074 L211.845087,227.52 L216.369087,227.52 L216.369087,229.964 L211.845087,229.964 L211.845087,235.684 C211.845087,237.322 212.599087,237.868 214.211087,237.868 C215.121087,237.868 215.953087,237.686 216.733087,237.374 L216.733087,239.766 C215.797087,240.104 214.601087,240.312 213.379087,240.312 C210.961087,240.312 209.089087,239.116 209.089087,236.204 L209.089087,229.964 L206.853087,229.964 L206.853087,227.52 L209.089087,227.52 L209.089087,223.75 Z M217.997696,233.76 C217.997696,229.444 221.273696,227.182 224.757696,227.182 C228.267696,227.182 231.517696,229.444 231.517696,233.76 C231.517696,238.076 228.267696,240.338 224.757696,240.338 C221.273696,240.338 217.997696,238.076 217.997696,233.76 Z M228.683696,233.76 C228.683696,231.316 227.071696,229.73 224.757696,229.73 C222.417696,229.73 220.805696,231.316 220.805696,233.76 C220.805696,236.204 222.417696,237.79 224.757696,237.79 C227.071696,237.79 228.683696,236.204 228.683696,233.76 Z M246.094304,240 L242.896304,240 L238.788304,234.826 L236.786304,234.826 L236.786304,240 L234.004304,240 L234.004304,221.8 L236.786304,221.8 L236.786304,232.46 L238.840304,232.46 L242.428304,227.52 L245.600304,227.52 L241.076304,233.708 L246.094304,240 Z M246.266913,233.76 C246.266913,229.236 249.698913,227.182 252.584913,227.182 C257.550913,227.182 259.266913,231.186 258.460913,234.8 L249.074913,234.8 C249.386913,237.036 251.570913,237.972 253.858913,237.972 C255.366913,237.972 256.744913,237.608 257.810913,237.088 L257.810913,239.48 C256.666913,240.026 255.080913,240.338 253.338913,240.338 C249.516913,240.338 246.266913,238.154 246.266913,233.76 Z M255.964913,232.72 C256.120913,231.628 255.444913,229.496 252.714913,229.496 C250.842913,229.496 249.152913,230.614 249.048913,232.72 L255.964913,232.72 Z M263.547522,229.236 C264.457522,228.144 265.991522,227.182 267.889522,227.182 C271.035522,227.182 273.037522,229.314 273.037522,232.278 L273.037522,240 L270.255522,240 L270.255522,232.642 C270.255522,230.614 269.007522,229.652 267.343522,229.652 C265.757522,229.652 264.561522,230.718 263.859522,231.732 L263.859522,240 L261.077522,240 L261.077522,227.52 L263.547522,227.52 L263.547522,229.236 Z M275.498131,230.9 C275.498131,228.17 277.994131,227.182 280.464131,227.182 C282.180131,227.182 283.740131,227.624 284.962131,228.248 L284.962131,230.692 C283.922131,229.99 282.128131,229.47 280.646131,229.47 C279.528131,229.47 278.332131,229.808 278.332131,230.822 C278.332131,233.24 285.846131,232.122 285.846131,236.672 C285.846131,239.428 283.298131,240.338 280.464131,240.338 C278.644131,240.338 276.798131,239.896 275.576131,239.142 L275.576131,236.672 C276.876131,237.53 278.774131,237.998 280.334131,237.998 C281.894131,237.998 283.038131,237.738 283.038131,236.724 C283.038131,234.41 275.498131,235.372 275.498131,230.9 Z" id="Distribution-of-toke" fill="#000000" fill-rule="nonzero"></path>
            <path d="M306.984783,25 L318.524783,25 L318.524783,27.1 L313.904783,27.1 L313.904783,39 L311.624783,39 L311.624783,27.1 L306.984783,27.1 L306.984783,25 Z M317.047391,34.2 C317.047391,30.72 319.687391,29.14 321.907391,29.14 C325.727391,29.14 327.047391,32.22 326.427391,35 L319.207391,35 C319.447391,36.72 321.127391,37.44 322.887391,37.44 C324.047391,37.44 325.107391,37.16 325.927391,36.76 L325.927391,38.6 C325.047391,39.02 323.827391,39.26 322.487391,39.26 C319.547391,39.26 317.047391,37.58 317.047391,34.2 Z M324.507391,33.4 C324.627391,32.56 324.107391,30.92 322.007391,30.92 C320.567391,30.92 319.267391,31.78 319.187391,33.4 L324.507391,33.4 Z M336.57,36.78 C336.57,37.32 336.89,37.48 337.27,37.48 C337.49,37.48 337.71,37.42 337.91,37.36 L337.91,38.9 C337.51,39.06 337.03,39.14 336.55,39.14 C335.67,39.14 334.97,38.8 334.63,38.02 C333.69,38.78 332.51,39.26 331.01,39.26 C329.27,39.26 327.65,38.3 327.65,36.32 C327.65,33.86 329.93,33.1 331.93,33.1 C332.75,33.1 333.67,33.22 334.43,33.38 L334.43,33.04 C334.43,31.84 333.55,31 331.91,31 C330.49,31 329.31,31.36 328.45,31.74 L328.45,29.78 C329.21,29.52 330.59,29.14 332.13,29.14 C334.85,29.14 336.57,30.44 336.57,33.34 L336.57,36.78 Z M332.35,34.6 C331.13,34.6 329.85,34.98 329.85,36.18 C329.85,37.12 330.69,37.6 331.65,37.6 C332.67,37.6 333.67,37.22 334.43,36.46 L334.43,34.84 C333.85,34.72 333.03,34.6 332.35,34.6 Z M341.312609,39 L339.172609,39 L339.172609,29.4 L341.072609,29.4 L341.072609,30.6 C341.592609,30.02 342.712609,29.14 344.272609,29.14 C345.712609,29.14 346.712609,29.74 347.272609,30.68 C348.112609,29.84 349.232609,29.14 350.632609,29.14 C353.172609,29.14 354.272609,31.02 354.272609,33 L354.272609,39 L352.132609,39 L352.132609,33.06 C352.132609,31.82 351.392609,31.04 350.232609,31.04 C349.172609,31.04 348.352609,31.74 347.852609,32.34 C347.872609,32.56 347.892609,32.78 347.892609,33 L347.892609,39 L345.752609,39 L345.752609,33.06 C345.752609,31.82 345.012609,31.04 343.852609,31.04 C342.692609,31.04 341.812609,31.88 341.312609,32.52 L341.312609,39 Z M318.126087,50.4 L319.366087,50.4 L319.366087,62.4 L321.906087,62.4 L321.906087,64 L314.826087,64 L314.826087,62.4 L317.686087,62.4 L317.686087,52.18 L314.826087,53.26 L314.826087,51.66 L318.126087,50.4 Z M326.508696,50.4 L327.748696,50.4 L327.748696,62.4 L330.288696,62.4 L330.288696,64 L323.208696,64 L323.208696,62.4 L326.068696,62.4 L326.068696,52.18 L323.208696,53.26 L323.208696,51.66 L326.508696,50.4 Z M336.211304,65.2 L334.611304,65.2 L342.791304,48.8 L344.391304,48.8 L336.211304,65.2 Z M337.751304,52.9 C337.751304,54.92 336.211304,56.04 334.491304,56.04 C332.751304,56.04 331.191304,54.92 331.191304,52.9 C331.191304,50.88 332.751304,49.76 334.491304,49.76 C336.211304,49.76 337.751304,50.88 337.751304,52.9 Z M332.711304,52.9 C332.711304,53.84 333.311304,54.64 334.491304,54.64 C335.631304,54.64 336.231304,53.84 336.231304,52.9 C336.231304,51.96 335.631304,51.16 334.491304,51.16 C333.311304,51.16 332.711304,51.96 332.711304,52.9 Z M347.791304,61.1 C347.791304,63.12 346.251304,64.24 344.531304,64.24 C342.791304,64.24 341.231304,63.12 341.231304,61.1 C341.231304,59.08 342.791304,57.96 344.531304,57.96 C346.251304,57.96 347.791304,59.08 347.791304,61.1 Z M342.751304,61.1 C342.751304,62.04 343.351304,62.84 344.531304,62.84 C345.671304,62.84 346.271304,62.04 346.271304,61.1 C346.271304,60.16 345.671304,59.36 344.531304,59.36 C343.351304,59.36 342.751304,60.16 342.751304,61.1 Z" id="Team-11%" fill="#000000" fill-rule="nonzero"></path>
            <g id="Bounty-3%" transform="translate(181.000000, 0.000000)" fill="#000000">
                <g id="Bounty">
                    <use xlink:href="#path-5"></use>
                    <use xlink:href="#path-5"></use>
                </g>
                <g id="3%">
                    <use xlink:href="#path-6"></use>
                    <use xlink:href="#path-6"></use>
                </g>
            </g>
            <g id="Crowdsale-63%" transform="translate(337.000000, 352.000000)" fill="#000000">
                <g id="Crowdsale">
                    <use xlink:href="#path-7"></use>
                    <use xlink:href="#path-7"></use>
                </g>
                <g id="63%">
                    <use xlink:href="#path-8"></use>
                    <use xlink:href="#path-8"></use>
                </g>
            </g>
            <g id="First-users-23%" transform="translate(0.000000, 87.000000)" fill="#000000">
                <g id="First-users">
                    <use xlink:href="#path-9"></use>
                    <use xlink:href="#path-9"></use>
                </g>
                <g id="23%">
                    <use xlink:href="#path-10"></use>
                    <use xlink:href="#path-10"></use>
                </g>
            </g>
        </g>
    </g>
</svg>