<?xml version="1.0" encoding="UTF-8"?>
<svg width="508px" height="374px" viewBox="0 0 508 374" version="1.1" xmlns="http://www.w3.org/2000/svg" xmlns:xlink="http://www.w3.org/1999/xlink">
    <!-- Generator: Sketch 48.2 (47327) - http://www.bohemiancoding.com/sketch -->
    <title>Group 2</title>
    <desc>Created with Sketch.</desc>
    <defs>
        <radialGradient cx="0%" cy="343.110965%" fx="0%" fy="343.110965%" r="173.701804%" gradientTransform="translate(0.000000,3.431110),scale(0.891551,1.000000),translate(-0.000000,-3.431110)" id="radialGradient-1">
            <stop stop-color="#FE5D5D" offset="0%"></stop>
            <stop stop-color="#FE6060" offset="53.0512596%"></stop>
            <stop stop-color="#FF9696" offset="100%"></stop>
        </radialGradient>
        <radialGradient cx="100%" cy="89.3266079%" fx="100%" fy="89.3266079%" r="55.1673556%" gradientTransform="translate(1.000000,0.893266),scale(0.904505,1.000000),translate(-1.000000,-0.893266)" id="radialGradient-2">
            <stop stop-color="#D9477F" offset="0%"></stop>
            <stop stop-color="#DA4A82" offset="54.942641%"></stop>
            <stop stop-color="#EE7DB6" offset="100%"></stop>
        </radialGradient>
        <radialGradient cx="210.789591%" cy="216.335021%" fx="210.789591%" fy="216.335021%" r="108.594042%" gradientTransform="translate(2.107896,2.163350),scale(0.988696,1.000000),translate(-2.107896,-2.163350)" id="radialGradient-3">
            <stop stop-color="#9A2DBB" offset="0%"></stop>
            <stop stop-color="#9D30BD" offset="54.5020201%"></stop>
            <stop stop-color="#CA59DF" offset="100%"></stop>
        </radialGradient>
        <radialGradient cx="200%" cy="435.887371%" fx="200%" fy="435.887371%" r="537.059997%" gradientTransform="translate(2.000000,4.358874),scale(1.000000,0.407579),translate(-2.000000,-4.358874)" id="radialGradient-4">
            <stop stop-color="#560CFF" offset="0%"></stop>
            <stop stop-color="#5C0EFF" offset="54.7672266%"></stop>
            <stop stop-color="#8F1CFF" offset="100%"></stop>
        </radialGradient>
    </defs>
    <g id="Page-1" stroke="none" stroke-width="1" fill="none" fill-rule="evenodd">
        <g id="Group-2" fill-rule="nonzero">
            <g id="Дизайн-без-названия" transform="translate(68.000000, 54.000000)">
                <g id="Group-20">
                    <path d="M160,0.10000225 C179.276403,0.10000825 197.942455,3.47538025 215.998135,10.2261295 C234.0538,16.9768735 250.355702,26.6754782 264.903828,39.321949 L217.697102,93.62707 C209.695623,86.6715025 200.729568,81.3372625 190.79896,77.62435 C180.868345,73.911445 170.602015,72.0549925 160,72.0549925 L160,0.10000225 Z" id="Fill-15" fill="url(#radialGradient-1)"></path>
                    <path d="M253.986873,30.6381835 C261.727953,36.2624057 268.90633,42.5309643 275.522065,49.443859 C282.1378,56.3567545 288.085113,63.8034932 293.363995,71.7840625 C298.642885,79.76464 303.168933,88.1514625 306.942183,96.9445675 C310.715485,105.737665 313.67566,114.796465 315.822663,124.120975 C317.969665,133.44547 319.269258,142.886643 319.721388,152.444448 C320.17348,162.00226 319.770918,171.523945 318.513715,181.009473 C317.256468,190.495023 315.164718,199.792803 312.238375,208.902828 C309.31198,218.012823 305.597823,226.789458 301.095858,235.232725 C296.593885,243.67597 291.376068,251.650855 285.442398,259.15738 C279.508773,266.663928 272.954148,273.582108 265.778568,279.91195 C258.60298,286.241815 250.92109,291.882123 242.732935,296.83291 C234.544803,301.78369 225.98128,305.965818 217.042345,309.37927 C208.103388,312.7927 198.931953,315.382915 189.528025,317.149878 C180.124113,318.916825 170.638015,319.832305 161.069725,319.896325 C151.501435,319.960345 142.003938,319.17187 132.577188,317.5309 C123.150438,315.889908 113.945178,313.422655 104.9614,310.129135 C95.9776075,306.835593 87.3588775,302.76841 79.1052175,297.927625 C70.851535,293.086848 63.0948775,287.54983 55.8352225,281.316528 C48.5755825,275.083278 41.9290075,268.253395 35.89546,260.82691 C29.8619275,253.400455 24.5379025,245.496085 19.923355,237.113815 C15.3088225,228.731545 11.477545,220.0054 8.4295375,210.935343 C5.381545,201.8653 3.1655275,192.596343 1.7815075,183.128485 C0.39748,173.660628 -0.132425,164.14519 0.191785,154.582188 C0.51598,145.019178 1.68913,135.561483 3.7111975,126.209088 L74.0411575,141.415045 C72.92905,146.558868 72.283825,151.760598 72.105505,157.020235 C71.9272075,162.279873 72.218665,167.513365 72.979855,172.720705 C73.741075,177.928015 74.95987,183.025945 76.63627,188.014473 C78.31267,193.003 80.41987,197.802378 82.95787,202.412628 C85.49587,207.022878 88.424095,211.37026 91.7425375,215.45482 C95.06098,219.539373 98.716615,223.295808 102.709435,226.724088 C106.702255,230.152398 110.968405,233.197788 115.507893,235.860205 C120.047418,238.522653 124.787718,240.759603 129.728823,242.571048 C134.66992,244.382485 139.73281,245.739453 144.917485,246.642003 C150.10219,247.544553 155.325798,247.97824 160.58836,247.943013 C165.85093,247.907793 171.068268,247.404273 176.240425,246.432445 C181.412628,245.46061 186.456933,244.036 191.37334,242.158623 C196.28974,240.281223 200.999695,237.98107 205.503175,235.258135 C210.006678,232.535193 214.231698,229.43302 218.178258,225.951618 C222.124848,222.470208 225.729873,218.66521 228.993385,214.536588 C232.256898,210.407995 235.126683,206.021823 237.602778,201.37804 C240.078843,196.73425 242.121633,191.907115 243.731133,186.89659 C245.340633,181.886073 246.491103,176.77228 247.18258,171.555235 C247.874058,166.338198 248.09545,161.101285 247.846773,155.84449 C247.598118,150.587695 246.88336,145.395048 245.702493,140.266585 C244.521625,135.1381 242.89354,130.155753 240.818245,125.31955 C238.74295,120.483348 236.25361,115.870585 233.350218,111.48127 C230.446833,107.091963 227.175813,102.996258 223.537188,99.194155 C219.89854,95.3920675 215.95042,91.94437 211.692828,88.85104 L253.986873,30.6381835 Z" id="Fill-17" fill="url(#radialGradient-2)"></path>
                    <path d="M1.360855,139.959199 C2.485705,131.055103 4.34701,122.307712 6.944785,113.717018 C9.54256,105.126332 12.84022,96.8132729 16.8377725,88.7778641 C20.8353325,80.7424554 25.4765125,73.097789 30.7613125,65.8438734 C36.0461125,58.5899682 41.9001325,51.8289263 48.3233875,45.5607347 C54.7466425,39.2925492 61.6486975,33.6054598 69.0295675,28.4994733 C76.41043,23.3934808 84.16621,18.9404653 92.2968925,15.1404266 C100.427575,11.3403879 108.818725,8.24681014 117.47032,5.8597045 C126.121915,3.47259286 134.91217,1.82555411 143.8411,0.91858675 L151.112613,72.5052066 C141.220683,73.5099965 131.770908,76.1173336 122.763303,80.3272179 C113.755705,84.5370948 105.693895,90.1141464 98.577865,97.0583879 C91.4618575,104.002599 85.6894825,111.925748 81.2607775,120.827804 C76.83208,129.729853 73.99465,139.113094 72.74848,148.977535 L1.360855,139.959199 Z" id="Fill-18" fill="url(#radialGradient-3)"></path>
                    <path d="M143.52076,73.61275 L130.037718,2.93226625 C139.936833,1.044088 149.924253,0.09999625 159.999978,0.09999625 L159.99847,72.0550075 C154.456825,72.055105 148.96426,72.57436 143.52076,73.612765 L143.52076,73.61275 Z" id="Fill-19" fill="url(#radialGradient-4)"></path>
                </g>
            </g>
            <path d="M156.291739,195 L161.291739,195 C164.611739,195 167.271739,196.04 167.271739,199.6 C167.271739,203.16 164.611739,204.2 161.291739,204.2 L158.571739,204.2 L158.571739,209 L156.291739,209 L156.291739,195 Z M164.951739,199.6 C164.951739,197.56 163.351739,197.08 161.411739,197.08 L158.571739,197.08 L158.571739,202.12 L161.411739,202.12 C163.331739,202.12 164.951739,201.64 164.951739,199.6 Z M176.854348,206.78 C176.854348,207.32 177.174348,207.48 177.554348,207.48 C177.774348,207.48 177.994348,207.42 178.194348,207.36 L178.194348,208.9 C177.794348,209.06 177.314348,209.14 176.834348,209.14 C175.954348,209.14 175.254348,208.8 174.914348,208.02 C173.974348,208.78 172.794348,209.26 171.294348,209.26 C169.554348,209.26 167.934348,208.3 167.934348,206.32 C167.934348,203.86 170.214348,203.1 172.214348,203.1 C173.034348,203.1 173.954348,203.22 174.714348,203.38 L174.714348,203.04 C174.714348,201.84 173.834348,201 172.194348,201 C170.774348,201 169.594348,201.36 168.734348,201.74 L168.734348,199.78 C169.494348,199.52 170.874348,199.14 172.414348,199.14 C175.134348,199.14 176.854348,200.44 176.854348,203.34 L176.854348,206.78 Z M172.634348,204.6 C171.414348,204.6 170.134348,204.98 170.134348,206.18 C170.134348,207.12 170.974348,207.6 171.934348,207.6 C172.954348,207.6 173.954348,207.22 174.714348,206.46 L174.714348,204.84 C174.134348,204.72 173.314348,204.6 172.634348,204.6 Z M178.996956,204.28 C178.996956,200.7 181.736956,199.14 184.296956,199.14 C185.376956,199.14 186.416956,199.38 187.256956,199.88 L187.256956,201.84 C186.556956,201.34 185.576956,201.04 184.596956,201.04 C182.896956,201.04 181.176956,201.94 181.176956,204.2 C181.176956,206.38 182.836956,207.36 184.556956,207.36 C185.576956,207.36 186.596956,207.06 187.356956,206.62 L187.356956,208.6 C186.436956,209.04 185.396956,209.26 184.176956,209.26 C181.616956,209.26 178.996956,207.7 178.996956,204.28 Z M191.419565,209 L189.279565,209 L189.279565,199.4 L198.359565,199.4 L198.359565,209 L196.219565,209 L196.219565,201.28 L191.419565,201.28 L191.419565,209 Z M202.722174,200.9 C203.482174,199.98 204.622174,199.14 206.422174,199.14 C209.302174,199.14 211.182174,201.44 211.182174,204.2 C211.182174,206.96 209.302174,209.26 206.422174,209.26 C204.742174,209.26 203.622174,208.52 202.962174,207.76 L202.962174,213.4 L200.822174,213.4 L200.822174,199.4 L202.722174,199.4 L202.722174,200.9 Z M209.002174,204.2 C209.002174,202.32 207.762174,201.02 206.022174,201.02 C204.542174,201.02 203.422174,201.98 202.962174,203.02 L202.962174,205.36 C203.422174,206.42 204.542174,207.38 206.022174,207.38 C207.762174,207.38 209.002174,206.08 209.002174,204.2 Z M212.444783,204.2 C212.444783,200.72 215.084783,199.14 217.304783,199.14 C221.124783,199.14 222.444783,202.22 221.824783,205 L214.604783,205 C214.844783,206.72 216.524783,207.44 218.284783,207.44 C219.444783,207.44 220.504783,207.16 221.324783,206.76 L221.324783,208.6 C220.444783,209.02 219.224783,209.26 217.884783,209.26 C214.944783,209.26 212.444783,207.58 212.444783,204.2 Z M219.904783,203.4 C220.024783,202.56 219.504783,200.92 217.404783,200.92 C215.964783,200.92 214.664783,201.78 214.584783,203.4 L219.904783,203.4 Z M224.787391,211.58 L222.767391,211.58 L222.767391,207.24 L224.087391,207.24 C225.247391,205.18 225.647391,202.74 225.607391,199.4 L233.107391,199.4 L233.107391,207.24 L234.527391,207.24 L234.527391,211.58 L232.507391,211.58 L232.507391,209 L224.787391,209 L224.787391,211.58 Z M227.607391,201.16 C227.527391,203.74 227.127391,205.54 226.327391,207.24 L230.947391,207.24 L230.947391,201.16 L227.607391,201.16 Z M235.47,204.2 C235.47,200.72 238.11,199.14 240.33,199.14 C244.15,199.14 245.47,202.22 244.85,205 L237.63,205 C237.87,206.72 239.55,207.44 241.31,207.44 C242.47,207.44 243.53,207.16 244.35,206.76 L244.35,208.6 C243.47,209.02 242.25,209.26 240.91,209.26 C237.97,209.26 235.47,207.58 235.47,204.2 Z M242.93,203.4 C243.05,202.56 242.53,200.92 240.43,200.92 C238.99,200.92 237.69,201.78 237.61,203.4 L242.93,203.4 Z M250.592609,201.22 C250.312609,205.86 249.592609,209.18 247.032609,209.18 C246.632609,209.18 246.192609,209.1 245.712609,208.92 L245.712609,207.24 C245.932609,207.32 246.132609,207.36 246.332609,207.36 C247.952609,207.36 248.392609,204.16 248.572609,199.4 L255.972609,199.4 L255.972609,209 L253.832609,209 L253.832609,201.22 L250.592609,201.22 Z M257.835217,204.2 C257.835217,200.72 260.475217,199.14 262.695217,199.14 C266.515217,199.14 267.835217,202.22 267.215217,205 L259.995217,205 C260.235217,206.72 261.915217,207.44 263.675217,207.44 C264.835217,207.44 265.895217,207.16 266.715217,206.76 L266.715217,208.6 C265.835217,209.02 264.615217,209.26 263.275217,209.26 C260.335217,209.26 257.835217,207.58 257.835217,204.2 Z M265.295217,203.4 C265.415217,202.56 264.895217,200.92 262.795217,200.92 C261.355217,200.92 260.055217,201.78 259.975217,203.4 L265.295217,203.4 Z M271.277826,209 L269.137826,209 L269.137826,199.4 L271.277826,199.4 L271.277826,203.26 L276.077826,203.26 L276.077826,199.4 L278.217826,199.4 L278.217826,209 L276.077826,209 L276.077826,205.14 L271.277826,205.14 L271.277826,209 Z M282.520435,209 L280.680435,209 L280.680435,199.4 L282.820435,199.4 L282.820435,205.68 L287.960435,199.4 L289.800435,199.4 L289.800435,209 L287.660435,209 L287.660435,202.72 L282.520435,209 Z M291.663044,204.2 C291.663044,200.72 294.303044,199.14 296.523044,199.14 C300.343044,199.14 301.663044,202.22 301.043044,205 L293.823044,205 C294.063044,206.72 295.743044,207.44 297.503044,207.44 C298.663044,207.44 299.723044,207.16 300.543044,206.76 L300.543044,208.6 C299.663044,209.02 298.443044,209.26 297.103044,209.26 C294.163044,209.26 291.663044,207.58 291.663044,204.2 Z M299.123044,203.4 C299.243044,202.56 298.723044,200.92 296.623044,200.92 C295.183044,200.92 293.883044,201.78 293.803044,203.4 L299.123044,203.4 Z M188.010869,234 L185.335869,234 L185.335869,224.35 L181.185869,224.35 L181.185869,222 L192.135869,222 L192.135869,224.35 L188.010869,224.35 L188.010869,234 Z M192.943478,228 C192.943478,223.85 196.093478,221.675 199.443478,221.675 C202.818478,221.675 205.943478,223.85 205.943478,228 C205.943478,232.15 202.818478,234.325 199.443478,234.325 C196.093478,234.325 192.943478,232.15 192.943478,228 Z M203.218478,228 C203.218478,225.65 201.668478,224.125 199.443478,224.125 C197.193478,224.125 195.643478,225.65 195.643478,228 C195.643478,230.35 197.193478,231.875 199.443478,231.875 C201.668478,231.875 203.218478,230.35 203.218478,228 Z M211.001087,234 L208.326087,234 L208.326087,222 L211.001087,222 L211.001087,226.75 L212.976087,226.75 L216.426087,222 L219.476087,222 L215.126087,227.95 L219.951087,234 L216.876087,234 L212.926087,229.025 L211.001087,229.025 L211.001087,234 Z M220.133696,228 C220.133696,223.65 223.433696,221.675 226.208696,221.675 C230.983696,221.675 232.633696,225.525 231.858696,229 L222.833696,229 C223.133696,231.15 225.233696,232.05 227.433696,232.05 C228.883696,232.05 230.208696,231.7 231.233696,231.2 L231.233696,233.5 C230.133696,234.025 228.608696,234.325 226.933696,234.325 C223.258696,234.325 220.133696,232.225 220.133696,228 Z M229.458696,227 C229.608696,225.95 228.958696,223.9 226.333696,223.9 C224.533696,223.9 222.908696,224.975 222.808696,227 L229.458696,227 Z M236.991304,234 L234.316304,234 L234.316304,222 L236.991304,222 L236.991304,226.825 L242.991304,226.825 L242.991304,222 L245.666304,222 L245.666304,234 L242.991304,234 L242.991304,229.175 L236.991304,229.175 L236.991304,234 Z M248.048913,228 C248.048913,223.85 251.198913,221.675 254.548913,221.675 C257.923913,221.675 261.048913,223.85 261.048913,228 C261.048913,232.15 257.923913,234.325 254.548913,234.325 C251.198913,234.325 248.048913,232.15 248.048913,228 Z M258.323913,228 C258.323913,225.65 256.773913,224.125 254.548913,224.125 C252.298913,224.125 250.748913,225.65 250.748913,228 C250.748913,230.35 252.298913,231.875 254.548913,231.875 C256.773913,231.875 258.323913,230.35 258.323913,228 Z M270.481522,234 L263.431522,234 L263.431522,222 L270.281522,222 C272.706522,222 274.081522,223.325 274.081522,225.2 C274.081522,226.525 273.406522,227.475 272.381522,227.925 C273.506522,228.275 274.431522,229.225 274.431522,230.7 C274.431522,232.55 273.256522,234 270.481522,234 Z M266.106522,228.9 L266.106522,231.975 L269.831522,231.975 C270.931522,231.975 271.731522,231.6 271.731522,230.45 C271.731522,229.225 270.806522,228.9 269.881522,228.9 L266.106522,228.9 Z M266.106522,224.025 L266.106522,227 L269.681522,227 C270.631522,227 271.381522,226.625 271.381522,225.55 C271.381522,224.375 270.506522,224.025 269.681522,224.025 L266.106522,224.025 Z" id="Распределение-токено" fill="#000000"></path>
            <path d="M293.15087,36 L290.87087,36 L290.87087,22 L293.15087,22 L293.15087,27.84 L295.91087,27.84 L299.81087,22 L302.39087,22 L297.75087,28.82 L302.75087,36 L300.17087,36 L295.95087,29.94 L293.15087,29.94 L293.15087,36 Z M302.553478,31.2 C302.553478,27.88 305.073478,26.14 307.753478,26.14 C310.453478,26.14 312.953478,27.88 312.953478,31.2 C312.953478,34.52 310.453478,36.26 307.753478,36.26 C305.073478,36.26 302.553478,34.52 302.553478,31.2 Z M310.773478,31.2 C310.773478,29.32 309.533478,28.1 307.753478,28.1 C305.953478,28.1 304.713478,29.32 304.713478,31.2 C304.713478,33.08 305.953478,34.3 307.753478,34.3 C309.533478,34.3 310.773478,33.08 310.773478,31.2 Z M316.876087,36 L314.816087,36 L314.816087,26.4 L316.976087,26.4 L320.236087,31.46 L323.516087,26.4 L325.676087,26.4 L325.676087,36 L323.616087,36 L323.616087,29.5 L320.876087,33.7 L319.596087,33.7 L316.876087,29.5 L316.876087,36 Z M336.318696,33.78 C336.318696,34.32 336.638696,34.48 337.018696,34.48 C337.238696,34.48 337.458696,34.42 337.658696,34.36 L337.658696,35.9 C337.258696,36.06 336.778696,36.14 336.298696,36.14 C335.418696,36.14 334.718696,35.8 334.378696,35.02 C333.438696,35.78 332.258696,36.26 330.758696,36.26 C329.018696,36.26 327.398696,35.3 327.398696,33.32 C327.398696,30.86 329.678696,30.1 331.678696,30.1 C332.498696,30.1 333.418696,30.22 334.178696,30.38 L334.178696,30.04 C334.178696,28.84 333.298696,28 331.658696,28 C330.238696,28 329.058696,28.36 328.198696,28.74 L328.198696,26.78 C328.958696,26.52 330.338696,26.14 331.878696,26.14 C334.598696,26.14 336.318696,27.44 336.318696,30.34 L336.318696,33.78 Z M332.098696,31.6 C330.878696,31.6 329.598696,31.98 329.598696,33.18 C329.598696,34.12 330.438696,34.6 331.398696,34.6 C332.418696,34.6 333.418696,34.22 334.178696,33.46 L334.178696,31.84 C333.598696,31.72 332.778696,31.6 332.098696,31.6 Z M341.201304,36 L339.061304,36 L339.061304,26.4 L341.201304,26.4 L341.201304,30.26 L346.001304,30.26 L346.001304,26.4 L348.141304,26.4 L348.141304,36 L346.001304,36 L346.001304,32.14 L341.201304,32.14 L341.201304,36 Z M351.763913,38.58 L349.743913,38.58 L349.743913,34.24 L351.063913,34.24 C352.223913,32.18 352.623913,29.74 352.583913,26.4 L360.083913,26.4 L360.083913,34.24 L361.503913,34.24 L361.503913,38.58 L359.483913,38.58 L359.483913,36 L351.763913,36 L351.763913,38.58 Z M354.583913,28.16 C354.503913,30.74 354.103913,32.54 353.303913,34.24 L357.923913,34.24 L357.923913,28.16 L354.583913,28.16 Z M371.426522,33.78 C371.426522,34.32 371.746522,34.48 372.126522,34.48 C372.346522,34.48 372.566522,34.42 372.766522,34.36 L372.766522,35.9 C372.366522,36.06 371.886522,36.14 371.406522,36.14 C370.526522,36.14 369.826522,35.8 369.486522,35.02 C368.546522,35.78 367.366522,36.26 365.866522,36.26 C364.126522,36.26 362.506522,35.3 362.506522,33.32 C362.506522,30.86 364.786522,30.1 366.786522,30.1 C367.606522,30.1 368.526522,30.22 369.286522,30.38 L369.286522,30.04 C369.286522,28.84 368.406522,28 366.766522,28 C365.346522,28 364.166522,28.36 363.306522,28.74 L363.306522,26.78 C364.066522,26.52 365.446522,26.14 366.986522,26.14 C369.706522,26.14 371.426522,27.44 371.426522,30.34 L371.426522,33.78 Z M367.206522,31.6 C365.986522,31.6 364.706522,31.98 364.706522,33.18 C364.706522,34.12 365.546522,34.6 366.506522,34.6 C367.526522,34.6 368.526522,34.22 369.286522,33.46 L369.286522,31.84 C368.706522,31.72 367.886522,31.6 367.206522,31.6 Z M318.126087,47.4 L319.366087,47.4 L319.366087,59.4 L321.906087,59.4 L321.906087,61 L314.826087,61 L314.826087,59.4 L317.686087,59.4 L317.686087,49.18 L314.826087,50.26 L314.826087,48.66 L318.126087,47.4 Z M326.508696,47.4 L327.748696,47.4 L327.748696,59.4 L330.288696,59.4 L330.288696,61 L323.208696,61 L323.208696,59.4 L326.068696,59.4 L326.068696,49.18 L323.208696,50.26 L323.208696,48.66 L326.508696,47.4 Z M336.211304,62.2 L334.611304,62.2 L342.791304,45.8 L344.391304,45.8 L336.211304,62.2 Z M337.751304,49.9 C337.751304,51.92 336.211304,53.04 334.491304,53.04 C332.751304,53.04 331.191304,51.92 331.191304,49.9 C331.191304,47.88 332.751304,46.76 334.491304,46.76 C336.211304,46.76 337.751304,47.88 337.751304,49.9 Z M332.711304,49.9 C332.711304,50.84 333.311304,51.64 334.491304,51.64 C335.631304,51.64 336.231304,50.84 336.231304,49.9 C336.231304,48.96 335.631304,48.16 334.491304,48.16 C333.311304,48.16 332.711304,48.96 332.711304,49.9 Z M347.791304,58.1 C347.791304,60.12 346.251304,61.24 344.531304,61.24 C342.791304,61.24 341.231304,60.12 341.231304,58.1 C341.231304,56.08 342.791304,54.96 344.531304,54.96 C346.251304,54.96 347.791304,56.08 347.791304,58.1 Z M342.751304,58.1 C342.751304,59.04 343.351304,59.84 344.531304,59.84 C345.671304,59.84 346.271304,59.04 346.271304,58.1 C346.271304,57.16 345.671304,56.36 344.531304,56.36 C343.351304,56.36 342.751304,57.16 342.751304,58.1 Z" id="Команда-11%" fill="#000000"></path>
            <path d="M183.112174,5.44 L186.552174,5.44 C189.212174,5.44 191.912174,6.28 191.912174,9.74 C191.912174,13.18 189.212174,14 186.552174,14 L180.832174,14 L180.832174,0 L190.812174,0 L190.812174,2.1 L183.112174,2.1 L183.112174,5.44 Z M183.112174,11.92 L186.592174,11.92 C188.092174,11.92 189.592174,11.66 189.592174,9.74 C189.592174,7.8 188.072174,7.52 186.592174,7.52 L183.112174,7.52 L183.112174,11.92 Z M201.874783,11.78 C201.874783,12.32 202.194783,12.48 202.574783,12.48 C202.794783,12.48 203.014783,12.42 203.214783,12.36 L203.214783,13.9 C202.814783,14.06 202.334783,14.14 201.854783,14.14 C200.974783,14.14 200.274783,13.8 199.934783,13.02 C198.994783,13.78 197.814783,14.26 196.314783,14.26 C194.574783,14.26 192.954783,13.3 192.954783,11.32 C192.954783,8.86 195.234783,8.1 197.234783,8.1 C198.054783,8.1 198.974783,8.22 199.734783,8.38 L199.734783,8.04 C199.734783,6.84 198.854783,6 197.214783,6 C195.794783,6 194.614783,6.36 193.754783,6.74 L193.754783,4.78 C194.514783,4.52 195.894783,4.14 197.434783,4.14 C200.154783,4.14 201.874783,5.44 201.874783,8.34 L201.874783,11.78 Z M197.654783,9.6 C196.434783,9.6 195.154783,9.98 195.154783,11.18 C195.154783,12.12 195.994783,12.6 196.954783,12.6 C197.974783,12.6 198.974783,12.22 199.734783,11.46 L199.734783,9.84 C199.154783,9.72 198.334783,9.6 197.654783,9.6 Z M208.377391,11.64 L211.237391,4.4 L213.477391,4.4 L208.977391,15.3 C207.937391,17.8 206.577391,18.64 205.117391,18.64 C204.697391,18.64 204.277391,18.58 203.857391,18.48 L203.857391,16.66 C204.177391,16.76 204.517391,16.8 204.837391,16.8 C205.877391,16.8 206.657391,16.06 207.217391,14.56 L207.417391,14.08 L202.857391,4.4 L205.137391,4.4 L208.377391,11.64 Z M217,14 L214.86,14 L214.86,4.4 L217,4.4 L217,8.26 L221.8,8.26 L221.8,4.4 L223.94,4.4 L223.94,14 L221.8,14 L221.8,10.14 L217,10.14 L217,14 Z M230.862609,14 L228.722609,14 L228.722609,6.28 L225.402609,6.28 L225.402609,4.4 L234.162609,4.4 L234.162609,6.28 L230.862609,6.28 L230.862609,14 Z M237.465217,14 L235.625217,14 L235.625217,4.4 L237.765217,4.4 L237.765217,10.68 L242.905217,4.4 L244.745217,4.4 L244.745217,14 L242.605217,14 L242.605217,7.72 L237.465217,14 Z M208.087391,28.86 C208.087391,30.26 207.267391,31.46 206.107391,31.86 C207.267391,32.22 208.647391,33.22 208.647391,35.3 C208.647391,37.94 206.387391,39.24 203.667391,39.24 C201.727391,39.24 200.267391,38.94 198.927391,38.34 L198.927391,36.68 C200.307391,37.4 201.727391,37.68 203.527391,37.66 C205.527391,37.66 207.027391,37 207.027391,35.22 C207.027391,33.36 205.547391,32.78 203.707391,32.78 L201.627391,32.78 L201.627391,31.18 L203.527391,31.2 C205.507391,31.2 206.467391,30.26 206.467391,29 C206.467391,27.6 205.327391,26.72 203.247391,26.72 C201.807391,26.72 200.487391,27.06 199.167391,27.76 L199.167391,26.12 C200.387391,25.5 201.767391,25.16 203.467391,25.16 C206.247391,25.16 208.087391,26.66 208.087391,28.86 Z M215.09,40.2 L213.49,40.2 L221.67,23.8 L223.27,23.8 L215.09,40.2 Z M216.63,27.9 C216.63,29.92 215.09,31.04 213.37,31.04 C211.63,31.04 210.07,29.92 210.07,27.9 C210.07,25.88 211.63,24.76 213.37,24.76 C215.09,24.76 216.63,25.88 216.63,27.9 Z M211.59,27.9 C211.59,28.84 212.19,29.64 213.37,29.64 C214.51,29.64 215.11,28.84 215.11,27.9 C215.11,26.96 214.51,26.16 213.37,26.16 C212.19,26.16 211.59,26.96 211.59,27.9 Z M226.67,36.1 C226.67,38.12 225.13,39.24 223.41,39.24 C221.67,39.24 220.11,38.12 220.11,36.1 C220.11,34.08 221.67,32.96 223.41,32.96 C225.13,32.96 226.67,34.08 226.67,36.1 Z M221.63,36.1 C221.63,37.04 222.23,37.84 223.41,37.84 C224.55,37.84 225.15,37.04 225.15,36.1 C225.15,35.16 224.55,34.36 223.41,34.36 C222.23,34.36 221.63,35.16 221.63,36.1 Z" id="Баунти-3%" fill="#000000"></path>
            <path d="M411.098261,271 L408.818261,271 L408.818261,257 L411.098261,257 L411.098261,262.84 L413.858261,262.84 L417.758261,257 L420.338261,257 L415.698261,263.82 L420.698261,271 L418.118261,271 L413.898261,264.94 L411.098261,264.94 L411.098261,271 Z M423.70087,262.9 C424.46087,261.98 425.60087,261.14 427.40087,261.14 C430.28087,261.14 432.16087,263.44 432.16087,266.2 C432.16087,268.96 430.28087,271.26 427.40087,271.26 C425.72087,271.26 424.60087,270.52 423.94087,269.76 L423.94087,275.4 L421.80087,275.4 L421.80087,261.4 L423.70087,261.4 L423.70087,262.9 Z M429.98087,266.2 C429.98087,264.32 428.74087,263.02 427.00087,263.02 C425.52087,263.02 424.40087,263.98 423.94087,265.02 L423.94087,267.36 C424.40087,268.42 425.52087,269.38 427.00087,269.38 C428.74087,269.38 429.98087,268.08 429.98087,266.2 Z M442.203478,268.78 C442.203478,269.32 442.523478,269.48 442.903478,269.48 C443.123478,269.48 443.343478,269.42 443.543478,269.36 L443.543478,270.9 C443.143478,271.06 442.663478,271.14 442.183478,271.14 C441.303478,271.14 440.603478,270.8 440.263478,270.02 C439.323478,270.78 438.143478,271.26 436.643478,271.26 C434.903478,271.26 433.283478,270.3 433.283478,268.32 C433.283478,265.86 435.563478,265.1 437.563478,265.1 C438.383478,265.1 439.303478,265.22 440.063478,265.38 L440.063478,265.04 C440.063478,263.84 439.183478,263 437.543478,263 C436.123478,263 434.943478,263.36 434.083478,263.74 L434.083478,261.78 C434.843478,261.52 436.223478,261.14 437.763478,261.14 C440.483478,261.14 442.203478,262.44 442.203478,265.34 L442.203478,268.78 Z M437.983478,266.6 C436.763478,266.6 435.483478,266.98 435.483478,268.18 C435.483478,269.12 436.323478,269.6 437.283478,269.6 C438.303478,269.6 439.303478,269.22 440.063478,268.46 L440.063478,266.84 C439.483478,266.72 438.663478,266.6 437.983478,266.6 Z M448.706087,268.64 L451.566087,261.4 L453.806087,261.4 L449.306087,272.3 C448.266087,274.8 446.906087,275.64 445.446087,275.64 C445.026087,275.64 444.606087,275.58 444.186087,275.48 L444.186087,273.66 C444.506087,273.76 444.846087,273.8 445.166087,273.8 C446.206087,273.8 446.986087,273.06 447.546087,271.56 L447.746087,271.08 L443.186087,261.4 L445.466087,261.4 L448.706087,268.64 Z M455.468696,273.58 L453.448696,273.58 L453.448696,269.24 L454.768696,269.24 C455.928696,267.18 456.328696,264.74 456.288696,261.4 L463.788696,261.4 L463.788696,269.24 L465.208696,269.24 L465.208696,273.58 L463.188696,273.58 L463.188696,271 L455.468696,271 L455.468696,273.58 Z M458.288696,263.16 C458.208696,265.74 457.808696,267.54 457.008696,269.24 L461.628696,269.24 L461.628696,263.16 L458.288696,263.16 Z M466.151304,266.28 C466.151304,262.7 468.891304,261.14 471.451304,261.14 C472.531304,261.14 473.571304,261.38 474.411304,261.88 L474.411304,263.84 C473.711304,263.34 472.731304,263.04 471.751304,263.04 C470.051304,263.04 468.331304,263.94 468.331304,266.2 C468.331304,268.38 469.991304,269.36 471.711304,269.36 C472.731304,269.36 473.751304,269.06 474.511304,268.62 L474.511304,270.6 C473.591304,271.04 472.551304,271.26 471.331304,271.26 C468.771304,271.26 466.151304,269.7 466.151304,266.28 Z M475.673913,266.2 C475.673913,262.72 478.313913,261.14 480.533913,261.14 C484.353913,261.14 485.673913,264.22 485.053913,267 L477.833913,267 C478.073913,268.72 479.753913,269.44 481.513913,269.44 C482.673913,269.44 483.733913,269.16 484.553913,268.76 L484.553913,270.6 C483.673913,271.02 482.453913,271.26 481.113913,271.26 C478.173913,271.26 475.673913,269.58 475.673913,266.2 Z M483.133913,265.4 C483.253913,264.56 482.733913,262.92 480.633913,262.92 C479.193913,262.92 477.893913,263.78 477.813913,265.4 L483.133913,265.4 Z M488.816522,271 L486.976522,271 L486.976522,261.4 L489.116522,261.4 L489.116522,267.68 L494.256522,261.4 L496.096522,261.4 L496.096522,271 L493.956522,271 L493.956522,264.72 L488.816522,271 Z M502.37913,263.22 C502.09913,267.86 501.37913,271.18 498.81913,271.18 C498.41913,271.18 497.97913,271.1 497.49913,270.92 L497.49913,269.24 C497.71913,269.32 497.91913,269.36 498.11913,269.36 C499.73913,269.36 500.17913,266.16 500.35913,261.4 L507.75913,261.4 L507.75913,271 L505.61913,271 L505.61913,263.22 L502.37913,263.22 Z M440.026087,288.82 C441.406087,287.9 442.726087,287.52 444.286087,287.52 C446.546087,287.52 448.946087,288.94 448.946087,291.78 C448.946087,294.68 446.726087,296.24 444.066087,296.24 C440.126087,296.24 438.326087,293.62 438.326087,289.42 C438.326087,284.42 441.006087,282.16 444.506087,282.16 C445.666087,282.16 446.826087,282.44 447.806087,282.94 L447.806087,284.54 C446.786087,284 445.626087,283.76 444.546087,283.76 C442.266087,283.76 440.226087,285.06 440.026087,288.82 Z M440.046087,290.5 C440.306087,293.36 441.726087,294.68 443.946087,294.68 C445.766087,294.68 447.246087,293.92 447.246087,291.86 C447.246087,289.72 445.626087,289.08 443.866087,289.08 C442.526087,289.08 441.146087,289.52 440.046087,290.5 Z M459.688696,285.86 C459.688696,287.26 458.868696,288.46 457.708696,288.86 C458.868696,289.22 460.248696,290.22 460.248696,292.3 C460.248696,294.94 457.988696,296.24 455.268696,296.24 C453.328696,296.24 451.868696,295.94 450.528696,295.34 L450.528696,293.68 C451.908696,294.4 453.328696,294.68 455.128696,294.66 C457.128696,294.66 458.628696,294 458.628696,292.22 C458.628696,290.36 457.148696,289.78 455.308696,289.78 L453.228696,289.78 L453.228696,288.18 L455.128696,288.2 C457.108696,288.2 458.068696,287.26 458.068696,286 C458.068696,284.6 456.928696,283.72 454.848696,283.72 C453.408696,283.72 452.088696,284.06 450.768696,284.76 L450.768696,283.12 C451.988696,282.5 453.368696,282.16 455.068696,282.16 C457.848696,282.16 459.688696,283.66 459.688696,285.86 Z M466.691304,297.2 L465.091304,297.2 L473.271304,280.8 L474.871304,280.8 L466.691304,297.2 Z M468.231304,284.9 C468.231304,286.92 466.691304,288.04 464.971304,288.04 C463.231304,288.04 461.671304,286.92 461.671304,284.9 C461.671304,282.88 463.231304,281.76 464.971304,281.76 C466.691304,281.76 468.231304,282.88 468.231304,284.9 Z M463.191304,284.9 C463.191304,285.84 463.791304,286.64 464.971304,286.64 C466.111304,286.64 466.711304,285.84 466.711304,284.9 C466.711304,283.96 466.111304,283.16 464.971304,283.16 C463.791304,283.16 463.191304,283.96 463.191304,284.9 Z M478.271304,293.1 C478.271304,295.12 476.731304,296.24 475.011304,296.24 C473.271304,296.24 471.711304,295.12 471.711304,293.1 C471.711304,291.08 473.271304,289.96 475.011304,289.96 C476.731304,289.96 478.271304,291.08 478.271304,293.1 Z M473.231304,293.1 C473.231304,294.04 473.831304,294.84 475.011304,294.84 C476.151304,294.84 476.751304,294.04 476.751304,293.1 C476.751304,292.16 476.151304,291.36 475.011304,291.36 C473.831304,291.36 473.231304,292.16 473.231304,293.1 Z" id="Краудсеил-63%" fill="#000000"></path>
            <path d="M31.6108696,47 L29.3308696,47 L29.3308696,33 L41.0908696,33 L41.0908696,47 L38.8108696,47 L38.8108696,35.1 L31.6108696,35.1 L31.6108696,47 Z M43.0734783,42.2 C43.0734783,38.72 45.7134783,37.14 47.9334783,37.14 C51.7534783,37.14 53.0734783,40.22 52.4534783,43 L45.2334783,43 C45.4734783,44.72 47.1534783,45.44 48.9134783,45.44 C50.0734783,45.44 51.1334783,45.16 51.9534783,44.76 L51.9534783,46.6 C51.0734783,47.02 49.8534783,47.26 48.5134783,47.26 C45.5734783,47.26 43.0734783,45.58 43.0734783,42.2 Z M50.5334783,41.4 C50.6534783,40.56 50.1334783,38.92 48.0334783,38.92 C46.5934783,38.92 45.2934783,39.78 45.2134783,41.4 L50.5334783,41.4 Z M56.276087,38.9 C57.036087,37.98 58.176087,37.14 59.976087,37.14 C62.856087,37.14 64.736087,39.44 64.736087,42.2 C64.736087,44.96 62.856087,47.26 59.976087,47.26 C58.296087,47.26 57.176087,46.52 56.516087,45.76 L56.516087,51.4 L54.376087,51.4 L54.376087,37.4 L56.276087,37.4 L56.276087,38.9 Z M62.556087,42.2 C62.556087,40.32 61.316087,39.02 59.576087,39.02 C58.096087,39.02 56.976087,39.98 56.516087,41.02 L56.516087,43.36 C56.976087,44.42 58.096087,45.38 59.576087,45.38 C61.316087,45.38 62.556087,44.08 62.556087,42.2 Z M72.2386957,47 L66.5986957,47 L66.5986957,37.4 L72.0786957,37.4 C74.0186957,37.4 75.1186957,38.46 75.1186957,39.96 C75.1186957,41.02 74.5786957,41.78 73.7586957,42.14 C74.6586957,42.42 75.3986957,43.18 75.3986957,44.36 C75.3986957,45.84 74.4586957,47 72.2386957,47 Z M68.7386957,42.92 L68.7386957,45.38 L71.7186957,45.38 C72.5986957,45.38 73.2386957,45.08 73.2386957,44.16 C73.2386957,43.18 72.4986957,42.92 71.7586957,42.92 L68.7386957,42.92 Z M68.7386957,39.02 L68.7386957,41.4 L71.5986957,41.4 C72.3586957,41.4 72.9586957,41.1 72.9586957,40.24 C72.9586957,39.3 72.2586957,39.02 71.5986957,39.02 L68.7386957,39.02 Z M82.1013044,47 L77.3413044,47 L77.3413044,37.4 L79.4813044,37.4 L79.4813044,40.6 L82.1013044,40.6 C84.5213044,40.6 85.9013044,41.98 85.9013044,43.8 C85.9013044,45.6 84.5213044,47 82.1013044,47 Z M79.4813044,42.28 L79.4813044,45.3 L81.6813043,45.3 C82.9413043,45.3 83.7213043,44.78 83.7213043,43.8 C83.7213043,42.8 82.9413043,42.28 81.6813043,42.28 L79.4813044,42.28 Z M89.7613044,47 L87.6213044,47 L87.6213044,37.4 L89.7613044,37.4 L89.7613044,47 Z M91.6239131,42.2 C91.6239131,38.72 94.2639131,37.14 96.4839131,37.14 C100.303913,37.14 101.623913,40.22 101.003913,43 L93.7839131,43 C94.0239131,44.72 95.7039131,45.44 97.4639131,45.44 C98.6239131,45.44 99.683913,45.16 100.503913,44.76 L100.503913,46.6 C99.623913,47.02 98.4039131,47.26 97.0639131,47.26 C94.1239131,47.26 91.6239131,45.58 91.6239131,42.2 Z M99.083913,41.4 C99.203913,40.56 98.6839131,38.92 96.5839131,38.92 C95.1439131,38.92 93.8439131,39.78 93.7639131,41.4 L99.083913,41.4 Z M2.9043478,70 L0.7643478,70 L0.7643478,60.4 L9.8443478,60.4 L9.8443478,70 L7.7043478,70 L7.7043478,62.28 L2.9043478,62.28 L2.9043478,70 Z M11.7069565,65.2 C11.7069565,61.88 14.2269565,60.14 16.9069565,60.14 C19.6069565,60.14 22.1069565,61.88 22.1069565,65.2 C22.1069565,68.52 19.6069565,70.26 16.9069565,70.26 C14.2269565,70.26 11.7069565,68.52 11.7069565,65.2 Z M19.9269565,65.2 C19.9269565,63.32 18.6869565,62.1 16.9069565,62.1 C15.1069565,62.1 13.8669565,63.32 13.8669565,65.2 C13.8669565,67.08 15.1069565,68.3 16.9069565,68.3 C18.6869565,68.3 19.9269565,67.08 19.9269565,65.2 Z M27.5895652,62.22 C27.3095652,66.86 26.5895652,70.18 24.0295652,70.18 C23.6295652,70.18 23.1895652,70.1 22.7095652,69.92 L22.7095652,68.24 C22.9295652,68.32 23.1295652,68.36 23.3295652,68.36 C24.9495652,68.36 25.3895652,65.16 25.5695652,60.4 L32.9695652,60.4 L32.9695652,70 L30.8295652,70 L30.8295652,62.22 L27.5895652,62.22 Z M40.1921739,70 L35.4321739,70 L35.4321739,60.4 L37.5721739,60.4 L37.5721739,63.6 L40.1921739,63.6 C42.6121739,63.6 43.9921739,64.98 43.9921739,66.8 C43.9921739,68.6 42.6121739,70 40.1921739,70 Z M37.5721739,65.28 L37.5721739,68.3 L39.7721739,68.3 C41.0321739,68.3 41.8121739,67.78 41.8121739,66.8 C41.8121739,65.8 41.0321739,65.28 39.7721739,65.28 L37.5721739,65.28 Z M53.1547826,67.38 C53.1547826,69.06 51.6147826,70.26 48.6547826,70.26 C47.2147826,70.26 45.9347826,69.94 45.0547826,69.48 L45.0547826,67.64 C45.8347826,68.08 47.2147826,68.44 48.3747826,68.44 C49.7947826,68.44 50.9947826,68.18 50.9947826,67.12 C50.9947826,66.1 49.9547826,65.94 48.9947826,65.94 L47.0347826,65.94 L47.0347826,64.3 L48.9947826,64.3 C50.0147826,64.3 50.7947826,64.02 50.7947826,63.22 C50.7947826,62.36 49.8747826,61.94 48.4947826,61.94 C47.3747826,61.94 46.0547826,62.28 45.2347826,62.72 L45.2347826,60.88 C46.1547826,60.44 47.4347826,60.12 48.7547826,60.12 C51.7147826,60.12 52.9547826,61.38 52.9547826,62.94 C52.9547826,64.08 52.2547826,64.82 51.2547826,65.08 C52.3547826,65.38 53.1547826,66.18 53.1547826,67.38 Z M54.4773913,65.2 C54.4773913,61.88 56.9973913,60.14 59.6773913,60.14 C62.3773913,60.14 64.8773913,61.88 64.8773913,65.2 C64.8773913,68.52 62.3773913,70.26 59.6773913,70.26 C56.9973913,70.26 54.4773913,68.52 54.4773913,65.2 Z M62.6973913,65.2 C62.6973913,63.32 61.4573913,62.1 59.6773913,62.1 C57.8773913,62.1 56.6373913,63.32 56.6373913,65.2 C56.6373913,67.08 57.8773913,68.3 59.6773913,68.3 C61.4573913,68.3 62.6973913,67.08 62.6973913,65.2 Z M72.38,70 L66.74,70 L66.74,60.4 L72.22,60.4 C74.16,60.4 75.26,61.46 75.26,62.96 C75.26,64.02 74.72,64.78 73.9,65.14 C74.8,65.42 75.54,66.18 75.54,67.36 C75.54,68.84 74.6,70 72.38,70 Z M68.88,65.92 L68.88,68.38 L71.86,68.38 C72.74,68.38 73.38,68.08 73.38,67.16 C73.38,66.18 72.64,65.92 71.9,65.92 L68.88,65.92 Z M68.88,62.02 L68.88,64.4 L71.74,64.4 C72.5,64.4 73.1,64.1 73.1,63.24 C73.1,62.3 72.4,62.02 71.74,62.02 L68.88,62.02 Z M85.6626087,67.78 C85.6626087,68.32 85.9826087,68.48 86.3626087,68.48 C86.5826087,68.48 86.8026087,68.42 87.0026087,68.36 L87.0026087,69.9 C86.6026087,70.06 86.1226087,70.14 85.6426087,70.14 C84.7626087,70.14 84.0626087,69.8 83.7226087,69.02 C82.7826087,69.78 81.6026087,70.26 80.1026087,70.26 C78.3626087,70.26 76.7426087,69.3 76.7426087,67.32 C76.7426087,64.86 79.0226087,64.1 81.0226087,64.1 C81.8426087,64.1 82.7626087,64.22 83.5226087,64.38 L83.5226087,64.04 C83.5226087,62.84 82.6426087,62 81.0026087,62 C79.5826087,62 78.4026087,62.36 77.5426087,62.74 L77.5426087,60.78 C78.3026087,60.52 79.6826087,60.14 81.2226087,60.14 C83.9426087,60.14 85.6626087,61.44 85.6626087,64.34 L85.6626087,67.78 Z M81.4426087,65.6 C80.2226087,65.6 78.9426087,65.98 78.9426087,67.18 C78.9426087,68.12 79.7826087,68.6 80.7426087,68.6 C81.7626087,68.6 82.7626087,68.22 83.5226087,67.46 L83.5226087,65.84 C82.9426087,65.72 82.1226087,65.6 81.4426087,65.6 Z M92.4652174,70 L90.3252174,70 L90.3252174,62.28 L87.0052174,62.28 L87.0052174,60.4 L95.7652174,60.4 L95.7652174,62.28 L92.4652174,62.28 L92.4652174,70 Z M96.3678261,65.2 C96.3678261,61.72 99.007826,60.14 101.227826,60.14 C105.047826,60.14 106.367826,63.22 105.747826,66 L98.5278261,66 C98.7678261,67.72 100.447826,68.44 102.207826,68.44 C103.367826,68.44 104.427826,68.16 105.247826,67.76 L105.247826,69.6 C104.367826,70.02 103.147826,70.26 101.807826,70.26 C98.8678261,70.26 96.3678261,68.58 96.3678261,65.2 Z M103.827826,64.4 C103.947826,63.56 103.427826,61.92 101.327826,61.92 C99.887826,61.92 98.5878261,62.78 98.5078261,64.4 L103.827826,64.4 Z M111.490435,62.22 C111.210435,66.86 110.490435,70.18 107.930435,70.18 C107.530435,70.18 107.090435,70.1 106.610435,69.92 L106.610435,68.24 C106.830435,68.32 107.030435,68.36 107.230435,68.36 C108.850435,68.36 109.290435,65.16 109.470435,60.4 L116.870435,60.4 L116.870435,70 L114.730435,70 L114.730435,62.22 L111.490435,62.22 Z M121.173044,70 L119.333044,70 L119.333044,60.4 L121.473044,60.4 L121.473044,66.68 L126.613044,60.4 L128.453044,60.4 L128.453044,70 L126.313044,70 L126.313044,63.72 L121.173044,70 Z M45.616087,82.48 C46.976087,81.54 48.476087,81.16 49.976087,81.16 C52.756087,81.16 54.616087,82.48 54.616087,84.8 C54.616087,87.12 52.676087,88.46 50.776087,89.58 C48.876087,90.7 47.016087,91.62 46.976087,93.42 L54.716087,93.4 L54.716087,95 L45.136087,95 L45.136087,94.2 C45.136087,90.88 47.576087,89.62 49.696087,88.38 C51.396087,87.38 52.936087,86.54 52.936087,84.78 C52.936087,83.44 51.796087,82.72 49.836087,82.72 C48.456087,82.72 47.016087,83.18 45.616087,84.16 L45.616087,82.48 Z M65.7186957,84.86 C65.7186957,86.26 64.8986957,87.46 63.7386957,87.86 C64.8986957,88.22 66.2786957,89.22 66.2786957,91.3 C66.2786957,93.94 64.0186957,95.24 61.2986957,95.24 C59.3586957,95.24 57.8986957,94.94 56.5586957,94.34 L56.5586957,92.68 C57.9386957,93.4 59.3586957,93.68 61.1586957,93.66 C63.1586956,93.66 64.6586956,93 64.6586956,91.22 C64.6586956,89.36 63.1786957,88.78 61.3386957,88.78 L59.2586957,88.78 L59.2586957,87.18 L61.1586957,87.2 C63.1386957,87.2 64.0986957,86.26 64.0986957,85 C64.0986957,83.6 62.9586957,82.72 60.8786957,82.72 C59.4386957,82.72 58.1186957,83.06 56.7986957,83.76 L56.7986957,82.12 C58.0186957,81.5 59.3986957,81.16 61.0986957,81.16 C63.8786956,81.16 65.7186957,82.66 65.7186957,84.86 Z M72.7213043,96.2 L71.1213044,96.2 L79.3013044,79.8 L80.9013044,79.8 L72.7213043,96.2 Z M74.2613044,83.9 C74.2613044,85.92 72.7213043,87.04 71.0013043,87.04 C69.2613044,87.04 67.7013044,85.92 67.7013044,83.9 C67.7013044,81.88 69.2613044,80.76 71.0013043,80.76 C72.7213043,80.76 74.2613044,81.88 74.2613044,83.9 Z M69.2213044,83.9 C69.2213044,84.84 69.8213044,85.64 71.0013044,85.64 C72.1413044,85.64 72.7413044,84.84 72.7413044,83.9 C72.7413044,82.96 72.1413044,82.16 71.0013044,82.16 C69.8213044,82.16 69.2213044,82.96 69.2213044,83.9 Z M84.3013044,92.1 C84.3013044,94.12 82.7613044,95.24 81.0413044,95.24 C79.3013044,95.24 77.7413044,94.12 77.7413044,92.1 C77.7413044,90.08 79.3013044,88.96 81.0413044,88.96 C82.7613044,88.96 84.3013044,90.08 84.3013044,92.1 Z M79.2613044,92.1 C79.2613044,93.04 79.8613044,93.84 81.0413044,93.84 C82.1813044,93.84 82.7813043,93.04 82.7813043,92.1 C82.7813043,91.16 82.1813044,90.36 81.0413044,90.36 C79.8613044,90.36 79.2613044,91.16 79.2613044,92.1 Z" id="Первые-пользователи" fill="#000000"></path>
        </g>
    </g>
</svg>