<?xml version="1.0" encoding="UTF-8" standalone="no"?>
<svg width="474px" height="407px" viewBox="0 0 474 407" version="1.1" xmlns="http://www.w3.org/2000/svg" xmlns:xlink="http://www.w3.org/1999/xlink">
    <!-- Generator: Sketch 49 (51002) - http://www.bohemiancoding.com/sketch -->
    <title>Group</title>
    <desc>Created with Sketch.</desc>
    <defs>
        <radialGradient cx="0%" cy="171.555465%" fx="0%" fy="171.555465%" r="173.701802%" gradientTransform="translate(0.000000,1.715555),scale(0.891551,1.000000),rotate(108.836217),translate(-0.000000,-1.715555)" id="radialGradient-1">
            <stop stop-color="#FE5D5D" offset="0%"></stop>
            <stop stop-color="#FE6060" offset="53.0512596%"></stop>
            <stop stop-color="#FF9696" offset="100%"></stop>
        </radialGradient>
        <radialGradient cx="-48.0351181%" cy="54.5945858%" fx="-48.0351181%" fy="54.5945858%" r="147.54738%" gradientTransform="translate(-0.480351,0.545946),scale(1.000000,0.462001),rotate(78.429240),translate(0.480351,-0.545946)" id="radialGradient-2">
            <stop stop-color="#D9477F" offset="0%"></stop>
            <stop stop-color="#DA4A82" offset="54.942641%"></stop>
            <stop stop-color="#EE7DB6" offset="100%"></stop>
        </radialGradient>
        <radialGradient cx="55.0578981%" cy="39.2325569%" fx="55.0578981%" fy="39.2325569%" r="64.5080562%" gradientTransform="translate(0.550579,0.392326),scale(0.846762,1.000000),rotate(160.515901),translate(-0.550579,-0.392326)" id="radialGradient-3">
            <stop stop-color="#9A2DBB" offset="0%"></stop>
            <stop stop-color="#9D30BD" offset="54.5020201%"></stop>
            <stop stop-color="#CA59DF" offset="100%"></stop>
        </radialGradient>
        <radialGradient cx="100%" cy="149.510785%" fx="100%" fy="149.510785%" r="149.579001%" gradientTransform="translate(1.000000,1.495108),scale(0.836470,1.000000),rotate(-113.554538),translate(-1.000000,-1.495108)" id="radialGradient-4">
            <stop stop-color="#560CFF" offset="0%"></stop>
            <stop stop-color="#5C0EFF" offset="54.7672266%"></stop>
            <stop stop-color="#8F1CFF" offset="100%"></stop>
        </radialGradient>
    </defs>
    <g id="Monoreto" stroke="none" stroke-width="1" fill="none" fill-rule="evenodd">
        <g id="Distributions-Copy-2" transform="translate(-748.000000, -63.000000)">
            <g id="Group" transform="translate(746.000000, 61.000000)">
                <g id="Page-1" transform="translate(25.000000, 51.000000)">
                    <g id="Group-9">
                        <path d="M167,0.35 C187.0901,0.35 206.5441,3.8679 225.362,10.9036 C244.1799,17.9393 261.17,28.0473 276.3322,41.2277 L227.1327,97.8252 C218.7935,90.576 209.449,85.0166 199.0991,81.147 C188.7493,77.2773 178.0496,75.3425 167,75.3425 L167,0.35 Z" id="Fill-4" fill="url(#radialGradient-1)"></path>
                        <path d="M265.0795,32 C283.9796,45.7318 299.3142,62.688 311.0832,82.8688 C322.8523,103.0495 330.0592,124.7457 332.7038,147.9574 C335.3484,171.169 333.2068,193.9303 326.2791,216.2413 C319.3514,238.5523 308.2242,258.5235 292.8975,276.1549 L236.2999,226.9554 C244.7296,217.2582 250.8496,206.274 254.6598,194.0029 C258.4701,181.7319 259.6479,169.2132 258.1934,156.4468 C256.7388,143.6804 252.7751,131.7475 246.3021,120.648 C239.8291,109.5486 231.3951,100.2227 221,92.6702 L265.0795,32 Z" id="Fill-6" fill="url(#radialGradient-2)"></path>
                        <path d="M295.787818,272.768578 C288.390307,281.784683 280.10487,289.95204 270.9316,297.2706 C259.1765,306.649 246.3864,314.2961 232.5612,320.2121 C218.7361,326.128 204.3733,330.0999 189.4729,332.1278 C174.5724,334.1557 159.6706,334.1665 144.7673,332.1603 C129.8639,330.1541 115.4954,326.2031 101.6616,320.3072 C87.8278,314.4114 75.0266,306.7828 63.2579,297.4216 C51.4892,288.0604 41.1766,277.3033 32.3199,265.1504 C23.4632,252.9975 16.3813,239.8859 11.074,225.8159 C5.7667,211.7458 2.4251,197.2234 1.0491,182.2487 C-0.3269,167.274 0.3123,152.3859 2.9666,137.5842 C5.621,122.7826 10.195,108.6 16.6887,95.0366 C23.1823,81.4732 31.362,69.0169 41.2276,57.6677 L97.8252,106.8673 C92.3991,113.1093 87.9003,119.9603 84.3288,127.4202 C80.7572,134.8801 78.2415,142.6805 76.7816,150.8214 C75.3217,158.9623 74.9702,167.1508 75.727,175.3869 C76.4837,183.6229 78.3216,191.6102 81.2406,199.3488 C84.1596,207.0874 88.0547,214.2987 92.9259,220.9828 C97.7971,227.6669 103.4691,233.5833 109.9418,238.732 C116.4146,243.8807 123.4553,248.0764 131.0638,251.3191 C138.6724,254.5618 146.5751,256.7348 154.772,257.8383 C162.9688,258.9417 171.1649,258.9357 179.3601,257.8204 C187.5554,256.7051 195.4549,254.5205 203.0587,251.2667 C210.6626,248.0129 217.6971,243.807 224.1624,238.6489 C228.590596,235.116028 232.642563,231.223536 236.318368,226.971454 L236.2999,226.9554 C236.573683,226.652243 236.845397,226.346193 237.11504,226.037252 C238.517267,224.37039 239.863085,222.649606 241.1525,220.8749 L241.204897,220.912969 C246.711926,213.370846 251.196893,204.400823 254.6598,194.0029 L326.2791,216.2413 C319.259485,237.873584 309.095724,256.71601 295.787818,272.768578 Z" id="Combined-Shape" fill="url(#radialGradient-3)"></path>
                        <path d="M32.1773,69.0456 C39.9067,58.4074 48.771,48.8183 58.7701,40.2783 C68.7693,31.7383 79.627,24.4835 91.3433,18.5137 C103.0596,12.544 115.3108,8.0242 128.0969,4.9546 C140.883,1.8849 153.8507,0.35 167,0.35 L166.9984,75.3425 C152.3286,75.3427 138.4584,78.6729 125.3877,85.3329 C112.3169,91.993 101.4702,101.257 92.8476,113.1251 L32.1773,69.0456 Z" id="Fill-8" fill="url(#radialGradient-4)"></path>
                    </g>
                </g>
                <path d="M140.064348,197 L144.964348,197 C149.924348,197 152.324348,199.94 152.324348,204 C152.324348,208.06 149.924348,211 144.964348,211 L140.064348,211 L140.064348,197 Z M150.004348,204 C150.004348,200.86 148.264348,199.08 144.944348,199.08 L142.344348,199.08 L142.344348,208.92 L144.944348,208.92 C148.264348,208.92 150.004348,207.14 150.004348,204 Z M156.386956,211 L154.246956,211 L154.246956,201.4 L156.386956,201.4 L156.386956,211 Z M156.626956,198.28 C156.626956,199.16 156.026956,199.56 155.326956,199.56 C154.626956,199.56 154.006956,199.16 154.006956,198.28 C154.006956,197.44 154.626956,197.02 155.326956,197.02 C156.026956,197.02 156.626956,197.44 156.626956,198.28 Z M158.389565,204 C158.389565,201.9 160.309565,201.14 162.209565,201.14 C163.529565,201.14 164.729565,201.48 165.669565,201.96 L165.669565,203.84 C164.869565,203.3 163.489565,202.9 162.349565,202.9 C161.489565,202.9 160.569565,203.16 160.569565,203.94 C160.569565,205.8 166.349565,204.94 166.349565,208.44 C166.349565,210.56 164.389565,211.26 162.209565,211.26 C160.809565,211.26 159.389565,210.92 158.449565,210.34 L158.449565,208.44 C159.449565,209.1 160.909565,209.46 162.109565,209.46 C163.309565,209.46 164.189565,209.26 164.189565,208.48 C164.189565,206.7 158.389565,207.44 158.389565,204 Z M168.772174,198.5 L170.892174,197.98 L170.892174,201.4 L174.372174,201.4 L174.372174,203.28 L170.892174,203.28 L170.892174,207.68 C170.892174,208.94 171.472174,209.36 172.712174,209.36 C173.412174,209.36 174.052174,209.22 174.652174,208.98 L174.652174,210.82 C173.932174,211.08 173.012174,211.24 172.072174,211.24 C170.212174,211.24 168.772174,210.32 168.772174,208.08 L168.772174,203.28 L167.052174,203.28 L167.052174,201.4 L168.772174,201.4 L168.772174,198.5 Z M178.074783,202.98 C178.814783,201.8 180.374783,201.04 182.114783,201.2 L182.114783,203.3 C180.394783,203.06 178.894783,203.82 178.314783,205.18 L178.314783,211 L176.174783,211 L176.174783,201.4 L178.074783,201.4 L178.074783,202.98 Z M185.697391,211 L183.557391,211 L183.557391,201.4 L185.697391,201.4 L185.697391,211 Z M185.937391,198.28 C185.937391,199.16 185.337391,199.56 184.637391,199.56 C183.937391,199.56 183.317391,199.16 183.317391,198.28 C183.317391,197.44 183.937391,197.02 184.637391,197.02 C185.337391,197.02 185.937391,197.44 185.937391,198.28 Z M188.2,197 L190.34,197 L190.34,202.64 C191,201.9 192.12,201.14 193.8,201.14 C196.68,201.14 198.56,203.44 198.56,206.2 C198.56,208.96 196.68,211.26 193.8,211.26 C192,211.26 190.86,210.42 190.1,209.48 L190.1,211 L188.2,211 L188.2,197 Z M196.38,206.2 C196.38,204.32 195.14,203.02 193.4,203.02 C191.92,203.02 190.8,203.98 190.34,205.02 L190.34,207.36 C190.8,208.42 191.92,209.38 193.4,209.38 C195.14,209.38 196.38,208.08 196.38,206.2 Z M207.382609,201.4 L209.522609,201.4 L209.522609,211 L207.622609,211 L207.622609,209.68 C206.922609,210.52 205.742609,211.26 204.282609,211.26 C201.742609,211.26 200.322609,209.62 200.322609,207.34 L200.322609,201.4 L202.462609,201.4 L202.462609,207.06 C202.462609,208.62 203.282609,209.36 204.702609,209.36 C205.922609,209.36 206.842609,208.54 207.382609,207.76 L207.382609,201.4 Z M212.685217,198.5 L214.805217,197.98 L214.805217,201.4 L218.285217,201.4 L218.285217,203.28 L214.805217,203.28 L214.805217,207.68 C214.805217,208.94 215.385217,209.36 216.625217,209.36 C217.325217,209.36 217.965217,209.22 218.565217,208.98 L218.565217,210.82 C217.845217,211.08 216.925217,211.24 215.985217,211.24 C214.125217,211.24 212.685217,210.32 212.685217,208.08 L212.685217,203.28 L210.965217,203.28 L210.965217,201.4 L212.685217,201.4 L212.685217,198.5 Z M222.267826,211 L220.127826,211 L220.127826,201.4 L222.267826,201.4 L222.267826,211 Z M222.507826,198.28 C222.507826,199.16 221.907826,199.56 221.207826,199.56 C220.507826,199.56 219.887826,199.16 219.887826,198.28 C219.887826,197.44 220.507826,197.02 221.207826,197.02 C221.907826,197.02 222.507826,197.44 222.507826,198.28 Z M224.170435,206.2 C224.170435,202.88 226.690435,201.14 229.370435,201.14 C232.070435,201.14 234.570435,202.88 234.570435,206.2 C234.570435,209.52 232.070435,211.26 229.370435,211.26 C226.690435,211.26 224.170435,209.52 224.170435,206.2 Z M232.390435,206.2 C232.390435,204.32 231.150435,203.1 229.370435,203.1 C227.570435,203.1 226.330435,204.32 226.330435,206.2 C226.330435,208.08 227.570435,209.3 229.370435,209.3 C231.150435,209.3 232.390435,208.08 232.390435,206.2 Z M238.333044,202.72 C239.033044,201.88 240.213044,201.14 241.673044,201.14 C244.093044,201.14 245.633044,202.78 245.633044,205.06 L245.633044,211 L243.493044,211 L243.493044,205.34 C243.493044,203.78 242.533044,203.04 241.253044,203.04 C240.033044,203.04 239.113044,203.86 238.573044,204.64 L238.573044,211 L236.433044,211 L236.433044,201.4 L238.333044,201.4 L238.333044,202.72 Z M144.255565,233.76 C144.255565,229.444 147.531565,227.182 151.015565,227.182 C154.525565,227.182 157.775565,229.444 157.775565,233.76 C157.775565,238.076 154.525565,240.338 151.015565,240.338 C147.531565,240.338 144.255565,238.076 144.255565,233.76 Z M154.941565,233.76 C154.941565,231.316 153.329565,229.73 151.015565,229.73 C148.675565,229.73 147.063565,231.316 147.063565,233.76 C147.063565,236.204 148.675565,237.79 151.015565,237.79 C153.329565,237.79 154.941565,236.204 154.941565,233.76 Z M163.928174,240 L161.146174,240 L161.146174,229.964 L158.884174,229.964 L158.884174,227.52 L161.146174,227.52 L161.146174,226.142 C161.146174,222.528 163.512174,221.462 165.800174,221.462 C166.944174,221.462 168.036174,221.696 168.894174,222.008 L168.894174,224.452 C168.270174,224.14 167.360174,223.906 166.476174,223.906 C165.124174,223.906 163.928174,224.296 163.928174,226.246 L163.928174,227.52 L168.192174,227.52 L168.192174,229.964 L163.928174,229.964 L163.928174,240 Z M179.249391,240 L176.467391,240 L176.467391,229.964 L174.205391,229.964 L174.205391,227.52 L176.467391,227.52 L176.467391,226.142 C176.467391,222.528 178.833391,221.462 181.121391,221.462 C182.265391,221.462 183.357391,221.696 184.215391,222.008 L184.215391,224.452 C183.591391,224.14 182.681391,223.906 181.797391,223.906 C180.445391,223.906 179.249391,224.296 179.249391,226.246 L179.249391,227.52 L183.513391,227.52 L183.513391,229.964 L179.249391,229.964 L179.249391,240 Z M194.372,227.52 L197.154,227.52 L197.154,240 L194.684,240 L194.684,238.284 C193.774,239.376 192.24,240.338 190.342,240.338 C187.04,240.338 185.194,238.206 185.194,235.242 L185.194,227.52 L187.976,227.52 L187.976,234.878 C187.976,236.906 189.042,237.868 190.888,237.868 C192.474,237.868 193.67,236.802 194.372,235.788 L194.372,227.52 Z M202.890609,229.236 C203.800609,228.144 205.334609,227.182 207.232609,227.182 C210.378609,227.182 212.380609,229.314 212.380609,232.278 L212.380609,240 L209.598609,240 L209.598609,232.642 C209.598609,230.614 208.350609,229.652 206.686609,229.652 C205.100609,229.652 203.904609,230.718 203.202609,231.732 L203.202609,240 L200.420609,240 L200.420609,227.52 L202.890609,227.52 L202.890609,229.236 Z M225.397217,221.8 L228.179217,221.8 L228.179217,240 L225.683217,240 L225.683217,238.024 C224.721217,239.246 223.239217,240.338 220.899217,240.338 C217.129217,240.338 214.711217,237.348 214.711217,233.76 C214.711217,230.172 217.129217,227.182 220.899217,227.182 C223.083217,227.182 224.539217,228.144 225.397217,229.132 L225.397217,221.8 Z M225.371217,232.226 C224.773217,230.874 223.343217,229.626 221.393217,229.626 C219.157217,229.626 217.519217,231.316 217.519217,233.76 C217.519217,236.204 219.157217,237.894 221.393217,237.894 C223.343217,237.894 224.773217,236.646 225.371217,235.268 L225.371217,232.226 Z M230.795826,230.9 C230.795826,228.17 233.291826,227.182 235.761826,227.182 C237.477826,227.182 239.037826,227.624 240.259826,228.248 L240.259826,230.692 C239.219826,229.99 237.425826,229.47 235.943826,229.47 C234.825826,229.47 233.629826,229.808 233.629826,230.822 C233.629826,233.24 241.143826,232.122 241.143826,236.672 C241.143826,239.428 238.595826,240.338 235.761826,240.338 C233.941826,240.338 232.095826,239.896 230.873826,239.142 L230.873826,236.672 C232.173826,237.53 234.071826,237.998 235.631826,237.998 C237.191826,237.998 238.335826,237.738 238.335826,236.724 C238.335826,234.41 230.795826,235.372 230.795826,230.9 Z" id="Distribution-of-fund" fill="#000000"></path>
                <path d="M282.373478,3 L284.653478,3 L284.653478,14.88 L292.013478,14.88 L292.013478,17 L282.373478,17 L282.373478,3 Z M292.636087,12.2 C292.636087,8.72 295.276087,7.14 297.496087,7.14 C301.316087,7.14 302.636087,10.22 302.016087,13 L294.796087,13 C295.036087,14.72 296.716087,15.44 298.476087,15.44 C299.636087,15.44 300.696087,15.16 301.516087,14.76 L301.516087,16.6 C300.636087,17.02 299.416087,17.26 298.076087,17.26 C295.136087,17.26 292.636087,15.58 292.636087,12.2 Z M300.096087,11.4 C300.216087,10.56 299.696087,8.92 297.596087,8.92 C296.156087,8.92 294.856087,9.78 294.776087,11.4 L300.096087,11.4 Z M303.378696,12.2 C303.378696,9.44 305.238696,7.14 308.138696,7.14 C309.938696,7.14 311.078696,7.98 311.818696,8.9 L311.818696,7.4 L313.738696,7.4 L313.738696,16.88 C313.738696,20.34 311.098696,21.66 308.358696,21.66 C306.898696,21.66 305.538696,21.34 304.398696,20.76 L304.398696,18.8 C305.498696,19.44 306.778696,19.78 308.078696,19.78 C309.978696,19.78 311.598696,19.1 311.598696,16.94 L311.598696,15.72 C310.938696,16.5 309.818696,17.26 308.138696,17.26 C305.238696,17.26 303.378696,14.96 303.378696,12.2 Z M311.578696,11.02 C311.118696,9.98 310.018696,9.02 308.518696,9.02 C306.798696,9.02 305.538696,10.32 305.538696,12.2 C305.538696,14.08 306.798696,15.38 308.518696,15.38 C310.018696,15.38 311.118696,14.48 311.578696,13.5 L311.578696,11.02 Z M324.381304,14.78 C324.381304,15.32 324.701304,15.48 325.081304,15.48 C325.301304,15.48 325.521304,15.42 325.721304,15.36 L325.721304,16.9 C325.321304,17.06 324.841304,17.14 324.361304,17.14 C323.481304,17.14 322.781304,16.8 322.441304,16.02 C321.501304,16.78 320.321304,17.26 318.821304,17.26 C317.081304,17.26 315.461304,16.3 315.461304,14.32 C315.461304,11.86 317.741304,11.1 319.741304,11.1 C320.561304,11.1 321.481304,11.22 322.241304,11.38 L322.241304,11.04 C322.241304,9.84 321.361304,9 319.721304,9 C318.301304,9 317.121304,9.36 316.261304,9.74 L316.261304,7.78 C317.021304,7.52 318.401304,7.14 319.941304,7.14 C322.661304,7.14 324.381304,8.44 324.381304,11.34 L324.381304,14.78 Z M320.161304,12.6 C318.941304,12.6 317.661304,12.98 317.661304,14.18 C317.661304,15.12 318.501304,15.6 319.461304,15.6 C320.481304,15.6 321.481304,15.22 322.241304,14.46 L322.241304,12.84 C321.661304,12.72 320.841304,12.6 320.161304,12.6 Z M327.023913,2.4 L329.163913,2.4 L329.163913,17 L327.023913,17 L327.023913,2.4 Z M262.256957,31.98 C262.996957,30.8 264.556957,30.04 266.296957,30.2 L266.296957,32.3 C264.576956,32.06 263.076956,32.82 262.496957,34.18 L262.496957,40 L260.356957,40 L260.356957,30.4 L262.256957,30.4 L262.256957,31.98 Z M266.839565,35.2 C266.839565,31.72 269.479565,30.14 271.699565,30.14 C275.519565,30.14 276.839565,33.22 276.219565,36 L268.999565,36 C269.239565,37.72 270.919565,38.44 272.679565,38.44 C273.839565,38.44 274.899565,38.16 275.719565,37.76 L275.719565,39.6 C274.839565,40.02 273.619565,40.26 272.279565,40.26 C269.339565,40.26 266.839565,38.58 266.839565,35.2 Z M274.299565,34.4 C274.419565,33.56 273.899565,31.92 271.799565,31.92 C270.359565,31.92 269.059565,32.78 268.979565,34.4 L274.299565,34.4 Z M277.582174,35.2 C277.582174,32.44 279.442174,30.14 282.342174,30.14 C284.142174,30.14 285.282174,30.98 286.022174,31.9 L286.022174,30.4 L287.942174,30.4 L287.942174,39.88 C287.942174,43.34 285.302174,44.66 282.562174,44.66 C281.102174,44.66 279.742174,44.34 278.602174,43.76 L278.602174,41.8 C279.702174,42.44 280.982174,42.78 282.282174,42.78 C284.182174,42.78 285.802174,42.1 285.802174,39.94 L285.802174,38.72 C285.142174,39.5 284.022174,40.26 282.342174,40.26 C279.442174,40.26 277.582174,37.96 277.582174,35.2 Z M285.782174,34.02 C285.322174,32.98 284.222174,32.02 282.722174,32.02 C281.002174,32.02 279.742174,33.32 279.742174,35.2 C279.742174,37.08 281.002174,38.38 282.722174,38.38 C284.222174,38.38 285.322174,37.48 285.782174,36.5 L285.782174,34.02 Z M297.364783,30.4 L299.504783,30.4 L299.504783,40 L297.604783,40 L297.604783,38.68 C296.904783,39.52 295.724783,40.26 294.264783,40.26 C291.724783,40.26 290.304783,38.62 290.304783,36.34 L290.304783,30.4 L292.444783,30.4 L292.444783,36.06 C292.444783,37.62 293.264783,38.36 294.684783,38.36 C295.904783,38.36 296.824783,37.54 297.364783,36.76 L297.364783,30.4 Z M302.007391,25.4 L304.147391,25.4 L304.147391,40 L302.007391,40 L302.007391,25.4 Z M314.83,37.78 C314.83,38.32 315.15,38.48 315.53,38.48 C315.75,38.48 315.97,38.42 316.17,38.36 L316.17,39.9 C315.77,40.06 315.29,40.14 314.81,40.14 C313.93,40.14 313.23,39.8 312.89,39.02 C311.95,39.78 310.77,40.26 309.27,40.26 C307.53,40.26 305.91,39.3 305.91,37.32 C305.91,34.86 308.19,34.1 310.19,34.1 C311.01,34.1 311.93,34.22 312.69,34.38 L312.69,34.04 C312.69,32.84 311.81,32 310.17,32 C308.75,32 307.57,32.36 306.71,32.74 L306.71,30.78 C307.47,30.52 308.85,30.14 310.39,30.14 C313.11,30.14 314.83,31.44 314.83,34.34 L314.83,37.78 Z M310.61,35.6 C309.39,35.6 308.11,35.98 308.11,37.18 C308.11,38.12 308.95,38.6 309.91,38.6 C310.93,38.6 311.93,38.22 312.69,37.46 L312.69,35.84 C312.11,35.72 311.29,35.6 310.61,35.6 Z M318.032609,27.5 L320.152609,26.98 L320.152609,30.4 L323.632609,30.4 L323.632609,32.28 L320.152609,32.28 L320.152609,36.68 C320.152609,37.94 320.732609,38.36 321.972609,38.36 C322.672609,38.36 323.312609,38.22 323.912609,37.98 L323.912609,39.82 C323.192609,40.08 322.272609,40.24 321.332609,40.24 C319.472609,40.24 318.032609,39.32 318.032609,37.08 L318.032609,32.28 L316.312609,32.28 L316.312609,30.4 L318.032609,30.4 L318.032609,27.5 Z M327.615217,40 L325.475217,40 L325.475217,30.4 L327.615217,30.4 L327.615217,40 Z M327.855217,27.28 C327.855217,28.16 327.255217,28.56 326.555217,28.56 C325.855217,28.56 325.235217,28.16 325.235217,27.28 C325.235217,26.44 325.855217,26.02 326.555217,26.02 C327.255217,26.02 327.855217,26.44 327.855217,27.28 Z M329.517826,35.2 C329.517826,31.88 332.037826,30.14 334.717826,30.14 C337.417826,30.14 339.917826,31.88 339.917826,35.2 C339.917826,38.52 337.417826,40.26 334.717826,40.26 C332.037826,40.26 329.517826,38.52 329.517826,35.2 Z M337.737826,35.2 C337.737826,33.32 336.497826,32.1 334.717826,32.1 C332.917826,32.1 331.677826,33.32 331.677826,35.2 C331.677826,37.08 332.917826,38.3 334.717826,38.3 C336.497826,38.3 337.737826,37.08 337.737826,35.2 Z M343.680435,31.72 C344.380435,30.88 345.560435,30.14 347.020435,30.14 C349.440435,30.14 350.980435,31.78 350.980435,34.06 L350.980435,40 L348.840435,40 L348.840435,34.34 C348.840435,32.78 347.880435,32.04 346.600435,32.04 C345.380435,32.04 344.460435,32.86 343.920435,33.64 L343.920435,40 L341.780435,40 L341.780435,30.4 L343.680435,30.4 L343.680435,31.72 Z M289.896087,51.4 L291.136087,51.4 L291.136087,63.4 L293.676087,63.4 L293.676087,65 L286.596087,65 L286.596087,63.4 L289.456087,63.4 L289.456087,53.18 L286.596087,54.26 L286.596087,52.66 L289.896087,51.4 Z M294.938696,58.2 C294.938696,54.18 296.818696,51.16 300.938696,51.16 C305.078696,51.16 306.958696,54.18 306.958696,58.2 C306.958696,62.22 305.078696,65.24 300.938696,65.24 C296.818696,65.24 294.938696,62.22 294.938696,58.2 Z M305.258696,58.2 C305.258696,54.8 303.918696,52.76 300.938696,52.76 C297.978696,52.76 296.638696,54.8 296.638696,58.2 C296.638696,61.6 297.978696,63.64 300.938696,63.64 C303.918696,63.64 305.258696,61.6 305.258696,58.2 Z M313.441304,66.2 L311.841304,66.2 L320.021304,49.8 L321.621304,49.8 L313.441304,66.2 Z M314.981304,53.9 C314.981304,55.92 313.441304,57.04 311.721304,57.04 C309.981304,57.04 308.421304,55.92 308.421304,53.9 C308.421304,51.88 309.981304,50.76 311.721304,50.76 C313.441304,50.76 314.981304,51.88 314.981304,53.9 Z M309.941304,53.9 C309.941304,54.84 310.541304,55.64 311.721304,55.64 C312.861304,55.64 313.461304,54.84 313.461304,53.9 C313.461304,52.96 312.861304,52.16 311.721304,52.16 C310.541304,52.16 309.941304,52.96 309.941304,53.9 Z M325.021304,62.1 C325.021304,64.12 323.481304,65.24 321.761304,65.24 C320.021304,65.24 318.461304,64.12 318.461304,62.1 C318.461304,60.08 320.021304,58.96 321.761304,58.96 C323.481304,58.96 325.021304,60.08 325.021304,62.1 Z M319.981304,62.1 C319.981304,63.04 320.581304,63.84 321.761304,63.84 C322.901304,63.84 323.501304,63.04 323.501304,62.1 C323.501304,61.16 322.901304,60.36 321.761304,60.36 C320.581304,60.36 319.981304,61.16 319.981304,62.1 Z" id="Legal-regulation-10%" fill="#000000"></path>
                <path d="M377.019565,104 L382.019565,104 C385.339565,104 387.999565,105.04 387.999565,108.6 C387.999565,112.16 385.339565,113.2 382.019565,113.2 L379.299565,113.2 L379.299565,118 L377.019565,118 L377.019565,104 Z M385.679565,108.6 C385.679565,106.56 384.079565,106.08 382.139565,106.08 L379.299565,106.08 L379.299565,111.12 L382.139565,111.12 C384.059565,111.12 385.679565,110.64 385.679565,108.6 Z M389.742174,103.4 L391.882174,103.4 L391.882174,118 L389.742174,118 L389.742174,103.4 Z M402.564783,115.78 C402.564783,116.32 402.884783,116.48 403.264783,116.48 C403.484783,116.48 403.704783,116.42 403.904783,116.36 L403.904783,117.9 C403.504783,118.06 403.024783,118.14 402.544783,118.14 C401.664783,118.14 400.964783,117.8 400.624783,117.02 C399.684783,117.78 398.504783,118.26 397.004783,118.26 C395.264783,118.26 393.644783,117.3 393.644783,115.32 C393.644783,112.86 395.924783,112.1 397.924783,112.1 C398.744783,112.1 399.664783,112.22 400.424783,112.38 L400.424783,112.04 C400.424783,110.84 399.544783,110 397.904783,110 C396.484783,110 395.304783,110.36 394.444783,110.74 L394.444783,108.78 C395.204783,108.52 396.584783,108.14 398.124783,108.14 C400.844783,108.14 402.564783,109.44 402.564783,112.34 L402.564783,115.78 Z M398.344783,113.6 C397.124783,113.6 395.844783,113.98 395.844783,115.18 C395.844783,116.12 396.684783,116.6 397.644783,116.6 C398.664783,116.6 399.664783,116.22 400.424783,115.46 L400.424783,113.84 C399.844783,113.72 399.024783,113.6 398.344783,113.6 Z M405.767391,105.5 L407.887391,104.98 L407.887391,108.4 L411.367391,108.4 L411.367391,110.28 L407.887391,110.28 L407.887391,114.68 C407.887391,115.94 408.467391,116.36 409.707391,116.36 C410.407391,116.36 411.047391,116.22 411.647391,115.98 L411.647391,117.82 C410.927391,118.08 410.007391,118.24 409.067391,118.24 C407.207391,118.24 405.767391,117.32 405.767391,115.08 L405.767391,110.28 L404.047391,110.28 L404.047391,108.4 L405.767391,108.4 L405.767391,105.5 Z M416.15,118 L414.01,118 L414.01,110.28 L412.27,110.28 L412.27,108.4 L414.01,108.4 L414.01,107.34 C414.01,104.56 415.83,103.74 417.59,103.74 C418.47,103.74 419.31,103.92 419.97,104.16 L419.97,106.04 C419.49,105.8 418.79,105.62 418.11,105.62 C417.07,105.62 416.15,105.92 416.15,107.42 L416.15,108.4 L419.43,108.4 L419.43,110.28 L416.15,110.28 L416.15,118 Z M419.952609,113.2 C419.952609,109.88 422.472609,108.14 425.152609,108.14 C427.852609,108.14 430.352609,109.88 430.352609,113.2 C430.352609,116.52 427.852609,118.26 425.152609,118.26 C422.472609,118.26 419.952609,116.52 419.952609,113.2 Z M428.172609,113.2 C428.172609,111.32 426.932609,110.1 425.152609,110.1 C423.352609,110.1 422.112609,111.32 422.112609,113.2 C422.112609,115.08 423.352609,116.3 425.152609,116.3 C426.932609,116.3 428.172609,115.08 428.172609,113.2 Z M434.115217,109.98 C434.855217,108.8 436.415217,108.04 438.155217,108.2 L438.155217,110.3 C436.435217,110.06 434.935217,110.82 434.355217,112.18 L434.355217,118 L432.215217,118 L432.215217,108.4 L434.115217,108.4 L434.115217,109.98 Z M441.697826,118 L439.557826,118 L439.557826,108.4 L441.457826,108.4 L441.457826,109.6 C441.977826,109.02 443.097826,108.14 444.657826,108.14 C446.097826,108.14 447.097826,108.74 447.657826,109.68 C448.497826,108.84 449.617826,108.14 451.017826,108.14 C453.557826,108.14 454.657826,110.02 454.657826,112 L454.657826,118 L452.517826,118 L452.517826,112.06 C452.517826,110.82 451.777826,110.04 450.617826,110.04 C449.557826,110.04 448.737826,110.74 448.237826,111.34 C448.257826,111.56 448.277826,111.78 448.277826,112 L448.277826,118 L446.137826,118 L446.137826,112.06 C446.137826,110.82 445.397826,110.04 444.237826,110.04 C443.077826,110.04 442.197826,110.88 441.697826,111.52 L441.697826,118 Z M364.475652,127 L366.615652,127 L366.615652,141 L364.695652,141 L364.695652,139.48 C363.955652,140.42 362.815652,141.26 361.015652,141.26 C358.115652,141.26 356.255652,138.96 356.255652,136.2 C356.255652,133.44 358.115652,131.14 361.015652,131.14 C362.695652,131.14 363.815652,131.88 364.475652,132.64 L364.475652,127 Z M364.455652,135.02 C363.995652,133.98 362.895652,133.02 361.395652,133.02 C359.675652,133.02 358.415652,134.32 358.415652,136.2 C358.415652,138.08 359.675652,139.38 361.395652,139.38 C362.895652,139.38 363.995652,138.42 364.455652,137.36 L364.455652,135.02 Z M368.478261,136.2 C368.478261,132.72 371.118261,131.14 373.338261,131.14 C377.158261,131.14 378.478261,134.22 377.858261,137 L370.638261,137 C370.878261,138.72 372.558261,139.44 374.318261,139.44 C375.478261,139.44 376.538261,139.16 377.358261,138.76 L377.358261,140.6 C376.478261,141.02 375.258261,141.26 373.918261,141.26 C370.978261,141.26 368.478261,139.58 368.478261,136.2 Z M375.938261,135.4 C376.058261,134.56 375.538261,132.92 373.438261,132.92 C371.998261,132.92 370.698261,133.78 370.618261,135.4 L375.938261,135.4 Z M386.46087,131.4 L388.80087,131.4 L384.68087,141 L382.42087,141 L378.32087,131.4 L380.64087,131.4 L383.56087,138.68 L386.46087,131.4 Z M389.143478,136.2 C389.143478,132.72 391.783478,131.14 394.003478,131.14 C397.823478,131.14 399.143478,134.22 398.523478,137 L391.303478,137 C391.543478,138.72 393.223478,139.44 394.983478,139.44 C396.143478,139.44 397.203478,139.16 398.023478,138.76 L398.023478,140.6 C397.143478,141.02 395.923478,141.26 394.583478,141.26 C391.643478,141.26 389.143478,139.58 389.143478,136.2 Z M396.603478,135.4 C396.723478,134.56 396.203478,132.92 394.103478,132.92 C392.663478,132.92 391.363478,133.78 391.283478,135.4 L396.603478,135.4 Z M400.526087,126.4 L402.666087,126.4 L402.666087,141 L400.526087,141 L400.526087,126.4 Z M404.568696,136.2 C404.568696,132.88 407.088696,131.14 409.768696,131.14 C412.468696,131.14 414.968696,132.88 414.968696,136.2 C414.968696,139.52 412.468696,141.26 409.768696,141.26 C407.088696,141.26 404.568696,139.52 404.568696,136.2 Z M412.788696,136.2 C412.788696,134.32 411.548696,133.1 409.768696,133.1 C407.968696,133.1 406.728696,134.32 406.728696,136.2 C406.728696,138.08 407.968696,139.3 409.768696,139.3 C411.548696,139.3 412.788696,138.08 412.788696,136.2 Z M418.731304,132.9 C419.491304,131.98 420.631304,131.14 422.431304,131.14 C425.311304,131.14 427.191304,133.44 427.191304,136.2 C427.191304,138.96 425.311304,141.26 422.431304,141.26 C420.751304,141.26 419.631304,140.52 418.971304,139.76 L418.971304,145.4 L416.831304,145.4 L416.831304,131.4 L418.731304,131.4 L418.731304,132.9 Z M425.011304,136.2 C425.011304,134.32 423.771304,133.02 422.031304,133.02 C420.551304,133.02 419.431304,133.98 418.971304,135.02 L418.971304,137.36 C419.431304,138.42 420.551304,139.38 422.031304,139.38 C423.771304,139.38 425.011304,138.08 425.011304,136.2 Z M431.193913,141 L429.053913,141 L429.053913,131.4 L430.953913,131.4 L430.953913,132.6 C431.473913,132.02 432.593913,131.14 434.153913,131.14 C435.593913,131.14 436.593913,131.74 437.153913,132.68 C437.993913,131.84 439.113913,131.14 440.513913,131.14 C443.053913,131.14 444.153913,133.02 444.153913,135 L444.153913,141 L442.013913,141 L442.013913,135.06 C442.013913,133.82 441.273913,133.04 440.113913,133.04 C439.053913,133.04 438.233913,133.74 437.733913,134.34 C437.753913,134.56 437.773913,134.78 437.773913,135 L437.773913,141 L435.633913,141 L435.633913,135.06 C435.633913,133.82 434.893913,133.04 433.733913,133.04 C432.573913,133.04 431.693913,133.88 431.193913,134.52 L431.193913,141 Z M445.916522,136.2 C445.916522,132.72 448.556522,131.14 450.776522,131.14 C454.596522,131.14 455.916522,134.22 455.296522,137 L448.076522,137 C448.316522,138.72 449.996522,139.44 451.756522,139.44 C452.916522,139.44 453.976522,139.16 454.796522,138.76 L454.796522,140.6 C453.916522,141.02 452.696522,141.26 451.356522,141.26 C448.416522,141.26 445.916522,139.58 445.916522,136.2 Z M453.376522,135.4 C453.496522,134.56 452.976522,132.92 450.876522,132.92 C449.436522,132.92 448.136522,133.78 448.056522,135.4 L453.376522,135.4 Z M459.15913,132.72 C459.85913,131.88 461.03913,131.14 462.49913,131.14 C464.91913,131.14 466.45913,132.78 466.45913,135.06 L466.45913,141 L464.31913,141 L464.31913,135.34 C464.31913,133.78 463.35913,133.04 462.07913,133.04 C460.85913,133.04 459.93913,133.86 459.39913,134.64 L459.39913,141 L457.25913,141 L457.25913,131.4 L459.15913,131.4 L459.15913,132.72 Z M469.421739,128.5 L471.541739,127.98 L471.541739,131.4 L475.021739,131.4 L475.021739,133.28 L471.541739,133.28 L471.541739,137.68 C471.541739,138.94 472.121739,139.36 473.361739,139.36 C474.061739,139.36 474.701739,139.22 475.301739,138.98 L475.301739,140.82 C474.581739,141.08 473.661739,141.24 472.721739,141.24 C470.861739,141.24 469.421739,140.32 469.421739,138.08 L469.421739,133.28 L467.701739,133.28 L467.701739,131.4 L469.421739,131.4 L469.421739,128.5 Z M396.696087,151.48 C398.056087,150.54 399.556087,150.16 401.056087,150.16 C403.836087,150.16 405.696087,151.48 405.696087,153.8 C405.696087,156.12 403.756087,157.46 401.856087,158.58 C399.956087,159.7 398.096087,160.62 398.056087,162.42 L405.796087,162.4 L405.796087,164 L396.216087,164 L396.216087,163.2 C396.216087,159.88 398.656087,158.62 400.776087,157.38 C402.476087,156.38 404.016087,155.54 404.016087,153.78 C404.016087,152.44 402.876087,151.72 400.916087,151.72 C399.536087,151.72 398.096087,152.18 396.696087,153.16 L396.696087,151.48 Z M408.478696,150.4 L416.638696,150.4 L416.638696,152 L410.058696,152 L409.818696,155.84 C410.538696,155.64 411.338696,155.54 412.138696,155.54 C414.698696,155.54 417.298696,156.64 417.298696,159.9 C417.298696,162.66 414.978696,164.24 412.018696,164.24 C410.438696,164.24 408.838696,163.9 407.658696,163.32 L407.658696,161.72 C408.818696,162.34 410.358696,162.68 411.818696,162.68 C414.038696,162.68 415.598696,161.74 415.598696,159.9 C415.598696,157.68 413.678696,157.06 411.558696,157.06 C410.358696,157.06 409.078696,157.32 408.038696,157.7 L408.478696,150.4 Z M423.641304,165.2 L422.041304,165.2 L430.221304,148.8 L431.821304,148.8 L423.641304,165.2 Z M425.181304,152.9 C425.181304,154.92 423.641304,156.04 421.921304,156.04 C420.181304,156.04 418.621304,154.92 418.621304,152.9 C418.621304,150.88 420.181304,149.76 421.921304,149.76 C423.641304,149.76 425.181304,150.88 425.181304,152.9 Z M420.141304,152.9 C420.141304,153.84 420.741304,154.64 421.921304,154.64 C423.061304,154.64 423.661304,153.84 423.661304,152.9 C423.661304,151.96 423.061304,151.16 421.921304,151.16 C420.741304,151.16 420.141304,151.96 420.141304,152.9 Z M435.221304,161.1 C435.221304,163.12 433.681304,164.24 431.961304,164.24 C430.221304,164.24 428.661304,163.12 428.661304,161.1 C428.661304,159.08 430.221304,157.96 431.961304,157.96 C433.681304,157.96 435.221304,159.08 435.221304,161.1 Z M430.181304,161.1 C430.181304,162.04 430.781304,162.84 431.961304,162.84 C433.101304,162.84 433.701304,162.04 433.701304,161.1 C433.701304,160.16 433.101304,159.36 431.961304,159.36 C430.781304,159.36 430.181304,160.16 430.181304,161.1 Z" id="Platform-development" fill="#000000"></path>
                <path d="M14.8082609,370 L16.8682609,370 L16.8682609,384 L14.5882609,384 L14.5882609,374.2 L10.1682609,380.84 L8.80826085,380.84 L4.38826085,374.18 L4.38826085,384 L2.10826085,384 L2.10826085,370 L4.16826085,370 L9.48826085,378.02 L14.8082609,370 Z M27.7108696,381.78 C27.7108696,382.32 28.0308696,382.48 28.4108696,382.48 C28.6308696,382.48 28.8508696,382.42 29.0508696,382.36 L29.0508696,383.9 C28.6508696,384.06 28.1708696,384.14 27.6908696,384.14 C26.8108696,384.14 26.1108696,383.8 25.7708696,383.02 C24.8308696,383.78 23.6508696,384.26 22.1508696,384.26 C20.4108696,384.26 18.7908696,383.3 18.7908696,381.32 C18.7908696,378.86 21.0708696,378.1 23.0708696,378.1 C23.8908696,378.1 24.8108696,378.22 25.5708696,378.38 L25.5708696,378.04 C25.5708696,376.84 24.6908696,376 23.0508696,376 C21.6308696,376 20.4508696,376.36 19.5908696,376.74 L19.5908696,374.78 C20.3508696,374.52 21.7308696,374.14 23.2708696,374.14 C25.9908696,374.14 27.7108696,375.44 27.7108696,378.34 L27.7108696,381.78 Z M23.4908696,379.6 C22.2708696,379.6 20.9908696,379.98 20.9908696,381.18 C20.9908696,382.12 21.8308696,382.6 22.7908696,382.6 C23.8108696,382.6 24.8108696,382.22 25.5708696,381.46 L25.5708696,379.84 C24.9908696,379.72 24.1708696,379.6 23.4908696,379.6 Z M32.2134783,375.98 C32.9534783,374.8 34.5134783,374.04 36.2534783,374.2 L36.2534783,376.3 C34.5334783,376.06 33.0334783,376.82 32.4534783,378.18 L32.4534783,384 L30.3134783,384 L30.3134783,374.4 L32.2134783,374.4 L32.2134783,375.98 Z M46.956087,384 L44.496087,384 L41.336087,380.02 L39.796087,380.02 L39.796087,384 L37.656087,384 L37.656087,370 L39.796087,370 L39.796087,378.2 L41.376087,378.2 L44.136087,374.4 L46.576087,374.4 L43.096087,379.16 L46.956087,384 Z M47.0386957,379.2 C47.0386957,375.72 49.6786957,374.14 51.8986957,374.14 C55.7186957,374.14 57.0386957,377.22 56.4186957,380 L49.1986957,380 C49.4386957,381.72 51.1186957,382.44 52.8786957,382.44 C54.0386957,382.44 55.0986957,382.16 55.9186957,381.76 L55.9186957,383.6 C55.0386957,384.02 53.8186957,384.26 52.4786957,384.26 C49.5386957,384.26 47.0386957,382.58 47.0386957,379.2 Z M54.4986957,378.4 C54.6186957,377.56 54.0986957,375.92 51.9986957,375.92 C50.5586957,375.92 49.2586957,376.78 49.1786957,378.4 L54.4986957,378.4 Z M59.0813044,371.5 L61.2013044,370.98 L61.2013044,374.4 L64.6813044,374.4 L64.6813044,376.28 L61.2013044,376.28 L61.2013044,380.68 C61.2013044,381.94 61.7813044,382.36 63.0213044,382.36 C63.7213044,382.36 64.3613044,382.22 64.9613044,381.98 L64.9613044,383.82 C64.2413044,384.08 63.3213044,384.24 62.3813044,384.24 C60.5213044,384.24 59.0813044,383.32 59.0813044,381.08 L59.0813044,376.28 L57.3613044,376.28 L57.3613044,374.4 L59.0813044,374.4 L59.0813044,371.5 Z M68.6639131,384 L66.5239131,384 L66.5239131,374.4 L68.6639131,374.4 L68.6639131,384 Z M68.9039131,371.28 C68.9039131,372.16 68.3039131,372.56 67.6039131,372.56 C66.9039131,372.56 66.2839131,372.16 66.2839131,371.28 C66.2839131,370.44 66.9039131,370.02 67.6039131,370.02 C68.3039131,370.02 68.9039131,370.44 68.9039131,371.28 Z M73.0665218,375.72 C73.7665218,374.88 74.9465218,374.14 76.4065218,374.14 C78.8265218,374.14 80.3665218,375.78 80.3665218,378.06 L80.3665218,384 L78.2265218,384 L78.2265218,378.34 C78.2265218,376.78 77.2665218,376.04 75.9865218,376.04 C74.7665218,376.04 73.8465218,376.86 73.3065218,377.64 L73.3065218,384 L71.1665218,384 L71.1665218,374.4 L73.0665218,374.4 L73.0665218,375.72 Z M82.1091305,379.2 C82.1091305,376.44 83.9691305,374.14 86.8691305,374.14 C88.6691305,374.14 89.8091305,374.98 90.5491305,375.9 L90.5491305,374.4 L92.4691305,374.4 L92.4691305,383.88 C92.4691305,387.34 89.8291305,388.66 87.0891305,388.66 C85.6291305,388.66 84.2691305,388.34 83.1291305,387.76 L83.1291305,385.8 C84.2291305,386.44 85.5091305,386.78 86.8091305,386.78 C88.7091305,386.78 90.3291305,386.1 90.3291305,383.94 L90.3291305,382.72 C89.6691305,383.5 88.5491305,384.26 86.8691305,384.26 C83.9691305,384.26 82.1091305,381.96 82.1091305,379.2 Z M90.3091305,378.02 C89.8491305,376.98 88.7491305,376.02 87.2491305,376.02 C85.5291305,376.02 84.2691305,377.32 84.2691305,379.2 C84.2691305,381.08 85.5291305,382.38 87.2491305,382.38 C88.7491305,382.38 89.8491305,381.48 90.3091305,380.5 L90.3091305,378.02 Z M28.666087,393.4 L36.826087,393.4 L36.826087,395 L30.246087,395 L30.006087,398.84 C30.726087,398.64 31.526087,398.54 32.326087,398.54 C34.886087,398.54 37.486087,399.64 37.486087,402.9 C37.486087,405.66 35.166087,407.24 32.206087,407.24 C30.626087,407.24 29.026087,406.9 27.846087,406.32 L27.846087,404.72 C29.006087,405.34 30.546087,405.68 32.006087,405.68 C34.226087,405.68 35.786087,404.74 35.786087,402.9 C35.786087,400.68 33.866087,400.06 31.746087,400.06 C30.546087,400.06 29.266087,400.32 28.226087,400.7 L28.666087,393.4 Z M40.0286957,393.4 L48.1886957,393.4 L48.1886957,395 L41.6086957,395 L41.3686957,398.84 C42.0886957,398.64 42.8886957,398.54 43.6886957,398.54 C46.2486957,398.54 48.8486957,399.64 48.8486957,402.9 C48.8486957,405.66 46.5286957,407.24 43.5686957,407.24 C41.9886957,407.24 40.3886957,406.9 39.2086957,406.32 L39.2086957,404.72 C40.3686957,405.34 41.9086957,405.68 43.3686957,405.68 C45.5886957,405.68 47.1486957,404.74 47.1486957,402.9 C47.1486957,400.68 45.2286957,400.06 43.1086957,400.06 C41.9086957,400.06 40.6286957,400.32 39.5886957,400.7 L40.0286957,393.4 Z M55.1913044,408.2 L53.5913044,408.2 L61.7713044,391.8 L63.3713044,391.8 L55.1913044,408.2 Z M56.7313044,395.9 C56.7313044,397.92 55.1913044,399.04 53.4713044,399.04 C51.7313044,399.04 50.1713044,397.92 50.1713044,395.9 C50.1713044,393.88 51.7313044,392.76 53.4713044,392.76 C55.1913044,392.76 56.7313044,393.88 56.7313044,395.9 Z M51.6913043,395.9 C51.6913043,396.84 52.2913043,397.64 53.4713043,397.64 C54.6113043,397.64 55.2113043,396.84 55.2113043,395.9 C55.2113043,394.96 54.6113043,394.16 53.4713043,394.16 C52.2913043,394.16 51.6913043,394.96 51.6913043,395.9 Z M66.7713044,404.1 C66.7713044,406.12 65.2313044,407.24 63.5113044,407.24 C61.7713044,407.24 60.2113044,406.12 60.2113044,404.1 C60.2113044,402.08 61.7713044,400.96 63.5113044,400.96 C65.2313044,400.96 66.7713044,402.08 66.7713044,404.1 Z M61.7313044,404.1 C61.7313044,405.04 62.3313044,405.84 63.5113044,405.84 C64.6513044,405.84 65.2513043,405.04 65.2513043,404.1 C65.2513043,403.16 64.6513044,402.36 63.5113044,402.36 C62.3313044,402.36 61.7313044,403.16 61.7313044,404.1 Z" id="Marketing-55%" fill="#000000"></path>
                <path d="M14.4243478,28 L12.0043478,28 L17.9243478,14 L20.4243478,14 L26.3243478,28 L23.9243478,28 L22.6843478,24.98 L15.6643478,24.98 L14.4243478,28 Z M18.9043478,17 L16.4443478,22.98 L21.8843478,22.98 L19.4243478,17 C19.3443478,16.78 19.2643478,16.56 19.1643478,16.22 C19.0643478,16.56 18.9843478,16.78 18.9043478,17 Z M29.4669565,19.9 C30.2269565,18.98 31.3669565,18.14 33.1669565,18.14 C36.0469565,18.14 37.9269565,20.44 37.9269565,23.2 C37.9269565,25.96 36.0469565,28.26 33.1669565,28.26 C31.4869565,28.26 30.3669565,27.52 29.7069565,26.76 L29.7069565,32.4 L27.5669565,32.4 L27.5669565,18.4 L29.4669565,18.4 L29.4669565,19.9 Z M35.7469565,23.2 C35.7469565,21.32 34.5069565,20.02 32.7669565,20.02 C31.2869565,20.02 30.1669565,20.98 29.7069565,22.02 L29.7069565,24.36 C30.1669565,25.42 31.2869565,26.38 32.7669565,26.38 C34.5069565,26.38 35.7469565,25.08 35.7469565,23.2 Z M41.6895652,19.9 C42.4495652,18.98 43.5895652,18.14 45.3895652,18.14 C48.2695652,18.14 50.1495652,20.44 50.1495652,23.2 C50.1495652,25.96 48.2695652,28.26 45.3895652,28.26 C43.7095652,28.26 42.5895652,27.52 41.9295652,26.76 L41.9295652,32.4 L39.7895652,32.4 L39.7895652,18.4 L41.6895652,18.4 L41.6895652,19.9 Z M47.9695652,23.2 C47.9695652,21.32 46.7295652,20.02 44.9895652,20.02 C43.5095652,20.02 42.3895652,20.98 41.9295652,22.02 L41.9295652,24.36 C42.3895652,25.42 43.5095652,26.38 44.9895652,26.38 C46.7295652,26.38 47.9695652,25.08 47.9695652,23.2 Z M52.0521739,13.4 L54.1921739,13.4 L54.1921739,28 L52.0521739,28 L52.0521739,13.4 Z M58.8747826,28 L56.7347826,28 L56.7347826,18.4 L58.8747826,18.4 L58.8747826,28 Z M59.1147826,15.28 C59.1147826,16.16 58.5147826,16.56 57.8147826,16.56 C57.1147826,16.56 56.4947826,16.16 56.4947826,15.28 C56.4947826,14.44 57.1147826,14.02 57.8147826,14.02 C58.5147826,14.02 59.1147826,14.44 59.1147826,15.28 Z M60.7773913,23.28 C60.7773913,19.7 63.5173913,18.14 66.0773913,18.14 C67.1573913,18.14 68.1973913,18.38 69.0373913,18.88 L69.0373913,20.84 C68.3373913,20.34 67.3573913,20.04 66.3773913,20.04 C64.6773913,20.04 62.9573913,20.94 62.9573913,23.2 C62.9573913,25.38 64.6173913,26.36 66.3373913,26.36 C67.3573913,26.36 68.3773913,26.06 69.1373913,25.62 L69.1373913,27.6 C68.2173913,28.04 67.1773913,28.26 65.9573913,28.26 C63.3973913,28.26 60.7773913,26.7 60.7773913,23.28 Z M79.18,25.78 C79.18,26.32 79.5,26.48 79.88,26.48 C80.1,26.48 80.32,26.42 80.52,26.36 L80.52,27.9 C80.12,28.06 79.64,28.14 79.16,28.14 C78.28,28.14 77.58,27.8 77.24,27.02 C76.3,27.78 75.12,28.26 73.62,28.26 C71.88,28.26 70.26,27.3 70.26,25.32 C70.26,22.86 72.54,22.1 74.54,22.1 C75.36,22.1 76.28,22.22 77.04,22.38 L77.04,22.04 C77.04,20.84 76.16,20 74.52,20 C73.1,20 71.92,20.36 71.06,20.74 L71.06,18.78 C71.82,18.52 73.2,18.14 74.74,18.14 C77.46,18.14 79.18,19.44 79.18,22.34 L79.18,25.78 Z M74.96,23.6 C73.74,23.6 72.46,23.98 72.46,25.18 C72.46,26.12 73.3,26.6 74.26,26.6 C75.28,26.6 76.28,26.22 77.04,25.46 L77.04,23.84 C76.46,23.72 75.64,23.6 74.96,23.6 Z M82.3826087,15.5 L84.5026087,14.98 L84.5026087,18.4 L87.9826087,18.4 L87.9826087,20.28 L84.5026087,20.28 L84.5026087,24.68 C84.5026087,25.94 85.0826087,26.36 86.3226087,26.36 C87.0226087,26.36 87.6626087,26.22 88.2626087,25.98 L88.2626087,27.82 C87.5426087,28.08 86.6226087,28.24 85.6826087,28.24 C83.8226087,28.24 82.3826087,27.32 82.3826087,25.08 L82.3826087,20.28 L80.6626087,20.28 L80.6626087,18.4 L82.3826087,18.4 L82.3826087,15.5 Z M91.9652174,28 L89.8252174,28 L89.8252174,18.4 L91.9652174,18.4 L91.9652174,28 Z M92.2052174,15.28 C92.2052174,16.16 91.6052174,16.56 90.9052174,16.56 C90.2052174,16.56 89.5852174,16.16 89.5852174,15.28 C89.5852174,14.44 90.2052174,14.02 90.9052174,14.02 C91.6052174,14.02 92.2052174,14.44 92.2052174,15.28 Z M93.8678261,23.2 C93.8678261,19.88 96.3878261,18.14 99.0678261,18.14 C101.767826,18.14 104.267826,19.88 104.267826,23.2 C104.267826,26.52 101.767826,28.26 99.0678261,28.26 C96.3878261,28.26 93.8678261,26.52 93.8678261,23.2 Z M102.087826,23.2 C102.087826,21.32 100.847826,20.1 99.0678261,20.1 C97.2678261,20.1 96.0278261,21.32 96.0278261,23.2 C96.0278261,25.08 97.2678261,26.3 99.0678261,26.3 C100.847826,26.3 102.087826,25.08 102.087826,23.2 Z M108.030435,19.72 C108.730435,18.88 109.910435,18.14 111.370435,18.14 C113.790435,18.14 115.330435,19.78 115.330435,22.06 L115.330435,28 L113.190435,28 L113.190435,22.34 C113.190435,20.78 112.230435,20.04 110.950435,20.04 C109.730435,20.04 108.810435,20.86 108.270435,21.64 L108.270435,28 L106.130435,28 L106.130435,18.4 L108.030435,18.4 L108.030435,19.72 Z M12.9756522,37 L15.1156522,37 L15.1156522,51 L13.1956522,51 L13.1956522,49.48 C12.4556522,50.42 11.3156522,51.26 9.51565215,51.26 C6.61565215,51.26 4.75565215,48.96 4.75565215,46.2 C4.75565215,43.44 6.61565215,41.14 9.51565215,41.14 C11.1956522,41.14 12.3156522,41.88 12.9756522,42.64 L12.9756522,37 Z M12.9556522,45.02 C12.4956522,43.98 11.3956522,43.02 9.89565215,43.02 C8.17565215,43.02 6.91565215,44.32 6.91565215,46.2 C6.91565215,48.08 8.17565215,49.38 9.89565215,49.38 C11.3956522,49.38 12.4956522,48.42 12.9556522,47.36 L12.9556522,45.02 Z M16.9782609,46.2 C16.9782609,42.72 19.6182609,41.14 21.8382609,41.14 C25.6582609,41.14 26.9782609,44.22 26.3582609,47 L19.1382609,47 C19.3782609,48.72 21.0582609,49.44 22.8182609,49.44 C23.9782609,49.44 25.0382609,49.16 25.8582609,48.76 L25.8582609,50.6 C24.9782609,51.02 23.7582609,51.26 22.4182609,51.26 C19.4782609,51.26 16.9782609,49.58 16.9782609,46.2 Z M24.4382609,45.4 C24.5582609,44.56 24.0382609,42.92 21.9382609,42.92 C20.4982609,42.92 19.1982609,43.78 19.1182609,45.4 L24.4382609,45.4 Z M34.9608696,41.4 L37.3008696,41.4 L33.1808696,51 L30.9208696,51 L26.8208696,41.4 L29.1408696,41.4 L32.0608696,48.68 L34.9608696,41.4 Z M37.6434783,46.2 C37.6434783,42.72 40.2834783,41.14 42.5034783,41.14 C46.3234783,41.14 47.6434783,44.22 47.0234783,47 L39.8034783,47 C40.0434783,48.72 41.7234783,49.44 43.4834783,49.44 C44.6434783,49.44 45.7034783,49.16 46.5234783,48.76 L46.5234783,50.6 C45.6434783,51.02 44.4234783,51.26 43.0834783,51.26 C40.1434783,51.26 37.6434783,49.58 37.6434783,46.2 Z M45.1034783,45.4 C45.2234783,44.56 44.7034783,42.92 42.6034783,42.92 C41.1634783,42.92 39.8634783,43.78 39.7834783,45.4 L45.1034783,45.4 Z M49.026087,36.4 L51.166087,36.4 L51.166087,51 L49.026087,51 L49.026087,36.4 Z M53.0686957,46.2 C53.0686957,42.88 55.5886957,41.14 58.2686957,41.14 C60.9686957,41.14 63.4686957,42.88 63.4686957,46.2 C63.4686957,49.52 60.9686957,51.26 58.2686957,51.26 C55.5886957,51.26 53.0686957,49.52 53.0686957,46.2 Z M61.2886957,46.2 C61.2886957,44.32 60.0486957,43.1 58.2686957,43.1 C56.4686957,43.1 55.2286957,44.32 55.2286957,46.2 C55.2286957,48.08 56.4686957,49.3 58.2686957,49.3 C60.0486957,49.3 61.2886957,48.08 61.2886957,46.2 Z M67.2313044,42.9 C67.9913043,41.98 69.1313044,41.14 70.9313044,41.14 C73.8113044,41.14 75.6913044,43.44 75.6913044,46.2 C75.6913044,48.96 73.8113044,51.26 70.9313044,51.26 C69.2513044,51.26 68.1313043,50.52 67.4713043,49.76 L67.4713043,55.4 L65.3313043,55.4 L65.3313043,41.4 L67.2313044,41.4 L67.2313044,42.9 Z M73.5113044,46.2 C73.5113044,44.32 72.2713044,43.02 70.5313044,43.02 C69.0513044,43.02 67.9313044,43.98 67.4713044,45.02 L67.4713044,47.36 C67.9313044,48.42 69.0513044,49.38 70.5313044,49.38 C72.2713044,49.38 73.5113044,48.08 73.5113044,46.2 Z M79.6939131,51 L77.5539131,51 L77.5539131,41.4 L79.4539131,41.4 L79.4539131,42.6 C79.9739131,42.02 81.0939131,41.14 82.6539131,41.14 C84.0939131,41.14 85.0939131,41.74 85.6539131,42.68 C86.4939131,41.84 87.6139131,41.14 89.0139131,41.14 C91.5539131,41.14 92.6539131,43.02 92.6539131,45 L92.6539131,51 L90.5139131,51 L90.5139131,45.06 C90.5139131,43.82 89.7739131,43.04 88.6139131,43.04 C87.5539131,43.04 86.7339131,43.74 86.2339131,44.34 C86.2539131,44.56 86.2739131,44.78 86.2739131,45 L86.2739131,51 L84.1339131,51 L84.1339131,45.06 C84.1339131,43.82 83.3939131,43.04 82.2339131,43.04 C81.0739131,43.04 80.1939131,43.88 79.6939131,44.52 L79.6939131,51 Z M94.4165218,46.2 C94.4165218,42.72 97.0565218,41.14 99.2765218,41.14 C103.096522,41.14 104.416522,44.22 103.796522,47 L96.5765218,47 C96.8165218,48.72 98.4965218,49.44 100.256522,49.44 C101.416522,49.44 102.476522,49.16 103.296522,48.76 L103.296522,50.6 C102.416522,51.02 101.196522,51.26 99.8565217,51.26 C96.9165218,51.26 94.4165218,49.58 94.4165218,46.2 Z M101.876522,45.4 C101.996522,44.56 101.476522,42.92 99.3765218,42.92 C97.9365218,42.92 96.6365218,43.78 96.5565218,45.4 L101.876522,45.4 Z M107.65913,42.72 C108.35913,41.88 109.53913,41.14 110.99913,41.14 C113.41913,41.14 114.95913,42.78 114.95913,45.06 L114.95913,51 L112.81913,51 L112.81913,45.34 C112.81913,43.78 111.85913,43.04 110.57913,43.04 C109.35913,43.04 108.43913,43.86 107.89913,44.64 L107.89913,51 L105.75913,51 L105.75913,41.4 L107.65913,41.4 L107.65913,42.72 Z M117.921739,38.5 L120.041739,37.98 L120.041739,41.4 L123.521739,41.4 L123.521739,43.28 L120.041739,43.28 L120.041739,47.68 C120.041739,48.94 120.621739,49.36 121.861739,49.36 C122.561739,49.36 123.201739,49.22 123.801739,48.98 L123.801739,50.82 C123.081739,51.08 122.161739,51.24 121.221739,51.24 C119.361739,51.24 117.921739,50.32 117.921739,48.08 L117.921739,43.28 L116.201739,43.28 L116.201739,41.4 L117.921739,41.4 L117.921739,38.5 Z M49.6360869,60.4 L50.876087,60.4 L50.876087,72.4 L53.416087,72.4 L53.416087,74 L46.336087,74 L46.336087,72.4 L49.196087,72.4 L49.196087,62.18 L46.336087,63.26 L46.336087,61.66 L49.6360869,60.4 Z M55.5386957,60.4 L63.6986957,60.4 L63.6986957,62 L57.1186957,62 L56.8786957,65.84 C57.5986957,65.64 58.3986957,65.54 59.1986957,65.54 C61.7586957,65.54 64.3586957,66.64 64.3586957,69.9 C64.3586957,72.66 62.0386957,74.24 59.0786957,74.24 C57.4986957,74.24 55.8986957,73.9 54.7186957,73.32 L54.7186957,71.72 C55.8786957,72.34 57.4186957,72.68 58.8786957,72.68 C61.0986957,72.68 62.6586957,71.74 62.6586957,69.9 C62.6586957,67.68 60.7386957,67.06 58.6186957,67.06 C57.4186957,67.06 56.1386957,67.32 55.0986957,67.7 L55.5386957,60.4 Z M70.7013044,75.2 L69.1013044,75.2 L77.2813044,58.8 L78.8813044,58.8 L70.7013044,75.2 Z M72.2413043,62.9 C72.2413043,64.92 70.7013043,66.04 68.9813043,66.04 C67.2413043,66.04 65.6813043,64.92 65.6813043,62.9 C65.6813043,60.88 67.2413043,59.76 68.9813043,59.76 C70.7013043,59.76 72.2413043,60.88 72.2413043,62.9 Z M67.2013043,62.9 C67.2013043,63.84 67.8013043,64.64 68.9813043,64.64 C70.1213043,64.64 70.7213043,63.84 70.7213043,62.9 C70.7213043,61.96 70.1213043,61.16 68.9813043,61.16 C67.8013043,61.16 67.2013043,61.96 67.2013043,62.9 Z M82.2813043,71.1 C82.2813043,73.12 80.7413043,74.24 79.0213043,74.24 C77.2813043,74.24 75.7213043,73.12 75.7213043,71.1 C75.7213043,69.08 77.2813043,67.96 79.0213043,67.96 C80.7413043,67.96 82.2813043,69.08 82.2813043,71.1 Z M77.2413043,71.1 C77.2413043,72.04 77.8413044,72.84 79.0213043,72.84 C80.1613043,72.84 80.7613043,72.04 80.7613043,71.1 C80.7613043,70.16 80.1613043,69.36 79.0213043,69.36 C77.8413044,69.36 77.2413043,70.16 77.2413043,71.1 Z" id="Application-developm" fill="#000000"></path>
            </g>
        </g>
    </g>
</svg>