<?xml version="1.0" encoding="UTF-8"?>
<svg width="450px" height="428px" viewBox="0 0 450 428" version="1.1" xmlns="http://www.w3.org/2000/svg" xmlns:xlink="http://www.w3.org/1999/xlink">
    <!-- Generator: Sketch 48.2 (47327) - http://www.bohemiancoding.com/sketch -->
    <title>Group</title>
    <desc>Created with Sketch.</desc>
    <defs>
        <radialGradient cx="0%" cy="343.110965%" fx="0%" fy="343.110965%" r="173.701802%" gradientTransform="translate(0.000000,3.431110),scale(0.891551,1.000000),translate(-0.000000,-3.431110)" id="radialGradient-1">
            <stop stop-color="#FE5D5D" offset="0%"></stop>
            <stop stop-color="#FE6060" offset="53.0512596%"></stop>
            <stop stop-color="#FF9696" offset="100%"></stop>
        </radialGradient>
        <radialGradient cx="-96.0702181%" cy="109.189186%" fx="-96.0702181%" fy="109.189186%" r="147.54738%" gradientTransform="translate(-0.960702,1.091892),scale(1.000000,0.462001),translate(0.960702,-1.091892)" id="radialGradient-2">
            <stop stop-color="#D9477F" offset="0%"></stop>
            <stop stop-color="#DA4A82" offset="54.942641%"></stop>
            <stop stop-color="#EE7DB6" offset="100%"></stop>
        </radialGradient>
        <radialGradient cx="110.115798%" cy="78.4651569%" fx="110.115798%" fy="78.4651569%" r="60.2254504%" gradientTransform="translate(1.101158,0.784652),scale(0.915453,1.000000),translate(-1.101158,-0.784652)" id="radialGradient-3">
            <stop stop-color="#9A2DBB" offset="0%"></stop>
            <stop stop-color="#9D30BD" offset="54.5020201%"></stop>
            <stop stop-color="#CA59DF" offset="100%"></stop>
        </radialGradient>
        <radialGradient cx="200%" cy="299.021585%" fx="200%" fy="299.021585%" r="149.579001%" gradientTransform="translate(2.000000,2.990216),scale(0.836470,1.000000),translate(-2.000000,-2.990216)" id="radialGradient-4">
            <stop stop-color="#560CFF" offset="0%"></stop>
            <stop stop-color="#5C0EFF" offset="54.7672266%"></stop>
            <stop stop-color="#8F1CFF" offset="100%"></stop>
        </radialGradient>
    </defs>
    <g id="Page-1" stroke="none" stroke-width="1" fill="none" fill-rule="evenodd">
        <g id="Group" fill-rule="nonzero">
            <g id="Page-1" transform="translate(29.000000, 47.000000)">
                <g id="Group-9">
                    <path d="M167,75.3425 L167,0.35 C187.0901,0.35 206.5441,3.8679 225.362,10.9036 C244.1799,17.9393 261.17,28.0473 276.3322,41.2277 L227.1327,97.8252 C218.7935,90.576 209.449,85.0166 199.0991,81.147 C188.7493,77.2773 178.0496,75.3425 167,75.3425 Z" id="Fill-4" fill="url(#radialGradient-1)"></path>
                    <path d="M265.0795,32 C283.9796,45.7318 299.3142,62.688 311.0832,82.8688 C322.8523,103.0495 330.0592,124.7457 332.7038,147.9574 C335.3484,171.169 333.2068,193.9303 326.2791,216.2413 C319.3514,238.5523 308.2242,258.5235 292.8975,276.1549 L236.2999,226.9554 C244.7296,217.2582 250.8496,206.274 254.6598,194.0029 C258.4701,181.7319 259.6479,169.2132 258.1934,156.4468 C256.7388,143.6804 252.7751,131.7475 246.3021,120.648 C239.8291,109.5486 231.3951,100.2227 221,92.6702 L265.0795,32 Z" id="Fill-6" fill="url(#radialGradient-2)"></path>
                    <path d="M241.1525,220.8749 L301.8227,264.9544 C292.9837,277.1202 282.6866,287.8923 270.9316,297.2706 C259.1765,306.649 246.3864,314.2961 232.5612,320.2121 C218.7361,326.128 204.3733,330.0999 189.4729,332.1278 C174.5724,334.1557 159.6706,334.1665 144.7673,332.1603 C129.8639,330.1541 115.4954,326.2031 101.6616,320.3072 C87.8278,314.4114 75.0266,306.7828 63.2579,297.4216 C51.4892,288.0604 41.1766,277.3033 32.3199,265.1504 C23.4632,252.9975 16.3813,239.8859 11.074,225.8159 C5.7667,211.7458 2.4251,197.2234 1.0491,182.2487 C-0.3269,167.274 0.3123,152.3859 2.9666,137.5842 C5.621,122.7826 10.195,108.6 16.6887,95.0366 C23.1823,81.4732 31.362,69.0169 41.2276,57.6677 L97.8252,106.8673 C92.3991,113.1093 87.9003,119.9603 84.3288,127.4202 C80.7572,134.8801 78.2415,142.6805 76.7816,150.8214 C75.3217,158.9623 74.9702,167.1508 75.727,175.3869 C76.4837,183.6229 78.3216,191.6102 81.2406,199.3488 C84.1596,207.0874 88.0547,214.2987 92.9259,220.9828 C97.7971,227.6669 103.4691,233.5833 109.9418,238.732 C116.4146,243.8807 123.4553,248.0764 131.0638,251.3191 C138.6724,254.5618 146.5751,256.7348 154.772,257.8383 C162.9688,258.9417 171.1649,258.9357 179.3601,257.8204 C187.5554,256.7051 195.4549,254.5205 203.0587,251.2667 C210.6626,248.0129 217.6971,243.807 224.1624,238.6489 C230.6277,233.4908 236.291,227.5661 241.1525,220.8749 Z" id="Fill-7" fill="url(#radialGradient-3)"></path>
                    <path d="M92.8475,113.1251 L32.1773,69.0456 C39.9067,58.4074 48.771,48.8183 58.7701,40.2783 C68.7693,31.7383 79.627,24.4835 91.3433,18.5137 C103.0596,12.544 115.3108,8.0242 128.0969,4.9546 C140.883,1.8849 153.8507,0.35 167,0.35 L166.9984,75.3425 C152.3286,75.3427 138.4584,78.6729 125.3877,85.3329 C112.3169,91.993 101.4702,101.257 92.8476,113.1251 L92.8475,113.1251 Z" id="Fill-8" fill="url(#radialGradient-4)"></path>
                </g>
            </g>
            <path d="M124.291739,195 L129.291739,195 C132.611739,195 135.271739,196.04 135.271739,199.6 C135.271739,203.16 132.611739,204.2 129.291739,204.2 L126.571739,204.2 L126.571739,209 L124.291739,209 L124.291739,195 Z M132.951739,199.6 C132.951739,197.56 131.351739,197.08 129.411739,197.08 L126.571739,197.08 L126.571739,202.12 L129.411739,202.12 C131.331739,202.12 132.951739,201.64 132.951739,199.6 Z M144.854348,206.78 C144.854348,207.32 145.174348,207.48 145.554348,207.48 C145.774348,207.48 145.994348,207.42 146.194348,207.36 L146.194348,208.9 C145.794348,209.06 145.314348,209.14 144.834348,209.14 C143.954348,209.14 143.254348,208.8 142.914348,208.02 C141.974348,208.78 140.794348,209.26 139.294348,209.26 C137.554348,209.26 135.934348,208.3 135.934348,206.32 C135.934348,203.86 138.214348,203.1 140.214348,203.1 C141.034348,203.1 141.954348,203.22 142.714348,203.38 L142.714348,203.04 C142.714348,201.84 141.834348,201 140.194348,201 C138.774348,201 137.594348,201.36 136.734348,201.74 L136.734348,199.78 C137.494348,199.52 138.874348,199.14 140.414348,199.14 C143.134348,199.14 144.854348,200.44 144.854348,203.34 L144.854348,206.78 Z M140.634348,204.6 C139.414348,204.6 138.134348,204.98 138.134348,206.18 C138.134348,207.12 138.974348,207.6 139.934348,207.6 C140.954348,207.6 141.954348,207.22 142.714348,206.46 L142.714348,204.84 C142.134348,204.72 141.314348,204.6 140.634348,204.6 Z M146.996956,204.28 C146.996956,200.7 149.736956,199.14 152.296956,199.14 C153.376956,199.14 154.416956,199.38 155.256956,199.88 L155.256956,201.84 C154.556956,201.34 153.576956,201.04 152.596956,201.04 C150.896956,201.04 149.176956,201.94 149.176956,204.2 C149.176956,206.38 150.836956,207.36 152.556956,207.36 C153.576956,207.36 154.596956,207.06 155.356956,206.62 L155.356956,208.6 C154.436956,209.04 153.396956,209.26 152.176956,209.26 C149.616956,209.26 146.996956,207.7 146.996956,204.28 Z M159.419565,209 L157.279565,209 L157.279565,199.4 L166.359565,199.4 L166.359565,209 L164.219565,209 L164.219565,201.28 L159.419565,201.28 L159.419565,209 Z M170.722174,200.9 C171.482174,199.98 172.622174,199.14 174.422174,199.14 C177.302174,199.14 179.182174,201.44 179.182174,204.2 C179.182174,206.96 177.302174,209.26 174.422174,209.26 C172.742174,209.26 171.622174,208.52 170.962174,207.76 L170.962174,213.4 L168.822174,213.4 L168.822174,199.4 L170.722174,199.4 L170.722174,200.9 Z M177.002174,204.2 C177.002174,202.32 175.762174,201.02 174.022174,201.02 C172.542174,201.02 171.422174,201.98 170.962174,203.02 L170.962174,205.36 C171.422174,206.42 172.542174,207.38 174.022174,207.38 C175.762174,207.38 177.002174,206.08 177.002174,204.2 Z M180.444783,204.2 C180.444783,200.72 183.084783,199.14 185.304783,199.14 C189.124783,199.14 190.444783,202.22 189.824783,205 L182.604783,205 C182.844783,206.72 184.524783,207.44 186.284783,207.44 C187.444783,207.44 188.504783,207.16 189.324783,206.76 L189.324783,208.6 C188.444783,209.02 187.224783,209.26 185.884783,209.26 C182.944783,209.26 180.444783,207.58 180.444783,204.2 Z M187.904783,203.4 C188.024783,202.56 187.504783,200.92 185.404783,200.92 C183.964783,200.92 182.664783,201.78 182.584783,203.4 L187.904783,203.4 Z M192.787391,211.58 L190.767391,211.58 L190.767391,207.24 L192.087391,207.24 C193.247391,205.18 193.647391,202.74 193.607391,199.4 L201.107391,199.4 L201.107391,207.24 L202.527391,207.24 L202.527391,211.58 L200.507391,211.58 L200.507391,209 L192.787391,209 L192.787391,211.58 Z M195.607391,201.16 C195.527391,203.74 195.127391,205.54 194.327391,207.24 L198.947391,207.24 L198.947391,201.16 L195.607391,201.16 Z M203.47,204.2 C203.47,200.72 206.11,199.14 208.33,199.14 C212.15,199.14 213.47,202.22 212.85,205 L205.63,205 C205.87,206.72 207.55,207.44 209.31,207.44 C210.47,207.44 211.53,207.16 212.35,206.76 L212.35,208.6 C211.47,209.02 210.25,209.26 208.91,209.26 C205.97,209.26 203.47,207.58 203.47,204.2 Z M210.93,203.4 C211.05,202.56 210.53,200.92 208.43,200.92 C206.99,200.92 205.69,201.78 205.61,203.4 L210.93,203.4 Z M218.592609,201.22 C218.312609,205.86 217.592609,209.18 215.032609,209.18 C214.632609,209.18 214.192609,209.1 213.712609,208.92 L213.712609,207.24 C213.932609,207.32 214.132609,207.36 214.332609,207.36 C215.952609,207.36 216.392609,204.16 216.572609,199.4 L223.972609,199.4 L223.972609,209 L221.832609,209 L221.832609,201.22 L218.592609,201.22 Z M225.835217,204.2 C225.835217,200.72 228.475217,199.14 230.695217,199.14 C234.515217,199.14 235.835217,202.22 235.215217,205 L227.995217,205 C228.235217,206.72 229.915217,207.44 231.675217,207.44 C232.835217,207.44 233.895217,207.16 234.715217,206.76 L234.715217,208.6 C233.835217,209.02 232.615217,209.26 231.275217,209.26 C228.335217,209.26 225.835217,207.58 225.835217,204.2 Z M233.295217,203.4 C233.415217,202.56 232.895217,200.92 230.795217,200.92 C229.355217,200.92 228.055217,201.78 227.975217,203.4 L233.295217,203.4 Z M239.277826,209 L237.137826,209 L237.137826,199.4 L239.277826,199.4 L239.277826,203.26 L244.077826,203.26 L244.077826,199.4 L246.217826,199.4 L246.217826,209 L244.077826,209 L244.077826,205.14 L239.277826,205.14 L239.277826,209 Z M250.520435,209 L248.680435,209 L248.680435,199.4 L250.820435,199.4 L250.820435,205.68 L255.960435,199.4 L257.800435,199.4 L257.800435,209 L255.660435,209 L255.660435,202.72 L250.520435,209 Z M259.663044,204.2 C259.663044,200.72 262.303044,199.14 264.523044,199.14 C268.343044,199.14 269.663044,202.22 269.043044,205 L261.823044,205 C262.063044,206.72 263.743044,207.44 265.503044,207.44 C266.663044,207.44 267.723044,207.16 268.543044,206.76 L268.543044,208.6 C267.663044,209.02 266.443044,209.26 265.103044,209.26 C262.163044,209.26 259.663044,207.58 259.663044,204.2 Z M267.123044,203.4 C267.243044,202.56 266.723044,200.92 264.623044,200.92 C263.183044,200.92 261.883044,201.78 261.803044,203.4 L267.123044,203.4 Z M150.123369,228.1 C150.123369,223.625 153.548369,221.675 156.748369,221.675 C158.098369,221.675 159.398369,221.975 160.448369,222.6 L160.448369,225.05 C159.573369,224.425 158.348369,224.05 157.123369,224.05 C154.998369,224.05 152.848369,225.175 152.848369,228 C152.848369,230.725 154.923369,231.95 157.073369,231.95 C158.348369,231.95 159.623369,231.575 160.573369,231.025 L160.573369,233.5 C159.423369,234.05 158.123369,234.325 156.598369,234.325 C153.398369,234.325 150.123369,232.375 150.123369,228.1 Z M165.405978,223.875 C166.355978,222.725 167.780978,221.675 170.030978,221.675 C173.630978,221.675 175.980978,224.55 175.980978,228 C175.980978,231.45 173.630978,234.325 170.030978,234.325 C167.930978,234.325 166.530978,233.4 165.705978,232.45 L165.705978,239.5 L163.030978,239.5 L163.030978,222 L165.405978,222 L165.405978,223.875 Z M173.255978,228 C173.255978,225.65 171.705978,224.025 169.530978,224.025 C167.680978,224.025 166.280978,225.225 165.705978,226.525 L165.705978,229.45 C166.280978,230.775 167.680978,231.975 169.530978,231.975 C171.705978,231.975 173.255978,230.35 173.255978,228 Z M177.613587,228 C177.613587,223.65 180.913587,221.675 183.688587,221.675 C188.463587,221.675 190.113587,225.525 189.338587,229 L180.313587,229 C180.613587,231.15 182.713587,232.05 184.913587,232.05 C186.363587,232.05 187.688587,231.7 188.713587,231.2 L188.713587,233.5 C187.613587,234.025 186.088587,234.325 184.413587,234.325 C180.738587,234.325 177.613587,232.225 177.613587,228 Z M186.938587,227 C187.088587,225.95 186.438587,223.9 183.813587,223.9 C182.013587,223.9 180.388587,224.975 180.288587,227 L186.938587,227 Z M193.096196,237.225 L190.571196,237.225 L190.571196,231.8 L192.221196,231.8 C193.671196,229.225 194.171196,226.175 194.121196,222 L203.496196,222 L203.496196,231.8 L205.271196,231.8 L205.271196,237.225 L202.746196,237.225 L202.746196,234 L193.096196,234 L193.096196,237.225 Z M196.621196,224.2 C196.521196,227.425 196.021196,229.675 195.021196,231.8 L200.796196,231.8 L200.796196,224.2 L196.621196,224.2 Z M206.503804,228.1 C206.503804,223.625 209.928804,221.675 213.128804,221.675 C214.478804,221.675 215.778804,221.975 216.828804,222.6 L216.828804,225.05 C215.953804,224.425 214.728804,224.05 213.503804,224.05 C211.378804,224.05 209.228804,225.175 209.228804,228 C209.228804,230.725 211.303804,231.95 213.453804,231.95 C214.728804,231.95 216.003804,231.575 216.953804,231.025 L216.953804,233.5 C215.803804,234.05 214.503804,234.325 212.978804,234.325 C209.778804,234.325 206.503804,232.375 206.503804,228.1 Z M224.986413,234 L222.311413,234 L222.311413,224.35 L218.161413,224.35 L218.161413,222 L229.111413,222 L229.111413,224.35 L224.986413,224.35 L224.986413,234 Z M238.044022,234 L230.994022,234 L230.994022,222 L237.844022,222 C240.269022,222 241.644022,223.325 241.644022,225.2 C241.644022,226.525 240.969022,227.475 239.944022,227.925 C241.069022,228.275 241.994022,229.225 241.994022,230.7 C241.994022,232.55 240.819022,234 238.044022,234 Z M233.669022,228.9 L233.669022,231.975 L237.394022,231.975 C238.494022,231.975 239.294022,231.6 239.294022,230.45 C239.294022,229.225 238.369022,228.9 237.444022,228.9 L233.669022,228.9 Z M233.669022,224.025 L233.669022,227 L237.244022,227 C238.194022,227 238.944022,226.625 238.944022,225.55 C238.944022,224.375 238.069022,224.025 237.244022,224.025 L233.669022,224.025 Z" id="Распределение-средст" fill="#000000"></path>
            <path d="M264.679565,14 L262.399565,14 L262.399565,0 L274.159565,0 L274.159565,14 L271.879565,14 L271.879565,2.1 L264.679565,2.1 L264.679565,14 Z M278.882174,5.9 C279.642174,4.98 280.782174,4.14 282.582174,4.14 C285.462174,4.14 287.342174,6.44 287.342174,9.2 C287.342174,11.96 285.462174,14.26 282.582174,14.26 C280.902174,14.26 279.782174,13.52 279.122174,12.76 L279.122174,18.4 L276.982174,18.4 L276.982174,4.4 L278.882174,4.4 L278.882174,5.9 Z M285.162174,9.2 C285.162174,7.32 283.922174,6.02 282.182174,6.02 C280.702174,6.02 279.582174,6.98 279.122174,8.02 L279.122174,10.36 C279.582174,11.42 280.702174,12.38 282.182174,12.38 C283.922174,12.38 285.162174,11.08 285.162174,9.2 Z M297.384783,11.78 C297.384783,12.32 297.704783,12.48 298.084783,12.48 C298.304783,12.48 298.524783,12.42 298.724783,12.36 L298.724783,13.9 C298.324783,14.06 297.844783,14.14 297.364783,14.14 C296.484783,14.14 295.784783,13.8 295.444783,13.02 C294.504783,13.78 293.324783,14.26 291.824783,14.26 C290.084783,14.26 288.464783,13.3 288.464783,11.32 C288.464783,8.86 290.744783,8.1 292.744783,8.1 C293.564783,8.1 294.484783,8.22 295.244783,8.38 L295.244783,8.04 C295.244783,6.84 294.364783,6 292.724783,6 C291.304783,6 290.124783,6.36 289.264783,6.74 L289.264783,4.78 C290.024783,4.52 291.404783,4.14 292.944783,4.14 C295.664783,4.14 297.384783,5.44 297.384783,8.34 L297.384783,11.78 Z M293.164783,9.6 C291.944783,9.6 290.664783,9.98 290.664783,11.18 C290.664783,12.12 291.504783,12.6 292.464783,12.6 C293.484783,12.6 294.484783,12.22 295.244783,11.46 L295.244783,9.84 C294.664783,9.72 293.844783,9.6 293.164783,9.6 Z M305.767391,14 L300.127391,14 L300.127391,4.4 L305.607391,4.4 C307.547391,4.4 308.647391,5.46 308.647391,6.96 C308.647391,8.02 308.107391,8.78 307.287391,9.14 C308.187391,9.42 308.927391,10.18 308.927391,11.36 C308.927391,12.84 307.987391,14 305.767391,14 Z M302.267391,9.92 L302.267391,12.38 L305.247391,12.38 C306.127391,12.38 306.767391,12.08 306.767391,11.16 C306.767391,10.18 306.027391,9.92 305.287391,9.92 L302.267391,9.92 Z M302.267391,6.02 L302.267391,8.4 L305.127391,8.4 C305.887391,8.4 306.487391,8.1 306.487391,7.24 C306.487391,6.3 305.787391,6.02 305.127391,6.02 L302.267391,6.02 Z M310.27,9.2 C310.27,5.88 312.79,4.14 315.47,4.14 C318.17,4.14 320.67,5.88 320.67,9.2 C320.67,12.52 318.17,14.26 315.47,14.26 C312.79,14.26 310.27,12.52 310.27,9.2 Z M318.49,9.2 C318.49,7.32 317.25,6.1 315.47,6.1 C313.67,6.1 312.43,7.32 312.43,9.2 C312.43,11.08 313.67,12.3 315.47,12.3 C317.25,12.3 318.49,11.08 318.49,9.2 Z M328.172609,14 L322.532609,14 L322.532609,4.4 L328.012609,4.4 C329.952609,4.4 331.052609,5.46 331.052609,6.96 C331.052609,8.02 330.512609,8.78 329.692609,9.14 C330.592609,9.42 331.332609,10.18 331.332609,11.36 C331.332609,12.84 330.392609,14 328.172609,14 Z M324.672609,9.92 L324.672609,12.38 L327.652609,12.38 C328.532609,12.38 329.172609,12.08 329.172609,11.16 C329.172609,10.18 328.432609,9.92 327.692609,9.92 L324.672609,9.92 Z M324.672609,6.02 L324.672609,8.4 L327.532609,8.4 C328.292609,8.4 328.892609,8.1 328.892609,7.24 C328.892609,6.3 328.192609,6.02 327.532609,6.02 L324.672609,6.02 Z M332.675217,9.2 C332.675217,5.88 335.195217,4.14 337.875217,4.14 C340.575217,4.14 343.075217,5.88 343.075217,9.2 C343.075217,12.52 340.575217,14.26 337.875217,14.26 C335.195217,14.26 332.675217,12.52 332.675217,9.2 Z M340.895217,9.2 C340.895217,7.32 339.655217,6.1 337.875217,6.1 C336.075217,6.1 334.835217,7.32 334.835217,9.2 C334.835217,11.08 336.075217,12.3 337.875217,12.3 C339.655217,12.3 340.895217,11.08 340.895217,9.2 Z M344.337826,9.2 C344.337826,5.72 346.977826,4.14 349.197826,4.14 C353.017826,4.14 354.337826,7.22 353.717826,10 L346.497826,10 C346.737826,11.72 348.417826,12.44 350.177826,12.44 C351.337826,12.44 352.397826,12.16 353.217826,11.76 L353.217826,13.6 C352.337826,14.02 351.117826,14.26 349.777826,14.26 C346.837826,14.26 344.337826,12.58 344.337826,9.2 Z M351.797826,8.4 C351.917826,7.56 351.397826,5.92 349.297826,5.92 C347.857826,5.92 346.557826,6.78 346.477826,8.4 L351.797826,8.4 Z M238.693043,28.9 C239.453043,27.98 240.593043,27.14 242.393043,27.14 C245.273043,27.14 247.153043,29.44 247.153043,32.2 C247.153043,34.96 245.273043,37.26 242.393043,37.26 C240.713043,37.26 239.593043,36.52 238.933043,35.76 L238.933043,41.4 L236.793043,41.4 L236.793043,27.4 L238.693043,27.4 L238.693043,28.9 Z M244.973043,32.2 C244.973043,30.32 243.733043,29.02 241.993043,29.02 C240.513043,29.02 239.393043,29.98 238.933043,31.02 L238.933043,33.36 C239.393043,34.42 240.513043,35.38 241.993043,35.38 C243.733043,35.38 244.973043,34.08 244.973043,32.2 Z M248.415652,32.2 C248.415652,28.72 251.055652,27.14 253.275652,27.14 C257.095652,27.14 258.415652,30.22 257.795652,33 L250.575652,33 C250.815652,34.72 252.495652,35.44 254.255652,35.44 C255.415652,35.44 256.475652,35.16 257.295652,34.76 L257.295652,36.6 C256.415652,37.02 255.195652,37.26 253.855652,37.26 C250.915652,37.26 248.415652,35.58 248.415652,32.2 Z M255.875652,31.4 C255.995652,30.56 255.475652,28.92 253.375652,28.92 C251.935652,28.92 250.635652,29.78 250.555652,31.4 L255.875652,31.4 Z M261.858261,37 L259.718261,37 L259.718261,27.4 L266.878261,27.4 L266.878261,29.28 L261.858261,29.28 L261.858261,37 Z M272.64087,34.64 L275.50087,27.4 L277.74087,27.4 L273.24087,38.3 C272.20087,40.8 270.84087,41.64 269.38087,41.64 C268.96087,41.64 268.54087,41.58 268.12087,41.48 L268.12087,39.66 C268.44087,39.76 268.78087,39.8 269.10087,39.8 C270.14087,39.8 270.92087,39.06 271.48087,37.56 L271.68087,37.08 L267.12087,27.4 L269.40087,27.4 L272.64087,34.64 Z M282.083478,29.22 C281.803478,33.86 281.083478,37.18 278.523478,37.18 C278.123478,37.18 277.683478,37.1 277.203478,36.92 L277.203478,35.24 C277.423478,35.32 277.623478,35.36 277.823478,35.36 C279.443478,35.36 279.883478,32.16 280.063478,27.4 L287.463478,27.4 L287.463478,37 L285.323478,37 L285.323478,29.22 L282.083478,29.22 Z M291.766087,37 L289.926087,37 L289.926087,27.4 L292.066087,27.4 L292.066087,33.68 L297.206087,27.4 L299.046087,27.4 L299.046087,37 L296.906087,37 L296.906087,30.72 L291.766087,37 Z M303.408696,28.9 C304.168696,27.98 305.308696,27.14 307.108696,27.14 C309.988696,27.14 311.868696,29.44 311.868696,32.2 C311.868696,34.96 309.988696,37.26 307.108696,37.26 C305.428696,37.26 304.308696,36.52 303.648696,35.76 L303.648696,41.4 L301.508696,41.4 L301.508696,27.4 L303.408696,27.4 L303.408696,28.9 Z M309.688696,32.2 C309.688696,30.32 308.448696,29.02 306.708696,29.02 C305.228696,29.02 304.108696,29.98 303.648696,31.02 L303.648696,33.36 C304.108696,34.42 305.228696,35.38 306.708696,35.38 C308.448696,35.38 309.688696,34.08 309.688696,32.2 Z M313.131304,32.2 C313.131304,28.88 315.651304,27.14 318.331304,27.14 C321.031304,27.14 323.531304,28.88 323.531304,32.2 C323.531304,35.52 321.031304,37.26 318.331304,37.26 C315.651304,37.26 313.131304,35.52 313.131304,32.2 Z M321.351304,32.2 C321.351304,30.32 320.111304,29.1 318.331304,29.1 C316.531304,29.1 315.291304,30.32 315.291304,32.2 C315.291304,34.08 316.531304,35.3 318.331304,35.3 C320.111304,35.3 321.351304,34.08 321.351304,32.2 Z M331.033913,37 L325.393913,37 L325.393913,27.4 L330.873913,27.4 C332.813913,27.4 333.913913,28.46 333.913913,29.96 C333.913913,31.02 333.373913,31.78 332.553913,32.14 C333.453913,32.42 334.193913,33.18 334.193913,34.36 C334.193913,35.84 333.253913,37 331.033913,37 Z M327.533913,32.92 L327.533913,35.38 L330.513913,35.38 C331.393913,35.38 332.033913,35.08 332.033913,34.16 C332.033913,33.18 331.293913,32.92 330.553913,32.92 L327.533913,32.92 Z M327.533913,29.02 L327.533913,31.4 L330.393913,31.4 C331.153913,31.4 331.753913,31.1 331.753913,30.24 C331.753913,29.3 331.053913,29.02 330.393913,29.02 L327.533913,29.02 Z M344.316522,34.78 C344.316522,35.32 344.636522,35.48 345.016522,35.48 C345.236522,35.48 345.456522,35.42 345.656522,35.36 L345.656522,36.9 C345.256522,37.06 344.776522,37.14 344.296522,37.14 C343.416522,37.14 342.716522,36.8 342.376522,36.02 C341.436522,36.78 340.256522,37.26 338.756522,37.26 C337.016522,37.26 335.396522,36.3 335.396522,34.32 C335.396522,31.86 337.676522,31.1 339.676522,31.1 C340.496522,31.1 341.416522,31.22 342.176522,31.38 L342.176522,31.04 C342.176522,29.84 341.296522,29 339.656522,29 C338.236522,29 337.056522,29.36 336.196522,29.74 L336.196522,27.78 C336.956522,27.52 338.336522,27.14 339.876522,27.14 C342.596522,27.14 344.316522,28.44 344.316522,31.34 L344.316522,34.78 Z M340.096522,32.6 C338.876522,32.6 337.596522,32.98 337.596522,34.18 C337.596522,35.12 338.436522,35.6 339.396522,35.6 C340.416522,35.6 341.416522,35.22 342.176522,34.46 L342.176522,32.84 C341.596522,32.72 340.776522,32.6 340.096522,32.6 Z M349.19913,37 L347.05913,37 L347.05913,27.4 L349.19913,27.4 L349.19913,31.26 L353.99913,31.26 L353.99913,27.4 L356.13913,27.4 L356.13913,37 L353.99913,37 L353.99913,33.14 L349.19913,33.14 L349.19913,37 Z M360.441739,37 L358.601739,37 L358.601739,27.4 L360.741739,27.4 L360.741739,33.68 L365.881739,27.4 L367.721739,27.4 L367.721739,37 L365.581739,37 L365.581739,30.72 L360.441739,37 Z M369.584348,32.2 C369.584348,28.72 372.224348,27.14 374.444348,27.14 C378.264348,27.14 379.584348,30.22 378.964348,33 L371.744348,33 C371.984348,34.72 373.664348,35.44 375.424348,35.44 C376.584348,35.44 377.644348,35.16 378.464348,34.76 L378.464348,36.6 C377.584348,37.02 376.364348,37.26 375.024348,37.26 C372.084348,37.26 369.584348,35.58 369.584348,32.2 Z M377.044348,31.4 C377.164348,30.56 376.644348,28.92 374.544348,28.92 C373.104348,28.92 371.804348,29.78 371.724348,31.4 L377.044348,31.4 Z M291.896087,48.4 L293.136087,48.4 L293.136087,60.4 L295.676087,60.4 L295.676087,62 L288.596087,62 L288.596087,60.4 L291.456087,60.4 L291.456087,50.18 L288.596087,51.26 L288.596087,49.66 L291.896087,48.4 Z M296.938696,55.2 C296.938696,51.18 298.818696,48.16 302.938696,48.16 C307.078696,48.16 308.958696,51.18 308.958696,55.2 C308.958696,59.22 307.078696,62.24 302.938696,62.24 C298.818696,62.24 296.938696,59.22 296.938696,55.2 Z M307.258696,55.2 C307.258696,51.8 305.918696,49.76 302.938696,49.76 C299.978696,49.76 298.638696,51.8 298.638696,55.2 C298.638696,58.6 299.978696,60.64 302.938696,60.64 C305.918696,60.64 307.258696,58.6 307.258696,55.2 Z M315.441304,63.2 L313.841304,63.2 L322.021304,46.8 L323.621304,46.8 L315.441304,63.2 Z M316.981304,50.9 C316.981304,52.92 315.441304,54.04 313.721304,54.04 C311.981304,54.04 310.421304,52.92 310.421304,50.9 C310.421304,48.88 311.981304,47.76 313.721304,47.76 C315.441304,47.76 316.981304,48.88 316.981304,50.9 Z M311.941304,50.9 C311.941304,51.84 312.541304,52.64 313.721304,52.64 C314.861304,52.64 315.461304,51.84 315.461304,50.9 C315.461304,49.96 314.861304,49.16 313.721304,49.16 C312.541304,49.16 311.941304,49.96 311.941304,50.9 Z M327.021304,59.1 C327.021304,61.12 325.481304,62.24 323.761304,62.24 C322.021304,62.24 320.461304,61.12 320.461304,59.1 C320.461304,57.08 322.021304,55.96 323.761304,55.96 C325.481304,55.96 327.021304,57.08 327.021304,59.1 Z M321.981304,59.1 C321.981304,60.04 322.581304,60.84 323.761304,60.84 C324.901304,60.84 325.501304,60.04 325.501304,59.1 C325.501304,58.16 324.901304,57.36 323.761304,57.36 C322.581304,57.36 321.981304,58.16 321.981304,59.1 Z" id="Правовое-регулирован" fill="#000000"></path>
            <path d="M361.688261,80 L363.748261,80 L363.748261,94 L361.468261,94 L361.468261,84.2 L357.048261,90.84 L355.688261,90.84 L351.268261,84.18 L351.268261,94 L348.988261,94 L348.988261,80 L351.048261,80 L356.368261,88.02 L361.688261,80 Z M374.59087,91.78 C374.59087,92.32 374.91087,92.48 375.29087,92.48 C375.51087,92.48 375.73087,92.42 375.93087,92.36 L375.93087,93.9 C375.53087,94.06 375.05087,94.14 374.57087,94.14 C373.69087,94.14 372.99087,93.8 372.65087,93.02 C371.71087,93.78 370.53087,94.26 369.03087,94.26 C367.29087,94.26 365.67087,93.3 365.67087,91.32 C365.67087,88.86 367.95087,88.1 369.95087,88.1 C370.77087,88.1 371.69087,88.22 372.45087,88.38 L372.45087,88.04 C372.45087,86.84 371.57087,86 369.93087,86 C368.51087,86 367.33087,86.36 366.47087,86.74 L366.47087,84.78 C367.23087,84.52 368.61087,84.14 370.15087,84.14 C372.87087,84.14 374.59087,85.44 374.59087,88.34 L374.59087,91.78 Z M370.37087,89.6 C369.15087,89.6 367.87087,89.98 367.87087,91.18 C367.87087,92.12 368.71087,92.6 369.67087,92.6 C370.69087,92.6 371.69087,92.22 372.45087,91.46 L372.45087,89.84 C371.87087,89.72 371.05087,89.6 370.37087,89.6 Z M379.233478,85.9 C379.993478,84.98 381.133478,84.14 382.933478,84.14 C385.813478,84.14 387.693478,86.44 387.693478,89.2 C387.693478,91.96 385.813478,94.26 382.933478,94.26 C381.253478,94.26 380.133478,93.52 379.473478,92.76 L379.473478,98.4 L377.333478,98.4 L377.333478,84.4 L379.233478,84.4 L379.233478,85.9 Z M385.513478,89.2 C385.513478,87.32 384.273478,86.02 382.533478,86.02 C381.053478,86.02 379.933478,86.98 379.473478,88.02 L379.473478,90.36 C379.933478,91.42 381.053478,92.38 382.533478,92.38 C384.273478,92.38 385.513478,91.08 385.513478,89.2 Z M391.696087,94 L389.556087,94 L389.556087,84.4 L391.696087,84.4 L391.696087,88.2 L393.276087,88.2 L396.036087,84.4 L398.476087,84.4 L394.996087,89.16 L398.856087,94 L396.396087,94 L393.236087,90.02 L391.696087,90.02 L391.696087,94 Z M398.958696,89.2 C398.958696,85.72 401.598696,84.14 403.818696,84.14 C407.638696,84.14 408.958696,87.22 408.338696,90 L401.118696,90 C401.358696,91.72 403.038696,92.44 404.798696,92.44 C405.958696,92.44 407.018696,92.16 407.838696,91.76 L407.838696,93.6 C406.958696,94.02 405.738696,94.26 404.398696,94.26 C401.458696,94.26 398.958696,92.58 398.958696,89.2 Z M406.418696,88.4 C406.538696,87.56 406.018696,85.92 403.918696,85.92 C402.478696,85.92 401.178696,86.78 401.098696,88.4 L406.418696,88.4 Z M414.561304,94 L412.421304,94 L412.421304,86.28 L409.101304,86.28 L409.101304,84.4 L417.861304,84.4 L417.861304,86.28 L414.561304,86.28 L414.561304,94 Z M421.163913,94 L419.323913,94 L419.323913,84.4 L421.463913,84.4 L421.463913,90.68 L426.603913,84.4 L428.443913,84.4 L428.443913,94 L426.303913,94 L426.303913,87.72 L421.163913,94 Z M433.046522,94 L430.906522,94 L430.906522,84.4 L433.046522,84.4 L433.046522,88.26 L437.846522,88.26 L437.846522,84.4 L439.986522,84.4 L439.986522,94 L437.846522,94 L437.846522,90.14 L433.046522,90.14 L433.046522,94 Z M444.58913,94 L442.44913,94 L442.44913,84.4 L449.60913,84.4 L449.60913,86.28 L444.58913,86.28 L444.58913,94 Z M379.696087,104.48 C381.056087,103.54 382.556087,103.16 384.056087,103.16 C386.836087,103.16 388.696087,104.48 388.696087,106.8 C388.696087,109.12 386.756087,110.46 384.856087,111.58 C382.956087,112.7 381.096087,113.62 381.056087,115.42 L388.796087,115.4 L388.796087,117 L379.216087,117 L379.216087,116.2 C379.216087,112.88 381.656087,111.62 383.776087,110.38 C385.476087,109.38 387.016087,108.54 387.016087,106.78 C387.016087,105.44 385.876087,104.72 383.916087,104.72 C382.536087,104.72 381.096087,105.18 379.696087,106.16 L379.696087,104.48 Z M391.478696,103.4 L399.638696,103.4 L399.638696,105 L393.058696,105 L392.818696,108.84 C393.538696,108.64 394.338696,108.54 395.138696,108.54 C397.698696,108.54 400.298696,109.64 400.298696,112.9 C400.298696,115.66 397.978696,117.24 395.018696,117.24 C393.438696,117.24 391.838696,116.9 390.658696,116.32 L390.658696,114.72 C391.818696,115.34 393.358696,115.68 394.818696,115.68 C397.038696,115.68 398.598696,114.74 398.598696,112.9 C398.598696,110.68 396.678696,110.06 394.558696,110.06 C393.358696,110.06 392.078696,110.32 391.038696,110.7 L391.478696,103.4 Z M406.641304,118.2 L405.041304,118.2 L413.221304,101.8 L414.821304,101.8 L406.641304,118.2 Z M408.181304,105.9 C408.181304,107.92 406.641304,109.04 404.921304,109.04 C403.181304,109.04 401.621304,107.92 401.621304,105.9 C401.621304,103.88 403.181304,102.76 404.921304,102.76 C406.641304,102.76 408.181304,103.88 408.181304,105.9 Z M403.141304,105.9 C403.141304,106.84 403.741304,107.64 404.921304,107.64 C406.061304,107.64 406.661304,106.84 406.661304,105.9 C406.661304,104.96 406.061304,104.16 404.921304,104.16 C403.741304,104.16 403.141304,104.96 403.141304,105.9 Z M418.221304,114.1 C418.221304,116.12 416.681304,117.24 414.961304,117.24 C413.221304,117.24 411.661304,116.12 411.661304,114.1 C411.661304,112.08 413.221304,110.96 414.961304,110.96 C416.681304,110.96 418.221304,112.08 418.221304,114.1 Z M413.181304,114.1 C413.181304,115.04 413.781304,115.84 414.961304,115.84 C416.101304,115.84 416.701304,115.04 416.701304,114.1 C416.701304,113.16 416.101304,112.36 414.961304,112.36 C413.781304,112.36 413.181304,113.16 413.181304,114.1 Z" id="Маркетинг-25%" fill="#000000"></path>
            <path d="M4.866957,364 L9.866957,364 C13.186956,364 15.846957,365.04 15.846957,368.6 C15.846957,372.16 13.186956,373.2 9.866957,373.2 L7.146956,373.2 L7.146956,378 L4.866957,378 L4.866957,364 Z M13.526956,368.6 C13.526956,366.56 11.926956,366.08 9.986957,366.08 L7.146956,366.08 L7.146956,371.12 L9.986957,371.12 C11.906956,371.12 13.526956,370.64 13.526956,368.6 Z M25.429565,375.78 C25.429565,376.32 25.749565,376.48 26.129565,376.48 C26.349565,376.48 26.569565,376.42 26.769565,376.36 L26.769565,377.9 C26.369565,378.06 25.889565,378.14 25.409565,378.14 C24.529565,378.14 23.829565,377.8 23.489565,377.02 C22.549565,377.78 21.369565,378.26 19.869565,378.26 C18.129565,378.26 16.509565,377.3 16.509565,375.32 C16.509565,372.86 18.789565,372.1 20.789565,372.1 C21.609565,372.1 22.529565,372.22 23.289565,372.38 L23.289565,372.04 C23.289565,370.84 22.409565,370 20.769565,370 C19.349565,370 18.169565,370.36 17.309565,370.74 L17.309565,368.78 C18.069565,368.52 19.449565,368.14 20.989565,368.14 C23.709565,368.14 25.429565,369.44 25.429565,372.34 L25.429565,375.78 Z M21.209565,373.6 C19.989565,373.6 18.709565,373.98 18.709565,375.18 C18.709565,376.12 19.549565,376.6 20.509565,376.6 C21.529565,376.6 22.529565,376.22 23.289565,375.46 L23.289565,373.84 C22.709565,373.72 21.889565,373.6 21.209565,373.6 Z M35.692174,375.38 C35.692174,377.06 34.152174,378.26 31.192174,378.26 C29.752174,378.26 28.472174,377.94 27.592174,377.48 L27.592174,375.64 C28.372174,376.08 29.752174,376.44 30.912174,376.44 C32.332174,376.44 33.532174,376.18 33.532174,375.12 C33.532174,374.1 32.492174,373.94 31.532174,373.94 L29.572174,373.94 L29.572174,372.3 L31.532174,372.3 C32.552174,372.3 33.332174,372.02 33.332174,371.22 C33.332174,370.36 32.412174,369.94 31.032174,369.94 C29.912174,369.94 28.592174,370.28 27.772174,370.72 L27.772174,368.88 C28.692174,368.44 29.972174,368.12 31.292174,368.12 C34.252174,368.12 35.492174,369.38 35.492174,370.94 C35.492174,372.08 34.792174,372.82 33.792174,373.08 C34.892174,373.38 35.692174,374.18 35.692174,375.38 Z M39.514783,369.9 C40.274783,368.98 41.414783,368.14 43.214783,368.14 C46.094783,368.14 47.974783,370.44 47.974783,373.2 C47.974783,375.96 46.094783,378.26 43.214783,378.26 C41.534783,378.26 40.414783,377.52 39.754783,376.76 L39.754783,382.4 L37.614783,382.4 L37.614783,368.4 L39.514783,368.4 L39.514783,369.9 Z M45.794783,373.2 C45.794783,371.32 44.554783,370.02 42.814783,370.02 C41.334783,370.02 40.214783,370.98 39.754783,372.02 L39.754783,374.36 C40.214783,375.42 41.334783,376.38 42.814783,376.38 C44.554783,376.38 45.794783,375.08 45.794783,373.2 Z M58.017391,375.78 C58.017391,376.32 58.337391,376.48 58.717391,376.48 C58.937391,376.48 59.157391,376.42 59.357391,376.36 L59.357391,377.9 C58.957391,378.06 58.477391,378.14 57.997391,378.14 C57.117391,378.14 56.417391,377.8 56.077391,377.02 C55.137391,377.78 53.957391,378.26 52.457391,378.26 C50.717391,378.26 49.097391,377.3 49.097391,375.32 C49.097391,372.86 51.377391,372.1 53.377391,372.1 C54.197391,372.1 55.117391,372.22 55.877391,372.38 L55.877391,372.04 C55.877391,370.84 54.997391,370 53.357391,370 C51.937391,370 50.757391,370.36 49.897391,370.74 L49.897391,368.78 C50.657391,368.52 52.037391,368.14 53.577391,368.14 C56.297391,368.14 58.017391,369.44 58.017391,372.34 L58.017391,375.78 Z M53.797391,373.6 C52.577391,373.6 51.297391,373.98 51.297391,375.18 C51.297391,376.12 52.137391,376.6 53.097391,376.6 C54.117391,376.6 55.117391,376.22 55.877391,375.46 L55.877391,373.84 C55.297391,373.72 54.477391,373.6 53.797391,373.6 Z M70.36,373.54 C70.36,376.58 68.26,378.26 65.36,378.26 C62.5,378.26 60.32,376.42 60.32,372.56 C60.32,369.24 61.56,367.12 63.28,366.04 C66.04,364.34 68.14,365.08 69.5,363.74 L69.5,365.82 C68.16,366.84 66.58,366.38 64.54,367.52 C63.32,368.22 62.78,369.46 62.5,370.56 C63.14,369.6 64.38,368.88 65.86,368.88 C68.28,368.88 70.36,370.64 70.36,373.54 Z M62.48,373.58 C62.48,375.06 63.46,376.42 65.32,376.42 C67.24,376.42 68.18,375.06 68.18,373.58 C68.18,372.1 67.24,370.74 65.32,370.74 C63.48,370.74 62.48,372.24 62.48,373.58 Z M71.642609,373.2 C71.642609,369.88 74.162609,368.14 76.842609,368.14 C79.542609,368.14 82.042609,369.88 82.042609,373.2 C82.042609,376.52 79.542609,378.26 76.842609,378.26 C74.162609,378.26 71.642609,376.52 71.642609,373.2 Z M79.862609,373.2 C79.862609,371.32 78.622609,370.1 76.842609,370.1 C75.042609,370.1 73.802609,371.32 73.802609,373.2 C73.802609,375.08 75.042609,376.3 76.842609,376.3 C78.622609,376.3 79.862609,375.08 79.862609,373.2 Z M88.105217,378 L85.965217,378 L85.965217,370.28 L82.645217,370.28 L82.645217,368.4 L91.405217,368.4 L91.405217,370.28 L88.105217,370.28 L88.105217,378 Z M95.007826,378 L92.867826,378 L92.867826,368.4 L95.007826,368.4 L95.007826,372.2 L96.587826,372.2 L99.347826,368.4 L101.787826,368.4 L98.307826,373.16 L102.167826,378 L99.707826,378 L96.547826,374.02 L95.007826,374.02 L95.007826,378 Z M111.430435,375.78 C111.430435,376.32 111.750435,376.48 112.130435,376.48 C112.350435,376.48 112.570435,376.42 112.770435,376.36 L112.770435,377.9 C112.370435,378.06 111.890435,378.14 111.410435,378.14 C110.530435,378.14 109.830435,377.8 109.490435,377.02 C108.550435,377.78 107.370435,378.26 105.870435,378.26 C104.130435,378.26 102.510435,377.3 102.510435,375.32 C102.510435,372.86 104.790435,372.1 106.790435,372.1 C107.610435,372.1 108.530435,372.22 109.290435,372.38 L109.290435,372.04 C109.290435,370.84 108.410435,370 106.770435,370 C105.350435,370 104.170435,370.36 103.310435,370.74 L103.310435,368.78 C104.070435,368.52 105.450435,368.14 106.990435,368.14 C109.710435,368.14 111.430435,369.44 111.430435,372.34 L111.430435,375.78 Z M107.210435,373.6 C105.990435,373.6 104.710435,373.98 104.710435,375.18 C104.710435,376.12 105.550435,376.6 106.510435,376.6 C107.530435,376.6 108.530435,376.22 109.290435,375.46 L109.290435,373.84 C108.710435,373.72 107.890435,373.6 107.210435,373.6 Z M2.696957,401 L0.556956,401 L0.556956,391.4 L9.636956,391.4 L9.636956,401 L7.496957,401 L7.496957,393.28 L2.696957,393.28 L2.696957,401 Z M13.999565,392.9 C14.759565,391.98 15.899565,391.14 17.699565,391.14 C20.579565,391.14 22.459565,393.44 22.459565,396.2 C22.459565,398.96 20.579565,401.26 17.699565,401.26 C16.019565,401.26 14.899565,400.52 14.239565,399.76 L14.239565,405.4 L12.099565,405.4 L12.099565,391.4 L13.999565,391.4 L13.999565,392.9 Z M20.279565,396.2 C20.279565,394.32 19.039565,393.02 17.299565,393.02 C15.819565,393.02 14.699565,393.98 14.239565,395.02 L14.239565,397.36 C14.699565,398.42 15.819565,399.38 17.299565,399.38 C19.039565,399.38 20.279565,398.08 20.279565,396.2 Z M26.162174,401 L24.322174,401 L24.322174,391.4 L26.462174,391.4 L26.462174,397.68 L31.602174,391.4 L33.442174,391.4 L33.442174,401 L31.302174,401 L31.302174,394.72 L26.162174,401 Z M39.724783,393.22 C39.444783,397.86 38.724783,401.18 36.164783,401.18 C35.764783,401.18 35.324783,401.1 34.844783,400.92 L34.844783,399.24 C35.064783,399.32 35.264783,399.36 35.464783,399.36 C37.084783,399.36 37.524783,396.16 37.704783,391.4 L45.104783,391.4 L45.104783,401 L42.964783,401 L42.964783,393.22 L39.724783,393.22 Z M46.967391,396.2 C46.967391,392.88 49.487391,391.14 52.167391,391.14 C54.867391,391.14 57.367391,392.88 57.367391,396.2 C57.367391,399.52 54.867391,401.26 52.167391,401.26 C49.487391,401.26 46.967391,399.52 46.967391,396.2 Z M55.187391,396.2 C55.187391,394.32 53.947391,393.1 52.167391,393.1 C50.367391,393.1 49.127391,394.32 49.127391,396.2 C49.127391,398.08 50.367391,399.3 52.167391,399.3 C53.947391,399.3 55.187391,398.08 55.187391,396.2 Z M72.77,401 L70.43,401 L67.57,397.18 L66.23,397.18 L66.23,401 L64.09,401 L64.09,397.18 L62.77,397.18 L59.91,401 L57.57,401 L61.15,396.18 L57.93,391.4 L60.27,391.4 L62.89,395.36 L64.09,395.36 L64.09,391.4 L66.23,391.4 L66.23,395.36 L67.45,395.36 L70.07,391.4 L72.39,391.4 L69.19,396.18 L72.77,401 Z M72.932609,396.2 C72.932609,392.72 75.572609,391.14 77.792609,391.14 C81.612609,391.14 82.932609,394.22 82.312609,397 L75.092609,397 C75.332609,398.72 77.012609,399.44 78.772609,399.44 C79.932609,399.44 80.992609,399.16 81.812609,398.76 L81.812609,400.6 C80.932609,401.02 79.712609,401.26 78.372609,401.26 C75.432609,401.26 72.932609,399.58 72.932609,396.2 Z M80.392609,395.4 C80.512609,394.56 79.992609,392.92 77.892609,392.92 C76.452609,392.92 75.152609,393.78 75.072609,395.4 L80.392609,395.4 Z M86.375217,401 L84.235217,401 L84.235217,391.4 L86.375217,391.4 L86.375217,395.26 L91.175217,395.26 L91.175217,391.4 L93.315217,391.4 L93.315217,401 L91.175217,401 L91.175217,397.14 L86.375217,397.14 L86.375217,401 Z M97.617826,401 L95.777826,401 L95.777826,391.4 L97.917826,391.4 L97.917826,397.68 L103.057826,391.4 L104.897826,391.4 L104.897826,401 L102.757826,401 L102.757826,394.72 L97.617826,401 Z M108.960435,401 L106.500435,401 L109.140435,397.62 C107.740435,397.14 107.000435,395.96 107.000435,394.64 C107.000435,392.9 108.300435,391.4 110.700435,391.4 L115.660435,391.4 L115.660435,401 L113.520435,401 L113.520435,397.86 L111.340435,397.86 L108.960435,401 Z M109.180435,394.66 C109.180435,395.6 109.880435,396.14 111.060435,396.14 L113.520435,396.14 L113.520435,393.18 L111.060435,393.18 C109.880435,393.18 109.180435,393.72 109.180435,394.66 Z M38.426087,412.4 L46.586087,412.4 L46.586087,414 L40.006087,414 L39.766087,417.84 C40.486087,417.64 41.286087,417.54 42.086087,417.54 C44.646087,417.54 47.246087,418.64 47.246087,421.9 C47.246087,424.66 44.926087,426.24 41.966087,426.24 C40.386087,426.24 38.786087,425.9 37.606087,425.32 L37.606087,423.72 C38.766087,424.34 40.306087,424.68 41.766087,424.68 C43.986087,424.68 45.546087,423.74 45.546087,421.9 C45.546087,419.68 43.626087,419.06 41.506087,419.06 C40.306087,419.06 39.026087,419.32 37.986087,419.7 L38.426087,412.4 Z M48.928696,419.2 C48.928696,415.18 50.808696,412.16 54.928696,412.16 C59.068696,412.16 60.948696,415.18 60.948696,419.2 C60.948696,423.22 59.068696,426.24 54.928696,426.24 C50.808696,426.24 48.928696,423.22 48.928696,419.2 Z M59.248696,419.2 C59.248696,415.8 57.908696,413.76 54.928696,413.76 C51.968696,413.76 50.628696,415.8 50.628696,419.2 C50.628696,422.6 51.968696,424.64 54.928696,424.64 C57.908696,424.64 59.248696,422.6 59.248696,419.2 Z M67.431304,427.2 L65.831304,427.2 L74.011304,410.8 L75.611304,410.8 L67.431304,427.2 Z M68.971304,414.9 C68.971304,416.92 67.431304,418.04 65.711304,418.04 C63.971304,418.04 62.411304,416.92 62.411304,414.9 C62.411304,412.88 63.971304,411.76 65.711304,411.76 C67.431304,411.76 68.971304,412.88 68.971304,414.9 Z M63.931304,414.9 C63.931304,415.84 64.531304,416.64 65.711304,416.64 C66.851304,416.64 67.451304,415.84 67.451304,414.9 C67.451304,413.96 66.851304,413.16 65.711304,413.16 C64.531304,413.16 63.931304,413.96 63.931304,414.9 Z M79.011304,423.1 C79.011304,425.12 77.471304,426.24 75.751304,426.24 C74.011304,426.24 72.451304,425.12 72.451304,423.1 C72.451304,421.08 74.011304,419.96 75.751304,419.96 C77.471304,419.96 79.011304,421.08 79.011304,423.1 Z M73.971304,423.1 C73.971304,424.04 74.571304,424.84 75.751304,424.84 C76.891304,424.84 77.491304,424.04 77.491304,423.1 C77.491304,422.16 76.891304,421.36 75.751304,421.36 C74.571304,421.36 73.971304,422.16 73.971304,423.1 Z" id="Разработка-приложени" fill="#000000"></path>
            <path d="M21.229565,17 L26.229565,17 C29.549565,17 32.209565,18.04 32.209565,21.6 C32.209565,25.16 29.549565,26.2 26.229565,26.2 L23.509565,26.2 L23.509565,31 L21.229565,31 L21.229565,17 Z M29.889565,21.6 C29.889565,19.56 28.289565,19.08 26.349565,19.08 L23.509565,19.08 L23.509565,24.12 L26.349565,24.12 C28.269565,24.12 29.889565,23.64 29.889565,21.6 Z M41.792174,28.78 C41.792174,29.32 42.112174,29.48 42.492174,29.48 C42.712174,29.48 42.932174,29.42 43.132174,29.36 L43.132174,30.9 C42.732174,31.06 42.252174,31.14 41.772174,31.14 C40.892174,31.14 40.192174,30.8 39.852174,30.02 C38.912174,30.78 37.732174,31.26 36.232174,31.26 C34.492174,31.26 32.872174,30.3 32.872174,28.32 C32.872174,25.86 35.152174,25.1 37.152174,25.1 C37.972174,25.1 38.892174,25.22 39.652174,25.38 L39.652174,25.04 C39.652174,23.84 38.772174,23 37.132174,23 C35.712174,23 34.532174,23.36 33.672174,23.74 L33.672174,21.78 C34.432174,21.52 35.812174,21.14 37.352174,21.14 C40.072174,21.14 41.792174,22.44 41.792174,25.34 L41.792174,28.78 Z M37.572174,26.6 C36.352174,26.6 35.072174,26.98 35.072174,28.18 C35.072174,29.12 35.912174,29.6 36.872174,29.6 C37.892174,29.6 38.892174,29.22 39.652174,28.46 L39.652174,26.84 C39.072174,26.72 38.252174,26.6 37.572174,26.6 Z M52.054783,28.38 C52.054783,30.06 50.514783,31.26 47.554783,31.26 C46.114783,31.26 44.834783,30.94 43.954783,30.48 L43.954783,28.64 C44.734783,29.08 46.114783,29.44 47.274783,29.44 C48.694783,29.44 49.894783,29.18 49.894783,28.12 C49.894783,27.1 48.854783,26.94 47.894783,26.94 L45.934783,26.94 L45.934783,25.3 L47.894783,25.3 C48.914783,25.3 49.694783,25.02 49.694783,24.22 C49.694783,23.36 48.774783,22.94 47.394783,22.94 C46.274783,22.94 44.954783,23.28 44.134783,23.72 L44.134783,21.88 C45.054783,21.44 46.334783,21.12 47.654783,21.12 C50.614783,21.12 51.854783,22.38 51.854783,23.94 C51.854783,25.08 51.154783,25.82 50.154783,26.08 C51.254783,26.38 52.054783,27.18 52.054783,28.38 Z M59.617391,31 L53.977391,31 L53.977391,21.4 L59.457391,21.4 C61.397391,21.4 62.497391,22.46 62.497391,23.96 C62.497391,25.02 61.957391,25.78 61.137391,26.14 C62.037391,26.42 62.777391,27.18 62.777391,28.36 C62.777391,29.84 61.837391,31 59.617391,31 Z M56.117391,26.92 L56.117391,29.38 L59.097391,29.38 C59.977391,29.38 60.617391,29.08 60.617391,28.16 C60.617391,27.18 59.877391,26.92 59.137391,26.92 L56.117391,26.92 Z M56.117391,23.02 L56.117391,25.4 L58.977391,25.4 C59.737391,25.4 60.337391,25.1 60.337391,24.24 C60.337391,23.3 59.637391,23.02 58.977391,23.02 L56.117391,23.02 Z M66.56,31 L64.72,31 L64.72,21.4 L66.86,21.4 L66.86,27.68 L72,21.4 L73.84,21.4 L73.84,31 L71.7,31 L71.7,24.72 L66.56,31 Z M80.762609,31 L78.622609,31 L78.622609,23.28 L75.302609,23.28 L75.302609,21.4 L84.062609,21.4 L84.062609,23.28 L80.762609,23.28 L80.762609,31 Z M87.365217,31 L85.525217,31 L85.525217,21.4 L87.665217,21.4 L87.665217,27.68 L92.805217,21.4 L94.645217,21.4 L94.645217,31 L92.505217,31 L92.505217,24.72 L87.365217,31 Z M96.507826,26.2 C96.507826,22.72 99.147826,21.14 101.367826,21.14 C105.187826,21.14 106.507826,24.22 105.887826,27 L98.667826,27 C98.907826,28.72 100.587826,29.44 102.347826,29.44 C103.507826,29.44 104.567826,29.16 105.387826,28.76 L105.387826,30.6 C104.507826,31.02 103.287826,31.26 101.947826,31.26 C99.007826,31.26 96.507826,29.58 96.507826,26.2 Z M103.967826,25.4 C104.087826,24.56 103.567826,22.92 101.467826,22.92 C100.027826,22.92 98.727826,23.78 98.647826,25.4 L103.967826,25.4 Z M11.858261,54 L9.718261,54 L9.718261,44.4 L18.798261,44.4 L18.798261,54 L16.658261,54 L16.658261,46.28 L11.858261,46.28 L11.858261,54 Z M25.08087,46.22 C24.80087,50.86 24.08087,54.18 21.52087,54.18 C21.12087,54.18 20.68087,54.1 20.20087,53.92 L20.20087,52.24 C20.42087,52.32 20.62087,52.36 20.82087,52.36 C22.44087,52.36 22.88087,49.16 23.06087,44.4 L30.46087,44.4 L30.46087,54 L28.32087,54 L28.32087,46.22 L25.08087,46.22 Z M41.103478,51.78 C41.103478,52.32 41.423478,52.48 41.803478,52.48 C42.023478,52.48 42.243478,52.42 42.443478,52.36 L42.443478,53.9 C42.043478,54.06 41.563478,54.14 41.083478,54.14 C40.203478,54.14 39.503478,53.8 39.163478,53.02 C38.223478,53.78 37.043478,54.26 35.543478,54.26 C33.803478,54.26 32.183478,53.3 32.183478,51.32 C32.183478,48.86 34.463478,48.1 36.463478,48.1 C37.283478,48.1 38.203478,48.22 38.963478,48.38 L38.963478,48.04 C38.963478,46.84 38.083478,46 36.443478,46 C35.023478,46 33.843478,46.36 32.983478,46.74 L32.983478,44.78 C33.743478,44.52 35.123478,44.14 36.663478,44.14 C39.383478,44.14 41.103478,45.44 41.103478,48.34 L41.103478,51.78 Z M36.883478,49.6 C35.663478,49.6 34.383478,49.98 34.383478,51.18 C34.383478,52.12 35.223478,52.6 36.183478,52.6 C37.203478,52.6 38.203478,52.22 38.963478,51.46 L38.963478,49.84 C38.383478,49.72 37.563478,49.6 36.883478,49.6 Z M47.906087,54 L45.766087,54 L45.766087,46.28 L42.446087,46.28 L42.446087,44.4 L51.206087,44.4 L51.206087,46.28 L47.906087,46.28 L47.906087,54 Z M59.448696,58.4 L57.368696,58.4 L57.368696,54.26 C54.188696,54.16 51.788696,52.24 51.788696,49.2 C51.788696,46.16 54.188696,44.24 57.368696,44.14 L57.368696,40 L59.448696,40 L59.448696,44.14 C62.628696,44.24 65.028696,46.16 65.028696,49.2 C65.028696,52.24 62.628696,54.16 59.448696,54.26 L59.448696,58.4 Z M53.928696,49.2 C53.928696,51.06 55.208696,52.34 57.368696,52.44 L57.368696,45.96 C55.208696,46.06 53.928696,47.34 53.928696,49.2 Z M59.448696,45.96 L59.448696,52.44 C61.608696,52.34 62.888696,51.06 62.888696,49.2 C62.888696,47.34 61.608696,46.06 59.448696,45.96 Z M66.271304,49.2 C66.271304,45.88 68.791304,44.14 71.471304,44.14 C74.171304,44.14 76.671304,45.88 76.671304,49.2 C76.671304,52.52 74.171304,54.26 71.471304,54.26 C68.791304,54.26 66.271304,52.52 66.271304,49.2 Z M74.491304,49.2 C74.491304,47.32 73.251304,46.1 71.471304,46.1 C69.671304,46.1 68.431304,47.32 68.431304,49.2 C68.431304,51.08 69.671304,52.3 71.471304,52.3 C73.251304,52.3 74.491304,51.08 74.491304,49.2 Z M80.433913,45.9 C81.193913,44.98 82.333913,44.14 84.133913,44.14 C87.013913,44.14 88.893913,46.44 88.893913,49.2 C88.893913,51.96 87.013913,54.26 84.133913,54.26 C82.453913,54.26 81.333913,53.52 80.673913,52.76 L80.673913,58.4 L78.533913,58.4 L78.533913,44.4 L80.433913,44.4 L80.433913,45.9 Z M86.713913,49.2 C86.713913,47.32 85.473913,46.02 83.733913,46.02 C82.253913,46.02 81.133913,46.98 80.673913,48.02 L80.673913,50.36 C81.133913,51.42 82.253913,52.38 83.733913,52.38 C85.473913,52.38 86.713913,51.08 86.713913,49.2 Z M92.816522,54 L90.756522,54 L90.756522,44.4 L92.916522,44.4 L96.176522,49.46 L99.456522,44.4 L101.616522,44.4 L101.616522,54 L99.556522,54 L99.556522,47.5 L96.816522,51.7 L95.536522,51.7 L92.816522,47.5 L92.816522,54 Z M108.83913,54 L104.07913,54 L104.07913,44.4 L106.21913,44.4 L106.21913,47.6 L108.83913,47.6 C111.25913,47.6 112.63913,48.98 112.63913,50.8 C112.63913,52.6 111.25913,54 108.83913,54 Z M106.21913,49.28 L106.21913,52.3 L108.41913,52.3 C109.67913,52.3 110.45913,51.78 110.45913,50.8 C110.45913,49.8 109.67913,49.28 108.41913,49.28 L106.21913,49.28 Z M116.49913,54 L114.35913,54 L114.35913,44.4 L116.49913,44.4 L116.49913,54 Z M48.636087,65.4 L49.876087,65.4 L49.876087,77.4 L52.416087,77.4 L52.416087,79 L45.336087,79 L45.336087,77.4 L48.196087,77.4 L48.196087,67.18 L45.336087,68.26 L45.336087,66.66 L48.636087,65.4 Z M54.538696,65.4 L62.698696,65.4 L62.698696,67 L56.118696,67 L55.878696,70.84 C56.598696,70.64 57.398696,70.54 58.198696,70.54 C60.758696,70.54 63.358696,71.64 63.358696,74.9 C63.358696,77.66 61.038696,79.24 58.078696,79.24 C56.498696,79.24 54.898696,78.9 53.718696,78.32 L53.718696,76.72 C54.878696,77.34 56.418696,77.68 57.878696,77.68 C60.098696,77.68 61.658696,76.74 61.658696,74.9 C61.658696,72.68 59.738696,72.06 57.618696,72.06 C56.418696,72.06 55.138696,72.32 54.098696,72.7 L54.538696,65.4 Z M69.701304,80.2 L68.101304,80.2 L76.281304,63.8 L77.881304,63.8 L69.701304,80.2 Z M71.241304,67.9 C71.241304,69.92 69.701304,71.04 67.981304,71.04 C66.241304,71.04 64.681304,69.92 64.681304,67.9 C64.681304,65.88 66.241304,64.76 67.981304,64.76 C69.701304,64.76 71.241304,65.88 71.241304,67.9 Z M66.201304,67.9 C66.201304,68.84 66.801304,69.64 67.981304,69.64 C69.121304,69.64 69.721304,68.84 69.721304,67.9 C69.721304,66.96 69.121304,66.16 67.981304,66.16 C66.801304,66.16 66.201304,66.96 66.201304,67.9 Z M81.281304,76.1 C81.281304,78.12 79.741304,79.24 78.021304,79.24 C76.281304,79.24 74.721304,78.12 74.721304,76.1 C74.721304,74.08 76.281304,72.96 78.021304,72.96 C79.741304,72.96 81.281304,74.08 81.281304,76.1 Z M76.241304,76.1 C76.241304,77.04 76.841304,77.84 78.021304,77.84 C79.161304,77.84 79.761304,77.04 79.761304,76.1 C79.761304,75.16 79.161304,74.36 78.021304,74.36 C76.841304,74.36 76.241304,75.16 76.241304,76.1 Z" id="Развитие-платформы-1" fill="#000000"></path>
        </g>
    </g>
</svg>