<?xml version="1.0" encoding="UTF-8" standalone="no"?>
<svg width="981px" height="430px" viewBox="0 0 981 430" version="1.1" xmlns="http://www.w3.org/2000/svg" xmlns:xlink="http://www.w3.org/1999/xlink">
    <!-- Generator: Sketch 49 (51002) - http://www.bohemiancoding.com/sketch -->
    <title>Distributions</title>
    <desc>Created with Sketch.</desc>
    <defs>
        <radialGradient cx="0%" cy="171.555465%" fx="0%" fy="171.555465%" r="173.701804%" gradientTransform="translate(0.000000,1.715555),scale(0.891551,1.000000),rotate(108.836219),translate(-0.000000,-1.715555)" id="radialGradient-1">
            <stop stop-color="#FE5D5D" offset="0%"></stop>
            <stop stop-color="#FE6060" offset="53.0512596%"></stop>
            <stop stop-color="#FF9696" offset="100%"></stop>
        </radialGradient>
        <radialGradient cx="50%" cy="44.6633079%" fx="50%" fy="44.6633079%" r="55.1673556%" gradientTransform="translate(0.500000,0.446633),scale(0.904505,1.000000),rotate(64.501960),translate(-0.500000,-0.446633)" id="radialGradient-2">
            <stop stop-color="#D9477F" offset="0%"></stop>
            <stop stop-color="#DA4A82" offset="54.942641%"></stop>
            <stop stop-color="#EE7DB6" offset="100%"></stop>
        </radialGradient>
        <radialGradient cx="105.394791%" cy="108.167521%" fx="105.394791%" fy="108.167521%" r="108.594042%" gradientTransform="translate(1.053948,1.081675),scale(0.988696,1.000000),rotate(-139.259049),translate(-1.053948,-1.081675)" id="radialGradient-3">
            <stop stop-color="#9A2DBB" offset="0%"></stop>
            <stop stop-color="#9D30BD" offset="54.5020201%"></stop>
            <stop stop-color="#CA59DF" offset="100%"></stop>
        </radialGradient>
        <radialGradient cx="100%" cy="217.943671%" fx="100%" fy="217.943671%" r="537.059997%" gradientTransform="translate(1.000000,2.179437),scale(1.000000,0.407579),rotate(-95.341943),translate(-1.000000,-2.179437)" id="radialGradient-4">
            <stop stop-color="#560CFF" offset="0%"></stop>
            <stop stop-color="#5C0EFF" offset="54.7672266%"></stop>
            <stop stop-color="#8F1CFF" offset="100%"></stop>
        </radialGradient>
        <radialGradient cx="0%" cy="171.555465%" fx="0%" fy="171.555465%" r="173.701802%" gradientTransform="translate(0.000000,1.715555),scale(0.891551,1.000000),rotate(108.836217),translate(-0.000000,-1.715555)" id="radialGradient-5">
            <stop stop-color="#FE5D5D" offset="0%"></stop>
            <stop stop-color="#FE6060" offset="53.0512596%"></stop>
            <stop stop-color="#FF9696" offset="100%"></stop>
        </radialGradient>
        <radialGradient cx="-48.0351181%" cy="54.5945858%" fx="-48.0351181%" fy="54.5945858%" r="147.54738%" gradientTransform="translate(-0.480351,0.545946),scale(1.000000,0.462001),rotate(78.429240),translate(0.480351,-0.545946)" id="radialGradient-6">
            <stop stop-color="#D9477F" offset="0%"></stop>
            <stop stop-color="#DA4A82" offset="54.942641%"></stop>
            <stop stop-color="#EE7DB6" offset="100%"></stop>
        </radialGradient>
        <radialGradient cx="55.0578981%" cy="39.2325569%" fx="55.0578981%" fy="39.2325569%" r="60.2254504%" gradientTransform="translate(0.550579,0.392326),scale(0.915453,1.000000),rotate(159.067767),translate(-0.550579,-0.392326)" id="radialGradient-7">
            <stop stop-color="#9A2DBB" offset="0%"></stop>
            <stop stop-color="#9D30BD" offset="54.5020201%"></stop>
            <stop stop-color="#CA59DF" offset="100%"></stop>
        </radialGradient>
        <radialGradient cx="100%" cy="149.510785%" fx="100%" fy="149.510785%" r="149.579001%" gradientTransform="translate(1.000000,1.495108),scale(0.836470,1.000000),rotate(-113.554538),translate(-1.000000,-1.495108)" id="radialGradient-8">
            <stop stop-color="#560CFF" offset="0%"></stop>
            <stop stop-color="#5C0EFF" offset="54.7672266%"></stop>
            <stop stop-color="#8F1CFF" offset="100%"></stop>
        </radialGradient>
    </defs>
    <g id="Monoreto" stroke="none" stroke-width="1" fill="none" fill-rule="evenodd">
        <g id="Distributions-Copy" transform="translate(-226.000000, -63.000000)">
            <g id="Distributions" transform="translate(224.000000, 61.000000)">
                <g id="Дизайн-без-названия" transform="translate(71.000000, 58.000000)">
                    <g id="Group-20">
                        <path d="M160,0.10000225 C179.276403,0.10000825 197.942455,3.47538025 215.998135,10.2261295 C234.0538,16.9768735 250.355702,26.6754782 264.903828,39.321949 L217.697102,93.62707 C209.695623,86.6715025 200.729568,81.3372625 190.79896,77.62435 C180.868345,73.911445 170.602015,72.0549925 160,72.0549925 L160,0.10000225 Z" id="Fill-15" fill="url(#radialGradient-1)"></path>
                        <path d="M253.986873,30.6381835 C261.727953,36.2624057 268.90633,42.5309643 275.522065,49.443859 C282.1378,56.3567545 288.085113,63.8034932 293.363995,71.7840625 C298.642885,79.76464 303.168933,88.1514625 306.942183,96.9445675 C310.715485,105.737665 313.67566,114.796465 315.822663,124.120975 C317.969665,133.44547 319.269258,142.886643 319.721388,152.444448 C320.17348,162.00226 319.770918,171.523945 318.513715,181.009473 C317.256468,190.495023 315.164718,199.792803 312.238375,208.902828 C309.31198,218.012823 305.597823,226.789458 301.095858,235.232725 C296.593885,243.67597 291.376068,251.650855 285.442398,259.15738 C279.508773,266.663928 272.954148,273.582108 265.778568,279.91195 C258.60298,286.241815 250.92109,291.882123 242.732935,296.83291 C234.544803,301.78369 225.98128,305.965818 217.042345,309.37927 C208.103388,312.7927 198.931953,315.382915 189.528025,317.149878 C180.124113,318.916825 170.638015,319.832305 161.069725,319.896325 C151.501435,319.960345 142.003938,319.17187 132.577188,317.5309 C123.150438,315.889908 113.945178,313.422655 104.9614,310.129135 C95.9776075,306.835593 87.3588775,302.76841 79.1052175,297.927625 C70.851535,293.086848 63.0948775,287.54983 55.8352225,281.316528 C48.5755825,275.083278 41.9290075,268.253395 35.89546,260.82691 C29.8619275,253.400455 24.5379025,245.496085 19.923355,237.113815 C15.3088225,228.731545 11.477545,220.0054 8.4295375,210.935343 C5.381545,201.8653 3.1655275,192.596343 1.7815075,183.128485 C0.39748,173.660628 -0.132425,164.14519 0.191785,154.582188 C0.51598,145.019178 1.68913,135.561483 3.7111975,126.209088 L74.0411575,141.415045 C72.92905,146.558868 72.283825,151.760598 72.105505,157.020235 C71.9272075,162.279873 72.218665,167.513365 72.979855,172.720705 C73.741075,177.928015 74.95987,183.025945 76.63627,188.014473 C78.31267,193.003 80.41987,197.802378 82.95787,202.412628 C85.49587,207.022878 88.424095,211.37026 91.7425375,215.45482 C95.06098,219.539373 98.716615,223.295808 102.709435,226.724088 C106.702255,230.152398 110.968405,233.197788 115.507893,235.860205 C120.047418,238.522653 124.787718,240.759603 129.728823,242.571048 C134.66992,244.382485 139.73281,245.739453 144.917485,246.642003 C150.10219,247.544553 155.325798,247.97824 160.58836,247.943013 C165.85093,247.907793 171.068268,247.404273 176.240425,246.432445 C181.412628,245.46061 186.456933,244.036 191.37334,242.158623 C196.28974,240.281223 200.999695,237.98107 205.503175,235.258135 C210.006678,232.535193 214.231698,229.43302 218.178258,225.951618 C222.124848,222.470208 225.729873,218.66521 228.993385,214.536588 C232.256898,210.407995 235.126683,206.021823 237.602778,201.37804 C240.078843,196.73425 242.121633,191.907115 243.731133,186.89659 C245.340633,181.886073 246.491103,176.77228 247.18258,171.555235 C247.874058,166.338198 248.09545,161.101285 247.846773,155.84449 C247.598118,150.587695 246.88336,145.395048 245.702493,140.266585 C244.521625,135.1381 242.89354,130.155753 240.818245,125.31955 C238.74295,120.483348 236.25361,115.870585 233.350218,111.48127 C230.446833,107.091963 227.175813,102.996258 223.537188,99.194155 C219.89854,95.3920675 215.95042,91.94437 211.692828,88.85104 L253.986873,30.6381835 Z" id="Fill-17" fill="url(#radialGradient-2)"></path>
                        <path d="M1.360855,139.959199 C2.485705,131.055103 4.34701,122.307712 6.944785,113.717018 C9.54256,105.126332 12.84022,96.8132729 16.8377725,88.7778641 C20.8353325,80.7424554 25.4765125,73.097789 30.7613125,65.8438734 C36.0461125,58.5899682 41.9001325,51.8289263 48.3233875,45.5607347 C54.7466425,39.2925492 61.6486975,33.6054598 69.0295675,28.4994733 C76.41043,23.3934808 84.16621,18.9404653 92.2968925,15.1404266 C100.427575,11.3403879 108.818725,8.24681014 117.47032,5.8597045 C126.121915,3.47259286 134.91217,1.82555411 143.8411,0.91858675 L151.112613,72.5052066 C141.220683,73.5099965 131.770908,76.1173336 122.763303,80.3272179 C113.755705,84.5370948 105.693895,90.1141464 98.577865,97.0583879 C91.4618575,104.002599 85.6894825,111.925748 81.2607775,120.827804 C76.83208,129.729853 73.99465,139.113094 72.74848,148.977535 L1.360855,139.959199 Z" id="Fill-18" fill="url(#radialGradient-3)"></path>
                        <path d="M143.52076,73.61275 L130.037718,2.93226625 C139.936833,1.044088 149.924253,0.09999625 159.999978,0.09999625 L159.99847,72.0550075 C154.456825,72.055105 148.96426,72.57436 143.52076,73.612765 L143.52076,73.61275 Z" id="Fill-19" fill="url(#radialGradient-4)"></path>
                    </g>
                </g>
                <g id="Page-1" transform="translate(547.000000, 51.000000)">
                    <g id="Group-9">
                        <path d="M167,75.3425 L167,0.35 C187.0901,0.35 206.5441,3.8679 225.362,10.9036 C244.1799,17.9393 261.17,28.0473 276.3322,41.2277 L227.1327,97.8252 C218.7935,90.576 209.449,85.0166 199.0991,81.147 C188.7493,77.2773 178.0496,75.3425 167,75.3425 Z" id="Fill-4" fill="url(#radialGradient-5)"></path>
                        <path d="M265.0795,32 C283.9796,45.7318 299.3142,62.688 311.0832,82.8688 C322.8523,103.0495 330.0592,124.7457 332.7038,147.9574 C335.3484,171.169 333.2068,193.9303 326.2791,216.2413 C319.3514,238.5523 308.2242,258.5235 292.8975,276.1549 L236.2999,226.9554 C244.7296,217.2582 250.8496,206.274 254.6598,194.0029 C258.4701,181.7319 259.6479,169.2132 258.1934,156.4468 C256.7388,143.6804 252.7751,131.7475 246.3021,120.648 C239.8291,109.5486 231.3951,100.2227 221,92.6702 L265.0795,32 Z" id="Fill-6" fill="url(#radialGradient-6)"></path>
                        <path d="M241.1525,220.8749 L301.8227,264.9544 C292.9837,277.1202 282.6866,287.8923 270.9316,297.2706 C259.1765,306.649 246.3864,314.2961 232.5612,320.2121 C218.7361,326.128 204.3733,330.0999 189.4729,332.1278 C174.5724,334.1557 159.6706,334.1665 144.7673,332.1603 C129.8639,330.1541 115.4954,326.2031 101.6616,320.3072 C87.8278,314.4114 75.0266,306.7828 63.2579,297.4216 C51.4892,288.0604 41.1766,277.3033 32.3199,265.1504 C23.4632,252.9975 16.3813,239.8859 11.074,225.8159 C5.7667,211.7458 2.4251,197.2234 1.0491,182.2487 C-0.3269,167.274 0.3123,152.3859 2.9666,137.5842 C5.621,122.7826 10.195,108.6 16.6887,95.0366 C23.1823,81.4732 31.362,69.0169 41.2276,57.6677 L97.8252,106.8673 C92.3991,113.1093 87.9003,119.9603 84.3288,127.4202 C80.7572,134.8801 78.2415,142.6805 76.7816,150.8214 C75.3217,158.9623 74.9702,167.1508 75.727,175.3869 C76.4837,183.6229 78.3216,191.6102 81.2406,199.3488 C84.1596,207.0874 88.0547,214.2987 92.9259,220.9828 C97.7971,227.6669 103.4691,233.5833 109.9418,238.732 C116.4146,243.8807 123.4553,248.0764 131.0638,251.3191 C138.6724,254.5618 146.5751,256.7348 154.772,257.8383 C162.9688,258.9417 171.1649,258.9357 179.3601,257.8204 C187.5554,256.7051 195.4549,254.5205 203.0587,251.2667 C210.6626,248.0129 217.6971,243.807 224.1624,238.6489 C230.6277,233.4908 236.291,227.5661 241.1525,220.8749 Z" id="Fill-7" fill="url(#radialGradient-7)"></path>
                        <path d="M92.8475,113.1251 L32.1773,69.0456 C39.9067,58.4074 48.771,48.8183 58.7701,40.2783 C68.7693,31.7383 79.627,24.4835 91.3433,18.5137 C103.0596,12.544 115.3108,8.0242 128.0969,4.9546 C140.883,1.8849 153.8507,0.35 167,0.35 L166.9984,75.3425 C152.3286,75.3427 138.4584,78.6729 125.3877,85.3329 C112.3169,91.993 101.4702,101.257 92.8476,113.1251 L92.8475,113.1251 Z" id="Fill-8" fill="url(#radialGradient-8)"></path>
                    </g>
                </g>
                <path d="M179.064348,197 L183.964348,197 C188.924348,197 191.324348,199.94 191.324348,204 C191.324348,208.06 188.924348,211 183.964348,211 L179.064348,211 L179.064348,197 Z M189.004348,204 C189.004348,200.86 187.264348,199.08 183.944348,199.08 L181.344348,199.08 L181.344348,208.92 L183.944348,208.92 C187.264348,208.92 189.004348,207.14 189.004348,204 Z M195.386956,211 L193.246956,211 L193.246956,201.4 L195.386956,201.4 L195.386956,211 Z M195.626956,198.28 C195.626956,199.16 195.026956,199.56 194.326956,199.56 C193.626956,199.56 193.006956,199.16 193.006956,198.28 C193.006956,197.44 193.626956,197.02 194.326956,197.02 C195.026956,197.02 195.626956,197.44 195.626956,198.28 Z M197.389565,204 C197.389565,201.9 199.309565,201.14 201.209565,201.14 C202.529565,201.14 203.729565,201.48 204.669565,201.96 L204.669565,203.84 C203.869565,203.3 202.489565,202.9 201.349565,202.9 C200.489565,202.9 199.569565,203.16 199.569565,203.94 C199.569565,205.8 205.349565,204.94 205.349565,208.44 C205.349565,210.56 203.389565,211.26 201.209565,211.26 C199.809565,211.26 198.389565,210.92 197.449565,210.34 L197.449565,208.44 C198.449565,209.1 199.909565,209.46 201.109565,209.46 C202.309565,209.46 203.189565,209.26 203.189565,208.48 C203.189565,206.7 197.389565,207.44 197.389565,204 Z M207.772174,198.5 L209.892174,197.98 L209.892174,201.4 L213.372174,201.4 L213.372174,203.28 L209.892174,203.28 L209.892174,207.68 C209.892174,208.94 210.472174,209.36 211.712174,209.36 C212.412174,209.36 213.052174,209.22 213.652174,208.98 L213.652174,210.82 C212.932174,211.08 212.012174,211.24 211.072174,211.24 C209.212174,211.24 207.772174,210.32 207.772174,208.08 L207.772174,203.28 L206.052174,203.28 L206.052174,201.4 L207.772174,201.4 L207.772174,198.5 Z M217.074783,202.98 C217.814783,201.8 219.374783,201.04 221.114783,201.2 L221.114783,203.3 C219.394783,203.06 217.894783,203.82 217.314783,205.18 L217.314783,211 L215.174783,211 L215.174783,201.4 L217.074783,201.4 L217.074783,202.98 Z M224.697391,211 L222.557391,211 L222.557391,201.4 L224.697391,201.4 L224.697391,211 Z M224.937391,198.28 C224.937391,199.16 224.337391,199.56 223.637391,199.56 C222.937391,199.56 222.317391,199.16 222.317391,198.28 C222.317391,197.44 222.937391,197.02 223.637391,197.02 C224.337391,197.02 224.937391,197.44 224.937391,198.28 Z M227.2,197 L229.34,197 L229.34,202.64 C230,201.9 231.12,201.14 232.8,201.14 C235.68,201.14 237.56,203.44 237.56,206.2 C237.56,208.96 235.68,211.26 232.8,211.26 C231,211.26 229.86,210.42 229.1,209.48 L229.1,211 L227.2,211 L227.2,197 Z M235.38,206.2 C235.38,204.32 234.14,203.02 232.4,203.02 C230.92,203.02 229.8,203.98 229.34,205.02 L229.34,207.36 C229.8,208.42 230.92,209.38 232.4,209.38 C234.14,209.38 235.38,208.08 235.38,206.2 Z M246.382609,201.4 L248.522609,201.4 L248.522609,211 L246.622609,211 L246.622609,209.68 C245.922609,210.52 244.742609,211.26 243.282609,211.26 C240.742609,211.26 239.322609,209.62 239.322609,207.34 L239.322609,201.4 L241.462609,201.4 L241.462609,207.06 C241.462609,208.62 242.282609,209.36 243.702609,209.36 C244.922609,209.36 245.842609,208.54 246.382609,207.76 L246.382609,201.4 Z M251.685217,198.5 L253.805217,197.98 L253.805217,201.4 L257.285217,201.4 L257.285217,203.28 L253.805217,203.28 L253.805217,207.68 C253.805217,208.94 254.385217,209.36 255.625217,209.36 C256.325217,209.36 256.965217,209.22 257.565217,208.98 L257.565217,210.82 C256.845217,211.08 255.925217,211.24 254.985217,211.24 C253.125217,211.24 251.685217,210.32 251.685217,208.08 L251.685217,203.28 L249.965217,203.28 L249.965217,201.4 L251.685217,201.4 L251.685217,198.5 Z M261.267826,211 L259.127826,211 L259.127826,201.4 L261.267826,201.4 L261.267826,211 Z M261.507826,198.28 C261.507826,199.16 260.907826,199.56 260.207826,199.56 C259.507826,199.56 258.887826,199.16 258.887826,198.28 C258.887826,197.44 259.507826,197.02 260.207826,197.02 C260.907826,197.02 261.507826,197.44 261.507826,198.28 Z M263.170435,206.2 C263.170435,202.88 265.690435,201.14 268.370435,201.14 C271.070435,201.14 273.570435,202.88 273.570435,206.2 C273.570435,209.52 271.070435,211.26 268.370435,211.26 C265.690435,211.26 263.170435,209.52 263.170435,206.2 Z M271.390435,206.2 C271.390435,204.32 270.150435,203.1 268.370435,203.1 C266.570435,203.1 265.330435,204.32 265.330435,206.2 C265.330435,208.08 266.570435,209.3 268.370435,209.3 C270.150435,209.3 271.390435,208.08 271.390435,206.2 Z M277.333044,202.72 C278.033044,201.88 279.213044,201.14 280.673044,201.14 C283.093044,201.14 284.633044,202.78 284.633044,205.06 L284.633044,211 L282.493044,211 L282.493044,205.34 C282.493044,203.78 281.533044,203.04 280.253044,203.04 C279.033044,203.04 278.113044,203.86 277.573044,204.64 L277.573044,211 L275.433044,211 L275.433044,201.4 L277.333044,201.4 L277.333044,202.72 Z M177.553261,233.76 C177.553261,229.444 180.829261,227.182 184.313261,227.182 C187.823261,227.182 191.073261,229.444 191.073261,233.76 C191.073261,238.076 187.823261,240.338 184.313261,240.338 C180.829261,240.338 177.553261,238.076 177.553261,233.76 Z M188.239261,233.76 C188.239261,231.316 186.627261,229.73 184.313261,229.73 C181.973261,229.73 180.361261,231.316 180.361261,233.76 C180.361261,236.204 181.973261,237.79 184.313261,237.79 C186.627261,237.79 188.239261,236.204 188.239261,233.76 Z M197.225869,240 L194.443869,240 L194.443869,229.964 L192.181869,229.964 L192.181869,227.52 L194.443869,227.52 L194.443869,226.142 C194.443869,222.528 196.809869,221.462 199.097869,221.462 C200.241869,221.462 201.333869,221.696 202.191869,222.008 L202.191869,224.452 C201.567869,224.14 200.657869,223.906 199.773869,223.906 C198.421869,223.906 197.225869,224.296 197.225869,226.246 L197.225869,227.52 L201.489869,227.52 L201.489869,229.964 L197.225869,229.964 L197.225869,240 Z M209.089087,223.75 L211.845087,223.074 L211.845087,227.52 L216.369087,227.52 L216.369087,229.964 L211.845087,229.964 L211.845087,235.684 C211.845087,237.322 212.599087,237.868 214.211087,237.868 C215.121087,237.868 215.953087,237.686 216.733087,237.374 L216.733087,239.766 C215.797087,240.104 214.601087,240.312 213.379087,240.312 C210.961087,240.312 209.089087,239.116 209.089087,236.204 L209.089087,229.964 L206.853087,229.964 L206.853087,227.52 L209.089087,227.52 L209.089087,223.75 Z M217.997696,233.76 C217.997696,229.444 221.273696,227.182 224.757696,227.182 C228.267696,227.182 231.517696,229.444 231.517696,233.76 C231.517696,238.076 228.267696,240.338 224.757696,240.338 C221.273696,240.338 217.997696,238.076 217.997696,233.76 Z M228.683696,233.76 C228.683696,231.316 227.071696,229.73 224.757696,229.73 C222.417696,229.73 220.805696,231.316 220.805696,233.76 C220.805696,236.204 222.417696,237.79 224.757696,237.79 C227.071696,237.79 228.683696,236.204 228.683696,233.76 Z M246.094304,240 L242.896304,240 L238.788304,234.826 L236.786304,234.826 L236.786304,240 L234.004304,240 L234.004304,221.8 L236.786304,221.8 L236.786304,232.46 L238.840304,232.46 L242.428304,227.52 L245.600304,227.52 L241.076304,233.708 L246.094304,240 Z M246.266913,233.76 C246.266913,229.236 249.698913,227.182 252.584913,227.182 C257.550913,227.182 259.266913,231.186 258.460913,234.8 L249.074913,234.8 C249.386913,237.036 251.570913,237.972 253.858913,237.972 C255.366913,237.972 256.744913,237.608 257.810913,237.088 L257.810913,239.48 C256.666913,240.026 255.080913,240.338 253.338913,240.338 C249.516913,240.338 246.266913,238.154 246.266913,233.76 Z M255.964913,232.72 C256.120913,231.628 255.444913,229.496 252.714913,229.496 C250.842913,229.496 249.152913,230.614 249.048913,232.72 L255.964913,232.72 Z M263.547522,229.236 C264.457522,228.144 265.991522,227.182 267.889522,227.182 C271.035522,227.182 273.037522,229.314 273.037522,232.278 L273.037522,240 L270.255522,240 L270.255522,232.642 C270.255522,230.614 269.007522,229.652 267.343522,229.652 C265.757522,229.652 264.561522,230.718 263.859522,231.732 L263.859522,240 L261.077522,240 L261.077522,227.52 L263.547522,227.52 L263.547522,229.236 Z M275.498131,230.9 C275.498131,228.17 277.994131,227.182 280.464131,227.182 C282.180131,227.182 283.740131,227.624 284.962131,228.248 L284.962131,230.692 C283.922131,229.99 282.128131,229.47 280.646131,229.47 C279.528131,229.47 278.332131,229.808 278.332131,230.822 C278.332131,233.24 285.846131,232.122 285.846131,236.672 C285.846131,239.428 283.298131,240.338 280.464131,240.338 C278.644131,240.338 276.798131,239.896 275.576131,239.142 L275.576131,236.672 C276.876131,237.53 278.774131,237.998 280.334131,237.998 C281.894131,237.998 283.038131,237.738 283.038131,236.724 C283.038131,234.41 275.498131,235.372 275.498131,230.9 Z" id="Distribution-of-toke" fill="#000000"></path>
                <path d="M662.064348,197 L666.964348,197 C671.924348,197 674.324348,199.94 674.324348,204 C674.324348,208.06 671.924348,211 666.964348,211 L662.064348,211 L662.064348,197 Z M672.004348,204 C672.004348,200.86 670.264348,199.08 666.944348,199.08 L664.344348,199.08 L664.344348,208.92 L666.944348,208.92 C670.264348,208.92 672.004348,207.14 672.004348,204 Z M678.386956,211 L676.246956,211 L676.246956,201.4 L678.386956,201.4 L678.386956,211 Z M678.626956,198.28 C678.626956,199.16 678.026956,199.56 677.326956,199.56 C676.626956,199.56 676.006956,199.16 676.006956,198.28 C676.006956,197.44 676.626956,197.02 677.326956,197.02 C678.026956,197.02 678.626956,197.44 678.626956,198.28 Z M680.389565,204 C680.389565,201.9 682.309565,201.14 684.209565,201.14 C685.529565,201.14 686.729565,201.48 687.669565,201.96 L687.669565,203.84 C686.869565,203.3 685.489565,202.9 684.349565,202.9 C683.489565,202.9 682.569565,203.16 682.569565,203.94 C682.569565,205.8 688.349565,204.94 688.349565,208.44 C688.349565,210.56 686.389565,211.26 684.209565,211.26 C682.809565,211.26 681.389565,210.92 680.449565,210.34 L680.449565,208.44 C681.449565,209.1 682.909565,209.46 684.109565,209.46 C685.309565,209.46 686.189565,209.26 686.189565,208.48 C686.189565,206.7 680.389565,207.44 680.389565,204 Z M690.772174,198.5 L692.892174,197.98 L692.892174,201.4 L696.372174,201.4 L696.372174,203.28 L692.892174,203.28 L692.892174,207.68 C692.892174,208.94 693.472174,209.36 694.712174,209.36 C695.412174,209.36 696.052174,209.22 696.652174,208.98 L696.652174,210.82 C695.932174,211.08 695.012174,211.24 694.072174,211.24 C692.212174,211.24 690.772174,210.32 690.772174,208.08 L690.772174,203.28 L689.052174,203.28 L689.052174,201.4 L690.772174,201.4 L690.772174,198.5 Z M700.074783,202.98 C700.814783,201.8 702.374783,201.04 704.114783,201.2 L704.114783,203.3 C702.394783,203.06 700.894783,203.82 700.314783,205.18 L700.314783,211 L698.174783,211 L698.174783,201.4 L700.074783,201.4 L700.074783,202.98 Z M707.697391,211 L705.557391,211 L705.557391,201.4 L707.697391,201.4 L707.697391,211 Z M707.937391,198.28 C707.937391,199.16 707.337391,199.56 706.637391,199.56 C705.937391,199.56 705.317391,199.16 705.317391,198.28 C705.317391,197.44 705.937391,197.02 706.637391,197.02 C707.337391,197.02 707.937391,197.44 707.937391,198.28 Z M710.2,197 L712.34,197 L712.34,202.64 C713,201.9 714.12,201.14 715.8,201.14 C718.68,201.14 720.56,203.44 720.56,206.2 C720.56,208.96 718.68,211.26 715.8,211.26 C714,211.26 712.86,210.42 712.1,209.48 L712.1,211 L710.2,211 L710.2,197 Z M718.38,206.2 C718.38,204.32 717.14,203.02 715.4,203.02 C713.92,203.02 712.8,203.98 712.34,205.02 L712.34,207.36 C712.8,208.42 713.92,209.38 715.4,209.38 C717.14,209.38 718.38,208.08 718.38,206.2 Z M729.382609,201.4 L731.522609,201.4 L731.522609,211 L729.622609,211 L729.622609,209.68 C728.922609,210.52 727.742609,211.26 726.282609,211.26 C723.742609,211.26 722.322609,209.62 722.322609,207.34 L722.322609,201.4 L724.462609,201.4 L724.462609,207.06 C724.462609,208.62 725.282609,209.36 726.702609,209.36 C727.922609,209.36 728.842609,208.54 729.382609,207.76 L729.382609,201.4 Z M734.685217,198.5 L736.805217,197.98 L736.805217,201.4 L740.285217,201.4 L740.285217,203.28 L736.805217,203.28 L736.805217,207.68 C736.805217,208.94 737.385217,209.36 738.625217,209.36 C739.325217,209.36 739.965217,209.22 740.565217,208.98 L740.565217,210.82 C739.845217,211.08 738.925217,211.24 737.985217,211.24 C736.125217,211.24 734.685217,210.32 734.685217,208.08 L734.685217,203.28 L732.965217,203.28 L732.965217,201.4 L734.685217,201.4 L734.685217,198.5 Z M744.267826,211 L742.127826,211 L742.127826,201.4 L744.267826,201.4 L744.267826,211 Z M744.507826,198.28 C744.507826,199.16 743.907826,199.56 743.207826,199.56 C742.507826,199.56 741.887826,199.16 741.887826,198.28 C741.887826,197.44 742.507826,197.02 743.207826,197.02 C743.907826,197.02 744.507826,197.44 744.507826,198.28 Z M746.170435,206.2 C746.170435,202.88 748.690435,201.14 751.370435,201.14 C754.070435,201.14 756.570435,202.88 756.570435,206.2 C756.570435,209.52 754.070435,211.26 751.370435,211.26 C748.690435,211.26 746.170435,209.52 746.170435,206.2 Z M754.390435,206.2 C754.390435,204.32 753.150435,203.1 751.370435,203.1 C749.570435,203.1 748.330435,204.32 748.330435,206.2 C748.330435,208.08 749.570435,209.3 751.370435,209.3 C753.150435,209.3 754.390435,208.08 754.390435,206.2 Z M760.333044,202.72 C761.033044,201.88 762.213044,201.14 763.673044,201.14 C766.093044,201.14 767.633044,202.78 767.633044,205.06 L767.633044,211 L765.493044,211 L765.493044,205.34 C765.493044,203.78 764.533044,203.04 763.253044,203.04 C762.033044,203.04 761.113044,203.86 760.573044,204.64 L760.573044,211 L758.433044,211 L758.433044,201.4 L760.333044,201.4 L760.333044,202.72 Z M666.255565,233.76 C666.255565,229.444 669.531565,227.182 673.015565,227.182 C676.525565,227.182 679.775565,229.444 679.775565,233.76 C679.775565,238.076 676.525565,240.338 673.015565,240.338 C669.531565,240.338 666.255565,238.076 666.255565,233.76 Z M676.941565,233.76 C676.941565,231.316 675.329565,229.73 673.015565,229.73 C670.675565,229.73 669.063565,231.316 669.063565,233.76 C669.063565,236.204 670.675565,237.79 673.015565,237.79 C675.329565,237.79 676.941565,236.204 676.941565,233.76 Z M685.928174,240 L683.146174,240 L683.146174,229.964 L680.884174,229.964 L680.884174,227.52 L683.146174,227.52 L683.146174,226.142 C683.146174,222.528 685.512174,221.462 687.800174,221.462 C688.944174,221.462 690.036174,221.696 690.894174,222.008 L690.894174,224.452 C690.270174,224.14 689.360174,223.906 688.476174,223.906 C687.124174,223.906 685.928174,224.296 685.928174,226.246 L685.928174,227.52 L690.192174,227.52 L690.192174,229.964 L685.928174,229.964 L685.928174,240 Z M701.249391,240 L698.467391,240 L698.467391,229.964 L696.205391,229.964 L696.205391,227.52 L698.467391,227.52 L698.467391,226.142 C698.467391,222.528 700.833391,221.462 703.121391,221.462 C704.265391,221.462 705.357391,221.696 706.215391,222.008 L706.215391,224.452 C705.591391,224.14 704.681391,223.906 703.797391,223.906 C702.445391,223.906 701.249391,224.296 701.249391,226.246 L701.249391,227.52 L705.513391,227.52 L705.513391,229.964 L701.249391,229.964 L701.249391,240 Z M716.372,227.52 L719.154,227.52 L719.154,240 L716.684,240 L716.684,238.284 C715.774,239.376 714.24,240.338 712.342,240.338 C709.04,240.338 707.194,238.206 707.194,235.242 L707.194,227.52 L709.976,227.52 L709.976,234.878 C709.976,236.906 711.042,237.868 712.888,237.868 C714.474,237.868 715.67,236.802 716.372,235.788 L716.372,227.52 Z M724.890609,229.236 C725.800609,228.144 727.334609,227.182 729.232609,227.182 C732.378609,227.182 734.380609,229.314 734.380609,232.278 L734.380609,240 L731.598609,240 L731.598609,232.642 C731.598609,230.614 730.350609,229.652 728.686609,229.652 C727.100609,229.652 725.904609,230.718 725.202609,231.732 L725.202609,240 L722.420609,240 L722.420609,227.52 L724.890609,227.52 L724.890609,229.236 Z M747.397217,221.8 L750.179217,221.8 L750.179217,240 L747.683217,240 L747.683217,238.024 C746.721217,239.246 745.239217,240.338 742.899217,240.338 C739.129217,240.338 736.711217,237.348 736.711217,233.76 C736.711217,230.172 739.129217,227.182 742.899217,227.182 C745.083217,227.182 746.539217,228.144 747.397217,229.132 L747.397217,221.8 Z M747.371217,232.226 C746.773217,230.874 745.343217,229.626 743.393217,229.626 C741.157217,229.626 739.519217,231.316 739.519217,233.76 C739.519217,236.204 741.157217,237.894 743.393217,237.894 C745.343217,237.894 746.773217,236.646 747.371217,235.268 L747.371217,232.226 Z M752.795826,230.9 C752.795826,228.17 755.291826,227.182 757.761826,227.182 C759.477826,227.182 761.037826,227.624 762.259826,228.248 L762.259826,230.692 C761.219826,229.99 759.425826,229.47 757.943826,229.47 C756.825826,229.47 755.629826,229.808 755.629826,230.822 C755.629826,233.24 763.143826,232.122 763.143826,236.672 C763.143826,239.428 760.595826,240.338 757.761826,240.338 C755.941826,240.338 754.095826,239.896 752.873826,239.142 L752.873826,236.672 C754.173826,237.53 756.071826,237.998 757.631826,237.998 C759.191826,237.998 760.335826,237.738 760.335826,236.724 C760.335826,234.41 752.795826,235.372 752.795826,230.9 Z" id="Distribution-of-fund" fill="#000000"></path>
                <path d="M306.984783,25 L318.524783,25 L318.524783,27.1 L313.904783,27.1 L313.904783,39 L311.624783,39 L311.624783,27.1 L306.984783,27.1 L306.984783,25 Z M317.047391,34.2 C317.047391,30.72 319.687391,29.14 321.907391,29.14 C325.727391,29.14 327.047391,32.22 326.427391,35 L319.207391,35 C319.447391,36.72 321.127391,37.44 322.887391,37.44 C324.047391,37.44 325.107391,37.16 325.927391,36.76 L325.927391,38.6 C325.047391,39.02 323.827391,39.26 322.487391,39.26 C319.547391,39.26 317.047391,37.58 317.047391,34.2 Z M324.507391,33.4 C324.627391,32.56 324.107391,30.92 322.007391,30.92 C320.567391,30.92 319.267391,31.78 319.187391,33.4 L324.507391,33.4 Z M336.57,36.78 C336.57,37.32 336.89,37.48 337.27,37.48 C337.49,37.48 337.71,37.42 337.91,37.36 L337.91,38.9 C337.51,39.06 337.03,39.14 336.55,39.14 C335.67,39.14 334.97,38.8 334.63,38.02 C333.69,38.78 332.51,39.26 331.01,39.26 C329.27,39.26 327.65,38.3 327.65,36.32 C327.65,33.86 329.93,33.1 331.93,33.1 C332.75,33.1 333.67,33.22 334.43,33.38 L334.43,33.04 C334.43,31.84 333.55,31 331.91,31 C330.49,31 329.31,31.36 328.45,31.74 L328.45,29.78 C329.21,29.52 330.59,29.14 332.13,29.14 C334.85,29.14 336.57,30.44 336.57,33.34 L336.57,36.78 Z M332.35,34.6 C331.13,34.6 329.85,34.98 329.85,36.18 C329.85,37.12 330.69,37.6 331.65,37.6 C332.67,37.6 333.67,37.22 334.43,36.46 L334.43,34.84 C333.85,34.72 333.03,34.6 332.35,34.6 Z M341.312609,39 L339.172609,39 L339.172609,29.4 L341.072609,29.4 L341.072609,30.6 C341.592609,30.02 342.712609,29.14 344.272609,29.14 C345.712609,29.14 346.712609,29.74 347.272609,30.68 C348.112609,29.84 349.232609,29.14 350.632609,29.14 C353.172609,29.14 354.272609,31.02 354.272609,33 L354.272609,39 L352.132609,39 L352.132609,33.06 C352.132609,31.82 351.392609,31.04 350.232609,31.04 C349.172609,31.04 348.352609,31.74 347.852609,32.34 C347.872609,32.56 347.892609,32.78 347.892609,33 L347.892609,39 L345.752609,39 L345.752609,33.06 C345.752609,31.82 345.012609,31.04 343.852609,31.04 C342.692609,31.04 341.812609,31.88 341.312609,32.52 L341.312609,39 Z M318.126087,50.4 L319.366087,50.4 L319.366087,62.4 L321.906087,62.4 L321.906087,64 L314.826087,64 L314.826087,62.4 L317.686087,62.4 L317.686087,52.18 L314.826087,53.26 L314.826087,51.66 L318.126087,50.4 Z M326.508696,50.4 L327.748696,50.4 L327.748696,62.4 L330.288696,62.4 L330.288696,64 L323.208696,64 L323.208696,62.4 L326.068696,62.4 L326.068696,52.18 L323.208696,53.26 L323.208696,51.66 L326.508696,50.4 Z M336.211304,65.2 L334.611304,65.2 L342.791304,48.8 L344.391304,48.8 L336.211304,65.2 Z M337.751304,52.9 C337.751304,54.92 336.211304,56.04 334.491304,56.04 C332.751304,56.04 331.191304,54.92 331.191304,52.9 C331.191304,50.88 332.751304,49.76 334.491304,49.76 C336.211304,49.76 337.751304,50.88 337.751304,52.9 Z M332.711304,52.9 C332.711304,53.84 333.311304,54.64 334.491304,54.64 C335.631304,54.64 336.231304,53.84 336.231304,52.9 C336.231304,51.96 335.631304,51.16 334.491304,51.16 C333.311304,51.16 332.711304,51.96 332.711304,52.9 Z M347.791304,61.1 C347.791304,63.12 346.251304,64.24 344.531304,64.24 C342.791304,64.24 341.231304,63.12 341.231304,61.1 C341.231304,59.08 342.791304,57.96 344.531304,57.96 C346.251304,57.96 347.791304,59.08 347.791304,61.1 Z M342.751304,61.1 C342.751304,62.04 343.351304,62.84 344.531304,62.84 C345.671304,62.84 346.271304,62.04 346.271304,61.1 C346.271304,60.16 345.671304,59.36 344.531304,59.36 C343.351304,59.36 342.751304,60.16 342.751304,61.1 Z" id="Team-11%" fill="#000000"></path>
                <path d="M804.373478,3 L806.653478,3 L806.653478,14.88 L814.013478,14.88 L814.013478,17 L804.373478,17 L804.373478,3 Z M814.636087,12.2 C814.636087,8.72 817.276087,7.14 819.496087,7.14 C823.316087,7.14 824.636087,10.22 824.016087,13 L816.796087,13 C817.036087,14.72 818.716087,15.44 820.476087,15.44 C821.636087,15.44 822.696087,15.16 823.516087,14.76 L823.516087,16.6 C822.636087,17.02 821.416087,17.26 820.076087,17.26 C817.136087,17.26 814.636087,15.58 814.636087,12.2 Z M822.096087,11.4 C822.216087,10.56 821.696087,8.92 819.596087,8.92 C818.156087,8.92 816.856087,9.78 816.776087,11.4 L822.096087,11.4 Z M825.378696,12.2 C825.378696,9.44 827.238696,7.14 830.138696,7.14 C831.938696,7.14 833.078696,7.98 833.818696,8.9 L833.818696,7.4 L835.738696,7.4 L835.738696,16.88 C835.738696,20.34 833.098696,21.66 830.358696,21.66 C828.898696,21.66 827.538696,21.34 826.398696,20.76 L826.398696,18.8 C827.498696,19.44 828.778696,19.78 830.078696,19.78 C831.978696,19.78 833.598696,19.1 833.598696,16.94 L833.598696,15.72 C832.938696,16.5 831.818696,17.26 830.138696,17.26 C827.238696,17.26 825.378696,14.96 825.378696,12.2 Z M833.578696,11.02 C833.118696,9.98 832.018696,9.02 830.518696,9.02 C828.798696,9.02 827.538696,10.32 827.538696,12.2 C827.538696,14.08 828.798696,15.38 830.518696,15.38 C832.018696,15.38 833.118696,14.48 833.578696,13.5 L833.578696,11.02 Z M846.381304,14.78 C846.381304,15.32 846.701304,15.48 847.081304,15.48 C847.301304,15.48 847.521304,15.42 847.721304,15.36 L847.721304,16.9 C847.321304,17.06 846.841304,17.14 846.361304,17.14 C845.481304,17.14 844.781304,16.8 844.441304,16.02 C843.501304,16.78 842.321304,17.26 840.821304,17.26 C839.081304,17.26 837.461304,16.3 837.461304,14.32 C837.461304,11.86 839.741304,11.1 841.741304,11.1 C842.561304,11.1 843.481304,11.22 844.241304,11.38 L844.241304,11.04 C844.241304,9.84 843.361304,9 841.721304,9 C840.301304,9 839.121304,9.36 838.261304,9.74 L838.261304,7.78 C839.021304,7.52 840.401304,7.14 841.941304,7.14 C844.661304,7.14 846.381304,8.44 846.381304,11.34 L846.381304,14.78 Z M842.161304,12.6 C840.941304,12.6 839.661304,12.98 839.661304,14.18 C839.661304,15.12 840.501304,15.6 841.461304,15.6 C842.481304,15.6 843.481304,15.22 844.241304,14.46 L844.241304,12.84 C843.661304,12.72 842.841304,12.6 842.161304,12.6 Z M849.023913,2.4 L851.163913,2.4 L851.163913,17 L849.023913,17 L849.023913,2.4 Z M784.256957,31.98 C784.996957,30.8 786.556957,30.04 788.296956,30.2 L788.296956,32.3 C786.576957,32.06 785.076957,32.82 784.496957,34.18 L784.496957,40 L782.356957,40 L782.356957,30.4 L784.256957,30.4 L784.256957,31.98 Z M788.839565,35.2 C788.839565,31.72 791.479565,30.14 793.699565,30.14 C797.519565,30.14 798.839565,33.22 798.219565,36 L790.999565,36 C791.239565,37.72 792.919565,38.44 794.679565,38.44 C795.839565,38.44 796.899565,38.16 797.719565,37.76 L797.719565,39.6 C796.839565,40.02 795.619565,40.26 794.279565,40.26 C791.339565,40.26 788.839565,38.58 788.839565,35.2 Z M796.299565,34.4 C796.419565,33.56 795.899565,31.92 793.799565,31.92 C792.359565,31.92 791.059565,32.78 790.979565,34.4 L796.299565,34.4 Z M799.582174,35.2 C799.582174,32.44 801.442174,30.14 804.342174,30.14 C806.142174,30.14 807.282174,30.98 808.022174,31.9 L808.022174,30.4 L809.942174,30.4 L809.942174,39.88 C809.942174,43.34 807.302174,44.66 804.562174,44.66 C803.102174,44.66 801.742174,44.34 800.602174,43.76 L800.602174,41.8 C801.702174,42.44 802.982174,42.78 804.282174,42.78 C806.182174,42.78 807.802174,42.1 807.802174,39.94 L807.802174,38.72 C807.142174,39.5 806.022174,40.26 804.342174,40.26 C801.442174,40.26 799.582174,37.96 799.582174,35.2 Z M807.782174,34.02 C807.322174,32.98 806.222174,32.02 804.722174,32.02 C803.002174,32.02 801.742174,33.32 801.742174,35.2 C801.742174,37.08 803.002174,38.38 804.722174,38.38 C806.222174,38.38 807.322174,37.48 807.782174,36.5 L807.782174,34.02 Z M819.364783,30.4 L821.504783,30.4 L821.504783,40 L819.604783,40 L819.604783,38.68 C818.904783,39.52 817.724783,40.26 816.264783,40.26 C813.724783,40.26 812.304783,38.62 812.304783,36.34 L812.304783,30.4 L814.444783,30.4 L814.444783,36.06 C814.444783,37.62 815.264783,38.36 816.684783,38.36 C817.904783,38.36 818.824783,37.54 819.364783,36.76 L819.364783,30.4 Z M824.007391,25.4 L826.147391,25.4 L826.147391,40 L824.007391,40 L824.007391,25.4 Z M836.83,37.78 C836.83,38.32 837.15,38.48 837.53,38.48 C837.75,38.48 837.97,38.42 838.17,38.36 L838.17,39.9 C837.77,40.06 837.29,40.14 836.81,40.14 C835.93,40.14 835.23,39.8 834.89,39.02 C833.95,39.78 832.77,40.26 831.27,40.26 C829.53,40.26 827.91,39.3 827.91,37.32 C827.91,34.86 830.19,34.1 832.19,34.1 C833.01,34.1 833.93,34.22 834.69,34.38 L834.69,34.04 C834.69,32.84 833.81,32 832.17,32 C830.75,32 829.57,32.36 828.71,32.74 L828.71,30.78 C829.47,30.52 830.85,30.14 832.39,30.14 C835.11,30.14 836.83,31.44 836.83,34.34 L836.83,37.78 Z M832.61,35.6 C831.39,35.6 830.11,35.98 830.11,37.18 C830.11,38.12 830.95,38.6 831.91,38.6 C832.93,38.6 833.93,38.22 834.69,37.46 L834.69,35.84 C834.11,35.72 833.29,35.6 832.61,35.6 Z M840.032609,27.5 L842.152609,26.98 L842.152609,30.4 L845.632609,30.4 L845.632609,32.28 L842.152609,32.28 L842.152609,36.68 C842.152609,37.94 842.732609,38.36 843.972609,38.36 C844.672609,38.36 845.312609,38.22 845.912609,37.98 L845.912609,39.82 C845.192609,40.08 844.272609,40.24 843.332609,40.24 C841.472609,40.24 840.032609,39.32 840.032609,37.08 L840.032609,32.28 L838.312609,32.28 L838.312609,30.4 L840.032609,30.4 L840.032609,27.5 Z M849.615217,40 L847.475217,40 L847.475217,30.4 L849.615217,30.4 L849.615217,40 Z M849.855217,27.28 C849.855217,28.16 849.255217,28.56 848.555217,28.56 C847.855217,28.56 847.235217,28.16 847.235217,27.28 C847.235217,26.44 847.855217,26.02 848.555217,26.02 C849.255217,26.02 849.855217,26.44 849.855217,27.28 Z M851.517826,35.2 C851.517826,31.88 854.037826,30.14 856.717826,30.14 C859.417826,30.14 861.917826,31.88 861.917826,35.2 C861.917826,38.52 859.417826,40.26 856.717826,40.26 C854.037826,40.26 851.517826,38.52 851.517826,35.2 Z M859.737826,35.2 C859.737826,33.32 858.497826,32.1 856.717826,32.1 C854.917826,32.1 853.677826,33.32 853.677826,35.2 C853.677826,37.08 854.917826,38.3 856.717826,38.3 C858.497826,38.3 859.737826,37.08 859.737826,35.2 Z M865.680435,31.72 C866.380435,30.88 867.560435,30.14 869.020435,30.14 C871.440435,30.14 872.980435,31.78 872.980435,34.06 L872.980435,40 L870.840435,40 L870.840435,34.34 C870.840435,32.78 869.880435,32.04 868.600435,32.04 C867.380435,32.04 866.460435,32.86 865.920435,33.64 L865.920435,40 L863.780435,40 L863.780435,30.4 L865.680435,30.4 L865.680435,31.72 Z M811.896087,51.4 L813.136087,51.4 L813.136087,63.4 L815.676087,63.4 L815.676087,65 L808.596087,65 L808.596087,63.4 L811.456087,63.4 L811.456087,53.18 L808.596087,54.26 L808.596087,52.66 L811.896087,51.4 Z M816.938696,58.2 C816.938696,54.18 818.818696,51.16 822.938696,51.16 C827.078696,51.16 828.958696,54.18 828.958696,58.2 C828.958696,62.22 827.078696,65.24 822.938696,65.24 C818.818696,65.24 816.938696,62.22 816.938696,58.2 Z M827.258696,58.2 C827.258696,54.8 825.918696,52.76 822.938696,52.76 C819.978696,52.76 818.638696,54.8 818.638696,58.2 C818.638696,61.6 819.978696,63.64 822.938696,63.64 C825.918696,63.64 827.258696,61.6 827.258696,58.2 Z M835.441304,66.2 L833.841304,66.2 L842.021304,49.8 L843.621304,49.8 L835.441304,66.2 Z M836.981304,53.9 C836.981304,55.92 835.441304,57.04 833.721304,57.04 C831.981304,57.04 830.421304,55.92 830.421304,53.9 C830.421304,51.88 831.981304,50.76 833.721304,50.76 C835.441304,50.76 836.981304,51.88 836.981304,53.9 Z M831.941304,53.9 C831.941304,54.84 832.541304,55.64 833.721304,55.64 C834.861304,55.64 835.461304,54.84 835.461304,53.9 C835.461304,52.96 834.861304,52.16 833.721304,52.16 C832.541304,52.16 831.941304,52.96 831.941304,53.9 Z M847.021304,62.1 C847.021304,64.12 845.481304,65.24 843.761304,65.24 C842.021304,65.24 840.461304,64.12 840.461304,62.1 C840.461304,60.08 842.021304,58.96 843.761304,58.96 C845.481304,58.96 847.021304,60.08 847.021304,62.1 Z M841.981304,62.1 C841.981304,63.04 842.581304,63.84 843.761304,63.84 C844.901304,63.84 845.501304,63.04 845.501304,62.1 C845.501304,61.16 844.901304,60.36 843.761304,60.36 C842.581304,60.36 841.981304,61.16 841.981304,62.1 Z" id="Legal-regulation-10%" fill="#000000"></path>
                <path d="M905.308261,164 L907.368261,164 L907.368261,178 L905.088261,178 L905.088261,168.2 L900.668261,174.84 L899.308261,174.84 L894.888261,168.18 L894.888261,178 L892.608261,178 L892.608261,164 L894.668261,164 L899.988261,172.02 L905.308261,164 Z M918.21087,175.78 C918.21087,176.32 918.53087,176.48 918.91087,176.48 C919.13087,176.48 919.35087,176.42 919.55087,176.36 L919.55087,177.9 C919.15087,178.06 918.67087,178.14 918.19087,178.14 C917.31087,178.14 916.61087,177.8 916.27087,177.02 C915.33087,177.78 914.15087,178.26 912.65087,178.26 C910.91087,178.26 909.29087,177.3 909.29087,175.32 C909.29087,172.86 911.57087,172.1 913.57087,172.1 C914.39087,172.1 915.31087,172.22 916.07087,172.38 L916.07087,172.04 C916.07087,170.84 915.19087,170 913.55087,170 C912.13087,170 910.95087,170.36 910.09087,170.74 L910.09087,168.78 C910.85087,168.52 912.23087,168.14 913.77087,168.14 C916.49087,168.14 918.21087,169.44 918.21087,172.34 L918.21087,175.78 Z M913.99087,173.6 C912.77087,173.6 911.49087,173.98 911.49087,175.18 C911.49087,176.12 912.33087,176.6 913.29087,176.6 C914.31087,176.6 915.31087,176.22 916.07087,175.46 L916.07087,173.84 C915.49087,173.72 914.67087,173.6 913.99087,173.6 Z M922.713478,169.98 C923.453478,168.8 925.013478,168.04 926.753478,168.2 L926.753478,170.3 C925.033478,170.06 923.533478,170.82 922.953478,172.18 L922.953478,178 L920.813478,178 L920.813478,168.4 L922.713478,168.4 L922.713478,169.98 Z M937.456087,178 L934.996087,178 L931.836087,174.02 L930.296087,174.02 L930.296087,178 L928.156087,178 L928.156087,164 L930.296087,164 L930.296087,172.2 L931.876087,172.2 L934.636087,168.4 L937.076087,168.4 L933.596087,173.16 L937.456087,178 Z M937.538696,173.2 C937.538696,169.72 940.178696,168.14 942.398696,168.14 C946.218696,168.14 947.538696,171.22 946.918696,174 L939.698696,174 C939.938696,175.72 941.618696,176.44 943.378696,176.44 C944.538696,176.44 945.598696,176.16 946.418696,175.76 L946.418696,177.6 C945.538696,178.02 944.318696,178.26 942.978696,178.26 C940.038696,178.26 937.538696,176.58 937.538696,173.2 Z M944.998696,172.4 C945.118696,171.56 944.598696,169.92 942.498696,169.92 C941.058696,169.92 939.758696,170.78 939.678696,172.4 L944.998696,172.4 Z M949.581304,165.5 L951.701304,164.98 L951.701304,168.4 L955.181304,168.4 L955.181304,170.28 L951.701304,170.28 L951.701304,174.68 C951.701304,175.94 952.281304,176.36 953.521304,176.36 C954.221304,176.36 954.861304,176.22 955.461304,175.98 L955.461304,177.82 C954.741304,178.08 953.821304,178.24 952.881304,178.24 C951.021304,178.24 949.581304,177.32 949.581304,175.08 L949.581304,170.28 L947.861304,170.28 L947.861304,168.4 L949.581304,168.4 L949.581304,165.5 Z M959.163913,178 L957.023913,178 L957.023913,168.4 L959.163913,168.4 L959.163913,178 Z M959.403913,165.28 C959.403913,166.16 958.803913,166.56 958.103913,166.56 C957.403913,166.56 956.783913,166.16 956.783913,165.28 C956.783913,164.44 957.403913,164.02 958.103913,164.02 C958.803913,164.02 959.403913,164.44 959.403913,165.28 Z M963.566522,169.72 C964.266522,168.88 965.446522,168.14 966.906522,168.14 C969.326522,168.14 970.866522,169.78 970.866522,172.06 L970.866522,178 L968.726522,178 L968.726522,172.34 C968.726522,170.78 967.766522,170.04 966.486522,170.04 C965.266522,170.04 964.346522,170.86 963.806522,171.64 L963.806522,178 L961.666522,178 L961.666522,168.4 L963.566522,168.4 L963.566522,169.72 Z M972.60913,173.2 C972.60913,170.44 974.46913,168.14 977.36913,168.14 C979.16913,168.14 980.30913,168.98 981.04913,169.9 L981.04913,168.4 L982.96913,168.4 L982.96913,177.88 C982.96913,181.34 980.32913,182.66 977.58913,182.66 C976.12913,182.66 974.76913,182.34 973.62913,181.76 L973.62913,179.8 C974.72913,180.44 976.00913,180.78 977.30913,180.78 C979.20913,180.78 980.82913,180.1 980.82913,177.94 L980.82913,176.72 C980.16913,177.5 979.04913,178.26 977.36913,178.26 C974.46913,178.26 972.60913,175.96 972.60913,173.2 Z M980.80913,172.02 C980.34913,170.98 979.24913,170.02 977.74913,170.02 C976.02913,170.02 974.76913,171.32 974.76913,173.2 C974.76913,175.08 976.02913,176.38 977.74913,176.38 C979.24913,176.38 980.34913,175.48 980.80913,174.5 L980.80913,172.02 Z M918.696087,188.48 C920.056087,187.54 921.556087,187.16 923.056087,187.16 C925.836087,187.16 927.696087,188.48 927.696087,190.8 C927.696087,193.12 925.756087,194.46 923.856087,195.58 C921.956087,196.7 920.096087,197.62 920.056087,199.42 L927.796087,199.4 L927.796087,201 L918.216087,201 L918.216087,200.2 C918.216087,196.88 920.656087,195.62 922.776087,194.38 C924.476087,193.38 926.016087,192.54 926.016087,190.78 C926.016087,189.44 924.876087,188.72 922.916087,188.72 C921.536087,188.72 920.096087,189.18 918.696087,190.16 L918.696087,188.48 Z M930.478696,187.4 L938.638696,187.4 L938.638696,189 L932.058696,189 L931.818696,192.84 C932.538696,192.64 933.338696,192.54 934.138696,192.54 C936.698696,192.54 939.298696,193.64 939.298696,196.9 C939.298696,199.66 936.978696,201.24 934.018696,201.24 C932.438696,201.24 930.838696,200.9 929.658696,200.32 L929.658696,198.72 C930.818696,199.34 932.358696,199.68 933.818696,199.68 C936.038696,199.68 937.598696,198.74 937.598696,196.9 C937.598696,194.68 935.678696,194.06 933.558696,194.06 C932.358696,194.06 931.078696,194.32 930.038696,194.7 L930.478696,187.4 Z M945.641304,202.2 L944.041304,202.2 L952.221304,185.8 L953.821304,185.8 L945.641304,202.2 Z M947.181304,189.9 C947.181304,191.92 945.641304,193.04 943.921304,193.04 C942.181304,193.04 940.621304,191.92 940.621304,189.9 C940.621304,187.88 942.181304,186.76 943.921304,186.76 C945.641304,186.76 947.181304,187.88 947.181304,189.9 Z M942.141304,189.9 C942.141304,190.84 942.741304,191.64 943.921304,191.64 C945.061304,191.64 945.661304,190.84 945.661304,189.9 C945.661304,188.96 945.061304,188.16 943.921304,188.16 C942.741304,188.16 942.141304,188.96 942.141304,189.9 Z M957.221304,198.1 C957.221304,200.12 955.681304,201.24 953.961304,201.24 C952.221304,201.24 950.661304,200.12 950.661304,198.1 C950.661304,196.08 952.221304,194.96 953.961304,194.96 C955.681304,194.96 957.221304,196.08 957.221304,198.1 Z M952.181304,198.1 C952.181304,199.04 952.781304,199.84 953.961304,199.84 C955.101304,199.84 955.701304,199.04 955.701304,198.1 C955.701304,197.16 955.101304,196.36 953.961304,196.36 C952.781304,196.36 952.181304,197.16 952.181304,198.1 Z" id="Marketing-25%" fill="#000000"></path>
                <path d="M519.424348,384 L517.004348,384 L522.924348,370 L525.424348,370 L531.324348,384 L528.924348,384 L527.684348,380.98 L520.664348,380.98 L519.424348,384 Z M523.904348,373 L521.444348,378.98 L526.884348,378.98 L524.424348,373 C524.344348,372.78 524.264348,372.56 524.164348,372.22 C524.064348,372.56 523.984348,372.78 523.904348,373 Z M534.466957,375.9 C535.226957,374.98 536.366957,374.14 538.166956,374.14 C541.046956,374.14 542.926956,376.44 542.926956,379.2 C542.926956,381.96 541.046956,384.26 538.166956,384.26 C536.486957,384.26 535.366957,383.52 534.706957,382.76 L534.706957,388.4 L532.566957,388.4 L532.566957,374.4 L534.466957,374.4 L534.466957,375.9 Z M540.746957,379.2 C540.746957,377.32 539.506957,376.02 537.766956,376.02 C536.286956,376.02 535.166956,376.98 534.706957,378.02 L534.706957,380.36 C535.166956,381.42 536.286956,382.38 537.766956,382.38 C539.506957,382.38 540.746957,381.08 540.746957,379.2 Z M546.689565,375.9 C547.449565,374.98 548.589565,374.14 550.389565,374.14 C553.269565,374.14 555.149565,376.44 555.149565,379.2 C555.149565,381.96 553.269565,384.26 550.389565,384.26 C548.709565,384.26 547.589565,383.52 546.929565,382.76 L546.929565,388.4 L544.789565,388.4 L544.789565,374.4 L546.689565,374.4 L546.689565,375.9 Z M552.969565,379.2 C552.969565,377.32 551.729565,376.02 549.989565,376.02 C548.509565,376.02 547.389565,376.98 546.929565,378.02 L546.929565,380.36 C547.389565,381.42 548.509565,382.38 549.989565,382.38 C551.729565,382.38 552.969565,381.08 552.969565,379.2 Z M557.052174,369.4 L559.192174,369.4 L559.192174,384 L557.052174,384 L557.052174,369.4 Z M563.874783,384 L561.734783,384 L561.734783,374.4 L563.874783,374.4 L563.874783,384 Z M564.114783,371.28 C564.114783,372.16 563.514783,372.56 562.814783,372.56 C562.114783,372.56 561.494783,372.16 561.494783,371.28 C561.494783,370.44 562.114783,370.02 562.814783,370.02 C563.514783,370.02 564.114783,370.44 564.114783,371.28 Z M565.777391,379.28 C565.777391,375.7 568.517391,374.14 571.077391,374.14 C572.157391,374.14 573.197391,374.38 574.037391,374.88 L574.037391,376.84 C573.337391,376.34 572.357391,376.04 571.377391,376.04 C569.677391,376.04 567.957391,376.94 567.957391,379.2 C567.957391,381.38 569.617391,382.36 571.337391,382.36 C572.357391,382.36 573.377391,382.06 574.137391,381.62 L574.137391,383.6 C573.217391,384.04 572.177391,384.26 570.957391,384.26 C568.397391,384.26 565.777391,382.7 565.777391,379.28 Z M584.18,381.78 C584.18,382.32 584.5,382.48 584.88,382.48 C585.1,382.48 585.32,382.42 585.52,382.36 L585.52,383.9 C585.12,384.06 584.64,384.14 584.16,384.14 C583.28,384.14 582.58,383.8 582.24,383.02 C581.3,383.78 580.12,384.26 578.62,384.26 C576.88,384.26 575.26,383.3 575.26,381.32 C575.26,378.86 577.54,378.1 579.54,378.1 C580.36,378.1 581.28,378.22 582.04,378.38 L582.04,378.04 C582.04,376.84 581.16,376 579.52,376 C578.1,376 576.92,376.36 576.06,376.74 L576.06,374.78 C576.82,374.52 578.2,374.14 579.74,374.14 C582.46,374.14 584.18,375.44 584.18,378.34 L584.18,381.78 Z M579.96,379.6 C578.74,379.6 577.46,379.98 577.46,381.18 C577.46,382.12 578.3,382.6 579.26,382.6 C580.28,382.6 581.28,382.22 582.04,381.46 L582.04,379.84 C581.46,379.72 580.64,379.6 579.96,379.6 Z M587.382609,371.5 L589.502609,370.98 L589.502609,374.4 L592.982609,374.4 L592.982609,376.28 L589.502609,376.28 L589.502609,380.68 C589.502609,381.94 590.082609,382.36 591.322609,382.36 C592.022609,382.36 592.662609,382.22 593.262609,381.98 L593.262609,383.82 C592.542609,384.08 591.622609,384.24 590.682609,384.24 C588.822609,384.24 587.382609,383.32 587.382609,381.08 L587.382609,376.28 L585.662609,376.28 L585.662609,374.4 L587.382609,374.4 L587.382609,371.5 Z M596.965217,384 L594.825217,384 L594.825217,374.4 L596.965217,374.4 L596.965217,384 Z M597.205217,371.28 C597.205217,372.16 596.605217,372.56 595.905217,372.56 C595.205217,372.56 594.585217,372.16 594.585217,371.28 C594.585217,370.44 595.205217,370.02 595.905217,370.02 C596.605217,370.02 597.205217,370.44 597.205217,371.28 Z M598.867826,379.2 C598.867826,375.88 601.387826,374.14 604.067826,374.14 C606.767826,374.14 609.267826,375.88 609.267826,379.2 C609.267826,382.52 606.767826,384.26 604.067826,384.26 C601.387826,384.26 598.867826,382.52 598.867826,379.2 Z M607.087826,379.2 C607.087826,377.32 605.847826,376.1 604.067826,376.1 C602.267826,376.1 601.027826,377.32 601.027826,379.2 C601.027826,381.08 602.267826,382.3 604.067826,382.3 C605.847826,382.3 607.087826,381.08 607.087826,379.2 Z M613.030435,375.72 C613.730435,374.88 614.910435,374.14 616.370435,374.14 C618.790435,374.14 620.330435,375.78 620.330435,378.06 L620.330435,384 L618.190435,384 L618.190435,378.34 C618.190435,376.78 617.230435,376.04 615.950435,376.04 C614.730435,376.04 613.810435,376.86 613.270435,377.64 L613.270435,384 L611.130435,384 L611.130435,374.4 L613.030435,374.4 L613.030435,375.72 Z M517.975652,393 L520.115652,393 L520.115652,407 L518.195652,407 L518.195652,405.48 C517.455652,406.42 516.315652,407.26 514.515652,407.26 C511.615652,407.26 509.755652,404.96 509.755652,402.2 C509.755652,399.44 511.615652,397.14 514.515652,397.14 C516.195652,397.14 517.315652,397.88 517.975652,398.64 L517.975652,393 Z M517.955652,401.02 C517.495652,399.98 516.395652,399.02 514.895652,399.02 C513.175652,399.02 511.915652,400.32 511.915652,402.2 C511.915652,404.08 513.175652,405.38 514.895652,405.38 C516.395652,405.38 517.495652,404.42 517.955652,403.36 L517.955652,401.02 Z M521.978261,402.2 C521.978261,398.72 524.618261,397.14 526.838261,397.14 C530.658261,397.14 531.978261,400.22 531.358261,403 L524.138261,403 C524.378261,404.72 526.058261,405.44 527.818261,405.44 C528.978261,405.44 530.038261,405.16 530.858261,404.76 L530.858261,406.6 C529.978261,407.02 528.758261,407.26 527.418261,407.26 C524.478261,407.26 521.978261,405.58 521.978261,402.2 Z M529.438261,401.4 C529.558261,400.56 529.038261,398.92 526.938261,398.92 C525.498261,398.92 524.198261,399.78 524.118261,401.4 L529.438261,401.4 Z M539.96087,397.4 L542.30087,397.4 L538.18087,407 L535.92087,407 L531.82087,397.4 L534.14087,397.4 L537.06087,404.68 L539.96087,397.4 Z M542.643478,402.2 C542.643478,398.72 545.283478,397.14 547.503478,397.14 C551.323478,397.14 552.643478,400.22 552.023478,403 L544.803478,403 C545.043478,404.72 546.723478,405.44 548.483478,405.44 C549.643478,405.44 550.703478,405.16 551.523478,404.76 L551.523478,406.6 C550.643478,407.02 549.423478,407.26 548.083478,407.26 C545.143478,407.26 542.643478,405.58 542.643478,402.2 Z M550.103478,401.4 C550.223478,400.56 549.703478,398.92 547.603478,398.92 C546.163478,398.92 544.863478,399.78 544.783478,401.4 L550.103478,401.4 Z M554.026087,392.4 L556.166087,392.4 L556.166087,407 L554.026087,407 L554.026087,392.4 Z M558.068696,402.2 C558.068696,398.88 560.588696,397.14 563.268696,397.14 C565.968696,397.14 568.468696,398.88 568.468696,402.2 C568.468696,405.52 565.968696,407.26 563.268696,407.26 C560.588696,407.26 558.068696,405.52 558.068696,402.2 Z M566.288696,402.2 C566.288696,400.32 565.048696,399.1 563.268696,399.1 C561.468696,399.1 560.228696,400.32 560.228696,402.2 C560.228696,404.08 561.468696,405.3 563.268696,405.3 C565.048696,405.3 566.288696,404.08 566.288696,402.2 Z M572.231304,398.9 C572.991304,397.98 574.131304,397.14 575.931304,397.14 C578.811304,397.14 580.691304,399.44 580.691304,402.2 C580.691304,404.96 578.811304,407.26 575.931304,407.26 C574.251304,407.26 573.131304,406.52 572.471304,405.76 L572.471304,411.4 L570.331304,411.4 L570.331304,397.4 L572.231304,397.4 L572.231304,398.9 Z M578.511304,402.2 C578.511304,400.32 577.271304,399.02 575.531304,399.02 C574.051304,399.02 572.931304,399.98 572.471304,401.02 L572.471304,403.36 C572.931304,404.42 574.051304,405.38 575.531304,405.38 C577.271304,405.38 578.511304,404.08 578.511304,402.2 Z M584.693913,407 L582.553913,407 L582.553913,397.4 L584.453913,397.4 L584.453913,398.6 C584.973913,398.02 586.093913,397.14 587.653913,397.14 C589.093913,397.14 590.093913,397.74 590.653913,398.68 C591.493913,397.84 592.613913,397.14 594.013913,397.14 C596.553913,397.14 597.653913,399.02 597.653913,401 L597.653913,407 L595.513913,407 L595.513913,401.06 C595.513913,399.82 594.773913,399.04 593.613913,399.04 C592.553913,399.04 591.733913,399.74 591.233913,400.34 C591.253913,400.56 591.273913,400.78 591.273913,401 L591.273913,407 L589.133913,407 L589.133913,401.06 C589.133913,399.82 588.393913,399.04 587.233913,399.04 C586.073913,399.04 585.193913,399.88 584.693913,400.52 L584.693913,407 Z M599.416522,402.2 C599.416522,398.72 602.056522,397.14 604.276522,397.14 C608.096522,397.14 609.416522,400.22 608.796522,403 L601.576522,403 C601.816522,404.72 603.496522,405.44 605.256522,405.44 C606.416522,405.44 607.476522,405.16 608.296522,404.76 L608.296522,406.6 C607.416522,407.02 606.196522,407.26 604.856522,407.26 C601.916522,407.26 599.416522,405.58 599.416522,402.2 Z M606.876522,401.4 C606.996522,400.56 606.476522,398.92 604.376522,398.92 C602.936522,398.92 601.636522,399.78 601.556522,401.4 L606.876522,401.4 Z M612.65913,398.72 C613.35913,397.88 614.53913,397.14 615.99913,397.14 C618.41913,397.14 619.95913,398.78 619.95913,401.06 L619.95913,407 L617.81913,407 L617.81913,401.34 C617.81913,399.78 616.85913,399.04 615.57913,399.04 C614.35913,399.04 613.43913,399.86 612.89913,400.64 L612.89913,407 L610.75913,407 L610.75913,397.4 L612.65913,397.4 L612.65913,398.72 Z M622.921739,394.5 L625.041739,393.98 L625.041739,397.4 L628.521739,397.4 L628.521739,399.28 L625.041739,399.28 L625.041739,403.68 C625.041739,404.94 625.621739,405.36 626.861739,405.36 C627.561739,405.36 628.201739,405.22 628.801739,404.98 L628.801739,406.82 C628.081739,407.08 627.161739,407.24 626.221739,407.24 C624.361739,407.24 622.921739,406.32 622.921739,404.08 L622.921739,399.28 L621.201739,399.28 L621.201739,397.4 L622.921739,397.4 L622.921739,394.5 Z M549.426087,416.4 L557.586087,416.4 L557.586087,418 L551.006087,418 L550.766087,421.84 C551.486087,421.64 552.286087,421.54 553.086087,421.54 C555.646087,421.54 558.246087,422.64 558.246087,425.9 C558.246087,428.66 555.926087,430.24 552.966087,430.24 C551.386087,430.24 549.786087,429.9 548.606087,429.32 L548.606087,427.72 C549.766087,428.34 551.306087,428.68 552.766087,428.68 C554.986087,428.68 556.546087,427.74 556.546087,425.9 C556.546087,423.68 554.626087,423.06 552.506087,423.06 C551.306087,423.06 550.026087,423.32 548.986087,423.7 L549.426087,416.4 Z M559.928696,423.2 C559.928696,419.18 561.808696,416.16 565.928696,416.16 C570.068696,416.16 571.948696,419.18 571.948696,423.2 C571.948696,427.22 570.068696,430.24 565.928696,430.24 C561.808696,430.24 559.928696,427.22 559.928696,423.2 Z M570.248696,423.2 C570.248696,419.8 568.908696,417.76 565.928696,417.76 C562.968696,417.76 561.628696,419.8 561.628696,423.2 C561.628696,426.6 562.968696,428.64 565.928696,428.64 C568.908696,428.64 570.248696,426.6 570.248696,423.2 Z M578.431304,431.2 L576.831304,431.2 L585.011304,414.8 L586.611304,414.8 L578.431304,431.2 Z M579.971304,418.9 C579.971304,420.92 578.431304,422.04 576.711304,422.04 C574.971304,422.04 573.411304,420.92 573.411304,418.9 C573.411304,416.88 574.971304,415.76 576.711304,415.76 C578.431304,415.76 579.971304,416.88 579.971304,418.9 Z M574.931304,418.9 C574.931304,419.84 575.531304,420.64 576.711304,420.64 C577.851304,420.64 578.451304,419.84 578.451304,418.9 C578.451304,417.96 577.851304,417.16 576.711304,417.16 C575.531304,417.16 574.931304,417.96 574.931304,418.9 Z M590.011304,427.1 C590.011304,429.12 588.471304,430.24 586.751304,430.24 C585.011304,430.24 583.451304,429.12 583.451304,427.1 C583.451304,425.08 585.011304,423.96 586.751304,423.96 C588.471304,423.96 590.011304,425.08 590.011304,427.1 Z M584.971304,427.1 C584.971304,428.04 585.571304,428.84 586.751304,428.84 C587.891304,428.84 588.491304,428.04 588.491304,427.1 C588.491304,426.16 587.891304,425.36 586.751304,425.36 C585.571304,425.36 584.971304,426.16 584.971304,427.1 Z" id="Application-developm" fill="#000000"></path>
                <path d="M547.628261,14 L552.628261,14 C555.948261,14 558.608261,15.04 558.608261,18.6 C558.608261,22.16 555.948261,23.2 552.628261,23.2 L549.908261,23.2 L549.908261,28 L547.628261,28 L547.628261,14 Z M556.288261,18.6 C556.288261,16.56 554.688261,16.08 552.748261,16.08 L549.908261,16.08 L549.908261,21.12 L552.748261,21.12 C554.668261,21.12 556.288261,20.64 556.288261,18.6 Z M560.35087,13.4 L562.49087,13.4 L562.49087,28 L560.35087,28 L560.35087,13.4 Z M573.173478,25.78 C573.173478,26.32 573.493478,26.48 573.873478,26.48 C574.093478,26.48 574.313478,26.42 574.513478,26.36 L574.513478,27.9 C574.113478,28.06 573.633478,28.14 573.153478,28.14 C572.273478,28.14 571.573478,27.8 571.233478,27.02 C570.293478,27.78 569.113478,28.26 567.613478,28.26 C565.873478,28.26 564.253478,27.3 564.253478,25.32 C564.253478,22.86 566.533478,22.1 568.533478,22.1 C569.353478,22.1 570.273478,22.22 571.033478,22.38 L571.033478,22.04 C571.033478,20.84 570.153478,20 568.513478,20 C567.093478,20 565.913478,20.36 565.053478,20.74 L565.053478,18.78 C565.813478,18.52 567.193478,18.14 568.733478,18.14 C571.453478,18.14 573.173478,19.44 573.173478,22.34 L573.173478,25.78 Z M568.953478,23.6 C567.733478,23.6 566.453478,23.98 566.453478,25.18 C566.453478,26.12 567.293478,26.6 568.253478,26.6 C569.273478,26.6 570.273478,26.22 571.033478,25.46 L571.033478,23.84 C570.453478,23.72 569.633478,23.6 568.953478,23.6 Z M576.376087,15.5 L578.496087,14.98 L578.496087,18.4 L581.976087,18.4 L581.976087,20.28 L578.496087,20.28 L578.496087,24.68 C578.496087,25.94 579.076087,26.36 580.316087,26.36 C581.016087,26.36 581.656087,26.22 582.256087,25.98 L582.256087,27.82 C581.536087,28.08 580.616087,28.24 579.676087,28.24 C577.816087,28.24 576.376087,27.32 576.376087,25.08 L576.376087,20.28 L574.656087,20.28 L574.656087,18.4 L576.376087,18.4 L576.376087,15.5 Z M586.758696,28 L584.618696,28 L584.618696,20.28 L582.878696,20.28 L582.878696,18.4 L584.618696,18.4 L584.618696,17.34 C584.618696,14.56 586.438696,13.74 588.198696,13.74 C589.078696,13.74 589.918696,13.92 590.578696,14.16 L590.578696,16.04 C590.098696,15.8 589.398696,15.62 588.718696,15.62 C587.678696,15.62 586.758696,15.92 586.758696,17.42 L586.758696,18.4 L590.038696,18.4 L590.038696,20.28 L586.758696,20.28 L586.758696,28 Z M590.561304,23.2 C590.561304,19.88 593.081304,18.14 595.761304,18.14 C598.461304,18.14 600.961304,19.88 600.961304,23.2 C600.961304,26.52 598.461304,28.26 595.761304,28.26 C593.081304,28.26 590.561304,26.52 590.561304,23.2 Z M598.781304,23.2 C598.781304,21.32 597.541304,20.1 595.761304,20.1 C593.961304,20.1 592.721304,21.32 592.721304,23.2 C592.721304,25.08 593.961304,26.3 595.761304,26.3 C597.541304,26.3 598.781304,25.08 598.781304,23.2 Z M604.723913,19.98 C605.463913,18.8 607.023913,18.04 608.763913,18.2 L608.763913,20.3 C607.043913,20.06 605.543913,20.82 604.963913,22.18 L604.963913,28 L602.823913,28 L602.823913,18.4 L604.723913,18.4 L604.723913,19.98 Z M612.306522,28 L610.166522,28 L610.166522,18.4 L612.066522,18.4 L612.066522,19.6 C612.586522,19.02 613.706522,18.14 615.266522,18.14 C616.706522,18.14 617.706522,18.74 618.266522,19.68 C619.106522,18.84 620.226522,18.14 621.626522,18.14 C624.166522,18.14 625.266522,20.02 625.266522,22 L625.266522,28 L623.126522,28 L623.126522,22.06 C623.126522,20.82 622.386522,20.04 621.226522,20.04 C620.166522,20.04 619.346522,20.74 618.846522,21.34 C618.866522,21.56 618.886522,21.78 618.886522,22 L618.886522,28 L616.746522,28 L616.746522,22.06 C616.746522,20.82 616.006522,20.04 614.846522,20.04 C613.686522,20.04 612.806522,20.88 612.306522,21.52 L612.306522,28 Z M534.975652,37 L537.115652,37 L537.115652,51 L535.195652,51 L535.195652,49.48 C534.455652,50.42 533.315652,51.26 531.515652,51.26 C528.615652,51.26 526.755652,48.96 526.755652,46.2 C526.755652,43.44 528.615652,41.14 531.515652,41.14 C533.195652,41.14 534.315652,41.88 534.975652,42.64 L534.975652,37 Z M534.955652,45.02 C534.495652,43.98 533.395652,43.02 531.895652,43.02 C530.175652,43.02 528.915652,44.32 528.915652,46.2 C528.915652,48.08 530.175652,49.38 531.895652,49.38 C533.395652,49.38 534.495652,48.42 534.955652,47.36 L534.955652,45.02 Z M538.978261,46.2 C538.978261,42.72 541.618261,41.14 543.838261,41.14 C547.658261,41.14 548.978261,44.22 548.358261,47 L541.138261,47 C541.378261,48.72 543.058261,49.44 544.818261,49.44 C545.978261,49.44 547.038261,49.16 547.858261,48.76 L547.858261,50.6 C546.978261,51.02 545.758261,51.26 544.418261,51.26 C541.478261,51.26 538.978261,49.58 538.978261,46.2 Z M546.438261,45.4 C546.558261,44.56 546.038261,42.92 543.938261,42.92 C542.498261,42.92 541.198261,43.78 541.118261,45.4 L546.438261,45.4 Z M556.96087,41.4 L559.30087,41.4 L555.18087,51 L552.92087,51 L548.82087,41.4 L551.14087,41.4 L554.06087,48.68 L556.96087,41.4 Z M559.643478,46.2 C559.643478,42.72 562.283478,41.14 564.503478,41.14 C568.323478,41.14 569.643478,44.22 569.023478,47 L561.803478,47 C562.043478,48.72 563.723478,49.44 565.483478,49.44 C566.643478,49.44 567.703478,49.16 568.523478,48.76 L568.523478,50.6 C567.643478,51.02 566.423478,51.26 565.083478,51.26 C562.143478,51.26 559.643478,49.58 559.643478,46.2 Z M567.103478,45.4 C567.223478,44.56 566.703478,42.92 564.603478,42.92 C563.163478,42.92 561.863478,43.78 561.783478,45.4 L567.103478,45.4 Z M571.026087,36.4 L573.166087,36.4 L573.166087,51 L571.026087,51 L571.026087,36.4 Z M575.068696,46.2 C575.068696,42.88 577.588696,41.14 580.268696,41.14 C582.968696,41.14 585.468696,42.88 585.468696,46.2 C585.468696,49.52 582.968696,51.26 580.268696,51.26 C577.588696,51.26 575.068696,49.52 575.068696,46.2 Z M583.288696,46.2 C583.288696,44.32 582.048696,43.1 580.268696,43.1 C578.468696,43.1 577.228696,44.32 577.228696,46.2 C577.228696,48.08 578.468696,49.3 580.268696,49.3 C582.048696,49.3 583.288696,48.08 583.288696,46.2 Z M589.231304,42.9 C589.991304,41.98 591.131304,41.14 592.931304,41.14 C595.811304,41.14 597.691304,43.44 597.691304,46.2 C597.691304,48.96 595.811304,51.26 592.931304,51.26 C591.251304,51.26 590.131304,50.52 589.471304,49.76 L589.471304,55.4 L587.331304,55.4 L587.331304,41.4 L589.231304,41.4 L589.231304,42.9 Z M595.511304,46.2 C595.511304,44.32 594.271304,43.02 592.531304,43.02 C591.051304,43.02 589.931304,43.98 589.471304,45.02 L589.471304,47.36 C589.931304,48.42 591.051304,49.38 592.531304,49.38 C594.271304,49.38 595.511304,48.08 595.511304,46.2 Z M601.693913,51 L599.553913,51 L599.553913,41.4 L601.453913,41.4 L601.453913,42.6 C601.973913,42.02 603.093913,41.14 604.653913,41.14 C606.093913,41.14 607.093913,41.74 607.653913,42.68 C608.493913,41.84 609.613913,41.14 611.013913,41.14 C613.553913,41.14 614.653913,43.02 614.653913,45 L614.653913,51 L612.513913,51 L612.513913,45.06 C612.513913,43.82 611.773913,43.04 610.613913,43.04 C609.553913,43.04 608.733913,43.74 608.233913,44.34 C608.253913,44.56 608.273913,44.78 608.273913,45 L608.273913,51 L606.133913,51 L606.133913,45.06 C606.133913,43.82 605.393913,43.04 604.233913,43.04 C603.073913,43.04 602.193913,43.88 601.693913,44.52 L601.693913,51 Z M616.416522,46.2 C616.416522,42.72 619.056522,41.14 621.276522,41.14 C625.096522,41.14 626.416522,44.22 625.796522,47 L618.576522,47 C618.816522,48.72 620.496522,49.44 622.256522,49.44 C623.416522,49.44 624.476522,49.16 625.296522,48.76 L625.296522,50.6 C624.416522,51.02 623.196522,51.26 621.856522,51.26 C618.916522,51.26 616.416522,49.58 616.416522,46.2 Z M623.876522,45.4 C623.996522,44.56 623.476522,42.92 621.376522,42.92 C619.936522,42.92 618.636522,43.78 618.556522,45.4 L623.876522,45.4 Z M629.65913,42.72 C630.35913,41.88 631.53913,41.14 632.99913,41.14 C635.41913,41.14 636.95913,42.78 636.95913,45.06 L636.95913,51 L634.81913,51 L634.81913,45.34 C634.81913,43.78 633.85913,43.04 632.57913,43.04 C631.35913,43.04 630.43913,43.86 629.89913,44.64 L629.89913,51 L627.75913,51 L627.75913,41.4 L629.65913,41.4 L629.65913,42.72 Z M639.921739,38.5 L642.041739,37.98 L642.041739,41.4 L645.521739,41.4 L645.521739,43.28 L642.041739,43.28 L642.041739,47.68 C642.041739,48.94 642.621739,49.36 643.861739,49.36 C644.561739,49.36 645.201739,49.22 645.801739,48.98 L645.801739,50.82 C645.081739,51.08 644.161739,51.24 643.221739,51.24 C641.361739,51.24 639.921739,50.32 639.921739,48.08 L639.921739,43.28 L638.201739,43.28 L638.201739,41.4 L639.921739,41.4 L639.921739,38.5 Z M571.636087,60.4 L572.876087,60.4 L572.876087,72.4 L575.416087,72.4 L575.416087,74 L568.336087,74 L568.336087,72.4 L571.196087,72.4 L571.196087,62.18 L568.336087,63.26 L568.336087,61.66 L571.636087,60.4 Z M577.538696,60.4 L585.698696,60.4 L585.698696,62 L579.118696,62 L578.878696,65.84 C579.598696,65.64 580.398696,65.54 581.198696,65.54 C583.758696,65.54 586.358696,66.64 586.358696,69.9 C586.358696,72.66 584.038696,74.24 581.078696,74.24 C579.498696,74.24 577.898696,73.9 576.718696,73.32 L576.718696,71.72 C577.878696,72.34 579.418696,72.68 580.878696,72.68 C583.098696,72.68 584.658696,71.74 584.658696,69.9 C584.658696,67.68 582.738696,67.06 580.618696,67.06 C579.418696,67.06 578.138696,67.32 577.098696,67.7 L577.538696,60.4 Z M592.701304,75.2 L591.101304,75.2 L599.281304,58.8 L600.881304,58.8 L592.701304,75.2 Z M594.241304,62.9 C594.241304,64.92 592.701304,66.04 590.981304,66.04 C589.241304,66.04 587.681304,64.92 587.681304,62.9 C587.681304,60.88 589.241304,59.76 590.981304,59.76 C592.701304,59.76 594.241304,60.88 594.241304,62.9 Z M589.201304,62.9 C589.201304,63.84 589.801304,64.64 590.981304,64.64 C592.121304,64.64 592.721304,63.84 592.721304,62.9 C592.721304,61.96 592.121304,61.16 590.981304,61.16 C589.801304,61.16 589.201304,61.96 589.201304,62.9 Z M604.281304,71.1 C604.281304,73.12 602.741304,74.24 601.021304,74.24 C599.281304,74.24 597.721304,73.12 597.721304,71.1 C597.721304,69.08 599.281304,67.96 601.021304,67.96 C602.741304,67.96 604.281304,69.08 604.281304,71.1 Z M599.241304,71.1 C599.241304,72.04 599.841304,72.84 601.021304,72.84 C602.161304,72.84 602.761304,72.04 602.761304,71.1 C602.761304,70.16 602.161304,69.36 601.021304,69.36 C599.841304,69.36 599.241304,70.16 599.241304,71.1 Z" id="Platform-development" fill="#000000"></path>
                <path d="M183.612174,4 L189.532174,4 C192.452174,4 194.332174,5.16 194.332174,7.54 C194.332174,9.24 193.312174,10.24 192.132174,10.62 C193.392174,10.98 194.892174,11.94 194.892174,14.12 C194.892174,17.3 191.792174,18 189.572174,18 L183.612174,18 L183.612174,4 Z M192.572174,13.88 C192.572174,12.02 190.932174,11.74 189.672174,11.74 L185.892174,11.74 L185.892174,16 L189.352174,16 C190.912174,16 192.572174,15.82 192.572174,13.88 Z M192.012174,7.9 C192.012174,6.5 190.972174,5.98 189.292174,5.98 L185.892174,5.98 L185.892174,9.8 L189.612174,9.82 C190.932174,9.82 192.012174,9.26 192.012174,7.9 Z M196.234783,13.2 C196.234783,9.88 198.754783,8.14 201.434783,8.14 C204.134783,8.14 206.634783,9.88 206.634783,13.2 C206.634783,16.52 204.134783,18.26 201.434783,18.26 C198.754783,18.26 196.234783,16.52 196.234783,13.2 Z M204.454783,13.2 C204.454783,11.32 203.214783,10.1 201.434783,10.1 C199.634783,10.1 198.394783,11.32 198.394783,13.2 C198.394783,15.08 199.634783,16.3 201.434783,16.3 C203.214783,16.3 204.454783,15.08 204.454783,13.2 Z M215.457391,8.4 L217.597391,8.4 L217.597391,18 L215.697391,18 L215.697391,16.68 C214.997391,17.52 213.817391,18.26 212.357391,18.26 C209.817391,18.26 208.397391,16.62 208.397391,14.34 L208.397391,8.4 L210.537391,8.4 L210.537391,14.06 C210.537391,15.62 211.357391,16.36 212.777391,16.36 C213.997391,16.36 214.917391,15.54 215.457391,14.76 L215.457391,8.4 Z M221.96,9.72 C222.66,8.88 223.84,8.14 225.3,8.14 C227.72,8.14 229.26,9.78 229.26,12.06 L229.26,18 L227.12,18 L227.12,12.34 C227.12,10.78 226.16,10.04 224.88,10.04 C223.66,10.04 222.74,10.86 222.2,11.64 L222.2,18 L220.06,18 L220.06,8.4 L221.96,8.4 L221.96,9.72 Z M232.222609,5.5 L234.342609,4.98 L234.342609,8.4 L237.822609,8.4 L237.822609,10.28 L234.342609,10.28 L234.342609,14.68 C234.342609,15.94 234.922609,16.36 236.162609,16.36 C236.862609,16.36 237.502609,16.22 238.102609,15.98 L238.102609,17.82 C237.382609,18.08 236.462609,18.24 235.522609,18.24 C233.662609,18.24 232.222609,17.32 232.222609,15.08 L232.222609,10.28 L230.502609,10.28 L230.502609,8.4 L232.222609,8.4 L232.222609,5.5 Z M243.945217,15.64 L246.805217,8.4 L249.045217,8.4 L244.545217,19.3 C243.505217,21.8 242.145217,22.64 240.685217,22.64 C240.265217,22.64 239.845217,22.58 239.425217,22.48 L239.425217,20.66 C239.745217,20.76 240.085217,20.8 240.405217,20.8 C241.445217,20.8 242.225217,20.06 242.785217,18.56 L242.985217,18.08 L238.425217,8.4 L240.705217,8.4 L243.945217,15.64 Z M211.087391,32.86 C211.087391,34.26 210.267391,35.46 209.107391,35.86 C210.267391,36.22 211.647391,37.22 211.647391,39.3 C211.647391,41.94 209.387391,43.24 206.667391,43.24 C204.727391,43.24 203.267391,42.94 201.927391,42.34 L201.927391,40.68 C203.307391,41.4 204.727391,41.68 206.527391,41.66 C208.527391,41.66 210.027391,41 210.027391,39.22 C210.027391,37.36 208.547391,36.78 206.707391,36.78 L204.627391,36.78 L204.627391,35.18 L206.527391,35.2 C208.507391,35.2 209.467391,34.26 209.467391,33 C209.467391,31.6 208.327391,30.72 206.247391,30.72 C204.807391,30.72 203.487391,31.06 202.167391,31.76 L202.167391,30.12 C203.387391,29.5 204.767391,29.16 206.467391,29.16 C209.247391,29.16 211.087391,30.66 211.087391,32.86 Z M218.09,44.2 L216.49,44.2 L224.67,27.8 L226.27,27.8 L218.09,44.2 Z M219.63,31.9 C219.63,33.92 218.09,35.04 216.37,35.04 C214.63,35.04 213.07,33.92 213.07,31.9 C213.07,29.88 214.63,28.76 216.37,28.76 C218.09,28.76 219.63,29.88 219.63,31.9 Z M214.59,31.9 C214.59,32.84 215.19,33.64 216.37,33.64 C217.51,33.64 218.11,32.84 218.11,31.9 C218.11,30.96 217.51,30.16 216.37,30.16 C215.19,30.16 214.59,30.96 214.59,31.9 Z M229.67,40.1 C229.67,42.12 228.13,43.24 226.41,43.24 C224.67,43.24 223.11,42.12 223.11,40.1 C223.11,38.08 224.67,36.96 226.41,36.96 C228.13,36.96 229.67,38.08 229.67,40.1 Z M224.63,40.1 C224.63,41.04 225.23,41.84 226.41,41.84 C227.55,41.84 228.15,41.04 228.15,40.1 C228.15,39.16 227.55,38.36 226.41,38.36 C225.23,38.36 224.63,39.16 224.63,40.1 Z" id="Bounty-3%" fill="#000000"></path>
                <path d="M184.468261,398.12 C184.468261,393.14 188.208261,390.74 191.888261,390.74 C193.288261,390.74 194.668261,391.06 195.868261,391.66 L195.868261,393.88 C194.888261,393.2 193.588261,392.84 192.268261,392.84 C189.588261,392.84 186.808261,394.42 186.788261,398.12 C186.788261,401.56 189.628261,403.16 192.308261,403.16 C193.748261,403.16 195.048261,402.78 195.968261,402.08 L195.968261,404.34 C194.788261,404.92 193.388261,405.26 191.908261,405.26 C188.288261,405.26 184.448261,402.9 184.468261,398.12 Z M199.75087,396.98 C200.49087,395.8 202.05087,395.04 203.79087,395.2 L203.79087,397.3 C202.07087,397.06 200.57087,397.82 199.99087,399.18 L199.99087,405 L197.85087,405 L197.85087,395.4 L199.75087,395.4 L199.75087,396.98 Z M204.333478,400.2 C204.333478,396.88 206.853478,395.14 209.533478,395.14 C212.233478,395.14 214.733478,396.88 214.733478,400.2 C214.733478,403.52 212.233478,405.26 209.533478,405.26 C206.853478,405.26 204.333478,403.52 204.333478,400.2 Z M212.553478,400.2 C212.553478,398.32 211.313478,397.1 209.533478,397.1 C207.733478,397.1 206.493478,398.32 206.493478,400.2 C206.493478,402.08 207.733478,403.3 209.533478,403.3 C211.313478,403.3 212.553478,402.08 212.553478,400.2 Z M228.616087,395.4 L230.876087,395.4 L227.696087,405 L225.396087,405 L223.116087,398.12 L220.836087,405 L218.556087,405 L215.356087,395.4 L217.616087,395.4 L219.776087,402.66 L222.116087,395.4 L224.116087,395.4 L226.476087,402.66 L228.616087,395.4 Z M239.718696,391 L241.858696,391 L241.858696,405 L239.938696,405 L239.938696,403.48 C239.198696,404.42 238.058696,405.26 236.258696,405.26 C233.358696,405.26 231.498696,402.96 231.498696,400.2 C231.498696,397.44 233.358696,395.14 236.258696,395.14 C237.938696,395.14 239.058696,395.88 239.718696,396.64 L239.718696,391 Z M239.698696,399.02 C239.238696,397.98 238.138696,397.02 236.638696,397.02 C234.918696,397.02 233.658696,398.32 233.658696,400.2 C233.658696,402.08 234.918696,403.38 236.638696,403.38 C238.138696,403.38 239.238696,402.42 239.698696,401.36 L239.698696,399.02 Z M243.821304,398 C243.821304,395.9 245.741304,395.14 247.641304,395.14 C248.961304,395.14 250.161304,395.48 251.101304,395.96 L251.101304,397.84 C250.301304,397.3 248.921304,396.9 247.781304,396.9 C246.921304,396.9 246.001304,397.16 246.001304,397.94 C246.001304,399.8 251.781304,398.94 251.781304,402.44 C251.781304,404.56 249.821304,405.26 247.641304,405.26 C246.241304,405.26 244.821304,404.92 243.881304,404.34 L243.881304,402.44 C244.881304,403.1 246.341304,403.46 247.541304,403.46 C248.741304,403.46 249.621304,403.26 249.621304,402.48 C249.621304,400.7 243.821304,401.44 243.821304,398 Z M261.683913,402.78 C261.683913,403.32 262.003913,403.48 262.383913,403.48 C262.603913,403.48 262.823913,403.42 263.023913,403.36 L263.023913,404.9 C262.623913,405.06 262.143913,405.14 261.663913,405.14 C260.783913,405.14 260.083913,404.8 259.743913,404.02 C258.803913,404.78 257.623913,405.26 256.123913,405.26 C254.383913,405.26 252.763913,404.3 252.763913,402.32 C252.763913,399.86 255.043913,399.1 257.043913,399.1 C257.863913,399.1 258.783913,399.22 259.543913,399.38 L259.543913,399.04 C259.543913,397.84 258.663913,397 257.023913,397 C255.603913,397 254.423913,397.36 253.563913,397.74 L253.563913,395.78 C254.323913,395.52 255.703913,395.14 257.243913,395.14 C259.963913,395.14 261.683913,396.44 261.683913,399.34 L261.683913,402.78 Z M257.463913,400.6 C256.243913,400.6 254.963913,400.98 254.963913,402.18 C254.963913,403.12 255.803913,403.6 256.763913,403.6 C257.783913,403.6 258.783913,403.22 259.543913,402.46 L259.543913,400.84 C258.963913,400.72 258.143913,400.6 257.463913,400.6 Z M264.326522,390.4 L266.466522,390.4 L266.466522,405 L264.326522,405 L264.326522,390.4 Z M268.36913,400.2 C268.36913,396.72 271.00913,395.14 273.22913,395.14 C277.04913,395.14 278.36913,398.22 277.74913,401 L270.52913,401 C270.76913,402.72 272.44913,403.44 274.20913,403.44 C275.36913,403.44 276.42913,403.16 277.24913,402.76 L277.24913,404.6 C276.36913,405.02 275.14913,405.26 273.80913,405.26 C270.86913,405.26 268.36913,403.58 268.36913,400.2 Z M275.82913,399.4 C275.94913,398.56 275.42913,396.92 273.32913,396.92 C271.88913,396.92 270.58913,397.78 270.50913,399.4 L275.82913,399.4 Z M213.026087,422.82 C214.406087,421.9 215.726087,421.52 217.286087,421.52 C219.546087,421.52 221.946087,422.94 221.946087,425.78 C221.946087,428.68 219.726087,430.24 217.066087,430.24 C213.126087,430.24 211.326087,427.62 211.326087,423.42 C211.326087,418.42 214.006087,416.16 217.506087,416.16 C218.666087,416.16 219.826087,416.44 220.806087,416.94 L220.806087,418.54 C219.786087,418 218.626087,417.76 217.546087,417.76 C215.266087,417.76 213.226087,419.06 213.026087,422.82 Z M213.046087,424.5 C213.306087,427.36 214.726087,428.68 216.946087,428.68 C218.766087,428.68 220.246087,427.92 220.246087,425.86 C220.246087,423.72 218.626087,423.08 216.866087,423.08 C215.526087,423.08 214.146087,423.52 213.046087,424.5 Z M232.688696,419.86 C232.688696,421.26 231.868696,422.46 230.708696,422.86 C231.868696,423.22 233.248696,424.22 233.248696,426.3 C233.248696,428.94 230.988696,430.24 228.268696,430.24 C226.328696,430.24 224.868696,429.94 223.528696,429.34 L223.528696,427.68 C224.908696,428.4 226.328696,428.68 228.128696,428.66 C230.128696,428.66 231.628696,428 231.628696,426.22 C231.628696,424.36 230.148696,423.78 228.308696,423.78 L226.228696,423.78 L226.228696,422.18 L228.128696,422.2 C230.108696,422.2 231.068696,421.26 231.068696,420 C231.068696,418.6 229.928696,417.72 227.848696,417.72 C226.408696,417.72 225.088696,418.06 223.768696,418.76 L223.768696,417.12 C224.988696,416.5 226.368696,416.16 228.068696,416.16 C230.848696,416.16 232.688696,417.66 232.688696,419.86 Z M239.691304,431.2 L238.091304,431.2 L246.271304,414.8 L247.871304,414.8 L239.691304,431.2 Z M241.231304,418.9 C241.231304,420.92 239.691304,422.04 237.971304,422.04 C236.231304,422.04 234.671304,420.92 234.671304,418.9 C234.671304,416.88 236.231304,415.76 237.971304,415.76 C239.691304,415.76 241.231304,416.88 241.231304,418.9 Z M236.191304,418.9 C236.191304,419.84 236.791304,420.64 237.971304,420.64 C239.111304,420.64 239.711304,419.84 239.711304,418.9 C239.711304,417.96 239.111304,417.16 237.971304,417.16 C236.791304,417.16 236.191304,417.96 236.191304,418.9 Z M251.271304,427.1 C251.271304,429.12 249.731304,430.24 248.011304,430.24 C246.271304,430.24 244.711304,429.12 244.711304,427.1 C244.711304,425.08 246.271304,423.96 248.011304,423.96 C249.731304,423.96 251.271304,425.08 251.271304,427.1 Z M246.231304,427.1 C246.231304,428.04 246.831304,428.84 248.011304,428.84 C249.151304,428.84 249.751304,428.04 249.751304,427.1 C249.751304,426.16 249.151304,425.36 248.011304,425.36 C246.831304,425.36 246.231304,426.16 246.231304,427.1 Z" id="Crowdsale-63%" fill="#000000"></path>
                <path d="M2.40565215,90 L12.0656522,90 L12.0656522,92.1 L4.68565215,92.1 L4.68565215,96.2 L11.4856522,96.2 L11.4856522,98.32 L4.68565215,98.32 L4.68565215,104 L2.40565215,104 L2.40565215,90 Z M15.9882609,104 L13.8482609,104 L13.8482609,94.4 L15.9882609,94.4 L15.9882609,104 Z M16.2282609,91.28 C16.2282609,92.16 15.6282609,92.56 14.9282609,92.56 C14.2282609,92.56 13.6082609,92.16 13.6082609,91.28 C13.6082609,90.44 14.2282609,90.02 14.9282609,90.02 C15.6282609,90.02 16.2282609,90.44 16.2282609,91.28 Z M20.3908696,95.98 C21.1308696,94.8 22.6908696,94.04 24.4308696,94.2 L24.4308696,96.3 C22.7108696,96.06 21.2108696,96.82 20.6308696,98.18 L20.6308696,104 L18.4908696,104 L18.4908696,94.4 L20.3908696,94.4 L20.3908696,95.98 Z M25.3334783,97 C25.3334783,94.9 27.2534783,94.14 29.1534783,94.14 C30.4734783,94.14 31.6734783,94.48 32.6134783,94.96 L32.6134783,96.84 C31.8134783,96.3 30.4334783,95.9 29.2934783,95.9 C28.4334783,95.9 27.5134783,96.16 27.5134783,96.94 C27.5134783,98.8 33.2934783,97.94 33.2934783,101.44 C33.2934783,103.56 31.3334783,104.26 29.1534783,104.26 C27.7534783,104.26 26.3334783,103.92 25.3934783,103.34 L25.3934783,101.44 C26.3934783,102.1 27.8534783,102.46 29.0534783,102.46 C30.2534783,102.46 31.1334783,102.26 31.1334783,101.48 C31.1334783,99.7 25.3334783,100.44 25.3334783,97 Z M35.716087,91.5 L37.836087,90.98 L37.836087,94.4 L41.316087,94.4 L41.316087,96.28 L37.836087,96.28 L37.836087,100.68 C37.836087,101.94 38.416087,102.36 39.656087,102.36 C40.356087,102.36 40.996087,102.22 41.596087,101.98 L41.596087,103.82 C40.876087,104.08 39.956087,104.24 39.016087,104.24 C37.156087,104.24 35.716087,103.32 35.716087,101.08 L35.716087,96.28 L33.996087,96.28 L33.996087,94.4 L35.716087,94.4 L35.716087,91.5 Z M54.5813044,94.4 L56.7213044,94.4 L56.7213044,104 L54.8213044,104 L54.8213044,102.68 C54.1213044,103.52 52.9413044,104.26 51.4813044,104.26 C48.9413044,104.26 47.5213044,102.62 47.5213044,100.34 L47.5213044,94.4 L49.6613044,94.4 L49.6613044,100.06 C49.6613044,101.62 50.4813044,102.36 51.9013044,102.36 C53.1213044,102.36 54.0413044,101.54 54.5813044,100.76 L54.5813044,94.4 Z M58.6839131,97 C58.6839131,94.9 60.603913,94.14 62.503913,94.14 C63.8239131,94.14 65.023913,94.48 65.963913,94.96 L65.963913,96.84 C65.163913,96.3 63.783913,95.9 62.643913,95.9 C61.783913,95.9 60.8639131,96.16 60.8639131,96.94 C60.8639131,98.8 66.6439131,97.94 66.6439131,101.44 C66.6439131,103.56 64.683913,104.26 62.503913,104.26 C61.103913,104.26 59.6839131,103.92 58.743913,103.34 L58.743913,101.44 C59.743913,102.1 61.203913,102.46 62.403913,102.46 C63.603913,102.46 64.483913,102.26 64.483913,101.48 C64.483913,99.7 58.6839131,100.44 58.6839131,97 Z M67.7665217,99.2 C67.7665217,95.72 70.4065217,94.14 72.6265217,94.14 C76.4465217,94.14 77.7665217,97.22 77.1465217,100 L69.9265217,100 C70.1665217,101.72 71.8465217,102.44 73.6065217,102.44 C74.7665217,102.44 75.8265217,102.16 76.6465217,101.76 L76.6465217,103.6 C75.7665217,104.02 74.5465217,104.26 73.2065217,104.26 C70.2665217,104.26 67.7665217,102.58 67.7665217,99.2 Z M75.2265218,98.4 C75.3465217,97.56 74.8265217,95.92 72.7265218,95.92 C71.2865218,95.92 69.9865217,96.78 69.9065217,98.4 L75.2265218,98.4 Z M81.0091305,95.98 C81.7491305,94.8 83.3091305,94.04 85.0491305,94.2 L85.0491305,96.3 C83.3291305,96.06 81.8291305,96.82 81.2491305,98.18 L81.2491305,104 L79.1091305,104 L79.1091305,94.4 L81.0091305,94.4 L81.0091305,95.98 Z M85.9517392,97 C85.9517392,94.9 87.8717392,94.14 89.7717392,94.14 C91.0917392,94.14 92.2917392,94.48 93.2317392,94.96 L93.2317392,96.84 C92.4317391,96.3 91.0517392,95.9 89.9117392,95.9 C89.0517392,95.9 88.1317392,96.16 88.1317392,96.94 C88.1317392,98.8 93.9117392,97.94 93.9117392,101.44 C93.9117392,103.56 91.9517392,104.26 89.7717392,104.26 C88.3717392,104.26 86.9517392,103.92 86.0117392,103.34 L86.0117392,101.44 C87.0117392,102.1 88.4717392,102.46 89.6717392,102.46 C90.8717392,102.46 91.7517392,102.26 91.7517392,101.48 C91.7517392,99.7 85.9517392,100.44 85.9517392,97 Z M28.616087,114.48 C29.976087,113.54 31.476087,113.16 32.976087,113.16 C35.756087,113.16 37.616087,114.48 37.616087,116.8 C37.616087,119.12 35.676087,120.46 33.776087,121.58 C31.876087,122.7 30.016087,123.62 29.976087,125.42 L37.716087,125.4 L37.716087,127 L28.136087,127 L28.136087,126.2 C28.136087,122.88 30.576087,121.62 32.696087,120.38 C34.396087,119.38 35.936087,118.54 35.936087,116.78 C35.936087,115.44 34.796087,114.72 32.836087,114.72 C31.456087,114.72 30.016087,115.18 28.616087,116.16 L28.616087,114.48 Z M48.7186957,116.86 C48.7186957,118.26 47.8986957,119.46 46.7386957,119.86 C47.8986957,120.22 49.2786957,121.22 49.2786957,123.3 C49.2786957,125.94 47.0186957,127.24 44.2986957,127.24 C42.3586957,127.24 40.8986957,126.94 39.5586957,126.34 L39.5586957,124.68 C40.9386957,125.4 42.3586957,125.68 44.1586957,125.66 C46.1586957,125.66 47.6586957,125 47.6586957,123.22 C47.6586957,121.36 46.1786957,120.78 44.3386957,120.78 L42.2586957,120.78 L42.2586957,119.18 L44.1586957,119.2 C46.1386957,119.2 47.0986957,118.26 47.0986957,117 C47.0986957,115.6 45.9586957,114.72 43.8786957,114.72 C42.4386957,114.72 41.1186957,115.06 39.7986957,115.76 L39.7986957,114.12 C41.0186957,113.5 42.3986957,113.16 44.0986957,113.16 C46.8786957,113.16 48.7186957,114.66 48.7186957,116.86 Z M55.7213044,128.2 L54.1213044,128.2 L62.3013044,111.8 L63.9013044,111.8 L55.7213044,128.2 Z M57.2613044,115.9 C57.2613044,117.92 55.7213044,119.04 54.0013044,119.04 C52.2613044,119.04 50.7013044,117.92 50.7013044,115.9 C50.7013044,113.88 52.2613044,112.76 54.0013044,112.76 C55.7213044,112.76 57.2613044,113.88 57.2613044,115.9 Z M52.2213044,115.9 C52.2213044,116.84 52.8213044,117.64 54.0013044,117.64 C55.1413044,117.64 55.7413044,116.84 55.7413044,115.9 C55.7413044,114.96 55.1413044,114.16 54.0013044,114.16 C52.8213044,114.16 52.2213044,114.96 52.2213044,115.9 Z M67.3013044,124.1 C67.3013044,126.12 65.7613044,127.24 64.0413044,127.24 C62.3013044,127.24 60.7413044,126.12 60.7413044,124.1 C60.7413044,122.08 62.3013044,120.96 64.0413044,120.96 C65.7613044,120.96 67.3013044,122.08 67.3013044,124.1 Z M62.2613044,124.1 C62.2613044,125.04 62.8613044,125.84 64.0413044,125.84 C65.1813044,125.84 65.7813043,125.04 65.7813043,124.1 C65.7813043,123.16 65.1813044,122.36 64.0413044,122.36 C62.8613044,122.36 62.2613044,123.16 62.2613044,124.1 Z" id="First-users-23%" fill="#000000"></path>
            </g>
        </g>
    </g>
</svg>