<?xml version="1.0" encoding="UTF-8" standalone="no"?>
<svg width="985px" height="428px" viewBox="0 0 985 428" version="1.1" xmlns="http://www.w3.org/2000/svg" xmlns:xlink="http://www.w3.org/1999/xlink">
    <!-- Generator: Sketch 49 (51002) - http://www.bohemiancoding.com/sketch -->
    <title>Распределение</title>
    <desc>Created with Sketch.</desc>
    <defs>
        <radialGradient cx="0%" cy="171.555465%" fx="0%" fy="171.555465%" r="173.701804%" gradientTransform="translate(0.000000,1.715555),scale(0.891551,1.000000),rotate(108.836219),translate(-0.000000,-1.715555)" id="radialGradient-1">
            <stop stop-color="#FE5D5D" offset="0%"></stop>
            <stop stop-color="#FE6060" offset="53.0512596%"></stop>
            <stop stop-color="#FF9696" offset="100%"></stop>
        </radialGradient>
        <radialGradient cx="50%" cy="44.6633079%" fx="50%" fy="44.6633079%" r="55.1673556%" gradientTransform="translate(0.500000,0.446633),scale(0.904505,1.000000),rotate(64.501960),translate(-0.500000,-0.446633)" id="radialGradient-2">
            <stop stop-color="#D9477F" offset="0%"></stop>
            <stop stop-color="#DA4A82" offset="54.942641%"></stop>
            <stop stop-color="#EE7DB6" offset="100%"></stop>
        </radialGradient>
        <radialGradient cx="105.394791%" cy="108.167521%" fx="105.394791%" fy="108.167521%" r="108.594042%" gradientTransform="translate(1.053948,1.081675),scale(0.988696,1.000000),rotate(-139.259049),translate(-1.053948,-1.081675)" id="radialGradient-3">
            <stop stop-color="#9A2DBB" offset="0%"></stop>
            <stop stop-color="#9D30BD" offset="54.5020201%"></stop>
            <stop stop-color="#CA59DF" offset="100%"></stop>
        </radialGradient>
        <radialGradient cx="100%" cy="217.943671%" fx="100%" fy="217.943671%" r="537.059997%" gradientTransform="translate(1.000000,2.179437),scale(1.000000,0.407579),rotate(-95.341943),translate(-1.000000,-2.179437)" id="radialGradient-4">
            <stop stop-color="#560CFF" offset="0%"></stop>
            <stop stop-color="#5C0EFF" offset="54.7672266%"></stop>
            <stop stop-color="#8F1CFF" offset="100%"></stop>
        </radialGradient>
        <radialGradient cx="0%" cy="171.555465%" fx="0%" fy="171.555465%" r="173.701802%" gradientTransform="translate(0.000000,1.715555),scale(0.891551,1.000000),rotate(108.836217),translate(-0.000000,-1.715555)" id="radialGradient-5">
            <stop stop-color="#FE5D5D" offset="0%"></stop>
            <stop stop-color="#FE6060" offset="53.0512596%"></stop>
            <stop stop-color="#FF9696" offset="100%"></stop>
        </radialGradient>
        <radialGradient cx="-48.0351181%" cy="54.5945858%" fx="-48.0351181%" fy="54.5945858%" r="147.54738%" gradientTransform="translate(-0.480351,0.545946),scale(1.000000,0.462001),rotate(78.429240),translate(0.480351,-0.545946)" id="radialGradient-6">
            <stop stop-color="#D9477F" offset="0%"></stop>
            <stop stop-color="#DA4A82" offset="54.942641%"></stop>
            <stop stop-color="#EE7DB6" offset="100%"></stop>
        </radialGradient>
        <radialGradient cx="55.0578981%" cy="39.2325569%" fx="55.0578981%" fy="39.2325569%" r="60.2254504%" gradientTransform="translate(0.550579,0.392326),scale(0.915453,1.000000),rotate(159.067767),translate(-0.550579,-0.392326)" id="radialGradient-7">
            <stop stop-color="#9A2DBB" offset="0%"></stop>
            <stop stop-color="#9D30BD" offset="54.5020201%"></stop>
            <stop stop-color="#CA59DF" offset="100%"></stop>
        </radialGradient>
        <radialGradient cx="100%" cy="149.510785%" fx="100%" fy="149.510785%" r="149.579001%" gradientTransform="translate(1.000000,1.495108),scale(0.836470,1.000000),rotate(-113.554538),translate(-1.000000,-1.495108)" id="radialGradient-8">
            <stop stop-color="#560CFF" offset="0%"></stop>
            <stop stop-color="#5C0EFF" offset="54.7672266%"></stop>
            <stop stop-color="#8F1CFF" offset="100%"></stop>
        </radialGradient>
    </defs>
    <g id="Monoreto" stroke="none" stroke-width="1" fill="none" fill-rule="evenodd">
        <g id="Распределение-Copy" transform="translate(-227.000000, -65.000000)">
            <g id="Распределение" transform="translate(226.000000, 61.000000)">
                <g id="Дизайн-без-названия" transform="translate(69.000000, 58.000000)">
                    <g id="Group-20">
                        <path d="M160,0.10000225 C179.276403,0.10000825 197.942455,3.47538025 215.998135,10.2261295 C234.0538,16.9768735 250.355702,26.6754782 264.903828,39.321949 L217.697102,93.62707 C209.695623,86.6715025 200.729568,81.3372625 190.79896,77.62435 C180.868345,73.911445 170.602015,72.0549925 160,72.0549925 L160,0.10000225 Z" id="Fill-15" fill="url(#radialGradient-1)"></path>
                        <path d="M253.986873,30.6381835 C261.727953,36.2624057 268.90633,42.5309643 275.522065,49.443859 C282.1378,56.3567545 288.085113,63.8034932 293.363995,71.7840625 C298.642885,79.76464 303.168933,88.1514625 306.942183,96.9445675 C310.715485,105.737665 313.67566,114.796465 315.822663,124.120975 C317.969665,133.44547 319.269258,142.886643 319.721388,152.444448 C320.17348,162.00226 319.770918,171.523945 318.513715,181.009473 C317.256468,190.495023 315.164718,199.792803 312.238375,208.902828 C309.31198,218.012823 305.597823,226.789458 301.095858,235.232725 C296.593885,243.67597 291.376068,251.650855 285.442398,259.15738 C279.508773,266.663928 272.954148,273.582108 265.778568,279.91195 C258.60298,286.241815 250.92109,291.882123 242.732935,296.83291 C234.544803,301.78369 225.98128,305.965818 217.042345,309.37927 C208.103388,312.7927 198.931953,315.382915 189.528025,317.149878 C180.124113,318.916825 170.638015,319.832305 161.069725,319.896325 C151.501435,319.960345 142.003938,319.17187 132.577188,317.5309 C123.150438,315.889908 113.945178,313.422655 104.9614,310.129135 C95.9776075,306.835593 87.3588775,302.76841 79.1052175,297.927625 C70.851535,293.086848 63.0948775,287.54983 55.8352225,281.316528 C48.5755825,275.083278 41.9290075,268.253395 35.89546,260.82691 C29.8619275,253.400455 24.5379025,245.496085 19.923355,237.113815 C15.3088225,228.731545 11.477545,220.0054 8.4295375,210.935343 C5.381545,201.8653 3.1655275,192.596343 1.7815075,183.128485 C0.39748,173.660628 -0.132425,164.14519 0.191785,154.582188 C0.51598,145.019178 1.68913,135.561483 3.7111975,126.209088 L74.0411575,141.415045 C72.92905,146.558868 72.283825,151.760598 72.105505,157.020235 C71.9272075,162.279873 72.218665,167.513365 72.979855,172.720705 C73.741075,177.928015 74.95987,183.025945 76.63627,188.014473 C78.31267,193.003 80.41987,197.802378 82.95787,202.412628 C85.49587,207.022878 88.424095,211.37026 91.7425375,215.45482 C95.06098,219.539373 98.716615,223.295808 102.709435,226.724088 C106.702255,230.152398 110.968405,233.197788 115.507893,235.860205 C120.047418,238.522653 124.787718,240.759603 129.728823,242.571048 C134.66992,244.382485 139.73281,245.739453 144.917485,246.642003 C150.10219,247.544553 155.325798,247.97824 160.58836,247.943013 C165.85093,247.907793 171.068268,247.404273 176.240425,246.432445 C181.412628,245.46061 186.456933,244.036 191.37334,242.158623 C196.28974,240.281223 200.999695,237.98107 205.503175,235.258135 C210.006678,232.535193 214.231698,229.43302 218.178258,225.951618 C222.124848,222.470208 225.729873,218.66521 228.993385,214.536588 C232.256898,210.407995 235.126683,206.021823 237.602778,201.37804 C240.078843,196.73425 242.121633,191.907115 243.731133,186.89659 C245.340633,181.886073 246.491103,176.77228 247.18258,171.555235 C247.874058,166.338198 248.09545,161.101285 247.846773,155.84449 C247.598118,150.587695 246.88336,145.395048 245.702493,140.266585 C244.521625,135.1381 242.89354,130.155753 240.818245,125.31955 C238.74295,120.483348 236.25361,115.870585 233.350218,111.48127 C230.446833,107.091963 227.175813,102.996258 223.537188,99.194155 C219.89854,95.3920675 215.95042,91.94437 211.692828,88.85104 L253.986873,30.6381835 Z" id="Fill-17" fill="url(#radialGradient-2)"></path>
                        <path d="M1.360855,139.959199 C2.485705,131.055103 4.34701,122.307712 6.944785,113.717018 C9.54256,105.126332 12.84022,96.8132729 16.8377725,88.7778641 C20.8353325,80.7424554 25.4765125,73.097789 30.7613125,65.8438734 C36.0461125,58.5899682 41.9001325,51.8289263 48.3233875,45.5607347 C54.7466425,39.2925492 61.6486975,33.6054598 69.0295675,28.4994733 C76.41043,23.3934808 84.16621,18.9404653 92.2968925,15.1404266 C100.427575,11.3403879 108.818725,8.24681014 117.47032,5.8597045 C126.121915,3.47259286 134.91217,1.82555411 143.8411,0.91858675 L151.112613,72.5052066 C141.220683,73.5099965 131.770908,76.1173336 122.763303,80.3272179 C113.755705,84.5370948 105.693895,90.1141464 98.577865,97.0583879 C91.4618575,104.002599 85.6894825,111.925748 81.2607775,120.827804 C76.83208,129.729853 73.99465,139.113094 72.74848,148.977535 L1.360855,139.959199 Z" id="Fill-18" fill="url(#radialGradient-3)"></path>
                        <path d="M143.52076,73.61275 L130.037718,2.93226625 C139.936833,1.044088 149.924253,0.09999625 159.999978,0.09999625 L159.99847,72.0550075 C154.456825,72.055105 148.96426,72.57436 143.52076,73.612765 L143.52076,73.61275 Z" id="Fill-19" fill="url(#radialGradient-4)"></path>
                    </g>
                </g>
                <g id="Page-1" transform="translate(545.000000, 51.000000)">
                    <g id="Group-9">
                        <path d="M167,75.3425 L167,0.35 C187.0901,0.35 206.5441,3.8679 225.362,10.9036 C244.1799,17.9393 261.17,28.0473 276.3322,41.2277 L227.1327,97.8252 C218.7935,90.576 209.449,85.0166 199.0991,81.147 C188.7493,77.2773 178.0496,75.3425 167,75.3425 Z" id="Fill-4" fill="url(#radialGradient-5)"></path>
                        <path d="M265.0795,32 C283.9796,45.7318 299.3142,62.688 311.0832,82.8688 C322.8523,103.0495 330.0592,124.7457 332.7038,147.9574 C335.3484,171.169 333.2068,193.9303 326.2791,216.2413 C319.3514,238.5523 308.2242,258.5235 292.8975,276.1549 L236.2999,226.9554 C244.7296,217.2582 250.8496,206.274 254.6598,194.0029 C258.4701,181.7319 259.6479,169.2132 258.1934,156.4468 C256.7388,143.6804 252.7751,131.7475 246.3021,120.648 C239.8291,109.5486 231.3951,100.2227 221,92.6702 L265.0795,32 Z" id="Fill-6" fill="url(#radialGradient-6)"></path>
                        <path d="M241.1525,220.8749 L301.8227,264.9544 C292.9837,277.1202 282.6866,287.8923 270.9316,297.2706 C259.1765,306.649 246.3864,314.2961 232.5612,320.2121 C218.7361,326.128 204.3733,330.0999 189.4729,332.1278 C174.5724,334.1557 159.6706,334.1665 144.7673,332.1603 C129.8639,330.1541 115.4954,326.2031 101.6616,320.3072 C87.8278,314.4114 75.0266,306.7828 63.2579,297.4216 C51.4892,288.0604 41.1766,277.3033 32.3199,265.1504 C23.4632,252.9975 16.3813,239.8859 11.074,225.8159 C5.7667,211.7458 2.4251,197.2234 1.0491,182.2487 C-0.3269,167.274 0.3123,152.3859 2.9666,137.5842 C5.621,122.7826 10.195,108.6 16.6887,95.0366 C23.1823,81.4732 31.362,69.0169 41.2276,57.6677 L97.8252,106.8673 C92.3991,113.1093 87.9003,119.9603 84.3288,127.4202 C80.7572,134.8801 78.2415,142.6805 76.7816,150.8214 C75.3217,158.9623 74.9702,167.1508 75.727,175.3869 C76.4837,183.6229 78.3216,191.6102 81.2406,199.3488 C84.1596,207.0874 88.0547,214.2987 92.9259,220.9828 C97.7971,227.6669 103.4691,233.5833 109.9418,238.732 C116.4146,243.8807 123.4553,248.0764 131.0638,251.3191 C138.6724,254.5618 146.5751,256.7348 154.772,257.8383 C162.9688,258.9417 171.1649,258.9357 179.3601,257.8204 C187.5554,256.7051 195.4549,254.5205 203.0587,251.2667 C210.6626,248.0129 217.6971,243.807 224.1624,238.6489 C230.6277,233.4908 236.291,227.5661 241.1525,220.8749 Z" id="Fill-7" fill="url(#radialGradient-7)"></path>
                        <path d="M92.8475,113.1251 L32.1773,69.0456 C39.9067,58.4074 48.771,48.8183 58.7701,40.2783 C68.7693,31.7383 79.627,24.4835 91.3433,18.5137 C103.0596,12.544 115.3108,8.0242 128.0969,4.9546 C140.883,1.8849 153.8507,0.35 167,0.35 L166.9984,75.3425 C152.3286,75.3427 138.4584,78.6729 125.3877,85.3329 C112.3169,91.993 101.4702,101.257 92.8476,113.1251 L92.8475,113.1251 Z" id="Fill-8" fill="url(#radialGradient-8)"></path>
                    </g>
                </g>
                <path d="M157.291739,199 L162.291739,199 C165.611739,199 168.271739,200.04 168.271739,203.6 C168.271739,207.16 165.611739,208.2 162.291739,208.2 L159.571739,208.2 L159.571739,213 L157.291739,213 L157.291739,199 Z M165.951739,203.6 C165.951739,201.56 164.351739,201.08 162.411739,201.08 L159.571739,201.08 L159.571739,206.12 L162.411739,206.12 C164.331739,206.12 165.951739,205.64 165.951739,203.6 Z M177.854348,210.78 C177.854348,211.32 178.174348,211.48 178.554348,211.48 C178.774348,211.48 178.994348,211.42 179.194348,211.36 L179.194348,212.9 C178.794348,213.06 178.314348,213.14 177.834348,213.14 C176.954348,213.14 176.254348,212.8 175.914348,212.02 C174.974348,212.78 173.794348,213.26 172.294348,213.26 C170.554348,213.26 168.934348,212.3 168.934348,210.32 C168.934348,207.86 171.214348,207.1 173.214348,207.1 C174.034348,207.1 174.954348,207.22 175.714348,207.38 L175.714348,207.04 C175.714348,205.84 174.834348,205 173.194348,205 C171.774348,205 170.594348,205.36 169.734348,205.74 L169.734348,203.78 C170.494348,203.52 171.874348,203.14 173.414348,203.14 C176.134348,203.14 177.854348,204.44 177.854348,207.34 L177.854348,210.78 Z M173.634348,208.6 C172.414348,208.6 171.134348,208.98 171.134348,210.18 C171.134348,211.12 171.974348,211.6 172.934348,211.6 C173.954348,211.6 174.954348,211.22 175.714348,210.46 L175.714348,208.84 C175.134348,208.72 174.314348,208.6 173.634348,208.6 Z M179.996956,208.28 C179.996956,204.7 182.736956,203.14 185.296956,203.14 C186.376956,203.14 187.416956,203.38 188.256956,203.88 L188.256956,205.84 C187.556956,205.34 186.576956,205.04 185.596956,205.04 C183.896956,205.04 182.176956,205.94 182.176956,208.2 C182.176956,210.38 183.836956,211.36 185.556956,211.36 C186.576956,211.36 187.596956,211.06 188.356956,210.62 L188.356956,212.6 C187.436956,213.04 186.396956,213.26 185.176956,213.26 C182.616956,213.26 179.996956,211.7 179.996956,208.28 Z M192.419565,213 L190.279565,213 L190.279565,203.4 L199.359565,203.4 L199.359565,213 L197.219565,213 L197.219565,205.28 L192.419565,205.28 L192.419565,213 Z M203.722174,204.9 C204.482174,203.98 205.622174,203.14 207.422174,203.14 C210.302174,203.14 212.182174,205.44 212.182174,208.2 C212.182174,210.96 210.302174,213.26 207.422174,213.26 C205.742174,213.26 204.622174,212.52 203.962174,211.76 L203.962174,217.4 L201.822174,217.4 L201.822174,203.4 L203.722174,203.4 L203.722174,204.9 Z M210.002174,208.2 C210.002174,206.32 208.762174,205.02 207.022174,205.02 C205.542174,205.02 204.422174,205.98 203.962174,207.02 L203.962174,209.36 C204.422174,210.42 205.542174,211.38 207.022174,211.38 C208.762174,211.38 210.002174,210.08 210.002174,208.2 Z M213.444783,208.2 C213.444783,204.72 216.084783,203.14 218.304783,203.14 C222.124783,203.14 223.444783,206.22 222.824783,209 L215.604783,209 C215.844783,210.72 217.524783,211.44 219.284783,211.44 C220.444783,211.44 221.504783,211.16 222.324783,210.76 L222.324783,212.6 C221.444783,213.02 220.224783,213.26 218.884783,213.26 C215.944783,213.26 213.444783,211.58 213.444783,208.2 Z M220.904783,207.4 C221.024783,206.56 220.504783,204.92 218.404783,204.92 C216.964783,204.92 215.664783,205.78 215.584783,207.4 L220.904783,207.4 Z M225.787391,215.58 L223.767391,215.58 L223.767391,211.24 L225.087391,211.24 C226.247391,209.18 226.647391,206.74 226.607391,203.4 L234.107391,203.4 L234.107391,211.24 L235.527391,211.24 L235.527391,215.58 L233.507391,215.58 L233.507391,213 L225.787391,213 L225.787391,215.58 Z M228.607391,205.16 C228.527391,207.74 228.127391,209.54 227.327391,211.24 L231.947391,211.24 L231.947391,205.16 L228.607391,205.16 Z M236.47,208.2 C236.47,204.72 239.11,203.14 241.33,203.14 C245.15,203.14 246.47,206.22 245.85,209 L238.63,209 C238.87,210.72 240.55,211.44 242.31,211.44 C243.47,211.44 244.53,211.16 245.35,210.76 L245.35,212.6 C244.47,213.02 243.25,213.26 241.91,213.26 C238.97,213.26 236.47,211.58 236.47,208.2 Z M243.93,207.4 C244.05,206.56 243.53,204.92 241.43,204.92 C239.99,204.92 238.69,205.78 238.61,207.4 L243.93,207.4 Z M251.592609,205.22 C251.312609,209.86 250.592609,213.18 248.032609,213.18 C247.632609,213.18 247.192609,213.1 246.712609,212.92 L246.712609,211.24 C246.932609,211.32 247.132609,211.36 247.332609,211.36 C248.952609,211.36 249.392609,208.16 249.572609,203.4 L256.972609,203.4 L256.972609,213 L254.832609,213 L254.832609,205.22 L251.592609,205.22 Z M258.835217,208.2 C258.835217,204.72 261.475217,203.14 263.695217,203.14 C267.515217,203.14 268.835217,206.22 268.215217,209 L260.995217,209 C261.235217,210.72 262.915217,211.44 264.675217,211.44 C265.835217,211.44 266.895217,211.16 267.715217,210.76 L267.715217,212.6 C266.835217,213.02 265.615217,213.26 264.275217,213.26 C261.335217,213.26 258.835217,211.58 258.835217,208.2 Z M266.295217,207.4 C266.415217,206.56 265.895217,204.92 263.795217,204.92 C262.355217,204.92 261.055217,205.78 260.975217,207.4 L266.295217,207.4 Z M272.277826,213 L270.137826,213 L270.137826,203.4 L272.277826,203.4 L272.277826,207.26 L277.077826,207.26 L277.077826,203.4 L279.217826,203.4 L279.217826,213 L277.077826,213 L277.077826,209.14 L272.277826,209.14 L272.277826,213 Z M283.520435,213 L281.680435,213 L281.680435,203.4 L283.820435,203.4 L283.820435,209.68 L288.960435,203.4 L290.800435,203.4 L290.800435,213 L288.660435,213 L288.660435,206.72 L283.520435,213 Z M292.663044,208.2 C292.663044,204.72 295.303044,203.14 297.523044,203.14 C301.343044,203.14 302.663044,206.22 302.043044,209 L294.823044,209 C295.063044,210.72 296.743044,211.44 298.503044,211.44 C299.663044,211.44 300.723044,211.16 301.543044,210.76 L301.543044,212.6 C300.663044,213.02 299.443044,213.26 298.103044,213.26 C295.163044,213.26 292.663044,211.58 292.663044,208.2 Z M300.123044,207.4 C300.243044,206.56 299.723044,204.92 297.623044,204.92 C296.183044,204.92 294.883044,205.78 294.803044,207.4 L300.123044,207.4 Z M189.010869,238 L186.335869,238 L186.335869,228.35 L182.185869,228.35 L182.185869,226 L193.135869,226 L193.135869,228.35 L189.010869,228.35 L189.010869,238 Z M193.943478,232 C193.943478,227.85 197.093478,225.675 200.443478,225.675 C203.818478,225.675 206.943478,227.85 206.943478,232 C206.943478,236.15 203.818478,238.325 200.443478,238.325 C197.093478,238.325 193.943478,236.15 193.943478,232 Z M204.218478,232 C204.218478,229.65 202.668478,228.125 200.443478,228.125 C198.193478,228.125 196.643478,229.65 196.643478,232 C196.643478,234.35 198.193478,235.875 200.443478,235.875 C202.668478,235.875 204.218478,234.35 204.218478,232 Z M212.001087,238 L209.326087,238 L209.326087,226 L212.001087,226 L212.001087,230.75 L213.976087,230.75 L217.426087,226 L220.476087,226 L216.126087,231.95 L220.951087,238 L217.876087,238 L213.926087,233.025 L212.001087,233.025 L212.001087,238 Z M221.133696,232 C221.133696,227.65 224.433696,225.675 227.208696,225.675 C231.983696,225.675 233.633696,229.525 232.858696,233 L223.833696,233 C224.133696,235.15 226.233696,236.05 228.433696,236.05 C229.883696,236.05 231.208696,235.7 232.233696,235.2 L232.233696,237.5 C231.133696,238.025 229.608696,238.325 227.933696,238.325 C224.258696,238.325 221.133696,236.225 221.133696,232 Z M230.458696,231 C230.608696,229.95 229.958696,227.9 227.333696,227.9 C225.533696,227.9 223.908696,228.975 223.808696,231 L230.458696,231 Z M237.991304,238 L235.316304,238 L235.316304,226 L237.991304,226 L237.991304,230.825 L243.991304,230.825 L243.991304,226 L246.666304,226 L246.666304,238 L243.991304,238 L243.991304,233.175 L237.991304,233.175 L237.991304,238 Z M249.048913,232 C249.048913,227.85 252.198913,225.675 255.548913,225.675 C258.923913,225.675 262.048913,227.85 262.048913,232 C262.048913,236.15 258.923913,238.325 255.548913,238.325 C252.198913,238.325 249.048913,236.15 249.048913,232 Z M259.323913,232 C259.323913,229.65 257.773913,228.125 255.548913,228.125 C253.298913,228.125 251.748913,229.65 251.748913,232 C251.748913,234.35 253.298913,235.875 255.548913,235.875 C257.773913,235.875 259.323913,234.35 259.323913,232 Z M271.481522,238 L264.431522,238 L264.431522,226 L271.281522,226 C273.706522,226 275.081522,227.325 275.081522,229.2 C275.081522,230.525 274.406522,231.475 273.381522,231.925 C274.506522,232.275 275.431522,233.225 275.431522,234.7 C275.431522,236.55 274.256522,238 271.481522,238 Z M267.106522,232.9 L267.106522,235.975 L270.831522,235.975 C271.931522,235.975 272.731522,235.6 272.731522,234.45 C272.731522,233.225 271.806522,232.9 270.881522,232.9 L267.106522,232.9 Z M267.106522,228.025 L267.106522,231 L270.681522,231 C271.631522,231 272.381522,230.625 272.381522,229.55 C272.381522,228.375 271.506522,228.025 270.681522,228.025 L267.106522,228.025 Z" id="Распределение-токено" fill="#000000"></path>
                <path d="M640.291739,199 L645.291739,199 C648.611739,199 651.271739,200.04 651.271739,203.6 C651.271739,207.16 648.611739,208.2 645.291739,208.2 L642.571739,208.2 L642.571739,213 L640.291739,213 L640.291739,199 Z M648.951739,203.6 C648.951739,201.56 647.351739,201.08 645.411739,201.08 L642.571739,201.08 L642.571739,206.12 L645.411739,206.12 C647.331739,206.12 648.951739,205.64 648.951739,203.6 Z M660.854348,210.78 C660.854348,211.32 661.174348,211.48 661.554348,211.48 C661.774348,211.48 661.994348,211.42 662.194348,211.36 L662.194348,212.9 C661.794348,213.06 661.314348,213.14 660.834348,213.14 C659.954348,213.14 659.254348,212.8 658.914348,212.02 C657.974348,212.78 656.794348,213.26 655.294348,213.26 C653.554348,213.26 651.934348,212.3 651.934348,210.32 C651.934348,207.86 654.214348,207.1 656.214348,207.1 C657.034348,207.1 657.954348,207.22 658.714348,207.38 L658.714348,207.04 C658.714348,205.84 657.834348,205 656.194348,205 C654.774348,205 653.594348,205.36 652.734348,205.74 L652.734348,203.78 C653.494348,203.52 654.874348,203.14 656.414348,203.14 C659.134348,203.14 660.854348,204.44 660.854348,207.34 L660.854348,210.78 Z M656.634348,208.6 C655.414348,208.6 654.134348,208.98 654.134348,210.18 C654.134348,211.12 654.974348,211.6 655.934348,211.6 C656.954348,211.6 657.954348,211.22 658.714348,210.46 L658.714348,208.84 C658.134348,208.72 657.314348,208.6 656.634348,208.6 Z M662.996956,208.28 C662.996956,204.7 665.736956,203.14 668.296956,203.14 C669.376956,203.14 670.416956,203.38 671.256956,203.88 L671.256956,205.84 C670.556956,205.34 669.576956,205.04 668.596956,205.04 C666.896956,205.04 665.176956,205.94 665.176956,208.2 C665.176956,210.38 666.836956,211.36 668.556956,211.36 C669.576956,211.36 670.596956,211.06 671.356956,210.62 L671.356956,212.6 C670.436956,213.04 669.396956,213.26 668.176956,213.26 C665.616956,213.26 662.996956,211.7 662.996956,208.28 Z M675.419565,213 L673.279565,213 L673.279565,203.4 L682.359565,203.4 L682.359565,213 L680.219565,213 L680.219565,205.28 L675.419565,205.28 L675.419565,213 Z M686.722174,204.9 C687.482174,203.98 688.622174,203.14 690.422174,203.14 C693.302174,203.14 695.182174,205.44 695.182174,208.2 C695.182174,210.96 693.302174,213.26 690.422174,213.26 C688.742174,213.26 687.622174,212.52 686.962174,211.76 L686.962174,217.4 L684.822174,217.4 L684.822174,203.4 L686.722174,203.4 L686.722174,204.9 Z M693.002174,208.2 C693.002174,206.32 691.762174,205.02 690.022174,205.02 C688.542174,205.02 687.422174,205.98 686.962174,207.02 L686.962174,209.36 C687.422174,210.42 688.542174,211.38 690.022174,211.38 C691.762174,211.38 693.002174,210.08 693.002174,208.2 Z M696.444783,208.2 C696.444783,204.72 699.084783,203.14 701.304783,203.14 C705.124783,203.14 706.444783,206.22 705.824783,209 L698.604783,209 C698.844783,210.72 700.524783,211.44 702.284783,211.44 C703.444783,211.44 704.504783,211.16 705.324783,210.76 L705.324783,212.6 C704.444783,213.02 703.224783,213.26 701.884783,213.26 C698.944783,213.26 696.444783,211.58 696.444783,208.2 Z M703.904783,207.4 C704.024783,206.56 703.504783,204.92 701.404783,204.92 C699.964783,204.92 698.664783,205.78 698.584783,207.4 L703.904783,207.4 Z M708.787391,215.58 L706.767391,215.58 L706.767391,211.24 L708.087391,211.24 C709.247391,209.18 709.647391,206.74 709.607391,203.4 L717.107391,203.4 L717.107391,211.24 L718.527391,211.24 L718.527391,215.58 L716.507391,215.58 L716.507391,213 L708.787391,213 L708.787391,215.58 Z M711.607391,205.16 C711.527391,207.74 711.127391,209.54 710.327391,211.24 L714.947391,211.24 L714.947391,205.16 L711.607391,205.16 Z M719.47,208.2 C719.47,204.72 722.11,203.14 724.33,203.14 C728.15,203.14 729.47,206.22 728.85,209 L721.63,209 C721.87,210.72 723.55,211.44 725.31,211.44 C726.47,211.44 727.53,211.16 728.35,210.76 L728.35,212.6 C727.47,213.02 726.25,213.26 724.91,213.26 C721.97,213.26 719.47,211.58 719.47,208.2 Z M726.93,207.4 C727.05,206.56 726.53,204.92 724.43,204.92 C722.99,204.92 721.69,205.78 721.61,207.4 L726.93,207.4 Z M734.592609,205.22 C734.312609,209.86 733.592609,213.18 731.032609,213.18 C730.632609,213.18 730.192609,213.1 729.712609,212.92 L729.712609,211.24 C729.932609,211.32 730.132609,211.36 730.332609,211.36 C731.952609,211.36 732.392609,208.16 732.572609,203.4 L739.972609,203.4 L739.972609,213 L737.832609,213 L737.832609,205.22 L734.592609,205.22 Z M741.835217,208.2 C741.835217,204.72 744.475217,203.14 746.695217,203.14 C750.515217,203.14 751.835217,206.22 751.215217,209 L743.995217,209 C744.235217,210.72 745.915217,211.44 747.675217,211.44 C748.835217,211.44 749.895217,211.16 750.715217,210.76 L750.715217,212.6 C749.835217,213.02 748.615217,213.26 747.275217,213.26 C744.335217,213.26 741.835217,211.58 741.835217,208.2 Z M749.295217,207.4 C749.415217,206.56 748.895217,204.92 746.795217,204.92 C745.355217,204.92 744.055217,205.78 743.975217,207.4 L749.295217,207.4 Z M755.277826,213 L753.137826,213 L753.137826,203.4 L755.277826,203.4 L755.277826,207.26 L760.077826,207.26 L760.077826,203.4 L762.217826,203.4 L762.217826,213 L760.077826,213 L760.077826,209.14 L755.277826,209.14 L755.277826,213 Z M766.520435,213 L764.680435,213 L764.680435,203.4 L766.820435,203.4 L766.820435,209.68 L771.960435,203.4 L773.800435,203.4 L773.800435,213 L771.660435,213 L771.660435,206.72 L766.520435,213 Z M775.663044,208.2 C775.663044,204.72 778.303044,203.14 780.523044,203.14 C784.343044,203.14 785.663044,206.22 785.043044,209 L777.823044,209 C778.063044,210.72 779.743044,211.44 781.503044,211.44 C782.663044,211.44 783.723044,211.16 784.543044,210.76 L784.543044,212.6 C783.663044,213.02 782.443044,213.26 781.103044,213.26 C778.163044,213.26 775.663044,211.58 775.663044,208.2 Z M783.123044,207.4 C783.243044,206.56 782.723044,204.92 780.623044,204.92 C779.183044,204.92 777.883044,205.78 777.803044,207.4 L783.123044,207.4 Z M666.123369,232.1 C666.123369,227.625 669.548369,225.675 672.748369,225.675 C674.098369,225.675 675.398369,225.975 676.448369,226.6 L676.448369,229.05 C675.573369,228.425 674.348369,228.05 673.123369,228.05 C670.998369,228.05 668.848369,229.175 668.848369,232 C668.848369,234.725 670.923369,235.95 673.073369,235.95 C674.348369,235.95 675.623369,235.575 676.573369,235.025 L676.573369,237.5 C675.423369,238.05 674.123369,238.325 672.598369,238.325 C669.398369,238.325 666.123369,236.375 666.123369,232.1 Z M681.405978,227.875 C682.355978,226.725 683.780978,225.675 686.030978,225.675 C689.630978,225.675 691.980978,228.55 691.980978,232 C691.980978,235.45 689.630978,238.325 686.030978,238.325 C683.930978,238.325 682.530978,237.4 681.705978,236.45 L681.705978,243.5 L679.030978,243.5 L679.030978,226 L681.405978,226 L681.405978,227.875 Z M689.255978,232 C689.255978,229.65 687.705978,228.025 685.530978,228.025 C683.680978,228.025 682.280978,229.225 681.705978,230.525 L681.705978,233.45 C682.280978,234.775 683.680978,235.975 685.530978,235.975 C687.705978,235.975 689.255978,234.35 689.255978,232 Z M693.613587,232 C693.613587,227.65 696.913587,225.675 699.688587,225.675 C704.463587,225.675 706.113587,229.525 705.338587,233 L696.313587,233 C696.613587,235.15 698.713587,236.05 700.913587,236.05 C702.363587,236.05 703.688587,235.7 704.713587,235.2 L704.713587,237.5 C703.613587,238.025 702.088587,238.325 700.413587,238.325 C696.738587,238.325 693.613587,236.225 693.613587,232 Z M702.938587,231 C703.088587,229.95 702.438587,227.9 699.813587,227.9 C698.013587,227.9 696.388587,228.975 696.288587,231 L702.938587,231 Z M709.096196,241.225 L706.571196,241.225 L706.571196,235.8 L708.221196,235.8 C709.671196,233.225 710.171196,230.175 710.121196,226 L719.496196,226 L719.496196,235.8 L721.271196,235.8 L721.271196,241.225 L718.746196,241.225 L718.746196,238 L709.096196,238 L709.096196,241.225 Z M712.621196,228.2 C712.521196,231.425 712.021196,233.675 711.021196,235.8 L716.796196,235.8 L716.796196,228.2 L712.621196,228.2 Z M722.503804,232.1 C722.503804,227.625 725.928804,225.675 729.128804,225.675 C730.478804,225.675 731.778804,225.975 732.828804,226.6 L732.828804,229.05 C731.953804,228.425 730.728804,228.05 729.503804,228.05 C727.378804,228.05 725.228804,229.175 725.228804,232 C725.228804,234.725 727.303804,235.95 729.453804,235.95 C730.728804,235.95 732.003804,235.575 732.953804,235.025 L732.953804,237.5 C731.803804,238.05 730.503804,238.325 728.978804,238.325 C725.778804,238.325 722.503804,236.375 722.503804,232.1 Z M740.986413,238 L738.311413,238 L738.311413,228.35 L734.161413,228.35 L734.161413,226 L745.111413,226 L745.111413,228.35 L740.986413,228.35 L740.986413,238 Z M754.044022,238 L746.994022,238 L746.994022,226 L753.844022,226 C756.269022,226 757.644022,227.325 757.644022,229.2 C757.644022,230.525 756.969022,231.475 755.944022,231.925 C757.069022,232.275 757.994022,233.225 757.994022,234.7 C757.994022,236.55 756.819022,238 754.044022,238 Z M749.669022,232.9 L749.669022,235.975 L753.394022,235.975 C754.494022,235.975 755.294022,235.6 755.294022,234.45 C755.294022,233.225 754.369022,232.9 753.444022,232.9 L749.669022,232.9 Z M749.669022,228.025 L749.669022,231 L753.244022,231 C754.194022,231 754.944022,230.625 754.944022,229.55 C754.944022,228.375 754.069022,228.025 753.244022,228.025 L749.669022,228.025 Z" id="Распределение-средст" fill="#000000"></path>
                <path d="M294.15087,40 L291.87087,40 L291.87087,26 L294.15087,26 L294.15087,31.84 L296.91087,31.84 L300.81087,26 L303.39087,26 L298.75087,32.82 L303.75087,40 L301.17087,40 L296.95087,33.94 L294.15087,33.94 L294.15087,40 Z M303.553478,35.2 C303.553478,31.88 306.073478,30.14 308.753478,30.14 C311.453478,30.14 313.953478,31.88 313.953478,35.2 C313.953478,38.52 311.453478,40.26 308.753478,40.26 C306.073478,40.26 303.553478,38.52 303.553478,35.2 Z M311.773478,35.2 C311.773478,33.32 310.533478,32.1 308.753478,32.1 C306.953478,32.1 305.713478,33.32 305.713478,35.2 C305.713478,37.08 306.953478,38.3 308.753478,38.3 C310.533478,38.3 311.773478,37.08 311.773478,35.2 Z M317.876087,40 L315.816087,40 L315.816087,30.4 L317.976087,30.4 L321.236087,35.46 L324.516087,30.4 L326.676087,30.4 L326.676087,40 L324.616087,40 L324.616087,33.5 L321.876087,37.7 L320.596087,37.7 L317.876087,33.5 L317.876087,40 Z M337.318696,37.78 C337.318696,38.32 337.638696,38.48 338.018696,38.48 C338.238696,38.48 338.458696,38.42 338.658696,38.36 L338.658696,39.9 C338.258696,40.06 337.778696,40.14 337.298696,40.14 C336.418696,40.14 335.718696,39.8 335.378696,39.02 C334.438696,39.78 333.258696,40.26 331.758696,40.26 C330.018696,40.26 328.398696,39.3 328.398696,37.32 C328.398696,34.86 330.678696,34.1 332.678696,34.1 C333.498696,34.1 334.418696,34.22 335.178696,34.38 L335.178696,34.04 C335.178696,32.84 334.298696,32 332.658696,32 C331.238696,32 330.058696,32.36 329.198696,32.74 L329.198696,30.78 C329.958696,30.52 331.338696,30.14 332.878696,30.14 C335.598696,30.14 337.318696,31.44 337.318696,34.34 L337.318696,37.78 Z M333.098696,35.6 C331.878696,35.6 330.598696,35.98 330.598696,37.18 C330.598696,38.12 331.438696,38.6 332.398696,38.6 C333.418696,38.6 334.418696,38.22 335.178696,37.46 L335.178696,35.84 C334.598696,35.72 333.778696,35.6 333.098696,35.6 Z M342.201304,40 L340.061304,40 L340.061304,30.4 L342.201304,30.4 L342.201304,34.26 L347.001304,34.26 L347.001304,30.4 L349.141304,30.4 L349.141304,40 L347.001304,40 L347.001304,36.14 L342.201304,36.14 L342.201304,40 Z M352.763913,42.58 L350.743913,42.58 L350.743913,38.24 L352.063913,38.24 C353.223913,36.18 353.623913,33.74 353.583913,30.4 L361.083913,30.4 L361.083913,38.24 L362.503913,38.24 L362.503913,42.58 L360.483913,42.58 L360.483913,40 L352.763913,40 L352.763913,42.58 Z M355.583913,32.16 C355.503913,34.74 355.103913,36.54 354.303913,38.24 L358.923913,38.24 L358.923913,32.16 L355.583913,32.16 Z M372.426522,37.78 C372.426522,38.32 372.746522,38.48 373.126522,38.48 C373.346522,38.48 373.566522,38.42 373.766522,38.36 L373.766522,39.9 C373.366522,40.06 372.886522,40.14 372.406522,40.14 C371.526522,40.14 370.826522,39.8 370.486522,39.02 C369.546522,39.78 368.366522,40.26 366.866522,40.26 C365.126522,40.26 363.506522,39.3 363.506522,37.32 C363.506522,34.86 365.786522,34.1 367.786522,34.1 C368.606522,34.1 369.526522,34.22 370.286522,34.38 L370.286522,34.04 C370.286522,32.84 369.406522,32 367.766522,32 C366.346522,32 365.166522,32.36 364.306522,32.74 L364.306522,30.78 C365.066522,30.52 366.446522,30.14 367.986522,30.14 C370.706522,30.14 372.426522,31.44 372.426522,34.34 L372.426522,37.78 Z M368.206522,35.6 C366.986522,35.6 365.706522,35.98 365.706522,37.18 C365.706522,38.12 366.546522,38.6 367.506522,38.6 C368.526522,38.6 369.526522,38.22 370.286522,37.46 L370.286522,35.84 C369.706522,35.72 368.886522,35.6 368.206522,35.6 Z M319.126087,51.4 L320.366087,51.4 L320.366087,63.4 L322.906087,63.4 L322.906087,65 L315.826087,65 L315.826087,63.4 L318.686087,63.4 L318.686087,53.18 L315.826087,54.26 L315.826087,52.66 L319.126087,51.4 Z M327.508696,51.4 L328.748696,51.4 L328.748696,63.4 L331.288696,63.4 L331.288696,65 L324.208696,65 L324.208696,63.4 L327.068696,63.4 L327.068696,53.18 L324.208696,54.26 L324.208696,52.66 L327.508696,51.4 Z M337.211304,66.2 L335.611304,66.2 L343.791304,49.8 L345.391304,49.8 L337.211304,66.2 Z M338.751304,53.9 C338.751304,55.92 337.211304,57.04 335.491304,57.04 C333.751304,57.04 332.191304,55.92 332.191304,53.9 C332.191304,51.88 333.751304,50.76 335.491304,50.76 C337.211304,50.76 338.751304,51.88 338.751304,53.9 Z M333.711304,53.9 C333.711304,54.84 334.311304,55.64 335.491304,55.64 C336.631304,55.64 337.231304,54.84 337.231304,53.9 C337.231304,52.96 336.631304,52.16 335.491304,52.16 C334.311304,52.16 333.711304,52.96 333.711304,53.9 Z M348.791304,62.1 C348.791304,64.12 347.251304,65.24 345.531304,65.24 C343.791304,65.24 342.231304,64.12 342.231304,62.1 C342.231304,60.08 343.791304,58.96 345.531304,58.96 C347.251304,58.96 348.791304,60.08 348.791304,62.1 Z M343.751304,62.1 C343.751304,63.04 344.351304,63.84 345.531304,63.84 C346.671304,63.84 347.271304,63.04 347.271304,62.1 C347.271304,61.16 346.671304,60.36 345.531304,60.36 C344.351304,60.36 343.751304,61.16 343.751304,62.1 Z" id="Команда-11%" fill="#000000"></path>
                <path d="M780.679565,18 L778.399565,18 L778.399565,4 L790.159565,4 L790.159565,18 L787.879565,18 L787.879565,6.1 L780.679565,6.1 L780.679565,18 Z M794.882174,9.9 C795.642174,8.98 796.782174,8.14 798.582174,8.14 C801.462174,8.14 803.342174,10.44 803.342174,13.2 C803.342174,15.96 801.462174,18.26 798.582174,18.26 C796.902174,18.26 795.782174,17.52 795.122174,16.76 L795.122174,22.4 L792.982174,22.4 L792.982174,8.4 L794.882174,8.4 L794.882174,9.9 Z M801.162174,13.2 C801.162174,11.32 799.922174,10.02 798.182174,10.02 C796.702174,10.02 795.582174,10.98 795.122174,12.02 L795.122174,14.36 C795.582174,15.42 796.702174,16.38 798.182174,16.38 C799.922174,16.38 801.162174,15.08 801.162174,13.2 Z M813.384783,15.78 C813.384783,16.32 813.704783,16.48 814.084783,16.48 C814.304783,16.48 814.524783,16.42 814.724783,16.36 L814.724783,17.9 C814.324783,18.06 813.844783,18.14 813.364783,18.14 C812.484783,18.14 811.784783,17.8 811.444783,17.02 C810.504783,17.78 809.324783,18.26 807.824783,18.26 C806.084783,18.26 804.464783,17.3 804.464783,15.32 C804.464783,12.86 806.744783,12.1 808.744783,12.1 C809.564783,12.1 810.484783,12.22 811.244783,12.38 L811.244783,12.04 C811.244783,10.84 810.364783,10 808.724783,10 C807.304783,10 806.124783,10.36 805.264783,10.74 L805.264783,8.78 C806.024783,8.52 807.404783,8.14 808.944783,8.14 C811.664783,8.14 813.384783,9.44 813.384783,12.34 L813.384783,15.78 Z M809.164783,13.6 C807.944783,13.6 806.664783,13.98 806.664783,15.18 C806.664783,16.12 807.504783,16.6 808.464783,16.6 C809.484783,16.6 810.484783,16.22 811.244783,15.46 L811.244783,13.84 C810.664783,13.72 809.844783,13.6 809.164783,13.6 Z M821.767391,18 L816.127391,18 L816.127391,8.4 L821.607391,8.4 C823.547391,8.4 824.647391,9.46 824.647391,10.96 C824.647391,12.02 824.107391,12.78 823.287391,13.14 C824.187391,13.42 824.927391,14.18 824.927391,15.36 C824.927391,16.84 823.987391,18 821.767391,18 Z M818.267391,13.92 L818.267391,16.38 L821.247391,16.38 C822.127391,16.38 822.767391,16.08 822.767391,15.16 C822.767391,14.18 822.027391,13.92 821.287391,13.92 L818.267391,13.92 Z M818.267391,10.02 L818.267391,12.4 L821.127391,12.4 C821.887391,12.4 822.487391,12.1 822.487391,11.24 C822.487391,10.3 821.787391,10.02 821.127391,10.02 L818.267391,10.02 Z M826.27,13.2 C826.27,9.88 828.79,8.14 831.47,8.14 C834.17,8.14 836.67,9.88 836.67,13.2 C836.67,16.52 834.17,18.26 831.47,18.26 C828.79,18.26 826.27,16.52 826.27,13.2 Z M834.49,13.2 C834.49,11.32 833.25,10.1 831.47,10.1 C829.67,10.1 828.43,11.32 828.43,13.2 C828.43,15.08 829.67,16.3 831.47,16.3 C833.25,16.3 834.49,15.08 834.49,13.2 Z M844.172609,18 L838.532609,18 L838.532609,8.4 L844.012609,8.4 C845.952609,8.4 847.052609,9.46 847.052609,10.96 C847.052609,12.02 846.512609,12.78 845.692609,13.14 C846.592609,13.42 847.332609,14.18 847.332609,15.36 C847.332609,16.84 846.392609,18 844.172609,18 Z M840.672609,13.92 L840.672609,16.38 L843.652609,16.38 C844.532609,16.38 845.172609,16.08 845.172609,15.16 C845.172609,14.18 844.432609,13.92 843.692609,13.92 L840.672609,13.92 Z M840.672609,10.02 L840.672609,12.4 L843.532609,12.4 C844.292609,12.4 844.892609,12.1 844.892609,11.24 C844.892609,10.3 844.192609,10.02 843.532609,10.02 L840.672609,10.02 Z M848.675217,13.2 C848.675217,9.88 851.195217,8.14 853.875217,8.14 C856.575217,8.14 859.075217,9.88 859.075217,13.2 C859.075217,16.52 856.575217,18.26 853.875217,18.26 C851.195217,18.26 848.675217,16.52 848.675217,13.2 Z M856.895217,13.2 C856.895217,11.32 855.655217,10.1 853.875217,10.1 C852.075217,10.1 850.835217,11.32 850.835217,13.2 C850.835217,15.08 852.075217,16.3 853.875217,16.3 C855.655217,16.3 856.895217,15.08 856.895217,13.2 Z M860.337826,13.2 C860.337826,9.72 862.977826,8.14 865.197826,8.14 C869.017826,8.14 870.337826,11.22 869.717826,14 L862.497826,14 C862.737826,15.72 864.417826,16.44 866.177826,16.44 C867.337826,16.44 868.397826,16.16 869.217826,15.76 L869.217826,17.6 C868.337826,18.02 867.117826,18.26 865.777826,18.26 C862.837826,18.26 860.337826,16.58 860.337826,13.2 Z M867.797826,12.4 C867.917826,11.56 867.397826,9.92 865.297826,9.92 C863.857826,9.92 862.557826,10.78 862.477826,12.4 L867.797826,12.4 Z M754.693043,32.9 C755.453043,31.98 756.593043,31.14 758.393043,31.14 C761.273043,31.14 763.153043,33.44 763.153043,36.2 C763.153043,38.96 761.273043,41.26 758.393043,41.26 C756.713043,41.26 755.593043,40.52 754.933043,39.76 L754.933043,45.4 L752.793043,45.4 L752.793043,31.4 L754.693043,31.4 L754.693043,32.9 Z M760.973043,36.2 C760.973043,34.32 759.733043,33.02 757.993043,33.02 C756.513043,33.02 755.393043,33.98 754.933043,35.02 L754.933043,37.36 C755.393043,38.42 756.513043,39.38 757.993043,39.38 C759.733043,39.38 760.973043,38.08 760.973043,36.2 Z M764.415652,36.2 C764.415652,32.72 767.055652,31.14 769.275652,31.14 C773.095652,31.14 774.415652,34.22 773.795652,37 L766.575652,37 C766.815652,38.72 768.495652,39.44 770.255652,39.44 C771.415652,39.44 772.475652,39.16 773.295652,38.76 L773.295652,40.6 C772.415652,41.02 771.195652,41.26 769.855652,41.26 C766.915652,41.26 764.415652,39.58 764.415652,36.2 Z M771.875652,35.4 C771.995652,34.56 771.475652,32.92 769.375652,32.92 C767.935652,32.92 766.635652,33.78 766.555652,35.4 L771.875652,35.4 Z M777.858261,41 L775.718261,41 L775.718261,31.4 L782.878261,31.4 L782.878261,33.28 L777.858261,33.28 L777.858261,41 Z M788.64087,38.64 L791.50087,31.4 L793.74087,31.4 L789.24087,42.3 C788.20087,44.8 786.84087,45.64 785.38087,45.64 C784.96087,45.64 784.54087,45.58 784.12087,45.48 L784.12087,43.66 C784.44087,43.76 784.78087,43.8 785.10087,43.8 C786.14087,43.8 786.92087,43.06 787.48087,41.56 L787.68087,41.08 L783.12087,31.4 L785.40087,31.4 L788.64087,38.64 Z M798.083478,33.22 C797.803478,37.86 797.083478,41.18 794.523478,41.18 C794.123478,41.18 793.683478,41.1 793.203478,40.92 L793.203478,39.24 C793.423478,39.32 793.623478,39.36 793.823478,39.36 C795.443478,39.36 795.883478,36.16 796.063478,31.4 L803.463478,31.4 L803.463478,41 L801.323478,41 L801.323478,33.22 L798.083478,33.22 Z M807.766087,41 L805.926087,41 L805.926087,31.4 L808.066087,31.4 L808.066087,37.68 L813.206087,31.4 L815.046087,31.4 L815.046087,41 L812.906087,41 L812.906087,34.72 L807.766087,41 Z M819.408696,32.9 C820.168696,31.98 821.308696,31.14 823.108696,31.14 C825.988696,31.14 827.868696,33.44 827.868696,36.2 C827.868696,38.96 825.988696,41.26 823.108696,41.26 C821.428696,41.26 820.308696,40.52 819.648696,39.76 L819.648696,45.4 L817.508696,45.4 L817.508696,31.4 L819.408696,31.4 L819.408696,32.9 Z M825.688696,36.2 C825.688696,34.32 824.448696,33.02 822.708696,33.02 C821.228696,33.02 820.108696,33.98 819.648696,35.02 L819.648696,37.36 C820.108696,38.42 821.228696,39.38 822.708696,39.38 C824.448696,39.38 825.688696,38.08 825.688696,36.2 Z M829.131304,36.2 C829.131304,32.88 831.651304,31.14 834.331304,31.14 C837.031304,31.14 839.531304,32.88 839.531304,36.2 C839.531304,39.52 837.031304,41.26 834.331304,41.26 C831.651304,41.26 829.131304,39.52 829.131304,36.2 Z M837.351304,36.2 C837.351304,34.32 836.111304,33.1 834.331304,33.1 C832.531304,33.1 831.291304,34.32 831.291304,36.2 C831.291304,38.08 832.531304,39.3 834.331304,39.3 C836.111304,39.3 837.351304,38.08 837.351304,36.2 Z M847.033913,41 L841.393913,41 L841.393913,31.4 L846.873913,31.4 C848.813913,31.4 849.913913,32.46 849.913913,33.96 C849.913913,35.02 849.373913,35.78 848.553913,36.14 C849.453913,36.42 850.193913,37.18 850.193913,38.36 C850.193913,39.84 849.253913,41 847.033913,41 Z M843.533913,36.92 L843.533913,39.38 L846.513913,39.38 C847.393913,39.38 848.033913,39.08 848.033913,38.16 C848.033913,37.18 847.293913,36.92 846.553913,36.92 L843.533913,36.92 Z M843.533913,33.02 L843.533913,35.4 L846.393913,35.4 C847.153913,35.4 847.753913,35.1 847.753913,34.24 C847.753913,33.3 847.053913,33.02 846.393913,33.02 L843.533913,33.02 Z M860.316522,38.78 C860.316522,39.32 860.636522,39.48 861.016522,39.48 C861.236522,39.48 861.456522,39.42 861.656522,39.36 L861.656522,40.9 C861.256522,41.06 860.776522,41.14 860.296522,41.14 C859.416522,41.14 858.716522,40.8 858.376522,40.02 C857.436522,40.78 856.256522,41.26 854.756522,41.26 C853.016522,41.26 851.396522,40.3 851.396522,38.32 C851.396522,35.86 853.676522,35.1 855.676522,35.1 C856.496522,35.1 857.416522,35.22 858.176522,35.38 L858.176522,35.04 C858.176522,33.84 857.296522,33 855.656522,33 C854.236522,33 853.056522,33.36 852.196522,33.74 L852.196522,31.78 C852.956522,31.52 854.336522,31.14 855.876522,31.14 C858.596522,31.14 860.316522,32.44 860.316522,35.34 L860.316522,38.78 Z M856.096522,36.6 C854.876522,36.6 853.596522,36.98 853.596522,38.18 C853.596522,39.12 854.436522,39.6 855.396522,39.6 C856.416522,39.6 857.416522,39.22 858.176522,38.46 L858.176522,36.84 C857.596522,36.72 856.776522,36.6 856.096522,36.6 Z M865.19913,41 L863.05913,41 L863.05913,31.4 L865.19913,31.4 L865.19913,35.26 L869.99913,35.26 L869.99913,31.4 L872.13913,31.4 L872.13913,41 L869.99913,41 L869.99913,37.14 L865.19913,37.14 L865.19913,41 Z M876.441739,41 L874.601739,41 L874.601739,31.4 L876.741739,31.4 L876.741739,37.68 L881.881739,31.4 L883.721739,31.4 L883.721739,41 L881.581739,41 L881.581739,34.72 L876.441739,41 Z M885.584348,36.2 C885.584348,32.72 888.224348,31.14 890.444348,31.14 C894.264348,31.14 895.584348,34.22 894.964348,37 L887.744348,37 C887.984348,38.72 889.664348,39.44 891.424348,39.44 C892.584348,39.44 893.644348,39.16 894.464348,38.76 L894.464348,40.6 C893.584348,41.02 892.364348,41.26 891.024348,41.26 C888.084348,41.26 885.584348,39.58 885.584348,36.2 Z M893.044348,35.4 C893.164348,34.56 892.644348,32.92 890.544348,32.92 C889.104348,32.92 887.804348,33.78 887.724348,35.4 L893.044348,35.4 Z M807.896087,52.4 L809.136087,52.4 L809.136087,64.4 L811.676087,64.4 L811.676087,66 L804.596087,66 L804.596087,64.4 L807.456087,64.4 L807.456087,54.18 L804.596087,55.26 L804.596087,53.66 L807.896087,52.4 Z M812.938696,59.2 C812.938696,55.18 814.818696,52.16 818.938696,52.16 C823.078696,52.16 824.958696,55.18 824.958696,59.2 C824.958696,63.22 823.078696,66.24 818.938696,66.24 C814.818696,66.24 812.938696,63.22 812.938696,59.2 Z M823.258696,59.2 C823.258696,55.8 821.918696,53.76 818.938696,53.76 C815.978696,53.76 814.638696,55.8 814.638696,59.2 C814.638696,62.6 815.978696,64.64 818.938696,64.64 C821.918696,64.64 823.258696,62.6 823.258696,59.2 Z M831.441304,67.2 L829.841304,67.2 L838.021304,50.8 L839.621304,50.8 L831.441304,67.2 Z M832.981304,54.9 C832.981304,56.92 831.441304,58.04 829.721304,58.04 C827.981304,58.04 826.421304,56.92 826.421304,54.9 C826.421304,52.88 827.981304,51.76 829.721304,51.76 C831.441304,51.76 832.981304,52.88 832.981304,54.9 Z M827.941304,54.9 C827.941304,55.84 828.541304,56.64 829.721304,56.64 C830.861304,56.64 831.461304,55.84 831.461304,54.9 C831.461304,53.96 830.861304,53.16 829.721304,53.16 C828.541304,53.16 827.941304,53.96 827.941304,54.9 Z M843.021304,63.1 C843.021304,65.12 841.481304,66.24 839.761304,66.24 C838.021304,66.24 836.461304,65.12 836.461304,63.1 C836.461304,61.08 838.021304,59.96 839.761304,59.96 C841.481304,59.96 843.021304,61.08 843.021304,63.1 Z M837.981304,63.1 C837.981304,64.04 838.581304,64.84 839.761304,64.84 C840.901304,64.84 841.501304,64.04 841.501304,63.1 C841.501304,62.16 840.901304,61.36 839.761304,61.36 C838.581304,61.36 837.981304,62.16 837.981304,63.1 Z" id="Правовое-регулирован" fill="#000000"></path>
                <path d="M897.688261,164 L899.748261,164 L899.748261,178 L897.468261,178 L897.468261,168.2 L893.048261,174.84 L891.688261,174.84 L887.268261,168.18 L887.268261,178 L884.988261,178 L884.988261,164 L887.048261,164 L892.368261,172.02 L897.688261,164 Z M910.59087,175.78 C910.59087,176.32 910.91087,176.48 911.29087,176.48 C911.51087,176.48 911.73087,176.42 911.93087,176.36 L911.93087,177.9 C911.53087,178.06 911.05087,178.14 910.57087,178.14 C909.69087,178.14 908.99087,177.8 908.65087,177.02 C907.71087,177.78 906.53087,178.26 905.03087,178.26 C903.29087,178.26 901.67087,177.3 901.67087,175.32 C901.67087,172.86 903.95087,172.1 905.95087,172.1 C906.77087,172.1 907.69087,172.22 908.45087,172.38 L908.45087,172.04 C908.45087,170.84 907.57087,170 905.93087,170 C904.51087,170 903.33087,170.36 902.47087,170.74 L902.47087,168.78 C903.23087,168.52 904.61087,168.14 906.15087,168.14 C908.87087,168.14 910.59087,169.44 910.59087,172.34 L910.59087,175.78 Z M906.37087,173.6 C905.15087,173.6 903.87087,173.98 903.87087,175.18 C903.87087,176.12 904.71087,176.6 905.67087,176.6 C906.69087,176.6 907.69087,176.22 908.45087,175.46 L908.45087,173.84 C907.87087,173.72 907.05087,173.6 906.37087,173.6 Z M915.233478,169.9 C915.993478,168.98 917.133478,168.14 918.933478,168.14 C921.813478,168.14 923.693478,170.44 923.693478,173.2 C923.693478,175.96 921.813478,178.26 918.933478,178.26 C917.253478,178.26 916.133478,177.52 915.473478,176.76 L915.473478,182.4 L913.333478,182.4 L913.333478,168.4 L915.233478,168.4 L915.233478,169.9 Z M921.513478,173.2 C921.513478,171.32 920.273478,170.02 918.533478,170.02 C917.053478,170.02 915.933478,170.98 915.473478,172.02 L915.473478,174.36 C915.933478,175.42 917.053478,176.38 918.533478,176.38 C920.273478,176.38 921.513478,175.08 921.513478,173.2 Z M927.696087,178 L925.556087,178 L925.556087,168.4 L927.696087,168.4 L927.696087,172.2 L929.276087,172.2 L932.036087,168.4 L934.476087,168.4 L930.996087,173.16 L934.856087,178 L932.396087,178 L929.236087,174.02 L927.696087,174.02 L927.696087,178 Z M934.958696,173.2 C934.958696,169.72 937.598696,168.14 939.818696,168.14 C943.638696,168.14 944.958696,171.22 944.338696,174 L937.118696,174 C937.358696,175.72 939.038696,176.44 940.798696,176.44 C941.958696,176.44 943.018696,176.16 943.838696,175.76 L943.838696,177.6 C942.958696,178.02 941.738696,178.26 940.398696,178.26 C937.458696,178.26 934.958696,176.58 934.958696,173.2 Z M942.418696,172.4 C942.538696,171.56 942.018696,169.92 939.918696,169.92 C938.478696,169.92 937.178696,170.78 937.098696,172.4 L942.418696,172.4 Z M950.561304,178 L948.421304,178 L948.421304,170.28 L945.101304,170.28 L945.101304,168.4 L953.861304,168.4 L953.861304,170.28 L950.561304,170.28 L950.561304,178 Z M957.163913,178 L955.323913,178 L955.323913,168.4 L957.463913,168.4 L957.463913,174.68 L962.603913,168.4 L964.443913,168.4 L964.443913,178 L962.303913,178 L962.303913,171.72 L957.163913,178 Z M969.046522,178 L966.906522,178 L966.906522,168.4 L969.046522,168.4 L969.046522,172.26 L973.846522,172.26 L973.846522,168.4 L975.986522,168.4 L975.986522,178 L973.846522,178 L973.846522,174.14 L969.046522,174.14 L969.046522,178 Z M980.58913,178 L978.44913,178 L978.44913,168.4 L985.60913,168.4 L985.60913,170.28 L980.58913,170.28 L980.58913,178 Z M915.696087,188.48 C917.056087,187.54 918.556087,187.16 920.056087,187.16 C922.836087,187.16 924.696087,188.48 924.696087,190.8 C924.696087,193.12 922.756087,194.46 920.856087,195.58 C918.956087,196.7 917.096087,197.62 917.056087,199.42 L924.796087,199.4 L924.796087,201 L915.216087,201 L915.216087,200.2 C915.216087,196.88 917.656087,195.62 919.776087,194.38 C921.476087,193.38 923.016087,192.54 923.016087,190.78 C923.016087,189.44 921.876087,188.72 919.916087,188.72 C918.536087,188.72 917.096087,189.18 915.696087,190.16 L915.696087,188.48 Z M927.478696,187.4 L935.638696,187.4 L935.638696,189 L929.058696,189 L928.818696,192.84 C929.538696,192.64 930.338696,192.54 931.138696,192.54 C933.698696,192.54 936.298696,193.64 936.298696,196.9 C936.298696,199.66 933.978696,201.24 931.018696,201.24 C929.438696,201.24 927.838696,200.9 926.658696,200.32 L926.658696,198.72 C927.818696,199.34 929.358696,199.68 930.818696,199.68 C933.038696,199.68 934.598696,198.74 934.598696,196.9 C934.598696,194.68 932.678696,194.06 930.558696,194.06 C929.358696,194.06 928.078696,194.32 927.038696,194.7 L927.478696,187.4 Z M942.641304,202.2 L941.041304,202.2 L949.221304,185.8 L950.821304,185.8 L942.641304,202.2 Z M944.181304,189.9 C944.181304,191.92 942.641304,193.04 940.921304,193.04 C939.181304,193.04 937.621304,191.92 937.621304,189.9 C937.621304,187.88 939.181304,186.76 940.921304,186.76 C942.641304,186.76 944.181304,187.88 944.181304,189.9 Z M939.141304,189.9 C939.141304,190.84 939.741304,191.64 940.921304,191.64 C942.061304,191.64 942.661304,190.84 942.661304,189.9 C942.661304,188.96 942.061304,188.16 940.921304,188.16 C939.741304,188.16 939.141304,188.96 939.141304,189.9 Z M954.221304,198.1 C954.221304,200.12 952.681304,201.24 950.961304,201.24 C949.221304,201.24 947.661304,200.12 947.661304,198.1 C947.661304,196.08 949.221304,194.96 950.961304,194.96 C952.681304,194.96 954.221304,196.08 954.221304,198.1 Z M949.181304,198.1 C949.181304,199.04 949.781304,199.84 950.961304,199.84 C952.101304,199.84 952.701304,199.04 952.701304,198.1 C952.701304,197.16 952.101304,196.36 950.961304,196.36 C949.781304,196.36 949.181304,197.16 949.181304,198.1 Z" id="Маркетинг-25%" fill="#000000"></path>
                <path d="M520.866957,368 L525.866957,368 C529.186956,368 531.846957,369.04 531.846957,372.6 C531.846957,376.16 529.186956,377.2 525.866957,377.2 L523.146956,377.2 L523.146956,382 L520.866957,382 L520.866957,368 Z M529.526956,372.6 C529.526956,370.56 527.926956,370.08 525.986957,370.08 L523.146956,370.08 L523.146956,375.12 L525.986957,375.12 C527.906956,375.12 529.526956,374.64 529.526956,372.6 Z M541.429565,379.78 C541.429565,380.32 541.749565,380.48 542.129565,380.48 C542.349565,380.48 542.569565,380.42 542.769565,380.36 L542.769565,381.9 C542.369565,382.06 541.889565,382.14 541.409565,382.14 C540.529565,382.14 539.829565,381.8 539.489565,381.02 C538.549565,381.78 537.369565,382.26 535.869565,382.26 C534.129565,382.26 532.509565,381.3 532.509565,379.32 C532.509565,376.86 534.789565,376.1 536.789565,376.1 C537.609565,376.1 538.529565,376.22 539.289565,376.38 L539.289565,376.04 C539.289565,374.84 538.409565,374 536.769565,374 C535.349565,374 534.169565,374.36 533.309565,374.74 L533.309565,372.78 C534.069565,372.52 535.449565,372.14 536.989565,372.14 C539.709565,372.14 541.429565,373.44 541.429565,376.34 L541.429565,379.78 Z M537.209565,377.6 C535.989565,377.6 534.709565,377.98 534.709565,379.18 C534.709565,380.12 535.549565,380.6 536.509565,380.6 C537.529565,380.6 538.529565,380.22 539.289565,379.46 L539.289565,377.84 C538.709565,377.72 537.889565,377.6 537.209565,377.6 Z M551.692174,379.38 C551.692174,381.06 550.152174,382.26 547.192174,382.26 C545.752174,382.26 544.472174,381.94 543.592174,381.48 L543.592174,379.64 C544.372174,380.08 545.752174,380.44 546.912174,380.44 C548.332174,380.44 549.532174,380.18 549.532174,379.12 C549.532174,378.1 548.492174,377.94 547.532174,377.94 L545.572174,377.94 L545.572174,376.3 L547.532174,376.3 C548.552174,376.3 549.332174,376.02 549.332174,375.22 C549.332174,374.36 548.412174,373.94 547.032174,373.94 C545.912174,373.94 544.592174,374.28 543.772174,374.72 L543.772174,372.88 C544.692174,372.44 545.972174,372.12 547.292174,372.12 C550.252174,372.12 551.492174,373.38 551.492174,374.94 C551.492174,376.08 550.792174,376.82 549.792174,377.08 C550.892174,377.38 551.692174,378.18 551.692174,379.38 Z M555.514783,373.9 C556.274783,372.98 557.414783,372.14 559.214783,372.14 C562.094783,372.14 563.974783,374.44 563.974783,377.2 C563.974783,379.96 562.094783,382.26 559.214783,382.26 C557.534783,382.26 556.414783,381.52 555.754783,380.76 L555.754783,386.4 L553.614783,386.4 L553.614783,372.4 L555.514783,372.4 L555.514783,373.9 Z M561.794783,377.2 C561.794783,375.32 560.554783,374.02 558.814783,374.02 C557.334783,374.02 556.214783,374.98 555.754783,376.02 L555.754783,378.36 C556.214783,379.42 557.334783,380.38 558.814783,380.38 C560.554783,380.38 561.794783,379.08 561.794783,377.2 Z M574.017391,379.78 C574.017391,380.32 574.337391,380.48 574.717391,380.48 C574.937391,380.48 575.157391,380.42 575.357391,380.36 L575.357391,381.9 C574.957391,382.06 574.477391,382.14 573.997391,382.14 C573.117391,382.14 572.417391,381.8 572.077391,381.02 C571.137391,381.78 569.957391,382.26 568.457391,382.26 C566.717391,382.26 565.097391,381.3 565.097391,379.32 C565.097391,376.86 567.377391,376.1 569.377391,376.1 C570.197391,376.1 571.117391,376.22 571.877391,376.38 L571.877391,376.04 C571.877391,374.84 570.997391,374 569.357391,374 C567.937391,374 566.757391,374.36 565.897391,374.74 L565.897391,372.78 C566.657391,372.52 568.037391,372.14 569.577391,372.14 C572.297391,372.14 574.017391,373.44 574.017391,376.34 L574.017391,379.78 Z M569.797391,377.6 C568.577391,377.6 567.297391,377.98 567.297391,379.18 C567.297391,380.12 568.137391,380.6 569.097391,380.6 C570.117391,380.6 571.117391,380.22 571.877391,379.46 L571.877391,377.84 C571.297391,377.72 570.477391,377.6 569.797391,377.6 Z M586.36,377.54 C586.36,380.58 584.26,382.26 581.36,382.26 C578.5,382.26 576.32,380.42 576.32,376.56 C576.32,373.24 577.56,371.12 579.28,370.04 C582.04,368.34 584.14,369.08 585.5,367.74 L585.5,369.82 C584.16,370.84 582.58,370.38 580.54,371.52 C579.32,372.22 578.78,373.46 578.5,374.56 C579.14,373.6 580.38,372.88 581.86,372.88 C584.28,372.88 586.36,374.64 586.36,377.54 Z M578.48,377.58 C578.48,379.06 579.46,380.42 581.32,380.42 C583.24,380.42 584.18,379.06 584.18,377.58 C584.18,376.1 583.24,374.74 581.32,374.74 C579.48,374.74 578.48,376.24 578.48,377.58 Z M587.642609,377.2 C587.642609,373.88 590.162609,372.14 592.842609,372.14 C595.542609,372.14 598.042609,373.88 598.042609,377.2 C598.042609,380.52 595.542609,382.26 592.842609,382.26 C590.162609,382.26 587.642609,380.52 587.642609,377.2 Z M595.862609,377.2 C595.862609,375.32 594.622609,374.1 592.842609,374.1 C591.042609,374.1 589.802609,375.32 589.802609,377.2 C589.802609,379.08 591.042609,380.3 592.842609,380.3 C594.622609,380.3 595.862609,379.08 595.862609,377.2 Z M604.105217,382 L601.965217,382 L601.965217,374.28 L598.645217,374.28 L598.645217,372.4 L607.405217,372.4 L607.405217,374.28 L604.105217,374.28 L604.105217,382 Z M611.007826,382 L608.867826,382 L608.867826,372.4 L611.007826,372.4 L611.007826,376.2 L612.587826,376.2 L615.347826,372.4 L617.787826,372.4 L614.307826,377.16 L618.167826,382 L615.707826,382 L612.547826,378.02 L611.007826,378.02 L611.007826,382 Z M627.430435,379.78 C627.430435,380.32 627.750435,380.48 628.130435,380.48 C628.350435,380.48 628.570435,380.42 628.770435,380.36 L628.770435,381.9 C628.370435,382.06 627.890435,382.14 627.410435,382.14 C626.530435,382.14 625.830435,381.8 625.490435,381.02 C624.550435,381.78 623.370435,382.26 621.870435,382.26 C620.130435,382.26 618.510435,381.3 618.510435,379.32 C618.510435,376.86 620.790435,376.1 622.790435,376.1 C623.610435,376.1 624.530435,376.22 625.290435,376.38 L625.290435,376.04 C625.290435,374.84 624.410435,374 622.770435,374 C621.350435,374 620.170435,374.36 619.310435,374.74 L619.310435,372.78 C620.070435,372.52 621.450435,372.14 622.990435,372.14 C625.710435,372.14 627.430435,373.44 627.430435,376.34 L627.430435,379.78 Z M623.210435,377.6 C621.990435,377.6 620.710435,377.98 620.710435,379.18 C620.710435,380.12 621.550435,380.6 622.510435,380.6 C623.530435,380.6 624.530435,380.22 625.290435,379.46 L625.290435,377.84 C624.710435,377.72 623.890435,377.6 623.210435,377.6 Z M518.696957,405 L516.556956,405 L516.556956,395.4 L525.636956,395.4 L525.636956,405 L523.496957,405 L523.496957,397.28 L518.696957,397.28 L518.696957,405 Z M529.999565,396.9 C530.759565,395.98 531.899565,395.14 533.699565,395.14 C536.579565,395.14 538.459565,397.44 538.459565,400.2 C538.459565,402.96 536.579565,405.26 533.699565,405.26 C532.019565,405.26 530.899565,404.52 530.239565,403.76 L530.239565,409.4 L528.099565,409.4 L528.099565,395.4 L529.999565,395.4 L529.999565,396.9 Z M536.279565,400.2 C536.279565,398.32 535.039565,397.02 533.299565,397.02 C531.819565,397.02 530.699565,397.98 530.239565,399.02 L530.239565,401.36 C530.699565,402.42 531.819565,403.38 533.299565,403.38 C535.039565,403.38 536.279565,402.08 536.279565,400.2 Z M542.162174,405 L540.322174,405 L540.322174,395.4 L542.462174,395.4 L542.462174,401.68 L547.602174,395.4 L549.442174,395.4 L549.442174,405 L547.302174,405 L547.302174,398.72 L542.162174,405 Z M555.724783,397.22 C555.444783,401.86 554.724783,405.18 552.164783,405.18 C551.764783,405.18 551.324783,405.1 550.844783,404.92 L550.844783,403.24 C551.064783,403.32 551.264783,403.36 551.464783,403.36 C553.084783,403.36 553.524783,400.16 553.704783,395.4 L561.104783,395.4 L561.104783,405 L558.964783,405 L558.964783,397.22 L555.724783,397.22 Z M562.967391,400.2 C562.967391,396.88 565.487391,395.14 568.167391,395.14 C570.867391,395.14 573.367391,396.88 573.367391,400.2 C573.367391,403.52 570.867391,405.26 568.167391,405.26 C565.487391,405.26 562.967391,403.52 562.967391,400.2 Z M571.187391,400.2 C571.187391,398.32 569.947391,397.1 568.167391,397.1 C566.367391,397.1 565.127391,398.32 565.127391,400.2 C565.127391,402.08 566.367391,403.3 568.167391,403.3 C569.947391,403.3 571.187391,402.08 571.187391,400.2 Z M588.77,405 L586.43,405 L583.57,401.18 L582.23,401.18 L582.23,405 L580.09,405 L580.09,401.18 L578.77,401.18 L575.91,405 L573.57,405 L577.15,400.18 L573.93,395.4 L576.27,395.4 L578.89,399.36 L580.09,399.36 L580.09,395.4 L582.23,395.4 L582.23,399.36 L583.45,399.36 L586.07,395.4 L588.39,395.4 L585.19,400.18 L588.77,405 Z M588.932609,400.2 C588.932609,396.72 591.572609,395.14 593.792609,395.14 C597.612609,395.14 598.932609,398.22 598.312609,401 L591.092609,401 C591.332609,402.72 593.012609,403.44 594.772609,403.44 C595.932609,403.44 596.992609,403.16 597.812609,402.76 L597.812609,404.6 C596.932609,405.02 595.712609,405.26 594.372609,405.26 C591.432609,405.26 588.932609,403.58 588.932609,400.2 Z M596.392609,399.4 C596.512609,398.56 595.992609,396.92 593.892609,396.92 C592.452609,396.92 591.152609,397.78 591.072609,399.4 L596.392609,399.4 Z M602.375217,405 L600.235217,405 L600.235217,395.4 L602.375217,395.4 L602.375217,399.26 L607.175217,399.26 L607.175217,395.4 L609.315217,395.4 L609.315217,405 L607.175217,405 L607.175217,401.14 L602.375217,401.14 L602.375217,405 Z M613.617826,405 L611.777826,405 L611.777826,395.4 L613.917826,395.4 L613.917826,401.68 L619.057826,395.4 L620.897826,395.4 L620.897826,405 L618.757826,405 L618.757826,398.72 L613.617826,405 Z M624.960435,405 L622.500435,405 L625.140435,401.62 C623.740435,401.14 623.000435,399.96 623.000435,398.64 C623.000435,396.9 624.300435,395.4 626.700435,395.4 L631.660435,395.4 L631.660435,405 L629.520435,405 L629.520435,401.86 L627.340435,401.86 L624.960435,405 Z M625.180435,398.66 C625.180435,399.6 625.880435,400.14 627.060435,400.14 L629.520435,400.14 L629.520435,397.18 L627.060435,397.18 C625.880435,397.18 625.180435,397.72 625.180435,398.66 Z M554.426087,416.4 L562.586087,416.4 L562.586087,418 L556.006087,418 L555.766087,421.84 C556.486087,421.64 557.286087,421.54 558.086087,421.54 C560.646087,421.54 563.246087,422.64 563.246087,425.9 C563.246087,428.66 560.926087,430.24 557.966087,430.24 C556.386087,430.24 554.786087,429.9 553.606087,429.32 L553.606087,427.72 C554.766087,428.34 556.306087,428.68 557.766087,428.68 C559.986087,428.68 561.546087,427.74 561.546087,425.9 C561.546087,423.68 559.626087,423.06 557.506087,423.06 C556.306087,423.06 555.026087,423.32 553.986087,423.7 L554.426087,416.4 Z M564.928696,423.2 C564.928696,419.18 566.808696,416.16 570.928696,416.16 C575.068696,416.16 576.948696,419.18 576.948696,423.2 C576.948696,427.22 575.068696,430.24 570.928696,430.24 C566.808696,430.24 564.928696,427.22 564.928696,423.2 Z M575.248696,423.2 C575.248696,419.8 573.908696,417.76 570.928696,417.76 C567.968696,417.76 566.628696,419.8 566.628696,423.2 C566.628696,426.6 567.968696,428.64 570.928696,428.64 C573.908696,428.64 575.248696,426.6 575.248696,423.2 Z M583.431304,431.2 L581.831304,431.2 L590.011304,414.8 L591.611304,414.8 L583.431304,431.2 Z M584.971304,418.9 C584.971304,420.92 583.431304,422.04 581.711304,422.04 C579.971304,422.04 578.411304,420.92 578.411304,418.9 C578.411304,416.88 579.971304,415.76 581.711304,415.76 C583.431304,415.76 584.971304,416.88 584.971304,418.9 Z M579.931304,418.9 C579.931304,419.84 580.531304,420.64 581.711304,420.64 C582.851304,420.64 583.451304,419.84 583.451304,418.9 C583.451304,417.96 582.851304,417.16 581.711304,417.16 C580.531304,417.16 579.931304,417.96 579.931304,418.9 Z M595.011304,427.1 C595.011304,429.12 593.471304,430.24 591.751304,430.24 C590.011304,430.24 588.451304,429.12 588.451304,427.1 C588.451304,425.08 590.011304,423.96 591.751304,423.96 C593.471304,423.96 595.011304,425.08 595.011304,427.1 Z M589.971304,427.1 C589.971304,428.04 590.571304,428.84 591.751304,428.84 C592.891304,428.84 593.491304,428.04 593.491304,427.1 C593.491304,426.16 592.891304,425.36 591.751304,425.36 C590.571304,425.36 589.971304,426.16 589.971304,427.1 Z" id="Разработка-приложени" fill="#000000"></path>
                <path d="M537.229565,21 L542.229565,21 C545.549565,21 548.209565,22.04 548.209565,25.6 C548.209565,29.16 545.549565,30.2 542.229565,30.2 L539.509565,30.2 L539.509565,35 L537.229565,35 L537.229565,21 Z M545.889565,25.6 C545.889565,23.56 544.289565,23.08 542.349565,23.08 L539.509565,23.08 L539.509565,28.12 L542.349565,28.12 C544.269565,28.12 545.889565,27.64 545.889565,25.6 Z M557.792174,32.78 C557.792174,33.32 558.112174,33.48 558.492174,33.48 C558.712174,33.48 558.932174,33.42 559.132174,33.36 L559.132174,34.9 C558.732174,35.06 558.252174,35.14 557.772174,35.14 C556.892174,35.14 556.192174,34.8 555.852174,34.02 C554.912174,34.78 553.732174,35.26 552.232174,35.26 C550.492174,35.26 548.872174,34.3 548.872174,32.32 C548.872174,29.86 551.152174,29.1 553.152174,29.1 C553.972174,29.1 554.892174,29.22 555.652174,29.38 L555.652174,29.04 C555.652174,27.84 554.772174,27 553.132174,27 C551.712174,27 550.532174,27.36 549.672174,27.74 L549.672174,25.78 C550.432174,25.52 551.812174,25.14 553.352174,25.14 C556.072174,25.14 557.792174,26.44 557.792174,29.34 L557.792174,32.78 Z M553.572174,30.6 C552.352174,30.6 551.072174,30.98 551.072174,32.18 C551.072174,33.12 551.912174,33.6 552.872174,33.6 C553.892174,33.6 554.892174,33.22 555.652174,32.46 L555.652174,30.84 C555.072174,30.72 554.252174,30.6 553.572174,30.6 Z M568.054783,32.38 C568.054783,34.06 566.514783,35.26 563.554783,35.26 C562.114783,35.26 560.834783,34.94 559.954783,34.48 L559.954783,32.64 C560.734783,33.08 562.114783,33.44 563.274783,33.44 C564.694783,33.44 565.894783,33.18 565.894783,32.12 C565.894783,31.1 564.854783,30.94 563.894783,30.94 L561.934783,30.94 L561.934783,29.3 L563.894783,29.3 C564.914783,29.3 565.694783,29.02 565.694783,28.22 C565.694783,27.36 564.774783,26.94 563.394783,26.94 C562.274783,26.94 560.954783,27.28 560.134783,27.72 L560.134783,25.88 C561.054783,25.44 562.334783,25.12 563.654783,25.12 C566.614783,25.12 567.854783,26.38 567.854783,27.94 C567.854783,29.08 567.154783,29.82 566.154783,30.08 C567.254783,30.38 568.054783,31.18 568.054783,32.38 Z M575.617391,35 L569.977391,35 L569.977391,25.4 L575.457391,25.4 C577.397391,25.4 578.497391,26.46 578.497391,27.96 C578.497391,29.02 577.957391,29.78 577.137391,30.14 C578.037391,30.42 578.777391,31.18 578.777391,32.36 C578.777391,33.84 577.837391,35 575.617391,35 Z M572.117391,30.92 L572.117391,33.38 L575.097391,33.38 C575.977391,33.38 576.617391,33.08 576.617391,32.16 C576.617391,31.18 575.877391,30.92 575.137391,30.92 L572.117391,30.92 Z M572.117391,27.02 L572.117391,29.4 L574.977391,29.4 C575.737391,29.4 576.337391,29.1 576.337391,28.24 C576.337391,27.3 575.637391,27.02 574.977391,27.02 L572.117391,27.02 Z M582.56,35 L580.72,35 L580.72,25.4 L582.86,25.4 L582.86,31.68 L588,25.4 L589.84,25.4 L589.84,35 L587.7,35 L587.7,28.72 L582.56,35 Z M596.762609,35 L594.622609,35 L594.622609,27.28 L591.302609,27.28 L591.302609,25.4 L600.062609,25.4 L600.062609,27.28 L596.762609,27.28 L596.762609,35 Z M603.365217,35 L601.525217,35 L601.525217,25.4 L603.665217,25.4 L603.665217,31.68 L608.805217,25.4 L610.645217,25.4 L610.645217,35 L608.505217,35 L608.505217,28.72 L603.365217,35 Z M612.507826,30.2 C612.507826,26.72 615.147826,25.14 617.367826,25.14 C621.187826,25.14 622.507826,28.22 621.887826,31 L614.667826,31 C614.907826,32.72 616.587826,33.44 618.347826,33.44 C619.507826,33.44 620.567826,33.16 621.387826,32.76 L621.387826,34.6 C620.507826,35.02 619.287826,35.26 617.947826,35.26 C615.007826,35.26 612.507826,33.58 612.507826,30.2 Z M619.967826,29.4 C620.087826,28.56 619.567826,26.92 617.467826,26.92 C616.027826,26.92 614.727826,27.78 614.647826,29.4 L619.967826,29.4 Z M527.858261,58 L525.718261,58 L525.718261,48.4 L534.798261,48.4 L534.798261,58 L532.658261,58 L532.658261,50.28 L527.858261,50.28 L527.858261,58 Z M541.08087,50.22 C540.80087,54.86 540.08087,58.18 537.52087,58.18 C537.12087,58.18 536.68087,58.1 536.20087,57.92 L536.20087,56.24 C536.42087,56.32 536.62087,56.36 536.82087,56.36 C538.44087,56.36 538.88087,53.16 539.06087,48.4 L546.46087,48.4 L546.46087,58 L544.32087,58 L544.32087,50.22 L541.08087,50.22 Z M557.103478,55.78 C557.103478,56.32 557.423478,56.48 557.803478,56.48 C558.023478,56.48 558.243478,56.42 558.443478,56.36 L558.443478,57.9 C558.043478,58.06 557.563478,58.14 557.083478,58.14 C556.203478,58.14 555.503478,57.8 555.163478,57.02 C554.223478,57.78 553.043478,58.26 551.543478,58.26 C549.803478,58.26 548.183478,57.3 548.183478,55.32 C548.183478,52.86 550.463478,52.1 552.463478,52.1 C553.283478,52.1 554.203478,52.22 554.963478,52.38 L554.963478,52.04 C554.963478,50.84 554.083478,50 552.443478,50 C551.023478,50 549.843478,50.36 548.983478,50.74 L548.983478,48.78 C549.743478,48.52 551.123478,48.14 552.663478,48.14 C555.383478,48.14 557.103478,49.44 557.103478,52.34 L557.103478,55.78 Z M552.883478,53.6 C551.663478,53.6 550.383478,53.98 550.383478,55.18 C550.383478,56.12 551.223478,56.6 552.183478,56.6 C553.203478,56.6 554.203478,56.22 554.963478,55.46 L554.963478,53.84 C554.383478,53.72 553.563478,53.6 552.883478,53.6 Z M563.906087,58 L561.766087,58 L561.766087,50.28 L558.446087,50.28 L558.446087,48.4 L567.206087,48.4 L567.206087,50.28 L563.906087,50.28 L563.906087,58 Z M575.448696,62.4 L573.368696,62.4 L573.368696,58.26 C570.188696,58.16 567.788696,56.24 567.788696,53.2 C567.788696,50.16 570.188696,48.24 573.368696,48.14 L573.368696,44 L575.448696,44 L575.448696,48.14 C578.628696,48.24 581.028696,50.16 581.028696,53.2 C581.028696,56.24 578.628696,58.16 575.448696,58.26 L575.448696,62.4 Z M569.928696,53.2 C569.928696,55.06 571.208696,56.34 573.368696,56.44 L573.368696,49.96 C571.208696,50.06 569.928696,51.34 569.928696,53.2 Z M575.448696,49.96 L575.448696,56.44 C577.608696,56.34 578.888696,55.06 578.888696,53.2 C578.888696,51.34 577.608696,50.06 575.448696,49.96 Z M582.271304,53.2 C582.271304,49.88 584.791304,48.14 587.471304,48.14 C590.171304,48.14 592.671304,49.88 592.671304,53.2 C592.671304,56.52 590.171304,58.26 587.471304,58.26 C584.791304,58.26 582.271304,56.52 582.271304,53.2 Z M590.491304,53.2 C590.491304,51.32 589.251304,50.1 587.471304,50.1 C585.671304,50.1 584.431304,51.32 584.431304,53.2 C584.431304,55.08 585.671304,56.3 587.471304,56.3 C589.251304,56.3 590.491304,55.08 590.491304,53.2 Z M596.433913,49.9 C597.193913,48.98 598.333913,48.14 600.133913,48.14 C603.013913,48.14 604.893913,50.44 604.893913,53.2 C604.893913,55.96 603.013913,58.26 600.133913,58.26 C598.453913,58.26 597.333913,57.52 596.673913,56.76 L596.673913,62.4 L594.533913,62.4 L594.533913,48.4 L596.433913,48.4 L596.433913,49.9 Z M602.713913,53.2 C602.713913,51.32 601.473913,50.02 599.733913,50.02 C598.253913,50.02 597.133913,50.98 596.673913,52.02 L596.673913,54.36 C597.133913,55.42 598.253913,56.38 599.733913,56.38 C601.473913,56.38 602.713913,55.08 602.713913,53.2 Z M608.816522,58 L606.756522,58 L606.756522,48.4 L608.916522,48.4 L612.176522,53.46 L615.456522,48.4 L617.616522,48.4 L617.616522,58 L615.556522,58 L615.556522,51.5 L612.816522,55.7 L611.536522,55.7 L608.816522,51.5 L608.816522,58 Z M624.83913,58 L620.07913,58 L620.07913,48.4 L622.21913,48.4 L622.21913,51.6 L624.83913,51.6 C627.25913,51.6 628.63913,52.98 628.63913,54.8 C628.63913,56.6 627.25913,58 624.83913,58 Z M622.21913,53.28 L622.21913,56.3 L624.41913,56.3 C625.67913,56.3 626.45913,55.78 626.45913,54.8 C626.45913,53.8 625.67913,53.28 624.41913,53.28 L622.21913,53.28 Z M632.49913,58 L630.35913,58 L630.35913,48.4 L632.49913,48.4 L632.49913,58 Z M564.636087,69.4 L565.876087,69.4 L565.876087,81.4 L568.416087,81.4 L568.416087,83 L561.336087,83 L561.336087,81.4 L564.196087,81.4 L564.196087,71.18 L561.336087,72.26 L561.336087,70.66 L564.636087,69.4 Z M570.538696,69.4 L578.698696,69.4 L578.698696,71 L572.118696,71 L571.878696,74.84 C572.598696,74.64 573.398696,74.54 574.198696,74.54 C576.758696,74.54 579.358696,75.64 579.358696,78.9 C579.358696,81.66 577.038696,83.24 574.078696,83.24 C572.498696,83.24 570.898696,82.9 569.718696,82.32 L569.718696,80.72 C570.878696,81.34 572.418696,81.68 573.878696,81.68 C576.098696,81.68 577.658696,80.74 577.658696,78.9 C577.658696,76.68 575.738696,76.06 573.618696,76.06 C572.418696,76.06 571.138696,76.32 570.098696,76.7 L570.538696,69.4 Z M585.701304,84.2 L584.101304,84.2 L592.281304,67.8 L593.881304,67.8 L585.701304,84.2 Z M587.241304,71.9 C587.241304,73.92 585.701304,75.04 583.981304,75.04 C582.241304,75.04 580.681304,73.92 580.681304,71.9 C580.681304,69.88 582.241304,68.76 583.981304,68.76 C585.701304,68.76 587.241304,69.88 587.241304,71.9 Z M582.201304,71.9 C582.201304,72.84 582.801304,73.64 583.981304,73.64 C585.121304,73.64 585.721304,72.84 585.721304,71.9 C585.721304,70.96 585.121304,70.16 583.981304,70.16 C582.801304,70.16 582.201304,70.96 582.201304,71.9 Z M597.281304,80.1 C597.281304,82.12 595.741304,83.24 594.021304,83.24 C592.281304,83.24 590.721304,82.12 590.721304,80.1 C590.721304,78.08 592.281304,76.96 594.021304,76.96 C595.741304,76.96 597.281304,78.08 597.281304,80.1 Z M592.241304,80.1 C592.241304,81.04 592.841304,81.84 594.021304,81.84 C595.161304,81.84 595.761304,81.04 595.761304,80.1 C595.761304,79.16 595.161304,78.36 594.021304,78.36 C592.841304,78.36 592.241304,79.16 592.241304,80.1 Z" id="Развитие-платформы-1" fill="#000000"></path>
                <path d="M184.112174,9.44 L187.552174,9.44 C190.212174,9.44 192.912174,10.28 192.912174,13.74 C192.912174,17.18 190.212174,18 187.552174,18 L181.832174,18 L181.832174,4 L191.812174,4 L191.812174,6.1 L184.112174,6.1 L184.112174,9.44 Z M184.112174,15.92 L187.592174,15.92 C189.092174,15.92 190.592174,15.66 190.592174,13.74 C190.592174,11.8 189.072174,11.52 187.592174,11.52 L184.112174,11.52 L184.112174,15.92 Z M202.874783,15.78 C202.874783,16.32 203.194783,16.48 203.574783,16.48 C203.794783,16.48 204.014783,16.42 204.214783,16.36 L204.214783,17.9 C203.814783,18.06 203.334783,18.14 202.854783,18.14 C201.974783,18.14 201.274783,17.8 200.934783,17.02 C199.994783,17.78 198.814783,18.26 197.314783,18.26 C195.574783,18.26 193.954783,17.3 193.954783,15.32 C193.954783,12.86 196.234783,12.1 198.234783,12.1 C199.054783,12.1 199.974783,12.22 200.734783,12.38 L200.734783,12.04 C200.734783,10.84 199.854783,10 198.214783,10 C196.794783,10 195.614783,10.36 194.754783,10.74 L194.754783,8.78 C195.514783,8.52 196.894783,8.14 198.434783,8.14 C201.154783,8.14 202.874783,9.44 202.874783,12.34 L202.874783,15.78 Z M198.654783,13.6 C197.434783,13.6 196.154783,13.98 196.154783,15.18 C196.154783,16.12 196.994783,16.6 197.954783,16.6 C198.974783,16.6 199.974783,16.22 200.734783,15.46 L200.734783,13.84 C200.154783,13.72 199.334783,13.6 198.654783,13.6 Z M209.377391,15.64 L212.237391,8.4 L214.477391,8.4 L209.977391,19.3 C208.937391,21.8 207.577391,22.64 206.117391,22.64 C205.697391,22.64 205.277391,22.58 204.857391,22.48 L204.857391,20.66 C205.177391,20.76 205.517391,20.8 205.837391,20.8 C206.877391,20.8 207.657391,20.06 208.217391,18.56 L208.417391,18.08 L203.857391,8.4 L206.137391,8.4 L209.377391,15.64 Z M218,18 L215.86,18 L215.86,8.4 L218,8.4 L218,12.26 L222.8,12.26 L222.8,8.4 L224.94,8.4 L224.94,18 L222.8,18 L222.8,14.14 L218,14.14 L218,18 Z M231.862609,18 L229.722609,18 L229.722609,10.28 L226.402609,10.28 L226.402609,8.4 L235.162609,8.4 L235.162609,10.28 L231.862609,10.28 L231.862609,18 Z M238.465217,18 L236.625217,18 L236.625217,8.4 L238.765217,8.4 L238.765217,14.68 L243.905217,8.4 L245.745217,8.4 L245.745217,18 L243.605217,18 L243.605217,11.72 L238.465217,18 Z M209.087391,32.86 C209.087391,34.26 208.267391,35.46 207.107391,35.86 C208.267391,36.22 209.647391,37.22 209.647391,39.3 C209.647391,41.94 207.387391,43.24 204.667391,43.24 C202.727391,43.24 201.267391,42.94 199.927391,42.34 L199.927391,40.68 C201.307391,41.4 202.727391,41.68 204.527391,41.66 C206.527391,41.66 208.027391,41 208.027391,39.22 C208.027391,37.36 206.547391,36.78 204.707391,36.78 L202.627391,36.78 L202.627391,35.18 L204.527391,35.2 C206.507391,35.2 207.467391,34.26 207.467391,33 C207.467391,31.6 206.327391,30.72 204.247391,30.72 C202.807391,30.72 201.487391,31.06 200.167391,31.76 L200.167391,30.12 C201.387391,29.5 202.767391,29.16 204.467391,29.16 C207.247391,29.16 209.087391,30.66 209.087391,32.86 Z M216.09,44.2 L214.49,44.2 L222.67,27.8 L224.27,27.8 L216.09,44.2 Z M217.63,31.9 C217.63,33.92 216.09,35.04 214.37,35.04 C212.63,35.04 211.07,33.92 211.07,31.9 C211.07,29.88 212.63,28.76 214.37,28.76 C216.09,28.76 217.63,29.88 217.63,31.9 Z M212.59,31.9 C212.59,32.84 213.19,33.64 214.37,33.64 C215.51,33.64 216.11,32.84 216.11,31.9 C216.11,30.96 215.51,30.16 214.37,30.16 C213.19,30.16 212.59,30.96 212.59,31.9 Z M227.67,40.1 C227.67,42.12 226.13,43.24 224.41,43.24 C222.67,43.24 221.11,42.12 221.11,40.1 C221.11,38.08 222.67,36.96 224.41,36.96 C226.13,36.96 227.67,38.08 227.67,40.1 Z M222.63,40.1 C222.63,41.04 223.23,41.84 224.41,41.84 C225.55,41.84 226.15,41.04 226.15,40.1 C226.15,39.16 225.55,38.36 224.41,38.36 C223.23,38.36 222.63,39.16 222.63,40.1 Z" id="Баунти-3%" fill="#000000"></path>
                <path d="M182.098261,405 L179.818261,405 L179.818261,391 L182.098261,391 L182.098261,396.84 L184.858261,396.84 L188.758261,391 L191.338261,391 L186.698261,397.82 L191.698261,405 L189.118261,405 L184.898261,398.94 L182.098261,398.94 L182.098261,405 Z M194.70087,396.9 C195.46087,395.98 196.60087,395.14 198.40087,395.14 C201.28087,395.14 203.16087,397.44 203.16087,400.2 C203.16087,402.96 201.28087,405.26 198.40087,405.26 C196.72087,405.26 195.60087,404.52 194.94087,403.76 L194.94087,409.4 L192.80087,409.4 L192.80087,395.4 L194.70087,395.4 L194.70087,396.9 Z M200.98087,400.2 C200.98087,398.32 199.74087,397.02 198.00087,397.02 C196.52087,397.02 195.40087,397.98 194.94087,399.02 L194.94087,401.36 C195.40087,402.42 196.52087,403.38 198.00087,403.38 C199.74087,403.38 200.98087,402.08 200.98087,400.2 Z M213.203478,402.78 C213.203478,403.32 213.523478,403.48 213.903478,403.48 C214.123478,403.48 214.343478,403.42 214.543478,403.36 L214.543478,404.9 C214.143478,405.06 213.663478,405.14 213.183478,405.14 C212.303478,405.14 211.603478,404.8 211.263478,404.02 C210.323478,404.78 209.143478,405.26 207.643478,405.26 C205.903478,405.26 204.283478,404.3 204.283478,402.32 C204.283478,399.86 206.563478,399.1 208.563478,399.1 C209.383478,399.1 210.303478,399.22 211.063478,399.38 L211.063478,399.04 C211.063478,397.84 210.183478,397 208.543478,397 C207.123478,397 205.943478,397.36 205.083478,397.74 L205.083478,395.78 C205.843478,395.52 207.223478,395.14 208.763478,395.14 C211.483478,395.14 213.203478,396.44 213.203478,399.34 L213.203478,402.78 Z M208.983478,400.6 C207.763478,400.6 206.483478,400.98 206.483478,402.18 C206.483478,403.12 207.323478,403.6 208.283478,403.6 C209.303478,403.6 210.303478,403.22 211.063478,402.46 L211.063478,400.84 C210.483478,400.72 209.663478,400.6 208.983478,400.6 Z M219.706087,402.64 L222.566087,395.4 L224.806087,395.4 L220.306087,406.3 C219.266087,408.8 217.906087,409.64 216.446087,409.64 C216.026087,409.64 215.606087,409.58 215.186087,409.48 L215.186087,407.66 C215.506087,407.76 215.846087,407.8 216.166087,407.8 C217.206087,407.8 217.986087,407.06 218.546087,405.56 L218.746087,405.08 L214.186087,395.4 L216.466087,395.4 L219.706087,402.64 Z M226.468696,407.58 L224.448696,407.58 L224.448696,403.24 L225.768696,403.24 C226.928696,401.18 227.328696,398.74 227.288696,395.4 L234.788696,395.4 L234.788696,403.24 L236.208696,403.24 L236.208696,407.58 L234.188696,407.58 L234.188696,405 L226.468696,405 L226.468696,407.58 Z M229.288696,397.16 C229.208696,399.74 228.808696,401.54 228.008696,403.24 L232.628696,403.24 L232.628696,397.16 L229.288696,397.16 Z M237.151304,400.28 C237.151304,396.7 239.891304,395.14 242.451304,395.14 C243.531304,395.14 244.571304,395.38 245.411304,395.88 L245.411304,397.84 C244.711304,397.34 243.731304,397.04 242.751304,397.04 C241.051304,397.04 239.331304,397.94 239.331304,400.2 C239.331304,402.38 240.991304,403.36 242.711304,403.36 C243.731304,403.36 244.751304,403.06 245.511304,402.62 L245.511304,404.6 C244.591304,405.04 243.551304,405.26 242.331304,405.26 C239.771304,405.26 237.151304,403.7 237.151304,400.28 Z M246.673913,400.2 C246.673913,396.72 249.313913,395.14 251.533913,395.14 C255.353913,395.14 256.673913,398.22 256.053913,401 L248.833913,401 C249.073913,402.72 250.753913,403.44 252.513913,403.44 C253.673913,403.44 254.733913,403.16 255.553913,402.76 L255.553913,404.6 C254.673913,405.02 253.453913,405.26 252.113913,405.26 C249.173913,405.26 246.673913,403.58 246.673913,400.2 Z M254.133913,399.4 C254.253913,398.56 253.733913,396.92 251.633913,396.92 C250.193913,396.92 248.893913,397.78 248.813913,399.4 L254.133913,399.4 Z M259.816522,405 L257.976522,405 L257.976522,395.4 L260.116522,395.4 L260.116522,401.68 L265.256522,395.4 L267.096522,395.4 L267.096522,405 L264.956522,405 L264.956522,398.72 L259.816522,405 Z M273.37913,397.22 C273.09913,401.86 272.37913,405.18 269.81913,405.18 C269.41913,405.18 268.97913,405.1 268.49913,404.92 L268.49913,403.24 C268.71913,403.32 268.91913,403.36 269.11913,403.36 C270.73913,403.36 271.17913,400.16 271.35913,395.4 L278.75913,395.4 L278.75913,405 L276.61913,405 L276.61913,397.22 L273.37913,397.22 Z M211.026087,422.82 C212.406087,421.9 213.726087,421.52 215.286087,421.52 C217.546087,421.52 219.946087,422.94 219.946087,425.78 C219.946087,428.68 217.726087,430.24 215.066087,430.24 C211.126087,430.24 209.326087,427.62 209.326087,423.42 C209.326087,418.42 212.006087,416.16 215.506087,416.16 C216.666087,416.16 217.826087,416.44 218.806087,416.94 L218.806087,418.54 C217.786087,418 216.626087,417.76 215.546087,417.76 C213.266087,417.76 211.226087,419.06 211.026087,422.82 Z M211.046087,424.5 C211.306087,427.36 212.726087,428.68 214.946087,428.68 C216.766087,428.68 218.246087,427.92 218.246087,425.86 C218.246087,423.72 216.626087,423.08 214.866087,423.08 C213.526087,423.08 212.146087,423.52 211.046087,424.5 Z M230.688696,419.86 C230.688696,421.26 229.868696,422.46 228.708696,422.86 C229.868696,423.22 231.248696,424.22 231.248696,426.3 C231.248696,428.94 228.988696,430.24 226.268696,430.24 C224.328696,430.24 222.868696,429.94 221.528696,429.34 L221.528696,427.68 C222.908696,428.4 224.328696,428.68 226.128696,428.66 C228.128696,428.66 229.628696,428 229.628696,426.22 C229.628696,424.36 228.148696,423.78 226.308696,423.78 L224.228696,423.78 L224.228696,422.18 L226.128696,422.2 C228.108696,422.2 229.068696,421.26 229.068696,420 C229.068696,418.6 227.928696,417.72 225.848696,417.72 C224.408696,417.72 223.088696,418.06 221.768696,418.76 L221.768696,417.12 C222.988696,416.5 224.368696,416.16 226.068696,416.16 C228.848696,416.16 230.688696,417.66 230.688696,419.86 Z M237.691304,431.2 L236.091304,431.2 L244.271304,414.8 L245.871304,414.8 L237.691304,431.2 Z M239.231304,418.9 C239.231304,420.92 237.691304,422.04 235.971304,422.04 C234.231304,422.04 232.671304,420.92 232.671304,418.9 C232.671304,416.88 234.231304,415.76 235.971304,415.76 C237.691304,415.76 239.231304,416.88 239.231304,418.9 Z M234.191304,418.9 C234.191304,419.84 234.791304,420.64 235.971304,420.64 C237.111304,420.64 237.711304,419.84 237.711304,418.9 C237.711304,417.96 237.111304,417.16 235.971304,417.16 C234.791304,417.16 234.191304,417.96 234.191304,418.9 Z M249.271304,427.1 C249.271304,429.12 247.731304,430.24 246.011304,430.24 C244.271304,430.24 242.711304,429.12 242.711304,427.1 C242.711304,425.08 244.271304,423.96 246.011304,423.96 C247.731304,423.96 249.271304,425.08 249.271304,427.1 Z M244.231304,427.1 C244.231304,428.04 244.831304,428.84 246.011304,428.84 C247.151304,428.84 247.751304,428.04 247.751304,427.1 C247.751304,426.16 247.151304,425.36 246.011304,425.36 C244.831304,425.36 244.231304,426.16 244.231304,427.1 Z" id="Краудсеил-63%" fill="#000000"></path>
                <path d="M32.6108696,51 L30.3308696,51 L30.3308696,37 L42.0908696,37 L42.0908696,51 L39.8108696,51 L39.8108696,39.1 L32.6108696,39.1 L32.6108696,51 Z M44.0734783,46.2 C44.0734783,42.72 46.7134783,41.14 48.9334783,41.14 C52.7534783,41.14 54.0734783,44.22 53.4534783,47 L46.2334783,47 C46.4734783,48.72 48.1534783,49.44 49.9134783,49.44 C51.0734783,49.44 52.1334783,49.16 52.9534783,48.76 L52.9534783,50.6 C52.0734783,51.02 50.8534783,51.26 49.5134783,51.26 C46.5734783,51.26 44.0734783,49.58 44.0734783,46.2 Z M51.5334783,45.4 C51.6534783,44.56 51.1334783,42.92 49.0334783,42.92 C47.5934783,42.92 46.2934783,43.78 46.2134783,45.4 L51.5334783,45.4 Z M57.276087,42.9 C58.036087,41.98 59.176087,41.14 60.976087,41.14 C63.856087,41.14 65.736087,43.44 65.736087,46.2 C65.736087,48.96 63.856087,51.26 60.976087,51.26 C59.296087,51.26 58.176087,50.52 57.516087,49.76 L57.516087,55.4 L55.376087,55.4 L55.376087,41.4 L57.276087,41.4 L57.276087,42.9 Z M63.556087,46.2 C63.556087,44.32 62.316087,43.02 60.576087,43.02 C59.096087,43.02 57.976087,43.98 57.516087,45.02 L57.516087,47.36 C57.976087,48.42 59.096087,49.38 60.576087,49.38 C62.316087,49.38 63.556087,48.08 63.556087,46.2 Z M73.2386957,51 L67.5986957,51 L67.5986957,41.4 L73.0786957,41.4 C75.0186957,41.4 76.1186957,42.46 76.1186957,43.96 C76.1186957,45.02 75.5786957,45.78 74.7586957,46.14 C75.6586957,46.42 76.3986957,47.18 76.3986957,48.36 C76.3986957,49.84 75.4586957,51 73.2386957,51 Z M69.7386957,46.92 L69.7386957,49.38 L72.7186957,49.38 C73.5986957,49.38 74.2386957,49.08 74.2386957,48.16 C74.2386957,47.18 73.4986957,46.92 72.7586957,46.92 L69.7386957,46.92 Z M69.7386957,43.02 L69.7386957,45.4 L72.5986957,45.4 C73.3586957,45.4 73.9586957,45.1 73.9586957,44.24 C73.9586957,43.3 73.2586957,43.02 72.5986957,43.02 L69.7386957,43.02 Z M83.1013044,51 L78.3413044,51 L78.3413044,41.4 L80.4813044,41.4 L80.4813044,44.6 L83.1013044,44.6 C85.5213044,44.6 86.9013044,45.98 86.9013044,47.8 C86.9013044,49.6 85.5213044,51 83.1013044,51 Z M80.4813044,46.28 L80.4813044,49.3 L82.6813043,49.3 C83.9413043,49.3 84.7213043,48.78 84.7213043,47.8 C84.7213043,46.8 83.9413043,46.28 82.6813043,46.28 L80.4813044,46.28 Z M90.7613044,51 L88.6213044,51 L88.6213044,41.4 L90.7613044,41.4 L90.7613044,51 Z M92.6239131,46.2 C92.6239131,42.72 95.2639131,41.14 97.4839131,41.14 C101.303913,41.14 102.623913,44.22 102.003913,47 L94.7839131,47 C95.0239131,48.72 96.7039131,49.44 98.4639131,49.44 C99.6239131,49.44 100.683913,49.16 101.503913,48.76 L101.503913,50.6 C100.623913,51.02 99.4039131,51.26 98.0639131,51.26 C95.1239131,51.26 92.6239131,49.58 92.6239131,46.2 Z M100.083913,45.4 C100.203913,44.56 99.6839131,42.92 97.5839131,42.92 C96.1439131,42.92 94.8439131,43.78 94.7639131,45.4 L100.083913,45.4 Z M3.9043478,74 L1.7643478,74 L1.7643478,64.4 L10.8443478,64.4 L10.8443478,74 L8.7043478,74 L8.7043478,66.28 L3.9043478,66.28 L3.9043478,74 Z M12.7069565,69.2 C12.7069565,65.88 15.2269565,64.14 17.9069565,64.14 C20.6069565,64.14 23.1069565,65.88 23.1069565,69.2 C23.1069565,72.52 20.6069565,74.26 17.9069565,74.26 C15.2269565,74.26 12.7069565,72.52 12.7069565,69.2 Z M20.9269565,69.2 C20.9269565,67.32 19.6869565,66.1 17.9069565,66.1 C16.1069565,66.1 14.8669565,67.32 14.8669565,69.2 C14.8669565,71.08 16.1069565,72.3 17.9069565,72.3 C19.6869565,72.3 20.9269565,71.08 20.9269565,69.2 Z M28.5895652,66.22 C28.3095652,70.86 27.5895652,74.18 25.0295652,74.18 C24.6295652,74.18 24.1895652,74.1 23.7095652,73.92 L23.7095652,72.24 C23.9295652,72.32 24.1295652,72.36 24.3295652,72.36 C25.9495652,72.36 26.3895652,69.16 26.5695652,64.4 L33.9695652,64.4 L33.9695652,74 L31.8295652,74 L31.8295652,66.22 L28.5895652,66.22 Z M41.1921739,74 L36.4321739,74 L36.4321739,64.4 L38.5721739,64.4 L38.5721739,67.6 L41.1921739,67.6 C43.6121739,67.6 44.9921739,68.98 44.9921739,70.8 C44.9921739,72.6 43.6121739,74 41.1921739,74 Z M38.5721739,69.28 L38.5721739,72.3 L40.7721739,72.3 C42.0321739,72.3 42.8121739,71.78 42.8121739,70.8 C42.8121739,69.8 42.0321739,69.28 40.7721739,69.28 L38.5721739,69.28 Z M54.1547826,71.38 C54.1547826,73.06 52.6147826,74.26 49.6547826,74.26 C48.2147826,74.26 46.9347826,73.94 46.0547826,73.48 L46.0547826,71.64 C46.8347826,72.08 48.2147826,72.44 49.3747826,72.44 C50.7947826,72.44 51.9947826,72.18 51.9947826,71.12 C51.9947826,70.1 50.9547826,69.94 49.9947826,69.94 L48.0347826,69.94 L48.0347826,68.3 L49.9947826,68.3 C51.0147826,68.3 51.7947826,68.02 51.7947826,67.22 C51.7947826,66.36 50.8747826,65.94 49.4947826,65.94 C48.3747826,65.94 47.0547826,66.28 46.2347826,66.72 L46.2347826,64.88 C47.1547826,64.44 48.4347826,64.12 49.7547826,64.12 C52.7147826,64.12 53.9547826,65.38 53.9547826,66.94 C53.9547826,68.08 53.2547826,68.82 52.2547826,69.08 C53.3547826,69.38 54.1547826,70.18 54.1547826,71.38 Z M55.4773913,69.2 C55.4773913,65.88 57.9973913,64.14 60.6773913,64.14 C63.3773913,64.14 65.8773913,65.88 65.8773913,69.2 C65.8773913,72.52 63.3773913,74.26 60.6773913,74.26 C57.9973913,74.26 55.4773913,72.52 55.4773913,69.2 Z M63.6973913,69.2 C63.6973913,67.32 62.4573913,66.1 60.6773913,66.1 C58.8773913,66.1 57.6373913,67.32 57.6373913,69.2 C57.6373913,71.08 58.8773913,72.3 60.6773913,72.3 C62.4573913,72.3 63.6973913,71.08 63.6973913,69.2 Z M73.38,74 L67.74,74 L67.74,64.4 L73.22,64.4 C75.16,64.4 76.26,65.46 76.26,66.96 C76.26,68.02 75.72,68.78 74.9,69.14 C75.8,69.42 76.54,70.18 76.54,71.36 C76.54,72.84 75.6,74 73.38,74 Z M69.88,69.92 L69.88,72.38 L72.86,72.38 C73.74,72.38 74.38,72.08 74.38,71.16 C74.38,70.18 73.64,69.92 72.9,69.92 L69.88,69.92 Z M69.88,66.02 L69.88,68.4 L72.74,68.4 C73.5,68.4 74.1,68.1 74.1,67.24 C74.1,66.3 73.4,66.02 72.74,66.02 L69.88,66.02 Z M86.6626087,71.78 C86.6626087,72.32 86.9826087,72.48 87.3626087,72.48 C87.5826087,72.48 87.8026087,72.42 88.0026087,72.36 L88.0026087,73.9 C87.6026087,74.06 87.1226087,74.14 86.6426087,74.14 C85.7626087,74.14 85.0626087,73.8 84.7226087,73.02 C83.7826087,73.78 82.6026087,74.26 81.1026087,74.26 C79.3626087,74.26 77.7426087,73.3 77.7426087,71.32 C77.7426087,68.86 80.0226087,68.1 82.0226087,68.1 C82.8426087,68.1 83.7626087,68.22 84.5226087,68.38 L84.5226087,68.04 C84.5226087,66.84 83.6426087,66 82.0026087,66 C80.5826087,66 79.4026087,66.36 78.5426087,66.74 L78.5426087,64.78 C79.3026087,64.52 80.6826087,64.14 82.2226087,64.14 C84.9426087,64.14 86.6626087,65.44 86.6626087,68.34 L86.6626087,71.78 Z M82.4426087,69.6 C81.2226087,69.6 79.9426087,69.98 79.9426087,71.18 C79.9426087,72.12 80.7826087,72.6 81.7426087,72.6 C82.7626087,72.6 83.7626087,72.22 84.5226087,71.46 L84.5226087,69.84 C83.9426087,69.72 83.1226087,69.6 82.4426087,69.6 Z M93.4652174,74 L91.3252174,74 L91.3252174,66.28 L88.0052174,66.28 L88.0052174,64.4 L96.7652174,64.4 L96.7652174,66.28 L93.4652174,66.28 L93.4652174,74 Z M97.3678261,69.2 C97.3678261,65.72 100.007826,64.14 102.227826,64.14 C106.047826,64.14 107.367826,67.22 106.747826,70 L99.5278261,70 C99.7678261,71.72 101.447826,72.44 103.207826,72.44 C104.367826,72.44 105.427826,72.16 106.247826,71.76 L106.247826,73.6 C105.367826,74.02 104.147826,74.26 102.807826,74.26 C99.8678261,74.26 97.3678261,72.58 97.3678261,69.2 Z M104.827826,68.4 C104.947826,67.56 104.427826,65.92 102.327826,65.92 C100.887826,65.92 99.5878261,66.78 99.5078261,68.4 L104.827826,68.4 Z M112.490435,66.22 C112.210435,70.86 111.490435,74.18 108.930435,74.18 C108.530435,74.18 108.090435,74.1 107.610435,73.92 L107.610435,72.24 C107.830435,72.32 108.030435,72.36 108.230435,72.36 C109.850435,72.36 110.290435,69.16 110.470435,64.4 L117.870435,64.4 L117.870435,74 L115.730435,74 L115.730435,66.22 L112.490435,66.22 Z M122.173044,74 L120.333044,74 L120.333044,64.4 L122.473044,64.4 L122.473044,70.68 L127.613044,64.4 L129.453044,64.4 L129.453044,74 L127.313044,74 L127.313044,67.72 L122.173044,74 Z M46.616087,86.48 C47.976087,85.54 49.476087,85.16 50.976087,85.16 C53.756087,85.16 55.616087,86.48 55.616087,88.8 C55.616087,91.12 53.676087,92.46 51.776087,93.58 C49.876087,94.7 48.016087,95.62 47.976087,97.42 L55.716087,97.4 L55.716087,99 L46.136087,99 L46.136087,98.2 C46.136087,94.88 48.576087,93.62 50.696087,92.38 C52.396087,91.38 53.936087,90.54 53.936087,88.78 C53.936087,87.44 52.796087,86.72 50.836087,86.72 C49.456087,86.72 48.016087,87.18 46.616087,88.16 L46.616087,86.48 Z M66.7186957,88.86 C66.7186957,90.26 65.8986957,91.46 64.7386957,91.86 C65.8986957,92.22 67.2786957,93.22 67.2786957,95.3 C67.2786957,97.94 65.0186957,99.24 62.2986957,99.24 C60.3586957,99.24 58.8986957,98.94 57.5586957,98.34 L57.5586957,96.68 C58.9386957,97.4 60.3586957,97.68 62.1586957,97.66 C64.1586956,97.66 65.6586956,97 65.6586956,95.22 C65.6586956,93.36 64.1786957,92.78 62.3386957,92.78 L60.2586957,92.78 L60.2586957,91.18 L62.1586957,91.2 C64.1386957,91.2 65.0986957,90.26 65.0986957,89 C65.0986957,87.6 63.9586957,86.72 61.8786957,86.72 C60.4386957,86.72 59.1186957,87.06 57.7986957,87.76 L57.7986957,86.12 C59.0186957,85.5 60.3986957,85.16 62.0986957,85.16 C64.8786956,85.16 66.7186957,86.66 66.7186957,88.86 Z M73.7213043,100.2 L72.1213044,100.2 L80.3013044,83.8 L81.9013044,83.8 L73.7213043,100.2 Z M75.2613044,87.9 C75.2613044,89.92 73.7213043,91.04 72.0013043,91.04 C70.2613044,91.04 68.7013044,89.92 68.7013044,87.9 C68.7013044,85.88 70.2613044,84.76 72.0013043,84.76 C73.7213043,84.76 75.2613044,85.88 75.2613044,87.9 Z M70.2213044,87.9 C70.2213044,88.84 70.8213044,89.64 72.0013044,89.64 C73.1413044,89.64 73.7413044,88.84 73.7413044,87.9 C73.7413044,86.96 73.1413044,86.16 72.0013044,86.16 C70.8213044,86.16 70.2213044,86.96 70.2213044,87.9 Z M85.3013044,96.1 C85.3013044,98.12 83.7613044,99.24 82.0413044,99.24 C80.3013044,99.24 78.7413044,98.12 78.7413044,96.1 C78.7413044,94.08 80.3013044,92.96 82.0413044,92.96 C83.7613044,92.96 85.3013044,94.08 85.3013044,96.1 Z M80.2613044,96.1 C80.2613044,97.04 80.8613044,97.84 82.0413044,97.84 C83.1813044,97.84 83.7813043,97.04 83.7813043,96.1 C83.7813043,95.16 83.1813044,94.36 82.0413044,94.36 C80.8613044,94.36 80.2613044,95.16 80.2613044,96.1 Z" id="Первые-пользователи" fill="#000000"></path>
            </g>
        </g>
    </g>
</svg>