<?xml version="1.0" encoding="UTF-8"?>
<svg width="50px" height="50px" viewBox="0 0 50 50" version="1.1" xmlns="http://www.w3.org/2000/svg" xmlns:xlink="http://www.w3.org/1999/xlink">
    <!-- Generator: Sketch 48.2 (47327) - http://www.bohemiancoding.com/sketch -->
    <title>Group 25 Copy</title>
    <desc>Created with Sketch.</desc>
    <defs>
        <linearGradient x1="-6.17879232%" y1="120.762126%" x2="106.178792%" y2="120.762126%" id="linearGradient-1">
            <stop stop-color="#3C9FD9" offset="0%"></stop>
            <stop stop-color="#3C6DD9" offset="100%"></stop>
        </linearGradient>
    </defs>
    <g id="Monoreto-4" stroke="none" stroke-width="1" fill="none" fill-rule="evenodd" transform="translate(-408.000000, -4931.000000)">
        <g id="Social" transform="translate(408.000000, 4842.000000)">
            <g id="social" transform="translate(0.000000, 89.000000)">
                <g id="Group-25-Copy">
                    <circle id="Oval-3-Copy-4" fill="url(#linearGradient-1)" cx="25" cy="25" r="25"></circle>
                    <g id="004-telegram" transform="translate(10.714286, 12.857143)" fill="#FFFFFF" fill-rule="nonzero">
                        <path d="M26.9890067,0.660722222 L1.04637277,10.6241111 C0.406194196,10.8698889 0.411774554,11.7722778 1.05379464,12.0117778 L7.37511161,14.3606111 L9.8218192,22.1942778 C9.97840402,22.696 10.5946429,22.8814444 11.003683,22.5485556 L14.5272321,19.6888333 C14.8965402,19.3892222 15.4226562,19.3742778 15.8086496,19.6532222 L22.1639509,24.2468333 C22.6015067,24.5634444 23.2213728,24.3247222 23.3311942,23.7983889 L27.9867746,1.50366667 C28.1064732,0.928611111 27.5390067,0.449 26.9890067,0.660722222 Z M22.0448661,5.85622222 L12.3476562,14.8301667 C12.006808,15.1460556 11.786942,15.5687778 11.7246652,16.0275556 L11.394308,18.4646667 C11.350558,18.7901111 10.8914062,18.8223889 10.8012277,18.5074444 L9.53080357,14.0633333 C9.38526786,13.5564444 9.59732143,13.015 10.0477121,12.7382778 L21.7977679,5.53361111 C22.0089286,5.4045 22.2261719,5.68877778 22.0448661,5.85622222 Z" id="Shape"></path>
                    </g>
                </g>
            </g>
        </g>
    </g>
</svg>