<?xml version="1.0" encoding="UTF-8"?>
<svg width="50px" height="50px" viewBox="0 0 50 50" version="1.1" xmlns="http://www.w3.org/2000/svg" xmlns:xlink="http://www.w3.org/1999/xlink">
    <!-- Generator: Sketch 48.2 (47327) - http://www.bohemiancoding.com/sketch -->
    <title>Group 26 Copy</title>
    <desc>Created with Sketch.</desc>
    <defs>
        <linearGradient x1="-6.17879232%" y1="120.762126%" x2="106.178792%" y2="120.762126%" id="linearGradient-1">
            <stop stop-color="#528DDE" offset="0%"></stop>
            <stop stop-color="#525BDE" offset="100%"></stop>
        </linearGradient>
    </defs>
    <g id="Monoreto-4" stroke="none" stroke-width="1" fill="none" fill-rule="evenodd" transform="translate(-497.000000, -4931.000000)">
        <g id="Social" transform="translate(408.000000, 4842.000000)">
            <g id="social" transform="translate(0.000000, 89.000000)">
                <g id="Group-26-Copy" transform="translate(89.000000, 0.000000)">
                    <circle id="Oval-3-Copy" fill="url(#linearGradient-1)" cx="25" cy="25" r="25"></circle>
                    <g id="006-facebook" transform="translate(17.857143, 10.714286)" fill="#FFFFFF" fill-rule="nonzero">
                        <path d="M1.04244444,15.1800223 L4.03616667,15.1800223 L4.03616667,27.5598214 C4.03616667,27.8042411 4.23333333,28.0022879 4.47666667,28.0022879 L9.55272222,28.0022879 C9.79605556,28.0022879 9.99322222,27.8042411 9.99322222,27.5598214 L9.99322222,15.2383371 L13.4347778,15.2383371 C13.6585556,15.2383371 13.8468333,15.0696429 13.8723889,14.8464286 L14.3951111,10.2888393 C14.4094444,10.1634487 14.3698889,10.0378348 14.2863889,9.9438058 C14.2027778,9.84966518 14.0831667,9.79575893 13.9575556,9.79575893 L9.99333333,9.79575893 L9.99333333,6.93883929 C9.99333333,6.07762277 10.4549444,5.64090402 11.3655556,5.64090402 L13.9574444,5.64090402 C14.2007778,5.64090402 14.3979444,5.44280134 14.3979444,5.1984375 L14.3979444,1.01489955 C14.3979444,0.770479911 14.2007778,0.572433036 13.9574444,0.572433036 L10.3853889,0.572433036 C10.3602778,0.571205357 10.3043889,0.569140625 10.2218889,0.569140625 C9.60211111,0.569140625 7.44777778,0.691350446 5.746,2.26389509 C3.86044444,4.00652902 4.12255556,6.09302455 4.18516667,6.45479911 L4.18516667,9.79559152 L1.04233333,9.79559152 C0.799,9.79559152 0.601833333,9.99363839 0.601833333,10.238058 L0.601833333,14.7374442 C0.601944444,14.9819196 0.799111111,15.1800223 1.04244444,15.1800223 Z" id="Shape"></path>
                    </g>
                </g>
            </g>
        </g>
    </g>
</svg>