<?xml version="1.0" encoding="UTF-8" standalone="no"?>
<svg width="50px" height="51px" viewBox="0 0 50 51" version="1.1" xmlns="http://www.w3.org/2000/svg" xmlns:xlink="http://www.w3.org/1999/xlink">
    <!-- Generator: Sketch 49 (51002) - http://www.bohemiancoding.com/sketch -->
    <title>bitalk</title>
    <desc>Created with Sketch.</desc>
    <defs>
        <linearGradient x1="0%" y1="42.3881644%" x2="100%" y2="58.3308371%" id="linearGradient-1">
            <stop stop-color="#FFD700" offset="0%"></stop>
            <stop stop-color="#FFAE00" offset="100%"></stop>
        </linearGradient>
    </defs>
    <g id="Monoreto" stroke="none" stroke-width="1" fill="none" fill-rule="evenodd">
        <g id="Monoreto-5" transform="translate(-743.000000, -568.000000)">
            <g id="bitalk" transform="translate(743.000000, 568.000000)">
                <path d="M49.999949,25.6555789 C49.999949,39.460137 38.8024046,50.6492716 24.9978466,50.6492716 C11.1932885,50.6492716 -5.1009516e-05,39.460137 -5.1009516e-05,25.6555789 C-5.1009516e-05,11.8426111 11.1932885,0.65768133 24.9978466,0.65768133 C38.8024046,0.653476469 49.999949,11.8426111 49.999949,25.6555789 Z" id="Bitcoin" fill="url(#linearGradient-1)" fill-rule="nonzero"></path>
                <path d="M35.287141,19.0497426 C35.7118319,19.9748119 35.8253632,20.9335202 35.6361444,21.9090479 C35.5057937,22.6154645 35.2240681,23.2630131 34.7993771,23.8558985 C34.378891,24.4319644 33.8322591,24.9239331 33.1636863,25.3023706 C32.4993183,25.6766032 31.6667558,25.9457143 30.6702038,26.0928844 C31.6247072,26.5301899 32.3479433,26.9632906 32.8230925,27.375367 C33.5126897,27.9514329 34.017273,28.6662592 34.3284327,29.5366654 C34.6353876,30.3986619 34.6984605,31.302707 34.5218563,32.269825 C34.3074084,33.4135471 33.7607765,34.4058943 32.8945752,35.2216373 C32.024169,36.0710191 30.9098809,36.6260608 29.5559157,36.8867621 C29.0555373,36.9750642 28.487881,37.0339323 27.8613568,37.042342 L27.1339159,40.8855848 L23.4840967,40.2128071 L24.1484647,36.6554948 C24.0559577,36.6218559 23.9718605,36.6218559 23.8793536,36.6050365 L21.7979475,36.2181893 L21.1377843,39.7670918 L17.4837603,39.0859044 L18.1439234,35.5285921 L12.5766877,34.4857866 L13.1317293,31.5045403 L13.9895209,31.6601201 C14.5571771,31.7778563 14.9440243,31.8030854 15.166882,31.7273979 C15.3897396,31.6685299 15.5537292,31.5549986 15.6714653,31.3994188 C15.7934062,31.2354292 15.9069375,30.8317626 16.0204687,30.2094432 L18.2700692,18.1835412 C18.3920102,17.5528121 18.4256491,17.132326 18.3751908,16.9389024 C18.3247324,16.7454788 18.2112012,16.5814893 18.0261873,16.4511386 C17.8495832,16.3039684 17.4711457,16.1694129 16.9034895,16.0811108 L16.0499027,15.9087115 L16.6049444,12.9274652 L22.1805898,13.9786804 L22.8533675,10.4171633 L26.5073916,11.1067605 L25.8388187,14.6514581 L28.1851311,15.0929685 L28.8537039,11.544066 L32.5035231,12.2252534 L31.7929016,16.0222428 C32.3143044,16.2282809 32.7936585,16.4427288 33.1678911,16.6992254 C34.1476237,17.3509788 34.8582452,18.1246732 35.287141,19.0497426 Z M29.0345129,19.1044057 C28.5341345,18.8394995 27.5964505,18.5703884 26.2088465,18.3138919 L23.8457147,17.8723815 L22.8617773,23.1284575 L25.2291139,23.5741728 C26.4611381,23.8012353 27.3988221,23.8601033 28.0337561,23.7633915 C28.6644852,23.6792943 29.1606588,23.448027 29.5433011,23.0864089 C29.909124,22.7332006 30.1572108,22.2790757 30.2581274,21.724034 C30.3674538,21.1563778 30.3169955,20.6475897 30.1025476,20.1934647 C29.9007143,19.7477494 29.547506,19.3945411 29.0345129,19.1044057 Z M28.8915477,28.9395752 C28.6686901,28.4391968 28.2902526,28.0145058 27.735211,27.6865267 C27.1801693,27.3501378 26.2971486,27.0768219 25.0693292,26.8455545 L22.2730967,26.3283566 L21.4026906,30.9873424 C21.297569,31.6390958 21.2471107,32.0469673 21.2597253,32.1562937 C21.2849545,32.3118736 21.3522322,32.4254048 21.4573538,32.5010923 C21.570885,32.5725749 21.8820447,32.6734916 22.4076523,32.7617937 L23.9802702,33.0645437 C24.9011348,33.2285332 25.6748292,33.2874013 26.3097631,33.2285332 C26.9446971,33.1696652 27.5207631,32.9089638 28.0463707,32.4548388 C28.5635685,31.9838944 28.8915477,31.3952139 29.0387178,30.6341341 C29.1480442,29.9992001 29.1059956,29.4357488 28.8915477,28.9395752 Z" id="Combined-Shape" fill="#FFFFFF" transform="translate(24.150637, 25.651374) rotate(-11.000000) translate(-24.150637, -25.651374) "></path>
            </g>
        </g>
    </g>
</svg>