<?xml version="1.0" encoding="UTF-8"?>
<svg width="50px" height="50px" viewBox="0 0 50 50" version="1.1" xmlns="http://www.w3.org/2000/svg" xmlns:xlink="http://www.w3.org/1999/xlink">
    <!-- Generator: Sketch 48.2 (47327) - http://www.bohemiancoding.com/sketch -->
    <title>Group 29 Copy</title>
    <desc>Created with Sketch.</desc>
    <defs>
        <linearGradient x1="-6.17879232%" y1="120.762126%" x2="106.178792%" y2="120.762126%" id="linearGradient-1">
            <stop stop-color="#5DC4FB" offset="0%"></stop>
            <stop stop-color="#5D92FB" offset="100%"></stop>
        </linearGradient>
    </defs>
    <g id="Monoreto-4" stroke="none" stroke-width="1" fill="none" fill-rule="evenodd" transform="translate(-675.000000, -4931.000000)">
        <g id="Social" transform="translate(408.000000, 4842.000000)">
            <g id="social" transform="translate(0.000000, 89.000000)">
                <g id="Group-29-Copy" transform="translate(267.000000, 0.000000)">
                    <circle id="Oval-3-Copy-3" fill="url(#linearGradient-1)" cx="25" cy="25" r="25"></circle>
                    <g id="002-twitter" transform="translate(10.714286, 13.571429)" fill="#FFFFFF" fill-rule="nonzero">
                        <path d="M27.3816406,3.1802527 C26.9506696,3.37065869 26.5075893,3.53137803 26.0547991,3.66185478 C26.5908482,3.05794811 26.9994978,2.34735849 27.2489397,1.56983491 C27.3049107,1.39555088 27.246875,1.20475573 27.103125,1.09079009 C26.9595424,0.976713275 26.759933,0.963037399 26.6017857,1.05643363 C25.6402902,1.62453841 24.6029576,2.03281334 23.5152902,2.27152965 C22.4196429,1.2049781 20.931529,0.598013814 19.3930804,0.598013814 C16.1457589,0.598013814 13.5038504,3.22984164 13.5038504,6.46485344 C13.5038504,6.71963612 13.5200893,6.97302898 13.5520647,7.22280829 C9.52248884,6.87034872 5.77622768,4.89718666 3.20368304,1.75345856 C3.11199777,1.64143868 2.97075893,1.5810091 2.82617187,1.59251685 C2.68147321,1.60380222 2.5515067,1.68513477 2.47840402,1.80999663 C1.95664062,2.70193059 1.68080357,3.7220064 1.68080357,4.75992756 C1.68080357,6.17360175 2.18738839,7.51483827 3.08236607,8.56293295 C2.81026786,8.46903639 2.54614955,8.35173518 2.29414062,8.21230795 C2.15887277,8.13731301 1.9936942,8.13842487 1.8593192,8.21519879 C1.72483259,8.29197271 1.64045759,8.4332345 1.63694196,8.58761624 C1.63632812,8.61363376 1.63632812,8.63959569 1.63632812,8.66600236 C1.63632812,10.7761456 2.77628348,12.6759249 4.51925223,13.7113999 C4.36953125,13.696501 4.21986607,13.6748753 4.07120536,13.6465785 C3.91791295,13.6173922 3.76032366,13.6709282 3.65697545,13.7873956 C3.55345982,13.9037517 3.51919643,14.065972 3.56685268,14.2140718 C4.21199777,16.2205896 5.87293527,17.6964724 7.88091518,18.146442 C6.2155692,19.1855863 4.31104911,19.7298972 2.31177455,19.7298972 C1.89464286,19.7298972 1.4750558,19.7054363 1.06445312,19.6570704 C0.860491071,19.6329431 0.665401786,19.7529127 0.595982143,19.946154 C0.526506696,20.1395064 0.600111607,20.3550404 0.773660714,20.4658929 C3.34202009,22.1064976 6.31188616,22.9736371 9.36183036,22.9736371 C15.3577009,22.9736371 19.1085379,20.156907 21.1992746,17.7939269 C23.8063058,14.8474983 25.3015625,10.9475387 25.3015625,7.09416611 C25.3015625,6.9331688 25.2990513,6.77061489 25.2940848,6.60856132 C26.3226562,5.83654144 27.2082031,4.90219003 27.9288504,3.8283558 C28.0382812,3.66530155 28.0264509,3.44971193 27.8996652,3.29955526 C27.7728795,3.14934299 27.5618304,3.10075472 27.3816406,3.1802527 Z" id="Shape"></path>
                    </g>
                </g>
            </g>
        </g>
    </g>
</svg>