<?xml version="1.0" encoding="UTF-8" standalone="no"?>
<svg width="50px" height="50px" viewBox="0 0 50 50" version="1.1" xmlns="http://www.w3.org/2000/svg" xmlns:xlink="http://www.w3.org/1999/xlink">
    <!-- Generator: Sketch 49 (51002) - http://www.bohemiancoding.com/sketch -->
    <title>insta</title>
    <desc>Created with Sketch.</desc>
    <defs>
        <linearGradient x1="-6.17879232%" y1="120.762126%" x2="106.178792%" y2="120.762126%" id="linearGradient-1">
            <stop stop-color="#FB5A5F" offset="0%"></stop>
            <stop stop-color="#FF2230" offset="100%"></stop>
        </linearGradient>
    </defs>
    <g id="Monoreto" stroke="none" stroke-width="1" fill="none" fill-rule="evenodd">
        <g id="Monoreto-5" transform="translate(-889.000000, -592.000000)">
            <g id="First" transform="translate(230.000000, -570.000000)">
                <g id="social" transform="translate(358.000000, 1162.000000)">
                    <g id="insta" transform="translate(301.000000, 0.000000)">
                        <circle id="Oval-3-Copy-5" fill="url(#linearGradient-1)" cx="25" cy="25" r="25"></circle>
                        <path d="M16.21,13.001 L34.7915,13.001 C36.5568333,13.001 38,14.4446667 38,16.21 L38,34.7915 C38,36.5563333 36.5568333,37.999 34.7915,37.999 L16.21,37.999 C14.4446667,37.999 13,36.55625 13,34.7915 L13,16.21 C13,14.4446667 14.4446667,13.001 16.21,13.001 Z M31.2121667,15.7774167 C30.5923333,15.7774167 30.08675,16.285 30.08675,16.9045 L30.08675,19.5973333 C30.08675,20.2170833 30.5923333,20.7235 31.2121667,20.7235 L34.0374167,20.7235 C34.65625,20.7235 35.1629167,20.2170833 35.1629167,19.5973333 L35.1629167,16.9045 C35.1629167,16.285 34.65625,15.7774167 34.0374167,15.7774167 L31.2121667,15.7774167 Z M35.1736667,23.5723333 L32.974,23.5723333 C33.1825833,24.2535833 33.2956667,24.972 33.2956667,25.7189167 C33.2956667,29.87575 29.8151667,33.24725 25.5235,33.24725 C21.2329167,33.24725 17.7523333,29.87575 17.7523333,25.7189167 C17.7523333,24.972 17.8665,24.2535833 18.0740833,23.5723333 L15.7791667,23.5723333 L15.7791667,34.1333333 C15.7791667,34.68025 16.22575,35.1251667 16.7721667,35.1251667 L34.1810833,35.1251667 C34.728,35.1251667 35.1736667,34.68025 35.1736667,34.1333333 L35.1736667,23.5723333 Z M25.5235833,20.5815 C22.7519167,20.5815 20.5035833,22.7588333 20.5035833,25.4471667 C20.5035833,28.13275 22.7519167,30.31175 25.5235833,30.31175 C28.29675,30.31175 30.5451667,28.13275 30.5451667,25.4471667 C30.5451667,22.75875 28.29675,20.5815 25.5235833,20.5815 Z" id="XMLID_505_" fill="#FFFFFF" fill-rule="nonzero"></path>
                    </g>
                </g>
            </g>
        </g>
    </g>
</svg>