<?xml version="1.0" encoding="UTF-8" standalone="no"?>
<svg width="50px" height="50px" viewBox="0 0 50 50" version="1.1" xmlns="http://www.w3.org/2000/svg" xmlns:xlink="http://www.w3.org/1999/xlink">
    <!-- Generator: Sketch 49 (51002) - http://www.bohemiancoding.com/sketch -->
    <title>001-linkedin</title>
    <desc>Created with Sketch.</desc>
    <defs>
        <linearGradient x1="0%" y1="50%" x2="100%" y2="50%" id="linearGradient-1">
            <stop stop-color="#20AED3" offset="0%"></stop>
            <stop stop-color="#0E76A8" offset="100%"></stop>
        </linearGradient>
    </defs>
    <g id="Monoreto" stroke="none" stroke-width="1" fill="none" fill-rule="evenodd">
        <g id="Monoreto-5" transform="translate(-1067.000000, -607.000000)" fill-rule="nonzero">
            <g id="001-linkedin" transform="translate(1067.000000, 607.000000)">
                <path d="M24.9416096,0 C38.7172945,0 49.8833904,11.167637 49.8833904,24.9417808 C49.8833904,38.7159247 38.7172945,49.8833904 24.9416096,49.8833904 C11.1659247,49.8833904 0,38.7157534 0,24.9417808 C0,11.1678082 11.1660959,0 24.9416096,0 Z" id="Shape" fill="url(#linearGradient-1)"></path>
                <path d="M14.0546233,34.269863 L18.725,34.269863 L18.725,18.7030822 L14.0546233,18.7030822 L14.0546233,34.269863 Z M32.2496575,18.1638699 C29.9830479,18.1638699 27.9549658,18.9916096 26.5162671,20.8186644 L26.5162671,18.6518836 L21.8287671,18.6518836 L21.8287671,34.2700342 L26.5162671,34.2700342 L26.5162671,25.8241438 C26.5162671,24.0392123 28.1515411,22.2979452 30.1998288,22.2979452 C32.2481164,22.2979452 32.7532534,24.0392123 32.7532534,25.7804795 L32.7532534,34.2684932 L37.4236301,34.2684932 L37.4236301,25.4328767 C37.4234589,19.2955479 34.5178082,18.1638699 32.2496575,18.1638699 Z M16.3679795,17.1474315 C17.6587329,17.1474315 18.7063356,16.0998288 18.7063356,14.8090753 C18.7063356,13.5183219 17.6587329,12.4708904 16.3679795,12.4708904 C15.077226,12.4708904 14.0296233,13.5184932 14.0296233,14.8092466 C14.0296233,16.1 15.077226,17.1474315 16.3679795,17.1474315 Z" id="Shape" fill="#FFFFFF"></path>
            </g>
        </g>
    </g>
</svg>