<?xml version="1.0" encoding="UTF-8" standalone="no"?>
<svg width="50px" height="50px" viewBox="0 0 50 50" version="1.1" xmlns="http://www.w3.org/2000/svg" xmlns:xlink="http://www.w3.org/1999/xlink">
    <!-- Generator: Sketch 49 (51002) - http://www.bohemiancoding.com/sketch -->
    <title>reddit</title>
    <desc>Created with Sketch.</desc>
    <defs>
        <linearGradient x1="0%" y1="50%" x2="100%" y2="50%" id="linearGradient-1">
            <stop stop-color="#FF7B00" offset="0%"></stop>
            <stop stop-color="#FF4500" offset="100%"></stop>
        </linearGradient>
    </defs>
    <g id="Monoreto" stroke="none" stroke-width="1" fill="none" fill-rule="evenodd">
        <g id="Monoreto-5" transform="translate(-763.000000, -670.000000)" fill-rule="nonzero">
            <g id="reddit" transform="translate(763.000000, 670.000000)">
                <circle id="Oval" fill="url(#linearGradient-1)" cx="24.9404762" cy="24.9404762" r="24.9404762"></circle>
                <path d="M41.577381,24.9404762 C41.583194,23.4789023 40.712096,22.1563256 39.3670121,21.5845025 C38.0219283,21.0126795 36.465112,21.3030992 35.4166667,22.3214286 C32.9166667,20.5357143 29.4940476,19.375 25.6845238,19.2261905 L27.3511905,11.4285714 L32.7678571,12.5892857 C32.8179025,13.8938043 33.8312579,14.9570389 35.1318692,15.0696588 C36.4324806,15.1822787 37.6135138,14.3090562 37.8870494,13.0325565 C38.1605851,11.7560568 37.4410606,10.475572 36.2085026,10.0453699 C34.9759445,9.61516776 33.6158998,10.1698166 33.0357143,11.3392857 L26.9940476,10.0595238 C26.8154762,10.0297619 26.6369048,10.0595238 26.5178571,10.1488095 C26.3722779,10.2421881 26.2745119,10.3942686 26.25,10.5654762 L24.4047619,19.2559524 C20.5357143,19.375 17.0535714,20.5357143 14.5238095,22.3511905 C13.4823138,21.3485863 11.9452804,21.0593399 10.6105842,21.6147808 C9.27588805,22.1702217 8.39785183,23.4645121 8.37513932,24.9099922 C8.35242682,26.3554722 9.18936584,27.6767096 10.5059524,28.2738095 C10.4464286,28.6309524 10.4166667,28.9880952 10.4166667,29.375 C10.4166667,34.9702381 16.9345238,39.5238095 24.9702381,39.5238095 C33.0059524,39.5238095 39.5238095,35 39.5238095,29.375 C39.5237662,29.0061304 39.493907,28.6378678 39.4345238,28.2738095 C40.6845238,27.7083333 41.577381,26.4285714 41.577381,24.9404762 Z M16.6369048,27.5297619 C16.6369047,26.6046992 17.1304198,25.749906 17.9315476,25.2873746 C18.7326754,24.8248432 19.7197056,24.8248432 20.5208334,25.2873746 C21.3219612,25.749906 21.8154762,26.6046992 21.8154762,27.5297619 C21.8154762,28.9597849 20.6562135,30.1190476 19.2261905,30.1190476 C17.7961675,30.1190476 16.6369048,28.9597849 16.6369048,27.5297619 Z M31.1309524,34.4047619 C29.3452381,36.1904762 25.952381,36.3095238 24.9702381,36.3095238 C23.9583333,36.3095238 20.5654762,36.1607143 18.8095238,34.4047619 C18.5416667,34.1369048 18.5416667,33.7202381 18.8095238,33.452381 C19.077381,33.1845238 19.4940476,33.1845238 19.7619048,33.452381 C20.8928571,34.5833333 23.2738095,34.9702381 24.9702381,34.9702381 C26.6666667,34.9702381 29.077381,34.5833333 30.1785714,33.452381 C30.4464286,33.1845238 30.8630952,33.1845238 31.1309524,33.452381 C31.3690476,33.7202381 31.3690476,34.1369048 31.1309524,34.4047619 Z M30.6547619,30.1488095 C29.2247389,30.1488095 28.0654762,28.9895468 28.0654762,27.5595238 C28.0654762,26.1295008 29.2247389,24.9702381 30.6547619,24.9702381 C32.0847849,24.9702381 33.2440476,26.1295008 33.2440476,27.5595238 C33.2440476,28.9895468 32.0847849,30.1488095 30.6547619,30.1488095 Z" id="Shape" fill="#FFFFFF"></path>
            </g>
        </g>
    </g>
</svg>