<?xml version="1.0" encoding="UTF-8" standalone="no"?>
<svg width="50px" height="50px" viewBox="0 0 50 50" version="1.1" xmlns="http://www.w3.org/2000/svg" xmlns:xlink="http://www.w3.org/1999/xlink">
    <!-- Generator: Sketch 49 (51002) - http://www.bohemiancoding.com/sketch -->
    <title>Steemit</title>
    <desc>Created with Sketch.</desc>
    <defs>
        <linearGradient x1="-6.17879232%" y1="120.762126%" x2="106.178792%" y2="120.762126%" id="linearGradient-1">
            <stop stop-color="#00FFC8" offset="0%"></stop>
            <stop stop-color="#05D6A9" offset="100%"></stop>
        </linearGradient>
    </defs>
    <g id="Monoreto" stroke="none" stroke-width="1" fill="none" fill-rule="evenodd">
        <g id="Monoreto-5" transform="translate(-1211.000000, -670.000000)">
            <g id="First" transform="translate(230.000000, -570.000000)">
                <g id="social" transform="translate(358.000000, 1162.000000)">
                    <g id="Steemit" transform="translate(623.000000, 78.000000)">
                        <g id="Group-30-Copy">
                            <circle id="Oval-3-Copy-2" fill="url(#linearGradient-1)" cx="25" cy="25" r="25"></circle>
                            <path d="M34.3398684,13.1496407 L31.968655,16.9156854 C38.5708569,21.1931683 40.5236208,26.1680669 37.8269468,31.8403812 C33.7819358,40.3488526 19.1362063,39.0935044 13.6963639,35.1879765 L17.4624087,31.8403812 C11.791437,26.1101255 10.5360888,20.7167775 13.6963639,15.6603372 C17.8808581,8.96514657 29.8764079,10.7784274 34.3398684,13.1496407 Z M21.6469028,31.8403812 C21.3679365,32.3983137 20.4845433,33.1422238 18.9967232,34.0721114 C20.3915546,34.9090102 30.5067764,37.1855034 34.0609021,32.3983137 C40.8955758,23.1924266 26.9472621,15.5208541 21.6469028,22.3555278 C19.4134961,25.2354469 19.4134961,28.3970647 21.6469028,31.8403812 Z" id="Combined-Shape" fill="#FFFFFF"></path>
                        </g>
                    </g>
                </g>
            </g>
        </g>
    </g>
</svg>