<?xml version="1.0" encoding="UTF-8"?>
<svg width="120px" height="120px" viewBox="0 0 120 120" version="1.1" xmlns="http://www.w3.org/2000/svg" xmlns:xlink="http://www.w3.org/1999/xlink">
    <!-- Generator: Sketch 48.2 (47327) - http://www.bohemiancoding.com/sketch -->
    <title>Group 12</title>
    <desc>Created with Sketch.</desc>
    <defs></defs>
    <g id="Monoreto-4" stroke="none" stroke-width="1" fill="none" fill-rule="evenodd" transform="translate(-475.000000, -2132.000000)">
        <g id="Other-functions" transform="translate(230.000000, 1740.000000)">
            <g id="Features" transform="translate(0.000000, 91.000000)">
                <g id="Group-8" transform="translate(172.000000, 301.000000)">
                    <g id="Group-12" transform="translate(73.000000, 0.000000)">
                        <rect id="Rectangle-4-Copy-3" fill="#FFFFFF" x="0" y="0" width="120" height="120" rx="40"></rect>
                        <g id="exchange" transform="translate(23.000000, 23.000000)" fill-rule="nonzero">
                            <g id="Group" transform="translate(1.209677, 1.209677)" fill="#5300FF">
                                <circle id="Oval" cx="13.3064516" cy="13.3064516" r="13.3064516"></circle>
                                <circle id="Oval" cx="59.2741935" cy="13.3064516" r="13.3064516"></circle>
                            </g>
                            <g id="Group" transform="translate(29.485887, 6.199597)" fill="#5300FF">
                                <rect id="Rectangle-path" x="1.96572581" y="7.10685484" width="2.41935484" height="2.41935484"></rect>
                                <polygon id="Shape" points="8.43629032 14.6564516 10.0112903 16.4927419 19.5508065 8.31653226 10.0112903 0.140322581 8.43629032 1.9766129 14.4217742 7.10685484 6.80443548 7.10685484 6.80443548 9.52620968 14.4217742 9.52620968"></polygon>
                                <rect id="Rectangle-path" x="15.2721774" y="55.4939516" width="2.41935484" height="2.41935484"></rect>
                                <polygon id="Shape" points="11.2209677 50.3637097 9.64596774 48.5274194 0.106451613 56.703629 9.64596774 64.8798387 11.2209677 63.0435484 5.23548387 57.9133065 12.8528226 57.9133065 12.8528226 55.4939516 5.23548387 55.4939516"></polygon>
                            </g>
                            <g id="Group" fill="#29292C">
                                <polygon id="Shape" points="19.3548387 72.5806452 15.7258065 72.5806452 15.7258065 58.0645161 13.3064516 58.0645161 13.3064516 72.5806452 9.67741935 72.5806452 9.67741935 58.0645161 7.25806452 58.0645161 7.25806452 75 21.7741935 75 21.7741935 58.0645161 19.3548387 58.0645161"></polygon>
                                <path d="M25.4032258,27.8225806 C23.4024194,27.8225806 21.7741935,29.4508065 21.7741935,31.4516129 L21.7741935,37.5 C21.7741935,38.8342742 20.6891129,39.9193548 19.3548387,39.9193548 L18.6822581,39.9193548 C19.0983871,39.2044355 19.3548387,38.3854839 19.3548387,37.5 L19.3548387,35.0806452 C19.3548387,32.4120968 17.1846774,30.2419355 14.516129,30.2419355 C11.8475806,30.2419355 9.67741935,32.4120968 9.67741935,35.0806452 L9.67741935,37.5 C9.67741935,38.3854839 9.93387097,39.2044355 10.35,39.9193548 L9.67741935,39.9193548 C8.34314516,39.9193548 7.25806452,38.8342742 7.25806452,37.5 L7.25806452,31.4516129 C7.25806452,29.4508065 5.62983871,27.8225806 3.62903226,27.8225806 C1.62822581,27.8225806 7.10542736e-15,29.4508065 7.10542736e-15,31.4516129 L7.10542736e-15,38.7096774 C7.10542736e-15,42.9689516 3.15967742,46.5024194 7.25806452,47.0915323 L7.25806452,55.6451613 L21.7741935,55.6451613 L21.7741935,47.0915323 C25.8725806,46.503629 29.0322581,42.9689516 29.0322581,38.7096774 L29.0322581,31.4516129 C29.0322581,29.4508065 27.4040323,27.8225806 25.4032258,27.8225806 Z M25.4032258,30.2419355 C26.0697581,30.2419355 26.6129032,30.783871 26.6129032,31.4516129 L26.6129032,33.8709677 L24.1935484,33.8709677 L24.1935484,31.4516129 C24.1935484,30.783871 24.7366935,30.2419355 25.4032258,30.2419355 Z M12.0967742,37.5 L12.0967742,35.0806452 C12.0967742,33.746371 13.1818548,32.6612903 14.516129,32.6612903 C15.8504032,32.6612903 16.9354839,33.746371 16.9354839,35.0806452 L16.9354839,37.5 C16.9354839,38.8342742 15.8504032,39.9193548 14.516129,39.9193548 C13.1818548,39.9193548 12.0967742,38.8342742 12.0967742,37.5 Z M3.62903226,30.2419355 C4.29556452,30.2419355 4.83870968,30.783871 4.83870968,31.4516129 L4.83870968,33.8709677 L2.41935484,33.8709677 L2.41935484,31.4516129 C2.41935484,30.783871 2.9625,30.2419355 3.62903226,30.2419355 Z M20.5645161,44.7580645 L19.3548387,44.7580645 L19.3548387,53.2258065 L9.67741935,53.2258065 L9.67741935,44.7580645 L8.46774194,44.7580645 C5.13266129,44.7580645 2.41935484,42.0447581 2.41935484,38.7096774 L2.41935484,36.2903226 L4.83870968,36.2903226 L4.83870968,37.5 C4.83870968,40.1685484 7.00887097,42.3387097 9.67741935,42.3387097 L19.3548387,42.3387097 C22.0233871,42.3387097 24.1935484,40.1685484 24.1935484,37.5 L24.1935484,36.2903226 L26.6129032,36.2903226 L26.6129032,38.7096774 C26.6129032,42.0447581 23.8995968,44.7580645 20.5645161,44.7580645 Z" id="Shape"></path>
                                <polygon id="Shape" points="65.3225806 72.5806452 61.6935484 72.5806452 61.6935484 58.0645161 59.2741935 58.0645161 59.2741935 72.5806452 55.6451613 72.5806452 55.6451613 58.0645161 53.2258065 58.0645161 53.2258065 75 67.7419355 75 67.7419355 58.0645161 65.3225806 58.0645161"></polygon>
                                <path d="M71.3709677,27.8225806 C69.3701613,27.8225806 67.7419355,29.4508065 67.7419355,31.4516129 L67.7419355,37.5 C67.7419355,38.8342742 66.6568548,39.9193548 65.3225806,39.9193548 L64.65,39.9193548 C65.066129,39.2044355 65.3225806,38.3854839 65.3225806,37.5 L65.3225806,35.0806452 C65.3225806,32.4120968 63.1524194,30.2419355 60.483871,30.2419355 C57.8153226,30.2419355 55.6451613,32.4120968 55.6451613,35.0806452 L55.6451613,37.5 C55.6451613,38.3854839 55.9016129,39.2044355 56.3177419,39.9193548 L55.6451613,39.9193548 C54.3108871,39.9193548 53.2258065,38.8342742 53.2258065,37.5 L53.2258065,31.4516129 C53.2258065,29.4508065 51.5975806,27.8225806 49.5967742,27.8225806 C47.5959677,27.8225806 45.9677419,29.4508065 45.9677419,31.4516129 L45.9677419,38.7096774 C45.9677419,42.9689516 49.1274194,46.5024194 53.2258065,47.0915323 L53.2258065,55.6451613 L67.7419355,55.6451613 L67.7419355,47.0915323 C71.8403226,46.503629 75,42.9689516 75,38.7096774 L75,31.4516129 C75,29.4508065 73.3717742,27.8225806 71.3709677,27.8225806 Z M71.3709677,30.2419355 C72.0375,30.2419355 72.5806452,30.783871 72.5806452,31.4516129 L72.5806452,33.8709677 L70.1612903,33.8709677 L70.1612903,31.4516129 C70.1612903,30.783871 70.7044355,30.2419355 71.3709677,30.2419355 Z M58.0645161,37.5 L58.0645161,35.0806452 C58.0645161,33.746371 59.1495968,32.6612903 60.483871,32.6612903 C61.8181452,32.6612903 62.9032258,33.746371 62.9032258,35.0806452 L62.9032258,37.5 C62.9032258,38.8342742 61.8181452,39.9193548 60.483871,39.9193548 C59.1495968,39.9193548 58.0645161,38.8342742 58.0645161,37.5 Z M49.5967742,30.2419355 C50.2633065,30.2419355 50.8064516,30.783871 50.8064516,31.4516129 L50.8064516,33.8709677 L48.3870968,33.8709677 L48.3870968,31.4516129 C48.3870968,30.783871 48.9302419,30.2419355 49.5967742,30.2419355 Z M66.5322581,44.7580645 L65.3225806,44.7580645 L65.3225806,53.2258065 L55.6451613,53.2258065 L55.6451613,44.7580645 L54.4354839,44.7580645 C51.1004032,44.7580645 48.3870968,42.0447581 48.3870968,38.7096774 L48.3870968,36.2903226 L50.8064516,36.2903226 L50.8064516,37.5 C50.8064516,40.1685484 52.9766129,42.3387097 55.6451613,42.3387097 L65.3225806,42.3387097 C67.991129,42.3387097 70.1612903,40.1685484 70.1612903,37.5 L70.1612903,36.2903226 L72.5806452,36.2903226 L72.5806452,38.7096774 C72.5806452,42.0447581 69.8673387,44.7580645 66.5322581,44.7580645 Z" id="Shape"></path>
                                <path d="M14.516129,0 C6.51169355,0 7.10542736e-15,6.51169355 7.10542736e-15,14.516129 C7.10542736e-15,22.5205645 6.51169355,29.0322581 14.516129,29.0322581 C22.5205645,29.0322581 29.0322581,22.5205645 29.0322581,14.516129 C29.0322581,6.51169355 22.5205645,0 14.516129,0 Z M14.516129,26.6129032 C7.84596774,26.6129032 2.41935484,21.1862903 2.41935484,14.516129 C2.41935484,7.84596774 7.84596774,2.41935484 14.516129,2.41935484 C21.1862903,2.41935484 26.6129032,7.84596774 26.6129032,14.516129 C26.6129032,21.1862903 21.1862903,26.6129032 14.516129,26.6129032 Z" id="Shape"></path>
                                <path d="M48.8552419,17.816129 L46.5278226,18.4754032 C48.2879032,24.6907258 54.0266129,29.0322581 60.483871,29.0322581 C68.4883065,29.0322581 75,22.5205645 75,14.516129 C75,6.51169355 68.4883065,0 60.483871,0 C54.0266129,0 48.2879032,4.34153226 46.5278226,10.5580645 L48.8552419,11.2173387 C50.3225806,6.03629032 55.1044355,2.41935484 60.483871,2.41935484 C67.1540323,2.41935484 72.5806452,7.84596774 72.5806452,14.516129 C72.5806452,21.1862903 67.1540323,26.6129032 60.483871,26.6129032 C55.1044355,26.6129032 50.3225806,22.9959677 48.8552419,17.816129 Z" id="Shape"></path>
                            </g>
                        </g>
                    </g>
                </g>
            </g>
        </g>
    </g>
</svg>