<?xml version="1.0" encoding="UTF-8"?>
<svg width="120px" height="120px" viewBox="0 0 120 120" version="1.1" xmlns="http://www.w3.org/2000/svg" xmlns:xlink="http://www.w3.org/1999/xlink">
    <!-- Generator: Sketch 48.2 (47327) - http://www.bohemiancoding.com/sketch -->
    <title>Group 11</title>
    <desc>Created with Sketch.</desc>
    <defs></defs>
    <g id="Monoreto-4" stroke="none" stroke-width="1" fill="none" fill-rule="evenodd" transform="translate(-970.000000, -1831.000000)">
        <g id="Other-functions" transform="translate(230.000000, 1740.000000)">
            <g id="Features" transform="translate(0.000000, 91.000000)">
                <g id="Group-7" transform="translate(660.000000, 0.000000)">
                    <g id="Group-11" transform="translate(80.000000, 0.000000)">
                        <rect id="Rectangle-4-Copy-2" fill="#FFFFFF" x="0" y="0" width="120" height="120" rx="40"></rect>
                        <g id="social-media" transform="translate(23.000000, 23.000000)" fill-rule="nonzero">
                            <circle id="Oval" fill="#5300FF" cx="37.5" cy="32.6612903" r="15.7258065"></circle>
                            <g id="Group" fill="#333333">
                                <rect id="Rectangle-path" x="30.2419355" y="67.7419355" width="14.516129" height="2.41935484"></rect>
                                <path d="M75,22.983871 C75,14.6358871 69.3266129,7.60645161 61.6379032,5.49919355 C61.3560484,2.42540323 58.7915323,0 55.6451613,0 L19.3548387,0 C16.0197581,0 13.3064516,2.71330645 13.3064516,6.0483871 L13.3064516,24.8685484 C5.64556452,26.9939516 0,34.0112903 0,42.3387097 C0,48.2564516 2.8608871,53.5064516 7.25806452,56.8209677 L7.25806452,56.8548387 L7.30403226,56.8548387 C9.08346774,58.1866935 11.1084677,59.1991935 13.3064516,59.808871 L13.3064516,68.9516129 C13.3064516,72.2866935 16.0197581,75 19.3548387,75 L55.6451613,75 C58.9802419,75 61.6935484,72.2866935 61.6935484,68.9516129 L61.6935484,45.9677419 L59.2741935,45.9677419 L59.2741935,62.9032258 L15.7258065,62.9032258 L15.7258065,60.303629 C16.5193548,60.4100806 17.3225806,60.483871 18.1451613,60.483871 C22.2120968,60.483871 25.9572581,59.1229839 28.9862903,56.8548387 L29.0322581,56.8548387 L29.0322581,56.8209677 C33.4294355,53.5064516 36.2903226,48.2576613 36.2903226,42.3387097 C36.2903226,32.3334677 28.1504032,24.1935484 18.1451613,24.1935484 C17.3225806,24.1935484 16.5193548,24.2673387 15.7258065,24.3737903 L15.7258065,9.67741935 L44.5596774,9.67741935 C40.9729839,12.9943548 38.7096774,17.7241935 38.7096774,22.983871 C38.7096774,28.9016129 41.5705645,34.1516129 45.9677419,37.466129 L45.9677419,37.5 L46.0137097,37.5 C49.0427419,39.7681452 52.7879032,41.1290323 56.8548387,41.1290323 C57.6774194,41.1290323 58.4806452,41.0552419 59.2741935,40.9487903 L59.2741935,43.5483871 L61.6935484,43.5483871 L61.6935484,40.4528226 C63.8915323,39.8431452 65.9165323,38.8306452 67.6959677,37.4987903 L67.7419355,37.4987903 L67.7419355,37.4649194 C72.1391129,34.1516129 75,28.9016129 75,22.983871 Z M59.2741935,65.3225806 L59.2741935,68.9516129 C59.2741935,70.9524194 57.6459677,72.5806452 55.6451613,72.5806452 L19.3548387,72.5806452 C17.3540323,72.5806452 15.7258065,70.9524194 15.7258065,68.9516129 L15.7258065,65.3225806 L59.2741935,65.3225806 Z M9.67741935,55.5689516 L9.67741935,52.016129 C9.67741935,50.0153226 11.3056452,48.3870968 13.3064516,48.3870968 L22.983871,48.3870968 C24.9846774,48.3870968 26.6129032,50.0153226 26.6129032,52.016129 L26.6129032,55.5689516 C24.1657258,57.1403226 21.2637097,58.0645161 18.1451613,58.0645161 C15.0266129,58.0645161 12.1245968,57.1403226 9.67741935,55.5689516 Z M18.1451613,45.9677419 C14.1423387,45.9677419 10.8870968,42.7125 10.8870968,38.7096774 C10.8870968,34.7068548 14.1423387,31.4516129 18.1451613,31.4516129 C22.1479839,31.4516129 25.4032258,34.7068548 25.4032258,38.7096774 C25.4032258,42.7125 22.1479839,45.9677419 18.1451613,45.9677419 Z M33.8709677,42.3387097 C33.8709677,46.7842742 32.0080645,50.7967742 29.0322581,53.6600806 L29.0322581,52.016129 C29.0322581,49.1491935 27.0229839,46.7540323 24.341129,46.1346774 C26.4665323,44.3576613 27.8225806,41.6903226 27.8225806,38.7096774 C27.8225806,33.3737903 23.4810484,29.0322581 18.1451613,29.0322581 C12.8092742,29.0322581 8.46774194,33.3737903 8.46774194,38.7096774 C8.46774194,41.6903226 9.82379032,44.3576613 11.9491935,46.1346774 C9.26733871,46.7540323 7.25806452,49.1491935 7.25806452,52.016129 L7.25806452,53.6600806 C4.28225806,50.7967742 2.41935484,46.7842742 2.41935484,42.3387097 C2.41935484,33.6677419 9.47419355,26.6129032 18.1451613,26.6129032 C26.816129,26.6129032 33.8709677,33.6677419 33.8709677,42.3387097 Z M15.7258065,7.25806452 L15.7258065,6.0483871 C15.7258065,4.04758065 17.3540323,2.41935484 19.3548387,2.41935484 L55.6451613,2.41935484 C57.2770161,2.41935484 58.6439516,3.50806452 59.0987903,4.99233871 C58.3620968,4.90040323 57.6157258,4.83870968 56.8548387,4.83870968 C53.5729839,4.83870968 50.5004032,5.72782258 47.8403226,7.25806452 L15.7258065,7.25806452 Z M48.3870968,36.2141129 L48.3870968,32.6612903 C48.3870968,30.6604839 50.0153226,29.0322581 52.016129,29.0322581 L61.6935484,29.0322581 C63.6943548,29.0322581 65.3225806,30.6604839 65.3225806,32.6612903 L65.3225806,36.2141129 C62.8754032,37.7854839 59.9733871,38.7096774 56.8548387,38.7096774 C53.7362903,38.7096774 50.8342742,37.7854839 48.3870968,36.2141129 Z M56.8548387,26.6129032 C52.8520161,26.6129032 49.5967742,23.3576613 49.5967742,19.3548387 C49.5967742,15.3520161 52.8520161,12.0967742 56.8548387,12.0967742 C60.8576613,12.0967742 64.1129032,15.3520161 64.1129032,19.3548387 C64.1129032,23.3576613 60.8576613,26.6129032 56.8548387,26.6129032 Z M67.7419355,34.3052419 L67.7419355,32.6612903 C67.7419355,29.7943548 65.7326613,27.3991935 63.0508065,26.7798387 C65.1762097,25.0028226 66.5322581,22.3354839 66.5322581,19.3548387 C66.5322581,14.0189516 62.1907258,9.67741935 56.8548387,9.67741935 C51.5189516,9.67741935 47.1774194,14.0189516 47.1774194,19.3548387 C47.1774194,22.3354839 48.5334677,25.0028226 50.658871,26.7798387 C47.9770161,27.3991935 45.9677419,29.7943548 45.9677419,32.6612903 L45.9677419,34.3052419 C42.9919355,31.4419355 41.1290323,27.4294355 41.1290323,22.983871 C41.1290323,14.3129032 48.183871,7.25806452 56.8548387,7.25806452 C65.5258065,7.25806452 72.5806452,14.3129032 72.5806452,22.983871 C72.5806452,27.4294355 70.7177419,31.4419355 67.7419355,34.3052419 Z" id="Shape"></path>
                                <path d="M38.3153226,14.553629 L38.6165323,14.5741935 L38.7653226,12.1596774 L38.4822581,12.1403226 C38.1556452,12.1185484 37.8302419,12.0967742 37.5,12.0967742 C30.5637097,12.0967742 24.1379032,15.5673387 20.3141129,21.3810484 L22.3366935,22.7104839 C25.7116935,17.5790323 31.3790323,14.516129 37.5,14.516129 C37.7758065,14.516129 38.0443548,14.5354839 38.3153226,14.553629 Z" id="Shape"></path>
                                <path d="M36.5177419,53.1822581 C36.8443548,53.2040323 37.1697581,53.2258065 37.5,53.2258065 C44.4362903,53.2258065 50.8620968,49.7552419 54.6858871,43.9415323 L52.6633065,42.6120968 C49.2883065,47.7435484 43.6209677,50.8064516 37.5,50.8064516 C37.2241935,50.8064516 36.9556452,50.7870968 36.6846774,50.7689516 L36.3834677,50.7483871 L36.2346774,53.1629032 L36.5177419,53.1822581 Z" id="Shape"></path>
                            </g>
                        </g>
                    </g>
                </g>
            </g>
        </g>
    </g>
</svg>