<?xml version="1.0" encoding="UTF-8"?>
<svg width="120px" height="120px" viewBox="0 0 120 120" version="1.1" xmlns="http://www.w3.org/2000/svg" xmlns:xlink="http://www.w3.org/1999/xlink">
    <!-- Generator: Sketch 48.2 (47327) - http://www.bohemiancoding.com/sketch -->
    <title>Group 13</title>
    <desc>Created with Sketch.</desc>
    <defs></defs>
    <g id="Monoreto-4" stroke="none" stroke-width="1" fill="none" fill-rule="evenodd" transform="translate(-808.000000, -2132.000000)">
        <g id="Other-functions" transform="translate(230.000000, 1740.000000)">
            <g id="Features" transform="translate(0.000000, 91.000000)">
                <g id="Group-15" transform="translate(503.000000, 301.000000)">
                    <g id="Group-13" transform="translate(75.000000, 0.000000)">
                        <rect id="Rectangle-4-Copy-4" fill="#FFFFFF" x="0" y="0" width="120" height="120" rx="40"></rect>
                        <g id="smartphone" transform="translate(23.000000, 21.000000)" fill-rule="nonzero">
                            <g id="Group" fill="#333333">
                                <rect id="Rectangle-path" x="65" y="17.6129032" width="2.5" height="10.0645161"></rect>
                                <path d="M28.125,36.483871 L27.5,36.483871 L27.5,33.9677419 L25,33.9677419 L25,36.483871 L24.375,36.483871 C21.9625,36.483871 20,38.4590323 20,40.8870968 C20,43.3151613 21.9625,45.2903226 24.375,45.2903226 L28.125,45.2903226 C29.15875,45.2903226 30,46.137 30,47.1774194 C30,48.2178387 29.15875,49.0645161 28.125,49.0645161 L24.375,49.0645161 C23.34125,49.0645161 22.5,48.2178387 22.5,47.1774194 L22.5,46.5483871 L20,46.5483871 L20,47.1774194 C20,49.6054839 21.9625,51.5806452 24.375,51.5806452 L25,51.5806452 L25,54.0967742 L27.5,54.0967742 L27.5,51.5806452 L28.125,51.5806452 C30.5375,51.5806452 32.5,49.6054839 32.5,47.1774194 C32.5,44.7493548 30.5375,42.7741935 28.125,42.7741935 L24.375,42.7741935 C23.34125,42.7741935 22.5,41.9275161 22.5,40.8870968 C22.5,39.8466774 23.34125,39 24.375,39 L28.125,39 C29.15875,39 30,39.8466774 30,40.8870968 L30,41.516129 L32.5,41.516129 L32.5,40.8870968 C32.5,38.4590323 30.5375,36.483871 28.125,36.483871 Z" id="Shape"></path>
                                <rect id="Rectangle-path" x="12.5" y="5.03225806" width="2.5" height="2.51612903"></rect>
                                <rect id="Rectangle-path" x="12.5" y="10.0645161" width="2.5" height="2.51612903"></rect>
                                <rect id="Rectangle-path" x="12.5" y="15.0967742" width="2.5" height="17.6129032"></rect>
                                <rect id="Rectangle-path" x="25" y="7.5483871" width="2.5" height="2.51612903"></rect>
                                <rect id="Rectangle-path" x="25" y="12.5806452" width="2.5" height="15.0967742"></rect>
                                <rect id="Rectangle-path" x="42.5" y="7.5483871" width="2.5" height="7.5483871"></rect>
                                <rect id="Rectangle-path" x="55" y="5.03225806" width="2.5" height="2.51612903"></rect>
                                <rect id="Rectangle-path" x="55" y="10.0645161" width="2.5" height="10.0645161"></rect>
                                <rect id="Rectangle-path" x="30" y="5.03225806" width="2.5" height="2.51612903"></rect>
                                <rect id="Rectangle-path" x="30" y="10.0645161" width="2.5" height="10.0645161"></rect>
                                <path d="M26.25,57.8709677 C33.41,57.8709677 39.3025,52.3329677 39.93625,45.2903226 L66.25,45.2903226 C69.69625,45.2903226 72.5,42.4684839 72.5,39 L72.5,6.29032258 C72.5,2.82183871 69.69625,0 66.25,0 L6.25,0 C2.80375,0 0,2.82183871 0,6.29032258 L0,39 C0,42.4684839 2.80375,45.2903226 6.25,45.2903226 L12.56375,45.2903226 C13.1975,52.3329677 19.09,57.8709677 26.25,57.8709677 Z M26.25,55.3548387 C20.0475,55.3548387 15,50.2760323 15,44.0322581 C15,37.7897419 20.0475,32.7096774 26.25,32.7096774 C27.815,32.7096774 29.33,33.0267097 30.7525,33.6532258 L31.75375,31.3471935 C30.01375,30.5822903 28.16125,30.1935484 26.25,30.1935484 C19.09,30.1935484 13.1975,35.7315484 12.56375,42.7741935 L10,42.7741935 L10,2.51612903 L60,2.51612903 L60,42.7741935 L39.93875,42.7741935 C39.935,42.7326774 39.93625,42.6911613 39.9325,42.6496452 L37.445,42.8974839 C37.48125,43.2723871 37.5,43.6485484 37.5,44.0322581 C37.5,50.2760323 32.4525,55.3548387 26.25,55.3548387 Z M70,6.29032258 L70,39 C70,41.0808387 68.3175,42.7741935 66.25,42.7741935 L62.5,42.7741935 L62.5,2.51612903 L66.25,2.51612903 C68.3175,2.51612903 70,4.20948387 70,6.29032258 Z M2.5,39 L2.5,6.29032258 C2.5,4.20948387 4.1825,2.51612903 6.25,2.51612903 L7.5,2.51612903 L7.5,42.7741935 L6.25,42.7741935 C4.1825,42.7741935 2.5,41.0808387 2.5,39 Z" id="Shape"></path>
                                <path d="M75,60.3870968 L75,57.8709677 L60,57.8709677 L60,60.3870968 L54.17875,60.3870968 L44.22375,52.5946452 C43.3875,51.9404516 42.345,51.5806452 41.2875,51.5806452 L41.03625,51.5806452 C38.39625,51.5806452 36.25,53.742 36.25,56.3965161 C36.25,57.6835161 36.7475,58.8925161 37.6525,59.8020968 L40.05625,62.2213548 L37.34625,62.9032258 L25.37875,62.9032258 L18.87,58.5364839 C18.2225,58.1011935 17.46875,57.8709677 16.68875,57.8709677 L16.42875,57.8709677 C14.2625,57.8709677 12.5,59.6448387 12.5,61.8250645 C12.5,62.8466129 12.885,63.8140645 13.58375,64.5525484 L18.61,69.8666129 C19.65,70.9649032 20.955,71.8002581 22.38625,72.2795806 L29.82125,74.7743226 C31.22375,75.2460968 32.68625,75.483871 34.1675,75.483871 L54.35,75.483871 C55.47125,75.483871 56.59375,75.3454839 57.685,75.0699677 L60,74.4874839 L60,78 L75,78 L75,75.483871 L72.5,75.483871 L72.5,60.3870968 L75,60.3870968 Z M57.08,72.6293226 C56.18625,72.8532581 55.26875,72.9677419 54.35125,72.9677419 L34.1675,72.9677419 C32.955,72.9677419 31.75875,72.7727419 30.61,72.3877742 L23.175,69.8930323 C22.13125,69.5420323 21.1775,68.933129 20.41875,68.1317419 L15.3925,62.8176774 C15.14,62.5484516 15,62.1961935 15,61.8250645 C15,61.0324839 15.64125,60.3870968 16.42875,60.3870968 L16.68875,60.3870968 C16.9725,60.3870968 17.24625,60.470129 17.48125,60.6286452 L24.62125,65.4193548 L37.5,65.4193548 L42.1125,64.292129 L42.6575,64.8406452 L43.81375,68.3330323 L46.185,67.5366774 L44.84125,63.4806774 L39.4175,58.0219355 C38.99375,57.5941935 38.75,57.0029032 38.75,56.3965161 C38.75,55.1283871 39.775,54.0967742 41.03625,54.0967742 L41.2875,54.0967742 C41.7925,54.0967742 42.29125,54.269129 42.69125,54.581129 L53.32125,62.9032258 L60,62.9032258 L60,71.895871 L57.08,72.6293226 Z M70,75.483871 L67.5,75.483871 L67.5,72.9677419 L65,72.9677419 L65,75.483871 L62.5,75.483871 L62.5,60.3870968 L65,60.3870968 L65,70.4516129 L67.5,70.4516129 L67.5,60.3870968 L70,60.3870968 L70,75.483871 Z" id="Shape"></path>
                            </g>
                            <ellipse id="Oval" fill="#5300FF" cx="43.75" cy="31.4516129" rx="13.75" ry="13.8387097"></ellipse>
                            <path d="M41.875,39 L42.5,39 L42.5,41.516129 L45,41.516129 L45,39 L45.625,39 C48.0375,39 50,37.0248387 50,34.5967742 C50,32.1687097 48.0375,30.1935484 45.625,30.1935484 L41.875,30.1935484 C40.84125,30.1935484 40,29.346871 40,28.3064516 C40,27.2660323 40.84125,26.4193548 41.875,26.4193548 L45.625,26.4193548 C46.65875,26.4193548 47.5,27.2660323 47.5,28.3064516 L47.5,28.9354839 L50,28.9354839 L50,28.3064516 C50,25.8783871 48.0375,23.9032258 45.625,23.9032258 L45,23.9032258 L45,21.3870968 L42.5,21.3870968 L42.5,23.9032258 L41.875,23.9032258 C39.4625,23.9032258 37.5,25.8783871 37.5,28.3064516 C37.5,30.7345161 39.4625,32.7096774 41.875,32.7096774 L45.625,32.7096774 C46.65875,32.7096774 47.5,33.5563548 47.5,34.5967742 C47.5,35.6371935 46.65875,36.483871 45.625,36.483871 L41.875,36.483871 C40.84125,36.483871 40,35.6371935 40,34.5967742 L40,33.9677419 L37.5,33.9677419 L37.5,34.5967742 C37.5,37.0248387 39.4625,39 41.875,39 Z" id="Shape" fill="#FFFFFF"></path>
                        </g>
                    </g>
                </g>
            </g>
        </g>
    </g>
</svg>