<?xml version="1.0" encoding="UTF-8"?>
<svg width="120px" height="120px" viewBox="0 0 120 120" version="1.1" xmlns="http://www.w3.org/2000/svg" xmlns:xlink="http://www.w3.org/1999/xlink">
    <!-- Generator: Sketch 48.2 (47327) - http://www.bohemiancoding.com/sketch -->
    <title>Group 10</title>
    <desc>Created with Sketch.</desc>
    <defs>
        <polygon id="path-1" points="0 37.5030242 0 0.0060483871 74.8737475 0.0060483871 74.8737475 75 37.4368737 75 0 75 0 37.5030242"></polygon>
    </defs>
    <g id="Monoreto-4" stroke="none" stroke-width="1" fill="none" fill-rule="evenodd" transform="translate(-638.000000, -1831.000000)">
        <g id="Other-functions" transform="translate(230.000000, 1740.000000)">
            <g id="Features" transform="translate(0.000000, 91.000000)">
                <g id="Group-6" transform="translate(335.000000, 0.000000)">
                    <g id="Group-10" transform="translate(73.000000, 0.000000)">
                        <rect id="Rectangle-4-Copy" fill="#FFFFFF" x="0" y="0" width="120" height="120" rx="40"></rect>
                        <g id="mobile-phone" transform="translate(23.000000, 23.000000)">
                            <polyline id="Fill-1" fill="#5300FF" points="63.8897796 54.4354839 56.6753507 54.4354839 56.6753507 20.5645161 60.2825651 15.7258065 63.8897796 20.5645161 63.8897796 54.4354839"></polyline>
                            <g id="Group-5">
                                <mask id="mask-2" fill="white">
                                    <use xlink:href="#path-1"></use>
                                </mask>
                                <g id="Clip-3"></g>
                                <polyline id="Fill-2" fill="#5300FF" mask="url(#mask-2)" points="10.9839679 26.6129032 18.1983968 26.6129032 18.1983968 60.483871 14.5911824 65.3225806 10.9839679 60.483871 10.9839679 26.6129032"></polyline>
                                <path d="M60.2825651,13.8362903 L49.5691383,26.7701613 C49.1398798,26.6733871 48.7022044,26.6129032 48.258517,26.6129032 L26.6152305,26.6129032 C23.3002004,26.6129032 20.6032064,29.3262097 20.6032064,32.6612903 L20.6032064,52.016129 L24.0480962,52.016129 L14.5911824,63.4330645 L5.13426854,52.016129 L8.57915832,52.016129 L8.57915832,31.4516129 L6.1743487,31.4516129 L6.1743487,35.958871 C3.94749499,34.3983871 2.56713427,31.8520161 2.56713427,29.0322581 C2.56713427,24.3629032 6.34388778,20.5645161 10.9839679,20.5645161 C15.6240481,20.5645161 19.4008016,24.3629032 19.4008016,29.0322581 L21.8056112,29.0322581 C21.8056112,24.0592742 18.4701403,19.8641129 13.9346693,18.5673387 C15.2681363,14.7096774 18.8549098,12.0967742 23.008016,12.0967742 C28.3118236,12.0967742 32.6272545,16.4383065 32.6272545,21.7741935 L35.0320641,21.7741935 C35.0320641,16.5193548 31.6785571,12.0495968 27.0168337,10.383871 C28.3046092,5.72782258 32.5671343,2.41935484 37.4368737,2.41935484 C42.0324649,2.41935484 46.0569138,5.2875 47.6056112,9.59758065 C43.6232465,12.6979839 41.0440882,17.5379032 41.0440882,22.983871 L43.4488978,22.983871 C43.4488978,14.9794355 49.9214429,8.46774194 57.8777555,8.46774194 C65.8340681,8.46774194 72.3066132,14.9794355 72.3066132,22.983871 C72.3066132,24.5370968 72.0468938,26.0358871 71.5803607,27.4754032 L60.2825651,13.8362903 Z M51.8657315,31.4516129 L51.8657315,33.8709677 L23.008016,33.8709677 L23.008016,32.6612903 C23.008016,30.6604839 24.6264529,29.0322581 26.6152305,29.0322581 L47.6957916,29.0322581 L45.6913828,31.4516129 L51.8657315,31.4516129 Z M48.258517,72.5806452 L26.6152305,72.5806452 C24.6264529,72.5806452 23.008016,70.9524194 23.008016,68.9516129 L23.008016,65.3225806 L51.8657315,65.3225806 L51.8657315,68.9516129 C51.8657315,70.9524194 50.2472946,72.5806452 48.258517,72.5806452 Z M73.3442886,29.6056452 C74.2256513,27.521371 74.7114228,25.2641129 74.7114228,22.983871 C74.7114228,13.6451613 67.1603206,6.0483871 57.8777555,6.0483871 C54.8933868,6.0483871 52.092986,6.84193548 49.6593186,8.21854839 C47.6296593,3.25887097 42.8537074,0 37.4368737,0 C31.4597194,0 26.2340681,4.07782258 24.6829659,9.80927419 C24.1334669,9.73185484 23.5779559,9.67741935 23.008016,9.67741935 C17.6717435,9.67741935 13.0785571,13.1262097 11.5286573,18.1729839 C11.3470942,18.1633065 11.1679359,18.1451613 10.9839679,18.1451613 C5.01643287,18.1451613 0.162324649,23.0298387 0.162324649,29.0322581 C0.162324649,33.2068548 2.50581162,36.9205645 6.1743487,38.7532258 L6.1743487,49.5967742 L0,49.5967742 L14.5911824,67.2120968 L29.1823647,49.5967742 L23.008016,49.5967742 L23.008016,36.2903226 L51.8657315,36.2903226 L51.8657315,62.9032258 L20.6032064,62.9032258 L20.6032064,68.9516129 C20.6032064,72.2866935 23.3002004,75 26.6152305,75 L48.258517,75 C51.5735471,75 54.2705411,72.2866935 54.2705411,68.9516129 L54.2705411,29.0322581 L50.8256513,29.0322581 L60.2825651,17.6153226 L69.739479,29.0322581 L66.2945892,29.0322581 L66.2945892,49.5967742 L68.6993988,49.5967742 L68.6993988,31.4516129 L74.8737475,31.4516129 L73.3442886,29.6056452 L73.3442886,29.6056452 Z" id="Fill-4" fill="#29292C" mask="url(#mask-2)"></path>
                            </g>
                            <polygon id="Fill-6" fill="#29292C" points="32.6272545 70.1612903 42.246493 70.1612903 42.246493 67.7419355 32.6272545 67.7419355"></polygon>
                            <polygon id="Fill-7" fill="#29292C" points="10.9839679 36.2903226 13.3887776 36.2903226 13.3887776 33.8709677 10.9839679 33.8709677"></polygon>
                            <polygon id="Fill-8" fill="#29292C" points="14.5911824 44.7580645 16.995992 44.7580645 16.995992 42.3387097 14.5911824 42.3387097"></polygon>
                            <polygon id="Fill-9" fill="#29292C" points="10.9839679 55.6451613 13.3887776 55.6451613 13.3887776 53.2258065 10.9839679 53.2258065"></polygon>
                            <polygon id="Fill-10" fill="#29292C" points="56.6753507 27.8225806 59.0801603 27.8225806 59.0801603 25.4032258 56.6753507 25.4032258"></polygon>
                            <polygon id="Fill-11" fill="#29292C" points="61.4849699 33.8709677 63.8897796 33.8709677 63.8897796 31.4516129 61.4849699 31.4516129"></polygon>
                            <polygon id="Fill-12" fill="#29292C" points="56.6753507 45.9677419 59.0801603 45.9677419 59.0801603 43.5483871 56.6753507 43.5483871"></polygon>
                            <polygon id="Fill-13" fill="#29292C" points="47.0561122 55.6451613 49.4609218 55.6451613 49.4609218 38.7096774 47.0561122 38.7096774"></polygon>
                            <polygon id="Fill-14" fill="#29292C" points="47.0561122 60.483871 49.4609218 60.483871 49.4609218 58.0645161 47.0561122 58.0645161"></polygon>
                        </g>
                    </g>
                </g>
            </g>
        </g>
    </g>
</svg>