<?xml version="1.0" encoding="UTF-8"?>
<svg width="120px" height="120px" viewBox="0 0 120 120" version="1.1" xmlns="http://www.w3.org/2000/svg" xmlns:xlink="http://www.w3.org/1999/xlink">
    <!-- Generator: Sketch 48.2 (47327) - http://www.bohemiancoding.com/sketch -->
    <title>Group 9</title>
    <desc>Created with Sketch.</desc>
    <defs></defs>
    <g id="Monoreto-4" stroke="none" stroke-width="1" fill="none" fill-rule="evenodd" transform="translate(-300.000000, -1831.000000)">
        <g id="Other-functions" transform="translate(230.000000, 1740.000000)">
            <g id="Features" transform="translate(0.000000, 91.000000)">
                <g id="Group-2">
                    <g id="Group-9" transform="translate(70.000000, 0.000000)">
                        <rect id="Rectangle-4" fill="#FFFFFF" x="0" y="0" width="120" height="120" rx="40"></rect>
                        <g id="001-smartphone" transform="translate(23.000000, 23.000000)" fill-rule="nonzero">
                            <path d="M39.9193548,20.5645161 C39.9193548,17.8923387 42.0858871,15.7258065 44.7580645,15.7258065 L47.1774194,15.7258065 L47.1774194,3.62903226 C47.1774194,2.29233871 46.0947581,1.20967742 44.7580645,1.20967742 L3.62903226,1.20967742 C2.29233871,1.20967742 1.20967742,2.29233871 1.20967742,3.62903226 L1.20967742,36.2903226 C1.20967742,37.6270161 2.29233871,38.7096774 3.62903226,38.7096774 L36.2903226,38.7096774 L39.9193548,38.7096774 L39.9193548,20.5645161 Z" id="Shape" fill="#5300FF"></path>
                            <g id="Group" transform="translate(45.967742, 31.451613)" fill="#5300FF">
                                <polygon id="Shape" points="2.41935484 6.0483871 0 6.0483871 0 0 6.0483871 0 6.0483871 2.41935484 2.41935484 2.41935484"></polygon>
                                <polygon id="Shape" points="6.0483871 24.1935484 0 24.1935484 0 18.1451613 2.41935484 18.1451613 2.41935484 21.7741935 6.0483871 21.7741935"></polygon>
                                <polygon id="Shape" points="21.7741935 6.0483871 19.3548387 6.0483871 19.3548387 2.41935484 15.7258065 2.41935484 15.7258065 0 21.7741935 0"></polygon>
                                <polygon id="Shape" points="21.7741935 24.1935484 15.7258065 24.1935484 15.7258065 21.7741935 19.3548387 21.7741935 19.3548387 18.1451613 21.7741935 18.1451613"></polygon>
                            </g>
                            <g id="Group" fill="#29292C">
                                <path d="M38.7096774,68.9516129 C38.7096774,72.2866935 41.4229839,75 44.7580645,75 L68.9516129,75 C72.2866935,75 75,72.2866935 75,68.9516129 L75,62.9032258 L38.7096774,62.9032258 L38.7096774,68.9516129 Z M41.1290323,65.3225806 L72.5806452,65.3225806 L72.5806452,68.9516129 C72.5806452,70.9524194 70.9524194,72.5806452 68.9516129,72.5806452 L44.7580645,72.5806452 C42.7572581,72.5806452 41.1290323,70.9524194 41.1290323,68.9516129 L41.1290323,65.3225806 Z" id="Shape"></path>
                                <path d="M68.9516129,14.516129 L44.7580645,14.516129 C41.4229839,14.516129 38.7096774,17.2294355 38.7096774,20.5645161 L38.7096774,60.483871 L41.1290323,60.483871 L41.1290323,24.1935484 L72.5806452,24.1935484 L72.5806452,60.483871 L75,60.483871 L75,20.5645161 C75,17.2294355 72.2866935,14.516129 68.9516129,14.516129 Z M41.1290323,21.7741935 L41.1290323,20.5645161 C41.1290323,18.5637097 42.7572581,16.9354839 44.7580645,16.9354839 L68.9516129,16.9354839 C70.9524194,16.9354839 72.5806452,18.5637097 72.5806452,20.5645161 L72.5806452,21.7741935 L41.1290323,21.7741935 Z" id="Shape"></path>
                                <rect id="Rectangle-path" x="50.8064516" y="67.7419355" width="12.0967742" height="2.41935484"></rect>
                                <path d="M61.6935484,43.5483871 C61.6935484,40.8798387 59.5233871,38.7096774 56.8548387,38.7096774 C54.1862903,38.7096774 52.016129,40.8798387 52.016129,43.5483871 C52.016129,46.2169355 54.1862903,48.3870968 56.8548387,48.3870968 C59.5233871,48.3870968 61.6935484,46.2169355 61.6935484,43.5483871 Z M54.4354839,43.5483871 C54.4354839,42.2141129 55.5205645,41.1290323 56.8548387,41.1290323 C58.1891129,41.1290323 59.2741935,42.2141129 59.2741935,43.5483871 C59.2741935,44.8826613 58.1891129,45.9677419 56.8548387,45.9677419 C55.5205645,45.9677419 54.4354839,44.8826613 54.4354839,43.5483871 Z" id="Shape"></path>
                                <path d="M2.41935484,23.9854839 L2.41935484,3.62903226 C2.41935484,2.9625 2.9625,2.41935484 3.62903226,2.41935484 L44.7580645,2.41935484 C45.4245968,2.41935484 45.9677419,2.9625 45.9677419,3.62903226 L45.9677419,12.0967742 L48.3870968,12.0967742 L48.3870968,3.62903226 C48.3870968,1.62822581 46.758871,0 44.7580645,0 L3.62903226,0 C1.62822581,0 0,1.62822581 0,3.62903226 L0,36.2903226 C0,38.291129 1.62822581,39.9193548 3.62903226,39.9193548 L36.2903226,39.9193548 L36.2903226,37.5 L3.62903226,37.5 C2.9625,37.5 2.41935484,36.9568548 2.41935484,36.2903226 L2.41935484,32.6612903 L2.41935484,23.9854839 Z" id="Shape"></path>
                            </g>
                        </g>
                    </g>
                </g>
            </g>
        </g>
    </g>
</svg>