<?xml version="1.0" encoding="UTF-8" standalone="no"?>
<svg width="250px" height="291px" viewBox="0 0 250 291" version="1.1" xmlns="http://www.w3.org/2000/svg" xmlns:xlink="http://www.w3.org/1999/xlink">
    <!-- Generator: Sketch 48.2 (47327) - http://www.bohemiancoding.com/sketch -->
    <title>1 copy 2</title>
    <desc>Created with Sketch.</desc>
    <defs>
        <radialGradient cx="50%" cy="50%" fx="50%" fy="50%" r="50.0301469%" id="radialGradient-1">
            <stop stop-color="#8D00FF" offset="0%"></stop>
            <stop stop-color="#5400FE" offset="100%"></stop>
        </radialGradient>
    </defs>
    <g id="Monoreto" stroke="none" stroke-width="1" fill="none" fill-rule="evenodd">
        <g id="1-copy-2" transform="translate(0.000000, -7.000000)">
            <path d="M124.534208,48.7629689 C132.711116,48.7630043 140.809466,49.5606594 148.829249,51.1559305 C156.849031,52.7512051 164.636136,55.1134456 172.190582,58.2426509 C179.745051,61.3718515 186.921705,65.2078968 193.720557,69.7507781 C200.519385,74.2936634 206.80975,79.4560958 212.591686,85.2380753 C218.373622,91.0200542 223.535985,97.3104899 228.078816,104.109373 C232.621648,110.908265 236.457622,118.08496 239.586764,125.639458 C242.715941,133.193974 245.078181,140.981143 246.673414,149.000966 C248.268642,157.020783 249.066241,165.119169 249.066241,173.296094 C249.066206,181.473078 248.268572,189.571493 246.673269,197.591345 C245.078041,205.611197 242.715802,213.398378 239.586549,220.952916 C236.457372,228.507449 232.621334,235.684162 228.078462,242.483043 C223.535595,249.28193 218.373157,255.572364 212.591151,261.354352 C206.80918,267.13634 200.518781,272.298762 193.719865,276.841645 C186.920978,281.384512 179.744289,285.220539 172.189785,288.349698 C164.635281,291.478892 156.848106,293.841098 148.828289,295.436348 C140.808455,297.031593 132.710069,297.82921 124.533126,297.82921 C116.356143,297.829175 108.257746,297.031523 100.237911,295.436238 C92.2180591,293.840975 84.4308608,291.478736 76.8763221,288.349518 C69.3217834,285.220324 62.1450765,281.384285 55.3461899,276.841413 C48.5472975,272.298529 42.256863,267.136108 36.4748864,261.35412 C30.6929041,255.572155 25.5304769,249.281714 20.9876108,242.482834 C16.4447331,235.683947 12.6087116,228.507257 9.4795232,220.952736 C6.3503348,213.398232 3.98812395,205.611075 2.39288484,197.591257 C0.797622465,189.571423 0,181.473037 0,173.296094 C2.90693572e-05,165.119128 0.797680604,157.020731 2.3929546,149.000867 C3.9882286,140.981015 6.35046852,133.193829 9.47967436,125.639301 C12.6088802,118.084774 16.4449307,110.908062 20.9878143,104.109169 C25.530692,97.3102771 30.693125,91.0198327 36.4751074,85.2378532 C42.2570955,79.4558697 48.54753,74.2934419 55.346405,69.7505694 C62.1452858,65.2076974 69.3219985,61.3716695 76.8765023,58.2424863 C84.4310004,55.1133037 92.2181812,52.7510899 100.237998,51.1558462 C108.257815,49.5605977 116.356195,48.7629735 124.533126,48.7629735 L124.533022,104.802874 C120.03573,104.802903 115.581648,105.241612 111.170768,106.119019 C106.759883,106.996413 102.476984,108.295645 98.3220195,110.016702 C94.1670548,111.737771 90.2199129,113.847601 86.480547,116.346188 C82.741187,118.844775 79.2814858,121.684113 76.1014203,124.864202 C72.9213547,128.044291 70.0820343,131.504033 67.5834823,135.24341 C65.0849246,138.982799 62.9751229,142.929982 61.2540833,147.084958 C59.5330552,151.239934 58.233841,155.522874 57.356458,159.933789 C56.4791041,164.344668 56.0404243,168.798791 56.0404068,173.296112 C56.0404243,177.793432 56.479139,182.247573 57.3565452,186.658487 C58.2339282,191.069408 59.5331599,195.352347 61.2542228,199.507341 C62.9753032,203.66234 65.0851164,207.609523 67.5837091,211.348918 C70.0823017,215.088319 72.9216395,218.548072 76.1017226,221.728155 C79.2818172,224.908238 82.7415591,227.747576 86.4809366,230.246169 C90.2203198,232.744721 94.1674967,234.85454 98.3224788,236.575603 C102.477461,238.29666 106.7604,239.595892 111.171297,240.473281 C115.5822,241.350646 120.0363,241.789332 124.533621,241.789332 C129.030947,241.789314 133.485081,241.350611 137.896019,240.473228 C142.306916,239.595822 146.589873,238.29659 150.744873,236.57551 C154.899872,234.854453 158.847049,232.744634 162.58645,230.246041 C166.325827,227.747448 169.785569,224.908116 172.965664,221.728033 C176.145764,218.54795 178.985102,215.088208 181.483695,211.348813 C183.98227,207.609413 186.092083,203.662236 187.813129,199.507254 C189.534168,195.352272 190.8334,191.069332 191.710789,186.658435 C192.588172,182.24752 193.026857,177.793415 193.02684,173.296112 C193.026823,168.798791 192.588119,164.344651 191.710736,159.933736 C190.83333,155.522816 189.534099,151.239859 187.813018,147.084865 C186.091979,142.929871 183.982159,138.982683 181.483567,135.243294 C178.98498,131.503905 176.145625,128.044169 172.965542,124.86408 C169.785459,121.683985 166.325723,118.844659 162.586322,116.346078 C158.846927,113.847491 154.899744,111.737678 150.744762,110.016626 C146.589786,108.295575 142.306846,106.996349 137.895961,106.11896 C133.485047,105.241577 129.030947,104.802886 124.533621,104.802886 L124.534208,48.7629689 Z" id="Fill-8" fill="url(#radialGradient-1)"></path>
            <circle id="Oval" fill="#FFFFFF" cx="125.65842" cy="174.421389" r="87.3982442"></circle>
            <path d="M95.5450307,144.866636 C97.5053772,143.466388 99.7737781,142.850279 102.098189,142.850279 C105.934867,142.850279 109.043416,144.586586 109.043416,148.479274 C109.043416,151.699843 106.382946,153.60418 103.890506,155.088442 C101.622105,156.43268 99.6897632,157.468863 99.6617583,158.701081 L109.183441,158.673076 L109.183441,162.285714 L94.9009169,162.285714 L94.9009169,160.409383 C94.9009169,155.816571 98.3735306,154.024254 101.174026,152.371962 C103.162377,151.223759 104.870679,150.467626 104.870679,148.647304 C104.870679,147.247056 103.638461,146.518928 101.70612,146.518928 C99.801783,146.518928 97.5613871,147.247056 95.5450307,148.787329 L95.5450307,144.866636 Z M111.675882,152.764031 C111.675882,147.275061 114.280342,142.850279 120.357416,142.850279 C126.43449,142.850279 129.03895,147.275061 129.03895,152.764031 C129.03895,158.253002 126.43449,162.677784 120.357416,162.677784 C114.280342,162.677784 111.675882,158.253002 111.675882,152.764031 Z M124.838208,152.764031 C124.838208,148.703314 123.43796,146.546933 120.357416,146.546933 C117.276872,146.546933 115.876624,148.703314 115.876624,152.764031 C115.876624,156.824749 117.276872,158.98113 120.357416,158.98113 C123.43796,158.98113 124.838208,156.824749 124.838208,152.764031 Z M138.868688,163.966011 L136.068193,163.966011 L147.522217,141.001953 L150.322712,141.001953 L138.868688,163.966011 Z M141.193098,147.107032 C141.193098,150.271591 138.840683,151.923883 136.152207,151.923883 C133.435727,151.923883 131.055307,150.271591 131.055307,147.107032 C131.055307,143.942472 133.435727,142.29018 136.152207,142.29018 C138.840683,142.29018 141.193098,143.942472 141.193098,147.107032 Z M134.191861,147.107032 C134.191861,148.11521 134.779965,149.039373 136.152207,149.039373 C137.46844,149.039373 138.056544,148.11521 138.056544,147.107032 C138.056544,146.098853 137.46844,145.17469 136.152207,145.17469 C134.779965,145.17469 134.191861,146.098853 134.191861,147.107032 Z M155.223578,157.860932 C155.223578,161.025492 152.871162,162.677784 150.182687,162.677784 C147.466207,162.677784 145.085786,161.025492 145.085786,157.860932 C145.085786,154.696373 147.466207,153.044081 150.182687,153.044081 C152.871162,153.044081 155.223578,154.696373 155.223578,157.860932 Z M148.222341,157.860932 C148.222341,158.86911 148.810445,159.793274 150.182687,159.793274 C151.49892,159.793274 152.087024,158.86911 152.087024,157.860932 C152.087024,156.852754 151.49892,155.928591 150.182687,155.928591 C148.810445,155.928591 148.222341,156.852754 148.222341,157.860932 Z" id="20%" fill="#131F3C"></path>
            <path d="M95.6225466,117.564923 C95.6225466,114.274398 98.4429967,112.72315 101.827537,112.72315 C103.872363,112.72315 105.91719,113.216729 107.350918,114.03936 L107.350918,118.034998 C105.940693,116.977329 104.083897,116.460246 102.180093,116.48375 C100.581838,116.507254 100.088259,116.930321 100.088259,117.541419 C100.088259,119.68026 108.643625,119.022155 108.643625,124.851086 C108.643625,128.752708 105.658648,129.880888 102.062574,129.880888 C99.6886955,129.880888 97.4793429,129.340302 95.7400654,128.376648 L95.7400654,124.263492 C97.6908767,125.603206 99.8532218,126.120288 101.733522,126.120288 C103.449296,126.120288 104.177912,125.838243 104.177912,125.015612 C104.177912,122.641733 95.6225466,123.440861 95.6225466,117.564923 Z M113.743939,129.528332 L109.278226,129.528332 L115.741757,113.075706 L120.442508,113.075706 L126.906039,129.528332 L122.440326,129.528332 L121.500176,126.942919 L114.684089,126.942919 L113.743939,129.528332 Z M117.669065,118.669599 L115.976795,123.417357 L120.20747,123.417357 L118.5152,118.669599 C118.374178,118.270035 118.233155,117.870472 118.092132,117.000833 C117.95111,117.870472 117.810087,118.270035 117.669065,118.669599 Z M128.48079,113.075706 L132.828984,113.075706 L132.828984,125.650213 L140.350185,125.650213 L140.350185,129.528332 L128.48079,129.528332 L128.48079,113.075706 Z M142.206981,113.075706 L154.052871,113.075706 L154.052871,116.836306 L146.555175,116.836306 L146.555175,119.351208 L153.347759,119.351208 L153.347759,123.088304 L146.555175,123.088304 L146.555175,125.767732 L154.193894,125.767732 L154.193894,129.528332 L142.206981,129.528332 L142.206981,113.075706 Z" id="SALE" fill="#131F3C"></path>
            <path d="M77.354572,200.478404 L75.0307539,200.478404 L75.0307539,197.335968 C73.0766341,197.124712 71.2281425,196.596571 69.7493492,195.777954 L69.7493492,192.820367 C71.78269,194.114311 74.1593221,194.642452 76.271884,194.642452 C78.6485161,194.642452 80.2593446,194.087904 80.2593446,192.345041 C80.2593446,188.067103 69.8285702,190.338107 69.8285702,183.789165 C69.8285702,180.778764 72.1259813,179.167936 75.0307539,178.824644 L75.0307539,175.655802 L77.354572,175.655802 L77.354572,178.798237 C79.1238426,178.930273 80.8931132,179.405599 82.1342433,180.144996 L82.1342433,183.023361 C80.6290429,182.019894 78.5692951,181.465347 76.5887683,181.491754 C74.3441713,181.491754 72.891785,182.151929 72.891785,183.736351 C72.891785,187.723811 83.3225593,185.584843 83.3225593,192.186598 C83.3225593,195.751547 80.65545,197.177526 77.354572,197.362375 L77.354572,200.478404 Z M85.4879353,188.067103 C85.4879353,182.812105 87.9701955,178.745423 93.5420775,178.745423 C99.1139595,178.745423 101.59622,182.812105 101.59622,188.067103 C101.59622,193.3221 99.1139595,197.388782 93.5420775,197.388782 C87.9701955,197.388782 85.4879353,193.3221 85.4879353,188.067103 Z M98.559412,188.067103 C98.559412,183.894793 96.9749906,181.491754 93.5420775,181.491754 C90.0827574,181.491754 88.524743,183.894793 88.524743,188.067103 C88.524743,192.239413 90.0827574,194.642452 93.5420775,194.642452 C96.9749906,194.642452 98.559412,192.239413 98.559412,188.067103 Z M107.696242,195.593105 C107.696242,196.781421 106.877625,197.335968 105.926972,197.335968 C104.976319,197.335968 104.131294,196.781421 104.131294,195.593105 C104.131294,194.457602 104.976319,193.903055 105.926972,193.903055 C106.877625,193.903055 107.696242,194.457602 107.696242,195.593105 Z M110.231317,188.067103 C110.231317,182.812105 112.713577,178.745423 118.285459,178.745423 C123.857341,178.745423 126.339601,182.812105 126.339601,188.067103 C126.339601,193.3221 123.857341,197.388782 118.285459,197.388782 C112.713577,197.388782 110.231317,193.3221 110.231317,188.067103 Z M123.302793,188.067103 C123.302793,183.894793 121.718372,181.491754 118.285459,181.491754 C114.826139,181.491754 113.268124,183.894793 113.268124,188.067103 C113.268124,192.239413 114.826139,194.642452 118.285459,194.642452 C121.718372,194.642452 123.302793,192.239413 123.302793,188.067103 Z M137.800249,179.088715 L140.889871,179.088715 L140.889871,190.760619 L143.979493,190.760619 L143.979493,193.374915 L140.889871,193.374915 L140.889871,197.045491 L137.985098,197.045491 L137.985098,193.374915 L128.240907,193.374915 L128.240907,190.813433 L137.800249,179.088715 Z M137.985098,190.760619 L137.985098,182.917733 L131.594599,190.760619 L137.985098,190.760619 Z M146.012834,188.067103 C146.012834,182.812105 148.495094,178.745423 154.066976,178.745423 C159.638858,178.745423 162.121118,182.812105 162.121118,188.067103 C162.121118,193.3221 159.638858,197.388782 154.066976,197.388782 C148.495094,197.388782 146.012834,193.3221 146.012834,188.067103 Z M159.08431,188.067103 C159.08431,183.894793 157.499889,181.491754 154.066976,181.491754 C150.607656,181.491754 149.049641,183.894793 149.049641,188.067103 C149.049641,192.239413 150.607656,194.642452 154.066976,194.642452 C157.499889,194.642452 159.08431,192.239413 159.08431,188.067103 Z M164.656192,188.067103 C164.656192,182.812105 167.138453,178.745423 172.710335,178.745423 C178.282217,178.745423 180.764477,182.812105 180.764477,188.067103 C180.764477,193.3221 178.282217,197.388782 172.710335,197.388782 C167.138453,197.388782 164.656192,193.3221 164.656192,188.067103 Z M177.727669,188.067103 C177.727669,183.894793 176.143248,181.491754 172.710335,181.491754 C169.251015,181.491754 167.693,183.894793 167.693,188.067103 C167.693,192.239413 169.251015,194.642452 172.710335,194.642452 C176.143248,194.642452 177.727669,192.239413 177.727669,188.067103 Z M90.6637119,211.088715 L92.8819019,211.088715 L92.8819019,226.325567 L96.0771518,226.325567 L96.0771518,229.045491 L86.306553,229.045491 L86.306553,226.325567 L89.8979083,226.325567 L89.8979083,214.178336 L86.306553,215.525095 L86.306553,212.752357 L90.6637119,211.088715 Z M121.903221,210.560574 L124.623144,210.560574 L124.623144,229.045491 L121.612744,229.045491 L121.612744,216.106049 L115.776791,224.873181 L113.981114,224.873181 L108.145162,216.079642 L108.145162,229.045491 L105.134761,229.045491 L105.134761,210.560574 L107.854684,210.560574 L114.878953,221.149791 L121.903221,210.560574 Z M132.122739,229.045491 L129.112338,229.045491 L129.112338,210.560574 L131.93789,210.560574 L141.893338,224.08097 C141.866931,223.447202 141.866931,222.734212 141.866931,222.04763 L141.866931,210.560574 L144.877332,210.560574 L144.877332,229.045491 L142.05178,229.045491 L132.096332,215.525095 C132.122739,216.158863 132.122739,216.871853 132.122739,217.532028 L132.122739,229.045491 Z M152.376926,229.045491 L149.366526,229.045491 L149.366526,210.560574 L156.760492,210.560574 C160.219812,210.560574 163.863982,211.933739 163.863982,216.343712 C163.863982,219.64459 161.804234,221.229012 159.374788,221.809966 L165.289961,229.045491 L161.672199,229.045491 L156.126724,222.126851 L152.376926,222.126851 L152.376926,229.045491 Z M152.376926,213.306905 L152.376926,219.459741 L156.892527,219.459741 C158.873054,219.459741 160.800767,218.746752 160.800767,216.396526 C160.800767,214.019894 158.873054,213.306905 156.892527,213.306905 L152.376926,213.306905 Z" id="$0.0400-1-MNR" fill="#131F3C"></path>
            <path d="M67.5873504,7.1452514 L70.4493615,7.1452514 L70.4493615,21.6128492 L73.4426576,21.6128492 L73.4426576,25 L63.2549481,25 L63.2549481,21.6128492 L66.615842,21.6128492 L66.615842,11.0837989 L63.2549481,12.3441341 L63.2549481,8.79944134 L67.5873504,7.1452514 Z M76.3571828,7.11899441 L87.7001995,7.11899441 L87.7001995,10.5061453 L79.9018755,10.4798883 L79.6655626,13.972067 C80.4270152,13.8145251 81.2409816,13.7094972 81.9761772,13.7094972 C85.5471269,13.7094972 88.514166,15.3111732 88.514166,19.4072626 C88.514166,23.5558659 84.8907023,25.3675978 80.9521548,25.3675978 C78.8778532,25.3675978 76.7772945,24.9212291 75.2018755,24.1597765 L75.2018755,20.5100559 C76.6460096,21.4290503 78.7203113,21.927933 80.5057861,21.927933 C82.8426576,21.927933 84.5756185,21.0877095 84.5756185,19.3547486 C84.5756185,17.5955307 83.0789705,16.7290503 80.2169593,16.7290503 C78.9303671,16.7290503 77.2761772,16.9391061 75.7270152,17.4905028 L76.3571828,7.11899441 Z M108.128132,21.7441341 C108.128132,22.4005587 108.548244,22.5843575 109.02087,22.5843575 C109.230926,22.5843575 109.467239,22.5581006 109.703551,22.4793296 L109.703551,24.8687151 C109.125898,25.0787709 108.390702,25.2363128 107.681764,25.2363128 C106.395172,25.2363128 105.423663,24.7636872 104.898524,23.8184358 C103.664445,24.7899441 102.220311,25.3675978 100.356065,25.3675978 C97.992937,25.3675978 95.9448923,24.0022346 95.9448923,21.5078212 C95.9448923,18.3044693 98.9644453,17.3067039 101.485116,17.3067039 C102.482881,17.3067039 103.585674,17.4379888 104.478412,17.6480447 L104.478412,17.201676 C104.478412,15.9413408 103.480646,15.0748603 101.511373,15.0748603 C99.7784118,15.0748603 98.2292498,15.547486 97.0476856,16.0201117 L97.0476856,12.8692737 C98.0717079,12.527933 99.9884677,12.0290503 101.931484,12.0290503 C105.71249,12.0290503 108.128132,13.5782123 108.128132,17.7268156 L108.128132,21.7441341 Z M102.325339,19.4860335 C100.986233,19.4860335 99.6733839,19.9324022 99.6733839,21.2189944 C99.6733839,22.1642458 100.539864,22.7681564 101.642658,22.7681564 C102.66668,22.7681564 103.638188,22.4793296 104.478412,21.7441341 L104.478412,19.7748603 C103.927015,19.6435754 103.086792,19.4860335 102.325339,19.4860335 Z M115.296289,25 L111.646568,25 L111.646568,12.396648 L124.039864,12.396648 L124.039864,25 L120.390144,25 L120.390144,15.4687151 L115.296289,15.4687151 L115.296289,25 Z M130.367797,14.2346369 C131.155507,13.1055866 132.599641,12.0290503 134.936512,12.0290503 C138.927574,12.0290503 141.080646,15.2586592 141.080646,18.698324 C141.080646,22.1379888 138.927574,25.3675978 134.936512,25.3675978 C132.940982,25.3675978 131.601875,24.5536313 130.787909,23.6608939 L130.787909,30.7765363 L127.138188,30.7765363 L127.138188,12.396648 L130.367797,12.396648 L130.367797,14.2346369 Z M137.352155,18.698324 C137.352155,16.7290503 136.118077,15.1011173 134.043775,15.1011173 C132.442099,15.1011173 131.260535,16.0988827 130.761652,17.201676 L130.761652,20.1949721 C131.260535,21.2977654 132.442099,22.2955307 134.043775,22.2955307 C136.118077,22.2955307 137.352155,20.6675978 137.352155,18.698324 Z M142.761093,18.698324 C142.761093,13.9458101 146.410814,12.0290503 149.246568,12.0290503 C154.471708,12.0290503 156.152155,16.1513966 155.311931,19.8798883 L146.437071,19.8798883 C146.857183,21.7178771 148.8002,22.4793296 150.874501,22.4793296 C152.318635,22.4793296 153.605227,22.1905028 154.681764,21.7178771 L154.681764,24.5798883 C153.5002,25.0787709 151.951038,25.3675978 150.060535,25.3675978 C146.069473,25.3675978 142.761093,23.0832402 142.761093,18.698324 Z M152.029808,17.5167598 C152.161093,16.6502793 151.662211,14.8122905 149.377853,14.8122905 C147.828691,14.8122905 146.463328,15.7837989 146.410814,17.5167598 L152.029808,17.5167598 Z M163.372825,15.2849162 C163.005227,20.9564246 162.033719,25.2625698 158.567797,25.2625698 C157.990144,25.2625698 157.307462,25.1575419 156.572267,24.8949721 L156.572267,22.0067039 C156.834836,22.1117318 157.097406,22.1642458 157.333719,22.1642458 C159.32925,22.1642458 159.775619,18.0418994 160.011931,12.396648 L170.252155,12.396648 L170.252155,25 L166.602434,25 L166.602434,15.2849162 L163.372825,15.2849162 Z M176.343775,25 L172.247686,25 L175.556065,20.7726257 C173.849362,20.0374302 172.982881,18.5145251 172.982881,16.8078212 C172.982881,14.4446927 174.715842,12.396648 178.024222,12.396648 L184.851038,12.396648 L184.851038,25 L181.201317,25 L181.201317,21.2452514 L179.153272,21.2452514 L176.343775,25 Z M176.685116,16.9128492 C176.685116,17.9368715 177.446568,18.5145251 178.759417,18.5145251 L181.201317,18.5145251 L181.201317,15.2849162 L178.759417,15.2849162 C177.446568,15.2849162 176.685116,15.8625698 176.685116,16.9128492 Z" id="15-апреля" fill="#131F3C"></path>
        </g>
    </g>
</svg>