<?xml version="1.0" encoding="UTF-8" standalone="no"?>
<svg width="250px" height="292px" viewBox="0 0 250 292" version="1.1" xmlns="http://www.w3.org/2000/svg" xmlns:xlink="http://www.w3.org/1999/xlink">
    <!-- Generator: Sketch 48.2 (47327) - http://www.bohemiancoding.com/sketch -->
    <title>2 copy 2</title>
    <desc>Created with Sketch.</desc>
    <defs>
        <radialGradient cx="98.7223625%" cy="100%" fx="98.7223625%" fy="100%" r="99.5281369%" gradientTransform="translate(0.987224,1.000000),scale(1.000000,0.999999),rotate(90.000000),translate(-0.987224,-1.000000)" id="radialGradient-1">
            <stop stop-color="#FF9495" offset="0%"></stop>
            <stop stop-color="#FE5B5C" offset="100%"></stop>
        </radialGradient>
        <radialGradient cx="50%" cy="50%" fx="50%" fy="50%" r="50.0301469%" id="radialGradient-2">
            <stop stop-color="#8D00FF" offset="0%"></stop>
            <stop stop-color="#5400FE" offset="100%"></stop>
        </radialGradient>
    </defs>
    <g id="Monoreto" stroke="none" stroke-width="1" fill="none" fill-rule="evenodd">
        <g id="2-copy-2" transform="translate(-1.000000, -6.000000)">
            <g id="Group-2" transform="translate(125.566640, 173.762969) scale(-1, 1) translate(-125.566640, -173.762969) translate(0.566640, 48.762969)">
                <path d="M0.543088689,124.636697 C0.543117783,116.452914 1.3414326,108.347783 2.93803315,100.32125 C4.5346337,92.2947296 6.89883794,84.5010675 10.0306459,76.9402584 C13.1624538,69.3794494 17.0016942,62.1967689 21.5483554,55.3922229 C26.0950108,48.5876774 31.2617365,42.2920022 37.0485269,36.5052148 C42.8353231,30.7184232 49.1309884,25.5517027 55.935517,21.0050526 C62.7400514,16.458403 69.9227318,12.6191853 77.4835176,9.48740007 C85.0442976,6.35561542 92.8379538,3.99143736 100.86444,2.39486707 C108.890926,0.798292128 116.995935,0 125.179666,0 L125.179666,56.086505 C120.678635,56.0865341 116.220849,56.5256079 111.806301,57.4037437 C107.391748,58.2818679 103.105287,59.5821799 98.9468678,61.3046682 C94.7884481,63.0271681 90.8380239,65.1387532 87.0955486,67.6394177 C83.3530791,70.1400823 79.890501,72.9817811 76.707791,76.1645144 C73.525081,79.3472476 70.6833996,82.8098664 68.18277,86.5523534 C65.6821346,90.294852 63.5705785,94.2453169 61.8481077,98.4037482 C60.1256486,102.56218 58.825354,106.848681 57.9472414,111.263263 C57.069158,115.67781 56.6301133,120.135637 56.6300959,124.636697 L0.543088689,124.636697 Z" id="Fill-8" fill="url(#radialGradient-1)"></path>
                <path d="M124.909307,0 C133.086215,3.54646161e-05 141.184566,0.797690493 149.204348,2.3929616 C157.224131,3.98823619 165.011236,6.35047671 172.565681,9.47968199 C180.12015,12.6088826 187.296805,16.4449279 194.095657,20.9878092 C200.894485,25.5306945 207.18485,30.693127 212.966786,36.4751065 C218.748722,42.2570854 223.911085,48.5475211 228.453916,55.3464036 C232.996747,62.1452961 236.832722,69.3219914 239.961864,76.8764895 C243.091041,84.431005 245.453281,92.2181743 247.048514,100.237997 C248.643742,108.257814 249.441341,116.3562 249.441341,124.533125 C249.441306,132.710109 248.643672,140.808524 247.048369,148.828376 C245.453141,156.848228 243.090901,164.635409 239.961649,172.189947 C236.832472,179.74448 232.996433,186.921193 228.453561,193.720074 C223.910695,200.518961 218.748256,206.809395 212.966251,212.591383 C207.18428,218.373372 200.893881,223.535793 194.094965,228.078677 C187.296078,232.621543 180.119389,236.45757 172.564885,239.586729 C165.010381,242.715924 157.223206,245.078129 149.203389,246.673379 C141.183555,248.268624 133.085169,249.066241 124.908226,249.066241 C116.731243,249.066206 108.632845,248.268555 100.613011,246.673269 C92.5931589,245.078007 84.8059606,242.715767 77.2514219,239.586549 C69.6968831,236.457355 62.5201763,232.621316 55.7212897,228.078444 C48.9223972,223.53556 42.6319627,218.373139 36.8499862,212.591151 C31.0680038,206.809186 25.9055767,200.518746 21.3627106,193.719865 C16.8198328,186.920978 12.9838114,179.744289 9.85462296,172.189767 C6.72543456,164.635263 4.36322371,156.848106 2.7679846,148.828289 C1.17272223,140.808454 0.375099761,132.710068 0.375099761,124.533125 C0.375099761,124.533122 19.0552354,124.533128 56.4155066,124.533143 C56.415524,129.030463 56.8542388,133.484604 57.731645,137.895518 C58.609028,142.306439 59.9082596,146.589378 61.6293226,150.744372 C63.3504029,154.899372 65.4602162,158.846554 67.9588088,162.585949 C70.4574015,166.32535 73.2967393,169.785103 76.4768223,172.965187 C79.656917,176.14527 83.1166589,178.984607 86.8560363,181.4832 C90.5954196,183.981752 94.5425965,186.091571 98.6975785,187.812634 C102.852561,189.533691 107.1355,190.832923 111.546397,191.710312 C115.9573,192.587677 120.4114,193.026363 124.90872,193.026363 C129.406046,193.026345 133.860181,192.587642 138.271119,191.710259 C142.682016,190.832853 146.964973,189.533621 151.119972,187.812541 C155.274972,186.091484 159.222149,183.981665 162.96155,181.483072 C166.700927,178.98448 170.160669,176.145147 173.340764,172.965064 C176.520864,169.784981 179.360202,166.325239 181.858794,162.585845 C184.35737,158.846444 186.467183,154.899267 188.188228,150.744285 C189.909268,146.589303 191.2085,142.306363 192.085889,137.895466 C192.963272,133.484552 193.401957,129.030446 193.40194,124.533143 C193.401922,120.035823 192.963219,115.581682 192.085836,111.170767 C191.20843,106.759847 189.909198,102.47689 188.188118,98.3218963 C186.467078,94.1669026 184.357259,90.2197141 181.858667,86.480325 C179.36008,82.7409359 176.520724,79.2811998 173.340641,76.1011109 C170.160558,72.9210162 166.700822,70.08169 162.961422,67.583109 C159.222027,65.0845221 155.274844,62.9747088 151.119862,61.2536575 C146.964886,59.5326062 142.681946,58.2333804 138.271061,57.3559916 C133.860146,56.4786086 129.406046,56.0399171 124.90872,56.0399171 L124.909307,0 Z" id="Fill-8" fill="url(#radialGradient-2)"></path>
            </g>
            <circle id="Oval" fill="#FFFFFF" cx="124.90822" cy="173.671189" r="87.3982442"></circle>
            <path d="M80.1879256,200.352202 L77.8641075,200.352202 L77.8641075,197.209766 C75.9099878,196.99851 74.0614961,196.47037 72.5827028,195.651752 L72.5827028,192.694165 C74.6160436,193.988109 76.9926757,194.51625 79.1052376,194.51625 C81.4818698,194.51625 83.0926982,193.961702 83.0926982,192.218839 C83.0926982,187.940901 72.6619238,190.211905 72.6619238,183.662963 C72.6619238,180.652562 74.9593349,179.041734 77.8641075,178.698443 L77.8641075,175.5296 L80.1879256,175.5296 L80.1879256,178.672036 C81.9571962,178.804071 83.7264668,179.279397 84.9675969,180.018794 L84.9675969,182.897159 C83.4623965,181.893693 81.4026487,181.339145 79.4221219,181.365552 C77.1775249,181.365552 75.7251386,182.025728 75.7251386,183.610149 C75.7251386,187.59761 86.155913,185.458641 86.155913,192.060397 C86.155913,195.625345 83.4888036,197.051324 80.1879256,197.236173 L80.1879256,200.352202 Z M88.3212889,187.940901 C88.3212889,182.685903 90.8035491,178.619222 96.3754311,178.619222 C101.947313,178.619222 104.429573,182.685903 104.429573,187.940901 C104.429573,193.195899 101.947313,197.26258 96.3754311,197.26258 C90.8035491,197.26258 88.3212889,193.195899 88.3212889,187.940901 Z M101.392766,187.940901 C101.392766,183.768591 99.8083442,181.365552 96.3754311,181.365552 C92.916111,181.365552 91.3580966,183.768591 91.3580966,187.940901 C91.3580966,192.113211 92.916111,194.51625 96.3754311,194.51625 C99.8083442,194.51625 101.392766,192.113211 101.392766,187.940901 Z M110.529596,195.466903 C110.529596,196.655219 109.710978,197.209766 108.760325,197.209766 C107.809672,197.209766 106.964648,196.655219 106.964648,195.466903 C106.964648,194.331401 107.809672,193.776853 108.760325,193.776853 C109.710978,193.776853 110.529596,194.331401 110.529596,195.466903 Z M113.06467,187.940901 C113.06467,182.685903 115.54693,178.619222 121.118812,178.619222 C126.690694,178.619222 129.172955,182.685903 129.172955,187.940901 C129.172955,193.195899 126.690694,197.26258 121.118812,197.26258 C115.54693,197.26258 113.06467,193.195899 113.06467,187.940901 Z M126.136147,187.940901 C126.136147,183.768591 124.551725,181.365552 121.118812,181.365552 C117.659492,181.365552 116.101478,183.768591 116.101478,187.940901 C116.101478,192.113211 117.659492,194.51625 121.118812,194.51625 C124.551725,194.51625 126.136147,192.113211 126.136147,187.940901 Z M140.633603,178.962513 L143.723225,178.962513 L143.723225,190.634417 L146.812846,190.634417 L146.812846,193.248713 L143.723225,193.248713 L143.723225,196.919289 L140.818452,196.919289 L140.818452,193.248713 L131.07426,193.248713 L131.07426,190.687231 L140.633603,178.962513 Z M140.818452,190.634417 L140.818452,182.791531 L134.427952,190.634417 L140.818452,190.634417 Z M149.321514,180.441306 C151.170005,179.173769 153.203346,178.619222 155.289501,178.619222 C158.93367,178.619222 161.60078,180.309271 161.60078,183.662963 C161.60078,186.699771 159.065705,188.495448 156.636259,189.947835 C154.312441,191.321 152.120658,192.430095 152.094251,194.225773 L161.732815,194.199366 L161.732815,196.919289 L148.714152,196.919289 L148.714152,195.546124 C148.714152,191.162558 151.962216,189.498915 154.68214,187.888087 C156.768294,186.673364 158.590379,185.749118 158.590379,183.715777 C158.590379,182.157763 157.243621,181.339145 155.025431,181.339145 C153.203346,181.339145 151.222819,181.972914 149.321514,183.346079 L149.321514,180.441306 Z M165.456205,178.962513 L176.520748,178.962513 L176.520748,181.656029 L168.228943,181.656029 L167.964872,185.986781 C168.836304,185.775525 169.76055,185.669897 170.684796,185.669897 C174.144116,185.669897 177.365773,187.175097 177.365773,191.400221 C177.365773,195.282054 174.064895,197.26258 170.103841,197.26258 C168.017686,197.26258 165.931532,196.813661 164.34711,196.047857 L164.34711,193.222306 C165.852311,194.093737 167.885651,194.542657 169.76055,194.542657 C172.427659,194.542657 174.328965,193.486376 174.328965,191.373814 C174.328965,188.997182 172.295624,188.152157 169.443666,188.152157 C167.991279,188.152157 166.327637,188.442634 164.875251,188.944368 L165.456205,178.962513 Z M90.2886122,210.962513 L92.5068022,210.962513 L92.5068022,226.199366 L95.702052,226.199366 L95.702052,228.919289 L85.9314533,228.919289 L85.9314533,226.199366 L89.5228085,226.199366 L89.5228085,214.052135 L85.9314533,215.398893 L85.9314533,212.626155 L90.2886122,210.962513 Z M121.528121,210.434372 L124.248045,210.434372 L124.248045,228.919289 L121.237644,228.919289 L121.237644,215.979847 L115.401692,224.746979 L113.606014,224.746979 L107.770062,215.95344 L107.770062,228.919289 L104.759661,228.919289 L104.759661,210.434372 L107.479585,210.434372 L114.503853,221.023589 L121.528121,210.434372 Z M131.747639,228.919289 L128.737239,228.919289 L128.737239,210.434372 L131.56279,210.434372 L141.518238,223.954769 C141.491831,223.321 141.491831,222.60801 141.491831,221.921428 L141.491831,210.434372 L144.502232,210.434372 L144.502232,228.919289 L141.67668,228.919289 L131.721232,215.398893 C131.747639,216.032661 131.747639,216.745651 131.747639,217.405827 L131.747639,228.919289 Z M152.001827,228.919289 L148.991426,228.919289 L148.991426,210.434372 L156.385393,210.434372 C159.844713,210.434372 163.488882,211.807538 163.488882,216.217511 C163.488882,219.518389 161.429134,221.10281 158.999688,221.683765 L164.914861,228.919289 L161.297099,228.919289 L155.751624,222.000649 L152.001827,222.000649 L152.001827,228.919289 Z M152.001827,213.180703 L152.001827,219.333539 L156.517428,219.333539 C158.497954,219.333539 160.425667,218.62055 160.425667,216.270325 C160.425667,213.893693 158.497954,213.180703 156.517428,213.180703 L152.001827,213.180703 Z" id="$0.0425-1-MNR" fill="#131F3C"></path>
            <path d="M101.093791,143.214304 L104.14633,143.214304 L104.14633,158.645031 L107.338894,158.645031 L107.338894,162.257669 L96.472974,162.257669 L96.472974,158.645031 L100.057608,158.645031 L100.057608,147.415046 L96.472974,148.759284 L96.472974,144.978616 L101.093791,143.214304 Z M110.447444,143.186299 L122.545582,143.186299 L122.545582,146.798937 L114.228112,146.770932 L113.976067,150.495591 C114.788211,150.327561 115.656364,150.215541 116.440503,150.215541 C120.249176,150.215541 123.413735,151.923843 123.413735,156.292615 C123.413735,160.717397 119.549052,162.649739 115.34831,162.649739 C113.135919,162.649739 110.895523,162.173655 109.215226,161.361511 L109.215226,157.468823 C110.755498,158.448996 112.967889,158.98109 114.872226,158.98109 C117.364666,158.98109 119.212993,158.084932 119.212993,156.236605 C119.212993,154.360274 117.616711,153.43611 114.564171,153.43611 C113.191929,153.43611 111.427617,153.66015 109.775325,154.248254 L110.447444,143.186299 Z M133.075443,163.937966 L130.274948,163.937966 L141.728972,140.973908 L144.529467,140.973908 L133.075443,163.937966 Z M135.399854,147.078987 C135.399854,150.243546 133.047438,151.895838 130.358963,151.895838 C127.642483,151.895838 125.262062,150.243546 125.262062,147.078987 C125.262062,143.914428 127.642483,142.262136 130.358963,142.262136 C133.047438,142.262136 135.399854,143.914428 135.399854,147.078987 Z M128.398616,147.078987 C128.398616,148.087165 128.98672,149.011328 130.358963,149.011328 C131.675196,149.011328 132.263299,148.087165 132.263299,147.078987 C132.263299,146.070809 131.675196,145.146645 130.358963,145.146645 C128.98672,145.146645 128.398616,146.070809 128.398616,147.078987 Z M149.430333,157.832887 C149.430333,160.997447 147.077918,162.649739 144.389443,162.649739 C141.672962,162.649739 139.292542,160.997447 139.292542,157.832887 C139.292542,154.668328 141.672962,153.016036 144.389443,153.016036 C147.077918,153.016036 149.430333,154.668328 149.430333,157.832887 Z M142.429096,157.832887 C142.429096,158.841066 143.0172,159.765229 144.389443,159.765229 C145.705675,159.765229 146.293779,158.841066 146.293779,157.832887 C146.293779,156.824709 145.705675,155.900546 144.389443,155.900546 C143.0172,155.900546 142.429096,156.824709 142.429096,157.832887 Z" id="15%" fill="#131F3C"></path>
            <g id="Group-4" transform="translate(0.000000, 48.762969)"></g>
            <path d="M38.9184757,7.1452514 L41.7804868,7.1452514 L41.7804868,21.6128492 L44.7737829,21.6128492 L44.7737829,25 L34.5860734,25 L34.5860734,21.6128492 L37.9469673,21.6128492 L37.9469673,11.0837989 L34.5860734,12.3441341 L34.5860734,8.79944134 L38.9184757,7.1452514 Z M50.3927773,14.6547486 C51.9681963,13.8145251 53.4123304,13.4469274 55.1715483,13.4469274 C58.3749002,13.4469274 61.3944533,15.3899441 61.3944533,19.2234637 C61.3944533,23.2932961 58.2173583,25.3675978 54.5676377,25.3675978 C48.8173583,25.3675978 46.4804868,21.849162 46.4804868,16.0726257 C46.4804868,9.53463687 50.4190343,6.77765363 54.9614924,6.77765363 C56.6419393,6.77765363 58.3486433,7.17150838 59.8715483,7.88044693 L59.8715483,11.3463687 C58.6374701,10.5324022 57.0095371,10.0860335 55.4866321,10.0860335 C53.0709896,10.0860335 50.865403,11.1100559 50.3927773,14.6547486 Z M50.3927773,17.8318436 C50.7603751,21.1664804 52.2045092,22.1642458 54.2525539,22.1642458 C55.9855148,22.1642458 57.4559058,21.3765363 57.4559058,19.4072626 C57.4559058,17.3592179 55.8017159,16.7290503 53.9637271,16.7290503 C52.7821628,16.7290503 51.5218276,17.096648 50.3927773,17.8318436 Z M86.916241,20.1424581 L69.4816042,20.1424581 L69.4816042,17.0703911 L86.916241,17.0703911 L86.916241,20.1424581 Z M99.8609338,7.1452514 L102.722945,7.1452514 L102.722945,21.6128492 L105.716241,21.6128492 L105.716241,25 L95.5285315,25 L95.5285315,21.6128492 L98.8894254,21.6128492 L98.8894254,11.0837989 L95.5285315,12.3441341 L95.5285315,8.79944134 L99.8609338,7.1452514 Z M106.950319,7.11899441 L120.682721,7.11899441 L120.682721,9.9547486 L113.357023,25 L109.103392,25 L116.16652,10.5061453 L106.950319,10.5061453 L106.950319,7.11899441 Z M139.797805,21.7441341 C139.797805,22.4005587 140.217917,22.5843575 140.690543,22.5843575 C140.900599,22.5843575 141.136911,22.5581006 141.373224,22.4793296 L141.373224,24.8687151 C140.795571,25.0787709 140.060375,25.2363128 139.351437,25.2363128 C138.064844,25.2363128 137.093336,24.7636872 136.568196,23.8184358 C135.334118,24.7899441 133.889984,25.3675978 132.025738,25.3675978 C129.66261,25.3675978 127.614565,24.0022346 127.614565,21.5078212 C127.614565,18.3044693 130.634118,17.3067039 133.154789,17.3067039 C134.152554,17.3067039 135.255347,17.4379888 136.148085,17.6480447 L136.148085,17.201676 C136.148085,15.9413408 135.150319,15.0748603 133.181045,15.0748603 C131.448085,15.0748603 129.898923,15.547486 128.717358,16.0201117 L128.717358,12.8692737 C129.741381,12.527933 131.65814,12.0290503 133.601157,12.0290503 C137.382163,12.0290503 139.797805,13.5782123 139.797805,17.7268156 L139.797805,21.7441341 Z M133.995012,19.4860335 C132.655906,19.4860335 131.343057,19.9324022 131.343057,21.2189944 C131.343057,22.1642458 132.209537,22.7681564 133.31233,22.7681564 C134.336353,22.7681564 135.307861,22.4793296 136.148085,21.7441341 L136.148085,19.7748603 C135.596688,19.6435754 134.756464,19.4860335 133.995012,19.4860335 Z M146.965962,25 L143.316241,25 L143.316241,12.396648 L155.709537,12.396648 L155.709537,25 L152.059816,25 L152.059816,15.4687151 L146.965962,15.4687151 L146.965962,25 Z M162.03747,14.2346369 C162.82518,13.1055866 164.269314,12.0290503 166.606185,12.0290503 C170.597247,12.0290503 172.750319,15.2586592 172.750319,18.698324 C172.750319,22.1379888 170.597247,25.3675978 166.606185,25.3675978 C164.610654,25.3675978 163.271548,24.5536313 162.457582,23.6608939 L162.457582,30.7765363 L158.807861,30.7765363 L158.807861,12.396648 L162.03747,12.396648 L162.03747,14.2346369 Z M169.021828,18.698324 C169.021828,16.7290503 167.787749,15.1011173 165.713448,15.1011173 C164.111772,15.1011173 162.930208,16.0988827 162.431325,17.201676 L162.431325,20.1949721 C162.930208,21.2977654 164.111772,22.2955307 165.713448,22.2955307 C167.787749,22.2955307 169.021828,20.6675978 169.021828,18.698324 Z M174.430766,18.698324 C174.430766,13.9458101 178.080487,12.0290503 180.916241,12.0290503 C186.141381,12.0290503 187.821828,16.1513966 186.981604,19.8798883 L178.106744,19.8798883 C178.526856,21.7178771 180.469872,22.4793296 182.544174,22.4793296 C183.988308,22.4793296 185.2749,22.1905028 186.351437,21.7178771 L186.351437,24.5798883 C185.169872,25.0787709 183.62071,25.3675978 181.730208,25.3675978 C177.739146,25.3675978 174.430766,23.0832402 174.430766,18.698324 Z M183.699481,17.5167598 C183.830766,16.6502793 183.331883,14.8122905 181.047526,14.8122905 C179.498364,14.8122905 178.133001,15.7837989 178.080487,17.5167598 L183.699481,17.5167598 Z M195.042498,15.2849162 C194.6749,20.9564246 193.703392,25.2625698 190.23747,25.2625698 C189.659816,25.2625698 188.977135,25.1575419 188.241939,24.8949721 L188.241939,22.0067039 C188.504509,22.1117318 188.767079,22.1642458 189.003392,22.1642458 C190.998923,22.1642458 191.445291,18.0418994 191.681604,12.396648 L201.921828,12.396648 L201.921828,25 L198.272107,25 L198.272107,15.2849162 L195.042498,15.2849162 Z M208.013448,25 L203.917358,25 L207.225738,20.7726257 C205.519034,20.0374302 204.652554,18.5145251 204.652554,16.8078212 C204.652554,14.4446927 206.385515,12.396648 209.693895,12.396648 L216.52071,12.396648 L216.52071,25 L212.87099,25 L212.87099,21.2452514 L210.822945,21.2452514 L208.013448,25 Z M208.354789,16.9128492 C208.354789,17.9368715 209.116241,18.5145251 210.42909,18.5145251 L212.87099,18.5145251 L212.87099,15.2849162 L210.42909,15.2849162 C209.116241,15.2849162 208.354789,15.8625698 208.354789,16.9128492 Z" id="16-—-17-апреля" fill="#131F3C"></path>
            <path d="M95.6225466,117.564923 C95.6225466,114.274398 98.4429967,112.72315 101.827537,112.72315 C103.872363,112.72315 105.91719,113.216729 107.350918,114.03936 L107.350918,118.034998 C105.940693,116.977329 104.083897,116.460246 102.180093,116.48375 C100.581838,116.507254 100.088259,116.930321 100.088259,117.541419 C100.088259,119.68026 108.643625,119.022155 108.643625,124.851086 C108.643625,128.752708 105.658648,129.880888 102.062574,129.880888 C99.6886955,129.880888 97.4793429,129.340302 95.7400654,128.376648 L95.7400654,124.263492 C97.6908767,125.603206 99.8532218,126.120288 101.733522,126.120288 C103.449296,126.120288 104.177912,125.838243 104.177912,125.015612 C104.177912,122.641733 95.6225466,123.440861 95.6225466,117.564923 Z M113.743939,129.528332 L109.278226,129.528332 L115.741757,113.075706 L120.442508,113.075706 L126.906039,129.528332 L122.440326,129.528332 L121.500176,126.942919 L114.684089,126.942919 L113.743939,129.528332 Z M117.669065,118.669599 L115.976795,123.417357 L120.20747,123.417357 L118.5152,118.669599 C118.374178,118.270035 118.233155,117.870472 118.092132,117.000833 C117.95111,117.870472 117.810087,118.270035 117.669065,118.669599 Z M128.48079,113.075706 L132.828984,113.075706 L132.828984,125.650213 L140.350185,125.650213 L140.350185,129.528332 L128.48079,129.528332 L128.48079,113.075706 Z M142.206981,113.075706 L154.052871,113.075706 L154.052871,116.836306 L146.555175,116.836306 L146.555175,119.351208 L153.347759,119.351208 L153.347759,123.088304 L146.555175,123.088304 L146.555175,125.767732 L154.193894,125.767732 L154.193894,129.528332 L142.206981,129.528332 L142.206981,113.075706 Z" id="SALE-Copy" fill="#131F3C"></path>
        </g>
    </g>
</svg>