<?xml version="1.0" encoding="UTF-8" standalone="no"?>
<svg width="250px" height="292px" viewBox="0 0 250 292" version="1.1" xmlns="http://www.w3.org/2000/svg" xmlns:xlink="http://www.w3.org/1999/xlink">
    <!-- Generator: Sketch 48.2 (47327) - http://www.bohemiancoding.com/sketch -->
    <title>4 copy 2</title>
    <desc>Created with Sketch.</desc>
    <defs>
        <radialGradient cx="100%" cy="100%" fx="100%" fy="100%" r="99.9036965%" gradientTransform="translate(1.000000,1.000000),scale(1.000000,0.999999),rotate(87.460464),translate(-1.000000,-1.000000)" id="radialGradient-1">
            <stop stop-color="#8B00FF" offset="0%"></stop>
            <stop stop-color="#5300FF" offset="100%"></stop>
        </radialGradient>
        <radialGradient cx="50%" cy="50%" fx="50%" fy="50%" r="50.0253367%" id="radialGradient-2">
            <stop stop-color="#FF9495" offset="0%"></stop>
            <stop stop-color="#FE5B5C" offset="100%"></stop>
        </radialGradient>
    </defs>
    <g id="Monoreto" stroke="none" stroke-width="1" fill="none" fill-rule="evenodd">
        <g id="4-copy-2" transform="translate(0.000000, -7.000000)">
            <g id="Group-Copy-3" transform="translate(0.545890, 0.588188)">
                <g id="Group-3" transform="translate(0.000000, 48.762969)">
                    <g id="Group-8">
                        <path d="M0,125.013369 C2.91814549e-05,116.804853 0.800756631,108.675226 2.40218235,100.624437 C4.00360807,92.5736583 6.37495729,84.7564426 9.51623002,77.1727836 C12.6575028,69.5891246 16.5083459,62.384737 21.0687478,55.5596266 C25.6291439,48.7345168 30.8114843,42.4198151 36.6157632,36.6155391 C42.420048,30.811259 48.7347397,25.6289238 55.5598326,21.068533 C62.3849314,16.5081428 69.589319,12.6573224 77.1729546,9.51607244 C84.7565844,6.37482306 92.5737943,4.0035001 100.624537,2.40210473 C108.675281,0.800704688 116.804785,0 125.013248,0 L125.013248,56.256007 C120.498614,56.2560362 116.027356,56.6964369 111.599467,57.5772266 C107.171572,58.4580046 102.872157,59.7622464 98.7011703,61.4899402 C94.5301832,63.2176458 90.5678202,65.3356124 86.8140346,67.8438344 C83.0602548,70.3520563 79.5872123,73.2023432 76.3948837,76.3946952 C73.2025551,79.5870471 70.3522856,83.0601305 67.8440987,86.8139278 C65.335906,90.5677368 63.2179685,94.5301406 61.4902922,98.7011394 C59.7626275,102.872138 58.4584032,107.171594 57.5776369,111.599518 C56.6968997,116.027406 56.2565282,120.498706 56.2565107,125.013369 L0,125.013369 Z" id="Fill-8" fill="url(#radialGradient-1)"></path>
                        <path d="M124.740231,0 C132.917139,3.54646161e-05 140.809466,0.797690493 148.829249,2.3929616 C156.849031,3.98823619 164.636136,6.35047671 172.190582,9.47968199 C179.745051,12.6088826 186.921705,16.4449279 193.720557,20.9878092 C200.519385,25.5306945 206.80975,30.693127 212.591686,36.4751065 C218.373622,42.2570854 223.535985,48.5475211 228.078816,55.3464036 C232.621648,62.1452961 236.457622,69.3219914 239.586764,76.8764895 C242.715941,84.431005 245.078181,92.2181743 246.673414,100.237997 C248.268642,108.257814 249.066241,116.3562 249.066241,124.533125 C249.066206,132.710109 248.268572,140.808524 246.673269,148.828376 C245.078041,156.848228 242.715802,164.635409 239.586549,172.189947 C236.457372,179.74448 232.621334,186.921193 228.078462,193.720074 C223.535595,200.518961 218.373157,206.809395 212.591151,212.591383 C206.80918,218.373372 200.518781,223.535793 193.719865,228.078677 C186.920978,232.621543 179.744289,236.45757 172.189785,239.586729 C164.635281,242.715924 156.848106,245.078129 148.828289,246.673379 C140.808455,248.268624 132.710069,249.066241 124.533126,249.066241 C116.356143,249.066206 108.257746,248.268555 100.237911,246.673269 C92.2180591,245.078007 84.4308608,242.715767 76.8763221,239.586549 C69.3217834,236.457355 62.1450765,232.621316 55.3461899,228.078444 C48.5472975,223.53556 42.256863,218.373139 36.4748864,212.591151 C30.6929041,206.809186 25.5304769,200.518746 20.9876108,193.719865 C16.4447331,186.920978 12.6087116,179.744289 9.4795232,172.189767 C6.3503348,164.635263 3.98812395,156.848106 2.39288484,148.828289 C0.797622465,140.808454 5.00693342e-16,132.710068 0,124.533125 C0,124.533122 18.6801356,124.533128 56.0404068,124.533143 C56.0404243,129.030463 56.479139,133.484604 57.3565452,137.895518 C58.2339282,142.306439 59.5331599,146.589378 61.2542228,150.744372 C62.9753032,154.899372 65.0851164,158.846554 67.5837091,162.585949 C70.0823017,166.32535 72.9216395,169.785103 76.1017226,172.965187 C79.2818172,176.14527 82.7415591,178.984607 86.4809366,181.4832 C90.2203198,183.981752 94.1674967,186.091571 98.3224788,187.812634 C102.477461,189.533691 106.7604,190.832923 111.171297,191.710312 C115.5822,192.587677 120.0363,193.026363 124.533621,193.026363 C129.030947,193.026345 133.485081,192.587642 137.896019,191.710259 C142.306916,190.832853 146.589873,189.533621 150.744873,187.812541 C154.899872,186.091484 158.847049,183.981665 162.58645,181.483072 C166.325827,178.98448 169.785569,176.145147 172.965664,172.965064 C176.145764,169.784981 178.985102,166.325239 181.483695,162.585845 C183.98227,158.846444 186.092083,154.899267 187.813129,150.744285 C189.534168,146.589303 190.8334,142.306363 191.710789,137.895466 C192.588172,133.484552 193.026857,129.030446 193.02684,124.533143 C193.026823,120.035823 192.588119,115.581682 191.710736,111.170767 C190.83333,106.759847 189.534099,102.47689 187.813018,98.3218963 C186.091979,94.1669026 183.982159,90.2197141 181.483567,86.480325 C178.98498,82.7409359 176.145625,79.2811998 172.965542,76.1011109 C169.785459,72.9210162 166.325723,70.08169 162.586322,67.583109 C158.846927,65.0845221 154.899744,62.9747088 150.744762,61.2536575 C146.589786,59.5326062 142.306846,58.2333804 137.895961,57.3559916 C133.485047,56.4786086 129.030947,56.0399171 124.533621,56.0399171 L124.740231,0 Z" id="Fill-8" fill="url(#radialGradient-2)"></path>
                    </g>
                </g>
                <circle id="Oval" fill="#FFFFFF" cx="124.90822" cy="173.671189" r="87.3982442"></circle>
                <path d="M104.756525,143.214344 L116.854663,143.214344 L116.854663,146.826982 L108.537193,146.798977 L108.285149,150.523635 C109.097292,150.355606 109.965445,150.243586 110.749584,150.243586 C114.558257,150.243586 117.722816,151.951888 117.722816,156.32066 C117.722816,160.745442 113.858133,162.677784 109.657391,162.677784 C107.445,162.677784 105.204604,162.201699 103.524307,161.389556 L103.524307,157.496868 C105.064579,158.477041 107.27697,159.009135 109.181307,159.009135 C111.673747,159.009135 113.522074,158.112977 113.522074,156.26465 C113.522074,154.388319 111.925792,153.464155 108.873252,153.464155 C107.50101,153.464155 105.736698,153.688195 104.084406,154.276299 L104.756525,143.214344 Z M127.384524,163.966011 L124.584029,163.966011 L136.038053,141.001953 L138.838548,141.001953 L127.384524,163.966011 Z M129.708935,147.107032 C129.708935,150.271591 127.356519,151.923883 124.668044,151.923883 C121.951564,151.923883 119.571143,150.271591 119.571143,147.107032 C119.571143,143.942472 121.951564,142.29018 124.668044,142.29018 C127.356519,142.29018 129.708935,143.942472 129.708935,147.107032 Z M122.707697,147.107032 C122.707697,148.11521 123.295801,149.039373 124.668044,149.039373 C125.984277,149.039373 126.572381,148.11521 126.572381,147.107032 C126.572381,146.098853 125.984277,145.17469 124.668044,145.17469 C123.295801,145.17469 122.707697,146.098853 122.707697,147.107032 Z M143.739415,157.860932 C143.739415,161.025492 141.386999,162.677784 138.698524,162.677784 C135.982044,162.677784 133.601623,161.025492 133.601623,157.860932 C133.601623,154.696373 135.982044,153.044081 138.698524,153.044081 C141.386999,153.044081 143.739415,154.696373 143.739415,157.860932 Z M136.738177,157.860932 C136.738177,158.86911 137.326281,159.793274 138.698524,159.793274 C140.014756,159.793274 140.60286,158.86911 140.60286,157.860932 C140.60286,156.852754 140.014756,155.928591 138.698524,155.928591 C137.326281,155.928591 136.738177,156.852754 136.738177,157.860932 Z" id="5%" fill="#131F3C"></path>
                <path d="M80.636845,199.728204 L78.3130269,199.728204 L78.3130269,196.585769 C76.3589072,196.374512 74.5104155,195.846372 73.0316222,195.027754 L73.0316222,192.070168 C75.064963,193.364112 77.4415951,193.892252 79.554157,193.892252 C81.9307892,193.892252 83.5416176,193.337705 83.5416176,191.594841 C83.5416176,187.316903 73.1108433,189.587907 73.1108433,183.038965 C73.1108433,180.028565 75.4082543,178.417736 78.3130269,178.074445 L78.3130269,174.905602 L80.636845,174.905602 L80.636845,178.048038 C82.4061156,178.180073 84.1753862,178.655399 85.4165163,179.394796 L85.4165163,182.273162 C83.911316,181.269695 81.8515681,180.715147 79.8710413,180.741554 C77.6264443,180.741554 76.174058,181.40173 76.174058,182.986151 C76.174058,186.973612 86.6048324,184.834643 86.6048324,191.436399 C86.6048324,195.001347 83.937723,196.427326 80.636845,196.612176 L80.636845,199.728204 Z M88.7702083,187.316903 C88.7702083,182.061906 91.2524685,177.995224 96.8243505,177.995224 C102.396233,177.995224 104.878493,182.061906 104.878493,187.316903 C104.878493,192.571901 102.396233,196.638583 96.8243505,196.638583 C91.2524685,196.638583 88.7702083,192.571901 88.7702083,187.316903 Z M101.841685,187.316903 C101.841685,183.144593 100.257264,180.741554 96.8243505,180.741554 C93.3650304,180.741554 91.807016,183.144593 91.807016,187.316903 C91.807016,191.489213 93.3650304,193.892252 96.8243505,193.892252 C100.257264,193.892252 101.841685,191.489213 101.841685,187.316903 Z M110.978515,194.842905 C110.978515,196.031221 110.159898,196.585769 109.209245,196.585769 C108.258592,196.585769 107.413567,196.031221 107.413567,194.842905 C107.413567,193.707403 108.258592,193.152855 109.209245,193.152855 C110.159898,193.152855 110.978515,193.707403 110.978515,194.842905 Z M113.51359,187.316903 C113.51359,182.061906 115.99585,177.995224 121.567732,177.995224 C127.139614,177.995224 129.621874,182.061906 129.621874,187.316903 C129.621874,192.571901 127.139614,196.638583 121.567732,196.638583 C115.99585,196.638583 113.51359,192.571901 113.51359,187.316903 Z M126.585066,187.316903 C126.585066,183.144593 125.000645,180.741554 121.567732,180.741554 C118.108412,180.741554 116.550397,183.144593 116.550397,187.316903 C116.550397,191.489213 118.108412,193.892252 121.567732,193.892252 C125.000645,193.892252 126.585066,191.489213 126.585066,187.316903 Z M141.082522,178.338515 L144.172144,178.338515 L144.172144,190.01042 L147.261766,190.01042 L147.261766,192.624715 L144.172144,192.624715 L144.172144,196.295291 L141.267371,196.295291 L141.267371,192.624715 L131.52318,192.624715 L131.52318,190.063234 L141.082522,178.338515 Z M141.267371,190.01042 L141.267371,182.167534 L134.876872,190.01042 L141.267371,190.01042 Z M148.714152,178.338515 L162.049699,178.338515 L162.049699,180.715147 L154.602918,196.295291 L151.354855,196.295291 L158.643193,181.032032 L148.714152,181.032032 L148.714152,178.338515 Z M165.007286,178.338515 L176.071829,178.338515 L176.071829,181.032032 L167.780023,181.032032 L167.515953,185.362783 C168.387385,185.151527 169.311631,185.045899 170.235876,185.045899 C173.695197,185.045899 176.916853,186.5511 176.916853,190.776223 C176.916853,194.658056 173.615976,196.638583 169.654922,196.638583 C167.568767,196.638583 165.482612,196.189663 163.898191,195.42386 L163.898191,192.598308 C165.403391,193.46974 167.436732,193.918659 169.311631,193.918659 C171.97874,193.918659 173.880046,192.862378 173.880046,190.749816 C173.880046,188.373184 171.846705,187.528159 168.994746,187.528159 C167.54236,187.528159 165.878718,187.818637 164.426331,188.32037 L165.007286,178.338515 Z M90.2886122,210.338515 L92.5068022,210.338515 L92.5068022,225.575368 L95.702052,225.575368 L95.702052,228.295291 L85.9314533,228.295291 L85.9314533,225.575368 L89.5228085,225.575368 L89.5228085,213.428137 L85.9314533,214.774895 L85.9314533,212.002158 L90.2886122,210.338515 Z M121.528121,209.810375 L124.248045,209.810375 L124.248045,228.295291 L121.237644,228.295291 L121.237644,215.35585 L115.401692,224.122982 L113.606014,224.122982 L107.770062,215.329443 L107.770062,228.295291 L104.759661,228.295291 L104.759661,209.810375 L107.479585,209.810375 L114.503853,220.399591 L121.528121,209.810375 Z M131.747639,228.295291 L128.737239,228.295291 L128.737239,209.810375 L131.56279,209.810375 L141.518238,223.330771 C141.491831,222.697002 141.491831,221.984013 141.491831,221.29743 L141.491831,209.810375 L144.502232,209.810375 L144.502232,228.295291 L141.67668,228.295291 L131.721232,214.774895 C131.747639,215.408664 131.747639,216.121653 131.747639,216.781829 L131.747639,228.295291 Z M152.001827,228.295291 L148.991426,228.295291 L148.991426,209.810375 L156.385393,209.810375 C159.844713,209.810375 163.488882,211.18354 163.488882,215.593513 C163.488882,218.894391 161.429134,220.478812 158.999688,221.059767 L164.914861,228.295291 L161.297099,228.295291 L155.751624,221.376651 L152.001827,221.376651 L152.001827,228.295291 Z M152.001827,212.556705 L152.001827,218.709542 L156.517428,218.709542 C158.497954,218.709542 160.425667,217.996552 160.425667,215.646327 C160.425667,213.269695 158.497954,212.556705 156.517428,212.556705 L152.001827,212.556705 Z" id="$0.0475-1-MNR" fill="#131F3C"></path>
                <path d="M9.97765363,8.66815642 C11.8156425,7.35530726 13.9424581,6.77765363 16.1217877,6.77765363 C19.7189944,6.77765363 22.6335196,8.40558659 22.6335196,12.0553073 C22.6335196,15.0748603 20.1391061,16.8603352 17.8022346,18.2519553 C15.675419,19.5122905 13.8636872,20.4837989 13.8374302,21.6391061 L22.7648045,21.6128492 L22.7648045,25 L9.37374302,25 L9.37374302,23.2407821 C9.37374302,18.9346369 12.6296089,17.2541899 15.2553073,15.7050279 C17.1195531,14.6284916 18.7212291,13.9195531 18.7212291,12.2128492 C18.7212291,10.9 17.5659218,10.2173184 15.7541899,10.2173184 C13.9687151,10.2173184 11.8681564,10.9 9.97765363,12.3441341 L9.97765363,8.66815642 Z M29.0139665,14.6547486 C30.5893855,13.8145251 32.0335196,13.4469274 33.7927374,13.4469274 C36.9960894,13.4469274 40.0156425,15.3899441 40.0156425,19.2234637 C40.0156425,23.2932961 36.8385475,25.3675978 33.1888268,25.3675978 C27.4385475,25.3675978 25.101676,21.849162 25.101676,16.0726257 C25.101676,9.53463687 29.0402235,6.77765363 33.5826816,6.77765363 C35.2631285,6.77765363 36.9698324,7.17150838 38.4927374,7.88044693 L38.4927374,11.3463687 C37.2586592,10.5324022 35.6307263,10.0860335 34.1078212,10.0860335 C31.6921788,10.0860335 29.4865922,11.1100559 29.0139665,14.6547486 Z M29.0139665,17.8318436 C29.3815642,21.1664804 30.8256983,22.1642458 32.873743,22.1642458 C34.6067039,22.1642458 36.077095,21.3765363 36.077095,19.4072626 C36.077095,17.3592179 34.422905,16.7290503 32.5849162,16.7290503 C31.403352,16.7290503 30.1430168,17.096648 29.0139665,17.8318436 Z M59.472067,21.7441341 C59.472067,22.4005587 59.8921788,22.5843575 60.3648045,22.5843575 C60.5748603,22.5843575 60.8111732,22.5581006 61.047486,22.4793296 L61.047486,24.8687151 C60.4698324,25.0787709 59.7346369,25.2363128 59.0256983,25.2363128 C57.7391061,25.2363128 56.7675978,24.7636872 56.2424581,23.8184358 C55.0083799,24.7899441 53.5642458,25.3675978 51.7,25.3675978 C49.3368715,25.3675978 47.2888268,24.0022346 47.2888268,21.5078212 C47.2888268,18.3044693 50.3083799,17.3067039 52.8290503,17.3067039 C53.8268156,17.3067039 54.9296089,17.4379888 55.8223464,17.6480447 L55.8223464,17.201676 C55.8223464,15.9413408 54.824581,15.0748603 52.8553073,15.0748603 C51.1223464,15.0748603 49.5731844,15.547486 48.3916201,16.0201117 L48.3916201,12.8692737 C49.4156425,12.527933 51.3324022,12.0290503 53.275419,12.0290503 C57.0564246,12.0290503 59.472067,13.5782123 59.472067,17.7268156 L59.472067,21.7441341 Z M53.6692737,19.4860335 C52.3301676,19.4860335 51.0173184,19.9324022 51.0173184,21.2189944 C51.0173184,22.1642458 51.8837989,22.7681564 52.9865922,22.7681564 C54.0106145,22.7681564 54.9821229,22.4793296 55.8223464,21.7441341 L55.8223464,19.7748603 C55.2709497,19.6435754 54.4307263,19.4860335 53.6692737,19.4860335 Z M66.6402235,25 L62.9905028,25 L62.9905028,12.396648 L75.3837989,12.396648 L75.3837989,25 L71.7340782,25 L71.7340782,15.4687151 L66.6402235,15.4687151 L66.6402235,25 Z M81.7117318,14.2346369 C82.4994413,13.1055866 83.9435754,12.0290503 86.2804469,12.0290503 C90.2715084,12.0290503 92.424581,15.2586592 92.424581,18.698324 C92.424581,22.1379888 90.2715084,25.3675978 86.2804469,25.3675978 C84.2849162,25.3675978 82.9458101,24.5536313 82.1318436,23.6608939 L82.1318436,30.7765363 L78.4821229,30.7765363 L78.4821229,12.396648 L81.7117318,12.396648 L81.7117318,14.2346369 Z M88.6960894,18.698324 C88.6960894,16.7290503 87.4620112,15.1011173 85.3877095,15.1011173 C83.7860335,15.1011173 82.6044693,16.0988827 82.1055866,17.201676 L82.1055866,20.1949721 C82.6044693,21.2977654 83.7860335,22.2955307 85.3877095,22.2955307 C87.4620112,22.2955307 88.6960894,20.6675978 88.6960894,18.698324 Z M94.1050279,18.698324 C94.1050279,13.9458101 97.7547486,12.0290503 100.590503,12.0290503 C105.815642,12.0290503 107.496089,16.1513966 106.655866,19.8798883 L97.7810056,19.8798883 C98.2011173,21.7178771 100.144134,22.4793296 102.218436,22.4793296 C103.66257,22.4793296 104.949162,22.1905028 106.025698,21.7178771 L106.025698,24.5798883 C104.844134,25.0787709 103.294972,25.3675978 101.404469,25.3675978 C97.4134078,25.3675978 94.1050279,23.0832402 94.1050279,18.698324 Z M103.373743,17.5167598 C103.505028,16.6502793 103.006145,14.8122905 100.721788,14.8122905 C99.1726257,14.8122905 97.8072626,15.7837989 97.7547486,17.5167598 L103.373743,17.5167598 Z M114.71676,15.2849162 C114.349162,20.9564246 113.377654,25.2625698 109.911732,25.2625698 C109.334078,25.2625698 108.651397,25.1575419 107.916201,24.8949721 L107.916201,22.0067039 C108.178771,22.1117318 108.441341,22.1642458 108.677654,22.1642458 C110.673184,22.1642458 111.119553,18.0418994 111.355866,12.396648 L121.596089,12.396648 L121.596089,25 L117.946369,25 L117.946369,15.2849162 L114.71676,15.2849162 Z M127.687709,25 L123.59162,25 L126.9,20.7726257 C125.193296,20.0374302 124.326816,18.5145251 124.326816,16.8078212 C124.326816,14.4446927 126.059777,12.396648 129.368156,12.396648 L136.194972,12.396648 L136.194972,25 L132.545251,25 L132.545251,21.2452514 L130.497207,21.2452514 L127.687709,25 Z M128.02905,16.9128492 C128.02905,17.9368715 128.790503,18.5145251 130.103352,18.5145251 L132.545251,18.5145251 L132.545251,15.2849162 L130.103352,15.2849162 C128.790503,15.2849162 128.02905,15.8625698 128.02905,16.9128492 Z M162.451955,20.1424581 L145.017318,20.1424581 L145.017318,17.0703911 L162.451955,17.0703911 L162.451955,20.1424581 Z M183.56257,11.7139665 C183.56257,13.5519553 182.538547,14.9698324 180.858101,15.547486 C182.669832,16.0988827 184.297765,17.4905028 184.297765,20.1162011 C184.297765,23.8709497 180.831844,25.3675978 177.155866,25.3675978 C174.845251,25.3675978 172.981006,25 170.959218,24.1597765 L170.959218,20.5100559 C172.981006,21.6391061 174.792737,21.927933 176.840782,21.901676 C178.86257,21.901676 180.543017,21.2452514 180.543017,19.5648045 C180.543017,18.0418994 179.230168,17.4905028 177.444693,17.4905028 L174.503911,17.4905028 L174.530168,14.1296089 L176.998324,14.1558659 C178.757542,14.1558659 179.834078,13.4994413 179.834078,12.2653631 C179.834078,10.9787709 178.705028,10.2173184 176.551955,10.2173184 C174.950279,10.2173184 173.03352,10.7424581 171.274302,11.8189944 L171.274302,8.16927374 C172.875978,7.3027933 174.897765,6.77765363 177.103352,6.77765363 C180.805587,6.77765363 183.56257,8.45810056 183.56257,11.7139665 Z M196.297207,25 L192.752514,25 L192.752514,12.396648 L196.244693,12.396648 L200.156983,18.6458101 L204.095531,12.396648 L207.561453,12.396648 L207.561453,25 L204.043017,25 L204.043017,17.5692737 L201.075978,22.2692737 L199.264246,22.2692737 L196.297207,17.5692737 L196.297207,25 Z M221.924022,21.7441341 C221.924022,22.4005587 222.344134,22.5843575 222.81676,22.5843575 C223.026816,22.5843575 223.263128,22.5581006 223.499441,22.4793296 L223.499441,24.8687151 C222.921788,25.0787709 222.186592,25.2363128 221.477654,25.2363128 C220.191061,25.2363128 219.219553,24.7636872 218.694413,23.8184358 C217.460335,24.7899441 216.016201,25.3675978 214.151955,25.3675978 C211.788827,25.3675978 209.740782,24.0022346 209.740782,21.5078212 C209.740782,18.3044693 212.760335,17.3067039 215.281006,17.3067039 C216.278771,17.3067039 217.381564,17.4379888 218.274302,17.6480447 L218.274302,17.201676 C218.274302,15.9413408 217.276536,15.0748603 215.307263,15.0748603 C213.574302,15.0748603 212.02514,15.547486 210.843575,16.0201117 L210.843575,12.8692737 C211.867598,12.527933 213.784358,12.0290503 215.727374,12.0290503 C219.50838,12.0290503 221.924022,13.5782123 221.924022,17.7268156 L221.924022,21.7441341 Z M216.121229,19.4860335 C214.782123,19.4860335 213.469274,19.9324022 213.469274,21.2189944 C213.469274,22.1642458 214.335754,22.7681564 215.438547,22.7681564 C216.46257,22.7681564 217.434078,22.4793296 218.274302,21.7441341 L218.274302,19.7748603 C217.722905,19.6435754 216.882682,19.4860335 216.121229,19.4860335 Z M228.435754,25 L224.339665,25 L227.648045,20.7726257 C225.941341,20.0374302 225.07486,18.5145251 225.07486,16.8078212 C225.07486,14.4446927 226.807821,12.396648 230.116201,12.396648 L236.943017,12.396648 L236.943017,25 L233.293296,25 L233.293296,21.2452514 L231.245251,21.2452514 L228.435754,25 Z M228.777095,16.9128492 C228.777095,17.9368715 229.538547,18.5145251 230.851397,18.5145251 L233.293296,18.5145251 L233.293296,15.2849162 L230.851397,15.2849162 C229.538547,15.2849162 228.777095,15.8625698 228.777095,16.9128492 Z" id="26-апреля-—-3-мая" fill="#131F3C"></path>
            </g>
            <path d="M96.1684365,118.153111 C96.1684365,114.862586 98.9888866,113.311338 102.373427,113.311338 C104.418253,113.311338 106.463079,113.804917 107.896808,114.627548 L107.896808,118.623186 C106.486583,117.565517 104.629787,117.048435 102.725983,117.071939 C101.127728,117.095442 100.634149,117.51851 100.634149,118.129607 C100.634149,120.268449 109.189514,119.610344 109.189514,125.439274 C109.189514,129.340897 106.204538,130.469077 102.608464,130.469077 C100.234585,130.469077 98.0252328,129.92849 96.2859552,128.964837 L96.2859552,124.85168 C98.2367665,126.191394 100.399112,126.708476 102.279412,126.708476 C103.995186,126.708476 104.723802,126.426431 104.723802,125.6038 C104.723802,123.229921 96.1684365,124.029049 96.1684365,118.153111 Z M114.289828,130.11652 L109.824116,130.11652 L116.287647,113.663895 L120.988397,113.663895 L127.451929,130.11652 L122.986216,130.11652 L122.046066,127.531108 L115.229978,127.531108 L114.289828,130.11652 Z M118.214955,119.257787 L116.522685,124.005545 L120.75336,124.005545 L119.06109,119.257787 C118.920067,118.858224 118.779045,118.45866 118.638022,117.589021 C118.497,118.45866 118.355977,118.858224 118.214955,119.257787 Z M129.02668,113.663895 L133.374874,113.663895 L133.374874,126.238401 L140.896075,126.238401 L140.896075,130.11652 L129.02668,130.11652 L129.02668,113.663895 Z M142.752871,113.663895 L154.598761,113.663895 L154.598761,117.424495 L147.101065,117.424495 L147.101065,119.939396 L153.893649,119.939396 L153.893649,123.676493 L147.101065,123.676493 L147.101065,126.35592 L154.739784,126.35592 L154.739784,130.11652 L142.752871,130.11652 L142.752871,113.663895 Z" id="sale" fill="#131F3C"></path>
        </g>
    </g>
</svg>