<?xml version="1.0" encoding="UTF-8" standalone="no"?>
<svg width="250px" height="292px" viewBox="0 0 250 292" version="1.1" xmlns="http://www.w3.org/2000/svg" xmlns:xlink="http://www.w3.org/1999/xlink">
    <!-- Generator: Sketch 48.2 (47327) - http://www.bohemiancoding.com/sketch -->
    <title>5 copy 2</title>
    <desc>Created with Sketch.</desc>
    <defs>
        <radialGradient cx="50%" cy="50%" fx="50%" fy="50%" r="50.0253367%" gradientTransform="translate(0.500000,0.500000),scale(1.000000,1.000000),rotate(88.176375),translate(-0.500000,-0.500000)" id="radialGradient-1">
            <stop stop-color="#FF9495" offset="0%"></stop>
            <stop stop-color="#FE5B5C" offset="100%"></stop>
        </radialGradient>
    </defs>
    <g id="Monoreto" stroke="none" stroke-width="1" fill="none" fill-rule="evenodd">
        <g id="5-copy-2" transform="translate(0.000000, -7.000000)">
            <g id="Group-7" transform="translate(0.637670, 49.351157)">
                <path d="M124.637764,0 C132.821471,3.54941064e-05 140.926556,0.798353806 148.953007,2.39495144 C156.979458,3.99155257 164.773039,6.3557574 172.333767,9.48756474 C179.894518,12.6193674 187.07714,16.4586026 193.881645,21.0052615 C200.686127,25.5519244 206.981723,30.7186496 212.768466,36.505437 C218.55521,42.2922239 223.721866,48.5878904 228.268475,55.3924265 C232.815084,62.1969726 236.654249,69.3796356 239.785993,76.9404155 C242.917771,84.501213 245.281976,92.2948576 246.878535,100.321349 C248.475089,108.347835 249.273352,116.452955 249.273352,124.63668 C249.273317,132.820463 248.47502,140.925612 246.87839,148.952133 C245.281836,156.978654 242.917632,164.77231 239.785777,172.333131 C236.653998,179.893946 232.81477,187.076626 228.26812,193.88116 C223.721476,200.685701 218.554745,206.981366 212.767931,212.768162 C206.981152,218.554958 200.685522,223.721672 193.880953,228.268334 C187.076412,232.814977 179.893755,236.654194 172.332969,239.785956 C164.772184,242.917752 156.978533,245.281921 148.952047,246.878499 C140.925544,248.47507 132.820424,249.27335 124.636682,249.27335 C116.452899,249.273315 108.347767,248.475 100.321264,246.878388 C92.2947429,245.281799 84.5010693,242.917595 76.9402486,239.785775 C69.3794278,236.653979 62.1967532,232.81475 55.392213,228.268101 C48.5876669,223.72144 42.2920016,218.554726 36.5052171,212.767929 C30.7184267,206.981156 25.5517068,200.685485 21.005063,193.880951 C16.4584077,187.076411 12.6191964,179.893754 9.48740589,172.33295 C6.35561542,164.772164 3.99144027,156.978532 2.39487464,148.952046 C0.798285727,140.925542 0,132.820422 0,124.63668 C2.90935298e-05,116.452914 0.798343914,108.347783 2.39494446,100.32125 C3.99154501,92.2947296 6.35574925,84.5010675 9.48755718,76.9402584 C12.6193651,69.3794494 16.4586055,62.1967689 21.0052667,55.3922229 C25.5519221,48.5876774 30.7186478,42.2920022 36.5054382,36.5052148 C42.2922344,30.7184232 48.5878997,25.5517027 55.3924283,21.0050526 C62.1969627,16.458403 69.3796431,12.6191853 76.9404289,9.48740007 C84.5012089,6.35561542 92.2948651,3.99143736 100.321351,2.39486707 C108.347837,0.798292128 116.452951,4.65496476e-06 124.636682,4.65496476e-06 L124.636577,56.086505 C120.135546,56.0865341 115.67776,56.5256079 111.263212,57.4037437 C106.848659,58.2818679 102.562199,59.5821799 98.4037791,61.3046682 C94.2453594,63.0271681 90.2949352,65.1387532 86.5524599,67.6394177 C82.8099904,70.1400823 79.3474123,72.9817811 76.1647023,76.1645144 C72.9819924,79.3472476 70.1403109,82.8098664 67.6396813,86.5523534 C65.1390459,90.294852 63.0274898,94.2453169 61.305019,98.4037482 C59.5825599,102.56218 58.2822653,106.848681 57.4041528,111.263263 C56.5260693,115.67781 56.0870247,120.135637 56.0870072,124.636697 C56.0870247,129.137757 56.5261042,133.595602 57.40424,138.010184 C58.2823526,142.424773 59.5826646,146.711274 61.3051587,150.869722 C63.0276702,155.028177 65.1392379,158.978642 67.6399082,162.721146 C70.1405786,166.463656 72.9822775,169.926287 76.1650049,173.109014 C79.347744,176.291742 82.8103628,179.133441 86.5528497,181.634111 C90.2953425,184.134741 94.2458016,186.246314 98.4042387,187.968808 C102.562676,189.691296 106.849177,190.991608 111.263742,191.869727 C115.678313,192.747822 120.136116,193.186872 124.637176,193.186872 C129.138242,193.186855 133.596081,192.747787 138.010686,191.869674 C142.425251,190.991539 146.71177,189.691227 150.870224,187.968715 C155.028679,186.246227 158.979138,184.134653 162.721648,181.633983 C166.464135,179.133313 169.926754,176.29162 173.109493,173.108892 C176.292238,169.926165 179.133937,166.463546 181.634607,162.721042 C184.13526,158.978531 186.246828,155.028072 187.969305,150.869635 C189.691775,146.711198 190.992087,142.424697 191.870206,138.010132 C192.748318,133.59555 193.187369,129.13774 193.187351,124.636697 C193.187334,120.135637 192.748266,115.677793 191.870153,111.263211 C190.992018,106.848622 189.691706,102.562104 187.969194,98.4036551 C186.246723,94.2452064 184.13515,90.2947356 181.634479,86.552237 C179.133815,82.8097384 176.292098,79.3471254 173.109371,76.1643922 C169.926644,72.9816531 166.464031,70.1399659 162.72152,67.6393072 C158.979016,65.1386426 155.028551,63.027075 150.870114,61.3045925 C146.711683,59.5821101 142.425182,58.2818039 138.010628,57.4036855 C133.596046,56.525573 129.138242,56.0865167 124.637176,56.0865167 L124.637764,0 Z" id="Fill-8" fill="url(#radialGradient-1)"></path>
                <circle id="Oval" fill="#FFFFFF" cx="124.90822" cy="124.90822" r="87.3982442"></circle>
                <path d="M101.065786,103.973018 C101.065786,98.4840476 103.670246,94.0592656 109.74732,94.0592656 C115.824394,94.0592656 118.428854,98.4840476 118.428854,103.973018 C118.428854,109.461988 115.824394,113.88677 109.74732,113.88677 C103.670246,113.88677 101.065786,109.461988 101.065786,103.973018 Z M114.228112,103.973018 C114.228112,99.9123001 112.827864,97.755919 109.74732,97.755919 C106.666776,97.755919 105.266528,99.9123001 105.266528,103.973018 C105.266528,108.033735 106.666776,110.190117 109.74732,110.190117 C112.827864,110.190117 114.228112,108.033735 114.228112,103.973018 Z M128.258592,115.174998 L125.458097,115.174998 L136.912121,92.210939 L139.712616,92.210939 L128.258592,115.174998 Z M130.583002,98.3160179 C130.583002,101.480577 128.230587,103.132869 125.542112,103.132869 C122.825631,103.132869 120.445211,101.480577 120.445211,98.3160179 C120.445211,95.1514586 122.825631,93.4991666 125.542112,93.4991666 C128.230587,93.4991666 130.583002,95.1514586 130.583002,98.3160179 Z M123.581765,98.3160179 C123.581765,99.3241961 124.169869,100.248359 125.542112,100.248359 C126.858344,100.248359 127.446448,99.3241961 127.446448,98.3160179 C127.446448,97.3078398 126.858344,96.3836764 125.542112,96.3836764 C124.169869,96.3836764 123.581765,97.3078398 123.581765,98.3160179 Z M144.613482,109.069919 C144.613482,112.234478 142.261066,113.88677 139.572591,113.88677 C136.856111,113.88677 134.47569,112.234478 134.47569,109.069919 C134.47569,105.905359 136.856111,104.253067 139.572591,104.253067 C142.261066,104.253067 144.613482,105.905359 144.613482,109.069919 Z M137.612245,109.069919 C137.612245,110.078097 138.200349,111.00226 139.572591,111.00226 C140.888824,111.00226 141.476928,110.078097 141.476928,109.069919 C141.476928,108.06174 140.888824,107.137577 139.572591,107.137577 C138.200349,107.137577 137.612245,108.06174 137.612245,109.069919 Z" id="0%" fill="#131F3C"></path>
                <path d="M77.8377005,151.589233 L75.5138824,151.589233 L75.5138824,148.446797 C73.5597627,148.235541 71.711271,147.707401 70.2324777,146.888783 L70.2324777,143.931196 C72.2658185,145.225141 74.6424506,145.753281 76.7550125,145.753281 C79.1316447,145.753281 80.7424731,145.198734 80.7424731,143.45587 C80.7424731,139.177932 70.3116987,141.448936 70.3116987,134.899994 C70.3116987,131.889594 72.6091098,130.278765 75.5138824,129.935474 L75.5138824,126.766631 L77.8377005,126.766631 L77.8377005,129.909067 C79.6069711,130.041102 81.3762417,130.516428 82.6173718,131.255825 L82.6173718,134.134191 C81.1121714,133.130724 79.0524236,132.576176 77.0718968,132.602583 C74.8272998,132.602583 73.3749135,133.262759 73.3749135,134.84718 C73.3749135,138.834641 83.8056879,136.695672 83.8056879,143.297428 C83.8056879,146.862376 81.1385785,148.288355 77.8377005,148.473204 L77.8377005,151.589233 Z M85.9710638,139.177932 C85.9710638,133.922934 88.453324,129.856253 94.025206,129.856253 C99.597088,129.856253 102.079348,133.922934 102.079348,139.177932 C102.079348,144.43293 99.597088,148.499611 94.025206,148.499611 C88.453324,148.499611 85.9710638,144.43293 85.9710638,139.177932 Z M99.0425405,139.177932 C99.0425405,135.005622 97.4581191,132.602583 94.025206,132.602583 C90.5658859,132.602583 89.0078715,135.005622 89.0078715,139.177932 C89.0078715,143.350242 90.5658859,145.753281 94.025206,145.753281 C97.4581191,145.753281 99.0425405,143.350242 99.0425405,139.177932 Z M108.179371,146.703934 C108.179371,147.89225 107.360753,148.446797 106.4101,148.446797 C105.459447,148.446797 104.614423,147.89225 104.614423,146.703934 C104.614423,145.568432 105.459447,145.013884 106.4101,145.013884 C107.360753,145.013884 108.179371,145.568432 108.179371,146.703934 Z M110.714445,139.177932 C110.714445,133.922934 113.196705,129.856253 118.768587,129.856253 C124.340469,129.856253 126.822729,133.922934 126.822729,139.177932 C126.822729,144.43293 124.340469,148.499611 118.768587,148.499611 C113.196705,148.499611 110.714445,144.43293 110.714445,139.177932 Z M123.785922,139.177932 C123.785922,135.005622 122.2015,132.602583 118.768587,132.602583 C115.309267,132.602583 113.751253,135.005622 113.751253,139.177932 C113.751253,143.350242 115.309267,145.753281 118.768587,145.753281 C122.2015,145.753281 123.785922,143.350242 123.785922,139.177932 Z M130.519713,130.199544 L141.584256,130.199544 L141.584256,132.89306 L133.29245,132.89306 L133.02838,137.223812 C133.899812,137.012556 134.824058,136.906928 135.748304,136.906928 C139.207624,136.906928 142.429281,138.412128 142.429281,142.637252 C142.429281,146.519085 139.128403,148.499611 135.167349,148.499611 C133.081194,148.499611 130.995039,148.050692 129.410618,147.284888 L129.410618,144.459337 C130.915818,145.330769 132.949159,145.779688 134.824058,145.779688 C137.491167,145.779688 139.392473,144.723407 139.392473,142.610845 C139.392473,140.234213 137.359132,139.389188 134.507173,139.389188 C133.054787,139.389188 131.391145,139.679666 129.938758,140.181399 L130.519713,130.199544 Z M144.779506,139.177932 C144.779506,133.922934 147.261766,129.856253 152.833648,129.856253 C158.40553,129.856253 160.88779,133.922934 160.88779,139.177932 C160.88779,144.43293 158.40553,148.499611 152.833648,148.499611 C147.261766,148.499611 144.779506,144.43293 144.779506,139.177932 Z M157.850982,139.177932 C157.850982,135.005622 156.266561,132.602583 152.833648,132.602583 C149.374328,132.602583 147.816313,135.005622 147.816313,139.177932 C147.816313,143.350242 149.374328,145.753281 152.833648,145.753281 C156.266561,145.753281 157.850982,143.350242 157.850982,139.177932 Z M163.422864,139.177932 C163.422864,133.922934 165.905125,129.856253 171.477007,129.856253 C177.048889,129.856253 179.531149,133.922934 179.531149,139.177932 C179.531149,144.43293 177.048889,148.499611 171.477007,148.499611 C165.905125,148.499611 163.422864,144.43293 163.422864,139.177932 Z M176.494341,139.177932 C176.494341,135.005622 174.90992,132.602583 171.477007,132.602583 C168.017686,132.602583 166.459672,135.005622 166.459672,139.177932 C166.459672,143.350242 168.017686,145.753281 171.477007,145.753281 C174.90992,145.753281 176.494341,143.350242 176.494341,139.177932 Z M90.2886122,162.199544 L92.5068022,162.199544 L92.5068022,177.436397 L95.702052,177.436397 L95.702052,180.15632 L85.9314533,180.15632 L85.9314533,177.436397 L89.5228085,177.436397 L89.5228085,165.289166 L85.9314533,166.635924 L85.9314533,163.863187 L90.2886122,162.199544 Z M121.528121,161.671404 L124.248045,161.671404 L124.248045,180.15632 L121.237644,180.15632 L121.237644,167.216879 L115.401692,175.98401 L113.606014,175.98401 L107.770062,167.190472 L107.770062,180.15632 L104.759661,180.15632 L104.759661,161.671404 L107.479585,161.671404 L114.503853,172.26062 L121.528121,161.671404 Z M131.747639,180.15632 L128.737239,180.15632 L128.737239,161.671404 L131.56279,161.671404 L141.518238,175.1918 C141.491831,174.558031 141.491831,173.845041 141.491831,173.158459 L141.491831,161.671404 L144.502232,161.671404 L144.502232,180.15632 L141.67668,180.15632 L131.721232,166.635924 C131.747639,167.269693 131.747639,167.982682 131.747639,168.642858 L131.747639,180.15632 Z M152.001827,180.15632 L148.991426,180.15632 L148.991426,161.671404 L156.385393,161.671404 C159.844713,161.671404 163.488882,163.044569 163.488882,167.454542 C163.488882,170.75542 161.429134,172.339841 158.999688,172.920796 L164.914861,180.15632 L161.297099,180.15632 L155.751624,173.23768 L152.001827,173.23768 L152.001827,180.15632 Z M152.001827,164.417734 L152.001827,170.570571 L156.517428,170.570571 C158.497954,170.570571 160.425667,169.857581 160.425667,167.507356 C160.425667,165.130724 158.497954,164.417734 156.517428,164.417734 L152.001827,164.417734 Z" id="$0.0500-1-MNR" fill="#131F3C"></path>
            </g>
            <path d="M70.7813248,7.73343974 L74.6936153,7.73343974 L74.6936153,19.0501995 L77.3980846,19.0501995 L77.3980846,22.3323224 L74.6936153,22.3323224 L74.6936153,25.5881883 L70.9388667,25.5881883 L70.9388667,22.3323224 L61.5651237,22.3323224 L61.5651237,19.0764565 L70.7813248,7.73343974 Z M70.9388667,19.0501995 L70.9388667,12.5384677 L65.6612131,19.0501995 L70.9388667,19.0501995 Z M102.893615,20.7306464 L85.4589785,20.7306464 L85.4589785,17.6585794 L102.893615,17.6585794 L102.893615,20.7306464 Z M115.838308,7.73343974 L118.700319,7.73343974 L118.700319,22.2010375 L121.693615,22.2010375 L121.693615,25.5881883 L111.505906,25.5881883 L111.505906,22.2010375 L114.8668,22.2010375 L114.8668,11.6719872 L111.505906,12.9323224 L111.505906,9.38762969 L115.838308,7.73343974 Z M124.60814,7.70718276 L135.951157,7.70718276 L135.951157,11.0943336 L128.152833,11.0680766 L127.91652,14.5602554 C128.677973,14.4027135 129.491939,14.2976856 130.227135,14.2976856 C133.798085,14.2976856 136.765124,15.8993615 136.765124,19.9954509 C136.765124,24.1440543 133.14166,25.9557861 129.203113,25.9557861 C127.128811,25.9557861 125.028252,25.5094174 123.452833,24.7479649 L123.452833,21.0982442 C124.896967,22.0172386 126.971269,22.5161213 128.756744,22.5161213 C131.093615,22.5161213 132.826576,21.6758978 132.826576,19.942937 C132.826576,18.1837191 131.329928,17.3172386 128.467917,17.3172386 C127.181325,17.3172386 125.527135,17.5272945 123.977973,18.0786911 L124.60814,7.70718276 Z M148.659537,25.5881883 L145.114844,25.5881883 L145.114844,12.9848364 L148.607023,12.9848364 L152.519314,19.2339984 L156.457861,12.9848364 L159.923783,12.9848364 L159.923783,25.5881883 L156.405347,25.5881883 L156.405347,18.1574621 L153.438308,22.8574621 L151.626576,22.8574621 L148.659537,18.1574621 L148.659537,25.5881883 Z M174.286353,22.3323224 C174.286353,22.988747 174.706464,23.1725459 175.17909,23.1725459 C175.389146,23.1725459 175.625459,23.1462889 175.861772,23.067518 L175.861772,25.4569034 C175.284118,25.6669593 174.548923,25.8245012 173.839984,25.8245012 C172.553392,25.8245012 171.581883,25.3518755 171.056744,24.4066241 C169.822666,25.3781325 168.378532,25.9557861 166.514286,25.9557861 C164.151157,25.9557861 162.103113,24.590423 162.103113,22.0960096 C162.103113,18.8926576 165.122666,17.8948923 167.643336,17.8948923 C168.641101,17.8948923 169.743895,18.0261772 170.636632,18.236233 L170.636632,17.7898643 C170.636632,16.5295291 169.638867,15.6630487 167.669593,15.6630487 C165.936632,15.6630487 164.38747,16.1356744 163.205906,16.6083001 L163.205906,13.4574621 C164.229928,13.1161213 166.146688,12.6172386 168.089705,12.6172386 C171.87071,12.6172386 174.286353,14.1664006 174.286353,18.315004 L174.286353,22.3323224 Z M168.483559,20.0742219 C167.144453,20.0742219 165.831604,20.5205906 165.831604,21.8071828 C165.831604,22.7524342 166.698085,23.3563448 167.800878,23.3563448 C168.8249,23.3563448 169.796409,23.067518 170.636632,22.3323224 L170.636632,20.3630487 C170.085235,20.2317638 169.245012,20.0742219 168.483559,20.0742219 Z M180.798085,25.5881883 L176.701995,25.5881883 L180.010375,21.360814 C178.303671,20.6256185 177.437191,19.1027135 177.437191,17.3960096 C177.437191,15.0328811 179.170152,12.9848364 182.478532,12.9848364 L189.305347,12.9848364 L189.305347,25.5881883 L185.655626,25.5881883 L185.655626,21.8334397 L183.607582,21.8334397 L180.798085,25.5881883 Z M181.139425,17.5010375 C181.139425,18.5250599 181.900878,19.1027135 183.213727,19.1027135 L185.655626,19.1027135 L185.655626,15.8731045 L183.213727,15.8731045 C181.900878,15.8731045 181.139425,16.4507582 181.139425,17.5010375 Z" id="4-—-15-мая" fill="#131F3C"></path>
            <path d="M96.2602162,118.153111 C96.2602162,114.862586 99.0806663,113.311338 102.465206,113.311338 C104.510033,113.311338 106.554859,113.804917 107.988588,114.627548 L107.988588,118.623186 C106.578363,117.565517 104.721567,117.048435 102.817763,117.071939 C101.219508,117.095442 100.725929,117.51851 100.725929,118.129607 C100.725929,120.268449 109.281294,119.610344 109.281294,125.439274 C109.281294,129.340897 106.296318,130.469077 102.700244,130.469077 C100.326365,130.469077 98.1170125,129.92849 96.3777349,128.964837 L96.3777349,124.85168 C98.3285463,126.191394 100.490891,126.708476 102.371191,126.708476 C104.086965,126.708476 104.815582,126.426431 104.815582,125.6038 C104.815582,123.229921 96.2602162,124.029049 96.2602162,118.153111 Z M114.381608,130.11652 L109.915895,130.11652 L116.379427,113.663895 L121.080177,113.663895 L127.543709,130.11652 L123.077996,130.11652 L122.137846,127.531108 L115.321758,127.531108 L114.381608,130.11652 Z M118.306735,119.257787 L116.614465,124.005545 L120.84514,124.005545 L119.15287,119.257787 C119.011847,118.858224 118.870825,118.45866 118.729802,117.589021 C118.58878,118.45866 118.447757,118.858224 118.306735,119.257787 Z M129.11846,113.663895 L133.466654,113.663895 L133.466654,126.238401 L140.987854,126.238401 L140.987854,130.11652 L129.11846,130.11652 L129.11846,113.663895 Z M142.844651,113.663895 L154.690541,113.663895 L154.690541,117.424495 L147.192844,117.424495 L147.192844,119.939396 L153.985429,119.939396 L153.985429,123.676493 L147.192844,123.676493 L147.192844,126.35592 L154.831564,126.35592 L154.831564,130.11652 L142.844651,130.11652 L142.844651,113.663895 Z" id="sale-copy" fill="#131F3C"></path>
        </g>
    </g>
</svg>