<?xml version="1.0" encoding="UTF-8" standalone="no"?>
<svg width="250px" height="292px" viewBox="0 0 250 292" version="1.1" xmlns="http://www.w3.org/2000/svg" xmlns:xlink="http://www.w3.org/1999/xlink">
    <!-- Generator: Sketch 49 (51002) - http://www.bohemiancoding.com/sketch -->
    <title>Group 40 Copy</title>
    <desc>Created with Sketch.</desc>
    <defs>
        <radialGradient cx="100%" cy="50%" fx="100%" fy="50%" r="100.014205%" gradientTransform="translate(1.000000,0.500000),scale(1.000000,0.500004),rotate(89.005123),translate(-1.000000,-0.500000)" id="radialGradient-1">
            <stop stop-color="#8D00FF" offset="0%"></stop>
            <stop stop-color="#5C00FE" offset="69.8959662%"></stop>
            <stop stop-color="#8900FF" offset="100%"></stop>
        </radialGradient>
        <radialGradient cx="100%" cy="50%" fx="100%" fy="50%" r="100.011799%" gradientTransform="translate(1.000000,0.500000),scale(1.000000,0.500004),rotate(89.087948),translate(-1.000000,-0.500000)" id="radialGradient-2">
            <stop stop-color="#FF9495" offset="0%"></stop>
            <stop stop-color="#FE5F60" offset="70.3742825%"></stop>
            <stop stop-color="#FF9091" offset="100%"></stop>
        </radialGradient>
    </defs>
    <g id="Monoreto" stroke="none" stroke-width="1" fill="none" fill-rule="evenodd">
        <g id="Group-40-Copy" transform="translate(0.000000, -6.000000)">
            <g id="3-copy">
                <g id="Group-Copy-2" transform="translate(0.933759, 0.000000)">
                    <g id="Group-6" transform="translate(0.000000, 48.762969)">
                        <g id="Group-31">
                            <path d="M124.524976,249.047781 C113.595699,249.047871 102.852631,247.633628 92.2957729,244.804995 C81.7389145,241.976368 71.727937,237.829799 62.2629045,232.365289 C52.7978079,226.900714 44.2011758,220.304407 36.4730082,212.576368 C28.7447764,204.848264 22.1482772,196.25176 16.6835746,186.786792 C11.218872,177.321823 7.07211127,167.31091 4.24335644,156.754116 C1.41453755,146.197257 0.000128110995,135.454189 0,124.524976 C-6.40554976e-05,113.595699 1.41415322,102.852631 4.24277994,92.2957729 C7.07140665,81.7388504 11.2179752,71.727937 16.6825497,62.2628404 C22.1472523,52.7976798 28.7436875,44.2009837 36.4719192,36.4727519 C44.2000869,28.7444561 52.796719,22.148021 62.2618155,16.6833184 C71.726848,11.2185517 81.7378255,7.07185504 92.294684,4.24310021 C102.851606,1.41434539 113.59461,0 124.524976,0 L124.523759,56.0357493 C120.027832,56.0372866 115.575206,56.4772838 111.165882,57.3557409 C106.756558,58.234198 102.47528,59.5342684 98.321986,61.255888 C94.1686916,62.9775076 90.2231932,65.0876238 86.4854909,67.5863007 C82.7477885,70.0849135 79.2896244,72.9241093 76.1110625,76.1038242 C72.9325006,79.2835391 70.0945218,82.7426641 67.5971901,86.4812632 C65.0998584,90.2198623 62.9910874,94.1661294 61.270941,98.3200643 C59.5507307,102.473935 58.2521976,106.755725 57.3752778,111.165434 C56.4983581,115.575078 56.0598982,120.027896 56.0598982,124.523887 C56.0598982,129.019879 56.4984221,133.472761 57.375406,137.882469 C58.2523898,142.292114 59.5509869,146.573967 61.2711973,150.727902 C62.9914076,154.881837 65.1002427,158.828104 67.5976385,162.566704 C70.0950342,166.305367 72.933013,169.764492 76.1117031,172.944207 C79.290329,176.123857 82.7484932,178.963053 86.4862595,181.46173 C90.2240259,183.960343 94.1695884,186.070459 98.3229468,187.792079 C102.476241,189.513634 106.757583,190.813705 111.166971,191.692098 C115.576295,192.570491 120.028985,193.010488 124.524976,193.012025 L124.524976,249.047781 Z" id="Fill-30" fill="url(#radialGradient-1)"></path>
                            <path d="M249.044074,249.047781 C238.114797,249.047871 227.371729,247.633628 216.814871,244.804995 C206.258013,241.976368 196.247035,237.829799 186.782003,232.365289 C177.316906,226.900714 168.720274,220.304407 160.992106,212.576368 C153.263875,204.848264 146.667375,196.25176 141.202673,186.786792 C135.73797,177.321823 131.591209,167.31091 128.762455,156.754116 C125.933636,146.197257 124.519226,135.454189 124.519098,124.524976 C124.519034,113.595699 125.933251,102.852631 128.761878,92.2957729 C131.590505,81.7388504 135.737073,71.727937 141.201648,62.2628404 C146.66635,52.7976798 153.262786,44.2009837 160.991017,36.4727519 C168.719185,28.7444561 177.315817,22.148021 186.780914,16.6833184 C196.245946,11.2185517 206.256924,7.07185504 216.813782,4.24310021 C227.370705,1.41434539 238.113708,0 249.044074,0 L249.042857,56.0357493 C244.54693,56.0372866 240.094304,56.4772838 235.68498,57.3557409 C231.275656,58.234198 226.994378,59.5342684 222.841084,61.255888 C218.68779,62.9775076 214.742291,65.0876238 211.004589,67.5863007 C207.266887,70.0849135 203.808722,72.9241093 200.630161,76.1038242 C197.451599,79.2835391 194.61362,82.7426641 192.116288,86.4812632 C189.618956,90.2198623 187.510185,94.1661294 185.790039,98.3200643 C184.069829,102.473935 182.771296,106.755725 181.894376,111.165434 C181.017456,115.575078 180.578996,120.027896 180.578996,124.523887 C180.578996,129.019879 181.01752,133.472761 181.894504,137.882469 C182.771488,142.292114 184.070085,146.573967 185.790295,150.727902 C187.510506,154.881837 189.619341,158.828104 192.116737,162.566704 C194.614132,166.305367 197.452111,169.764492 200.630801,172.944207 C203.809427,176.123857 207.267591,178.963053 211.005358,181.46173 C214.743124,183.960343 218.688686,186.070459 222.842045,187.792079 C226.995339,189.513634 231.276681,190.813705 235.686069,191.692098 C240.095393,192.570491 244.548083,193.010488 249.044074,193.012025 L249.044074,249.047781 Z" id="Fill-30-Copy" fill="url(#radialGradient-2)" transform="translate(186.781586, 124.523890) scale(-1, 1) translate(-186.781586, -124.523890) "></path>
                        </g>
                        <circle id="Oval" fill="#FFFFFF" cx="124.90822" cy="124.90822" r="87.3982442"></circle>
                        <path d="M77.0899016,151.589233 L74.7660835,151.589233 L74.7660835,148.446797 C72.8119638,148.235541 70.9634721,147.707401 69.4846788,146.888783 L69.4846788,143.931196 C71.5180196,145.225141 73.8946518,145.753281 76.0072137,145.753281 C78.3838458,145.753281 79.9946742,145.198734 79.9946742,143.45587 C79.9946742,139.177932 69.5638999,141.448936 69.5638999,134.899994 C69.5638999,131.889594 71.8613109,130.278765 74.7660835,129.935474 L74.7660835,126.766631 L77.0899016,126.766631 L77.0899016,129.909067 C78.8591722,130.041102 80.6284428,130.516428 81.8695729,131.255825 L81.8695729,134.134191 C80.3643726,133.130724 78.3046247,132.576176 76.3240979,132.602583 C74.0795009,132.602583 72.6271146,133.262759 72.6271146,134.84718 C72.6271146,138.834641 83.057889,136.695672 83.057889,143.297428 C83.057889,146.862376 80.3907796,148.288355 77.0899016,148.473204 L77.0899016,151.589233 Z M85.2232649,139.177932 C85.2232649,133.922934 87.7055252,129.856253 93.2774072,129.856253 C98.8492892,129.856253 101.331549,133.922934 101.331549,139.177932 C101.331549,144.43293 98.8492892,148.499611 93.2774072,148.499611 C87.7055252,148.499611 85.2232649,144.43293 85.2232649,139.177932 Z M98.2947417,139.177932 C98.2947417,135.005622 96.7103203,132.602583 93.2774072,132.602583 C89.8180871,132.602583 88.2600727,135.005622 88.2600727,139.177932 C88.2600727,143.350242 89.8180871,145.753281 93.2774072,145.753281 C96.7103203,145.753281 98.2947417,143.350242 98.2947417,139.177932 Z M107.431572,146.703934 C107.431572,147.89225 106.612954,148.446797 105.662301,148.446797 C104.711648,148.446797 103.866624,147.89225 103.866624,146.703934 C103.866624,145.568432 104.711648,145.013884 105.662301,145.013884 C106.612954,145.013884 107.431572,145.568432 107.431572,146.703934 Z M109.966646,139.177932 C109.966646,133.922934 112.448906,129.856253 118.020788,129.856253 C123.59267,129.856253 126.074931,133.922934 126.074931,139.177932 C126.074931,144.43293 123.59267,148.499611 118.020788,148.499611 C112.448906,148.499611 109.966646,144.43293 109.966646,139.177932 Z M123.038123,139.177932 C123.038123,135.005622 121.453701,132.602583 118.020788,132.602583 C114.561468,132.602583 113.003454,135.005622 113.003454,139.177932 C113.003454,143.350242 114.561468,145.753281 118.020788,145.753281 C121.453701,145.753281 123.038123,143.350242 123.038123,139.177932 Z M137.535579,130.199544 L140.625201,130.199544 L140.625201,141.871449 L143.714822,141.871449 L143.714822,144.485744 L140.625201,144.485744 L140.625201,148.15632 L137.720428,148.15632 L137.720428,144.485744 L127.976236,144.485744 L127.976236,141.924263 L137.535579,130.199544 Z M137.720428,141.871449 L137.720428,134.028562 L131.329928,141.871449 L137.720428,141.871449 Z M146.910072,130.199544 L157.974615,130.199544 L157.974615,132.89306 L149.68281,132.89306 L149.41874,137.223812 C150.290171,137.012556 151.214417,136.906928 152.138663,136.906928 C155.597983,136.906928 158.81964,138.412128 158.81964,142.637252 C158.81964,146.519085 155.518762,148.499611 151.557709,148.499611 C149.471554,148.499611 147.385399,148.050692 145.800977,147.284888 L145.800977,144.459337 C147.306178,145.330769 149.339519,145.779688 151.214417,145.779688 C153.881527,145.779688 155.782832,144.723407 155.782832,142.610845 C155.782832,140.234213 153.749491,139.389188 150.897533,139.389188 C149.445147,139.389188 147.781504,139.679666 146.329118,140.181399 L146.910072,130.199544 Z M161.169865,139.177932 C161.169865,133.922934 163.652125,129.856253 169.224007,129.856253 C174.795889,129.856253 177.27815,133.922934 177.27815,139.177932 C177.27815,144.43293 174.795889,148.499611 169.224007,148.499611 C163.652125,148.499611 161.169865,144.43293 161.169865,139.177932 Z M174.241342,139.177932 C174.241342,135.005622 172.65692,132.602583 169.224007,132.602583 C165.764687,132.602583 164.206673,135.005622 164.206673,139.177932 C164.206673,143.350242 165.764687,145.753281 169.224007,145.753281 C172.65692,145.753281 174.241342,143.350242 174.241342,139.177932 Z M88.7882131,162.199544 L91.0064031,162.199544 L91.0064031,177.436397 L94.201653,177.436397 L94.201653,180.15632 L84.4310542,180.15632 L84.4310542,177.436397 L88.0224094,177.436397 L88.0224094,165.289166 L84.4310542,166.635924 L84.4310542,163.863187 L88.7882131,162.199544 Z M120.027722,161.671404 L122.747646,161.671404 L122.747646,180.15632 L119.737245,180.15632 L119.737245,167.216879 L113.901293,175.98401 L112.105615,175.98401 L106.269663,167.190472 L106.269663,180.15632 L103.259262,180.15632 L103.259262,161.671404 L105.979186,161.671404 L113.003454,172.26062 L120.027722,161.671404 Z M130.24724,180.15632 L127.23684,180.15632 L127.23684,161.671404 L130.062391,161.671404 L140.017839,175.1918 C139.991432,174.558031 139.991432,173.845041 139.991432,173.158459 L139.991432,161.671404 L143.001833,161.671404 L143.001833,180.15632 L140.176281,180.15632 L130.220833,166.635924 C130.24724,167.269693 130.24724,167.982682 130.24724,168.642858 L130.24724,180.15632 Z M150.501428,180.15632 L147.491027,180.15632 L147.491027,161.671404 L154.884993,161.671404 C158.344314,161.671404 161.988483,163.044569 161.988483,167.454542 C161.988483,170.75542 159.928735,172.339841 157.499289,172.920796 L163.414462,180.15632 L159.7967,180.15632 L154.251225,173.23768 L150.501428,173.23768 L150.501428,180.15632 Z M150.501428,164.417734 L150.501428,170.570571 L155.017029,170.570571 C156.997555,170.570571 158.925268,169.857581 158.925268,167.507356 C158.925268,165.130724 156.997555,164.417734 155.017029,164.417734 L150.501428,164.417734 Z" id="$0.0450-1-MNR" fill="#131F3C"></path>
                    </g>
                    <path d="M31.407103,25 L27.4685555,25 L27.4685555,6.62011173 L31.1707901,6.62011173 L39.7305666,18.6195531 C39.6780527,17.8581006 39.6517957,16.9391061 39.6517957,16.0988827 L39.6517957,6.62011173 L43.5903432,6.62011173 L43.5903432,25 L39.8881085,25 L31.328332,13.0005587 C31.380846,13.7620112 31.407103,14.6810056 31.407103,15.5212291 L31.407103,25 Z M46.3998404,18.698324 C46.3998404,14.2871508 49.7082203,12.0290503 53.3579409,12.0290503 C57.0339186,12.0290503 60.3160415,14.2871508 60.3160415,18.698324 C60.3160415,23.1094972 57.0339186,25.3675978 53.3579409,25.3675978 C49.7082203,25.3675978 46.3998404,23.1094972 46.3998404,18.698324 Z M56.6138069,18.698324 C56.6138069,16.7553073 55.4584996,15.2849162 53.3579409,15.2849162 C51.2836393,15.2849162 50.128332,16.7553073 50.128332,18.698324 C50.128332,20.6413408 51.2836393,22.1117318 53.3579409,22.1117318 C55.4584996,22.1117318 56.6138069,20.6413408 56.6138069,18.698324 Z M71.7378292,12.396648 L75.6238627,12.396648 L70.42498,25 L66.5914605,25 L61.3925778,12.396648 L65.2786113,12.396648 L68.5082203,21.1402235 L71.7378292,12.396648 Z M81.3478851,23.1882682 C81.3478851,24.6586592 80.3238627,25.3413408 79.1422985,25.3413408 C77.9607342,25.3413408 76.9104549,24.6586592 76.9104549,23.1882682 C76.9104549,21.7178771 77.9607342,21.0351955 79.1422985,21.0351955 C80.3238627,21.0351955 81.3478851,21.7178771 81.3478851,23.1882682 Z M93.8987231,7.1452514 L96.7607342,7.1452514 L96.7607342,21.6128492 L99.7540303,21.6128492 L99.7540303,25 L89.5663208,25 L89.5663208,21.6128492 L92.9272147,21.6128492 L92.9272147,11.0837989 L89.5663208,12.3441341 L89.5663208,8.79944134 L93.8987231,7.1452514 Z M102.064645,11.7139665 C102.064645,9.32458101 104.060176,6.77765363 108.943974,6.77765363 C113.486433,6.77765363 115.849561,9.32458101 115.875818,11.8189944 C115.902075,13.5519553 115.061852,14.8648045 113.617717,15.9413408 C115.24565,16.7553073 116.532243,18.0156425 116.532243,20.1687151 C116.532243,22.7944134 114.37917,25.3675978 108.996488,25.3675978 C103.666321,25.3675978 101.40822,22.7681564 101.40822,20.0374302 C101.40822,18.2519553 102.511014,16.5452514 104.19146,15.547486 C102.957382,14.7072626 102.064645,13.5256983 102.064645,11.7139665 Z M109.390343,17.6480447 C108.602634,17.3592179 107.657382,17.096648 106.738388,16.7553073 C105.766879,17.5692737 105.320511,18.6458101 105.346768,19.5648045 C105.373025,21.0877095 106.580846,22.2692737 109.285315,22.2692737 C111.175818,22.2692737 112.619952,21.4815642 112.619952,20.273743 C112.619952,18.750838 111.149561,18.2519553 109.390343,17.6480447 Z M112.094812,12.1078212 C112.094812,10.873743 110.992019,9.87597765 108.786433,9.87597765 C106.89593,9.87597765 105.819393,10.7424581 105.819393,11.7402235 C105.819393,13.3156425 107.421069,13.8145251 109.180287,14.3921788 C109.705427,14.5234637 110.256824,14.7072626 110.834477,14.8648045 C111.674701,14.024581 112.121069,12.9743017 112.094812,12.1078212 Z M142.3166,20.1424581 L124.881963,20.1424581 L124.881963,17.0703911 L142.3166,17.0703911 L142.3166,20.1424581 Z M151.559058,6.62011173 L158.438388,6.62011173 C164.976377,6.62011173 168.074701,10.4798883 168.074701,15.8100559 C168.074701,21.1402235 164.976377,25 158.438388,25 L151.559058,25 L151.559058,6.62011173 Z M164.057382,15.8100559 C164.057382,12.0290503 162.088109,10.0860335 158.438388,10.0860335 L155.497606,10.0860335 L155.497606,21.5340782 L158.438388,21.5340782 C162.088109,21.5340782 164.057382,19.5910615 164.057382,15.8100559 Z M169.91269,18.698324 C169.91269,13.9458101 173.56241,12.0290503 176.398164,12.0290503 C181.623304,12.0290503 183.303751,16.1513966 182.463528,19.8798883 L173.588667,19.8798883 C174.008779,21.7178771 175.951796,22.4793296 178.026097,22.4793296 C179.470231,22.4793296 180.756824,22.1905028 181.83336,21.7178771 L181.83336,24.5798883 C180.651796,25.0787709 179.102634,25.3675978 177.212131,25.3675978 C173.221069,25.3675978 169.91269,23.0832402 169.91269,18.698324 Z M179.181405,17.5167598 C179.31269,16.6502793 178.813807,14.8122905 176.529449,14.8122905 C174.980287,14.8122905 173.614924,15.7837989 173.56241,17.5167598 L179.181405,17.5167598 Z M184.275259,18.8821229 C184.275259,14.050838 187.898723,12.0027933 191.390902,12.0027933 C192.782522,12.0027933 194.147885,12.3178771 195.276935,12.9217877 L195.276935,16.1251397 C194.384198,15.547486 193.123863,15.1798883 191.916042,15.1798883 C189.920511,15.1798883 188.003751,16.1513966 188.003751,18.698324 C188.003751,21.1139665 189.894254,22.2167598 191.863528,22.2167598 C193.202634,22.2167598 194.489226,21.849162 195.40822,21.2977654 L195.40822,24.5273743 C194.174142,25.052514 192.756265,25.3675978 191.154589,25.3675978 C187.714924,25.3675978 184.275259,23.372067 184.275259,18.8821229 Z M201.788667,23.1882682 C201.788667,24.6586592 200.764645,25.3413408 199.583081,25.3413408 C198.401516,25.3413408 197.351237,24.6586592 197.351237,23.1882682 C197.351237,21.7178771 198.401516,21.0351955 199.583081,21.0351955 C200.764645,21.0351955 201.788667,21.7178771 201.788667,23.1882682 Z M210.322187,8.66815642 C212.160176,7.35530726 214.286991,6.77765363 216.466321,6.77765363 C220.063528,6.77765363 222.978053,8.40558659 222.978053,12.0553073 C222.978053,15.0748603 220.483639,16.8603352 218.146768,18.2519553 C216.019952,19.5122905 214.20822,20.4837989 214.181963,21.6391061 L223.109338,21.6128492 L223.109338,25 L209.718276,25 L209.718276,23.2407821 C209.718276,18.9346369 212.974142,17.2541899 215.59984,15.7050279 C217.464086,14.6284916 219.065762,13.9195531 219.065762,12.2128492 C219.065762,10.9 217.910455,10.2173184 216.098723,10.2173184 C214.313248,10.2173184 212.21269,10.9 210.322187,12.3441341 L210.322187,8.66815642 Z" id="Nov.-18-—-Dec.-2" fill="#131F3C"></path>
                </g>
            </g>
            <path d="M102.205295,113.956634 L105.985963,113.956634 L105.985963,128.659233 L108.954488,128.659233 L108.954488,133 L97.5844782,133 L97.5844782,128.659233 L100.945072,128.659233 L100.945072,119.08154 L97.5844782,120.341763 L97.5844782,115.720946 L102.205295,113.956634 Z M110.66279,123.478317 C110.66279,118.045357 113.26725,113.53656 119.484349,113.53656 C125.701447,113.53656 128.305908,118.045357 128.305908,123.478317 C128.305908,128.911277 125.701447,133.420074 119.484349,133.420074 C113.26725,133.420074 110.66279,128.911277 110.66279,123.478317 Z M123.124992,123.478317 C123.124992,119.809669 121.976789,118.017352 119.484349,118.017352 C116.991908,118.017352 115.843705,119.809669 115.843705,123.478317 C115.843705,127.146966 116.991908,128.939282 119.484349,128.939282 C121.976789,128.939282 123.124992,127.146966 123.124992,123.478317 Z M138.359685,134.680297 L135.27914,134.680297 L146.733165,111.716238 L149.813709,111.716238 L138.359685,134.680297 Z M140.82412,118.017352 C140.82412,121.377946 138.359685,123.058243 135.50318,123.058243 C132.61867,123.058243 130.154234,121.377946 130.154234,118.017352 C130.154234,114.656758 132.61867,112.976461 135.50318,112.976461 C138.359685,112.976461 140.82412,114.656758 140.82412,118.017352 Z M133.850888,118.017352 C133.850888,118.857501 134.298967,119.697649 135.50318,119.697649 C136.679388,119.697649 137.127467,118.857501 137.127467,118.017352 C137.127467,117.177204 136.679388,116.337055 135.50318,116.337055 C134.298967,116.337055 133.850888,117.177204 133.850888,118.017352 Z M154.826595,128.379183 C154.826595,131.739777 152.362159,133.420074 149.505655,133.420074 C146.621145,133.420074 144.156709,131.739777 144.156709,128.379183 C144.156709,125.018589 146.621145,123.338292 149.505655,123.338292 C152.362159,123.338292 154.826595,125.018589 154.826595,128.379183 Z M147.853363,128.379183 C147.853363,129.219332 148.301442,130.05948 149.505655,130.05948 C150.681862,130.05948 151.129942,129.219332 151.129942,128.379183 C151.129942,127.539035 150.681862,126.698886 149.505655,126.698886 C148.301442,126.698886 147.853363,127.539035 147.853363,128.379183 Z" id="10%" fill="#131F3C"></path>
            <path d="M87.514929,145.547374 L90.7584466,145.547374 L90.7584466,162 L87.890989,162 L87.890989,160.354737 C87.1623727,161.365399 85.8696664,162.329053 83.8013363,162.329053 C80.2052624,162.329053 78.2779549,159.438091 78.2779549,156.3591 C78.2779549,153.280108 80.2052624,150.389147 83.8013363,150.389147 C85.5876214,150.389147 86.7863127,151.117763 87.514929,151.916891 L87.514929,145.547374 Z M87.514929,155.019386 C87.0683577,154.032228 86.0106889,153.139086 84.5769601,153.139086 C82.7201638,153.139086 81.6154875,154.596318 81.6154875,156.3591 C81.6154875,158.121881 82.7201638,159.579114 84.5769601,159.579114 C86.0106889,159.579114 87.0683577,158.685971 87.514929,157.698814 L87.514929,155.019386 Z M96.8224144,162 L93.555393,162 L93.555393,150.7182 L96.8224144,150.7182 L96.8224144,162 Z M97.1044594,146.981103 C97.1044594,148.273809 96.2113168,148.837899 95.1771518,148.837899 C94.1664905,148.837899 93.273348,148.273809 93.273348,146.981103 C93.273348,145.711901 94.1664905,145.147811 95.1771518,145.147811 C96.2113168,145.147811 97.1044594,145.711901 97.1044594,146.981103 Z M99.1492857,153.867702 C99.1492857,151.258786 101.476157,150.389147 103.850036,150.389147 C105.448291,150.389147 106.858516,150.788711 108.0102,151.352801 L108.0102,154.032228 C107.046546,153.374123 105.401283,152.880545 104.06157,152.880545 C103.332953,152.880545 102.486818,153.092078 102.486818,153.773687 C102.486818,155.653987 108.856335,154.713837 108.856335,158.850497 C108.856335,161.506421 106.435448,162.329053 103.732517,162.329053 C102.016743,162.329053 100.394984,161.952992 99.2433007,161.271384 L99.2433007,158.568452 C100.465496,159.36758 102.18127,159.767144 103.544487,159.767144 C104.743178,159.767144 105.518802,159.55561 105.518802,158.921009 C105.518802,157.11122 99.1492857,157.910347 99.1492857,153.867702 Z M110.219552,156.523626 C110.219552,152.198936 113.46307,150.365643 116.589069,150.365643 C117.834768,150.365643 119.056963,150.647688 120.067624,151.188275 L120.067624,154.055732 C119.268497,153.53865 118.140316,153.209597 117.059144,153.209597 C115.272859,153.209597 113.557085,154.079236 113.557085,156.3591 C113.557085,158.521445 115.249355,159.508602 117.012136,159.508602 C118.210828,159.508602 119.362512,159.17955 120.185143,158.685971 L120.185143,161.576932 C119.080466,162.047008 117.811264,162.329053 116.377535,162.329053 C113.298544,162.329053 110.219552,160.542767 110.219552,156.523626 Z M121.73639,156.3591 C121.73639,152.41047 124.697863,150.389147 127.964884,150.389147 C131.255409,150.389147 134.193378,152.41047 134.193378,156.3591 C134.193378,160.30773 131.255409,162.329053 127.964884,162.329053 C124.697863,162.329053 121.73639,160.30773 121.73639,156.3591 Z M130.879349,156.3591 C130.879349,154.619822 129.845184,153.303612 127.964884,153.303612 C126.108088,153.303612 125.073923,154.619822 125.073923,156.3591 C125.073923,158.098377 126.108088,159.414587 127.964884,159.414587 C129.845184,159.414587 130.879349,158.098377 130.879349,156.3591 Z M144.158969,150.7182 L147.42599,150.7182 L147.42599,162 L144.535029,162 L144.535029,160.566271 C143.66539,161.576932 142.372684,162.329053 140.774429,162.329053 C137.718941,162.329053 136.191197,160.30773 136.191197,157.698814 L136.191197,150.7182 L139.458219,150.7182 L139.458219,157.275746 C139.458219,158.779986 140.28085,159.508602 141.620564,159.508602 C142.795751,159.508602 143.66539,158.756482 144.158969,158.074874 L144.158969,150.7182 Z M153.090394,152.151928 C153.960033,151.141267 155.229235,150.389147 156.850994,150.389147 C159.812467,150.389147 161.434226,152.41047 161.434226,155.019386 L161.434226,162 L158.167204,162 L158.167204,155.442453 C158.167204,153.91471 157.250558,153.209597 155.981355,153.209597 C154.829672,153.209597 153.936529,153.961717 153.466454,154.643326 L153.466454,162 L150.199433,162 L150.199433,150.7182 L153.090394,150.7182 L153.090394,152.151928 Z M164.912781,147.427674 L168.156298,146.652051 L168.156298,150.7182 L171.728869,150.7182 L171.728869,153.468138 L168.156298,153.468138 L168.156298,157.886844 C168.156298,159.062031 168.743892,159.579114 169.966087,159.579114 C170.718207,159.579114 171.352809,159.461595 172.010914,159.203054 L172.010914,161.835474 C171.141275,162.141023 170.10711,162.329053 168.97893,162.329053 C166.793081,162.329053 164.912781,161.318391 164.912781,158.521445 L164.912781,153.468138 L163.008977,153.468138 L163.008977,150.7182 L164.912781,150.7182 L164.912781,147.427674 Z" id="discount" fill="#131F3C"></path>
        </g>
    </g>
</svg>