<?xml version="1.0" encoding="UTF-8"?>
<svg width="583px" height="25px" viewBox="0 0 583 25" version="1.1" xmlns="http://www.w3.org/2000/svg" xmlns:xlink="http://www.w3.org/1999/xlink">
    <!-- Generator: Sketch 48.2 (47327) - http://www.bohemiancoding.com/sketch -->
    <title>cups</title>
    <desc>Created with Sketch.</desc>
    <defs></defs>
    <g id="Page-1" stroke="none" stroke-width="1" fill="none" fill-rule="evenodd">
        <g id="cups" fill="#07090B" fill-rule="nonzero">
            <path d="M473.697765,1.14525142 L475.903352,1.14525142 L475.903352,16.2955307 L479.080447,16.2955307 L479.080447,19 L469.365363,19 L469.365363,16.2955307 L472.936313,16.2955307 L472.936313,4.21731846 L469.365363,5.5564246 L469.365363,2.79944137 L473.697765,1.14525142 Z M480.918436,10.0726257 C480.918436,4.84748606 483.386592,0.803910642 488.926816,0.803910642 C494.467039,0.803910642 496.935195,4.84748606 496.935195,10.0726257 C496.935195,15.2977654 494.467039,19.3413408 488.926816,19.3413408 C483.386592,19.3413408 480.918436,15.2977654 480.918436,10.0726257 Z M493.915642,10.0726257 C493.915642,5.92402237 492.340223,3.5346369 488.926816,3.5346369 C485.487151,3.5346369 483.937989,5.92402237 483.937989,10.0726257 C483.937989,14.2212291 485.487151,16.6106145 488.926816,16.6106145 C492.340223,16.6106145 493.915642,14.2212291 493.915642,10.0726257 Z M500.611173,1.14525142 L511.612849,1.14525142 L511.612849,3.82346371 L503.368156,3.82346371 L503.105587,8.12960896 C503.972067,7.91955309 504.891061,7.81452516 505.810056,7.81452516 C509.249721,7.81452516 512.453073,9.3111732 512.453073,13.5122905 C512.453073,17.372067 509.17095,19.3413408 505.232402,19.3413408 C503.158101,19.3413408 501.083799,18.8949721 499.50838,18.1335196 L499.50838,15.3240224 C501.005028,16.1905028 503.026816,16.6368715 504.891061,16.6368715 C507.543017,16.6368715 509.433519,15.5865922 509.433519,13.4860335 C509.433519,11.122905 507.411732,10.2826816 504.575978,10.2826816 C503.131844,10.2826816 501.477654,10.5715084 500.03352,11.0703911 L500.611173,1.14525142 Z M514.789944,10.0726257 C514.789944,4.84748606 517.2581,0.803910642 522.798324,0.803910642 C528.338547,0.803910642 530.806704,4.84748606 530.806704,10.0726257 C530.806704,15.2977654 528.338547,19.3413408 522.798324,19.3413408 C517.2581,19.3413408 514.789944,15.2977654 514.789944,10.0726257 Z M527.787151,10.0726257 C527.787151,5.92402237 526.211732,3.5346369 522.798324,3.5346369 C519.358659,3.5346369 517.809497,5.92402237 517.809497,10.0726257 C517.809497,14.2212291 519.358659,16.6106145 522.798324,16.6106145 C526.211732,16.6106145 527.787151,14.2212291 527.787151,10.0726257 Z M534.298883,0.62011176 L546.954748,0.62011176 L546.954748,3.35083801 L537.292179,3.35083801 L537.292179,8.3659218 L546.167039,8.3659218 L546.167039,11.0966481 L537.292179,11.0966481 L537.292179,16.2692737 L547.11229,16.2692737 L547.11229,19 L534.298883,19 L534.298883,0.62011176 Z M548.713966,0.62011176 L563.864246,0.62011176 L563.864246,3.377095 L557.798883,3.377095 L557.798883,19 L554.805586,19 L554.805586,3.377095 L548.713966,3.377095 L548.713966,0.62011176 Z M579.14581,0.62011176 L582.139106,0.62011176 L582.139106,19 L579.14581,19 L579.14581,11.175419 L569.456983,11.175419 L569.456983,19 L566.463687,19 L566.463687,0.62011176 L569.456983,0.62011176 L569.456983,8.41843577 L579.14581,8.41843577 L579.14581,0.62011176 Z M341.539767,1.5 L343.539767,1.5 L343.539767,8.525 C344.389767,7.575 345.889767,6.7 347.664767,6.7 C350.539767,6.7 352.664767,8.675 352.664767,11.6 L352.664767,19 L350.664767,19 L350.664767,11.85 C350.664767,9.6 349.289767,8.55 347.439767,8.55 C345.664767,8.55 344.339767,9.75 343.539767,10.95 L343.539767,19 L341.539767,19 L341.539767,1.5 Z M365.689767,16.5 C365.689767,17.225 366.089767,17.425 366.614767,17.425 C366.914767,17.425 367.239767,17.35 367.539767,17.25 L367.539767,18.875 C367.064767,19.05 366.539767,19.15 366.039767,19.15 C365.064767,19.15 364.189767,18.75 363.839767,17.7 C362.639767,18.7 361.114767,19.3 359.164767,19.3 C357.039767,19.3 354.939767,18.175 354.939767,15.65 C354.939767,12.55 357.789767,11.6 360.364767,11.6 C361.414767,11.6 362.689767,11.75 363.689767,11.975 L363.689767,11.55 C363.689767,9.75 362.464767,8.55 360.264767,8.55 C358.414767,8.55 356.939767,9 355.889767,9.45 L355.889767,7.5 C356.839767,7.175 358.489767,6.7 360.464767,6.7 C363.664767,6.7 365.689767,8.45 365.689767,11.8 L365.689767,16.5 Z M356.989767,15.55 C356.989767,16.95 358.264767,17.575 359.589767,17.575 C361.114767,17.575 362.639767,16.95 363.689767,15.825 L363.689767,13.625 C362.839767,13.45 361.614767,13.275 360.639767,13.275 C358.889767,13.275 356.989767,13.8 356.989767,15.55 Z M371.064767,9.125 C372.014767,7.55 374.139767,6.575 376.239767,6.75 L376.239767,8.75 C373.889767,8.475 371.989767,9.6 371.264767,11.525 L371.264767,19 L369.264767,19 L369.264767,7 L371.064767,7 L371.064767,9.125 Z M387.539767,1.5 L389.539767,1.5 L389.539767,19 L387.739767,19 L387.739767,17 C386.664767,18.225 385.189767,19.3 382.889767,19.3 C379.464767,19.3 376.889767,16.6 376.889767,13 C376.889767,9.4 379.464767,6.7 382.889767,6.7 C385.189767,6.7 386.664767,7.775 387.539767,8.8 L387.539767,1.5 Z M387.539767,11.5 C386.864767,9.95 385.264767,8.55 383.114767,8.55 C380.789767,8.55 378.889767,10.25 378.889767,13 C378.889767,15.75 380.789767,17.45 383.114767,17.45 C385.264767,17.45 386.864767,16.05 387.539767,14.5 L387.539767,11.5 Z M398.089767,13.05 C398.089767,8.675 401.464767,6.7 404.589767,6.7 C405.939767,6.7 407.264767,7 408.289767,7.675 L408.289767,9.625 C407.389767,8.925 406.114767,8.55 404.839767,8.55 C402.514767,8.55 400.089767,9.85 400.089767,13 C400.089767,16.075 402.439767,17.45 404.789767,17.45 C406.089767,17.45 407.414767,17.075 408.414767,16.475 L408.414767,18.475 C407.289767,19.025 406.014767,19.3 404.514767,19.3 C401.364767,19.3 398.089767,17.325 398.089767,13.05 Z M420.714767,16.5 C420.714767,17.225 421.114767,17.425 421.639767,17.425 C421.939767,17.425 422.264767,17.35 422.564767,17.25 L422.564767,18.875 C422.089767,19.05 421.564767,19.15 421.064767,19.15 C420.089767,19.15 419.214767,18.75 418.864767,17.7 C417.664767,18.7 416.139767,19.3 414.189767,19.3 C412.064767,19.3 409.964767,18.175 409.964767,15.65 C409.964767,12.55 412.814767,11.6 415.389767,11.6 C416.439767,11.6 417.714767,11.75 418.714767,11.975 L418.714767,11.55 C418.714767,9.75 417.489767,8.55 415.289767,8.55 C413.439767,8.55 411.964767,9 410.914767,9.45 L410.914767,7.5 C411.864767,7.175 413.514767,6.7 415.489767,6.7 C418.689767,6.7 420.714767,8.45 420.714767,11.8 L420.714767,16.5 Z M412.014767,15.55 C412.014767,16.95 413.289767,17.575 414.614767,17.575 C416.139767,17.575 417.664767,16.95 418.714767,15.825 L418.714767,13.625 C417.864767,13.45 416.639767,13.275 415.664767,13.275 C413.914767,13.275 412.014767,13.8 412.014767,15.55 Z M426.089767,9 C427.164767,7.775 428.639767,6.7 430.939767,6.7 C434.364767,6.7 436.939767,9.4 436.939767,13 C436.939767,16.6 434.364767,19.3 430.939767,19.3 C428.639767,19.3 427.164767,18.225 426.289767,17.2 L426.289767,24.5 L424.289767,24.5 L424.289767,7 L426.089767,7 L426.089767,9 Z M434.939767,13 C434.939767,10.25 433.039767,8.55 430.714767,8.55 C428.564767,8.55 426.964767,9.95 426.289767,11.5 L426.289767,14.5 C426.964767,16.05 428.564767,17.45 430.714767,17.45 C433.039767,17.45 434.939767,15.75 434.939767,13 Z M461.089767,13.75 L445.239767,13.75 L445.239767,11.85 L461.089767,11.85 L461.089767,13.75 Z" id="hard-cap-—-$800К"></path>
            <path d="M0.732960891,2.61564248 C2.57094972,1.35530729 4.59273742,0.803910642 6.66703909,0.803910642 C10.2905028,0.803910642 12.9424581,2.48435757 12.9424581,5.81899443 C12.9424581,8.8385475 10.4217877,10.6240224 8.00614524,12.0681564 C5.69553072,13.4335196 3.51620111,14.5363129 3.48994413,16.3217877 L13.073743,16.2955307 L13.073743,19 L0.129050278,19 L0.129050278,17.6346369 C0.129050278,13.2759777 3.35865921,11.6217877 6.06312848,10.0201117 C8.13743015,8.81229052 9.94916199,7.89329611 9.94916199,5.8715084 C9.94916199,4.32234639 8.61005585,3.50837991 6.40446926,3.50837991 C4.59273742,3.50837991 2.62346368,4.13854751 0.732960891,5.50391064 L0.732960891,2.61564248 Z M18.6402234,9.12737432 C20.3469273,8.10335197 21.9223463,7.65698326 23.8391061,7.65698326 C26.9111731,7.65698326 30.0094972,9.57374303 30.0094972,13.3547486 C30.0094972,17.2932961 26.9899441,19.3413408 23.4189944,19.3413408 C17.9575419,19.3413408 15.6206704,15.875419 15.6206704,10.2301676 C15.6206704,3.66592181 19.322905,0.803910642 23.8916201,0.803910642 C25.493296,0.803910642 27.121229,1.17150841 28.5128491,1.85418997 L28.5128491,4.58491622 C27.2,3.84972069 25.6508379,3.45586595 24.1804469,3.45586595 C21.4759776,3.45586595 19.0078212,4.84748606 18.6402234,9.12737432 Z M18.6664804,11.7793296 C19.0078212,15.3765363 20.6620111,16.7681564 23.1826815,16.7681564 C25.2569832,16.7681564 26.9899441,15.849162 26.9899441,13.4860335 C26.9899441,11.0441341 25.0731843,10.2826816 22.9988826,10.2826816 C21.5022346,10.2826816 19.9530726,10.7553073 18.6664804,11.7793296 Z M33.344134,1.14525142 L44.34581,1.14525142 L44.34581,3.82346371 L36.1011173,3.82346371 L35.8385474,8.12960896 C36.7050279,7.91955309 37.6240223,7.81452516 38.5430167,7.81452516 C41.9826815,7.81452516 45.1860334,9.3111732 45.1860334,13.5122905 C45.1860334,17.372067 41.9039105,19.3413408 37.9653631,19.3413408 C35.8910614,19.3413408 33.8167597,18.8949721 32.2413407,18.1335196 L32.2413407,15.3240224 C33.7379888,16.1905028 35.7597765,16.6368715 37.6240223,16.6368715 C40.2759776,16.6368715 42.1664804,15.5865922 42.1664804,13.4860335 C42.1664804,11.122905 40.1446927,10.2826816 37.3089385,10.2826816 C35.8648044,10.2826816 34.2106145,10.5715084 32.7664804,11.0703911 L33.344134,1.14525142 Z M48.4944133,0.62011176 L61.1502792,0.62011176 L61.1502792,3.35083801 L51.4877094,3.35083801 L51.4877094,8.3659218 L60.3625697,8.3659218 L60.3625697,11.0966481 L51.4877094,11.0966481 L51.4877094,16.2692737 L61.3078211,16.2692737 L61.3078211,19 L48.4944133,19 L48.4944133,0.62011176 Z M62.9094971,0.62011176 L78.0597764,0.62011176 L78.0597764,3.377095 L71.9944133,3.377095 L71.9944133,19 L69.0011172,19 L69.0011172,3.377095 L62.9094971,3.377095 L62.9094971,0.62011176 Z M93.3413406,0.62011176 L96.3346367,0.62011176 L96.3346367,19 L93.3413406,19 L93.3413406,11.175419 L83.6525138,11.175419 L83.6525138,19 L80.6592178,19 L80.6592178,0.62011176 L83.6525138,0.62011176 L83.6525138,8.41843577 L93.3413406,8.41843577 L93.3413406,0.62011176 Z M121.425,13.75 L105.575,13.75 L105.575,11.85 L121.425,11.85 L121.425,13.75 Z M129.85,10.15 C129.85,7.675 132.175,6.7 134.425,6.7 C136.025,6.7 137.55,7.125 138.675,7.725 L138.675,9.625 C137.675,8.975 136,8.5 134.55,8.5 C133.25,8.5 131.875,8.925 131.875,10.1 C131.875,12.7 139.5,11.6 139.5,15.925 C139.5,18.425 137.15,19.3 134.55,19.3 C132.85,19.3 131.025,18.85 129.9,18.125 L129.9,16.175 C131.125,17 132.95,17.45 134.45,17.45 C136.15,17.45 137.5,17.175 137.5,15.975 C137.5,13.45 129.85,14.45 129.85,10.15 Z M141.1,13 C141.1,8.9 144.25,6.7 147.5,6.7 C150.775,6.7 153.9,8.9 153.9,13 C153.9,17.1 150.775,19.3 147.5,19.3 C144.25,19.3 141.1,17.1 141.1,13 Z M151.9,13 C151.9,10.225 149.95,8.6 147.5,8.6 C145.05,8.6 143.1,10.225 143.1,13 C143.1,15.775 145.05,17.4 147.5,17.4 C149.95,17.4 151.9,15.775 151.9,13 Z M159.2,19 L157.2,19 L157.2,8.85 L154.95,8.85 L154.95,7 L157.2,7 L157.2,5.55 C157.2,2.2 159.35,1.2 161.45,1.2 C162.55,1.2 163.625,1.425 164.45,1.75 L164.45,3.6 C163.775,3.275 162.825,3.05 161.925,3.05 C160.475,3.05 159.2,3.425 159.2,5.625 L159.2,7 L163.7,7 L163.7,8.85 L159.2,8.85 L159.2,19 Z M166.325,3.275 L168.3,2.775 L168.3,7 L173.1,7 L173.1,8.85 L168.3,8.85 L168.3,15.05 C168.3,16.875 169.125,17.425 170.875,17.425 C171.825,17.425 172.725,17.2 173.525,16.875 L173.525,18.725 C172.625,19.05 171.45,19.275 170.3,19.275 C167.975,19.275 166.325,18.025 166.325,15.4 L166.325,8.85 L164.075,8.85 L164.075,7 L166.325,7 L166.325,3.275 Z M180.625,13.05 C180.625,8.675 184,6.7 187.125,6.7 C188.475,6.7 189.8,7 190.825,7.675 L190.825,9.625 C189.925,8.925 188.65,8.55 187.375,8.55 C185.05,8.55 182.625,9.85 182.625,13 C182.625,16.075 184.975,17.45 187.325,17.45 C188.625,17.45 189.95,17.075 190.95,16.475 L190.95,18.475 C189.825,19.025 188.55,19.3 187.05,19.3 C183.9,19.3 180.625,17.325 180.625,13.05 Z M203.25,16.5 C203.25,17.225 203.65,17.425 204.175,17.425 C204.475,17.425 204.8,17.35 205.1,17.25 L205.1,18.875 C204.625,19.05 204.1,19.15 203.6,19.15 C202.625,19.15 201.75,18.75 201.4,17.7 C200.2,18.7 198.675,19.3 196.725,19.3 C194.6,19.3 192.5,18.175 192.5,15.65 C192.5,12.55 195.35,11.6 197.925,11.6 C198.975,11.6 200.25,11.75 201.25,11.975 L201.25,11.55 C201.25,9.75 200.025,8.55 197.825,8.55 C195.975,8.55 194.5,9 193.45,9.45 L193.45,7.5 C194.4,7.175 196.05,6.7 198.025,6.7 C201.225,6.7 203.25,8.45 203.25,11.8 L203.25,16.5 Z M194.55,15.55 C194.55,16.95 195.825,17.575 197.15,17.575 C198.675,17.575 200.2,16.95 201.25,15.825 L201.25,13.625 C200.4,13.45 199.175,13.275 198.2,13.275 C196.45,13.275 194.55,13.8 194.55,15.55 Z M208.625,9 C209.7,7.775 211.175,6.7 213.475,6.7 C216.9,6.7 219.475,9.4 219.475,13 C219.475,16.6 216.9,19.3 213.475,19.3 C211.175,19.3 209.7,18.225 208.825,17.2 L208.825,24.5 L206.825,24.5 L206.825,7 L208.625,7 L208.625,9 Z M217.475,13 C217.475,10.25 215.575,8.55 213.25,8.55 C211.1,8.55 209.5,9.95 208.825,11.5 L208.825,14.5 C209.5,16.05 211.1,17.45 213.25,17.45 C215.575,17.45 217.475,15.75 217.475,13 Z" id="$200К-—-soft-cap"></path>
        </g>
    </g>
</svg>