<?xml version="1.0" encoding="UTF-8"?>
<svg width="586px" height="29px" viewBox="0 0 586 29" version="1.1" xmlns="http://www.w3.org/2000/svg" xmlns:xlink="http://www.w3.org/1999/xlink">
    <!-- Generator: Sketch 48.2 (47327) - http://www.bohemiancoding.com/sketch -->
    <title>Group 2</title>
    <desc>Created with Sketch.</desc>
    <defs></defs>
    <g id="Page-1" stroke="none" stroke-width="1" fill="none" fill-rule="evenodd">
        <g id="pre-status-ch" transform="translate(0.000000, -200.000000)" fill="#07090B">
            <g id="Group-2-Copy" transform="translate(0.000000, 161.000000)">
                <g id="Group-2" transform="translate(0.000000, 33.000000)">
                    <g id="hard-cap-—-80万美元" transform="translate(350.000000, 0.000000)" font-size="25" font-weight="normal">
                        <text id="hard-cap-—" font-family="MullerRegular, Muller">
                            <tspan x="0.414767" y="27">hard cap —</tspan>
                        </text>
                        <text id="80" font-family="MullerRegular, Muller">
                            <tspan x="123.139767" y="27">80</tspan>
                        </text>
                        <text id="万美元" font-family="PingFangSC-Regular, PingFang SC">
                            <tspan x="162.189767" y="27">万美元</tspan>
                        </text>
                    </g>
                    <path d="M0.65,13.4 C2.4,12.2 4.325,11.675 6.3,11.675 C9.75,11.675 12.275,13.275 12.275,16.45 C12.275,19.325 9.875,21.025 7.575,22.4 C5.375,23.7 3.3,24.75 3.275,26.45 L12.4,26.425 L12.4,29 L0.075,29 L0.075,27.7 C0.075,23.55 3.15,21.975 5.725,20.45 C7.7,19.3 9.425,18.425 9.425,16.5 C9.425,15.025 8.15,14.25 6.05,14.25 C4.325,14.25 2.45,14.85 0.65,16.15 L0.65,13.4 Z M14.55,20.5 C14.55,15.525 16.9,11.675 22.175,11.675 C27.45,11.675 29.8,15.525 29.8,20.5 C29.8,25.475 27.45,29.325 22.175,29.325 C16.9,29.325 14.55,25.475 14.55,20.5 Z M26.925,20.5 C26.925,16.55 25.425,14.275 22.175,14.275 C18.9,14.275 17.425,16.55 17.425,20.5 C17.425,24.45 18.9,26.725 22.175,26.725 C25.425,26.725 26.925,24.45 26.925,20.5 Z M32.2,10 L54.25,10 L54.25,12.275 L41.525,12.275 L41.525,13.45 C41.475,14.75 41.425,15.95 41.325,17.1 L52.15,17.1 C52.1,23.9 51.825,27.95 51.3,29.3 C50.75,30.625 49.8,31.3 48.45,31.3 C47.3,31.3 45.95,31.25 44.35,31.175 L43.75,28.9 C45.425,28.975 46.8,29.025 47.875,29.075 C48.65,29.025 49.15,28.475 49.35,27.425 C49.55,26.375 49.675,23.675 49.725,19.3 L41.05,19.3 C40.675,21.6 40.125,23.55 39.4,25.2 C38.1,27.925 36,30.025 33.1,31.5 L31.775,29.4 C34.575,27.85 36.5,25.85 37.55,23.45 C38.55,20.875 39.075,17.55 39.175,13.45 L39.175,12.275 L32.2,12.275 L32.2,10 Z M57.775,10.85 L63.15,10.85 C62.825,10.1 62.475,9.425 62.075,8.8 L64.575,8.4 C64.925,9.125 65.25,9.95 65.575,10.85 L70.4,10.85 C70.775,10.05 71.075,9.2 71.275,8.325 L73.825,8.65 C73.6,9.425 73.3,10.15 72.925,10.85 L78.125,10.85 L78.125,13 L69.15,13 L69.15,14.9 L76.8,14.9 L76.8,16.95 L69.15,16.95 L69.15,18.875 L78.95,18.875 L78.95,21.075 L56.95,21.075 L56.95,18.875 L66.75,18.875 L66.75,16.95 L59.175,16.95 L59.175,14.9 L66.75,14.9 L66.75,13 L57.775,13 L57.775,10.85 Z M66.925,21.55 L69.325,21.8 C69.25,22.275 69.15,22.75 69.025,23.2 L78.4,23.2 L78.4,25.45 L70.15,25.45 C71.85,27.4 75.025,28.725 79.675,29.425 L78.425,31.675 C73.075,30.625 69.575,28.725 67.9,25.95 C67.375,26.85 66.75,27.625 66,28.3 C64.35,29.75 61.475,30.9 57.325,31.75 L56.35,29.425 C59.9,28.8 62.475,27.9 64.05,26.7 C64.55,26.3 64.95,25.9 65.3,25.45 L57.525,25.45 L57.525,23.2 L66.525,23.2 C66.7,22.65 66.825,22.1 66.925,21.55 Z M83.85,9.7 L101.275,9.7 L101.275,12 L83.85,12 L83.85,9.7 Z M81.925,17.05 L103.45,17.05 L103.45,19.35 L96.75,19.35 L96.75,28.05 C96.75,28.7 97.05,29.05 97.675,29.05 L100.425,29.05 C100.8,29.05 101.075,28.85 101.25,28.475 C101.475,28.05 101.625,26.8 101.675,24.7 L103.825,25.4 C103.65,28.2 103.325,29.85 102.875,30.4 C102.425,30.9 101.775,31.175 100.875,31.175 L97,31.175 C95.3,31.175 94.45,30.3 94.45,28.55 L94.45,19.35 L90.5,19.35 L90.5,19.8 C90.4,23 89.7,25.575 88.45,27.5 C87.2,29.275 85.2,30.65 82.4,31.65 L81.125,29.65 C83.825,28.675 85.65,27.45 86.625,25.975 C87.575,24.375 88.1,22.325 88.2,19.8 L88.2,19.35 L81.925,19.35 L81.925,17.05 Z M127.975,23.75 L112.125,23.75 L112.125,21.85 L127.975,21.85 L127.975,23.75 Z M136.4,20.15 C136.4,17.675 138.725,16.7 140.975,16.7 C142.575,16.7 144.1,17.125 145.225,17.725 L145.225,19.625 C144.225,18.975 142.55,18.5 141.1,18.5 C139.8,18.5 138.425,18.925 138.425,20.1 C138.425,22.7 146.05,21.6 146.05,25.925 C146.05,28.425 143.7,29.3 141.1,29.3 C139.4,29.3 137.575,28.85 136.45,28.125 L136.45,26.175 C137.675,27 139.5,27.45 141,27.45 C142.7,27.45 144.05,27.175 144.05,25.975 C144.05,23.45 136.4,24.45 136.4,20.15 Z M147.65,23 C147.65,18.9 150.8,16.7 154.05,16.7 C157.325,16.7 160.45,18.9 160.45,23 C160.45,27.1 157.325,29.3 154.05,29.3 C150.8,29.3 147.65,27.1 147.65,23 Z M158.45,23 C158.45,20.225 156.5,18.6 154.05,18.6 C151.6,18.6 149.65,20.225 149.65,23 C149.65,25.775 151.6,27.4 154.05,27.4 C156.5,27.4 158.45,25.775 158.45,23 Z M165.75,29 L163.75,29 L163.75,18.85 L161.5,18.85 L161.5,17 L163.75,17 L163.75,15.55 C163.75,12.2 165.9,11.2 168,11.2 C169.1,11.2 170.175,11.425 171,11.75 L171,13.6 C170.325,13.275 169.375,13.05 168.475,13.05 C167.025,13.05 165.75,13.425 165.75,15.625 L165.75,17 L170.25,17 L170.25,18.85 L165.75,18.85 L165.75,29 Z M172.875,13.275 L174.85,12.775 L174.85,17 L179.65,17 L179.65,18.85 L174.85,18.85 L174.85,25.05 C174.85,26.875 175.675,27.425 177.425,27.425 C178.375,27.425 179.275,27.2 180.075,26.875 L180.075,28.725 C179.175,29.05 178,29.275 176.85,29.275 C174.525,29.275 172.875,28.025 172.875,25.4 L172.875,18.85 L170.625,18.85 L170.625,17 L172.875,17 L172.875,13.275 Z M187.175,23.05 C187.175,18.675 190.55,16.7 193.675,16.7 C195.025,16.7 196.35,17 197.375,17.675 L197.375,19.625 C196.475,18.925 195.2,18.55 193.925,18.55 C191.6,18.55 189.175,19.85 189.175,23 C189.175,26.075 191.525,27.45 193.875,27.45 C195.175,27.45 196.5,27.075 197.5,26.475 L197.5,28.475 C196.375,29.025 195.1,29.3 193.6,29.3 C190.45,29.3 187.175,27.325 187.175,23.05 Z M209.8,26.5 C209.8,27.225 210.2,27.425 210.725,27.425 C211.025,27.425 211.35,27.35 211.65,27.25 L211.65,28.875 C211.175,29.05 210.65,29.15 210.15,29.15 C209.175,29.15 208.3,28.75 207.95,27.7 C206.75,28.7 205.225,29.3 203.275,29.3 C201.15,29.3 199.05,28.175 199.05,25.65 C199.05,22.55 201.9,21.6 204.475,21.6 C205.525,21.6 206.8,21.75 207.8,21.975 L207.8,21.55 C207.8,19.75 206.575,18.55 204.375,18.55 C202.525,18.55 201.05,19 200,19.45 L200,17.5 C200.95,17.175 202.6,16.7 204.575,16.7 C207.775,16.7 209.8,18.45 209.8,21.8 L209.8,26.5 Z M201.1,25.55 C201.1,26.95 202.375,27.575 203.7,27.575 C205.225,27.575 206.75,26.95 207.8,25.825 L207.8,23.625 C206.95,23.45 205.725,23.275 204.75,23.275 C203,23.275 201.1,23.8 201.1,25.55 Z M215.175,19 C216.25,17.775 217.725,16.7 220.025,16.7 C223.45,16.7 226.025,19.4 226.025,23 C226.025,26.6 223.45,29.3 220.025,29.3 C217.725,29.3 216.25,28.225 215.375,27.2 L215.375,34.5 L213.375,34.5 L213.375,17 L215.175,17 L215.175,19 Z M224.025,23 C224.025,20.25 222.125,18.55 219.8,18.55 C217.65,18.55 216.05,19.95 215.375,21.5 L215.375,24.5 C216.05,26.05 217.65,27.45 219.8,27.45 C222.125,27.45 224.025,25.75 224.025,23 Z" id="20万美元-—-soft-cap" fill-rule="nonzero"></path>
                </g>
            </g>
        </g>
    </g>
</svg>