<?xml version="1.0" encoding="UTF-8"?>
<svg width="585px" height="24px" viewBox="0 0 585 24" version="1.1" xmlns="http://www.w3.org/2000/svg" xmlns:xlink="http://www.w3.org/1999/xlink">
    <!-- Generator: Sketch 48.2 (47327) - http://www.bohemiancoding.com/sketch -->
    <title>pre-status</title>
    <desc>Created with Sketch.</desc>
    <defs></defs>
    <g id="Page-1" stroke="none" stroke-width="1" fill="none" fill-rule="evenodd">
        <g id="pre-status" fill="#07090B" fill-rule="nonzero">
            <g id="Group-2-Copy-2">
                <path d="M513.189767,0.5 L520.964767,0.5 L520.964767,12.9 C520.964767,16.775 518.239767,18.3 514.964767,18.3 C513.239767,18.3 511.589767,17.9 510.464767,17.275 L510.464767,14.55 C511.514767,15.225 512.939767,15.6 514.364767,15.6 C516.464767,15.6 518.114767,14.925 518.114767,12.65 L518.114767,3.125 L513.189767,3.125 L513.189767,0.5 Z M532.764767,6 L535.439767,6 L535.439767,18 L533.064767,18 L533.064767,16.35 C532.189767,17.4 530.714767,18.325 528.889767,18.325 C525.714767,18.325 523.939767,16.275 523.939767,13.425 L523.939767,6 L526.614767,6 L526.614767,13.075 C526.614767,15.025 527.639767,15.95 529.414767,15.95 C530.939767,15.95 532.089767,14.925 532.764767,13.95 L532.764767,6 Z M540.889767,7.65 C541.764767,6.6 543.239767,5.675 545.064767,5.675 C548.089767,5.675 550.014767,7.725 550.014767,10.575 L550.014767,18 L547.339767,18 L547.339767,10.925 C547.339767,8.975 546.139767,8.05 544.539767,8.05 C543.014767,8.05 541.864767,9.075 541.189767,10.05 L541.189767,18 L538.514767,18 L538.514767,6 L540.889767,6 L540.889767,7.65 Z M562.314767,1 L564.414767,1 L564.414767,15.425 L567.439767,15.425 L567.439767,18 L558.189767,18 L558.189767,15.425 L561.589767,15.425 L561.589767,3.925 L558.189767,5.2 L558.189767,2.575 L562.314767,1 Z M568.914767,9.5 C568.914767,4.525 571.264767,0.675 576.539767,0.675 C581.814767,0.675 584.164767,4.525 584.164767,9.5 C584.164767,14.475 581.814767,18.325 576.539767,18.325 C571.264767,18.325 568.914767,14.475 568.914767,9.5 Z M581.289767,9.5 C581.289767,5.55 579.789767,3.275 576.539767,3.275 C573.264767,3.275 571.789767,5.55 571.789767,9.5 C571.789767,13.45 573.264767,15.725 576.539767,15.725 C579.789767,15.725 581.289767,13.45 581.289767,9.5 Z" id="Jun-10"></path>
                <path d="M16,0.5 L18.575,0.5 L18.575,18 L15.725,18 L15.725,5.75 L10.2,14.05 L8.5,14.05 L2.975,5.725 L2.975,18 L0.125,18 L0.125,0.5 L2.7,0.5 L9.35,10.525 L16,0.5 Z M32.125,15.225 C32.125,15.9 32.525,16.1 33,16.1 C33.275,16.1 33.55,16.025 33.8,15.95 L33.8,17.875 C33.3,18.075 32.7,18.175 32.1,18.175 C31,18.175 30.125,17.75 29.7,16.775 C28.525,17.725 27.05,18.325 25.175,18.325 C23,18.325 20.975,17.125 20.975,14.65 C20.975,11.575 23.825,10.625 26.325,10.625 C27.35,10.625 28.5,10.775 29.45,10.975 L29.45,10.55 C29.45,9.05 28.35,8 26.3,8 C24.525,8 23.05,8.45 21.975,8.925 L21.975,6.475 C22.925,6.15 24.65,5.675 26.575,5.675 C29.975,5.675 32.125,7.3 32.125,10.925 L32.125,15.225 Z M26.85,12.5 C25.325,12.5 23.725,12.975 23.725,14.475 C23.725,15.65 24.775,16.25 25.975,16.25 C27.25,16.25 28.5,15.775 29.45,14.825 L29.45,12.8 C28.725,12.65 27.7,12.5 26.85,12.5 Z M40.125,15.05 L43.7,6 L46.5,6 L40.875,19.625 C39.575,22.75 37.875,23.8 36.05,23.8 C35.525,23.8 35,23.725 34.475,23.6 L34.475,21.325 C34.875,21.45 35.3,21.5 35.7,21.5 C37,21.5 37.975,20.575 38.675,18.7 L38.925,18.1 L33.225,6 L36.075,6 L40.125,15.05 Z M56.925,1 L59.025,1 L59.025,15.425 L62.05,15.425 L62.05,18 L52.8,18 L52.8,15.425 L56.2,15.425 L56.2,3.925 L52.8,5.2 L52.8,2.575 L56.925,1 Z M63.525,9.5 C63.525,4.525 65.875,0.675 71.15,0.675 C76.425,0.675 78.775,4.525 78.775,9.5 C78.775,14.475 76.425,18.325 71.15,18.325 C65.875,18.325 63.525,14.475 63.525,9.5 Z M75.9,9.5 C75.9,5.55 74.4,3.275 71.15,3.275 C67.875,3.275 66.4,5.55 66.4,9.5 C66.4,13.45 67.875,15.725 71.15,15.725 C74.4,15.725 75.9,13.45 75.9,9.5 Z" id="May-10"></path>
            </g>
        </g>
    </g>
</svg>