<?xml version="1.0" encoding="UTF-8"?>
<svg width="586px" height="24px" viewBox="0 0 586 24" version="1.1" xmlns="http://www.w3.org/2000/svg" xmlns:xlink="http://www.w3.org/1999/xlink">
    <!-- Generator: Sketch 48.2 (47327) - http://www.bohemiancoding.com/sketch -->
    <title>Group 2</title>
    <desc>Created with Sketch.</desc>
    <defs></defs>
    <g id="Page-1" stroke="none" stroke-width="1" fill="none" fill-rule="evenodd">
        <g id="pre-status-ch" transform="translate(0.000000, -113.000000)" fill="#07090B" fill-rule="nonzero">
            <g id="Group-2-Copy-2" transform="translate(0.000000, 72.000000)">
                <g id="Group-2" transform="translate(0.000000, 41.000000)">
                    <path d="M504.239767,11.425 C507.014767,15.425 509.139767,18.925 510.589767,21.925 L508.489767,23.4 C506.939767,20.2 504.839767,16.65 502.189767,12.7 L504.239767,11.425 Z M494.939767,11.575 L497.239767,12.475 C495.539767,17.175 493.264767,20.75 490.439767,23.25 L488.439767,21.525 C491.364767,19.025 493.539767,15.725 494.939767,11.575 Z M488.514767,7 L510.864767,7 L510.864767,9.3 L488.514767,9.3 L488.514767,7 Z M497.639767,0.675 C499.589767,2.025 501.214767,3.35 502.564767,4.7 L500.814767,6.45 C499.689767,5.15 498.089767,3.725 495.989767,2.225 L497.639767,0.675 Z M520.014767,9.625 L520.014767,13.55 L530.139767,13.55 L530.139767,9.625 L520.014767,9.625 Z M530.139767,7.4 L530.139767,3.65 L520.014767,3.65 L520.014767,7.4 L530.139767,7.4 Z M519.889767,15.75 C519.564767,18.95 518.614767,21.6 517.039767,23.725 L515.214767,22.05 C516.789767,19.85 517.589767,17.05 517.639767,13.65 L517.639767,1.375 L532.539767,1.375 L532.539767,20.95 C532.539767,22.55 531.714767,23.35 530.114767,23.35 L526.914767,23.35 L526.264767,21.025 C527.364767,21.075 528.389767,21.125 529.339767,21.125 C529.864767,21.125 530.139767,20.775 530.139767,20.125 L530.139767,15.75 L519.889767,15.75 Z M548.014767,0.55 L550.414767,0.55 L550.414767,8.525 L560.339767,8.525 L560.339767,10.825 L550.414767,10.825 L550.414767,23.55 L548.014767,23.55 L548.014767,10.825 L537.989767,10.825 L537.989767,8.525 L548.014767,8.525 L548.014767,0.55 Z M566.264767,1.25 L581.464767,1.25 L581.464767,8.45 L566.264767,8.45 L566.264767,1.25 Z M579.064767,6.325 L579.064767,3.375 L568.664767,3.375 L568.664767,6.325 L579.064767,6.325 Z M568.014767,12.375 L562.489767,12.375 L562.489767,10.1 L585.214767,10.1 L585.214767,12.375 L570.389767,12.375 L569.664767,14.775 L581.814767,14.775 C581.614767,19 581.214767,21.5 580.589767,22.275 C579.964767,23.05 578.739767,23.45 576.939767,23.45 C575.714767,23.45 574.614767,23.375 573.639767,23.25 L572.839767,21.1 C574.189767,21.225 575.364767,21.3 576.414767,21.3 C577.664767,21.3 578.464767,21.05 578.764767,20.55 C579.039767,20.05 579.239767,18.825 579.389767,16.925 L566.839767,16.925 L568.014767,12.375 Z" id="六月十号"></path>
                    <path d="M2.55,9.55 L8.1,9.55 L9.25,4.075 L1.275,4.075 L1.275,1.775 L21.75,1.775 L21.75,4.075 L11.65,4.075 L10.5,9.55 L18.8,9.55 L18.8,20.275 L22.7,20.275 L22.7,22.6 L0.325,22.6 L0.325,20.275 L5.85,20.275 L7.625,11.85 L2.55,11.85 L2.55,9.55 Z M8.225,20.275 L16.375,20.275 L16.375,11.85 L10,11.85 L8.225,20.275 Z M31.825,9.625 L31.825,13.55 L41.95,13.55 L41.95,9.625 L31.825,9.625 Z M41.95,7.4 L41.95,3.65 L31.825,3.65 L31.825,7.4 L41.95,7.4 Z M31.7,15.75 C31.375,18.95 30.425,21.6 28.85,23.725 L27.025,22.05 C28.6,19.85 29.4,17.05 29.45,13.65 L29.45,1.375 L44.35,1.375 L44.35,20.95 C44.35,22.55 43.525,23.35 41.925,23.35 L38.725,23.35 L38.075,21.025 C39.175,21.075 40.2,21.125 41.15,21.125 C41.675,21.125 41.95,20.775 41.95,20.125 L41.95,15.75 L31.7,15.75 Z M59.825,0.55 L62.225,0.55 L62.225,8.525 L72.15,8.525 L72.15,10.825 L62.225,10.825 L62.225,23.55 L59.825,23.55 L59.825,10.825 L49.8,10.825 L49.8,8.525 L59.825,8.525 L59.825,0.55 Z M78.075,1.25 L93.275,1.25 L93.275,8.45 L78.075,8.45 L78.075,1.25 Z M90.875,6.325 L90.875,3.375 L80.475,3.375 L80.475,6.325 L90.875,6.325 Z M79.825,12.375 L74.3,12.375 L74.3,10.1 L97.025,10.1 L97.025,12.375 L82.2,12.375 L81.475,14.775 L93.625,14.775 C93.425,19 93.025,21.5 92.4,22.275 C91.775,23.05 90.55,23.45 88.75,23.45 C87.525,23.45 86.425,23.375 85.45,23.25 L84.65,21.1 C86,21.225 87.175,21.3 88.225,21.3 C89.475,21.3 90.275,21.05 90.575,20.55 C90.85,20.05 91.05,18.825 91.2,16.925 L78.65,16.925 L79.825,12.375 Z" id="五月十号"></path>
                </g>
            </g>
        </g>
    </g>
</svg>