<?xml version="1.0" encoding="UTF-8"?>
<svg width="582px" height="43px" viewBox="0 0 582 43" version="1.1" xmlns="http://www.w3.org/2000/svg" xmlns:xlink="http://www.w3.org/1999/xlink">
    <!-- Generator: Sketch 48.2 (47327) - http://www.bohemiancoding.com/sketch -->
    <title>Group</title>
    <desc>Created with Sketch.</desc>
    <defs></defs>
    <g id="Page-1" stroke="none" stroke-width="1" fill="none" fill-rule="evenodd">
        <g id="Group" fill="#5300FF">
            <g id="pre-ICO" fill-rule="nonzero">
                <path d="M4.29,14.775 C6,12.705 8.565,10.815 12.615,10.815 C19.095,10.815 23.325,15.99 23.325,22.2 C23.325,28.41 19.095,33.585 12.615,33.585 C8.835,33.585 6.315,31.92 4.83,30.21 L4.83,42.9 L0.015,42.9 L0.015,11.4 L4.29,11.4 L4.29,14.775 Z M18.42,22.2 C18.42,17.97 15.63,15.045 11.715,15.045 C8.385,15.045 5.865,17.205 4.83,19.545 L4.83,24.81 C5.865,27.195 8.385,29.355 11.715,29.355 C15.63,29.355 18.42,26.43 18.42,22.2 Z M32.28,14.955 C33.945,12.3 37.455,10.59 41.37,10.95 L41.37,15.675 C37.5,15.135 34.125,16.845 32.82,19.905 L32.82,33 L28.005,33 L28.005,11.4 L32.28,11.4 L32.28,14.955 Z M43.665,22.2 C43.665,14.37 49.605,10.815 54.6,10.815 C63.195,10.815 66.165,17.745 64.77,24 L48.525,24 C49.065,27.87 52.845,29.49 56.805,29.49 C59.415,29.49 61.8,28.86 63.645,27.96 L63.645,32.1 C61.665,33.045 58.92,33.585 55.905,33.585 C49.29,33.585 43.665,29.805 43.665,22.2 Z M60.45,20.4 C60.72,18.51 59.55,14.82 54.825,14.82 C51.585,14.82 48.66,16.755 48.48,20.4 L60.45,20.4 Z M69.315,19.77 L85.695,19.77 L85.695,24.09 L69.315,24.09 L69.315,19.77 Z M92.175,1.5 L97.305,1.5 L97.305,33 L92.175,33 L92.175,1.5 Z M103.02,17.52 C103.02,6.315 111.435,0.915 119.715,0.915 C122.865,0.915 125.97,1.635 128.67,2.985 L128.67,7.98 C126.465,6.45 123.54,5.64 120.57,5.64 C114.54,5.64 108.285,9.195 108.24,17.52 C108.24,25.26 114.63,28.86 120.66,28.86 C123.9,28.86 126.825,28.005 128.895,26.43 L128.895,31.515 C126.24,32.82 123.09,33.585 119.76,33.585 C111.615,33.585 102.975,28.275 103.02,17.52 Z M132.405,17.25 C132.405,8.925 137.85,0.915 148.965,0.915 C160.035,0.915 165.525,8.925 165.525,17.25 C165.525,25.575 160.035,33.585 148.965,33.585 C137.85,33.585 132.405,25.575 132.405,17.25 Z M160.305,17.25 C160.305,11.22 156.615,5.73 148.965,5.73 C141.36,5.73 137.625,11.22 137.625,17.25 C137.625,23.28 141.36,28.77 148.965,28.77 C156.615,28.77 160.305,23.28 160.305,17.25 Z"></path>
            </g>
            <path d="M325.423635,9.8 L333.703635,9.8 C342.595635,9.8 347.023635,15.128 347.023635,22.4 C347.023635,29.672 342.595635,35 333.703635,35 L325.423635,35 L325.423635,9.8 Z M343.963635,22.4 C343.963635,16.352 340.507635,12.68 333.703635,12.68 L328.447635,12.68 L328.447635,32.12 L333.703635,32.12 C340.507635,32.12 343.963635,28.448 343.963635,22.4 Z M356.471998,35 L353.591998,35 L353.591998,17.72 L356.471998,17.72 L356.471998,35 Z M356.903998,12.212 C356.903998,13.436 356.039998,14.048 355.031998,14.048 C354.023998,14.048 353.159998,13.436 353.159998,12.212 C353.159998,11.024 354.023998,10.376 355.031998,10.376 C356.039998,10.376 356.903998,11.024 356.903998,12.212 Z M363.220362,22.256 C363.220362,18.692 366.568362,17.288 369.808362,17.288 C372.112362,17.288 374.308362,17.9 375.928362,18.764 L375.928362,21.5 C374.488362,20.564 372.076362,19.88 369.988362,19.88 C368.116362,19.88 366.136362,20.492 366.136362,22.184 C366.136362,25.928 377.116362,24.344 377.116362,30.572 C377.116362,34.172 373.732362,35.432 369.988362,35.432 C367.540362,35.432 364.912362,34.784 363.292362,33.74 L363.292362,30.932 C365.056362,32.12 367.684362,32.768 369.844362,32.768 C372.292362,32.768 374.236362,32.372 374.236362,30.644 C374.236362,27.008 363.220362,28.448 363.220362,22.256 Z M382.172726,26.432 C382.172726,20.132 387.032726,17.288 391.532726,17.288 C393.476726,17.288 395.384726,17.72 396.860726,18.692 L396.860726,21.5 C395.564726,20.492 393.728726,19.952 391.892726,19.952 C388.544726,19.952 385.052726,21.824 385.052726,26.36 C385.052726,30.788 388.436726,32.768 391.820726,32.768 C393.692726,32.768 395.600726,32.228 397.040726,31.364 L397.040726,34.244 C395.420726,35.036 393.584726,35.432 391.424726,35.432 C386.888726,35.432 382.172726,32.588 382.172726,26.432 Z M402.06109,26.36 C402.06109,20.456 406.59709,17.288 411.27709,17.288 C415.99309,17.288 420.49309,20.456 420.49309,26.36 C420.49309,32.264 415.99309,35.432 411.27709,35.432 C406.59709,35.432 402.06109,32.264 402.06109,26.36 Z M417.61309,26.36 C417.61309,22.364 414.80509,20.024 411.27709,20.024 C407.74909,20.024 404.94109,22.364 404.94109,26.36 C404.94109,30.356 407.74909,32.696 411.27709,32.696 C414.80509,32.696 417.61309,30.356 417.61309,26.36 Z M439.913454,17.72 L442.793454,17.72 L442.793454,35 L440.201454,35 L440.201454,32.444 C439.049454,33.956 436.745454,35.432 433.973454,35.432 C429.473454,35.432 426.773454,32.588 426.773454,28.376 L426.773454,17.72 L429.653454,17.72 L429.653454,28.016 C429.653454,31.256 431.273454,32.768 434.297454,32.768 C436.853454,32.768 438.761454,31.04 439.913454,29.312 L439.913454,17.72 Z M453.069817,20.276 C454.221817,18.764 456.525817,17.288 459.297817,17.288 C463.437817,17.288 466.497817,20.132 466.497817,24.344 L466.497817,35 L463.617817,35 L463.617817,24.704 C463.617817,21.464 461.637817,19.952 458.973817,19.952 C456.417817,19.952 454.509817,21.68 453.357817,23.408 L453.357817,35 L450.477817,35 L450.477817,17.72 L453.069817,17.72 L453.069817,20.276 Z M474.902181,12.356 L477.746181,11.636 L477.746181,17.72 L484.658181,17.72 L484.658181,20.384 L477.746181,20.384 L477.746181,29.312 C477.746181,31.94 478.934181,32.732 481.454181,32.732 C482.822181,32.732 484.118181,32.408 485.270181,31.94 L485.270181,34.604 C483.974181,35.072 482.282181,35.396 480.626181,35.396 C477.278181,35.396 474.902181,33.596 474.902181,29.816 L474.902181,20.384 L471.662181,20.384 L471.662181,17.72 L474.902181,17.72 L474.902181,12.356 Z M502.906909,10.52 L517.594909,10.52 L517.594909,13.4 L505.750909,13.4 L505.318909,20.312 C506.614909,19.952 508.054909,19.772 509.494909,19.772 C514.102909,19.772 518.782909,21.752 518.782909,27.62 C518.782909,32.588 514.606909,35.432 509.278909,35.432 C506.434909,35.432 503.554909,34.82 501.430909,33.776 L501.430909,30.896 C503.518909,32.012 506.290909,32.624 508.918909,32.624 C512.914909,32.624 515.722909,30.932 515.722909,27.62 C515.722909,23.624 512.266909,22.508 508.450909,22.508 C506.290909,22.508 503.986909,22.976 502.114909,23.66 L502.906909,10.52 Z M524.559272,22.76 C524.559272,15.524 527.943272,10.088 535.359272,10.088 C542.811272,10.088 546.195272,15.524 546.195272,22.76 C546.195272,29.996 542.811272,35.432 535.359272,35.432 C527.943272,35.432 524.559272,29.996 524.559272,22.76 Z M543.135272,22.76 C543.135272,16.64 540.723272,12.968 535.359272,12.968 C530.031272,12.968 527.619272,16.64 527.619272,22.76 C527.619272,28.88 530.031272,32.552 535.359272,32.552 C540.723272,32.552 543.135272,28.88 543.135272,22.76 Z M560.611636,37.16 L557.731636,37.16 L572.455636,7.64 L575.335636,7.64 L560.611636,37.16 Z M563.383636,15.02 C563.383636,18.656 560.611636,20.672 557.515636,20.672 C554.383636,20.672 551.575636,18.656 551.575636,15.02 C551.575636,11.384 554.383636,9.368 557.515636,9.368 C560.611636,9.368 563.383636,11.384 563.383636,15.02 Z M554.311636,15.02 C554.311636,16.712 555.391636,18.152 557.515636,18.152 C559.567636,18.152 560.647636,16.712 560.647636,15.02 C560.647636,13.328 559.567636,11.888 557.515636,11.888 C555.391636,11.888 554.311636,13.328 554.311636,15.02 Z M581.455636,29.78 C581.455636,33.416 578.683636,35.432 575.587636,35.432 C572.455636,35.432 569.647636,33.416 569.647636,29.78 C569.647636,26.144 572.455636,24.128 575.587636,24.128 C578.683636,24.128 581.455636,26.144 581.455636,29.78 Z M572.383636,29.78 C572.383636,31.472 573.463636,32.912 575.587636,32.912 C577.639636,32.912 578.719636,31.472 578.719636,29.78 C578.719636,28.088 577.639636,26.648 575.587636,26.648 C573.463636,26.648 572.383636,28.088 572.383636,29.78 Z" id="Discount-50%"></path>
        </g>
    </g>
</svg>