<?xml version="1.0" encoding="utf-8"?>
<!-- Generator: Adobe Illustrator 19.2.1, SVG Export Plug-In . SVG Version: 6.00 Build 0)  -->
<svg version="1.1" id="Слой_1" xmlns="http://www.w3.org/2000/svg" xmlns:xlink="http://www.w3.org/1999/xlink" x="0px" y="0px"
	 viewBox="0 0 180.5 53.1" style="enable-background:new 0 0 180.5 53.1;" xml:space="preserve">
<style type="text/css">
	.st0{filter:url(#filter-2);}
	.st1{fill:#040744;}
	.st2{fill:#FFFFFF;}
</style>
<filter  filterUnits="objectBoundingBox" height="205.5%" id="filter-2" width="131.0%" x="-15.5%" y="-37.7%">
	<feOffset  dx="0" dy="8" in="SourceAlpha" result="shadowOffsetOuter1"></feOffset>
	<feGaussianBlur  in="shadowOffsetOuter1" result="shadowBlurOuter1" stdDeviation="8"></feGaussianBlur>
	
		<feColorMatrix  in="shadowBlurOuter1" type="matrix" values="0 0 0 0 0.156862745   0 0 0 0 0.168627451   0 0 0 0 0.192156863  0 0 0 0.08 0">
		</feColorMatrix>
</filter>
<title>Google Play Badge</title>
<desc>Created with Sketch.</desc>
<g id="Custodian" transform="translate(-335.000000, -3129.000000)">
	<g id="Background" transform="translate(-344.700000, 773.100000)">
		<g id="Group-18" transform="translate(468.000000, 2363.400000)">
			<g id="Google-Play-Badge" transform="translate(227.700000, 0.000000)">
				<g id="Base">
					<g class="st0">
						<path id="path-1_2_" d="M-7.9-7.5h164.3c4.5,0,8.1,3.6,8.1,8.1v36.9c0,4.5-3.6,8.1-8.1,8.1H-7.9c-4.5,0-8.1-3.6-8.1-8.1V0.6
							C-16-3.9-12.4-7.5-7.9-7.5z"/>
					</g>
					<g>
						<path id="path-1_1_" class="st1" d="M-7.9-7.5h164.3c4.5,0,8.1,3.6,8.1,8.1v36.9c0,4.5-3.6,8.1-8.1,8.1H-7.9
							c-4.5,0-8.1-3.6-8.1-8.1V0.6C-16-3.9-12.4-7.5-7.9-7.5z"/>
					</g>
				</g>
				<path id="Text" class="st2" d="M144.9,36.9h-2.6l2.5-5.6l-4.4-10.1h2.7l2.9,7.2h0.1l2.8-7.2h2.8L144.9,36.9L144.9,36.9z
					 M137.8,30.5L137.8,30.5c-0.8,1.1-2,1.7-3.2,1.6c-1,0.1-2.1-0.3-2.8-1c-0.8-0.7-1.2-1.7-1.3-2.7c0-2.4,2.4-3.7,4.8-3.7
					c0.9,0,1.8,0.2,2.6,0.6v-0.2c-0.1-1.3-1.3-2.3-2.6-2.1c-0.9-0.1-1.8,0.4-2.3,1.2l-2.2-0.9c0.8-1.7,2.6-2.6,4.4-2.5
					c2.8,0,5,1.6,5,4.6v6.4h-2.4L137.8,30.5L137.8,30.5L137.8,30.5z M135.6,26.8c-1.2,0-2.6,0.5-2.6,1.8c0.2,0.9,1,1.5,1.9,1.4
					c1.5,0,2.8-1.1,2.9-2.6C137.2,26.9,136.4,26.7,135.6,26.8L135.6,26.8L135.6,26.8z M126.6,15.2h2.5v16.6h-2.5L126.6,15.2
					L126.6,15.2L126.6,15.2z M119.8,25.5h-3.5v6.3h-2.5V15.2h5.9c1.9-0.1,3.7,0.9,4.7,2.5c1,1.6,1,3.7,0,5.3
					C123.5,24.7,121.7,25.7,119.8,25.5L119.8,25.5L119.8,25.5z M119.9,17.6h-3.5v5.7h3.5c1,0,2-0.5,2.5-1.4s0.5-2,0-2.9
					S120.9,17.5,119.9,17.6L119.9,17.6L119.9,17.6z M103.7,29.9c1.1,0,2.2-0.6,2.8-1.6l1.9,1.3c-1,1.6-2.8,2.5-4.7,2.5
					c-1.5,0-2.9-0.6-4-1.6c-1.1-1.1-1.6-2.5-1.6-4c-0.1-1.5,0.4-2.9,1.5-4c1-1.1,2.4-1.7,3.9-1.7c2.2,0.1,4.1,1.5,4.8,3.6l0.3,0.6
					l-7.5,3.1C101.4,29.3,102.5,30,103.7,29.9L103.7,29.9L103.7,29.9z M105.6,24.3c-0.4-0.8-1.2-1.3-2.1-1.2c-0.8,0-1.6,0.4-2.2,1
					s-0.8,1.4-0.8,2.3L105.6,24.3L105.6,24.3z M94.4,15.2h2.5v16.6h-2.5L94.4,15.2L94.4,15.2L94.4,15.2z M87.3,37.2
					c-2.2,0-4.2-1.3-5-3.3l2.2-0.9c0.5,1.2,1.6,2,2.8,2c1.9,0,3-1.2,3-3.3v-0.8h-0.1c-0.8,0.8-1.8,1.3-3,1.3c-3-0.1-5.4-2.6-5.4-5.6
					s2.4-5.5,5.4-5.6c1.1,0,2.2,0.4,3,1.3h0.1v-0.9h2.4v10.1C92.7,35.5,90.2,37.2,87.3,37.2L87.3,37.2L87.3,37.2z M87.5,23.1
					c-1.8,0.2-3.1,1.6-3.1,3.4s1.4,3.3,3.1,3.4c1.7-0.2,3-1.7,3-3.4S89.2,23.3,87.5,23.1L87.5,23.1L87.5,23.1z M90,9.4l-3.9-6.2
					l0,1.1v5.1h-1.3V1.2h1.5L90,7.1L90,6V1.2h1.3v8.2H90L90,9.4L90,9.4z M79.5,9.6c-1.1,0-2.2-0.4-3-1.2c-1.6-1.7-1.6-4.4,0-6.1
					c0.8-0.8,1.9-1.3,3-1.3s2.2,0.5,3,1.3c1.6,1.7,1.6,4.4,0,6.1C81.7,9.2,80.6,9.6,79.5,9.6L79.5,9.6L79.5,9.6z M77.4,3.1
					c-1.1,1.2-1.1,3.1,0,4.4c1.1,1.1,3,1.1,4.1,0c1.1-1.2,1.1-3.1,0-4.4C80.4,2,78.6,2,77.4,3.1L77.4,3.1z M80.8,26.5
					c0,2.3-1.4,4.4-3.5,5.2c-2.1,0.9-4.6,0.4-6.2-1.2c-1.6-1.6-2.1-4.1-1.2-6.2s2.9-3.5,5.2-3.5c1.5,0,3,0.6,4,1.6
					S80.8,25,80.8,26.5L80.8,26.5L80.8,26.5z M75.2,23.1c-1.4-0.1-2.7,0.7-3.3,1.9c-0.6,1.3-0.4,2.8,0.6,3.8c1,1,2.5,1.4,3.8,0.9
					c1.3-0.5,2.2-1.8,2.2-3.2c0-0.9-0.3-1.7-0.9-2.4C76.9,23.5,76,23.1,75.2,23.1L75.2,23.1L75.2,23.1z M70,9.3v0.1h-1.3v-7h-2.2
					V1.2h5.7v1.2H70L70,9.3L70,9.3L70,9.3z M64.3,9.4h-0.1V1.2h1.3v8.2H64.3L64.3,9.4L64.3,9.4z M68.5,26.5c0,2.3-1.4,4.4-3.5,5.3
					c-2.1,0.9-4.6,0.4-6.2-1.2c-1.6-1.6-2.1-4.1-1.2-6.2c0.9-2.1,2.9-3.5,5.2-3.5c1.5,0,3,0.6,4,1.6C67.9,23.6,68.5,25,68.5,26.5
					L68.5,26.5L68.5,26.5z M62.8,23.1c-1.4-0.1-2.7,0.7-3.3,1.9c-0.6,1.3-0.4,2.8,0.6,3.8c1,1,2.5,1.4,3.8,0.9
					c1.3-0.5,2.2-1.8,2.2-3.2c0-0.9-0.3-1.7-0.9-2.4S63.7,23.1,62.8,23.1L62.8,23.1L62.8,23.1z M58.2,9.3v0.1h-1.3v-7h-2.2V1.2h5.7
					v1.2h-2.2V9.3L58.2,9.3L58.2,9.3z M48.1,17c-3.5,0-6.4,2.9-6.4,6.4s2.9,6.4,6.4,6.4c1.7,0.1,3.3-0.6,4.4-1.8
					c0.8-0.8,1.2-1.9,1.3-3h-5.7v-2.4h8.1c0.1,0.5,0.1,1,0.1,1.5c0.1,2.1-0.7,4.1-2.1,5.6c-1.6,1.7-3.8,2.6-6.1,2.5
					c-3.2,0-6.1-1.6-7.7-4.4c-1.6-2.7-1.6-6.1,0-8.8s4.5-4.4,7.7-4.4c2.2,0,4.4,0.8,6,2.4l-1.7,1.7C51.3,17.6,49.7,17,48.1,17
					L48.1,17L48.1,17z M49,1.2h4.9v1.2h-3.6v2.3h3.3v1.2h-3.3v2.3h3.6v1.3H49L49,1.2L49,1.2L49,1.2z M46.8,8.4L46.8,8.4L46.8,8.4
					c-0.8,0.8-1.9,1.3-3,1.2c-2.4,0-4.3-1.9-4.3-4.3S41.4,1,43.8,1c0.6,0,1.2,0.1,1.7,0.3c0.5,0.2,0.9,0.5,1.3,0.9l0.1,0.1l-0.1,0.1
					l-0.8,0.8l-0.1-0.1c-0.5-0.6-1.3-0.9-2.1-0.9c-1.4,0-2.6,0.9-2.9,2.2s0.2,2.7,1.4,3.4s2.7,0.5,3.7-0.4c0.4-0.4,0.6-0.9,0.6-1.4
					h-2.9V4.9h4.1l0,0.1c0,0.2,0.1,0.4,0.1,0.6C47.8,6.6,47.5,7.6,46.8,8.4L46.8,8.4L46.8,8.4L46.8,8.4z"/>
				<path id="Logo" class="st2" d="M1,36c0.1-0.1,0.3-0.1,0.4-0.2l19.7-11.2l-4.7-4.8L1,36L1,36L1,36z M22,24.1l-4.9-5.1l4.9-5.1
					l6.7,3.8c1.7,0.9,0.8,2.1,0,2.6L22,24.1L22,24.1L22,24.1z M21.1,13.5L1.4,2.3C1.2,2.2,1,2.1,0.7,2.1l15.7,16.3L21.1,13.5
					L21.1,13.5L21.1,13.5z M-0.4,2.3l16.2,16.8L-0.4,36c-0.5-0.3-0.7-1-0.7-1.9c0-1.7-0.1-28.1-0.1-30.1C-1.2,3.1-0.9,2.5-0.4,2.3
					L-0.4,2.3z"/>
			</g>
		</g>
	</g>
</g>
</svg>
